%TF.GenerationSoftware,KiCad,Pcbnew,5.1.6-c6e7f7d~86~ubuntu18.04.1*%
%TF.CreationDate,2020-06-14T11:54:17-05:00*%
%TF.ProjectId,Hydroponics,48796472-6f70-46f6-9e69-63732e6b6963,rev?*%
%TF.SameCoordinates,Original*%
%TF.FileFunction,Soldermask,Bot*%
%TF.FilePolarity,Negative*%
%FSLAX46Y46*%
G04 Gerber Fmt 4.6, Leading zero omitted, Abs format (unit mm)*
G04 Created by KiCad (PCBNEW 5.1.6-c6e7f7d~86~ubuntu18.04.1) date 2020-06-14 11:54:17*
%MOMM*%
%LPD*%
G01*
G04 APERTURE LIST*
%ADD10O,1.800000X1.800000*%
%ADD11R,1.800000X1.800000*%
%ADD12C,3.100000*%
%ADD13C,3.550000*%
%ADD14C,1.500000*%
%ADD15R,1.500000X1.500000*%
%ADD16C,2.200000*%
%ADD17R,2.200000X2.200000*%
%ADD18C,2.500000*%
G04 APERTURE END LIST*
D10*
%TO.C,J4*%
X35240000Y-35910000D03*
X35240000Y-38450000D03*
X35240000Y-40990000D03*
X35240000Y-43530000D03*
X35240000Y-46070000D03*
X35240000Y-48610000D03*
X35240000Y-51150000D03*
X35240000Y-53690000D03*
X35240000Y-56230000D03*
X35240000Y-58770000D03*
X35240000Y-61310000D03*
D11*
X35240000Y-63850000D03*
%TD*%
D12*
%TO.C,TP3*%
X46000000Y-31000000D03*
%TD*%
%TO.C,TP2*%
X46000000Y-36000000D03*
%TD*%
%TO.C,TP1*%
X41200000Y-36000000D03*
%TD*%
D13*
%TO.C,J6*%
X41780000Y-10850000D03*
X28640000Y-10850000D03*
X28640000Y-5170000D03*
X41780000Y-5170000D03*
D14*
X38710000Y-10500000D03*
X36210000Y-10500000D03*
X34210000Y-10500000D03*
X31710000Y-10500000D03*
X31710000Y-7880000D03*
X34210000Y-7880000D03*
X36210000Y-7880000D03*
D15*
X38710000Y-7880000D03*
%TD*%
D12*
%TO.C,H4*%
X105000000Y-84000000D03*
%TD*%
%TO.C,H3*%
X5000000Y-84000000D03*
%TD*%
%TO.C,H2*%
X105000000Y-16000000D03*
%TD*%
%TO.C,H1*%
X5000000Y-16000000D03*
%TD*%
D16*
%TO.C,J9*%
X17580000Y-4250000D03*
X15040000Y-4250000D03*
D17*
X12500000Y-4250000D03*
%TD*%
D16*
%TO.C,J10*%
X65540000Y-4350000D03*
D17*
X63000000Y-4350000D03*
%TD*%
D10*
%TO.C,U1*%
X105370000Y-53285000D03*
X105370000Y-50745000D03*
X105370000Y-48205000D03*
D11*
X105370000Y-45665000D03*
%TD*%
D18*
%TO.C,J2*%
X96450000Y-4850000D03*
X88830000Y-4850000D03*
X81210000Y-4850000D03*
X73590000Y-4850000D03*
%TD*%
D16*
%TO.C,J8*%
X7830000Y-4250000D03*
X5290000Y-4250000D03*
D17*
X2750000Y-4250000D03*
%TD*%
D18*
%TO.C,J1*%
X43180000Y-95340000D03*
X35560000Y-95340000D03*
X27940000Y-95340000D03*
X20320000Y-95340000D03*
%TD*%
%TO.C,J5*%
X67120000Y-95340000D03*
X74740000Y-95340000D03*
X82360000Y-95340000D03*
X89980000Y-95340000D03*
%TD*%
D10*
%TO.C,J3*%
X14920000Y-63840000D03*
X14920000Y-61300000D03*
X14920000Y-58760000D03*
X14920000Y-56220000D03*
X14920000Y-53680000D03*
X14920000Y-51140000D03*
X14920000Y-48600000D03*
X14920000Y-46060000D03*
X14920000Y-43520000D03*
X14920000Y-40980000D03*
X14920000Y-38440000D03*
X14920000Y-35900000D03*
X14920000Y-33360000D03*
X14920000Y-30820000D03*
X14920000Y-28280000D03*
D11*
X14920000Y-25740000D03*
%TD*%
M02*
