M48
; DRILL file {KiCad 5.1.6-c6e7f7d~86~ubuntu18.04.1} date Sun Jun 14 11:54:19 2020
; FORMAT={-:-/ absolute / inch / decimal}
; #@! TF.CreationDate,2020-06-14T11:54:19-05:00
; #@! TF.GenerationSoftware,Kicad,Pcbnew,5.1.6-c6e7f7d~86~ubuntu18.04.1
FMAT,2
INCH
T1C0.0118
T2C0.0150
T3C0.0157
T4C0.0354
T5C0.0394
T6C0.0433
T7C0.0630
T8C0.0787
T9C0.0906
T10C0.1181
%
G90
G05
T1
X0.0472Y-3.5315
X0.0984Y-0.0276
X0.0984Y-0.3228
X0.0984Y-0.4921
X0.0984Y-0.689
X0.0984Y-0.8858
X0.0984Y-1.0827
X0.0984Y-1.2795
X0.0984Y-1.4764
X0.0984Y-1.6732
X0.0984Y-1.8701
X0.0984Y-2.0669
X0.0984Y-2.2638
X0.0984Y-2.6575
X0.0984Y-2.8543
X0.0984Y-3.0512
X0.0984Y-3.248
X0.0984Y-3.4449
X0.0984Y-3.6417
X0.1969Y-3.6417
X0.1969Y-3.8622
X0.3386Y-3.5354
X0.3976Y-3.5354
X0.4921Y-0.3228
X0.6693Y-1.9463
X0.6693Y-2.2728
X0.8384Y-1.5828
X0.8592Y-1.6628
X0.88Y-1.7308
X0.8858Y-0.7165
X0.8858Y-1.4055
X0.8858Y-3.2126
X1.0184Y-1.6228
X1.0748Y-2.5157
X1.0827Y-0.9134
X1.2795Y-1.1102
X1.5551Y-1.7677
X1.5551Y-1.8976
X1.5551Y-2.2913
X1.6224Y-2.4723
X1.6732Y-1.7677
X1.7717Y-2.441
X1.7733Y-2.5175
X1.9094Y-2.0157
X1.9685Y-0.6181
X1.9685Y-1.0118
X2.0354Y-2.4843
X2.0472Y-1.063
X2.3622Y-0.6181
X2.3622Y-1.0118
X2.4518Y-1.1024
X2.5226Y-2.3021
X2.5591Y-1.0118
X2.6484Y-1.7478
X2.6484Y-1.8228
X2.6732Y-2.3189
X2.7559Y-0.7165
X2.7559Y-1.0118
X2.7598Y-2.6417
X2.8307Y-2.2677
X2.8622Y-2.6378
X3.0118Y-2.4094
X3.0551Y-1.7441
X3.0551Y-1.8071
X3.0669Y-2.5118
X3.0906Y-2.0079
X3.1894Y-2.5326
X3.2283Y-2.5571
X3.3819Y-2.0748
X3.4102Y-2.139
X3.4449Y-1.5039
X3.4449Y-1.8976
X3.5984Y-2.1728
X4.0734Y-2.5478
T2
X1.1644Y-2.5168
T3
X1.1644Y-1.9028
X1.8091Y-2.5787
X3.061Y-2.6161
T4
X1.2484Y-0.3102
X1.2484Y-0.4134
X1.3469Y-0.3102
X1.3469Y-0.4134
X1.4256Y-0.3102
X1.4256Y-0.4134
X1.524Y-0.3102
X1.524Y-0.4134
T5
X0.5874Y-1.0134
X0.5874Y-1.1134
X0.5874Y-1.2134
X0.5874Y-1.3134
X0.5874Y-1.4134
X0.5874Y-1.5134
X0.5874Y-1.6134
X0.5874Y-1.7134
X0.5874Y-1.8134
X0.5874Y-1.9134
X0.5874Y-2.0134
X0.5874Y-2.1134
X0.5874Y-2.2134
X0.5874Y-2.3134
X0.5874Y-2.4134
X0.5874Y-2.5134
X1.3874Y-1.4138
X1.3874Y-1.5138
X1.3874Y-1.6138
X1.3874Y-1.7138
X1.3874Y-1.8138
X1.3874Y-1.9138
X1.3874Y-2.0138
X1.3874Y-2.1138
X1.3874Y-2.2138
X1.3874Y-2.3138
X1.3874Y-2.4138
X1.3874Y-2.5138
X4.1484Y-1.7978
X4.1484Y-1.8978
X4.1484Y-1.9978
X4.1484Y-2.0978
T6
X2.4803Y-0.1713
X2.5803Y-0.1713
X0.4921Y-0.1673
X0.5921Y-0.1673
X0.6921Y-0.1673
X0.1083Y-0.1673
X0.2083Y-0.1673
X0.3083Y-0.1673
T7
X0.8Y-3.7535
X1.1Y-3.7535
X1.4Y-3.7535
X1.7Y-3.7535
X2.8972Y-0.1909
X3.1972Y-0.1909
X3.4972Y-0.1909
X3.7972Y-0.1909
X2.6425Y-3.7535
X2.9425Y-3.7535
X3.2425Y-3.7535
X3.5425Y-3.7535
T8
X1.811Y-1.4173
X1.811Y-1.2205
X1.622Y-1.4173
T9
X1.1276Y-0.2035
X1.1276Y-0.4272
X1.6449Y-0.2035
X1.6449Y-0.4272
T10
X4.1339Y-3.3071
X0.1969Y-3.3071
X0.1969Y-0.6299
X4.1339Y-0.6299
T0
M30
