%TF.GenerationSoftware,KiCad,Pcbnew,5.1.6-c6e7f7d~86~ubuntu18.04.1*%
%TF.CreationDate,2020-06-14T11:54:17-05:00*%
%TF.ProjectId,Hydroponics,48796472-6f70-46f6-9e69-63732e6b6963,rev?*%
%TF.SameCoordinates,Original*%
%TF.FileFunction,Soldermask,Top*%
%TF.FilePolarity,Negative*%
%FSLAX46Y46*%
G04 Gerber Fmt 4.6, Leading zero omitted, Abs format (unit mm)*
G04 Created by KiCad (PCBNEW 5.1.6-c6e7f7d~86~ubuntu18.04.1) date 2020-06-14 11:54:17*
%MOMM*%
%LPD*%
G01*
G04 APERTURE LIST*
%ADD10R,1.700000X1.500000*%
%ADD11O,1.800000X1.800000*%
%ADD12R,1.800000X1.800000*%
%ADD13R,4.040000X5.940000*%
%ADD14C,3.100000*%
%ADD15R,1.490000X1.500000*%
%ADD16R,3.460000X4.960000*%
%ADD17C,3.550000*%
%ADD18C,1.500000*%
%ADD19R,1.500000X1.500000*%
%ADD20C,2.200000*%
%ADD21R,2.200000X2.200000*%
%ADD22R,3.300000X4.100000*%
%ADD23R,2.100000X1.300000*%
%ADD24R,0.510000X0.610000*%
%ADD25R,2.600000X3.400000*%
%ADD26C,2.500000*%
%ADD27R,0.500000X1.160000*%
%ADD28R,2.410000X2.560000*%
%ADD29R,0.550000X1.575000*%
G04 APERTURE END LIST*
D10*
%TO.C,S2*%
X10327000Y-44402900D03*
X2327000Y-44402900D03*
X10327000Y-39902900D03*
X2327000Y-39902900D03*
%TD*%
D11*
%TO.C,J4*%
X35240000Y-35910000D03*
X35240000Y-38450000D03*
X35240000Y-40990000D03*
X35240000Y-43530000D03*
X35240000Y-46070000D03*
X35240000Y-48610000D03*
X35240000Y-51150000D03*
X35240000Y-53690000D03*
X35240000Y-56230000D03*
X35240000Y-58770000D03*
X35240000Y-61310000D03*
D12*
X35240000Y-63850000D03*
%TD*%
%TO.C,R38*%
G36*
G01*
X22975000Y-71606482D02*
X22975000Y-68693518D01*
G75*
G02*
X23243518Y-68425000I268518J0D01*
G01*
X24156482Y-68425000D01*
G75*
G02*
X24425000Y-68693518I0J-268518D01*
G01*
X24425000Y-71606482D01*
G75*
G02*
X24156482Y-71875000I-268518J0D01*
G01*
X23243518Y-71875000D01*
G75*
G02*
X22975000Y-71606482I0J268518D01*
G01*
G37*
G36*
G01*
X17175000Y-71606482D02*
X17175000Y-68693518D01*
G75*
G02*
X17443518Y-68425000I268518J0D01*
G01*
X18356482Y-68425000D01*
G75*
G02*
X18625000Y-68693518I0J-268518D01*
G01*
X18625000Y-71606482D01*
G75*
G02*
X18356482Y-71875000I-268518J0D01*
G01*
X17443518Y-71875000D01*
G75*
G02*
X17175000Y-71606482I0J268518D01*
G01*
G37*
%TD*%
D13*
%TO.C,R37*%
X25300000Y-76150000D03*
X16150000Y-76150000D03*
%TD*%
%TO.C,R29*%
X47150000Y-84750000D03*
X38000000Y-84750000D03*
%TD*%
D14*
%TO.C,TP3*%
X46000000Y-31000000D03*
%TD*%
%TO.C,TP2*%
X46000000Y-36000000D03*
%TD*%
%TO.C,TP1*%
X41200000Y-36000000D03*
%TD*%
D15*
%TO.C,D6*%
X55570000Y-29237000D03*
X53730000Y-29237000D03*
D16*
X54650000Y-25255000D03*
%TD*%
D17*
%TO.C,J6*%
X41780000Y-10850000D03*
X28640000Y-10850000D03*
X28640000Y-5170000D03*
X41780000Y-5170000D03*
D18*
X38710000Y-10500000D03*
X36210000Y-10500000D03*
X34210000Y-10500000D03*
X31710000Y-10500000D03*
X31710000Y-7880000D03*
X34210000Y-7880000D03*
X36210000Y-7880000D03*
D19*
X38710000Y-7880000D03*
%TD*%
D14*
%TO.C,H4*%
X105000000Y-84000000D03*
%TD*%
%TO.C,H3*%
X5000000Y-84000000D03*
%TD*%
%TO.C,H2*%
X105000000Y-16000000D03*
%TD*%
%TO.C,H1*%
X5000000Y-16000000D03*
%TD*%
%TO.C,R24*%
G36*
G01*
X16412500Y-16718750D02*
X16412500Y-17281250D01*
G75*
G02*
X16168750Y-17525000I-243750J0D01*
G01*
X15681250Y-17525000D01*
G75*
G02*
X15437500Y-17281250I0J243750D01*
G01*
X15437500Y-16718750D01*
G75*
G02*
X15681250Y-16475000I243750J0D01*
G01*
X16168750Y-16475000D01*
G75*
G02*
X16412500Y-16718750I0J-243750D01*
G01*
G37*
G36*
G01*
X17987500Y-16718750D02*
X17987500Y-17281250D01*
G75*
G02*
X17743750Y-17525000I-243750J0D01*
G01*
X17256250Y-17525000D01*
G75*
G02*
X17012500Y-17281250I0J243750D01*
G01*
X17012500Y-16718750D01*
G75*
G02*
X17256250Y-16475000I243750J0D01*
G01*
X17743750Y-16475000D01*
G75*
G02*
X17987500Y-16718750I0J-243750D01*
G01*
G37*
%TD*%
%TO.C,R23*%
G36*
G01*
X13587500Y-17281250D02*
X13587500Y-16718750D01*
G75*
G02*
X13831250Y-16475000I243750J0D01*
G01*
X14318750Y-16475000D01*
G75*
G02*
X14562500Y-16718750I0J-243750D01*
G01*
X14562500Y-17281250D01*
G75*
G02*
X14318750Y-17525000I-243750J0D01*
G01*
X13831250Y-17525000D01*
G75*
G02*
X13587500Y-17281250I0J243750D01*
G01*
G37*
G36*
G01*
X12012500Y-17281250D02*
X12012500Y-16718750D01*
G75*
G02*
X12256250Y-16475000I243750J0D01*
G01*
X12743750Y-16475000D01*
G75*
G02*
X12987500Y-16718750I0J-243750D01*
G01*
X12987500Y-17281250D01*
G75*
G02*
X12743750Y-17525000I-243750J0D01*
G01*
X12256250Y-17525000D01*
G75*
G02*
X12012500Y-17281250I0J243750D01*
G01*
G37*
%TD*%
%TO.C,R22*%
G36*
G01*
X16412500Y-15218750D02*
X16412500Y-15781250D01*
G75*
G02*
X16168750Y-16025000I-243750J0D01*
G01*
X15681250Y-16025000D01*
G75*
G02*
X15437500Y-15781250I0J243750D01*
G01*
X15437500Y-15218750D01*
G75*
G02*
X15681250Y-14975000I243750J0D01*
G01*
X16168750Y-14975000D01*
G75*
G02*
X16412500Y-15218750I0J-243750D01*
G01*
G37*
G36*
G01*
X17987500Y-15218750D02*
X17987500Y-15781250D01*
G75*
G02*
X17743750Y-16025000I-243750J0D01*
G01*
X17256250Y-16025000D01*
G75*
G02*
X17012500Y-15781250I0J243750D01*
G01*
X17012500Y-15218750D01*
G75*
G02*
X17256250Y-14975000I243750J0D01*
G01*
X17743750Y-14975000D01*
G75*
G02*
X17987500Y-15218750I0J-243750D01*
G01*
G37*
%TD*%
%TO.C,R21*%
G36*
G01*
X13587500Y-15781250D02*
X13587500Y-15218750D01*
G75*
G02*
X13831250Y-14975000I243750J0D01*
G01*
X14318750Y-14975000D01*
G75*
G02*
X14562500Y-15218750I0J-243750D01*
G01*
X14562500Y-15781250D01*
G75*
G02*
X14318750Y-16025000I-243750J0D01*
G01*
X13831250Y-16025000D01*
G75*
G02*
X13587500Y-15781250I0J243750D01*
G01*
G37*
G36*
G01*
X12012500Y-15781250D02*
X12012500Y-15218750D01*
G75*
G02*
X12256250Y-14975000I243750J0D01*
G01*
X12743750Y-14975000D01*
G75*
G02*
X12987500Y-15218750I0J-243750D01*
G01*
X12987500Y-15781250D01*
G75*
G02*
X12743750Y-16025000I-243750J0D01*
G01*
X12256250Y-16025000D01*
G75*
G02*
X12012500Y-15781250I0J243750D01*
G01*
G37*
%TD*%
%TO.C,R20*%
G36*
G01*
X16412500Y-13718750D02*
X16412500Y-14281250D01*
G75*
G02*
X16168750Y-14525000I-243750J0D01*
G01*
X15681250Y-14525000D01*
G75*
G02*
X15437500Y-14281250I0J243750D01*
G01*
X15437500Y-13718750D01*
G75*
G02*
X15681250Y-13475000I243750J0D01*
G01*
X16168750Y-13475000D01*
G75*
G02*
X16412500Y-13718750I0J-243750D01*
G01*
G37*
G36*
G01*
X17987500Y-13718750D02*
X17987500Y-14281250D01*
G75*
G02*
X17743750Y-14525000I-243750J0D01*
G01*
X17256250Y-14525000D01*
G75*
G02*
X17012500Y-14281250I0J243750D01*
G01*
X17012500Y-13718750D01*
G75*
G02*
X17256250Y-13475000I243750J0D01*
G01*
X17743750Y-13475000D01*
G75*
G02*
X17987500Y-13718750I0J-243750D01*
G01*
G37*
%TD*%
%TO.C,R19*%
G36*
G01*
X13587500Y-14281250D02*
X13587500Y-13718750D01*
G75*
G02*
X13831250Y-13475000I243750J0D01*
G01*
X14318750Y-13475000D01*
G75*
G02*
X14562500Y-13718750I0J-243750D01*
G01*
X14562500Y-14281250D01*
G75*
G02*
X14318750Y-14525000I-243750J0D01*
G01*
X13831250Y-14525000D01*
G75*
G02*
X13587500Y-14281250I0J243750D01*
G01*
G37*
G36*
G01*
X12012500Y-14281250D02*
X12012500Y-13718750D01*
G75*
G02*
X12256250Y-13475000I243750J0D01*
G01*
X12743750Y-13475000D01*
G75*
G02*
X12987500Y-13718750I0J-243750D01*
G01*
X12987500Y-14281250D01*
G75*
G02*
X12743750Y-14525000I-243750J0D01*
G01*
X12256250Y-14525000D01*
G75*
G02*
X12012500Y-14281250I0J243750D01*
G01*
G37*
%TD*%
D20*
%TO.C,J9*%
X17580000Y-4250000D03*
X15040000Y-4250000D03*
D21*
X12500000Y-4250000D03*
%TD*%
%TO.C,C7*%
G36*
G01*
X49875000Y-18140625D02*
X49875000Y-19309375D01*
G75*
G02*
X49609375Y-19575000I-265625J0D01*
G01*
X46715625Y-19575000D01*
G75*
G02*
X46450000Y-19309375I0J265625D01*
G01*
X46450000Y-18140625D01*
G75*
G02*
X46715625Y-17875000I265625J0D01*
G01*
X49609375Y-17875000D01*
G75*
G02*
X49875000Y-18140625I0J-265625D01*
G01*
G37*
G36*
G01*
X54950000Y-18140625D02*
X54950000Y-19309375D01*
G75*
G02*
X54684375Y-19575000I-265625J0D01*
G01*
X51790625Y-19575000D01*
G75*
G02*
X51525000Y-19309375I0J265625D01*
G01*
X51525000Y-18140625D01*
G75*
G02*
X51790625Y-17875000I265625J0D01*
G01*
X54684375Y-17875000D01*
G75*
G02*
X54950000Y-18140625I0J-265625D01*
G01*
G37*
%TD*%
D22*
%TO.C,L1*%
X60575000Y-37075000D03*
X71575000Y-37075000D03*
%TD*%
%TO.C,R36*%
G36*
G01*
X47100000Y-26381250D02*
X47100000Y-25818750D01*
G75*
G02*
X47343750Y-25575000I243750J0D01*
G01*
X47831250Y-25575000D01*
G75*
G02*
X48075000Y-25818750I0J-243750D01*
G01*
X48075000Y-26381250D01*
G75*
G02*
X47831250Y-26625000I-243750J0D01*
G01*
X47343750Y-26625000D01*
G75*
G02*
X47100000Y-26381250I0J243750D01*
G01*
G37*
G36*
G01*
X45525000Y-26381250D02*
X45525000Y-25818750D01*
G75*
G02*
X45768750Y-25575000I243750J0D01*
G01*
X46256250Y-25575000D01*
G75*
G02*
X46500000Y-25818750I0J-243750D01*
G01*
X46500000Y-26381250D01*
G75*
G02*
X46256250Y-26625000I-243750J0D01*
G01*
X45768750Y-26625000D01*
G75*
G02*
X45525000Y-26381250I0J243750D01*
G01*
G37*
%TD*%
%TO.C,R35*%
G36*
G01*
X47087500Y-24781250D02*
X47087500Y-24218750D01*
G75*
G02*
X47331250Y-23975000I243750J0D01*
G01*
X47818750Y-23975000D01*
G75*
G02*
X48062500Y-24218750I0J-243750D01*
G01*
X48062500Y-24781250D01*
G75*
G02*
X47818750Y-25025000I-243750J0D01*
G01*
X47331250Y-25025000D01*
G75*
G02*
X47087500Y-24781250I0J243750D01*
G01*
G37*
G36*
G01*
X45512500Y-24781250D02*
X45512500Y-24218750D01*
G75*
G02*
X45756250Y-23975000I243750J0D01*
G01*
X46243750Y-23975000D01*
G75*
G02*
X46487500Y-24218750I0J-243750D01*
G01*
X46487500Y-24781250D01*
G75*
G02*
X46243750Y-25025000I-243750J0D01*
G01*
X45756250Y-25025000D01*
G75*
G02*
X45512500Y-24781250I0J243750D01*
G01*
G37*
%TD*%
D20*
%TO.C,J10*%
X65540000Y-4350000D03*
D21*
X63000000Y-4350000D03*
%TD*%
%TO.C,D8*%
G36*
G01*
X43237500Y-17731250D02*
X43237500Y-16768750D01*
G75*
G02*
X43506250Y-16500000I268750J0D01*
G01*
X44043750Y-16500000D01*
G75*
G02*
X44312500Y-16768750I0J-268750D01*
G01*
X44312500Y-17731250D01*
G75*
G02*
X44043750Y-18000000I-268750J0D01*
G01*
X43506250Y-18000000D01*
G75*
G02*
X43237500Y-17731250I0J268750D01*
G01*
G37*
G36*
G01*
X41362500Y-17731250D02*
X41362500Y-16768750D01*
G75*
G02*
X41631250Y-16500000I268750J0D01*
G01*
X42168750Y-16500000D01*
G75*
G02*
X42437500Y-16768750I0J-268750D01*
G01*
X42437500Y-17731250D01*
G75*
G02*
X42168750Y-18000000I-268750J0D01*
G01*
X41631250Y-18000000D01*
G75*
G02*
X41362500Y-17731250I0J268750D01*
G01*
G37*
%TD*%
%TO.C,D7*%
G36*
G01*
X43237500Y-19931250D02*
X43237500Y-18968750D01*
G75*
G02*
X43506250Y-18700000I268750J0D01*
G01*
X44043750Y-18700000D01*
G75*
G02*
X44312500Y-18968750I0J-268750D01*
G01*
X44312500Y-19931250D01*
G75*
G02*
X44043750Y-20200000I-268750J0D01*
G01*
X43506250Y-20200000D01*
G75*
G02*
X43237500Y-19931250I0J268750D01*
G01*
G37*
G36*
G01*
X41362500Y-19931250D02*
X41362500Y-18968750D01*
G75*
G02*
X41631250Y-18700000I268750J0D01*
G01*
X42168750Y-18700000D01*
G75*
G02*
X42437500Y-18968750I0J-268750D01*
G01*
X42437500Y-19931250D01*
G75*
G02*
X42168750Y-20200000I-268750J0D01*
G01*
X41631250Y-20200000D01*
G75*
G02*
X41362500Y-19931250I0J268750D01*
G01*
G37*
%TD*%
D10*
%TO.C,S3*%
X2479400Y-60729100D03*
X10479400Y-60729100D03*
X2479400Y-65229100D03*
X10479400Y-65229100D03*
%TD*%
%TO.C,S1*%
X2377800Y-50864100D03*
X10377800Y-50864100D03*
X2377800Y-55364100D03*
X10377800Y-55364100D03*
%TD*%
%TO.C,R13*%
G36*
G01*
X19716400Y-43025250D02*
X19716400Y-42462750D01*
G75*
G02*
X19960150Y-42219000I243750J0D01*
G01*
X20447650Y-42219000D01*
G75*
G02*
X20691400Y-42462750I0J-243750D01*
G01*
X20691400Y-43025250D01*
G75*
G02*
X20447650Y-43269000I-243750J0D01*
G01*
X19960150Y-43269000D01*
G75*
G02*
X19716400Y-43025250I0J243750D01*
G01*
G37*
G36*
G01*
X18141400Y-43025250D02*
X18141400Y-42462750D01*
G75*
G02*
X18385150Y-42219000I243750J0D01*
G01*
X18872650Y-42219000D01*
G75*
G02*
X19116400Y-42462750I0J-243750D01*
G01*
X19116400Y-43025250D01*
G75*
G02*
X18872650Y-43269000I-243750J0D01*
G01*
X18385150Y-43269000D01*
G75*
G02*
X18141400Y-43025250I0J243750D01*
G01*
G37*
%TD*%
%TO.C,R11*%
G36*
G01*
X19690900Y-44650850D02*
X19690900Y-44088350D01*
G75*
G02*
X19934650Y-43844600I243750J0D01*
G01*
X20422150Y-43844600D01*
G75*
G02*
X20665900Y-44088350I0J-243750D01*
G01*
X20665900Y-44650850D01*
G75*
G02*
X20422150Y-44894600I-243750J0D01*
G01*
X19934650Y-44894600D01*
G75*
G02*
X19690900Y-44650850I0J243750D01*
G01*
G37*
G36*
G01*
X18115900Y-44650850D02*
X18115900Y-44088350D01*
G75*
G02*
X18359650Y-43844600I243750J0D01*
G01*
X18847150Y-43844600D01*
G75*
G02*
X19090900Y-44088350I0J-243750D01*
G01*
X19090900Y-44650850D01*
G75*
G02*
X18847150Y-44894600I-243750J0D01*
G01*
X18359650Y-44894600D01*
G75*
G02*
X18115900Y-44650850I0J243750D01*
G01*
G37*
%TD*%
%TO.C,R10*%
G36*
G01*
X19716400Y-41399650D02*
X19716400Y-40837150D01*
G75*
G02*
X19960150Y-40593400I243750J0D01*
G01*
X20447650Y-40593400D01*
G75*
G02*
X20691400Y-40837150I0J-243750D01*
G01*
X20691400Y-41399650D01*
G75*
G02*
X20447650Y-41643400I-243750J0D01*
G01*
X19960150Y-41643400D01*
G75*
G02*
X19716400Y-41399650I0J243750D01*
G01*
G37*
G36*
G01*
X18141400Y-41399650D02*
X18141400Y-40837150D01*
G75*
G02*
X18385150Y-40593400I243750J0D01*
G01*
X18872650Y-40593400D01*
G75*
G02*
X19116400Y-40837150I0J-243750D01*
G01*
X19116400Y-41399650D01*
G75*
G02*
X18872650Y-41643400I-243750J0D01*
G01*
X18385150Y-41643400D01*
G75*
G02*
X18141400Y-41399650I0J243750D01*
G01*
G37*
%TD*%
%TO.C,R8*%
G36*
G01*
X19716400Y-39774050D02*
X19716400Y-39211550D01*
G75*
G02*
X19960150Y-38967800I243750J0D01*
G01*
X20447650Y-38967800D01*
G75*
G02*
X20691400Y-39211550I0J-243750D01*
G01*
X20691400Y-39774050D01*
G75*
G02*
X20447650Y-40017800I-243750J0D01*
G01*
X19960150Y-40017800D01*
G75*
G02*
X19716400Y-39774050I0J243750D01*
G01*
G37*
G36*
G01*
X18141400Y-39774050D02*
X18141400Y-39211550D01*
G75*
G02*
X18385150Y-38967800I243750J0D01*
G01*
X18872650Y-38967800D01*
G75*
G02*
X19116400Y-39211550I0J-243750D01*
G01*
X19116400Y-39774050D01*
G75*
G02*
X18872650Y-40017800I-243750J0D01*
G01*
X18385150Y-40017800D01*
G75*
G02*
X18141400Y-39774050I0J243750D01*
G01*
G37*
%TD*%
%TO.C,D5*%
G36*
G01*
X12337500Y-96481250D02*
X12337500Y-95518750D01*
G75*
G02*
X12606250Y-95250000I268750J0D01*
G01*
X13143750Y-95250000D01*
G75*
G02*
X13412500Y-95518750I0J-268750D01*
G01*
X13412500Y-96481250D01*
G75*
G02*
X13143750Y-96750000I-268750J0D01*
G01*
X12606250Y-96750000D01*
G75*
G02*
X12337500Y-96481250I0J268750D01*
G01*
G37*
G36*
G01*
X10462500Y-96481250D02*
X10462500Y-95518750D01*
G75*
G02*
X10731250Y-95250000I268750J0D01*
G01*
X11268750Y-95250000D01*
G75*
G02*
X11537500Y-95518750I0J-268750D01*
G01*
X11537500Y-96481250D01*
G75*
G02*
X11268750Y-96750000I-268750J0D01*
G01*
X10731250Y-96750000D01*
G75*
G02*
X10462500Y-96481250I0J268750D01*
G01*
G37*
%TD*%
%TO.C,D4*%
G36*
G01*
X106337500Y-96481250D02*
X106337500Y-95518750D01*
G75*
G02*
X106606250Y-95250000I268750J0D01*
G01*
X107143750Y-95250000D01*
G75*
G02*
X107412500Y-95518750I0J-268750D01*
G01*
X107412500Y-96481250D01*
G75*
G02*
X107143750Y-96750000I-268750J0D01*
G01*
X106606250Y-96750000D01*
G75*
G02*
X106337500Y-96481250I0J268750D01*
G01*
G37*
G36*
G01*
X104462500Y-96481250D02*
X104462500Y-95518750D01*
G75*
G02*
X104731250Y-95250000I268750J0D01*
G01*
X105268750Y-95250000D01*
G75*
G02*
X105537500Y-95518750I0J-268750D01*
G01*
X105537500Y-96481250D01*
G75*
G02*
X105268750Y-96750000I-268750J0D01*
G01*
X104731250Y-96750000D01*
G75*
G02*
X104462500Y-96481250I0J268750D01*
G01*
G37*
%TD*%
%TO.C,D3*%
G36*
G01*
X7837500Y-96481250D02*
X7837500Y-95518750D01*
G75*
G02*
X8106250Y-95250000I268750J0D01*
G01*
X8643750Y-95250000D01*
G75*
G02*
X8912500Y-95518750I0J-268750D01*
G01*
X8912500Y-96481250D01*
G75*
G02*
X8643750Y-96750000I-268750J0D01*
G01*
X8106250Y-96750000D01*
G75*
G02*
X7837500Y-96481250I0J268750D01*
G01*
G37*
G36*
G01*
X5962500Y-96481250D02*
X5962500Y-95518750D01*
G75*
G02*
X6231250Y-95250000I268750J0D01*
G01*
X6768750Y-95250000D01*
G75*
G02*
X7037500Y-95518750I0J-268750D01*
G01*
X7037500Y-96481250D01*
G75*
G02*
X6768750Y-96750000I-268750J0D01*
G01*
X6231250Y-96750000D01*
G75*
G02*
X5962500Y-96481250I0J268750D01*
G01*
G37*
%TD*%
%TO.C,D2*%
G36*
G01*
X3400000Y-96481250D02*
X3400000Y-95518750D01*
G75*
G02*
X3668750Y-95250000I268750J0D01*
G01*
X4206250Y-95250000D01*
G75*
G02*
X4475000Y-95518750I0J-268750D01*
G01*
X4475000Y-96481250D01*
G75*
G02*
X4206250Y-96750000I-268750J0D01*
G01*
X3668750Y-96750000D01*
G75*
G02*
X3400000Y-96481250I0J268750D01*
G01*
G37*
G36*
G01*
X1525000Y-96481250D02*
X1525000Y-95518750D01*
G75*
G02*
X1793750Y-95250000I268750J0D01*
G01*
X2331250Y-95250000D01*
G75*
G02*
X2600000Y-95518750I0J-268750D01*
G01*
X2600000Y-96481250D01*
G75*
G02*
X2331250Y-96750000I-268750J0D01*
G01*
X1793750Y-96750000D01*
G75*
G02*
X1525000Y-96481250I0J268750D01*
G01*
G37*
%TD*%
D23*
%TO.C,IC2*%
X75600000Y-45600000D03*
D24*
X76575000Y-46650000D03*
X75925000Y-46650000D03*
X75275000Y-46650000D03*
X74625000Y-46650000D03*
X74625000Y-44550000D03*
X75275000Y-44550000D03*
X75925000Y-44550000D03*
X76575000Y-44550000D03*
%TD*%
D23*
%TO.C,IC1*%
X84750000Y-45600000D03*
D24*
X85725000Y-46650000D03*
X85075000Y-46650000D03*
X84425000Y-46650000D03*
X83775000Y-46650000D03*
X83775000Y-44550000D03*
X84425000Y-44550000D03*
X85075000Y-44550000D03*
X85725000Y-44550000D03*
%TD*%
D25*
%TO.C,D1*%
X71550000Y-51550000D03*
X64750000Y-51550000D03*
%TD*%
D11*
%TO.C,U1*%
X105370000Y-53285000D03*
X105370000Y-50745000D03*
X105370000Y-48205000D03*
D12*
X105370000Y-45665000D03*
%TD*%
D26*
%TO.C,J2*%
X96450000Y-4850000D03*
X88830000Y-4850000D03*
X81210000Y-4850000D03*
X73590000Y-4850000D03*
%TD*%
D20*
%TO.C,J8*%
X7830000Y-4250000D03*
X5290000Y-4250000D03*
D21*
X2750000Y-4250000D03*
%TD*%
D26*
%TO.C,J1*%
X43180000Y-95340000D03*
X35560000Y-95340000D03*
X27940000Y-95340000D03*
X20320000Y-95340000D03*
%TD*%
%TO.C,J5*%
X67120000Y-95340000D03*
X74740000Y-95340000D03*
X82360000Y-95340000D03*
X89980000Y-95340000D03*
%TD*%
%TO.C,R18*%
G36*
G01*
X66575000Y-18118750D02*
X66575000Y-18681250D01*
G75*
G02*
X66331250Y-18925000I-243750J0D01*
G01*
X65843750Y-18925000D01*
G75*
G02*
X65600000Y-18681250I0J243750D01*
G01*
X65600000Y-18118750D01*
G75*
G02*
X65843750Y-17875000I243750J0D01*
G01*
X66331250Y-17875000D01*
G75*
G02*
X66575000Y-18118750I0J-243750D01*
G01*
G37*
G36*
G01*
X68150000Y-18118750D02*
X68150000Y-18681250D01*
G75*
G02*
X67906250Y-18925000I-243750J0D01*
G01*
X67418750Y-18925000D01*
G75*
G02*
X67175000Y-18681250I0J243750D01*
G01*
X67175000Y-18118750D01*
G75*
G02*
X67418750Y-17875000I243750J0D01*
G01*
X67906250Y-17875000D01*
G75*
G02*
X68150000Y-18118750I0J-243750D01*
G01*
G37*
%TD*%
%TO.C,R14*%
G36*
G01*
X63537500Y-18118750D02*
X63537500Y-18681250D01*
G75*
G02*
X63293750Y-18925000I-243750J0D01*
G01*
X62806250Y-18925000D01*
G75*
G02*
X62562500Y-18681250I0J243750D01*
G01*
X62562500Y-18118750D01*
G75*
G02*
X62806250Y-17875000I243750J0D01*
G01*
X63293750Y-17875000D01*
G75*
G02*
X63537500Y-18118750I0J-243750D01*
G01*
G37*
G36*
G01*
X65112500Y-18118750D02*
X65112500Y-18681250D01*
G75*
G02*
X64868750Y-18925000I-243750J0D01*
G01*
X64381250Y-18925000D01*
G75*
G02*
X64137500Y-18681250I0J243750D01*
G01*
X64137500Y-18118750D01*
G75*
G02*
X64381250Y-17875000I243750J0D01*
G01*
X64868750Y-17875000D01*
G75*
G02*
X65112500Y-18118750I0J-243750D01*
G01*
G37*
%TD*%
%TO.C,R15*%
G36*
G01*
X63162500Y-20968750D02*
X63162500Y-21531250D01*
G75*
G02*
X62918750Y-21775000I-243750J0D01*
G01*
X62431250Y-21775000D01*
G75*
G02*
X62187500Y-21531250I0J243750D01*
G01*
X62187500Y-20968750D01*
G75*
G02*
X62431250Y-20725000I243750J0D01*
G01*
X62918750Y-20725000D01*
G75*
G02*
X63162500Y-20968750I0J-243750D01*
G01*
G37*
G36*
G01*
X64737500Y-20968750D02*
X64737500Y-21531250D01*
G75*
G02*
X64493750Y-21775000I-243750J0D01*
G01*
X64006250Y-21775000D01*
G75*
G02*
X63762500Y-21531250I0J243750D01*
G01*
X63762500Y-20968750D01*
G75*
G02*
X64006250Y-20725000I243750J0D01*
G01*
X64493750Y-20725000D01*
G75*
G02*
X64737500Y-20968750I0J-243750D01*
G01*
G37*
%TD*%
%TO.C,R16*%
G36*
G01*
X66662500Y-23418750D02*
X66662500Y-23981250D01*
G75*
G02*
X66418750Y-24225000I-243750J0D01*
G01*
X65931250Y-24225000D01*
G75*
G02*
X65687500Y-23981250I0J243750D01*
G01*
X65687500Y-23418750D01*
G75*
G02*
X65931250Y-23175000I243750J0D01*
G01*
X66418750Y-23175000D01*
G75*
G02*
X66662500Y-23418750I0J-243750D01*
G01*
G37*
G36*
G01*
X68237500Y-23418750D02*
X68237500Y-23981250D01*
G75*
G02*
X67993750Y-24225000I-243750J0D01*
G01*
X67506250Y-24225000D01*
G75*
G02*
X67262500Y-23981250I0J243750D01*
G01*
X67262500Y-23418750D01*
G75*
G02*
X67506250Y-23175000I243750J0D01*
G01*
X67993750Y-23175000D01*
G75*
G02*
X68237500Y-23418750I0J-243750D01*
G01*
G37*
%TD*%
%TO.C,R12*%
G36*
G01*
X69368750Y-56787500D02*
X69931250Y-56787500D01*
G75*
G02*
X70175000Y-57031250I0J-243750D01*
G01*
X70175000Y-57518750D01*
G75*
G02*
X69931250Y-57762500I-243750J0D01*
G01*
X69368750Y-57762500D01*
G75*
G02*
X69125000Y-57518750I0J243750D01*
G01*
X69125000Y-57031250D01*
G75*
G02*
X69368750Y-56787500I243750J0D01*
G01*
G37*
G36*
G01*
X69368750Y-55212500D02*
X69931250Y-55212500D01*
G75*
G02*
X70175000Y-55456250I0J-243750D01*
G01*
X70175000Y-55943750D01*
G75*
G02*
X69931250Y-56187500I-243750J0D01*
G01*
X69368750Y-56187500D01*
G75*
G02*
X69125000Y-55943750I0J243750D01*
G01*
X69125000Y-55456250D01*
G75*
G02*
X69368750Y-55212500I243750J0D01*
G01*
G37*
%TD*%
%TO.C,R7*%
G36*
G01*
X67662500Y-56031250D02*
X67662500Y-55468750D01*
G75*
G02*
X67906250Y-55225000I243750J0D01*
G01*
X68393750Y-55225000D01*
G75*
G02*
X68637500Y-55468750I0J-243750D01*
G01*
X68637500Y-56031250D01*
G75*
G02*
X68393750Y-56275000I-243750J0D01*
G01*
X67906250Y-56275000D01*
G75*
G02*
X67662500Y-56031250I0J243750D01*
G01*
G37*
G36*
G01*
X66087500Y-56031250D02*
X66087500Y-55468750D01*
G75*
G02*
X66331250Y-55225000I243750J0D01*
G01*
X66818750Y-55225000D01*
G75*
G02*
X67062500Y-55468750I0J-243750D01*
G01*
X67062500Y-56031250D01*
G75*
G02*
X66818750Y-56275000I-243750J0D01*
G01*
X66331250Y-56275000D01*
G75*
G02*
X66087500Y-56031250I0J243750D01*
G01*
G37*
%TD*%
%TO.C,R6*%
G36*
G01*
X67050000Y-57018750D02*
X67050000Y-57581250D01*
G75*
G02*
X66806250Y-57825000I-243750J0D01*
G01*
X66318750Y-57825000D01*
G75*
G02*
X66075000Y-57581250I0J243750D01*
G01*
X66075000Y-57018750D01*
G75*
G02*
X66318750Y-56775000I243750J0D01*
G01*
X66806250Y-56775000D01*
G75*
G02*
X67050000Y-57018750I0J-243750D01*
G01*
G37*
G36*
G01*
X68625000Y-57018750D02*
X68625000Y-57581250D01*
G75*
G02*
X68381250Y-57825000I-243750J0D01*
G01*
X67893750Y-57825000D01*
G75*
G02*
X67650000Y-57581250I0J243750D01*
G01*
X67650000Y-57018750D01*
G75*
G02*
X67893750Y-56775000I243750J0D01*
G01*
X68381250Y-56775000D01*
G75*
G02*
X68625000Y-57018750I0J-243750D01*
G01*
G37*
%TD*%
%TO.C,R17*%
G36*
G01*
X38637500Y-45818750D02*
X38637500Y-46381250D01*
G75*
G02*
X38393750Y-46625000I-243750J0D01*
G01*
X37906250Y-46625000D01*
G75*
G02*
X37662500Y-46381250I0J243750D01*
G01*
X37662500Y-45818750D01*
G75*
G02*
X37906250Y-45575000I243750J0D01*
G01*
X38393750Y-45575000D01*
G75*
G02*
X38637500Y-45818750I0J-243750D01*
G01*
G37*
G36*
G01*
X40212500Y-45818750D02*
X40212500Y-46381250D01*
G75*
G02*
X39968750Y-46625000I-243750J0D01*
G01*
X39481250Y-46625000D01*
G75*
G02*
X39237500Y-46381250I0J243750D01*
G01*
X39237500Y-45818750D01*
G75*
G02*
X39481250Y-45575000I243750J0D01*
G01*
X39968750Y-45575000D01*
G75*
G02*
X40212500Y-45818750I0J-243750D01*
G01*
G37*
%TD*%
%TO.C,R9*%
G36*
G01*
X38387500Y-53518750D02*
X38387500Y-54081250D01*
G75*
G02*
X38143750Y-54325000I-243750J0D01*
G01*
X37656250Y-54325000D01*
G75*
G02*
X37412500Y-54081250I0J243750D01*
G01*
X37412500Y-53518750D01*
G75*
G02*
X37656250Y-53275000I243750J0D01*
G01*
X38143750Y-53275000D01*
G75*
G02*
X38387500Y-53518750I0J-243750D01*
G01*
G37*
G36*
G01*
X39962500Y-53518750D02*
X39962500Y-54081250D01*
G75*
G02*
X39718750Y-54325000I-243750J0D01*
G01*
X39231250Y-54325000D01*
G75*
G02*
X38987500Y-54081250I0J243750D01*
G01*
X38987500Y-53518750D01*
G75*
G02*
X39231250Y-53275000I243750J0D01*
G01*
X39718750Y-53275000D01*
G75*
G02*
X39962500Y-53518750I0J-243750D01*
G01*
G37*
%TD*%
%TO.C,C9*%
G36*
G01*
X60268750Y-20712500D02*
X61231250Y-20712500D01*
G75*
G02*
X61500000Y-20981250I0J-268750D01*
G01*
X61500000Y-21518750D01*
G75*
G02*
X61231250Y-21787500I-268750J0D01*
G01*
X60268750Y-21787500D01*
G75*
G02*
X60000000Y-21518750I0J268750D01*
G01*
X60000000Y-20981250D01*
G75*
G02*
X60268750Y-20712500I268750J0D01*
G01*
G37*
G36*
G01*
X60268750Y-18837500D02*
X61231250Y-18837500D01*
G75*
G02*
X61500000Y-19106250I0J-268750D01*
G01*
X61500000Y-19643750D01*
G75*
G02*
X61231250Y-19912500I-268750J0D01*
G01*
X60268750Y-19912500D01*
G75*
G02*
X60000000Y-19643750I0J268750D01*
G01*
X60000000Y-19106250D01*
G75*
G02*
X60268750Y-18837500I268750J0D01*
G01*
G37*
%TD*%
%TO.C,C8*%
G36*
G01*
X58268750Y-20712500D02*
X59231250Y-20712500D01*
G75*
G02*
X59500000Y-20981250I0J-268750D01*
G01*
X59500000Y-21518750D01*
G75*
G02*
X59231250Y-21787500I-268750J0D01*
G01*
X58268750Y-21787500D01*
G75*
G02*
X58000000Y-21518750I0J268750D01*
G01*
X58000000Y-20981250D01*
G75*
G02*
X58268750Y-20712500I268750J0D01*
G01*
G37*
G36*
G01*
X58268750Y-18837500D02*
X59231250Y-18837500D01*
G75*
G02*
X59500000Y-19106250I0J-268750D01*
G01*
X59500000Y-19643750D01*
G75*
G02*
X59231250Y-19912500I-268750J0D01*
G01*
X58268750Y-19912500D01*
G75*
G02*
X58000000Y-19643750I0J268750D01*
G01*
X58000000Y-19106250D01*
G75*
G02*
X58268750Y-18837500I268750J0D01*
G01*
G37*
%TD*%
%TO.C,C14*%
G36*
G01*
X67368750Y-26887500D02*
X68331250Y-26887500D01*
G75*
G02*
X68600000Y-27156250I0J-268750D01*
G01*
X68600000Y-27693750D01*
G75*
G02*
X68331250Y-27962500I-268750J0D01*
G01*
X67368750Y-27962500D01*
G75*
G02*
X67100000Y-27693750I0J268750D01*
G01*
X67100000Y-27156250D01*
G75*
G02*
X67368750Y-26887500I268750J0D01*
G01*
G37*
G36*
G01*
X67368750Y-25012500D02*
X68331250Y-25012500D01*
G75*
G02*
X68600000Y-25281250I0J-268750D01*
G01*
X68600000Y-25818750D01*
G75*
G02*
X68331250Y-26087500I-268750J0D01*
G01*
X67368750Y-26087500D01*
G75*
G02*
X67100000Y-25818750I0J268750D01*
G01*
X67100000Y-25281250D01*
G75*
G02*
X67368750Y-25012500I268750J0D01*
G01*
G37*
%TD*%
%TO.C,C13*%
G36*
G01*
X67412500Y-22231250D02*
X67412500Y-21268750D01*
G75*
G02*
X67681250Y-21000000I268750J0D01*
G01*
X68218750Y-21000000D01*
G75*
G02*
X68487500Y-21268750I0J-268750D01*
G01*
X68487500Y-22231250D01*
G75*
G02*
X68218750Y-22500000I-268750J0D01*
G01*
X67681250Y-22500000D01*
G75*
G02*
X67412500Y-22231250I0J268750D01*
G01*
G37*
G36*
G01*
X65537500Y-22231250D02*
X65537500Y-21268750D01*
G75*
G02*
X65806250Y-21000000I268750J0D01*
G01*
X66343750Y-21000000D01*
G75*
G02*
X66612500Y-21268750I0J-268750D01*
G01*
X66612500Y-22231250D01*
G75*
G02*
X66343750Y-22500000I-268750J0D01*
G01*
X65806250Y-22500000D01*
G75*
G02*
X65537500Y-22231250I0J268750D01*
G01*
G37*
%TD*%
%TO.C,C4*%
G36*
G01*
X63475000Y-46155000D02*
X63475000Y-44845000D01*
G75*
G02*
X63745000Y-44575000I270000J0D01*
G01*
X64555000Y-44575000D01*
G75*
G02*
X64825000Y-44845000I0J-270000D01*
G01*
X64825000Y-46155000D01*
G75*
G02*
X64555000Y-46425000I-270000J0D01*
G01*
X63745000Y-46425000D01*
G75*
G02*
X63475000Y-46155000I0J270000D01*
G01*
G37*
G36*
G01*
X60675000Y-46155000D02*
X60675000Y-44845000D01*
G75*
G02*
X60945000Y-44575000I270000J0D01*
G01*
X61755000Y-44575000D01*
G75*
G02*
X62025000Y-44845000I0J-270000D01*
G01*
X62025000Y-46155000D01*
G75*
G02*
X61755000Y-46425000I-270000J0D01*
G01*
X60945000Y-46425000D01*
G75*
G02*
X60675000Y-46155000I0J270000D01*
G01*
G37*
%TD*%
%TO.C,C5*%
G36*
G01*
X79606250Y-47600000D02*
X79043750Y-47600000D01*
G75*
G02*
X78800000Y-47356250I0J243750D01*
G01*
X78800000Y-46868750D01*
G75*
G02*
X79043750Y-46625000I243750J0D01*
G01*
X79606250Y-46625000D01*
G75*
G02*
X79850000Y-46868750I0J-243750D01*
G01*
X79850000Y-47356250D01*
G75*
G02*
X79606250Y-47600000I-243750J0D01*
G01*
G37*
G36*
G01*
X79606250Y-49175000D02*
X79043750Y-49175000D01*
G75*
G02*
X78800000Y-48931250I0J243750D01*
G01*
X78800000Y-48443750D01*
G75*
G02*
X79043750Y-48200000I243750J0D01*
G01*
X79606250Y-48200000D01*
G75*
G02*
X79850000Y-48443750I0J-243750D01*
G01*
X79850000Y-48931250D01*
G75*
G02*
X79606250Y-49175000I-243750J0D01*
G01*
G37*
%TD*%
%TO.C,C12*%
G36*
G01*
X67337500Y-29531250D02*
X67337500Y-28968750D01*
G75*
G02*
X67581250Y-28725000I243750J0D01*
G01*
X68068750Y-28725000D01*
G75*
G02*
X68312500Y-28968750I0J-243750D01*
G01*
X68312500Y-29531250D01*
G75*
G02*
X68068750Y-29775000I-243750J0D01*
G01*
X67581250Y-29775000D01*
G75*
G02*
X67337500Y-29531250I0J243750D01*
G01*
G37*
G36*
G01*
X65762500Y-29531250D02*
X65762500Y-28968750D01*
G75*
G02*
X66006250Y-28725000I243750J0D01*
G01*
X66493750Y-28725000D01*
G75*
G02*
X66737500Y-28968750I0J-243750D01*
G01*
X66737500Y-29531250D01*
G75*
G02*
X66493750Y-29775000I-243750J0D01*
G01*
X66006250Y-29775000D01*
G75*
G02*
X65762500Y-29531250I0J243750D01*
G01*
G37*
%TD*%
%TO.C,C11*%
G36*
G01*
X70162500Y-26743750D02*
X70162500Y-27706250D01*
G75*
G02*
X69893750Y-27975000I-268750J0D01*
G01*
X69356250Y-27975000D01*
G75*
G02*
X69087500Y-27706250I0J268750D01*
G01*
X69087500Y-26743750D01*
G75*
G02*
X69356250Y-26475000I268750J0D01*
G01*
X69893750Y-26475000D01*
G75*
G02*
X70162500Y-26743750I0J-268750D01*
G01*
G37*
G36*
G01*
X72037500Y-26743750D02*
X72037500Y-27706250D01*
G75*
G02*
X71768750Y-27975000I-268750J0D01*
G01*
X71231250Y-27975000D01*
G75*
G02*
X70962500Y-27706250I0J268750D01*
G01*
X70962500Y-26743750D01*
G75*
G02*
X71231250Y-26475000I268750J0D01*
G01*
X71768750Y-26475000D01*
G75*
G02*
X72037500Y-26743750I0J-268750D01*
G01*
G37*
%TD*%
%TO.C,C10*%
G36*
G01*
X70325000Y-21095000D02*
X70325000Y-22405000D01*
G75*
G02*
X70055000Y-22675000I-270000J0D01*
G01*
X69245000Y-22675000D01*
G75*
G02*
X68975000Y-22405000I0J270000D01*
G01*
X68975000Y-21095000D01*
G75*
G02*
X69245000Y-20825000I270000J0D01*
G01*
X70055000Y-20825000D01*
G75*
G02*
X70325000Y-21095000I0J-270000D01*
G01*
G37*
G36*
G01*
X73125000Y-21095000D02*
X73125000Y-22405000D01*
G75*
G02*
X72855000Y-22675000I-270000J0D01*
G01*
X72045000Y-22675000D01*
G75*
G02*
X71775000Y-22405000I0J270000D01*
G01*
X71775000Y-21095000D01*
G75*
G02*
X72045000Y-20825000I270000J0D01*
G01*
X72855000Y-20825000D01*
G75*
G02*
X73125000Y-21095000I0J-270000D01*
G01*
G37*
%TD*%
%TO.C,C6*%
G36*
G01*
X78695000Y-44775000D02*
X80005000Y-44775000D01*
G75*
G02*
X80275000Y-45045000I0J-270000D01*
G01*
X80275000Y-45855000D01*
G75*
G02*
X80005000Y-46125000I-270000J0D01*
G01*
X78695000Y-46125000D01*
G75*
G02*
X78425000Y-45855000I0J270000D01*
G01*
X78425000Y-45045000D01*
G75*
G02*
X78695000Y-44775000I270000J0D01*
G01*
G37*
G36*
G01*
X78695000Y-41975000D02*
X80005000Y-41975000D01*
G75*
G02*
X80275000Y-42245000I0J-270000D01*
G01*
X80275000Y-43055000D01*
G75*
G02*
X80005000Y-43325000I-270000J0D01*
G01*
X78695000Y-43325000D01*
G75*
G02*
X78425000Y-43055000I0J270000D01*
G01*
X78425000Y-42245000D01*
G75*
G02*
X78695000Y-41975000I270000J0D01*
G01*
G37*
%TD*%
D27*
%TO.C,U3*%
X43190000Y-63050000D03*
X43840000Y-63050000D03*
X44500000Y-63050000D03*
X45150000Y-63050000D03*
X45150000Y-65250000D03*
X44500000Y-65250000D03*
X43840000Y-65250000D03*
X43190000Y-65250000D03*
%TD*%
%TO.C,R34*%
G36*
G01*
X42912500Y-59518750D02*
X42912500Y-60081250D01*
G75*
G02*
X42668750Y-60325000I-243750J0D01*
G01*
X42181250Y-60325000D01*
G75*
G02*
X41937500Y-60081250I0J243750D01*
G01*
X41937500Y-59518750D01*
G75*
G02*
X42181250Y-59275000I243750J0D01*
G01*
X42668750Y-59275000D01*
G75*
G02*
X42912500Y-59518750I0J-243750D01*
G01*
G37*
G36*
G01*
X44487500Y-59518750D02*
X44487500Y-60081250D01*
G75*
G02*
X44243750Y-60325000I-243750J0D01*
G01*
X43756250Y-60325000D01*
G75*
G02*
X43512500Y-60081250I0J243750D01*
G01*
X43512500Y-59518750D01*
G75*
G02*
X43756250Y-59275000I243750J0D01*
G01*
X44243750Y-59275000D01*
G75*
G02*
X44487500Y-59518750I0J-243750D01*
G01*
G37*
%TD*%
%TO.C,R28*%
G36*
G01*
X48881250Y-62512500D02*
X48318750Y-62512500D01*
G75*
G02*
X48075000Y-62268750I0J243750D01*
G01*
X48075000Y-61781250D01*
G75*
G02*
X48318750Y-61537500I243750J0D01*
G01*
X48881250Y-61537500D01*
G75*
G02*
X49125000Y-61781250I0J-243750D01*
G01*
X49125000Y-62268750D01*
G75*
G02*
X48881250Y-62512500I-243750J0D01*
G01*
G37*
G36*
G01*
X48881250Y-64087500D02*
X48318750Y-64087500D01*
G75*
G02*
X48075000Y-63843750I0J243750D01*
G01*
X48075000Y-63356250D01*
G75*
G02*
X48318750Y-63112500I243750J0D01*
G01*
X48881250Y-63112500D01*
G75*
G02*
X49125000Y-63356250I0J-243750D01*
G01*
X49125000Y-63843750D01*
G75*
G02*
X48881250Y-64087500I-243750J0D01*
G01*
G37*
%TD*%
%TO.C,R33*%
G36*
G01*
X42912500Y-61118750D02*
X42912500Y-61681250D01*
G75*
G02*
X42668750Y-61925000I-243750J0D01*
G01*
X42181250Y-61925000D01*
G75*
G02*
X41937500Y-61681250I0J243750D01*
G01*
X41937500Y-61118750D01*
G75*
G02*
X42181250Y-60875000I243750J0D01*
G01*
X42668750Y-60875000D01*
G75*
G02*
X42912500Y-61118750I0J-243750D01*
G01*
G37*
G36*
G01*
X44487500Y-61118750D02*
X44487500Y-61681250D01*
G75*
G02*
X44243750Y-61925000I-243750J0D01*
G01*
X43756250Y-61925000D01*
G75*
G02*
X43512500Y-61681250I0J243750D01*
G01*
X43512500Y-61118750D01*
G75*
G02*
X43756250Y-60875000I243750J0D01*
G01*
X44243750Y-60875000D01*
G75*
G02*
X44487500Y-61118750I0J-243750D01*
G01*
G37*
%TD*%
%TO.C,R27*%
G36*
G01*
X47281250Y-62512500D02*
X46718750Y-62512500D01*
G75*
G02*
X46475000Y-62268750I0J243750D01*
G01*
X46475000Y-61781250D01*
G75*
G02*
X46718750Y-61537500I243750J0D01*
G01*
X47281250Y-61537500D01*
G75*
G02*
X47525000Y-61781250I0J-243750D01*
G01*
X47525000Y-62268750D01*
G75*
G02*
X47281250Y-62512500I-243750J0D01*
G01*
G37*
G36*
G01*
X47281250Y-64087500D02*
X46718750Y-64087500D01*
G75*
G02*
X46475000Y-63843750I0J243750D01*
G01*
X46475000Y-63356250D01*
G75*
G02*
X46718750Y-63112500I243750J0D01*
G01*
X47281250Y-63112500D01*
G75*
G02*
X47525000Y-63356250I0J-243750D01*
G01*
X47525000Y-63843750D01*
G75*
G02*
X47281250Y-64087500I-243750J0D01*
G01*
G37*
%TD*%
%TO.C,R3*%
G36*
G01*
X86318750Y-51325000D02*
X86881250Y-51325000D01*
G75*
G02*
X87125000Y-51568750I0J-243750D01*
G01*
X87125000Y-52056250D01*
G75*
G02*
X86881250Y-52300000I-243750J0D01*
G01*
X86318750Y-52300000D01*
G75*
G02*
X86075000Y-52056250I0J243750D01*
G01*
X86075000Y-51568750D01*
G75*
G02*
X86318750Y-51325000I243750J0D01*
G01*
G37*
G36*
G01*
X86318750Y-52900000D02*
X86881250Y-52900000D01*
G75*
G02*
X87125000Y-53143750I0J-243750D01*
G01*
X87125000Y-53631250D01*
G75*
G02*
X86881250Y-53875000I-243750J0D01*
G01*
X86318750Y-53875000D01*
G75*
G02*
X86075000Y-53631250I0J243750D01*
G01*
X86075000Y-53143750D01*
G75*
G02*
X86318750Y-52900000I243750J0D01*
G01*
G37*
%TD*%
%TO.C,R2*%
G36*
G01*
X84562500Y-52131250D02*
X84562500Y-51568750D01*
G75*
G02*
X84806250Y-51325000I243750J0D01*
G01*
X85293750Y-51325000D01*
G75*
G02*
X85537500Y-51568750I0J-243750D01*
G01*
X85537500Y-52131250D01*
G75*
G02*
X85293750Y-52375000I-243750J0D01*
G01*
X84806250Y-52375000D01*
G75*
G02*
X84562500Y-52131250I0J243750D01*
G01*
G37*
G36*
G01*
X82987500Y-52131250D02*
X82987500Y-51568750D01*
G75*
G02*
X83231250Y-51325000I243750J0D01*
G01*
X83718750Y-51325000D01*
G75*
G02*
X83962500Y-51568750I0J-243750D01*
G01*
X83962500Y-52131250D01*
G75*
G02*
X83718750Y-52375000I-243750J0D01*
G01*
X83231250Y-52375000D01*
G75*
G02*
X82987500Y-52131250I0J243750D01*
G01*
G37*
%TD*%
%TO.C,R1*%
G36*
G01*
X83962500Y-53168750D02*
X83962500Y-53731250D01*
G75*
G02*
X83718750Y-53975000I-243750J0D01*
G01*
X83231250Y-53975000D01*
G75*
G02*
X82987500Y-53731250I0J243750D01*
G01*
X82987500Y-53168750D01*
G75*
G02*
X83231250Y-52925000I243750J0D01*
G01*
X83718750Y-52925000D01*
G75*
G02*
X83962500Y-53168750I0J-243750D01*
G01*
G37*
G36*
G01*
X85537500Y-53168750D02*
X85537500Y-53731250D01*
G75*
G02*
X85293750Y-53975000I-243750J0D01*
G01*
X84806250Y-53975000D01*
G75*
G02*
X84562500Y-53731250I0J243750D01*
G01*
X84562500Y-53168750D01*
G75*
G02*
X84806250Y-52925000I243750J0D01*
G01*
X85293750Y-52925000D01*
G75*
G02*
X85537500Y-53168750I0J-243750D01*
G01*
G37*
%TD*%
D28*
%TO.C,IC3*%
X62250000Y-26250000D03*
D29*
X60300000Y-23312000D03*
X60950000Y-23312000D03*
X61600000Y-23312000D03*
X62250000Y-23312000D03*
X62900000Y-23312000D03*
X63550000Y-23312000D03*
X64200000Y-23312000D03*
X64200000Y-29188000D03*
X63550000Y-29188000D03*
X62900000Y-29188000D03*
X62250000Y-29188000D03*
X61600000Y-29188000D03*
X60950000Y-29188000D03*
X60300000Y-29188000D03*
%TD*%
%TO.C,C16*%
G36*
G01*
X48012500Y-65531250D02*
X48012500Y-64968750D01*
G75*
G02*
X48256250Y-64725000I243750J0D01*
G01*
X48743750Y-64725000D01*
G75*
G02*
X48987500Y-64968750I0J-243750D01*
G01*
X48987500Y-65531250D01*
G75*
G02*
X48743750Y-65775000I-243750J0D01*
G01*
X48256250Y-65775000D01*
G75*
G02*
X48012500Y-65531250I0J243750D01*
G01*
G37*
G36*
G01*
X46437500Y-65531250D02*
X46437500Y-64968750D01*
G75*
G02*
X46681250Y-64725000I243750J0D01*
G01*
X47168750Y-64725000D01*
G75*
G02*
X47412500Y-64968750I0J-243750D01*
G01*
X47412500Y-65531250D01*
G75*
G02*
X47168750Y-65775000I-243750J0D01*
G01*
X46681250Y-65775000D01*
G75*
G02*
X46437500Y-65531250I0J243750D01*
G01*
G37*
%TD*%
%TO.C,C1*%
G36*
G01*
X37945000Y-43125000D02*
X39255000Y-43125000D01*
G75*
G02*
X39525000Y-43395000I0J-270000D01*
G01*
X39525000Y-44205000D01*
G75*
G02*
X39255000Y-44475000I-270000J0D01*
G01*
X37945000Y-44475000D01*
G75*
G02*
X37675000Y-44205000I0J270000D01*
G01*
X37675000Y-43395000D01*
G75*
G02*
X37945000Y-43125000I270000J0D01*
G01*
G37*
G36*
G01*
X37945000Y-40325000D02*
X39255000Y-40325000D01*
G75*
G02*
X39525000Y-40595000I0J-270000D01*
G01*
X39525000Y-41405000D01*
G75*
G02*
X39255000Y-41675000I-270000J0D01*
G01*
X37945000Y-41675000D01*
G75*
G02*
X37675000Y-41405000I0J270000D01*
G01*
X37675000Y-40595000D01*
G75*
G02*
X37945000Y-40325000I270000J0D01*
G01*
G37*
%TD*%
%TO.C,C3*%
G36*
G01*
X88511250Y-45500000D02*
X87948750Y-45500000D01*
G75*
G02*
X87705000Y-45256250I0J243750D01*
G01*
X87705000Y-44768750D01*
G75*
G02*
X87948750Y-44525000I243750J0D01*
G01*
X88511250Y-44525000D01*
G75*
G02*
X88755000Y-44768750I0J-243750D01*
G01*
X88755000Y-45256250D01*
G75*
G02*
X88511250Y-45500000I-243750J0D01*
G01*
G37*
G36*
G01*
X88511250Y-47075000D02*
X87948750Y-47075000D01*
G75*
G02*
X87705000Y-46831250I0J243750D01*
G01*
X87705000Y-46343750D01*
G75*
G02*
X87948750Y-46100000I243750J0D01*
G01*
X88511250Y-46100000D01*
G75*
G02*
X88755000Y-46343750I0J-243750D01*
G01*
X88755000Y-46831250D01*
G75*
G02*
X88511250Y-47075000I-243750J0D01*
G01*
G37*
%TD*%
%TO.C,C2*%
G36*
G01*
X86625000Y-41755000D02*
X86625000Y-40445000D01*
G75*
G02*
X86895000Y-40175000I270000J0D01*
G01*
X87705000Y-40175000D01*
G75*
G02*
X87975000Y-40445000I0J-270000D01*
G01*
X87975000Y-41755000D01*
G75*
G02*
X87705000Y-42025000I-270000J0D01*
G01*
X86895000Y-42025000D01*
G75*
G02*
X86625000Y-41755000I0J270000D01*
G01*
G37*
G36*
G01*
X83825000Y-41755000D02*
X83825000Y-40445000D01*
G75*
G02*
X84095000Y-40175000I270000J0D01*
G01*
X84905000Y-40175000D01*
G75*
G02*
X85175000Y-40445000I0J-270000D01*
G01*
X85175000Y-41755000D01*
G75*
G02*
X84905000Y-42025000I-270000J0D01*
G01*
X84095000Y-42025000D01*
G75*
G02*
X83825000Y-41755000I0J270000D01*
G01*
G37*
%TD*%
D11*
%TO.C,J3*%
X14920000Y-63840000D03*
X14920000Y-61300000D03*
X14920000Y-58760000D03*
X14920000Y-56220000D03*
X14920000Y-53680000D03*
X14920000Y-51140000D03*
X14920000Y-48600000D03*
X14920000Y-46060000D03*
X14920000Y-43520000D03*
X14920000Y-40980000D03*
X14920000Y-38440000D03*
X14920000Y-35900000D03*
X14920000Y-33360000D03*
X14920000Y-30820000D03*
X14920000Y-28280000D03*
D12*
X14920000Y-25740000D03*
%TD*%
%TO.C,R30*%
G36*
G01*
X44775000Y-80456482D02*
X44775000Y-77543518D01*
G75*
G02*
X45043518Y-77275000I268518J0D01*
G01*
X45956482Y-77275000D01*
G75*
G02*
X46225000Y-77543518I0J-268518D01*
G01*
X46225000Y-80456482D01*
G75*
G02*
X45956482Y-80725000I-268518J0D01*
G01*
X45043518Y-80725000D01*
G75*
G02*
X44775000Y-80456482I0J268518D01*
G01*
G37*
G36*
G01*
X38975000Y-80456482D02*
X38975000Y-77543518D01*
G75*
G02*
X39243518Y-77275000I268518J0D01*
G01*
X40156482Y-77275000D01*
G75*
G02*
X40425000Y-77543518I0J-268518D01*
G01*
X40425000Y-80456482D01*
G75*
G02*
X40156482Y-80725000I-268518J0D01*
G01*
X39243518Y-80725000D01*
G75*
G02*
X38975000Y-80456482I0J268518D01*
G01*
G37*
%TD*%
%TO.C,R25*%
G36*
G01*
X83281250Y-62912500D02*
X82718750Y-62912500D01*
G75*
G02*
X82475000Y-62668750I0J243750D01*
G01*
X82475000Y-62181250D01*
G75*
G02*
X82718750Y-61937500I243750J0D01*
G01*
X83281250Y-61937500D01*
G75*
G02*
X83525000Y-62181250I0J-243750D01*
G01*
X83525000Y-62668750D01*
G75*
G02*
X83281250Y-62912500I-243750J0D01*
G01*
G37*
G36*
G01*
X83281250Y-64487500D02*
X82718750Y-64487500D01*
G75*
G02*
X82475000Y-64243750I0J243750D01*
G01*
X82475000Y-63756250D01*
G75*
G02*
X82718750Y-63512500I243750J0D01*
G01*
X83281250Y-63512500D01*
G75*
G02*
X83525000Y-63756250I0J-243750D01*
G01*
X83525000Y-64243750D01*
G75*
G02*
X83281250Y-64487500I-243750J0D01*
G01*
G37*
%TD*%
%TO.C,R32*%
G36*
G01*
X78912500Y-59918750D02*
X78912500Y-60481250D01*
G75*
G02*
X78668750Y-60725000I-243750J0D01*
G01*
X78181250Y-60725000D01*
G75*
G02*
X77937500Y-60481250I0J243750D01*
G01*
X77937500Y-59918750D01*
G75*
G02*
X78181250Y-59675000I243750J0D01*
G01*
X78668750Y-59675000D01*
G75*
G02*
X78912500Y-59918750I0J-243750D01*
G01*
G37*
G36*
G01*
X80487500Y-59918750D02*
X80487500Y-60481250D01*
G75*
G02*
X80243750Y-60725000I-243750J0D01*
G01*
X79756250Y-60725000D01*
G75*
G02*
X79512500Y-60481250I0J243750D01*
G01*
X79512500Y-59918750D01*
G75*
G02*
X79756250Y-59675000I243750J0D01*
G01*
X80243750Y-59675000D01*
G75*
G02*
X80487500Y-59918750I0J-243750D01*
G01*
G37*
%TD*%
%TO.C,R26*%
G36*
G01*
X84881250Y-62900000D02*
X84318750Y-62900000D01*
G75*
G02*
X84075000Y-62656250I0J243750D01*
G01*
X84075000Y-62168750D01*
G75*
G02*
X84318750Y-61925000I243750J0D01*
G01*
X84881250Y-61925000D01*
G75*
G02*
X85125000Y-62168750I0J-243750D01*
G01*
X85125000Y-62656250D01*
G75*
G02*
X84881250Y-62900000I-243750J0D01*
G01*
G37*
G36*
G01*
X84881250Y-64475000D02*
X84318750Y-64475000D01*
G75*
G02*
X84075000Y-64231250I0J243750D01*
G01*
X84075000Y-63743750D01*
G75*
G02*
X84318750Y-63500000I243750J0D01*
G01*
X84881250Y-63500000D01*
G75*
G02*
X85125000Y-63743750I0J-243750D01*
G01*
X85125000Y-64231250D01*
G75*
G02*
X84881250Y-64475000I-243750J0D01*
G01*
G37*
%TD*%
%TO.C,R4*%
G36*
G01*
X32112500Y-64181250D02*
X32112500Y-63618750D01*
G75*
G02*
X32356250Y-63375000I243750J0D01*
G01*
X32843750Y-63375000D01*
G75*
G02*
X33087500Y-63618750I0J-243750D01*
G01*
X33087500Y-64181250D01*
G75*
G02*
X32843750Y-64425000I-243750J0D01*
G01*
X32356250Y-64425000D01*
G75*
G02*
X32112500Y-64181250I0J243750D01*
G01*
G37*
G36*
G01*
X30537500Y-64181250D02*
X30537500Y-63618750D01*
G75*
G02*
X30781250Y-63375000I243750J0D01*
G01*
X31268750Y-63375000D01*
G75*
G02*
X31512500Y-63618750I0J-243750D01*
G01*
X31512500Y-64181250D01*
G75*
G02*
X31268750Y-64425000I-243750J0D01*
G01*
X30781250Y-64425000D01*
G75*
G02*
X30537500Y-64181250I0J243750D01*
G01*
G37*
%TD*%
D27*
%TO.C,U2*%
X79120000Y-63400000D03*
X79770000Y-63400000D03*
X80430000Y-63400000D03*
X81080000Y-63400000D03*
X81080000Y-65600000D03*
X80430000Y-65600000D03*
X79770000Y-65600000D03*
X79120000Y-65600000D03*
%TD*%
%TO.C,R5*%
G36*
G01*
X37818750Y-63212500D02*
X38381250Y-63212500D01*
G75*
G02*
X38625000Y-63456250I0J-243750D01*
G01*
X38625000Y-63943750D01*
G75*
G02*
X38381250Y-64187500I-243750J0D01*
G01*
X37818750Y-64187500D01*
G75*
G02*
X37575000Y-63943750I0J243750D01*
G01*
X37575000Y-63456250D01*
G75*
G02*
X37818750Y-63212500I243750J0D01*
G01*
G37*
G36*
G01*
X37818750Y-61637500D02*
X38381250Y-61637500D01*
G75*
G02*
X38625000Y-61881250I0J-243750D01*
G01*
X38625000Y-62368750D01*
G75*
G02*
X38381250Y-62612500I-243750J0D01*
G01*
X37818750Y-62612500D01*
G75*
G02*
X37575000Y-62368750I0J243750D01*
G01*
X37575000Y-61881250D01*
G75*
G02*
X37818750Y-61637500I243750J0D01*
G01*
G37*
%TD*%
%TO.C,R31*%
G36*
G01*
X78912500Y-61518750D02*
X78912500Y-62081250D01*
G75*
G02*
X78668750Y-62325000I-243750J0D01*
G01*
X78181250Y-62325000D01*
G75*
G02*
X77937500Y-62081250I0J243750D01*
G01*
X77937500Y-61518750D01*
G75*
G02*
X78181250Y-61275000I243750J0D01*
G01*
X78668750Y-61275000D01*
G75*
G02*
X78912500Y-61518750I0J-243750D01*
G01*
G37*
G36*
G01*
X80487500Y-61518750D02*
X80487500Y-62081250D01*
G75*
G02*
X80243750Y-62325000I-243750J0D01*
G01*
X79756250Y-62325000D01*
G75*
G02*
X79512500Y-62081250I0J243750D01*
G01*
X79512500Y-61518750D01*
G75*
G02*
X79756250Y-61275000I243750J0D01*
G01*
X80243750Y-61275000D01*
G75*
G02*
X80487500Y-61518750I0J-243750D01*
G01*
G37*
%TD*%
%TO.C,C15*%
G36*
G01*
X84112500Y-65881250D02*
X84112500Y-65318750D01*
G75*
G02*
X84356250Y-65075000I243750J0D01*
G01*
X84843750Y-65075000D01*
G75*
G02*
X85087500Y-65318750I0J-243750D01*
G01*
X85087500Y-65881250D01*
G75*
G02*
X84843750Y-66125000I-243750J0D01*
G01*
X84356250Y-66125000D01*
G75*
G02*
X84112500Y-65881250I0J243750D01*
G01*
G37*
G36*
G01*
X82537500Y-65881250D02*
X82537500Y-65318750D01*
G75*
G02*
X82781250Y-65075000I243750J0D01*
G01*
X83268750Y-65075000D01*
G75*
G02*
X83512500Y-65318750I0J-243750D01*
G01*
X83512500Y-65881250D01*
G75*
G02*
X83268750Y-66125000I-243750J0D01*
G01*
X82781250Y-66125000D01*
G75*
G02*
X82537500Y-65881250I0J243750D01*
G01*
G37*
%TD*%
M02*
