%TF.GenerationSoftware,KiCad,Pcbnew,5.1.6-c6e7f7d~86~ubuntu18.04.1*%
%TF.CreationDate,2020-06-14T11:54:17-05:00*%
%TF.ProjectId,Hydroponics,48796472-6f70-46f6-9e69-63732e6b6963,rev?*%
%TF.SameCoordinates,Original*%
%TF.FileFunction,Paste,Top*%
%TF.FilePolarity,Positive*%
%FSLAX46Y46*%
G04 Gerber Fmt 4.6, Leading zero omitted, Abs format (unit mm)*
G04 Created by KiCad (PCBNEW 5.1.6-c6e7f7d~86~ubuntu18.04.1) date 2020-06-14 11:54:17*
%MOMM*%
%LPD*%
G01*
G04 APERTURE LIST*
%ADD10R,1.600000X1.400000*%
%ADD11R,3.940000X5.840000*%
%ADD12R,1.390000X1.400000*%
%ADD13R,3.360000X4.860000*%
%ADD14R,3.200000X4.000000*%
%ADD15R,2.000000X1.200000*%
%ADD16R,0.410000X0.510000*%
%ADD17R,2.500000X3.300000*%
%ADD18R,0.400000X1.060000*%
%ADD19R,2.310000X2.460000*%
%ADD20R,0.450000X1.475000*%
G04 APERTURE END LIST*
D10*
%TO.C,S2*%
X10327000Y-44402900D03*
X2327000Y-44402900D03*
X10327000Y-39902900D03*
X2327000Y-39902900D03*
%TD*%
%TO.C,R38*%
G36*
G01*
X23025000Y-71575001D02*
X23025000Y-68724999D01*
G75*
G02*
X23274999Y-68475000I249999J0D01*
G01*
X24125001Y-68475000D01*
G75*
G02*
X24375000Y-68724999I0J-249999D01*
G01*
X24375000Y-71575001D01*
G75*
G02*
X24125001Y-71825000I-249999J0D01*
G01*
X23274999Y-71825000D01*
G75*
G02*
X23025000Y-71575001I0J249999D01*
G01*
G37*
G36*
G01*
X17225000Y-71575001D02*
X17225000Y-68724999D01*
G75*
G02*
X17474999Y-68475000I249999J0D01*
G01*
X18325001Y-68475000D01*
G75*
G02*
X18575000Y-68724999I0J-249999D01*
G01*
X18575000Y-71575001D01*
G75*
G02*
X18325001Y-71825000I-249999J0D01*
G01*
X17474999Y-71825000D01*
G75*
G02*
X17225000Y-71575001I0J249999D01*
G01*
G37*
%TD*%
D11*
%TO.C,R37*%
X25300000Y-76150000D03*
X16150000Y-76150000D03*
%TD*%
%TO.C,R29*%
X47150000Y-84750000D03*
X38000000Y-84750000D03*
%TD*%
D12*
%TO.C,D6*%
X55570000Y-29237000D03*
X53730000Y-29237000D03*
D13*
X54650000Y-25255000D03*
%TD*%
%TO.C,R24*%
G36*
G01*
X16362500Y-16743750D02*
X16362500Y-17256250D01*
G75*
G02*
X16143750Y-17475000I-218750J0D01*
G01*
X15706250Y-17475000D01*
G75*
G02*
X15487500Y-17256250I0J218750D01*
G01*
X15487500Y-16743750D01*
G75*
G02*
X15706250Y-16525000I218750J0D01*
G01*
X16143750Y-16525000D01*
G75*
G02*
X16362500Y-16743750I0J-218750D01*
G01*
G37*
G36*
G01*
X17937500Y-16743750D02*
X17937500Y-17256250D01*
G75*
G02*
X17718750Y-17475000I-218750J0D01*
G01*
X17281250Y-17475000D01*
G75*
G02*
X17062500Y-17256250I0J218750D01*
G01*
X17062500Y-16743750D01*
G75*
G02*
X17281250Y-16525000I218750J0D01*
G01*
X17718750Y-16525000D01*
G75*
G02*
X17937500Y-16743750I0J-218750D01*
G01*
G37*
%TD*%
%TO.C,R23*%
G36*
G01*
X13637500Y-17256250D02*
X13637500Y-16743750D01*
G75*
G02*
X13856250Y-16525000I218750J0D01*
G01*
X14293750Y-16525000D01*
G75*
G02*
X14512500Y-16743750I0J-218750D01*
G01*
X14512500Y-17256250D01*
G75*
G02*
X14293750Y-17475000I-218750J0D01*
G01*
X13856250Y-17475000D01*
G75*
G02*
X13637500Y-17256250I0J218750D01*
G01*
G37*
G36*
G01*
X12062500Y-17256250D02*
X12062500Y-16743750D01*
G75*
G02*
X12281250Y-16525000I218750J0D01*
G01*
X12718750Y-16525000D01*
G75*
G02*
X12937500Y-16743750I0J-218750D01*
G01*
X12937500Y-17256250D01*
G75*
G02*
X12718750Y-17475000I-218750J0D01*
G01*
X12281250Y-17475000D01*
G75*
G02*
X12062500Y-17256250I0J218750D01*
G01*
G37*
%TD*%
%TO.C,R22*%
G36*
G01*
X16362500Y-15243750D02*
X16362500Y-15756250D01*
G75*
G02*
X16143750Y-15975000I-218750J0D01*
G01*
X15706250Y-15975000D01*
G75*
G02*
X15487500Y-15756250I0J218750D01*
G01*
X15487500Y-15243750D01*
G75*
G02*
X15706250Y-15025000I218750J0D01*
G01*
X16143750Y-15025000D01*
G75*
G02*
X16362500Y-15243750I0J-218750D01*
G01*
G37*
G36*
G01*
X17937500Y-15243750D02*
X17937500Y-15756250D01*
G75*
G02*
X17718750Y-15975000I-218750J0D01*
G01*
X17281250Y-15975000D01*
G75*
G02*
X17062500Y-15756250I0J218750D01*
G01*
X17062500Y-15243750D01*
G75*
G02*
X17281250Y-15025000I218750J0D01*
G01*
X17718750Y-15025000D01*
G75*
G02*
X17937500Y-15243750I0J-218750D01*
G01*
G37*
%TD*%
%TO.C,R21*%
G36*
G01*
X13637500Y-15756250D02*
X13637500Y-15243750D01*
G75*
G02*
X13856250Y-15025000I218750J0D01*
G01*
X14293750Y-15025000D01*
G75*
G02*
X14512500Y-15243750I0J-218750D01*
G01*
X14512500Y-15756250D01*
G75*
G02*
X14293750Y-15975000I-218750J0D01*
G01*
X13856250Y-15975000D01*
G75*
G02*
X13637500Y-15756250I0J218750D01*
G01*
G37*
G36*
G01*
X12062500Y-15756250D02*
X12062500Y-15243750D01*
G75*
G02*
X12281250Y-15025000I218750J0D01*
G01*
X12718750Y-15025000D01*
G75*
G02*
X12937500Y-15243750I0J-218750D01*
G01*
X12937500Y-15756250D01*
G75*
G02*
X12718750Y-15975000I-218750J0D01*
G01*
X12281250Y-15975000D01*
G75*
G02*
X12062500Y-15756250I0J218750D01*
G01*
G37*
%TD*%
%TO.C,R20*%
G36*
G01*
X16362500Y-13743750D02*
X16362500Y-14256250D01*
G75*
G02*
X16143750Y-14475000I-218750J0D01*
G01*
X15706250Y-14475000D01*
G75*
G02*
X15487500Y-14256250I0J218750D01*
G01*
X15487500Y-13743750D01*
G75*
G02*
X15706250Y-13525000I218750J0D01*
G01*
X16143750Y-13525000D01*
G75*
G02*
X16362500Y-13743750I0J-218750D01*
G01*
G37*
G36*
G01*
X17937500Y-13743750D02*
X17937500Y-14256250D01*
G75*
G02*
X17718750Y-14475000I-218750J0D01*
G01*
X17281250Y-14475000D01*
G75*
G02*
X17062500Y-14256250I0J218750D01*
G01*
X17062500Y-13743750D01*
G75*
G02*
X17281250Y-13525000I218750J0D01*
G01*
X17718750Y-13525000D01*
G75*
G02*
X17937500Y-13743750I0J-218750D01*
G01*
G37*
%TD*%
%TO.C,R19*%
G36*
G01*
X13637500Y-14256250D02*
X13637500Y-13743750D01*
G75*
G02*
X13856250Y-13525000I218750J0D01*
G01*
X14293750Y-13525000D01*
G75*
G02*
X14512500Y-13743750I0J-218750D01*
G01*
X14512500Y-14256250D01*
G75*
G02*
X14293750Y-14475000I-218750J0D01*
G01*
X13856250Y-14475000D01*
G75*
G02*
X13637500Y-14256250I0J218750D01*
G01*
G37*
G36*
G01*
X12062500Y-14256250D02*
X12062500Y-13743750D01*
G75*
G02*
X12281250Y-13525000I218750J0D01*
G01*
X12718750Y-13525000D01*
G75*
G02*
X12937500Y-13743750I0J-218750D01*
G01*
X12937500Y-14256250D01*
G75*
G02*
X12718750Y-14475000I-218750J0D01*
G01*
X12281250Y-14475000D01*
G75*
G02*
X12062500Y-14256250I0J218750D01*
G01*
G37*
%TD*%
%TO.C,C7*%
G36*
G01*
X49825000Y-18175000D02*
X49825000Y-19275000D01*
G75*
G02*
X49575000Y-19525000I-250000J0D01*
G01*
X46750000Y-19525000D01*
G75*
G02*
X46500000Y-19275000I0J250000D01*
G01*
X46500000Y-18175000D01*
G75*
G02*
X46750000Y-17925000I250000J0D01*
G01*
X49575000Y-17925000D01*
G75*
G02*
X49825000Y-18175000I0J-250000D01*
G01*
G37*
G36*
G01*
X54900000Y-18175000D02*
X54900000Y-19275000D01*
G75*
G02*
X54650000Y-19525000I-250000J0D01*
G01*
X51825000Y-19525000D01*
G75*
G02*
X51575000Y-19275000I0J250000D01*
G01*
X51575000Y-18175000D01*
G75*
G02*
X51825000Y-17925000I250000J0D01*
G01*
X54650000Y-17925000D01*
G75*
G02*
X54900000Y-18175000I0J-250000D01*
G01*
G37*
%TD*%
D14*
%TO.C,L1*%
X60575000Y-37075000D03*
X71575000Y-37075000D03*
%TD*%
%TO.C,R36*%
G36*
G01*
X47150000Y-26356250D02*
X47150000Y-25843750D01*
G75*
G02*
X47368750Y-25625000I218750J0D01*
G01*
X47806250Y-25625000D01*
G75*
G02*
X48025000Y-25843750I0J-218750D01*
G01*
X48025000Y-26356250D01*
G75*
G02*
X47806250Y-26575000I-218750J0D01*
G01*
X47368750Y-26575000D01*
G75*
G02*
X47150000Y-26356250I0J218750D01*
G01*
G37*
G36*
G01*
X45575000Y-26356250D02*
X45575000Y-25843750D01*
G75*
G02*
X45793750Y-25625000I218750J0D01*
G01*
X46231250Y-25625000D01*
G75*
G02*
X46450000Y-25843750I0J-218750D01*
G01*
X46450000Y-26356250D01*
G75*
G02*
X46231250Y-26575000I-218750J0D01*
G01*
X45793750Y-26575000D01*
G75*
G02*
X45575000Y-26356250I0J218750D01*
G01*
G37*
%TD*%
%TO.C,R35*%
G36*
G01*
X47137500Y-24756250D02*
X47137500Y-24243750D01*
G75*
G02*
X47356250Y-24025000I218750J0D01*
G01*
X47793750Y-24025000D01*
G75*
G02*
X48012500Y-24243750I0J-218750D01*
G01*
X48012500Y-24756250D01*
G75*
G02*
X47793750Y-24975000I-218750J0D01*
G01*
X47356250Y-24975000D01*
G75*
G02*
X47137500Y-24756250I0J218750D01*
G01*
G37*
G36*
G01*
X45562500Y-24756250D02*
X45562500Y-24243750D01*
G75*
G02*
X45781250Y-24025000I218750J0D01*
G01*
X46218750Y-24025000D01*
G75*
G02*
X46437500Y-24243750I0J-218750D01*
G01*
X46437500Y-24756250D01*
G75*
G02*
X46218750Y-24975000I-218750J0D01*
G01*
X45781250Y-24975000D01*
G75*
G02*
X45562500Y-24756250I0J218750D01*
G01*
G37*
%TD*%
%TO.C,D8*%
G36*
G01*
X43287500Y-17706250D02*
X43287500Y-16793750D01*
G75*
G02*
X43531250Y-16550000I243750J0D01*
G01*
X44018750Y-16550000D01*
G75*
G02*
X44262500Y-16793750I0J-243750D01*
G01*
X44262500Y-17706250D01*
G75*
G02*
X44018750Y-17950000I-243750J0D01*
G01*
X43531250Y-17950000D01*
G75*
G02*
X43287500Y-17706250I0J243750D01*
G01*
G37*
G36*
G01*
X41412500Y-17706250D02*
X41412500Y-16793750D01*
G75*
G02*
X41656250Y-16550000I243750J0D01*
G01*
X42143750Y-16550000D01*
G75*
G02*
X42387500Y-16793750I0J-243750D01*
G01*
X42387500Y-17706250D01*
G75*
G02*
X42143750Y-17950000I-243750J0D01*
G01*
X41656250Y-17950000D01*
G75*
G02*
X41412500Y-17706250I0J243750D01*
G01*
G37*
%TD*%
%TO.C,D7*%
G36*
G01*
X43287500Y-19906250D02*
X43287500Y-18993750D01*
G75*
G02*
X43531250Y-18750000I243750J0D01*
G01*
X44018750Y-18750000D01*
G75*
G02*
X44262500Y-18993750I0J-243750D01*
G01*
X44262500Y-19906250D01*
G75*
G02*
X44018750Y-20150000I-243750J0D01*
G01*
X43531250Y-20150000D01*
G75*
G02*
X43287500Y-19906250I0J243750D01*
G01*
G37*
G36*
G01*
X41412500Y-19906250D02*
X41412500Y-18993750D01*
G75*
G02*
X41656250Y-18750000I243750J0D01*
G01*
X42143750Y-18750000D01*
G75*
G02*
X42387500Y-18993750I0J-243750D01*
G01*
X42387500Y-19906250D01*
G75*
G02*
X42143750Y-20150000I-243750J0D01*
G01*
X41656250Y-20150000D01*
G75*
G02*
X41412500Y-19906250I0J243750D01*
G01*
G37*
%TD*%
D10*
%TO.C,S3*%
X2479400Y-60729100D03*
X10479400Y-60729100D03*
X2479400Y-65229100D03*
X10479400Y-65229100D03*
%TD*%
%TO.C,S1*%
X2377800Y-50864100D03*
X10377800Y-50864100D03*
X2377800Y-55364100D03*
X10377800Y-55364100D03*
%TD*%
%TO.C,R13*%
G36*
G01*
X19766400Y-43000250D02*
X19766400Y-42487750D01*
G75*
G02*
X19985150Y-42269000I218750J0D01*
G01*
X20422650Y-42269000D01*
G75*
G02*
X20641400Y-42487750I0J-218750D01*
G01*
X20641400Y-43000250D01*
G75*
G02*
X20422650Y-43219000I-218750J0D01*
G01*
X19985150Y-43219000D01*
G75*
G02*
X19766400Y-43000250I0J218750D01*
G01*
G37*
G36*
G01*
X18191400Y-43000250D02*
X18191400Y-42487750D01*
G75*
G02*
X18410150Y-42269000I218750J0D01*
G01*
X18847650Y-42269000D01*
G75*
G02*
X19066400Y-42487750I0J-218750D01*
G01*
X19066400Y-43000250D01*
G75*
G02*
X18847650Y-43219000I-218750J0D01*
G01*
X18410150Y-43219000D01*
G75*
G02*
X18191400Y-43000250I0J218750D01*
G01*
G37*
%TD*%
%TO.C,R11*%
G36*
G01*
X19740900Y-44625850D02*
X19740900Y-44113350D01*
G75*
G02*
X19959650Y-43894600I218750J0D01*
G01*
X20397150Y-43894600D01*
G75*
G02*
X20615900Y-44113350I0J-218750D01*
G01*
X20615900Y-44625850D01*
G75*
G02*
X20397150Y-44844600I-218750J0D01*
G01*
X19959650Y-44844600D01*
G75*
G02*
X19740900Y-44625850I0J218750D01*
G01*
G37*
G36*
G01*
X18165900Y-44625850D02*
X18165900Y-44113350D01*
G75*
G02*
X18384650Y-43894600I218750J0D01*
G01*
X18822150Y-43894600D01*
G75*
G02*
X19040900Y-44113350I0J-218750D01*
G01*
X19040900Y-44625850D01*
G75*
G02*
X18822150Y-44844600I-218750J0D01*
G01*
X18384650Y-44844600D01*
G75*
G02*
X18165900Y-44625850I0J218750D01*
G01*
G37*
%TD*%
%TO.C,R10*%
G36*
G01*
X19766400Y-41374650D02*
X19766400Y-40862150D01*
G75*
G02*
X19985150Y-40643400I218750J0D01*
G01*
X20422650Y-40643400D01*
G75*
G02*
X20641400Y-40862150I0J-218750D01*
G01*
X20641400Y-41374650D01*
G75*
G02*
X20422650Y-41593400I-218750J0D01*
G01*
X19985150Y-41593400D01*
G75*
G02*
X19766400Y-41374650I0J218750D01*
G01*
G37*
G36*
G01*
X18191400Y-41374650D02*
X18191400Y-40862150D01*
G75*
G02*
X18410150Y-40643400I218750J0D01*
G01*
X18847650Y-40643400D01*
G75*
G02*
X19066400Y-40862150I0J-218750D01*
G01*
X19066400Y-41374650D01*
G75*
G02*
X18847650Y-41593400I-218750J0D01*
G01*
X18410150Y-41593400D01*
G75*
G02*
X18191400Y-41374650I0J218750D01*
G01*
G37*
%TD*%
%TO.C,R8*%
G36*
G01*
X19766400Y-39749050D02*
X19766400Y-39236550D01*
G75*
G02*
X19985150Y-39017800I218750J0D01*
G01*
X20422650Y-39017800D01*
G75*
G02*
X20641400Y-39236550I0J-218750D01*
G01*
X20641400Y-39749050D01*
G75*
G02*
X20422650Y-39967800I-218750J0D01*
G01*
X19985150Y-39967800D01*
G75*
G02*
X19766400Y-39749050I0J218750D01*
G01*
G37*
G36*
G01*
X18191400Y-39749050D02*
X18191400Y-39236550D01*
G75*
G02*
X18410150Y-39017800I218750J0D01*
G01*
X18847650Y-39017800D01*
G75*
G02*
X19066400Y-39236550I0J-218750D01*
G01*
X19066400Y-39749050D01*
G75*
G02*
X18847650Y-39967800I-218750J0D01*
G01*
X18410150Y-39967800D01*
G75*
G02*
X18191400Y-39749050I0J218750D01*
G01*
G37*
%TD*%
%TO.C,D5*%
G36*
G01*
X12387500Y-96456250D02*
X12387500Y-95543750D01*
G75*
G02*
X12631250Y-95300000I243750J0D01*
G01*
X13118750Y-95300000D01*
G75*
G02*
X13362500Y-95543750I0J-243750D01*
G01*
X13362500Y-96456250D01*
G75*
G02*
X13118750Y-96700000I-243750J0D01*
G01*
X12631250Y-96700000D01*
G75*
G02*
X12387500Y-96456250I0J243750D01*
G01*
G37*
G36*
G01*
X10512500Y-96456250D02*
X10512500Y-95543750D01*
G75*
G02*
X10756250Y-95300000I243750J0D01*
G01*
X11243750Y-95300000D01*
G75*
G02*
X11487500Y-95543750I0J-243750D01*
G01*
X11487500Y-96456250D01*
G75*
G02*
X11243750Y-96700000I-243750J0D01*
G01*
X10756250Y-96700000D01*
G75*
G02*
X10512500Y-96456250I0J243750D01*
G01*
G37*
%TD*%
%TO.C,D4*%
G36*
G01*
X106387500Y-96456250D02*
X106387500Y-95543750D01*
G75*
G02*
X106631250Y-95300000I243750J0D01*
G01*
X107118750Y-95300000D01*
G75*
G02*
X107362500Y-95543750I0J-243750D01*
G01*
X107362500Y-96456250D01*
G75*
G02*
X107118750Y-96700000I-243750J0D01*
G01*
X106631250Y-96700000D01*
G75*
G02*
X106387500Y-96456250I0J243750D01*
G01*
G37*
G36*
G01*
X104512500Y-96456250D02*
X104512500Y-95543750D01*
G75*
G02*
X104756250Y-95300000I243750J0D01*
G01*
X105243750Y-95300000D01*
G75*
G02*
X105487500Y-95543750I0J-243750D01*
G01*
X105487500Y-96456250D01*
G75*
G02*
X105243750Y-96700000I-243750J0D01*
G01*
X104756250Y-96700000D01*
G75*
G02*
X104512500Y-96456250I0J243750D01*
G01*
G37*
%TD*%
%TO.C,D3*%
G36*
G01*
X7887500Y-96456250D02*
X7887500Y-95543750D01*
G75*
G02*
X8131250Y-95300000I243750J0D01*
G01*
X8618750Y-95300000D01*
G75*
G02*
X8862500Y-95543750I0J-243750D01*
G01*
X8862500Y-96456250D01*
G75*
G02*
X8618750Y-96700000I-243750J0D01*
G01*
X8131250Y-96700000D01*
G75*
G02*
X7887500Y-96456250I0J243750D01*
G01*
G37*
G36*
G01*
X6012500Y-96456250D02*
X6012500Y-95543750D01*
G75*
G02*
X6256250Y-95300000I243750J0D01*
G01*
X6743750Y-95300000D01*
G75*
G02*
X6987500Y-95543750I0J-243750D01*
G01*
X6987500Y-96456250D01*
G75*
G02*
X6743750Y-96700000I-243750J0D01*
G01*
X6256250Y-96700000D01*
G75*
G02*
X6012500Y-96456250I0J243750D01*
G01*
G37*
%TD*%
%TO.C,D2*%
G36*
G01*
X3450000Y-96456250D02*
X3450000Y-95543750D01*
G75*
G02*
X3693750Y-95300000I243750J0D01*
G01*
X4181250Y-95300000D01*
G75*
G02*
X4425000Y-95543750I0J-243750D01*
G01*
X4425000Y-96456250D01*
G75*
G02*
X4181250Y-96700000I-243750J0D01*
G01*
X3693750Y-96700000D01*
G75*
G02*
X3450000Y-96456250I0J243750D01*
G01*
G37*
G36*
G01*
X1575000Y-96456250D02*
X1575000Y-95543750D01*
G75*
G02*
X1818750Y-95300000I243750J0D01*
G01*
X2306250Y-95300000D01*
G75*
G02*
X2550000Y-95543750I0J-243750D01*
G01*
X2550000Y-96456250D01*
G75*
G02*
X2306250Y-96700000I-243750J0D01*
G01*
X1818750Y-96700000D01*
G75*
G02*
X1575000Y-96456250I0J243750D01*
G01*
G37*
%TD*%
D15*
%TO.C,IC2*%
X75600000Y-45600000D03*
D16*
X76575000Y-46650000D03*
X75925000Y-46650000D03*
X75275000Y-46650000D03*
X74625000Y-46650000D03*
X74625000Y-44550000D03*
X75275000Y-44550000D03*
X75925000Y-44550000D03*
X76575000Y-44550000D03*
%TD*%
D15*
%TO.C,IC1*%
X84750000Y-45600000D03*
D16*
X85725000Y-46650000D03*
X85075000Y-46650000D03*
X84425000Y-46650000D03*
X83775000Y-46650000D03*
X83775000Y-44550000D03*
X84425000Y-44550000D03*
X85075000Y-44550000D03*
X85725000Y-44550000D03*
%TD*%
D17*
%TO.C,D1*%
X71550000Y-51550000D03*
X64750000Y-51550000D03*
%TD*%
%TO.C,R18*%
G36*
G01*
X66525000Y-18143750D02*
X66525000Y-18656250D01*
G75*
G02*
X66306250Y-18875000I-218750J0D01*
G01*
X65868750Y-18875000D01*
G75*
G02*
X65650000Y-18656250I0J218750D01*
G01*
X65650000Y-18143750D01*
G75*
G02*
X65868750Y-17925000I218750J0D01*
G01*
X66306250Y-17925000D01*
G75*
G02*
X66525000Y-18143750I0J-218750D01*
G01*
G37*
G36*
G01*
X68100000Y-18143750D02*
X68100000Y-18656250D01*
G75*
G02*
X67881250Y-18875000I-218750J0D01*
G01*
X67443750Y-18875000D01*
G75*
G02*
X67225000Y-18656250I0J218750D01*
G01*
X67225000Y-18143750D01*
G75*
G02*
X67443750Y-17925000I218750J0D01*
G01*
X67881250Y-17925000D01*
G75*
G02*
X68100000Y-18143750I0J-218750D01*
G01*
G37*
%TD*%
%TO.C,R14*%
G36*
G01*
X63487500Y-18143750D02*
X63487500Y-18656250D01*
G75*
G02*
X63268750Y-18875000I-218750J0D01*
G01*
X62831250Y-18875000D01*
G75*
G02*
X62612500Y-18656250I0J218750D01*
G01*
X62612500Y-18143750D01*
G75*
G02*
X62831250Y-17925000I218750J0D01*
G01*
X63268750Y-17925000D01*
G75*
G02*
X63487500Y-18143750I0J-218750D01*
G01*
G37*
G36*
G01*
X65062500Y-18143750D02*
X65062500Y-18656250D01*
G75*
G02*
X64843750Y-18875000I-218750J0D01*
G01*
X64406250Y-18875000D01*
G75*
G02*
X64187500Y-18656250I0J218750D01*
G01*
X64187500Y-18143750D01*
G75*
G02*
X64406250Y-17925000I218750J0D01*
G01*
X64843750Y-17925000D01*
G75*
G02*
X65062500Y-18143750I0J-218750D01*
G01*
G37*
%TD*%
%TO.C,R15*%
G36*
G01*
X63112500Y-20993750D02*
X63112500Y-21506250D01*
G75*
G02*
X62893750Y-21725000I-218750J0D01*
G01*
X62456250Y-21725000D01*
G75*
G02*
X62237500Y-21506250I0J218750D01*
G01*
X62237500Y-20993750D01*
G75*
G02*
X62456250Y-20775000I218750J0D01*
G01*
X62893750Y-20775000D01*
G75*
G02*
X63112500Y-20993750I0J-218750D01*
G01*
G37*
G36*
G01*
X64687500Y-20993750D02*
X64687500Y-21506250D01*
G75*
G02*
X64468750Y-21725000I-218750J0D01*
G01*
X64031250Y-21725000D01*
G75*
G02*
X63812500Y-21506250I0J218750D01*
G01*
X63812500Y-20993750D01*
G75*
G02*
X64031250Y-20775000I218750J0D01*
G01*
X64468750Y-20775000D01*
G75*
G02*
X64687500Y-20993750I0J-218750D01*
G01*
G37*
%TD*%
%TO.C,R16*%
G36*
G01*
X66612500Y-23443750D02*
X66612500Y-23956250D01*
G75*
G02*
X66393750Y-24175000I-218750J0D01*
G01*
X65956250Y-24175000D01*
G75*
G02*
X65737500Y-23956250I0J218750D01*
G01*
X65737500Y-23443750D01*
G75*
G02*
X65956250Y-23225000I218750J0D01*
G01*
X66393750Y-23225000D01*
G75*
G02*
X66612500Y-23443750I0J-218750D01*
G01*
G37*
G36*
G01*
X68187500Y-23443750D02*
X68187500Y-23956250D01*
G75*
G02*
X67968750Y-24175000I-218750J0D01*
G01*
X67531250Y-24175000D01*
G75*
G02*
X67312500Y-23956250I0J218750D01*
G01*
X67312500Y-23443750D01*
G75*
G02*
X67531250Y-23225000I218750J0D01*
G01*
X67968750Y-23225000D01*
G75*
G02*
X68187500Y-23443750I0J-218750D01*
G01*
G37*
%TD*%
%TO.C,R12*%
G36*
G01*
X69393750Y-56837500D02*
X69906250Y-56837500D01*
G75*
G02*
X70125000Y-57056250I0J-218750D01*
G01*
X70125000Y-57493750D01*
G75*
G02*
X69906250Y-57712500I-218750J0D01*
G01*
X69393750Y-57712500D01*
G75*
G02*
X69175000Y-57493750I0J218750D01*
G01*
X69175000Y-57056250D01*
G75*
G02*
X69393750Y-56837500I218750J0D01*
G01*
G37*
G36*
G01*
X69393750Y-55262500D02*
X69906250Y-55262500D01*
G75*
G02*
X70125000Y-55481250I0J-218750D01*
G01*
X70125000Y-55918750D01*
G75*
G02*
X69906250Y-56137500I-218750J0D01*
G01*
X69393750Y-56137500D01*
G75*
G02*
X69175000Y-55918750I0J218750D01*
G01*
X69175000Y-55481250D01*
G75*
G02*
X69393750Y-55262500I218750J0D01*
G01*
G37*
%TD*%
%TO.C,R7*%
G36*
G01*
X67712500Y-56006250D02*
X67712500Y-55493750D01*
G75*
G02*
X67931250Y-55275000I218750J0D01*
G01*
X68368750Y-55275000D01*
G75*
G02*
X68587500Y-55493750I0J-218750D01*
G01*
X68587500Y-56006250D01*
G75*
G02*
X68368750Y-56225000I-218750J0D01*
G01*
X67931250Y-56225000D01*
G75*
G02*
X67712500Y-56006250I0J218750D01*
G01*
G37*
G36*
G01*
X66137500Y-56006250D02*
X66137500Y-55493750D01*
G75*
G02*
X66356250Y-55275000I218750J0D01*
G01*
X66793750Y-55275000D01*
G75*
G02*
X67012500Y-55493750I0J-218750D01*
G01*
X67012500Y-56006250D01*
G75*
G02*
X66793750Y-56225000I-218750J0D01*
G01*
X66356250Y-56225000D01*
G75*
G02*
X66137500Y-56006250I0J218750D01*
G01*
G37*
%TD*%
%TO.C,R6*%
G36*
G01*
X67000000Y-57043750D02*
X67000000Y-57556250D01*
G75*
G02*
X66781250Y-57775000I-218750J0D01*
G01*
X66343750Y-57775000D01*
G75*
G02*
X66125000Y-57556250I0J218750D01*
G01*
X66125000Y-57043750D01*
G75*
G02*
X66343750Y-56825000I218750J0D01*
G01*
X66781250Y-56825000D01*
G75*
G02*
X67000000Y-57043750I0J-218750D01*
G01*
G37*
G36*
G01*
X68575000Y-57043750D02*
X68575000Y-57556250D01*
G75*
G02*
X68356250Y-57775000I-218750J0D01*
G01*
X67918750Y-57775000D01*
G75*
G02*
X67700000Y-57556250I0J218750D01*
G01*
X67700000Y-57043750D01*
G75*
G02*
X67918750Y-56825000I218750J0D01*
G01*
X68356250Y-56825000D01*
G75*
G02*
X68575000Y-57043750I0J-218750D01*
G01*
G37*
%TD*%
%TO.C,R17*%
G36*
G01*
X38587500Y-45843750D02*
X38587500Y-46356250D01*
G75*
G02*
X38368750Y-46575000I-218750J0D01*
G01*
X37931250Y-46575000D01*
G75*
G02*
X37712500Y-46356250I0J218750D01*
G01*
X37712500Y-45843750D01*
G75*
G02*
X37931250Y-45625000I218750J0D01*
G01*
X38368750Y-45625000D01*
G75*
G02*
X38587500Y-45843750I0J-218750D01*
G01*
G37*
G36*
G01*
X40162500Y-45843750D02*
X40162500Y-46356250D01*
G75*
G02*
X39943750Y-46575000I-218750J0D01*
G01*
X39506250Y-46575000D01*
G75*
G02*
X39287500Y-46356250I0J218750D01*
G01*
X39287500Y-45843750D01*
G75*
G02*
X39506250Y-45625000I218750J0D01*
G01*
X39943750Y-45625000D01*
G75*
G02*
X40162500Y-45843750I0J-218750D01*
G01*
G37*
%TD*%
%TO.C,R9*%
G36*
G01*
X38337500Y-53543750D02*
X38337500Y-54056250D01*
G75*
G02*
X38118750Y-54275000I-218750J0D01*
G01*
X37681250Y-54275000D01*
G75*
G02*
X37462500Y-54056250I0J218750D01*
G01*
X37462500Y-53543750D01*
G75*
G02*
X37681250Y-53325000I218750J0D01*
G01*
X38118750Y-53325000D01*
G75*
G02*
X38337500Y-53543750I0J-218750D01*
G01*
G37*
G36*
G01*
X39912500Y-53543750D02*
X39912500Y-54056250D01*
G75*
G02*
X39693750Y-54275000I-218750J0D01*
G01*
X39256250Y-54275000D01*
G75*
G02*
X39037500Y-54056250I0J218750D01*
G01*
X39037500Y-53543750D01*
G75*
G02*
X39256250Y-53325000I218750J0D01*
G01*
X39693750Y-53325000D01*
G75*
G02*
X39912500Y-53543750I0J-218750D01*
G01*
G37*
%TD*%
%TO.C,C9*%
G36*
G01*
X60293750Y-20762500D02*
X61206250Y-20762500D01*
G75*
G02*
X61450000Y-21006250I0J-243750D01*
G01*
X61450000Y-21493750D01*
G75*
G02*
X61206250Y-21737500I-243750J0D01*
G01*
X60293750Y-21737500D01*
G75*
G02*
X60050000Y-21493750I0J243750D01*
G01*
X60050000Y-21006250D01*
G75*
G02*
X60293750Y-20762500I243750J0D01*
G01*
G37*
G36*
G01*
X60293750Y-18887500D02*
X61206250Y-18887500D01*
G75*
G02*
X61450000Y-19131250I0J-243750D01*
G01*
X61450000Y-19618750D01*
G75*
G02*
X61206250Y-19862500I-243750J0D01*
G01*
X60293750Y-19862500D01*
G75*
G02*
X60050000Y-19618750I0J243750D01*
G01*
X60050000Y-19131250D01*
G75*
G02*
X60293750Y-18887500I243750J0D01*
G01*
G37*
%TD*%
%TO.C,C8*%
G36*
G01*
X58293750Y-20762500D02*
X59206250Y-20762500D01*
G75*
G02*
X59450000Y-21006250I0J-243750D01*
G01*
X59450000Y-21493750D01*
G75*
G02*
X59206250Y-21737500I-243750J0D01*
G01*
X58293750Y-21737500D01*
G75*
G02*
X58050000Y-21493750I0J243750D01*
G01*
X58050000Y-21006250D01*
G75*
G02*
X58293750Y-20762500I243750J0D01*
G01*
G37*
G36*
G01*
X58293750Y-18887500D02*
X59206250Y-18887500D01*
G75*
G02*
X59450000Y-19131250I0J-243750D01*
G01*
X59450000Y-19618750D01*
G75*
G02*
X59206250Y-19862500I-243750J0D01*
G01*
X58293750Y-19862500D01*
G75*
G02*
X58050000Y-19618750I0J243750D01*
G01*
X58050000Y-19131250D01*
G75*
G02*
X58293750Y-18887500I243750J0D01*
G01*
G37*
%TD*%
%TO.C,C14*%
G36*
G01*
X67393750Y-26937500D02*
X68306250Y-26937500D01*
G75*
G02*
X68550000Y-27181250I0J-243750D01*
G01*
X68550000Y-27668750D01*
G75*
G02*
X68306250Y-27912500I-243750J0D01*
G01*
X67393750Y-27912500D01*
G75*
G02*
X67150000Y-27668750I0J243750D01*
G01*
X67150000Y-27181250D01*
G75*
G02*
X67393750Y-26937500I243750J0D01*
G01*
G37*
G36*
G01*
X67393750Y-25062500D02*
X68306250Y-25062500D01*
G75*
G02*
X68550000Y-25306250I0J-243750D01*
G01*
X68550000Y-25793750D01*
G75*
G02*
X68306250Y-26037500I-243750J0D01*
G01*
X67393750Y-26037500D01*
G75*
G02*
X67150000Y-25793750I0J243750D01*
G01*
X67150000Y-25306250D01*
G75*
G02*
X67393750Y-25062500I243750J0D01*
G01*
G37*
%TD*%
%TO.C,C13*%
G36*
G01*
X67462500Y-22206250D02*
X67462500Y-21293750D01*
G75*
G02*
X67706250Y-21050000I243750J0D01*
G01*
X68193750Y-21050000D01*
G75*
G02*
X68437500Y-21293750I0J-243750D01*
G01*
X68437500Y-22206250D01*
G75*
G02*
X68193750Y-22450000I-243750J0D01*
G01*
X67706250Y-22450000D01*
G75*
G02*
X67462500Y-22206250I0J243750D01*
G01*
G37*
G36*
G01*
X65587500Y-22206250D02*
X65587500Y-21293750D01*
G75*
G02*
X65831250Y-21050000I243750J0D01*
G01*
X66318750Y-21050000D01*
G75*
G02*
X66562500Y-21293750I0J-243750D01*
G01*
X66562500Y-22206250D01*
G75*
G02*
X66318750Y-22450000I-243750J0D01*
G01*
X65831250Y-22450000D01*
G75*
G02*
X65587500Y-22206250I0J243750D01*
G01*
G37*
%TD*%
%TO.C,C4*%
G36*
G01*
X63525000Y-46125000D02*
X63525000Y-44875000D01*
G75*
G02*
X63775000Y-44625000I250000J0D01*
G01*
X64525000Y-44625000D01*
G75*
G02*
X64775000Y-44875000I0J-250000D01*
G01*
X64775000Y-46125000D01*
G75*
G02*
X64525000Y-46375000I-250000J0D01*
G01*
X63775000Y-46375000D01*
G75*
G02*
X63525000Y-46125000I0J250000D01*
G01*
G37*
G36*
G01*
X60725000Y-46125000D02*
X60725000Y-44875000D01*
G75*
G02*
X60975000Y-44625000I250000J0D01*
G01*
X61725000Y-44625000D01*
G75*
G02*
X61975000Y-44875000I0J-250000D01*
G01*
X61975000Y-46125000D01*
G75*
G02*
X61725000Y-46375000I-250000J0D01*
G01*
X60975000Y-46375000D01*
G75*
G02*
X60725000Y-46125000I0J250000D01*
G01*
G37*
%TD*%
%TO.C,C5*%
G36*
G01*
X79581250Y-47550000D02*
X79068750Y-47550000D01*
G75*
G02*
X78850000Y-47331250I0J218750D01*
G01*
X78850000Y-46893750D01*
G75*
G02*
X79068750Y-46675000I218750J0D01*
G01*
X79581250Y-46675000D01*
G75*
G02*
X79800000Y-46893750I0J-218750D01*
G01*
X79800000Y-47331250D01*
G75*
G02*
X79581250Y-47550000I-218750J0D01*
G01*
G37*
G36*
G01*
X79581250Y-49125000D02*
X79068750Y-49125000D01*
G75*
G02*
X78850000Y-48906250I0J218750D01*
G01*
X78850000Y-48468750D01*
G75*
G02*
X79068750Y-48250000I218750J0D01*
G01*
X79581250Y-48250000D01*
G75*
G02*
X79800000Y-48468750I0J-218750D01*
G01*
X79800000Y-48906250D01*
G75*
G02*
X79581250Y-49125000I-218750J0D01*
G01*
G37*
%TD*%
%TO.C,C12*%
G36*
G01*
X67387500Y-29506250D02*
X67387500Y-28993750D01*
G75*
G02*
X67606250Y-28775000I218750J0D01*
G01*
X68043750Y-28775000D01*
G75*
G02*
X68262500Y-28993750I0J-218750D01*
G01*
X68262500Y-29506250D01*
G75*
G02*
X68043750Y-29725000I-218750J0D01*
G01*
X67606250Y-29725000D01*
G75*
G02*
X67387500Y-29506250I0J218750D01*
G01*
G37*
G36*
G01*
X65812500Y-29506250D02*
X65812500Y-28993750D01*
G75*
G02*
X66031250Y-28775000I218750J0D01*
G01*
X66468750Y-28775000D01*
G75*
G02*
X66687500Y-28993750I0J-218750D01*
G01*
X66687500Y-29506250D01*
G75*
G02*
X66468750Y-29725000I-218750J0D01*
G01*
X66031250Y-29725000D01*
G75*
G02*
X65812500Y-29506250I0J218750D01*
G01*
G37*
%TD*%
%TO.C,C11*%
G36*
G01*
X70112500Y-26768750D02*
X70112500Y-27681250D01*
G75*
G02*
X69868750Y-27925000I-243750J0D01*
G01*
X69381250Y-27925000D01*
G75*
G02*
X69137500Y-27681250I0J243750D01*
G01*
X69137500Y-26768750D01*
G75*
G02*
X69381250Y-26525000I243750J0D01*
G01*
X69868750Y-26525000D01*
G75*
G02*
X70112500Y-26768750I0J-243750D01*
G01*
G37*
G36*
G01*
X71987500Y-26768750D02*
X71987500Y-27681250D01*
G75*
G02*
X71743750Y-27925000I-243750J0D01*
G01*
X71256250Y-27925000D01*
G75*
G02*
X71012500Y-27681250I0J243750D01*
G01*
X71012500Y-26768750D01*
G75*
G02*
X71256250Y-26525000I243750J0D01*
G01*
X71743750Y-26525000D01*
G75*
G02*
X71987500Y-26768750I0J-243750D01*
G01*
G37*
%TD*%
%TO.C,C10*%
G36*
G01*
X70275000Y-21125000D02*
X70275000Y-22375000D01*
G75*
G02*
X70025000Y-22625000I-250000J0D01*
G01*
X69275000Y-22625000D01*
G75*
G02*
X69025000Y-22375000I0J250000D01*
G01*
X69025000Y-21125000D01*
G75*
G02*
X69275000Y-20875000I250000J0D01*
G01*
X70025000Y-20875000D01*
G75*
G02*
X70275000Y-21125000I0J-250000D01*
G01*
G37*
G36*
G01*
X73075000Y-21125000D02*
X73075000Y-22375000D01*
G75*
G02*
X72825000Y-22625000I-250000J0D01*
G01*
X72075000Y-22625000D01*
G75*
G02*
X71825000Y-22375000I0J250000D01*
G01*
X71825000Y-21125000D01*
G75*
G02*
X72075000Y-20875000I250000J0D01*
G01*
X72825000Y-20875000D01*
G75*
G02*
X73075000Y-21125000I0J-250000D01*
G01*
G37*
%TD*%
%TO.C,C6*%
G36*
G01*
X78725000Y-44825000D02*
X79975000Y-44825000D01*
G75*
G02*
X80225000Y-45075000I0J-250000D01*
G01*
X80225000Y-45825000D01*
G75*
G02*
X79975000Y-46075000I-250000J0D01*
G01*
X78725000Y-46075000D01*
G75*
G02*
X78475000Y-45825000I0J250000D01*
G01*
X78475000Y-45075000D01*
G75*
G02*
X78725000Y-44825000I250000J0D01*
G01*
G37*
G36*
G01*
X78725000Y-42025000D02*
X79975000Y-42025000D01*
G75*
G02*
X80225000Y-42275000I0J-250000D01*
G01*
X80225000Y-43025000D01*
G75*
G02*
X79975000Y-43275000I-250000J0D01*
G01*
X78725000Y-43275000D01*
G75*
G02*
X78475000Y-43025000I0J250000D01*
G01*
X78475000Y-42275000D01*
G75*
G02*
X78725000Y-42025000I250000J0D01*
G01*
G37*
%TD*%
D18*
%TO.C,U3*%
X43190000Y-63050000D03*
X43840000Y-63050000D03*
X44500000Y-63050000D03*
X45150000Y-63050000D03*
X45150000Y-65250000D03*
X44500000Y-65250000D03*
X43840000Y-65250000D03*
X43190000Y-65250000D03*
%TD*%
%TO.C,R34*%
G36*
G01*
X42862500Y-59543750D02*
X42862500Y-60056250D01*
G75*
G02*
X42643750Y-60275000I-218750J0D01*
G01*
X42206250Y-60275000D01*
G75*
G02*
X41987500Y-60056250I0J218750D01*
G01*
X41987500Y-59543750D01*
G75*
G02*
X42206250Y-59325000I218750J0D01*
G01*
X42643750Y-59325000D01*
G75*
G02*
X42862500Y-59543750I0J-218750D01*
G01*
G37*
G36*
G01*
X44437500Y-59543750D02*
X44437500Y-60056250D01*
G75*
G02*
X44218750Y-60275000I-218750J0D01*
G01*
X43781250Y-60275000D01*
G75*
G02*
X43562500Y-60056250I0J218750D01*
G01*
X43562500Y-59543750D01*
G75*
G02*
X43781250Y-59325000I218750J0D01*
G01*
X44218750Y-59325000D01*
G75*
G02*
X44437500Y-59543750I0J-218750D01*
G01*
G37*
%TD*%
%TO.C,R28*%
G36*
G01*
X48856250Y-62462500D02*
X48343750Y-62462500D01*
G75*
G02*
X48125000Y-62243750I0J218750D01*
G01*
X48125000Y-61806250D01*
G75*
G02*
X48343750Y-61587500I218750J0D01*
G01*
X48856250Y-61587500D01*
G75*
G02*
X49075000Y-61806250I0J-218750D01*
G01*
X49075000Y-62243750D01*
G75*
G02*
X48856250Y-62462500I-218750J0D01*
G01*
G37*
G36*
G01*
X48856250Y-64037500D02*
X48343750Y-64037500D01*
G75*
G02*
X48125000Y-63818750I0J218750D01*
G01*
X48125000Y-63381250D01*
G75*
G02*
X48343750Y-63162500I218750J0D01*
G01*
X48856250Y-63162500D01*
G75*
G02*
X49075000Y-63381250I0J-218750D01*
G01*
X49075000Y-63818750D01*
G75*
G02*
X48856250Y-64037500I-218750J0D01*
G01*
G37*
%TD*%
%TO.C,R33*%
G36*
G01*
X42862500Y-61143750D02*
X42862500Y-61656250D01*
G75*
G02*
X42643750Y-61875000I-218750J0D01*
G01*
X42206250Y-61875000D01*
G75*
G02*
X41987500Y-61656250I0J218750D01*
G01*
X41987500Y-61143750D01*
G75*
G02*
X42206250Y-60925000I218750J0D01*
G01*
X42643750Y-60925000D01*
G75*
G02*
X42862500Y-61143750I0J-218750D01*
G01*
G37*
G36*
G01*
X44437500Y-61143750D02*
X44437500Y-61656250D01*
G75*
G02*
X44218750Y-61875000I-218750J0D01*
G01*
X43781250Y-61875000D01*
G75*
G02*
X43562500Y-61656250I0J218750D01*
G01*
X43562500Y-61143750D01*
G75*
G02*
X43781250Y-60925000I218750J0D01*
G01*
X44218750Y-60925000D01*
G75*
G02*
X44437500Y-61143750I0J-218750D01*
G01*
G37*
%TD*%
%TO.C,R27*%
G36*
G01*
X47256250Y-62462500D02*
X46743750Y-62462500D01*
G75*
G02*
X46525000Y-62243750I0J218750D01*
G01*
X46525000Y-61806250D01*
G75*
G02*
X46743750Y-61587500I218750J0D01*
G01*
X47256250Y-61587500D01*
G75*
G02*
X47475000Y-61806250I0J-218750D01*
G01*
X47475000Y-62243750D01*
G75*
G02*
X47256250Y-62462500I-218750J0D01*
G01*
G37*
G36*
G01*
X47256250Y-64037500D02*
X46743750Y-64037500D01*
G75*
G02*
X46525000Y-63818750I0J218750D01*
G01*
X46525000Y-63381250D01*
G75*
G02*
X46743750Y-63162500I218750J0D01*
G01*
X47256250Y-63162500D01*
G75*
G02*
X47475000Y-63381250I0J-218750D01*
G01*
X47475000Y-63818750D01*
G75*
G02*
X47256250Y-64037500I-218750J0D01*
G01*
G37*
%TD*%
%TO.C,R3*%
G36*
G01*
X86343750Y-51375000D02*
X86856250Y-51375000D01*
G75*
G02*
X87075000Y-51593750I0J-218750D01*
G01*
X87075000Y-52031250D01*
G75*
G02*
X86856250Y-52250000I-218750J0D01*
G01*
X86343750Y-52250000D01*
G75*
G02*
X86125000Y-52031250I0J218750D01*
G01*
X86125000Y-51593750D01*
G75*
G02*
X86343750Y-51375000I218750J0D01*
G01*
G37*
G36*
G01*
X86343750Y-52950000D02*
X86856250Y-52950000D01*
G75*
G02*
X87075000Y-53168750I0J-218750D01*
G01*
X87075000Y-53606250D01*
G75*
G02*
X86856250Y-53825000I-218750J0D01*
G01*
X86343750Y-53825000D01*
G75*
G02*
X86125000Y-53606250I0J218750D01*
G01*
X86125000Y-53168750D01*
G75*
G02*
X86343750Y-52950000I218750J0D01*
G01*
G37*
%TD*%
%TO.C,R2*%
G36*
G01*
X84612500Y-52106250D02*
X84612500Y-51593750D01*
G75*
G02*
X84831250Y-51375000I218750J0D01*
G01*
X85268750Y-51375000D01*
G75*
G02*
X85487500Y-51593750I0J-218750D01*
G01*
X85487500Y-52106250D01*
G75*
G02*
X85268750Y-52325000I-218750J0D01*
G01*
X84831250Y-52325000D01*
G75*
G02*
X84612500Y-52106250I0J218750D01*
G01*
G37*
G36*
G01*
X83037500Y-52106250D02*
X83037500Y-51593750D01*
G75*
G02*
X83256250Y-51375000I218750J0D01*
G01*
X83693750Y-51375000D01*
G75*
G02*
X83912500Y-51593750I0J-218750D01*
G01*
X83912500Y-52106250D01*
G75*
G02*
X83693750Y-52325000I-218750J0D01*
G01*
X83256250Y-52325000D01*
G75*
G02*
X83037500Y-52106250I0J218750D01*
G01*
G37*
%TD*%
%TO.C,R1*%
G36*
G01*
X83912500Y-53193750D02*
X83912500Y-53706250D01*
G75*
G02*
X83693750Y-53925000I-218750J0D01*
G01*
X83256250Y-53925000D01*
G75*
G02*
X83037500Y-53706250I0J218750D01*
G01*
X83037500Y-53193750D01*
G75*
G02*
X83256250Y-52975000I218750J0D01*
G01*
X83693750Y-52975000D01*
G75*
G02*
X83912500Y-53193750I0J-218750D01*
G01*
G37*
G36*
G01*
X85487500Y-53193750D02*
X85487500Y-53706250D01*
G75*
G02*
X85268750Y-53925000I-218750J0D01*
G01*
X84831250Y-53925000D01*
G75*
G02*
X84612500Y-53706250I0J218750D01*
G01*
X84612500Y-53193750D01*
G75*
G02*
X84831250Y-52975000I218750J0D01*
G01*
X85268750Y-52975000D01*
G75*
G02*
X85487500Y-53193750I0J-218750D01*
G01*
G37*
%TD*%
D19*
%TO.C,IC3*%
X62250000Y-26250000D03*
D20*
X60300000Y-23312000D03*
X60950000Y-23312000D03*
X61600000Y-23312000D03*
X62250000Y-23312000D03*
X62900000Y-23312000D03*
X63550000Y-23312000D03*
X64200000Y-23312000D03*
X64200000Y-29188000D03*
X63550000Y-29188000D03*
X62900000Y-29188000D03*
X62250000Y-29188000D03*
X61600000Y-29188000D03*
X60950000Y-29188000D03*
X60300000Y-29188000D03*
%TD*%
%TO.C,C16*%
G36*
G01*
X48062500Y-65506250D02*
X48062500Y-64993750D01*
G75*
G02*
X48281250Y-64775000I218750J0D01*
G01*
X48718750Y-64775000D01*
G75*
G02*
X48937500Y-64993750I0J-218750D01*
G01*
X48937500Y-65506250D01*
G75*
G02*
X48718750Y-65725000I-218750J0D01*
G01*
X48281250Y-65725000D01*
G75*
G02*
X48062500Y-65506250I0J218750D01*
G01*
G37*
G36*
G01*
X46487500Y-65506250D02*
X46487500Y-64993750D01*
G75*
G02*
X46706250Y-64775000I218750J0D01*
G01*
X47143750Y-64775000D01*
G75*
G02*
X47362500Y-64993750I0J-218750D01*
G01*
X47362500Y-65506250D01*
G75*
G02*
X47143750Y-65725000I-218750J0D01*
G01*
X46706250Y-65725000D01*
G75*
G02*
X46487500Y-65506250I0J218750D01*
G01*
G37*
%TD*%
%TO.C,C1*%
G36*
G01*
X37975000Y-43175000D02*
X39225000Y-43175000D01*
G75*
G02*
X39475000Y-43425000I0J-250000D01*
G01*
X39475000Y-44175000D01*
G75*
G02*
X39225000Y-44425000I-250000J0D01*
G01*
X37975000Y-44425000D01*
G75*
G02*
X37725000Y-44175000I0J250000D01*
G01*
X37725000Y-43425000D01*
G75*
G02*
X37975000Y-43175000I250000J0D01*
G01*
G37*
G36*
G01*
X37975000Y-40375000D02*
X39225000Y-40375000D01*
G75*
G02*
X39475000Y-40625000I0J-250000D01*
G01*
X39475000Y-41375000D01*
G75*
G02*
X39225000Y-41625000I-250000J0D01*
G01*
X37975000Y-41625000D01*
G75*
G02*
X37725000Y-41375000I0J250000D01*
G01*
X37725000Y-40625000D01*
G75*
G02*
X37975000Y-40375000I250000J0D01*
G01*
G37*
%TD*%
%TO.C,C3*%
G36*
G01*
X88486250Y-45450000D02*
X87973750Y-45450000D01*
G75*
G02*
X87755000Y-45231250I0J218750D01*
G01*
X87755000Y-44793750D01*
G75*
G02*
X87973750Y-44575000I218750J0D01*
G01*
X88486250Y-44575000D01*
G75*
G02*
X88705000Y-44793750I0J-218750D01*
G01*
X88705000Y-45231250D01*
G75*
G02*
X88486250Y-45450000I-218750J0D01*
G01*
G37*
G36*
G01*
X88486250Y-47025000D02*
X87973750Y-47025000D01*
G75*
G02*
X87755000Y-46806250I0J218750D01*
G01*
X87755000Y-46368750D01*
G75*
G02*
X87973750Y-46150000I218750J0D01*
G01*
X88486250Y-46150000D01*
G75*
G02*
X88705000Y-46368750I0J-218750D01*
G01*
X88705000Y-46806250D01*
G75*
G02*
X88486250Y-47025000I-218750J0D01*
G01*
G37*
%TD*%
%TO.C,C2*%
G36*
G01*
X86675000Y-41725000D02*
X86675000Y-40475000D01*
G75*
G02*
X86925000Y-40225000I250000J0D01*
G01*
X87675000Y-40225000D01*
G75*
G02*
X87925000Y-40475000I0J-250000D01*
G01*
X87925000Y-41725000D01*
G75*
G02*
X87675000Y-41975000I-250000J0D01*
G01*
X86925000Y-41975000D01*
G75*
G02*
X86675000Y-41725000I0J250000D01*
G01*
G37*
G36*
G01*
X83875000Y-41725000D02*
X83875000Y-40475000D01*
G75*
G02*
X84125000Y-40225000I250000J0D01*
G01*
X84875000Y-40225000D01*
G75*
G02*
X85125000Y-40475000I0J-250000D01*
G01*
X85125000Y-41725000D01*
G75*
G02*
X84875000Y-41975000I-250000J0D01*
G01*
X84125000Y-41975000D01*
G75*
G02*
X83875000Y-41725000I0J250000D01*
G01*
G37*
%TD*%
%TO.C,R30*%
G36*
G01*
X44825000Y-80425001D02*
X44825000Y-77574999D01*
G75*
G02*
X45074999Y-77325000I249999J0D01*
G01*
X45925001Y-77325000D01*
G75*
G02*
X46175000Y-77574999I0J-249999D01*
G01*
X46175000Y-80425001D01*
G75*
G02*
X45925001Y-80675000I-249999J0D01*
G01*
X45074999Y-80675000D01*
G75*
G02*
X44825000Y-80425001I0J249999D01*
G01*
G37*
G36*
G01*
X39025000Y-80425001D02*
X39025000Y-77574999D01*
G75*
G02*
X39274999Y-77325000I249999J0D01*
G01*
X40125001Y-77325000D01*
G75*
G02*
X40375000Y-77574999I0J-249999D01*
G01*
X40375000Y-80425001D01*
G75*
G02*
X40125001Y-80675000I-249999J0D01*
G01*
X39274999Y-80675000D01*
G75*
G02*
X39025000Y-80425001I0J249999D01*
G01*
G37*
%TD*%
%TO.C,R25*%
G36*
G01*
X83256250Y-62862500D02*
X82743750Y-62862500D01*
G75*
G02*
X82525000Y-62643750I0J218750D01*
G01*
X82525000Y-62206250D01*
G75*
G02*
X82743750Y-61987500I218750J0D01*
G01*
X83256250Y-61987500D01*
G75*
G02*
X83475000Y-62206250I0J-218750D01*
G01*
X83475000Y-62643750D01*
G75*
G02*
X83256250Y-62862500I-218750J0D01*
G01*
G37*
G36*
G01*
X83256250Y-64437500D02*
X82743750Y-64437500D01*
G75*
G02*
X82525000Y-64218750I0J218750D01*
G01*
X82525000Y-63781250D01*
G75*
G02*
X82743750Y-63562500I218750J0D01*
G01*
X83256250Y-63562500D01*
G75*
G02*
X83475000Y-63781250I0J-218750D01*
G01*
X83475000Y-64218750D01*
G75*
G02*
X83256250Y-64437500I-218750J0D01*
G01*
G37*
%TD*%
%TO.C,R32*%
G36*
G01*
X78862500Y-59943750D02*
X78862500Y-60456250D01*
G75*
G02*
X78643750Y-60675000I-218750J0D01*
G01*
X78206250Y-60675000D01*
G75*
G02*
X77987500Y-60456250I0J218750D01*
G01*
X77987500Y-59943750D01*
G75*
G02*
X78206250Y-59725000I218750J0D01*
G01*
X78643750Y-59725000D01*
G75*
G02*
X78862500Y-59943750I0J-218750D01*
G01*
G37*
G36*
G01*
X80437500Y-59943750D02*
X80437500Y-60456250D01*
G75*
G02*
X80218750Y-60675000I-218750J0D01*
G01*
X79781250Y-60675000D01*
G75*
G02*
X79562500Y-60456250I0J218750D01*
G01*
X79562500Y-59943750D01*
G75*
G02*
X79781250Y-59725000I218750J0D01*
G01*
X80218750Y-59725000D01*
G75*
G02*
X80437500Y-59943750I0J-218750D01*
G01*
G37*
%TD*%
%TO.C,R26*%
G36*
G01*
X84856250Y-62850000D02*
X84343750Y-62850000D01*
G75*
G02*
X84125000Y-62631250I0J218750D01*
G01*
X84125000Y-62193750D01*
G75*
G02*
X84343750Y-61975000I218750J0D01*
G01*
X84856250Y-61975000D01*
G75*
G02*
X85075000Y-62193750I0J-218750D01*
G01*
X85075000Y-62631250D01*
G75*
G02*
X84856250Y-62850000I-218750J0D01*
G01*
G37*
G36*
G01*
X84856250Y-64425000D02*
X84343750Y-64425000D01*
G75*
G02*
X84125000Y-64206250I0J218750D01*
G01*
X84125000Y-63768750D01*
G75*
G02*
X84343750Y-63550000I218750J0D01*
G01*
X84856250Y-63550000D01*
G75*
G02*
X85075000Y-63768750I0J-218750D01*
G01*
X85075000Y-64206250D01*
G75*
G02*
X84856250Y-64425000I-218750J0D01*
G01*
G37*
%TD*%
%TO.C,R4*%
G36*
G01*
X32162500Y-64156250D02*
X32162500Y-63643750D01*
G75*
G02*
X32381250Y-63425000I218750J0D01*
G01*
X32818750Y-63425000D01*
G75*
G02*
X33037500Y-63643750I0J-218750D01*
G01*
X33037500Y-64156250D01*
G75*
G02*
X32818750Y-64375000I-218750J0D01*
G01*
X32381250Y-64375000D01*
G75*
G02*
X32162500Y-64156250I0J218750D01*
G01*
G37*
G36*
G01*
X30587500Y-64156250D02*
X30587500Y-63643750D01*
G75*
G02*
X30806250Y-63425000I218750J0D01*
G01*
X31243750Y-63425000D01*
G75*
G02*
X31462500Y-63643750I0J-218750D01*
G01*
X31462500Y-64156250D01*
G75*
G02*
X31243750Y-64375000I-218750J0D01*
G01*
X30806250Y-64375000D01*
G75*
G02*
X30587500Y-64156250I0J218750D01*
G01*
G37*
%TD*%
D18*
%TO.C,U2*%
X79120000Y-63400000D03*
X79770000Y-63400000D03*
X80430000Y-63400000D03*
X81080000Y-63400000D03*
X81080000Y-65600000D03*
X80430000Y-65600000D03*
X79770000Y-65600000D03*
X79120000Y-65600000D03*
%TD*%
%TO.C,R5*%
G36*
G01*
X37843750Y-63262500D02*
X38356250Y-63262500D01*
G75*
G02*
X38575000Y-63481250I0J-218750D01*
G01*
X38575000Y-63918750D01*
G75*
G02*
X38356250Y-64137500I-218750J0D01*
G01*
X37843750Y-64137500D01*
G75*
G02*
X37625000Y-63918750I0J218750D01*
G01*
X37625000Y-63481250D01*
G75*
G02*
X37843750Y-63262500I218750J0D01*
G01*
G37*
G36*
G01*
X37843750Y-61687500D02*
X38356250Y-61687500D01*
G75*
G02*
X38575000Y-61906250I0J-218750D01*
G01*
X38575000Y-62343750D01*
G75*
G02*
X38356250Y-62562500I-218750J0D01*
G01*
X37843750Y-62562500D01*
G75*
G02*
X37625000Y-62343750I0J218750D01*
G01*
X37625000Y-61906250D01*
G75*
G02*
X37843750Y-61687500I218750J0D01*
G01*
G37*
%TD*%
%TO.C,R31*%
G36*
G01*
X78862500Y-61543750D02*
X78862500Y-62056250D01*
G75*
G02*
X78643750Y-62275000I-218750J0D01*
G01*
X78206250Y-62275000D01*
G75*
G02*
X77987500Y-62056250I0J218750D01*
G01*
X77987500Y-61543750D01*
G75*
G02*
X78206250Y-61325000I218750J0D01*
G01*
X78643750Y-61325000D01*
G75*
G02*
X78862500Y-61543750I0J-218750D01*
G01*
G37*
G36*
G01*
X80437500Y-61543750D02*
X80437500Y-62056250D01*
G75*
G02*
X80218750Y-62275000I-218750J0D01*
G01*
X79781250Y-62275000D01*
G75*
G02*
X79562500Y-62056250I0J218750D01*
G01*
X79562500Y-61543750D01*
G75*
G02*
X79781250Y-61325000I218750J0D01*
G01*
X80218750Y-61325000D01*
G75*
G02*
X80437500Y-61543750I0J-218750D01*
G01*
G37*
%TD*%
%TO.C,C15*%
G36*
G01*
X84162500Y-65856250D02*
X84162500Y-65343750D01*
G75*
G02*
X84381250Y-65125000I218750J0D01*
G01*
X84818750Y-65125000D01*
G75*
G02*
X85037500Y-65343750I0J-218750D01*
G01*
X85037500Y-65856250D01*
G75*
G02*
X84818750Y-66075000I-218750J0D01*
G01*
X84381250Y-66075000D01*
G75*
G02*
X84162500Y-65856250I0J218750D01*
G01*
G37*
G36*
G01*
X82587500Y-65856250D02*
X82587500Y-65343750D01*
G75*
G02*
X82806250Y-65125000I218750J0D01*
G01*
X83243750Y-65125000D01*
G75*
G02*
X83462500Y-65343750I0J-218750D01*
G01*
X83462500Y-65856250D01*
G75*
G02*
X83243750Y-66075000I-218750J0D01*
G01*
X82806250Y-66075000D01*
G75*
G02*
X82587500Y-65856250I0J218750D01*
G01*
G37*
%TD*%
M02*
