%TF.GenerationSoftware,KiCad,Pcbnew,5.99.0-unknown-6296b4e~102~ubuntu18.04.1*%
%TF.CreationDate,2020-07-17T11:30:15-05:00*%
%TF.ProjectId,FlatAnt4x4,466c6174-416e-4743-9478-342e6b696361,rev?*%
%TF.SameCoordinates,Original*%
%TF.FileFunction,Copper,L2,Bot*%
%TF.FilePolarity,Positive*%
%FSLAX46Y46*%
G04 Gerber Fmt 4.6, Leading zero omitted, Abs format (unit mm)*
G04 Created by KiCad (PCBNEW 5.99.0-unknown-6296b4e~102~ubuntu18.04.1) date 2020-07-17 11:30:15*
%MOMM*%
%LPD*%
G01*
G04 APERTURE LIST*
%TA.AperFunction,EtchedComponent*%
%ADD10C,0.000100*%
%TD*%
%TA.AperFunction,EtchedComponent*%
%ADD11C,5.000000*%
%TD*%
%TA.AperFunction,SMDPad,CuDef*%
%ADD12C,2.000000*%
%TD*%
G04 APERTURE END LIST*
%TO.C,REF\u002A\u002A*%
G36*
X46177491Y-121822509D02*
G01*
X39106423Y-128893577D01*
X31328249Y-121115402D01*
X38399316Y-114044334D01*
X46177491Y-121822509D01*
G37*
D10*
X46177491Y-121822509D02*
X39106423Y-128893577D01*
X31328249Y-121115402D01*
X38399316Y-114044334D01*
X46177491Y-121822509D01*
G36*
X53955666Y-129600684D02*
G01*
X46884598Y-136671751D01*
X39106423Y-128893577D01*
X46177491Y-121822509D01*
X53955666Y-129600684D01*
G37*
X53955666Y-129600684D02*
X46884598Y-136671751D01*
X39106423Y-128893577D01*
X46177491Y-121822509D01*
X53955666Y-129600684D01*
G36*
X30833274Y-137590990D02*
G01*
X29419060Y-139005204D01*
X21570175Y-131156319D01*
X22984389Y-129742105D01*
X30833274Y-137590990D01*
G37*
X30833274Y-137590990D02*
X29419060Y-139005204D01*
X21570175Y-131156319D01*
X22984389Y-129742105D01*
X30833274Y-137590990D01*
D11*
X47970384Y-122529616D02*
G75*
G03*
X47970384Y-122529616I-2500000J0D01*
G01*
G36*
X42731270Y-132523306D02*
G01*
X39160381Y-131816199D01*
X36997535Y-132510087D01*
X29296241Y-138887267D01*
X35600999Y-131113551D01*
X36331954Y-128987772D01*
X35660202Y-125452238D01*
X42731270Y-132523306D01*
G37*
D10*
X42731270Y-132523306D02*
X39160381Y-131816199D01*
X36997535Y-132510087D01*
X29296241Y-138887267D01*
X35600999Y-131113551D01*
X36331954Y-128987772D01*
X35660202Y-125452238D01*
X42731270Y-132523306D01*
G36*
X53955666Y-38399316D02*
G01*
X46177491Y-46177491D01*
X39106423Y-39106423D01*
X46884598Y-31328249D01*
X53955666Y-38399316D01*
G37*
X53955666Y-38399316D02*
X46177491Y-46177491D01*
X39106423Y-39106423D01*
X46884598Y-31328249D01*
X53955666Y-38399316D01*
G36*
X46177491Y-46177491D02*
G01*
X38399316Y-53955666D01*
X31328249Y-46884598D01*
X39106423Y-39106423D01*
X46177491Y-46177491D01*
G37*
X46177491Y-46177491D02*
X38399316Y-53955666D01*
X31328249Y-46884598D01*
X39106423Y-39106423D01*
X46177491Y-46177491D01*
G36*
X30833274Y-30409010D02*
G01*
X22984389Y-38257895D01*
X21570175Y-36843681D01*
X29419060Y-28994796D01*
X30833274Y-30409010D01*
G37*
X30833274Y-30409010D02*
X22984389Y-38257895D01*
X21570175Y-36843681D01*
X29419060Y-28994796D01*
X30833274Y-30409010D01*
D11*
X47970384Y-45470384D02*
G75*
G03*
X47970384Y-45470384I-2500000J0D01*
G01*
G36*
X36997535Y-35489913D02*
G01*
X39160381Y-36183801D01*
X42731270Y-35476694D01*
X35660202Y-42547762D01*
X36331954Y-39012228D01*
X35600999Y-36886449D01*
X29296241Y-29112733D01*
X36997535Y-35489913D01*
G37*
D10*
X36997535Y-35489913D02*
X39160381Y-36183801D01*
X42731270Y-35476694D01*
X35660202Y-42547762D01*
X36331954Y-39012228D01*
X35600999Y-36886449D01*
X29296241Y-29112733D01*
X36997535Y-35489913D01*
G36*
X136671751Y-46884598D02*
G01*
X129600684Y-53955666D01*
X121822509Y-46177491D01*
X128893577Y-39106423D01*
X136671751Y-46884598D01*
G37*
X136671751Y-46884598D02*
X129600684Y-53955666D01*
X121822509Y-46177491D01*
X128893577Y-39106423D01*
X136671751Y-46884598D01*
G36*
X128893577Y-39106423D02*
G01*
X121822509Y-46177491D01*
X114044334Y-38399316D01*
X121115402Y-31328249D01*
X128893577Y-39106423D01*
G37*
X128893577Y-39106423D02*
X121822509Y-46177491D01*
X114044334Y-38399316D01*
X121115402Y-31328249D01*
X128893577Y-39106423D01*
G36*
X146429825Y-36843681D02*
G01*
X145015611Y-38257895D01*
X137166726Y-30409010D01*
X138580940Y-28994796D01*
X146429825Y-36843681D01*
G37*
X146429825Y-36843681D02*
X145015611Y-38257895D01*
X137166726Y-30409010D01*
X138580940Y-28994796D01*
X146429825Y-36843681D01*
D11*
X125029616Y-45470384D02*
G75*
G03*
X125029616Y-45470384I-2500000J0D01*
G01*
G36*
X132399001Y-36886449D02*
G01*
X131668046Y-39012228D01*
X132339798Y-42547762D01*
X125268730Y-35476694D01*
X128839619Y-36183801D01*
X131002465Y-35489913D01*
X138703759Y-29112733D01*
X132399001Y-36886449D01*
G37*
D10*
X132399001Y-36886449D02*
X131668046Y-39012228D01*
X132339798Y-42547762D01*
X125268730Y-35476694D01*
X128839619Y-36183801D01*
X131002465Y-35489913D01*
X138703759Y-29112733D01*
X132399001Y-36886449D01*
G36*
X130600000Y-82570410D02*
G01*
X132600000Y-83570410D01*
X151600000Y-84587134D01*
X132600000Y-85570410D01*
X130600000Y-86570410D01*
X128600000Y-89587134D01*
X128600000Y-79600000D01*
X130600000Y-82570410D01*
G37*
X130600000Y-82570410D02*
X132600000Y-83570410D01*
X151600000Y-84587134D01*
X132600000Y-85570410D01*
X130600000Y-86570410D01*
X128600000Y-89587134D01*
X128600000Y-79600000D01*
X130600000Y-82570410D01*
D11*
X122100000Y-84000000D02*
G75*
G03*
X122100000Y-84000000I-2500000J0D01*
G01*
G36*
X153600000Y-84800000D02*
G01*
X147600000Y-84800000D01*
X147600000Y-58700000D01*
X153600000Y-58700000D01*
X153600000Y-84800000D01*
G37*
D10*
X153600000Y-84800000D02*
X147600000Y-84800000D01*
X147600000Y-58700000D01*
X153600000Y-58700000D01*
X153600000Y-84800000D01*
G36*
X128600000Y-84000000D02*
G01*
X118600000Y-84000000D01*
X118600000Y-59500000D01*
X128600000Y-59500000D01*
X128600000Y-84000000D01*
G37*
X128600000Y-84000000D02*
X118600000Y-84000000D01*
X118600000Y-59500000D01*
X128600000Y-59500000D01*
X128600000Y-84000000D01*
G36*
X128600000Y-108500000D02*
G01*
X118600000Y-108500000D01*
X118600000Y-84000000D01*
X128600000Y-84000000D01*
X128600000Y-108500000D01*
G37*
X128600000Y-108500000D02*
X118600000Y-108500000D01*
X118600000Y-84000000D01*
X128600000Y-84000000D01*
X128600000Y-108500000D01*
G36*
X84429590Y-35450000D02*
G01*
X85429590Y-37450000D01*
X88400000Y-39450000D01*
X78412866Y-39450000D01*
X81429590Y-37450000D01*
X82429590Y-35450000D01*
X83412866Y-16450000D01*
X84429590Y-35450000D01*
G37*
X84429590Y-35450000D02*
X85429590Y-37450000D01*
X88400000Y-39450000D01*
X78412866Y-39450000D01*
X81429590Y-37450000D01*
X82429590Y-35450000D01*
X83412866Y-16450000D01*
X84429590Y-35450000D01*
D11*
X86500000Y-48450000D02*
G75*
G03*
X86500000Y-48450000I-2500000J0D01*
G01*
G36*
X109300000Y-20450000D02*
G01*
X83200000Y-20450000D01*
X83200000Y-14450000D01*
X109300000Y-14450000D01*
X109300000Y-20450000D01*
G37*
D10*
X109300000Y-20450000D02*
X83200000Y-20450000D01*
X83200000Y-14450000D01*
X109300000Y-14450000D01*
X109300000Y-20450000D01*
G36*
X84000000Y-49450000D02*
G01*
X59500000Y-49450000D01*
X59500000Y-39450000D01*
X84000000Y-39450000D01*
X84000000Y-49450000D01*
G37*
X84000000Y-49450000D02*
X59500000Y-49450000D01*
X59500000Y-39450000D01*
X84000000Y-39450000D01*
X84000000Y-49450000D01*
G36*
X108500000Y-49450000D02*
G01*
X84000000Y-49450000D01*
X84000000Y-39450000D01*
X108500000Y-39450000D01*
X108500000Y-49450000D01*
G37*
X108500000Y-49450000D02*
X84000000Y-49450000D01*
X84000000Y-39450000D01*
X108500000Y-39450000D01*
X108500000Y-49450000D01*
G36*
X128893577Y-128893577D02*
G01*
X121115402Y-136671751D01*
X114044334Y-129600684D01*
X121822509Y-121822509D01*
X128893577Y-128893577D01*
G37*
X128893577Y-128893577D02*
X121115402Y-136671751D01*
X114044334Y-129600684D01*
X121822509Y-121822509D01*
X128893577Y-128893577D01*
G36*
X136671751Y-121115402D02*
G01*
X128893577Y-128893577D01*
X121822509Y-121822509D01*
X129600684Y-114044334D01*
X136671751Y-121115402D01*
G37*
X136671751Y-121115402D02*
X128893577Y-128893577D01*
X121822509Y-121822509D01*
X129600684Y-114044334D01*
X136671751Y-121115402D01*
G36*
X146429825Y-131156319D02*
G01*
X138580940Y-139005204D01*
X137166726Y-137590990D01*
X145015611Y-129742105D01*
X146429825Y-131156319D01*
G37*
X146429825Y-131156319D02*
X138580940Y-139005204D01*
X137166726Y-137590990D01*
X145015611Y-129742105D01*
X146429825Y-131156319D01*
D11*
X125029616Y-122529616D02*
G75*
G03*
X125029616Y-122529616I-2500000J0D01*
G01*
G36*
X131668046Y-128987772D02*
G01*
X132399001Y-131113551D01*
X138703759Y-138887267D01*
X131002465Y-132510087D01*
X128839619Y-131816199D01*
X125268730Y-132523306D01*
X132339798Y-125452238D01*
X131668046Y-128987772D01*
G37*
D10*
X131668046Y-128987772D02*
X132399001Y-131113551D01*
X138703759Y-138887267D01*
X131002465Y-132510087D01*
X128839619Y-131816199D01*
X125268730Y-132523306D01*
X132339798Y-125452238D01*
X131668046Y-128987772D01*
G36*
X39400000Y-88400000D02*
G01*
X37400000Y-85429590D01*
X35400000Y-84429590D01*
X16400000Y-83412866D01*
X35400000Y-82429590D01*
X37400000Y-81429590D01*
X39400000Y-78412866D01*
X39400000Y-88400000D01*
G37*
X39400000Y-88400000D02*
X37400000Y-85429590D01*
X35400000Y-84429590D01*
X16400000Y-83412866D01*
X35400000Y-82429590D01*
X37400000Y-81429590D01*
X39400000Y-78412866D01*
X39400000Y-88400000D01*
D11*
X50900000Y-84000000D02*
G75*
G03*
X50900000Y-84000000I-2500000J0D01*
G01*
G36*
X20400000Y-109300000D02*
G01*
X14400000Y-109300000D01*
X14400000Y-83200000D01*
X20400000Y-83200000D01*
X20400000Y-109300000D01*
G37*
D10*
X20400000Y-109300000D02*
X14400000Y-109300000D01*
X14400000Y-83200000D01*
X20400000Y-83200000D01*
X20400000Y-109300000D01*
G36*
X49400000Y-108500000D02*
G01*
X39400000Y-108500000D01*
X39400000Y-84000000D01*
X49400000Y-84000000D01*
X49400000Y-108500000D01*
G37*
X49400000Y-108500000D02*
X39400000Y-108500000D01*
X39400000Y-84000000D01*
X49400000Y-84000000D01*
X49400000Y-108500000D01*
G36*
X49400000Y-84000000D02*
G01*
X39400000Y-84000000D01*
X39400000Y-59500000D01*
X49400000Y-59500000D01*
X49400000Y-84000000D01*
G37*
X49400000Y-84000000D02*
X39400000Y-84000000D01*
X39400000Y-59500000D01*
X49400000Y-59500000D01*
X49400000Y-84000000D01*
G36*
X86570410Y-130600000D02*
G01*
X85570410Y-132600000D01*
X84587134Y-151600000D01*
X83570410Y-132600000D01*
X82570410Y-130600000D01*
X79600000Y-128600000D01*
X89587134Y-128600000D01*
X86570410Y-130600000D01*
G37*
X86570410Y-130600000D02*
X85570410Y-132600000D01*
X84587134Y-151600000D01*
X83570410Y-132600000D01*
X82570410Y-130600000D01*
X79600000Y-128600000D01*
X89587134Y-128600000D01*
X86570410Y-130600000D01*
D11*
X86500000Y-119600000D02*
G75*
G03*
X86500000Y-119600000I-2500000J0D01*
G01*
G36*
X84800000Y-153600000D02*
G01*
X58700000Y-153600000D01*
X58700000Y-147600000D01*
X84800000Y-147600000D01*
X84800000Y-153600000D01*
G37*
D10*
X84800000Y-153600000D02*
X58700000Y-153600000D01*
X58700000Y-147600000D01*
X84800000Y-147600000D01*
X84800000Y-153600000D01*
G36*
X108500000Y-128600000D02*
G01*
X84000000Y-128600000D01*
X84000000Y-118600000D01*
X108500000Y-118600000D01*
X108500000Y-128600000D01*
G37*
X108500000Y-128600000D02*
X84000000Y-128600000D01*
X84000000Y-118600000D01*
X108500000Y-118600000D01*
X108500000Y-128600000D01*
G36*
X84000000Y-128600000D02*
G01*
X59500000Y-128600000D01*
X59500000Y-118600000D01*
X84000000Y-118600000D01*
X84000000Y-128600000D01*
G37*
X84000000Y-128600000D02*
X59500000Y-128600000D01*
X59500000Y-118600000D01*
X84000000Y-118600000D01*
X84000000Y-128600000D01*
%TD*%
D12*
%TO.P,REF\u002A\u002A,2*%
%TO.N,N/C*%
X44162237Y-121292179D03*
%TD*%
%TO.P,REF\u002A\u002A,2*%
%TO.N,N/C*%
X46707821Y-44162237D03*
%TD*%
%TO.P,REF\u002A\u002A,2*%
%TO.N,N/C*%
X123837763Y-46707821D03*
%TD*%
%TO.P,REF\u002A\u002A,2*%
%TO.N,N/C*%
X119650000Y-85800000D03*
%TD*%
%TO.P,REF\u002A\u002A,2*%
%TO.N,N/C*%
X85800000Y-48400000D03*
%TD*%
%TO.P,REF\u002A\u002A,2*%
%TO.N,N/C*%
X121292179Y-123837763D03*
%TD*%
%TO.P,REF\u002A\u002A,2*%
%TO.N,N/C*%
X48350000Y-82200000D03*
%TD*%
%TO.P,REF\u002A\u002A,2*%
%TO.N,N/C*%
X82200000Y-119650000D03*
%TD*%
M02*
