%TF.GenerationSoftware,KiCad,Pcbnew,5.99.0-unknown-0a0935e0f3~125~ubuntu20.04.1*%
%TF.CreationDate,2021-03-31T20:14:15-05:00*%
%TF.ProjectId,Feeds,46656564-732e-46b6-9963-61645f706362,rev?*%
%TF.SameCoordinates,Original*%
%TF.FileFunction,Soldermask,Bot*%
%TF.FilePolarity,Negative*%
%FSLAX46Y46*%
G04 Gerber Fmt 4.6, Leading zero omitted, Abs format (unit mm)*
G04 Created by KiCad (PCBNEW 5.99.0-unknown-0a0935e0f3~125~ubuntu20.04.1) date 2021-03-31 20:14:15*
%MOMM*%
%LPD*%
G01*
G04 APERTURE LIST*
%ADD10C,0.000100*%
%ADD11C,1.565000*%
%ADD12C,5.000000*%
%ADD13C,2.900000*%
G04 APERTURE END LIST*
D10*
%TO.C,Feed2*%
X149518296Y-91063535D02*
X149518296Y-92627646D01*
X149518296Y-92627646D02*
X151517585Y-92627645D01*
X151517585Y-92627645D02*
X151517585Y-91063535D01*
X151517585Y-91063535D02*
X149518296Y-91063535D01*
G36*
X151517585Y-92627645D02*
G01*
X149518296Y-92627646D01*
X149518296Y-91063535D01*
X151517585Y-91063535D01*
X151517585Y-92627645D01*
G37*
X151517585Y-92627645D02*
X149518296Y-92627646D01*
X149518296Y-91063535D01*
X151517585Y-91063535D01*
X151517585Y-92627645D01*
%TO.C,Feed3*%
X149533296Y-134471485D02*
X149533296Y-136035596D01*
X149533296Y-136035596D02*
X151532585Y-136035595D01*
X151532585Y-136035595D02*
X151532585Y-134471485D01*
X151532585Y-134471485D02*
X149533296Y-134471485D01*
G36*
X151532585Y-136035595D02*
G01*
X149533296Y-136035596D01*
X149533296Y-134471485D01*
X151532585Y-134471485D01*
X151532585Y-136035595D01*
G37*
X151532585Y-136035595D02*
X149533296Y-136035596D01*
X149533296Y-134471485D01*
X151532585Y-134471485D01*
X151532585Y-136035595D01*
%TO.C,Feed1*%
X71513704Y-92628515D02*
X71513704Y-91064404D01*
X71513704Y-91064404D02*
X69514415Y-91064405D01*
X69514415Y-91064405D02*
X69514415Y-92628515D01*
X69514415Y-92628515D02*
X71513704Y-92628515D01*
G36*
X71513704Y-92628515D02*
G01*
X69514415Y-92628515D01*
X69514415Y-91064405D01*
X71513704Y-91064404D01*
X71513704Y-92628515D01*
G37*
X71513704Y-92628515D02*
X69514415Y-92628515D01*
X69514415Y-91064405D01*
X71513704Y-91064404D01*
X71513704Y-92628515D01*
%TO.C,Feed4*%
X71528704Y-136036465D02*
X71528704Y-134472354D01*
X71528704Y-134472354D02*
X69529415Y-134472355D01*
X69529415Y-134472355D02*
X69529415Y-136036465D01*
X69529415Y-136036465D02*
X71528704Y-136036465D01*
G36*
X71528704Y-136036465D02*
G01*
X69529415Y-136036465D01*
X69529415Y-134472355D01*
X71528704Y-134472354D01*
X71528704Y-136036465D01*
G37*
X71528704Y-136036465D02*
X69529415Y-136036465D01*
X69529415Y-134472355D01*
X71528704Y-134472354D01*
X71528704Y-136036465D01*
%TD*%
D11*
%TO.C,Feed2*%
X150516000Y-91846025D03*
%TD*%
%TO.C,Feed3*%
X150531000Y-135253975D03*
%TD*%
%TO.C,Feed1*%
X70516000Y-91846025D03*
%TD*%
%TO.C,Feed4*%
X70531000Y-135253975D03*
%TD*%
D12*
%TO.C,H10*%
X93000000Y-5000000D03*
D13*
X93000000Y-5000000D03*
%TD*%
%TO.C,H12*%
X170000000Y-113000000D03*
D12*
X170000000Y-113000000D03*
%TD*%
%TO.C,H12*%
X93000000Y-113000000D03*
D13*
X93000000Y-113000000D03*
%TD*%
D12*
%TO.C,H4*%
X174000000Y-208000000D03*
D13*
X174000000Y-208000000D03*
%TD*%
D12*
%TO.C,H9*%
X93000000Y-221000000D03*
D13*
X93000000Y-221000000D03*
%TD*%
D12*
%TO.C,H2*%
X174000000Y-18000000D03*
D13*
X174000000Y-18000000D03*
%TD*%
D12*
%TO.C,H3*%
X12000000Y-208000000D03*
D13*
X12000000Y-208000000D03*
%TD*%
%TO.C,H1*%
X12000000Y-18000000D03*
D12*
X12000000Y-18000000D03*
%TD*%
%TO.C,H11*%
X16000000Y-113000000D03*
D13*
X16000000Y-113000000D03*
%TD*%
M02*
