%TF.GenerationSoftware,KiCad,Pcbnew,5.99.0-unknown-4b436fa57~104~ubuntu20.04.1*%
%TF.CreationDate,2020-10-20T16:16:34-05:00*%
%TF.ProjectId,AP2100,41503231-3030-42e6-9b69-6361645f7063,rev?*%
%TF.SameCoordinates,Original*%
%TF.FileFunction,Paste,Bot*%
%TF.FilePolarity,Positive*%
%FSLAX46Y46*%
G04 Gerber Fmt 4.6, Leading zero omitted, Abs format (unit mm)*
G04 Created by KiCad (PCBNEW 5.99.0-unknown-4b436fa57~104~ubuntu20.04.1) date 2020-10-20 16:16:34*
%MOMM*%
%LPD*%
G01*
G04 APERTURE LIST*
G04 Aperture macros list*
%AMRoundRect*
0 Rectangle with rounded corners*
0 $1 Rounding radius*
0 $2 $3 $4 $5 $6 $7 $8 $9 X,Y pos of 4 corners*
0 Add a 4 corners polygon primitive as box body*
4,1,4,$2,$3,$4,$5,$6,$7,$8,$9,$2,$3,0*
0 Add four circle primitives for the rounded corners*
1,1,$1+$1,$2,$3,0*
1,1,$1+$1,$4,$5,0*
1,1,$1+$1,$6,$7,0*
1,1,$1+$1,$8,$9,0*
0 Add four rect primitives between the rounded corners*
20,1,$1+$1,$2,$3,$4,$5,0*
20,1,$1+$1,$4,$5,$6,$7,0*
20,1,$1+$1,$6,$7,$8,$9,0*
20,1,$1+$1,$8,$9,$2,$3,0*%
G04 Aperture macros list end*
%ADD10RoundRect,0.200000X-0.275000X0.200000X-0.275000X-0.200000X0.275000X-0.200000X0.275000X0.200000X0*%
%ADD11RoundRect,0.140000X-0.170000X0.140000X-0.170000X-0.140000X0.170000X-0.140000X0.170000X0.140000X0*%
%ADD12R,0.800000X0.900000*%
%ADD13RoundRect,0.250000X-0.475000X0.250000X-0.475000X-0.250000X0.475000X-0.250000X0.475000X0.250000X0*%
%ADD14RoundRect,0.249999X0.450001X1.450001X-0.450001X1.450001X-0.450001X-1.450001X0.450001X-1.450001X0*%
%ADD15RoundRect,0.225000X-0.250000X0.225000X-0.250000X-0.225000X0.250000X-0.225000X0.250000X0.225000X0*%
%ADD16RoundRect,0.200000X0.200000X0.275000X-0.200000X0.275000X-0.200000X-0.275000X0.200000X-0.275000X0*%
%ADD17RoundRect,0.225000X0.250000X-0.225000X0.250000X0.225000X-0.250000X0.225000X-0.250000X-0.225000X0*%
%ADD18R,0.450000X0.600000*%
%ADD19RoundRect,0.250000X-0.250000X-0.475000X0.250000X-0.475000X0.250000X0.475000X-0.250000X0.475000X0*%
%ADD20R,1.270000X5.080000*%
%ADD21RoundRect,0.250000X-0.450000X0.262500X-0.450000X-0.262500X0.450000X-0.262500X0.450000X0.262500X0*%
%ADD22RoundRect,0.250000X-0.362500X-1.075000X0.362500X-1.075000X0.362500X1.075000X-0.362500X1.075000X0*%
%ADD23RoundRect,0.250000X0.475000X-0.250000X0.475000X0.250000X-0.475000X0.250000X-0.475000X-0.250000X0*%
%ADD24R,1.000000X0.350000*%
%ADD25R,0.350000X1.000000*%
%ADD26R,2.250000X2.250000*%
G04 APERTURE END LIST*
D10*
%TO.C,R40*%
X32461200Y-57239400D03*
X32461200Y-58889400D03*
%TD*%
D11*
%TO.C,C82*%
X63152200Y-144515153D03*
X63152200Y-145475153D03*
%TD*%
D12*
%TO.C,D16*%
X38095000Y-69596000D03*
X36195000Y-69596000D03*
X37145000Y-67596000D03*
%TD*%
D13*
%TO.C,C110*%
X37050999Y-64140001D03*
X37050999Y-66040001D03*
%TD*%
D10*
%TO.C,R31*%
X37896800Y-57227200D03*
X37896800Y-58877200D03*
%TD*%
D14*
%TO.C,C103*%
X25182000Y-154051000D03*
X21082000Y-154051000D03*
%TD*%
D15*
%TO.C,C119*%
X32690385Y-80275800D03*
X32690385Y-81825800D03*
%TD*%
D10*
%TO.C,R28*%
X45085000Y-75464400D03*
X45085000Y-77114400D03*
%TD*%
D16*
%TO.C,R23*%
X30492715Y-146554800D03*
X28842715Y-146554800D03*
%TD*%
D11*
%TO.C,C88*%
X65735200Y-144514954D03*
X65735200Y-145474954D03*
%TD*%
D17*
%TO.C,C117*%
X48031400Y-42913600D03*
X48031400Y-41363600D03*
%TD*%
D18*
%TO.C,D11*%
X23749585Y-85353800D03*
X23749585Y-87453800D03*
%TD*%
D11*
%TO.C,C81*%
X61933000Y-144514954D03*
X61933000Y-145474954D03*
%TD*%
D18*
%TO.C,D12*%
X25857785Y-85353800D03*
X25857785Y-87453800D03*
%TD*%
D19*
%TO.C,C96*%
X7334985Y-116411706D03*
X9234985Y-116411706D03*
%TD*%
D10*
%TO.C,R39*%
X29718000Y-64390000D03*
X29718000Y-66040000D03*
%TD*%
D11*
%TO.C,C86*%
X64409465Y-144514954D03*
X64409465Y-145474954D03*
%TD*%
D19*
%TO.C,C98*%
X7341185Y-110286800D03*
X9241185Y-110286800D03*
%TD*%
D20*
%TO.C,BT1*%
X143485000Y-130000000D03*
X121515000Y-130000000D03*
%TD*%
D19*
%TO.C,C97*%
X7334985Y-118516306D03*
X9234985Y-118516306D03*
%TD*%
%TO.C,L9*%
G36*
X25935584Y-81254200D02*
G01*
X25340584Y-80674200D01*
X24190585Y-80674199D01*
X23595585Y-81254199D01*
X22820585Y-81254199D01*
X22820585Y-80364199D01*
X23370585Y-79804200D01*
X26160585Y-79804201D01*
X26710585Y-80364200D01*
X26710584Y-81254200D01*
X25935584Y-81254200D01*
G37*
G36*
X26160585Y-84204200D02*
G01*
X23370585Y-84204199D01*
X22820585Y-83644200D01*
X22820586Y-82754200D01*
X23595586Y-82754200D01*
X24190586Y-83334200D01*
X25340585Y-83334201D01*
X25935585Y-82754201D01*
X26710585Y-82754201D01*
X26710585Y-83644201D01*
X26160585Y-84204200D01*
G37*
%TD*%
D12*
%TO.C,D17*%
X40795001Y-62588600D03*
X38895001Y-62588600D03*
X39845001Y-60588600D03*
%TD*%
D15*
%TO.C,C106*%
X29032785Y-80275800D03*
X29032785Y-81825800D03*
%TD*%
D12*
%TO.C,Q2*%
X34417000Y-69596000D03*
X32517000Y-69596000D03*
X33467000Y-67596000D03*
%TD*%
D10*
%TO.C,R32*%
X36271200Y-57215000D03*
X36271200Y-58865000D03*
%TD*%
%TO.C,R51*%
X42519600Y-82918800D03*
X42519600Y-84568800D03*
%TD*%
D21*
%TO.C,R24*%
X19228385Y-83823800D03*
X19228385Y-85648800D03*
%TD*%
D13*
%TO.C,C109*%
X39751000Y-76774000D03*
X39751000Y-78674000D03*
%TD*%
D22*
%TO.C,R21*%
X20801500Y-157835600D03*
X25426500Y-157835600D03*
%TD*%
D18*
%TO.C,D15*%
X34366200Y-56951400D03*
X34366200Y-59051400D03*
%TD*%
D16*
%TO.C,R22*%
X30492715Y-148125200D03*
X28842715Y-148125200D03*
%TD*%
D23*
%TO.C,C108*%
X43180000Y-77110400D03*
X43180000Y-75210400D03*
%TD*%
D10*
%TO.C,R30*%
X33549000Y-64336000D03*
X33549000Y-65986000D03*
%TD*%
D15*
%TO.C,C107*%
X30861585Y-80275800D03*
X30861585Y-81825800D03*
%TD*%
D24*
%TO.C,IC10*%
X37520000Y-143773800D03*
X37520000Y-143123800D03*
X37520000Y-142473800D03*
X37520000Y-141823800D03*
D25*
X38395000Y-140948800D03*
X39045000Y-140948800D03*
X39695000Y-140948800D03*
X40345000Y-140948800D03*
D24*
X41220000Y-141823800D03*
X41220000Y-142473800D03*
X41220000Y-143123800D03*
X41220000Y-143773800D03*
D25*
X40345000Y-144648800D03*
X39695000Y-144648800D03*
X39045000Y-144648800D03*
X38395000Y-144648800D03*
D26*
X39370000Y-142798800D03*
%TD*%
D18*
%TO.C,D14*%
X31623000Y-64101000D03*
X31623000Y-66201000D03*
%TD*%
D10*
%TO.C,R29*%
X35179000Y-64263000D03*
X35179000Y-65913000D03*
%TD*%
D16*
%TO.C,R20*%
X30455115Y-149783800D03*
X28805115Y-149783800D03*
%TD*%
D15*
%TO.C,C126*%
X44069000Y-82955800D03*
X44069000Y-84505800D03*
%TD*%
D13*
%TO.C,C111*%
X39794200Y-57066600D03*
X39794200Y-58966600D03*
%TD*%
D12*
%TO.C,Q3*%
X37203400Y-62588600D03*
X35303400Y-62588600D03*
X36253400Y-60588600D03*
%TD*%
M02*
