%TF.GenerationSoftware,KiCad,Pcbnew,5.1.6-c6e7f7d~86~ubuntu18.04.1*%
%TF.CreationDate,2020-06-01T18:26:28-05:00*%
%TF.ProjectId,AP2100,41503231-3030-42e6-9b69-6361645f7063,rev?*%
%TF.SameCoordinates,Original*%
%TF.FileFunction,Legend,Top*%
%TF.FilePolarity,Positive*%
%FSLAX46Y46*%
G04 Gerber Fmt 4.6, Leading zero omitted, Abs format (unit mm)*
G04 Created by KiCad (PCBNEW 5.1.6-c6e7f7d~86~ubuntu18.04.1) date 2020-06-01 18:26:28*
%MOMM*%
%LPD*%
G01*
G04 APERTURE LIST*
%ADD10C,0.120000*%
%ADD11C,0.100000*%
%ADD12C,0.127000*%
%ADD13C,0.152400*%
%ADD14C,0.150000*%
%ADD15C,0.015000*%
G04 APERTURE END LIST*
D10*
%TO.C,J3*%
X109800000Y-55300000D02*
X109800000Y-61600000D01*
X113000000Y-55300000D02*
X109800000Y-55300000D01*
X140200000Y-61600000D02*
X140200000Y-55300000D01*
X119400000Y-64700000D02*
X122200000Y-64700000D01*
X122600000Y-55300000D02*
X119800000Y-55300000D01*
X140200000Y-55300000D02*
X137400000Y-55300000D01*
X111800000Y-64700000D02*
X112600000Y-64700000D01*
X137000000Y-64700000D02*
X138200000Y-64700000D01*
%TO.C,J2*%
X59800000Y-55300000D02*
X59800000Y-61600000D01*
X63000000Y-55300000D02*
X59800000Y-55300000D01*
X90200000Y-61600000D02*
X90200000Y-55300000D01*
X69400000Y-64700000D02*
X72200000Y-64700000D01*
X72600000Y-55300000D02*
X69800000Y-55300000D01*
X90200000Y-55300000D02*
X87400000Y-55300000D01*
X61800000Y-64700000D02*
X62600000Y-64700000D01*
X87000000Y-64700000D02*
X88200000Y-64700000D01*
%TO.C,J1*%
X9800000Y-55300000D02*
X9800000Y-61600000D01*
X13000000Y-55300000D02*
X9800000Y-55300000D01*
X40200000Y-61600000D02*
X40200000Y-55300000D01*
X19400000Y-64700000D02*
X22200000Y-64700000D01*
X22600000Y-55300000D02*
X19800000Y-55300000D01*
X40200000Y-55300000D02*
X37400000Y-55300000D01*
X11800000Y-64700000D02*
X12600000Y-64700000D01*
X37000000Y-64700000D02*
X38200000Y-64700000D01*
D11*
%TO.C,U2*%
X47937686Y-90433837D02*
G75*
G03*
X47937686Y-90433837I-100000J0D01*
G01*
D12*
X69237686Y-89533837D02*
X48237686Y-89533837D01*
X69237686Y-110533837D02*
X69237686Y-89533837D01*
X48237686Y-110533837D02*
X69237686Y-110533837D01*
X48237686Y-89533837D02*
X48237686Y-110533837D01*
D13*
%TO.C,U1*%
X100449999Y-119650000D02*
X105500000Y-119650000D01*
X102500000Y-124950000D02*
X105500000Y-124950000D01*
%TO.C,J3*%
D14*
X112166666Y-65802380D02*
X112166666Y-66516666D01*
X112119047Y-66659523D01*
X112023809Y-66754761D01*
X111880952Y-66802380D01*
X111785714Y-66802380D01*
X112547619Y-65802380D02*
X113166666Y-65802380D01*
X112833333Y-66183333D01*
X112976190Y-66183333D01*
X113071428Y-66230952D01*
X113119047Y-66278571D01*
X113166666Y-66373809D01*
X113166666Y-66611904D01*
X113119047Y-66707142D01*
X113071428Y-66754761D01*
X112976190Y-66802380D01*
X112690476Y-66802380D01*
X112595238Y-66754761D01*
X112547619Y-66707142D01*
%TO.C,J2*%
X62166666Y-65802380D02*
X62166666Y-66516666D01*
X62119047Y-66659523D01*
X62023809Y-66754761D01*
X61880952Y-66802380D01*
X61785714Y-66802380D01*
X62595238Y-65897619D02*
X62642857Y-65850000D01*
X62738095Y-65802380D01*
X62976190Y-65802380D01*
X63071428Y-65850000D01*
X63119047Y-65897619D01*
X63166666Y-65992857D01*
X63166666Y-66088095D01*
X63119047Y-66230952D01*
X62547619Y-66802380D01*
X63166666Y-66802380D01*
%TO.C,J1*%
X12166666Y-65802380D02*
X12166666Y-66516666D01*
X12119047Y-66659523D01*
X12023809Y-66754761D01*
X11880952Y-66802380D01*
X11785714Y-66802380D01*
X13166666Y-66802380D02*
X12595238Y-66802380D01*
X12880952Y-66802380D02*
X12880952Y-65802380D01*
X12785714Y-65945238D01*
X12690476Y-66040476D01*
X12595238Y-66088095D01*
%TO.C,U2*%
D15*
X50385651Y-87829076D02*
X50385651Y-88640066D01*
X50433356Y-88735476D01*
X50481062Y-88783181D01*
X50576472Y-88830887D01*
X50767293Y-88830887D01*
X50862704Y-88783181D01*
X50910409Y-88735476D01*
X50958114Y-88640066D01*
X50958114Y-87829076D01*
X51387462Y-87924486D02*
X51435167Y-87876781D01*
X51530578Y-87829076D01*
X51769104Y-87829076D01*
X51864515Y-87876781D01*
X51912220Y-87924486D01*
X51959925Y-88019897D01*
X51959925Y-88115307D01*
X51912220Y-88258423D01*
X51339757Y-88830887D01*
X51959925Y-88830887D01*
%TO.C,U1*%
D14*
X100698095Y-118042380D02*
X100698095Y-118851904D01*
X100745714Y-118947142D01*
X100793333Y-118994761D01*
X100888571Y-119042380D01*
X101079047Y-119042380D01*
X101174285Y-118994761D01*
X101221904Y-118947142D01*
X101269523Y-118851904D01*
X101269523Y-118042380D01*
X102269523Y-119042380D02*
X101698095Y-119042380D01*
X101983809Y-119042380D02*
X101983809Y-118042380D01*
X101888571Y-118185238D01*
X101793333Y-118280476D01*
X101698095Y-118328095D01*
%TD*%
M02*
