%TF.GenerationSoftware,KiCad,Pcbnew,5.1.6-c6e7f7d~86~ubuntu18.04.1*%
%TF.CreationDate,2020-06-01T18:26:28-05:00*%
%TF.ProjectId,AP2100,41503231-3030-42e6-9b69-6361645f7063,rev?*%
%TF.SameCoordinates,Original*%
%TF.FileFunction,Copper,L1,Top*%
%TF.FilePolarity,Positive*%
%FSLAX46Y46*%
G04 Gerber Fmt 4.6, Leading zero omitted, Abs format (unit mm)*
G04 Created by KiCad (PCBNEW 5.1.6-c6e7f7d~86~ubuntu18.04.1) date 2020-06-01 18:26:28*
%MOMM*%
%LPD*%
G01*
G04 APERTURE LIST*
%TA.AperFunction,SMDPad,CuDef*%
%ADD10R,2.300000X3.200000*%
%TD*%
%TA.AperFunction,SMDPad,CuDef*%
%ADD11R,0.600000X2.000000*%
%TD*%
%TA.AperFunction,SMDPad,CuDef*%
%ADD12C,0.410000*%
%TD*%
%TA.AperFunction,SMDPad,CuDef*%
%ADD13R,1.400000X0.449999*%
%TD*%
%TA.AperFunction,SMDPad,CuDef*%
%ADD14R,3.400001X5.000000*%
%TD*%
%TA.AperFunction,ComponentPad*%
%ADD15C,0.499999*%
%TD*%
%TA.AperFunction,ViaPad*%
%ADD16C,0.400000*%
%TD*%
%TA.AperFunction,Conductor*%
%ADD17C,0.105000*%
%TD*%
%TA.AperFunction,NonConductor*%
%ADD18C,0.254000*%
%TD*%
G04 APERTURE END LIST*
D10*
%TO.P,J3,MP*%
%TO.N,Net-(J3-PadMP)*%
X110350000Y-63500000D03*
X139650000Y-63500000D03*
D11*
%TO.P,J3,1*%
%TO.N,Net-(J3-Pad1)*%
X113200000Y-64100000D03*
%TO.P,J3,2*%
%TO.N,Net-(J3-Pad2)*%
X113600000Y-55900000D03*
%TO.P,J3,3*%
%TO.N,Net-(J3-Pad3)*%
X114000000Y-64100000D03*
%TO.P,J3,4*%
%TO.N,Net-(J3-Pad15)*%
X114400000Y-55900000D03*
%TO.P,J3,5*%
%TO.N,Net-(J3-Pad5)*%
X114800000Y-64100000D03*
%TO.P,J3,6*%
%TO.N,Net-(J3-Pad6)*%
X115200000Y-55900000D03*
%TO.P,J3,7*%
%TO.N,Net-(J3-Pad7)*%
X115600000Y-64100000D03*
%TO.P,J3,8*%
%TO.N,Net-(J3-Pad8)*%
X116000000Y-55900000D03*
%TO.P,J3,9*%
%TO.N,Net-(J3-Pad15)*%
X116400000Y-64100000D03*
%TO.P,J3,10*%
%TO.N,Net-(J3-Pad10)*%
X116800000Y-55900000D03*
%TO.P,J3,11*%
%TO.N,Net-(J3-Pad11)*%
X117200000Y-64100000D03*
%TO.P,J3,12*%
%TO.N,Net-(J3-Pad12)*%
X117600000Y-55900000D03*
%TO.P,J3,13*%
%TO.N,Net-(J3-Pad13)*%
X118000000Y-64100000D03*
%TO.P,J3,14*%
%TO.N,Net-(J3-Pad14)*%
X118400000Y-55900000D03*
%TO.P,J3,15*%
%TO.N,Net-(J3-Pad15)*%
X118800000Y-64100000D03*
%TO.P,J3,16*%
%TO.N,Net-(J3-Pad16)*%
X119200000Y-55900000D03*
%TO.P,J3,17*%
%TO.N,Net-(J3-Pad17)*%
X122800000Y-64100000D03*
%TO.P,J3,18*%
%TO.N,Net-(J3-Pad15)*%
X123200000Y-55900000D03*
%TO.P,J3,19*%
%TO.N,Net-(J3-Pad19)*%
X123600000Y-64100000D03*
%TO.P,J3,20*%
%TO.N,Net-(J3-Pad20)*%
X124000000Y-55900000D03*
%TO.P,J3,21*%
%TO.N,Net-(J3-Pad15)*%
X124400000Y-64100000D03*
%TO.P,J3,22*%
%TO.N,Net-(J3-Pad22)*%
X124800000Y-55900000D03*
%TO.P,J3,23*%
%TO.N,Net-(J3-Pad23)*%
X125200000Y-64100000D03*
%TO.P,J3,24*%
%TO.N,Net-(J3-Pad24)*%
X125600000Y-55900000D03*
%TO.P,J3,25*%
%TO.N,Net-(J3-Pad25)*%
X126000000Y-64100000D03*
%TO.P,J3,26*%
%TO.N,Net-(J3-Pad15)*%
X126400000Y-55900000D03*
%TO.P,J3,27*%
X126800000Y-64100000D03*
%TO.P,J3,28*%
%TO.N,Net-(J3-Pad28)*%
X127200000Y-55900000D03*
%TO.P,J3,29*%
%TO.N,Net-(J3-Pad15)*%
X127600000Y-64100000D03*
%TO.P,J3,30*%
%TO.N,Net-(J3-Pad30)*%
X128000000Y-55900000D03*
%TO.P,J3,31*%
%TO.N,Net-(J3-Pad31)*%
X128400000Y-64100000D03*
%TO.P,J3,32*%
%TO.N,Net-(J3-Pad32)*%
X128800000Y-55900000D03*
%TO.P,J3,33*%
%TO.N,Net-(J3-Pad33)*%
X129200000Y-64100000D03*
%TO.P,J3,34*%
%TO.N,Net-(J3-Pad15)*%
X129600000Y-55900000D03*
%TO.P,J3,35*%
X130000000Y-64100000D03*
%TO.P,J3,36*%
%TO.N,Net-(J3-Pad36)*%
X130400000Y-55900000D03*
%TO.P,J3,37*%
%TO.N,Net-(J3-Pad15)*%
X130800000Y-64100000D03*
%TO.P,J3,38*%
%TO.N,Net-(J3-Pad38)*%
X131200000Y-55900000D03*
%TO.P,J3,39*%
%TO.N,Net-(J3-Pad39)*%
X131600000Y-64100000D03*
%TO.P,J3,40*%
%TO.N,Net-(J3-Pad15)*%
X132000000Y-55900000D03*
%TO.P,J3,41*%
%TO.N,Net-(J3-Pad41)*%
X132400000Y-64100000D03*
%TO.P,J3,42*%
%TO.N,Net-(J3-Pad42)*%
X132800000Y-55900000D03*
%TO.P,J3,43*%
%TO.N,Net-(J3-Pad15)*%
X133200000Y-64100000D03*
%TO.P,J3,44*%
%TO.N,Net-(J3-Pad44)*%
X133600000Y-55900000D03*
%TO.P,J3,45*%
%TO.N,Net-(J3-Pad45)*%
X134000000Y-64100000D03*
%TO.P,J3,46*%
%TO.N,Net-(J3-Pad46)*%
X134400000Y-55900000D03*
%TO.P,J3,47*%
%TO.N,Net-(J3-Pad47)*%
X134800000Y-64100000D03*
%TO.P,J3,48*%
%TO.N,Net-(J3-Pad48)*%
X135200000Y-55900000D03*
%TO.P,J3,49*%
%TO.N,Net-(J3-Pad49)*%
X135600000Y-64100000D03*
%TO.P,J3,50*%
%TO.N,Net-(J3-Pad15)*%
X136000000Y-55900000D03*
%TO.P,J3,51*%
%TO.N,Net-(J3-Pad51)*%
X136400000Y-64100000D03*
%TO.P,J3,52*%
%TO.N,Net-(J3-Pad52)*%
X136800000Y-55900000D03*
%TD*%
D10*
%TO.P,J2,MP*%
%TO.N,Net-(J2-PadMP)*%
X60350000Y-63500000D03*
X89650000Y-63500000D03*
D11*
%TO.P,J2,1*%
%TO.N,Net-(J2-Pad1)*%
X63200000Y-64100000D03*
%TO.P,J2,2*%
%TO.N,Net-(J2-Pad2)*%
X63600000Y-55900000D03*
%TO.P,J2,3*%
%TO.N,Net-(J2-Pad3)*%
X64000000Y-64100000D03*
%TO.P,J2,4*%
%TO.N,Net-(J2-Pad15)*%
X64400000Y-55900000D03*
%TO.P,J2,5*%
%TO.N,Net-(J2-Pad5)*%
X64800000Y-64100000D03*
%TO.P,J2,6*%
%TO.N,Net-(J2-Pad6)*%
X65200000Y-55900000D03*
%TO.P,J2,7*%
%TO.N,Net-(J2-Pad7)*%
X65600000Y-64100000D03*
%TO.P,J2,8*%
%TO.N,Net-(J2-Pad8)*%
X66000000Y-55900000D03*
%TO.P,J2,9*%
%TO.N,Net-(J2-Pad15)*%
X66400000Y-64100000D03*
%TO.P,J2,10*%
%TO.N,Net-(J2-Pad10)*%
X66800000Y-55900000D03*
%TO.P,J2,11*%
%TO.N,Net-(J2-Pad11)*%
X67200000Y-64100000D03*
%TO.P,J2,12*%
%TO.N,Net-(J2-Pad12)*%
X67600000Y-55900000D03*
%TO.P,J2,13*%
%TO.N,Net-(J2-Pad13)*%
X68000000Y-64100000D03*
%TO.P,J2,14*%
%TO.N,Net-(J2-Pad14)*%
X68400000Y-55900000D03*
%TO.P,J2,15*%
%TO.N,Net-(J2-Pad15)*%
X68800000Y-64100000D03*
%TO.P,J2,16*%
%TO.N,Net-(J2-Pad16)*%
X69200000Y-55900000D03*
%TO.P,J2,17*%
%TO.N,Net-(J2-Pad17)*%
X72800000Y-64100000D03*
%TO.P,J2,18*%
%TO.N,Net-(J2-Pad15)*%
X73200000Y-55900000D03*
%TO.P,J2,19*%
%TO.N,Net-(J2-Pad19)*%
X73600000Y-64100000D03*
%TO.P,J2,20*%
%TO.N,Net-(J2-Pad20)*%
X74000000Y-55900000D03*
%TO.P,J2,21*%
%TO.N,Net-(J2-Pad15)*%
X74400000Y-64100000D03*
%TO.P,J2,22*%
%TO.N,Net-(J2-Pad22)*%
X74800000Y-55900000D03*
%TO.P,J2,23*%
%TO.N,Net-(J2-Pad23)*%
X75200000Y-64100000D03*
%TO.P,J2,24*%
%TO.N,Net-(J2-Pad24)*%
X75600000Y-55900000D03*
%TO.P,J2,25*%
%TO.N,Net-(J2-Pad25)*%
X76000000Y-64100000D03*
%TO.P,J2,26*%
%TO.N,Net-(J2-Pad15)*%
X76400000Y-55900000D03*
%TO.P,J2,27*%
X76800000Y-64100000D03*
%TO.P,J2,28*%
%TO.N,Net-(J2-Pad28)*%
X77200000Y-55900000D03*
%TO.P,J2,29*%
%TO.N,Net-(J2-Pad15)*%
X77600000Y-64100000D03*
%TO.P,J2,30*%
%TO.N,Net-(J2-Pad30)*%
X78000000Y-55900000D03*
%TO.P,J2,31*%
%TO.N,Net-(J2-Pad31)*%
X78400000Y-64100000D03*
%TO.P,J2,32*%
%TO.N,Net-(J2-Pad32)*%
X78800000Y-55900000D03*
%TO.P,J2,33*%
%TO.N,Net-(J2-Pad33)*%
X79200000Y-64100000D03*
%TO.P,J2,34*%
%TO.N,Net-(J2-Pad15)*%
X79600000Y-55900000D03*
%TO.P,J2,35*%
X80000000Y-64100000D03*
%TO.P,J2,36*%
%TO.N,Net-(J2-Pad36)*%
X80400000Y-55900000D03*
%TO.P,J2,37*%
%TO.N,Net-(J2-Pad15)*%
X80800000Y-64100000D03*
%TO.P,J2,38*%
%TO.N,Net-(J2-Pad38)*%
X81200000Y-55900000D03*
%TO.P,J2,39*%
%TO.N,Net-(J2-Pad39)*%
X81600000Y-64100000D03*
%TO.P,J2,40*%
%TO.N,Net-(J2-Pad15)*%
X82000000Y-55900000D03*
%TO.P,J2,41*%
%TO.N,Net-(J2-Pad41)*%
X82400000Y-64100000D03*
%TO.P,J2,42*%
%TO.N,Net-(J2-Pad42)*%
X82800000Y-55900000D03*
%TO.P,J2,43*%
%TO.N,Net-(J2-Pad15)*%
X83200000Y-64100000D03*
%TO.P,J2,44*%
%TO.N,Net-(J2-Pad44)*%
X83600000Y-55900000D03*
%TO.P,J2,45*%
%TO.N,Net-(J2-Pad45)*%
X84000000Y-64100000D03*
%TO.P,J2,46*%
%TO.N,Net-(J2-Pad46)*%
X84400000Y-55900000D03*
%TO.P,J2,47*%
%TO.N,Net-(J2-Pad47)*%
X84800000Y-64100000D03*
%TO.P,J2,48*%
%TO.N,Net-(J2-Pad48)*%
X85200000Y-55900000D03*
%TO.P,J2,49*%
%TO.N,Net-(J2-Pad49)*%
X85600000Y-64100000D03*
%TO.P,J2,50*%
%TO.N,Net-(J2-Pad15)*%
X86000000Y-55900000D03*
%TO.P,J2,51*%
%TO.N,Net-(J2-Pad51)*%
X86400000Y-64100000D03*
%TO.P,J2,52*%
%TO.N,Net-(J2-Pad52)*%
X86800000Y-55900000D03*
%TD*%
D10*
%TO.P,J1,MP*%
%TO.N,Net-(J1-PadMP)*%
X10350000Y-63500000D03*
X39650000Y-63500000D03*
D11*
%TO.P,J1,1*%
%TO.N,Net-(J1-Pad1)*%
X13200000Y-64100000D03*
%TO.P,J1,2*%
%TO.N,Net-(J1-Pad2)*%
X13600000Y-55900000D03*
%TO.P,J1,3*%
%TO.N,Net-(J1-Pad3)*%
X14000000Y-64100000D03*
%TO.P,J1,4*%
%TO.N,Net-(J1-Pad15)*%
X14400000Y-55900000D03*
%TO.P,J1,5*%
%TO.N,Net-(J1-Pad5)*%
X14800000Y-64100000D03*
%TO.P,J1,6*%
%TO.N,Net-(J1-Pad6)*%
X15200000Y-55900000D03*
%TO.P,J1,7*%
%TO.N,Net-(J1-Pad7)*%
X15600000Y-64100000D03*
%TO.P,J1,8*%
%TO.N,Net-(J1-Pad8)*%
X16000000Y-55900000D03*
%TO.P,J1,9*%
%TO.N,Net-(J1-Pad15)*%
X16400000Y-64100000D03*
%TO.P,J1,10*%
%TO.N,Net-(J1-Pad10)*%
X16800000Y-55900000D03*
%TO.P,J1,11*%
%TO.N,Net-(J1-Pad11)*%
X17200000Y-64100000D03*
%TO.P,J1,12*%
%TO.N,Net-(J1-Pad12)*%
X17600000Y-55900000D03*
%TO.P,J1,13*%
%TO.N,Net-(J1-Pad13)*%
X18000000Y-64100000D03*
%TO.P,J1,14*%
%TO.N,Net-(J1-Pad14)*%
X18400000Y-55900000D03*
%TO.P,J1,15*%
%TO.N,Net-(J1-Pad15)*%
X18800000Y-64100000D03*
%TO.P,J1,16*%
%TO.N,Net-(J1-Pad16)*%
X19200000Y-55900000D03*
%TO.P,J1,17*%
%TO.N,Net-(J1-Pad17)*%
X22800000Y-64100000D03*
%TO.P,J1,18*%
%TO.N,Net-(J1-Pad15)*%
X23200000Y-55900000D03*
%TO.P,J1,19*%
%TO.N,Net-(J1-Pad19)*%
X23600000Y-64100000D03*
%TO.P,J1,20*%
%TO.N,Net-(J1-Pad20)*%
X24000000Y-55900000D03*
%TO.P,J1,21*%
%TO.N,Net-(J1-Pad15)*%
X24400000Y-64100000D03*
%TO.P,J1,22*%
%TO.N,Net-(J1-Pad22)*%
X24800000Y-55900000D03*
%TO.P,J1,23*%
%TO.N,Net-(J1-Pad23)*%
X25200000Y-64100000D03*
%TO.P,J1,24*%
%TO.N,Net-(J1-Pad24)*%
X25600000Y-55900000D03*
%TO.P,J1,25*%
%TO.N,Net-(J1-Pad25)*%
X26000000Y-64100000D03*
%TO.P,J1,26*%
%TO.N,Net-(J1-Pad15)*%
X26400000Y-55900000D03*
%TO.P,J1,27*%
X26800000Y-64100000D03*
%TO.P,J1,28*%
%TO.N,Net-(J1-Pad28)*%
X27200000Y-55900000D03*
%TO.P,J1,29*%
%TO.N,Net-(J1-Pad15)*%
X27600000Y-64100000D03*
%TO.P,J1,30*%
%TO.N,Net-(J1-Pad30)*%
X28000000Y-55900000D03*
%TO.P,J1,31*%
%TO.N,Net-(J1-Pad31)*%
X28400000Y-64100000D03*
%TO.P,J1,32*%
%TO.N,Net-(J1-Pad32)*%
X28800000Y-55900000D03*
%TO.P,J1,33*%
%TO.N,Net-(J1-Pad33)*%
X29200000Y-64100000D03*
%TO.P,J1,34*%
%TO.N,Net-(J1-Pad15)*%
X29600000Y-55900000D03*
%TO.P,J1,35*%
X30000000Y-64100000D03*
%TO.P,J1,36*%
%TO.N,Net-(J1-Pad36)*%
X30400000Y-55900000D03*
%TO.P,J1,37*%
%TO.N,Net-(J1-Pad15)*%
X30800000Y-64100000D03*
%TO.P,J1,38*%
%TO.N,Net-(J1-Pad38)*%
X31200000Y-55900000D03*
%TO.P,J1,39*%
%TO.N,Net-(J1-Pad39)*%
X31600000Y-64100000D03*
%TO.P,J1,40*%
%TO.N,Net-(J1-Pad15)*%
X32000000Y-55900000D03*
%TO.P,J1,41*%
%TO.N,Net-(J1-Pad41)*%
X32400000Y-64100000D03*
%TO.P,J1,42*%
%TO.N,Net-(J1-Pad42)*%
X32800000Y-55900000D03*
%TO.P,J1,43*%
%TO.N,Net-(J1-Pad15)*%
X33200000Y-64100000D03*
%TO.P,J1,44*%
%TO.N,Net-(J1-Pad44)*%
X33600000Y-55900000D03*
%TO.P,J1,45*%
%TO.N,Net-(J1-Pad45)*%
X34000000Y-64100000D03*
%TO.P,J1,46*%
%TO.N,Net-(J1-Pad46)*%
X34400000Y-55900000D03*
%TO.P,J1,47*%
%TO.N,Net-(J1-Pad47)*%
X34800000Y-64100000D03*
%TO.P,J1,48*%
%TO.N,Net-(J1-Pad48)*%
X35200000Y-55900000D03*
%TO.P,J1,49*%
%TO.N,Net-(J1-Pad49)*%
X35600000Y-64100000D03*
%TO.P,J1,50*%
%TO.N,Net-(J1-Pad15)*%
X36000000Y-55900000D03*
%TO.P,J1,51*%
%TO.N,Net-(J1-Pad51)*%
X36400000Y-64100000D03*
%TO.P,J1,52*%
%TO.N,Net-(J1-Pad52)*%
X36800000Y-55900000D03*
%TD*%
D12*
%TO.P,U2,AE24*%
%TO.N,N/C*%
X67537686Y-109633837D03*
%TO.P,U2,AE23*%
%TO.N,Net-(U2-PadAE23)*%
X66737686Y-109633837D03*
%TO.P,U2,AE22*%
%TO.N,Net-(U2-PadAE22)*%
X65937686Y-109633837D03*
%TO.P,U2,AE21*%
%TO.N,N/C*%
X65137686Y-109633837D03*
%TO.P,U2,AE20*%
X64337686Y-109633837D03*
%TO.P,U2,AE19*%
X63537686Y-109633837D03*
%TO.P,U2,AE18*%
X62737686Y-109633837D03*
%TO.P,U2,AE17*%
X61937686Y-109633837D03*
%TO.P,U2,AE16*%
X61137686Y-109633837D03*
%TO.P,U2,AE15*%
X60337686Y-109633837D03*
%TO.P,U2,AE14*%
X59537686Y-109633837D03*
%TO.P,U2,AE13*%
X58737686Y-109633837D03*
%TO.P,U2,AE12*%
X57937686Y-109633837D03*
%TO.P,U2,AE11*%
X57137686Y-109633837D03*
%TO.P,U2,AE10*%
X56337686Y-109633837D03*
%TO.P,U2,AE9*%
X55537686Y-109633837D03*
%TO.P,U2,AE8*%
X54737686Y-109633837D03*
%TO.P,U2,AE7*%
X53937686Y-109633837D03*
%TO.P,U2,AE6*%
X53137686Y-109633837D03*
%TO.P,U2,AE5*%
X52337686Y-109633837D03*
%TO.P,U2,AE4*%
X51537686Y-109633837D03*
%TO.P,U2,AE3*%
X50737686Y-109633837D03*
%TO.P,U2,AE2*%
X49937686Y-109633837D03*
%TO.P,U2,AD25*%
X68337686Y-108833837D03*
%TO.P,U2,AD24*%
%TO.N,Net-(U2-PadAD24)*%
X67537686Y-108833837D03*
%TO.P,U2,AD23*%
%TO.N,Net-(U2-PadAD23)*%
X66737686Y-108833837D03*
%TO.P,U2,AD22*%
%TO.N,N/C*%
X65937686Y-108833837D03*
%TO.P,U2,AD21*%
X65137686Y-108833837D03*
%TO.P,U2,AD20*%
X64337686Y-108833837D03*
%TO.P,U2,AD19*%
X63537686Y-108833837D03*
%TO.P,U2,AD18*%
X62737686Y-108833837D03*
%TO.P,U2,AD17*%
X61937686Y-108833837D03*
%TO.P,U2,AD16*%
X61137686Y-108833837D03*
%TO.P,U2,AD15*%
X60337686Y-108833837D03*
%TO.P,U2,AD14*%
X59537686Y-108833837D03*
%TO.P,U2,AD13*%
X58737686Y-108833837D03*
%TO.P,U2,AD12*%
X57937686Y-108833837D03*
%TO.P,U2,AD11*%
X57137686Y-108833837D03*
%TO.P,U2,AD10*%
X56337686Y-108833837D03*
%TO.P,U2,AD9*%
X55537686Y-108833837D03*
%TO.P,U2,AD8*%
X54737686Y-108833837D03*
%TO.P,U2,AD7*%
X53937686Y-108833837D03*
%TO.P,U2,AD6*%
X53137686Y-108833837D03*
%TO.P,U2,AD5*%
X52337686Y-108833837D03*
%TO.P,U2,AD4*%
X51537686Y-108833837D03*
%TO.P,U2,AD3*%
X50737686Y-108833837D03*
%TO.P,U2,AD2*%
X49937686Y-108833837D03*
%TO.P,U2,AD1*%
X49137686Y-108833837D03*
%TO.P,U2,AC25*%
%TO.N,Net-(U2-PadAC25)*%
X68337686Y-108033837D03*
%TO.P,U2,AC24*%
%TO.N,Net-(U2-PadAC24)*%
X67537686Y-108033837D03*
%TO.P,U2,AC23*%
%TO.N,Net-(U2-PadAC23)*%
X66737686Y-108033837D03*
%TO.P,U2,AC22*%
%TO.N,Net-(U2-PadAC22)*%
X65937686Y-108033837D03*
%TO.P,U2,AC21*%
%TO.N,Net-(U2-PadAC21)*%
X65137686Y-108033837D03*
%TO.P,U2,AC20*%
%TO.N,N/C*%
X64337686Y-108033837D03*
%TO.P,U2,AC19*%
X63537686Y-108033837D03*
%TO.P,U2,AC18*%
X62737686Y-108033837D03*
%TO.P,U2,AC17*%
X61937686Y-108033837D03*
%TO.P,U2,AC16*%
X61137686Y-108033837D03*
%TO.P,U2,AC15*%
X60337686Y-108033837D03*
%TO.P,U2,AC14*%
X59537686Y-108033837D03*
%TO.P,U2,AC13*%
X58737686Y-108033837D03*
%TO.P,U2,AC12*%
X57937686Y-108033837D03*
%TO.P,U2,AC11*%
X57137686Y-108033837D03*
%TO.P,U2,AC10*%
X56337686Y-108033837D03*
%TO.P,U2,AC9*%
X55537686Y-108033837D03*
%TO.P,U2,AC8*%
X54737686Y-108033837D03*
%TO.P,U2,AC7*%
X53937686Y-108033837D03*
%TO.P,U2,AC6*%
X53137686Y-108033837D03*
%TO.P,U2,AC5*%
X52337686Y-108033837D03*
%TO.P,U2,AC4*%
X51537686Y-108033837D03*
%TO.P,U2,AC3*%
X50737686Y-108033837D03*
%TO.P,U2,AC2*%
X49937686Y-108033837D03*
%TO.P,U2,AC1*%
X49137686Y-108033837D03*
%TO.P,U2,AB25*%
%TO.N,Net-(U2-PadAB25)*%
X68337686Y-107233837D03*
%TO.P,U2,AB24*%
%TO.N,N/C*%
X67537686Y-107233837D03*
%TO.P,U2,AB23*%
%TO.N,Net-(U2-PadAB23)*%
X66737686Y-107233837D03*
%TO.P,U2,AB22*%
%TO.N,N/C*%
X65937686Y-107233837D03*
%TO.P,U2,AB21*%
%TO.N,Net-(U2-PadAB21)*%
X65137686Y-107233837D03*
%TO.P,U2,AB20*%
%TO.N,Net-(U2-PadAB20)*%
X64337686Y-107233837D03*
%TO.P,U2,AB19*%
%TO.N,N/C*%
X63537686Y-107233837D03*
%TO.P,U2,AB18*%
X62737686Y-107233837D03*
%TO.P,U2,AB17*%
X61937686Y-107233837D03*
%TO.P,U2,AB16*%
X61137686Y-107233837D03*
%TO.P,U2,AB15*%
X60337686Y-107233837D03*
%TO.P,U2,AB14*%
X59537686Y-107233837D03*
%TO.P,U2,AB13*%
X58737686Y-107233837D03*
%TO.P,U2,AB12*%
X57937686Y-107233837D03*
%TO.P,U2,AB11*%
X57137686Y-107233837D03*
%TO.P,U2,AB10*%
X56337686Y-107233837D03*
%TO.P,U2,AB9*%
X55537686Y-107233837D03*
%TO.P,U2,AB8*%
X54737686Y-107233837D03*
%TO.P,U2,AB7*%
X53937686Y-107233837D03*
%TO.P,U2,AB6*%
X53137686Y-107233837D03*
%TO.P,U2,AB5*%
X52337686Y-107233837D03*
%TO.P,U2,AB4*%
X51537686Y-107233837D03*
%TO.P,U2,AB3*%
X50737686Y-107233837D03*
%TO.P,U2,AB2*%
X49937686Y-107233837D03*
%TO.P,U2,AB1*%
X49137686Y-107233837D03*
%TO.P,U2,AA25*%
%TO.N,Net-(U2-PadAA25)*%
X68337686Y-106433837D03*
%TO.P,U2,AA24*%
%TO.N,Net-(U2-PadAA24)*%
X67537686Y-106433837D03*
%TO.P,U2,AA23*%
%TO.N,Net-(U2-PadAA23)*%
X66737686Y-106433837D03*
%TO.P,U2,AA22*%
%TO.N,GND*%
X65937686Y-106433837D03*
%TO.P,U2,AA21*%
%TO.N,Net-(U2-PadAA21)*%
X65137686Y-106433837D03*
%TO.P,U2,AA20*%
%TO.N,N/C*%
X64337686Y-106433837D03*
%TO.P,U2,AA19*%
X63537686Y-106433837D03*
%TO.P,U2,AA18*%
X62737686Y-106433837D03*
%TO.P,U2,AA17*%
X61937686Y-106433837D03*
%TO.P,U2,AA16*%
X61137686Y-106433837D03*
%TO.P,U2,AA15*%
X60337686Y-106433837D03*
%TO.P,U2,AA14*%
X59537686Y-106433837D03*
%TO.P,U2,AA13*%
X58737686Y-106433837D03*
%TO.P,U2,AA12*%
X57937686Y-106433837D03*
%TO.P,U2,AA11*%
X57137686Y-106433837D03*
%TO.P,U2,AA10*%
X56337686Y-106433837D03*
%TO.P,U2,AA9*%
X55537686Y-106433837D03*
%TO.P,U2,AA8*%
X54737686Y-106433837D03*
%TO.P,U2,AA7*%
X53937686Y-106433837D03*
%TO.P,U2,AA6*%
X53137686Y-106433837D03*
%TO.P,U2,AA5*%
X52337686Y-106433837D03*
%TO.P,U2,AA4*%
X51537686Y-106433837D03*
%TO.P,U2,AA3*%
X50737686Y-106433837D03*
%TO.P,U2,AA2*%
X49937686Y-106433837D03*
%TO.P,U2,AA1*%
X49137686Y-106433837D03*
%TO.P,U2,Y25*%
%TO.N,Net-(U2-PadY25)*%
X68337686Y-105633837D03*
%TO.P,U2,Y24*%
%TO.N,N/C*%
X67537686Y-105633837D03*
%TO.P,U2,Y23*%
%TO.N,Net-(U2-PadY23)*%
X66737686Y-105633837D03*
%TO.P,U2,Y22*%
%TO.N,N/C*%
X65937686Y-105633837D03*
%TO.P,U2,Y21*%
%TO.N,Net-(U2-PadY21)*%
X65137686Y-105633837D03*
%TO.P,U2,Y20*%
%TO.N,N/C*%
X64337686Y-105633837D03*
%TO.P,U2,Y19*%
X63537686Y-105633837D03*
%TO.P,U2,Y18*%
X62737686Y-105633837D03*
%TO.P,U2,Y17*%
X61937686Y-105633837D03*
%TO.P,U2,Y16*%
X61137686Y-105633837D03*
%TO.P,U2,Y15*%
X60337686Y-105633837D03*
%TO.P,U2,Y14*%
X59537686Y-105633837D03*
%TO.P,U2,Y13*%
X58737686Y-105633837D03*
%TO.P,U2,Y12*%
X57937686Y-105633837D03*
%TO.P,U2,Y11*%
X57137686Y-105633837D03*
%TO.P,U2,Y10*%
X56337686Y-105633837D03*
%TO.P,U2,Y9*%
X55537686Y-105633837D03*
%TO.P,U2,Y8*%
X54737686Y-105633837D03*
%TO.P,U2,Y7*%
X53937686Y-105633837D03*
%TO.P,U2,Y6*%
X53137686Y-105633837D03*
%TO.P,U2,Y5*%
X52337686Y-105633837D03*
%TO.P,U2,Y4*%
X51537686Y-105633837D03*
%TO.P,U2,Y3*%
X50737686Y-105633837D03*
%TO.P,U2,Y2*%
X49937686Y-105633837D03*
%TO.P,U2,Y1*%
X49137686Y-105633837D03*
%TO.P,U2,W25*%
%TO.N,Net-(U2-PadW25)*%
X68337686Y-104833837D03*
%TO.P,U2,W24*%
%TO.N,Net-(U2-PadW24)*%
X67537686Y-104833837D03*
%TO.P,U2,W23*%
%TO.N,Net-(U2-PadW23)*%
X66737686Y-104833837D03*
%TO.P,U2,W22*%
%TO.N,Net-(U2-PadW22)*%
X65937686Y-104833837D03*
%TO.P,U2,W21*%
%TO.N,Net-(U2-PadW21)*%
X65137686Y-104833837D03*
%TO.P,U2,W20*%
%TO.N,N/C*%
X64337686Y-104833837D03*
%TO.P,U2,W19*%
X63537686Y-104833837D03*
%TO.P,U2,W18*%
X62737686Y-104833837D03*
%TO.P,U2,W17*%
X61937686Y-104833837D03*
%TO.P,U2,W16*%
X61137686Y-104833837D03*
%TO.P,U2,W15*%
X60337686Y-104833837D03*
%TO.P,U2,W14*%
X59537686Y-104833837D03*
%TO.P,U2,W13*%
X58737686Y-104833837D03*
%TO.P,U2,W12*%
X57937686Y-104833837D03*
%TO.P,U2,W11*%
X57137686Y-104833837D03*
%TO.P,U2,W10*%
X56337686Y-104833837D03*
%TO.P,U2,W9*%
X55537686Y-104833837D03*
%TO.P,U2,W8*%
X54737686Y-104833837D03*
%TO.P,U2,W7*%
X53937686Y-104833837D03*
%TO.P,U2,W6*%
X53137686Y-104833837D03*
%TO.P,U2,W5*%
X52337686Y-104833837D03*
%TO.P,U2,W4*%
X51537686Y-104833837D03*
%TO.P,U2,W3*%
X50737686Y-104833837D03*
%TO.P,U2,W2*%
X49937686Y-104833837D03*
%TO.P,U2,W1*%
X49137686Y-104833837D03*
%TO.P,U2,V25*%
%TO.N,Net-(U2-PadV25)*%
X68337686Y-104033837D03*
%TO.P,U2,V24*%
%TO.N,N/C*%
X67537686Y-104033837D03*
%TO.P,U2,V23*%
%TO.N,Net-(U2-PadV23)*%
X66737686Y-104033837D03*
%TO.P,U2,V22*%
%TO.N,N/C*%
X65937686Y-104033837D03*
%TO.P,U2,V21*%
%TO.N,Net-(U2-PadV21)*%
X65137686Y-104033837D03*
%TO.P,U2,V20*%
%TO.N,N/C*%
X64337686Y-104033837D03*
%TO.P,U2,V19*%
X63537686Y-104033837D03*
%TO.P,U2,V18*%
X62737686Y-104033837D03*
%TO.P,U2,V17*%
X61937686Y-104033837D03*
%TO.P,U2,V16*%
X61137686Y-104033837D03*
%TO.P,U2,V15*%
X60337686Y-104033837D03*
%TO.P,U2,V14*%
X59537686Y-104033837D03*
%TO.P,U2,V13*%
X58737686Y-104033837D03*
%TO.P,U2,V12*%
X57937686Y-104033837D03*
%TO.P,U2,V11*%
X57137686Y-104033837D03*
%TO.P,U2,V10*%
X56337686Y-104033837D03*
%TO.P,U2,V9*%
X55537686Y-104033837D03*
%TO.P,U2,V8*%
X54737686Y-104033837D03*
%TO.P,U2,V7*%
X53937686Y-104033837D03*
%TO.P,U2,V6*%
X53137686Y-104033837D03*
%TO.P,U2,V5*%
X52337686Y-104033837D03*
%TO.P,U2,V4*%
X51537686Y-104033837D03*
%TO.P,U2,V3*%
X50737686Y-104033837D03*
%TO.P,U2,V2*%
X49937686Y-104033837D03*
%TO.P,U2,V1*%
X49137686Y-104033837D03*
%TO.P,U2,U25*%
%TO.N,Net-(U2-PadU25)*%
X68337686Y-103233837D03*
%TO.P,U2,U24*%
%TO.N,Net-(U2-PadU24)*%
X67537686Y-103233837D03*
%TO.P,U2,U23*%
%TO.N,Net-(U2-PadU23)*%
X66737686Y-103233837D03*
%TO.P,U2,U22*%
%TO.N,Net-(U2-PadU22)*%
X65937686Y-103233837D03*
%TO.P,U2,U21*%
%TO.N,Net-(U2-PadU21)*%
X65137686Y-103233837D03*
%TO.P,U2,U20*%
%TO.N,N/C*%
X64337686Y-103233837D03*
%TO.P,U2,U19*%
X63537686Y-103233837D03*
%TO.P,U2,U18*%
X62737686Y-103233837D03*
%TO.P,U2,U17*%
X61937686Y-103233837D03*
%TO.P,U2,U16*%
X61137686Y-103233837D03*
%TO.P,U2,U15*%
X60337686Y-103233837D03*
%TO.P,U2,U14*%
X59537686Y-103233837D03*
%TO.P,U2,U13*%
X58737686Y-103233837D03*
%TO.P,U2,U12*%
X57937686Y-103233837D03*
%TO.P,U2,U11*%
X57137686Y-103233837D03*
%TO.P,U2,U10*%
X56337686Y-103233837D03*
%TO.P,U2,U9*%
X55537686Y-103233837D03*
%TO.P,U2,U8*%
X54737686Y-103233837D03*
%TO.P,U2,U7*%
X53937686Y-103233837D03*
%TO.P,U2,U6*%
X53137686Y-103233837D03*
%TO.P,U2,U5*%
X52337686Y-103233837D03*
%TO.P,U2,U4*%
X51537686Y-103233837D03*
%TO.P,U2,U3*%
X50737686Y-103233837D03*
%TO.P,U2,U2*%
X49937686Y-103233837D03*
%TO.P,U2,U1*%
X49137686Y-103233837D03*
%TO.P,U2,T25*%
%TO.N,Net-(U2-PadT25)*%
X68337686Y-102433837D03*
%TO.P,U2,T24*%
%TO.N,N/C*%
X67537686Y-102433837D03*
%TO.P,U2,T23*%
%TO.N,Net-(U2-PadT23)*%
X66737686Y-102433837D03*
%TO.P,U2,T22*%
%TO.N,N/C*%
X65937686Y-102433837D03*
%TO.P,U2,T21*%
%TO.N,Net-(U2-PadT21)*%
X65137686Y-102433837D03*
%TO.P,U2,T20*%
%TO.N,N/C*%
X64337686Y-102433837D03*
%TO.P,U2,T19*%
X63537686Y-102433837D03*
%TO.P,U2,T18*%
X62737686Y-102433837D03*
%TO.P,U2,T17*%
X61937686Y-102433837D03*
%TO.P,U2,T16*%
X61137686Y-102433837D03*
%TO.P,U2,T15*%
X60337686Y-102433837D03*
%TO.P,U2,T14*%
X59537686Y-102433837D03*
%TO.P,U2,T13*%
X58737686Y-102433837D03*
%TO.P,U2,T12*%
X57937686Y-102433837D03*
%TO.P,U2,T11*%
X57137686Y-102433837D03*
%TO.P,U2,T10*%
X56337686Y-102433837D03*
%TO.P,U2,T9*%
X55537686Y-102433837D03*
%TO.P,U2,T8*%
X54737686Y-102433837D03*
%TO.P,U2,T7*%
X53937686Y-102433837D03*
%TO.P,U2,T6*%
X53137686Y-102433837D03*
%TO.P,U2,T5*%
X52337686Y-102433837D03*
%TO.P,U2,T4*%
X51537686Y-102433837D03*
%TO.P,U2,T3*%
X50737686Y-102433837D03*
%TO.P,U2,T2*%
X49937686Y-102433837D03*
%TO.P,U2,T1*%
X49137686Y-102433837D03*
%TO.P,U2,R25*%
X68337686Y-101633837D03*
%TO.P,U2,R24*%
%TO.N,Net-(U2-PadR24)*%
X67537686Y-101633837D03*
%TO.P,U2,R23*%
%TO.N,N/C*%
X66737686Y-101633837D03*
%TO.P,U2,R22*%
%TO.N,Net-(U2-PadR22)*%
X65937686Y-101633837D03*
%TO.P,U2,R21*%
%TO.N,N/C*%
X65137686Y-101633837D03*
%TO.P,U2,R20*%
%TO.N,Net-(U2-PadR20)*%
X64337686Y-101633837D03*
%TO.P,U2,R19*%
%TO.N,N/C*%
X63537686Y-101633837D03*
%TO.P,U2,R18*%
X62737686Y-101633837D03*
%TO.P,U2,R17*%
X61937686Y-101633837D03*
%TO.P,U2,R16*%
X61137686Y-101633837D03*
%TO.P,U2,R15*%
X60337686Y-101633837D03*
%TO.P,U2,R14*%
X59537686Y-101633837D03*
%TO.P,U2,R13*%
X58737686Y-101633837D03*
%TO.P,U2,R12*%
X57937686Y-101633837D03*
%TO.P,U2,R11*%
X57137686Y-101633837D03*
%TO.P,U2,R10*%
X56337686Y-101633837D03*
%TO.P,U2,R9*%
X55537686Y-101633837D03*
%TO.P,U2,R8*%
X54737686Y-101633837D03*
%TO.P,U2,R7*%
X53937686Y-101633837D03*
%TO.P,U2,R6*%
X53137686Y-101633837D03*
%TO.P,U2,R5*%
X52337686Y-101633837D03*
%TO.P,U2,R4*%
X51537686Y-101633837D03*
%TO.P,U2,R3*%
X50737686Y-101633837D03*
%TO.P,U2,R2*%
X49937686Y-101633837D03*
%TO.P,U2,R1*%
X49137686Y-101633837D03*
%TO.P,U2,P25*%
%TO.N,Net-(U2-PadP25)*%
X68337686Y-100833837D03*
%TO.P,U2,P24*%
%TO.N,N/C*%
X67537686Y-100833837D03*
%TO.P,U2,P23*%
%TO.N,Net-(U2-PadP23)*%
X66737686Y-100833837D03*
%TO.P,U2,P22*%
%TO.N,N/C*%
X65937686Y-100833837D03*
%TO.P,U2,P21*%
%TO.N,Net-(U2-PadP21)*%
X65137686Y-100833837D03*
%TO.P,U2,P20*%
%TO.N,N/C*%
X64337686Y-100833837D03*
%TO.P,U2,P19*%
X63537686Y-100833837D03*
%TO.P,U2,P18*%
X62737686Y-100833837D03*
%TO.P,U2,P17*%
X61937686Y-100833837D03*
%TO.P,U2,P16*%
X61137686Y-100833837D03*
%TO.P,U2,P15*%
X60337686Y-100833837D03*
%TO.P,U2,P14*%
X59537686Y-100833837D03*
%TO.P,U2,P13*%
X58737686Y-100833837D03*
%TO.P,U2,P12*%
X57937686Y-100833837D03*
%TO.P,U2,P11*%
X57137686Y-100833837D03*
%TO.P,U2,P10*%
X56337686Y-100833837D03*
%TO.P,U2,P9*%
X55537686Y-100833837D03*
%TO.P,U2,P8*%
X54737686Y-100833837D03*
%TO.P,U2,P7*%
X53937686Y-100833837D03*
%TO.P,U2,P6*%
X53137686Y-100833837D03*
%TO.P,U2,P5*%
X52337686Y-100833837D03*
%TO.P,U2,P4*%
X51537686Y-100833837D03*
%TO.P,U2,P3*%
X50737686Y-100833837D03*
%TO.P,U2,P2*%
X49937686Y-100833837D03*
%TO.P,U2,P1*%
X49137686Y-100833837D03*
%TO.P,U2,N25*%
%TO.N,Net-(U2-PadN25)*%
X68337686Y-100033837D03*
%TO.P,U2,N24*%
%TO.N,Net-(U2-PadN24)*%
X67537686Y-100033837D03*
%TO.P,U2,N23*%
%TO.N,Net-(U2-PadN23)*%
X66737686Y-100033837D03*
%TO.P,U2,N22*%
%TO.N,Net-(U2-PadN22)*%
X65937686Y-100033837D03*
%TO.P,U2,N21*%
%TO.N,Net-(U2-PadN21)*%
X65137686Y-100033837D03*
%TO.P,U2,N20*%
%TO.N,N/C*%
X64337686Y-100033837D03*
%TO.P,U2,N19*%
X63537686Y-100033837D03*
%TO.P,U2,N18*%
X62737686Y-100033837D03*
%TO.P,U2,N17*%
X61937686Y-100033837D03*
%TO.P,U2,N16*%
X61137686Y-100033837D03*
%TO.P,U2,N15*%
X60337686Y-100033837D03*
%TO.P,U2,N14*%
X59537686Y-100033837D03*
%TO.P,U2,N13*%
X58737686Y-100033837D03*
%TO.P,U2,N12*%
X57937686Y-100033837D03*
%TO.P,U2,N11*%
X57137686Y-100033837D03*
%TO.P,U2,N10*%
X56337686Y-100033837D03*
%TO.P,U2,N9*%
X55537686Y-100033837D03*
%TO.P,U2,N8*%
X54737686Y-100033837D03*
%TO.P,U2,N7*%
X53937686Y-100033837D03*
%TO.P,U2,N6*%
X53137686Y-100033837D03*
%TO.P,U2,N5*%
X52337686Y-100033837D03*
%TO.P,U2,N4*%
X51537686Y-100033837D03*
%TO.P,U2,N3*%
X50737686Y-100033837D03*
%TO.P,U2,N2*%
X49937686Y-100033837D03*
%TO.P,U2,N1*%
X49137686Y-100033837D03*
%TO.P,U2,M25*%
%TO.N,Net-(U2-PadM25)*%
X68337686Y-99233837D03*
%TO.P,U2,M24*%
%TO.N,Net-(U2-PadM24)*%
X67537686Y-99233837D03*
%TO.P,U2,M23*%
%TO.N,Net-(U2-PadM23)*%
X66737686Y-99233837D03*
%TO.P,U2,M22*%
%TO.N,N/C*%
X65937686Y-99233837D03*
%TO.P,U2,M21*%
%TO.N,Net-(U2-PadM21)*%
X65137686Y-99233837D03*
%TO.P,U2,M20*%
%TO.N,N/C*%
X64337686Y-99233837D03*
%TO.P,U2,M19*%
X63537686Y-99233837D03*
%TO.P,U2,M18*%
X62737686Y-99233837D03*
%TO.P,U2,M17*%
X61937686Y-99233837D03*
%TO.P,U2,M16*%
X61137686Y-99233837D03*
%TO.P,U2,M15*%
X60337686Y-99233837D03*
%TO.P,U2,M14*%
X59537686Y-99233837D03*
%TO.P,U2,M13*%
X58737686Y-99233837D03*
%TO.P,U2,M12*%
X57937686Y-99233837D03*
%TO.P,U2,M11*%
X57137686Y-99233837D03*
%TO.P,U2,M10*%
X56337686Y-99233837D03*
%TO.P,U2,M9*%
X55537686Y-99233837D03*
%TO.P,U2,M8*%
X54737686Y-99233837D03*
%TO.P,U2,M7*%
X53937686Y-99233837D03*
%TO.P,U2,M6*%
X53137686Y-99233837D03*
%TO.P,U2,M5*%
X52337686Y-99233837D03*
%TO.P,U2,M4*%
X51537686Y-99233837D03*
%TO.P,U2,M3*%
X50737686Y-99233837D03*
%TO.P,U2,M2*%
X49937686Y-99233837D03*
%TO.P,U2,M1*%
X49137686Y-99233837D03*
%TO.P,U2,L25*%
%TO.N,Net-(U2-PadL25)*%
X68337686Y-98433837D03*
%TO.P,U2,L24*%
%TO.N,N/C*%
X67537686Y-98433837D03*
%TO.P,U2,L23*%
%TO.N,Net-(U2-PadL23)*%
X66737686Y-98433837D03*
%TO.P,U2,L22*%
%TO.N,Net-(U2-PadL22)*%
X65937686Y-98433837D03*
%TO.P,U2,L21*%
%TO.N,Net-(U2-PadL21)*%
X65137686Y-98433837D03*
%TO.P,U2,L20*%
%TO.N,N/C*%
X64337686Y-98433837D03*
%TO.P,U2,L19*%
X63537686Y-98433837D03*
%TO.P,U2,L18*%
X62737686Y-98433837D03*
%TO.P,U2,L17*%
X61937686Y-98433837D03*
%TO.P,U2,L16*%
X61137686Y-98433837D03*
%TO.P,U2,L15*%
X60337686Y-98433837D03*
%TO.P,U2,L14*%
X59537686Y-98433837D03*
%TO.P,U2,L13*%
X58737686Y-98433837D03*
%TO.P,U2,L12*%
X57937686Y-98433837D03*
%TO.P,U2,L11*%
X57137686Y-98433837D03*
%TO.P,U2,L10*%
X56337686Y-98433837D03*
%TO.P,U2,L9*%
X55537686Y-98433837D03*
%TO.P,U2,L8*%
X54737686Y-98433837D03*
%TO.P,U2,L7*%
X53937686Y-98433837D03*
%TO.P,U2,L6*%
X53137686Y-98433837D03*
%TO.P,U2,L5*%
X52337686Y-98433837D03*
%TO.P,U2,L4*%
X51537686Y-98433837D03*
%TO.P,U2,L3*%
X50737686Y-98433837D03*
%TO.P,U2,L2*%
X49937686Y-98433837D03*
%TO.P,U2,L1*%
X49137686Y-98433837D03*
%TO.P,U2,K25*%
%TO.N,Net-(U2-PadK25)*%
X68337686Y-97633837D03*
%TO.P,U2,K24*%
%TO.N,Net-(U2-PadK24)*%
X67537686Y-97633837D03*
%TO.P,U2,K23*%
%TO.N,Net-(U2-PadK23)*%
X66737686Y-97633837D03*
%TO.P,U2,K22*%
%TO.N,N/C*%
X65937686Y-97633837D03*
%TO.P,U2,K21*%
%TO.N,Net-(U2-PadK21)*%
X65137686Y-97633837D03*
%TO.P,U2,K20*%
%TO.N,N/C*%
X64337686Y-97633837D03*
%TO.P,U2,K19*%
X63537686Y-97633837D03*
%TO.P,U2,K18*%
X62737686Y-97633837D03*
%TO.P,U2,K17*%
X61937686Y-97633837D03*
%TO.P,U2,K16*%
X61137686Y-97633837D03*
%TO.P,U2,K15*%
X60337686Y-97633837D03*
%TO.P,U2,K14*%
X59537686Y-97633837D03*
%TO.P,U2,K13*%
X58737686Y-97633837D03*
%TO.P,U2,K12*%
X57937686Y-97633837D03*
%TO.P,U2,K11*%
X57137686Y-97633837D03*
%TO.P,U2,K10*%
X56337686Y-97633837D03*
%TO.P,U2,K9*%
X55537686Y-97633837D03*
%TO.P,U2,K8*%
X54737686Y-97633837D03*
%TO.P,U2,K7*%
X53937686Y-97633837D03*
%TO.P,U2,K6*%
X53137686Y-97633837D03*
%TO.P,U2,K5*%
X52337686Y-97633837D03*
%TO.P,U2,K4*%
X51537686Y-97633837D03*
%TO.P,U2,K3*%
X50737686Y-97633837D03*
%TO.P,U2,K2*%
X49937686Y-97633837D03*
%TO.P,U2,K1*%
X49137686Y-97633837D03*
%TO.P,U2,J25*%
%TO.N,Net-(U2-PadJ25)*%
X68337686Y-96833837D03*
%TO.P,U2,J24*%
%TO.N,N/C*%
X67537686Y-96833837D03*
%TO.P,U2,J23*%
%TO.N,Net-(U2-PadJ23)*%
X66737686Y-96833837D03*
%TO.P,U2,J22*%
%TO.N,Net-(U2-PadJ22)*%
X65937686Y-96833837D03*
%TO.P,U2,J21*%
%TO.N,Net-(U2-PadJ21)*%
X65137686Y-96833837D03*
%TO.P,U2,J20*%
%TO.N,N/C*%
X64337686Y-96833837D03*
%TO.P,U2,J19*%
X63537686Y-96833837D03*
%TO.P,U2,J18*%
X62737686Y-96833837D03*
%TO.P,U2,J17*%
X61937686Y-96833837D03*
%TO.P,U2,J16*%
X61137686Y-96833837D03*
%TO.P,U2,J15*%
X60337686Y-96833837D03*
%TO.P,U2,J14*%
X59537686Y-96833837D03*
%TO.P,U2,J13*%
X58737686Y-96833837D03*
%TO.P,U2,J12*%
X57937686Y-96833837D03*
%TO.P,U2,J11*%
X57137686Y-96833837D03*
%TO.P,U2,J10*%
X56337686Y-96833837D03*
%TO.P,U2,J9*%
X55537686Y-96833837D03*
%TO.P,U2,J8*%
X54737686Y-96833837D03*
%TO.P,U2,J7*%
X53937686Y-96833837D03*
%TO.P,U2,J6*%
X53137686Y-96833837D03*
%TO.P,U2,J5*%
X52337686Y-96833837D03*
%TO.P,U2,J4*%
X51537686Y-96833837D03*
%TO.P,U2,J3*%
X50737686Y-96833837D03*
%TO.P,U2,J2*%
X49937686Y-96833837D03*
%TO.P,U2,J1*%
X49137686Y-96833837D03*
%TO.P,U2,H25*%
%TO.N,Net-(U2-PadH25)*%
X68337686Y-96033837D03*
%TO.P,U2,H24*%
%TO.N,Net-(U2-PadH24)*%
X67537686Y-96033837D03*
%TO.P,U2,H23*%
%TO.N,Net-(U2-PadH23)*%
X66737686Y-96033837D03*
%TO.P,U2,H22*%
%TO.N,Net-(U2-PadH22)*%
X65937686Y-96033837D03*
%TO.P,U2,H21*%
%TO.N,Net-(U2-PadH21)*%
X65137686Y-96033837D03*
%TO.P,U2,H20*%
%TO.N,N/C*%
X64337686Y-96033837D03*
%TO.P,U2,H19*%
%TO.N,Net-(U2-PadH19)*%
X63537686Y-96033837D03*
%TO.P,U2,H18*%
%TO.N,N/C*%
X62737686Y-96033837D03*
%TO.P,U2,H17*%
X61937686Y-96033837D03*
%TO.P,U2,H16*%
X61137686Y-96033837D03*
%TO.P,U2,H15*%
X60337686Y-96033837D03*
%TO.P,U2,H14*%
X59537686Y-96033837D03*
%TO.P,U2,H13*%
X58737686Y-96033837D03*
%TO.P,U2,H12*%
X57937686Y-96033837D03*
%TO.P,U2,H11*%
X57137686Y-96033837D03*
%TO.P,U2,H10*%
X56337686Y-96033837D03*
%TO.P,U2,H9*%
X55537686Y-96033837D03*
%TO.P,U2,H8*%
X54737686Y-96033837D03*
%TO.P,U2,H7*%
X53937686Y-96033837D03*
%TO.P,U2,H6*%
X53137686Y-96033837D03*
%TO.P,U2,H5*%
X52337686Y-96033837D03*
%TO.P,U2,H4*%
X51537686Y-96033837D03*
%TO.P,U2,H3*%
X50737686Y-96033837D03*
%TO.P,U2,H2*%
X49937686Y-96033837D03*
%TO.P,U2,H1*%
X49137686Y-96033837D03*
%TO.P,U2,G25*%
%TO.N,Net-(U2-PadG25)*%
X68337686Y-95233837D03*
%TO.P,U2,G24*%
%TO.N,N/C*%
X67537686Y-95233837D03*
%TO.P,U2,G23*%
%TO.N,Net-(U2-PadG23)*%
X66737686Y-95233837D03*
%TO.P,U2,G22*%
%TO.N,N/C*%
X65937686Y-95233837D03*
%TO.P,U2,G21*%
%TO.N,Net-(U2-PadG21)*%
X65137686Y-95233837D03*
%TO.P,U2,G20*%
%TO.N,N/C*%
X64337686Y-95233837D03*
%TO.P,U2,G19*%
X63537686Y-95233837D03*
%TO.P,U2,G18*%
X62737686Y-95233837D03*
%TO.P,U2,G17*%
X61937686Y-95233837D03*
%TO.P,U2,G16*%
X61137686Y-95233837D03*
%TO.P,U2,G15*%
X60337686Y-95233837D03*
%TO.P,U2,G14*%
X59537686Y-95233837D03*
%TO.P,U2,G13*%
X58737686Y-95233837D03*
%TO.P,U2,G12*%
X57937686Y-95233837D03*
%TO.P,U2,G11*%
X57137686Y-95233837D03*
%TO.P,U2,G10*%
X56337686Y-95233837D03*
%TO.P,U2,G9*%
X55537686Y-95233837D03*
%TO.P,U2,G8*%
X54737686Y-95233837D03*
%TO.P,U2,G7*%
X53937686Y-95233837D03*
%TO.P,U2,G6*%
X53137686Y-95233837D03*
%TO.P,U2,G5*%
X52337686Y-95233837D03*
%TO.P,U2,G4*%
X51537686Y-95233837D03*
%TO.P,U2,G3*%
X50737686Y-95233837D03*
%TO.P,U2,G2*%
X49937686Y-95233837D03*
%TO.P,U2,G1*%
X49137686Y-95233837D03*
%TO.P,U2,F25*%
%TO.N,Net-(U2-PadF25)*%
X68337686Y-94433837D03*
%TO.P,U2,F24*%
%TO.N,Net-(U2-PadF24)*%
X67537686Y-94433837D03*
%TO.P,U2,F23*%
%TO.N,Net-(U2-PadF23)*%
X66737686Y-94433837D03*
%TO.P,U2,F22*%
%TO.N,Net-(U2-PadF22)*%
X65937686Y-94433837D03*
%TO.P,U2,F21*%
%TO.N,N/C*%
X65137686Y-94433837D03*
%TO.P,U2,F20*%
X64337686Y-94433837D03*
%TO.P,U2,F19*%
X63537686Y-94433837D03*
%TO.P,U2,F18*%
X62737686Y-94433837D03*
%TO.P,U2,F17*%
X61937686Y-94433837D03*
%TO.P,U2,F16*%
X61137686Y-94433837D03*
%TO.P,U2,F15*%
X60337686Y-94433837D03*
%TO.P,U2,F14*%
X59537686Y-94433837D03*
%TO.P,U2,F13*%
X58737686Y-94433837D03*
%TO.P,U2,F12*%
X57937686Y-94433837D03*
%TO.P,U2,F11*%
X57137686Y-94433837D03*
%TO.P,U2,F10*%
X56337686Y-94433837D03*
%TO.P,U2,F9*%
X55537686Y-94433837D03*
%TO.P,U2,F8*%
X54737686Y-94433837D03*
%TO.P,U2,F7*%
X53937686Y-94433837D03*
%TO.P,U2,F6*%
X53137686Y-94433837D03*
%TO.P,U2,F5*%
X52337686Y-94433837D03*
%TO.P,U2,F4*%
X51537686Y-94433837D03*
%TO.P,U2,F3*%
X50737686Y-94433837D03*
%TO.P,U2,F2*%
X49937686Y-94433837D03*
%TO.P,U2,F1*%
X49137686Y-94433837D03*
%TO.P,U2,E25*%
%TO.N,Net-(U2-PadE25)*%
X68337686Y-93633837D03*
%TO.P,U2,E24*%
%TO.N,N/C*%
X67537686Y-93633837D03*
%TO.P,U2,E23*%
%TO.N,Net-(U2-PadE23)*%
X66737686Y-93633837D03*
%TO.P,U2,E22*%
%TO.N,N/C*%
X65937686Y-93633837D03*
%TO.P,U2,E21*%
X65137686Y-93633837D03*
%TO.P,U2,E20*%
X64337686Y-93633837D03*
%TO.P,U2,E19*%
X63537686Y-93633837D03*
%TO.P,U2,E18*%
X62737686Y-93633837D03*
%TO.P,U2,E17*%
X61937686Y-93633837D03*
%TO.P,U2,E16*%
X61137686Y-93633837D03*
%TO.P,U2,E15*%
X60337686Y-93633837D03*
%TO.P,U2,E14*%
X59537686Y-93633837D03*
%TO.P,U2,E13*%
X58737686Y-93633837D03*
%TO.P,U2,E12*%
X57937686Y-93633837D03*
%TO.P,U2,E11*%
X57137686Y-93633837D03*
%TO.P,U2,E10*%
X56337686Y-93633837D03*
%TO.P,U2,E9*%
X55537686Y-93633837D03*
%TO.P,U2,E8*%
X54737686Y-93633837D03*
%TO.P,U2,E7*%
X53937686Y-93633837D03*
%TO.P,U2,E6*%
X53137686Y-93633837D03*
%TO.P,U2,E5*%
X52337686Y-93633837D03*
%TO.P,U2,E4*%
X51537686Y-93633837D03*
%TO.P,U2,E3*%
X50737686Y-93633837D03*
%TO.P,U2,E2*%
X49937686Y-93633837D03*
%TO.P,U2,E1*%
X49137686Y-93633837D03*
%TO.P,U2,D25*%
%TO.N,Net-(U2-PadD25)*%
X68337686Y-92833837D03*
%TO.P,U2,D24*%
%TO.N,Net-(U2-PadD24)*%
X67537686Y-92833837D03*
%TO.P,U2,D23*%
%TO.N,Net-(U2-PadD23)*%
X66737686Y-92833837D03*
%TO.P,U2,D22*%
%TO.N,Net-(U2-PadD22)*%
X65937686Y-92833837D03*
%TO.P,U2,D21*%
%TO.N,N/C*%
X65137686Y-92833837D03*
%TO.P,U2,D20*%
X64337686Y-92833837D03*
%TO.P,U2,D19*%
X63537686Y-92833837D03*
%TO.P,U2,D18*%
X62737686Y-92833837D03*
%TO.P,U2,D17*%
X61937686Y-92833837D03*
%TO.P,U2,D16*%
X61137686Y-92833837D03*
%TO.P,U2,D15*%
X60337686Y-92833837D03*
%TO.P,U2,D14*%
X59537686Y-92833837D03*
%TO.P,U2,D13*%
X58737686Y-92833837D03*
%TO.P,U2,D12*%
X57937686Y-92833837D03*
%TO.P,U2,D11*%
X57137686Y-92833837D03*
%TO.P,U2,D10*%
X56337686Y-92833837D03*
%TO.P,U2,D9*%
X55537686Y-92833837D03*
%TO.P,U2,D8*%
X54737686Y-92833837D03*
%TO.P,U2,D7*%
X53937686Y-92833837D03*
%TO.P,U2,D6*%
X53137686Y-92833837D03*
%TO.P,U2,D5*%
X52337686Y-92833837D03*
%TO.P,U2,D4*%
X51537686Y-92833837D03*
%TO.P,U2,D3*%
X50737686Y-92833837D03*
%TO.P,U2,D2*%
X49937686Y-92833837D03*
%TO.P,U2,D1*%
X49137686Y-92833837D03*
%TO.P,U2,C25*%
%TO.N,Net-(U2-PadC25)*%
X68337686Y-92033837D03*
%TO.P,U2,C24*%
%TO.N,Net-(U2-PadC24)*%
X67537686Y-92033837D03*
%TO.P,U2,C23*%
%TO.N,N/C*%
X66737686Y-92033837D03*
%TO.P,U2,C22*%
%TO.N,Net-(U2-PadC22)*%
X65937686Y-92033837D03*
%TO.P,U2,C21*%
%TO.N,N/C*%
X65137686Y-92033837D03*
%TO.P,U2,C20*%
X64337686Y-92033837D03*
%TO.P,U2,C19*%
X63537686Y-92033837D03*
%TO.P,U2,C18*%
X62737686Y-92033837D03*
%TO.P,U2,C17*%
X61937686Y-92033837D03*
%TO.P,U2,C16*%
X61137686Y-92033837D03*
%TO.P,U2,C15*%
X60337686Y-92033837D03*
%TO.P,U2,C14*%
X59537686Y-92033837D03*
%TO.P,U2,C13*%
X58737686Y-92033837D03*
%TO.P,U2,C12*%
X57937686Y-92033837D03*
%TO.P,U2,C11*%
X57137686Y-92033837D03*
%TO.P,U2,C10*%
X56337686Y-92033837D03*
%TO.P,U2,C9*%
X55537686Y-92033837D03*
%TO.P,U2,C8*%
X54737686Y-92033837D03*
%TO.P,U2,C7*%
X53937686Y-92033837D03*
%TO.P,U2,C6*%
X53137686Y-92033837D03*
%TO.P,U2,C5*%
X52337686Y-92033837D03*
%TO.P,U2,C4*%
X51537686Y-92033837D03*
%TO.P,U2,C3*%
X50737686Y-92033837D03*
%TO.P,U2,C2*%
X49937686Y-92033837D03*
%TO.P,U2,C1*%
X49137686Y-92033837D03*
%TO.P,U2,B25*%
X68337686Y-91233837D03*
%TO.P,U2,B24*%
%TO.N,Net-(U2-PadB24)*%
X67537686Y-91233837D03*
%TO.P,U2,B23*%
%TO.N,Net-(U2-PadB23)*%
X66737686Y-91233837D03*
%TO.P,U2,B22*%
%TO.N,Net-(U2-PadB22)*%
X65937686Y-91233837D03*
%TO.P,U2,B21*%
%TO.N,N/C*%
X65137686Y-91233837D03*
%TO.P,U2,B20*%
X64337686Y-91233837D03*
%TO.P,U2,B19*%
X63537686Y-91233837D03*
%TO.P,U2,B18*%
X62737686Y-91233837D03*
%TO.P,U2,B17*%
X61937686Y-91233837D03*
%TO.P,U2,B16*%
X61137686Y-91233837D03*
%TO.P,U2,B15*%
X60337686Y-91233837D03*
%TO.P,U2,B14*%
X59537686Y-91233837D03*
%TO.P,U2,B13*%
X58737686Y-91233837D03*
%TO.P,U2,B12*%
X57937686Y-91233837D03*
%TO.P,U2,B11*%
X57137686Y-91233837D03*
%TO.P,U2,B10*%
X56337686Y-91233837D03*
%TO.P,U2,B9*%
X55537686Y-91233837D03*
%TO.P,U2,B8*%
X54737686Y-91233837D03*
%TO.P,U2,B7*%
X53937686Y-91233837D03*
%TO.P,U2,B6*%
X53137686Y-91233837D03*
%TO.P,U2,B5*%
X52337686Y-91233837D03*
%TO.P,U2,B4*%
X51537686Y-91233837D03*
%TO.P,U2,B3*%
X50737686Y-91233837D03*
%TO.P,U2,B2*%
X49937686Y-91233837D03*
%TO.P,U2,B1*%
X49137686Y-91233837D03*
%TO.P,U2,A24*%
X67537686Y-90433837D03*
%TO.P,U2,A23*%
%TO.N,Net-(U2-PadA23)*%
X66737686Y-90433837D03*
%TO.P,U2,A22*%
%TO.N,Net-(U2-PadA22)*%
X65937686Y-90433837D03*
%TO.P,U2,A21*%
%TO.N,N/C*%
X65137686Y-90433837D03*
%TO.P,U2,A20*%
X64337686Y-90433837D03*
%TO.P,U2,A19*%
X63537686Y-90433837D03*
%TO.P,U2,A18*%
X62737686Y-90433837D03*
%TO.P,U2,A17*%
X61937686Y-90433837D03*
%TO.P,U2,A16*%
X61137686Y-90433837D03*
%TO.P,U2,A15*%
X60337686Y-90433837D03*
%TO.P,U2,A14*%
X59537686Y-90433837D03*
%TO.P,U2,A13*%
X58737686Y-90433837D03*
%TO.P,U2,A12*%
X57937686Y-90433837D03*
%TO.P,U2,A11*%
X57137686Y-90433837D03*
%TO.P,U2,A10*%
X56337686Y-90433837D03*
%TO.P,U2,A9*%
X55537686Y-90433837D03*
%TO.P,U2,A8*%
X54737686Y-90433837D03*
%TO.P,U2,A7*%
X53937686Y-90433837D03*
%TO.P,U2,A6*%
X53137686Y-90433837D03*
%TO.P,U2,A5*%
X52337686Y-90433837D03*
%TO.P,U2,A4*%
X51537686Y-90433837D03*
%TO.P,U2,A3*%
X50737686Y-90433837D03*
%TO.P,U2,A2*%
X49937686Y-90433837D03*
%TD*%
D13*
%TO.P,U1,1*%
%TO.N,Net-(U1-Pad1)*%
X101050001Y-120125001D03*
%TO.P,U1,2*%
%TO.N,Net-(U1-Pad2)*%
X101050001Y-120775002D03*
%TO.P,U1,3*%
%TO.N,Net-(U1-Pad3)*%
X101050001Y-121425001D03*
%TO.P,U1,4*%
%TO.N,Net-(U1-Pad4)*%
X101050001Y-122075002D03*
%TO.P,U1,5*%
%TO.N,Net-(U1-Pad5)*%
X101050001Y-122725001D03*
%TO.P,U1,6*%
%TO.N,Net-(U1-Pad6)*%
X101050001Y-123375002D03*
%TO.P,U1,7*%
%TO.N,Net-(U1-Pad7)*%
X101050001Y-124025001D03*
%TO.P,U1,8*%
%TO.N,Net-(U1-Pad8)*%
X101050001Y-124675002D03*
%TO.P,U1,9*%
%TO.N,Net-(U1-Pad9)*%
X106950002Y-124675002D03*
%TO.P,U1,10*%
%TO.N,Net-(U1-Pad10)*%
X106950002Y-124025001D03*
%TO.P,U1,11*%
%TO.N,Net-(U1-Pad11)*%
X106950002Y-123375002D03*
%TO.P,U1,12*%
%TO.N,Net-(U1-Pad12)*%
X106950002Y-122725001D03*
%TO.P,U1,13*%
%TO.N,Net-(U1-Pad13)*%
X106950002Y-122075002D03*
%TO.P,U1,14*%
%TO.N,Net-(U1-Pad14)*%
X106950002Y-121425001D03*
%TO.P,U1,15*%
%TO.N,Net-(U1-Pad15)*%
X106950002Y-120775002D03*
%TO.P,U1,16*%
%TO.N,Net-(U1-Pad16)*%
X106950002Y-120125001D03*
D14*
%TO.P,U1,17*%
%TO.N,Net-(U1-Pad17)*%
X104000000Y-122400000D03*
D15*
%TO.P,U1,V*%
%TO.N,N/C*%
X103525000Y-121449999D03*
X103525000Y-123350001D03*
X103525000Y-122400000D03*
X104475000Y-122400000D03*
X104475000Y-123350001D03*
X104475000Y-121449999D03*
X104475000Y-120499999D03*
X103525000Y-120499999D03*
X103525000Y-124300001D03*
X104475000Y-124300001D03*
X105425001Y-124300001D03*
X105425001Y-120499999D03*
X105425001Y-121449999D03*
X105425001Y-123350001D03*
X105425001Y-122400000D03*
X102574999Y-122400000D03*
X102574999Y-123350001D03*
X102574999Y-121449999D03*
X102574999Y-120499999D03*
X102574999Y-124300001D03*
%TD*%
D16*
%TO.N,*%
X66340000Y-106030000D03*
X66340000Y-104430000D03*
%TO.N,GND*%
X66340000Y-106830000D03*
%TO.N,Net-(U2-PadW22)*%
X66340000Y-105230000D03*
%TO.N,Net-(U2-PadU22)*%
X66340000Y-103630000D03*
%TO.N,Net-(U2-PadN23)*%
X67140000Y-100430000D03*
%TD*%
D17*
%TO.N,*%
X65937686Y-105633837D02*
X65943837Y-105633837D01*
X65943837Y-105633837D02*
X66340000Y-106030000D01*
X65937686Y-104033837D02*
X66333849Y-104430000D01*
X66333849Y-104430000D02*
X66340000Y-104430000D01*
X67537686Y-100833837D02*
X67933849Y-101230000D01*
X67933849Y-101230000D02*
X69940000Y-101230000D01*
%TO.N,GND*%
X65937686Y-106433837D02*
X66323849Y-106820000D01*
X66323849Y-106820000D02*
X66339042Y-106820000D01*
X66339042Y-106820000D02*
X66339514Y-106820472D01*
%TO.N,Net-(U2-PadW22)*%
X65937686Y-104833837D02*
X66333849Y-105230000D01*
X66333849Y-105230000D02*
X66340000Y-105230000D01*
%TO.N,Net-(U2-PadV25)*%
X68337686Y-104033837D02*
X69936163Y-104033837D01*
%TO.N,Net-(U2-PadU25)*%
X68337686Y-103233837D02*
X69936163Y-103233837D01*
%TO.N,Net-(U2-PadU22)*%
X65937686Y-103233837D02*
X66333849Y-103630000D01*
X66333849Y-103630000D02*
X66340000Y-103630000D01*
%TO.N,Net-(U2-PadT25)*%
X68337686Y-102433837D02*
X69936163Y-102433837D01*
%TO.N,Net-(U2-PadT23)*%
X66737686Y-102433837D02*
X67133849Y-102830000D01*
X67133849Y-102830000D02*
X69940000Y-102830000D01*
%TO.N,Net-(U2-PadR24)*%
X67537686Y-101633837D02*
X67933849Y-102030000D01*
X67933849Y-102030000D02*
X69940000Y-102030000D01*
%TO.N,Net-(U2-PadN24)*%
X67537686Y-100033837D02*
X67933849Y-100430000D01*
X67933849Y-100430000D02*
X69940000Y-100430000D01*
%TO.N,Net-(U2-PadN23)*%
X66737686Y-100033837D02*
X67133849Y-100430000D01*
X67133849Y-100430000D02*
X67140000Y-100430000D01*
%TD*%
D18*
G36*
X142873000Y-52873000D02*
G01*
X7127000Y-52873000D01*
X7127000Y-16127000D01*
X142873000Y-16127000D01*
X142873000Y-52873000D01*
G37*
X142873000Y-52873000D02*
X7127000Y-52873000D01*
X7127000Y-16127000D01*
X142873000Y-16127000D01*
X142873000Y-52873000D01*
M02*
