%TF.GenerationSoftware,KiCad,Pcbnew,5.99.0-unknown-283d176cdc~117~ubuntu20.04.1*%
%TF.CreationDate,2021-02-27T14:47:20-06:00*%
%TF.ProjectId,Patches-Wider,50617463-6865-4732-9d57-696465722e6b,rev?*%
%TF.SameCoordinates,Original*%
%TF.FileFunction,Copper,L1,Top*%
%TF.FilePolarity,Positive*%
%FSLAX46Y46*%
G04 Gerber Fmt 4.6, Leading zero omitted, Abs format (unit mm)*
G04 Created by KiCad (PCBNEW 5.99.0-unknown-283d176cdc~117~ubuntu20.04.1) date 2021-02-27 14:47:20*
%MOMM*%
%LPD*%
G01*
G04 APERTURE LIST*
%TA.AperFunction,EtchedComponent*%
%ADD10C,0.000100*%
%TD*%
%TA.AperFunction,ComponentPad*%
%ADD11C,2.900000*%
%TD*%
%TA.AperFunction,ConnectorPad*%
%ADD12C,5.000000*%
%TD*%
G04 APERTURE END LIST*
D10*
%TO.C,REF\u002A\u002A*%
X130202796Y-188767767D02*
X116767767Y-202202796D01*
X116767767Y-202202796D02*
X99797204Y-185232233D01*
X99797204Y-185232233D02*
X113232233Y-171797204D01*
X113232233Y-171797204D02*
X130202796Y-188767767D01*
G36*
X130202796Y-188767767D02*
G01*
X116767767Y-202202796D01*
X99797204Y-185232233D01*
X113232233Y-171797204D01*
X130202796Y-188767767D01*
G37*
X130202796Y-156767767D02*
X116767767Y-170202796D01*
X116767767Y-170202796D02*
X99797204Y-153232233D01*
X99797204Y-153232233D02*
X113232233Y-139797204D01*
X113232233Y-139797204D02*
X130202796Y-156767767D01*
G36*
X130202796Y-156767767D02*
G01*
X116767767Y-170202796D01*
X99797204Y-153232233D01*
X113232233Y-139797204D01*
X130202796Y-156767767D01*
G37*
X65232233Y-87202796D02*
X51797204Y-73767767D01*
X51797204Y-73767767D02*
X68767767Y-56797204D01*
X68767767Y-56797204D02*
X82202796Y-70232233D01*
X82202796Y-70232233D02*
X65232233Y-87202796D01*
G36*
X65232233Y-87202796D02*
G01*
X51797204Y-73767767D01*
X68767767Y-56797204D01*
X82202796Y-70232233D01*
X65232233Y-87202796D01*
G37*
X33232233Y-87202796D02*
X19797204Y-73767767D01*
X19797204Y-73767767D02*
X36767767Y-56797204D01*
X36767767Y-56797204D02*
X50202796Y-70232233D01*
X50202796Y-70232233D02*
X33232233Y-87202796D01*
G36*
X33232233Y-87202796D02*
G01*
X19797204Y-73767767D01*
X36767767Y-56797204D01*
X50202796Y-70232233D01*
X33232233Y-87202796D01*
G37*
X33232233Y-55202796D02*
X19797204Y-41767767D01*
X19797204Y-41767767D02*
X36767767Y-24797204D01*
X36767767Y-24797204D02*
X50202796Y-38232233D01*
X50202796Y-38232233D02*
X33232233Y-55202796D01*
G36*
X33232233Y-55202796D02*
G01*
X19797204Y-41767767D01*
X36767767Y-24797204D01*
X50202796Y-38232233D01*
X33232233Y-55202796D01*
G37*
X145232233Y-87202796D02*
X131797204Y-73767767D01*
X131797204Y-73767767D02*
X148767767Y-56797204D01*
X148767767Y-56797204D02*
X162202796Y-70232233D01*
X162202796Y-70232233D02*
X145232233Y-87202796D01*
G36*
X145232233Y-87202796D02*
G01*
X131797204Y-73767767D01*
X148767767Y-56797204D01*
X162202796Y-70232233D01*
X145232233Y-87202796D01*
G37*
X82202796Y-156767767D02*
X68767767Y-170202796D01*
X68767767Y-170202796D02*
X51797204Y-153232233D01*
X51797204Y-153232233D02*
X65232233Y-139797204D01*
X65232233Y-139797204D02*
X82202796Y-156767767D01*
G36*
X82202796Y-156767767D02*
G01*
X68767767Y-170202796D01*
X51797204Y-153232233D01*
X65232233Y-139797204D01*
X82202796Y-156767767D01*
G37*
X65232233Y-55202796D02*
X51797204Y-41767767D01*
X51797204Y-41767767D02*
X68767767Y-24797204D01*
X68767767Y-24797204D02*
X82202796Y-38232233D01*
X82202796Y-38232233D02*
X65232233Y-55202796D01*
G36*
X65232233Y-55202796D02*
G01*
X51797204Y-41767767D01*
X68767767Y-24797204D01*
X82202796Y-38232233D01*
X65232233Y-55202796D01*
G37*
X82202796Y-188767767D02*
X68767767Y-202202796D01*
X68767767Y-202202796D02*
X51797204Y-185232233D01*
X51797204Y-185232233D02*
X65232233Y-171797204D01*
X65232233Y-171797204D02*
X82202796Y-188767767D01*
G36*
X82202796Y-188767767D02*
G01*
X68767767Y-202202796D01*
X51797204Y-185232233D01*
X65232233Y-171797204D01*
X82202796Y-188767767D01*
G37*
X162202796Y-188767767D02*
X148767767Y-202202796D01*
X148767767Y-202202796D02*
X131797204Y-185232233D01*
X131797204Y-185232233D02*
X145232233Y-171797204D01*
X145232233Y-171797204D02*
X162202796Y-188767767D01*
G36*
X162202796Y-188767767D02*
G01*
X148767767Y-202202796D01*
X131797204Y-185232233D01*
X145232233Y-171797204D01*
X162202796Y-188767767D01*
G37*
X50202796Y-156767767D02*
X36767767Y-170202796D01*
X36767767Y-170202796D02*
X19797204Y-153232233D01*
X19797204Y-153232233D02*
X33232233Y-139797204D01*
X33232233Y-139797204D02*
X50202796Y-156767767D01*
G36*
X50202796Y-156767767D02*
G01*
X36767767Y-170202796D01*
X19797204Y-153232233D01*
X33232233Y-139797204D01*
X50202796Y-156767767D01*
G37*
X113232233Y-87202796D02*
X99797204Y-73767767D01*
X99797204Y-73767767D02*
X116767767Y-56797204D01*
X116767767Y-56797204D02*
X130202796Y-70232233D01*
X130202796Y-70232233D02*
X113232233Y-87202796D01*
G36*
X113232233Y-87202796D02*
G01*
X99797204Y-73767767D01*
X116767767Y-56797204D01*
X130202796Y-70232233D01*
X113232233Y-87202796D01*
G37*
X145232233Y-55202796D02*
X131797204Y-41767767D01*
X131797204Y-41767767D02*
X148767767Y-24797204D01*
X148767767Y-24797204D02*
X162202796Y-38232233D01*
X162202796Y-38232233D02*
X145232233Y-55202796D01*
G36*
X145232233Y-55202796D02*
G01*
X131797204Y-41767767D01*
X148767767Y-24797204D01*
X162202796Y-38232233D01*
X145232233Y-55202796D01*
G37*
X113232233Y-55202796D02*
X99797204Y-41767767D01*
X99797204Y-41767767D02*
X116767767Y-24797204D01*
X116767767Y-24797204D02*
X130202796Y-38232233D01*
X130202796Y-38232233D02*
X113232233Y-55202796D01*
G36*
X113232233Y-55202796D02*
G01*
X99797204Y-41767767D01*
X116767767Y-24797204D01*
X130202796Y-38232233D01*
X113232233Y-55202796D01*
G37*
X50202796Y-188767767D02*
X36767767Y-202202796D01*
X36767767Y-202202796D02*
X19797204Y-185232233D01*
X19797204Y-185232233D02*
X33232233Y-171797204D01*
X33232233Y-171797204D02*
X50202796Y-188767767D01*
G36*
X50202796Y-188767767D02*
G01*
X36767767Y-202202796D01*
X19797204Y-185232233D01*
X33232233Y-171797204D01*
X50202796Y-188767767D01*
G37*
X162202796Y-156767767D02*
X148767767Y-170202796D01*
X148767767Y-170202796D02*
X131797204Y-153232233D01*
X131797204Y-153232233D02*
X145232233Y-139797204D01*
X145232233Y-139797204D02*
X162202796Y-156767767D01*
G36*
X162202796Y-156767767D02*
G01*
X148767767Y-170202796D01*
X131797204Y-153232233D01*
X145232233Y-139797204D01*
X162202796Y-156767767D01*
G37*
%TD*%
D11*
%TO.P,H10,1,1*%
%TO.N,N/C*%
X93000000Y-5000000D03*
D12*
X93000000Y-5000000D03*
%TD*%
D11*
%TO.P,H12,1,1*%
%TO.N,N/C*%
X170000000Y-113000000D03*
D12*
X170000000Y-113000000D03*
%TD*%
D11*
%TO.P,H11,1,1*%
%TO.N,N/C*%
X93000000Y-113000000D03*
D12*
X93000000Y-113000000D03*
%TD*%
D11*
%TO.P,H4,1,1*%
%TO.N,N/C*%
X174000000Y-208000000D03*
D12*
X174000000Y-208000000D03*
%TD*%
D11*
%TO.P,H9,1,1*%
%TO.N,N/C*%
X93000000Y-221000000D03*
D12*
X93000000Y-221000000D03*
%TD*%
D11*
%TO.P,H2,1,1*%
%TO.N,N/C*%
X174000000Y-18000000D03*
D12*
X174000000Y-18000000D03*
%TD*%
%TO.P,H3,1,1*%
%TO.N,N/C*%
X12000000Y-208000000D03*
D11*
X12000000Y-208000000D03*
%TD*%
D12*
%TO.P,H1,1,1*%
%TO.N,N/C*%
X12000000Y-18000000D03*
D11*
X12000000Y-18000000D03*
%TD*%
D12*
%TO.P,H11,1,1*%
%TO.N,N/C*%
X16000000Y-113000000D03*
D11*
X16000000Y-113000000D03*
%TD*%
M02*
