<?xml version="1.0" ?><svg viewBox="0 0 24 24" xmlns="http://www.w3.org/2000/svg"><title/><path d="M23.5,11.5h-11V9h3a.49971.49971,0,0,0,.5-.5v-6a.49971.49971,0,0,0-.5-.5h-7a.49971.49971,0,0,0-.5.5v6a.49971.49971,0,0,0,.5.5h3v2.5H.5a.5.5,0,0,0,0,1h5V15h-3a.49971.49971,0,0,0-.5.5v6a.49971.49971,0,0,0,.5.5h7a.49971.49971,0,0,0,.5-.5v-6a.49971.49971,0,0,0-.5-.5h-3V12.5h11V15h-3a.49971.49971,0,0,0-.5.5v6a.49971.49971,0,0,0,.5.5h7a.49971.49971,0,0,0,.5-.5v-6a.49971.49971,0,0,0-.5-.5h-3V12.5h5a.5.5,0,0,0,0-1Z"/></svg>