%TF.GenerationSoftware,KiCad,Pcbnew,5.99.0-unknown-283d176cdc~117~ubuntu20.04.1*%
%TF.CreationDate,2021-02-27T15:30:38-06:00*%
%TF.ProjectId,FlatPanel4x4_tighter,466c6174-5061-46e6-956c-3478345f7469,rev?*%
%TF.SameCoordinates,Original*%
%TF.FileFunction,Copper,L1,Top*%
%TF.FilePolarity,Positive*%
%FSLAX46Y46*%
G04 Gerber Fmt 4.6, Leading zero omitted, Abs format (unit mm)*
G04 Created by KiCad (PCBNEW 5.99.0-unknown-283d176cdc~117~ubuntu20.04.1) date 2021-02-27 15:30:38*
%MOMM*%
%LPD*%
G01*
G04 APERTURE LIST*
%TA.AperFunction,ComponentPad*%
%ADD10C,2.900000*%
%TD*%
%TA.AperFunction,ConnectorPad*%
%ADD11C,5.000000*%
%TD*%
%TA.AperFunction,SMDPad,CuDef*%
%ADD12C,10.000000*%
%TD*%
%TA.AperFunction,NonConductor*%
%ADD13C,0.254000*%
%TD*%
G04 APERTURE END LIST*
D10*
%TO.P,H11,1,1*%
%TO.N,N/C*%
X93000000Y-113000000D03*
D11*
X93000000Y-113000000D03*
%TD*%
D10*
%TO.P,H10,1,1*%
%TO.N,N/C*%
X93000000Y-5000000D03*
D11*
X93000000Y-5000000D03*
%TD*%
D10*
%TO.P,H12,1,1*%
%TO.N,N/C*%
X170000000Y-113000000D03*
D11*
X170000000Y-113000000D03*
%TD*%
D10*
%TO.P,H4,1,1*%
%TO.N,N/C*%
X174000000Y-208000000D03*
D11*
X174000000Y-208000000D03*
%TD*%
D10*
%TO.P,H9,1,1*%
%TO.N,N/C*%
X93000000Y-221000000D03*
D11*
X93000000Y-221000000D03*
%TD*%
D10*
%TO.P,H2,1,1*%
%TO.N,N/C*%
X174000000Y-18000000D03*
D11*
X174000000Y-18000000D03*
%TD*%
%TO.P,H3,1,1*%
%TO.N,N/C*%
X12000000Y-208000000D03*
D10*
X12000000Y-208000000D03*
%TD*%
D11*
%TO.P,H1,1,1*%
%TO.N,N/C*%
X12000000Y-18000000D03*
D10*
X12000000Y-18000000D03*
%TD*%
D11*
%TO.P,H11,1,1*%
%TO.N,N/C*%
X16000000Y-113000000D03*
D10*
X16000000Y-113000000D03*
%TD*%
D12*
%TO.P,Feed1,2,Shield*%
%TO.N,GND*%
X90490000Y-69635000D03*
%TD*%
%TO.P,Feed3,2,Shield*%
%TO.N,GND*%
X24858296Y-179910000D03*
%TD*%
%TO.P,Feed4,2,Shield*%
%TO.N,GND*%
X100015000Y-179910000D03*
%TD*%
%TO.P,Feed2,2,Shield*%
%TO.N,GND*%
X160790000Y-69175000D03*
%TD*%
D13*
X185366000Y-107366000D02*
X180078879Y-107366000D01*
X180050366Y-107361890D01*
X180030966Y-107360609D01*
X179789573Y-107363338D01*
X179775764Y-107362443D01*
X179756321Y-107362686D01*
X179743268Y-107363861D01*
X179733432Y-107363972D01*
X179715586Y-107365446D01*
X179701596Y-107367611D01*
X179288234Y-107404814D01*
X179271315Y-107405239D01*
X179251974Y-107407224D01*
X179242629Y-107408920D01*
X179236450Y-107409476D01*
X179218770Y-107412345D01*
X179202246Y-107416249D01*
X178789557Y-107491140D01*
X178772740Y-107493080D01*
X178753655Y-107496791D01*
X178744505Y-107499316D01*
X178738390Y-107500426D01*
X178721040Y-107504868D01*
X178704923Y-107510241D01*
X178300619Y-107621821D01*
X178284045Y-107625260D01*
X178265370Y-107630666D01*
X178256479Y-107634003D01*
X178250489Y-107635656D01*
X178233609Y-107641634D01*
X178218039Y-107648429D01*
X177825355Y-107795806D01*
X177809165Y-107800714D01*
X177791049Y-107807773D01*
X177782503Y-107811888D01*
X177776677Y-107814075D01*
X177760399Y-107821544D01*
X177745500Y-107829709D01*
X177367613Y-108011689D01*
X177351922Y-108018031D01*
X177334513Y-108026685D01*
X177326366Y-108031553D01*
X177320767Y-108034249D01*
X177305223Y-108043147D01*
X177291120Y-108052611D01*
X176931062Y-108267735D01*
X176916004Y-108275457D01*
X176899440Y-108285637D01*
X176891763Y-108291215D01*
X176886425Y-108294404D01*
X176871742Y-108304660D01*
X176858550Y-108315345D01*
X176519228Y-108561878D01*
X176504913Y-108570925D01*
X176489331Y-108582547D01*
X176482181Y-108588794D01*
X176477150Y-108592449D01*
X176463447Y-108603978D01*
X176451259Y-108615810D01*
X176135401Y-108891767D01*
X176121966Y-108902052D01*
X176107488Y-108915024D01*
X176100928Y-108921885D01*
X176096241Y-108925980D01*
X176083631Y-108938686D01*
X176072546Y-108951570D01*
X175782709Y-109254715D01*
X175770241Y-109266172D01*
X175756983Y-109280392D01*
X175751067Y-109287811D01*
X175746766Y-109292309D01*
X175735341Y-109306101D01*
X175725471Y-109319906D01*
X175463955Y-109647835D01*
X175452571Y-109660355D01*
X175440638Y-109675709D01*
X175435406Y-109683635D01*
X175431536Y-109688488D01*
X175421392Y-109703249D01*
X175412794Y-109717892D01*
X175181739Y-110067926D01*
X175171514Y-110081428D01*
X175161007Y-110097789D01*
X175156513Y-110106141D01*
X175153084Y-110111335D01*
X175144304Y-110126947D01*
X175137051Y-110142308D01*
X174938304Y-110511638D01*
X174929332Y-110526001D01*
X174920335Y-110543236D01*
X174916603Y-110551967D01*
X174913658Y-110557440D01*
X174906314Y-110573773D01*
X174900468Y-110589717D01*
X174735630Y-110975375D01*
X174727977Y-110990493D01*
X174720561Y-111008464D01*
X174717627Y-111017492D01*
X174715185Y-111023207D01*
X174709335Y-111040132D01*
X174704943Y-111056533D01*
X174575335Y-111455426D01*
X174569071Y-111471161D01*
X174563295Y-111489729D01*
X174561184Y-111498981D01*
X174559263Y-111504891D01*
X174554952Y-111522276D01*
X174552048Y-111539004D01*
X174458715Y-111947920D01*
X174453890Y-111964142D01*
X174449802Y-111983147D01*
X174448528Y-111992550D01*
X174447143Y-111998619D01*
X174444410Y-112016314D01*
X174443017Y-112033232D01*
X174386714Y-112448877D01*
X174383364Y-112465461D01*
X174380996Y-112484755D01*
X174380570Y-112494240D01*
X174379735Y-112500404D01*
X174378599Y-112518271D01*
X174378728Y-112535251D01*
X174359910Y-112954264D01*
X174358059Y-112971087D01*
X174357430Y-112990519D01*
X174357856Y-112999999D01*
X174357577Y-113006206D01*
X174358047Y-113024109D01*
X174359697Y-113041006D01*
X174378515Y-113460014D01*
X174378180Y-113476942D01*
X174379295Y-113496348D01*
X174380570Y-113505761D01*
X174380849Y-113511972D01*
X174382922Y-113529757D01*
X174386079Y-113546430D01*
X174442381Y-113962074D01*
X174443564Y-113978958D01*
X174446416Y-113998193D01*
X174448528Y-114007444D01*
X174449361Y-114013597D01*
X174453020Y-114031133D01*
X174457665Y-114047476D01*
X174550992Y-114456369D01*
X174553685Y-114473089D01*
X174558249Y-114491988D01*
X174561182Y-114501016D01*
X174562566Y-114507078D01*
X174567782Y-114524211D01*
X174573871Y-114540066D01*
X174703480Y-114938966D01*
X174707658Y-114955365D01*
X174713895Y-114973775D01*
X174717627Y-114982506D01*
X174719549Y-114988422D01*
X174726278Y-115005012D01*
X174733755Y-115020241D01*
X174898608Y-115405934D01*
X174904241Y-115421897D01*
X174912105Y-115439674D01*
X174916602Y-115448031D01*
X174919047Y-115453751D01*
X174927236Y-115469673D01*
X174936060Y-115484190D01*
X175134803Y-115853518D01*
X175141851Y-115868926D01*
X175151280Y-115885932D01*
X175156508Y-115893852D01*
X175159451Y-115899321D01*
X175169040Y-115914453D01*
X175179117Y-115928102D01*
X175410182Y-116278151D01*
X175418576Y-116292855D01*
X175429488Y-116308945D01*
X175435412Y-116316374D01*
X175438835Y-116321559D01*
X175449736Y-116335763D01*
X175460996Y-116348455D01*
X175722518Y-116676392D01*
X175732191Y-116690276D01*
X175744501Y-116705322D01*
X175751067Y-116712190D01*
X175754940Y-116717046D01*
X175767070Y-116730217D01*
X175779439Y-116741864D01*
X176069281Y-117045016D01*
X176080164Y-117057982D01*
X176093776Y-117071866D01*
X176100920Y-117078108D01*
X176105220Y-117082605D01*
X176118486Y-117094638D01*
X176131838Y-117105120D01*
X176447701Y-117381083D01*
X176459700Y-117393019D01*
X176474497Y-117405624D01*
X176482188Y-117411212D01*
X176486865Y-117415298D01*
X176501147Y-117426087D01*
X176515385Y-117435331D01*
X176854719Y-117681871D01*
X176867739Y-117692683D01*
X176883610Y-117703913D01*
X176891754Y-117708779D01*
X176896789Y-117712437D01*
X176911989Y-117721907D01*
X176927006Y-117729841D01*
X177287050Y-117944957D01*
X177300996Y-117954565D01*
X177317810Y-117964327D01*
X177326365Y-117968447D01*
X177331701Y-117971635D01*
X177347689Y-117979704D01*
X177363343Y-117986254D01*
X177741244Y-118168242D01*
X177755987Y-118176557D01*
X177773608Y-118184773D01*
X177782497Y-118188109D01*
X177788095Y-118190805D01*
X177804743Y-118197409D01*
X177820924Y-118202530D01*
X178213610Y-118349908D01*
X178229040Y-118356868D01*
X178247327Y-118363472D01*
X178256492Y-118366002D01*
X178262305Y-118368183D01*
X178279472Y-118373267D01*
X178296056Y-118376920D01*
X178700354Y-118488498D01*
X178716356Y-118494051D01*
X178735168Y-118498990D01*
X178744512Y-118500685D01*
X178750492Y-118502336D01*
X178768051Y-118505862D01*
X178784886Y-118508013D01*
X179197575Y-118582903D01*
X179214006Y-118586998D01*
X179233180Y-118590230D01*
X179242637Y-118591081D01*
X179248753Y-118592191D01*
X179266558Y-118594129D01*
X179283537Y-118594762D01*
X179697124Y-118631986D01*
X179710788Y-118634272D01*
X179730154Y-118635991D01*
X179743269Y-118636139D01*
X179753055Y-118637020D01*
X179770963Y-118637353D01*
X179785076Y-118636611D01*
X180027688Y-118639354D01*
X180045563Y-118638283D01*
X180078086Y-118634000D01*
X185366000Y-118634000D01*
X185366000Y-225366000D01*
X634000Y-225366000D01*
X634000Y-220908642D01*
X89862030Y-220908642D01*
X89871112Y-221255461D01*
X89872326Y-221269917D01*
X89921210Y-221613394D01*
X89924077Y-221627613D01*
X90012115Y-221963196D01*
X90016598Y-221976993D01*
X90142624Y-222300232D01*
X90148663Y-222313421D01*
X90311006Y-222620033D01*
X90318520Y-222632441D01*
X90515028Y-222918362D01*
X90523919Y-222929824D01*
X90751988Y-223191264D01*
X90762137Y-223201628D01*
X91018743Y-223435122D01*
X91030017Y-223444252D01*
X91311760Y-223646705D01*
X91324008Y-223654477D01*
X91627153Y-223823206D01*
X91640213Y-223829520D01*
X91960742Y-223962287D01*
X91974441Y-223967057D01*
X92308106Y-224062104D01*
X92322263Y-224065269D01*
X92664641Y-224121336D01*
X92679068Y-224122852D01*
X93025622Y-224139195D01*
X93040127Y-224139043D01*
X93386262Y-224115446D01*
X93400654Y-224113628D01*
X93741783Y-224050403D01*
X93755870Y-224046943D01*
X94087471Y-223944929D01*
X94101067Y-223939872D01*
X94418745Y-223800421D01*
X94431670Y-223793836D01*
X94731215Y-223618796D01*
X94743298Y-223610768D01*
X95020740Y-223402459D01*
X95031820Y-223393096D01*
X95283480Y-223154280D01*
X95293410Y-223143706D01*
X95515953Y-222877547D01*
X95524602Y-222865901D01*
X95715080Y-222575927D01*
X95722333Y-222563364D01*
X95878219Y-222253419D01*
X95883980Y-222240106D01*
X96003208Y-221914298D01*
X96007401Y-221900411D01*
X96088392Y-221563059D01*
X96090960Y-221548783D01*
X96132641Y-221204357D01*
X96133492Y-221193176D01*
X96139438Y-221003957D01*
X96139291Y-220992747D01*
X96119320Y-220646384D01*
X96117653Y-220631974D01*
X96058004Y-220290202D01*
X96054691Y-220276079D01*
X95956155Y-219943427D01*
X95951241Y-219929778D01*
X95815124Y-219610657D01*
X95808675Y-219597664D01*
X95636782Y-219296302D01*
X95628881Y-219284136D01*
X95423489Y-219004529D01*
X95414242Y-218993352D01*
X95178073Y-218739205D01*
X95167604Y-218729165D01*
X94903790Y-218503846D01*
X94892235Y-218495075D01*
X94604272Y-218301572D01*
X94591786Y-218294188D01*
X94283491Y-218135065D01*
X94270239Y-218129165D01*
X93945697Y-218006531D01*
X93931855Y-218002193D01*
X93595370Y-217917673D01*
X93581120Y-217914955D01*
X93237149Y-217869671D01*
X93222682Y-217868609D01*
X92875787Y-217863159D01*
X92861294Y-217863766D01*
X92516071Y-217898224D01*
X92501743Y-217900493D01*
X92162768Y-217974402D01*
X92148796Y-217978303D01*
X91820563Y-218090682D01*
X91807133Y-218096163D01*
X91493991Y-218245524D01*
X91481279Y-218252513D01*
X91187380Y-218436875D01*
X91175555Y-218445278D01*
X90904794Y-218662199D01*
X90894014Y-218671905D01*
X90649979Y-218918509D01*
X90640386Y-218929391D01*
X90426313Y-219202409D01*
X90418034Y-219214320D01*
X90236759Y-219510133D01*
X90229904Y-219522918D01*
X90083831Y-219837607D01*
X90078491Y-219851094D01*
X89969555Y-220180486D01*
X89965801Y-220194498D01*
X89895446Y-220534228D01*
X89893327Y-220548578D01*
X89862486Y-220894143D01*
X89862030Y-220908642D01*
X634000Y-220908642D01*
X634000Y-207908642D01*
X8862030Y-207908642D01*
X8871112Y-208255461D01*
X8872326Y-208269917D01*
X8921210Y-208613394D01*
X8924077Y-208627613D01*
X9012115Y-208963196D01*
X9016598Y-208976993D01*
X9142624Y-209300232D01*
X9148663Y-209313421D01*
X9311006Y-209620033D01*
X9318520Y-209632441D01*
X9515028Y-209918362D01*
X9523919Y-209929824D01*
X9751988Y-210191264D01*
X9762137Y-210201628D01*
X10018743Y-210435122D01*
X10030017Y-210444252D01*
X10311760Y-210646705D01*
X10324008Y-210654477D01*
X10627153Y-210823206D01*
X10640213Y-210829520D01*
X10960742Y-210962287D01*
X10974441Y-210967057D01*
X11308106Y-211062104D01*
X11322263Y-211065269D01*
X11664641Y-211121336D01*
X11679068Y-211122852D01*
X12025622Y-211139195D01*
X12040127Y-211139043D01*
X12386262Y-211115446D01*
X12400654Y-211113628D01*
X12741783Y-211050403D01*
X12755870Y-211046943D01*
X13087471Y-210944929D01*
X13101067Y-210939872D01*
X13418745Y-210800421D01*
X13431670Y-210793836D01*
X13731215Y-210618796D01*
X13743298Y-210610768D01*
X14020740Y-210402459D01*
X14031820Y-210393096D01*
X14283480Y-210154280D01*
X14293410Y-210143706D01*
X14515953Y-209877547D01*
X14524602Y-209865901D01*
X14715080Y-209575927D01*
X14722333Y-209563364D01*
X14878219Y-209253419D01*
X14883980Y-209240106D01*
X15003208Y-208914298D01*
X15007401Y-208900411D01*
X15088392Y-208563059D01*
X15090960Y-208548783D01*
X15132641Y-208204357D01*
X15133492Y-208193176D01*
X15139438Y-208003957D01*
X15139291Y-207992747D01*
X15134442Y-207908642D01*
X170862030Y-207908642D01*
X170871112Y-208255461D01*
X170872326Y-208269917D01*
X170921210Y-208613394D01*
X170924077Y-208627613D01*
X171012115Y-208963196D01*
X171016598Y-208976993D01*
X171142624Y-209300232D01*
X171148663Y-209313421D01*
X171311006Y-209620033D01*
X171318520Y-209632441D01*
X171515028Y-209918362D01*
X171523919Y-209929824D01*
X171751988Y-210191264D01*
X171762137Y-210201628D01*
X172018743Y-210435122D01*
X172030017Y-210444252D01*
X172311760Y-210646705D01*
X172324008Y-210654477D01*
X172627153Y-210823206D01*
X172640213Y-210829520D01*
X172960742Y-210962287D01*
X172974441Y-210967057D01*
X173308106Y-211062104D01*
X173322263Y-211065269D01*
X173664641Y-211121336D01*
X173679068Y-211122852D01*
X174025622Y-211139195D01*
X174040127Y-211139043D01*
X174386262Y-211115446D01*
X174400654Y-211113628D01*
X174741783Y-211050403D01*
X174755870Y-211046943D01*
X175087471Y-210944929D01*
X175101067Y-210939872D01*
X175418745Y-210800421D01*
X175431670Y-210793836D01*
X175731215Y-210618796D01*
X175743298Y-210610768D01*
X176020740Y-210402459D01*
X176031820Y-210393096D01*
X176283480Y-210154280D01*
X176293410Y-210143706D01*
X176515953Y-209877547D01*
X176524602Y-209865901D01*
X176715080Y-209575927D01*
X176722333Y-209563364D01*
X176878219Y-209253419D01*
X176883980Y-209240106D01*
X177003208Y-208914298D01*
X177007401Y-208900411D01*
X177088392Y-208563059D01*
X177090960Y-208548783D01*
X177132641Y-208204357D01*
X177133492Y-208193176D01*
X177139438Y-208003957D01*
X177139291Y-207992747D01*
X177119320Y-207646384D01*
X177117653Y-207631974D01*
X177058004Y-207290202D01*
X177054691Y-207276079D01*
X176956155Y-206943427D01*
X176951241Y-206929778D01*
X176815124Y-206610657D01*
X176808675Y-206597664D01*
X176636782Y-206296302D01*
X176628881Y-206284136D01*
X176423489Y-206004529D01*
X176414242Y-205993352D01*
X176178073Y-205739205D01*
X176167604Y-205729165D01*
X175903790Y-205503846D01*
X175892235Y-205495075D01*
X175604272Y-205301572D01*
X175591786Y-205294188D01*
X175283491Y-205135065D01*
X175270239Y-205129165D01*
X174945697Y-205006531D01*
X174931855Y-205002193D01*
X174595370Y-204917673D01*
X174581120Y-204914955D01*
X174237149Y-204869671D01*
X174222682Y-204868609D01*
X173875787Y-204863159D01*
X173861294Y-204863766D01*
X173516071Y-204898224D01*
X173501743Y-204900493D01*
X173162768Y-204974402D01*
X173148796Y-204978303D01*
X172820563Y-205090682D01*
X172807133Y-205096163D01*
X172493991Y-205245524D01*
X172481279Y-205252513D01*
X172187380Y-205436875D01*
X172175555Y-205445278D01*
X171904794Y-205662199D01*
X171894014Y-205671905D01*
X171649979Y-205918509D01*
X171640386Y-205929391D01*
X171426313Y-206202409D01*
X171418034Y-206214320D01*
X171236759Y-206510133D01*
X171229904Y-206522918D01*
X171083831Y-206837607D01*
X171078491Y-206851094D01*
X170969555Y-207180486D01*
X170965801Y-207194498D01*
X170895446Y-207534228D01*
X170893327Y-207548578D01*
X170862486Y-207894143D01*
X170862030Y-207908642D01*
X15134442Y-207908642D01*
X15119320Y-207646384D01*
X15117653Y-207631974D01*
X15058004Y-207290202D01*
X15054691Y-207276079D01*
X14956155Y-206943427D01*
X14951241Y-206929778D01*
X14815124Y-206610657D01*
X14808675Y-206597664D01*
X14636782Y-206296302D01*
X14628881Y-206284136D01*
X14423489Y-206004529D01*
X14414242Y-205993352D01*
X14178073Y-205739205D01*
X14167604Y-205729165D01*
X13903790Y-205503846D01*
X13892235Y-205495075D01*
X13604272Y-205301572D01*
X13591786Y-205294188D01*
X13283491Y-205135065D01*
X13270239Y-205129165D01*
X12945697Y-205006531D01*
X12931855Y-205002193D01*
X12595370Y-204917673D01*
X12581120Y-204914955D01*
X12237149Y-204869671D01*
X12222682Y-204868609D01*
X11875787Y-204863159D01*
X11861294Y-204863766D01*
X11516071Y-204898224D01*
X11501743Y-204900493D01*
X11162768Y-204974402D01*
X11148796Y-204978303D01*
X10820563Y-205090682D01*
X10807133Y-205096163D01*
X10493991Y-205245524D01*
X10481279Y-205252513D01*
X10187380Y-205436875D01*
X10175555Y-205445278D01*
X9904794Y-205662199D01*
X9894014Y-205671905D01*
X9649979Y-205918509D01*
X9640386Y-205929391D01*
X9426313Y-206202409D01*
X9418034Y-206214320D01*
X9236759Y-206510133D01*
X9229904Y-206522918D01*
X9083831Y-206837607D01*
X9078491Y-206851094D01*
X8969555Y-207180486D01*
X8965801Y-207194498D01*
X8895446Y-207534228D01*
X8893327Y-207548578D01*
X8862486Y-207894143D01*
X8862030Y-207908642D01*
X634000Y-207908642D01*
X634000Y-179814513D01*
X23823800Y-179814513D01*
X23823800Y-180005487D01*
X23826553Y-180031684D01*
X23866259Y-180218484D01*
X23874399Y-180243536D01*
X23952075Y-180417999D01*
X23965246Y-180440811D01*
X24077497Y-180595312D01*
X24095123Y-180614887D01*
X24237044Y-180742673D01*
X24258354Y-180758156D01*
X24423742Y-180853643D01*
X24447806Y-180864357D01*
X24629433Y-180923371D01*
X24655199Y-180928848D01*
X24797554Y-180943810D01*
X24810724Y-180944500D01*
X24905868Y-180944500D01*
X24919038Y-180943810D01*
X25061393Y-180928848D01*
X25087159Y-180923371D01*
X25268786Y-180864357D01*
X25292850Y-180853643D01*
X25458238Y-180758156D01*
X25479548Y-180742673D01*
X25621469Y-180614887D01*
X25639095Y-180595312D01*
X25751346Y-180440811D01*
X25764517Y-180417999D01*
X25842193Y-180243536D01*
X25850333Y-180218484D01*
X25890039Y-180031684D01*
X25892792Y-180005487D01*
X25892792Y-179814513D01*
X98980504Y-179814513D01*
X98980504Y-180005487D01*
X98983257Y-180031684D01*
X99022963Y-180218484D01*
X99031103Y-180243536D01*
X99108779Y-180417999D01*
X99121950Y-180440811D01*
X99234201Y-180595312D01*
X99251827Y-180614887D01*
X99393748Y-180742673D01*
X99415058Y-180758156D01*
X99580446Y-180853643D01*
X99604510Y-180864357D01*
X99786137Y-180923371D01*
X99811903Y-180928848D01*
X99954258Y-180943810D01*
X99967428Y-180944500D01*
X100062572Y-180944500D01*
X100075742Y-180943810D01*
X100218097Y-180928848D01*
X100243863Y-180923371D01*
X100425490Y-180864357D01*
X100449554Y-180853643D01*
X100614942Y-180758156D01*
X100636252Y-180742673D01*
X100778173Y-180614887D01*
X100795799Y-180595312D01*
X100908050Y-180440811D01*
X100921221Y-180417999D01*
X100998897Y-180243536D01*
X101007037Y-180218484D01*
X101046743Y-180031684D01*
X101049496Y-180005487D01*
X101049496Y-179814513D01*
X101046743Y-179788316D01*
X101007037Y-179601516D01*
X100998897Y-179576464D01*
X100921221Y-179402001D01*
X100908050Y-179379189D01*
X100795799Y-179224688D01*
X100778173Y-179205113D01*
X100636252Y-179077327D01*
X100614942Y-179061844D01*
X100449554Y-178966357D01*
X100425490Y-178955643D01*
X100243863Y-178896629D01*
X100218097Y-178891152D01*
X100075742Y-178876190D01*
X100062572Y-178875500D01*
X99967428Y-178875500D01*
X99954258Y-178876190D01*
X99811903Y-178891152D01*
X99786137Y-178896629D01*
X99604510Y-178955643D01*
X99580446Y-178966357D01*
X99415058Y-179061844D01*
X99393748Y-179077327D01*
X99251827Y-179205113D01*
X99234201Y-179224688D01*
X99121950Y-179379189D01*
X99108779Y-179402001D01*
X99031103Y-179576464D01*
X99022963Y-179601516D01*
X98983257Y-179788316D01*
X98980504Y-179814513D01*
X25892792Y-179814513D01*
X25890039Y-179788316D01*
X25850333Y-179601516D01*
X25842193Y-179576464D01*
X25764517Y-179402001D01*
X25751346Y-179379189D01*
X25639095Y-179224688D01*
X25621469Y-179205113D01*
X25479548Y-179077327D01*
X25458238Y-179061844D01*
X25292850Y-178966357D01*
X25268786Y-178955643D01*
X25087159Y-178896629D01*
X25061393Y-178891152D01*
X24919038Y-178876190D01*
X24905868Y-178875500D01*
X24810724Y-178875500D01*
X24797554Y-178876190D01*
X24655199Y-178891152D01*
X24629433Y-178896629D01*
X24447806Y-178955643D01*
X24423742Y-178966357D01*
X24258354Y-179061844D01*
X24237044Y-179077327D01*
X24095123Y-179205113D01*
X24077497Y-179224688D01*
X23965246Y-179379189D01*
X23952075Y-179402001D01*
X23874399Y-179576464D01*
X23866259Y-179601516D01*
X23826553Y-179788316D01*
X23823800Y-179814513D01*
X634000Y-179814513D01*
X634000Y-118634000D01*
X5921121Y-118634000D01*
X5949634Y-118638110D01*
X5969034Y-118639391D01*
X6210427Y-118636662D01*
X6224236Y-118637557D01*
X6243679Y-118637314D01*
X6256732Y-118636139D01*
X6266568Y-118636028D01*
X6284414Y-118634554D01*
X6298405Y-118632389D01*
X6711768Y-118595185D01*
X6728679Y-118594761D01*
X6748026Y-118592776D01*
X6757371Y-118591080D01*
X6763550Y-118590524D01*
X6781230Y-118587655D01*
X6797754Y-118583751D01*
X7210434Y-118508861D01*
X7227257Y-118506921D01*
X7246342Y-118503210D01*
X7255494Y-118500684D01*
X7261612Y-118499574D01*
X7278961Y-118495132D01*
X7295086Y-118489756D01*
X7699380Y-118378179D01*
X7715955Y-118374740D01*
X7734630Y-118369334D01*
X7743521Y-118365997D01*
X7749511Y-118364344D01*
X7766389Y-118358367D01*
X7781963Y-118351570D01*
X8174628Y-118204200D01*
X8190838Y-118199286D01*
X8208948Y-118192229D01*
X8217507Y-118188108D01*
X8223327Y-118185923D01*
X8239599Y-118178457D01*
X8254501Y-118170291D01*
X8632360Y-117988323D01*
X8648077Y-117981971D01*
X8665488Y-117973315D01*
X8673643Y-117968442D01*
X8679232Y-117965751D01*
X8694780Y-117956851D01*
X8708870Y-117947395D01*
X9068935Y-117732268D01*
X9083997Y-117724543D01*
X9100560Y-117714363D01*
X9108237Y-117708785D01*
X9113575Y-117705596D01*
X9128258Y-117695340D01*
X9141450Y-117684655D01*
X9480772Y-117438122D01*
X9495087Y-117429075D01*
X9510669Y-117417453D01*
X9517819Y-117411206D01*
X9522850Y-117407551D01*
X9536553Y-117396022D01*
X9548741Y-117384190D01*
X9864588Y-117108243D01*
X9878036Y-117097948D01*
X9892516Y-117084973D01*
X9899075Y-117078113D01*
X9903755Y-117074024D01*
X9916371Y-117061312D01*
X9927448Y-117048437D01*
X10217292Y-116745284D01*
X10229759Y-116733828D01*
X10243017Y-116719608D01*
X10248933Y-116712189D01*
X10253234Y-116707691D01*
X10264659Y-116693899D01*
X10274538Y-116680082D01*
X10536035Y-116352176D01*
X10547431Y-116339643D01*
X10559362Y-116324291D01*
X10564594Y-116316365D01*
X10568464Y-116311512D01*
X10578609Y-116296750D01*
X10587211Y-116282100D01*
X10818261Y-115932073D01*
X10828485Y-115918573D01*
X10838993Y-115902211D01*
X10843487Y-115893859D01*
X10846916Y-115888665D01*
X10855694Y-115873057D01*
X10862950Y-115857692D01*
X11061697Y-115488359D01*
X11070667Y-115474000D01*
X11079665Y-115456765D01*
X11083395Y-115448038D01*
X11086343Y-115442560D01*
X11093685Y-115426230D01*
X11099526Y-115410299D01*
X11264373Y-115024618D01*
X11272023Y-115009507D01*
X11279440Y-114991534D01*
X11282377Y-114982493D01*
X11284813Y-114976795D01*
X11290664Y-114959869D01*
X11295054Y-114943480D01*
X11424665Y-114544576D01*
X11430930Y-114528837D01*
X11436705Y-114510271D01*
X11438816Y-114501019D01*
X11440737Y-114495109D01*
X11445048Y-114477724D01*
X11447952Y-114460996D01*
X11541285Y-114052080D01*
X11546110Y-114035858D01*
X11550198Y-114016853D01*
X11551472Y-114007450D01*
X11552857Y-114001381D01*
X11555590Y-113983686D01*
X11556983Y-113966768D01*
X11613286Y-113551123D01*
X11616636Y-113534539D01*
X11619004Y-113515245D01*
X11619430Y-113505760D01*
X11620265Y-113499596D01*
X11621401Y-113481729D01*
X11621272Y-113464749D01*
X11640090Y-113045736D01*
X11641941Y-113028913D01*
X11642570Y-113009481D01*
X11642144Y-113000000D01*
X11642423Y-112993794D01*
X11641953Y-112975891D01*
X11640303Y-112958994D01*
X11638042Y-112908642D01*
X12862030Y-112908642D01*
X12871112Y-113255461D01*
X12872326Y-113269917D01*
X12921210Y-113613394D01*
X12924077Y-113627613D01*
X13012115Y-113963196D01*
X13016598Y-113976993D01*
X13142624Y-114300232D01*
X13148663Y-114313421D01*
X13311006Y-114620033D01*
X13318520Y-114632441D01*
X13515028Y-114918362D01*
X13523919Y-114929824D01*
X13751988Y-115191264D01*
X13762137Y-115201628D01*
X14018743Y-115435122D01*
X14030017Y-115444252D01*
X14311760Y-115646705D01*
X14324008Y-115654477D01*
X14627153Y-115823206D01*
X14640213Y-115829520D01*
X14960742Y-115962287D01*
X14974441Y-115967057D01*
X15308106Y-116062104D01*
X15322263Y-116065269D01*
X15664641Y-116121336D01*
X15679068Y-116122852D01*
X16025622Y-116139195D01*
X16040127Y-116139043D01*
X16386262Y-116115446D01*
X16400654Y-116113628D01*
X16741783Y-116050403D01*
X16755870Y-116046943D01*
X17087471Y-115944929D01*
X17101067Y-115939872D01*
X17418745Y-115800421D01*
X17431670Y-115793836D01*
X17731215Y-115618796D01*
X17743298Y-115610768D01*
X18020740Y-115402459D01*
X18031820Y-115393096D01*
X18283480Y-115154280D01*
X18293410Y-115143706D01*
X18515953Y-114877547D01*
X18524602Y-114865901D01*
X18715080Y-114575927D01*
X18722333Y-114563364D01*
X18878219Y-114253419D01*
X18883980Y-114240106D01*
X19003208Y-113914298D01*
X19007401Y-113900411D01*
X19088392Y-113563059D01*
X19090960Y-113548783D01*
X19132641Y-113204357D01*
X19133492Y-113193176D01*
X19139438Y-113003957D01*
X19139291Y-112992747D01*
X19134442Y-112908642D01*
X89862030Y-112908642D01*
X89871112Y-113255461D01*
X89872326Y-113269917D01*
X89921210Y-113613394D01*
X89924077Y-113627613D01*
X90012115Y-113963196D01*
X90016598Y-113976993D01*
X90142624Y-114300232D01*
X90148663Y-114313421D01*
X90311006Y-114620033D01*
X90318520Y-114632441D01*
X90515028Y-114918362D01*
X90523919Y-114929824D01*
X90751988Y-115191264D01*
X90762137Y-115201628D01*
X91018743Y-115435122D01*
X91030017Y-115444252D01*
X91311760Y-115646705D01*
X91324008Y-115654477D01*
X91627153Y-115823206D01*
X91640213Y-115829520D01*
X91960742Y-115962287D01*
X91974441Y-115967057D01*
X92308106Y-116062104D01*
X92322263Y-116065269D01*
X92664641Y-116121336D01*
X92679068Y-116122852D01*
X93025622Y-116139195D01*
X93040127Y-116139043D01*
X93386262Y-116115446D01*
X93400654Y-116113628D01*
X93741783Y-116050403D01*
X93755870Y-116046943D01*
X94087471Y-115944929D01*
X94101067Y-115939872D01*
X94418745Y-115800421D01*
X94431670Y-115793836D01*
X94731215Y-115618796D01*
X94743298Y-115610768D01*
X95020740Y-115402459D01*
X95031820Y-115393096D01*
X95283480Y-115154280D01*
X95293410Y-115143706D01*
X95515953Y-114877547D01*
X95524602Y-114865901D01*
X95715080Y-114575927D01*
X95722333Y-114563364D01*
X95878219Y-114253419D01*
X95883980Y-114240106D01*
X96003208Y-113914298D01*
X96007401Y-113900411D01*
X96088392Y-113563059D01*
X96090960Y-113548783D01*
X96132641Y-113204357D01*
X96133492Y-113193176D01*
X96139438Y-113003957D01*
X96139291Y-112992747D01*
X96134442Y-112908642D01*
X166862030Y-112908642D01*
X166871112Y-113255461D01*
X166872326Y-113269917D01*
X166921210Y-113613394D01*
X166924077Y-113627613D01*
X167012115Y-113963196D01*
X167016598Y-113976993D01*
X167142624Y-114300232D01*
X167148663Y-114313421D01*
X167311006Y-114620033D01*
X167318520Y-114632441D01*
X167515028Y-114918362D01*
X167523919Y-114929824D01*
X167751988Y-115191264D01*
X167762137Y-115201628D01*
X168018743Y-115435122D01*
X168030017Y-115444252D01*
X168311760Y-115646705D01*
X168324008Y-115654477D01*
X168627153Y-115823206D01*
X168640213Y-115829520D01*
X168960742Y-115962287D01*
X168974441Y-115967057D01*
X169308106Y-116062104D01*
X169322263Y-116065269D01*
X169664641Y-116121336D01*
X169679068Y-116122852D01*
X170025622Y-116139195D01*
X170040127Y-116139043D01*
X170386262Y-116115446D01*
X170400654Y-116113628D01*
X170741783Y-116050403D01*
X170755870Y-116046943D01*
X171087471Y-115944929D01*
X171101067Y-115939872D01*
X171418745Y-115800421D01*
X171431670Y-115793836D01*
X171731215Y-115618796D01*
X171743298Y-115610768D01*
X172020740Y-115402459D01*
X172031820Y-115393096D01*
X172283480Y-115154280D01*
X172293410Y-115143706D01*
X172515953Y-114877547D01*
X172524602Y-114865901D01*
X172715080Y-114575927D01*
X172722333Y-114563364D01*
X172878219Y-114253419D01*
X172883980Y-114240106D01*
X173003208Y-113914298D01*
X173007401Y-113900411D01*
X173088392Y-113563059D01*
X173090960Y-113548783D01*
X173132641Y-113204357D01*
X173133492Y-113193176D01*
X173139438Y-113003957D01*
X173139291Y-112992747D01*
X173119320Y-112646384D01*
X173117653Y-112631974D01*
X173058004Y-112290202D01*
X173054691Y-112276079D01*
X172956155Y-111943427D01*
X172951241Y-111929778D01*
X172815124Y-111610657D01*
X172808675Y-111597664D01*
X172636782Y-111296302D01*
X172628881Y-111284136D01*
X172423489Y-111004529D01*
X172414242Y-110993352D01*
X172178073Y-110739205D01*
X172167604Y-110729165D01*
X171903790Y-110503846D01*
X171892235Y-110495075D01*
X171604272Y-110301572D01*
X171591786Y-110294188D01*
X171283491Y-110135065D01*
X171270239Y-110129165D01*
X170945697Y-110006531D01*
X170931855Y-110002193D01*
X170595370Y-109917673D01*
X170581120Y-109914955D01*
X170237149Y-109869671D01*
X170222682Y-109868609D01*
X169875787Y-109863159D01*
X169861294Y-109863766D01*
X169516071Y-109898224D01*
X169501743Y-109900493D01*
X169162768Y-109974402D01*
X169148796Y-109978303D01*
X168820563Y-110090682D01*
X168807133Y-110096163D01*
X168493991Y-110245524D01*
X168481279Y-110252513D01*
X168187380Y-110436875D01*
X168175555Y-110445278D01*
X167904794Y-110662199D01*
X167894014Y-110671905D01*
X167649979Y-110918509D01*
X167640386Y-110929391D01*
X167426313Y-111202409D01*
X167418034Y-111214320D01*
X167236759Y-111510133D01*
X167229904Y-111522918D01*
X167083831Y-111837607D01*
X167078491Y-111851094D01*
X166969555Y-112180486D01*
X166965801Y-112194498D01*
X166895446Y-112534228D01*
X166893327Y-112548578D01*
X166862486Y-112894143D01*
X166862030Y-112908642D01*
X96134442Y-112908642D01*
X96119320Y-112646384D01*
X96117653Y-112631974D01*
X96058004Y-112290202D01*
X96054691Y-112276079D01*
X95956155Y-111943427D01*
X95951241Y-111929778D01*
X95815124Y-111610657D01*
X95808675Y-111597664D01*
X95636782Y-111296302D01*
X95628881Y-111284136D01*
X95423489Y-111004529D01*
X95414242Y-110993352D01*
X95178073Y-110739205D01*
X95167604Y-110729165D01*
X94903790Y-110503846D01*
X94892235Y-110495075D01*
X94604272Y-110301572D01*
X94591786Y-110294188D01*
X94283491Y-110135065D01*
X94270239Y-110129165D01*
X93945697Y-110006531D01*
X93931855Y-110002193D01*
X93595370Y-109917673D01*
X93581120Y-109914955D01*
X93237149Y-109869671D01*
X93222682Y-109868609D01*
X92875787Y-109863159D01*
X92861294Y-109863766D01*
X92516071Y-109898224D01*
X92501743Y-109900493D01*
X92162768Y-109974402D01*
X92148796Y-109978303D01*
X91820563Y-110090682D01*
X91807133Y-110096163D01*
X91493991Y-110245524D01*
X91481279Y-110252513D01*
X91187380Y-110436875D01*
X91175555Y-110445278D01*
X90904794Y-110662199D01*
X90894014Y-110671905D01*
X90649979Y-110918509D01*
X90640386Y-110929391D01*
X90426313Y-111202409D01*
X90418034Y-111214320D01*
X90236759Y-111510133D01*
X90229904Y-111522918D01*
X90083831Y-111837607D01*
X90078491Y-111851094D01*
X89969555Y-112180486D01*
X89965801Y-112194498D01*
X89895446Y-112534228D01*
X89893327Y-112548578D01*
X89862486Y-112894143D01*
X89862030Y-112908642D01*
X19134442Y-112908642D01*
X19119320Y-112646384D01*
X19117653Y-112631974D01*
X19058004Y-112290202D01*
X19054691Y-112276079D01*
X18956155Y-111943427D01*
X18951241Y-111929778D01*
X18815124Y-111610657D01*
X18808675Y-111597664D01*
X18636782Y-111296302D01*
X18628881Y-111284136D01*
X18423489Y-111004529D01*
X18414242Y-110993352D01*
X18178073Y-110739205D01*
X18167604Y-110729165D01*
X17903790Y-110503846D01*
X17892235Y-110495075D01*
X17604272Y-110301572D01*
X17591786Y-110294188D01*
X17283491Y-110135065D01*
X17270239Y-110129165D01*
X16945697Y-110006531D01*
X16931855Y-110002193D01*
X16595370Y-109917673D01*
X16581120Y-109914955D01*
X16237149Y-109869671D01*
X16222682Y-109868609D01*
X15875787Y-109863159D01*
X15861294Y-109863766D01*
X15516071Y-109898224D01*
X15501743Y-109900493D01*
X15162768Y-109974402D01*
X15148796Y-109978303D01*
X14820563Y-110090682D01*
X14807133Y-110096163D01*
X14493991Y-110245524D01*
X14481279Y-110252513D01*
X14187380Y-110436875D01*
X14175555Y-110445278D01*
X13904794Y-110662199D01*
X13894014Y-110671905D01*
X13649979Y-110918509D01*
X13640386Y-110929391D01*
X13426313Y-111202409D01*
X13418034Y-111214320D01*
X13236759Y-111510133D01*
X13229904Y-111522918D01*
X13083831Y-111837607D01*
X13078491Y-111851094D01*
X12969555Y-112180486D01*
X12965801Y-112194498D01*
X12895446Y-112534228D01*
X12893327Y-112548578D01*
X12862486Y-112894143D01*
X12862030Y-112908642D01*
X11638042Y-112908642D01*
X11621485Y-112539986D01*
X11621820Y-112523058D01*
X11620705Y-112503652D01*
X11619430Y-112494239D01*
X11619151Y-112488028D01*
X11617078Y-112470243D01*
X11613921Y-112453570D01*
X11557619Y-112037926D01*
X11556436Y-112021042D01*
X11553585Y-112001810D01*
X11551474Y-111992559D01*
X11550639Y-111986398D01*
X11546980Y-111968868D01*
X11542338Y-111952533D01*
X11449007Y-111543627D01*
X11446315Y-111526913D01*
X11441750Y-111508009D01*
X11438815Y-111498978D01*
X11437434Y-111492925D01*
X11432219Y-111475791D01*
X11426130Y-111459935D01*
X11296526Y-111061055D01*
X11292343Y-111044637D01*
X11286104Y-111026224D01*
X11282370Y-111017487D01*
X11280450Y-111011579D01*
X11273720Y-110994986D01*
X11266241Y-110979754D01*
X11101396Y-110594081D01*
X11095760Y-110578107D01*
X11087896Y-110560327D01*
X11083393Y-110551959D01*
X11080952Y-110546248D01*
X11072762Y-110530325D01*
X11063945Y-110515820D01*
X10865193Y-110146475D01*
X10858147Y-110131072D01*
X10848721Y-110114070D01*
X10843491Y-110106147D01*
X10840547Y-110100676D01*
X10830960Y-110085547D01*
X10820874Y-110071884D01*
X10589818Y-109721848D01*
X10581422Y-109707142D01*
X10570508Y-109691052D01*
X10564597Y-109683640D01*
X10561168Y-109678445D01*
X10550266Y-109664239D01*
X10538993Y-109651532D01*
X10277481Y-109323608D01*
X10267811Y-109309727D01*
X10255500Y-109294679D01*
X10248933Y-109287811D01*
X10245061Y-109282955D01*
X10232929Y-109269783D01*
X10220572Y-109258147D01*
X9930724Y-108954990D01*
X9919836Y-108942017D01*
X9906224Y-108928133D01*
X9899075Y-108921887D01*
X9894782Y-108917397D01*
X9881514Y-108905362D01*
X9868161Y-108894879D01*
X9552305Y-108618924D01*
X9540300Y-108606981D01*
X9525503Y-108594376D01*
X9517812Y-108588788D01*
X9513135Y-108584702D01*
X9498853Y-108573913D01*
X9484615Y-108564669D01*
X9145281Y-108318129D01*
X9132261Y-108307317D01*
X9116390Y-108296087D01*
X9108246Y-108291221D01*
X9103211Y-108287563D01*
X9088011Y-108278093D01*
X9072994Y-108270159D01*
X8712946Y-108055040D01*
X8699005Y-108045436D01*
X8682190Y-108035673D01*
X8673635Y-108031553D01*
X8668299Y-108028365D01*
X8652311Y-108020296D01*
X8636657Y-108013746D01*
X8258758Y-107831758D01*
X8244010Y-107823441D01*
X8226390Y-107815227D01*
X8217506Y-107811893D01*
X8211906Y-107809196D01*
X8195257Y-107802591D01*
X8179071Y-107797468D01*
X7786386Y-107650090D01*
X7770957Y-107643131D01*
X7752673Y-107636528D01*
X7743508Y-107633998D01*
X7737695Y-107631817D01*
X7720528Y-107626733D01*
X7703944Y-107623080D01*
X7299646Y-107511502D01*
X7283644Y-107505949D01*
X7264832Y-107501010D01*
X7255488Y-107499315D01*
X7249508Y-107497664D01*
X7231949Y-107494138D01*
X7215114Y-107491987D01*
X6802425Y-107417097D01*
X6785994Y-107413002D01*
X6766820Y-107409770D01*
X6757363Y-107408919D01*
X6751247Y-107407809D01*
X6733442Y-107405871D01*
X6716463Y-107405238D01*
X6302876Y-107368014D01*
X6289212Y-107365728D01*
X6269846Y-107364009D01*
X6256731Y-107363861D01*
X6246945Y-107362980D01*
X6229037Y-107362647D01*
X6214924Y-107363389D01*
X5972312Y-107360646D01*
X5954437Y-107361717D01*
X5921914Y-107366000D01*
X634000Y-107366000D01*
X634000Y-69539513D01*
X89455504Y-69539513D01*
X89455504Y-69730487D01*
X89458257Y-69756684D01*
X89497963Y-69943484D01*
X89506103Y-69968536D01*
X89583779Y-70142999D01*
X89596950Y-70165811D01*
X89709201Y-70320312D01*
X89726827Y-70339887D01*
X89868748Y-70467673D01*
X89890058Y-70483156D01*
X90055446Y-70578643D01*
X90079510Y-70589357D01*
X90261137Y-70648371D01*
X90286903Y-70653848D01*
X90429258Y-70668810D01*
X90442428Y-70669500D01*
X90537572Y-70669500D01*
X90550742Y-70668810D01*
X90693097Y-70653848D01*
X90718863Y-70648371D01*
X90900490Y-70589357D01*
X90924554Y-70578643D01*
X91089942Y-70483156D01*
X91111252Y-70467673D01*
X91253173Y-70339887D01*
X91270799Y-70320312D01*
X91383050Y-70165811D01*
X91396221Y-70142999D01*
X91473897Y-69968536D01*
X91482037Y-69943484D01*
X91521743Y-69756684D01*
X91524496Y-69730487D01*
X91524496Y-69539513D01*
X91521743Y-69513316D01*
X91482037Y-69326516D01*
X91473897Y-69301464D01*
X91396221Y-69127001D01*
X91383050Y-69104189D01*
X91365122Y-69079513D01*
X159755504Y-69079513D01*
X159755504Y-69270487D01*
X159758257Y-69296684D01*
X159797963Y-69483484D01*
X159806103Y-69508536D01*
X159883779Y-69682999D01*
X159896950Y-69705811D01*
X160009201Y-69860312D01*
X160026827Y-69879887D01*
X160168748Y-70007673D01*
X160190058Y-70023156D01*
X160355446Y-70118643D01*
X160379510Y-70129357D01*
X160561137Y-70188371D01*
X160586903Y-70193848D01*
X160729258Y-70208810D01*
X160742428Y-70209500D01*
X160837572Y-70209500D01*
X160850742Y-70208810D01*
X160993097Y-70193848D01*
X161018863Y-70188371D01*
X161200490Y-70129357D01*
X161224554Y-70118643D01*
X161389942Y-70023156D01*
X161411252Y-70007673D01*
X161553173Y-69879887D01*
X161570799Y-69860312D01*
X161683050Y-69705811D01*
X161696221Y-69682999D01*
X161773897Y-69508536D01*
X161782037Y-69483484D01*
X161821743Y-69296684D01*
X161824496Y-69270487D01*
X161824496Y-69079513D01*
X161821743Y-69053316D01*
X161782037Y-68866516D01*
X161773897Y-68841464D01*
X161696221Y-68667001D01*
X161683050Y-68644189D01*
X161570799Y-68489688D01*
X161553173Y-68470113D01*
X161411252Y-68342327D01*
X161389942Y-68326844D01*
X161224554Y-68231357D01*
X161200490Y-68220643D01*
X161018863Y-68161629D01*
X160993097Y-68156152D01*
X160850742Y-68141190D01*
X160837572Y-68140500D01*
X160742428Y-68140500D01*
X160729258Y-68141190D01*
X160586903Y-68156152D01*
X160561137Y-68161629D01*
X160379510Y-68220643D01*
X160355446Y-68231357D01*
X160190058Y-68326844D01*
X160168748Y-68342327D01*
X160026827Y-68470113D01*
X160009201Y-68489688D01*
X159896950Y-68644189D01*
X159883779Y-68667001D01*
X159806103Y-68841464D01*
X159797963Y-68866516D01*
X159758257Y-69053316D01*
X159755504Y-69079513D01*
X91365122Y-69079513D01*
X91270799Y-68949688D01*
X91253173Y-68930113D01*
X91111252Y-68802327D01*
X91089942Y-68786844D01*
X90924554Y-68691357D01*
X90900490Y-68680643D01*
X90718863Y-68621629D01*
X90693097Y-68616152D01*
X90550742Y-68601190D01*
X90537572Y-68600500D01*
X90442428Y-68600500D01*
X90429258Y-68601190D01*
X90286903Y-68616152D01*
X90261137Y-68621629D01*
X90079510Y-68680643D01*
X90055446Y-68691357D01*
X89890058Y-68786844D01*
X89868748Y-68802327D01*
X89726827Y-68930113D01*
X89709201Y-68949688D01*
X89596950Y-69104189D01*
X89583779Y-69127001D01*
X89506103Y-69301464D01*
X89497963Y-69326516D01*
X89458257Y-69513316D01*
X89455504Y-69539513D01*
X634000Y-69539513D01*
X634000Y-17908642D01*
X8862030Y-17908642D01*
X8871112Y-18255461D01*
X8872326Y-18269917D01*
X8921210Y-18613394D01*
X8924077Y-18627613D01*
X9012115Y-18963196D01*
X9016598Y-18976993D01*
X9142624Y-19300232D01*
X9148663Y-19313421D01*
X9311006Y-19620033D01*
X9318520Y-19632441D01*
X9515028Y-19918362D01*
X9523919Y-19929824D01*
X9751988Y-20191264D01*
X9762137Y-20201628D01*
X10018743Y-20435122D01*
X10030017Y-20444252D01*
X10311760Y-20646705D01*
X10324008Y-20654477D01*
X10627153Y-20823206D01*
X10640213Y-20829520D01*
X10960742Y-20962287D01*
X10974441Y-20967057D01*
X11308106Y-21062104D01*
X11322263Y-21065269D01*
X11664641Y-21121336D01*
X11679068Y-21122852D01*
X12025622Y-21139195D01*
X12040127Y-21139043D01*
X12386262Y-21115446D01*
X12400654Y-21113628D01*
X12741783Y-21050403D01*
X12755870Y-21046943D01*
X13087471Y-20944929D01*
X13101067Y-20939872D01*
X13418745Y-20800421D01*
X13431670Y-20793836D01*
X13731215Y-20618796D01*
X13743298Y-20610768D01*
X14020740Y-20402459D01*
X14031820Y-20393096D01*
X14283480Y-20154280D01*
X14293410Y-20143706D01*
X14515953Y-19877547D01*
X14524602Y-19865901D01*
X14715080Y-19575927D01*
X14722333Y-19563364D01*
X14878219Y-19253419D01*
X14883980Y-19240106D01*
X15003208Y-18914298D01*
X15007401Y-18900411D01*
X15088392Y-18563059D01*
X15090960Y-18548783D01*
X15132641Y-18204357D01*
X15133492Y-18193176D01*
X15139438Y-18003957D01*
X15139291Y-17992747D01*
X15134442Y-17908642D01*
X170862030Y-17908642D01*
X170871112Y-18255461D01*
X170872326Y-18269917D01*
X170921210Y-18613394D01*
X170924077Y-18627613D01*
X171012115Y-18963196D01*
X171016598Y-18976993D01*
X171142624Y-19300232D01*
X171148663Y-19313421D01*
X171311006Y-19620033D01*
X171318520Y-19632441D01*
X171515028Y-19918362D01*
X171523919Y-19929824D01*
X171751988Y-20191264D01*
X171762137Y-20201628D01*
X172018743Y-20435122D01*
X172030017Y-20444252D01*
X172311760Y-20646705D01*
X172324008Y-20654477D01*
X172627153Y-20823206D01*
X172640213Y-20829520D01*
X172960742Y-20962287D01*
X172974441Y-20967057D01*
X173308106Y-21062104D01*
X173322263Y-21065269D01*
X173664641Y-21121336D01*
X173679068Y-21122852D01*
X174025622Y-21139195D01*
X174040127Y-21139043D01*
X174386262Y-21115446D01*
X174400654Y-21113628D01*
X174741783Y-21050403D01*
X174755870Y-21046943D01*
X175087471Y-20944929D01*
X175101067Y-20939872D01*
X175418745Y-20800421D01*
X175431670Y-20793836D01*
X175731215Y-20618796D01*
X175743298Y-20610768D01*
X176020740Y-20402459D01*
X176031820Y-20393096D01*
X176283480Y-20154280D01*
X176293410Y-20143706D01*
X176515953Y-19877547D01*
X176524602Y-19865901D01*
X176715080Y-19575927D01*
X176722333Y-19563364D01*
X176878219Y-19253419D01*
X176883980Y-19240106D01*
X177003208Y-18914298D01*
X177007401Y-18900411D01*
X177088392Y-18563059D01*
X177090960Y-18548783D01*
X177132641Y-18204357D01*
X177133492Y-18193176D01*
X177139438Y-18003957D01*
X177139291Y-17992747D01*
X177119320Y-17646384D01*
X177117653Y-17631974D01*
X177058004Y-17290202D01*
X177054691Y-17276079D01*
X176956155Y-16943427D01*
X176951241Y-16929778D01*
X176815124Y-16610657D01*
X176808675Y-16597664D01*
X176636782Y-16296302D01*
X176628881Y-16284136D01*
X176423489Y-16004529D01*
X176414242Y-15993352D01*
X176178073Y-15739205D01*
X176167604Y-15729165D01*
X175903790Y-15503846D01*
X175892235Y-15495075D01*
X175604272Y-15301572D01*
X175591786Y-15294188D01*
X175283491Y-15135065D01*
X175270239Y-15129165D01*
X174945697Y-15006531D01*
X174931855Y-15002193D01*
X174595370Y-14917673D01*
X174581120Y-14914955D01*
X174237149Y-14869671D01*
X174222682Y-14868609D01*
X173875787Y-14863159D01*
X173861294Y-14863766D01*
X173516071Y-14898224D01*
X173501743Y-14900493D01*
X173162768Y-14974402D01*
X173148796Y-14978303D01*
X172820563Y-15090682D01*
X172807133Y-15096163D01*
X172493991Y-15245524D01*
X172481279Y-15252513D01*
X172187380Y-15436875D01*
X172175555Y-15445278D01*
X171904794Y-15662199D01*
X171894014Y-15671905D01*
X171649979Y-15918509D01*
X171640386Y-15929391D01*
X171426313Y-16202409D01*
X171418034Y-16214320D01*
X171236759Y-16510133D01*
X171229904Y-16522918D01*
X171083831Y-16837607D01*
X171078491Y-16851094D01*
X170969555Y-17180486D01*
X170965801Y-17194498D01*
X170895446Y-17534228D01*
X170893327Y-17548578D01*
X170862486Y-17894143D01*
X170862030Y-17908642D01*
X15134442Y-17908642D01*
X15119320Y-17646384D01*
X15117653Y-17631974D01*
X15058004Y-17290202D01*
X15054691Y-17276079D01*
X14956155Y-16943427D01*
X14951241Y-16929778D01*
X14815124Y-16610657D01*
X14808675Y-16597664D01*
X14636782Y-16296302D01*
X14628881Y-16284136D01*
X14423489Y-16004529D01*
X14414242Y-15993352D01*
X14178073Y-15739205D01*
X14167604Y-15729165D01*
X13903790Y-15503846D01*
X13892235Y-15495075D01*
X13604272Y-15301572D01*
X13591786Y-15294188D01*
X13283491Y-15135065D01*
X13270239Y-15129165D01*
X12945697Y-15006531D01*
X12931855Y-15002193D01*
X12595370Y-14917673D01*
X12581120Y-14914955D01*
X12237149Y-14869671D01*
X12222682Y-14868609D01*
X11875787Y-14863159D01*
X11861294Y-14863766D01*
X11516071Y-14898224D01*
X11501743Y-14900493D01*
X11162768Y-14974402D01*
X11148796Y-14978303D01*
X10820563Y-15090682D01*
X10807133Y-15096163D01*
X10493991Y-15245524D01*
X10481279Y-15252513D01*
X10187380Y-15436875D01*
X10175555Y-15445278D01*
X9904794Y-15662199D01*
X9894014Y-15671905D01*
X9649979Y-15918509D01*
X9640386Y-15929391D01*
X9426313Y-16202409D01*
X9418034Y-16214320D01*
X9236759Y-16510133D01*
X9229904Y-16522918D01*
X9083831Y-16837607D01*
X9078491Y-16851094D01*
X8969555Y-17180486D01*
X8965801Y-17194498D01*
X8895446Y-17534228D01*
X8893327Y-17548578D01*
X8862486Y-17894143D01*
X8862030Y-17908642D01*
X634000Y-17908642D01*
X634000Y-4908642D01*
X89862030Y-4908642D01*
X89871112Y-5255461D01*
X89872326Y-5269917D01*
X89921210Y-5613394D01*
X89924077Y-5627613D01*
X90012115Y-5963196D01*
X90016598Y-5976993D01*
X90142624Y-6300232D01*
X90148663Y-6313421D01*
X90311006Y-6620033D01*
X90318520Y-6632441D01*
X90515028Y-6918362D01*
X90523919Y-6929824D01*
X90751988Y-7191264D01*
X90762137Y-7201628D01*
X91018743Y-7435122D01*
X91030017Y-7444252D01*
X91311760Y-7646705D01*
X91324008Y-7654477D01*
X91627153Y-7823206D01*
X91640213Y-7829520D01*
X91960742Y-7962287D01*
X91974441Y-7967057D01*
X92308106Y-8062104D01*
X92322263Y-8065269D01*
X92664641Y-8121336D01*
X92679068Y-8122852D01*
X93025622Y-8139195D01*
X93040127Y-8139043D01*
X93386262Y-8115446D01*
X93400654Y-8113628D01*
X93741783Y-8050403D01*
X93755870Y-8046943D01*
X94087471Y-7944929D01*
X94101067Y-7939872D01*
X94418745Y-7800421D01*
X94431670Y-7793836D01*
X94731215Y-7618796D01*
X94743298Y-7610768D01*
X95020740Y-7402459D01*
X95031820Y-7393096D01*
X95283480Y-7154280D01*
X95293410Y-7143706D01*
X95515953Y-6877547D01*
X95524602Y-6865901D01*
X95715080Y-6575927D01*
X95722333Y-6563364D01*
X95878219Y-6253419D01*
X95883980Y-6240106D01*
X96003208Y-5914298D01*
X96007401Y-5900411D01*
X96088392Y-5563059D01*
X96090960Y-5548783D01*
X96132641Y-5204357D01*
X96133492Y-5193176D01*
X96139438Y-5003957D01*
X96139291Y-4992747D01*
X96119320Y-4646384D01*
X96117653Y-4631974D01*
X96058004Y-4290202D01*
X96054691Y-4276079D01*
X95956155Y-3943427D01*
X95951241Y-3929778D01*
X95815124Y-3610657D01*
X95808675Y-3597664D01*
X95636782Y-3296302D01*
X95628881Y-3284136D01*
X95423489Y-3004529D01*
X95414242Y-2993352D01*
X95178073Y-2739205D01*
X95167604Y-2729165D01*
X94903790Y-2503846D01*
X94892235Y-2495075D01*
X94604272Y-2301572D01*
X94591786Y-2294188D01*
X94283491Y-2135065D01*
X94270239Y-2129165D01*
X93945697Y-2006531D01*
X93931855Y-2002193D01*
X93595370Y-1917673D01*
X93581120Y-1914955D01*
X93237149Y-1869671D01*
X93222682Y-1868609D01*
X92875787Y-1863159D01*
X92861294Y-1863766D01*
X92516071Y-1898224D01*
X92501743Y-1900493D01*
X92162768Y-1974402D01*
X92148796Y-1978303D01*
X91820563Y-2090682D01*
X91807133Y-2096163D01*
X91493991Y-2245524D01*
X91481279Y-2252513D01*
X91187380Y-2436875D01*
X91175555Y-2445278D01*
X90904794Y-2662199D01*
X90894014Y-2671905D01*
X90649979Y-2918509D01*
X90640386Y-2929391D01*
X90426313Y-3202409D01*
X90418034Y-3214320D01*
X90236759Y-3510133D01*
X90229904Y-3522918D01*
X90083831Y-3837607D01*
X90078491Y-3851094D01*
X89969555Y-4180486D01*
X89965801Y-4194498D01*
X89895446Y-4534228D01*
X89893327Y-4548578D01*
X89862486Y-4894143D01*
X89862030Y-4908642D01*
X634000Y-4908642D01*
X634000Y-634000D01*
X185366000Y-634000D01*
X185366000Y-107366000D01*
%TA.AperFunction,NonConductor*%
G36*
X185366000Y-107366000D02*
G01*
X180078879Y-107366000D01*
X180050366Y-107361890D01*
X180030966Y-107360609D01*
X179789573Y-107363338D01*
X179775764Y-107362443D01*
X179756321Y-107362686D01*
X179743268Y-107363861D01*
X179733432Y-107363972D01*
X179715586Y-107365446D01*
X179701596Y-107367611D01*
X179288234Y-107404814D01*
X179271315Y-107405239D01*
X179251974Y-107407224D01*
X179242629Y-107408920D01*
X179236450Y-107409476D01*
X179218770Y-107412345D01*
X179202246Y-107416249D01*
X178789557Y-107491140D01*
X178772740Y-107493080D01*
X178753655Y-107496791D01*
X178744505Y-107499316D01*
X178738390Y-107500426D01*
X178721040Y-107504868D01*
X178704923Y-107510241D01*
X178300619Y-107621821D01*
X178284045Y-107625260D01*
X178265370Y-107630666D01*
X178256479Y-107634003D01*
X178250489Y-107635656D01*
X178233609Y-107641634D01*
X178218039Y-107648429D01*
X177825355Y-107795806D01*
X177809165Y-107800714D01*
X177791049Y-107807773D01*
X177782503Y-107811888D01*
X177776677Y-107814075D01*
X177760399Y-107821544D01*
X177745500Y-107829709D01*
X177367613Y-108011689D01*
X177351922Y-108018031D01*
X177334513Y-108026685D01*
X177326366Y-108031553D01*
X177320767Y-108034249D01*
X177305223Y-108043147D01*
X177291120Y-108052611D01*
X176931062Y-108267735D01*
X176916004Y-108275457D01*
X176899440Y-108285637D01*
X176891763Y-108291215D01*
X176886425Y-108294404D01*
X176871742Y-108304660D01*
X176858550Y-108315345D01*
X176519228Y-108561878D01*
X176504913Y-108570925D01*
X176489331Y-108582547D01*
X176482181Y-108588794D01*
X176477150Y-108592449D01*
X176463447Y-108603978D01*
X176451259Y-108615810D01*
X176135401Y-108891767D01*
X176121966Y-108902052D01*
X176107488Y-108915024D01*
X176100928Y-108921885D01*
X176096241Y-108925980D01*
X176083631Y-108938686D01*
X176072546Y-108951570D01*
X175782709Y-109254715D01*
X175770241Y-109266172D01*
X175756983Y-109280392D01*
X175751067Y-109287811D01*
X175746766Y-109292309D01*
X175735341Y-109306101D01*
X175725471Y-109319906D01*
X175463955Y-109647835D01*
X175452571Y-109660355D01*
X175440638Y-109675709D01*
X175435406Y-109683635D01*
X175431536Y-109688488D01*
X175421392Y-109703249D01*
X175412794Y-109717892D01*
X175181739Y-110067926D01*
X175171514Y-110081428D01*
X175161007Y-110097789D01*
X175156513Y-110106141D01*
X175153084Y-110111335D01*
X175144304Y-110126947D01*
X175137051Y-110142308D01*
X174938304Y-110511638D01*
X174929332Y-110526001D01*
X174920335Y-110543236D01*
X174916603Y-110551967D01*
X174913658Y-110557440D01*
X174906314Y-110573773D01*
X174900468Y-110589717D01*
X174735630Y-110975375D01*
X174727977Y-110990493D01*
X174720561Y-111008464D01*
X174717627Y-111017492D01*
X174715185Y-111023207D01*
X174709335Y-111040132D01*
X174704943Y-111056533D01*
X174575335Y-111455426D01*
X174569071Y-111471161D01*
X174563295Y-111489729D01*
X174561184Y-111498981D01*
X174559263Y-111504891D01*
X174554952Y-111522276D01*
X174552048Y-111539004D01*
X174458715Y-111947920D01*
X174453890Y-111964142D01*
X174449802Y-111983147D01*
X174448528Y-111992550D01*
X174447143Y-111998619D01*
X174444410Y-112016314D01*
X174443017Y-112033232D01*
X174386714Y-112448877D01*
X174383364Y-112465461D01*
X174380996Y-112484755D01*
X174380570Y-112494240D01*
X174379735Y-112500404D01*
X174378599Y-112518271D01*
X174378728Y-112535251D01*
X174359910Y-112954264D01*
X174358059Y-112971087D01*
X174357430Y-112990519D01*
X174357856Y-112999999D01*
X174357577Y-113006206D01*
X174358047Y-113024109D01*
X174359697Y-113041006D01*
X174378515Y-113460014D01*
X174378180Y-113476942D01*
X174379295Y-113496348D01*
X174380570Y-113505761D01*
X174380849Y-113511972D01*
X174382922Y-113529757D01*
X174386079Y-113546430D01*
X174442381Y-113962074D01*
X174443564Y-113978958D01*
X174446416Y-113998193D01*
X174448528Y-114007444D01*
X174449361Y-114013597D01*
X174453020Y-114031133D01*
X174457665Y-114047476D01*
X174550992Y-114456369D01*
X174553685Y-114473089D01*
X174558249Y-114491988D01*
X174561182Y-114501016D01*
X174562566Y-114507078D01*
X174567782Y-114524211D01*
X174573871Y-114540066D01*
X174703480Y-114938966D01*
X174707658Y-114955365D01*
X174713895Y-114973775D01*
X174717627Y-114982506D01*
X174719549Y-114988422D01*
X174726278Y-115005012D01*
X174733755Y-115020241D01*
X174898608Y-115405934D01*
X174904241Y-115421897D01*
X174912105Y-115439674D01*
X174916602Y-115448031D01*
X174919047Y-115453751D01*
X174927236Y-115469673D01*
X174936060Y-115484190D01*
X175134803Y-115853518D01*
X175141851Y-115868926D01*
X175151280Y-115885932D01*
X175156508Y-115893852D01*
X175159451Y-115899321D01*
X175169040Y-115914453D01*
X175179117Y-115928102D01*
X175410182Y-116278151D01*
X175418576Y-116292855D01*
X175429488Y-116308945D01*
X175435412Y-116316374D01*
X175438835Y-116321559D01*
X175449736Y-116335763D01*
X175460996Y-116348455D01*
X175722518Y-116676392D01*
X175732191Y-116690276D01*
X175744501Y-116705322D01*
X175751067Y-116712190D01*
X175754940Y-116717046D01*
X175767070Y-116730217D01*
X175779439Y-116741864D01*
X176069281Y-117045016D01*
X176080164Y-117057982D01*
X176093776Y-117071866D01*
X176100920Y-117078108D01*
X176105220Y-117082605D01*
X176118486Y-117094638D01*
X176131838Y-117105120D01*
X176447701Y-117381083D01*
X176459700Y-117393019D01*
X176474497Y-117405624D01*
X176482188Y-117411212D01*
X176486865Y-117415298D01*
X176501147Y-117426087D01*
X176515385Y-117435331D01*
X176854719Y-117681871D01*
X176867739Y-117692683D01*
X176883610Y-117703913D01*
X176891754Y-117708779D01*
X176896789Y-117712437D01*
X176911989Y-117721907D01*
X176927006Y-117729841D01*
X177287050Y-117944957D01*
X177300996Y-117954565D01*
X177317810Y-117964327D01*
X177326365Y-117968447D01*
X177331701Y-117971635D01*
X177347689Y-117979704D01*
X177363343Y-117986254D01*
X177741244Y-118168242D01*
X177755987Y-118176557D01*
X177773608Y-118184773D01*
X177782497Y-118188109D01*
X177788095Y-118190805D01*
X177804743Y-118197409D01*
X177820924Y-118202530D01*
X178213610Y-118349908D01*
X178229040Y-118356868D01*
X178247327Y-118363472D01*
X178256492Y-118366002D01*
X178262305Y-118368183D01*
X178279472Y-118373267D01*
X178296056Y-118376920D01*
X178700354Y-118488498D01*
X178716356Y-118494051D01*
X178735168Y-118498990D01*
X178744512Y-118500685D01*
X178750492Y-118502336D01*
X178768051Y-118505862D01*
X178784886Y-118508013D01*
X179197575Y-118582903D01*
X179214006Y-118586998D01*
X179233180Y-118590230D01*
X179242637Y-118591081D01*
X179248753Y-118592191D01*
X179266558Y-118594129D01*
X179283537Y-118594762D01*
X179697124Y-118631986D01*
X179710788Y-118634272D01*
X179730154Y-118635991D01*
X179743269Y-118636139D01*
X179753055Y-118637020D01*
X179770963Y-118637353D01*
X179785076Y-118636611D01*
X180027688Y-118639354D01*
X180045563Y-118638283D01*
X180078086Y-118634000D01*
X185366000Y-118634000D01*
X185366000Y-225366000D01*
X634000Y-225366000D01*
X634000Y-220908642D01*
X89862030Y-220908642D01*
X89871112Y-221255461D01*
X89872326Y-221269917D01*
X89921210Y-221613394D01*
X89924077Y-221627613D01*
X90012115Y-221963196D01*
X90016598Y-221976993D01*
X90142624Y-222300232D01*
X90148663Y-222313421D01*
X90311006Y-222620033D01*
X90318520Y-222632441D01*
X90515028Y-222918362D01*
X90523919Y-222929824D01*
X90751988Y-223191264D01*
X90762137Y-223201628D01*
X91018743Y-223435122D01*
X91030017Y-223444252D01*
X91311760Y-223646705D01*
X91324008Y-223654477D01*
X91627153Y-223823206D01*
X91640213Y-223829520D01*
X91960742Y-223962287D01*
X91974441Y-223967057D01*
X92308106Y-224062104D01*
X92322263Y-224065269D01*
X92664641Y-224121336D01*
X92679068Y-224122852D01*
X93025622Y-224139195D01*
X93040127Y-224139043D01*
X93386262Y-224115446D01*
X93400654Y-224113628D01*
X93741783Y-224050403D01*
X93755870Y-224046943D01*
X94087471Y-223944929D01*
X94101067Y-223939872D01*
X94418745Y-223800421D01*
X94431670Y-223793836D01*
X94731215Y-223618796D01*
X94743298Y-223610768D01*
X95020740Y-223402459D01*
X95031820Y-223393096D01*
X95283480Y-223154280D01*
X95293410Y-223143706D01*
X95515953Y-222877547D01*
X95524602Y-222865901D01*
X95715080Y-222575927D01*
X95722333Y-222563364D01*
X95878219Y-222253419D01*
X95883980Y-222240106D01*
X96003208Y-221914298D01*
X96007401Y-221900411D01*
X96088392Y-221563059D01*
X96090960Y-221548783D01*
X96132641Y-221204357D01*
X96133492Y-221193176D01*
X96139438Y-221003957D01*
X96139291Y-220992747D01*
X96119320Y-220646384D01*
X96117653Y-220631974D01*
X96058004Y-220290202D01*
X96054691Y-220276079D01*
X95956155Y-219943427D01*
X95951241Y-219929778D01*
X95815124Y-219610657D01*
X95808675Y-219597664D01*
X95636782Y-219296302D01*
X95628881Y-219284136D01*
X95423489Y-219004529D01*
X95414242Y-218993352D01*
X95178073Y-218739205D01*
X95167604Y-218729165D01*
X94903790Y-218503846D01*
X94892235Y-218495075D01*
X94604272Y-218301572D01*
X94591786Y-218294188D01*
X94283491Y-218135065D01*
X94270239Y-218129165D01*
X93945697Y-218006531D01*
X93931855Y-218002193D01*
X93595370Y-217917673D01*
X93581120Y-217914955D01*
X93237149Y-217869671D01*
X93222682Y-217868609D01*
X92875787Y-217863159D01*
X92861294Y-217863766D01*
X92516071Y-217898224D01*
X92501743Y-217900493D01*
X92162768Y-217974402D01*
X92148796Y-217978303D01*
X91820563Y-218090682D01*
X91807133Y-218096163D01*
X91493991Y-218245524D01*
X91481279Y-218252513D01*
X91187380Y-218436875D01*
X91175555Y-218445278D01*
X90904794Y-218662199D01*
X90894014Y-218671905D01*
X90649979Y-218918509D01*
X90640386Y-218929391D01*
X90426313Y-219202409D01*
X90418034Y-219214320D01*
X90236759Y-219510133D01*
X90229904Y-219522918D01*
X90083831Y-219837607D01*
X90078491Y-219851094D01*
X89969555Y-220180486D01*
X89965801Y-220194498D01*
X89895446Y-220534228D01*
X89893327Y-220548578D01*
X89862486Y-220894143D01*
X89862030Y-220908642D01*
X634000Y-220908642D01*
X634000Y-207908642D01*
X8862030Y-207908642D01*
X8871112Y-208255461D01*
X8872326Y-208269917D01*
X8921210Y-208613394D01*
X8924077Y-208627613D01*
X9012115Y-208963196D01*
X9016598Y-208976993D01*
X9142624Y-209300232D01*
X9148663Y-209313421D01*
X9311006Y-209620033D01*
X9318520Y-209632441D01*
X9515028Y-209918362D01*
X9523919Y-209929824D01*
X9751988Y-210191264D01*
X9762137Y-210201628D01*
X10018743Y-210435122D01*
X10030017Y-210444252D01*
X10311760Y-210646705D01*
X10324008Y-210654477D01*
X10627153Y-210823206D01*
X10640213Y-210829520D01*
X10960742Y-210962287D01*
X10974441Y-210967057D01*
X11308106Y-211062104D01*
X11322263Y-211065269D01*
X11664641Y-211121336D01*
X11679068Y-211122852D01*
X12025622Y-211139195D01*
X12040127Y-211139043D01*
X12386262Y-211115446D01*
X12400654Y-211113628D01*
X12741783Y-211050403D01*
X12755870Y-211046943D01*
X13087471Y-210944929D01*
X13101067Y-210939872D01*
X13418745Y-210800421D01*
X13431670Y-210793836D01*
X13731215Y-210618796D01*
X13743298Y-210610768D01*
X14020740Y-210402459D01*
X14031820Y-210393096D01*
X14283480Y-210154280D01*
X14293410Y-210143706D01*
X14515953Y-209877547D01*
X14524602Y-209865901D01*
X14715080Y-209575927D01*
X14722333Y-209563364D01*
X14878219Y-209253419D01*
X14883980Y-209240106D01*
X15003208Y-208914298D01*
X15007401Y-208900411D01*
X15088392Y-208563059D01*
X15090960Y-208548783D01*
X15132641Y-208204357D01*
X15133492Y-208193176D01*
X15139438Y-208003957D01*
X15139291Y-207992747D01*
X15134442Y-207908642D01*
X170862030Y-207908642D01*
X170871112Y-208255461D01*
X170872326Y-208269917D01*
X170921210Y-208613394D01*
X170924077Y-208627613D01*
X171012115Y-208963196D01*
X171016598Y-208976993D01*
X171142624Y-209300232D01*
X171148663Y-209313421D01*
X171311006Y-209620033D01*
X171318520Y-209632441D01*
X171515028Y-209918362D01*
X171523919Y-209929824D01*
X171751988Y-210191264D01*
X171762137Y-210201628D01*
X172018743Y-210435122D01*
X172030017Y-210444252D01*
X172311760Y-210646705D01*
X172324008Y-210654477D01*
X172627153Y-210823206D01*
X172640213Y-210829520D01*
X172960742Y-210962287D01*
X172974441Y-210967057D01*
X173308106Y-211062104D01*
X173322263Y-211065269D01*
X173664641Y-211121336D01*
X173679068Y-211122852D01*
X174025622Y-211139195D01*
X174040127Y-211139043D01*
X174386262Y-211115446D01*
X174400654Y-211113628D01*
X174741783Y-211050403D01*
X174755870Y-211046943D01*
X175087471Y-210944929D01*
X175101067Y-210939872D01*
X175418745Y-210800421D01*
X175431670Y-210793836D01*
X175731215Y-210618796D01*
X175743298Y-210610768D01*
X176020740Y-210402459D01*
X176031820Y-210393096D01*
X176283480Y-210154280D01*
X176293410Y-210143706D01*
X176515953Y-209877547D01*
X176524602Y-209865901D01*
X176715080Y-209575927D01*
X176722333Y-209563364D01*
X176878219Y-209253419D01*
X176883980Y-209240106D01*
X177003208Y-208914298D01*
X177007401Y-208900411D01*
X177088392Y-208563059D01*
X177090960Y-208548783D01*
X177132641Y-208204357D01*
X177133492Y-208193176D01*
X177139438Y-208003957D01*
X177139291Y-207992747D01*
X177119320Y-207646384D01*
X177117653Y-207631974D01*
X177058004Y-207290202D01*
X177054691Y-207276079D01*
X176956155Y-206943427D01*
X176951241Y-206929778D01*
X176815124Y-206610657D01*
X176808675Y-206597664D01*
X176636782Y-206296302D01*
X176628881Y-206284136D01*
X176423489Y-206004529D01*
X176414242Y-205993352D01*
X176178073Y-205739205D01*
X176167604Y-205729165D01*
X175903790Y-205503846D01*
X175892235Y-205495075D01*
X175604272Y-205301572D01*
X175591786Y-205294188D01*
X175283491Y-205135065D01*
X175270239Y-205129165D01*
X174945697Y-205006531D01*
X174931855Y-205002193D01*
X174595370Y-204917673D01*
X174581120Y-204914955D01*
X174237149Y-204869671D01*
X174222682Y-204868609D01*
X173875787Y-204863159D01*
X173861294Y-204863766D01*
X173516071Y-204898224D01*
X173501743Y-204900493D01*
X173162768Y-204974402D01*
X173148796Y-204978303D01*
X172820563Y-205090682D01*
X172807133Y-205096163D01*
X172493991Y-205245524D01*
X172481279Y-205252513D01*
X172187380Y-205436875D01*
X172175555Y-205445278D01*
X171904794Y-205662199D01*
X171894014Y-205671905D01*
X171649979Y-205918509D01*
X171640386Y-205929391D01*
X171426313Y-206202409D01*
X171418034Y-206214320D01*
X171236759Y-206510133D01*
X171229904Y-206522918D01*
X171083831Y-206837607D01*
X171078491Y-206851094D01*
X170969555Y-207180486D01*
X170965801Y-207194498D01*
X170895446Y-207534228D01*
X170893327Y-207548578D01*
X170862486Y-207894143D01*
X170862030Y-207908642D01*
X15134442Y-207908642D01*
X15119320Y-207646384D01*
X15117653Y-207631974D01*
X15058004Y-207290202D01*
X15054691Y-207276079D01*
X14956155Y-206943427D01*
X14951241Y-206929778D01*
X14815124Y-206610657D01*
X14808675Y-206597664D01*
X14636782Y-206296302D01*
X14628881Y-206284136D01*
X14423489Y-206004529D01*
X14414242Y-205993352D01*
X14178073Y-205739205D01*
X14167604Y-205729165D01*
X13903790Y-205503846D01*
X13892235Y-205495075D01*
X13604272Y-205301572D01*
X13591786Y-205294188D01*
X13283491Y-205135065D01*
X13270239Y-205129165D01*
X12945697Y-205006531D01*
X12931855Y-205002193D01*
X12595370Y-204917673D01*
X12581120Y-204914955D01*
X12237149Y-204869671D01*
X12222682Y-204868609D01*
X11875787Y-204863159D01*
X11861294Y-204863766D01*
X11516071Y-204898224D01*
X11501743Y-204900493D01*
X11162768Y-204974402D01*
X11148796Y-204978303D01*
X10820563Y-205090682D01*
X10807133Y-205096163D01*
X10493991Y-205245524D01*
X10481279Y-205252513D01*
X10187380Y-205436875D01*
X10175555Y-205445278D01*
X9904794Y-205662199D01*
X9894014Y-205671905D01*
X9649979Y-205918509D01*
X9640386Y-205929391D01*
X9426313Y-206202409D01*
X9418034Y-206214320D01*
X9236759Y-206510133D01*
X9229904Y-206522918D01*
X9083831Y-206837607D01*
X9078491Y-206851094D01*
X8969555Y-207180486D01*
X8965801Y-207194498D01*
X8895446Y-207534228D01*
X8893327Y-207548578D01*
X8862486Y-207894143D01*
X8862030Y-207908642D01*
X634000Y-207908642D01*
X634000Y-179814513D01*
X23823800Y-179814513D01*
X23823800Y-180005487D01*
X23826553Y-180031684D01*
X23866259Y-180218484D01*
X23874399Y-180243536D01*
X23952075Y-180417999D01*
X23965246Y-180440811D01*
X24077497Y-180595312D01*
X24095123Y-180614887D01*
X24237044Y-180742673D01*
X24258354Y-180758156D01*
X24423742Y-180853643D01*
X24447806Y-180864357D01*
X24629433Y-180923371D01*
X24655199Y-180928848D01*
X24797554Y-180943810D01*
X24810724Y-180944500D01*
X24905868Y-180944500D01*
X24919038Y-180943810D01*
X25061393Y-180928848D01*
X25087159Y-180923371D01*
X25268786Y-180864357D01*
X25292850Y-180853643D01*
X25458238Y-180758156D01*
X25479548Y-180742673D01*
X25621469Y-180614887D01*
X25639095Y-180595312D01*
X25751346Y-180440811D01*
X25764517Y-180417999D01*
X25842193Y-180243536D01*
X25850333Y-180218484D01*
X25890039Y-180031684D01*
X25892792Y-180005487D01*
X25892792Y-179814513D01*
X98980504Y-179814513D01*
X98980504Y-180005487D01*
X98983257Y-180031684D01*
X99022963Y-180218484D01*
X99031103Y-180243536D01*
X99108779Y-180417999D01*
X99121950Y-180440811D01*
X99234201Y-180595312D01*
X99251827Y-180614887D01*
X99393748Y-180742673D01*
X99415058Y-180758156D01*
X99580446Y-180853643D01*
X99604510Y-180864357D01*
X99786137Y-180923371D01*
X99811903Y-180928848D01*
X99954258Y-180943810D01*
X99967428Y-180944500D01*
X100062572Y-180944500D01*
X100075742Y-180943810D01*
X100218097Y-180928848D01*
X100243863Y-180923371D01*
X100425490Y-180864357D01*
X100449554Y-180853643D01*
X100614942Y-180758156D01*
X100636252Y-180742673D01*
X100778173Y-180614887D01*
X100795799Y-180595312D01*
X100908050Y-180440811D01*
X100921221Y-180417999D01*
X100998897Y-180243536D01*
X101007037Y-180218484D01*
X101046743Y-180031684D01*
X101049496Y-180005487D01*
X101049496Y-179814513D01*
X101046743Y-179788316D01*
X101007037Y-179601516D01*
X100998897Y-179576464D01*
X100921221Y-179402001D01*
X100908050Y-179379189D01*
X100795799Y-179224688D01*
X100778173Y-179205113D01*
X100636252Y-179077327D01*
X100614942Y-179061844D01*
X100449554Y-178966357D01*
X100425490Y-178955643D01*
X100243863Y-178896629D01*
X100218097Y-178891152D01*
X100075742Y-178876190D01*
X100062572Y-178875500D01*
X99967428Y-178875500D01*
X99954258Y-178876190D01*
X99811903Y-178891152D01*
X99786137Y-178896629D01*
X99604510Y-178955643D01*
X99580446Y-178966357D01*
X99415058Y-179061844D01*
X99393748Y-179077327D01*
X99251827Y-179205113D01*
X99234201Y-179224688D01*
X99121950Y-179379189D01*
X99108779Y-179402001D01*
X99031103Y-179576464D01*
X99022963Y-179601516D01*
X98983257Y-179788316D01*
X98980504Y-179814513D01*
X25892792Y-179814513D01*
X25890039Y-179788316D01*
X25850333Y-179601516D01*
X25842193Y-179576464D01*
X25764517Y-179402001D01*
X25751346Y-179379189D01*
X25639095Y-179224688D01*
X25621469Y-179205113D01*
X25479548Y-179077327D01*
X25458238Y-179061844D01*
X25292850Y-178966357D01*
X25268786Y-178955643D01*
X25087159Y-178896629D01*
X25061393Y-178891152D01*
X24919038Y-178876190D01*
X24905868Y-178875500D01*
X24810724Y-178875500D01*
X24797554Y-178876190D01*
X24655199Y-178891152D01*
X24629433Y-178896629D01*
X24447806Y-178955643D01*
X24423742Y-178966357D01*
X24258354Y-179061844D01*
X24237044Y-179077327D01*
X24095123Y-179205113D01*
X24077497Y-179224688D01*
X23965246Y-179379189D01*
X23952075Y-179402001D01*
X23874399Y-179576464D01*
X23866259Y-179601516D01*
X23826553Y-179788316D01*
X23823800Y-179814513D01*
X634000Y-179814513D01*
X634000Y-118634000D01*
X5921121Y-118634000D01*
X5949634Y-118638110D01*
X5969034Y-118639391D01*
X6210427Y-118636662D01*
X6224236Y-118637557D01*
X6243679Y-118637314D01*
X6256732Y-118636139D01*
X6266568Y-118636028D01*
X6284414Y-118634554D01*
X6298405Y-118632389D01*
X6711768Y-118595185D01*
X6728679Y-118594761D01*
X6748026Y-118592776D01*
X6757371Y-118591080D01*
X6763550Y-118590524D01*
X6781230Y-118587655D01*
X6797754Y-118583751D01*
X7210434Y-118508861D01*
X7227257Y-118506921D01*
X7246342Y-118503210D01*
X7255494Y-118500684D01*
X7261612Y-118499574D01*
X7278961Y-118495132D01*
X7295086Y-118489756D01*
X7699380Y-118378179D01*
X7715955Y-118374740D01*
X7734630Y-118369334D01*
X7743521Y-118365997D01*
X7749511Y-118364344D01*
X7766389Y-118358367D01*
X7781963Y-118351570D01*
X8174628Y-118204200D01*
X8190838Y-118199286D01*
X8208948Y-118192229D01*
X8217507Y-118188108D01*
X8223327Y-118185923D01*
X8239599Y-118178457D01*
X8254501Y-118170291D01*
X8632360Y-117988323D01*
X8648077Y-117981971D01*
X8665488Y-117973315D01*
X8673643Y-117968442D01*
X8679232Y-117965751D01*
X8694780Y-117956851D01*
X8708870Y-117947395D01*
X9068935Y-117732268D01*
X9083997Y-117724543D01*
X9100560Y-117714363D01*
X9108237Y-117708785D01*
X9113575Y-117705596D01*
X9128258Y-117695340D01*
X9141450Y-117684655D01*
X9480772Y-117438122D01*
X9495087Y-117429075D01*
X9510669Y-117417453D01*
X9517819Y-117411206D01*
X9522850Y-117407551D01*
X9536553Y-117396022D01*
X9548741Y-117384190D01*
X9864588Y-117108243D01*
X9878036Y-117097948D01*
X9892516Y-117084973D01*
X9899075Y-117078113D01*
X9903755Y-117074024D01*
X9916371Y-117061312D01*
X9927448Y-117048437D01*
X10217292Y-116745284D01*
X10229759Y-116733828D01*
X10243017Y-116719608D01*
X10248933Y-116712189D01*
X10253234Y-116707691D01*
X10264659Y-116693899D01*
X10274538Y-116680082D01*
X10536035Y-116352176D01*
X10547431Y-116339643D01*
X10559362Y-116324291D01*
X10564594Y-116316365D01*
X10568464Y-116311512D01*
X10578609Y-116296750D01*
X10587211Y-116282100D01*
X10818261Y-115932073D01*
X10828485Y-115918573D01*
X10838993Y-115902211D01*
X10843487Y-115893859D01*
X10846916Y-115888665D01*
X10855694Y-115873057D01*
X10862950Y-115857692D01*
X11061697Y-115488359D01*
X11070667Y-115474000D01*
X11079665Y-115456765D01*
X11083395Y-115448038D01*
X11086343Y-115442560D01*
X11093685Y-115426230D01*
X11099526Y-115410299D01*
X11264373Y-115024618D01*
X11272023Y-115009507D01*
X11279440Y-114991534D01*
X11282377Y-114982493D01*
X11284813Y-114976795D01*
X11290664Y-114959869D01*
X11295054Y-114943480D01*
X11424665Y-114544576D01*
X11430930Y-114528837D01*
X11436705Y-114510271D01*
X11438816Y-114501019D01*
X11440737Y-114495109D01*
X11445048Y-114477724D01*
X11447952Y-114460996D01*
X11541285Y-114052080D01*
X11546110Y-114035858D01*
X11550198Y-114016853D01*
X11551472Y-114007450D01*
X11552857Y-114001381D01*
X11555590Y-113983686D01*
X11556983Y-113966768D01*
X11613286Y-113551123D01*
X11616636Y-113534539D01*
X11619004Y-113515245D01*
X11619430Y-113505760D01*
X11620265Y-113499596D01*
X11621401Y-113481729D01*
X11621272Y-113464749D01*
X11640090Y-113045736D01*
X11641941Y-113028913D01*
X11642570Y-113009481D01*
X11642144Y-113000000D01*
X11642423Y-112993794D01*
X11641953Y-112975891D01*
X11640303Y-112958994D01*
X11638042Y-112908642D01*
X12862030Y-112908642D01*
X12871112Y-113255461D01*
X12872326Y-113269917D01*
X12921210Y-113613394D01*
X12924077Y-113627613D01*
X13012115Y-113963196D01*
X13016598Y-113976993D01*
X13142624Y-114300232D01*
X13148663Y-114313421D01*
X13311006Y-114620033D01*
X13318520Y-114632441D01*
X13515028Y-114918362D01*
X13523919Y-114929824D01*
X13751988Y-115191264D01*
X13762137Y-115201628D01*
X14018743Y-115435122D01*
X14030017Y-115444252D01*
X14311760Y-115646705D01*
X14324008Y-115654477D01*
X14627153Y-115823206D01*
X14640213Y-115829520D01*
X14960742Y-115962287D01*
X14974441Y-115967057D01*
X15308106Y-116062104D01*
X15322263Y-116065269D01*
X15664641Y-116121336D01*
X15679068Y-116122852D01*
X16025622Y-116139195D01*
X16040127Y-116139043D01*
X16386262Y-116115446D01*
X16400654Y-116113628D01*
X16741783Y-116050403D01*
X16755870Y-116046943D01*
X17087471Y-115944929D01*
X17101067Y-115939872D01*
X17418745Y-115800421D01*
X17431670Y-115793836D01*
X17731215Y-115618796D01*
X17743298Y-115610768D01*
X18020740Y-115402459D01*
X18031820Y-115393096D01*
X18283480Y-115154280D01*
X18293410Y-115143706D01*
X18515953Y-114877547D01*
X18524602Y-114865901D01*
X18715080Y-114575927D01*
X18722333Y-114563364D01*
X18878219Y-114253419D01*
X18883980Y-114240106D01*
X19003208Y-113914298D01*
X19007401Y-113900411D01*
X19088392Y-113563059D01*
X19090960Y-113548783D01*
X19132641Y-113204357D01*
X19133492Y-113193176D01*
X19139438Y-113003957D01*
X19139291Y-112992747D01*
X19134442Y-112908642D01*
X89862030Y-112908642D01*
X89871112Y-113255461D01*
X89872326Y-113269917D01*
X89921210Y-113613394D01*
X89924077Y-113627613D01*
X90012115Y-113963196D01*
X90016598Y-113976993D01*
X90142624Y-114300232D01*
X90148663Y-114313421D01*
X90311006Y-114620033D01*
X90318520Y-114632441D01*
X90515028Y-114918362D01*
X90523919Y-114929824D01*
X90751988Y-115191264D01*
X90762137Y-115201628D01*
X91018743Y-115435122D01*
X91030017Y-115444252D01*
X91311760Y-115646705D01*
X91324008Y-115654477D01*
X91627153Y-115823206D01*
X91640213Y-115829520D01*
X91960742Y-115962287D01*
X91974441Y-115967057D01*
X92308106Y-116062104D01*
X92322263Y-116065269D01*
X92664641Y-116121336D01*
X92679068Y-116122852D01*
X93025622Y-116139195D01*
X93040127Y-116139043D01*
X93386262Y-116115446D01*
X93400654Y-116113628D01*
X93741783Y-116050403D01*
X93755870Y-116046943D01*
X94087471Y-115944929D01*
X94101067Y-115939872D01*
X94418745Y-115800421D01*
X94431670Y-115793836D01*
X94731215Y-115618796D01*
X94743298Y-115610768D01*
X95020740Y-115402459D01*
X95031820Y-115393096D01*
X95283480Y-115154280D01*
X95293410Y-115143706D01*
X95515953Y-114877547D01*
X95524602Y-114865901D01*
X95715080Y-114575927D01*
X95722333Y-114563364D01*
X95878219Y-114253419D01*
X95883980Y-114240106D01*
X96003208Y-113914298D01*
X96007401Y-113900411D01*
X96088392Y-113563059D01*
X96090960Y-113548783D01*
X96132641Y-113204357D01*
X96133492Y-113193176D01*
X96139438Y-113003957D01*
X96139291Y-112992747D01*
X96134442Y-112908642D01*
X166862030Y-112908642D01*
X166871112Y-113255461D01*
X166872326Y-113269917D01*
X166921210Y-113613394D01*
X166924077Y-113627613D01*
X167012115Y-113963196D01*
X167016598Y-113976993D01*
X167142624Y-114300232D01*
X167148663Y-114313421D01*
X167311006Y-114620033D01*
X167318520Y-114632441D01*
X167515028Y-114918362D01*
X167523919Y-114929824D01*
X167751988Y-115191264D01*
X167762137Y-115201628D01*
X168018743Y-115435122D01*
X168030017Y-115444252D01*
X168311760Y-115646705D01*
X168324008Y-115654477D01*
X168627153Y-115823206D01*
X168640213Y-115829520D01*
X168960742Y-115962287D01*
X168974441Y-115967057D01*
X169308106Y-116062104D01*
X169322263Y-116065269D01*
X169664641Y-116121336D01*
X169679068Y-116122852D01*
X170025622Y-116139195D01*
X170040127Y-116139043D01*
X170386262Y-116115446D01*
X170400654Y-116113628D01*
X170741783Y-116050403D01*
X170755870Y-116046943D01*
X171087471Y-115944929D01*
X171101067Y-115939872D01*
X171418745Y-115800421D01*
X171431670Y-115793836D01*
X171731215Y-115618796D01*
X171743298Y-115610768D01*
X172020740Y-115402459D01*
X172031820Y-115393096D01*
X172283480Y-115154280D01*
X172293410Y-115143706D01*
X172515953Y-114877547D01*
X172524602Y-114865901D01*
X172715080Y-114575927D01*
X172722333Y-114563364D01*
X172878219Y-114253419D01*
X172883980Y-114240106D01*
X173003208Y-113914298D01*
X173007401Y-113900411D01*
X173088392Y-113563059D01*
X173090960Y-113548783D01*
X173132641Y-113204357D01*
X173133492Y-113193176D01*
X173139438Y-113003957D01*
X173139291Y-112992747D01*
X173119320Y-112646384D01*
X173117653Y-112631974D01*
X173058004Y-112290202D01*
X173054691Y-112276079D01*
X172956155Y-111943427D01*
X172951241Y-111929778D01*
X172815124Y-111610657D01*
X172808675Y-111597664D01*
X172636782Y-111296302D01*
X172628881Y-111284136D01*
X172423489Y-111004529D01*
X172414242Y-110993352D01*
X172178073Y-110739205D01*
X172167604Y-110729165D01*
X171903790Y-110503846D01*
X171892235Y-110495075D01*
X171604272Y-110301572D01*
X171591786Y-110294188D01*
X171283491Y-110135065D01*
X171270239Y-110129165D01*
X170945697Y-110006531D01*
X170931855Y-110002193D01*
X170595370Y-109917673D01*
X170581120Y-109914955D01*
X170237149Y-109869671D01*
X170222682Y-109868609D01*
X169875787Y-109863159D01*
X169861294Y-109863766D01*
X169516071Y-109898224D01*
X169501743Y-109900493D01*
X169162768Y-109974402D01*
X169148796Y-109978303D01*
X168820563Y-110090682D01*
X168807133Y-110096163D01*
X168493991Y-110245524D01*
X168481279Y-110252513D01*
X168187380Y-110436875D01*
X168175555Y-110445278D01*
X167904794Y-110662199D01*
X167894014Y-110671905D01*
X167649979Y-110918509D01*
X167640386Y-110929391D01*
X167426313Y-111202409D01*
X167418034Y-111214320D01*
X167236759Y-111510133D01*
X167229904Y-111522918D01*
X167083831Y-111837607D01*
X167078491Y-111851094D01*
X166969555Y-112180486D01*
X166965801Y-112194498D01*
X166895446Y-112534228D01*
X166893327Y-112548578D01*
X166862486Y-112894143D01*
X166862030Y-112908642D01*
X96134442Y-112908642D01*
X96119320Y-112646384D01*
X96117653Y-112631974D01*
X96058004Y-112290202D01*
X96054691Y-112276079D01*
X95956155Y-111943427D01*
X95951241Y-111929778D01*
X95815124Y-111610657D01*
X95808675Y-111597664D01*
X95636782Y-111296302D01*
X95628881Y-111284136D01*
X95423489Y-111004529D01*
X95414242Y-110993352D01*
X95178073Y-110739205D01*
X95167604Y-110729165D01*
X94903790Y-110503846D01*
X94892235Y-110495075D01*
X94604272Y-110301572D01*
X94591786Y-110294188D01*
X94283491Y-110135065D01*
X94270239Y-110129165D01*
X93945697Y-110006531D01*
X93931855Y-110002193D01*
X93595370Y-109917673D01*
X93581120Y-109914955D01*
X93237149Y-109869671D01*
X93222682Y-109868609D01*
X92875787Y-109863159D01*
X92861294Y-109863766D01*
X92516071Y-109898224D01*
X92501743Y-109900493D01*
X92162768Y-109974402D01*
X92148796Y-109978303D01*
X91820563Y-110090682D01*
X91807133Y-110096163D01*
X91493991Y-110245524D01*
X91481279Y-110252513D01*
X91187380Y-110436875D01*
X91175555Y-110445278D01*
X90904794Y-110662199D01*
X90894014Y-110671905D01*
X90649979Y-110918509D01*
X90640386Y-110929391D01*
X90426313Y-111202409D01*
X90418034Y-111214320D01*
X90236759Y-111510133D01*
X90229904Y-111522918D01*
X90083831Y-111837607D01*
X90078491Y-111851094D01*
X89969555Y-112180486D01*
X89965801Y-112194498D01*
X89895446Y-112534228D01*
X89893327Y-112548578D01*
X89862486Y-112894143D01*
X89862030Y-112908642D01*
X19134442Y-112908642D01*
X19119320Y-112646384D01*
X19117653Y-112631974D01*
X19058004Y-112290202D01*
X19054691Y-112276079D01*
X18956155Y-111943427D01*
X18951241Y-111929778D01*
X18815124Y-111610657D01*
X18808675Y-111597664D01*
X18636782Y-111296302D01*
X18628881Y-111284136D01*
X18423489Y-111004529D01*
X18414242Y-110993352D01*
X18178073Y-110739205D01*
X18167604Y-110729165D01*
X17903790Y-110503846D01*
X17892235Y-110495075D01*
X17604272Y-110301572D01*
X17591786Y-110294188D01*
X17283491Y-110135065D01*
X17270239Y-110129165D01*
X16945697Y-110006531D01*
X16931855Y-110002193D01*
X16595370Y-109917673D01*
X16581120Y-109914955D01*
X16237149Y-109869671D01*
X16222682Y-109868609D01*
X15875787Y-109863159D01*
X15861294Y-109863766D01*
X15516071Y-109898224D01*
X15501743Y-109900493D01*
X15162768Y-109974402D01*
X15148796Y-109978303D01*
X14820563Y-110090682D01*
X14807133Y-110096163D01*
X14493991Y-110245524D01*
X14481279Y-110252513D01*
X14187380Y-110436875D01*
X14175555Y-110445278D01*
X13904794Y-110662199D01*
X13894014Y-110671905D01*
X13649979Y-110918509D01*
X13640386Y-110929391D01*
X13426313Y-111202409D01*
X13418034Y-111214320D01*
X13236759Y-111510133D01*
X13229904Y-111522918D01*
X13083831Y-111837607D01*
X13078491Y-111851094D01*
X12969555Y-112180486D01*
X12965801Y-112194498D01*
X12895446Y-112534228D01*
X12893327Y-112548578D01*
X12862486Y-112894143D01*
X12862030Y-112908642D01*
X11638042Y-112908642D01*
X11621485Y-112539986D01*
X11621820Y-112523058D01*
X11620705Y-112503652D01*
X11619430Y-112494239D01*
X11619151Y-112488028D01*
X11617078Y-112470243D01*
X11613921Y-112453570D01*
X11557619Y-112037926D01*
X11556436Y-112021042D01*
X11553585Y-112001810D01*
X11551474Y-111992559D01*
X11550639Y-111986398D01*
X11546980Y-111968868D01*
X11542338Y-111952533D01*
X11449007Y-111543627D01*
X11446315Y-111526913D01*
X11441750Y-111508009D01*
X11438815Y-111498978D01*
X11437434Y-111492925D01*
X11432219Y-111475791D01*
X11426130Y-111459935D01*
X11296526Y-111061055D01*
X11292343Y-111044637D01*
X11286104Y-111026224D01*
X11282370Y-111017487D01*
X11280450Y-111011579D01*
X11273720Y-110994986D01*
X11266241Y-110979754D01*
X11101396Y-110594081D01*
X11095760Y-110578107D01*
X11087896Y-110560327D01*
X11083393Y-110551959D01*
X11080952Y-110546248D01*
X11072762Y-110530325D01*
X11063945Y-110515820D01*
X10865193Y-110146475D01*
X10858147Y-110131072D01*
X10848721Y-110114070D01*
X10843491Y-110106147D01*
X10840547Y-110100676D01*
X10830960Y-110085547D01*
X10820874Y-110071884D01*
X10589818Y-109721848D01*
X10581422Y-109707142D01*
X10570508Y-109691052D01*
X10564597Y-109683640D01*
X10561168Y-109678445D01*
X10550266Y-109664239D01*
X10538993Y-109651532D01*
X10277481Y-109323608D01*
X10267811Y-109309727D01*
X10255500Y-109294679D01*
X10248933Y-109287811D01*
X10245061Y-109282955D01*
X10232929Y-109269783D01*
X10220572Y-109258147D01*
X9930724Y-108954990D01*
X9919836Y-108942017D01*
X9906224Y-108928133D01*
X9899075Y-108921887D01*
X9894782Y-108917397D01*
X9881514Y-108905362D01*
X9868161Y-108894879D01*
X9552305Y-108618924D01*
X9540300Y-108606981D01*
X9525503Y-108594376D01*
X9517812Y-108588788D01*
X9513135Y-108584702D01*
X9498853Y-108573913D01*
X9484615Y-108564669D01*
X9145281Y-108318129D01*
X9132261Y-108307317D01*
X9116390Y-108296087D01*
X9108246Y-108291221D01*
X9103211Y-108287563D01*
X9088011Y-108278093D01*
X9072994Y-108270159D01*
X8712946Y-108055040D01*
X8699005Y-108045436D01*
X8682190Y-108035673D01*
X8673635Y-108031553D01*
X8668299Y-108028365D01*
X8652311Y-108020296D01*
X8636657Y-108013746D01*
X8258758Y-107831758D01*
X8244010Y-107823441D01*
X8226390Y-107815227D01*
X8217506Y-107811893D01*
X8211906Y-107809196D01*
X8195257Y-107802591D01*
X8179071Y-107797468D01*
X7786386Y-107650090D01*
X7770957Y-107643131D01*
X7752673Y-107636528D01*
X7743508Y-107633998D01*
X7737695Y-107631817D01*
X7720528Y-107626733D01*
X7703944Y-107623080D01*
X7299646Y-107511502D01*
X7283644Y-107505949D01*
X7264832Y-107501010D01*
X7255488Y-107499315D01*
X7249508Y-107497664D01*
X7231949Y-107494138D01*
X7215114Y-107491987D01*
X6802425Y-107417097D01*
X6785994Y-107413002D01*
X6766820Y-107409770D01*
X6757363Y-107408919D01*
X6751247Y-107407809D01*
X6733442Y-107405871D01*
X6716463Y-107405238D01*
X6302876Y-107368014D01*
X6289212Y-107365728D01*
X6269846Y-107364009D01*
X6256731Y-107363861D01*
X6246945Y-107362980D01*
X6229037Y-107362647D01*
X6214924Y-107363389D01*
X5972312Y-107360646D01*
X5954437Y-107361717D01*
X5921914Y-107366000D01*
X634000Y-107366000D01*
X634000Y-69539513D01*
X89455504Y-69539513D01*
X89455504Y-69730487D01*
X89458257Y-69756684D01*
X89497963Y-69943484D01*
X89506103Y-69968536D01*
X89583779Y-70142999D01*
X89596950Y-70165811D01*
X89709201Y-70320312D01*
X89726827Y-70339887D01*
X89868748Y-70467673D01*
X89890058Y-70483156D01*
X90055446Y-70578643D01*
X90079510Y-70589357D01*
X90261137Y-70648371D01*
X90286903Y-70653848D01*
X90429258Y-70668810D01*
X90442428Y-70669500D01*
X90537572Y-70669500D01*
X90550742Y-70668810D01*
X90693097Y-70653848D01*
X90718863Y-70648371D01*
X90900490Y-70589357D01*
X90924554Y-70578643D01*
X91089942Y-70483156D01*
X91111252Y-70467673D01*
X91253173Y-70339887D01*
X91270799Y-70320312D01*
X91383050Y-70165811D01*
X91396221Y-70142999D01*
X91473897Y-69968536D01*
X91482037Y-69943484D01*
X91521743Y-69756684D01*
X91524496Y-69730487D01*
X91524496Y-69539513D01*
X91521743Y-69513316D01*
X91482037Y-69326516D01*
X91473897Y-69301464D01*
X91396221Y-69127001D01*
X91383050Y-69104189D01*
X91365122Y-69079513D01*
X159755504Y-69079513D01*
X159755504Y-69270487D01*
X159758257Y-69296684D01*
X159797963Y-69483484D01*
X159806103Y-69508536D01*
X159883779Y-69682999D01*
X159896950Y-69705811D01*
X160009201Y-69860312D01*
X160026827Y-69879887D01*
X160168748Y-70007673D01*
X160190058Y-70023156D01*
X160355446Y-70118643D01*
X160379510Y-70129357D01*
X160561137Y-70188371D01*
X160586903Y-70193848D01*
X160729258Y-70208810D01*
X160742428Y-70209500D01*
X160837572Y-70209500D01*
X160850742Y-70208810D01*
X160993097Y-70193848D01*
X161018863Y-70188371D01*
X161200490Y-70129357D01*
X161224554Y-70118643D01*
X161389942Y-70023156D01*
X161411252Y-70007673D01*
X161553173Y-69879887D01*
X161570799Y-69860312D01*
X161683050Y-69705811D01*
X161696221Y-69682999D01*
X161773897Y-69508536D01*
X161782037Y-69483484D01*
X161821743Y-69296684D01*
X161824496Y-69270487D01*
X161824496Y-69079513D01*
X161821743Y-69053316D01*
X161782037Y-68866516D01*
X161773897Y-68841464D01*
X161696221Y-68667001D01*
X161683050Y-68644189D01*
X161570799Y-68489688D01*
X161553173Y-68470113D01*
X161411252Y-68342327D01*
X161389942Y-68326844D01*
X161224554Y-68231357D01*
X161200490Y-68220643D01*
X161018863Y-68161629D01*
X160993097Y-68156152D01*
X160850742Y-68141190D01*
X160837572Y-68140500D01*
X160742428Y-68140500D01*
X160729258Y-68141190D01*
X160586903Y-68156152D01*
X160561137Y-68161629D01*
X160379510Y-68220643D01*
X160355446Y-68231357D01*
X160190058Y-68326844D01*
X160168748Y-68342327D01*
X160026827Y-68470113D01*
X160009201Y-68489688D01*
X159896950Y-68644189D01*
X159883779Y-68667001D01*
X159806103Y-68841464D01*
X159797963Y-68866516D01*
X159758257Y-69053316D01*
X159755504Y-69079513D01*
X91365122Y-69079513D01*
X91270799Y-68949688D01*
X91253173Y-68930113D01*
X91111252Y-68802327D01*
X91089942Y-68786844D01*
X90924554Y-68691357D01*
X90900490Y-68680643D01*
X90718863Y-68621629D01*
X90693097Y-68616152D01*
X90550742Y-68601190D01*
X90537572Y-68600500D01*
X90442428Y-68600500D01*
X90429258Y-68601190D01*
X90286903Y-68616152D01*
X90261137Y-68621629D01*
X90079510Y-68680643D01*
X90055446Y-68691357D01*
X89890058Y-68786844D01*
X89868748Y-68802327D01*
X89726827Y-68930113D01*
X89709201Y-68949688D01*
X89596950Y-69104189D01*
X89583779Y-69127001D01*
X89506103Y-69301464D01*
X89497963Y-69326516D01*
X89458257Y-69513316D01*
X89455504Y-69539513D01*
X634000Y-69539513D01*
X634000Y-17908642D01*
X8862030Y-17908642D01*
X8871112Y-18255461D01*
X8872326Y-18269917D01*
X8921210Y-18613394D01*
X8924077Y-18627613D01*
X9012115Y-18963196D01*
X9016598Y-18976993D01*
X9142624Y-19300232D01*
X9148663Y-19313421D01*
X9311006Y-19620033D01*
X9318520Y-19632441D01*
X9515028Y-19918362D01*
X9523919Y-19929824D01*
X9751988Y-20191264D01*
X9762137Y-20201628D01*
X10018743Y-20435122D01*
X10030017Y-20444252D01*
X10311760Y-20646705D01*
X10324008Y-20654477D01*
X10627153Y-20823206D01*
X10640213Y-20829520D01*
X10960742Y-20962287D01*
X10974441Y-20967057D01*
X11308106Y-21062104D01*
X11322263Y-21065269D01*
X11664641Y-21121336D01*
X11679068Y-21122852D01*
X12025622Y-21139195D01*
X12040127Y-21139043D01*
X12386262Y-21115446D01*
X12400654Y-21113628D01*
X12741783Y-21050403D01*
X12755870Y-21046943D01*
X13087471Y-20944929D01*
X13101067Y-20939872D01*
X13418745Y-20800421D01*
X13431670Y-20793836D01*
X13731215Y-20618796D01*
X13743298Y-20610768D01*
X14020740Y-20402459D01*
X14031820Y-20393096D01*
X14283480Y-20154280D01*
X14293410Y-20143706D01*
X14515953Y-19877547D01*
X14524602Y-19865901D01*
X14715080Y-19575927D01*
X14722333Y-19563364D01*
X14878219Y-19253419D01*
X14883980Y-19240106D01*
X15003208Y-18914298D01*
X15007401Y-18900411D01*
X15088392Y-18563059D01*
X15090960Y-18548783D01*
X15132641Y-18204357D01*
X15133492Y-18193176D01*
X15139438Y-18003957D01*
X15139291Y-17992747D01*
X15134442Y-17908642D01*
X170862030Y-17908642D01*
X170871112Y-18255461D01*
X170872326Y-18269917D01*
X170921210Y-18613394D01*
X170924077Y-18627613D01*
X171012115Y-18963196D01*
X171016598Y-18976993D01*
X171142624Y-19300232D01*
X171148663Y-19313421D01*
X171311006Y-19620033D01*
X171318520Y-19632441D01*
X171515028Y-19918362D01*
X171523919Y-19929824D01*
X171751988Y-20191264D01*
X171762137Y-20201628D01*
X172018743Y-20435122D01*
X172030017Y-20444252D01*
X172311760Y-20646705D01*
X172324008Y-20654477D01*
X172627153Y-20823206D01*
X172640213Y-20829520D01*
X172960742Y-20962287D01*
X172974441Y-20967057D01*
X173308106Y-21062104D01*
X173322263Y-21065269D01*
X173664641Y-21121336D01*
X173679068Y-21122852D01*
X174025622Y-21139195D01*
X174040127Y-21139043D01*
X174386262Y-21115446D01*
X174400654Y-21113628D01*
X174741783Y-21050403D01*
X174755870Y-21046943D01*
X175087471Y-20944929D01*
X175101067Y-20939872D01*
X175418745Y-20800421D01*
X175431670Y-20793836D01*
X175731215Y-20618796D01*
X175743298Y-20610768D01*
X176020740Y-20402459D01*
X176031820Y-20393096D01*
X176283480Y-20154280D01*
X176293410Y-20143706D01*
X176515953Y-19877547D01*
X176524602Y-19865901D01*
X176715080Y-19575927D01*
X176722333Y-19563364D01*
X176878219Y-19253419D01*
X176883980Y-19240106D01*
X177003208Y-18914298D01*
X177007401Y-18900411D01*
X177088392Y-18563059D01*
X177090960Y-18548783D01*
X177132641Y-18204357D01*
X177133492Y-18193176D01*
X177139438Y-18003957D01*
X177139291Y-17992747D01*
X177119320Y-17646384D01*
X177117653Y-17631974D01*
X177058004Y-17290202D01*
X177054691Y-17276079D01*
X176956155Y-16943427D01*
X176951241Y-16929778D01*
X176815124Y-16610657D01*
X176808675Y-16597664D01*
X176636782Y-16296302D01*
X176628881Y-16284136D01*
X176423489Y-16004529D01*
X176414242Y-15993352D01*
X176178073Y-15739205D01*
X176167604Y-15729165D01*
X175903790Y-15503846D01*
X175892235Y-15495075D01*
X175604272Y-15301572D01*
X175591786Y-15294188D01*
X175283491Y-15135065D01*
X175270239Y-15129165D01*
X174945697Y-15006531D01*
X174931855Y-15002193D01*
X174595370Y-14917673D01*
X174581120Y-14914955D01*
X174237149Y-14869671D01*
X174222682Y-14868609D01*
X173875787Y-14863159D01*
X173861294Y-14863766D01*
X173516071Y-14898224D01*
X173501743Y-14900493D01*
X173162768Y-14974402D01*
X173148796Y-14978303D01*
X172820563Y-15090682D01*
X172807133Y-15096163D01*
X172493991Y-15245524D01*
X172481279Y-15252513D01*
X172187380Y-15436875D01*
X172175555Y-15445278D01*
X171904794Y-15662199D01*
X171894014Y-15671905D01*
X171649979Y-15918509D01*
X171640386Y-15929391D01*
X171426313Y-16202409D01*
X171418034Y-16214320D01*
X171236759Y-16510133D01*
X171229904Y-16522918D01*
X171083831Y-16837607D01*
X171078491Y-16851094D01*
X170969555Y-17180486D01*
X170965801Y-17194498D01*
X170895446Y-17534228D01*
X170893327Y-17548578D01*
X170862486Y-17894143D01*
X170862030Y-17908642D01*
X15134442Y-17908642D01*
X15119320Y-17646384D01*
X15117653Y-17631974D01*
X15058004Y-17290202D01*
X15054691Y-17276079D01*
X14956155Y-16943427D01*
X14951241Y-16929778D01*
X14815124Y-16610657D01*
X14808675Y-16597664D01*
X14636782Y-16296302D01*
X14628881Y-16284136D01*
X14423489Y-16004529D01*
X14414242Y-15993352D01*
X14178073Y-15739205D01*
X14167604Y-15729165D01*
X13903790Y-15503846D01*
X13892235Y-15495075D01*
X13604272Y-15301572D01*
X13591786Y-15294188D01*
X13283491Y-15135065D01*
X13270239Y-15129165D01*
X12945697Y-15006531D01*
X12931855Y-15002193D01*
X12595370Y-14917673D01*
X12581120Y-14914955D01*
X12237149Y-14869671D01*
X12222682Y-14868609D01*
X11875787Y-14863159D01*
X11861294Y-14863766D01*
X11516071Y-14898224D01*
X11501743Y-14900493D01*
X11162768Y-14974402D01*
X11148796Y-14978303D01*
X10820563Y-15090682D01*
X10807133Y-15096163D01*
X10493991Y-15245524D01*
X10481279Y-15252513D01*
X10187380Y-15436875D01*
X10175555Y-15445278D01*
X9904794Y-15662199D01*
X9894014Y-15671905D01*
X9649979Y-15918509D01*
X9640386Y-15929391D01*
X9426313Y-16202409D01*
X9418034Y-16214320D01*
X9236759Y-16510133D01*
X9229904Y-16522918D01*
X9083831Y-16837607D01*
X9078491Y-16851094D01*
X8969555Y-17180486D01*
X8965801Y-17194498D01*
X8895446Y-17534228D01*
X8893327Y-17548578D01*
X8862486Y-17894143D01*
X8862030Y-17908642D01*
X634000Y-17908642D01*
X634000Y-4908642D01*
X89862030Y-4908642D01*
X89871112Y-5255461D01*
X89872326Y-5269917D01*
X89921210Y-5613394D01*
X89924077Y-5627613D01*
X90012115Y-5963196D01*
X90016598Y-5976993D01*
X90142624Y-6300232D01*
X90148663Y-6313421D01*
X90311006Y-6620033D01*
X90318520Y-6632441D01*
X90515028Y-6918362D01*
X90523919Y-6929824D01*
X90751988Y-7191264D01*
X90762137Y-7201628D01*
X91018743Y-7435122D01*
X91030017Y-7444252D01*
X91311760Y-7646705D01*
X91324008Y-7654477D01*
X91627153Y-7823206D01*
X91640213Y-7829520D01*
X91960742Y-7962287D01*
X91974441Y-7967057D01*
X92308106Y-8062104D01*
X92322263Y-8065269D01*
X92664641Y-8121336D01*
X92679068Y-8122852D01*
X93025622Y-8139195D01*
X93040127Y-8139043D01*
X93386262Y-8115446D01*
X93400654Y-8113628D01*
X93741783Y-8050403D01*
X93755870Y-8046943D01*
X94087471Y-7944929D01*
X94101067Y-7939872D01*
X94418745Y-7800421D01*
X94431670Y-7793836D01*
X94731215Y-7618796D01*
X94743298Y-7610768D01*
X95020740Y-7402459D01*
X95031820Y-7393096D01*
X95283480Y-7154280D01*
X95293410Y-7143706D01*
X95515953Y-6877547D01*
X95524602Y-6865901D01*
X95715080Y-6575927D01*
X95722333Y-6563364D01*
X95878219Y-6253419D01*
X95883980Y-6240106D01*
X96003208Y-5914298D01*
X96007401Y-5900411D01*
X96088392Y-5563059D01*
X96090960Y-5548783D01*
X96132641Y-5204357D01*
X96133492Y-5193176D01*
X96139438Y-5003957D01*
X96139291Y-4992747D01*
X96119320Y-4646384D01*
X96117653Y-4631974D01*
X96058004Y-4290202D01*
X96054691Y-4276079D01*
X95956155Y-3943427D01*
X95951241Y-3929778D01*
X95815124Y-3610657D01*
X95808675Y-3597664D01*
X95636782Y-3296302D01*
X95628881Y-3284136D01*
X95423489Y-3004529D01*
X95414242Y-2993352D01*
X95178073Y-2739205D01*
X95167604Y-2729165D01*
X94903790Y-2503846D01*
X94892235Y-2495075D01*
X94604272Y-2301572D01*
X94591786Y-2294188D01*
X94283491Y-2135065D01*
X94270239Y-2129165D01*
X93945697Y-2006531D01*
X93931855Y-2002193D01*
X93595370Y-1917673D01*
X93581120Y-1914955D01*
X93237149Y-1869671D01*
X93222682Y-1868609D01*
X92875787Y-1863159D01*
X92861294Y-1863766D01*
X92516071Y-1898224D01*
X92501743Y-1900493D01*
X92162768Y-1974402D01*
X92148796Y-1978303D01*
X91820563Y-2090682D01*
X91807133Y-2096163D01*
X91493991Y-2245524D01*
X91481279Y-2252513D01*
X91187380Y-2436875D01*
X91175555Y-2445278D01*
X90904794Y-2662199D01*
X90894014Y-2671905D01*
X90649979Y-2918509D01*
X90640386Y-2929391D01*
X90426313Y-3202409D01*
X90418034Y-3214320D01*
X90236759Y-3510133D01*
X90229904Y-3522918D01*
X90083831Y-3837607D01*
X90078491Y-3851094D01*
X89969555Y-4180486D01*
X89965801Y-4194498D01*
X89895446Y-4534228D01*
X89893327Y-4548578D01*
X89862486Y-4894143D01*
X89862030Y-4908642D01*
X634000Y-4908642D01*
X634000Y-634000D01*
X185366000Y-634000D01*
X185366000Y-107366000D01*
G37*
%TD.AperFunction*%
M02*
