%TF.GenerationSoftware,KiCad,Pcbnew,5.99.0-unknown-283d176cdc~117~ubuntu20.04.1*%
%TF.CreationDate,2021-02-27T15:30:39-06:00*%
%TF.ProjectId,FlatPanel4x4_tighter,466c6174-5061-46e6-956c-3478345f7469,rev?*%
%TF.SameCoordinates,Original*%
%TF.FileFunction,Soldermask,Bot*%
%TF.FilePolarity,Negative*%
%FSLAX46Y46*%
G04 Gerber Fmt 4.6, Leading zero omitted, Abs format (unit mm)*
G04 Created by KiCad (PCBNEW 5.99.0-unknown-283d176cdc~117~ubuntu20.04.1) date 2021-02-27 15:30:39*
%MOMM*%
%LPD*%
G01*
G04 APERTURE LIST*
%ADD10C,0.000100*%
%ADD11C,2.900000*%
%ADD12C,5.000000*%
%ADD13C,1.565000*%
G04 APERTURE END LIST*
D10*
%TO.C,Feed1*%
X91272490Y-68637296D02*
X89708379Y-68637296D01*
X89708379Y-68637296D02*
X89708380Y-70636585D01*
X89708380Y-70636585D02*
X91272490Y-70636585D01*
X91272490Y-70636585D02*
X91272490Y-68637296D01*
G36*
X91272490Y-70636585D02*
G01*
X89708380Y-70636585D01*
X89708379Y-68637296D01*
X91272490Y-68637296D01*
X91272490Y-70636585D01*
G37*
X91272490Y-70636585D02*
X89708380Y-70636585D01*
X89708379Y-68637296D01*
X91272490Y-68637296D01*
X91272490Y-70636585D01*
%TO.C,Feed3*%
X24075806Y-180907704D02*
X25639917Y-180907704D01*
X25639917Y-180907704D02*
X25639916Y-178908415D01*
X25639916Y-178908415D02*
X24075806Y-178908415D01*
X24075806Y-178908415D02*
X24075806Y-180907704D01*
G36*
X25639917Y-180907704D02*
G01*
X24075806Y-180907704D01*
X24075806Y-178908415D01*
X25639916Y-178908415D01*
X25639917Y-180907704D01*
G37*
X25639917Y-180907704D02*
X24075806Y-180907704D01*
X24075806Y-178908415D01*
X25639916Y-178908415D01*
X25639917Y-180907704D01*
%TO.C,Feed4*%
X99232510Y-180907704D02*
X100796621Y-180907704D01*
X100796621Y-180907704D02*
X100796620Y-178908415D01*
X100796620Y-178908415D02*
X99232510Y-178908415D01*
X99232510Y-178908415D02*
X99232510Y-180907704D01*
G36*
X100796621Y-180907704D02*
G01*
X99232510Y-180907704D01*
X99232510Y-178908415D01*
X100796620Y-178908415D01*
X100796621Y-180907704D01*
G37*
X100796621Y-180907704D02*
X99232510Y-180907704D01*
X99232510Y-178908415D01*
X100796620Y-178908415D01*
X100796621Y-180907704D01*
%TO.C,Feed2*%
X161572490Y-68177296D02*
X160008379Y-68177296D01*
X160008379Y-68177296D02*
X160008380Y-70176585D01*
X160008380Y-70176585D02*
X161572490Y-70176585D01*
X161572490Y-70176585D02*
X161572490Y-68177296D01*
G36*
X161572490Y-70176585D02*
G01*
X160008380Y-70176585D01*
X160008379Y-68177296D01*
X161572490Y-68177296D01*
X161572490Y-70176585D01*
G37*
X161572490Y-70176585D02*
X160008380Y-70176585D01*
X160008379Y-68177296D01*
X161572490Y-68177296D01*
X161572490Y-70176585D01*
%TD*%
D11*
%TO.C,H11*%
X93000000Y-113000000D03*
D12*
X93000000Y-113000000D03*
%TD*%
%TO.C,H10*%
X93000000Y-5000000D03*
D11*
X93000000Y-5000000D03*
%TD*%
%TO.C,H12*%
X170000000Y-113000000D03*
D12*
X170000000Y-113000000D03*
%TD*%
%TO.C,H4*%
X174000000Y-208000000D03*
D11*
X174000000Y-208000000D03*
%TD*%
D12*
%TO.C,H9*%
X93000000Y-221000000D03*
D11*
X93000000Y-221000000D03*
%TD*%
D12*
%TO.C,H2*%
X174000000Y-18000000D03*
D11*
X174000000Y-18000000D03*
%TD*%
D12*
%TO.C,H3*%
X12000000Y-208000000D03*
D11*
X12000000Y-208000000D03*
%TD*%
%TO.C,H1*%
X12000000Y-18000000D03*
D12*
X12000000Y-18000000D03*
%TD*%
%TO.C,H11*%
X16000000Y-113000000D03*
D11*
X16000000Y-113000000D03*
%TD*%
D13*
%TO.C,Feed1*%
X90490000Y-69635000D03*
%TD*%
%TO.C,Feed3*%
X24858296Y-179910000D03*
%TD*%
%TO.C,Feed4*%
X100015000Y-179910000D03*
%TD*%
%TO.C,Feed2*%
X160790000Y-69175000D03*
%TD*%
M02*
