G04 #@! TF.GenerationSoftware,KiCad,Pcbnew,5.99.0-unknown-64afa3a42e~128~ubuntu20.04.1*
G04 #@! TF.CreationDate,2021-05-28T16:06:45-05:00*
G04 #@! TF.ProjectId,Patches,50617463-6865-4732-9e6b-696361645f70,rev?*
G04 #@! TF.SameCoordinates,Original*
G04 #@! TF.FileFunction,Copper,L1,Top*
G04 #@! TF.FilePolarity,Positive*
%FSLAX46Y46*%
G04 Gerber Fmt 4.6, Leading zero omitted, Abs format (unit mm)*
G04 Created by KiCad (PCBNEW 5.99.0-unknown-64afa3a42e~128~ubuntu20.04.1) date 2021-05-28 16:06:45*
%MOMM*%
%LPD*%
G01*
G04 APERTURE LIST*
G04 #@! TA.AperFunction,EtchedComponent*
%ADD10C,0.000100*%
G04 #@! TD*
G04 #@! TA.AperFunction,ComponentPad*
%ADD11C,2.900000*%
G04 #@! TD*
G04 #@! TA.AperFunction,ConnectorPad*
%ADD12C,5.000000*%
G04 #@! TD*
G04 APERTURE END LIST*
D10*
G04 #@! TO.C,REF\u002A\u002A*
X112500000Y-79700000D02*
X131500000Y-79700000D01*
X131500000Y-79700000D02*
X131500000Y-106300000D01*
X131500000Y-106300000D02*
X112500000Y-106300000D01*
X112500000Y-106300000D02*
X112500000Y-79700000D01*
G36*
X112500000Y-79700000D02*
G01*
X131500000Y-79700000D01*
X131500000Y-106300000D01*
X112500000Y-106300000D01*
X112500000Y-79700000D01*
G37*
X152500000Y-39700000D02*
X171500000Y-39700000D01*
X171500000Y-39700000D02*
X171500000Y-66300000D01*
X171500000Y-66300000D02*
X152500000Y-66300000D01*
X152500000Y-66300000D02*
X152500000Y-39700000D01*
G36*
X152500000Y-39700000D02*
G01*
X171500000Y-39700000D01*
X171500000Y-66300000D01*
X152500000Y-66300000D01*
X152500000Y-39700000D01*
G37*
X32500000Y-119700000D02*
X51500000Y-119700000D01*
X51500000Y-119700000D02*
X51500000Y-146300000D01*
X51500000Y-146300000D02*
X32500000Y-146300000D01*
X32500000Y-146300000D02*
X32500000Y-119700000D01*
G36*
X32500000Y-119700000D02*
G01*
X51500000Y-119700000D01*
X51500000Y-146300000D01*
X32500000Y-146300000D01*
X32500000Y-119700000D01*
G37*
X72500000Y-79700000D02*
X91500000Y-79700000D01*
X91500000Y-79700000D02*
X91500000Y-106300000D01*
X91500000Y-106300000D02*
X72500000Y-106300000D01*
X72500000Y-106300000D02*
X72500000Y-79700000D01*
G36*
X72500000Y-79700000D02*
G01*
X91500000Y-79700000D01*
X91500000Y-106300000D01*
X72500000Y-106300000D01*
X72500000Y-79700000D01*
G37*
X32500000Y-159700000D02*
X51500000Y-159700000D01*
X51500000Y-159700000D02*
X51500000Y-186300000D01*
X51500000Y-186300000D02*
X32500000Y-186300000D01*
X32500000Y-186300000D02*
X32500000Y-159700000D01*
G36*
X32500000Y-159700000D02*
G01*
X51500000Y-159700000D01*
X51500000Y-186300000D01*
X32500000Y-186300000D01*
X32500000Y-159700000D01*
G37*
X32500000Y-79700000D02*
X51500000Y-79700000D01*
X51500000Y-79700000D02*
X51500000Y-106300000D01*
X51500000Y-106300000D02*
X32500000Y-106300000D01*
X32500000Y-106300000D02*
X32500000Y-79700000D01*
G36*
X32500000Y-79700000D02*
G01*
X51500000Y-79700000D01*
X51500000Y-106300000D01*
X32500000Y-106300000D01*
X32500000Y-79700000D01*
G37*
X72500000Y-39700000D02*
X91500000Y-39700000D01*
X91500000Y-39700000D02*
X91500000Y-66300000D01*
X91500000Y-66300000D02*
X72500000Y-66300000D01*
X72500000Y-66300000D02*
X72500000Y-39700000D01*
G36*
X72500000Y-39700000D02*
G01*
X91500000Y-39700000D01*
X91500000Y-66300000D01*
X72500000Y-66300000D01*
X72500000Y-39700000D01*
G37*
X112500000Y-39700000D02*
X131500000Y-39700000D01*
X131500000Y-39700000D02*
X131500000Y-66300000D01*
X131500000Y-66300000D02*
X112500000Y-66300000D01*
X112500000Y-66300000D02*
X112500000Y-39700000D01*
G36*
X112500000Y-39700000D02*
G01*
X131500000Y-39700000D01*
X131500000Y-66300000D01*
X112500000Y-66300000D01*
X112500000Y-39700000D01*
G37*
X32500000Y-39700000D02*
X51500000Y-39700000D01*
X51500000Y-39700000D02*
X51500000Y-66300000D01*
X51500000Y-66300000D02*
X32500000Y-66300000D01*
X32500000Y-66300000D02*
X32500000Y-39700000D01*
G36*
X32500000Y-39700000D02*
G01*
X51500000Y-39700000D01*
X51500000Y-66300000D01*
X32500000Y-66300000D01*
X32500000Y-39700000D01*
G37*
X112500000Y-119700000D02*
X131500000Y-119700000D01*
X131500000Y-119700000D02*
X131500000Y-146300000D01*
X131500000Y-146300000D02*
X112500000Y-146300000D01*
X112500000Y-146300000D02*
X112500000Y-119700000D01*
G36*
X112500000Y-119700000D02*
G01*
X131500000Y-119700000D01*
X131500000Y-146300000D01*
X112500000Y-146300000D01*
X112500000Y-119700000D01*
G37*
X72500000Y-159700000D02*
X91500000Y-159700000D01*
X91500000Y-159700000D02*
X91500000Y-186300000D01*
X91500000Y-186300000D02*
X72500000Y-186300000D01*
X72500000Y-186300000D02*
X72500000Y-159700000D01*
G36*
X72500000Y-159700000D02*
G01*
X91500000Y-159700000D01*
X91500000Y-186300000D01*
X72500000Y-186300000D01*
X72500000Y-159700000D01*
G37*
X72500000Y-119700000D02*
X91500000Y-119700000D01*
X91500000Y-119700000D02*
X91500000Y-146300000D01*
X91500000Y-146300000D02*
X72500000Y-146300000D01*
X72500000Y-146300000D02*
X72500000Y-119700000D01*
G36*
X72500000Y-119700000D02*
G01*
X91500000Y-119700000D01*
X91500000Y-146300000D01*
X72500000Y-146300000D01*
X72500000Y-119700000D01*
G37*
X112500000Y-159700000D02*
X131500000Y-159700000D01*
X131500000Y-159700000D02*
X131500000Y-186300000D01*
X131500000Y-186300000D02*
X112500000Y-186300000D01*
X112500000Y-186300000D02*
X112500000Y-159700000D01*
G36*
X112500000Y-159700000D02*
G01*
X131500000Y-159700000D01*
X131500000Y-186300000D01*
X112500000Y-186300000D01*
X112500000Y-159700000D01*
G37*
X152500000Y-79700000D02*
X171500000Y-79700000D01*
X171500000Y-79700000D02*
X171500000Y-106300000D01*
X171500000Y-106300000D02*
X152500000Y-106300000D01*
X152500000Y-106300000D02*
X152500000Y-79700000D01*
G36*
X152500000Y-79700000D02*
G01*
X171500000Y-79700000D01*
X171500000Y-106300000D01*
X152500000Y-106300000D01*
X152500000Y-79700000D01*
G37*
X152500000Y-159700000D02*
X171500000Y-159700000D01*
X171500000Y-159700000D02*
X171500000Y-186300000D01*
X171500000Y-186300000D02*
X152500000Y-186300000D01*
X152500000Y-186300000D02*
X152500000Y-159700000D01*
G36*
X152500000Y-159700000D02*
G01*
X171500000Y-159700000D01*
X171500000Y-186300000D01*
X152500000Y-186300000D01*
X152500000Y-159700000D01*
G37*
X152500000Y-119700000D02*
X171500000Y-119700000D01*
X171500000Y-119700000D02*
X171500000Y-146300000D01*
X171500000Y-146300000D02*
X152500000Y-146300000D01*
X152500000Y-146300000D02*
X152500000Y-119700000D01*
G36*
X152500000Y-119700000D02*
G01*
X171500000Y-119700000D01*
X171500000Y-146300000D01*
X152500000Y-146300000D01*
X152500000Y-119700000D01*
G37*
G04 #@! TD*
D11*
G04 #@! TO.P,H10,1,1*
G04 #@! TO.N,N/C*
X93000000Y-5000000D03*
D12*
X93000000Y-5000000D03*
G04 #@! TD*
D11*
G04 #@! TO.P,H12,1,1*
G04 #@! TO.N,N/C*
X170000000Y-113000000D03*
D12*
X170000000Y-113000000D03*
G04 #@! TD*
D11*
G04 #@! TO.P,H11,1,1*
G04 #@! TO.N,N/C*
X93000000Y-113000000D03*
D12*
X93000000Y-113000000D03*
G04 #@! TD*
D11*
G04 #@! TO.P,H4,1,1*
G04 #@! TO.N,N/C*
X174000000Y-208000000D03*
D12*
X174000000Y-208000000D03*
G04 #@! TD*
D11*
G04 #@! TO.P,H9,1,1*
G04 #@! TO.N,N/C*
X93000000Y-221000000D03*
D12*
X93000000Y-221000000D03*
G04 #@! TD*
D11*
G04 #@! TO.P,H2,1,1*
G04 #@! TO.N,N/C*
X174000000Y-18000000D03*
D12*
X174000000Y-18000000D03*
G04 #@! TD*
G04 #@! TO.P,H3,1,1*
G04 #@! TO.N,N/C*
X12000000Y-208000000D03*
D11*
X12000000Y-208000000D03*
G04 #@! TD*
D12*
G04 #@! TO.P,H1,1,1*
G04 #@! TO.N,N/C*
X12000000Y-18000000D03*
D11*
X12000000Y-18000000D03*
G04 #@! TD*
D12*
G04 #@! TO.P,H11,1,1*
G04 #@! TO.N,N/C*
X16000000Y-113000000D03*
D11*
X16000000Y-113000000D03*
G04 #@! TD*
M02*
