%TF.GenerationSoftware,KiCad,Pcbnew,5.99.0-unknown-64afa3a42e~128~ubuntu20.04.1*%
%TF.CreationDate,2021-05-14T16:50:44-05:00*%
%TF.ProjectId,FlatAntPanel4x4_Reflector,466c6174-416e-4745-9061-6e656c347834,rev?*%
%TF.SameCoordinates,Original*%
%TF.FileFunction,Legend,Top*%
%TF.FilePolarity,Positive*%
%FSLAX46Y46*%
G04 Gerber Fmt 4.6, Leading zero omitted, Abs format (unit mm)*
G04 Created by KiCad (PCBNEW 5.99.0-unknown-64afa3a42e~128~ubuntu20.04.1) date 2021-05-14 16:50:44*
%MOMM*%
%LPD*%
G01*
G04 APERTURE LIST*
%ADD10C,0.300000*%
G04 APERTURE END LIST*
D10*
X179871071Y-191247857D02*
X178371071Y-191247857D01*
X178371071Y-190676428D01*
X178442500Y-190533571D01*
X178513928Y-190462142D01*
X178656785Y-190390714D01*
X178871071Y-190390714D01*
X179013928Y-190462142D01*
X179085357Y-190533571D01*
X179156785Y-190676428D01*
X179156785Y-191247857D01*
X179871071Y-189105000D02*
X179085357Y-189105000D01*
X178942500Y-189176428D01*
X178871071Y-189319285D01*
X178871071Y-189605000D01*
X178942500Y-189747857D01*
X179799642Y-189105000D02*
X179871071Y-189247857D01*
X179871071Y-189605000D01*
X179799642Y-189747857D01*
X179656785Y-189819285D01*
X179513928Y-189819285D01*
X179371071Y-189747857D01*
X179299642Y-189605000D01*
X179299642Y-189247857D01*
X179228214Y-189105000D01*
X178871071Y-188390714D02*
X179871071Y-188390714D01*
X179013928Y-188390714D02*
X178942500Y-188319285D01*
X178871071Y-188176428D01*
X178871071Y-187962142D01*
X178942500Y-187819285D01*
X179085357Y-187747857D01*
X179871071Y-187747857D01*
X179799642Y-186462142D02*
X179871071Y-186605000D01*
X179871071Y-186890714D01*
X179799642Y-187033571D01*
X179656785Y-187105000D01*
X179085357Y-187105000D01*
X178942500Y-187033571D01*
X178871071Y-186890714D01*
X178871071Y-186605000D01*
X178942500Y-186462142D01*
X179085357Y-186390714D01*
X179228214Y-186390714D01*
X179371071Y-187105000D01*
X179871071Y-185533571D02*
X179799642Y-185676428D01*
X179656785Y-185747857D01*
X178371071Y-185747857D01*
X179442500Y-183890714D02*
X179442500Y-183176428D01*
X179871071Y-184033571D02*
X178371071Y-183533571D01*
X179871071Y-183033571D01*
X178871071Y-182533571D02*
X179871071Y-182533571D01*
X179013928Y-182533571D02*
X178942500Y-182462142D01*
X178871071Y-182319285D01*
X178871071Y-182105000D01*
X178942500Y-181962142D01*
X179085357Y-181890714D01*
X179871071Y-181890714D01*
X178871071Y-181390714D02*
X178871071Y-180819285D01*
X178371071Y-181176428D02*
X179656785Y-181176428D01*
X179799642Y-181105000D01*
X179871071Y-180962142D01*
X179871071Y-180819285D01*
X179799642Y-179747857D02*
X179871071Y-179890714D01*
X179871071Y-180176428D01*
X179799642Y-180319285D01*
X179656785Y-180390714D01*
X179085357Y-180390714D01*
X178942500Y-180319285D01*
X178871071Y-180176428D01*
X178871071Y-179890714D01*
X178942500Y-179747857D01*
X179085357Y-179676428D01*
X179228214Y-179676428D01*
X179371071Y-180390714D01*
X178871071Y-179033571D02*
X179871071Y-179033571D01*
X179013928Y-179033571D02*
X178942500Y-178962142D01*
X178871071Y-178819285D01*
X178871071Y-178605000D01*
X178942500Y-178462142D01*
X179085357Y-178390714D01*
X179871071Y-178390714D01*
X178871071Y-177676428D02*
X179871071Y-177676428D01*
X179013928Y-177676428D02*
X178942500Y-177605000D01*
X178871071Y-177462142D01*
X178871071Y-177247857D01*
X178942500Y-177105000D01*
X179085357Y-177033571D01*
X179871071Y-177033571D01*
X179871071Y-175676428D02*
X179085357Y-175676428D01*
X178942500Y-175747857D01*
X178871071Y-175890714D01*
X178871071Y-176176428D01*
X178942500Y-176319285D01*
X179799642Y-175676428D02*
X179871071Y-175819285D01*
X179871071Y-176176428D01*
X179799642Y-176319285D01*
X179656785Y-176390714D01*
X179513928Y-176390714D01*
X179371071Y-176319285D01*
X179299642Y-176176428D01*
X179299642Y-175819285D01*
X179228214Y-175676428D01*
X179871071Y-172962142D02*
X179156785Y-173462142D01*
X179871071Y-173819285D02*
X178371071Y-173819285D01*
X178371071Y-173247857D01*
X178442500Y-173105000D01*
X178513928Y-173033571D01*
X178656785Y-172962142D01*
X178871071Y-172962142D01*
X179013928Y-173033571D01*
X179085357Y-173105000D01*
X179156785Y-173247857D01*
X179156785Y-173819285D01*
X179799642Y-171747857D02*
X179871071Y-171890714D01*
X179871071Y-172176428D01*
X179799642Y-172319285D01*
X179656785Y-172390714D01*
X179085357Y-172390714D01*
X178942500Y-172319285D01*
X178871071Y-172176428D01*
X178871071Y-171890714D01*
X178942500Y-171747857D01*
X179085357Y-171676428D01*
X179228214Y-171676428D01*
X179371071Y-172390714D01*
X178871071Y-171247857D02*
X178871071Y-170676428D01*
X179871071Y-171033571D02*
X178585357Y-171033571D01*
X178442500Y-170962142D01*
X178371071Y-170819285D01*
X178371071Y-170676428D01*
X179871071Y-169962142D02*
X179799642Y-170105000D01*
X179656785Y-170176428D01*
X178371071Y-170176428D01*
X179799642Y-168819285D02*
X179871071Y-168962142D01*
X179871071Y-169247857D01*
X179799642Y-169390714D01*
X179656785Y-169462142D01*
X179085357Y-169462142D01*
X178942500Y-169390714D01*
X178871071Y-169247857D01*
X178871071Y-168962142D01*
X178942500Y-168819285D01*
X179085357Y-168747857D01*
X179228214Y-168747857D01*
X179371071Y-169462142D01*
X179799642Y-167462142D02*
X179871071Y-167605000D01*
X179871071Y-167890714D01*
X179799642Y-168033571D01*
X179728214Y-168105000D01*
X179585357Y-168176428D01*
X179156785Y-168176428D01*
X179013928Y-168105000D01*
X178942500Y-168033571D01*
X178871071Y-167890714D01*
X178871071Y-167605000D01*
X178942500Y-167462142D01*
X178871071Y-167033571D02*
X178871071Y-166462142D01*
X178371071Y-166819285D02*
X179656785Y-166819285D01*
X179799642Y-166747857D01*
X179871071Y-166605000D01*
X179871071Y-166462142D01*
X179871071Y-165747857D02*
X179799642Y-165890714D01*
X179728214Y-165962142D01*
X179585357Y-166033571D01*
X179156785Y-166033571D01*
X179013928Y-165962142D01*
X178942500Y-165890714D01*
X178871071Y-165747857D01*
X178871071Y-165533571D01*
X178942500Y-165390714D01*
X179013928Y-165319285D01*
X179156785Y-165247857D01*
X179585357Y-165247857D01*
X179728214Y-165319285D01*
X179799642Y-165390714D01*
X179871071Y-165533571D01*
X179871071Y-165747857D01*
X179871071Y-164605000D02*
X178871071Y-164605000D01*
X179156785Y-164605000D02*
X179013928Y-164533571D01*
X178942500Y-164462142D01*
X178871071Y-164319285D01*
X178871071Y-164176428D01*
X178871071Y-161890714D02*
X179871071Y-161890714D01*
X178299642Y-162247857D02*
X179371071Y-162605000D01*
X179371071Y-161676428D01*
X179871071Y-161247857D02*
X178871071Y-160462142D01*
X178871071Y-161247857D02*
X179871071Y-160462142D01*
X178871071Y-159247857D02*
X179871071Y-159247857D01*
X178299642Y-159605000D02*
X179371071Y-159962142D01*
X179371071Y-159033571D01*
X179871071Y-157319285D02*
X178871071Y-157319285D01*
X179156785Y-157319285D02*
X179013928Y-157247857D01*
X178942500Y-157176428D01*
X178871071Y-157033571D01*
X178871071Y-156890714D01*
X179799642Y-155819285D02*
X179871071Y-155962142D01*
X179871071Y-156247857D01*
X179799642Y-156390714D01*
X179656785Y-156462142D01*
X179085357Y-156462142D01*
X178942500Y-156390714D01*
X178871071Y-156247857D01*
X178871071Y-155962142D01*
X178942500Y-155819285D01*
X179085357Y-155747857D01*
X179228214Y-155747857D01*
X179371071Y-156462142D01*
X178871071Y-155247857D02*
X179871071Y-154890714D01*
X178871071Y-154533571D01*
X178513928Y-154033571D02*
X178442500Y-153962142D01*
X178371071Y-153819285D01*
X178371071Y-153462142D01*
X178442500Y-153319285D01*
X178513928Y-153247857D01*
X178656785Y-153176428D01*
X178799642Y-153176428D01*
X179013928Y-153247857D01*
X179871071Y-154105000D01*
X179871071Y-153176428D01*
X182143214Y-190390714D02*
X182214642Y-190462142D01*
X182286071Y-190676428D01*
X182286071Y-190819285D01*
X182214642Y-191033571D01*
X182071785Y-191176428D01*
X181928928Y-191247857D01*
X181643214Y-191319285D01*
X181428928Y-191319285D01*
X181143214Y-191247857D01*
X181000357Y-191176428D01*
X180857500Y-191033571D01*
X180786071Y-190819285D01*
X180786071Y-190676428D01*
X180857500Y-190462142D01*
X180928928Y-190390714D01*
X182286071Y-189533571D02*
X182214642Y-189676428D01*
X182143214Y-189747857D01*
X182000357Y-189819285D01*
X181571785Y-189819285D01*
X181428928Y-189747857D01*
X181357500Y-189676428D01*
X181286071Y-189533571D01*
X181286071Y-189319285D01*
X181357500Y-189176428D01*
X181428928Y-189105000D01*
X181571785Y-189033571D01*
X182000357Y-189033571D01*
X182143214Y-189105000D01*
X182214642Y-189176428D01*
X182286071Y-189319285D01*
X182286071Y-189533571D01*
X181286071Y-188390714D02*
X182786071Y-188390714D01*
X181357500Y-188390714D02*
X181286071Y-188247857D01*
X181286071Y-187962142D01*
X181357500Y-187819285D01*
X181428928Y-187747857D01*
X181571785Y-187676428D01*
X182000357Y-187676428D01*
X182143214Y-187747857D01*
X182214642Y-187819285D01*
X182286071Y-187962142D01*
X182286071Y-188247857D01*
X182214642Y-188390714D01*
X181286071Y-187176428D02*
X182286071Y-186819285D01*
X181286071Y-186462142D02*
X182286071Y-186819285D01*
X182643214Y-186962142D01*
X182714642Y-187033571D01*
X182786071Y-187176428D01*
X182286071Y-185890714D02*
X181286071Y-185890714D01*
X181571785Y-185890714D02*
X181428928Y-185819285D01*
X181357500Y-185747857D01*
X181286071Y-185605000D01*
X181286071Y-185462142D01*
X182286071Y-184962142D02*
X181286071Y-184962142D01*
X180786071Y-184962142D02*
X180857500Y-185033571D01*
X180928928Y-184962142D01*
X180857500Y-184890714D01*
X180786071Y-184962142D01*
X180928928Y-184962142D01*
X181286071Y-183605000D02*
X182500357Y-183605000D01*
X182643214Y-183676428D01*
X182714642Y-183747857D01*
X182786071Y-183890714D01*
X182786071Y-184105000D01*
X182714642Y-184247857D01*
X182214642Y-183605000D02*
X182286071Y-183747857D01*
X182286071Y-184033571D01*
X182214642Y-184176428D01*
X182143214Y-184247857D01*
X182000357Y-184319285D01*
X181571785Y-184319285D01*
X181428928Y-184247857D01*
X181357500Y-184176428D01*
X181286071Y-184033571D01*
X181286071Y-183747857D01*
X181357500Y-183605000D01*
X182286071Y-182890714D02*
X180786071Y-182890714D01*
X182286071Y-182247857D02*
X181500357Y-182247857D01*
X181357500Y-182319285D01*
X181286071Y-182462142D01*
X181286071Y-182676428D01*
X181357500Y-182819285D01*
X181428928Y-182890714D01*
X181286071Y-181747857D02*
X181286071Y-181176428D01*
X180786071Y-181533571D02*
X182071785Y-181533571D01*
X182214642Y-181462142D01*
X182286071Y-181319285D01*
X182286071Y-181176428D01*
X180928928Y-179605000D02*
X180857500Y-179533571D01*
X180786071Y-179390714D01*
X180786071Y-179033571D01*
X180857500Y-178890714D01*
X180928928Y-178819285D01*
X181071785Y-178747857D01*
X181214642Y-178747857D01*
X181428928Y-178819285D01*
X182286071Y-179676428D01*
X182286071Y-178747857D01*
X180786071Y-177819285D02*
X180786071Y-177676428D01*
X180857500Y-177533571D01*
X180928928Y-177462142D01*
X181071785Y-177390714D01*
X181357500Y-177319285D01*
X181714642Y-177319285D01*
X182000357Y-177390714D01*
X182143214Y-177462142D01*
X182214642Y-177533571D01*
X182286071Y-177676428D01*
X182286071Y-177819285D01*
X182214642Y-177962142D01*
X182143214Y-178033571D01*
X182000357Y-178105000D01*
X181714642Y-178176428D01*
X181357500Y-178176428D01*
X181071785Y-178105000D01*
X180928928Y-178033571D01*
X180857500Y-177962142D01*
X180786071Y-177819285D01*
X180928928Y-176747857D02*
X180857500Y-176676428D01*
X180786071Y-176533571D01*
X180786071Y-176176428D01*
X180857500Y-176033571D01*
X180928928Y-175962142D01*
X181071785Y-175890714D01*
X181214642Y-175890714D01*
X181428928Y-175962142D01*
X182286071Y-176819285D01*
X182286071Y-175890714D01*
X180786071Y-174962142D02*
X180786071Y-174819285D01*
X180857500Y-174676428D01*
X180928928Y-174605000D01*
X181071785Y-174533571D01*
X181357500Y-174462142D01*
X181714642Y-174462142D01*
X182000357Y-174533571D01*
X182143214Y-174605000D01*
X182214642Y-174676428D01*
X182286071Y-174819285D01*
X182286071Y-174962142D01*
X182214642Y-175105000D01*
X182143214Y-175176428D01*
X182000357Y-175247857D01*
X181714642Y-175319285D01*
X181357500Y-175319285D01*
X181071785Y-175247857D01*
X180928928Y-175176428D01*
X180857500Y-175105000D01*
X180786071Y-174962142D01*
X182286071Y-172676428D02*
X180786071Y-172676428D01*
X182214642Y-172033571D02*
X182286071Y-171819285D01*
X182286071Y-171462142D01*
X182214642Y-171319285D01*
X182143214Y-171247857D01*
X182000357Y-171176428D01*
X181857500Y-171176428D01*
X181714642Y-171247857D01*
X181643214Y-171319285D01*
X181571785Y-171462142D01*
X181500357Y-171747857D01*
X181428928Y-171890714D01*
X181357500Y-171962142D01*
X181214642Y-172033571D01*
X181071785Y-172033571D01*
X180928928Y-171962142D01*
X180857500Y-171890714D01*
X180786071Y-171747857D01*
X180786071Y-171390714D01*
X180857500Y-171176428D01*
X182286071Y-170533571D02*
X181286071Y-170533571D01*
X180786071Y-170533571D02*
X180857500Y-170605000D01*
X180928928Y-170533571D01*
X180857500Y-170462142D01*
X180786071Y-170533571D01*
X180928928Y-170533571D01*
X182214642Y-169890714D02*
X182286071Y-169747857D01*
X182286071Y-169462142D01*
X182214642Y-169319285D01*
X182071785Y-169247857D01*
X182000357Y-169247857D01*
X181857500Y-169319285D01*
X181786071Y-169462142D01*
X181786071Y-169676428D01*
X181714642Y-169819285D01*
X181571785Y-169890714D01*
X181500357Y-169890714D01*
X181357500Y-169819285D01*
X181286071Y-169676428D01*
X181286071Y-169462142D01*
X181357500Y-169319285D01*
X182286071Y-167462142D02*
X180786071Y-167462142D01*
X182286071Y-166747857D02*
X181286071Y-166747857D01*
X181428928Y-166747857D02*
X181357500Y-166676428D01*
X181286071Y-166533571D01*
X181286071Y-166319285D01*
X181357500Y-166176428D01*
X181500357Y-166105000D01*
X182286071Y-166105000D01*
X181500357Y-166105000D02*
X181357500Y-166033571D01*
X181286071Y-165890714D01*
X181286071Y-165676428D01*
X181357500Y-165533571D01*
X181500357Y-165462142D01*
X182286071Y-165462142D01*
X182286071Y-164105000D02*
X181500357Y-164105000D01*
X181357500Y-164176428D01*
X181286071Y-164319285D01*
X181286071Y-164605000D01*
X181357500Y-164747857D01*
X182214642Y-164105000D02*
X182286071Y-164247857D01*
X182286071Y-164605000D01*
X182214642Y-164747857D01*
X182071785Y-164819285D01*
X181928928Y-164819285D01*
X181786071Y-164747857D01*
X181714642Y-164605000D01*
X181714642Y-164247857D01*
X181643214Y-164105000D01*
X181286071Y-162747857D02*
X182500357Y-162747857D01*
X182643214Y-162819285D01*
X182714642Y-162890714D01*
X182786071Y-163033571D01*
X182786071Y-163247857D01*
X182714642Y-163390714D01*
X182214642Y-162747857D02*
X182286071Y-162890714D01*
X182286071Y-163176428D01*
X182214642Y-163319285D01*
X182143214Y-163390714D01*
X182000357Y-163462142D01*
X181571785Y-163462142D01*
X181428928Y-163390714D01*
X181357500Y-163319285D01*
X181286071Y-163176428D01*
X181286071Y-162890714D01*
X181357500Y-162747857D01*
X182214642Y-161462142D02*
X182286071Y-161605000D01*
X182286071Y-161890714D01*
X182214642Y-162033571D01*
X182071785Y-162105000D01*
X181500357Y-162105000D01*
X181357500Y-162033571D01*
X181286071Y-161890714D01*
X181286071Y-161605000D01*
X181357500Y-161462142D01*
X181500357Y-161390714D01*
X181643214Y-161390714D01*
X181786071Y-162105000D01*
X182214642Y-160819285D02*
X182286071Y-160605000D01*
X182286071Y-160247857D01*
X182214642Y-160105000D01*
X182143214Y-160033571D01*
X182000357Y-159962142D01*
X181857500Y-159962142D01*
X181714642Y-160033571D01*
X181643214Y-160105000D01*
X181571785Y-160247857D01*
X181500357Y-160533571D01*
X181428928Y-160676428D01*
X181357500Y-160747857D01*
X181214642Y-160819285D01*
X181071785Y-160819285D01*
X180928928Y-160747857D01*
X180857500Y-160676428D01*
X180786071Y-160533571D01*
X180786071Y-160176428D01*
X180857500Y-159962142D01*
X181286071Y-159533571D02*
X181286071Y-158962142D01*
X180786071Y-159319285D02*
X182071785Y-159319285D01*
X182214642Y-159247857D01*
X182286071Y-159105000D01*
X182286071Y-158962142D01*
X182286071Y-158462142D02*
X181286071Y-158462142D01*
X181571785Y-158462142D02*
X181428928Y-158390714D01*
X181357500Y-158319285D01*
X181286071Y-158176428D01*
X181286071Y-158033571D01*
X182214642Y-156962142D02*
X182286071Y-157105000D01*
X182286071Y-157390714D01*
X182214642Y-157533571D01*
X182071785Y-157605000D01*
X181500357Y-157605000D01*
X181357500Y-157533571D01*
X181286071Y-157390714D01*
X181286071Y-157105000D01*
X181357500Y-156962142D01*
X181500357Y-156890714D01*
X181643214Y-156890714D01*
X181786071Y-157605000D01*
X182286071Y-155605000D02*
X181500357Y-155605000D01*
X181357500Y-155676428D01*
X181286071Y-155819285D01*
X181286071Y-156105000D01*
X181357500Y-156247857D01*
X182214642Y-155605000D02*
X182286071Y-155747857D01*
X182286071Y-156105000D01*
X182214642Y-156247857D01*
X182071785Y-156319285D01*
X181928928Y-156319285D01*
X181786071Y-156247857D01*
X181714642Y-156105000D01*
X181714642Y-155747857D01*
X181643214Y-155605000D01*
X182286071Y-154890714D02*
X181286071Y-154890714D01*
X181428928Y-154890714D02*
X181357500Y-154819285D01*
X181286071Y-154676428D01*
X181286071Y-154462142D01*
X181357500Y-154319285D01*
X181500357Y-154247857D01*
X182286071Y-154247857D01*
X181500357Y-154247857D02*
X181357500Y-154176428D01*
X181286071Y-154033571D01*
X181286071Y-153819285D01*
X181357500Y-153676428D01*
X181500357Y-153605000D01*
X182286071Y-153605000D01*
X182286071Y-151747857D02*
X180786071Y-151747857D01*
X181286071Y-151033571D02*
X182286071Y-151033571D01*
X181428928Y-151033571D02*
X181357500Y-150962142D01*
X181286071Y-150819285D01*
X181286071Y-150605000D01*
X181357500Y-150462142D01*
X181500357Y-150390714D01*
X182286071Y-150390714D01*
X181286071Y-149890714D02*
X181286071Y-149319285D01*
X180786071Y-149676428D02*
X182071785Y-149676428D01*
X182214642Y-149605000D01*
X182286071Y-149462142D01*
X182286071Y-149319285D01*
X182214642Y-148247857D02*
X182286071Y-148390714D01*
X182286071Y-148676428D01*
X182214642Y-148819285D01*
X182071785Y-148890714D01*
X181500357Y-148890714D01*
X181357500Y-148819285D01*
X181286071Y-148676428D01*
X181286071Y-148390714D01*
X181357500Y-148247857D01*
X181500357Y-148176428D01*
X181643214Y-148176428D01*
X181786071Y-148890714D01*
X182286071Y-147533571D02*
X181286071Y-147533571D01*
X181571785Y-147533571D02*
X181428928Y-147462142D01*
X181357500Y-147390714D01*
X181286071Y-147247857D01*
X181286071Y-147105000D01*
X181286071Y-146605000D02*
X182286071Y-146605000D01*
X181428928Y-146605000D02*
X181357500Y-146533571D01*
X181286071Y-146390714D01*
X181286071Y-146176428D01*
X181357500Y-146033571D01*
X181500357Y-145962142D01*
X182286071Y-145962142D01*
X182214642Y-144676428D02*
X182286071Y-144819285D01*
X182286071Y-145105000D01*
X182214642Y-145247857D01*
X182071785Y-145319285D01*
X181500357Y-145319285D01*
X181357500Y-145247857D01*
X181286071Y-145105000D01*
X181286071Y-144819285D01*
X181357500Y-144676428D01*
X181500357Y-144605000D01*
X181643214Y-144605000D01*
X181786071Y-145319285D01*
X181286071Y-144176428D02*
X181286071Y-143605000D01*
X180786071Y-143962142D02*
X182071785Y-143962142D01*
X182214642Y-143890714D01*
X182286071Y-143747857D01*
X182286071Y-143605000D01*
X182214642Y-142033571D02*
X182286071Y-141819285D01*
X182286071Y-141462142D01*
X182214642Y-141319285D01*
X182143214Y-141247857D01*
X182000357Y-141176428D01*
X181857500Y-141176428D01*
X181714642Y-141247857D01*
X181643214Y-141319285D01*
X181571785Y-141462142D01*
X181500357Y-141747857D01*
X181428928Y-141890714D01*
X181357500Y-141962142D01*
X181214642Y-142033571D01*
X181071785Y-142033571D01*
X180928928Y-141962142D01*
X180857500Y-141890714D01*
X180786071Y-141747857D01*
X180786071Y-141390714D01*
X180857500Y-141176428D01*
X182286071Y-140319285D02*
X182214642Y-140462142D01*
X182143214Y-140533571D01*
X182000357Y-140605000D01*
X181571785Y-140605000D01*
X181428928Y-140533571D01*
X181357500Y-140462142D01*
X181286071Y-140319285D01*
X181286071Y-140105000D01*
X181357500Y-139962142D01*
X181428928Y-139890714D01*
X181571785Y-139819285D01*
X182000357Y-139819285D01*
X182143214Y-139890714D01*
X182214642Y-139962142D01*
X182286071Y-140105000D01*
X182286071Y-140319285D01*
X182286071Y-138962142D02*
X182214642Y-139105000D01*
X182071785Y-139176428D01*
X180786071Y-139176428D01*
X181286071Y-137747857D02*
X182286071Y-137747857D01*
X181286071Y-138390714D02*
X182071785Y-138390714D01*
X182214642Y-138319285D01*
X182286071Y-138176428D01*
X182286071Y-137962142D01*
X182214642Y-137819285D01*
X182143214Y-137747857D01*
X181286071Y-137247857D02*
X181286071Y-136676428D01*
X180786071Y-137033571D02*
X182071785Y-137033571D01*
X182214642Y-136962142D01*
X182286071Y-136819285D01*
X182286071Y-136676428D01*
X182286071Y-136176428D02*
X181286071Y-136176428D01*
X180786071Y-136176428D02*
X180857500Y-136247857D01*
X180928928Y-136176428D01*
X180857500Y-136105000D01*
X180786071Y-136176428D01*
X180928928Y-136176428D01*
X182286071Y-135247857D02*
X182214642Y-135390714D01*
X182143214Y-135462142D01*
X182000357Y-135533571D01*
X181571785Y-135533571D01*
X181428928Y-135462142D01*
X181357500Y-135390714D01*
X181286071Y-135247857D01*
X181286071Y-135033571D01*
X181357500Y-134890714D01*
X181428928Y-134819285D01*
X181571785Y-134747857D01*
X182000357Y-134747857D01*
X182143214Y-134819285D01*
X182214642Y-134890714D01*
X182286071Y-135033571D01*
X182286071Y-135247857D01*
X181286071Y-134105000D02*
X182286071Y-134105000D01*
X181428928Y-134105000D02*
X181357500Y-134033571D01*
X181286071Y-133890714D01*
X181286071Y-133676428D01*
X181357500Y-133533571D01*
X181500357Y-133462142D01*
X182286071Y-133462142D01*
X182214642Y-132819285D02*
X182286071Y-132676428D01*
X182286071Y-132390714D01*
X182214642Y-132247857D01*
X182071785Y-132176428D01*
X182000357Y-132176428D01*
X181857500Y-132247857D01*
X181786071Y-132390714D01*
X181786071Y-132605000D01*
X181714642Y-132747857D01*
X181571785Y-132819285D01*
X181500357Y-132819285D01*
X181357500Y-132747857D01*
X181286071Y-132605000D01*
X181286071Y-132390714D01*
X181357500Y-132247857D01*
X182214642Y-131462142D02*
X182286071Y-131462142D01*
X182428928Y-131533571D01*
X182500357Y-131605000D01*
X182286071Y-129676428D02*
X180786071Y-129676428D01*
X181286071Y-128962142D02*
X182286071Y-128962142D01*
X181428928Y-128962142D02*
X181357500Y-128890714D01*
X181286071Y-128747857D01*
X181286071Y-128533571D01*
X181357500Y-128390714D01*
X181500357Y-128319285D01*
X182286071Y-128319285D01*
X182214642Y-126962142D02*
X182286071Y-127105000D01*
X182286071Y-127390714D01*
X182214642Y-127533571D01*
X182143214Y-127605000D01*
X182000357Y-127676428D01*
X181571785Y-127676428D01*
X181428928Y-127605000D01*
X181357500Y-127533571D01*
X181286071Y-127390714D01*
X181286071Y-127105000D01*
X181357500Y-126962142D01*
X182143214Y-126319285D02*
X182214642Y-126247857D01*
X182286071Y-126319285D01*
X182214642Y-126390714D01*
X182143214Y-126319285D01*
X182286071Y-126319285D01*
M02*
