%TF.GenerationSoftware,KiCad,Pcbnew,5.99.0-unknown-912657dd23~106~ubuntu20.04.1*%
%TF.CreationDate,2020-12-24T12:24:22-06:00*%
%TF.ProjectId,FlatAntPanel4x4_Reflector,466c6174-416e-4745-9061-6e656c347834,rev?*%
%TF.SameCoordinates,Original*%
%TF.FileFunction,Legend,Top*%
%TF.FilePolarity,Positive*%
%FSLAX46Y46*%
G04 Gerber Fmt 4.6, Leading zero omitted, Abs format (unit mm)*
G04 Created by KiCad (PCBNEW 5.99.0-unknown-912657dd23~106~ubuntu20.04.1) date 2020-12-24 12:24:22*
%MOMM*%
%LPD*%
G01*
G04 APERTURE LIST*
%ADD10C,0.300000*%
G04 APERTURE END LIST*
D10*
X180101071Y-199537857D02*
X178601071Y-199537857D01*
X178601071Y-198966428D01*
X178672500Y-198823571D01*
X178743928Y-198752142D01*
X178886785Y-198680714D01*
X179101071Y-198680714D01*
X179243928Y-198752142D01*
X179315357Y-198823571D01*
X179386785Y-198966428D01*
X179386785Y-199537857D01*
X180101071Y-197395000D02*
X179315357Y-197395000D01*
X179172500Y-197466428D01*
X179101071Y-197609285D01*
X179101071Y-197895000D01*
X179172500Y-198037857D01*
X180029642Y-197395000D02*
X180101071Y-197537857D01*
X180101071Y-197895000D01*
X180029642Y-198037857D01*
X179886785Y-198109285D01*
X179743928Y-198109285D01*
X179601071Y-198037857D01*
X179529642Y-197895000D01*
X179529642Y-197537857D01*
X179458214Y-197395000D01*
X179101071Y-196680714D02*
X180101071Y-196680714D01*
X179243928Y-196680714D02*
X179172500Y-196609285D01*
X179101071Y-196466428D01*
X179101071Y-196252142D01*
X179172500Y-196109285D01*
X179315357Y-196037857D01*
X180101071Y-196037857D01*
X180029642Y-194752142D02*
X180101071Y-194895000D01*
X180101071Y-195180714D01*
X180029642Y-195323571D01*
X179886785Y-195395000D01*
X179315357Y-195395000D01*
X179172500Y-195323571D01*
X179101071Y-195180714D01*
X179101071Y-194895000D01*
X179172500Y-194752142D01*
X179315357Y-194680714D01*
X179458214Y-194680714D01*
X179601071Y-195395000D01*
X180101071Y-193823571D02*
X180029642Y-193966428D01*
X179886785Y-194037857D01*
X178601071Y-194037857D01*
X179672500Y-192180714D02*
X179672500Y-191466428D01*
X180101071Y-192323571D02*
X178601071Y-191823571D01*
X180101071Y-191323571D01*
X179101071Y-190823571D02*
X180101071Y-190823571D01*
X179243928Y-190823571D02*
X179172500Y-190752142D01*
X179101071Y-190609285D01*
X179101071Y-190395000D01*
X179172500Y-190252142D01*
X179315357Y-190180714D01*
X180101071Y-190180714D01*
X179101071Y-189680714D02*
X179101071Y-189109285D01*
X178601071Y-189466428D02*
X179886785Y-189466428D01*
X180029642Y-189395000D01*
X180101071Y-189252142D01*
X180101071Y-189109285D01*
X180029642Y-188037857D02*
X180101071Y-188180714D01*
X180101071Y-188466428D01*
X180029642Y-188609285D01*
X179886785Y-188680714D01*
X179315357Y-188680714D01*
X179172500Y-188609285D01*
X179101071Y-188466428D01*
X179101071Y-188180714D01*
X179172500Y-188037857D01*
X179315357Y-187966428D01*
X179458214Y-187966428D01*
X179601071Y-188680714D01*
X179101071Y-187323571D02*
X180101071Y-187323571D01*
X179243928Y-187323571D02*
X179172500Y-187252142D01*
X179101071Y-187109285D01*
X179101071Y-186895000D01*
X179172500Y-186752142D01*
X179315357Y-186680714D01*
X180101071Y-186680714D01*
X179101071Y-185966428D02*
X180101071Y-185966428D01*
X179243928Y-185966428D02*
X179172500Y-185895000D01*
X179101071Y-185752142D01*
X179101071Y-185537857D01*
X179172500Y-185395000D01*
X179315357Y-185323571D01*
X180101071Y-185323571D01*
X180101071Y-183966428D02*
X179315357Y-183966428D01*
X179172500Y-184037857D01*
X179101071Y-184180714D01*
X179101071Y-184466428D01*
X179172500Y-184609285D01*
X180029642Y-183966428D02*
X180101071Y-184109285D01*
X180101071Y-184466428D01*
X180029642Y-184609285D01*
X179886785Y-184680714D01*
X179743928Y-184680714D01*
X179601071Y-184609285D01*
X179529642Y-184466428D01*
X179529642Y-184109285D01*
X179458214Y-183966428D01*
X180101071Y-181252142D02*
X179386785Y-181752142D01*
X180101071Y-182109285D02*
X178601071Y-182109285D01*
X178601071Y-181537857D01*
X178672500Y-181395000D01*
X178743928Y-181323571D01*
X178886785Y-181252142D01*
X179101071Y-181252142D01*
X179243928Y-181323571D01*
X179315357Y-181395000D01*
X179386785Y-181537857D01*
X179386785Y-182109285D01*
X180029642Y-180037857D02*
X180101071Y-180180714D01*
X180101071Y-180466428D01*
X180029642Y-180609285D01*
X179886785Y-180680714D01*
X179315357Y-180680714D01*
X179172500Y-180609285D01*
X179101071Y-180466428D01*
X179101071Y-180180714D01*
X179172500Y-180037857D01*
X179315357Y-179966428D01*
X179458214Y-179966428D01*
X179601071Y-180680714D01*
X179101071Y-179537857D02*
X179101071Y-178966428D01*
X180101071Y-179323571D02*
X178815357Y-179323571D01*
X178672500Y-179252142D01*
X178601071Y-179109285D01*
X178601071Y-178966428D01*
X180101071Y-178252142D02*
X180029642Y-178395000D01*
X179886785Y-178466428D01*
X178601071Y-178466428D01*
X180029642Y-177109285D02*
X180101071Y-177252142D01*
X180101071Y-177537857D01*
X180029642Y-177680714D01*
X179886785Y-177752142D01*
X179315357Y-177752142D01*
X179172500Y-177680714D01*
X179101071Y-177537857D01*
X179101071Y-177252142D01*
X179172500Y-177109285D01*
X179315357Y-177037857D01*
X179458214Y-177037857D01*
X179601071Y-177752142D01*
X180029642Y-175752142D02*
X180101071Y-175895000D01*
X180101071Y-176180714D01*
X180029642Y-176323571D01*
X179958214Y-176395000D01*
X179815357Y-176466428D01*
X179386785Y-176466428D01*
X179243928Y-176395000D01*
X179172500Y-176323571D01*
X179101071Y-176180714D01*
X179101071Y-175895000D01*
X179172500Y-175752142D01*
X179101071Y-175323571D02*
X179101071Y-174752142D01*
X178601071Y-175109285D02*
X179886785Y-175109285D01*
X180029642Y-175037857D01*
X180101071Y-174895000D01*
X180101071Y-174752142D01*
X180101071Y-174037857D02*
X180029642Y-174180714D01*
X179958214Y-174252142D01*
X179815357Y-174323571D01*
X179386785Y-174323571D01*
X179243928Y-174252142D01*
X179172500Y-174180714D01*
X179101071Y-174037857D01*
X179101071Y-173823571D01*
X179172500Y-173680714D01*
X179243928Y-173609285D01*
X179386785Y-173537857D01*
X179815357Y-173537857D01*
X179958214Y-173609285D01*
X180029642Y-173680714D01*
X180101071Y-173823571D01*
X180101071Y-174037857D01*
X180101071Y-172895000D02*
X179101071Y-172895000D01*
X179386785Y-172895000D02*
X179243928Y-172823571D01*
X179172500Y-172752142D01*
X179101071Y-172609285D01*
X179101071Y-172466428D01*
X179101071Y-170180714D02*
X180101071Y-170180714D01*
X178529642Y-170537857D02*
X179601071Y-170895000D01*
X179601071Y-169966428D01*
X180101071Y-169537857D02*
X179101071Y-168752142D01*
X179101071Y-169537857D02*
X180101071Y-168752142D01*
X179101071Y-167537857D02*
X180101071Y-167537857D01*
X178529642Y-167895000D02*
X179601071Y-168252142D01*
X179601071Y-167323571D01*
X182373214Y-198680714D02*
X182444642Y-198752142D01*
X182516071Y-198966428D01*
X182516071Y-199109285D01*
X182444642Y-199323571D01*
X182301785Y-199466428D01*
X182158928Y-199537857D01*
X181873214Y-199609285D01*
X181658928Y-199609285D01*
X181373214Y-199537857D01*
X181230357Y-199466428D01*
X181087500Y-199323571D01*
X181016071Y-199109285D01*
X181016071Y-198966428D01*
X181087500Y-198752142D01*
X181158928Y-198680714D01*
X182516071Y-197823571D02*
X182444642Y-197966428D01*
X182373214Y-198037857D01*
X182230357Y-198109285D01*
X181801785Y-198109285D01*
X181658928Y-198037857D01*
X181587500Y-197966428D01*
X181516071Y-197823571D01*
X181516071Y-197609285D01*
X181587500Y-197466428D01*
X181658928Y-197395000D01*
X181801785Y-197323571D01*
X182230357Y-197323571D01*
X182373214Y-197395000D01*
X182444642Y-197466428D01*
X182516071Y-197609285D01*
X182516071Y-197823571D01*
X181516071Y-196680714D02*
X183016071Y-196680714D01*
X181587500Y-196680714D02*
X181516071Y-196537857D01*
X181516071Y-196252142D01*
X181587500Y-196109285D01*
X181658928Y-196037857D01*
X181801785Y-195966428D01*
X182230357Y-195966428D01*
X182373214Y-196037857D01*
X182444642Y-196109285D01*
X182516071Y-196252142D01*
X182516071Y-196537857D01*
X182444642Y-196680714D01*
X181516071Y-195466428D02*
X182516071Y-195109285D01*
X181516071Y-194752142D02*
X182516071Y-195109285D01*
X182873214Y-195252142D01*
X182944642Y-195323571D01*
X183016071Y-195466428D01*
X182516071Y-194180714D02*
X181516071Y-194180714D01*
X181801785Y-194180714D02*
X181658928Y-194109285D01*
X181587500Y-194037857D01*
X181516071Y-193895000D01*
X181516071Y-193752142D01*
X182516071Y-193252142D02*
X181516071Y-193252142D01*
X181016071Y-193252142D02*
X181087500Y-193323571D01*
X181158928Y-193252142D01*
X181087500Y-193180714D01*
X181016071Y-193252142D01*
X181158928Y-193252142D01*
X181516071Y-191895000D02*
X182730357Y-191895000D01*
X182873214Y-191966428D01*
X182944642Y-192037857D01*
X183016071Y-192180714D01*
X183016071Y-192395000D01*
X182944642Y-192537857D01*
X182444642Y-191895000D02*
X182516071Y-192037857D01*
X182516071Y-192323571D01*
X182444642Y-192466428D01*
X182373214Y-192537857D01*
X182230357Y-192609285D01*
X181801785Y-192609285D01*
X181658928Y-192537857D01*
X181587500Y-192466428D01*
X181516071Y-192323571D01*
X181516071Y-192037857D01*
X181587500Y-191895000D01*
X182516071Y-191180714D02*
X181016071Y-191180714D01*
X182516071Y-190537857D02*
X181730357Y-190537857D01*
X181587500Y-190609285D01*
X181516071Y-190752142D01*
X181516071Y-190966428D01*
X181587500Y-191109285D01*
X181658928Y-191180714D01*
X181516071Y-190037857D02*
X181516071Y-189466428D01*
X181016071Y-189823571D02*
X182301785Y-189823571D01*
X182444642Y-189752142D01*
X182516071Y-189609285D01*
X182516071Y-189466428D01*
X181158928Y-187895000D02*
X181087500Y-187823571D01*
X181016071Y-187680714D01*
X181016071Y-187323571D01*
X181087500Y-187180714D01*
X181158928Y-187109285D01*
X181301785Y-187037857D01*
X181444642Y-187037857D01*
X181658928Y-187109285D01*
X182516071Y-187966428D01*
X182516071Y-187037857D01*
X181016071Y-186109285D02*
X181016071Y-185966428D01*
X181087500Y-185823571D01*
X181158928Y-185752142D01*
X181301785Y-185680714D01*
X181587500Y-185609285D01*
X181944642Y-185609285D01*
X182230357Y-185680714D01*
X182373214Y-185752142D01*
X182444642Y-185823571D01*
X182516071Y-185966428D01*
X182516071Y-186109285D01*
X182444642Y-186252142D01*
X182373214Y-186323571D01*
X182230357Y-186395000D01*
X181944642Y-186466428D01*
X181587500Y-186466428D01*
X181301785Y-186395000D01*
X181158928Y-186323571D01*
X181087500Y-186252142D01*
X181016071Y-186109285D01*
X181158928Y-185037857D02*
X181087500Y-184966428D01*
X181016071Y-184823571D01*
X181016071Y-184466428D01*
X181087500Y-184323571D01*
X181158928Y-184252142D01*
X181301785Y-184180714D01*
X181444642Y-184180714D01*
X181658928Y-184252142D01*
X182516071Y-185109285D01*
X182516071Y-184180714D01*
X181016071Y-183252142D02*
X181016071Y-183109285D01*
X181087500Y-182966428D01*
X181158928Y-182895000D01*
X181301785Y-182823571D01*
X181587500Y-182752142D01*
X181944642Y-182752142D01*
X182230357Y-182823571D01*
X182373214Y-182895000D01*
X182444642Y-182966428D01*
X182516071Y-183109285D01*
X182516071Y-183252142D01*
X182444642Y-183395000D01*
X182373214Y-183466428D01*
X182230357Y-183537857D01*
X181944642Y-183609285D01*
X181587500Y-183609285D01*
X181301785Y-183537857D01*
X181158928Y-183466428D01*
X181087500Y-183395000D01*
X181016071Y-183252142D01*
X182516071Y-180966428D02*
X181016071Y-180966428D01*
X182444642Y-180323571D02*
X182516071Y-180109285D01*
X182516071Y-179752142D01*
X182444642Y-179609285D01*
X182373214Y-179537857D01*
X182230357Y-179466428D01*
X182087500Y-179466428D01*
X181944642Y-179537857D01*
X181873214Y-179609285D01*
X181801785Y-179752142D01*
X181730357Y-180037857D01*
X181658928Y-180180714D01*
X181587500Y-180252142D01*
X181444642Y-180323571D01*
X181301785Y-180323571D01*
X181158928Y-180252142D01*
X181087500Y-180180714D01*
X181016071Y-180037857D01*
X181016071Y-179680714D01*
X181087500Y-179466428D01*
X182516071Y-178823571D02*
X181516071Y-178823571D01*
X181016071Y-178823571D02*
X181087500Y-178895000D01*
X181158928Y-178823571D01*
X181087500Y-178752142D01*
X181016071Y-178823571D01*
X181158928Y-178823571D01*
X182444642Y-178180714D02*
X182516071Y-178037857D01*
X182516071Y-177752142D01*
X182444642Y-177609285D01*
X182301785Y-177537857D01*
X182230357Y-177537857D01*
X182087500Y-177609285D01*
X182016071Y-177752142D01*
X182016071Y-177966428D01*
X181944642Y-178109285D01*
X181801785Y-178180714D01*
X181730357Y-178180714D01*
X181587500Y-178109285D01*
X181516071Y-177966428D01*
X181516071Y-177752142D01*
X181587500Y-177609285D01*
X182516071Y-175752142D02*
X181016071Y-175752142D01*
X182516071Y-175037857D02*
X181516071Y-175037857D01*
X181658928Y-175037857D02*
X181587500Y-174966428D01*
X181516071Y-174823571D01*
X181516071Y-174609285D01*
X181587500Y-174466428D01*
X181730357Y-174395000D01*
X182516071Y-174395000D01*
X181730357Y-174395000D02*
X181587500Y-174323571D01*
X181516071Y-174180714D01*
X181516071Y-173966428D01*
X181587500Y-173823571D01*
X181730357Y-173752142D01*
X182516071Y-173752142D01*
X182516071Y-172395000D02*
X181730357Y-172395000D01*
X181587500Y-172466428D01*
X181516071Y-172609285D01*
X181516071Y-172895000D01*
X181587500Y-173037857D01*
X182444642Y-172395000D02*
X182516071Y-172537857D01*
X182516071Y-172895000D01*
X182444642Y-173037857D01*
X182301785Y-173109285D01*
X182158928Y-173109285D01*
X182016071Y-173037857D01*
X181944642Y-172895000D01*
X181944642Y-172537857D01*
X181873214Y-172395000D01*
X181516071Y-171037857D02*
X182730357Y-171037857D01*
X182873214Y-171109285D01*
X182944642Y-171180714D01*
X183016071Y-171323571D01*
X183016071Y-171537857D01*
X182944642Y-171680714D01*
X182444642Y-171037857D02*
X182516071Y-171180714D01*
X182516071Y-171466428D01*
X182444642Y-171609285D01*
X182373214Y-171680714D01*
X182230357Y-171752142D01*
X181801785Y-171752142D01*
X181658928Y-171680714D01*
X181587500Y-171609285D01*
X181516071Y-171466428D01*
X181516071Y-171180714D01*
X181587500Y-171037857D01*
X182444642Y-169752142D02*
X182516071Y-169895000D01*
X182516071Y-170180714D01*
X182444642Y-170323571D01*
X182301785Y-170395000D01*
X181730357Y-170395000D01*
X181587500Y-170323571D01*
X181516071Y-170180714D01*
X181516071Y-169895000D01*
X181587500Y-169752142D01*
X181730357Y-169680714D01*
X181873214Y-169680714D01*
X182016071Y-170395000D01*
X182444642Y-169109285D02*
X182516071Y-168895000D01*
X182516071Y-168537857D01*
X182444642Y-168395000D01*
X182373214Y-168323571D01*
X182230357Y-168252142D01*
X182087500Y-168252142D01*
X181944642Y-168323571D01*
X181873214Y-168395000D01*
X181801785Y-168537857D01*
X181730357Y-168823571D01*
X181658928Y-168966428D01*
X181587500Y-169037857D01*
X181444642Y-169109285D01*
X181301785Y-169109285D01*
X181158928Y-169037857D01*
X181087500Y-168966428D01*
X181016071Y-168823571D01*
X181016071Y-168466428D01*
X181087500Y-168252142D01*
X181516071Y-167823571D02*
X181516071Y-167252142D01*
X181016071Y-167609285D02*
X182301785Y-167609285D01*
X182444642Y-167537857D01*
X182516071Y-167395000D01*
X182516071Y-167252142D01*
X182516071Y-166752142D02*
X181516071Y-166752142D01*
X181801785Y-166752142D02*
X181658928Y-166680714D01*
X181587500Y-166609285D01*
X181516071Y-166466428D01*
X181516071Y-166323571D01*
X182444642Y-165252142D02*
X182516071Y-165395000D01*
X182516071Y-165680714D01*
X182444642Y-165823571D01*
X182301785Y-165895000D01*
X181730357Y-165895000D01*
X181587500Y-165823571D01*
X181516071Y-165680714D01*
X181516071Y-165395000D01*
X181587500Y-165252142D01*
X181730357Y-165180714D01*
X181873214Y-165180714D01*
X182016071Y-165895000D01*
X182516071Y-163895000D02*
X181730357Y-163895000D01*
X181587500Y-163966428D01*
X181516071Y-164109285D01*
X181516071Y-164395000D01*
X181587500Y-164537857D01*
X182444642Y-163895000D02*
X182516071Y-164037857D01*
X182516071Y-164395000D01*
X182444642Y-164537857D01*
X182301785Y-164609285D01*
X182158928Y-164609285D01*
X182016071Y-164537857D01*
X181944642Y-164395000D01*
X181944642Y-164037857D01*
X181873214Y-163895000D01*
X182516071Y-163180714D02*
X181516071Y-163180714D01*
X181658928Y-163180714D02*
X181587500Y-163109285D01*
X181516071Y-162966428D01*
X181516071Y-162752142D01*
X181587500Y-162609285D01*
X181730357Y-162537857D01*
X182516071Y-162537857D01*
X181730357Y-162537857D02*
X181587500Y-162466428D01*
X181516071Y-162323571D01*
X181516071Y-162109285D01*
X181587500Y-161966428D01*
X181730357Y-161895000D01*
X182516071Y-161895000D01*
X182516071Y-160037857D02*
X181016071Y-160037857D01*
X181516071Y-159323571D02*
X182516071Y-159323571D01*
X181658928Y-159323571D02*
X181587500Y-159252142D01*
X181516071Y-159109285D01*
X181516071Y-158895000D01*
X181587500Y-158752142D01*
X181730357Y-158680714D01*
X182516071Y-158680714D01*
X181516071Y-158180714D02*
X181516071Y-157609285D01*
X181016071Y-157966428D02*
X182301785Y-157966428D01*
X182444642Y-157895000D01*
X182516071Y-157752142D01*
X182516071Y-157609285D01*
X182444642Y-156537857D02*
X182516071Y-156680714D01*
X182516071Y-156966428D01*
X182444642Y-157109285D01*
X182301785Y-157180714D01*
X181730357Y-157180714D01*
X181587500Y-157109285D01*
X181516071Y-156966428D01*
X181516071Y-156680714D01*
X181587500Y-156537857D01*
X181730357Y-156466428D01*
X181873214Y-156466428D01*
X182016071Y-157180714D01*
X182516071Y-155823571D02*
X181516071Y-155823571D01*
X181801785Y-155823571D02*
X181658928Y-155752142D01*
X181587500Y-155680714D01*
X181516071Y-155537857D01*
X181516071Y-155395000D01*
X181516071Y-154895000D02*
X182516071Y-154895000D01*
X181658928Y-154895000D02*
X181587500Y-154823571D01*
X181516071Y-154680714D01*
X181516071Y-154466428D01*
X181587500Y-154323571D01*
X181730357Y-154252142D01*
X182516071Y-154252142D01*
X182444642Y-152966428D02*
X182516071Y-153109285D01*
X182516071Y-153395000D01*
X182444642Y-153537857D01*
X182301785Y-153609285D01*
X181730357Y-153609285D01*
X181587500Y-153537857D01*
X181516071Y-153395000D01*
X181516071Y-153109285D01*
X181587500Y-152966428D01*
X181730357Y-152895000D01*
X181873214Y-152895000D01*
X182016071Y-153609285D01*
X181516071Y-152466428D02*
X181516071Y-151895000D01*
X181016071Y-152252142D02*
X182301785Y-152252142D01*
X182444642Y-152180714D01*
X182516071Y-152037857D01*
X182516071Y-151895000D01*
X182444642Y-150323571D02*
X182516071Y-150109285D01*
X182516071Y-149752142D01*
X182444642Y-149609285D01*
X182373214Y-149537857D01*
X182230357Y-149466428D01*
X182087500Y-149466428D01*
X181944642Y-149537857D01*
X181873214Y-149609285D01*
X181801785Y-149752142D01*
X181730357Y-150037857D01*
X181658928Y-150180714D01*
X181587500Y-150252142D01*
X181444642Y-150323571D01*
X181301785Y-150323571D01*
X181158928Y-150252142D01*
X181087500Y-150180714D01*
X181016071Y-150037857D01*
X181016071Y-149680714D01*
X181087500Y-149466428D01*
X182516071Y-148609285D02*
X182444642Y-148752142D01*
X182373214Y-148823571D01*
X182230357Y-148895000D01*
X181801785Y-148895000D01*
X181658928Y-148823571D01*
X181587500Y-148752142D01*
X181516071Y-148609285D01*
X181516071Y-148395000D01*
X181587500Y-148252142D01*
X181658928Y-148180714D01*
X181801785Y-148109285D01*
X182230357Y-148109285D01*
X182373214Y-148180714D01*
X182444642Y-148252142D01*
X182516071Y-148395000D01*
X182516071Y-148609285D01*
X182516071Y-147252142D02*
X182444642Y-147395000D01*
X182301785Y-147466428D01*
X181016071Y-147466428D01*
X181516071Y-146037857D02*
X182516071Y-146037857D01*
X181516071Y-146680714D02*
X182301785Y-146680714D01*
X182444642Y-146609285D01*
X182516071Y-146466428D01*
X182516071Y-146252142D01*
X182444642Y-146109285D01*
X182373214Y-146037857D01*
X181516071Y-145537857D02*
X181516071Y-144966428D01*
X181016071Y-145323571D02*
X182301785Y-145323571D01*
X182444642Y-145252142D01*
X182516071Y-145109285D01*
X182516071Y-144966428D01*
X182516071Y-144466428D02*
X181516071Y-144466428D01*
X181016071Y-144466428D02*
X181087500Y-144537857D01*
X181158928Y-144466428D01*
X181087500Y-144395000D01*
X181016071Y-144466428D01*
X181158928Y-144466428D01*
X182516071Y-143537857D02*
X182444642Y-143680714D01*
X182373214Y-143752142D01*
X182230357Y-143823571D01*
X181801785Y-143823571D01*
X181658928Y-143752142D01*
X181587500Y-143680714D01*
X181516071Y-143537857D01*
X181516071Y-143323571D01*
X181587500Y-143180714D01*
X181658928Y-143109285D01*
X181801785Y-143037857D01*
X182230357Y-143037857D01*
X182373214Y-143109285D01*
X182444642Y-143180714D01*
X182516071Y-143323571D01*
X182516071Y-143537857D01*
X181516071Y-142395000D02*
X182516071Y-142395000D01*
X181658928Y-142395000D02*
X181587500Y-142323571D01*
X181516071Y-142180714D01*
X181516071Y-141966428D01*
X181587500Y-141823571D01*
X181730357Y-141752142D01*
X182516071Y-141752142D01*
X182444642Y-141109285D02*
X182516071Y-140966428D01*
X182516071Y-140680714D01*
X182444642Y-140537857D01*
X182301785Y-140466428D01*
X182230357Y-140466428D01*
X182087500Y-140537857D01*
X182016071Y-140680714D01*
X182016071Y-140895000D01*
X181944642Y-141037857D01*
X181801785Y-141109285D01*
X181730357Y-141109285D01*
X181587500Y-141037857D01*
X181516071Y-140895000D01*
X181516071Y-140680714D01*
X181587500Y-140537857D01*
X182444642Y-139752142D02*
X182516071Y-139752142D01*
X182658928Y-139823571D01*
X182730357Y-139895000D01*
X182516071Y-137966428D02*
X181016071Y-137966428D01*
X181516071Y-137252142D02*
X182516071Y-137252142D01*
X181658928Y-137252142D02*
X181587500Y-137180714D01*
X181516071Y-137037857D01*
X181516071Y-136823571D01*
X181587500Y-136680714D01*
X181730357Y-136609285D01*
X182516071Y-136609285D01*
X182444642Y-135252142D02*
X182516071Y-135395000D01*
X182516071Y-135680714D01*
X182444642Y-135823571D01*
X182373214Y-135895000D01*
X182230357Y-135966428D01*
X181801785Y-135966428D01*
X181658928Y-135895000D01*
X181587500Y-135823571D01*
X181516071Y-135680714D01*
X181516071Y-135395000D01*
X181587500Y-135252142D01*
X182373214Y-134609285D02*
X182444642Y-134537857D01*
X182516071Y-134609285D01*
X182444642Y-134680714D01*
X182373214Y-134609285D01*
X182516071Y-134609285D01*
M02*
