%TF.GenerationSoftware,KiCad,Pcbnew,5.99.0-unknown-912657dd23~106~ubuntu20.04.1*%
%TF.CreationDate,2020-12-24T12:24:22-06:00*%
%TF.ProjectId,FlatAntPanel4x4_Reflector,466c6174-416e-4745-9061-6e656c347834,rev?*%
%TF.SameCoordinates,Original*%
%TF.FileFunction,Copper,L1,Top*%
%TF.FilePolarity,Positive*%
%FSLAX46Y46*%
G04 Gerber Fmt 4.6, Leading zero omitted, Abs format (unit mm)*
G04 Created by KiCad (PCBNEW 5.99.0-unknown-912657dd23~106~ubuntu20.04.1) date 2020-12-24 12:24:22*
%MOMM*%
%LPD*%
G01*
G04 APERTURE LIST*
%TA.AperFunction,EtchedComponent*%
%ADD10C,0.100000*%
%TD*%
%TA.AperFunction,ComponentPad*%
%ADD11C,2.900000*%
%TD*%
%TA.AperFunction,ConnectorPad*%
%ADD12C,5.000000*%
%TD*%
G04 APERTURE END LIST*
D10*
%TO.C,REF\u002A\u002A*%
X26821002Y-88408284D02*
X40821716Y-102408998D01*
X40821716Y-102408998D02*
X31098998Y-112131716D01*
X31098998Y-112131716D02*
X17098284Y-98131002D01*
X17098284Y-98131002D02*
X26821002Y-88408284D01*
G36*
X40821716Y-102408998D02*
G01*
X31098998Y-112131716D01*
X17098284Y-98131002D01*
X26821002Y-88408284D01*
X40821716Y-102408998D01*
G37*
X40821716Y-102408998D02*
X31098998Y-112131716D01*
X17098284Y-98131002D01*
X26821002Y-88408284D01*
X40821716Y-102408998D01*
X118878284Y-214138998D02*
X132878998Y-200138284D01*
X132878998Y-200138284D02*
X142601716Y-209861002D01*
X142601716Y-209861002D02*
X128601002Y-223861716D01*
X128601002Y-223861716D02*
X118878284Y-214138998D01*
G36*
X142601716Y-209861002D02*
G01*
X128601002Y-223861716D01*
X118878284Y-214138998D01*
X132878998Y-200138284D01*
X142601716Y-209861002D01*
G37*
X142601716Y-209861002D02*
X128601002Y-223861716D01*
X118878284Y-214138998D01*
X132878998Y-200138284D01*
X142601716Y-209861002D01*
X64255000Y-167640000D02*
X64255000Y-147840000D01*
X64255000Y-147840000D02*
X78005000Y-147840000D01*
X78005000Y-147840000D02*
X78005000Y-167640000D01*
X78005000Y-167640000D02*
X64255000Y-167640000D01*
G36*
X78005000Y-167640000D02*
G01*
X64255000Y-167640000D01*
X64255000Y-147840000D01*
X78005000Y-147840000D01*
X78005000Y-167640000D01*
G37*
X78005000Y-167640000D02*
X64255000Y-167640000D01*
X64255000Y-147840000D01*
X78005000Y-147840000D01*
X78005000Y-167640000D01*
X118878284Y-132358998D02*
X132878998Y-118358284D01*
X132878998Y-118358284D02*
X142601716Y-128081002D01*
X142601716Y-128081002D02*
X128601002Y-142081716D01*
X128601002Y-142081716D02*
X118878284Y-132358998D01*
G36*
X142601716Y-128081002D02*
G01*
X128601002Y-142081716D01*
X118878284Y-132358998D01*
X132878998Y-118358284D01*
X142601716Y-128081002D01*
G37*
X142601716Y-128081002D02*
X128601002Y-142081716D01*
X118878284Y-132358998D01*
X132878998Y-118358284D01*
X142601716Y-128081002D01*
X134100000Y-30865000D02*
X153900000Y-30865000D01*
X153900000Y-30865000D02*
X153900000Y-44615000D01*
X153900000Y-44615000D02*
X134100000Y-44615000D01*
X134100000Y-44615000D02*
X134100000Y-30865000D01*
G36*
X153900000Y-44615000D02*
G01*
X134100000Y-44615000D01*
X134100000Y-30865000D01*
X153900000Y-30865000D01*
X153900000Y-44615000D01*
G37*
X153900000Y-44615000D02*
X134100000Y-44615000D01*
X134100000Y-30865000D01*
X153900000Y-30865000D01*
X153900000Y-44615000D01*
X64255000Y-222160000D02*
X64255000Y-202360000D01*
X64255000Y-202360000D02*
X78005000Y-202360000D01*
X78005000Y-202360000D02*
X78005000Y-222160000D01*
X78005000Y-222160000D02*
X64255000Y-222160000D01*
G36*
X78005000Y-222160000D02*
G01*
X64255000Y-222160000D01*
X64255000Y-202360000D01*
X78005000Y-202360000D01*
X78005000Y-222160000D01*
G37*
X78005000Y-222160000D02*
X64255000Y-222160000D01*
X64255000Y-202360000D01*
X78005000Y-202360000D01*
X78005000Y-222160000D01*
X54081002Y-88408284D02*
X68081716Y-102408998D01*
X68081716Y-102408998D02*
X58358998Y-112131716D01*
X58358998Y-112131716D02*
X44358284Y-98131002D01*
X44358284Y-98131002D02*
X54081002Y-88408284D01*
G36*
X68081716Y-102408998D02*
G01*
X58358998Y-112131716D01*
X44358284Y-98131002D01*
X54081002Y-88408284D01*
X68081716Y-102408998D01*
G37*
X68081716Y-102408998D02*
X58358998Y-112131716D01*
X44358284Y-98131002D01*
X54081002Y-88408284D01*
X68081716Y-102408998D01*
X134100000Y-58125000D02*
X153900000Y-58125000D01*
X153900000Y-58125000D02*
X153900000Y-71875000D01*
X153900000Y-71875000D02*
X134100000Y-71875000D01*
X134100000Y-71875000D02*
X134100000Y-58125000D01*
G36*
X153900000Y-71875000D02*
G01*
X134100000Y-71875000D01*
X134100000Y-58125000D01*
X153900000Y-58125000D01*
X153900000Y-71875000D01*
G37*
X153900000Y-71875000D02*
X134100000Y-71875000D01*
X134100000Y-58125000D01*
X153900000Y-58125000D01*
X153900000Y-71875000D01*
X106840000Y-30865000D02*
X126640000Y-30865000D01*
X126640000Y-30865000D02*
X126640000Y-44615000D01*
X126640000Y-44615000D02*
X106840000Y-44615000D01*
X106840000Y-44615000D02*
X106840000Y-30865000D01*
G36*
X126640000Y-44615000D02*
G01*
X106840000Y-44615000D01*
X106840000Y-30865000D01*
X126640000Y-30865000D01*
X126640000Y-44615000D01*
G37*
X126640000Y-44615000D02*
X106840000Y-44615000D01*
X106840000Y-30865000D01*
X126640000Y-30865000D01*
X126640000Y-44615000D01*
X118878284Y-159618998D02*
X132878998Y-145618284D01*
X132878998Y-145618284D02*
X142601716Y-155341002D01*
X142601716Y-155341002D02*
X128601002Y-169341716D01*
X128601002Y-169341716D02*
X118878284Y-159618998D01*
G36*
X142601716Y-155341002D02*
G01*
X128601002Y-169341716D01*
X118878284Y-159618998D01*
X132878998Y-145618284D01*
X142601716Y-155341002D01*
G37*
X142601716Y-155341002D02*
X128601002Y-169341716D01*
X118878284Y-159618998D01*
X132878998Y-145618284D01*
X142601716Y-155341002D01*
X26821002Y-6619284D02*
X40821716Y-20619998D01*
X40821716Y-20619998D02*
X31098998Y-30342716D01*
X31098998Y-30342716D02*
X17098284Y-16342002D01*
X17098284Y-16342002D02*
X26821002Y-6619284D01*
G36*
X40821716Y-20619998D02*
G01*
X31098998Y-30342716D01*
X17098284Y-16342002D01*
X26821002Y-6619284D01*
X40821716Y-20619998D01*
G37*
X40821716Y-20619998D02*
X31098998Y-30342716D01*
X17098284Y-16342002D01*
X26821002Y-6619284D01*
X40821716Y-20619998D01*
X106840000Y-58125000D02*
X126640000Y-58125000D01*
X126640000Y-58125000D02*
X126640000Y-71875000D01*
X126640000Y-71875000D02*
X106840000Y-71875000D01*
X106840000Y-71875000D02*
X106840000Y-58125000D01*
G36*
X126640000Y-71875000D02*
G01*
X106840000Y-71875000D01*
X106840000Y-58125000D01*
X126640000Y-58125000D01*
X126640000Y-71875000D01*
G37*
X126640000Y-71875000D02*
X106840000Y-71875000D01*
X106840000Y-58125000D01*
X126640000Y-58125000D01*
X126640000Y-71875000D01*
X54081002Y-6619284D02*
X68081716Y-20619998D01*
X68081716Y-20619998D02*
X58358998Y-30342716D01*
X58358998Y-30342716D02*
X44358284Y-16342002D01*
X44358284Y-16342002D02*
X54081002Y-6619284D01*
G36*
X68081716Y-20619998D02*
G01*
X58358998Y-30342716D01*
X44358284Y-16342002D01*
X54081002Y-6619284D01*
X68081716Y-20619998D01*
G37*
X68081716Y-20619998D02*
X58358998Y-30342716D01*
X44358284Y-16342002D01*
X54081002Y-6619284D01*
X68081716Y-20619998D01*
X26821002Y-33888284D02*
X40821716Y-47888998D01*
X40821716Y-47888998D02*
X31098998Y-57611716D01*
X31098998Y-57611716D02*
X17098284Y-43611002D01*
X17098284Y-43611002D02*
X26821002Y-33888284D01*
G36*
X40821716Y-47888998D02*
G01*
X31098998Y-57611716D01*
X17098284Y-43611002D01*
X26821002Y-33888284D01*
X40821716Y-47888998D01*
G37*
X40821716Y-47888998D02*
X31098998Y-57611716D01*
X17098284Y-43611002D01*
X26821002Y-33888284D01*
X40821716Y-47888998D01*
X106840000Y-85385000D02*
X126640000Y-85385000D01*
X126640000Y-85385000D02*
X126640000Y-99135000D01*
X126640000Y-99135000D02*
X106840000Y-99135000D01*
X106840000Y-99135000D02*
X106840000Y-85385000D01*
G36*
X126640000Y-99135000D02*
G01*
X106840000Y-99135000D01*
X106840000Y-85385000D01*
X126640000Y-85385000D01*
X126640000Y-99135000D01*
G37*
X126640000Y-99135000D02*
X106840000Y-99135000D01*
X106840000Y-85385000D01*
X126640000Y-85385000D01*
X126640000Y-99135000D01*
X64255000Y-194900000D02*
X64255000Y-175100000D01*
X64255000Y-175100000D02*
X78005000Y-175100000D01*
X78005000Y-175100000D02*
X78005000Y-194900000D01*
X78005000Y-194900000D02*
X64255000Y-194900000D01*
G36*
X78005000Y-194900000D02*
G01*
X64255000Y-194900000D01*
X64255000Y-175100000D01*
X78005000Y-175100000D01*
X78005000Y-194900000D01*
G37*
X78005000Y-194900000D02*
X64255000Y-194900000D01*
X64255000Y-175100000D01*
X78005000Y-175100000D01*
X78005000Y-194900000D01*
X36995000Y-222160000D02*
X36995000Y-202360000D01*
X36995000Y-202360000D02*
X50745000Y-202360000D01*
X50745000Y-202360000D02*
X50745000Y-222160000D01*
X50745000Y-222160000D02*
X36995000Y-222160000D01*
G36*
X50745000Y-222160000D02*
G01*
X36995000Y-222160000D01*
X36995000Y-202360000D01*
X50745000Y-202360000D01*
X50745000Y-222160000D01*
G37*
X50745000Y-222160000D02*
X36995000Y-222160000D01*
X36995000Y-202360000D01*
X50745000Y-202360000D01*
X50745000Y-222160000D01*
X54081002Y-33888284D02*
X68081716Y-47888998D01*
X68081716Y-47888998D02*
X58358998Y-57611716D01*
X58358998Y-57611716D02*
X44358284Y-43611002D01*
X44358284Y-43611002D02*
X54081002Y-33888284D01*
G36*
X68081716Y-47888998D02*
G01*
X58358998Y-57611716D01*
X44358284Y-43611002D01*
X54081002Y-33888284D01*
X68081716Y-47888998D01*
G37*
X68081716Y-47888998D02*
X58358998Y-57611716D01*
X44358284Y-43611002D01*
X54081002Y-33888284D01*
X68081716Y-47888998D01*
X106840000Y-3605000D02*
X126640000Y-3605000D01*
X126640000Y-3605000D02*
X126640000Y-17355000D01*
X126640000Y-17355000D02*
X106840000Y-17355000D01*
X106840000Y-17355000D02*
X106840000Y-3605000D01*
G36*
X126640000Y-17355000D02*
G01*
X106840000Y-17355000D01*
X106840000Y-3605000D01*
X126640000Y-3605000D01*
X126640000Y-17355000D01*
G37*
X126640000Y-17355000D02*
X106840000Y-17355000D01*
X106840000Y-3605000D01*
X126640000Y-3605000D01*
X126640000Y-17355000D01*
X36995000Y-140380000D02*
X36995000Y-120580000D01*
X36995000Y-120580000D02*
X50745000Y-120580000D01*
X50745000Y-120580000D02*
X50745000Y-140380000D01*
X50745000Y-140380000D02*
X36995000Y-140380000D01*
G36*
X50745000Y-140380000D02*
G01*
X36995000Y-140380000D01*
X36995000Y-120580000D01*
X50745000Y-120580000D01*
X50745000Y-140380000D01*
G37*
X50745000Y-140380000D02*
X36995000Y-140380000D01*
X36995000Y-120580000D01*
X50745000Y-120580000D01*
X50745000Y-140380000D01*
X64255000Y-140380000D02*
X64255000Y-120580000D01*
X64255000Y-120580000D02*
X78005000Y-120580000D01*
X78005000Y-120580000D02*
X78005000Y-140380000D01*
X78005000Y-140380000D02*
X64255000Y-140380000D01*
G36*
X78005000Y-140380000D02*
G01*
X64255000Y-140380000D01*
X64255000Y-120580000D01*
X78005000Y-120580000D01*
X78005000Y-140380000D01*
G37*
X78005000Y-140380000D02*
X64255000Y-140380000D01*
X64255000Y-120580000D01*
X78005000Y-120580000D01*
X78005000Y-140380000D01*
X146138284Y-132358998D02*
X160138998Y-118358284D01*
X160138998Y-118358284D02*
X169861716Y-128081002D01*
X169861716Y-128081002D02*
X155861002Y-142081716D01*
X155861002Y-142081716D02*
X146138284Y-132358998D01*
G36*
X169861716Y-128081002D02*
G01*
X155861002Y-142081716D01*
X146138284Y-132358998D01*
X160138998Y-118358284D01*
X169861716Y-128081002D01*
G37*
X169861716Y-128081002D02*
X155861002Y-142081716D01*
X146138284Y-132358998D01*
X160138998Y-118358284D01*
X169861716Y-128081002D01*
X146138284Y-159618998D02*
X160138998Y-145618284D01*
X160138998Y-145618284D02*
X169861716Y-155341002D01*
X169861716Y-155341002D02*
X155861002Y-169341716D01*
X155861002Y-169341716D02*
X146138284Y-159618998D01*
G36*
X169861716Y-155341002D02*
G01*
X155861002Y-169341716D01*
X146138284Y-159618998D01*
X160138998Y-145618284D01*
X169861716Y-155341002D01*
G37*
X169861716Y-155341002D02*
X155861002Y-169341716D01*
X146138284Y-159618998D01*
X160138998Y-145618284D01*
X169861716Y-155341002D01*
X146138284Y-214138998D02*
X160138998Y-200138284D01*
X160138998Y-200138284D02*
X169861716Y-209861002D01*
X169861716Y-209861002D02*
X155861002Y-223861716D01*
X155861002Y-223861716D02*
X146138284Y-214138998D01*
G36*
X169861716Y-209861002D02*
G01*
X155861002Y-223861716D01*
X146138284Y-214138998D01*
X160138998Y-200138284D01*
X169861716Y-209861002D01*
G37*
X169861716Y-209861002D02*
X155861002Y-223861716D01*
X146138284Y-214138998D01*
X160138998Y-200138284D01*
X169861716Y-209861002D01*
X26821002Y-61148284D02*
X40821716Y-75148998D01*
X40821716Y-75148998D02*
X31098998Y-84871716D01*
X31098998Y-84871716D02*
X17098284Y-70871002D01*
X17098284Y-70871002D02*
X26821002Y-61148284D01*
G36*
X40821716Y-75148998D02*
G01*
X31098998Y-84871716D01*
X17098284Y-70871002D01*
X26821002Y-61148284D01*
X40821716Y-75148998D01*
G37*
X40821716Y-75148998D02*
X31098998Y-84871716D01*
X17098284Y-70871002D01*
X26821002Y-61148284D01*
X40821716Y-75148998D01*
X54081002Y-61148284D02*
X68081716Y-75148998D01*
X68081716Y-75148998D02*
X58358998Y-84871716D01*
X58358998Y-84871716D02*
X44358284Y-70871002D01*
X44358284Y-70871002D02*
X54081002Y-61148284D01*
G36*
X68081716Y-75148998D02*
G01*
X58358998Y-84871716D01*
X44358284Y-70871002D01*
X54081002Y-61148284D01*
X68081716Y-75148998D01*
G37*
X68081716Y-75148998D02*
X58358998Y-84871716D01*
X44358284Y-70871002D01*
X54081002Y-61148284D01*
X68081716Y-75148998D01*
X134100000Y-85385000D02*
X153900000Y-85385000D01*
X153900000Y-85385000D02*
X153900000Y-99135000D01*
X153900000Y-99135000D02*
X134100000Y-99135000D01*
X134100000Y-99135000D02*
X134100000Y-85385000D01*
G36*
X153900000Y-99135000D02*
G01*
X134100000Y-99135000D01*
X134100000Y-85385000D01*
X153900000Y-85385000D01*
X153900000Y-99135000D01*
G37*
X153900000Y-99135000D02*
X134100000Y-99135000D01*
X134100000Y-85385000D01*
X153900000Y-85385000D01*
X153900000Y-99135000D01*
X36995000Y-194900000D02*
X36995000Y-175100000D01*
X36995000Y-175100000D02*
X50745000Y-175100000D01*
X50745000Y-175100000D02*
X50745000Y-194900000D01*
X50745000Y-194900000D02*
X36995000Y-194900000D01*
G36*
X50745000Y-194900000D02*
G01*
X36995000Y-194900000D01*
X36995000Y-175100000D01*
X50745000Y-175100000D01*
X50745000Y-194900000D01*
G37*
X50745000Y-194900000D02*
X36995000Y-194900000D01*
X36995000Y-175100000D01*
X50745000Y-175100000D01*
X50745000Y-194900000D01*
X134100000Y-3605000D02*
X153900000Y-3605000D01*
X153900000Y-3605000D02*
X153900000Y-17355000D01*
X153900000Y-17355000D02*
X134100000Y-17355000D01*
X134100000Y-17355000D02*
X134100000Y-3605000D01*
G36*
X153900000Y-17355000D02*
G01*
X134100000Y-17355000D01*
X134100000Y-3605000D01*
X153900000Y-3605000D01*
X153900000Y-17355000D01*
G37*
X153900000Y-17355000D02*
X134100000Y-17355000D01*
X134100000Y-3605000D01*
X153900000Y-3605000D01*
X153900000Y-17355000D01*
X146138284Y-186878998D02*
X160138998Y-172878284D01*
X160138998Y-172878284D02*
X169861716Y-182601002D01*
X169861716Y-182601002D02*
X155861002Y-196601716D01*
X155861002Y-196601716D02*
X146138284Y-186878998D01*
G36*
X169861716Y-182601002D02*
G01*
X155861002Y-196601716D01*
X146138284Y-186878998D01*
X160138998Y-172878284D01*
X169861716Y-182601002D01*
G37*
X169861716Y-182601002D02*
X155861002Y-196601716D01*
X146138284Y-186878998D01*
X160138998Y-172878284D01*
X169861716Y-182601002D01*
X36995000Y-167640000D02*
X36995000Y-147840000D01*
X36995000Y-147840000D02*
X50745000Y-147840000D01*
X50745000Y-147840000D02*
X50745000Y-167640000D01*
X50745000Y-167640000D02*
X36995000Y-167640000D01*
G36*
X50745000Y-167640000D02*
G01*
X36995000Y-167640000D01*
X36995000Y-147840000D01*
X50745000Y-147840000D01*
X50745000Y-167640000D01*
G37*
X50745000Y-167640000D02*
X36995000Y-167640000D01*
X36995000Y-147840000D01*
X50745000Y-147840000D01*
X50745000Y-167640000D01*
X118878284Y-186878998D02*
X132878998Y-172878284D01*
X132878998Y-172878284D02*
X142601716Y-182601002D01*
X142601716Y-182601002D02*
X128601002Y-196601716D01*
X128601002Y-196601716D02*
X118878284Y-186878998D01*
G36*
X142601716Y-182601002D02*
G01*
X128601002Y-196601716D01*
X118878284Y-186878998D01*
X132878998Y-172878284D01*
X142601716Y-182601002D01*
G37*
X142601716Y-182601002D02*
X128601002Y-196601716D01*
X118878284Y-186878998D01*
X132878998Y-172878284D01*
X142601716Y-182601002D01*
%TD*%
D11*
%TO.P,H9,1,1*%
%TO.N,N/C*%
X93000000Y-221001000D03*
D12*
X93000000Y-221001000D03*
%TD*%
D11*
%TO.P,H10,1,1*%
%TO.N,N/C*%
X93000000Y-5001000D03*
D12*
X93000000Y-5001000D03*
%TD*%
D11*
%TO.P,H4,1,1*%
%TO.N,N/C*%
X174000000Y-208001000D03*
D12*
X174000000Y-208001000D03*
%TD*%
%TO.P,H3,1,1*%
%TO.N,N/C*%
X12000000Y-208001000D03*
D11*
X12000000Y-208001000D03*
%TD*%
D12*
%TO.P,H11,1,1*%
%TO.N,N/C*%
X16000000Y-113001000D03*
D11*
X16000000Y-113001000D03*
%TD*%
%TO.P,H12,1,1*%
%TO.N,N/C*%
X170000000Y-113001000D03*
D12*
X170000000Y-113001000D03*
%TD*%
D11*
%TO.P,H2,1,1*%
%TO.N,N/C*%
X174000000Y-18001000D03*
D12*
X174000000Y-18001000D03*
%TD*%
%TO.P,H1,1,1*%
%TO.N,N/C*%
X12000000Y-18001000D03*
D11*
X12000000Y-18001000D03*
%TD*%
M02*
