%TF.GenerationSoftware,KiCad,Pcbnew,5.99.0-unknown-4b436fa57~104~ubuntu20.04.1*%
%TF.CreationDate,2020-10-20T16:16:34-05:00*%
%TF.ProjectId,AP2100,41503231-3030-42e6-9b69-6361645f7063,rev?*%
%TF.SameCoordinates,Original*%
%TF.FileFunction,Copper,L4,Inr*%
%TF.FilePolarity,Positive*%
%FSLAX46Y46*%
G04 Gerber Fmt 4.6, Leading zero omitted, Abs format (unit mm)*
G04 Created by KiCad (PCBNEW 5.99.0-unknown-4b436fa57~104~ubuntu20.04.1) date 2020-10-20 16:16:34*
%MOMM*%
%LPD*%
G01*
G04 APERTURE LIST*
G04 Aperture macros list*
%AMRoundRect*
0 Rectangle with rounded corners*
0 $1 Rounding radius*
0 $2 $3 $4 $5 $6 $7 $8 $9 X,Y pos of 4 corners*
0 Add a 4 corners polygon primitive as box body*
4,1,4,$2,$3,$4,$5,$6,$7,$8,$9,$2,$3,0*
0 Add four circle primitives for the rounded corners*
1,1,$1+$1,$2,$3,0*
1,1,$1+$1,$4,$5,0*
1,1,$1+$1,$6,$7,0*
1,1,$1+$1,$8,$9,0*
0 Add four rect primitives between the rounded corners*
20,1,$1+$1,$2,$3,$4,$5,0*
20,1,$1+$1,$4,$5,$6,$7,0*
20,1,$1+$1,$6,$7,$8,$9,0*
20,1,$1+$1,$8,$9,$2,$3,0*%
G04 Aperture macros list end*
%TA.AperFunction,ComponentPad*%
%ADD10C,1.200000*%
%TD*%
%TA.AperFunction,ComponentPad*%
%ADD11C,3.450000*%
%TD*%
%TA.AperFunction,ComponentPad*%
%ADD12C,2.900000*%
%TD*%
%TA.AperFunction,ComponentPad*%
%ADD13R,2.000000X2.000000*%
%TD*%
%TA.AperFunction,ComponentPad*%
%ADD14C,2.000000*%
%TD*%
%TA.AperFunction,ComponentPad*%
%ADD15R,1.530000X1.530000*%
%TD*%
%TA.AperFunction,ComponentPad*%
%ADD16C,1.530000*%
%TD*%
%TA.AperFunction,ComponentPad*%
%ADD17C,1.905000*%
%TD*%
%TA.AperFunction,ComponentPad*%
%ADD18C,2.355000*%
%TD*%
%TA.AperFunction,ComponentPad*%
%ADD19R,3.500000X3.500000*%
%TD*%
%TA.AperFunction,ComponentPad*%
%ADD20RoundRect,0.750000X1.000000X-0.750000X1.000000X0.750000X-1.000000X0.750000X-1.000000X-0.750000X0*%
%TD*%
%TA.AperFunction,ComponentPad*%
%ADD21RoundRect,0.875000X0.875000X-0.875000X0.875000X0.875000X-0.875000X0.875000X-0.875000X-0.875000X0*%
%TD*%
%TA.AperFunction,ComponentPad*%
%ADD22R,1.398000X1.398000*%
%TD*%
%TA.AperFunction,ComponentPad*%
%ADD23C,1.398000*%
%TD*%
%TA.AperFunction,ComponentPad*%
%ADD24C,1.650000*%
%TD*%
%TA.AperFunction,ComponentPad*%
%ADD25C,2.362500*%
%TD*%
%TA.AperFunction,ComponentPad*%
%ADD26R,1.500000X1.500000*%
%TD*%
%TA.AperFunction,ComponentPad*%
%ADD27C,1.500000*%
%TD*%
%TA.AperFunction,ViaPad*%
%ADD28C,0.482600*%
%TD*%
%TA.AperFunction,ViaPad*%
%ADD29C,0.609600*%
%TD*%
%TA.AperFunction,ViaPad*%
%ADD30C,0.762000*%
%TD*%
%TA.AperFunction,ViaPad*%
%ADD31C,0.800000*%
%TD*%
%TA.AperFunction,Conductor*%
%ADD32C,0.254000*%
%TD*%
G04 APERTURE END LIST*
D10*
%TO.N,Net-(FL3-Pad3)*%
%TO.C,J9*%
X38379400Y-149021800D03*
%TO.N,/USB/USB2_DP*%
X40879400Y-149021800D03*
%TO.N,/USB/USB2_DM*%
X42879400Y-149021800D03*
%TO.N,GND*%
X45379400Y-149021800D03*
%TO.N,/USB/USB2_RXDM*%
X45879400Y-147521800D03*
%TO.N,/USB/USB2_RXDP*%
X43879400Y-147521800D03*
%TO.N,GND*%
X41879400Y-147521800D03*
%TO.N,/USB/USB2_TXDM*%
X39879400Y-147521800D03*
%TO.N,/USB/USB2_TXDP*%
X37879400Y-147521800D03*
D11*
%TO.N,GND*%
X35309400Y-151021800D03*
X48449400Y-151021800D03*
%TD*%
D12*
%TO.N,GND*%
%TO.C,H3*%
X3500000Y-148000000D03*
%TD*%
%TO.N,GND*%
%TO.C,H1*%
X3500000Y-6000000D03*
%TD*%
%TO.N,GND*%
%TO.C,H4*%
X146500000Y-149000000D03*
%TD*%
D13*
%TO.N,Net-(C79-Pad1)*%
%TO.C,T1*%
X24281185Y-121689396D03*
D14*
%TO.N,Net-(C78-Pad1)*%
X24281185Y-111689396D03*
%TO.N,Net-(C79-Pad2)*%
X34281185Y-121689396D03*
%TO.N,Net-(C78-Pad2)*%
X34281185Y-111689396D03*
%TD*%
D15*
%TO.N,Net-(C385-Pad2)*%
%TO.C,J7*%
X91744800Y-142875000D03*
D16*
%TO.N,Net-(IC9-Pad8)*%
X89712800Y-142875000D03*
%TO.N,Net-(IC9-Pad7)*%
X87680800Y-142875000D03*
%TO.N,Net-(IC9-Pad5)*%
X85648800Y-142875000D03*
%TO.N,Net-(IC9-Pad6)*%
X83616800Y-142875000D03*
%TO.N,Net-(C384-Pad2)*%
X81584800Y-142875000D03*
%TO.N,Net-(C386-Pad2)*%
X92760800Y-140335000D03*
%TO.N,Net-(IC9-Pad10)*%
X90728800Y-140335000D03*
%TO.N,Net-(IC9-Pad11)*%
X88696800Y-140335000D03*
%TO.N,Net-(IC9-Pad3)*%
X84632800Y-140335000D03*
%TO.N,Net-(IC9-Pad2)*%
X82600800Y-140335000D03*
%TO.N,Net-(C383-Pad2)*%
X80568800Y-140335000D03*
D17*
%TO.N,Net-(J7-Pad13)*%
X94183200Y-155829000D03*
%TO.N,/3V3*%
X94183200Y-158369000D03*
%TO.N,Net-(J7-Pad15)*%
X79146400Y-153289000D03*
%TO.N,/3V3*%
X79146400Y-155829000D03*
%TO.N,Net-(J7-Pad17)*%
X79146400Y-158369000D03*
D18*
%TO.N,GND*%
X95453200Y-149479000D03*
X77876400Y-149479000D03*
%TD*%
D13*
%TO.N,Net-(C83-Pad1)*%
%TO.C,T2*%
X42793413Y-121689396D03*
D14*
%TO.N,Net-(C84-Pad1)*%
X42793413Y-111689396D03*
%TO.N,Net-(C83-Pad2)*%
X52793413Y-121689396D03*
%TO.N,Net-(C84-Pad2)*%
X52793413Y-111689396D03*
%TD*%
D19*
%TO.N,Net-(D7-Pad2)*%
%TO.C,J2*%
X12745093Y-148279275D03*
D20*
%TO.N,GNDPWR*%
X12745093Y-154279275D03*
D21*
%TO.N,N/C*%
X17445093Y-151279275D03*
%TD*%
D22*
%TO.N,Net-(C86-Pad2)*%
%TO.C,J1*%
X68910200Y-136550400D03*
D23*
%TO.N,/POE_TD3_N*%
X66878200Y-136550400D03*
%TO.N,/POE_TD3_P*%
X64846200Y-136550400D03*
%TO.N,/POE_TD2_P*%
X62814200Y-136550400D03*
%TO.N,/POE_TD2_N*%
X60782200Y-136550400D03*
%TO.N,Net-(C82-Pad2)*%
X58750200Y-136550400D03*
%TO.N,Net-(C88-Pad2)*%
X69926200Y-134010400D03*
%TO.N,/POE_TD4_P*%
X67894200Y-134010400D03*
%TO.N,/POE_TD4_N*%
X65862200Y-134010400D03*
%TO.N,/POE_TD1_N*%
X61798200Y-134010400D03*
%TO.N,/POE_TD1_P*%
X59766200Y-134010400D03*
%TO.N,Net-(C81-Pad2)*%
X57734200Y-134010400D03*
D10*
%TO.N,Net-(C79-Pad1)*%
X69418200Y-143660400D03*
%TO.N,Net-(C79-Pad2)*%
X58242200Y-143660400D03*
%TO.N,Net-(C83-Pad1)*%
X69418200Y-145150400D03*
%TO.N,Net-(C83-Pad2)*%
X58242200Y-145150400D03*
D24*
%TO.N,/ETH0_LED2-*%
X69926200Y-131470400D03*
%TO.N,/3V3*%
X67386200Y-131470400D03*
X60274200Y-131470400D03*
%TO.N,/ETH0_LED1-*%
X57734200Y-131470400D03*
D25*
%TO.N,Earth*%
X71895200Y-154965400D03*
X55765200Y-154965400D03*
%TD*%
D12*
%TO.N,GND*%
%TO.C,H2*%
X146500000Y-6000000D03*
%TD*%
D26*
%TO.N,Net-(J4-Pad1)*%
%TO.C,J4*%
X121132600Y-148666200D03*
D27*
%TO.N,Net-(J4-Pad2)*%
X122402600Y-146126200D03*
%TO.N,Net-(J4-Pad3)*%
X123672600Y-148666200D03*
%TO.N,GND*%
X124942600Y-146126200D03*
X126212600Y-148666200D03*
%TO.N,Net-(J4-Pad6)*%
X127482600Y-146126200D03*
%TO.N,Net-(J4-Pad7)*%
X128752600Y-148666200D03*
%TO.N,Net-(J4-Pad8)*%
X130022600Y-146126200D03*
%TD*%
D10*
%TO.N,Net-(FL5-Pad3)*%
%TO.C,J10*%
X76327000Y-6959600D03*
%TO.N,/USB/USB3_DP*%
X76327000Y-9459600D03*
%TO.N,/USB/USB3_DM*%
X76327000Y-11459600D03*
%TO.N,GND*%
X76327000Y-13959600D03*
%TO.N,/USB/USB3_RXDM*%
X77827000Y-14459600D03*
%TO.N,/USB/USB3_RXDP*%
X77827000Y-12459600D03*
%TO.N,GND*%
X77827000Y-10459600D03*
%TO.N,/USB/USB3_TXDM*%
X77827000Y-8459600D03*
%TO.N,/USB/USB3_TXDP*%
X77827000Y-6459600D03*
D11*
%TO.N,GND*%
X74327000Y-3889600D03*
X74327000Y-17029600D03*
%TD*%
D10*
%TO.N,Net-(FL1-Pad3)*%
%TO.C,J8*%
X76428600Y-25755600D03*
%TO.N,/USB/USB1_DP*%
X76428600Y-28255600D03*
%TO.N,/USB/USB1_DM*%
X76428600Y-30255600D03*
%TO.N,GND*%
X76428600Y-32755600D03*
%TO.N,/USB/USB1_RXDM*%
X77928600Y-33255600D03*
%TO.N,/USB/USB1_RXDP*%
X77928600Y-31255600D03*
%TO.N,GND*%
X77928600Y-29255600D03*
%TO.N,/USB/USB1_TXDM*%
X77928600Y-27255600D03*
%TO.N,/USB/USB1_TXDP*%
X77928600Y-25255600D03*
D11*
%TO.N,GND*%
X74428600Y-22685600D03*
X74428600Y-35825600D03*
%TD*%
D28*
%TO.N,Net-(C106-Pad1)*%
X38710185Y-80594200D03*
D29*
%TO.N,Net-(C121-Pad2)*%
X38227000Y-77470000D03*
X38143368Y-79869572D03*
%TO.N,Net-(D7-Pad2)*%
X33274585Y-89428999D03*
D30*
%TO.N,Net-(D11-Pad2)*%
X23749585Y-88646000D03*
D29*
%TO.N,Net-(D14-Pad2)*%
X28092400Y-65532000D03*
D31*
%TO.N,Net-(LED1-Pad1)*%
X27985102Y-146558000D03*
%TO.N,Net-(LED2-Pad1)*%
X27992702Y-148125200D03*
%TO.N,Net-(LED3-Pad1)*%
X27985102Y-149707600D03*
D28*
%TO.N,GNDPWR*%
X48870185Y-97612200D03*
D31*
X10897185Y-116535200D03*
D28*
X48285985Y-100126800D03*
D31*
X10770185Y-119329200D03*
D28*
X44185796Y-93177967D03*
X44185796Y-99671901D03*
X48870185Y-98120200D03*
X32603396Y-99671901D03*
X32577996Y-93677501D03*
X32577996Y-93169501D03*
D31*
X10770185Y-109296200D03*
D28*
X44185796Y-99163901D03*
X32603396Y-99163901D03*
X44185796Y-93685967D03*
D30*
%TO.N,/PoE Power/VDC*%
X20549185Y-108280200D03*
X20549185Y-105613200D03*
X37567185Y-108407200D03*
X36932185Y-106502200D03*
D29*
X5690185Y-119202200D03*
D30*
X36932185Y-107645200D03*
X20549185Y-107391200D03*
D29*
X5944185Y-109296200D03*
X5690185Y-116535200D03*
D30*
X20549185Y-106502200D03*
X37694185Y-105613200D03*
D29*
%TO.N,/PoE Power/VOB*%
X40818627Y-95701901D03*
X40818627Y-96463901D03*
X40818627Y-97225901D03*
X43028427Y-96463901D03*
X35992627Y-95701901D03*
X35992627Y-97225901D03*
X35992627Y-96463901D03*
X33655827Y-96463901D03*
%TO.N,/PoE Power/PGD*%
X42062400Y-76911200D03*
%TO.N,Net-(D15-Pad2)*%
X32867600Y-62992000D03*
D31*
%TO.N,Net-(IC3-Pad15)*%
X41605200Y-83007200D03*
D29*
%TO.N,Net-(IC2-Pad7)*%
X38150800Y-93218000D03*
%TO.N,Net-(IC2-Pad8)*%
X37946062Y-91764442D03*
%TO.N,Net-(IC2-Pad9)*%
X37159469Y-91481296D03*
%TO.N,Net-(C109-Pad1)*%
X39497000Y-77597000D03*
%TD*%
%TO.N,/PoE Power/VDC*%
D32*
X39142585Y-105460000D02*
X39218185Y-105485200D01*
X40743185Y-105485200D01*
X40743185Y-108789200D01*
X20167185Y-108789200D01*
X20167185Y-105231200D01*
X35789185Y-105231200D01*
X35845534Y-105217898D01*
X36072930Y-105104200D01*
X38668185Y-105104200D01*
X39142585Y-105460000D01*
%TA.AperFunction,Conductor*%
G36*
X39142585Y-105460000D02*
G01*
X39218185Y-105485200D01*
X40743185Y-105485200D01*
X40743185Y-108789200D01*
X20167185Y-108789200D01*
X20167185Y-105231200D01*
X35789185Y-105231200D01*
X35845534Y-105217898D01*
X36072930Y-105104200D01*
X38668185Y-105104200D01*
X39142585Y-105460000D01*
G37*
%TD.AperFunction*%
%TD*%
M02*
