M48
; DRILL file {KiCad 5.99.0-unknown-4b436fa57~104~ubuntu20.04.1} date Tue Oct 20 16:16:30 2020
; FORMAT={-:-/ absolute / inch / decimal}
; #@! TF.CreationDate,2020-10-20T16:16:30-05:00
; #@! TF.GenerationSoftware,Kicad,Pcbnew,5.99.0-unknown-4b436fa57~104~ubuntu20.04.1
; #@! TF.FileFunction,Plated,1,6,PTH
FMAT,2
INCH
T1C0.0080
T2C0.0120
T3C0.0157
T4C0.0160
T5C0.0276
T6C0.0299
T7C0.0315
T8C0.0350
T9C0.0394
T10C0.0402
T11C0.0433
T12C0.0500
T13C0.0618
T14C0.0620
T15C0.0945
T16C0.0984
%
G90
G05
T1
X1.2826Y-3.6681
X1.2826Y-3.6881
X1.2836Y-3.9041
X1.2836Y-3.9241
X1.524Y-3.173
X1.7396Y-3.6684
X1.7396Y-3.6884
X1.7396Y-3.9041
X1.7396Y-3.9241
X1.901Y-3.942
X1.924Y-3.843
X1.924Y-3.863
T2
X0.224Y-4.588
X0.224Y-4.693
X0.234Y-4.303
X1.106Y-2.58
X1.294Y-2.48
X1.31Y-3.5208
X1.325Y-3.7978
X1.417Y-3.7678
X1.417Y-3.7978
X1.417Y-3.8278
X1.463Y-3.6016
X1.4939Y-3.6128
X1.5017Y-3.1445
X1.502Y-3.67
X1.505Y-3.05
X1.555Y-3.055
X1.607Y-3.7678
X1.607Y-3.7978
X1.607Y-3.8278
X1.656Y-3.028
X1.694Y-3.7978
T3
X0.424Y-4.303
X0.424Y-4.698
X0.429Y-4.588
X1.1018Y-5.77
X1.1018Y-5.894
X1.1021Y-5.8317
X1.638Y-3.268
T4
X0.809Y-4.158
X0.809Y-4.193
X0.809Y-4.228
X0.809Y-4.263
X0.935Y-3.49
X1.454Y-4.193
X1.454Y-4.238
X1.479Y-4.268
X1.484Y-4.158
T5
X0.956Y-4.3972
X0.956Y-4.7909
X1.3497Y-4.3972
X1.3497Y-4.7909
X1.6848Y-4.3972
X1.6848Y-4.7909
X2.0785Y-4.3972
X2.0785Y-4.7909
T6
X4.769Y-5.853
X4.819Y-5.753
X4.869Y-5.853
X4.919Y-5.753
X4.969Y-5.853
X5.019Y-5.753
X5.069Y-5.853
X5.119Y-5.753
T7
X3.009Y-1.014
X3.009Y-1.1124
X3.009Y-1.1912
X3.009Y-1.2896
X3.0681Y-0.9943
X3.0681Y-1.0731
X3.0681Y-1.1518
X3.0681Y-1.2305
X3.0681Y-1.3093
X3.0641Y-0.3331
X1.4913Y-5.8079
X1.5701Y-5.8079
X1.6488Y-5.8079
X3.005Y-0.274
X3.005Y-0.3724
X3.005Y-0.4512
X3.005Y-0.5496
X3.0641Y-0.2543
X1.7275Y-5.8079
X1.7866Y-5.867
X1.8063Y-5.8079
X3.0641Y-0.4905
X3.0641Y-0.5693
X1.511Y-5.867
X1.6094Y-5.867
X1.6882Y-5.867
X3.0641Y-0.4118
T8
X2.273Y-5.276
X2.293Y-5.6559
X2.293Y-5.7146
X2.313Y-5.376
X2.353Y-5.276
X2.393Y-5.376
X2.433Y-5.276
X2.473Y-5.376
X2.553Y-5.376
X2.593Y-5.276
X2.633Y-5.376
X2.673Y-5.276
X2.713Y-5.376
X2.733Y-5.6559
X2.733Y-5.7146
X2.753Y-5.276
T10
X3.172Y-5.525
X3.212Y-5.625
X3.252Y-5.525
X3.292Y-5.625
X3.332Y-5.525
X3.372Y-5.625
X3.452Y-5.625
X3.492Y-5.525
X3.532Y-5.625
X3.572Y-5.525
X3.612Y-5.625
X3.652Y-5.525
T11
X2.273Y-5.176
X2.373Y-5.176
X2.653Y-5.176
X2.753Y-5.176
T12
X3.116Y-6.035
X3.116Y-6.135
X3.116Y-6.235
X3.708Y-6.135
X3.708Y-6.235
T13
X3.066Y-5.885
X3.758Y-5.885
T14
X2.1955Y-6.101
X2.8305Y-6.101
T15
X2.9303Y-0.8931
X2.9303Y-1.4105
X1.3901Y-5.9457
X2.9263Y-0.1531
X2.9263Y-0.6705
X1.9075Y-5.9457
T16
X5.7677Y-5.8661
X0.1378Y-5.8268
X5.7677Y-0.2362
X0.1378Y-0.2362
T9
G00X0.4624Y-5.8378
M15
G01X0.5411Y-5.8378
M16
G05
G00X0.4624Y-6.074
M15
G01X0.5411Y-6.074
M16
G05
G00X0.6868Y-5.9952
M15
G01X0.6868Y-5.9165
M16
G05
T0
M30
