M48
; DRILL file {KiCad 5.99.0-unknown-dbcb1ecdb~104~ubuntu20.04.1} date Mon Oct 26 15:19:35 2020
; FORMAT={-:-/ absolute / inch / decimal}
; #@! TF.CreationDate,2020-10-26T15:19:35-05:00
; #@! TF.GenerationSoftware,Kicad,Pcbnew,5.99.0-unknown-dbcb1ecdb~104~ubuntu20.04.1
; #@! TF.FileFunction,Plated,1,4,PTH
FMAT,2
INCH
T1C0.0098
T2C0.0256
T3C0.0276
T4C0.0315
T5C0.0354
T6C0.0394
T7C0.0402
T8C0.0669
T9C0.0906
%
G90
G05
T1
X3.2087Y-2.8543
X3.2087Y-3.248
X3.2087Y-3.7402
X3.2087Y-4.0354
X3.2087Y-4.5276
X3.2087Y-5.1181
X3.2087Y-5.6102
X3.2087Y-6.0039
X3.3386Y-3.4724
X3.3524Y-3.1299
X3.3563Y-3.063
X3.372Y-3.0906
X3.3996Y-3.0906
X3.4055Y-2.8543
X3.4055Y-6.2008
X3.4154Y-3.063
X3.4154Y-3.1299
X3.4272Y-3.5925
X3.4272Y-3.8287
X3.4291Y-3.5354
X3.4291Y-3.6496
X3.4291Y-3.7126
X3.4291Y-3.7677
X3.4291Y-3.8878
X3.4449Y-3.4685
X3.4528Y-3.8445
X3.4528Y-3.872
X3.4567Y-3.7264
X3.4567Y-3.7539
X3.4606Y-3.4961
X3.4606Y-3.5433
X3.4744Y-3.063
X3.4764Y-3.126
X3.4783Y-3.5748
X3.4823Y-3.7047
X3.4823Y-3.7717
X3.4823Y-3.8898
X3.4843Y-3.8268
X3.4902Y-3.0945
X3.5177Y-3.0945
X3.5197Y-3.7854
X3.5197Y-3.813
X3.5335Y-3.063
X3.5453Y-3.7677
X3.5453Y-3.8268
X3.5925Y-3.0669
X3.5984Y-4.0709
X3.5984Y-4.1102
X3.6181Y-4.0906
X3.6319Y-3.9055
X3.6516Y-3.063
X3.6555Y-3.3819
X3.6575Y-3.4449
X3.6614Y-3.9094
X3.6614Y-4.8228
X3.6811Y-3.3996
X3.6811Y-3.4272
X3.7008Y-2.8543
X3.7067Y-2.9331
X3.7067Y-3.3819
X3.7067Y-3.4449
X3.7087Y-3.9134
X3.7106Y-3.063
X3.7382Y-3.9173
X3.748Y-2.8976
X3.7598Y-2.937
X3.7854Y-3.0256
X3.7894Y-2.9488
X3.8169Y-3.2598
X3.8169Y-3.3976
X3.8209Y-3.3268
X3.8425Y-3.2776
X3.8425Y-3.3051
X3.8425Y-3.3524
X3.8425Y-3.3799
X3.8642Y-3.3268
X3.8681Y-3.2598
X3.8681Y-3.3976
X3.876Y-5.8194
X3.878Y-5.9606
X3.9055Y-4.4764
X3.9114Y-5.7092
X3.9154Y-4.5374
X3.9291Y-4.5098
X3.9961Y-5.8307
X3.9961Y-5.9626
X3.9961Y-6.2008
X4.0551Y-3.5709
X4.0551Y-5.8307
X4.0551Y-5.9626
X4.061Y-3.1142
X4.065Y-3.065
X4.065Y-5.5157
X4.0747Y-3.5307
X4.0807Y-3.0906
X4.0945Y-2.8543
X4.0965Y-4.5098
X4.1083Y-3.0906
X4.1142Y-5.8307
X4.1142Y-5.9626
X4.1171Y-3.5384
X4.124Y-3.0648
X4.124Y-3.1181
X4.124Y-3.1732
X4.126Y-3.5748
X4.1398Y-3.1457
X4.1535Y-3.3622
X4.1654Y-4.378
X4.1673Y-3.1457
X4.1732Y-5.8307
X4.1732Y-5.9626
X4.185Y-3.0648
X4.185Y-3.1181
X4.187Y-3.1693
X4.1909Y-5.4139
X4.1988Y-3.0906
X4.2146Y-5.7997
X4.2238Y-4.8589
X4.2264Y-3.0906
X4.2421Y-3.0648
X4.2579Y-3.1024
X4.3012Y-3.063
X4.325Y-4.6593
X4.3406Y-5.6737
X4.3445Y-5.2721
X4.3602Y-3.063
X4.3858Y-4.6142
X4.3858Y-5.6969
X4.4154Y-4.5949
X4.4193Y-3.0614
X4.4193Y-3.1417
X4.4232Y-5.595
X4.4252Y-3.5433
X4.4449Y-3.1614
X4.4469Y-5.1737
X4.4724Y-6.2087
X4.4843Y-3.5315
X4.4882Y-2.8543
X4.498Y-3.0256
X4.498Y-3.0669
X4.5Y-3.0984
X4.5177Y-3.5236
X4.5197Y-5.8386
X4.5236Y-5.9685
X4.5512Y-5.4646
X4.5591Y-6.2032
X4.5669Y-6.0394
X4.624Y-2.8701
X4.6358Y-5.0674
X4.6752Y-5.3469
X4.7697Y-3.1142
X4.7717Y-3.1632
X4.7736Y-3.063
X4.7835Y-2.8543
X4.7894Y-3.1417
X4.7933Y-5.7721
X4.8169Y-3.1417
X4.8327Y-3.063
X4.8327Y-3.1142
X4.8327Y-3.1693
X4.8484Y-3.0906
X4.8602Y-5.6462
X4.8622Y-5.8268
X4.8622Y-5.9606
X4.876Y-3.0906
X4.8917Y-3.063
X4.8917Y-3.1161
X4.8917Y-3.1693
X4.9075Y-3.1417
X4.9114Y-5.0635
X4.9232Y-5.343
X4.935Y-3.1417
X4.9508Y-3.063
X4.9508Y-3.1142
X4.9665Y-3.0906
X4.9665Y-3.1457
X4.9803Y-5.8287
X4.9803Y-5.9587
X4.9843Y-4.7126
X4.9941Y-3.0906
X5.0059Y-5.5084
X5.0098Y-3.063
X5.0236Y-3.1102
X5.0394Y-5.8287
X5.0394Y-5.9606
X5.0413Y-2.8563
X5.0689Y-3.063
X5.0945Y-3.0807
X5.0945Y-3.1083
X5.0984Y-5.8287
X5.0984Y-5.9587
X5.1161Y-5.0635
X5.128Y-3.063
X5.1358Y-2.9291
X5.1575Y-5.8287
X5.1575Y-5.9587
X5.1594Y-2.9173
X5.165Y-2.9469
X5.1791Y-5.3391
X5.1949Y-5.6658
X5.2281Y-3.0096
X5.2953Y-5.6102
X5.2972Y-4.8745
X5.313Y-5.5517
X5.3583Y-5.9882
X5.3583Y-6.1181
X5.5571Y-5.3115
X5.6457Y-4.1378
X5.6476Y-4.1673
X5.6949Y-5.1698
X5.7559Y-3.5354
X5.7874Y-3.5394
X5.8504Y-3.5398
X5.876Y-4.9847
X5.8819Y-5.4016
X5.8819Y-5.4882
X5.9134Y-3.5354
X5.9685Y-5.4252
X6.0138Y-6.1909
X6.0236Y-5.4252
X6.0394Y-3.6693
X6.0571Y-3.6437
X6.065Y-5.1225
X6.0748Y-3.6693
X6.0886Y-4.7761
X6.0906Y-3.6437
X6.0965Y-4.5399
X6.0965Y-4.6029
X6.1063Y-3.6693
X6.1181Y-5.4882
X6.1208Y-5.4052
X6.122Y-3.6457
X6.1283Y-2.9821
X6.1378Y-3.6693
X6.1594Y-5.2288
X6.1772Y-3.8976
X6.1969Y-3.9232
X6.1969Y-3.9508
X6.2008Y-3.3701
X6.2106Y-3.8961
X6.2126Y-3.9764
X6.2283Y-3.3937
X6.2362Y-3.8524
X6.2362Y-3.8799
X6.2559Y-3.5079
X6.2598Y-3.8311
X6.2638Y-4.9198
X6.2874Y-3.6063
X6.2874Y-3.7008
X6.2904Y-3.9882
X6.2913Y-3.4134
X6.2913Y-4.0799
X6.3445Y-4.5512
X6.3465Y-3.3697
X6.3465Y-3.4646
X6.3465Y-3.5591
X6.3465Y-3.6535
X6.3465Y-3.748
X6.3465Y-3.8429
X6.3465Y-3.8898
X6.3465Y-3.937
X6.3465Y-4.0354
X6.3504Y-3.7913
X6.3525Y-3.6908
X6.3642Y-5.0281
X6.3661Y-3.7717
X6.3661Y-4.5748
X6.3701Y-3.6693
X6.374Y-3.8051
X6.374Y-3.8327
X6.3858Y-3.4134
X6.4041Y-3.7472
X6.4134Y-3.5118
X6.4134Y-3.6063
X6.4134Y-3.8425
X6.4134Y-3.8898
X6.4134Y-3.9366
X6.4134Y-3.9846
X6.4134Y-4.0776
X6.4135Y-3.7005
X6.4135Y-3.7807
X6.4149Y-3.4179
X6.4409Y-6.187
X6.4673Y-3.7636
X6.4685Y-3.3697
X6.4685Y-3.465
X6.4685Y-3.5594
X6.4685Y-3.6539
X6.4685Y-4.0319
X6.5276Y-3.9941
X6.5276Y-4.0217
X6.5354Y-2.8012
X6.5394Y-2.9316
X6.5551Y-3.9921
X6.5551Y-4.024
X6.5591Y-4.5315
X6.5827Y-3.1031
X6.5827Y-3.9469
X6.5827Y-3.9744
X6.5846Y-4.5472
X6.5886Y-4.626
X6.5906Y-4.6811
X6.6102Y-3.9453
X6.6102Y-3.9764
X6.6142Y-3.1031
X6.6142Y-4.6398
X6.6142Y-4.6673
X6.6378Y-3.8799
X6.6378Y-3.9075
X6.6379Y-4.6843
X6.6496Y-3.7657
X6.6496Y-3.7933
X6.6516Y-4.5709
X6.6535Y-4.626
X6.6575Y-3.0827
X6.6654Y-3.9094
X6.6693Y-3.874
X6.6772Y-3.7598
X6.6772Y-3.7953
X6.6772Y-4.5846
X6.6772Y-4.6122
X6.6811Y-3.687
X6.6811Y-3.7146
X6.6909Y-3.0787
X6.6969Y-3.8287
X6.6969Y-3.8563
X6.7047Y-3.6654
X6.7047Y-4.5118
X6.7047Y-4.5709
X6.7047Y-4.626
X6.7106Y-3.7185
X6.7158Y-5.6661
X6.7244Y-3.0787
X6.7283Y-3.5217
X6.7283Y-3.5492
X6.7283Y-3.6161
X6.7283Y-3.6437
X6.7323Y-4.5256
X6.7323Y-4.5531
X6.7362Y-3.8228
X6.7362Y-3.8583
X6.748Y-4.6736
X6.7559Y-3.6142
X6.7559Y-3.6457
X6.7579Y-3.5531
X6.7579Y-4.5118
X6.7598Y-3.0787
X6.7598Y-4.5709
X6.7618Y-3.5217
X6.7776Y-4.6732
X6.7835Y-3.5689
X6.7835Y-3.5965
X6.788Y-4.9876
X6.7913Y-3.0787
X6.7913Y-3.4783
X6.7913Y-3.5059
X6.8051Y-4.6732
X6.811Y-3.3327
X6.811Y-3.3602
X6.811Y-5.4213
X6.813Y-3.563
X6.815Y-3.5984
X6.8189Y-3.4705
X6.8248Y-3.5118
X6.8346Y-4.6732
X6.8406Y-3.3228
X6.8425Y-3.122
X6.8425Y-3.3563
X6.8445Y-3.4272
X6.8445Y-3.4547
X6.8504Y-5.0197
X6.8646Y-5.5673
X6.8681Y-3.3602
X6.8701Y-3.1181
X6.8701Y-5.0512
X6.8724Y-5.2459
X6.874Y-3.4311
X6.874Y-3.4587
X6.8945Y-3.6518
X6.8976Y-4.5354
X6.8998Y-3.122
X6.9016Y-4.5
X6.9035Y-2.7992
X6.9035Y-2.8543
X6.9035Y-2.9094
X6.9035Y-2.9724
X6.9055Y-5.1919
X6.9055Y-5.2215
X6.9094Y-3.3799
X6.9094Y-3.4075
X6.9203Y-5.5669
X6.9213Y-3.439
X6.9239Y-5.3649
X6.9245Y-5.3261
X6.937Y-3.1693
X6.937Y-4.4921
X6.9409Y-4.937
X6.9409Y-5.0197
X6.9488Y-6.2008
X6.9494Y-5.1618
X6.9494Y-5.2496
X6.9509Y-4.9666
X6.9528Y-5.5236
X6.9626Y-3.3406
X6.968Y-5.284
X6.9704Y-4.9861
X6.9764Y-3.1693
X6.9843Y-5.0827
X6.9872Y-5.4242
X6.9882Y-3.1457
X6.9896Y-5.3425
X6.9921Y-5.5039
X7.0157Y-3.1181
X7.0157Y-3.4803
X7.0157Y-4.9823
X7.0236Y-4.9421
X7.0256Y-3.3957
X7.0335Y-3.5866
X7.0354Y-3.6457
X7.0372Y-5.1908
X7.0472Y-3.122
X7.0492Y-3.3228
X7.0551Y-3.5551
X7.065Y-3.3898
X7.0689Y-3.4409
X7.0689Y-3.622
X7.071Y-5.2754
X7.071Y-5.3417
X7.071Y-5.5057
X7.071Y-5.5825
X7.0748Y-3.5236
X7.0827Y-3.122
X7.0945Y-3.5827
X7.1024Y-3.624
X7.122Y-3.4567
X7.124Y-5.1575
X7.1339Y-5.5906
X7.1339Y-5.6142
X7.1378Y-3.1181
X7.1417Y-3.3189
X7.1496Y-5.185
X7.1496Y-5.5039
X7.1496Y-5.6417
X7.1524Y-5.3425
X7.1533Y-5.4239
X7.1535Y-3.4685
X7.1535Y-4.6969
X7.1614Y-3.4055
X7.1619Y-5.218
X7.1654Y-5.6102
X7.1693Y-3.3425
X7.1732Y-3.1181
X7.1772Y-6.2441
X7.185Y-5.1781
X7.1929Y-4.685
X7.1969Y-3.3465
X7.1969Y-3.4055
X7.2126Y-5.5472
X7.214Y-5.5104
X7.2165Y-5.311
X7.2175Y-5.1781
X7.2205Y-5.4016
X7.2205Y-5.4291
X7.2244Y-3.0591
X7.2244Y-3.374
X7.2303Y-4.1575
X7.233Y-3.415
X7.2446Y-5.1969
X7.2559Y-3.3583
X7.2598Y-4.1575
X7.2697Y-4.8898
X7.2756Y-5.3091
X7.2815Y-3.0236
X7.315Y-5.3661
X7.3406Y-3.3976
X7.3671Y-5.3573
X7.3671Y-5.4498
X7.3701Y-3.3937
X7.3701Y-4.1575
X7.372Y-3.0236
X7.3819Y-5.0881
X7.3819Y-5.1732
X7.4016Y-4.1575
X7.4094Y-3.8031
X7.4094Y-5.626
X7.4134Y-4.4094
X7.4449Y-4.3858
X7.4488Y-3.1339
X7.4488Y-3.7606
X7.4527Y-3.8031
X7.4528Y-5.0256
X7.4547Y-3.0236
X7.4547Y-5.0807
X7.4626Y-5.0512
X7.4685Y-5.4547
X7.4764Y-4.5157
X7.4862Y-3.1417
X7.4862Y-3.2008
X7.4862Y-3.2441
X7.4862Y-3.2874
X7.4882Y-5.3701
X7.4921Y-3.7465
X7.4961Y-3.9488
X7.5059Y-3.8426
X7.5197Y-3.1575
X7.5217Y-3.2165
X7.5217Y-3.2638
X7.5236Y-3.6181
X7.5276Y-3.9528
X7.5315Y-3.7465
X7.5315Y-3.8422
X7.5315Y-4.8898
X7.5354Y-6.2441
X7.5413Y-3.561
X7.5472Y-5.3701
X7.5571Y-3.0236
X7.5591Y-3.622
X7.5591Y-3.9567
X7.5609Y-3.8939
X7.5614Y-3.6832
X7.5643Y-3.7478
X7.5728Y-2.9882
X7.5768Y-2.7953
X7.5787Y-3.1654
X7.5886Y-3.1378
X7.5911Y-3.8909
X7.5945Y-3.7362
X7.5945Y-3.811
X7.5965Y-3.6201
X7.5984Y-3.9726
X7.6004Y-3.4724
X7.6083Y-5.2697
X7.6083Y-5.3445
X7.6102Y-3.5591
X7.6102Y-4.4961
X7.6181Y-3.3585
X7.6181Y-3.4252
X7.6188Y-3.8887
X7.622Y-3.7323
X7.622Y-3.811
X7.622Y-3.9567
X7.622Y-4.1339
X7.6238Y-3.6535
X7.6252Y-6.2028
X7.628Y-5.7795
X7.6339Y-4.311
X7.6358Y-4.2638
X7.6516Y-4.4606
X7.6646Y-6.1299
X7.6693Y-3.3228
X7.6752Y-4.4409
X7.6811Y-3.3695
X7.6811Y-3.5598
X7.6811Y-3.622
X7.6811Y-4.0787
X7.6831Y-4.0315
X7.6843Y-3.8896
X7.685Y-3.7323
X7.685Y-3.811
X7.685Y-4.252
X7.6861Y-3.9766
X7.687Y-3.4724
X7.6909Y-4.4134
X7.7008Y-3.8701
X7.7028Y-4.4409
X7.7071Y-6.187
X7.7087Y-3.5433
X7.7087Y-4.0039
X7.7087Y-3.6622
X7.7126Y-3.7205
X7.7126Y-3.8071
X7.7126Y-3.9374
X7.7126Y-5.1382
X7.7126Y-5.1929
X7.7166Y-3.6252
X7.7283Y-3.8819
X7.7343Y-4.437
X7.7362Y-3.3858
X7.739Y-3.7564
X7.7402Y-3.3354
X7.7402Y-3.9528
X7.7402Y-3.9803
X7.7421Y-4.5236
X7.7441Y-3.7953
X7.7441Y-4.0236
X7.7441Y-4.4665
X7.7441Y-4.4941
X7.7454Y-3.7161
X7.748Y-3.5748
X7.748Y-3.6693
X7.749Y-3.6196
X7.75Y-6.187
X7.7638Y-4.2795
X7.7657Y-4.1457
X7.7717Y-4.2205
X7.7756Y-4.5433
X7.7795Y-4.2638
X7.7933Y-4.1969
X7.7933Y-6.187
X7.7953Y-3.3268
X7.7992Y-5.063
X7.7992Y-5.2598
X7.803Y-4.0787
X7.8039Y-3.9512
X7.8061Y-3.9173
X7.8061Y-3.7362
X7.8071Y-3.7717
X7.8071Y-3.8819
X7.8081Y-3.7973
X7.811Y-3.8268
X7.811Y-3.9843
X7.815Y-3.3937
X7.815Y-3.8543
X7.815Y-4.1772
X7.8169Y-5.6122
X7.8169Y-5.7028
X7.8299Y-3.7525
X7.8366Y-6.187
X7.8514Y-2.9518
X7.8622Y-2.9843
X7.8622Y-3.1614
X7.8622Y-5.6102
X7.8661Y-5.4882
X7.8819Y-5.5157
X7.8819Y-5.7028
X7.8819Y-6.185
X7.8937Y-3.374
X7.8937Y-3.5157
X7.8937Y-5.6024
X7.8957Y-3.4803
X7.8965Y-5.437
X7.8996Y-3.1614
X7.9055Y-2.9803
X7.9075Y-3.5433
X7.9094Y-5.4606
X7.9142Y-5.3819
X7.9193Y-6.1732
X7.9272Y-3.4724
X7.9291Y-3.5118
X7.9291Y-5.4016
X7.9409Y-5.437
X7.9528Y-5.3386
X7.9685Y-3.0906
X7.9724Y-3.0315
X7.9783Y-4.7559
X7.9803Y-5.2047
X7.9803Y-5.3661
X7.9843Y-5.0315
X8.0039Y-4.7461
X8.0039Y-4.7717
X8.011Y-5.2598
X8.0276Y-5.0236
X8.0295Y-4.7618
X8.0669Y-5.0944
X8.0669Y-5.4488
X8.0689Y-4.5315
X8.0787Y-3.0315
X8.0984Y-4.5433
X8.0984Y-4.626
X8.1122Y-6.2224
X8.128Y-4.626
X8.1634Y-6.1575
X8.1693Y-3.1378
X8.1717Y-5.6831
X8.2067Y-6.2224
X8.2224Y-5.7795
X8.2264Y-5.5039
X8.2283Y-2.8543
X8.2283Y-4.8228
X8.2283Y-5.2165
X8.2559Y-3.0315
X8.2618Y-3.3543
X8.3031Y-6.25
X8.3917Y-5.2835
X8.3917Y-5.5039
X8.3957Y-5.7559
X8.4154Y-3.3543
X8.4252Y-6.1024
X8.4252Y-6.2008
X8.5118Y-4.9961
X8.5138Y-3.7815
X8.5433Y-4.2638
X8.6772Y-5.3386
X8.6929Y-4.4114
X8.6929Y-4.4429
X8.6929Y-4.4744
X8.7126Y-3.7126
X8.7126Y-3.752
X8.7126Y-3.7992
X8.7736Y-5.3701
X8.7776Y-4.9651
X8.7795Y-3.7087
X8.7795Y-3.8031
X8.7795Y-4.9237
X8.7795Y-5.0064
X8.7795Y-5.0556
X8.7795Y-5.0929
X8.7815Y-3.7539
X8.7815Y-3.8449
X8.7815Y-3.8917
X8.815Y-5.0182
X8.815Y-5.0555
X8.8189Y-6.2008
X8.8268Y-5.0929
X8.8346Y-3.7008
X8.8346Y-3.7539
X8.8346Y-3.8031
X8.8346Y-3.8921
X8.8346Y-4.9119
X8.8366Y-4.9611
X8.876Y-4.9572
X8.878Y-4.9119
X8.878Y-5.0103
X8.8819Y-3.4547
X8.8819Y-3.7008
X8.8819Y-3.7539
X8.8819Y-3.8031
X8.8819Y-3.8921
X8.8819Y-5.0969
X8.8858Y-4.6678
X8.8878Y-3.8543
X8.8903Y-5.064
X8.9173Y-5.1304
X8.9173Y-5.1599
X8.9173Y-5.2052
X8.9173Y-5.2328
X8.9232Y-3.9213
X8.9232Y-3.9528
X8.9232Y-3.9921
X8.9232Y-4.0276
X8.9941Y-4.0453
X9.065Y-3.9173
X9.065Y-3.9528
X9.065Y-3.9961
X9.065Y-4.0276
X9.065Y-5.1304
X9.065Y-5.1619
X9.065Y-5.2032
X9.065Y-5.2347
X9.0978Y-5.007
X9.0984Y-4.9592
X9.099Y-4.9192
X9.1024Y-3.7559
X9.103Y-3.6963
X9.1037Y-3.8096
X9.1201Y-4.7067
X9.124Y-3.5059
X9.1299Y-4.9592
X9.1575Y-3.7008
X9.1575Y-3.7598
X9.1575Y-3.8071
X9.1575Y-3.8583
X9.1575Y-3.8976
X9.1614Y-3.6378
X9.1654Y-4.8647
X9.1654Y-4.9119
X9.1654Y-4.9552
X9.1654Y-4.9906
X9.1654Y-5.03
X9.1654Y-5.0694
X9.1929Y-3.6378
X9.1929Y-3.7008
X9.1929Y-3.7598
X9.1929Y-3.8071
X9.1929Y-3.8583
X9.1929Y-3.8976
X9.1969Y-4.8647
X9.1969Y-4.9119
X9.1969Y-4.9552
X9.1969Y-4.9946
X9.1969Y-5.03
X9.1969Y-5.0694
X9.2146Y-5.7303
X9.2165Y-5.6713
X9.311Y-2.8543
X9.311Y-3.0512
X9.311Y-4.4291
X9.311Y-4.8228
X9.311Y-5.2165
X9.311Y-6.2008
X9.3248Y-3.7047
X9.3307Y-5.5906
X8.9154Y-3.7283
X8.9154Y-3.7795
X8.9665Y-3.7283
X8.9665Y-3.7795
X9.0177Y-3.7283
X9.0177Y-3.7795
X9.0689Y-3.7283
X9.0689Y-3.7795
X8.9134Y-4.9375
X8.9134Y-4.9887
X8.9646Y-4.9375
X8.9646Y-4.9887
X9.0157Y-4.9375
X9.0157Y-4.9887
X9.0669Y-4.9375
X9.0669Y-4.9887
T3
X8.1004Y-3.7461
X8.1004Y-3.8248
X8.1004Y-3.9035
X8.1004Y-3.9823
X8.1004Y-4.1398
X8.1004Y-4.2185
X8.1004Y-4.2972
X8.1004Y-4.376
X8.1004Y-4.4547
X8.1791Y-3.7854
X8.1791Y-3.8642
X8.1791Y-3.9429
X8.1791Y-4.1004
X8.1791Y-4.1791
X8.1791Y-4.2579
X8.1791Y-4.3366
X8.1791Y-4.4154
X8.1791Y-4.4941
X8.2776Y-3.7854
X8.2776Y-3.8642
X8.2776Y-3.9429
X8.2776Y-4.1004
X8.2776Y-4.1791
X8.2776Y-4.2579
X8.2776Y-4.3366
X8.2776Y-4.4154
X8.2776Y-4.4941
X8.3563Y-3.7461
X8.3563Y-3.8248
X8.3563Y-3.9035
X8.3563Y-3.9823
X8.3563Y-4.1398
X8.3563Y-4.2185
X8.3563Y-4.2972
X8.3563Y-4.376
X8.3563Y-4.4547
T5
X5.7986Y-5.5752
X5.7986Y-5.7744
X5.8486Y-5.6752
X5.8986Y-5.5752
X5.8986Y-5.8244
X5.9486Y-5.6752
X5.9986Y-5.5752
X6.0486Y-5.6752
X6.0986Y-5.5752
X6.1486Y-5.6752
X6.1486Y-5.8244
X6.1986Y-5.5752
X6.2486Y-5.6752
X6.2486Y-5.7744
X8.6319Y-3.2185
X8.3366Y-3.2185
X8.435Y-3.2185
X8.5335Y-3.2185
T6
X7.3622Y-5.6669
X7.3622Y-5.7669
X4.8402Y-3.963
X7.3622Y-5.5669
X4.7402Y-3.963
X4.7402Y-4.063
X4.8402Y-4.063
X7.3622Y-5.8669
X7.3622Y-5.9669
X7.4622Y-5.5669
X7.4622Y-5.6669
X7.4622Y-5.7669
X7.4622Y-5.8669
X7.4622Y-5.9669
X3.6205Y-5.3543
X3.7205Y-5.3543
X3.8205Y-5.3543
X5.4724Y-2.8331
X5.4724Y-2.9331
X5.5724Y-2.8331
X5.5724Y-2.9331
X5.6724Y-2.8331
X5.6724Y-2.9331
X5.7724Y-2.8331
X5.7724Y-2.9331
X5.8724Y-2.8331
X5.8724Y-2.9331
X5.9724Y-2.8331
X5.9724Y-2.9331
X6.0724Y-2.8331
X6.0724Y-2.9331
X3.4398Y-4.1843
X3.4398Y-4.2843
X3.5398Y-4.1843
X3.5398Y-4.2843
X3.6398Y-4.1843
X3.6398Y-4.2843
X3.7398Y-4.1843
X3.7398Y-4.2843
X3.8398Y-4.1843
X3.8398Y-4.2843
X3.9398Y-4.1843
X3.9398Y-4.2843
X4.0398Y-4.1843
X4.0398Y-4.2843
X4.1398Y-4.1843
X4.1398Y-4.2843
X4.2398Y-4.1843
X4.2398Y-4.2843
X4.3398Y-4.1843
X4.3398Y-4.2843
X4.4398Y-4.1843
X6.6339Y-5.7232
X4.4398Y-4.2843
X4.5398Y-4.1843
X4.5398Y-4.2843
X4.6398Y-4.1843
X4.6398Y-4.2843
X4.7398Y-4.1843
X4.7398Y-4.2843
X4.8398Y-4.1843
X4.8398Y-4.2843
X4.9398Y-4.1843
X4.9398Y-4.2843
X5.0398Y-4.1843
X5.0398Y-4.2843
X5.1398Y-4.1843
X5.1398Y-4.2843
X6.811Y-5.8264
X5.3398Y-4.1843
X5.3398Y-4.2843
X6.7323Y-5.7232
X6.811Y-5.7232
X5.2398Y-4.1843
X6.6339Y-5.8264
X6.7323Y-5.8264
X5.2398Y-4.2843
X6.9094Y-5.7232
X6.9094Y-5.8264
X5.4815Y-4.524
X5.5815Y-4.424
X5.5815Y-4.524
X8.0693Y-2.8543
X5.4815Y-4.424
X7.9693Y-2.8543
X8.1693Y-2.8543
T7
X5.7626Y-6.085
X5.8626Y-6.085
X6.1846Y-6.085
X6.2846Y-6.085
X8.9094Y-2.8937
X9.0094Y-2.8937
X9.1094Y-2.8937
X9.2094Y-2.8937
T8
X5.7136Y-5.8051
X6.3337Y-5.8051
T9
X6.513Y-5.7094
X6.513Y-5.9331
X7.0303Y-5.7094
X7.0303Y-5.9331
T2
G00X7.2667Y-6.1209
M15
G01X7.2667Y-6.1051
M16
G05
G00X7.4577Y-6.1209
M15
G01X7.4577Y-6.1051
M16
G05
T3
G00X7.2549Y-6.2421
M15
G01X7.2549Y-6.2224
M16
G05
G00X7.4695Y-6.2421
M15
G01X7.4695Y-6.2224
M16
G05
T4
G00X9.1004Y-5.815
M15
G01X9.187Y-5.815
M16
G05
G00X9.1004Y-6.0433
M15
G01X9.187Y-6.0433
M16
G05
G00X9.3327Y-5.9764
M15
G01X9.3327Y-5.8898
M16
G05
T5
G00X4.7146Y-5.8878
M15
G01X4.7146Y-5.9587
M16
G05
G00X4.7146Y-6.1421
M15
G01X4.7146Y-6.1736
M16
G05
G00X5.2854Y-5.8878
M15
G01X5.2854Y-5.9587
M16
G05
G00X5.2854Y-6.1421
M15
G01X5.2854Y-6.1736
M16
G05
G00X3.7303Y-5.8878
M15
G01X3.7303Y-5.9587
M16
G05
G00X3.7303Y-6.1421
M15
G01X3.7303Y-6.1736
M16
G05
G00X4.3012Y-5.8878
M15
G01X4.3012Y-5.9587
M16
G05
G00X4.3012Y-6.1421
M15
G01X4.3012Y-6.1736
M16
G05
T0
M30
