%TF.GenerationSoftware,KiCad,Pcbnew,5.99.0-unknown-b1adb93c1~106~ubuntu20.04.1*%
%TF.CreationDate,2020-12-18T19:28:58-06:00*%
%TF.ProjectId,FlatAntPanel4x4,466c6174-416e-4745-9061-6e656c347834,rev?*%
%TF.SameCoordinates,Original*%
%TF.FileFunction,Copper,L4,Bot*%
%TF.FilePolarity,Positive*%
%FSLAX46Y46*%
G04 Gerber Fmt 4.6, Leading zero omitted, Abs format (unit mm)*
G04 Created by KiCad (PCBNEW 5.99.0-unknown-b1adb93c1~106~ubuntu20.04.1) date 2020-12-18 19:28:58*
%MOMM*%
%LPD*%
G01*
G04 APERTURE LIST*
G04 Aperture macros list*
%AMRotRect*
0 Rectangle, with rotation*
0 The origin of the aperture is its center*
0 $1 length*
0 $2 width*
0 $3 Rotation angle, in degrees counterclockwise*
0 Add horizontal line*
21,1,$1,$2,0,0,$3*%
G04 Aperture macros list end*
%TA.AperFunction,EtchedComponent*%
%ADD10C,0.000100*%
%TD*%
%TA.AperFunction,ConnectorPad*%
%ADD11R,0.308000X0.282000*%
%TD*%
%TA.AperFunction,ConnectorPad*%
%ADD12R,0.282000X0.308000*%
%TD*%
%TA.AperFunction,SMDPad,CuDef*%
%ADD13RotRect,0.363000X0.180000X135.000000*%
%TD*%
%TA.AperFunction,WasherPad*%
%ADD14C,1.565000*%
%TD*%
%TA.AperFunction,SMDPad,CuDef*%
%ADD15RotRect,0.363000X0.180000X225.000000*%
%TD*%
%TA.AperFunction,SMDPad,CuDef*%
%ADD16R,0.180000X0.363000*%
%TD*%
%TA.AperFunction,SMDPad,CuDef*%
%ADD17R,0.363000X0.180000*%
%TD*%
%TA.AperFunction,ConnectorPad*%
%ADD18C,5.000000*%
%TD*%
%TA.AperFunction,ComponentPad*%
%ADD19C,2.900000*%
%TD*%
%TA.AperFunction,ViaPad*%
%ADD20C,0.800100*%
%TD*%
%TA.AperFunction,Conductor*%
%ADD21C,0.308200*%
%TD*%
G04 APERTURE END LIST*
D10*
%TO.C,REF\u002A\u002A*%
X59160705Y-31256000D02*
X59160705Y-30464000D01*
X59160705Y-30464000D02*
X53966000Y-30464000D01*
X53966000Y-30464000D02*
X53174000Y-31256000D01*
X53174000Y-31256000D02*
X53636000Y-31256000D01*
X53636000Y-31256000D02*
X59160705Y-31256000D01*
G36*
X59160705Y-31256000D02*
G01*
X53174000Y-31256000D01*
X53966000Y-30464000D01*
X59160705Y-30464000D01*
X59160705Y-31256000D01*
G37*
X59160705Y-31256000D02*
X53174000Y-31256000D01*
X53966000Y-30464000D01*
X59160705Y-30464000D01*
X59160705Y-31256000D01*
X52844000Y-31586000D02*
X52844000Y-33255727D01*
X52844000Y-33255727D02*
X53636000Y-33255727D01*
X53636000Y-33255727D02*
X53636000Y-31256000D01*
X53636000Y-31256000D02*
X53174000Y-31256000D01*
X53174000Y-31256000D02*
X52844000Y-31586000D01*
G36*
X53636000Y-33255727D02*
G01*
X52844000Y-33255727D01*
X52844000Y-31586000D01*
X53174000Y-31256000D01*
X53636000Y-31256000D01*
X53636000Y-33255727D01*
G37*
X53636000Y-33255727D02*
X52844000Y-33255727D01*
X52844000Y-31586000D01*
X53174000Y-31256000D01*
X53636000Y-31256000D01*
X53636000Y-33255727D01*
%TO.C,AA5*%
X65820000Y-60506000D02*
X65537835Y-60506000D01*
X65537835Y-60506000D02*
X65537835Y-60814000D01*
X65537835Y-60814000D02*
X65846000Y-60814116D01*
X65846000Y-60814116D02*
X65846000Y-61122495D01*
X65846000Y-61122495D02*
X66154000Y-61122000D01*
X66154000Y-61122000D02*
X66154000Y-60840000D01*
X66154000Y-60840000D02*
X65820000Y-60506000D01*
G36*
X66154000Y-60840000D02*
G01*
X66154000Y-61122000D01*
X65846000Y-61122495D01*
X65846000Y-60814116D01*
X65537835Y-60814000D01*
X65537835Y-60506000D01*
X65820000Y-60506000D01*
X66154000Y-60840000D01*
G37*
X66154000Y-60840000D02*
X66154000Y-61122000D01*
X65846000Y-61122495D01*
X65846000Y-60814116D01*
X65537835Y-60814000D01*
X65537835Y-60506000D01*
X65820000Y-60506000D01*
X66154000Y-60840000D01*
%TO.C,REF\u002A\u002A*%
X75389000Y-65869295D02*
X76181000Y-65869295D01*
X76181000Y-65869295D02*
X76181000Y-71064000D01*
X76181000Y-71064000D02*
X75389000Y-71856000D01*
X75389000Y-71856000D02*
X75389000Y-71394000D01*
X75389000Y-71394000D02*
X75389000Y-65869295D01*
G36*
X76181000Y-71064000D02*
G01*
X75389000Y-71856000D01*
X75389000Y-65869295D01*
X76181000Y-65869295D01*
X76181000Y-71064000D01*
G37*
X76181000Y-71064000D02*
X75389000Y-71856000D01*
X75389000Y-65869295D01*
X76181000Y-65869295D01*
X76181000Y-71064000D01*
X75059000Y-72186000D02*
X73389273Y-72186000D01*
X73389273Y-72186000D02*
X73389273Y-71394000D01*
X73389273Y-71394000D02*
X75389000Y-71394000D01*
X75389000Y-71394000D02*
X75389000Y-71856000D01*
X75389000Y-71856000D02*
X75059000Y-72186000D01*
G36*
X75389000Y-71856000D02*
G01*
X75059000Y-72186000D01*
X73389273Y-72186000D01*
X73389273Y-71394000D01*
X75389000Y-71394000D01*
X75389000Y-71856000D01*
G37*
X75389000Y-71856000D02*
X75059000Y-72186000D01*
X73389273Y-72186000D01*
X73389273Y-71394000D01*
X75389000Y-71394000D01*
X75389000Y-71856000D01*
%TO.C,AE7*%
X57894349Y-16548264D02*
X58151736Y-16805651D01*
X58151736Y-16805651D02*
X65223178Y-9734208D01*
X65223178Y-9734208D02*
X64965792Y-9476822D01*
X64965792Y-9476822D02*
X57894349Y-16548264D01*
G36*
X65223178Y-9734208D02*
G01*
X58151736Y-16805651D01*
X57894349Y-16548264D01*
X64965792Y-9476822D01*
X65223178Y-9734208D01*
G37*
X65223178Y-9734208D02*
X58151736Y-16805651D01*
X57894349Y-16548264D01*
X64965792Y-9476822D01*
X65223178Y-9734208D01*
X58598707Y-17252463D02*
X57447537Y-16101293D01*
X57447537Y-16101293D02*
X60063832Y-13484998D01*
X60063832Y-13484998D02*
X54303741Y-7724906D01*
X54303741Y-7724906D02*
X45464906Y-16563741D01*
X45464906Y-16563741D02*
X58136259Y-29235094D01*
X58136259Y-29235094D02*
X66975094Y-20396259D01*
X66975094Y-20396259D02*
X61215002Y-14636168D01*
X61215002Y-14636168D02*
X58598707Y-17252463D01*
G36*
X60063832Y-13484998D02*
G01*
X57447537Y-16101293D01*
X58598707Y-17252463D01*
X61215002Y-14636168D01*
X66975094Y-20396259D01*
X58136259Y-29235094D01*
X45464906Y-16563741D01*
X54303741Y-7724906D01*
X60063832Y-13484998D01*
G37*
X60063832Y-13484998D02*
X57447537Y-16101293D01*
X58598707Y-17252463D01*
X61215002Y-14636168D01*
X66975094Y-20396259D01*
X58136259Y-29235094D01*
X45464906Y-16563741D01*
X54303741Y-7724906D01*
X60063832Y-13484998D01*
%TO.C,AE5*%
X57894349Y-43808264D02*
X58151736Y-44065651D01*
X58151736Y-44065651D02*
X65223178Y-36994208D01*
X65223178Y-36994208D02*
X64965792Y-36736822D01*
X64965792Y-36736822D02*
X57894349Y-43808264D01*
G36*
X65223178Y-36994208D02*
G01*
X58151736Y-44065651D01*
X57894349Y-43808264D01*
X64965792Y-36736822D01*
X65223178Y-36994208D01*
G37*
X65223178Y-36994208D02*
X58151736Y-44065651D01*
X57894349Y-43808264D01*
X64965792Y-36736822D01*
X65223178Y-36994208D01*
X58598707Y-44512463D02*
X57447537Y-43361293D01*
X57447537Y-43361293D02*
X60063832Y-40744998D01*
X60063832Y-40744998D02*
X54303741Y-34984906D01*
X54303741Y-34984906D02*
X45464906Y-43823741D01*
X45464906Y-43823741D02*
X58136259Y-56495094D01*
X58136259Y-56495094D02*
X66975094Y-47656259D01*
X66975094Y-47656259D02*
X61215002Y-41896168D01*
X61215002Y-41896168D02*
X58598707Y-44512463D01*
G36*
X60063832Y-40744998D02*
G01*
X57447537Y-43361293D01*
X58598707Y-44512463D01*
X61215002Y-41896168D01*
X66975094Y-47656259D01*
X58136259Y-56495094D01*
X45464906Y-43823741D01*
X54303741Y-34984906D01*
X60063832Y-40744998D01*
G37*
X60063832Y-40744998D02*
X57447537Y-43361293D01*
X58598707Y-44512463D01*
X61215002Y-41896168D01*
X66975094Y-47656259D01*
X58136259Y-56495094D01*
X45464906Y-43823741D01*
X54303741Y-34984906D01*
X60063832Y-40744998D01*
%TO.C,AE4*%
X30634349Y-43808264D02*
X30891736Y-44065651D01*
X30891736Y-44065651D02*
X37963178Y-36994208D01*
X37963178Y-36994208D02*
X37705792Y-36736822D01*
X37705792Y-36736822D02*
X30634349Y-43808264D01*
G36*
X37963178Y-36994208D02*
G01*
X30891736Y-44065651D01*
X30634349Y-43808264D01*
X37705792Y-36736822D01*
X37963178Y-36994208D01*
G37*
X37963178Y-36994208D02*
X30891736Y-44065651D01*
X30634349Y-43808264D01*
X37705792Y-36736822D01*
X37963178Y-36994208D01*
X31338707Y-44512463D02*
X30187537Y-43361293D01*
X30187537Y-43361293D02*
X32803832Y-40744998D01*
X32803832Y-40744998D02*
X27043741Y-34984906D01*
X27043741Y-34984906D02*
X18204906Y-43823741D01*
X18204906Y-43823741D02*
X30876259Y-56495094D01*
X30876259Y-56495094D02*
X39715094Y-47656259D01*
X39715094Y-47656259D02*
X33955002Y-41896168D01*
X33955002Y-41896168D02*
X31338707Y-44512463D01*
G36*
X32803832Y-40744998D02*
G01*
X30187537Y-43361293D01*
X31338707Y-44512463D01*
X33955002Y-41896168D01*
X39715094Y-47656259D01*
X30876259Y-56495094D01*
X18204906Y-43823741D01*
X27043741Y-34984906D01*
X32803832Y-40744998D01*
G37*
X32803832Y-40744998D02*
X30187537Y-43361293D01*
X31338707Y-44512463D01*
X33955002Y-41896168D01*
X39715094Y-47656259D01*
X30876259Y-56495094D01*
X18204906Y-43823741D01*
X27043741Y-34984906D01*
X32803832Y-40744998D01*
%TO.C,AE1*%
X57894349Y-98328264D02*
X58151736Y-98585651D01*
X58151736Y-98585651D02*
X65223178Y-91514208D01*
X65223178Y-91514208D02*
X64965792Y-91256822D01*
X64965792Y-91256822D02*
X57894349Y-98328264D01*
G36*
X65223178Y-91514208D02*
G01*
X58151736Y-98585651D01*
X57894349Y-98328264D01*
X64965792Y-91256822D01*
X65223178Y-91514208D01*
G37*
X65223178Y-91514208D02*
X58151736Y-98585651D01*
X57894349Y-98328264D01*
X64965792Y-91256822D01*
X65223178Y-91514208D01*
X58598707Y-99032463D02*
X57447537Y-97881293D01*
X57447537Y-97881293D02*
X60063832Y-95264998D01*
X60063832Y-95264998D02*
X54303741Y-89504906D01*
X54303741Y-89504906D02*
X45464906Y-98343741D01*
X45464906Y-98343741D02*
X58136259Y-111015094D01*
X58136259Y-111015094D02*
X66975094Y-102176259D01*
X66975094Y-102176259D02*
X61215002Y-96416168D01*
X61215002Y-96416168D02*
X58598707Y-99032463D01*
G36*
X60063832Y-95264998D02*
G01*
X57447537Y-97881293D01*
X58598707Y-99032463D01*
X61215002Y-96416168D01*
X66975094Y-102176259D01*
X58136259Y-111015094D01*
X45464906Y-98343741D01*
X54303741Y-89504906D01*
X60063832Y-95264998D01*
G37*
X60063832Y-95264998D02*
X57447537Y-97881293D01*
X58598707Y-99032463D01*
X61215002Y-96416168D01*
X66975094Y-102176259D01*
X58136259Y-111015094D01*
X45464906Y-98343741D01*
X54303741Y-89504906D01*
X60063832Y-95264998D01*
%TO.C,AE3*%
X30634349Y-71068264D02*
X30891736Y-71325651D01*
X30891736Y-71325651D02*
X37963178Y-64254208D01*
X37963178Y-64254208D02*
X37705792Y-63996822D01*
X37705792Y-63996822D02*
X30634349Y-71068264D01*
G36*
X37963178Y-64254208D02*
G01*
X30891736Y-71325651D01*
X30634349Y-71068264D01*
X37705792Y-63996822D01*
X37963178Y-64254208D01*
G37*
X37963178Y-64254208D02*
X30891736Y-71325651D01*
X30634349Y-71068264D01*
X37705792Y-63996822D01*
X37963178Y-64254208D01*
X31338707Y-71772463D02*
X30187537Y-70621293D01*
X30187537Y-70621293D02*
X32803832Y-68004998D01*
X32803832Y-68004998D02*
X27043741Y-62244906D01*
X27043741Y-62244906D02*
X18204906Y-71083741D01*
X18204906Y-71083741D02*
X30876259Y-83755094D01*
X30876259Y-83755094D02*
X39715094Y-74916259D01*
X39715094Y-74916259D02*
X33955002Y-69156168D01*
X33955002Y-69156168D02*
X31338707Y-71772463D01*
G36*
X32803832Y-68004998D02*
G01*
X30187537Y-70621293D01*
X31338707Y-71772463D01*
X33955002Y-69156168D01*
X39715094Y-74916259D01*
X30876259Y-83755094D01*
X18204906Y-71083741D01*
X27043741Y-62244906D01*
X32803832Y-68004998D01*
G37*
X32803832Y-68004998D02*
X30187537Y-70621293D01*
X31338707Y-71772463D01*
X33955002Y-69156168D01*
X39715094Y-74916259D01*
X30876259Y-83755094D01*
X18204906Y-71083741D01*
X27043741Y-62244906D01*
X32803832Y-68004998D01*
%TO.C,REF\u002A\u002A*%
X75389000Y-23190705D02*
X76181000Y-23190705D01*
X76181000Y-23190705D02*
X76181000Y-17996000D01*
X76181000Y-17996000D02*
X75389000Y-17204000D01*
X75389000Y-17204000D02*
X75389000Y-17666000D01*
X75389000Y-17666000D02*
X75389000Y-23190705D01*
G36*
X76181000Y-17996000D02*
G01*
X76181000Y-23190705D01*
X75389000Y-23190705D01*
X75389000Y-17204000D01*
X76181000Y-17996000D01*
G37*
X76181000Y-17996000D02*
X76181000Y-23190705D01*
X75389000Y-23190705D01*
X75389000Y-17204000D01*
X76181000Y-17996000D01*
X75059000Y-16874000D02*
X73389273Y-16874000D01*
X73389273Y-16874000D02*
X73389273Y-17666000D01*
X73389273Y-17666000D02*
X75389000Y-17666000D01*
X75389000Y-17666000D02*
X75389000Y-17204000D01*
X75389000Y-17204000D02*
X75059000Y-16874000D01*
G36*
X75389000Y-17204000D02*
G01*
X75389000Y-17666000D01*
X73389273Y-17666000D01*
X73389273Y-16874000D01*
X75059000Y-16874000D01*
X75389000Y-17204000D01*
G37*
X75389000Y-17204000D02*
X75389000Y-17666000D01*
X73389273Y-17666000D01*
X73389273Y-16874000D01*
X75059000Y-16874000D01*
X75389000Y-17204000D01*
%TO.C,AE6*%
X57894349Y-71068264D02*
X58151736Y-71325651D01*
X58151736Y-71325651D02*
X65223178Y-64254208D01*
X65223178Y-64254208D02*
X64965792Y-63996822D01*
X64965792Y-63996822D02*
X57894349Y-71068264D01*
G36*
X65223178Y-64254208D02*
G01*
X58151736Y-71325651D01*
X57894349Y-71068264D01*
X64965792Y-63996822D01*
X65223178Y-64254208D01*
G37*
X65223178Y-64254208D02*
X58151736Y-71325651D01*
X57894349Y-71068264D01*
X64965792Y-63996822D01*
X65223178Y-64254208D01*
X58598707Y-71772463D02*
X57447537Y-70621293D01*
X57447537Y-70621293D02*
X60063832Y-68004998D01*
X60063832Y-68004998D02*
X54303741Y-62244906D01*
X54303741Y-62244906D02*
X45464906Y-71083741D01*
X45464906Y-71083741D02*
X58136259Y-83755094D01*
X58136259Y-83755094D02*
X66975094Y-74916259D01*
X66975094Y-74916259D02*
X61215002Y-69156168D01*
X61215002Y-69156168D02*
X58598707Y-71772463D01*
G36*
X60063832Y-68004998D02*
G01*
X57447537Y-70621293D01*
X58598707Y-71772463D01*
X61215002Y-69156168D01*
X66975094Y-74916259D01*
X58136259Y-83755094D01*
X45464906Y-71083741D01*
X54303741Y-62244906D01*
X60063832Y-68004998D01*
G37*
X60063832Y-68004998D02*
X57447537Y-70621293D01*
X58598707Y-71772463D01*
X61215002Y-69156168D01*
X66975094Y-74916259D01*
X58136259Y-83755094D01*
X45464906Y-71083741D01*
X54303741Y-62244906D01*
X60063832Y-68004998D01*
%TO.C,AE8*%
X30634349Y-98328264D02*
X30891736Y-98585651D01*
X30891736Y-98585651D02*
X37963178Y-91514208D01*
X37963178Y-91514208D02*
X37705792Y-91256822D01*
X37705792Y-91256822D02*
X30634349Y-98328264D01*
G36*
X37963178Y-91514208D02*
G01*
X30891736Y-98585651D01*
X30634349Y-98328264D01*
X37705792Y-91256822D01*
X37963178Y-91514208D01*
G37*
X37963178Y-91514208D02*
X30891736Y-98585651D01*
X30634349Y-98328264D01*
X37705792Y-91256822D01*
X37963178Y-91514208D01*
X31338707Y-99032463D02*
X30187537Y-97881293D01*
X30187537Y-97881293D02*
X32803832Y-95264998D01*
X32803832Y-95264998D02*
X27043741Y-89504906D01*
X27043741Y-89504906D02*
X18204906Y-98343741D01*
X18204906Y-98343741D02*
X30876259Y-111015094D01*
X30876259Y-111015094D02*
X39715094Y-102176259D01*
X39715094Y-102176259D02*
X33955002Y-96416168D01*
X33955002Y-96416168D02*
X31338707Y-99032463D01*
G36*
X32803832Y-95264998D02*
G01*
X30187537Y-97881293D01*
X31338707Y-99032463D01*
X33955002Y-96416168D01*
X39715094Y-102176259D01*
X30876259Y-111015094D01*
X18204906Y-98343741D01*
X27043741Y-89504906D01*
X32803832Y-95264998D01*
G37*
X32803832Y-95264998D02*
X30187537Y-97881293D01*
X31338707Y-99032463D01*
X33955002Y-96416168D01*
X39715094Y-102176259D01*
X30876259Y-111015094D01*
X18204906Y-98343741D01*
X27043741Y-89504906D01*
X32803832Y-95264998D01*
%TO.C,REF\u002A\u002A*%
X52844000Y-86106000D02*
X52844000Y-87775727D01*
X52844000Y-87775727D02*
X53636000Y-87775727D01*
X53636000Y-87775727D02*
X53636000Y-85776000D01*
X53636000Y-85776000D02*
X53174000Y-85776000D01*
X53174000Y-85776000D02*
X52844000Y-86106000D01*
G36*
X53636000Y-87775727D02*
G01*
X52844000Y-87775727D01*
X52844000Y-86106000D01*
X53174000Y-85776000D01*
X53636000Y-85776000D01*
X53636000Y-87775727D01*
G37*
X53636000Y-87775727D02*
X52844000Y-87775727D01*
X52844000Y-86106000D01*
X53174000Y-85776000D01*
X53636000Y-85776000D01*
X53636000Y-87775727D01*
X59160705Y-85776000D02*
X59160705Y-84984000D01*
X59160705Y-84984000D02*
X53966000Y-84984000D01*
X53966000Y-84984000D02*
X53174000Y-85776000D01*
X53174000Y-85776000D02*
X53636000Y-85776000D01*
X53636000Y-85776000D02*
X59160705Y-85776000D01*
G36*
X59160705Y-85776000D02*
G01*
X53174000Y-85776000D01*
X53966000Y-84984000D01*
X59160705Y-84984000D01*
X59160705Y-85776000D01*
G37*
X59160705Y-85776000D02*
X53174000Y-85776000D01*
X53966000Y-84984000D01*
X59160705Y-84984000D01*
X59160705Y-85776000D01*
%TO.C,AA5*%
X73394000Y-85240000D02*
X73394000Y-84957835D01*
X73394000Y-84957835D02*
X73086000Y-84957835D01*
X73086000Y-84957835D02*
X73085884Y-85266000D01*
X73085884Y-85266000D02*
X72777505Y-85266000D01*
X72777505Y-85266000D02*
X72778000Y-85574000D01*
X72778000Y-85574000D02*
X73060000Y-85574000D01*
X73060000Y-85574000D02*
X73394000Y-85240000D01*
G36*
X73394000Y-85240000D02*
G01*
X73060000Y-85574000D01*
X72778000Y-85574000D01*
X72777505Y-85266000D01*
X73085884Y-85266000D01*
X73086000Y-84957835D01*
X73394000Y-84957835D01*
X73394000Y-85240000D01*
G37*
X73394000Y-85240000D02*
X73060000Y-85574000D01*
X72778000Y-85574000D01*
X72777505Y-85266000D01*
X73085884Y-85266000D01*
X73086000Y-84957835D01*
X73394000Y-84957835D01*
X73394000Y-85240000D01*
X38586000Y-88100000D02*
X38586000Y-88382165D01*
X38586000Y-88382165D02*
X38894000Y-88382165D01*
X38894000Y-88382165D02*
X38894116Y-88074000D01*
X38894116Y-88074000D02*
X39202495Y-88074000D01*
X39202495Y-88074000D02*
X39202000Y-87766000D01*
X39202000Y-87766000D02*
X38920000Y-87766000D01*
X38920000Y-87766000D02*
X38586000Y-88100000D01*
G36*
X39202495Y-88074000D02*
G01*
X38894116Y-88074000D01*
X38894000Y-88382165D01*
X38586000Y-88382165D01*
X38586000Y-88100000D01*
X38920000Y-87766000D01*
X39202000Y-87766000D01*
X39202495Y-88074000D01*
G37*
X39202495Y-88074000D02*
X38894116Y-88074000D01*
X38894000Y-88382165D01*
X38586000Y-88382165D01*
X38586000Y-88100000D01*
X38920000Y-87766000D01*
X39202000Y-87766000D01*
X39202495Y-88074000D01*
X65820000Y-5986000D02*
X65537835Y-5986000D01*
X65537835Y-5986000D02*
X65537835Y-6294000D01*
X65537835Y-6294000D02*
X65846000Y-6294116D01*
X65846000Y-6294116D02*
X65846000Y-6602495D01*
X65846000Y-6602495D02*
X66154000Y-6602000D01*
X66154000Y-6602000D02*
X66154000Y-6320000D01*
X66154000Y-6320000D02*
X65820000Y-5986000D01*
G36*
X66154000Y-6320000D02*
G01*
X66154000Y-6602000D01*
X65846000Y-6602495D01*
X65846000Y-6294116D01*
X65537835Y-6294000D01*
X65537835Y-5986000D01*
X65820000Y-5986000D01*
X66154000Y-6320000D01*
G37*
X66154000Y-6320000D02*
X66154000Y-6602000D01*
X65846000Y-6602495D01*
X65846000Y-6294116D01*
X65537835Y-6294000D01*
X65537835Y-5986000D01*
X65820000Y-5986000D01*
X66154000Y-6320000D01*
X73060000Y-58006000D02*
X72777835Y-58006000D01*
X72777835Y-58006000D02*
X72777835Y-58314000D01*
X72777835Y-58314000D02*
X73086000Y-58314116D01*
X73086000Y-58314116D02*
X73086000Y-58622495D01*
X73086000Y-58622495D02*
X73394000Y-58622000D01*
X73394000Y-58622000D02*
X73394000Y-58340000D01*
X73394000Y-58340000D02*
X73060000Y-58006000D01*
G36*
X73394000Y-58340000D02*
G01*
X73394000Y-58622000D01*
X73086000Y-58622495D01*
X73086000Y-58314116D01*
X72777835Y-58314000D01*
X72777835Y-58006000D01*
X73060000Y-58006000D01*
X73394000Y-58340000D01*
G37*
X73394000Y-58340000D02*
X73394000Y-58622000D01*
X73086000Y-58622495D01*
X73086000Y-58314116D01*
X72777835Y-58314000D01*
X72777835Y-58006000D01*
X73060000Y-58006000D01*
X73394000Y-58340000D01*
%TO.C,REF\u002A\u002A*%
X52844000Y-4326000D02*
X52844000Y-5995727D01*
X52844000Y-5995727D02*
X53636000Y-5995727D01*
X53636000Y-5995727D02*
X53636000Y-3996000D01*
X53636000Y-3996000D02*
X53174000Y-3996000D01*
X53174000Y-3996000D02*
X52844000Y-4326000D01*
G36*
X53636000Y-5995727D02*
G01*
X52844000Y-5995727D01*
X52844000Y-4326000D01*
X53174000Y-3996000D01*
X53636000Y-3996000D01*
X53636000Y-5995727D01*
G37*
X53636000Y-5995727D02*
X52844000Y-5995727D01*
X52844000Y-4326000D01*
X53174000Y-3996000D01*
X53636000Y-3996000D01*
X53636000Y-5995727D01*
X59160705Y-3996000D02*
X59160705Y-3204000D01*
X59160705Y-3204000D02*
X53966000Y-3204000D01*
X53966000Y-3204000D02*
X53174000Y-3996000D01*
X53174000Y-3996000D02*
X53636000Y-3996000D01*
X53636000Y-3996000D02*
X59160705Y-3996000D01*
G36*
X59160705Y-3996000D02*
G01*
X53174000Y-3996000D01*
X53966000Y-3204000D01*
X59160705Y-3204000D01*
X59160705Y-3996000D01*
G37*
X59160705Y-3996000D02*
X53174000Y-3996000D01*
X53966000Y-3204000D01*
X59160705Y-3204000D01*
X59160705Y-3996000D01*
%TO.C,AA5*%
X73394000Y-30720000D02*
X73394000Y-30437835D01*
X73394000Y-30437835D02*
X73086000Y-30437835D01*
X73086000Y-30437835D02*
X73085884Y-30746000D01*
X73085884Y-30746000D02*
X72777505Y-30746000D01*
X72777505Y-30746000D02*
X72778000Y-31054000D01*
X72778000Y-31054000D02*
X73060000Y-31054000D01*
X73060000Y-31054000D02*
X73394000Y-30720000D01*
G36*
X73394000Y-30720000D02*
G01*
X73060000Y-31054000D01*
X72778000Y-31054000D01*
X72777505Y-30746000D01*
X73085884Y-30746000D01*
X73086000Y-30437835D01*
X73394000Y-30437835D01*
X73394000Y-30720000D01*
G37*
X73394000Y-30720000D02*
X73060000Y-31054000D01*
X72778000Y-31054000D01*
X72777505Y-30746000D01*
X73085884Y-30746000D01*
X73086000Y-30437835D01*
X73394000Y-30437835D01*
X73394000Y-30720000D01*
X38586000Y-33580000D02*
X38586000Y-33862165D01*
X38586000Y-33862165D02*
X38894000Y-33862165D01*
X38894000Y-33862165D02*
X38894116Y-33554000D01*
X38894116Y-33554000D02*
X39202495Y-33554000D01*
X39202495Y-33554000D02*
X39202000Y-33246000D01*
X39202000Y-33246000D02*
X38920000Y-33246000D01*
X38920000Y-33246000D02*
X38586000Y-33580000D01*
G36*
X39202495Y-33554000D02*
G01*
X38894116Y-33554000D01*
X38894000Y-33862165D01*
X38586000Y-33862165D01*
X38586000Y-33580000D01*
X38920000Y-33246000D01*
X39202000Y-33246000D01*
X39202495Y-33554000D01*
G37*
X39202495Y-33554000D02*
X38894116Y-33554000D01*
X38894000Y-33862165D01*
X38586000Y-33862165D01*
X38586000Y-33580000D01*
X38920000Y-33246000D01*
X39202000Y-33246000D01*
X39202495Y-33554000D01*
X73060000Y-3486000D02*
X72777835Y-3486000D01*
X72777835Y-3486000D02*
X72777835Y-3794000D01*
X72777835Y-3794000D02*
X73086000Y-3794116D01*
X73086000Y-3794116D02*
X73086000Y-4102495D01*
X73086000Y-4102495D02*
X73394000Y-4102000D01*
X73394000Y-4102000D02*
X73394000Y-3820000D01*
X73394000Y-3820000D02*
X73060000Y-3486000D01*
G36*
X73394000Y-3820000D02*
G01*
X73394000Y-4102000D01*
X73086000Y-4102495D01*
X73086000Y-3794116D01*
X72777835Y-3794000D01*
X72777835Y-3486000D01*
X73060000Y-3486000D01*
X73394000Y-3820000D01*
G37*
X73394000Y-3820000D02*
X73394000Y-4102000D01*
X73086000Y-4102495D01*
X73086000Y-3794116D01*
X72777835Y-3794000D01*
X72777835Y-3486000D01*
X73060000Y-3486000D01*
X73394000Y-3820000D01*
X65820000Y-87766000D02*
X65537835Y-87766000D01*
X65537835Y-87766000D02*
X65537835Y-88074000D01*
X65537835Y-88074000D02*
X65846000Y-88074116D01*
X65846000Y-88074116D02*
X65846000Y-88382495D01*
X65846000Y-88382495D02*
X66154000Y-88382000D01*
X66154000Y-88382000D02*
X66154000Y-88100000D01*
X66154000Y-88100000D02*
X65820000Y-87766000D01*
G36*
X66154000Y-88100000D02*
G01*
X66154000Y-88382000D01*
X65846000Y-88382495D01*
X65846000Y-88074116D01*
X65537835Y-88074000D01*
X65537835Y-87766000D01*
X65820000Y-87766000D01*
X66154000Y-88100000D01*
G37*
X66154000Y-88100000D02*
X66154000Y-88382000D01*
X65846000Y-88382495D01*
X65846000Y-88074116D01*
X65537835Y-88074000D01*
X65537835Y-87766000D01*
X65820000Y-87766000D01*
X66154000Y-88100000D01*
X65820000Y-33246000D02*
X65537835Y-33246000D01*
X65537835Y-33246000D02*
X65537835Y-33554000D01*
X65537835Y-33554000D02*
X65846000Y-33554116D01*
X65846000Y-33554116D02*
X65846000Y-33862495D01*
X65846000Y-33862495D02*
X66154000Y-33862000D01*
X66154000Y-33862000D02*
X66154000Y-33580000D01*
X66154000Y-33580000D02*
X65820000Y-33246000D01*
G36*
X66154000Y-33580000D02*
G01*
X66154000Y-33862000D01*
X65846000Y-33862495D01*
X65846000Y-33554116D01*
X65537835Y-33554000D01*
X65537835Y-33246000D01*
X65820000Y-33246000D01*
X66154000Y-33580000D01*
G37*
X66154000Y-33580000D02*
X66154000Y-33862000D01*
X65846000Y-33862495D01*
X65846000Y-33554116D01*
X65537835Y-33554000D01*
X65537835Y-33246000D01*
X65820000Y-33246000D01*
X66154000Y-33580000D01*
X38586000Y-60840000D02*
X38586000Y-61122165D01*
X38586000Y-61122165D02*
X38894000Y-61122165D01*
X38894000Y-61122165D02*
X38894116Y-60814000D01*
X38894116Y-60814000D02*
X39202495Y-60814000D01*
X39202495Y-60814000D02*
X39202000Y-60506000D01*
X39202000Y-60506000D02*
X38920000Y-60506000D01*
X38920000Y-60506000D02*
X38586000Y-60840000D01*
G36*
X39202495Y-60814000D02*
G01*
X38894116Y-60814000D01*
X38894000Y-61122165D01*
X38586000Y-61122165D01*
X38586000Y-60840000D01*
X38920000Y-60506000D01*
X39202000Y-60506000D01*
X39202495Y-60814000D01*
G37*
X39202495Y-60814000D02*
X38894116Y-60814000D01*
X38894000Y-61122165D01*
X38586000Y-61122165D01*
X38586000Y-60840000D01*
X38920000Y-60506000D01*
X39202000Y-60506000D01*
X39202495Y-60814000D01*
%TO.C,REF\u002A\u002A*%
X59160705Y-58516000D02*
X59160705Y-57724000D01*
X59160705Y-57724000D02*
X53966000Y-57724000D01*
X53966000Y-57724000D02*
X53174000Y-58516000D01*
X53174000Y-58516000D02*
X53636000Y-58516000D01*
X53636000Y-58516000D02*
X59160705Y-58516000D01*
G36*
X59160705Y-58516000D02*
G01*
X53174000Y-58516000D01*
X53966000Y-57724000D01*
X59160705Y-57724000D01*
X59160705Y-58516000D01*
G37*
X59160705Y-58516000D02*
X53174000Y-58516000D01*
X53966000Y-57724000D01*
X59160705Y-57724000D01*
X59160705Y-58516000D01*
X52844000Y-58846000D02*
X52844000Y-60515727D01*
X52844000Y-60515727D02*
X53636000Y-60515727D01*
X53636000Y-60515727D02*
X53636000Y-58516000D01*
X53636000Y-58516000D02*
X53174000Y-58516000D01*
X53174000Y-58516000D02*
X52844000Y-58846000D01*
G36*
X53636000Y-60515727D02*
G01*
X52844000Y-60515727D01*
X52844000Y-58846000D01*
X53174000Y-58516000D01*
X53636000Y-58516000D01*
X53636000Y-60515727D01*
G37*
X53636000Y-60515727D02*
X52844000Y-60515727D01*
X52844000Y-58846000D01*
X53174000Y-58516000D01*
X53636000Y-58516000D01*
X53636000Y-60515727D01*
%TO.C,AA5*%
X38586000Y-6320000D02*
X38586000Y-6602165D01*
X38586000Y-6602165D02*
X38894000Y-6602165D01*
X38894000Y-6602165D02*
X38894116Y-6294000D01*
X38894116Y-6294000D02*
X39202495Y-6294000D01*
X39202495Y-6294000D02*
X39202000Y-5986000D01*
X39202000Y-5986000D02*
X38920000Y-5986000D01*
X38920000Y-5986000D02*
X38586000Y-6320000D01*
G36*
X39202495Y-6294000D02*
G01*
X38894116Y-6294000D01*
X38894000Y-6602165D01*
X38586000Y-6602165D01*
X38586000Y-6320000D01*
X38920000Y-5986000D01*
X39202000Y-5986000D01*
X39202495Y-6294000D01*
G37*
X39202495Y-6294000D02*
X38894116Y-6294000D01*
X38894000Y-6602165D01*
X38586000Y-6602165D01*
X38586000Y-6320000D01*
X38920000Y-5986000D01*
X39202000Y-5986000D01*
X39202495Y-6294000D01*
%TO.C,AA10*%
X144154000Y-106112000D02*
X144154000Y-105829835D01*
X144154000Y-105829835D02*
X143846000Y-105829835D01*
X143846000Y-105829835D02*
X143845884Y-106138000D01*
X143845884Y-106138000D02*
X143537505Y-106138000D01*
X143537505Y-106138000D02*
X143538000Y-106446000D01*
X143538000Y-106446000D02*
X143820000Y-106446000D01*
X143820000Y-106446000D02*
X144154000Y-106112000D01*
G36*
X144154000Y-106112000D02*
G01*
X143820000Y-106446000D01*
X143538000Y-106446000D01*
X143537505Y-106138000D01*
X143845884Y-106138000D01*
X143846000Y-105829835D01*
X144154000Y-105829835D01*
X144154000Y-106112000D01*
G37*
X144154000Y-106112000D02*
X143820000Y-106446000D01*
X143538000Y-106446000D01*
X143537505Y-106138000D01*
X143845884Y-106138000D01*
X143846000Y-105829835D01*
X144154000Y-105829835D01*
X144154000Y-106112000D01*
%TO.C,AA15*%
X104800000Y-108994000D02*
X105082165Y-108994000D01*
X105082165Y-108994000D02*
X105082165Y-108686000D01*
X105082165Y-108686000D02*
X104774000Y-108685884D01*
X104774000Y-108685884D02*
X104774000Y-108377505D01*
X104774000Y-108377505D02*
X104466000Y-108378000D01*
X104466000Y-108378000D02*
X104466000Y-108660000D01*
X104466000Y-108660000D02*
X104800000Y-108994000D01*
G36*
X104774000Y-108685884D02*
G01*
X105082165Y-108686000D01*
X105082165Y-108994000D01*
X104800000Y-108994000D01*
X104466000Y-108660000D01*
X104466000Y-108378000D01*
X104774000Y-108377505D01*
X104774000Y-108685884D01*
G37*
X104774000Y-108685884D02*
X105082165Y-108686000D01*
X105082165Y-108994000D01*
X104800000Y-108994000D01*
X104466000Y-108660000D01*
X104466000Y-108378000D01*
X104774000Y-108377505D01*
X104774000Y-108685884D01*
%TO.C,AA11*%
X116920000Y-106446000D02*
X117202165Y-106446000D01*
X117202165Y-106446000D02*
X117202165Y-106138000D01*
X117202165Y-106138000D02*
X116894000Y-106137884D01*
X116894000Y-106137884D02*
X116894000Y-105829505D01*
X116894000Y-105829505D02*
X116586000Y-105830000D01*
X116586000Y-105830000D02*
X116586000Y-106112000D01*
X116586000Y-106112000D02*
X116920000Y-106446000D01*
G36*
X116894000Y-106137884D02*
G01*
X117202165Y-106138000D01*
X117202165Y-106446000D01*
X116920000Y-106446000D01*
X116586000Y-106112000D01*
X116586000Y-105830000D01*
X116894000Y-105829505D01*
X116894000Y-106137884D01*
G37*
X116894000Y-106137884D02*
X117202165Y-106138000D01*
X117202165Y-106446000D01*
X116920000Y-106446000D01*
X116586000Y-106112000D01*
X116586000Y-105830000D01*
X116894000Y-105829505D01*
X116894000Y-106137884D01*
%TO.C,REF\u002A\u002A*%
X130766000Y-108114000D02*
X130766000Y-106444273D01*
X130766000Y-106444273D02*
X129974000Y-106444273D01*
X129974000Y-106444273D02*
X129974000Y-108444000D01*
X129974000Y-108444000D02*
X130436000Y-108444000D01*
X130436000Y-108444000D02*
X130766000Y-108114000D01*
G36*
X130766000Y-108114000D02*
G01*
X130436000Y-108444000D01*
X129974000Y-108444000D01*
X129974000Y-106444273D01*
X130766000Y-106444273D01*
X130766000Y-108114000D01*
G37*
X130766000Y-108114000D02*
X130436000Y-108444000D01*
X129974000Y-108444000D01*
X129974000Y-106444273D01*
X130766000Y-106444273D01*
X130766000Y-108114000D01*
X124449295Y-108444000D02*
X124449295Y-109236000D01*
X124449295Y-109236000D02*
X129644000Y-109236000D01*
X129644000Y-109236000D02*
X130436000Y-108444000D01*
X130436000Y-108444000D02*
X129974000Y-108444000D01*
X129974000Y-108444000D02*
X124449295Y-108444000D01*
G36*
X129644000Y-109236000D02*
G01*
X124449295Y-109236000D01*
X124449295Y-108444000D01*
X130436000Y-108444000D01*
X129644000Y-109236000D01*
G37*
X129644000Y-109236000D02*
X124449295Y-109236000D01*
X124449295Y-108444000D01*
X130436000Y-108444000D01*
X129644000Y-109236000D01*
X124449295Y-81184000D02*
X124449295Y-81976000D01*
X124449295Y-81976000D02*
X129644000Y-81976000D01*
X129644000Y-81976000D02*
X130436000Y-81184000D01*
X130436000Y-81184000D02*
X129974000Y-81184000D01*
X129974000Y-81184000D02*
X124449295Y-81184000D01*
G36*
X129644000Y-81976000D02*
G01*
X124449295Y-81976000D01*
X124449295Y-81184000D01*
X130436000Y-81184000D01*
X129644000Y-81976000D01*
G37*
X129644000Y-81976000D02*
X124449295Y-81976000D01*
X124449295Y-81184000D01*
X130436000Y-81184000D01*
X129644000Y-81976000D01*
X130766000Y-80854000D02*
X130766000Y-79184273D01*
X130766000Y-79184273D02*
X129974000Y-79184273D01*
X129974000Y-79184273D02*
X129974000Y-81184000D01*
X129974000Y-81184000D02*
X130436000Y-81184000D01*
X130436000Y-81184000D02*
X130766000Y-80854000D01*
G36*
X130766000Y-80854000D02*
G01*
X130436000Y-81184000D01*
X129974000Y-81184000D01*
X129974000Y-79184273D01*
X130766000Y-79184273D01*
X130766000Y-80854000D01*
G37*
X130766000Y-80854000D02*
X130436000Y-81184000D01*
X129974000Y-81184000D01*
X129974000Y-79184273D01*
X130766000Y-79184273D01*
X130766000Y-80854000D01*
%TO.C,AA15*%
X104466000Y-81760000D02*
X104466000Y-82042165D01*
X104466000Y-82042165D02*
X104774000Y-82042165D01*
X104774000Y-82042165D02*
X104774116Y-81734000D01*
X104774116Y-81734000D02*
X105082495Y-81734000D01*
X105082495Y-81734000D02*
X105082000Y-81426000D01*
X105082000Y-81426000D02*
X104800000Y-81426000D01*
X104800000Y-81426000D02*
X104466000Y-81760000D01*
G36*
X105082495Y-81734000D02*
G01*
X104774116Y-81734000D01*
X104774000Y-82042165D01*
X104466000Y-82042165D01*
X104466000Y-81760000D01*
X104800000Y-81426000D01*
X105082000Y-81426000D01*
X105082495Y-81734000D01*
G37*
X105082495Y-81734000D02*
X104774116Y-81734000D01*
X104774000Y-82042165D01*
X104466000Y-82042165D01*
X104466000Y-81760000D01*
X104800000Y-81426000D01*
X105082000Y-81426000D01*
X105082495Y-81734000D01*
%TO.C,AA10*%
X144154000Y-78851000D02*
X144154000Y-78568835D01*
X144154000Y-78568835D02*
X143846000Y-78568835D01*
X143846000Y-78568835D02*
X143845884Y-78877000D01*
X143845884Y-78877000D02*
X143537505Y-78877000D01*
X143537505Y-78877000D02*
X143538000Y-79185000D01*
X143538000Y-79185000D02*
X143820000Y-79185000D01*
X143820000Y-79185000D02*
X144154000Y-78851000D01*
G36*
X144154000Y-78851000D02*
G01*
X143820000Y-79185000D01*
X143538000Y-79185000D01*
X143537505Y-78877000D01*
X143845884Y-78877000D01*
X143846000Y-78568835D01*
X144154000Y-78568835D01*
X144154000Y-78851000D01*
G37*
X144154000Y-78851000D02*
X143820000Y-79185000D01*
X143538000Y-79185000D01*
X143537505Y-78877000D01*
X143845884Y-78877000D01*
X143846000Y-78568835D01*
X144154000Y-78568835D01*
X144154000Y-78851000D01*
%TO.C,AA11*%
X116920000Y-79185000D02*
X117202165Y-79185000D01*
X117202165Y-79185000D02*
X117202165Y-78877000D01*
X117202165Y-78877000D02*
X116894000Y-78876884D01*
X116894000Y-78876884D02*
X116894000Y-78568505D01*
X116894000Y-78568505D02*
X116586000Y-78569000D01*
X116586000Y-78569000D02*
X116586000Y-78851000D01*
X116586000Y-78851000D02*
X116920000Y-79185000D01*
G36*
X116894000Y-78876884D02*
G01*
X117202165Y-78877000D01*
X117202165Y-79185000D01*
X116920000Y-79185000D01*
X116586000Y-78851000D01*
X116586000Y-78569000D01*
X116894000Y-78568505D01*
X116894000Y-78876884D01*
G37*
X116894000Y-78876884D02*
X117202165Y-78877000D01*
X117202165Y-79185000D01*
X116920000Y-79185000D01*
X116586000Y-78851000D01*
X116586000Y-78569000D01*
X116894000Y-78568505D01*
X116894000Y-78876884D01*
%TO.C,REF\u002A\u002A*%
X102476000Y-46610705D02*
X101684000Y-46610705D01*
X101684000Y-46610705D02*
X101684000Y-41416000D01*
X101684000Y-41416000D02*
X102476000Y-40624000D01*
X102476000Y-40624000D02*
X102476000Y-41086000D01*
X102476000Y-41086000D02*
X102476000Y-46610705D01*
G36*
X102476000Y-46610705D02*
G01*
X101684000Y-46610705D01*
X101684000Y-41416000D01*
X102476000Y-40624000D01*
X102476000Y-46610705D01*
G37*
X102476000Y-46610705D02*
X101684000Y-46610705D01*
X101684000Y-41416000D01*
X102476000Y-40624000D01*
X102476000Y-46610705D01*
X102806000Y-40294000D02*
X104475727Y-40294000D01*
X104475727Y-40294000D02*
X104475727Y-41086000D01*
X104475727Y-41086000D02*
X102476000Y-41086000D01*
X102476000Y-41086000D02*
X102476000Y-40624000D01*
X102476000Y-40624000D02*
X102806000Y-40294000D01*
G36*
X104475727Y-41086000D02*
G01*
X102476000Y-41086000D01*
X102476000Y-40624000D01*
X102806000Y-40294000D01*
X104475727Y-40294000D01*
X104475727Y-41086000D01*
G37*
X104475727Y-41086000D02*
X102476000Y-41086000D01*
X102476000Y-40624000D01*
X102806000Y-40294000D01*
X104475727Y-40294000D01*
X104475727Y-41086000D01*
X102476000Y-89289295D02*
X101684000Y-89289295D01*
X101684000Y-89289295D02*
X101684000Y-94484000D01*
X101684000Y-94484000D02*
X102476000Y-95276000D01*
X102476000Y-95276000D02*
X102476000Y-94814000D01*
X102476000Y-94814000D02*
X102476000Y-89289295D01*
G36*
X102476000Y-95276000D02*
G01*
X101684000Y-94484000D01*
X101684000Y-89289295D01*
X102476000Y-89289295D01*
X102476000Y-95276000D01*
G37*
X102476000Y-95276000D02*
X101684000Y-94484000D01*
X101684000Y-89289295D01*
X102476000Y-89289295D01*
X102476000Y-95276000D01*
X102806000Y-95606000D02*
X104475727Y-95606000D01*
X104475727Y-95606000D02*
X104475727Y-94814000D01*
X104475727Y-94814000D02*
X102476000Y-94814000D01*
X102476000Y-94814000D02*
X102476000Y-95276000D01*
X102476000Y-95276000D02*
X102806000Y-95606000D01*
G36*
X104475727Y-95606000D02*
G01*
X102806000Y-95606000D01*
X102476000Y-95276000D01*
X102476000Y-94814000D01*
X104475727Y-94814000D01*
X104475727Y-95606000D01*
G37*
X104475727Y-95606000D02*
X102806000Y-95606000D01*
X102476000Y-95276000D01*
X102476000Y-94814000D01*
X104475727Y-94814000D01*
X104475727Y-95606000D01*
X124449295Y-53923000D02*
X124449295Y-54715000D01*
X124449295Y-54715000D02*
X129644000Y-54715000D01*
X129644000Y-54715000D02*
X130436000Y-53923000D01*
X130436000Y-53923000D02*
X129974000Y-53923000D01*
X129974000Y-53923000D02*
X124449295Y-53923000D01*
G36*
X129644000Y-54715000D02*
G01*
X124449295Y-54715000D01*
X124449295Y-53923000D01*
X130436000Y-53923000D01*
X129644000Y-54715000D01*
G37*
X129644000Y-54715000D02*
X124449295Y-54715000D01*
X124449295Y-53923000D01*
X130436000Y-53923000D01*
X129644000Y-54715000D01*
X130766000Y-53593000D02*
X130766000Y-51923273D01*
X130766000Y-51923273D02*
X129974000Y-51923273D01*
X129974000Y-51923273D02*
X129974000Y-53923000D01*
X129974000Y-53923000D02*
X130436000Y-53923000D01*
X130436000Y-53923000D02*
X130766000Y-53593000D01*
G36*
X130766000Y-53593000D02*
G01*
X130436000Y-53923000D01*
X129974000Y-53923000D01*
X129974000Y-51923273D01*
X130766000Y-51923273D01*
X130766000Y-53593000D01*
G37*
X130766000Y-53593000D02*
X130436000Y-53923000D01*
X129974000Y-53923000D01*
X129974000Y-51923273D01*
X130766000Y-51923273D01*
X130766000Y-53593000D01*
%TO.C,AA15*%
X104800000Y-54473000D02*
X105082165Y-54473000D01*
X105082165Y-54473000D02*
X105082165Y-54165000D01*
X105082165Y-54165000D02*
X104774000Y-54164884D01*
X104774000Y-54164884D02*
X104774000Y-53856505D01*
X104774000Y-53856505D02*
X104466000Y-53857000D01*
X104466000Y-53857000D02*
X104466000Y-54139000D01*
X104466000Y-54139000D02*
X104800000Y-54473000D01*
G36*
X104774000Y-54164884D02*
G01*
X105082165Y-54165000D01*
X105082165Y-54473000D01*
X104800000Y-54473000D01*
X104466000Y-54139000D01*
X104466000Y-53857000D01*
X104774000Y-53856505D01*
X104774000Y-54164884D01*
G37*
X104774000Y-54164884D02*
X105082165Y-54165000D01*
X105082165Y-54473000D01*
X104800000Y-54473000D01*
X104466000Y-54139000D01*
X104466000Y-53857000D01*
X104774000Y-53856505D01*
X104774000Y-54164884D01*
%TO.C,AA10*%
X144154000Y-51591000D02*
X144154000Y-51308835D01*
X144154000Y-51308835D02*
X143846000Y-51308835D01*
X143846000Y-51308835D02*
X143845884Y-51617000D01*
X143845884Y-51617000D02*
X143537505Y-51617000D01*
X143537505Y-51617000D02*
X143538000Y-51925000D01*
X143538000Y-51925000D02*
X143820000Y-51925000D01*
X143820000Y-51925000D02*
X144154000Y-51591000D01*
G36*
X144154000Y-51591000D02*
G01*
X143820000Y-51925000D01*
X143538000Y-51925000D01*
X143537505Y-51617000D01*
X143845884Y-51617000D01*
X143846000Y-51308835D01*
X144154000Y-51308835D01*
X144154000Y-51591000D01*
G37*
X144154000Y-51591000D02*
X143820000Y-51925000D01*
X143538000Y-51925000D01*
X143537505Y-51617000D01*
X143845884Y-51617000D01*
X143846000Y-51308835D01*
X144154000Y-51308835D01*
X144154000Y-51591000D01*
%TO.C,AA11*%
X116920000Y-51925000D02*
X117202165Y-51925000D01*
X117202165Y-51925000D02*
X117202165Y-51617000D01*
X117202165Y-51617000D02*
X116894000Y-51616884D01*
X116894000Y-51616884D02*
X116894000Y-51308505D01*
X116894000Y-51308505D02*
X116586000Y-51309000D01*
X116586000Y-51309000D02*
X116586000Y-51591000D01*
X116586000Y-51591000D02*
X116920000Y-51925000D01*
G36*
X116894000Y-51616884D02*
G01*
X117202165Y-51617000D01*
X117202165Y-51925000D01*
X116920000Y-51925000D01*
X116586000Y-51591000D01*
X116586000Y-51309000D01*
X116894000Y-51308505D01*
X116894000Y-51616884D01*
G37*
X116894000Y-51616884D02*
X117202165Y-51617000D01*
X117202165Y-51925000D01*
X116920000Y-51925000D01*
X116586000Y-51591000D01*
X116586000Y-51309000D01*
X116894000Y-51308505D01*
X116894000Y-51616884D01*
%TO.C,REF\u002A\u002A*%
X130766000Y-26333000D02*
X130766000Y-24663273D01*
X130766000Y-24663273D02*
X129974000Y-24663273D01*
X129974000Y-24663273D02*
X129974000Y-26663000D01*
X129974000Y-26663000D02*
X130436000Y-26663000D01*
X130436000Y-26663000D02*
X130766000Y-26333000D01*
G36*
X130766000Y-26333000D02*
G01*
X130436000Y-26663000D01*
X129974000Y-26663000D01*
X129974000Y-24663273D01*
X130766000Y-24663273D01*
X130766000Y-26333000D01*
G37*
X130766000Y-26333000D02*
X130436000Y-26663000D01*
X129974000Y-26663000D01*
X129974000Y-24663273D01*
X130766000Y-24663273D01*
X130766000Y-26333000D01*
X124449295Y-26663000D02*
X124449295Y-27455000D01*
X124449295Y-27455000D02*
X129644000Y-27455000D01*
X129644000Y-27455000D02*
X130436000Y-26663000D01*
X130436000Y-26663000D02*
X129974000Y-26663000D01*
X129974000Y-26663000D02*
X124449295Y-26663000D01*
G36*
X129644000Y-27455000D02*
G01*
X124449295Y-27455000D01*
X124449295Y-26663000D01*
X130436000Y-26663000D01*
X129644000Y-27455000D01*
G37*
X129644000Y-27455000D02*
X124449295Y-27455000D01*
X124449295Y-26663000D01*
X130436000Y-26663000D01*
X129644000Y-27455000D01*
%TO.C,AA15*%
X104466000Y-27239000D02*
X104466000Y-27521165D01*
X104466000Y-27521165D02*
X104774000Y-27521165D01*
X104774000Y-27521165D02*
X104774116Y-27213000D01*
X104774116Y-27213000D02*
X105082495Y-27213000D01*
X105082495Y-27213000D02*
X105082000Y-26905000D01*
X105082000Y-26905000D02*
X104800000Y-26905000D01*
X104800000Y-26905000D02*
X104466000Y-27239000D01*
G36*
X105082495Y-27213000D02*
G01*
X104774116Y-27213000D01*
X104774000Y-27521165D01*
X104466000Y-27521165D01*
X104466000Y-27239000D01*
X104800000Y-26905000D01*
X105082000Y-26905000D01*
X105082495Y-27213000D01*
G37*
X105082495Y-27213000D02*
X104774116Y-27213000D01*
X104774000Y-27521165D01*
X104466000Y-27521165D01*
X104466000Y-27239000D01*
X104800000Y-26905000D01*
X105082000Y-26905000D01*
X105082495Y-27213000D01*
%TO.C,AA10*%
X144154000Y-24330000D02*
X144154000Y-24047835D01*
X144154000Y-24047835D02*
X143846000Y-24047835D01*
X143846000Y-24047835D02*
X143845884Y-24356000D01*
X143845884Y-24356000D02*
X143537505Y-24356000D01*
X143537505Y-24356000D02*
X143538000Y-24664000D01*
X143538000Y-24664000D02*
X143820000Y-24664000D01*
X143820000Y-24664000D02*
X144154000Y-24330000D01*
G36*
X144154000Y-24330000D02*
G01*
X143820000Y-24664000D01*
X143538000Y-24664000D01*
X143537505Y-24356000D01*
X143845884Y-24356000D01*
X143846000Y-24047835D01*
X144154000Y-24047835D01*
X144154000Y-24330000D01*
G37*
X144154000Y-24330000D02*
X143820000Y-24664000D01*
X143538000Y-24664000D01*
X143537505Y-24356000D01*
X143845884Y-24356000D01*
X143846000Y-24047835D01*
X144154000Y-24047835D01*
X144154000Y-24330000D01*
%TO.C,AA11*%
X116920000Y-24664000D02*
X117202165Y-24664000D01*
X117202165Y-24664000D02*
X117202165Y-24356000D01*
X117202165Y-24356000D02*
X116894000Y-24355884D01*
X116894000Y-24355884D02*
X116894000Y-24047505D01*
X116894000Y-24047505D02*
X116586000Y-24048000D01*
X116586000Y-24048000D02*
X116586000Y-24330000D01*
X116586000Y-24330000D02*
X116920000Y-24664000D01*
G36*
X116894000Y-24355884D02*
G01*
X117202165Y-24356000D01*
X117202165Y-24664000D01*
X116920000Y-24664000D01*
X116586000Y-24330000D01*
X116586000Y-24048000D01*
X116894000Y-24047505D01*
X116894000Y-24355884D01*
G37*
X116894000Y-24355884D02*
X117202165Y-24356000D01*
X117202165Y-24664000D01*
X116920000Y-24664000D01*
X116586000Y-24330000D01*
X116586000Y-24048000D01*
X116894000Y-24047505D01*
X116894000Y-24355884D01*
%TO.C,REF\u002A\u002A*%
X70974000Y-143746000D02*
X70974000Y-145415727D01*
X70974000Y-145415727D02*
X71766000Y-145415727D01*
X71766000Y-145415727D02*
X71766000Y-143416000D01*
X71766000Y-143416000D02*
X71304000Y-143416000D01*
X71304000Y-143416000D02*
X70974000Y-143746000D01*
G36*
X71766000Y-145415727D02*
G01*
X70974000Y-145415727D01*
X70974000Y-143746000D01*
X71304000Y-143416000D01*
X71766000Y-143416000D01*
X71766000Y-145415727D01*
G37*
X71766000Y-145415727D02*
X70974000Y-145415727D01*
X70974000Y-143746000D01*
X71304000Y-143416000D01*
X71766000Y-143416000D01*
X71766000Y-145415727D01*
X77290705Y-143416000D02*
X77290705Y-142624000D01*
X77290705Y-142624000D02*
X72096000Y-142624000D01*
X72096000Y-142624000D02*
X71304000Y-143416000D01*
X71304000Y-143416000D02*
X71766000Y-143416000D01*
X71766000Y-143416000D02*
X77290705Y-143416000D01*
G36*
X77290705Y-143416000D02*
G01*
X71304000Y-143416000D01*
X72096000Y-142624000D01*
X77290705Y-142624000D01*
X77290705Y-143416000D01*
G37*
X77290705Y-143416000D02*
X71304000Y-143416000D01*
X72096000Y-142624000D01*
X77290705Y-142624000D01*
X77290705Y-143416000D01*
%TO.C,AA11*%
X84820000Y-118155000D02*
X84537835Y-118155000D01*
X84537835Y-118155000D02*
X84537835Y-118463000D01*
X84537835Y-118463000D02*
X84846000Y-118463116D01*
X84846000Y-118463116D02*
X84846000Y-118771495D01*
X84846000Y-118771495D02*
X85154000Y-118771000D01*
X85154000Y-118771000D02*
X85154000Y-118489000D01*
X85154000Y-118489000D02*
X84820000Y-118155000D01*
G36*
X85154000Y-118489000D02*
G01*
X85154000Y-118771000D01*
X84846000Y-118771495D01*
X84846000Y-118463116D01*
X84537835Y-118463000D01*
X84537835Y-118155000D01*
X84820000Y-118155000D01*
X85154000Y-118489000D01*
G37*
X85154000Y-118489000D02*
X85154000Y-118771000D01*
X84846000Y-118771495D01*
X84846000Y-118463116D01*
X84537835Y-118463000D01*
X84537835Y-118155000D01*
X84820000Y-118155000D01*
X85154000Y-118489000D01*
%TO.C,REF\u002A\u002A*%
X77290705Y-116156000D02*
X77290705Y-115364000D01*
X77290705Y-115364000D02*
X72096000Y-115364000D01*
X72096000Y-115364000D02*
X71304000Y-116156000D01*
X71304000Y-116156000D02*
X71766000Y-116156000D01*
X71766000Y-116156000D02*
X77290705Y-116156000D01*
G36*
X77290705Y-116156000D02*
G01*
X71304000Y-116156000D01*
X72096000Y-115364000D01*
X77290705Y-115364000D01*
X77290705Y-116156000D01*
G37*
X77290705Y-116156000D02*
X71304000Y-116156000D01*
X72096000Y-115364000D01*
X77290705Y-115364000D01*
X77290705Y-116156000D01*
X70974000Y-116486000D02*
X70974000Y-118155727D01*
X70974000Y-118155727D02*
X71766000Y-118155727D01*
X71766000Y-118155727D02*
X71766000Y-116156000D01*
X71766000Y-116156000D02*
X71304000Y-116156000D01*
X71304000Y-116156000D02*
X70974000Y-116486000D01*
G36*
X71766000Y-118155727D02*
G01*
X70974000Y-118155727D01*
X70974000Y-116486000D01*
X71304000Y-116156000D01*
X71766000Y-116156000D01*
X71766000Y-118155727D01*
G37*
X71766000Y-118155727D02*
X70974000Y-118155727D01*
X70974000Y-116486000D01*
X71304000Y-116156000D01*
X71766000Y-116156000D01*
X71766000Y-118155727D01*
%TO.C,AA12*%
X85154000Y-130300000D02*
X85154000Y-130017835D01*
X85154000Y-130017835D02*
X84846000Y-130017835D01*
X84846000Y-130017835D02*
X84845884Y-130326000D01*
X84845884Y-130326000D02*
X84537505Y-130326000D01*
X84537505Y-130326000D02*
X84538000Y-130634000D01*
X84538000Y-130634000D02*
X84820000Y-130634000D01*
X84820000Y-130634000D02*
X85154000Y-130300000D01*
G36*
X85154000Y-130300000D02*
G01*
X84820000Y-130634000D01*
X84538000Y-130634000D01*
X84537505Y-130326000D01*
X84845884Y-130326000D01*
X84846000Y-130017835D01*
X85154000Y-130017835D01*
X85154000Y-130300000D01*
G37*
X85154000Y-130300000D02*
X84820000Y-130634000D01*
X84538000Y-130634000D01*
X84537505Y-130326000D01*
X84845884Y-130326000D01*
X84846000Y-130017835D01*
X85154000Y-130017835D01*
X85154000Y-130300000D01*
%TO.C,AA9*%
X57894000Y-130300000D02*
X57894000Y-130017835D01*
X57894000Y-130017835D02*
X57586000Y-130017835D01*
X57586000Y-130017835D02*
X57585884Y-130326000D01*
X57585884Y-130326000D02*
X57277505Y-130326000D01*
X57277505Y-130326000D02*
X57278000Y-130634000D01*
X57278000Y-130634000D02*
X57560000Y-130634000D01*
X57560000Y-130634000D02*
X57894000Y-130300000D01*
G36*
X57894000Y-130300000D02*
G01*
X57560000Y-130634000D01*
X57278000Y-130634000D01*
X57277505Y-130326000D01*
X57585884Y-130326000D01*
X57586000Y-130017835D01*
X57894000Y-130017835D01*
X57894000Y-130300000D01*
G37*
X57894000Y-130300000D02*
X57560000Y-130634000D01*
X57278000Y-130634000D01*
X57277505Y-130326000D01*
X57585884Y-130326000D01*
X57586000Y-130017835D01*
X57894000Y-130017835D01*
X57894000Y-130300000D01*
%TO.C,AA15*%
X86900000Y-115606000D02*
X86617835Y-115606000D01*
X86617835Y-115606000D02*
X86617835Y-115914000D01*
X86617835Y-115914000D02*
X86926000Y-115914116D01*
X86926000Y-115914116D02*
X86926000Y-116222495D01*
X86926000Y-116222495D02*
X87234000Y-116222000D01*
X87234000Y-116222000D02*
X87234000Y-115940000D01*
X87234000Y-115940000D02*
X86900000Y-115606000D01*
G36*
X87234000Y-115940000D02*
G01*
X87234000Y-116222000D01*
X86926000Y-116222495D01*
X86926000Y-115914116D01*
X86617835Y-115914000D01*
X86617835Y-115606000D01*
X86900000Y-115606000D01*
X87234000Y-115940000D01*
G37*
X87234000Y-115940000D02*
X87234000Y-116222000D01*
X86926000Y-116222495D01*
X86926000Y-115914116D01*
X86617835Y-115914000D01*
X86617835Y-115606000D01*
X86900000Y-115606000D01*
X87234000Y-115940000D01*
%TO.C,AA10*%
X57586000Y-118489000D02*
X57586000Y-118771165D01*
X57586000Y-118771165D02*
X57894000Y-118771165D01*
X57894000Y-118771165D02*
X57894116Y-118463000D01*
X57894116Y-118463000D02*
X58202495Y-118463000D01*
X58202495Y-118463000D02*
X58202000Y-118155000D01*
X58202000Y-118155000D02*
X57920000Y-118155000D01*
X57920000Y-118155000D02*
X57586000Y-118489000D01*
G36*
X58202495Y-118463000D02*
G01*
X57894116Y-118463000D01*
X57894000Y-118771165D01*
X57586000Y-118771165D01*
X57586000Y-118489000D01*
X57920000Y-118155000D01*
X58202000Y-118155000D01*
X58202495Y-118463000D01*
G37*
X58202495Y-118463000D02*
X57894116Y-118463000D01*
X57894000Y-118771165D01*
X57586000Y-118771165D01*
X57586000Y-118489000D01*
X57920000Y-118155000D01*
X58202000Y-118155000D01*
X58202495Y-118463000D01*
%TO.C,AA15*%
X87234000Y-142840000D02*
X87234000Y-142557835D01*
X87234000Y-142557835D02*
X86926000Y-142557835D01*
X86926000Y-142557835D02*
X86925884Y-142866000D01*
X86925884Y-142866000D02*
X86617505Y-142866000D01*
X86617505Y-142866000D02*
X86618000Y-143174000D01*
X86618000Y-143174000D02*
X86900000Y-143174000D01*
X86900000Y-143174000D02*
X87234000Y-142840000D01*
G36*
X87234000Y-142840000D02*
G01*
X86900000Y-143174000D01*
X86618000Y-143174000D01*
X86617505Y-142866000D01*
X86925884Y-142866000D01*
X86926000Y-142557835D01*
X87234000Y-142557835D01*
X87234000Y-142840000D01*
G37*
X87234000Y-142840000D02*
X86900000Y-143174000D01*
X86618000Y-143174000D01*
X86617505Y-142866000D01*
X86925884Y-142866000D01*
X86926000Y-142557835D01*
X87234000Y-142557835D01*
X87234000Y-142840000D01*
%TO.C,AA12*%
X85154000Y-157560000D02*
X85154000Y-157277835D01*
X85154000Y-157277835D02*
X84846000Y-157277835D01*
X84846000Y-157277835D02*
X84845884Y-157586000D01*
X84845884Y-157586000D02*
X84537505Y-157586000D01*
X84537505Y-157586000D02*
X84538000Y-157894000D01*
X84538000Y-157894000D02*
X84820000Y-157894000D01*
X84820000Y-157894000D02*
X85154000Y-157560000D01*
G36*
X85154000Y-157560000D02*
G01*
X84820000Y-157894000D01*
X84538000Y-157894000D01*
X84537505Y-157586000D01*
X84845884Y-157586000D01*
X84846000Y-157277835D01*
X85154000Y-157277835D01*
X85154000Y-157560000D01*
G37*
X85154000Y-157560000D02*
X84820000Y-157894000D01*
X84538000Y-157894000D01*
X84537505Y-157586000D01*
X84845884Y-157586000D01*
X84846000Y-157277835D01*
X85154000Y-157277835D01*
X85154000Y-157560000D01*
%TO.C,AA9*%
X57894000Y-157560000D02*
X57894000Y-157277835D01*
X57894000Y-157277835D02*
X57586000Y-157277835D01*
X57586000Y-157277835D02*
X57585884Y-157586000D01*
X57585884Y-157586000D02*
X57277505Y-157586000D01*
X57277505Y-157586000D02*
X57278000Y-157894000D01*
X57278000Y-157894000D02*
X57560000Y-157894000D01*
X57560000Y-157894000D02*
X57894000Y-157560000D01*
G36*
X57894000Y-157560000D02*
G01*
X57560000Y-157894000D01*
X57278000Y-157894000D01*
X57277505Y-157586000D01*
X57585884Y-157586000D01*
X57586000Y-157277835D01*
X57894000Y-157277835D01*
X57894000Y-157560000D01*
G37*
X57894000Y-157560000D02*
X57560000Y-157894000D01*
X57278000Y-157894000D01*
X57277505Y-157586000D01*
X57585884Y-157586000D01*
X57586000Y-157277835D01*
X57894000Y-157277835D01*
X57894000Y-157560000D01*
%TO.C,AA10*%
X57586000Y-145749000D02*
X57586000Y-146031165D01*
X57586000Y-146031165D02*
X57894000Y-146031165D01*
X57894000Y-146031165D02*
X57894116Y-145723000D01*
X57894116Y-145723000D02*
X58202495Y-145723000D01*
X58202495Y-145723000D02*
X58202000Y-145415000D01*
X58202000Y-145415000D02*
X57920000Y-145415000D01*
X57920000Y-145415000D02*
X57586000Y-145749000D01*
G36*
X58202495Y-145723000D02*
G01*
X57894116Y-145723000D01*
X57894000Y-146031165D01*
X57586000Y-146031165D01*
X57586000Y-145749000D01*
X57920000Y-145415000D01*
X58202000Y-145415000D01*
X58202495Y-145723000D01*
G37*
X58202495Y-145723000D02*
X57894116Y-145723000D01*
X57894000Y-146031165D01*
X57586000Y-146031165D01*
X57586000Y-145749000D01*
X57920000Y-145415000D01*
X58202000Y-145415000D01*
X58202495Y-145723000D01*
%TO.C,AA11*%
X84820000Y-145415000D02*
X84537835Y-145415000D01*
X84537835Y-145415000D02*
X84537835Y-145723000D01*
X84537835Y-145723000D02*
X84846000Y-145723116D01*
X84846000Y-145723116D02*
X84846000Y-146031495D01*
X84846000Y-146031495D02*
X85154000Y-146031000D01*
X85154000Y-146031000D02*
X85154000Y-145749000D01*
X85154000Y-145749000D02*
X84820000Y-145415000D01*
G36*
X85154000Y-145749000D02*
G01*
X85154000Y-146031000D01*
X84846000Y-146031495D01*
X84846000Y-145723116D01*
X84537835Y-145723000D01*
X84537835Y-145415000D01*
X84820000Y-145415000D01*
X85154000Y-145749000D01*
G37*
X85154000Y-145749000D02*
X85154000Y-146031000D01*
X84846000Y-146031495D01*
X84846000Y-145723116D01*
X84537835Y-145723000D01*
X84537835Y-145415000D01*
X84820000Y-145415000D01*
X85154000Y-145749000D01*
%TO.C,REF\u002A\u002A*%
X88899000Y-128994000D02*
X87229273Y-128994000D01*
X87229273Y-128994000D02*
X87229273Y-129786000D01*
X87229273Y-129786000D02*
X89229000Y-129786000D01*
X89229000Y-129786000D02*
X89229000Y-129324000D01*
X89229000Y-129324000D02*
X88899000Y-128994000D01*
G36*
X89229000Y-129324000D02*
G01*
X89229000Y-129786000D01*
X87229273Y-129786000D01*
X87229273Y-128994000D01*
X88899000Y-128994000D01*
X89229000Y-129324000D01*
G37*
X89229000Y-129324000D02*
X89229000Y-129786000D01*
X87229273Y-129786000D01*
X87229273Y-128994000D01*
X88899000Y-128994000D01*
X89229000Y-129324000D01*
X89229000Y-135310705D02*
X90021000Y-135310705D01*
X90021000Y-135310705D02*
X90021000Y-130116000D01*
X90021000Y-130116000D02*
X89229000Y-129324000D01*
X89229000Y-129324000D02*
X89229000Y-129786000D01*
X89229000Y-129786000D02*
X89229000Y-135310705D01*
G36*
X90021000Y-130116000D02*
G01*
X90021000Y-135310705D01*
X89229000Y-135310705D01*
X89229000Y-129324000D01*
X90021000Y-130116000D01*
G37*
X90021000Y-130116000D02*
X90021000Y-135310705D01*
X89229000Y-135310705D01*
X89229000Y-129324000D01*
X90021000Y-130116000D01*
X88899000Y-184306000D02*
X87229273Y-184306000D01*
X87229273Y-184306000D02*
X87229273Y-183514000D01*
X87229273Y-183514000D02*
X89229000Y-183514000D01*
X89229000Y-183514000D02*
X89229000Y-183976000D01*
X89229000Y-183976000D02*
X88899000Y-184306000D01*
G36*
X89229000Y-183976000D02*
G01*
X88899000Y-184306000D01*
X87229273Y-184306000D01*
X87229273Y-183514000D01*
X89229000Y-183514000D01*
X89229000Y-183976000D01*
G37*
X89229000Y-183976000D02*
X88899000Y-184306000D01*
X87229273Y-184306000D01*
X87229273Y-183514000D01*
X89229000Y-183514000D01*
X89229000Y-183976000D01*
X89229000Y-177989295D02*
X90021000Y-177989295D01*
X90021000Y-177989295D02*
X90021000Y-183184000D01*
X90021000Y-183184000D02*
X89229000Y-183976000D01*
X89229000Y-183976000D02*
X89229000Y-183514000D01*
X89229000Y-183514000D02*
X89229000Y-177989295D01*
G36*
X90021000Y-183184000D02*
G01*
X89229000Y-183976000D01*
X89229000Y-177989295D01*
X90021000Y-177989295D01*
X90021000Y-183184000D01*
G37*
X90021000Y-183184000D02*
X89229000Y-183976000D01*
X89229000Y-177989295D01*
X90021000Y-177989295D01*
X90021000Y-183184000D01*
%TO.C,AA15*%
X86900000Y-170126000D02*
X86617835Y-170126000D01*
X86617835Y-170126000D02*
X86617835Y-170434000D01*
X86617835Y-170434000D02*
X86926000Y-170434116D01*
X86926000Y-170434116D02*
X86926000Y-170742495D01*
X86926000Y-170742495D02*
X87234000Y-170742000D01*
X87234000Y-170742000D02*
X87234000Y-170460000D01*
X87234000Y-170460000D02*
X86900000Y-170126000D01*
G36*
X87234000Y-170460000D02*
G01*
X87234000Y-170742000D01*
X86926000Y-170742495D01*
X86926000Y-170434116D01*
X86617835Y-170434000D01*
X86617835Y-170126000D01*
X86900000Y-170126000D01*
X87234000Y-170460000D01*
G37*
X87234000Y-170460000D02*
X87234000Y-170742000D01*
X86926000Y-170742495D01*
X86926000Y-170434116D01*
X86617835Y-170434000D01*
X86617835Y-170126000D01*
X86900000Y-170126000D01*
X87234000Y-170460000D01*
X87234000Y-197360000D02*
X87234000Y-197077835D01*
X87234000Y-197077835D02*
X86926000Y-197077835D01*
X86926000Y-197077835D02*
X86925884Y-197386000D01*
X86925884Y-197386000D02*
X86617505Y-197386000D01*
X86617505Y-197386000D02*
X86618000Y-197694000D01*
X86618000Y-197694000D02*
X86900000Y-197694000D01*
X86900000Y-197694000D02*
X87234000Y-197360000D01*
G36*
X87234000Y-197360000D02*
G01*
X86900000Y-197694000D01*
X86618000Y-197694000D01*
X86617505Y-197386000D01*
X86925884Y-197386000D01*
X86926000Y-197077835D01*
X87234000Y-197077835D01*
X87234000Y-197360000D01*
G37*
X87234000Y-197360000D02*
X86900000Y-197694000D01*
X86618000Y-197694000D01*
X86617505Y-197386000D01*
X86925884Y-197386000D01*
X86926000Y-197077835D01*
X87234000Y-197077835D01*
X87234000Y-197360000D01*
%TO.C,REF\u002A\u002A*%
X70974000Y-171006000D02*
X70974000Y-172675727D01*
X70974000Y-172675727D02*
X71766000Y-172675727D01*
X71766000Y-172675727D02*
X71766000Y-170676000D01*
X71766000Y-170676000D02*
X71304000Y-170676000D01*
X71304000Y-170676000D02*
X70974000Y-171006000D01*
G36*
X71766000Y-172675727D02*
G01*
X70974000Y-172675727D01*
X70974000Y-171006000D01*
X71304000Y-170676000D01*
X71766000Y-170676000D01*
X71766000Y-172675727D01*
G37*
X71766000Y-172675727D02*
X70974000Y-172675727D01*
X70974000Y-171006000D01*
X71304000Y-170676000D01*
X71766000Y-170676000D01*
X71766000Y-172675727D01*
X77290705Y-170676000D02*
X77290705Y-169884000D01*
X77290705Y-169884000D02*
X72096000Y-169884000D01*
X72096000Y-169884000D02*
X71304000Y-170676000D01*
X71304000Y-170676000D02*
X71766000Y-170676000D01*
X71766000Y-170676000D02*
X77290705Y-170676000D01*
G36*
X77290705Y-170676000D02*
G01*
X71304000Y-170676000D01*
X72096000Y-169884000D01*
X77290705Y-169884000D01*
X77290705Y-170676000D01*
G37*
X77290705Y-170676000D02*
X71304000Y-170676000D01*
X72096000Y-169884000D01*
X77290705Y-169884000D01*
X77290705Y-170676000D01*
%TO.C,AA12*%
X85154000Y-184820000D02*
X85154000Y-184537835D01*
X85154000Y-184537835D02*
X84846000Y-184537835D01*
X84846000Y-184537835D02*
X84845884Y-184846000D01*
X84845884Y-184846000D02*
X84537505Y-184846000D01*
X84537505Y-184846000D02*
X84538000Y-185154000D01*
X84538000Y-185154000D02*
X84820000Y-185154000D01*
X84820000Y-185154000D02*
X85154000Y-184820000D01*
G36*
X85154000Y-184820000D02*
G01*
X84820000Y-185154000D01*
X84538000Y-185154000D01*
X84537505Y-184846000D01*
X84845884Y-184846000D01*
X84846000Y-184537835D01*
X85154000Y-184537835D01*
X85154000Y-184820000D01*
G37*
X85154000Y-184820000D02*
X84820000Y-185154000D01*
X84538000Y-185154000D01*
X84537505Y-184846000D01*
X84845884Y-184846000D01*
X84846000Y-184537835D01*
X85154000Y-184537835D01*
X85154000Y-184820000D01*
%TO.C,AA9*%
X57894000Y-184820000D02*
X57894000Y-184537835D01*
X57894000Y-184537835D02*
X57586000Y-184537835D01*
X57586000Y-184537835D02*
X57585884Y-184846000D01*
X57585884Y-184846000D02*
X57277505Y-184846000D01*
X57277505Y-184846000D02*
X57278000Y-185154000D01*
X57278000Y-185154000D02*
X57560000Y-185154000D01*
X57560000Y-185154000D02*
X57894000Y-184820000D01*
G36*
X57894000Y-184820000D02*
G01*
X57560000Y-185154000D01*
X57278000Y-185154000D01*
X57277505Y-184846000D01*
X57585884Y-184846000D01*
X57586000Y-184537835D01*
X57894000Y-184537835D01*
X57894000Y-184820000D01*
G37*
X57894000Y-184820000D02*
X57560000Y-185154000D01*
X57278000Y-185154000D01*
X57277505Y-184846000D01*
X57585884Y-184846000D01*
X57586000Y-184537835D01*
X57894000Y-184537835D01*
X57894000Y-184820000D01*
%TO.C,AA10*%
X57586000Y-173009000D02*
X57586000Y-173291165D01*
X57586000Y-173291165D02*
X57894000Y-173291165D01*
X57894000Y-173291165D02*
X57894116Y-172983000D01*
X57894116Y-172983000D02*
X58202495Y-172983000D01*
X58202495Y-172983000D02*
X58202000Y-172675000D01*
X58202000Y-172675000D02*
X57920000Y-172675000D01*
X57920000Y-172675000D02*
X57586000Y-173009000D01*
G36*
X58202495Y-172983000D02*
G01*
X57894116Y-172983000D01*
X57894000Y-173291165D01*
X57586000Y-173291165D01*
X57586000Y-173009000D01*
X57920000Y-172675000D01*
X58202000Y-172675000D01*
X58202495Y-172983000D01*
G37*
X58202495Y-172983000D02*
X57894116Y-172983000D01*
X57894000Y-173291165D01*
X57586000Y-173291165D01*
X57586000Y-173009000D01*
X57920000Y-172675000D01*
X58202000Y-172675000D01*
X58202495Y-172983000D01*
%TO.C,AA11*%
X84820000Y-172675000D02*
X84537835Y-172675000D01*
X84537835Y-172675000D02*
X84537835Y-172983000D01*
X84537835Y-172983000D02*
X84846000Y-172983116D01*
X84846000Y-172983116D02*
X84846000Y-173291495D01*
X84846000Y-173291495D02*
X85154000Y-173291000D01*
X85154000Y-173291000D02*
X85154000Y-173009000D01*
X85154000Y-173009000D02*
X84820000Y-172675000D01*
G36*
X85154000Y-173009000D02*
G01*
X85154000Y-173291000D01*
X84846000Y-173291495D01*
X84846000Y-172983116D01*
X84537835Y-172983000D01*
X84537835Y-172675000D01*
X84820000Y-172675000D01*
X85154000Y-173009000D01*
G37*
X85154000Y-173009000D02*
X85154000Y-173291000D01*
X84846000Y-173291495D01*
X84846000Y-172983116D01*
X84537835Y-172983000D01*
X84537835Y-172675000D01*
X84820000Y-172675000D01*
X85154000Y-173009000D01*
%TO.C,REF\u002A\u002A*%
X77290705Y-197936000D02*
X77290705Y-197144000D01*
X77290705Y-197144000D02*
X72096000Y-197144000D01*
X72096000Y-197144000D02*
X71304000Y-197936000D01*
X71304000Y-197936000D02*
X71766000Y-197936000D01*
X71766000Y-197936000D02*
X77290705Y-197936000D01*
G36*
X77290705Y-197936000D02*
G01*
X71304000Y-197936000D01*
X72096000Y-197144000D01*
X77290705Y-197144000D01*
X77290705Y-197936000D01*
G37*
X77290705Y-197936000D02*
X71304000Y-197936000D01*
X72096000Y-197144000D01*
X77290705Y-197144000D01*
X77290705Y-197936000D01*
X70974000Y-198266000D02*
X70974000Y-199935727D01*
X70974000Y-199935727D02*
X71766000Y-199935727D01*
X71766000Y-199935727D02*
X71766000Y-197936000D01*
X71766000Y-197936000D02*
X71304000Y-197936000D01*
X71304000Y-197936000D02*
X70974000Y-198266000D01*
G36*
X71766000Y-199935727D02*
G01*
X70974000Y-199935727D01*
X70974000Y-198266000D01*
X71304000Y-197936000D01*
X71766000Y-197936000D01*
X71766000Y-199935727D01*
G37*
X71766000Y-199935727D02*
X70974000Y-199935727D01*
X70974000Y-198266000D01*
X71304000Y-197936000D01*
X71766000Y-197936000D01*
X71766000Y-199935727D01*
%TO.C,AA5*%
X120886000Y-118200000D02*
X120886000Y-118482165D01*
X120886000Y-118482165D02*
X121194000Y-118482165D01*
X121194000Y-118482165D02*
X121194116Y-118174000D01*
X121194116Y-118174000D02*
X121502495Y-118174000D01*
X121502495Y-118174000D02*
X121502000Y-117866000D01*
X121502000Y-117866000D02*
X121220000Y-117866000D01*
X121220000Y-117866000D02*
X120886000Y-118200000D01*
G36*
X121502495Y-118174000D02*
G01*
X121194116Y-118174000D01*
X121194000Y-118482165D01*
X120886000Y-118482165D01*
X120886000Y-118200000D01*
X121220000Y-117866000D01*
X121502000Y-117866000D01*
X121502495Y-118174000D01*
G37*
X121502495Y-118174000D02*
X121194116Y-118174000D01*
X121194000Y-118482165D01*
X120886000Y-118482165D01*
X120886000Y-118200000D01*
X121220000Y-117866000D01*
X121502000Y-117866000D01*
X121502495Y-118174000D01*
%TO.C,REF\u002A\u002A*%
X135061000Y-116201000D02*
X135061000Y-117870727D01*
X135061000Y-117870727D02*
X134269000Y-117870727D01*
X134269000Y-117870727D02*
X134269000Y-115871000D01*
X134269000Y-115871000D02*
X134731000Y-115871000D01*
X134731000Y-115871000D02*
X135061000Y-116201000D01*
G36*
X135061000Y-116201000D02*
G01*
X135061000Y-117870727D01*
X134269000Y-117870727D01*
X134269000Y-115871000D01*
X134731000Y-115871000D01*
X135061000Y-116201000D01*
G37*
X135061000Y-116201000D02*
X135061000Y-117870727D01*
X134269000Y-117870727D01*
X134269000Y-115871000D01*
X134731000Y-115871000D01*
X135061000Y-116201000D01*
X128744295Y-115871000D02*
X128744295Y-115079000D01*
X128744295Y-115079000D02*
X133939000Y-115079000D01*
X133939000Y-115079000D02*
X134731000Y-115871000D01*
X134731000Y-115871000D02*
X134269000Y-115871000D01*
X134269000Y-115871000D02*
X128744295Y-115871000D01*
G36*
X134731000Y-115871000D02*
G01*
X128744295Y-115871000D01*
X128744295Y-115079000D01*
X133939000Y-115079000D01*
X134731000Y-115871000D01*
G37*
X134731000Y-115871000D02*
X128744295Y-115871000D01*
X128744295Y-115079000D01*
X133939000Y-115079000D01*
X134731000Y-115871000D01*
%TO.C,AA5*%
X114886000Y-115655000D02*
X114886000Y-115937165D01*
X114886000Y-115937165D02*
X115194000Y-115937165D01*
X115194000Y-115937165D02*
X115194116Y-115629000D01*
X115194116Y-115629000D02*
X115502495Y-115629000D01*
X115502495Y-115629000D02*
X115502000Y-115321000D01*
X115502000Y-115321000D02*
X115220000Y-115321000D01*
X115220000Y-115321000D02*
X114886000Y-115655000D01*
G36*
X115502495Y-115629000D02*
G01*
X115194116Y-115629000D01*
X115194000Y-115937165D01*
X114886000Y-115937165D01*
X114886000Y-115655000D01*
X115220000Y-115321000D01*
X115502000Y-115321000D01*
X115502495Y-115629000D01*
G37*
X115502495Y-115629000D02*
X115194116Y-115629000D01*
X115194000Y-115937165D01*
X114886000Y-115937165D01*
X114886000Y-115655000D01*
X115220000Y-115321000D01*
X115502000Y-115321000D01*
X115502495Y-115629000D01*
X148120000Y-117866000D02*
X147837835Y-117866000D01*
X147837835Y-117866000D02*
X147837835Y-118174000D01*
X147837835Y-118174000D02*
X148146000Y-118174116D01*
X148146000Y-118174116D02*
X148146000Y-118482495D01*
X148146000Y-118482495D02*
X148454000Y-118482000D01*
X148454000Y-118482000D02*
X148454000Y-118200000D01*
X148454000Y-118200000D02*
X148120000Y-117866000D01*
G36*
X148454000Y-118200000D02*
G01*
X148454000Y-118482000D01*
X148146000Y-118482495D01*
X148146000Y-118174116D01*
X147837835Y-118174000D01*
X147837835Y-117866000D01*
X148120000Y-117866000D01*
X148454000Y-118200000D01*
G37*
X148454000Y-118200000D02*
X148454000Y-118482000D01*
X148146000Y-118482495D01*
X148146000Y-118174116D01*
X147837835Y-118174000D01*
X147837835Y-117866000D01*
X148120000Y-117866000D01*
X148454000Y-118200000D01*
X148120000Y-145126000D02*
X147837835Y-145126000D01*
X147837835Y-145126000D02*
X147837835Y-145434000D01*
X147837835Y-145434000D02*
X148146000Y-145434116D01*
X148146000Y-145434116D02*
X148146000Y-145742495D01*
X148146000Y-145742495D02*
X148454000Y-145742000D01*
X148454000Y-145742000D02*
X148454000Y-145460000D01*
X148454000Y-145460000D02*
X148120000Y-145126000D01*
G36*
X148454000Y-145460000D02*
G01*
X148454000Y-145742000D01*
X148146000Y-145742495D01*
X148146000Y-145434116D01*
X147837835Y-145434000D01*
X147837835Y-145126000D01*
X148120000Y-145126000D01*
X148454000Y-145460000D01*
G37*
X148454000Y-145460000D02*
X148454000Y-145742000D01*
X148146000Y-145742495D01*
X148146000Y-145434116D01*
X147837835Y-145434000D01*
X147837835Y-145126000D01*
X148120000Y-145126000D01*
X148454000Y-145460000D01*
X115220000Y-142889000D02*
X115502165Y-142889000D01*
X115502165Y-142889000D02*
X115502165Y-142581000D01*
X115502165Y-142581000D02*
X115194000Y-142580884D01*
X115194000Y-142580884D02*
X115194000Y-142272505D01*
X115194000Y-142272505D02*
X114886000Y-142273000D01*
X114886000Y-142273000D02*
X114886000Y-142555000D01*
X114886000Y-142555000D02*
X115220000Y-142889000D01*
G36*
X115194000Y-142580884D02*
G01*
X115502165Y-142581000D01*
X115502165Y-142889000D01*
X115220000Y-142889000D01*
X114886000Y-142555000D01*
X114886000Y-142273000D01*
X115194000Y-142272505D01*
X115194000Y-142580884D01*
G37*
X115194000Y-142580884D02*
X115502165Y-142581000D01*
X115502165Y-142889000D01*
X115220000Y-142889000D01*
X114886000Y-142555000D01*
X114886000Y-142273000D01*
X115194000Y-142272505D01*
X115194000Y-142580884D01*
X120886000Y-145460000D02*
X120886000Y-145742165D01*
X120886000Y-145742165D02*
X121194000Y-145742165D01*
X121194000Y-145742165D02*
X121194116Y-145434000D01*
X121194116Y-145434000D02*
X121502495Y-145434000D01*
X121502495Y-145434000D02*
X121502000Y-145126000D01*
X121502000Y-145126000D02*
X121220000Y-145126000D01*
X121220000Y-145126000D02*
X120886000Y-145460000D01*
G36*
X121502495Y-145434000D02*
G01*
X121194116Y-145434000D01*
X121194000Y-145742165D01*
X120886000Y-145742165D01*
X120886000Y-145460000D01*
X121220000Y-145126000D01*
X121502000Y-145126000D01*
X121502495Y-145434000D01*
G37*
X121502495Y-145434000D02*
X121194116Y-145434000D01*
X121194000Y-145742165D01*
X120886000Y-145742165D01*
X120886000Y-145460000D01*
X121220000Y-145126000D01*
X121502000Y-145126000D01*
X121502495Y-145434000D01*
%TO.C,REF\u002A\u002A*%
X128744295Y-143131000D02*
X128744295Y-142339000D01*
X128744295Y-142339000D02*
X133939000Y-142339000D01*
X133939000Y-142339000D02*
X134731000Y-143131000D01*
X134731000Y-143131000D02*
X134269000Y-143131000D01*
X134269000Y-143131000D02*
X128744295Y-143131000D01*
G36*
X134731000Y-143131000D02*
G01*
X128744295Y-143131000D01*
X128744295Y-142339000D01*
X133939000Y-142339000D01*
X134731000Y-143131000D01*
G37*
X134731000Y-143131000D02*
X128744295Y-143131000D01*
X128744295Y-142339000D01*
X133939000Y-142339000D01*
X134731000Y-143131000D01*
X135061000Y-143461000D02*
X135061000Y-145130727D01*
X135061000Y-145130727D02*
X134269000Y-145130727D01*
X134269000Y-145130727D02*
X134269000Y-143131000D01*
X134269000Y-143131000D02*
X134731000Y-143131000D01*
X134731000Y-143131000D02*
X135061000Y-143461000D01*
G36*
X135061000Y-143461000D02*
G01*
X135061000Y-145130727D01*
X134269000Y-145130727D01*
X134269000Y-143131000D01*
X134731000Y-143131000D01*
X135061000Y-143461000D01*
G37*
X135061000Y-143461000D02*
X135061000Y-145130727D01*
X134269000Y-145130727D01*
X134269000Y-143131000D01*
X134731000Y-143131000D01*
X135061000Y-143461000D01*
%TO.C,AA5*%
X148120000Y-172386000D02*
X147837835Y-172386000D01*
X147837835Y-172386000D02*
X147837835Y-172694000D01*
X147837835Y-172694000D02*
X148146000Y-172694116D01*
X148146000Y-172694116D02*
X148146000Y-173002495D01*
X148146000Y-173002495D02*
X148454000Y-173002000D01*
X148454000Y-173002000D02*
X148454000Y-172720000D01*
X148454000Y-172720000D02*
X148120000Y-172386000D01*
G36*
X148454000Y-172720000D02*
G01*
X148454000Y-173002000D01*
X148146000Y-173002495D01*
X148146000Y-172694116D01*
X147837835Y-172694000D01*
X147837835Y-172386000D01*
X148120000Y-172386000D01*
X148454000Y-172720000D01*
G37*
X148454000Y-172720000D02*
X148454000Y-173002000D01*
X148146000Y-173002495D01*
X148146000Y-172694116D01*
X147837835Y-172694000D01*
X147837835Y-172386000D01*
X148120000Y-172386000D01*
X148454000Y-172720000D01*
X114886000Y-170175000D02*
X114886000Y-170457165D01*
X114886000Y-170457165D02*
X115194000Y-170457165D01*
X115194000Y-170457165D02*
X115194116Y-170149000D01*
X115194116Y-170149000D02*
X115502495Y-170149000D01*
X115502495Y-170149000D02*
X115502000Y-169841000D01*
X115502000Y-169841000D02*
X115220000Y-169841000D01*
X115220000Y-169841000D02*
X114886000Y-170175000D01*
G36*
X115502495Y-170149000D02*
G01*
X115194116Y-170149000D01*
X115194000Y-170457165D01*
X114886000Y-170457165D01*
X114886000Y-170175000D01*
X115220000Y-169841000D01*
X115502000Y-169841000D01*
X115502495Y-170149000D01*
G37*
X115502495Y-170149000D02*
X115194116Y-170149000D01*
X115194000Y-170457165D01*
X114886000Y-170457165D01*
X114886000Y-170175000D01*
X115220000Y-169841000D01*
X115502000Y-169841000D01*
X115502495Y-170149000D01*
X120886000Y-172720000D02*
X120886000Y-173002165D01*
X120886000Y-173002165D02*
X121194000Y-173002165D01*
X121194000Y-173002165D02*
X121194116Y-172694000D01*
X121194116Y-172694000D02*
X121502495Y-172694000D01*
X121502495Y-172694000D02*
X121502000Y-172386000D01*
X121502000Y-172386000D02*
X121220000Y-172386000D01*
X121220000Y-172386000D02*
X120886000Y-172720000D01*
G36*
X121502495Y-172694000D02*
G01*
X121194116Y-172694000D01*
X121194000Y-173002165D01*
X120886000Y-173002165D01*
X120886000Y-172720000D01*
X121220000Y-172386000D01*
X121502000Y-172386000D01*
X121502495Y-172694000D01*
G37*
X121502495Y-172694000D02*
X121194116Y-172694000D01*
X121194000Y-173002165D01*
X120886000Y-173002165D01*
X120886000Y-172720000D01*
X121220000Y-172386000D01*
X121502000Y-172386000D01*
X121502495Y-172694000D01*
%TO.C,REF\u002A\u002A*%
X128744295Y-170391000D02*
X128744295Y-169599000D01*
X128744295Y-169599000D02*
X133939000Y-169599000D01*
X133939000Y-169599000D02*
X134731000Y-170391000D01*
X134731000Y-170391000D02*
X134269000Y-170391000D01*
X134269000Y-170391000D02*
X128744295Y-170391000D01*
G36*
X134731000Y-170391000D02*
G01*
X128744295Y-170391000D01*
X128744295Y-169599000D01*
X133939000Y-169599000D01*
X134731000Y-170391000D01*
G37*
X134731000Y-170391000D02*
X128744295Y-170391000D01*
X128744295Y-169599000D01*
X133939000Y-169599000D01*
X134731000Y-170391000D01*
X135061000Y-170721000D02*
X135061000Y-172390727D01*
X135061000Y-172390727D02*
X134269000Y-172390727D01*
X134269000Y-172390727D02*
X134269000Y-170391000D01*
X134269000Y-170391000D02*
X134731000Y-170391000D01*
X134731000Y-170391000D02*
X135061000Y-170721000D01*
G36*
X135061000Y-170721000D02*
G01*
X135061000Y-172390727D01*
X134269000Y-172390727D01*
X134269000Y-170391000D01*
X134731000Y-170391000D01*
X135061000Y-170721000D01*
G37*
X135061000Y-170721000D02*
X135061000Y-172390727D01*
X134269000Y-172390727D01*
X134269000Y-170391000D01*
X134731000Y-170391000D01*
X135061000Y-170721000D01*
%TO.C,AA5*%
X148120000Y-199646000D02*
X147837835Y-199646000D01*
X147837835Y-199646000D02*
X147837835Y-199954000D01*
X147837835Y-199954000D02*
X148146000Y-199954116D01*
X148146000Y-199954116D02*
X148146000Y-200262495D01*
X148146000Y-200262495D02*
X148454000Y-200262000D01*
X148454000Y-200262000D02*
X148454000Y-199980000D01*
X148454000Y-199980000D02*
X148120000Y-199646000D01*
G36*
X148454000Y-199980000D02*
G01*
X148454000Y-200262000D01*
X148146000Y-200262495D01*
X148146000Y-199954116D01*
X147837835Y-199954000D01*
X147837835Y-199646000D01*
X148120000Y-199646000D01*
X148454000Y-199980000D01*
G37*
X148454000Y-199980000D02*
X148454000Y-200262000D01*
X148146000Y-200262495D01*
X148146000Y-199954116D01*
X147837835Y-199954000D01*
X147837835Y-199646000D01*
X148120000Y-199646000D01*
X148454000Y-199980000D01*
%TO.C,REF\u002A\u002A*%
X135061000Y-197981000D02*
X135061000Y-199650727D01*
X135061000Y-199650727D02*
X134269000Y-199650727D01*
X134269000Y-199650727D02*
X134269000Y-197651000D01*
X134269000Y-197651000D02*
X134731000Y-197651000D01*
X134731000Y-197651000D02*
X135061000Y-197981000D01*
G36*
X135061000Y-197981000D02*
G01*
X135061000Y-199650727D01*
X134269000Y-199650727D01*
X134269000Y-197651000D01*
X134731000Y-197651000D01*
X135061000Y-197981000D01*
G37*
X135061000Y-197981000D02*
X135061000Y-199650727D01*
X134269000Y-199650727D01*
X134269000Y-197651000D01*
X134731000Y-197651000D01*
X135061000Y-197981000D01*
X128744295Y-197651000D02*
X128744295Y-196859000D01*
X128744295Y-196859000D02*
X133939000Y-196859000D01*
X133939000Y-196859000D02*
X134731000Y-197651000D01*
X134731000Y-197651000D02*
X134269000Y-197651000D01*
X134269000Y-197651000D02*
X128744295Y-197651000D01*
G36*
X134731000Y-197651000D02*
G01*
X128744295Y-197651000D01*
X128744295Y-196859000D01*
X133939000Y-196859000D01*
X134731000Y-197651000D01*
G37*
X134731000Y-197651000D02*
X128744295Y-197651000D01*
X128744295Y-196859000D01*
X133939000Y-196859000D01*
X134731000Y-197651000D01*
%TO.C,AE2*%
X156068264Y-128545651D02*
X156325651Y-128288264D01*
X156325651Y-128288264D02*
X149254208Y-121216822D01*
X149254208Y-121216822D02*
X148996822Y-121474208D01*
X148996822Y-121474208D02*
X156068264Y-128545651D01*
G36*
X156325651Y-128288264D02*
G01*
X156068264Y-128545651D01*
X148996822Y-121474208D01*
X149254208Y-121216822D01*
X156325651Y-128288264D01*
G37*
X156325651Y-128288264D02*
X156068264Y-128545651D01*
X148996822Y-121474208D01*
X149254208Y-121216822D01*
X156325651Y-128288264D01*
X156772463Y-127841293D02*
X155621293Y-128992463D01*
X155621293Y-128992463D02*
X153004998Y-126376168D01*
X153004998Y-126376168D02*
X147244906Y-132136259D01*
X147244906Y-132136259D02*
X156083741Y-140975094D01*
X156083741Y-140975094D02*
X168755094Y-128303741D01*
X168755094Y-128303741D02*
X159916259Y-119464906D01*
X159916259Y-119464906D02*
X154156168Y-125224998D01*
X154156168Y-125224998D02*
X156772463Y-127841293D01*
G36*
X168755094Y-128303741D02*
G01*
X156083741Y-140975094D01*
X147244906Y-132136259D01*
X153004998Y-126376168D01*
X155621293Y-128992463D01*
X156772463Y-127841293D01*
X154156168Y-125224998D01*
X159916259Y-119464906D01*
X168755094Y-128303741D01*
G37*
X168755094Y-128303741D02*
X156083741Y-140975094D01*
X147244906Y-132136259D01*
X153004998Y-126376168D01*
X155621293Y-128992463D01*
X156772463Y-127841293D01*
X154156168Y-125224998D01*
X159916259Y-119464906D01*
X168755094Y-128303741D01*
%TO.C,AE8*%
X128808264Y-183065651D02*
X129065651Y-182808264D01*
X129065651Y-182808264D02*
X121994208Y-175736822D01*
X121994208Y-175736822D02*
X121736822Y-175994208D01*
X121736822Y-175994208D02*
X128808264Y-183065651D01*
G36*
X129065651Y-182808264D02*
G01*
X128808264Y-183065651D01*
X121736822Y-175994208D01*
X121994208Y-175736822D01*
X129065651Y-182808264D01*
G37*
X129065651Y-182808264D02*
X128808264Y-183065651D01*
X121736822Y-175994208D01*
X121994208Y-175736822D01*
X129065651Y-182808264D01*
X129512463Y-182361293D02*
X128361293Y-183512463D01*
X128361293Y-183512463D02*
X125744998Y-180896168D01*
X125744998Y-180896168D02*
X119984906Y-186656259D01*
X119984906Y-186656259D02*
X128823741Y-195495094D01*
X128823741Y-195495094D02*
X141495094Y-182823741D01*
X141495094Y-182823741D02*
X132656259Y-173984906D01*
X132656259Y-173984906D02*
X126896168Y-179744998D01*
X126896168Y-179744998D02*
X129512463Y-182361293D01*
G36*
X141495094Y-182823741D02*
G01*
X128823741Y-195495094D01*
X119984906Y-186656259D01*
X125744998Y-180896168D01*
X128361293Y-183512463D01*
X129512463Y-182361293D01*
X126896168Y-179744998D01*
X132656259Y-173984906D01*
X141495094Y-182823741D01*
G37*
X141495094Y-182823741D02*
X128823741Y-195495094D01*
X119984906Y-186656259D01*
X125744998Y-180896168D01*
X128361293Y-183512463D01*
X129512463Y-182361293D01*
X126896168Y-179744998D01*
X132656259Y-173984906D01*
X141495094Y-182823741D01*
%TO.C,AA5*%
X120886000Y-199980000D02*
X120886000Y-200262165D01*
X120886000Y-200262165D02*
X121194000Y-200262165D01*
X121194000Y-200262165D02*
X121194116Y-199954000D01*
X121194116Y-199954000D02*
X121502495Y-199954000D01*
X121502495Y-199954000D02*
X121502000Y-199646000D01*
X121502000Y-199646000D02*
X121220000Y-199646000D01*
X121220000Y-199646000D02*
X120886000Y-199980000D01*
G36*
X121502495Y-199954000D02*
G01*
X121194116Y-199954000D01*
X121194000Y-200262165D01*
X120886000Y-200262165D01*
X120886000Y-199980000D01*
X121220000Y-199646000D01*
X121502000Y-199646000D01*
X121502495Y-199954000D01*
G37*
X121502495Y-199954000D02*
X121194116Y-199954000D01*
X121194000Y-200262165D01*
X120886000Y-200262165D01*
X120886000Y-199980000D01*
X121220000Y-199646000D01*
X121502000Y-199646000D01*
X121502495Y-199954000D01*
%TO.C,AE1*%
X156068264Y-155805651D02*
X156325651Y-155548264D01*
X156325651Y-155548264D02*
X149254208Y-148476822D01*
X149254208Y-148476822D02*
X148996822Y-148734208D01*
X148996822Y-148734208D02*
X156068264Y-155805651D01*
G36*
X156325651Y-155548264D02*
G01*
X156068264Y-155805651D01*
X148996822Y-148734208D01*
X149254208Y-148476822D01*
X156325651Y-155548264D01*
G37*
X156325651Y-155548264D02*
X156068264Y-155805651D01*
X148996822Y-148734208D01*
X149254208Y-148476822D01*
X156325651Y-155548264D01*
X156772463Y-155101293D02*
X155621293Y-156252463D01*
X155621293Y-156252463D02*
X153004998Y-153636168D01*
X153004998Y-153636168D02*
X147244906Y-159396259D01*
X147244906Y-159396259D02*
X156083741Y-168235094D01*
X156083741Y-168235094D02*
X168755094Y-155563741D01*
X168755094Y-155563741D02*
X159916259Y-146724906D01*
X159916259Y-146724906D02*
X154156168Y-152484998D01*
X154156168Y-152484998D02*
X156772463Y-155101293D01*
G36*
X168755094Y-155563741D02*
G01*
X156083741Y-168235094D01*
X147244906Y-159396259D01*
X153004998Y-153636168D01*
X155621293Y-156252463D01*
X156772463Y-155101293D01*
X154156168Y-152484998D01*
X159916259Y-146724906D01*
X168755094Y-155563741D01*
G37*
X168755094Y-155563741D02*
X156083741Y-168235094D01*
X147244906Y-159396259D01*
X153004998Y-153636168D01*
X155621293Y-156252463D01*
X156772463Y-155101293D01*
X154156168Y-152484998D01*
X159916259Y-146724906D01*
X168755094Y-155563741D01*
%TO.C,REF\u002A\u002A*%
X113221000Y-184021000D02*
X114890727Y-184021000D01*
X114890727Y-184021000D02*
X114890727Y-183229000D01*
X114890727Y-183229000D02*
X112891000Y-183229000D01*
X112891000Y-183229000D02*
X112891000Y-183691000D01*
X112891000Y-183691000D02*
X113221000Y-184021000D01*
G36*
X114890727Y-184021000D02*
G01*
X113221000Y-184021000D01*
X112891000Y-183691000D01*
X112891000Y-183229000D01*
X114890727Y-183229000D01*
X114890727Y-184021000D01*
G37*
X114890727Y-184021000D02*
X113221000Y-184021000D01*
X112891000Y-183691000D01*
X112891000Y-183229000D01*
X114890727Y-183229000D01*
X114890727Y-184021000D01*
X112891000Y-177704295D02*
X112099000Y-177704295D01*
X112099000Y-177704295D02*
X112099000Y-182899000D01*
X112099000Y-182899000D02*
X112891000Y-183691000D01*
X112891000Y-183691000D02*
X112891000Y-183229000D01*
X112891000Y-183229000D02*
X112891000Y-177704295D01*
G36*
X112891000Y-183691000D02*
G01*
X112099000Y-182899000D01*
X112099000Y-177704295D01*
X112891000Y-177704295D01*
X112891000Y-183691000D01*
G37*
X112891000Y-183691000D02*
X112099000Y-182899000D01*
X112099000Y-177704295D01*
X112891000Y-177704295D01*
X112891000Y-183691000D01*
%TO.C,AE4*%
X128808264Y-128545651D02*
X129065651Y-128288264D01*
X129065651Y-128288264D02*
X121994208Y-121216822D01*
X121994208Y-121216822D02*
X121736822Y-121474208D01*
X121736822Y-121474208D02*
X128808264Y-128545651D01*
G36*
X129065651Y-128288264D02*
G01*
X128808264Y-128545651D01*
X121736822Y-121474208D01*
X121994208Y-121216822D01*
X129065651Y-128288264D01*
G37*
X129065651Y-128288264D02*
X128808264Y-128545651D01*
X121736822Y-121474208D01*
X121994208Y-121216822D01*
X129065651Y-128288264D01*
X129512463Y-127841293D02*
X128361293Y-128992463D01*
X128361293Y-128992463D02*
X125744998Y-126376168D01*
X125744998Y-126376168D02*
X119984906Y-132136259D01*
X119984906Y-132136259D02*
X128823741Y-140975094D01*
X128823741Y-140975094D02*
X141495094Y-128303741D01*
X141495094Y-128303741D02*
X132656259Y-119464906D01*
X132656259Y-119464906D02*
X126896168Y-125224998D01*
X126896168Y-125224998D02*
X129512463Y-127841293D01*
G36*
X141495094Y-128303741D02*
G01*
X128823741Y-140975094D01*
X119984906Y-132136259D01*
X125744998Y-126376168D01*
X128361293Y-128992463D01*
X129512463Y-127841293D01*
X126896168Y-125224998D01*
X132656259Y-119464906D01*
X141495094Y-128303741D01*
G37*
X141495094Y-128303741D02*
X128823741Y-140975094D01*
X119984906Y-132136259D01*
X125744998Y-126376168D01*
X128361293Y-128992463D01*
X129512463Y-127841293D01*
X126896168Y-125224998D01*
X132656259Y-119464906D01*
X141495094Y-128303741D01*
%TO.C,AA5*%
X115220000Y-197409000D02*
X115502165Y-197409000D01*
X115502165Y-197409000D02*
X115502165Y-197101000D01*
X115502165Y-197101000D02*
X115194000Y-197100884D01*
X115194000Y-197100884D02*
X115194000Y-196792505D01*
X115194000Y-196792505D02*
X114886000Y-196793000D01*
X114886000Y-196793000D02*
X114886000Y-197075000D01*
X114886000Y-197075000D02*
X115220000Y-197409000D01*
G36*
X115194000Y-197100884D02*
G01*
X115502165Y-197101000D01*
X115502165Y-197409000D01*
X115220000Y-197409000D01*
X114886000Y-197075000D01*
X114886000Y-196793000D01*
X115194000Y-196792505D01*
X115194000Y-197100884D01*
G37*
X115194000Y-197100884D02*
X115502165Y-197101000D01*
X115502165Y-197409000D01*
X115220000Y-197409000D01*
X114886000Y-197075000D01*
X114886000Y-196793000D01*
X115194000Y-196792505D01*
X115194000Y-197100884D01*
%TO.C,AE5*%
X156068264Y-210325651D02*
X156325651Y-210068264D01*
X156325651Y-210068264D02*
X149254208Y-202996822D01*
X149254208Y-202996822D02*
X148996822Y-203254208D01*
X148996822Y-203254208D02*
X156068264Y-210325651D01*
G36*
X156325651Y-210068264D02*
G01*
X156068264Y-210325651D01*
X148996822Y-203254208D01*
X149254208Y-202996822D01*
X156325651Y-210068264D01*
G37*
X156325651Y-210068264D02*
X156068264Y-210325651D01*
X148996822Y-203254208D01*
X149254208Y-202996822D01*
X156325651Y-210068264D01*
X156772463Y-209621293D02*
X155621293Y-210772463D01*
X155621293Y-210772463D02*
X153004998Y-208156168D01*
X153004998Y-208156168D02*
X147244906Y-213916259D01*
X147244906Y-213916259D02*
X156083741Y-222755094D01*
X156083741Y-222755094D02*
X168755094Y-210083741D01*
X168755094Y-210083741D02*
X159916259Y-201244906D01*
X159916259Y-201244906D02*
X154156168Y-207004998D01*
X154156168Y-207004998D02*
X156772463Y-209621293D01*
G36*
X168755094Y-210083741D02*
G01*
X156083741Y-222755094D01*
X147244906Y-213916259D01*
X153004998Y-208156168D01*
X155621293Y-210772463D01*
X156772463Y-209621293D01*
X154156168Y-207004998D01*
X159916259Y-201244906D01*
X168755094Y-210083741D01*
G37*
X168755094Y-210083741D02*
X156083741Y-222755094D01*
X147244906Y-213916259D01*
X153004998Y-208156168D01*
X155621293Y-210772463D01*
X156772463Y-209621293D01*
X154156168Y-207004998D01*
X159916259Y-201244906D01*
X168755094Y-210083741D01*
%TO.C,AE3*%
X128808264Y-155805651D02*
X129065651Y-155548264D01*
X129065651Y-155548264D02*
X121994208Y-148476822D01*
X121994208Y-148476822D02*
X121736822Y-148734208D01*
X121736822Y-148734208D02*
X128808264Y-155805651D01*
G36*
X129065651Y-155548264D02*
G01*
X128808264Y-155805651D01*
X121736822Y-148734208D01*
X121994208Y-148476822D01*
X129065651Y-155548264D01*
G37*
X129065651Y-155548264D02*
X128808264Y-155805651D01*
X121736822Y-148734208D01*
X121994208Y-148476822D01*
X129065651Y-155548264D01*
X129512463Y-155101293D02*
X128361293Y-156252463D01*
X128361293Y-156252463D02*
X125744998Y-153636168D01*
X125744998Y-153636168D02*
X119984906Y-159396259D01*
X119984906Y-159396259D02*
X128823741Y-168235094D01*
X128823741Y-168235094D02*
X141495094Y-155563741D01*
X141495094Y-155563741D02*
X132656259Y-146724906D01*
X132656259Y-146724906D02*
X126896168Y-152484998D01*
X126896168Y-152484998D02*
X129512463Y-155101293D01*
G36*
X141495094Y-155563741D02*
G01*
X128823741Y-168235094D01*
X119984906Y-159396259D01*
X125744998Y-153636168D01*
X128361293Y-156252463D01*
X129512463Y-155101293D01*
X126896168Y-152484998D01*
X132656259Y-146724906D01*
X141495094Y-155563741D01*
G37*
X141495094Y-155563741D02*
X128823741Y-168235094D01*
X119984906Y-159396259D01*
X125744998Y-153636168D01*
X128361293Y-156252463D01*
X129512463Y-155101293D01*
X126896168Y-152484998D01*
X132656259Y-146724906D01*
X141495094Y-155563741D01*
%TO.C,AE6*%
X156068264Y-183065651D02*
X156325651Y-182808264D01*
X156325651Y-182808264D02*
X149254208Y-175736822D01*
X149254208Y-175736822D02*
X148996822Y-175994208D01*
X148996822Y-175994208D02*
X156068264Y-183065651D01*
G36*
X156325651Y-182808264D02*
G01*
X156068264Y-183065651D01*
X148996822Y-175994208D01*
X149254208Y-175736822D01*
X156325651Y-182808264D01*
G37*
X156325651Y-182808264D02*
X156068264Y-183065651D01*
X148996822Y-175994208D01*
X149254208Y-175736822D01*
X156325651Y-182808264D01*
X156772463Y-182361293D02*
X155621293Y-183512463D01*
X155621293Y-183512463D02*
X153004998Y-180896168D01*
X153004998Y-180896168D02*
X147244906Y-186656259D01*
X147244906Y-186656259D02*
X156083741Y-195495094D01*
X156083741Y-195495094D02*
X168755094Y-182823741D01*
X168755094Y-182823741D02*
X159916259Y-173984906D01*
X159916259Y-173984906D02*
X154156168Y-179744998D01*
X154156168Y-179744998D02*
X156772463Y-182361293D01*
G36*
X168755094Y-182823741D02*
G01*
X156083741Y-195495094D01*
X147244906Y-186656259D01*
X153004998Y-180896168D01*
X155621293Y-183512463D01*
X156772463Y-182361293D01*
X154156168Y-179744998D01*
X159916259Y-173984906D01*
X168755094Y-182823741D01*
G37*
X168755094Y-182823741D02*
X156083741Y-195495094D01*
X147244906Y-186656259D01*
X153004998Y-180896168D01*
X155621293Y-183512463D01*
X156772463Y-182361293D01*
X154156168Y-179744998D01*
X159916259Y-173984906D01*
X168755094Y-182823741D01*
%TO.C,REF\u002A\u002A*%
X113221000Y-128709000D02*
X114890727Y-128709000D01*
X114890727Y-128709000D02*
X114890727Y-129501000D01*
X114890727Y-129501000D02*
X112891000Y-129501000D01*
X112891000Y-129501000D02*
X112891000Y-129039000D01*
X112891000Y-129039000D02*
X113221000Y-128709000D01*
G36*
X114890727Y-129501000D02*
G01*
X112891000Y-129501000D01*
X112891000Y-129039000D01*
X113221000Y-128709000D01*
X114890727Y-128709000D01*
X114890727Y-129501000D01*
G37*
X114890727Y-129501000D02*
X112891000Y-129501000D01*
X112891000Y-129039000D01*
X113221000Y-128709000D01*
X114890727Y-128709000D01*
X114890727Y-129501000D01*
X112891000Y-135025705D02*
X112099000Y-135025705D01*
X112099000Y-135025705D02*
X112099000Y-129831000D01*
X112099000Y-129831000D02*
X112891000Y-129039000D01*
X112891000Y-129039000D02*
X112891000Y-129501000D01*
X112891000Y-129501000D02*
X112891000Y-135025705D01*
G36*
X112891000Y-135025705D02*
G01*
X112099000Y-135025705D01*
X112099000Y-129831000D01*
X112891000Y-129039000D01*
X112891000Y-135025705D01*
G37*
X112891000Y-135025705D02*
X112099000Y-135025705D01*
X112099000Y-129831000D01*
X112891000Y-129039000D01*
X112891000Y-135025705D01*
%TO.C,AE7*%
X128808264Y-210325651D02*
X129065651Y-210068264D01*
X129065651Y-210068264D02*
X121994208Y-202996822D01*
X121994208Y-202996822D02*
X121736822Y-203254208D01*
X121736822Y-203254208D02*
X128808264Y-210325651D01*
G36*
X129065651Y-210068264D02*
G01*
X128808264Y-210325651D01*
X121736822Y-203254208D01*
X121994208Y-202996822D01*
X129065651Y-210068264D01*
G37*
X129065651Y-210068264D02*
X128808264Y-210325651D01*
X121736822Y-203254208D01*
X121994208Y-202996822D01*
X129065651Y-210068264D01*
X129512463Y-209621293D02*
X128361293Y-210772463D01*
X128361293Y-210772463D02*
X125744998Y-208156168D01*
X125744998Y-208156168D02*
X119984906Y-213916259D01*
X119984906Y-213916259D02*
X128823741Y-222755094D01*
X128823741Y-222755094D02*
X141495094Y-210083741D01*
X141495094Y-210083741D02*
X132656259Y-201244906D01*
X132656259Y-201244906D02*
X126896168Y-207004998D01*
X126896168Y-207004998D02*
X129512463Y-209621293D01*
G36*
X141495094Y-210083741D02*
G01*
X128823741Y-222755094D01*
X119984906Y-213916259D01*
X125744998Y-208156168D01*
X128361293Y-210772463D01*
X129512463Y-209621293D01*
X126896168Y-207004998D01*
X132656259Y-201244906D01*
X141495094Y-210083741D01*
G37*
X141495094Y-210083741D02*
X128823741Y-222755094D01*
X119984906Y-213916259D01*
X125744998Y-208156168D01*
X128361293Y-210772463D01*
X129512463Y-209621293D01*
X126896168Y-207004998D01*
X132656259Y-201244906D01*
X141495094Y-210083741D01*
%TO.C,AE2*%
X31338707Y-17252463D02*
X30187537Y-16101293D01*
X30187537Y-16101293D02*
X32803832Y-13484998D01*
X32803832Y-13484998D02*
X27043741Y-7724906D01*
X27043741Y-7724906D02*
X18204906Y-16563741D01*
X18204906Y-16563741D02*
X30876259Y-29235094D01*
X30876259Y-29235094D02*
X39715094Y-20396259D01*
X39715094Y-20396259D02*
X33955002Y-14636168D01*
X33955002Y-14636168D02*
X31338707Y-17252463D01*
G36*
X32803832Y-13484998D02*
G01*
X30187537Y-16101293D01*
X31338707Y-17252463D01*
X33955002Y-14636168D01*
X39715094Y-20396259D01*
X30876259Y-29235094D01*
X18204906Y-16563741D01*
X27043741Y-7724906D01*
X32803832Y-13484998D01*
G37*
X32803832Y-13484998D02*
X30187537Y-16101293D01*
X31338707Y-17252463D01*
X33955002Y-14636168D01*
X39715094Y-20396259D01*
X30876259Y-29235094D01*
X18204906Y-16563741D01*
X27043741Y-7724906D01*
X32803832Y-13484998D01*
X30634349Y-16548264D02*
X30891736Y-16805651D01*
X30891736Y-16805651D02*
X37963178Y-9734208D01*
X37963178Y-9734208D02*
X37705792Y-9476822D01*
X37705792Y-9476822D02*
X30634349Y-16548264D01*
G36*
X37963178Y-9734208D02*
G01*
X30891736Y-16805651D01*
X30634349Y-16548264D01*
X37705792Y-9476822D01*
X37963178Y-9734208D01*
G37*
X37963178Y-9734208D02*
X30891736Y-16805651D01*
X30634349Y-16548264D01*
X37705792Y-9476822D01*
X37963178Y-9734208D01*
%TO.C,AA12*%
X85154000Y-212080000D02*
X85154000Y-211797835D01*
X85154000Y-211797835D02*
X84846000Y-211797835D01*
X84846000Y-211797835D02*
X84845884Y-212106000D01*
X84845884Y-212106000D02*
X84537505Y-212106000D01*
X84537505Y-212106000D02*
X84538000Y-212414000D01*
X84538000Y-212414000D02*
X84820000Y-212414000D01*
X84820000Y-212414000D02*
X85154000Y-212080000D01*
G36*
X85154000Y-212080000D02*
G01*
X84820000Y-212414000D01*
X84538000Y-212414000D01*
X84537505Y-212106000D01*
X84845884Y-212106000D01*
X84846000Y-211797835D01*
X85154000Y-211797835D01*
X85154000Y-212080000D01*
G37*
X85154000Y-212080000D02*
X84820000Y-212414000D01*
X84538000Y-212414000D01*
X84537505Y-212106000D01*
X84845884Y-212106000D01*
X84846000Y-211797835D01*
X85154000Y-211797835D01*
X85154000Y-212080000D01*
%TO.C,AE3*%
X46419887Y-130298000D02*
X46419887Y-130662000D01*
X46419887Y-130662000D02*
X56420417Y-130662000D01*
X56420417Y-130662000D02*
X56420417Y-130298000D01*
X56420417Y-130298000D02*
X46419887Y-130298000D01*
G36*
X56420417Y-130662000D02*
G01*
X46419887Y-130662000D01*
X46419887Y-130298000D01*
X56420417Y-130298000D01*
X56420417Y-130662000D01*
G37*
X56420417Y-130662000D02*
X46419887Y-130662000D01*
X46419887Y-130298000D01*
X56420417Y-130298000D01*
X56420417Y-130662000D01*
X46420000Y-131294000D02*
X46420000Y-129666000D01*
X46420000Y-129666000D02*
X50120000Y-129666000D01*
X50120000Y-129666000D02*
X50120000Y-121520000D01*
X50120000Y-121520000D02*
X37620000Y-121520000D01*
X37620000Y-121520000D02*
X37620000Y-139440000D01*
X37620000Y-139440000D02*
X50120000Y-139440000D01*
X50120000Y-139440000D02*
X50120000Y-131294000D01*
X50120000Y-131294000D02*
X46420000Y-131294000D01*
G36*
X50120000Y-129666000D02*
G01*
X46420000Y-129666000D01*
X46420000Y-131294000D01*
X50120000Y-131294000D01*
X50120000Y-139440000D01*
X37620000Y-139440000D01*
X37620000Y-121520000D01*
X50120000Y-121520000D01*
X50120000Y-129666000D01*
G37*
X50120000Y-129666000D02*
X46420000Y-129666000D01*
X46420000Y-131294000D01*
X50120000Y-131294000D01*
X50120000Y-139440000D01*
X37620000Y-139440000D01*
X37620000Y-121520000D01*
X50120000Y-121520000D01*
X50120000Y-129666000D01*
%TO.C,AE2*%
X73679887Y-157558000D02*
X73679887Y-157922000D01*
X73679887Y-157922000D02*
X83680417Y-157922000D01*
X83680417Y-157922000D02*
X83680417Y-157558000D01*
X83680417Y-157558000D02*
X73679887Y-157558000D01*
G36*
X83680417Y-157922000D02*
G01*
X73679887Y-157922000D01*
X73679887Y-157558000D01*
X83680417Y-157558000D01*
X83680417Y-157922000D01*
G37*
X83680417Y-157922000D02*
X73679887Y-157922000D01*
X73679887Y-157558000D01*
X83680417Y-157558000D01*
X83680417Y-157922000D01*
X73680000Y-158554000D02*
X73680000Y-156926000D01*
X73680000Y-156926000D02*
X77380000Y-156926000D01*
X77380000Y-156926000D02*
X77380000Y-148780000D01*
X77380000Y-148780000D02*
X64880000Y-148780000D01*
X64880000Y-148780000D02*
X64880000Y-166700000D01*
X64880000Y-166700000D02*
X77380000Y-166700000D01*
X77380000Y-166700000D02*
X77380000Y-158554000D01*
X77380000Y-158554000D02*
X73680000Y-158554000D01*
G36*
X77380000Y-156926000D02*
G01*
X73680000Y-156926000D01*
X73680000Y-158554000D01*
X77380000Y-158554000D01*
X77380000Y-166700000D01*
X64880000Y-166700000D01*
X64880000Y-148780000D01*
X77380000Y-148780000D01*
X77380000Y-156926000D01*
G37*
X77380000Y-156926000D02*
X73680000Y-156926000D01*
X73680000Y-158554000D01*
X77380000Y-158554000D01*
X77380000Y-166700000D01*
X64880000Y-166700000D01*
X64880000Y-148780000D01*
X77380000Y-148780000D01*
X77380000Y-156926000D01*
%TO.C,AE1*%
X46419887Y-157558000D02*
X46419887Y-157922000D01*
X46419887Y-157922000D02*
X56420417Y-157922000D01*
X56420417Y-157922000D02*
X56420417Y-157558000D01*
X56420417Y-157558000D02*
X46419887Y-157558000D01*
G36*
X56420417Y-157922000D02*
G01*
X46419887Y-157922000D01*
X46419887Y-157558000D01*
X56420417Y-157558000D01*
X56420417Y-157922000D01*
G37*
X56420417Y-157922000D02*
X46419887Y-157922000D01*
X46419887Y-157558000D01*
X56420417Y-157558000D01*
X56420417Y-157922000D01*
X46420000Y-158554000D02*
X46420000Y-156926000D01*
X46420000Y-156926000D02*
X50120000Y-156926000D01*
X50120000Y-156926000D02*
X50120000Y-148780000D01*
X50120000Y-148780000D02*
X37620000Y-148780000D01*
X37620000Y-148780000D02*
X37620000Y-166700000D01*
X37620000Y-166700000D02*
X50120000Y-166700000D01*
X50120000Y-166700000D02*
X50120000Y-158554000D01*
X50120000Y-158554000D02*
X46420000Y-158554000D01*
G36*
X50120000Y-156926000D02*
G01*
X46420000Y-156926000D01*
X46420000Y-158554000D01*
X50120000Y-158554000D01*
X50120000Y-166700000D01*
X37620000Y-166700000D01*
X37620000Y-148780000D01*
X50120000Y-148780000D01*
X50120000Y-156926000D01*
G37*
X50120000Y-156926000D02*
X46420000Y-156926000D01*
X46420000Y-158554000D01*
X50120000Y-158554000D01*
X50120000Y-166700000D01*
X37620000Y-166700000D01*
X37620000Y-148780000D01*
X50120000Y-148780000D01*
X50120000Y-156926000D01*
%TO.C,AA9*%
X57894000Y-212080000D02*
X57894000Y-211797835D01*
X57894000Y-211797835D02*
X57586000Y-211797835D01*
X57586000Y-211797835D02*
X57585884Y-212106000D01*
X57585884Y-212106000D02*
X57277505Y-212106000D01*
X57277505Y-212106000D02*
X57278000Y-212414000D01*
X57278000Y-212414000D02*
X57560000Y-212414000D01*
X57560000Y-212414000D02*
X57894000Y-212080000D01*
G36*
X57894000Y-212080000D02*
G01*
X57560000Y-212414000D01*
X57278000Y-212414000D01*
X57277505Y-212106000D01*
X57585884Y-212106000D01*
X57586000Y-211797835D01*
X57894000Y-211797835D01*
X57894000Y-212080000D01*
G37*
X57894000Y-212080000D02*
X57560000Y-212414000D01*
X57278000Y-212414000D01*
X57277505Y-212106000D01*
X57585884Y-212106000D01*
X57586000Y-211797835D01*
X57894000Y-211797835D01*
X57894000Y-212080000D01*
%TO.C,AA10*%
X57586000Y-200269000D02*
X57586000Y-200551165D01*
X57586000Y-200551165D02*
X57894000Y-200551165D01*
X57894000Y-200551165D02*
X57894116Y-200243000D01*
X57894116Y-200243000D02*
X58202495Y-200243000D01*
X58202495Y-200243000D02*
X58202000Y-199935000D01*
X58202000Y-199935000D02*
X57920000Y-199935000D01*
X57920000Y-199935000D02*
X57586000Y-200269000D01*
G36*
X58202495Y-200243000D02*
G01*
X57894116Y-200243000D01*
X57894000Y-200551165D01*
X57586000Y-200551165D01*
X57586000Y-200269000D01*
X57920000Y-199935000D01*
X58202000Y-199935000D01*
X58202495Y-200243000D01*
G37*
X58202495Y-200243000D02*
X57894116Y-200243000D01*
X57894000Y-200551165D01*
X57586000Y-200551165D01*
X57586000Y-200269000D01*
X57920000Y-199935000D01*
X58202000Y-199935000D01*
X58202495Y-200243000D01*
%TO.C,AE4*%
X73679887Y-130298000D02*
X73679887Y-130662000D01*
X73679887Y-130662000D02*
X83680417Y-130662000D01*
X83680417Y-130662000D02*
X83680417Y-130298000D01*
X83680417Y-130298000D02*
X73679887Y-130298000D01*
G36*
X83680417Y-130662000D02*
G01*
X73679887Y-130662000D01*
X73679887Y-130298000D01*
X83680417Y-130298000D01*
X83680417Y-130662000D01*
G37*
X83680417Y-130662000D02*
X73679887Y-130662000D01*
X73679887Y-130298000D01*
X83680417Y-130298000D01*
X83680417Y-130662000D01*
X73680000Y-131294000D02*
X73680000Y-129666000D01*
X73680000Y-129666000D02*
X77380000Y-129666000D01*
X77380000Y-129666000D02*
X77380000Y-121520000D01*
X77380000Y-121520000D02*
X64880000Y-121520000D01*
X64880000Y-121520000D02*
X64880000Y-139440000D01*
X64880000Y-139440000D02*
X77380000Y-139440000D01*
X77380000Y-139440000D02*
X77380000Y-131294000D01*
X77380000Y-131294000D02*
X73680000Y-131294000D01*
G36*
X77380000Y-129666000D02*
G01*
X73680000Y-129666000D01*
X73680000Y-131294000D01*
X77380000Y-131294000D01*
X77380000Y-139440000D01*
X64880000Y-139440000D01*
X64880000Y-121520000D01*
X77380000Y-121520000D01*
X77380000Y-129666000D01*
G37*
X77380000Y-129666000D02*
X73680000Y-129666000D01*
X73680000Y-131294000D01*
X77380000Y-131294000D01*
X77380000Y-139440000D01*
X64880000Y-139440000D01*
X64880000Y-121520000D01*
X77380000Y-121520000D01*
X77380000Y-129666000D01*
%TO.C,AE5*%
X46419887Y-212078000D02*
X46419887Y-212442000D01*
X46419887Y-212442000D02*
X56420417Y-212442000D01*
X56420417Y-212442000D02*
X56420417Y-212078000D01*
X56420417Y-212078000D02*
X46419887Y-212078000D01*
G36*
X56420417Y-212442000D02*
G01*
X46419887Y-212442000D01*
X46419887Y-212078000D01*
X56420417Y-212078000D01*
X56420417Y-212442000D01*
G37*
X56420417Y-212442000D02*
X46419887Y-212442000D01*
X46419887Y-212078000D01*
X56420417Y-212078000D01*
X56420417Y-212442000D01*
X46420000Y-213074000D02*
X46420000Y-211446000D01*
X46420000Y-211446000D02*
X50120000Y-211446000D01*
X50120000Y-211446000D02*
X50120000Y-203300000D01*
X50120000Y-203300000D02*
X37620000Y-203300000D01*
X37620000Y-203300000D02*
X37620000Y-221220000D01*
X37620000Y-221220000D02*
X50120000Y-221220000D01*
X50120000Y-221220000D02*
X50120000Y-213074000D01*
X50120000Y-213074000D02*
X46420000Y-213074000D01*
G36*
X50120000Y-211446000D02*
G01*
X46420000Y-211446000D01*
X46420000Y-213074000D01*
X50120000Y-213074000D01*
X50120000Y-221220000D01*
X37620000Y-221220000D01*
X37620000Y-203300000D01*
X50120000Y-203300000D01*
X50120000Y-211446000D01*
G37*
X50120000Y-211446000D02*
X46420000Y-211446000D01*
X46420000Y-213074000D01*
X50120000Y-213074000D01*
X50120000Y-221220000D01*
X37620000Y-221220000D01*
X37620000Y-203300000D01*
X50120000Y-203300000D01*
X50120000Y-211446000D01*
%TO.C,AA11*%
X84820000Y-199935000D02*
X84537835Y-199935000D01*
X84537835Y-199935000D02*
X84537835Y-200243000D01*
X84537835Y-200243000D02*
X84846000Y-200243116D01*
X84846000Y-200243116D02*
X84846000Y-200551495D01*
X84846000Y-200551495D02*
X85154000Y-200551000D01*
X85154000Y-200551000D02*
X85154000Y-200269000D01*
X85154000Y-200269000D02*
X84820000Y-199935000D01*
G36*
X85154000Y-200269000D02*
G01*
X85154000Y-200551000D01*
X84846000Y-200551495D01*
X84846000Y-200243116D01*
X84537835Y-200243000D01*
X84537835Y-199935000D01*
X84820000Y-199935000D01*
X85154000Y-200269000D01*
G37*
X85154000Y-200269000D02*
X85154000Y-200551000D01*
X84846000Y-200551495D01*
X84846000Y-200243116D01*
X84537835Y-200243000D01*
X84537835Y-199935000D01*
X84820000Y-199935000D01*
X85154000Y-200269000D01*
%TO.C,AE7*%
X46419887Y-184818000D02*
X46419887Y-185182000D01*
X46419887Y-185182000D02*
X56420417Y-185182000D01*
X56420417Y-185182000D02*
X56420417Y-184818000D01*
X56420417Y-184818000D02*
X46419887Y-184818000D01*
G36*
X56420417Y-185182000D02*
G01*
X46419887Y-185182000D01*
X46419887Y-184818000D01*
X56420417Y-184818000D01*
X56420417Y-185182000D01*
G37*
X56420417Y-185182000D02*
X46419887Y-185182000D01*
X46419887Y-184818000D01*
X56420417Y-184818000D01*
X56420417Y-185182000D01*
X46420000Y-185814000D02*
X46420000Y-184186000D01*
X46420000Y-184186000D02*
X50120000Y-184186000D01*
X50120000Y-184186000D02*
X50120000Y-176040000D01*
X50120000Y-176040000D02*
X37620000Y-176040000D01*
X37620000Y-176040000D02*
X37620000Y-193960000D01*
X37620000Y-193960000D02*
X50120000Y-193960000D01*
X50120000Y-193960000D02*
X50120000Y-185814000D01*
X50120000Y-185814000D02*
X46420000Y-185814000D01*
G36*
X50120000Y-184186000D02*
G01*
X46420000Y-184186000D01*
X46420000Y-185814000D01*
X50120000Y-185814000D01*
X50120000Y-193960000D01*
X37620000Y-193960000D01*
X37620000Y-176040000D01*
X50120000Y-176040000D01*
X50120000Y-184186000D01*
G37*
X50120000Y-184186000D02*
X46420000Y-184186000D01*
X46420000Y-185814000D01*
X50120000Y-185814000D01*
X50120000Y-193960000D01*
X37620000Y-193960000D01*
X37620000Y-176040000D01*
X50120000Y-176040000D01*
X50120000Y-184186000D01*
%TO.C,AE8*%
X73679887Y-184818000D02*
X73679887Y-185182000D01*
X73679887Y-185182000D02*
X83680417Y-185182000D01*
X83680417Y-185182000D02*
X83680417Y-184818000D01*
X83680417Y-184818000D02*
X73679887Y-184818000D01*
G36*
X83680417Y-185182000D02*
G01*
X73679887Y-185182000D01*
X73679887Y-184818000D01*
X83680417Y-184818000D01*
X83680417Y-185182000D01*
G37*
X83680417Y-185182000D02*
X73679887Y-185182000D01*
X73679887Y-184818000D01*
X83680417Y-184818000D01*
X83680417Y-185182000D01*
X73680000Y-185814000D02*
X73680000Y-184186000D01*
X73680000Y-184186000D02*
X77380000Y-184186000D01*
X77380000Y-184186000D02*
X77380000Y-176040000D01*
X77380000Y-176040000D02*
X64880000Y-176040000D01*
X64880000Y-176040000D02*
X64880000Y-193960000D01*
X64880000Y-193960000D02*
X77380000Y-193960000D01*
X77380000Y-193960000D02*
X77380000Y-185814000D01*
X77380000Y-185814000D02*
X73680000Y-185814000D01*
G36*
X77380000Y-184186000D02*
G01*
X73680000Y-184186000D01*
X73680000Y-185814000D01*
X77380000Y-185814000D01*
X77380000Y-193960000D01*
X64880000Y-193960000D01*
X64880000Y-176040000D01*
X77380000Y-176040000D01*
X77380000Y-184186000D01*
G37*
X77380000Y-184186000D02*
X73680000Y-184186000D01*
X73680000Y-185814000D01*
X77380000Y-185814000D01*
X77380000Y-193960000D01*
X64880000Y-193960000D01*
X64880000Y-176040000D01*
X77380000Y-176040000D01*
X77380000Y-184186000D01*
%TO.C,AE6*%
X73679887Y-212078000D02*
X73679887Y-212442000D01*
X73679887Y-212442000D02*
X83680417Y-212442000D01*
X83680417Y-212442000D02*
X83680417Y-212078000D01*
X83680417Y-212078000D02*
X73679887Y-212078000D01*
G36*
X83680417Y-212442000D02*
G01*
X73679887Y-212442000D01*
X73679887Y-212078000D01*
X83680417Y-212078000D01*
X83680417Y-212442000D01*
G37*
X83680417Y-212442000D02*
X73679887Y-212442000D01*
X73679887Y-212078000D01*
X83680417Y-212078000D01*
X83680417Y-212442000D01*
X73680000Y-213074000D02*
X73680000Y-211446000D01*
X73680000Y-211446000D02*
X77380000Y-211446000D01*
X77380000Y-211446000D02*
X77380000Y-203300000D01*
X77380000Y-203300000D02*
X64880000Y-203300000D01*
X64880000Y-203300000D02*
X64880000Y-221220000D01*
X64880000Y-221220000D02*
X77380000Y-221220000D01*
X77380000Y-221220000D02*
X77380000Y-213074000D01*
X77380000Y-213074000D02*
X73680000Y-213074000D01*
G36*
X77380000Y-211446000D02*
G01*
X73680000Y-211446000D01*
X73680000Y-213074000D01*
X77380000Y-213074000D01*
X77380000Y-221220000D01*
X64880000Y-221220000D01*
X64880000Y-203300000D01*
X77380000Y-203300000D01*
X77380000Y-211446000D01*
G37*
X77380000Y-211446000D02*
X73680000Y-211446000D01*
X73680000Y-213074000D01*
X77380000Y-213074000D01*
X77380000Y-221220000D01*
X64880000Y-221220000D01*
X64880000Y-203300000D01*
X77380000Y-203300000D01*
X77380000Y-211446000D01*
%TO.C,AE8*%
X144182000Y-40289887D02*
X143818000Y-40289887D01*
X143818000Y-40289887D02*
X143818000Y-50290417D01*
X143818000Y-50290417D02*
X144182000Y-50290417D01*
X144182000Y-50290417D02*
X144182000Y-40289887D01*
G36*
X144182000Y-50290417D02*
G01*
X143818000Y-50290417D01*
X143818000Y-40289887D01*
X144182000Y-40289887D01*
X144182000Y-50290417D01*
G37*
X144182000Y-50290417D02*
X143818000Y-50290417D01*
X143818000Y-40289887D01*
X144182000Y-40289887D01*
X144182000Y-50290417D01*
X143186000Y-40290000D02*
X144814000Y-40290000D01*
X144814000Y-40290000D02*
X144814000Y-43990000D01*
X144814000Y-43990000D02*
X152960000Y-43990000D01*
X152960000Y-43990000D02*
X152960000Y-31490000D01*
X152960000Y-31490000D02*
X135040000Y-31490000D01*
X135040000Y-31490000D02*
X135040000Y-43990000D01*
X135040000Y-43990000D02*
X143186000Y-43990000D01*
X143186000Y-43990000D02*
X143186000Y-40290000D01*
G36*
X152960000Y-43990000D02*
G01*
X144814000Y-43990000D01*
X144814000Y-40290000D01*
X143186000Y-40290000D01*
X143186000Y-43990000D01*
X135040000Y-43990000D01*
X135040000Y-31490000D01*
X152960000Y-31490000D01*
X152960000Y-43990000D01*
G37*
X152960000Y-43990000D02*
X144814000Y-43990000D01*
X144814000Y-40290000D01*
X143186000Y-40290000D01*
X143186000Y-43990000D01*
X135040000Y-43990000D01*
X135040000Y-31490000D01*
X152960000Y-31490000D01*
X152960000Y-43990000D01*
%TO.C,AE7*%
X144182000Y-13029887D02*
X143818000Y-13029887D01*
X143818000Y-13029887D02*
X143818000Y-23030417D01*
X143818000Y-23030417D02*
X144182000Y-23030417D01*
X144182000Y-23030417D02*
X144182000Y-13029887D01*
G36*
X144182000Y-23030417D02*
G01*
X143818000Y-23030417D01*
X143818000Y-13029887D01*
X144182000Y-13029887D01*
X144182000Y-23030417D01*
G37*
X144182000Y-23030417D02*
X143818000Y-23030417D01*
X143818000Y-13029887D01*
X144182000Y-13029887D01*
X144182000Y-23030417D01*
X143186000Y-13030000D02*
X144814000Y-13030000D01*
X144814000Y-13030000D02*
X144814000Y-16730000D01*
X144814000Y-16730000D02*
X152960000Y-16730000D01*
X152960000Y-16730000D02*
X152960000Y-4230000D01*
X152960000Y-4230000D02*
X135040000Y-4230000D01*
X135040000Y-4230000D02*
X135040000Y-16730000D01*
X135040000Y-16730000D02*
X143186000Y-16730000D01*
X143186000Y-16730000D02*
X143186000Y-13030000D01*
G36*
X152960000Y-16730000D02*
G01*
X144814000Y-16730000D01*
X144814000Y-13030000D01*
X143186000Y-13030000D01*
X143186000Y-16730000D01*
X135040000Y-16730000D01*
X135040000Y-4230000D01*
X152960000Y-4230000D01*
X152960000Y-16730000D01*
G37*
X152960000Y-16730000D02*
X144814000Y-16730000D01*
X144814000Y-13030000D01*
X143186000Y-13030000D01*
X143186000Y-16730000D01*
X135040000Y-16730000D01*
X135040000Y-4230000D01*
X152960000Y-4230000D01*
X152960000Y-16730000D01*
%TO.C,AE6*%
X116922000Y-40289887D02*
X116558000Y-40289887D01*
X116558000Y-40289887D02*
X116558000Y-50290417D01*
X116558000Y-50290417D02*
X116922000Y-50290417D01*
X116922000Y-50290417D02*
X116922000Y-40289887D01*
G36*
X116922000Y-50290417D02*
G01*
X116558000Y-50290417D01*
X116558000Y-40289887D01*
X116922000Y-40289887D01*
X116922000Y-50290417D01*
G37*
X116922000Y-50290417D02*
X116558000Y-50290417D01*
X116558000Y-40289887D01*
X116922000Y-40289887D01*
X116922000Y-50290417D01*
X115926000Y-40290000D02*
X117554000Y-40290000D01*
X117554000Y-40290000D02*
X117554000Y-43990000D01*
X117554000Y-43990000D02*
X125700000Y-43990000D01*
X125700000Y-43990000D02*
X125700000Y-31490000D01*
X125700000Y-31490000D02*
X107780000Y-31490000D01*
X107780000Y-31490000D02*
X107780000Y-43990000D01*
X107780000Y-43990000D02*
X115926000Y-43990000D01*
X115926000Y-43990000D02*
X115926000Y-40290000D01*
G36*
X125700000Y-43990000D02*
G01*
X117554000Y-43990000D01*
X117554000Y-40290000D01*
X115926000Y-40290000D01*
X115926000Y-43990000D01*
X107780000Y-43990000D01*
X107780000Y-31490000D01*
X125700000Y-31490000D01*
X125700000Y-43990000D01*
G37*
X125700000Y-43990000D02*
X117554000Y-43990000D01*
X117554000Y-40290000D01*
X115926000Y-40290000D01*
X115926000Y-43990000D01*
X107780000Y-43990000D01*
X107780000Y-31490000D01*
X125700000Y-31490000D01*
X125700000Y-43990000D01*
%TO.C,AE5*%
X116922000Y-13029887D02*
X116558000Y-13029887D01*
X116558000Y-13029887D02*
X116558000Y-23030417D01*
X116558000Y-23030417D02*
X116922000Y-23030417D01*
X116922000Y-23030417D02*
X116922000Y-13029887D01*
G36*
X116922000Y-23030417D02*
G01*
X116558000Y-23030417D01*
X116558000Y-13029887D01*
X116922000Y-13029887D01*
X116922000Y-23030417D01*
G37*
X116922000Y-23030417D02*
X116558000Y-23030417D01*
X116558000Y-13029887D01*
X116922000Y-13029887D01*
X116922000Y-23030417D01*
X115926000Y-13030000D02*
X117554000Y-13030000D01*
X117554000Y-13030000D02*
X117554000Y-16730000D01*
X117554000Y-16730000D02*
X125700000Y-16730000D01*
X125700000Y-16730000D02*
X125700000Y-4230000D01*
X125700000Y-4230000D02*
X107780000Y-4230000D01*
X107780000Y-4230000D02*
X107780000Y-16730000D01*
X107780000Y-16730000D02*
X115926000Y-16730000D01*
X115926000Y-16730000D02*
X115926000Y-13030000D01*
G36*
X125700000Y-16730000D02*
G01*
X117554000Y-16730000D01*
X117554000Y-13030000D01*
X115926000Y-13030000D01*
X115926000Y-16730000D01*
X107780000Y-16730000D01*
X107780000Y-4230000D01*
X125700000Y-4230000D01*
X125700000Y-16730000D01*
G37*
X125700000Y-16730000D02*
X117554000Y-16730000D01*
X117554000Y-13030000D01*
X115926000Y-13030000D01*
X115926000Y-16730000D01*
X107780000Y-16730000D01*
X107780000Y-4230000D01*
X125700000Y-4230000D01*
X125700000Y-16730000D01*
%TO.C,AE4*%
X144182000Y-94809887D02*
X143818000Y-94809887D01*
X143818000Y-94809887D02*
X143818000Y-104810417D01*
X143818000Y-104810417D02*
X144182000Y-104810417D01*
X144182000Y-104810417D02*
X144182000Y-94809887D01*
G36*
X144182000Y-104810417D02*
G01*
X143818000Y-104810417D01*
X143818000Y-94809887D01*
X144182000Y-94809887D01*
X144182000Y-104810417D01*
G37*
X144182000Y-104810417D02*
X143818000Y-104810417D01*
X143818000Y-94809887D01*
X144182000Y-94809887D01*
X144182000Y-104810417D01*
X143186000Y-94810000D02*
X144814000Y-94810000D01*
X144814000Y-94810000D02*
X144814000Y-98510000D01*
X144814000Y-98510000D02*
X152960000Y-98510000D01*
X152960000Y-98510000D02*
X152960000Y-86010000D01*
X152960000Y-86010000D02*
X135040000Y-86010000D01*
X135040000Y-86010000D02*
X135040000Y-98510000D01*
X135040000Y-98510000D02*
X143186000Y-98510000D01*
X143186000Y-98510000D02*
X143186000Y-94810000D01*
G36*
X152960000Y-98510000D02*
G01*
X144814000Y-98510000D01*
X144814000Y-94810000D01*
X143186000Y-94810000D01*
X143186000Y-98510000D01*
X135040000Y-98510000D01*
X135040000Y-86010000D01*
X152960000Y-86010000D01*
X152960000Y-98510000D01*
G37*
X152960000Y-98510000D02*
X144814000Y-98510000D01*
X144814000Y-94810000D01*
X143186000Y-94810000D01*
X143186000Y-98510000D01*
X135040000Y-98510000D01*
X135040000Y-86010000D01*
X152960000Y-86010000D01*
X152960000Y-98510000D01*
%TO.C,AE3*%
X144182000Y-67549887D02*
X143818000Y-67549887D01*
X143818000Y-67549887D02*
X143818000Y-77550417D01*
X143818000Y-77550417D02*
X144182000Y-77550417D01*
X144182000Y-77550417D02*
X144182000Y-67549887D01*
G36*
X144182000Y-77550417D02*
G01*
X143818000Y-77550417D01*
X143818000Y-67549887D01*
X144182000Y-67549887D01*
X144182000Y-77550417D01*
G37*
X144182000Y-77550417D02*
X143818000Y-77550417D01*
X143818000Y-67549887D01*
X144182000Y-67549887D01*
X144182000Y-77550417D01*
X143186000Y-67550000D02*
X144814000Y-67550000D01*
X144814000Y-67550000D02*
X144814000Y-71250000D01*
X144814000Y-71250000D02*
X152960000Y-71250000D01*
X152960000Y-71250000D02*
X152960000Y-58750000D01*
X152960000Y-58750000D02*
X135040000Y-58750000D01*
X135040000Y-58750000D02*
X135040000Y-71250000D01*
X135040000Y-71250000D02*
X143186000Y-71250000D01*
X143186000Y-71250000D02*
X143186000Y-67550000D01*
G36*
X152960000Y-71250000D02*
G01*
X144814000Y-71250000D01*
X144814000Y-67550000D01*
X143186000Y-67550000D01*
X143186000Y-71250000D01*
X135040000Y-71250000D01*
X135040000Y-58750000D01*
X152960000Y-58750000D01*
X152960000Y-71250000D01*
G37*
X152960000Y-71250000D02*
X144814000Y-71250000D01*
X144814000Y-67550000D01*
X143186000Y-67550000D01*
X143186000Y-71250000D01*
X135040000Y-71250000D01*
X135040000Y-58750000D01*
X152960000Y-58750000D01*
X152960000Y-71250000D01*
%TO.C,AE2*%
X116922000Y-94809887D02*
X116558000Y-94809887D01*
X116558000Y-94809887D02*
X116558000Y-104810417D01*
X116558000Y-104810417D02*
X116922000Y-104810417D01*
X116922000Y-104810417D02*
X116922000Y-94809887D01*
G36*
X116922000Y-104810417D02*
G01*
X116558000Y-104810417D01*
X116558000Y-94809887D01*
X116922000Y-94809887D01*
X116922000Y-104810417D01*
G37*
X116922000Y-104810417D02*
X116558000Y-104810417D01*
X116558000Y-94809887D01*
X116922000Y-94809887D01*
X116922000Y-104810417D01*
X115926000Y-94810000D02*
X117554000Y-94810000D01*
X117554000Y-94810000D02*
X117554000Y-98510000D01*
X117554000Y-98510000D02*
X125700000Y-98510000D01*
X125700000Y-98510000D02*
X125700000Y-86010000D01*
X125700000Y-86010000D02*
X107780000Y-86010000D01*
X107780000Y-86010000D02*
X107780000Y-98510000D01*
X107780000Y-98510000D02*
X115926000Y-98510000D01*
X115926000Y-98510000D02*
X115926000Y-94810000D01*
G36*
X125700000Y-98510000D02*
G01*
X117554000Y-98510000D01*
X117554000Y-94810000D01*
X115926000Y-94810000D01*
X115926000Y-98510000D01*
X107780000Y-98510000D01*
X107780000Y-86010000D01*
X125700000Y-86010000D01*
X125700000Y-98510000D01*
G37*
X125700000Y-98510000D02*
X117554000Y-98510000D01*
X117554000Y-94810000D01*
X115926000Y-94810000D01*
X115926000Y-98510000D01*
X107780000Y-98510000D01*
X107780000Y-86010000D01*
X125700000Y-86010000D01*
X125700000Y-98510000D01*
%TO.C,AE1*%
X116922000Y-67549887D02*
X116558000Y-67549887D01*
X116558000Y-67549887D02*
X116558000Y-77550417D01*
X116558000Y-77550417D02*
X116922000Y-77550417D01*
X116922000Y-77550417D02*
X116922000Y-67549887D01*
G36*
X116922000Y-77550417D02*
G01*
X116558000Y-77550417D01*
X116558000Y-67549887D01*
X116922000Y-67549887D01*
X116922000Y-77550417D01*
G37*
X116922000Y-77550417D02*
X116558000Y-77550417D01*
X116558000Y-67549887D01*
X116922000Y-67549887D01*
X116922000Y-77550417D01*
X115926000Y-67550000D02*
X117554000Y-67550000D01*
X117554000Y-67550000D02*
X117554000Y-71250000D01*
X117554000Y-71250000D02*
X125700000Y-71250000D01*
X125700000Y-71250000D02*
X125700000Y-58750000D01*
X125700000Y-58750000D02*
X107780000Y-58750000D01*
X107780000Y-58750000D02*
X107780000Y-71250000D01*
X107780000Y-71250000D02*
X115926000Y-71250000D01*
X115926000Y-71250000D02*
X115926000Y-67550000D01*
G36*
X125700000Y-71250000D02*
G01*
X117554000Y-71250000D01*
X117554000Y-67550000D01*
X115926000Y-67550000D01*
X115926000Y-71250000D01*
X107780000Y-71250000D01*
X107780000Y-58750000D01*
X125700000Y-58750000D01*
X125700000Y-71250000D01*
G37*
X125700000Y-71250000D02*
X117554000Y-71250000D01*
X117554000Y-67550000D01*
X115926000Y-67550000D01*
X115926000Y-71250000D01*
X107780000Y-71250000D01*
X107780000Y-58750000D01*
X125700000Y-58750000D01*
X125700000Y-71250000D01*
%TD*%
D11*
%TO.P,AA5,1,1*%
%TO.N,/A1E3S2*%
X66000000Y-60981000D03*
D12*
%TO.P,AA5,2,2*%
%TO.N,/A1E3*%
X65679000Y-60660000D03*
%TD*%
D13*
%TO.P,AE7,1,A*%
%TO.N,/A1E7*%
X65030550Y-9669450D03*
%TD*%
%TO.P,AE5,1,A*%
%TO.N,/A1E5*%
X65030550Y-36929450D03*
%TD*%
%TO.P,AE4,1,A*%
%TO.N,/A1E4*%
X37770550Y-36929450D03*
%TD*%
%TO.P,AE1,1,A*%
%TO.N,/A1E3*%
X65030550Y-91449450D03*
%TD*%
%TO.P,AE3,1,A*%
%TO.N,/A1E3*%
X37770550Y-64189450D03*
%TD*%
%TA.AperFunction,SMDPad,CuDef*%
%TO.P,Feed1,1,A*%
%TO.N,/A1P1*%
G36*
X75003345Y-43532261D02*
G01*
X75003380Y-43532246D01*
X76567490Y-43532246D01*
X76567525Y-43532261D01*
X76567540Y-43532296D01*
X76567539Y-45531585D01*
X76567524Y-45531620D01*
X76567489Y-45531635D01*
X76567487Y-45531634D01*
X75003380Y-45531635D01*
X75003345Y-45531620D01*
X75003330Y-45531585D01*
X75003331Y-45531583D01*
X75003331Y-43532298D01*
X75003330Y-43532296D01*
X75003345Y-43532261D01*
G37*
%TD.AperFunction*%
D14*
%TO.P,Feed1,*%
%TO.N,*%
X75785000Y-44530000D03*
%TD*%
D13*
%TO.P,AE6,1,A*%
%TO.N,/A1E6*%
X65030550Y-64189450D03*
%TD*%
%TO.P,AE8,1,A*%
%TO.N,/A1E8*%
X37770550Y-91449450D03*
%TD*%
D12*
%TO.P,AA5,1,1*%
%TO.N,/A1E3S2*%
X72919000Y-85420000D03*
D11*
%TO.P,AA5,2,2*%
%TO.N,/A1E3*%
X73240000Y-85099000D03*
%TD*%
D12*
%TO.P,AA5,1,1*%
%TO.N,/A1E3S2*%
X39061000Y-87920000D03*
D11*
%TO.P,AA5,2,2*%
%TO.N,/A1E3*%
X38740000Y-88241000D03*
%TD*%
D12*
%TO.P,AA5,2,2*%
%TO.N,/A1E3*%
X65679000Y-6140000D03*
D11*
%TO.P,AA5,1,1*%
%TO.N,/A1E3S2*%
X66000000Y-6461000D03*
%TD*%
D12*
%TO.P,AA5,2,2*%
%TO.N,/A1E3*%
X72919000Y-58160000D03*
D11*
%TO.P,AA5,1,1*%
%TO.N,/A1E3S2*%
X73240000Y-58481000D03*
%TD*%
%TO.P,AA5,2,2*%
%TO.N,/A1E3*%
X73240000Y-30579000D03*
D12*
%TO.P,AA5,1,1*%
%TO.N,/A1E3S2*%
X72919000Y-30900000D03*
%TD*%
D11*
%TO.P,AA5,2,2*%
%TO.N,/A1E3*%
X38740000Y-33721000D03*
D12*
%TO.P,AA5,1,1*%
%TO.N,/A1E3S2*%
X39061000Y-33400000D03*
%TD*%
D11*
%TO.P,AA5,1,1*%
%TO.N,/A1E3S2*%
X73240000Y-3961000D03*
D12*
%TO.P,AA5,2,2*%
%TO.N,/A1E3*%
X72919000Y-3640000D03*
%TD*%
%TO.P,AA5,2,2*%
%TO.N,/A1E3*%
X65679000Y-87920000D03*
D11*
%TO.P,AA5,1,1*%
X66000000Y-88241000D03*
%TD*%
%TO.P,AA5,1,1*%
%TO.N,/A1E3S2*%
X66000000Y-33721000D03*
D12*
%TO.P,AA5,2,2*%
%TO.N,/A1E3*%
X65679000Y-33400000D03*
%TD*%
D11*
%TO.P,AA5,2,2*%
%TO.N,/A1E3*%
X38740000Y-60981000D03*
D12*
%TO.P,AA5,1,1*%
%TO.N,/A1E3S2*%
X39061000Y-60660000D03*
%TD*%
%TO.P,AA5,1,1*%
%TO.N,/A1E3S2*%
X39061000Y-6140000D03*
D11*
%TO.P,AA5,2,2*%
%TO.N,/A1E3*%
X38740000Y-6461000D03*
%TD*%
D12*
%TO.P,AA10,1,1*%
%TO.N,/A1P4*%
X143679000Y-106292000D03*
D11*
%TO.P,AA10,2,2*%
%TO.N,/A1E5S2*%
X144000000Y-105971000D03*
%TD*%
D12*
%TO.P,AA15,2,2*%
%TO.N,/A1P1*%
X104941000Y-108840000D03*
D11*
%TO.P,AA15,1,1*%
X104620000Y-108519000D03*
%TD*%
%TO.P,AA11,1,1*%
%TO.N,/A1E6S2*%
X116740000Y-105971000D03*
D12*
%TO.P,AA11,2,2*%
%TO.N,/A1P4*%
X117061000Y-106292000D03*
%TD*%
%TO.P,AA15,1,1*%
%TO.N,/A1P1*%
X104941000Y-81580000D03*
D11*
%TO.P,AA15,2,2*%
X104620000Y-81901000D03*
%TD*%
%TO.P,AA10,2,2*%
%TO.N,/A1E5S2*%
X144000000Y-78710000D03*
D12*
%TO.P,AA10,1,1*%
%TO.N,/A1P4*%
X143679000Y-79031000D03*
%TD*%
%TO.P,AA11,2,2*%
%TO.N,/A1P4*%
X117061000Y-79031000D03*
D11*
%TO.P,AA11,1,1*%
%TO.N,/A1E6S2*%
X116740000Y-78710000D03*
%TD*%
%TA.AperFunction,SMDPad,CuDef*%
%TO.P,Feed1,1,A*%
%TO.N,/A1P1*%
G36*
X102861655Y-68947739D02*
G01*
X102861620Y-68947754D01*
X101297510Y-68947753D01*
X101297475Y-68947738D01*
X101297460Y-68947703D01*
X101297461Y-66948415D01*
X101297476Y-66948380D01*
X101297511Y-66948365D01*
X101297513Y-66948366D01*
X102861620Y-66948366D01*
X102861655Y-66948381D01*
X102861670Y-66948416D01*
X102861669Y-66948418D01*
X102861669Y-68947702D01*
X102861670Y-68947704D01*
X102861655Y-68947739D01*
G37*
%TD.AperFunction*%
D14*
%TO.P,Feed1,*%
%TO.N,*%
X102080000Y-67950000D03*
%TD*%
D11*
%TO.P,AA15,1,1*%
%TO.N,/A1P1*%
X104620000Y-53998000D03*
D12*
%TO.P,AA15,2,2*%
X104941000Y-54319000D03*
%TD*%
D11*
%TO.P,AA10,2,2*%
%TO.N,/A1E5S2*%
X144000000Y-51450000D03*
D12*
%TO.P,AA10,1,1*%
%TO.N,/A1P4*%
X143679000Y-51771000D03*
%TD*%
%TO.P,AA11,2,2*%
%TO.N,/A1P4*%
X117061000Y-51771000D03*
D11*
%TO.P,AA11,1,1*%
%TO.N,/A1E6S2*%
X116740000Y-51450000D03*
%TD*%
%TO.P,AA15,2,2*%
%TO.N,/A1P1*%
X104620000Y-27380000D03*
D12*
%TO.P,AA15,1,1*%
X104941000Y-27059000D03*
%TD*%
%TO.P,AA10,1,1*%
%TO.N,/A1P4*%
X143679000Y-24510000D03*
D11*
%TO.P,AA10,2,2*%
%TO.N,/A1E5S2*%
X144000000Y-24189000D03*
%TD*%
%TO.P,AA11,1,1*%
%TO.N,/A1E6S2*%
X116740000Y-24189000D03*
D12*
%TO.P,AA11,2,2*%
%TO.N,/A1P4*%
X117061000Y-24510000D03*
%TD*%
%TO.P,AA11,2,2*%
%TO.N,/A1P4*%
X84679000Y-118309000D03*
D11*
%TO.P,AA11,1,1*%
%TO.N,/A1E6S2*%
X85000000Y-118630000D03*
%TD*%
%TO.P,AA12,2,2*%
%TO.N,/A1E6S2*%
X85000000Y-130159000D03*
D12*
%TO.P,AA12,1,1*%
%TO.N,/A1E6*%
X84679000Y-130480000D03*
%TD*%
D11*
%TO.P,AA9,2,2*%
%TO.N,/A1E5S2*%
X57740000Y-130159000D03*
D12*
%TO.P,AA9,1,1*%
%TO.N,/A1E5*%
X57419000Y-130480000D03*
%TD*%
D11*
%TO.P,AA15,1,1*%
%TO.N,/A1P1*%
X87080000Y-116081000D03*
D12*
%TO.P,AA15,2,2*%
X86759000Y-115760000D03*
%TD*%
D11*
%TO.P,AA10,2,2*%
%TO.N,/A1E5S2*%
X57740000Y-118630000D03*
D12*
%TO.P,AA10,1,1*%
%TO.N,/A1P4*%
X58061000Y-118309000D03*
%TD*%
D11*
%TO.P,AA15,2,2*%
%TO.N,/A1P1*%
X87080000Y-142699000D03*
D12*
%TO.P,AA15,1,1*%
X86759000Y-143020000D03*
%TD*%
%TO.P,AA12,1,1*%
%TO.N,/A1E6*%
X84679000Y-157740000D03*
D11*
%TO.P,AA12,2,2*%
%TO.N,/A1E6S2*%
X85000000Y-157419000D03*
%TD*%
D12*
%TO.P,AA9,1,1*%
%TO.N,/A1E5*%
X57419000Y-157740000D03*
D11*
%TO.P,AA9,2,2*%
%TO.N,/A1E5S2*%
X57740000Y-157419000D03*
%TD*%
D12*
%TO.P,AA10,1,1*%
%TO.N,/A1P4*%
X58061000Y-145569000D03*
D11*
%TO.P,AA10,2,2*%
%TO.N,/A1E5S2*%
X57740000Y-145890000D03*
%TD*%
%TO.P,AA11,1,1*%
%TO.N,/A1E6S2*%
X85000000Y-145890000D03*
D12*
%TO.P,AA11,2,2*%
%TO.N,/A1P4*%
X84679000Y-145569000D03*
%TD*%
D14*
%TO.P,Feed1,*%
%TO.N,*%
X89625000Y-156650000D03*
%TA.AperFunction,SMDPad,CuDef*%
%TO.P,Feed1,1,A*%
%TO.N,/A1P1*%
G36*
X88843345Y-155652261D02*
G01*
X88843380Y-155652246D01*
X90407490Y-155652246D01*
X90407525Y-155652261D01*
X90407540Y-155652296D01*
X90407539Y-157651585D01*
X90407524Y-157651620D01*
X90407489Y-157651635D01*
X90407487Y-157651634D01*
X88843380Y-157651635D01*
X88843345Y-157651620D01*
X88843330Y-157651585D01*
X88843331Y-157651583D01*
X88843331Y-155652298D01*
X88843330Y-155652296D01*
X88843345Y-155652261D01*
G37*
%TD.AperFunction*%
%TD*%
D12*
%TO.P,AA15,2,2*%
%TO.N,/A1P1*%
X86759000Y-170280000D03*
D11*
%TO.P,AA15,1,1*%
X87080000Y-170601000D03*
%TD*%
D12*
%TO.P,AA15,1,1*%
%TO.N,/A1P1*%
X86759000Y-197540000D03*
D11*
%TO.P,AA15,2,2*%
X87080000Y-197219000D03*
%TD*%
D12*
%TO.P,AA12,1,1*%
%TO.N,/A1E6*%
X84679000Y-185000000D03*
D11*
%TO.P,AA12,2,2*%
%TO.N,/A1E6S2*%
X85000000Y-184679000D03*
%TD*%
D12*
%TO.P,AA9,1,1*%
%TO.N,/A1E5*%
X57419000Y-185000000D03*
D11*
%TO.P,AA9,2,2*%
%TO.N,/A1E5S2*%
X57740000Y-184679000D03*
%TD*%
D12*
%TO.P,AA10,1,1*%
%TO.N,/A1P4*%
X58061000Y-172829000D03*
D11*
%TO.P,AA10,2,2*%
%TO.N,/A1E5S2*%
X57740000Y-173150000D03*
%TD*%
%TO.P,AA11,1,1*%
%TO.N,/A1E6S2*%
X85000000Y-173150000D03*
D12*
%TO.P,AA11,2,2*%
%TO.N,/A1P4*%
X84679000Y-172829000D03*
%TD*%
D11*
%TO.P,AA5,2,2*%
%TO.N,/A1E3*%
X121040000Y-118341000D03*
D12*
%TO.P,AA5,1,1*%
%TO.N,/A1E3S2*%
X121361000Y-118020000D03*
%TD*%
D11*
%TO.P,AA5,2,2*%
%TO.N,/A1E3*%
X115040000Y-115796000D03*
D12*
%TO.P,AA5,1,1*%
%TO.N,/A1E3S2*%
X115361000Y-115475000D03*
%TD*%
D11*
%TO.P,AA5,1,1*%
%TO.N,/A1E3S2*%
X148300000Y-118341000D03*
D12*
%TO.P,AA5,2,2*%
%TO.N,/A1E3*%
X147979000Y-118020000D03*
%TD*%
%TO.P,AA5,2,2*%
%TO.N,/A1E3*%
X147979000Y-145280000D03*
D11*
%TO.P,AA5,1,1*%
%TO.N,/A1E3S2*%
X148300000Y-145601000D03*
%TD*%
%TO.P,AA5,1,1*%
%TO.N,/A1E3S2*%
X115040000Y-142414000D03*
D12*
%TO.P,AA5,2,2*%
%TO.N,/A1E3*%
X115361000Y-142735000D03*
%TD*%
%TO.P,AA5,1,1*%
%TO.N,/A1E3S2*%
X121361000Y-145280000D03*
D11*
%TO.P,AA5,2,2*%
%TO.N,/A1E3*%
X121040000Y-145601000D03*
%TD*%
D12*
%TO.P,AA5,2,2*%
%TO.N,/A1E3*%
X147979000Y-172540000D03*
D11*
%TO.P,AA5,1,1*%
%TO.N,/A1E3S2*%
X148300000Y-172861000D03*
%TD*%
D12*
%TO.P,AA5,1,1*%
%TO.N,/A1E3S2*%
X115361000Y-169995000D03*
D11*
%TO.P,AA5,2,2*%
%TO.N,/A1E3*%
X115040000Y-170316000D03*
%TD*%
D12*
%TO.P,AA5,1,1*%
%TO.N,/A1E3S2*%
X121361000Y-172540000D03*
D11*
%TO.P,AA5,2,2*%
%TO.N,/A1E3*%
X121040000Y-172861000D03*
%TD*%
%TO.P,AA5,1,1*%
%TO.N,/A1E3S2*%
X148300000Y-200121000D03*
D12*
%TO.P,AA5,2,2*%
%TO.N,/A1E3*%
X147979000Y-199800000D03*
%TD*%
D15*
%TO.P,AE2,1,A*%
%TO.N,/A1E2*%
X149189450Y-121409450D03*
%TD*%
%TO.P,AE8,1,A*%
%TO.N,/A1E8*%
X121929450Y-175929450D03*
%TD*%
D11*
%TO.P,AA5,2,2*%
%TO.N,/A1E3*%
X121040000Y-200121000D03*
D12*
%TO.P,AA5,1,1*%
%TO.N,/A1E3S2*%
X121361000Y-199800000D03*
%TD*%
D14*
%TO.P,Feed1,*%
%TO.N,/A1P1*%
X112510000Y-156365000D03*
%TA.AperFunction,SMDPad,CuDef*%
%TO.P,Feed1,1,A*%
G36*
X113291655Y-157362739D02*
G01*
X113291620Y-157362754D01*
X111727510Y-157362753D01*
X111727475Y-157362738D01*
X111727460Y-157362703D01*
X111727461Y-155363415D01*
X111727476Y-155363380D01*
X111727511Y-155363365D01*
X111727513Y-155363366D01*
X113291620Y-155363366D01*
X113291655Y-155363381D01*
X113291670Y-155363416D01*
X113291669Y-155363418D01*
X113291669Y-157362702D01*
X113291670Y-157362704D01*
X113291655Y-157362739D01*
G37*
%TD.AperFunction*%
%TD*%
D15*
%TO.P,AE1,1,A*%
%TO.N,/A1E1*%
X149189450Y-148669450D03*
%TD*%
%TO.P,AE4,1,A*%
%TO.N,/A1E4*%
X121929450Y-121409450D03*
%TD*%
D12*
%TO.P,AA5,2,2*%
%TO.N,/A1E3*%
X115361000Y-197255000D03*
D11*
%TO.P,AA5,1,1*%
%TO.N,/A1E3S2*%
X115040000Y-196934000D03*
%TD*%
D15*
%TO.P,AE5,1,A*%
%TO.N,/A1E5*%
X149189450Y-203189450D03*
%TD*%
%TO.P,AE3,1,A*%
%TO.N,/A1E3*%
X121929450Y-148669450D03*
%TD*%
%TO.P,AE6,1,A*%
%TO.N,/A1E6*%
X149189450Y-175929450D03*
%TD*%
%TO.P,AE7,1,A*%
%TO.N,/A1E7*%
X121929450Y-203189450D03*
%TD*%
D13*
%TO.P,AE2,1,A*%
%TO.N,/A1E2*%
X37770550Y-9669450D03*
%TD*%
D11*
%TO.P,AA12,2,2*%
%TO.N,/A1E6S2*%
X85000000Y-211939000D03*
D12*
%TO.P,AA12,1,1*%
%TO.N,/A1E6*%
X84679000Y-212260000D03*
%TD*%
D16*
%TO.P,AE3,1,A*%
%TO.N,/A1E3*%
X56330000Y-130480000D03*
%TD*%
%TO.P,AE2,1,A*%
%TO.N,/A1E2*%
X83590000Y-157740000D03*
%TD*%
%TO.P,AE1,1,A*%
%TO.N,/A1E1*%
X56330000Y-157740000D03*
%TD*%
D11*
%TO.P,AA9,2,2*%
%TO.N,/A1E5S2*%
X57740000Y-211939000D03*
D12*
%TO.P,AA9,1,1*%
%TO.N,/A1E5*%
X57419000Y-212260000D03*
%TD*%
D11*
%TO.P,AA10,2,2*%
%TO.N,/A1E5S2*%
X57740000Y-200410000D03*
D12*
%TO.P,AA10,1,1*%
%TO.N,/A1P4*%
X58061000Y-200089000D03*
%TD*%
D16*
%TO.P,AE4,1,A*%
%TO.N,/A1E4*%
X83590000Y-130480000D03*
%TD*%
%TO.P,AE5,1,A*%
%TO.N,/A1E5*%
X56330000Y-212260000D03*
%TD*%
D12*
%TO.P,AA11,2,2*%
%TO.N,/A1P4*%
X84679000Y-200089000D03*
D11*
%TO.P,AA11,1,1*%
%TO.N,/A1E6S2*%
X85000000Y-200410000D03*
%TD*%
D16*
%TO.P,AE7,1,A*%
%TO.N,/A1E7*%
X56330000Y-185000000D03*
%TD*%
%TO.P,AE8,1,A*%
%TO.N,/A1E8*%
X83590000Y-185000000D03*
%TD*%
%TO.P,AE6,1,A*%
%TO.N,/A1E6*%
X83590000Y-212260000D03*
%TD*%
D17*
%TO.P,AE8,1,A*%
%TO.N,/A1E8*%
X144000000Y-50200000D03*
%TD*%
%TO.P,AE7,1,A*%
%TO.N,/A1E7*%
X144000000Y-22940000D03*
%TD*%
%TO.P,AE6,1,A*%
%TO.N,/A1E6*%
X116740000Y-50200000D03*
%TD*%
%TO.P,AE5,1,A*%
%TO.N,/A1E5*%
X116740000Y-22940000D03*
%TD*%
%TO.P,AE4,1,A*%
%TO.N,/A1E4*%
X144000000Y-104720000D03*
%TD*%
%TO.P,AE3,1,A*%
%TO.N,/A1E3*%
X144000000Y-77460000D03*
%TD*%
%TO.P,AE2,1,A*%
%TO.N,/A1E2*%
X116740000Y-104720000D03*
%TD*%
%TO.P,AE1,1,A*%
%TO.N,/A1E1*%
X116740000Y-77460000D03*
%TD*%
D18*
%TO.P,H9,1,1*%
%TO.N,N/C*%
X93000000Y-221000000D03*
D19*
X93000000Y-221000000D03*
%TD*%
D18*
%TO.P,H10,1,1*%
%TO.N,N/C*%
X93000000Y-5000000D03*
D19*
X93000000Y-5000000D03*
%TD*%
D18*
%TO.P,H12,1,1*%
%TO.N,N/C*%
X170000000Y-113000000D03*
D19*
X170000000Y-113000000D03*
%TD*%
D18*
%TO.P,H4,1,1*%
%TO.N,N/C*%
X174000000Y-208000000D03*
D19*
X174000000Y-208000000D03*
%TD*%
D18*
%TO.P,H2,1,1*%
%TO.N,N/C*%
X174000000Y-18000000D03*
D19*
X174000000Y-18000000D03*
%TD*%
D18*
%TO.P,H3,1,1*%
%TO.N,N/C*%
X12000000Y-208000000D03*
D19*
X12000000Y-208000000D03*
%TD*%
D18*
%TO.P,H1,1,1*%
%TO.N,N/C*%
X12000000Y-18000000D03*
D19*
X12000000Y-18000000D03*
%TD*%
D18*
%TO.P,H11,1,1*%
%TO.N,N/C*%
X16000000Y-113000000D03*
D19*
X16000000Y-113000000D03*
%TD*%
D20*
%TO.N,GND*%
X87414000Y-160600000D03*
X93914000Y-157100000D03*
X88014000Y-158700000D03*
X91914000Y-157100000D03*
X91514000Y-158700000D03*
X93414000Y-159100000D03*
X87414000Y-157100000D03*
X85914000Y-159100000D03*
X91914000Y-160600000D03*
X110700000Y-154300000D03*
X110300000Y-155900000D03*
X110300000Y-152400000D03*
X108800000Y-153900000D03*
X114200000Y-154300000D03*
X114800000Y-152400000D03*
X116800000Y-155900000D03*
X116300000Y-153900000D03*
X114800000Y-155900000D03*
X108300000Y-155900000D03*
X98300000Y-65500000D03*
X99800000Y-64000000D03*
X104300000Y-67500000D03*
X103700000Y-65900000D03*
X106300000Y-67500000D03*
X99800000Y-67500000D03*
X97800000Y-67500000D03*
X105800000Y-65500000D03*
X100200000Y-65900000D03*
X104300000Y-64000000D03*
X73500000Y-45000000D03*
X77600000Y-46600000D03*
X72000000Y-47000000D03*
X79500000Y-47000000D03*
X71500000Y-45000000D03*
X78000000Y-48500000D03*
X74100000Y-46600000D03*
X73500000Y-48500000D03*
X78000000Y-45000000D03*
X80000000Y-45000000D03*
%TD*%
D21*
%TO.N,/A1E3*%
X65000000Y-91480000D02*
X66000000Y-90480000D01*
%TO.N,/A1E3S2*%
X72919000Y-30900000D02*
X58740000Y-30900000D01*
X65000000Y-36960000D02*
X66000000Y-35960000D01*
X39061000Y-60660000D02*
X65660000Y-60660000D01*
%TO.N,/A1E3*%
X37740000Y-91480000D02*
X38740000Y-90480000D01*
%TO.N,/A1E3S2*%
X72919000Y-85420000D02*
X58740000Y-85420000D01*
%TO.N,/A1E3*%
X37740000Y-36960000D02*
X38740000Y-35960000D01*
X72919000Y-3640000D02*
X58740000Y-3640000D01*
X72919000Y-58160000D02*
X58740000Y-58160000D01*
%TO.N,/A1E3S2*%
X65000000Y-9700000D02*
X66000000Y-8700000D01*
X73240000Y-3961000D02*
X73240000Y-30545000D01*
%TO.N,/A1P1*%
X75785000Y-23005000D02*
X75785000Y-66170000D01*
%TO.N,/A1E3S2*%
X66000000Y-35960000D02*
X66000000Y-33721000D01*
X73240000Y-58481000D02*
X73240000Y-85065000D01*
X39061000Y-87920000D02*
X65660000Y-87920000D01*
X39061000Y-33400000D02*
X65660000Y-33400000D01*
X65000000Y-64220000D02*
X66000000Y-63220000D01*
%TO.N,/A1E3*%
X37740000Y-64220000D02*
X38740000Y-63220000D01*
X38740000Y-63220000D02*
X38740000Y-60981000D01*
X38740000Y-35960000D02*
X38740000Y-33721000D01*
X38740000Y-90480000D02*
X38740000Y-88241000D01*
%TO.N,/A1E3S2*%
X66000000Y-8700000D02*
X66000000Y-6461000D01*
%TO.N,/A1E3*%
X66000000Y-90480000D02*
X66000000Y-88271000D01*
%TO.N,/A1E3S2*%
X66000000Y-63220000D02*
X66000000Y-60981000D01*
%TO.N,/A1E3*%
X38740000Y-8700000D02*
X38740000Y-6461000D01*
%TO.N,/A1E3S2*%
X39061000Y-6140000D02*
X65660000Y-6140000D01*
%TO.N,/A1E5S2*%
X144000000Y-105971000D02*
X144000000Y-104692000D01*
%TO.N,/A1P1*%
X104941000Y-81580000D02*
X124623500Y-81580000D01*
%TO.N,/A1E6S2*%
X116740000Y-104722000D02*
X116740000Y-105982000D01*
%TO.N,/A1P4*%
X143679000Y-79031000D02*
X117061000Y-79031000D01*
%TO.N,/A1P1*%
X104941000Y-108840000D02*
X124623500Y-108840000D01*
X104620000Y-81901000D02*
X104620000Y-108520000D01*
%TO.N,/A1P4*%
X143679000Y-106292000D02*
X117061000Y-106292000D01*
%TO.N,/A1E6S2*%
X116740000Y-77461000D02*
X116740000Y-78721000D01*
%TO.N,/A1E5S2*%
X144000000Y-78710000D02*
X144000000Y-77431000D01*
%TO.N,/A1P1*%
X102080000Y-90060000D02*
X102080000Y-46220000D01*
X104620000Y-27380000D02*
X104620000Y-53999000D01*
X104941000Y-54319000D02*
X124623500Y-54319000D01*
%TO.N,/A1P4*%
X143679000Y-51771000D02*
X117061000Y-51771000D01*
%TO.N,/A1E6S2*%
X116740000Y-50201000D02*
X116740000Y-51461000D01*
%TO.N,/A1E5S2*%
X144000000Y-51450000D02*
X144000000Y-50171000D01*
%TO.N,/A1P1*%
X104941000Y-27059000D02*
X124623500Y-27059000D01*
%TO.N,/A1E5S2*%
X144000000Y-24189000D02*
X144000000Y-22910000D01*
%TO.N,/A1E6S2*%
X116740000Y-22940000D02*
X116740000Y-24200000D01*
%TO.N,/A1P4*%
X143679000Y-24510000D02*
X117061000Y-24510000D01*
%TO.N,/A1P1*%
X89625000Y-134540000D02*
X89625000Y-178380000D01*
%TO.N,/A1E6S2*%
X85000000Y-145890000D02*
X85000000Y-157432000D01*
%TO.N,/A1E5*%
X56200000Y-130480000D02*
X57432000Y-130480000D01*
%TO.N,/A1P4*%
X58061000Y-145569000D02*
X84679000Y-145569000D01*
%TO.N,/A1P1*%
X87080000Y-116101000D02*
X87080000Y-142709000D01*
%TO.N,/A1E5S2*%
X57740000Y-130172000D02*
X57740000Y-118630000D01*
%TO.N,/A1P1*%
X86749000Y-143020000D02*
X77116500Y-143020000D01*
%TO.N,/A1E6*%
X84679000Y-157740000D02*
X83632000Y-157740000D01*
X84679000Y-130480000D02*
X83632000Y-130480000D01*
%TO.N,/A1E6S2*%
X85000000Y-118630000D02*
X85000000Y-130172000D01*
%TO.N,/A1P1*%
X86759000Y-115760000D02*
X77116500Y-115760000D01*
%TO.N,/A1P4*%
X58061000Y-118309000D02*
X84679000Y-118309000D01*
%TO.N,/A1E5S2*%
X57740000Y-157432000D02*
X57740000Y-145890000D01*
%TO.N,/A1E5*%
X56200000Y-157740000D02*
X57432000Y-157740000D01*
%TO.N,/A1P1*%
X86759000Y-170280000D02*
X77116500Y-170280000D01*
X86749000Y-197540000D02*
X77116500Y-197540000D01*
X87080000Y-170621000D02*
X87080000Y-197229000D01*
%TO.N,/A1E6S2*%
X85000000Y-173150000D02*
X85000000Y-184692000D01*
%TO.N,/A1P4*%
X58061000Y-172829000D02*
X84679000Y-172829000D01*
%TO.N,/A1E6*%
X84679000Y-185000000D02*
X83632000Y-185000000D01*
%TO.N,/A1E5S2*%
X57740000Y-184692000D02*
X57740000Y-173150000D01*
%TO.N,/A1E5*%
X56200000Y-185000000D02*
X57432000Y-185000000D01*
%TO.N,/A1E6S2*%
X85000000Y-200410000D02*
X85000000Y-211952000D01*
%TO.N,/A1E5S2*%
X57740000Y-211952000D02*
X57740000Y-200410000D01*
%TO.N,/A1P4*%
X58061000Y-200089000D02*
X84679000Y-200089000D01*
%TO.N,/A1E6*%
X84679000Y-212260000D02*
X83632000Y-212260000D01*
%TO.N,/A1E3*%
X37740000Y-9700000D02*
X38740000Y-8700000D01*
%TO.N,/A1P1*%
X112500000Y-177880000D02*
X112495000Y-177875000D01*
X112495000Y-177875000D02*
X112495000Y-134885000D01*
X112495000Y-134885000D02*
X112500000Y-134880000D01*
%TO.N,/A1E3*%
X115361000Y-142735000D02*
X129010000Y-142735000D01*
%TO.N,/A1E3S2*%
X149300000Y-121515000D02*
X148300000Y-120515000D01*
X148300000Y-120515000D02*
X148300000Y-118305000D01*
%TO.N,/A1E3*%
X147969000Y-118020000D02*
X121350000Y-118020000D01*
X147969000Y-145280000D02*
X121350000Y-145280000D01*
%TO.N,/A1E3S2*%
X115040000Y-142414000D02*
X115040000Y-115805000D01*
X115361000Y-115475000D02*
X129010000Y-115475000D01*
X149300000Y-148775000D02*
X148300000Y-147775000D01*
X148300000Y-147775000D02*
X148300000Y-145565000D01*
%TO.N,/A1E3*%
X122040000Y-148775000D02*
X121040000Y-147775000D01*
X121040000Y-120515000D02*
X121040000Y-118336000D01*
X121040000Y-147775000D02*
X121040000Y-145596000D01*
X122040000Y-121515000D02*
X121040000Y-120515000D01*
%TO.N,/A1E3S2*%
X115040000Y-196934000D02*
X115040000Y-170325000D01*
X115361000Y-169995000D02*
X129010000Y-169995000D01*
%TO.N,/A1E3*%
X147969000Y-172540000D02*
X121350000Y-172540000D01*
%TO.N,/A1E3S2*%
X149300000Y-176035000D02*
X148300000Y-175035000D01*
X148300000Y-175035000D02*
X148300000Y-172825000D01*
%TO.N,/A1E3*%
X122040000Y-176035000D02*
X121040000Y-175035000D01*
X121040000Y-175035000D02*
X121040000Y-172856000D01*
%TO.N,/A1E3S2*%
X148300000Y-202295000D02*
X148300000Y-200085000D01*
%TO.N,/A1E3*%
X115361000Y-197255000D02*
X129010000Y-197255000D01*
X147969000Y-199800000D02*
X121350000Y-199800000D01*
%TO.N,/A1E3S2*%
X149300000Y-203295000D02*
X148300000Y-202295000D01*
%TO.N,/A1E3*%
X121040000Y-202295000D02*
X121040000Y-200116000D01*
X122040000Y-203295000D02*
X121040000Y-202295000D01*
%TO.N,/A1E5*%
X56200000Y-212260000D02*
X57432000Y-212260000D01*
%TD*%
M02*
