%TF.GenerationSoftware,KiCad,Pcbnew,5.99.0-unknown-b1adb93c1~106~ubuntu20.04.1*%
%TF.CreationDate,2020-12-18T19:28:59-06:00*%
%TF.ProjectId,FlatAntPanel4x4,466c6174-416e-4745-9061-6e656c347834,rev?*%
%TF.SameCoordinates,Original*%
%TF.FileFunction,Soldermask,Bot*%
%TF.FilePolarity,Negative*%
%FSLAX46Y46*%
G04 Gerber Fmt 4.6, Leading zero omitted, Abs format (unit mm)*
G04 Created by KiCad (PCBNEW 5.99.0-unknown-b1adb93c1~106~ubuntu20.04.1) date 2020-12-18 19:28:59*
%MOMM*%
%LPD*%
G01*
G04 APERTURE LIST*
%ADD10C,0.000100*%
%ADD11C,1.565000*%
%ADD12C,5.000000*%
%ADD13C,2.900000*%
G04 APERTURE END LIST*
D10*
%TO.C,Feed1*%
X76567490Y-43532296D02*
X75003379Y-43532296D01*
X75003379Y-43532296D02*
X75003380Y-45531585D01*
X75003380Y-45531585D02*
X76567490Y-45531585D01*
X76567490Y-45531585D02*
X76567490Y-43532296D01*
G36*
X76567490Y-45531585D02*
G01*
X75003380Y-45531585D01*
X75003379Y-43532296D01*
X76567490Y-43532296D01*
X76567490Y-45531585D01*
G37*
X76567490Y-45531585D02*
X75003380Y-45531585D01*
X75003379Y-43532296D01*
X76567490Y-43532296D01*
X76567490Y-45531585D01*
X101297510Y-68947704D02*
X102861621Y-68947704D01*
X102861621Y-68947704D02*
X102861620Y-66948415D01*
X102861620Y-66948415D02*
X101297510Y-66948415D01*
X101297510Y-66948415D02*
X101297510Y-68947704D01*
G36*
X102861621Y-68947704D02*
G01*
X101297510Y-68947704D01*
X101297510Y-66948415D01*
X102861620Y-66948415D01*
X102861621Y-68947704D01*
G37*
X102861621Y-68947704D02*
X101297510Y-68947704D01*
X101297510Y-66948415D01*
X102861620Y-66948415D01*
X102861621Y-68947704D01*
X90407490Y-155652296D02*
X88843379Y-155652296D01*
X88843379Y-155652296D02*
X88843380Y-157651585D01*
X88843380Y-157651585D02*
X90407490Y-157651585D01*
X90407490Y-157651585D02*
X90407490Y-155652296D01*
G36*
X90407490Y-157651585D02*
G01*
X88843380Y-157651585D01*
X88843379Y-155652296D01*
X90407490Y-155652296D01*
X90407490Y-157651585D01*
G37*
X90407490Y-157651585D02*
X88843380Y-157651585D01*
X88843379Y-155652296D01*
X90407490Y-155652296D01*
X90407490Y-157651585D01*
X111727510Y-157362704D02*
X113291621Y-157362704D01*
X113291621Y-157362704D02*
X113291620Y-155363415D01*
X113291620Y-155363415D02*
X111727510Y-155363415D01*
X111727510Y-155363415D02*
X111727510Y-157362704D01*
G36*
X113291621Y-157362704D02*
G01*
X111727510Y-157362704D01*
X111727510Y-155363415D01*
X113291620Y-155363415D01*
X113291621Y-157362704D01*
G37*
X113291621Y-157362704D02*
X111727510Y-157362704D01*
X111727510Y-155363415D01*
X113291620Y-155363415D01*
X113291621Y-157362704D01*
%TD*%
D11*
%TO.C,Feed1*%
X75785000Y-44530000D03*
%TD*%
%TO.C,Feed1*%
X102080000Y-67950000D03*
%TD*%
%TO.C,Feed1*%
X89625000Y-156650000D03*
%TD*%
%TO.C,Feed1*%
X112510000Y-156365000D03*
%TD*%
D12*
%TO.C,H9*%
X93000000Y-221000000D03*
D13*
X93000000Y-221000000D03*
%TD*%
D12*
%TO.C,H10*%
X93000000Y-5000000D03*
D13*
X93000000Y-5000000D03*
%TD*%
D12*
%TO.C,H12*%
X170000000Y-113000000D03*
D13*
X170000000Y-113000000D03*
%TD*%
D12*
%TO.C,H4*%
X174000000Y-208000000D03*
D13*
X174000000Y-208000000D03*
%TD*%
D12*
%TO.C,H2*%
X174000000Y-18000000D03*
D13*
X174000000Y-18000000D03*
%TD*%
D12*
%TO.C,H3*%
X12000000Y-208000000D03*
D13*
X12000000Y-208000000D03*
%TD*%
D12*
%TO.C,H1*%
X12000000Y-18000000D03*
D13*
X12000000Y-18000000D03*
%TD*%
D12*
%TO.C,H11*%
X16000000Y-113000000D03*
D13*
X16000000Y-113000000D03*
%TD*%
M02*
