M48
; DRILL file {KiCad 5.99.0-unknown-b1adb93c1~106~ubuntu20.04.1} date Fri Dec 18 19:29:02 2020
; FORMAT={-:-/ absolute / inch / decimal}
; #@! TF.CreationDate,2020-12-18T19:29:02-06:00
; #@! TF.GenerationSoftware,Kicad,Pcbnew,5.99.0-unknown-b1adb93c1~106~ubuntu20.04.1
; #@! TF.FileFunction,Plated,1,4,PTH
FMAT,2
INCH
T1C0.0158
T2C0.0984
%
G90
G05
T1
X2.815Y-1.7717
X2.8346Y-1.8504
X2.8937Y-1.7717
X2.8937Y-1.9094
X2.9173Y-1.8346
X3.0551Y-1.8346
X3.0709Y-1.7717
X3.0709Y-1.9094
X3.1299Y-1.8504
X3.1496Y-1.7717
X3.3824Y-6.2638
X3.4415Y-6.185
X3.4415Y-6.3228
X3.4651Y-6.248
X3.6029Y-6.248
X3.6187Y-6.185
X3.6187Y-6.3228
X3.6777Y-6.2638
X3.6974Y-6.185
X3.8504Y-2.6575
X3.8701Y-2.5787
X3.9291Y-2.5197
X3.9291Y-2.6575
X3.9449Y-2.5945
X4.0827Y-2.5945
X4.1063Y-2.5197
X4.1063Y-2.6575
X4.1654Y-2.5787
X4.185Y-2.6575
X4.2638Y-6.1378
X4.2835Y-6.0591
X4.3425Y-6.0
X4.3425Y-6.1378
X4.3583Y-6.0748
X4.4961Y-6.0748
X4.5197Y-6.0
X4.5197Y-6.1378
X4.5787Y-6.0591
X4.5984Y-6.1378
T2
X3.6614Y-0.1969
X3.6614Y-8.7008
X6.8504Y-8.189
X6.6929Y-4.4488
X6.8504Y-0.7087
X0.4724Y-8.189
X0.4724Y-0.7087
X0.6299Y-4.4488
T0
M30
