%TF.GenerationSoftware,KiCad,Pcbnew,5.99.0-unknown-693fbf9073~128~ubuntu20.04.1*%
%TF.CreationDate,2021-05-10T18:04:37-05:00*%
%TF.ProjectId,RasPiCM4ConnectorTest,52617350-6943-44d3-9443-6f6e6e656374,rev?*%
%TF.SameCoordinates,Original*%
%TF.FileFunction,Legend,Top*%
%TF.FilePolarity,Positive*%
%FSLAX46Y46*%
G04 Gerber Fmt 4.6, Leading zero omitted, Abs format (unit mm)*
G04 Created by KiCad (PCBNEW 5.99.0-unknown-693fbf9073~128~ubuntu20.04.1) date 2021-05-10 18:04:37*
%MOMM*%
%LPD*%
G01*
G04 APERTURE LIST*
%ADD10C,0.150000*%
%ADD11C,0.120000*%
G04 APERTURE END LIST*
D10*
%TO.C,Module2*%
X156072857Y-125952380D02*
X156072857Y-124952380D01*
X156406190Y-125666666D01*
X156739523Y-124952380D01*
X156739523Y-125952380D01*
X157358571Y-125952380D02*
X157263333Y-125904761D01*
X157215714Y-125857142D01*
X157168095Y-125761904D01*
X157168095Y-125476190D01*
X157215714Y-125380952D01*
X157263333Y-125333333D01*
X157358571Y-125285714D01*
X157501428Y-125285714D01*
X157596666Y-125333333D01*
X157644285Y-125380952D01*
X157691904Y-125476190D01*
X157691904Y-125761904D01*
X157644285Y-125857142D01*
X157596666Y-125904761D01*
X157501428Y-125952380D01*
X157358571Y-125952380D01*
X158549047Y-125952380D02*
X158549047Y-124952380D01*
X158549047Y-125904761D02*
X158453809Y-125952380D01*
X158263333Y-125952380D01*
X158168095Y-125904761D01*
X158120476Y-125857142D01*
X158072857Y-125761904D01*
X158072857Y-125476190D01*
X158120476Y-125380952D01*
X158168095Y-125333333D01*
X158263333Y-125285714D01*
X158453809Y-125285714D01*
X158549047Y-125333333D01*
X159453809Y-125285714D02*
X159453809Y-125952380D01*
X159025238Y-125285714D02*
X159025238Y-125809523D01*
X159072857Y-125904761D01*
X159168095Y-125952380D01*
X159310952Y-125952380D01*
X159406190Y-125904761D01*
X159453809Y-125857142D01*
X160072857Y-125952380D02*
X159977619Y-125904761D01*
X159930000Y-125809523D01*
X159930000Y-124952380D01*
X160834761Y-125904761D02*
X160739523Y-125952380D01*
X160549047Y-125952380D01*
X160453809Y-125904761D01*
X160406190Y-125809523D01*
X160406190Y-125428571D01*
X160453809Y-125333333D01*
X160549047Y-125285714D01*
X160739523Y-125285714D01*
X160834761Y-125333333D01*
X160882380Y-125428571D01*
X160882380Y-125523809D01*
X160406190Y-125619047D01*
X161263333Y-125047619D02*
X161310952Y-125000000D01*
X161406190Y-124952380D01*
X161644285Y-124952380D01*
X161739523Y-125000000D01*
X161787142Y-125047619D01*
X161834761Y-125142857D01*
X161834761Y-125238095D01*
X161787142Y-125380952D01*
X161215714Y-125952380D01*
X161834761Y-125952380D01*
%TO.C,CM4*%
X140431904Y-90767142D02*
X140384285Y-90814761D01*
X140241428Y-90862380D01*
X140146190Y-90862380D01*
X140003333Y-90814761D01*
X139908095Y-90719523D01*
X139860476Y-90624285D01*
X139812857Y-90433809D01*
X139812857Y-90290952D01*
X139860476Y-90100476D01*
X139908095Y-90005238D01*
X140003333Y-89910000D01*
X140146190Y-89862380D01*
X140241428Y-89862380D01*
X140384285Y-89910000D01*
X140431904Y-89957619D01*
X140860476Y-90862380D02*
X140860476Y-89862380D01*
X141193809Y-90576666D01*
X141527142Y-89862380D01*
X141527142Y-90862380D01*
X142431904Y-90195714D02*
X142431904Y-90862380D01*
X142193809Y-89814761D02*
X141955714Y-90529047D01*
X142574761Y-90529047D01*
%TO.C,CM3*%
X174351904Y-90767142D02*
X174304285Y-90814761D01*
X174161428Y-90862380D01*
X174066190Y-90862380D01*
X173923333Y-90814761D01*
X173828095Y-90719523D01*
X173780476Y-90624285D01*
X173732857Y-90433809D01*
X173732857Y-90290952D01*
X173780476Y-90100476D01*
X173828095Y-90005238D01*
X173923333Y-89910000D01*
X174066190Y-89862380D01*
X174161428Y-89862380D01*
X174304285Y-89910000D01*
X174351904Y-89957619D01*
X174780476Y-90862380D02*
X174780476Y-89862380D01*
X175113809Y-90576666D01*
X175447142Y-89862380D01*
X175447142Y-90862380D01*
X175828095Y-89862380D02*
X176447142Y-89862380D01*
X176113809Y-90243333D01*
X176256666Y-90243333D01*
X176351904Y-90290952D01*
X176399523Y-90338571D01*
X176447142Y-90433809D01*
X176447142Y-90671904D01*
X176399523Y-90767142D01*
X176351904Y-90814761D01*
X176256666Y-90862380D01*
X175970952Y-90862380D01*
X175875714Y-90814761D01*
X175828095Y-90767142D01*
%TO.C,CM2*%
X117351904Y-90767142D02*
X117304285Y-90814761D01*
X117161428Y-90862380D01*
X117066190Y-90862380D01*
X116923333Y-90814761D01*
X116828095Y-90719523D01*
X116780476Y-90624285D01*
X116732857Y-90433809D01*
X116732857Y-90290952D01*
X116780476Y-90100476D01*
X116828095Y-90005238D01*
X116923333Y-89910000D01*
X117066190Y-89862380D01*
X117161428Y-89862380D01*
X117304285Y-89910000D01*
X117351904Y-89957619D01*
X117780476Y-90862380D02*
X117780476Y-89862380D01*
X118113809Y-90576666D01*
X118447142Y-89862380D01*
X118447142Y-90862380D01*
X118875714Y-89957619D02*
X118923333Y-89910000D01*
X119018571Y-89862380D01*
X119256666Y-89862380D01*
X119351904Y-89910000D01*
X119399523Y-89957619D01*
X119447142Y-90052857D01*
X119447142Y-90148095D01*
X119399523Y-90290952D01*
X118828095Y-90862380D01*
X119447142Y-90862380D01*
%TO.C,CM1*%
X83431904Y-90767142D02*
X83384285Y-90814761D01*
X83241428Y-90862380D01*
X83146190Y-90862380D01*
X83003333Y-90814761D01*
X82908095Y-90719523D01*
X82860476Y-90624285D01*
X82812857Y-90433809D01*
X82812857Y-90290952D01*
X82860476Y-90100476D01*
X82908095Y-90005238D01*
X83003333Y-89910000D01*
X83146190Y-89862380D01*
X83241428Y-89862380D01*
X83384285Y-89910000D01*
X83431904Y-89957619D01*
X83860476Y-90862380D02*
X83860476Y-89862380D01*
X84193809Y-90576666D01*
X84527142Y-89862380D01*
X84527142Y-90862380D01*
X85527142Y-90862380D02*
X84955714Y-90862380D01*
X85241428Y-90862380D02*
X85241428Y-89862380D01*
X85146190Y-90005238D01*
X85050952Y-90100476D01*
X84955714Y-90148095D01*
%TO.C,Module1*%
X99182857Y-125842380D02*
X99182857Y-124842380D01*
X99516190Y-125556666D01*
X99849523Y-124842380D01*
X99849523Y-125842380D01*
X100468571Y-125842380D02*
X100373333Y-125794761D01*
X100325714Y-125747142D01*
X100278095Y-125651904D01*
X100278095Y-125366190D01*
X100325714Y-125270952D01*
X100373333Y-125223333D01*
X100468571Y-125175714D01*
X100611428Y-125175714D01*
X100706666Y-125223333D01*
X100754285Y-125270952D01*
X100801904Y-125366190D01*
X100801904Y-125651904D01*
X100754285Y-125747142D01*
X100706666Y-125794761D01*
X100611428Y-125842380D01*
X100468571Y-125842380D01*
X101659047Y-125842380D02*
X101659047Y-124842380D01*
X101659047Y-125794761D02*
X101563809Y-125842380D01*
X101373333Y-125842380D01*
X101278095Y-125794761D01*
X101230476Y-125747142D01*
X101182857Y-125651904D01*
X101182857Y-125366190D01*
X101230476Y-125270952D01*
X101278095Y-125223333D01*
X101373333Y-125175714D01*
X101563809Y-125175714D01*
X101659047Y-125223333D01*
X102563809Y-125175714D02*
X102563809Y-125842380D01*
X102135238Y-125175714D02*
X102135238Y-125699523D01*
X102182857Y-125794761D01*
X102278095Y-125842380D01*
X102420952Y-125842380D01*
X102516190Y-125794761D01*
X102563809Y-125747142D01*
X103182857Y-125842380D02*
X103087619Y-125794761D01*
X103040000Y-125699523D01*
X103040000Y-124842380D01*
X103944761Y-125794761D02*
X103849523Y-125842380D01*
X103659047Y-125842380D01*
X103563809Y-125794761D01*
X103516190Y-125699523D01*
X103516190Y-125318571D01*
X103563809Y-125223333D01*
X103659047Y-125175714D01*
X103849523Y-125175714D01*
X103944761Y-125223333D01*
X103992380Y-125318571D01*
X103992380Y-125413809D01*
X103516190Y-125509047D01*
X104944761Y-125842380D02*
X104373333Y-125842380D01*
X104659047Y-125842380D02*
X104659047Y-124842380D01*
X104563809Y-124985238D01*
X104468571Y-125080476D01*
X104373333Y-125128095D01*
D11*
%TO.C,Module2*%
X142890000Y-114400000D02*
X142890000Y-113400000D01*
X139110000Y-114400000D02*
X139110000Y-113400000D01*
X176810000Y-114400000D02*
X176810000Y-113400000D01*
X173030000Y-114400000D02*
X173030000Y-113400000D01*
X173030000Y-91600000D02*
X173030000Y-92600000D01*
X176810000Y-91600000D02*
X176810000Y-92600000D01*
X173030000Y-91600000D02*
X176810000Y-91600000D01*
X173030000Y-114400000D02*
X176810000Y-114400000D01*
X139110000Y-114400000D02*
X142890000Y-114400000D01*
X139110000Y-91600000D02*
X142890000Y-91600000D01*
X141460000Y-128000000D02*
G75*
G02*
X137960000Y-124500000I0J3500000D01*
G01*
X177960000Y-124500000D02*
G75*
G02*
X174460000Y-128000000I-3500000J0D01*
G01*
X174460000Y-73000000D02*
G75*
G02*
X177960000Y-76500000I0J-3500000D01*
G01*
X137960000Y-76500000D02*
G75*
G02*
X141460000Y-73000000I3500000J0D01*
G01*
X174460000Y-73000000D02*
X141460000Y-73000000D01*
X177960000Y-124500000D02*
X177960000Y-76500000D01*
X141460000Y-128000000D02*
X174460000Y-128000000D01*
X137960000Y-76500000D02*
X137960000Y-124500000D01*
%TO.C,Module1*%
X82570000Y-114400000D02*
X82570000Y-113400000D01*
X84460000Y-128000000D02*
X117460000Y-128000000D01*
X82570000Y-91600000D02*
X85430000Y-91600000D01*
X116490000Y-91600000D02*
X119350000Y-91600000D01*
X80960000Y-76500000D02*
X80960000Y-124500000D01*
X120960000Y-124500000D02*
X120960000Y-76500000D01*
X85430000Y-114400000D02*
X85430000Y-113400000D01*
X119350000Y-91600000D02*
X119350000Y-92600000D01*
X116490000Y-114400000D02*
X119350000Y-114400000D01*
X116490000Y-114400000D02*
X116490000Y-113400000D01*
X82570000Y-114400000D02*
X85430000Y-114400000D01*
X116490000Y-91600000D02*
X116490000Y-92600000D01*
X117460000Y-73000000D02*
X84460000Y-73000000D01*
X119350000Y-114400000D02*
X119350000Y-113400000D01*
X82570000Y-92600000D02*
X82570000Y-91600000D01*
X85430000Y-92600000D02*
X85430000Y-91600000D01*
X80960000Y-76500000D02*
G75*
G02*
X84460000Y-73000000I3500000J0D01*
G01*
X84460000Y-128000000D02*
G75*
G02*
X80960000Y-124500000I0J3500000D01*
G01*
X117460000Y-73000000D02*
G75*
G02*
X120960000Y-76500000I0J-3500000D01*
G01*
X120960000Y-124500000D02*
G75*
G02*
X117460000Y-128000000I-3500000J0D01*
G01*
%TD*%
M02*
