%TF.GenerationSoftware,KiCad,Pcbnew,5.99.0-unknown-046fb58183~131~ubuntu20.04.1*%
%TF.CreationDate,2021-07-12T17:52:21-05:00*%
%TF.ProjectId,WurthTransformerFix,57757274-6854-4726-916e-73666f726d65,rev?*%
%TF.SameCoordinates,Original*%
%TF.FileFunction,Copper,L2,Bot*%
%TF.FilePolarity,Positive*%
%FSLAX46Y46*%
G04 Gerber Fmt 4.6, Leading zero omitted, Abs format (unit mm)*
G04 Created by KiCad (PCBNEW 5.99.0-unknown-046fb58183~131~ubuntu20.04.1) date 2021-07-12 17:52:21*
%MOMM*%
%LPD*%
G01*
G04 APERTURE LIST*
%TA.AperFunction,ComponentPad*%
%ADD10R,1.300000X1.300000*%
%TD*%
%TA.AperFunction,ViaPad*%
%ADD11C,1.000000*%
%TD*%
%TA.AperFunction,Conductor*%
%ADD12C,1.000000*%
%TD*%
G04 APERTURE END LIST*
D10*
%TO.P,TR1,1,1*%
%TO.N,Net-(TR1-Pad1)*%
X-10500000Y5000000D03*
%TO.P,TR1,2*%
%TO.N,N/C*%
X-10500000Y2500000D03*
%TO.P,TR1,3,3*%
%TO.N,Net-(TR1-Pad3)*%
X-10500000Y0D03*
%TO.P,TR1,4,4*%
%TO.N,Net-(TR1-Pad4)*%
X-10500000Y-2500000D03*
%TO.P,TR1,5,5*%
%TO.N,Net-(TR1-Pad5)*%
X-10500000Y-5000000D03*
%TO.P,TR1,6,6*%
%TO.N,Net-(TR1-Pad6)*%
X10500000Y-5000000D03*
%TO.P,TR1,7,7*%
%TO.N,Net-(TR1-Pad7)*%
X10500000Y-2500000D03*
%TO.P,TR1,8*%
%TO.N,N/C*%
X10500000Y0D03*
%TO.P,TR1,9,9*%
%TO.N,Net-(TR1-Pad9)*%
X10500000Y2500000D03*
%TO.P,TR1,10,10*%
%TO.N,Net-(TR1-Pad10)*%
X10500000Y5000000D03*
%TD*%
D11*
%TO.N,Net-(TR1-Pad9)*%
X3500000Y0D03*
%TO.N,Net-(TR1-Pad6)*%
X500000Y0D03*
%TO.N,Net-(TR1-Pad10)*%
X2000000Y0D03*
%TO.N,Net-(TR1-Pad7)*%
X5000000Y-500000D03*
%TO.N,Net-(TR1-Pad5)*%
X-2000000Y0D03*
%TO.N,Net-(TR1-Pad1)*%
X-3500000Y0D03*
%TO.N,Net-(TR1-Pad4)*%
X-5000000Y0D03*
%TD*%
D12*
%TO.N,Net-(TR1-Pad9)*%
X3500000Y0D02*
X3500000Y500000D01*
X3500000Y500000D02*
X4250000Y1250000D01*
X4250000Y1250000D02*
X8500000Y1250000D01*
X8500000Y1250000D02*
X9750000Y2500000D01*
X9750000Y2500000D02*
X10500000Y2500000D01*
%TO.N,Net-(TR1-Pad10)*%
X2000000Y0D02*
X2000000Y1000000D01*
X4750000Y3750000D02*
X8500000Y3750000D01*
X2000000Y1000000D02*
X4750000Y3750000D01*
X8500000Y3750000D02*
X9750000Y5000000D01*
X9750000Y5000000D02*
X10500000Y5000000D01*
%TO.N,Net-(TR1-Pad1)*%
X-3500000Y0D02*
X-3500000Y1750000D01*
X-3500000Y1750000D02*
X-5500000Y3750000D01*
X-5500000Y3750000D02*
X-8500000Y3750000D01*
X-8500000Y3750000D02*
X-9750000Y5000000D01*
X-9750000Y5000000D02*
X-10500000Y5000000D01*
%TO.N,Net-(TR1-Pad5)*%
X-2000000Y0D02*
X-2000000Y-2750000D01*
X-2000000Y-2750000D02*
X-5500000Y-6250000D01*
X-5500000Y-6250000D02*
X-8500000Y-6250000D01*
X-8500000Y-6250000D02*
X-9750000Y-5000000D01*
X-9750000Y-5000000D02*
X-10500000Y-5000000D01*
%TO.N,Net-(TR1-Pad6)*%
X500000Y0D02*
X500000Y-2500000D01*
X500000Y-2500000D02*
X4250000Y-6250000D01*
X4250000Y-6250000D02*
X8500000Y-6250000D01*
X8500000Y-6250000D02*
X9750000Y-5000000D01*
X9750000Y-5000000D02*
X10500000Y-5000000D01*
%TO.N,Net-(TR1-Pad7)*%
X5000000Y-500000D02*
X5750000Y-1250000D01*
X8500000Y-1250000D02*
X9750000Y-2500000D01*
X5750000Y-1250000D02*
X8500000Y-1250000D01*
X9750000Y-2500000D02*
X10500000Y-2500000D01*
%TO.N,Net-(TR1-Pad4)*%
X-5000000Y0D02*
X-5000000Y-500000D01*
X-5000000Y-500000D02*
X-5750000Y-1250000D01*
X-5750000Y-1250000D02*
X-8500000Y-1250000D01*
X-8500000Y-1250000D02*
X-9750000Y-2500000D01*
X-9750000Y-2500000D02*
X-10500000Y-2500000D01*
%TD*%
M02*
