<svg width="512" height="512" xmlns="http://www.w3.org/2000/svg">

 <g>
  <title>background</title>
  <rect fill="none" id="canvas_background" height="402" width="582" y="-1" x="-1"/>
 </g>
 <g>
  <title>Layer 1</title>
  <path id="svg_2" fill="#070707" d="m443.328,112l-358.656,0c-20.25,0 -36.672,16.422 -36.672,36.672l0,294.656c0,20.25 16.422,36.672 36.672,36.672l358.656,0c20.25,0 36.672,-16.422 36.672,-36.672l0,-294.656c0,-20.25 -16.422,-36.672 -36.672,-36.672zm-11.328,311.5c0,4.688 -3.813,8.5 -8.5,8.5l-319,0c-4.695,0 -8.5,-3.813 -8.5,-8.5l0,-255c0,-4.695 3.805,-8.5 8.5,-8.5l319,0c4.688,0 8.5,3.805 8.5,8.5l0,255zm-177.602,-23.5c-6.664,0 -12.641,-4.133 -14.984,-10.383l-37.031,-100.352l-14.672,23.608c-2.969,4.453 -7.961,7.125 -13.313,7.125l-46.398,0c-8.836,0 -16,-7.164 -16,-16s7.164,-16 16,-16l37.836,0l27.25,-40.875c3.32,-4.992 9.156,-7.742 15.141,-7.023c5.969,0.688 11.047,4.656 13.156,10.281l32.781,89.031l49.18,-136.883c2.328,-6.398 9.063,-10.219 15.25,-10.531c6.797,0.094 12.813,4.484 14.953,10.938l28.359,85.064l38.094,0c8.844,0 16,7.164 16,16s-7.156,16 -16,16l-49.625,0c-6.891,0 -13,-4.406 -15.172,-10.938l-17.484,-55.633l-48.281,136.039c-2.289,6.298 -8.258,10.5 -14.96,10.531c-0.025,0.001 -0.056,0.001 -0.08,0.001z"/>
 </g>
</svg>