%TF.GenerationSoftware,KiCad,Pcbnew,5.99.0-unknown-d8b1e827c7~129~ubuntu20.04.1*%
%TF.CreationDate,2021-06-15T13:21:36-05:00*%
%TF.ProjectId,AP3500,41503335-3030-42e6-9b69-6361645f7063,rev?*%
%TF.SameCoordinates,Original*%
%TF.FileFunction,Paste,Top*%
%TF.FilePolarity,Positive*%
%FSLAX46Y46*%
G04 Gerber Fmt 4.6, Leading zero omitted, Abs format (unit mm)*
G04 Created by KiCad (PCBNEW 5.99.0-unknown-d8b1e827c7~129~ubuntu20.04.1) date 2021-06-15 13:21:36*
%MOMM*%
%LPD*%
G01*
G04 APERTURE LIST*
G04 Aperture macros list*
%AMRoundRect*
0 Rectangle with rounded corners*
0 $1 Rounding radius*
0 $2 $3 $4 $5 $6 $7 $8 $9 X,Y pos of 4 corners*
0 Add a 4 corners polygon primitive as box body*
4,1,4,$2,$3,$4,$5,$6,$7,$8,$9,$2,$3,0*
0 Add four circle primitives for the rounded corners*
1,1,$1+$1,$2,$3*
1,1,$1+$1,$4,$5*
1,1,$1+$1,$6,$7*
1,1,$1+$1,$8,$9*
0 Add four rect primitives between the rounded corners*
20,1,$1+$1,$2,$3,$4,$5,0*
20,1,$1+$1,$4,$5,$6,$7,0*
20,1,$1+$1,$6,$7,$8,$9,0*
20,1,$1+$1,$8,$9,$2,$3,0*%
G04 Aperture macros list end*
%TA.AperFunction,Profile*%
%ADD10C,0.100000*%
%TD*%
%ADD11RoundRect,0.250000X-1.250000X-0.550000X1.250000X-0.550000X1.250000X0.550000X-1.250000X0.550000X0*%
%ADD12R,0.600000X2.000000*%
%ADD13R,2.300000X3.200000*%
%ADD14RoundRect,0.200000X-0.275000X0.200000X-0.275000X-0.200000X0.275000X-0.200000X0.275000X0.200000X0*%
%ADD15RoundRect,0.200000X-0.200000X-0.275000X0.200000X-0.275000X0.200000X0.275000X-0.200000X0.275000X0*%
%ADD16RoundRect,0.218750X-0.218750X-0.256250X0.218750X-0.256250X0.218750X0.256250X-0.218750X0.256250X0*%
%ADD17RoundRect,0.225000X-0.225000X-0.250000X0.225000X-0.250000X0.225000X0.250000X-0.225000X0.250000X0*%
%ADD18R,1.800000X2.500000*%
%ADD19RoundRect,0.250000X-0.250000X-0.475000X0.250000X-0.475000X0.250000X0.475000X-0.250000X0.475000X0*%
%ADD20RoundRect,0.250000X-0.325000X-0.650000X0.325000X-0.650000X0.325000X0.650000X-0.325000X0.650000X0*%
%ADD21RoundRect,0.150000X-0.150000X0.825000X-0.150000X-0.825000X0.150000X-0.825000X0.150000X0.825000X0*%
%ADD22RoundRect,0.200000X0.275000X-0.200000X0.275000X0.200000X-0.275000X0.200000X-0.275000X-0.200000X0*%
%ADD23RoundRect,0.150000X0.662500X0.150000X-0.662500X0.150000X-0.662500X-0.150000X0.662500X-0.150000X0*%
%ADD24RoundRect,0.200000X0.200000X0.275000X-0.200000X0.275000X-0.200000X-0.275000X0.200000X-0.275000X0*%
%ADD25R,2.500000X1.800000*%
%ADD26R,1.200000X0.900000*%
%ADD27R,5.100000X1.900000*%
%ADD28RoundRect,0.225000X0.250000X-0.225000X0.250000X0.225000X-0.250000X0.225000X-0.250000X-0.225000X0*%
%ADD29RoundRect,0.250000X-0.450000X0.262500X-0.450000X-0.262500X0.450000X-0.262500X0.450000X0.262500X0*%
%ADD30R,0.900000X0.800000*%
%ADD31RoundRect,0.250000X-0.475000X0.250000X-0.475000X-0.250000X0.475000X-0.250000X0.475000X0.250000X0*%
%ADD32RoundRect,0.150000X-0.512500X-0.150000X0.512500X-0.150000X0.512500X0.150000X-0.512500X0.150000X0*%
%ADD33RoundRect,0.225000X0.225000X0.250000X-0.225000X0.250000X-0.225000X-0.250000X0.225000X-0.250000X0*%
%ADD34RoundRect,0.150000X-0.725000X-0.150000X0.725000X-0.150000X0.725000X0.150000X-0.725000X0.150000X0*%
%ADD35RoundRect,0.250000X0.325000X0.650000X-0.325000X0.650000X-0.325000X-0.650000X0.325000X-0.650000X0*%
%ADD36RoundRect,0.218750X0.381250X-0.218750X0.381250X0.218750X-0.381250X0.218750X-0.381250X-0.218750X0*%
%ADD37R,1.000000X1.050000*%
%ADD38R,1.050000X2.200000*%
%ADD39RoundRect,0.225000X-0.250000X0.225000X-0.250000X-0.225000X0.250000X-0.225000X0.250000X0.225000X0*%
%ADD40RoundRect,0.250000X0.650000X-0.325000X0.650000X0.325000X-0.650000X0.325000X-0.650000X-0.325000X0*%
%ADD41R,2.400000X1.500000*%
%ADD42R,1.050000X1.500000*%
%ADD43R,1.900000X5.100000*%
%ADD44RoundRect,0.150000X-0.150000X0.512500X-0.150000X-0.512500X0.150000X-0.512500X0.150000X0.512500X0*%
%ADD45RoundRect,0.250000X1.950000X1.000000X-1.950000X1.000000X-1.950000X-1.000000X1.950000X-1.000000X0*%
%ADD46RoundRect,0.250000X-0.325000X-1.100000X0.325000X-1.100000X0.325000X1.100000X-0.325000X1.100000X0*%
%ADD47RoundRect,0.250000X-1.425000X0.362500X-1.425000X-0.362500X1.425000X-0.362500X1.425000X0.362500X0*%
%ADD48R,5.300000X2.000000*%
%ADD49RoundRect,0.250000X-0.262500X-0.450000X0.262500X-0.450000X0.262500X0.450000X-0.262500X0.450000X0*%
%ADD50R,0.220000X1.000000*%
%ADD51RoundRect,0.250000X1.100000X-0.325000X1.100000X0.325000X-1.100000X0.325000X-1.100000X-0.325000X0*%
%ADD52RoundRect,0.150000X0.150000X-0.512500X0.150000X0.512500X-0.150000X0.512500X-0.150000X-0.512500X0*%
%ADD53RoundRect,0.250000X0.475000X-0.250000X0.475000X0.250000X-0.475000X0.250000X-0.475000X-0.250000X0*%
%ADD54R,3.360000X4.860000*%
%ADD55R,1.390000X1.400000*%
%ADD56RoundRect,0.250000X0.250000X0.475000X-0.250000X0.475000X-0.250000X-0.475000X0.250000X-0.475000X0*%
%ADD57RoundRect,0.218750X-0.218750X-0.381250X0.218750X-0.381250X0.218750X0.381250X-0.218750X0.381250X0*%
%ADD58R,4.000000X1.300000*%
%ADD59RoundRect,0.250000X0.625000X-0.312500X0.625000X0.312500X-0.625000X0.312500X-0.625000X-0.312500X0*%
%ADD60RoundRect,0.232500X0.232500X-0.757500X0.232500X0.757500X-0.232500X0.757500X-0.232500X-0.757500X0*%
%ADD61RoundRect,0.100000X0.100000X-0.687500X0.100000X0.687500X-0.100000X0.687500X-0.100000X-0.687500X0*%
%ADD62RoundRect,0.218750X0.218750X0.256250X-0.218750X0.256250X-0.218750X-0.256250X0.218750X-0.256250X0*%
G04 APERTURE END LIST*
D10*
X105000000Y0D02*
X105000000Y-105000000D01*
X0Y0D02*
X105000000Y0D01*
X0Y-105000000D02*
X105000000Y-105000000D01*
X0Y-105000000D02*
X0Y0D01*
D11*
X73134000Y-81410000D03*
X77534000Y-81410000D03*
D12*
X85306800Y-4797800D03*
X84906800Y-12997800D03*
X84506800Y-4797800D03*
X84106800Y-12997800D03*
X83706800Y-4797800D03*
X83306800Y-12997800D03*
X82906800Y-4797800D03*
X82506800Y-12997800D03*
X82106800Y-4797800D03*
X81706800Y-12997800D03*
X81306800Y-4797800D03*
X80906800Y-12997800D03*
X80506800Y-4797800D03*
X80106800Y-12997800D03*
X79706800Y-4797800D03*
X79306800Y-12997800D03*
X75706800Y-4797800D03*
X75306800Y-12997800D03*
X74906800Y-4797800D03*
X74506800Y-12997800D03*
X74106800Y-4797800D03*
X73706800Y-12997800D03*
X73306800Y-4797800D03*
X72906800Y-12997800D03*
X72506800Y-4797800D03*
X72106800Y-12997800D03*
X71706800Y-4797800D03*
X71306800Y-12997800D03*
X70906800Y-4797800D03*
X70506800Y-12997800D03*
X70106800Y-4797800D03*
X69706800Y-12997800D03*
X69306800Y-4797800D03*
X68906800Y-12997800D03*
X68506800Y-4797800D03*
X68106800Y-12997800D03*
X67706800Y-4797800D03*
X67306800Y-12997800D03*
X66906800Y-4797800D03*
X66506800Y-12997800D03*
X66106800Y-4797800D03*
X65706800Y-12997800D03*
X65306800Y-4797800D03*
X64906800Y-12997800D03*
X64506800Y-4797800D03*
X64106800Y-12997800D03*
X63706800Y-4797800D03*
X63306800Y-12997800D03*
X62906800Y-4797800D03*
X62506800Y-12997800D03*
X62106800Y-4797800D03*
X61706800Y-12997800D03*
D13*
X88156800Y-5397800D03*
X58856800Y-5397800D03*
D14*
X69777600Y-94707800D03*
X69777600Y-96357800D03*
D15*
X17790001Y-13328400D03*
X19440001Y-13328400D03*
D16*
X82212500Y-102500000D03*
X83787500Y-102500000D03*
D17*
X72932400Y-87023800D03*
X74482400Y-87023800D03*
D15*
X20838001Y-13328400D03*
X22488001Y-13328400D03*
D16*
X77212500Y-102500000D03*
X78787500Y-102500000D03*
D14*
X65332600Y-93691800D03*
X65332600Y-95341800D03*
D18*
X16558613Y-89295200D03*
X16558613Y-93295200D03*
D19*
X98766500Y-37071032D03*
X100666500Y-37071032D03*
D15*
X87216400Y-83301699D03*
X88866400Y-83301699D03*
D20*
X98407500Y-62764400D03*
X101357500Y-62764400D03*
D21*
X97341600Y-92877600D03*
X96071600Y-92877600D03*
X94801600Y-92877600D03*
X93531600Y-92877600D03*
X92261600Y-92877600D03*
X90991600Y-92877600D03*
X89721600Y-92877600D03*
X89721600Y-97827600D03*
X90991600Y-97827600D03*
X92261600Y-97827600D03*
X93531600Y-97827600D03*
X94801600Y-97827600D03*
X96071600Y-97827600D03*
X97341600Y-97827600D03*
D19*
X23309000Y-19406600D03*
X25209000Y-19406600D03*
D22*
X92334000Y-86692099D03*
X92334000Y-85042099D03*
D23*
X85366000Y-89942400D03*
X85366000Y-88672400D03*
X78991000Y-88672400D03*
X78991000Y-89942400D03*
D24*
X74532400Y-85372800D03*
X72882400Y-85372800D03*
D14*
X90784600Y-85042099D03*
X90784600Y-86692099D03*
D16*
X67212500Y-102500000D03*
X68787500Y-102500000D03*
D25*
X53256800Y-93369202D03*
X57256800Y-93369202D03*
D26*
X68294200Y-79378400D03*
X68294200Y-76078400D03*
D27*
X94895799Y-51124399D03*
X94895799Y-46924399D03*
D17*
X99881300Y-31592100D03*
X101431300Y-31592100D03*
D15*
X99412200Y-96521000D03*
X101062200Y-96521000D03*
D26*
X65890200Y-79377400D03*
X65890200Y-76077400D03*
D25*
X53244000Y-97079800D03*
X57244000Y-97079800D03*
D24*
X87028200Y-94844600D03*
X85378200Y-94844600D03*
D28*
X65332600Y-90173400D03*
X65332600Y-88623400D03*
D29*
X70463400Y-76165100D03*
X70463400Y-77990100D03*
D20*
X98165300Y-26451300D03*
X101115300Y-26451300D03*
D30*
X89244600Y-86842499D03*
X89244600Y-84942499D03*
X87244600Y-85892499D03*
D25*
X53224800Y-100788200D03*
X57224800Y-100788200D03*
D22*
X63935600Y-78552400D03*
X63935600Y-76902400D03*
D15*
X90586200Y-10821400D03*
X92236200Y-10821400D03*
X99412200Y-99772200D03*
X101062200Y-99772200D03*
D27*
X94611100Y-33428100D03*
X94611100Y-29228100D03*
D22*
X15604400Y-80175600D03*
X15604400Y-78525600D03*
D31*
X15223300Y-97421000D03*
X15223300Y-99321000D03*
D32*
X99066899Y-51018802D03*
X99066899Y-51968802D03*
X99066899Y-52918802D03*
X101341899Y-52918802D03*
X101341899Y-51968802D03*
X101341899Y-51018802D03*
D17*
X100000600Y-49428802D03*
X101550600Y-49428802D03*
D33*
X97321800Y-53087000D03*
X95771800Y-53087000D03*
X72934396Y-15406795D03*
X71384396Y-15406795D03*
D34*
X65119800Y-70564600D03*
X65119800Y-71834600D03*
X65119800Y-73104600D03*
X65119800Y-74374600D03*
X70269800Y-74374600D03*
X70269800Y-73104600D03*
X70269800Y-71834600D03*
X70269800Y-70564600D03*
D35*
X37121000Y-71426000D03*
X34171000Y-71426000D03*
D36*
X52790000Y-86922500D03*
X52790000Y-84797500D03*
D18*
X60736600Y-81668600D03*
X60736600Y-85668600D03*
D15*
X72882400Y-90358801D03*
X74532400Y-90358801D03*
X74420796Y-15397795D03*
X76070796Y-15397795D03*
D37*
X42249917Y-8269178D03*
D38*
X40774917Y-9794178D03*
X43724917Y-9794178D03*
D39*
X63813600Y-65926400D03*
X63813600Y-67476400D03*
D25*
X45604800Y-97079800D03*
X49604800Y-97079800D03*
D33*
X100656600Y-65228200D03*
X99106600Y-65228200D03*
D24*
X76070796Y-16930795D03*
X74420796Y-16930795D03*
D40*
X92127199Y-44098599D03*
X92127199Y-41148599D03*
D14*
X103125399Y-52159802D03*
X103125399Y-53809802D03*
X71322600Y-94716800D03*
X71322600Y-96366800D03*
D32*
X98960000Y-33182100D03*
X98960000Y-34132100D03*
X98960000Y-35082100D03*
X101235000Y-35082100D03*
X101235000Y-34132100D03*
X101235000Y-33182100D03*
D41*
X66265600Y-68352400D03*
D42*
X68640600Y-68352400D03*
D43*
X19732601Y-21735800D03*
X15532601Y-21735800D03*
D44*
X92268000Y-79293999D03*
X91318000Y-79293999D03*
X90368000Y-79293999D03*
X90368000Y-81568999D03*
X92268000Y-81568999D03*
D45*
X52397000Y-79528400D03*
X44997000Y-79528400D03*
D22*
X68253600Y-96357800D03*
X68253600Y-94707800D03*
D24*
X34438000Y-75058000D03*
X32788000Y-75058000D03*
D19*
X54466400Y-86869000D03*
X56366400Y-86869000D03*
D36*
X58040000Y-86922500D03*
X58040000Y-84797500D03*
D16*
X87212500Y-102500000D03*
X88787500Y-102500000D03*
D39*
X76056400Y-85372800D03*
X76056400Y-86922800D03*
D46*
X80525000Y-79960200D03*
X83475000Y-79960200D03*
D47*
X101862800Y-66939300D03*
X101862800Y-72864300D03*
D14*
X103125399Y-49111802D03*
X103125399Y-50761802D03*
D19*
X54466400Y-84710000D03*
X56366400Y-84710000D03*
D15*
X90305200Y-90056899D03*
X91955200Y-90056899D03*
D17*
X90327400Y-83301699D03*
X91877400Y-83301699D03*
D31*
X13115100Y-97421000D03*
X13115100Y-99321000D03*
D35*
X96632200Y-59459700D03*
X93682200Y-59459700D03*
D24*
X87016000Y-96546400D03*
X85366000Y-96546400D03*
D15*
X90586200Y-9195800D03*
X92236200Y-9195800D03*
D25*
X45614943Y-89682403D03*
X49614943Y-89682403D03*
D14*
X103018500Y-31275100D03*
X103018500Y-32925100D03*
D48*
X57057200Y-76401600D03*
X57057200Y-72901600D03*
D49*
X60411900Y-68174600D03*
X62236900Y-68174600D03*
D16*
X92212500Y-102500000D03*
X93787500Y-102500000D03*
D20*
X15903602Y-26671000D03*
X18853602Y-26671000D03*
D33*
X66516000Y-2908000D03*
X64966000Y-2908000D03*
D50*
X21217997Y-68560008D03*
X21217997Y-65480008D03*
X21617997Y-68560008D03*
X21617997Y-65480008D03*
X22017997Y-68560008D03*
X22017997Y-65480008D03*
X22417997Y-68560008D03*
X22417997Y-65480008D03*
X22817997Y-68560008D03*
X22817997Y-65480008D03*
X23217997Y-68560008D03*
X23217997Y-65480008D03*
X23617997Y-68560008D03*
X23617997Y-65480008D03*
X24017997Y-68560008D03*
X24017997Y-65480008D03*
X24417997Y-68560008D03*
X24417997Y-65480008D03*
X24817997Y-68560008D03*
X24817997Y-65480008D03*
X25217997Y-68560008D03*
X25217997Y-65480008D03*
X25617997Y-68560008D03*
X25617997Y-65480008D03*
X26017997Y-68560008D03*
X26017997Y-65480008D03*
X26417997Y-68560008D03*
X26417997Y-65480008D03*
X26817997Y-68560008D03*
X26817997Y-65480008D03*
X27217997Y-68560008D03*
X27217997Y-65480008D03*
X27617997Y-68560008D03*
X27617997Y-65480008D03*
X28017997Y-68560008D03*
X28017997Y-65480008D03*
X28417997Y-68560008D03*
X28417997Y-65480008D03*
X28817997Y-68560008D03*
X28817997Y-65480008D03*
X29217997Y-68560008D03*
X29217997Y-65480008D03*
X29617997Y-68560008D03*
X29617997Y-65480008D03*
X30017997Y-68560008D03*
X30017997Y-65480008D03*
X30417997Y-68560008D03*
X30417997Y-65480008D03*
X30817997Y-68560008D03*
X30817997Y-65480008D03*
X31217997Y-68560008D03*
X31217997Y-65480008D03*
X31617997Y-68560008D03*
X31617997Y-65480008D03*
X32017997Y-68560008D03*
X32017997Y-65480008D03*
X32417997Y-68560008D03*
X32417997Y-65480008D03*
X32817997Y-68560008D03*
X32817997Y-65480008D03*
X33217997Y-68560008D03*
X33217997Y-65480008D03*
X33617997Y-68560008D03*
X33617997Y-65480008D03*
X34017997Y-68560008D03*
X34017997Y-65480008D03*
X34417997Y-68560008D03*
X34417997Y-65480008D03*
X34817997Y-68560008D03*
X34817997Y-65480008D03*
X35217997Y-68560008D03*
X35217997Y-65480008D03*
X35617997Y-68560008D03*
X35617997Y-65480008D03*
X36017997Y-68560008D03*
X36017997Y-65480008D03*
X36417997Y-68560008D03*
X36417997Y-65480008D03*
X36817997Y-68560008D03*
X36817997Y-65480008D03*
X37217997Y-68560008D03*
X37217997Y-65480008D03*
X37617997Y-68560008D03*
X37617997Y-65480008D03*
X38017997Y-68560008D03*
X38017997Y-65480008D03*
X38417997Y-68560008D03*
X38417997Y-65480008D03*
X38817997Y-68560008D03*
X38817997Y-65480008D03*
X39217997Y-68560008D03*
X39217997Y-65480008D03*
X39617997Y-68560008D03*
X39617997Y-65480008D03*
X40017997Y-68560008D03*
X40017997Y-65480008D03*
X40417997Y-68560008D03*
X40417997Y-65480008D03*
X40817997Y-68560008D03*
X40817997Y-65480008D03*
X21217997Y-34640008D03*
X21217997Y-31560008D03*
X21617997Y-34640008D03*
X21617997Y-31560008D03*
X22017997Y-34640008D03*
X22017997Y-31560008D03*
X22417997Y-34640008D03*
X22417997Y-31560008D03*
X22817997Y-34640008D03*
X22817997Y-31560008D03*
X23217997Y-34640008D03*
X23217997Y-31560008D03*
X23617997Y-34640008D03*
X23617997Y-31560008D03*
X24017997Y-34640008D03*
X24017997Y-31560008D03*
X24417997Y-34640008D03*
X24417997Y-31560008D03*
X24817997Y-34640008D03*
X24817997Y-31560008D03*
X25217997Y-34640008D03*
X25217997Y-31560008D03*
X25617997Y-34640008D03*
X25617997Y-31560008D03*
X26017997Y-34640008D03*
X26017997Y-31560008D03*
X26417997Y-34640008D03*
X26417997Y-31560008D03*
X26817997Y-34640008D03*
X26817997Y-31560008D03*
X27217997Y-34640008D03*
X27217997Y-31560008D03*
X27617997Y-34640008D03*
X27617997Y-31560008D03*
X28017997Y-34640008D03*
X28017997Y-31560008D03*
X28417997Y-34640008D03*
X28417997Y-31560008D03*
X28817997Y-34640008D03*
X28817997Y-31560008D03*
X29217997Y-34640008D03*
X29217997Y-31560008D03*
X29617997Y-34640008D03*
X29617997Y-31560008D03*
X30017997Y-34640008D03*
X30017997Y-31560008D03*
X30417997Y-34640008D03*
X30417997Y-31560008D03*
X30817997Y-34640008D03*
X30817997Y-31560008D03*
X31217997Y-34640008D03*
X31217997Y-31560008D03*
X31617997Y-34640008D03*
X31617997Y-31560008D03*
X32017997Y-34640008D03*
X32017997Y-31560008D03*
X32417997Y-34640008D03*
X32417997Y-31560008D03*
X32817997Y-34640008D03*
X32817997Y-31560008D03*
X33217997Y-34640008D03*
X33217997Y-31560008D03*
X33617997Y-34640008D03*
X33617997Y-31560008D03*
X34017997Y-34640008D03*
X34017997Y-31560008D03*
X34417997Y-34640008D03*
X34417997Y-31560008D03*
X34817997Y-34640008D03*
X34817997Y-31560008D03*
X35217997Y-34640008D03*
X35217997Y-31560008D03*
X35617997Y-34640008D03*
X35617997Y-31560008D03*
X36017997Y-34640008D03*
X36017997Y-31560008D03*
X36417997Y-34640008D03*
X36417997Y-31560008D03*
X36817997Y-34640008D03*
X36817997Y-31560008D03*
X37217997Y-34640008D03*
X37217997Y-31560008D03*
X37617997Y-34640008D03*
X37617997Y-31560008D03*
X38017997Y-34640008D03*
X38017997Y-31560008D03*
X38417997Y-34640008D03*
X38417997Y-31560008D03*
X38817997Y-34640008D03*
X38817997Y-31560008D03*
X39217997Y-34640008D03*
X39217997Y-31560008D03*
X39617997Y-34640008D03*
X39617997Y-31560008D03*
X40017997Y-34640008D03*
X40017997Y-31560008D03*
X40417997Y-34640008D03*
X40417997Y-31560008D03*
X40817997Y-34640008D03*
X40817997Y-31560008D03*
D37*
X34675000Y-8266000D03*
D38*
X36150000Y-9791000D03*
X33200000Y-9791000D03*
D19*
X23312001Y-21532600D03*
X25212001Y-21532600D03*
D33*
X97113300Y-35267632D03*
X95563300Y-35267632D03*
D51*
X66475600Y-65130800D03*
X66475600Y-62180800D03*
D22*
X63479800Y-90234000D03*
X63479800Y-88584000D03*
D52*
X19441001Y-17336100D03*
X20391001Y-17336100D03*
X21341001Y-17336100D03*
X21341001Y-15061100D03*
X20391001Y-15061100D03*
X19441001Y-15061100D03*
D20*
X98117999Y-44096799D03*
X101067999Y-44096799D03*
D15*
X99412200Y-98146600D03*
X101062200Y-98146600D03*
D19*
X98870600Y-54738000D03*
X100770600Y-54738000D03*
D17*
X83366795Y-15373794D03*
X84916795Y-15373794D03*
X23286001Y-17468600D03*
X24836001Y-17468600D03*
D53*
X85450900Y-86852498D03*
X85450900Y-84952498D03*
D15*
X87196200Y-90071299D03*
X88846200Y-90071299D03*
D28*
X17853001Y-16398800D03*
X17853001Y-14848800D03*
D15*
X87196200Y-88520000D03*
X88846200Y-88520000D03*
D16*
X72212500Y-102500000D03*
X73787500Y-102500000D03*
D20*
X98406600Y-59462400D03*
X101356600Y-59462400D03*
D17*
X72932400Y-88674800D03*
X74482400Y-88674800D03*
D40*
X91944100Y-25691100D03*
X91944100Y-22741100D03*
D54*
X97519400Y-68781800D03*
D55*
X98439400Y-72763800D03*
X96599400Y-72763800D03*
D56*
X97069900Y-37071032D03*
X95169900Y-37071032D03*
D51*
X69777600Y-65130800D03*
X69777600Y-62180800D03*
D57*
X13094100Y-101034400D03*
X15219100Y-101034400D03*
D15*
X65332600Y-92230800D03*
X66982600Y-92230800D03*
D24*
X86990600Y-98273600D03*
X85340600Y-98273600D03*
D25*
X53254143Y-89682403D03*
X57254143Y-89682403D03*
D14*
X103018500Y-34323100D03*
X103018500Y-35973100D03*
D58*
X74111987Y-65247993D03*
X74111987Y-67747993D03*
X74111987Y-70247993D03*
X74111987Y-72747993D03*
X74111987Y-75247993D03*
X92411987Y-75247993D03*
X92411987Y-72747993D03*
X92411987Y-70247993D03*
X92411987Y-67747993D03*
X92411987Y-65247993D03*
D59*
X62792600Y-74374600D03*
X62792600Y-71449600D03*
D17*
X63988196Y-15025795D03*
X65538196Y-15025795D03*
D25*
X45617600Y-93369202D03*
X49617600Y-93369202D03*
D35*
X96606800Y-56135000D03*
X93656800Y-56135000D03*
D28*
X36889600Y-83783200D03*
X36889600Y-82233200D03*
D56*
X68690000Y-81260000D03*
X66790000Y-81260000D03*
D32*
X10802500Y-76610000D03*
X10802500Y-77560000D03*
X10802500Y-78510000D03*
X13077500Y-78510000D03*
X13077500Y-76610000D03*
D57*
X13094100Y-95710000D03*
X15219100Y-95710000D03*
D40*
X95246100Y-25691100D03*
X95246100Y-22741100D03*
X95556199Y-44098599D03*
X95556199Y-41148599D03*
D60*
X69595609Y-87404788D03*
X68435609Y-87404788D03*
D61*
X66740609Y-90267288D03*
X67390609Y-90267288D03*
X68040609Y-90267288D03*
X68690609Y-90267288D03*
X69340609Y-90267288D03*
X69990609Y-90267288D03*
X70640609Y-90267288D03*
X71290609Y-90267288D03*
X71290609Y-84542288D03*
X70640609Y-84542288D03*
X69990609Y-84542288D03*
X69340609Y-84542288D03*
X68690609Y-84542288D03*
X68040609Y-84542288D03*
X67390609Y-84542288D03*
X66740609Y-84542288D03*
D15*
X11604400Y-80100400D03*
X13254400Y-80100400D03*
D17*
X87266400Y-81752299D03*
X88816400Y-81752299D03*
D62*
X15961100Y-84135800D03*
X14386100Y-84135800D03*
D15*
X19326000Y-75083400D03*
X20976000Y-75083400D03*
X72894600Y-92002200D03*
X74544600Y-92002200D03*
D25*
X45585600Y-100788200D03*
X49585600Y-100788200D03*
D19*
X98873398Y-56795400D03*
X100773398Y-56795400D03*
D16*
X9406700Y-84125800D03*
X10981700Y-84125800D03*
D15*
X90303000Y-88483299D03*
X91953000Y-88483299D03*
M02*
