M48
INCH,TZ
T1C0.0079
T2C0.0079
T3C0.0331
T4C0.0350
T5C0.0394
T6C0.0433
T7C0.0620
T8C0.1457
T9C0.0433
T10C0.0630
T11C0.1024
T12C0.1063
T13C0.1280
%
G90
G05
T1
X253Y-33430
X253Y-34358
X253Y-36044
X253Y-37729
X253Y-39415
X253Y-41100
X2059Y-41100
X2133Y-33430
X2133Y-34358
X3013Y-13990
X3040Y-21455
X3083Y-11360
X3103Y-9840
X3830Y-41100
X4013Y-33430
X4013Y-34358
X4063Y-21450
X4069Y-22170
X4073Y-9850
X4083Y-14160
X4119Y-31040
X4163Y-10890
X4353Y-7760
X4483Y-27159
X4713Y-13010
X4753Y-6820
X4783Y-27390
X5352Y-10840
X5362Y-10170
X5469Y-29179
X5572Y-10500
X5601Y-41100
X5603Y-24710
X5733Y-6240
X5792Y-10840
X5802Y-10170
X5893Y-33430
X5893Y-34358
X5920Y-26890
X5993Y-15910
X6073Y-29290
X6483Y-11340
X6503Y-13590
X6593Y-39120
X6773Y-34560
X6783Y-37660
X6869Y-30584
X6933Y-29630
X6983Y-34370
X6983Y-34730
X7203Y-34560
X7243Y-6860
X7243Y-7090
X7413Y-6610
X7603Y-33430
X7653Y-7200
X7913Y-9990
X8203Y-25785
X8203Y-27000
X8263Y-29850
X8453Y-8920
X8533Y-15580
X8713Y-14054
X8823Y-12100
X8823Y-27320
X8832Y-7247
X8832Y-7627
X8832Y-8077
X8832Y-8527
X8833Y-5890
X8903Y-33430
X9025Y-26180
X9144Y-41100
X9282Y-8067
X9293Y-27320
X9301Y-12035
X9303Y-13990
X9343Y-25450
X9557Y-26487
X9644Y-12002
X9683Y-36540
X9773Y-13990
X9773Y-22210
X9781Y-23767
X9883Y-19930
X9927Y-25450
X10083Y-27320
X10095Y-5786
X10113Y-26597
X10253Y-13990
X10292Y-12099
X10313Y-23030
X10409Y-26402
X10433Y-8840
X10711Y-25450
X10713Y-12100
X10713Y-13990
X10720Y-26114
X10733Y-23980
X10870Y-26657
X10873Y-27320
X10915Y-41100
X11193Y-12100
X11193Y-13990
X11293Y-20920
X11333Y-6713
X11370Y-26161
X11393Y-35710
X11473Y-18500
X11493Y-25448
X11661Y-26657
X11663Y-12100
X11663Y-13990
X11663Y-27320
X11718Y-23222
X11752Y-5792
X11781Y-26196
X12123Y-33440
X12128Y-22729
X12133Y-12100
X12133Y-13990
X12293Y-26677
X12339Y-26126
X12450Y-27381
X12603Y-12100
X12603Y-13990
X12603Y-26677
X12613Y-8620
X12686Y-41100
X12903Y-29230
X12921Y-27373
X12929Y-26126
X12929Y-26677
X13015Y-28156
X13047Y-25417
X13073Y-12100
X13073Y-13990
X13103Y-22720
X13381Y-25417
X13390Y-27368
X13392Y-28682
X13394Y-26126
X13402Y-26677
X13553Y-12100
X13553Y-13990
X13763Y-29790
X13853Y-24930
X13864Y-27372
X13874Y-26677
X13893Y-25417
X13929Y-26126
X14023Y-12100
X14023Y-13990
X14103Y-8640
X14326Y-26550
X14343Y-21490
X14345Y-27433
X14403Y-6930
X14457Y-41100
X14493Y-12100
X14493Y-13990
X14495Y-26672
X14538Y-27593
X14656Y-26548
X14689Y-27446
X14756Y-27640
X14808Y-26684
X14965Y-26556
X14973Y-12100
X14973Y-13990
X14974Y-27576
X15073Y-29136
X15073Y-30202
X15073Y-31268
X15073Y-32334
X15073Y-33400
X15128Y-27432
X15132Y-26674
X15443Y-12100
X15443Y-13990
X15544Y-27428
X15713Y-22960
X15893Y-6920
X15903Y-25450
X15903Y-26126
X15913Y-12100
X15913Y-13990
X16193Y-29020
X16193Y-29994
X16193Y-30968
X16193Y-31942
X16193Y-32916
X16193Y-33890
X16228Y-41100
X16234Y-28020
X16753Y-18470
X17023Y-18670
X17089Y-30531
X17129Y-32054
X17238Y-29020
X17283Y-18870
X17394Y-28020
X17503Y-8630
X17563Y-18270
X17833Y-18070
X17999Y-41100
X18103Y-17810
X18283Y-29020
X18555Y-28020
X18672Y-32030
X18682Y-30520
X18932Y-5349
X19116Y-230
X19273Y-6940
X19328Y-29020
X19463Y-9450
X19715Y-28020
X19770Y-41100
X20130Y-39541
X20130Y-39821
X20142Y-35180
X20142Y-35440
X20142Y-38090
X20142Y-38370
X20143Y-36640
X20143Y-36900
X20280Y-4570
X20300Y-39681
X20302Y-38229
X20322Y-35310
X20323Y-36770
X20373Y-29020
X20409Y-230
X20523Y-27550
X20659Y-5554
X20723Y-8250
X20743Y-32890
X20902Y-32730
X20902Y-33040
X21072Y-32890
X21073Y-28570
X21422Y-2943
X21541Y-41100
X21702Y-230
X21979Y-1148
X22183Y-24300
X22533Y-19260
X22613Y-17470
X22883Y-13110
X22994Y-230
X23183Y-23480
X23263Y-2920
X23272Y-32150
X23272Y-32410
X23272Y-32670
X23312Y-41100
X23323Y-24860
X23434Y-1316
X23615Y-13647
X24064Y-24320
X24287Y-230
X24293Y-5616
X24296Y-4614
X24483Y-11500
X24521Y-29661
X24533Y-14150
X24613Y-4190
X24613Y-6050
X24753Y-23490
X24779Y-24320
X24942Y-12332
X25083Y-38410
X25083Y-39307
X25083Y-40204
X25083Y-41100
X25121Y-29661
X25374Y-32791
X25493Y-24320
X25573Y-23480
X25580Y-230
X25593Y-2456
X25762Y-35960
X25793Y-38410
X25796Y-39060
X25796Y-39960
X25796Y-41100
X25971Y-31661
X25971Y-37311
X25973Y-1396
X26012Y-35720
X26032Y-35360
X26036Y-2420
X26091Y-28781
X26193Y-6060
X26351Y-2420
X26413Y-1396
X26413Y-12360
X26533Y-32860
X26571Y-37961
X26768Y-23480
X26793Y-32860
X26811Y-24661
X26814Y-1353
X26833Y-2436
X26873Y-230
X26951Y-38410
X26952Y-39060
X26975Y-41100
X27133Y-6060
X27213Y-4050
X27373Y-40360
X27421Y-37671
X27771Y-32361
X27963Y-23480
X27971Y-32661
X28003Y-19280
X28073Y-1356
X28074Y-2430
X28083Y-17470
X28108Y-39060
X28109Y-38410
X28154Y-41100
X28166Y-230
X28173Y-24320
X28271Y-33011
X28271Y-33511
X28381Y-37871
X28421Y-35261
X28532Y-29024
X28693Y-33961
X28694Y-4616
X28713Y-5616
X28773Y-33290
X29158Y-23480
X29173Y-2396
X29176Y-1386
X29265Y-39060
X29267Y-38410
X29293Y-33311
X29333Y-41100
X29333Y-40370
X29397Y-24320
X29458Y-230
X29633Y-34391
X30051Y-31541
X30051Y-32511
X30077Y-29016
X30159Y-28370
X30353Y-23480
X30421Y-39060
X30425Y-38410
X30512Y-41100
X30620Y-24320
X30751Y-230
X30763Y-6070
X30892Y-34681
X31121Y-31541
X31241Y-32341
X31263Y-6530
X31303Y-40360
X31373Y-2430
X31548Y-23480
X31577Y-39060
X31583Y-38410
X31691Y-41100
X31843Y-24320
X31843Y-25542
X31843Y-26764
X31843Y-27986
X31843Y-29208
X31843Y-30429
X31843Y-32873
X31843Y-35317
X31843Y-36539
X31843Y-37760
X31853Y-33976
X32044Y-230
X32323Y-2460
X32640Y-2433
X32733Y-39060
X32743Y-23480
X32743Y-24320
X32743Y-25542
X32743Y-26764
X32743Y-27986
X32743Y-29208
X32743Y-30430
X32743Y-32874
X32743Y-34096
X32743Y-35318
X32743Y-36540
X32743Y-37761
X32870Y-41100
X33263Y-40370
X33337Y-230
X33413Y-5616
X33453Y-39890
X33533Y-19220
X33653Y-5106
X33693Y-33130
X33764Y-6106
X33843Y-17450
X33933Y-36920
X34049Y-41100
X34063Y-26960
X34063Y-30960
X34073Y-29130
X34583Y-24500
X34630Y-230
X34943Y-20630
X34953Y-23100
X35093Y-36710
X35228Y-41100
X35233Y-40360
X35313Y-37080
X35493Y-15850
X35593Y-9104
X35753Y-30490
X35833Y-38030
X35863Y-14110
X35922Y-230
X36093Y-31810
X36323Y-37060
X36363Y-33870
X36373Y-34420
X36407Y-41100
X36445Y-25239
X36471Y-26171
X36481Y-27151
X36580Y-32336
X36618Y-10654
X36618Y-10984
X36623Y-24200
X36633Y-30500
X36803Y-9061
X36823Y-38160
X36873Y-35540
X36933Y-21350
X37043Y-39390
X37093Y-30780
X37203Y-40350
X37215Y-230
X37238Y-10654
X37238Y-10984
X37253Y-24350
X37299Y-25695
X37307Y-26677
X37323Y-37050
X37353Y-15600
X37443Y-19270
X37586Y-41100
X37683Y-23370
X37693Y-24070
X37813Y-38150
X37883Y-40350
X37938Y-10654
X37938Y-10984
X37993Y-26300
X37993Y-27100
X37993Y-27900
X38025Y-22750
X38083Y-37130
X38113Y-36060
X38233Y-9960
X38233Y-10290
X38233Y-14200
X38303Y-12510
X38363Y-39140
X38393Y-26650
X38393Y-27520
X38508Y-230
X38523Y-22740
X38533Y-38290
X38543Y-14200
X38553Y-13850
X38553Y-14530
X38553Y-38680
X38765Y-41100
X38793Y-26300
X38793Y-27100
X38793Y-27900
X38823Y-12350
X38833Y-14200
X38983Y-37220
X39047Y-11261
X39085Y-24070
X39085Y-24770
X39093Y-23370
X39123Y-12830
X39203Y-19860
X39483Y-19080
X39576Y-10862
X39801Y-230
X39873Y-18140
X39893Y-16610
X39944Y-41100
X39953Y-21980
X40113Y-24060
X40113Y-25360
X41093Y-230
X41093Y-2575
X41093Y-3743
X41093Y-4910
X41093Y-6078
X41093Y-7245
X41093Y-8412
X41093Y-9580
X41093Y-10747
X41093Y-11915
X41093Y-13082
X41093Y-14250
X41093Y-15417
X41093Y-16584
X41093Y-17752
X41093Y-18919
X41093Y-20087
X41093Y-21254
X41093Y-22422
X41093Y-23589
X41093Y-24756
X41093Y-25924
X41093Y-27091
X41093Y-28259
X41093Y-29426
X41093Y-32928
X41093Y-34096
X41093Y-35263
X41093Y-36431
X41093Y-37598
X41093Y-38766
X41093Y-39933
X41093Y-41100
T2
X26404Y-33880
X26404Y-34411
X26404Y-34943
X26916Y-33880
X26916Y-34411
X26916Y-34943
X27427Y-33880
X27427Y-34411
X27427Y-34943
X27939Y-33880
X27939Y-34411
X27939Y-34943
T3
X13154Y-1774
X13154Y-2774
X13654Y-2274
X14154Y-1774
X14154Y-2774
X16136Y-1776
X16136Y-2776
X16636Y-2276
X17136Y-1776
X17136Y-2776
T4
X8191Y-31598
X8391Y-35398
X8391Y-35984
X8591Y-32598
X8991Y-31598
X9391Y-32598
X9791Y-31598
X10191Y-32598
X10991Y-32598
X11391Y-31598
X11791Y-32598
X12191Y-31598
X12591Y-32598
X12791Y-35398
X12791Y-35984
X12991Y-31598
T5
X1703Y-5050
X1703Y-6050
X1703Y-7050
X1703Y-8050
T6
X8191Y-30598
X9191Y-30598
X11991Y-30598
X12991Y-30598
T7
X7415Y-39848
X13766Y-39848
T8
X1575Y-1575
X1575Y-31102
X39764Y-1575
X39764Y-31102
T9
X24018Y-3503
T10
X33861Y-3503
T11
X24176Y-22420
X33703Y-22420
T12
X1779Y-13213
X1779Y-26205
X20676Y-13213
X20676Y-26205
T13
X8091Y-38598
X13091Y-38598
T5
G00X1666Y-37471
M15
G01X2453Y-37471
M16
G05
G00X1666Y-39833
M15
G01X2453Y-39833
M16
G05
G00X3910Y-39046
M15
G01X3910Y-38258
M16
G05
T0
M30
