G04 #@! TF.GenerationSoftware,KiCad,Pcbnew,5.99.0-unknown-50e22de3ba~107~ubuntu20.04.1*
G04 #@! TF.CreationDate,2021-01-20T17:19:26-06:00*
G04 #@! TF.ProjectId,AP3500,41503335-3030-42e6-9b69-6361645f7063,rev?*
G04 #@! TF.SameCoordinates,Original*
G04 #@! TF.FileFunction,Legend,Top*
G04 #@! TF.FilePolarity,Positive*
%FSLAX46Y46*%
G04 Gerber Fmt 4.6, Leading zero omitted, Abs format (unit mm)*
G04 Created by KiCad (PCBNEW 5.99.0-unknown-50e22de3ba~107~ubuntu20.04.1) date 2021-01-20 17:19:26*
%MOMM*%
%LPD*%
G01*
G04 APERTURE LIST*
%ADD10C,0.101600*%
%ADD11C,0.300000*%
G04 #@! TA.AperFunction,Profile*
%ADD12C,0.100000*%
G04 #@! TD*
%ADD13C,0.076200*%
%ADD14C,0.015000*%
%ADD15C,0.150000*%
%ADD16C,0.254000*%
%ADD17C,0.200000*%
%ADD18C,0.120000*%
%ADD19C,0.127000*%
%ADD20C,0.100000*%
G04 APERTURE END LIST*
D10*
X103920200Y-24740600D02*
X102434300Y-24740600D01*
X102434300Y-24740600D02*
X102434300Y-30506400D01*
X102434300Y-30506400D02*
X103920200Y-30506400D01*
X103920200Y-30506400D02*
X103920200Y-24740600D01*
X103869400Y-42419000D02*
X102383500Y-42419000D01*
X102383500Y-42419000D02*
X102383500Y-48184800D01*
X102383500Y-48184800D02*
X103869400Y-48184800D01*
X103869400Y-48184800D02*
X103869400Y-42419000D01*
D11*
X2061857Y-92195771D02*
X1204714Y-92195771D01*
X1633285Y-92195771D02*
X1633285Y-90695771D01*
X1490428Y-90910057D01*
X1347571Y-91052914D01*
X1204714Y-91124342D01*
X2633285Y-90838628D02*
X2704714Y-90767200D01*
X2847571Y-90695771D01*
X3204714Y-90695771D01*
X3347571Y-90767200D01*
X3418999Y-90838628D01*
X3490428Y-90981485D01*
X3490428Y-91124342D01*
X3418999Y-91338628D01*
X2561857Y-92195771D01*
X3490428Y-92195771D01*
X3918999Y-90695771D02*
X4418999Y-92195771D01*
X4918999Y-90695771D01*
X5418999Y-91624342D02*
X6561857Y-91624342D01*
X7990428Y-90695771D02*
X7276142Y-90695771D01*
X7204714Y-91410057D01*
X7276142Y-91338628D01*
X7418999Y-91267200D01*
X7776142Y-91267200D01*
X7918999Y-91338628D01*
X7990428Y-91410057D01*
X8061857Y-91552914D01*
X8061857Y-91910057D01*
X7990428Y-92052914D01*
X7918999Y-92124342D01*
X7776142Y-92195771D01*
X7418999Y-92195771D01*
X7276142Y-92124342D01*
X7204714Y-92052914D01*
X8561857Y-90695771D02*
X9561857Y-90695771D01*
X8919000Y-92195771D01*
X9919000Y-90695771D02*
X10419000Y-92195771D01*
X10919000Y-90695771D01*
D10*
X63046609Y-76355788D02*
X60379609Y-76355788D01*
X60379609Y-76355788D02*
X60379609Y-79276788D01*
X60379609Y-79276788D02*
X63046609Y-79276788D01*
X63046609Y-79276788D02*
X63046609Y-76355788D01*
X84509600Y-87785800D02*
X81842600Y-87785800D01*
X81842600Y-87785800D02*
X81842600Y-90833800D01*
X81842600Y-90833800D02*
X84509600Y-90833800D01*
X84509600Y-90833800D02*
X84509600Y-87785800D01*
D12*
X105000000Y0D02*
X105000000Y-105000000D01*
X0Y0D02*
X105000000Y0D01*
X0Y-105000000D02*
X105000000Y-105000000D01*
X0Y-105000000D02*
X0Y0D01*
D11*
X72468828Y-100987400D02*
X73183114Y-100987400D01*
X72325971Y-101415971D02*
X72825971Y-99915971D01*
X73325971Y-101415971D01*
X74468828Y-101344542D02*
X74325971Y-101415971D01*
X74040257Y-101415971D01*
X73897400Y-101344542D01*
X73825971Y-101273114D01*
X73754542Y-101130257D01*
X73754542Y-100701685D01*
X73825971Y-100558828D01*
X73897400Y-100487400D01*
X74040257Y-100415971D01*
X74325971Y-100415971D01*
X74468828Y-100487400D01*
X74897400Y-100415971D02*
X75468828Y-100415971D01*
X75111685Y-99915971D02*
X75111685Y-101201685D01*
X75183114Y-101344542D01*
X75325971Y-101415971D01*
X75468828Y-101415971D01*
D13*
X63972685Y-70005685D02*
X63798514Y-70005685D01*
X63885600Y-70005685D02*
X63885600Y-69700885D01*
X63856571Y-69744428D01*
X63827542Y-69773457D01*
X63798514Y-69787971D01*
D11*
X101420714Y-221302500D02*
X102135000Y-221302500D01*
X101277857Y-221731071D02*
X101777857Y-220231071D01*
X102277857Y-221731071D01*
X102777857Y-221731071D02*
X102777857Y-220231071D01*
X103349285Y-220231071D01*
X103492142Y-220302500D01*
X103563571Y-220373928D01*
X103635000Y-220516785D01*
X103635000Y-220731071D01*
X103563571Y-220873928D01*
X103492142Y-220945357D01*
X103349285Y-221016785D01*
X102777857Y-221016785D01*
X104135000Y-220231071D02*
X105063571Y-220231071D01*
X104563571Y-220802500D01*
X104777857Y-220802500D01*
X104920714Y-220873928D01*
X104992142Y-220945357D01*
X105063571Y-221088214D01*
X105063571Y-221445357D01*
X104992142Y-221588214D01*
X104920714Y-221659642D01*
X104777857Y-221731071D01*
X104349285Y-221731071D01*
X104206428Y-221659642D01*
X104135000Y-221588214D01*
X106420714Y-220231071D02*
X105706428Y-220231071D01*
X105635000Y-220945357D01*
X105706428Y-220873928D01*
X105849285Y-220802500D01*
X106206428Y-220802500D01*
X106349285Y-220873928D01*
X106420714Y-220945357D01*
X106492142Y-221088214D01*
X106492142Y-221445357D01*
X106420714Y-221588214D01*
X106349285Y-221659642D01*
X106206428Y-221731071D01*
X105849285Y-221731071D01*
X105706428Y-221659642D01*
X105635000Y-221588214D01*
X107420714Y-220231071D02*
X107563571Y-220231071D01*
X107706428Y-220302500D01*
X107777857Y-220373928D01*
X107849285Y-220516785D01*
X107920714Y-220802500D01*
X107920714Y-221159642D01*
X107849285Y-221445357D01*
X107777857Y-221588214D01*
X107706428Y-221659642D01*
X107563571Y-221731071D01*
X107420714Y-221731071D01*
X107277857Y-221659642D01*
X107206428Y-221588214D01*
X107135000Y-221445357D01*
X107063571Y-221159642D01*
X107063571Y-220802500D01*
X107135000Y-220516785D01*
X107206428Y-220373928D01*
X107277857Y-220302500D01*
X107420714Y-220231071D01*
X108849285Y-220231071D02*
X108992142Y-220231071D01*
X109135000Y-220302500D01*
X109206428Y-220373928D01*
X109277857Y-220516785D01*
X109349285Y-220802500D01*
X109349285Y-221159642D01*
X109277857Y-221445357D01*
X109206428Y-221588214D01*
X109135000Y-221659642D01*
X108992142Y-221731071D01*
X108849285Y-221731071D01*
X108706428Y-221659642D01*
X108635000Y-221588214D01*
X108563571Y-221445357D01*
X108492142Y-221159642D01*
X108492142Y-220802500D01*
X108563571Y-220516785D01*
X108635000Y-220373928D01*
X108706428Y-220302500D01*
X108849285Y-220231071D01*
X109992142Y-221159642D02*
X111135000Y-221159642D01*
X112706428Y-221588214D02*
X112635000Y-221659642D01*
X112420714Y-221731071D01*
X112277857Y-221731071D01*
X112063571Y-221659642D01*
X111920714Y-221516785D01*
X111849285Y-221373928D01*
X111777857Y-221088214D01*
X111777857Y-220873928D01*
X111849285Y-220588214D01*
X111920714Y-220445357D01*
X112063571Y-220302500D01*
X112277857Y-220231071D01*
X112420714Y-220231071D01*
X112635000Y-220302500D01*
X112706428Y-220373928D01*
X113277857Y-221302500D02*
X113992142Y-221302500D01*
X113135000Y-221731071D02*
X113635000Y-220231071D01*
X114135000Y-221731071D01*
X114635000Y-221731071D02*
X114635000Y-220231071D01*
X115135000Y-221302500D01*
X115635000Y-220231071D01*
X115635000Y-221731071D01*
X117277857Y-220231071D02*
X117777857Y-221731071D01*
X118277857Y-220231071D01*
X119420714Y-220731071D02*
X119420714Y-221731071D01*
X119063571Y-220159642D02*
X118706428Y-221231071D01*
X119635000Y-221231071D01*
X121349285Y-221731071D02*
X121349285Y-220731071D01*
X121349285Y-221016785D02*
X121420714Y-220873928D01*
X121492142Y-220802500D01*
X121635000Y-220731071D01*
X121777857Y-220731071D01*
X122206428Y-220373928D02*
X122277857Y-220302500D01*
X122420714Y-220231071D01*
X122777857Y-220231071D01*
X122920714Y-220302500D01*
X122992142Y-220373928D01*
X123063571Y-220516785D01*
X123063571Y-220659642D01*
X122992142Y-220873928D01*
X122135000Y-221731071D01*
X123063571Y-221731071D01*
X102349285Y-224003214D02*
X102277857Y-224074642D01*
X102063571Y-224146071D01*
X101920714Y-224146071D01*
X101706428Y-224074642D01*
X101563571Y-223931785D01*
X101492142Y-223788928D01*
X101420714Y-223503214D01*
X101420714Y-223288928D01*
X101492142Y-223003214D01*
X101563571Y-222860357D01*
X101706428Y-222717500D01*
X101920714Y-222646071D01*
X102063571Y-222646071D01*
X102277857Y-222717500D01*
X102349285Y-222788928D01*
X103206428Y-224146071D02*
X103063571Y-224074642D01*
X102992142Y-224003214D01*
X102920714Y-223860357D01*
X102920714Y-223431785D01*
X102992142Y-223288928D01*
X103063571Y-223217500D01*
X103206428Y-223146071D01*
X103420714Y-223146071D01*
X103563571Y-223217500D01*
X103635000Y-223288928D01*
X103706428Y-223431785D01*
X103706428Y-223860357D01*
X103635000Y-224003214D01*
X103563571Y-224074642D01*
X103420714Y-224146071D01*
X103206428Y-224146071D01*
X104349285Y-223146071D02*
X104349285Y-224646071D01*
X104349285Y-223217500D02*
X104492142Y-223146071D01*
X104777857Y-223146071D01*
X104920714Y-223217500D01*
X104992142Y-223288928D01*
X105063571Y-223431785D01*
X105063571Y-223860357D01*
X104992142Y-224003214D01*
X104920714Y-224074642D01*
X104777857Y-224146071D01*
X104492142Y-224146071D01*
X104349285Y-224074642D01*
X105563571Y-223146071D02*
X105920714Y-224146071D01*
X106277857Y-223146071D02*
X105920714Y-224146071D01*
X105777857Y-224503214D01*
X105706428Y-224574642D01*
X105563571Y-224646071D01*
X106849285Y-224146071D02*
X106849285Y-223146071D01*
X106849285Y-223431785D02*
X106920714Y-223288928D01*
X106992142Y-223217500D01*
X107135000Y-223146071D01*
X107277857Y-223146071D01*
X107777857Y-224146071D02*
X107777857Y-223146071D01*
X107777857Y-222646071D02*
X107706428Y-222717500D01*
X107777857Y-222788928D01*
X107849285Y-222717500D01*
X107777857Y-222646071D01*
X107777857Y-222788928D01*
X109135000Y-223146071D02*
X109135000Y-224360357D01*
X109063571Y-224503214D01*
X108992142Y-224574642D01*
X108849285Y-224646071D01*
X108635000Y-224646071D01*
X108492142Y-224574642D01*
X109135000Y-224074642D02*
X108992142Y-224146071D01*
X108706428Y-224146071D01*
X108563571Y-224074642D01*
X108492142Y-224003214D01*
X108420714Y-223860357D01*
X108420714Y-223431785D01*
X108492142Y-223288928D01*
X108563571Y-223217500D01*
X108706428Y-223146071D01*
X108992142Y-223146071D01*
X109135000Y-223217500D01*
X109849285Y-224146071D02*
X109849285Y-222646071D01*
X110492142Y-224146071D02*
X110492142Y-223360357D01*
X110420714Y-223217500D01*
X110277857Y-223146071D01*
X110063571Y-223146071D01*
X109920714Y-223217500D01*
X109849285Y-223288928D01*
X110992142Y-223146071D02*
X111563571Y-223146071D01*
X111206428Y-222646071D02*
X111206428Y-223931785D01*
X111277857Y-224074642D01*
X111420714Y-224146071D01*
X111563571Y-224146071D01*
X113135000Y-222788928D02*
X113206428Y-222717500D01*
X113349285Y-222646071D01*
X113706428Y-222646071D01*
X113849285Y-222717500D01*
X113920714Y-222788928D01*
X113992142Y-222931785D01*
X113992142Y-223074642D01*
X113920714Y-223288928D01*
X113063571Y-224146071D01*
X113992142Y-224146071D01*
X114920714Y-222646071D02*
X115063571Y-222646071D01*
X115206428Y-222717500D01*
X115277857Y-222788928D01*
X115349285Y-222931785D01*
X115420714Y-223217500D01*
X115420714Y-223574642D01*
X115349285Y-223860357D01*
X115277857Y-224003214D01*
X115206428Y-224074642D01*
X115063571Y-224146071D01*
X114920714Y-224146071D01*
X114777857Y-224074642D01*
X114706428Y-224003214D01*
X114635000Y-223860357D01*
X114563571Y-223574642D01*
X114563571Y-223217500D01*
X114635000Y-222931785D01*
X114706428Y-222788928D01*
X114777857Y-222717500D01*
X114920714Y-222646071D01*
X115992142Y-222788928D02*
X116063571Y-222717500D01*
X116206428Y-222646071D01*
X116563571Y-222646071D01*
X116706428Y-222717500D01*
X116777857Y-222788928D01*
X116849285Y-222931785D01*
X116849285Y-223074642D01*
X116777857Y-223288928D01*
X115920714Y-224146071D01*
X116849285Y-224146071D01*
X117777857Y-222646071D02*
X117920714Y-222646071D01*
X118063571Y-222717500D01*
X118135000Y-222788928D01*
X118206428Y-222931785D01*
X118277857Y-223217500D01*
X118277857Y-223574642D01*
X118206428Y-223860357D01*
X118135000Y-224003214D01*
X118063571Y-224074642D01*
X117920714Y-224146071D01*
X117777857Y-224146071D01*
X117635000Y-224074642D01*
X117563571Y-224003214D01*
X117492142Y-223860357D01*
X117420714Y-223574642D01*
X117420714Y-223217500D01*
X117492142Y-222931785D01*
X117563571Y-222788928D01*
X117635000Y-222717500D01*
X117777857Y-222646071D01*
X120063571Y-224146071D02*
X120063571Y-222646071D01*
X120706428Y-224074642D02*
X120920714Y-224146071D01*
X121277857Y-224146071D01*
X121420714Y-224074642D01*
X121492142Y-224003214D01*
X121563571Y-223860357D01*
X121563571Y-223717500D01*
X121492142Y-223574642D01*
X121420714Y-223503214D01*
X121277857Y-223431785D01*
X120992142Y-223360357D01*
X120849285Y-223288928D01*
X120777857Y-223217500D01*
X120706428Y-223074642D01*
X120706428Y-222931785D01*
X120777857Y-222788928D01*
X120849285Y-222717500D01*
X120992142Y-222646071D01*
X121349285Y-222646071D01*
X121563571Y-222717500D01*
X122206428Y-224146071D02*
X122206428Y-223146071D01*
X122206428Y-222646071D02*
X122135000Y-222717500D01*
X122206428Y-222788928D01*
X122277857Y-222717500D01*
X122206428Y-222646071D01*
X122206428Y-222788928D01*
X122849285Y-224074642D02*
X122992142Y-224146071D01*
X123277857Y-224146071D01*
X123420714Y-224074642D01*
X123492142Y-223931785D01*
X123492142Y-223860357D01*
X123420714Y-223717500D01*
X123277857Y-223646071D01*
X123063571Y-223646071D01*
X122920714Y-223574642D01*
X122849285Y-223431785D01*
X122849285Y-223360357D01*
X122920714Y-223217500D01*
X123063571Y-223146071D01*
X123277857Y-223146071D01*
X123420714Y-223217500D01*
X125277857Y-224146071D02*
X125277857Y-222646071D01*
X125992142Y-224146071D02*
X125992142Y-223146071D01*
X125992142Y-223288928D02*
X126063571Y-223217500D01*
X126206428Y-223146071D01*
X126420714Y-223146071D01*
X126563571Y-223217500D01*
X126635000Y-223360357D01*
X126635000Y-224146071D01*
X126635000Y-223360357D02*
X126706428Y-223217500D01*
X126849285Y-223146071D01*
X127063571Y-223146071D01*
X127206428Y-223217500D01*
X127277857Y-223360357D01*
X127277857Y-224146071D01*
X128635000Y-224146071D02*
X128635000Y-223360357D01*
X128563571Y-223217500D01*
X128420714Y-223146071D01*
X128135000Y-223146071D01*
X127992142Y-223217500D01*
X128635000Y-224074642D02*
X128492142Y-224146071D01*
X128135000Y-224146071D01*
X127992142Y-224074642D01*
X127920714Y-223931785D01*
X127920714Y-223788928D01*
X127992142Y-223646071D01*
X128135000Y-223574642D01*
X128492142Y-223574642D01*
X128635000Y-223503214D01*
X129992142Y-223146071D02*
X129992142Y-224360357D01*
X129920714Y-224503214D01*
X129849285Y-224574642D01*
X129706428Y-224646071D01*
X129492142Y-224646071D01*
X129349285Y-224574642D01*
X129992142Y-224074642D02*
X129849285Y-224146071D01*
X129563571Y-224146071D01*
X129420714Y-224074642D01*
X129349285Y-224003214D01*
X129277857Y-223860357D01*
X129277857Y-223431785D01*
X129349285Y-223288928D01*
X129420714Y-223217500D01*
X129563571Y-223146071D01*
X129849285Y-223146071D01*
X129992142Y-223217500D01*
X131277857Y-224074642D02*
X131135000Y-224146071D01*
X130849285Y-224146071D01*
X130706428Y-224074642D01*
X130635000Y-223931785D01*
X130635000Y-223360357D01*
X130706428Y-223217500D01*
X130849285Y-223146071D01*
X131135000Y-223146071D01*
X131277857Y-223217500D01*
X131349285Y-223360357D01*
X131349285Y-223503214D01*
X130635000Y-223646071D01*
X131920714Y-224074642D02*
X132135000Y-224146071D01*
X132492142Y-224146071D01*
X132635000Y-224074642D01*
X132706428Y-224003214D01*
X132777857Y-223860357D01*
X132777857Y-223717500D01*
X132706428Y-223574642D01*
X132635000Y-223503214D01*
X132492142Y-223431785D01*
X132206428Y-223360357D01*
X132063571Y-223288928D01*
X131992142Y-223217500D01*
X131920714Y-223074642D01*
X131920714Y-222931785D01*
X131992142Y-222788928D01*
X132063571Y-222717500D01*
X132206428Y-222646071D01*
X132563571Y-222646071D01*
X132777857Y-222717500D01*
X133206428Y-223146071D02*
X133777857Y-223146071D01*
X133420714Y-222646071D02*
X133420714Y-223931785D01*
X133492142Y-224074642D01*
X133635000Y-224146071D01*
X133777857Y-224146071D01*
X134277857Y-224146071D02*
X134277857Y-223146071D01*
X134277857Y-223431785D02*
X134349285Y-223288928D01*
X134420714Y-223217500D01*
X134563571Y-223146071D01*
X134706428Y-223146071D01*
X135777857Y-224074642D02*
X135635000Y-224146071D01*
X135349285Y-224146071D01*
X135206428Y-224074642D01*
X135135000Y-223931785D01*
X135135000Y-223360357D01*
X135206428Y-223217500D01*
X135349285Y-223146071D01*
X135635000Y-223146071D01*
X135777857Y-223217500D01*
X135849285Y-223360357D01*
X135849285Y-223503214D01*
X135135000Y-223646071D01*
X137135000Y-224146071D02*
X137135000Y-223360357D01*
X137063571Y-223217500D01*
X136920714Y-223146071D01*
X136635000Y-223146071D01*
X136492142Y-223217500D01*
X137135000Y-224074642D02*
X136992142Y-224146071D01*
X136635000Y-224146071D01*
X136492142Y-224074642D01*
X136420714Y-223931785D01*
X136420714Y-223788928D01*
X136492142Y-223646071D01*
X136635000Y-223574642D01*
X136992142Y-223574642D01*
X137135000Y-223503214D01*
X137849285Y-224146071D02*
X137849285Y-223146071D01*
X137849285Y-223288928D02*
X137920714Y-223217500D01*
X138063571Y-223146071D01*
X138277857Y-223146071D01*
X138420714Y-223217500D01*
X138492142Y-223360357D01*
X138492142Y-224146071D01*
X138492142Y-223360357D02*
X138563571Y-223217500D01*
X138706428Y-223146071D01*
X138920714Y-223146071D01*
X139063571Y-223217500D01*
X139135000Y-223360357D01*
X139135000Y-224146071D01*
X140992142Y-224146071D02*
X140992142Y-222646071D01*
X141706428Y-223146071D02*
X141706428Y-224146071D01*
X141706428Y-223288928D02*
X141777857Y-223217500D01*
X141920714Y-223146071D01*
X142135000Y-223146071D01*
X142277857Y-223217500D01*
X142349285Y-223360357D01*
X142349285Y-224146071D01*
X142849285Y-223146071D02*
X143420714Y-223146071D01*
X143063571Y-222646071D02*
X143063571Y-223931785D01*
X143135000Y-224074642D01*
X143277857Y-224146071D01*
X143420714Y-224146071D01*
X144492142Y-224074642D02*
X144349285Y-224146071D01*
X144063571Y-224146071D01*
X143920714Y-224074642D01*
X143849285Y-223931785D01*
X143849285Y-223360357D01*
X143920714Y-223217500D01*
X144063571Y-223146071D01*
X144349285Y-223146071D01*
X144492142Y-223217500D01*
X144563571Y-223360357D01*
X144563571Y-223503214D01*
X143849285Y-223646071D01*
X145206428Y-224146071D02*
X145206428Y-223146071D01*
X145206428Y-223431785D02*
X145277857Y-223288928D01*
X145349285Y-223217500D01*
X145492142Y-223146071D01*
X145635000Y-223146071D01*
X146135000Y-223146071D02*
X146135000Y-224146071D01*
X146135000Y-223288928D02*
X146206428Y-223217500D01*
X146349285Y-223146071D01*
X146563571Y-223146071D01*
X146706428Y-223217500D01*
X146777857Y-223360357D01*
X146777857Y-224146071D01*
X148063571Y-224074642D02*
X147920714Y-224146071D01*
X147635000Y-224146071D01*
X147492142Y-224074642D01*
X147420714Y-223931785D01*
X147420714Y-223360357D01*
X147492142Y-223217500D01*
X147635000Y-223146071D01*
X147920714Y-223146071D01*
X148063571Y-223217500D01*
X148135000Y-223360357D01*
X148135000Y-223503214D01*
X147420714Y-223646071D01*
X148563571Y-223146071D02*
X149135000Y-223146071D01*
X148777857Y-222646071D02*
X148777857Y-223931785D01*
X148849285Y-224074642D01*
X148992142Y-224146071D01*
X149135000Y-224146071D01*
X150706428Y-224074642D02*
X150920714Y-224146071D01*
X151277857Y-224146071D01*
X151420714Y-224074642D01*
X151492142Y-224003214D01*
X151563571Y-223860357D01*
X151563571Y-223717500D01*
X151492142Y-223574642D01*
X151420714Y-223503214D01*
X151277857Y-223431785D01*
X150992142Y-223360357D01*
X150849285Y-223288928D01*
X150777857Y-223217500D01*
X150706428Y-223074642D01*
X150706428Y-222931785D01*
X150777857Y-222788928D01*
X150849285Y-222717500D01*
X150992142Y-222646071D01*
X151349285Y-222646071D01*
X151563571Y-222717500D01*
X152420714Y-224146071D02*
X152277857Y-224074642D01*
X152206428Y-224003214D01*
X152135000Y-223860357D01*
X152135000Y-223431785D01*
X152206428Y-223288928D01*
X152277857Y-223217500D01*
X152420714Y-223146071D01*
X152635000Y-223146071D01*
X152777857Y-223217500D01*
X152849285Y-223288928D01*
X152920714Y-223431785D01*
X152920714Y-223860357D01*
X152849285Y-224003214D01*
X152777857Y-224074642D01*
X152635000Y-224146071D01*
X152420714Y-224146071D01*
X153777857Y-224146071D02*
X153635000Y-224074642D01*
X153563571Y-223931785D01*
X153563571Y-222646071D01*
X154992142Y-223146071D02*
X154992142Y-224146071D01*
X154349285Y-223146071D02*
X154349285Y-223931785D01*
X154420714Y-224074642D01*
X154563571Y-224146071D01*
X154777857Y-224146071D01*
X154920714Y-224074642D01*
X154992142Y-224003214D01*
X155492142Y-223146071D02*
X156063571Y-223146071D01*
X155706428Y-222646071D02*
X155706428Y-223931785D01*
X155777857Y-224074642D01*
X155920714Y-224146071D01*
X156063571Y-224146071D01*
X156563571Y-224146071D02*
X156563571Y-223146071D01*
X156563571Y-222646071D02*
X156492142Y-222717500D01*
X156563571Y-222788928D01*
X156635000Y-222717500D01*
X156563571Y-222646071D01*
X156563571Y-222788928D01*
X157492142Y-224146071D02*
X157349285Y-224074642D01*
X157277857Y-224003214D01*
X157206428Y-223860357D01*
X157206428Y-223431785D01*
X157277857Y-223288928D01*
X157349285Y-223217500D01*
X157492142Y-223146071D01*
X157706428Y-223146071D01*
X157849285Y-223217500D01*
X157920714Y-223288928D01*
X157992142Y-223431785D01*
X157992142Y-223860357D01*
X157920714Y-224003214D01*
X157849285Y-224074642D01*
X157706428Y-224146071D01*
X157492142Y-224146071D01*
X158635000Y-223146071D02*
X158635000Y-224146071D01*
X158635000Y-223288928D02*
X158706428Y-223217500D01*
X158849285Y-223146071D01*
X159063571Y-223146071D01*
X159206428Y-223217500D01*
X159277857Y-223360357D01*
X159277857Y-224146071D01*
X159920714Y-224074642D02*
X160063571Y-224146071D01*
X160349285Y-224146071D01*
X160492142Y-224074642D01*
X160563571Y-223931785D01*
X160563571Y-223860357D01*
X160492142Y-223717500D01*
X160349285Y-223646071D01*
X160135000Y-223646071D01*
X159992142Y-223574642D01*
X159920714Y-223431785D01*
X159920714Y-223360357D01*
X159992142Y-223217500D01*
X160135000Y-223146071D01*
X160349285Y-223146071D01*
X160492142Y-223217500D01*
X161277857Y-224074642D02*
X161277857Y-224146071D01*
X161206428Y-224288928D01*
X161135000Y-224360357D01*
X163063571Y-224146071D02*
X163063571Y-222646071D01*
X163777857Y-223146071D02*
X163777857Y-224146071D01*
X163777857Y-223288928D02*
X163849285Y-223217500D01*
X163992142Y-223146071D01*
X164206428Y-223146071D01*
X164349285Y-223217500D01*
X164420714Y-223360357D01*
X164420714Y-224146071D01*
X165777857Y-224074642D02*
X165635000Y-224146071D01*
X165349285Y-224146071D01*
X165206428Y-224074642D01*
X165135000Y-224003214D01*
X165063571Y-223860357D01*
X165063571Y-223431785D01*
X165135000Y-223288928D01*
X165206428Y-223217500D01*
X165349285Y-223146071D01*
X165635000Y-223146071D01*
X165777857Y-223217500D01*
X166420714Y-224003214D02*
X166492142Y-224074642D01*
X166420714Y-224146071D01*
X166349285Y-224074642D01*
X166420714Y-224003214D01*
X166420714Y-224146071D01*
X3354800Y-89808171D02*
X3354800Y-88308171D01*
X3711942Y-88308171D01*
X3926228Y-88379600D01*
X4069085Y-88522457D01*
X4140514Y-88665314D01*
X4211942Y-88951028D01*
X4211942Y-89165314D01*
X4140514Y-89451028D01*
X4069085Y-89593885D01*
X3926228Y-89736742D01*
X3711942Y-89808171D01*
X3354800Y-89808171D01*
X5711942Y-89665314D02*
X5640514Y-89736742D01*
X5426228Y-89808171D01*
X5283371Y-89808171D01*
X5069085Y-89736742D01*
X4926228Y-89593885D01*
X4854800Y-89451028D01*
X4783371Y-89165314D01*
X4783371Y-88951028D01*
X4854800Y-88665314D01*
X4926228Y-88522457D01*
X5069085Y-88379600D01*
X5283371Y-88308171D01*
X5426228Y-88308171D01*
X5640514Y-88379600D01*
X5711942Y-88451028D01*
X7497657Y-89808171D02*
X7497657Y-88308171D01*
X8211942Y-88808171D02*
X8211942Y-89808171D01*
X8211942Y-88951028D02*
X8283371Y-88879600D01*
X8426228Y-88808171D01*
X8640514Y-88808171D01*
X8783371Y-88879600D01*
X8854800Y-89022457D01*
X8854800Y-89808171D01*
D13*
X98165285Y-50556617D02*
X97991114Y-50556617D01*
X98078200Y-50556617D02*
X98078200Y-50251817D01*
X98049171Y-50295360D01*
X98020142Y-50324389D01*
X97991114Y-50338903D01*
X26876885Y-74074085D02*
X26702714Y-74074085D01*
X26789800Y-74074085D02*
X26789800Y-73769285D01*
X26760771Y-73812828D01*
X26731742Y-73841857D01*
X26702714Y-73856371D01*
D11*
X37249000Y-103703657D02*
X37749000Y-103703657D01*
X37963285Y-104489371D02*
X37249000Y-104489371D01*
X37249000Y-102989371D01*
X37963285Y-102989371D01*
X38391857Y-103489371D02*
X38963285Y-103489371D01*
X38606142Y-102989371D02*
X38606142Y-104275085D01*
X38677571Y-104417942D01*
X38820428Y-104489371D01*
X38963285Y-104489371D01*
X39463285Y-104489371D02*
X39463285Y-102989371D01*
X40106142Y-104489371D02*
X40106142Y-103703657D01*
X40034714Y-103560800D01*
X39891857Y-103489371D01*
X39677571Y-103489371D01*
X39534714Y-103560800D01*
X39463285Y-103632228D01*
X41391857Y-104417942D02*
X41249000Y-104489371D01*
X40963285Y-104489371D01*
X40820428Y-104417942D01*
X40749000Y-104275085D01*
X40749000Y-103703657D01*
X40820428Y-103560800D01*
X40963285Y-103489371D01*
X41249000Y-103489371D01*
X41391857Y-103560800D01*
X41463285Y-103703657D01*
X41463285Y-103846514D01*
X40749000Y-103989371D01*
X42106142Y-104489371D02*
X42106142Y-103489371D01*
X42106142Y-103775085D02*
X42177571Y-103632228D01*
X42249000Y-103560800D01*
X42391857Y-103489371D01*
X42534714Y-103489371D01*
X43034714Y-103489371D02*
X43034714Y-104489371D01*
X43034714Y-103632228D02*
X43106142Y-103560800D01*
X43249000Y-103489371D01*
X43463285Y-103489371D01*
X43606142Y-103560800D01*
X43677571Y-103703657D01*
X43677571Y-104489371D01*
X44963285Y-104417942D02*
X44820428Y-104489371D01*
X44534714Y-104489371D01*
X44391857Y-104417942D01*
X44320428Y-104275085D01*
X44320428Y-103703657D01*
X44391857Y-103560800D01*
X44534714Y-103489371D01*
X44820428Y-103489371D01*
X44963285Y-103560800D01*
X45034714Y-103703657D01*
X45034714Y-103846514D01*
X44320428Y-103989371D01*
X45463285Y-103489371D02*
X46034714Y-103489371D01*
X45677571Y-102989371D02*
X45677571Y-104275085D01*
X45749000Y-104417942D01*
X45891857Y-104489371D01*
X46034714Y-104489371D01*
X46820428Y-102989371D02*
X46963285Y-102989371D01*
X47106142Y-103060800D01*
X47177571Y-103132228D01*
X47249000Y-103275085D01*
X47320428Y-103560800D01*
X47320428Y-103917942D01*
X47249000Y-104203657D01*
X47177571Y-104346514D01*
X47106142Y-104417942D01*
X46963285Y-104489371D01*
X46820428Y-104489371D01*
X46677571Y-104417942D01*
X46606142Y-104346514D01*
X46534714Y-104203657D01*
X46463285Y-103917942D01*
X46463285Y-103560800D01*
X46534714Y-103275085D01*
X46606142Y-103132228D01*
X46677571Y-103060800D01*
X46820428Y-102989371D01*
D13*
X65880514Y-91352685D02*
X65880514Y-91178514D01*
X65880514Y-91265600D02*
X66185314Y-91265600D01*
X66141771Y-91236571D01*
X66112742Y-91207542D01*
X66098228Y-91178514D01*
X77100485Y-100650085D02*
X76926314Y-100650085D01*
X77013400Y-100650085D02*
X77013400Y-100345285D01*
X76984371Y-100388828D01*
X76955342Y-100417857D01*
X76926314Y-100432371D01*
X92947714Y-81954885D02*
X92947714Y-81780714D01*
X92947714Y-81867800D02*
X93252514Y-81867800D01*
X93208971Y-81838771D01*
X93179942Y-81809742D01*
X93165428Y-81780714D01*
D11*
X67149142Y-101415971D02*
X67149142Y-99915971D01*
X67720571Y-99915971D01*
X67863428Y-99987400D01*
X67934857Y-100058828D01*
X68006285Y-100201685D01*
X68006285Y-100415971D01*
X67934857Y-100558828D01*
X67863428Y-100630257D01*
X67720571Y-100701685D01*
X67149142Y-100701685D01*
X68506285Y-100415971D02*
X68792000Y-101415971D01*
X69077714Y-100701685D01*
X69363428Y-101415971D01*
X69649142Y-100415971D01*
X70220571Y-101415971D02*
X70220571Y-100415971D01*
X70220571Y-100701685D02*
X70292000Y-100558828D01*
X70363428Y-100487400D01*
X70506285Y-100415971D01*
X70649142Y-100415971D01*
D13*
X86047714Y-94554885D02*
X86047714Y-94380714D01*
X86047714Y-94467800D02*
X86352514Y-94467800D01*
X86308971Y-94438771D01*
X86279942Y-94409742D01*
X86265428Y-94380714D01*
X46971684Y-18249514D02*
X46971684Y-18423685D01*
X46971684Y-18336600D02*
X46666884Y-18336600D01*
X46710427Y-18365628D01*
X46739456Y-18394657D01*
X46753970Y-18423685D01*
X98431686Y-32981085D02*
X98257515Y-32981085D01*
X98344601Y-32981085D02*
X98344601Y-32676285D01*
X98315572Y-32719828D01*
X98286543Y-32748857D01*
X98257515Y-32763371D01*
X30204285Y-74074085D02*
X30030114Y-74074085D01*
X30117200Y-74074085D02*
X30117200Y-73769285D01*
X30088171Y-73812828D01*
X30059142Y-73841857D01*
X30030114Y-73856371D01*
D14*
X36060209Y-87957942D02*
X36060209Y-88672897D01*
X36012545Y-88815888D01*
X35917218Y-88911216D01*
X35774227Y-88958879D01*
X35678900Y-88958879D01*
X36584509Y-88958879D02*
X36775164Y-88958879D01*
X36870491Y-88911216D01*
X36918155Y-88863552D01*
X37013482Y-88720561D01*
X37061146Y-88529906D01*
X37061146Y-88148597D01*
X37013482Y-88053270D01*
X36965819Y-88005606D01*
X36870491Y-87957942D01*
X36679837Y-87957942D01*
X36584509Y-88005606D01*
X36536846Y-88053270D01*
X36489182Y-88148597D01*
X36489182Y-88386915D01*
X36536846Y-88482243D01*
X36584509Y-88529906D01*
X36679837Y-88577570D01*
X36870491Y-88577570D01*
X36965819Y-88529906D01*
X37013482Y-88482243D01*
X37061146Y-88386915D01*
D15*
X10091051Y-95725527D02*
X10805337Y-95725527D01*
X10948194Y-95773146D01*
X11043432Y-95868384D01*
X11091051Y-96011242D01*
X11091051Y-96106480D01*
X11091051Y-94725527D02*
X11091051Y-95296956D01*
X11091051Y-95011242D02*
X10091051Y-95011242D01*
X10233909Y-95106480D01*
X10329147Y-95201718D01*
X10376766Y-95296956D01*
X11091051Y-93773146D02*
X11091051Y-94344575D01*
X11091051Y-94058861D02*
X10091051Y-94058861D01*
X10233909Y-94154099D01*
X10329147Y-94249337D01*
X10376766Y-94344575D01*
X55333276Y-55612780D02*
X55333276Y-56327066D01*
X55285657Y-56469923D01*
X55190419Y-56565161D01*
X55047561Y-56612780D01*
X54952323Y-56612780D01*
X56333276Y-56612780D02*
X55761847Y-56612780D01*
X56047561Y-56612780D02*
X56047561Y-55612780D01*
X55952323Y-55755638D01*
X55857085Y-55850876D01*
X55761847Y-55898495D01*
X56714228Y-55708019D02*
X56761847Y-55660400D01*
X56857085Y-55612780D01*
X57095180Y-55612780D01*
X57190419Y-55660400D01*
X57238038Y-55708019D01*
X57285657Y-55803257D01*
X57285657Y-55898495D01*
X57238038Y-56041352D01*
X56666609Y-56612780D01*
X57285657Y-56612780D01*
X70229980Y-99096657D02*
X69753790Y-99429990D01*
X70229980Y-99668085D02*
X69229980Y-99668085D01*
X69229980Y-99287133D01*
X69277600Y-99191895D01*
X69325219Y-99144276D01*
X69420457Y-99096657D01*
X69563314Y-99096657D01*
X69658552Y-99144276D01*
X69706171Y-99191895D01*
X69753790Y-99287133D01*
X69753790Y-99668085D01*
X70229980Y-98144276D02*
X70229980Y-98715704D01*
X70229980Y-98429990D02*
X69229980Y-98429990D01*
X69372838Y-98525228D01*
X69468076Y-98620466D01*
X69515695Y-98715704D01*
X69325219Y-97763323D02*
X69277600Y-97715704D01*
X69229980Y-97620466D01*
X69229980Y-97382371D01*
X69277600Y-97287133D01*
X69325219Y-97239514D01*
X69420457Y-97191895D01*
X69515695Y-97191895D01*
X69658552Y-97239514D01*
X70229980Y-97810942D01*
X70229980Y-97191895D01*
X45922740Y-12362780D02*
X45589407Y-11886590D01*
X45351312Y-12362780D02*
X45351312Y-11362780D01*
X45732264Y-11362780D01*
X45827502Y-11410400D01*
X45875121Y-11458019D01*
X45922740Y-11553257D01*
X45922740Y-11696114D01*
X45875121Y-11791352D01*
X45827502Y-11838971D01*
X45732264Y-11886590D01*
X45351312Y-11886590D01*
X46303693Y-11458019D02*
X46351312Y-11410400D01*
X46446550Y-11362780D01*
X46684645Y-11362780D01*
X46779883Y-11410400D01*
X46827502Y-11458019D01*
X46875121Y-11553257D01*
X46875121Y-11648495D01*
X46827502Y-11791352D01*
X46256074Y-12362780D01*
X46875121Y-12362780D01*
X47446550Y-11791352D02*
X47351312Y-11743733D01*
X47303693Y-11696114D01*
X47256074Y-11600876D01*
X47256074Y-11553257D01*
X47303693Y-11458019D01*
X47351312Y-11410400D01*
X47446550Y-11362780D01*
X47637026Y-11362780D01*
X47732264Y-11410400D01*
X47779883Y-11458019D01*
X47827502Y-11553257D01*
X47827502Y-11600876D01*
X47779883Y-11696114D01*
X47732264Y-11743733D01*
X47637026Y-11791352D01*
X47446550Y-11791352D01*
X47351312Y-11838971D01*
X47303693Y-11886590D01*
X47256074Y-11981828D01*
X47256074Y-12172304D01*
X47303693Y-12267542D01*
X47351312Y-12315161D01*
X47446550Y-12362780D01*
X47637026Y-12362780D01*
X47732264Y-12315161D01*
X47779883Y-12267542D01*
X47827502Y-12172304D01*
X47827502Y-11981828D01*
X47779883Y-11886590D01*
X47732264Y-11838971D01*
X47637026Y-11791352D01*
X79294742Y-87457142D02*
X79247123Y-87504761D01*
X79104266Y-87552380D01*
X79009028Y-87552380D01*
X78866171Y-87504761D01*
X78770933Y-87409523D01*
X78723314Y-87314285D01*
X78675695Y-87123809D01*
X78675695Y-86980952D01*
X78723314Y-86790476D01*
X78770933Y-86695238D01*
X78866171Y-86600000D01*
X79009028Y-86552380D01*
X79104266Y-86552380D01*
X79247123Y-86600000D01*
X79294742Y-86647619D01*
X79628076Y-86552380D02*
X80247123Y-86552380D01*
X79913790Y-86933333D01*
X80056647Y-86933333D01*
X80151885Y-86980952D01*
X80199504Y-87028571D01*
X80247123Y-87123809D01*
X80247123Y-87361904D01*
X80199504Y-87457142D01*
X80151885Y-87504761D01*
X80056647Y-87552380D01*
X79770933Y-87552380D01*
X79675695Y-87504761D01*
X79628076Y-87457142D01*
X80628076Y-86647619D02*
X80675695Y-86600000D01*
X80770933Y-86552380D01*
X81009028Y-86552380D01*
X81104266Y-86600000D01*
X81151885Y-86647619D01*
X81199504Y-86742857D01*
X81199504Y-86838095D01*
X81151885Y-86980952D01*
X80580457Y-87552380D01*
X81199504Y-87552380D01*
X49024941Y-12378280D02*
X48691608Y-11902090D01*
X48453513Y-12378280D02*
X48453513Y-11378280D01*
X48834465Y-11378280D01*
X48929703Y-11425900D01*
X48977322Y-11473519D01*
X49024941Y-11568757D01*
X49024941Y-11711614D01*
X48977322Y-11806852D01*
X48929703Y-11854471D01*
X48834465Y-11902090D01*
X48453513Y-11902090D01*
X49358275Y-11378280D02*
X49977322Y-11378280D01*
X49643989Y-11759233D01*
X49786846Y-11759233D01*
X49882084Y-11806852D01*
X49929703Y-11854471D01*
X49977322Y-11949709D01*
X49977322Y-12187804D01*
X49929703Y-12283042D01*
X49882084Y-12330661D01*
X49786846Y-12378280D01*
X49501132Y-12378280D01*
X49405894Y-12330661D01*
X49358275Y-12283042D01*
X50596370Y-11378280D02*
X50691608Y-11378280D01*
X50786846Y-11425900D01*
X50834465Y-11473519D01*
X50882084Y-11568757D01*
X50929703Y-11759233D01*
X50929703Y-11997328D01*
X50882084Y-12187804D01*
X50834465Y-12283042D01*
X50786846Y-12330661D01*
X50691608Y-12378280D01*
X50596370Y-12378280D01*
X50501132Y-12330661D01*
X50453513Y-12283042D01*
X50405894Y-12187804D01*
X50358275Y-11997328D01*
X50358275Y-11759233D01*
X50405894Y-11568757D01*
X50453513Y-11473519D01*
X50501132Y-11425900D01*
X50596370Y-11378280D01*
X67214980Y-95159657D02*
X66738790Y-95492990D01*
X67214980Y-95731085D02*
X66214980Y-95731085D01*
X66214980Y-95350133D01*
X66262600Y-95254895D01*
X66310219Y-95207276D01*
X66405457Y-95159657D01*
X66548314Y-95159657D01*
X66643552Y-95207276D01*
X66691171Y-95254895D01*
X66738790Y-95350133D01*
X66738790Y-95731085D01*
X67214980Y-94207276D02*
X67214980Y-94778704D01*
X67214980Y-94492990D02*
X66214980Y-94492990D01*
X66357838Y-94588228D01*
X66453076Y-94683466D01*
X66500695Y-94778704D01*
X66214980Y-93302514D02*
X66214980Y-93778704D01*
X66691171Y-93826323D01*
X66643552Y-93778704D01*
X66595933Y-93683466D01*
X66595933Y-93445371D01*
X66643552Y-93350133D01*
X66691171Y-93302514D01*
X66786409Y-93254895D01*
X67024504Y-93254895D01*
X67119742Y-93302514D01*
X67167361Y-93350133D01*
X67214980Y-93445371D01*
X67214980Y-93683466D01*
X67167361Y-93778704D01*
X67119742Y-93826323D01*
X19531197Y-89340895D02*
X18531197Y-89340895D01*
X18531197Y-89102800D01*
X18578817Y-88959942D01*
X18674055Y-88864704D01*
X18769293Y-88817085D01*
X18959769Y-88769466D01*
X19102626Y-88769466D01*
X19293102Y-88817085D01*
X19388340Y-88864704D01*
X19483578Y-88959942D01*
X19531197Y-89102800D01*
X19531197Y-89340895D01*
X18864531Y-87912323D02*
X19531197Y-87912323D01*
X18483578Y-88150419D02*
X19197864Y-88388514D01*
X19197864Y-87769466D01*
X102312142Y-55577742D02*
X102264523Y-55625361D01*
X102121666Y-55672980D01*
X102026428Y-55672980D01*
X101883571Y-55625361D01*
X101788333Y-55530123D01*
X101740714Y-55434885D01*
X101693095Y-55244409D01*
X101693095Y-55101552D01*
X101740714Y-54911076D01*
X101788333Y-54815838D01*
X101883571Y-54720600D01*
X102026428Y-54672980D01*
X102121666Y-54672980D01*
X102264523Y-54720600D01*
X102312142Y-54768219D01*
X103216904Y-54672980D02*
X102740714Y-54672980D01*
X102693095Y-55149171D01*
X102740714Y-55101552D01*
X102835952Y-55053933D01*
X103074047Y-55053933D01*
X103169285Y-55101552D01*
X103216904Y-55149171D01*
X103264523Y-55244409D01*
X103264523Y-55482504D01*
X103216904Y-55577742D01*
X103169285Y-55625361D01*
X103074047Y-55672980D01*
X102835952Y-55672980D01*
X102740714Y-55625361D01*
X102693095Y-55577742D01*
X104121666Y-55006314D02*
X104121666Y-55672980D01*
X103883571Y-54625361D02*
X103645476Y-55339647D01*
X104264523Y-55339647D01*
X84628742Y-87349180D02*
X84295409Y-86872990D01*
X84057314Y-87349180D02*
X84057314Y-86349180D01*
X84438266Y-86349180D01*
X84533504Y-86396800D01*
X84581123Y-86444419D01*
X84628742Y-86539657D01*
X84628742Y-86682514D01*
X84581123Y-86777752D01*
X84533504Y-86825371D01*
X84438266Y-86872990D01*
X84057314Y-86872990D01*
X85009695Y-86444419D02*
X85057314Y-86396800D01*
X85152552Y-86349180D01*
X85390647Y-86349180D01*
X85485885Y-86396800D01*
X85533504Y-86444419D01*
X85581123Y-86539657D01*
X85581123Y-86634895D01*
X85533504Y-86777752D01*
X84962076Y-87349180D01*
X85581123Y-87349180D01*
X85962076Y-86444419D02*
X86009695Y-86396800D01*
X86104933Y-86349180D01*
X86343028Y-86349180D01*
X86438266Y-86396800D01*
X86485885Y-86444419D01*
X86533504Y-86539657D01*
X86533504Y-86634895D01*
X86485885Y-86777752D01*
X85914457Y-87349180D01*
X86533504Y-87349180D01*
X103362942Y-63381857D02*
X103410561Y-63429476D01*
X103458180Y-63572333D01*
X103458180Y-63667571D01*
X103410561Y-63810428D01*
X103315323Y-63905666D01*
X103220085Y-63953285D01*
X103029609Y-64000904D01*
X102886752Y-64000904D01*
X102696276Y-63953285D01*
X102601038Y-63905666D01*
X102505800Y-63810428D01*
X102458180Y-63667571D01*
X102458180Y-63572333D01*
X102505800Y-63429476D01*
X102553419Y-63381857D01*
X103458180Y-62429476D02*
X103458180Y-63000904D01*
X103458180Y-62715190D02*
X102458180Y-62715190D01*
X102601038Y-62810428D01*
X102696276Y-62905666D01*
X102743895Y-63000904D01*
X102791514Y-61572333D02*
X103458180Y-61572333D01*
X102410561Y-61810428D02*
X103124847Y-62048523D01*
X103124847Y-61429476D01*
X54788741Y-19857742D02*
X54741122Y-19905361D01*
X54598265Y-19952980D01*
X54503027Y-19952980D01*
X54360170Y-19905361D01*
X54264932Y-19810123D01*
X54217313Y-19714885D01*
X54169694Y-19524409D01*
X54169694Y-19381552D01*
X54217313Y-19191076D01*
X54264932Y-19095838D01*
X54360170Y-19000600D01*
X54503027Y-18952980D01*
X54598265Y-18952980D01*
X54741122Y-19000600D01*
X54788741Y-19048219D01*
X55122075Y-18952980D02*
X55741122Y-18952980D01*
X55407789Y-19333933D01*
X55550646Y-19333933D01*
X55645884Y-19381552D01*
X55693503Y-19429171D01*
X55741122Y-19524409D01*
X55741122Y-19762504D01*
X55693503Y-19857742D01*
X55645884Y-19905361D01*
X55550646Y-19952980D01*
X55264932Y-19952980D01*
X55169694Y-19905361D01*
X55122075Y-19857742D01*
X56074456Y-18952980D02*
X56741122Y-18952980D01*
X56312551Y-19952980D01*
X95756980Y-89952657D02*
X95280790Y-90285990D01*
X95756980Y-90524085D02*
X94756980Y-90524085D01*
X94756980Y-90143133D01*
X94804600Y-90047895D01*
X94852219Y-90000276D01*
X94947457Y-89952657D01*
X95090314Y-89952657D01*
X95185552Y-90000276D01*
X95233171Y-90047895D01*
X95280790Y-90143133D01*
X95280790Y-90524085D01*
X94756980Y-89619323D02*
X94756980Y-89000276D01*
X95137933Y-89333609D01*
X95137933Y-89190752D01*
X95185552Y-89095514D01*
X95233171Y-89047895D01*
X95328409Y-89000276D01*
X95566504Y-89000276D01*
X95661742Y-89047895D01*
X95709361Y-89095514D01*
X95756980Y-89190752D01*
X95756980Y-89476466D01*
X95709361Y-89571704D01*
X95661742Y-89619323D01*
X94756980Y-88095514D02*
X94756980Y-88571704D01*
X95233171Y-88619323D01*
X95185552Y-88571704D01*
X95137933Y-88476466D01*
X95137933Y-88238371D01*
X95185552Y-88143133D01*
X95233171Y-88095514D01*
X95328409Y-88047895D01*
X95566504Y-88047895D01*
X95661742Y-88095514D01*
X95709361Y-88143133D01*
X95756980Y-88238371D01*
X95756980Y-88476466D01*
X95709361Y-88571704D01*
X95661742Y-88619323D01*
X84749380Y-96974095D02*
X85558904Y-96974095D01*
X85654142Y-96926476D01*
X85701761Y-96878857D01*
X85749380Y-96783619D01*
X85749380Y-96593142D01*
X85701761Y-96497904D01*
X85654142Y-96450285D01*
X85558904Y-96402666D01*
X84749380Y-96402666D01*
X85749380Y-95402666D02*
X85749380Y-95974095D01*
X85749380Y-95688380D02*
X84749380Y-95688380D01*
X84892238Y-95783619D01*
X84987476Y-95878857D01*
X85035095Y-95974095D01*
X84844619Y-95021714D02*
X84797000Y-94974095D01*
X84749380Y-94878857D01*
X84749380Y-94640761D01*
X84797000Y-94545523D01*
X84844619Y-94497904D01*
X84939857Y-94450285D01*
X85035095Y-94450285D01*
X85177952Y-94497904D01*
X85749380Y-95069333D01*
X85749380Y-94450285D01*
X79294742Y-86231580D02*
X78961409Y-85755390D01*
X78723314Y-86231580D02*
X78723314Y-85231580D01*
X79104266Y-85231580D01*
X79199504Y-85279200D01*
X79247123Y-85326819D01*
X79294742Y-85422057D01*
X79294742Y-85564914D01*
X79247123Y-85660152D01*
X79199504Y-85707771D01*
X79104266Y-85755390D01*
X78723314Y-85755390D01*
X79675695Y-85326819D02*
X79723314Y-85279200D01*
X79818552Y-85231580D01*
X80056647Y-85231580D01*
X80151885Y-85279200D01*
X80199504Y-85326819D01*
X80247123Y-85422057D01*
X80247123Y-85517295D01*
X80199504Y-85660152D01*
X79628076Y-86231580D01*
X80247123Y-86231580D01*
X80580457Y-85231580D02*
X81247123Y-85231580D01*
X80818552Y-86231580D01*
X94486980Y-90000657D02*
X94010790Y-90333990D01*
X94486980Y-90572085D02*
X93486980Y-90572085D01*
X93486980Y-90191133D01*
X93534600Y-90095895D01*
X93582219Y-90048276D01*
X93677457Y-90000657D01*
X93820314Y-90000657D01*
X93915552Y-90048276D01*
X93963171Y-90095895D01*
X94010790Y-90191133D01*
X94010790Y-90572085D01*
X93582219Y-89619704D02*
X93534600Y-89572085D01*
X93486980Y-89476847D01*
X93486980Y-89238752D01*
X93534600Y-89143514D01*
X93582219Y-89095895D01*
X93677457Y-89048276D01*
X93772695Y-89048276D01*
X93915552Y-89095895D01*
X94486980Y-89667323D01*
X94486980Y-89048276D01*
X94486980Y-88095895D02*
X94486980Y-88667323D01*
X94486980Y-88381609D02*
X93486980Y-88381609D01*
X93629838Y-88476847D01*
X93725076Y-88572085D01*
X93772695Y-88667323D01*
X100238095Y247619D02*
X100238095Y1247619D01*
X100238095Y771428D02*
X100809523Y771428D01*
X100809523Y247619D02*
X100809523Y1247619D01*
X101238095Y1152380D02*
X101285714Y1200000D01*
X101380952Y1247619D01*
X101619047Y1247619D01*
X101714285Y1200000D01*
X101761904Y1152380D01*
X101809523Y1057142D01*
X101809523Y961904D01*
X101761904Y819047D01*
X101190476Y247619D01*
X101809523Y247619D01*
X60023237Y-94458685D02*
X59023237Y-94458685D01*
X59023237Y-94220590D01*
X59070857Y-94077733D01*
X59166095Y-93982495D01*
X59261333Y-93934876D01*
X59451809Y-93887257D01*
X59594666Y-93887257D01*
X59785142Y-93934876D01*
X59880380Y-93982495D01*
X59975618Y-94077733D01*
X60023237Y-94220590D01*
X60023237Y-94458685D01*
X60023237Y-92934876D02*
X60023237Y-93506304D01*
X60023237Y-93220590D02*
X59023237Y-93220590D01*
X59166095Y-93315828D01*
X59261333Y-93411066D01*
X59308952Y-93506304D01*
X59118476Y-92553923D02*
X59070857Y-92506304D01*
X59023237Y-92411066D01*
X59023237Y-92172971D01*
X59070857Y-92077733D01*
X59118476Y-92030114D01*
X59213714Y-91982495D01*
X59308952Y-91982495D01*
X59451809Y-92030114D01*
X60023237Y-92601542D01*
X60023237Y-91982495D01*
X62736980Y-78967085D02*
X61736980Y-78967085D01*
X61736980Y-78728990D01*
X61784600Y-78586133D01*
X61879838Y-78490895D01*
X61975076Y-78443276D01*
X62165552Y-78395657D01*
X62308409Y-78395657D01*
X62498885Y-78443276D01*
X62594123Y-78490895D01*
X62689361Y-78586133D01*
X62736980Y-78728990D01*
X62736980Y-78967085D01*
X62736980Y-77443276D02*
X62736980Y-78014704D01*
X62736980Y-77728990D02*
X61736980Y-77728990D01*
X61879838Y-77824228D01*
X61975076Y-77919466D01*
X62022695Y-78014704D01*
X61736980Y-76586133D02*
X61736980Y-76776609D01*
X61784600Y-76871847D01*
X61832219Y-76919466D01*
X61975076Y-77014704D01*
X62165552Y-77062323D01*
X62546504Y-77062323D01*
X62641742Y-77014704D01*
X62689361Y-76967085D01*
X62736980Y-76871847D01*
X62736980Y-76681371D01*
X62689361Y-76586133D01*
X62641742Y-76538514D01*
X62546504Y-76490895D01*
X62308409Y-76490895D01*
X62213171Y-76538514D01*
X62165552Y-76586133D01*
X62117933Y-76681371D01*
X62117933Y-76871847D01*
X62165552Y-76967085D01*
X62213171Y-77014704D01*
X62308409Y-77062323D01*
X100042095Y-39077380D02*
X100613523Y-39077380D01*
X100327809Y-40077380D02*
X100327809Y-39077380D01*
X100946857Y-40077380D02*
X100946857Y-39077380D01*
X101327809Y-39077380D01*
X101423047Y-39125000D01*
X101470666Y-39172619D01*
X101518285Y-39267857D01*
X101518285Y-39410714D01*
X101470666Y-39505952D01*
X101423047Y-39553571D01*
X101327809Y-39601190D01*
X100946857Y-39601190D01*
X102375428Y-39410714D02*
X102375428Y-40077380D01*
X102137333Y-39029761D02*
X101899238Y-39744047D01*
X102518285Y-39744047D01*
X90647133Y-29375783D02*
X90170942Y-29375783D01*
X90170942Y-28375783D01*
X91409038Y-28709117D02*
X91409038Y-29375783D01*
X91170942Y-28328164D02*
X90932847Y-29042450D01*
X91551895Y-29042450D01*
X100102342Y-48261142D02*
X100054723Y-48308761D01*
X99911866Y-48356380D01*
X99816628Y-48356380D01*
X99673771Y-48308761D01*
X99578533Y-48213523D01*
X99530914Y-48118285D01*
X99483295Y-47927809D01*
X99483295Y-47784952D01*
X99530914Y-47594476D01*
X99578533Y-47499238D01*
X99673771Y-47404000D01*
X99816628Y-47356380D01*
X99911866Y-47356380D01*
X100054723Y-47404000D01*
X100102342Y-47451619D01*
X100959485Y-47689714D02*
X100959485Y-48356380D01*
X100721390Y-47308761D02*
X100483295Y-48023047D01*
X101102342Y-48023047D01*
X101530914Y-48356380D02*
X101721390Y-48356380D01*
X101816628Y-48308761D01*
X101864247Y-48261142D01*
X101959485Y-48118285D01*
X102007104Y-47927809D01*
X102007104Y-47546857D01*
X101959485Y-47451619D01*
X101911866Y-47404000D01*
X101816628Y-47356380D01*
X101626152Y-47356380D01*
X101530914Y-47404000D01*
X101483295Y-47451619D01*
X101435676Y-47546857D01*
X101435676Y-47784952D01*
X101483295Y-47880190D01*
X101530914Y-47927809D01*
X101626152Y-47975428D01*
X101816628Y-47975428D01*
X101911866Y-47927809D01*
X101959485Y-47880190D01*
X102007104Y-47784952D01*
X61466980Y-78967085D02*
X60466980Y-78967085D01*
X60466980Y-78728990D01*
X60514600Y-78586133D01*
X60609838Y-78490895D01*
X60705076Y-78443276D01*
X60895552Y-78395657D01*
X61038409Y-78395657D01*
X61228885Y-78443276D01*
X61324123Y-78490895D01*
X61419361Y-78586133D01*
X61466980Y-78728990D01*
X61466980Y-78967085D01*
X61466980Y-77443276D02*
X61466980Y-78014704D01*
X61466980Y-77728990D02*
X60466980Y-77728990D01*
X60609838Y-77824228D01*
X60705076Y-77919466D01*
X60752695Y-78014704D01*
X60895552Y-76871847D02*
X60847933Y-76967085D01*
X60800314Y-77014704D01*
X60705076Y-77062323D01*
X60657457Y-77062323D01*
X60562219Y-77014704D01*
X60514600Y-76967085D01*
X60466980Y-76871847D01*
X60466980Y-76681371D01*
X60514600Y-76586133D01*
X60562219Y-76538514D01*
X60657457Y-76490895D01*
X60705076Y-76490895D01*
X60800314Y-76538514D01*
X60847933Y-76586133D01*
X60895552Y-76681371D01*
X60895552Y-76871847D01*
X60943171Y-76967085D01*
X60990790Y-77014704D01*
X61086028Y-77062323D01*
X61276504Y-77062323D01*
X61371742Y-77014704D01*
X61419361Y-76967085D01*
X61466980Y-76871847D01*
X61466980Y-76681371D01*
X61419361Y-76586133D01*
X61371742Y-76538514D01*
X61276504Y-76490895D01*
X61086028Y-76490895D01*
X60990790Y-76538514D01*
X60943171Y-76586133D01*
X60895552Y-76681371D01*
X60010437Y-98329283D02*
X59010437Y-98329283D01*
X59010437Y-98091188D01*
X59058057Y-97948331D01*
X59153295Y-97853093D01*
X59248533Y-97805474D01*
X59439009Y-97757855D01*
X59581866Y-97757855D01*
X59772342Y-97805474D01*
X59867580Y-97853093D01*
X59962818Y-97948331D01*
X60010437Y-98091188D01*
X60010437Y-98329283D01*
X60010437Y-96805474D02*
X60010437Y-97376902D01*
X60010437Y-97091188D02*
X59010437Y-97091188D01*
X59153295Y-97186426D01*
X59248533Y-97281664D01*
X59296152Y-97376902D01*
X60010437Y-95853093D02*
X60010437Y-96424521D01*
X60010437Y-96138807D02*
X59010437Y-96138807D01*
X59153295Y-96234045D01*
X59248533Y-96329283D01*
X59296152Y-96424521D01*
X24547466Y-21227880D02*
X24547466Y-21942166D01*
X24499847Y-22085023D01*
X24404609Y-22180261D01*
X24261752Y-22227880D01*
X24166514Y-22227880D01*
X25023657Y-22227880D02*
X25023657Y-21227880D01*
X25404609Y-21227880D01*
X25499847Y-21275500D01*
X25547466Y-21323119D01*
X25595085Y-21418357D01*
X25595085Y-21561214D01*
X25547466Y-21656452D01*
X25499847Y-21704071D01*
X25404609Y-21751690D01*
X25023657Y-21751690D01*
X26547466Y-22227880D02*
X25976038Y-22227880D01*
X26261752Y-22227880D02*
X26261752Y-21227880D01*
X26166514Y-21370738D01*
X26071276Y-21465976D01*
X25976038Y-21513595D01*
X65589741Y-87115066D02*
X65637360Y-87162685D01*
X65684979Y-87305542D01*
X65684979Y-87400780D01*
X65637360Y-87543638D01*
X65542122Y-87638876D01*
X65446884Y-87686495D01*
X65256408Y-87734114D01*
X65113551Y-87734114D01*
X64923075Y-87686495D01*
X64827837Y-87638876D01*
X64732599Y-87543638D01*
X64684979Y-87400780D01*
X64684979Y-87305542D01*
X64732599Y-87162685D01*
X64780218Y-87115066D01*
X65113551Y-86543638D02*
X65065932Y-86638876D01*
X65018313Y-86686495D01*
X64923075Y-86734114D01*
X64875456Y-86734114D01*
X64780218Y-86686495D01*
X64732599Y-86638876D01*
X64684979Y-86543638D01*
X64684979Y-86353161D01*
X64732599Y-86257923D01*
X64780218Y-86210304D01*
X64875456Y-86162685D01*
X64923075Y-86162685D01*
X65018313Y-86210304D01*
X65065932Y-86257923D01*
X65113551Y-86353161D01*
X65113551Y-86543638D01*
X65161170Y-86638876D01*
X65208789Y-86686495D01*
X65304027Y-86734114D01*
X65494503Y-86734114D01*
X65589741Y-86686495D01*
X65637360Y-86638876D01*
X65684979Y-86543638D01*
X65684979Y-86353161D01*
X65637360Y-86257923D01*
X65589741Y-86210304D01*
X65494503Y-86162685D01*
X65304027Y-86162685D01*
X65208789Y-86210304D01*
X65161170Y-86257923D01*
X65113551Y-86353161D01*
X70832380Y-80808657D02*
X70356190Y-81141990D01*
X70832380Y-81380085D02*
X69832380Y-81380085D01*
X69832380Y-80999133D01*
X69880000Y-80903895D01*
X69927619Y-80856276D01*
X70022857Y-80808657D01*
X70165714Y-80808657D01*
X70260952Y-80856276D01*
X70308571Y-80903895D01*
X70356190Y-80999133D01*
X70356190Y-81380085D01*
X70832380Y-79856276D02*
X70832380Y-80427704D01*
X70832380Y-80141990D02*
X69832380Y-80141990D01*
X69975238Y-80237228D01*
X70070476Y-80332466D01*
X70118095Y-80427704D01*
X69832380Y-78999133D02*
X69832380Y-79189609D01*
X69880000Y-79284847D01*
X69927619Y-79332466D01*
X70070476Y-79427704D01*
X70260952Y-79475323D01*
X70641904Y-79475323D01*
X70737142Y-79427704D01*
X70784761Y-79380085D01*
X70832380Y-79284847D01*
X70832380Y-79094371D01*
X70784761Y-78999133D01*
X70737142Y-78951514D01*
X70641904Y-78903895D01*
X70403809Y-78903895D01*
X70308571Y-78951514D01*
X70260952Y-78999133D01*
X70213333Y-79094371D01*
X70213333Y-79284847D01*
X70260952Y-79380085D01*
X70308571Y-79427704D01*
X70403809Y-79475323D01*
X98984742Y-46840142D02*
X98937123Y-46887761D01*
X98794266Y-46935380D01*
X98699028Y-46935380D01*
X98556171Y-46887761D01*
X98460933Y-46792523D01*
X98413314Y-46697285D01*
X98365695Y-46506809D01*
X98365695Y-46363952D01*
X98413314Y-46173476D01*
X98460933Y-46078238D01*
X98556171Y-45983000D01*
X98699028Y-45935380D01*
X98794266Y-45935380D01*
X98937123Y-45983000D01*
X98984742Y-46030619D01*
X99889504Y-45935380D02*
X99413314Y-45935380D01*
X99365695Y-46411571D01*
X99413314Y-46363952D01*
X99508552Y-46316333D01*
X99746647Y-46316333D01*
X99841885Y-46363952D01*
X99889504Y-46411571D01*
X99937123Y-46506809D01*
X99937123Y-46744904D01*
X99889504Y-46840142D01*
X99841885Y-46887761D01*
X99746647Y-46935380D01*
X99508552Y-46935380D01*
X99413314Y-46887761D01*
X99365695Y-46840142D01*
X100318076Y-46030619D02*
X100365695Y-45983000D01*
X100460933Y-45935380D01*
X100699028Y-45935380D01*
X100794266Y-45983000D01*
X100841885Y-46030619D01*
X100889504Y-46125857D01*
X100889504Y-46221095D01*
X100841885Y-46363952D01*
X100270457Y-46935380D01*
X100889504Y-46935380D01*
X84199980Y-90524085D02*
X83199980Y-90524085D01*
X83199980Y-90285990D01*
X83247600Y-90143133D01*
X83342838Y-90047895D01*
X83438076Y-90000276D01*
X83628552Y-89952657D01*
X83771409Y-89952657D01*
X83961885Y-90000276D01*
X84057123Y-90047895D01*
X84152361Y-90143133D01*
X84199980Y-90285990D01*
X84199980Y-90524085D01*
X84199980Y-89000276D02*
X84199980Y-89571704D01*
X84199980Y-89285990D02*
X83199980Y-89285990D01*
X83342838Y-89381228D01*
X83438076Y-89476466D01*
X83485695Y-89571704D01*
X83199980Y-88666942D02*
X83199980Y-88000276D01*
X84199980Y-88428847D01*
X59991237Y-101850683D02*
X58991237Y-101850683D01*
X58991237Y-101612588D01*
X59038857Y-101469731D01*
X59134095Y-101374493D01*
X59229333Y-101326874D01*
X59419809Y-101279255D01*
X59562666Y-101279255D01*
X59753142Y-101326874D01*
X59848380Y-101374493D01*
X59943618Y-101469731D01*
X59991237Y-101612588D01*
X59991237Y-101850683D01*
X59991237Y-100326874D02*
X59991237Y-100898302D01*
X59991237Y-100612588D02*
X58991237Y-100612588D01*
X59134095Y-100707826D01*
X59229333Y-100803064D01*
X59276952Y-100898302D01*
X58991237Y-99993540D02*
X58991237Y-99374493D01*
X59372190Y-99707826D01*
X59372190Y-99564969D01*
X59419809Y-99469731D01*
X59467428Y-99422112D01*
X59562666Y-99374493D01*
X59800761Y-99374493D01*
X59895999Y-99422112D01*
X59943618Y-99469731D01*
X59991237Y-99564969D01*
X59991237Y-99850683D01*
X59943618Y-99945921D01*
X59895999Y-99993540D01*
X64440180Y-81238057D02*
X63963990Y-81571390D01*
X64440180Y-81809485D02*
X63440180Y-81809485D01*
X63440180Y-81428533D01*
X63487800Y-81333295D01*
X63535419Y-81285676D01*
X63630657Y-81238057D01*
X63773514Y-81238057D01*
X63868752Y-81285676D01*
X63916371Y-81333295D01*
X63963990Y-81428533D01*
X63963990Y-81809485D01*
X63535419Y-80857104D02*
X63487800Y-80809485D01*
X63440180Y-80714247D01*
X63440180Y-80476152D01*
X63487800Y-80380914D01*
X63535419Y-80333295D01*
X63630657Y-80285676D01*
X63725895Y-80285676D01*
X63868752Y-80333295D01*
X64440180Y-80904723D01*
X64440180Y-80285676D01*
X64440180Y-79809485D02*
X64440180Y-79619009D01*
X64392561Y-79523771D01*
X64344942Y-79476152D01*
X64202085Y-79380914D01*
X64011609Y-79333295D01*
X63630657Y-79333295D01*
X63535419Y-79380914D01*
X63487800Y-79428533D01*
X63440180Y-79523771D01*
X63440180Y-79714247D01*
X63487800Y-79809485D01*
X63535419Y-79857104D01*
X63630657Y-79904723D01*
X63868752Y-79904723D01*
X63963990Y-79857104D01*
X64011609Y-79809485D01*
X64059228Y-79714247D01*
X64059228Y-79523771D01*
X64011609Y-79428533D01*
X63963990Y-79380914D01*
X63868752Y-79333295D01*
X58312933Y-60041780D02*
X57979600Y-59565590D01*
X57741504Y-60041780D02*
X57741504Y-59041780D01*
X58122457Y-59041780D01*
X58217695Y-59089400D01*
X58265314Y-59137019D01*
X58312933Y-59232257D01*
X58312933Y-59375114D01*
X58265314Y-59470352D01*
X58217695Y-59517971D01*
X58122457Y-59565590D01*
X57741504Y-59565590D01*
X58884361Y-59470352D02*
X58789123Y-59422733D01*
X58741504Y-59375114D01*
X58693885Y-59279876D01*
X58693885Y-59232257D01*
X58741504Y-59137019D01*
X58789123Y-59089400D01*
X58884361Y-59041780D01*
X59074838Y-59041780D01*
X59170076Y-59089400D01*
X59217695Y-59137019D01*
X59265314Y-59232257D01*
X59265314Y-59279876D01*
X59217695Y-59375114D01*
X59170076Y-59422733D01*
X59074838Y-59470352D01*
X58884361Y-59470352D01*
X58789123Y-59517971D01*
X58741504Y-59565590D01*
X58693885Y-59660828D01*
X58693885Y-59851304D01*
X58741504Y-59946542D01*
X58789123Y-59994161D01*
X58884361Y-60041780D01*
X59074838Y-60041780D01*
X59170076Y-59994161D01*
X59217695Y-59946542D01*
X59265314Y-59851304D01*
X59265314Y-59660828D01*
X59217695Y-59565590D01*
X59170076Y-59517971D01*
X59074838Y-59470352D01*
X90418533Y-47007780D02*
X89942342Y-47007780D01*
X89942342Y-46007780D01*
X90656628Y-46007780D02*
X91275676Y-46007780D01*
X90942342Y-46388733D01*
X91085200Y-46388733D01*
X91180438Y-46436352D01*
X91228057Y-46483971D01*
X91275676Y-46579209D01*
X91275676Y-46817304D01*
X91228057Y-46912542D01*
X91180438Y-46960161D01*
X91085200Y-47007780D01*
X90799485Y-47007780D01*
X90704247Y-46960161D01*
X90656628Y-46912542D01*
X84495933Y-101244780D02*
X84162600Y-100768590D01*
X83924504Y-101244780D02*
X83924504Y-100244780D01*
X84305457Y-100244780D01*
X84400695Y-100292400D01*
X84448314Y-100340019D01*
X84495933Y-100435257D01*
X84495933Y-100578114D01*
X84448314Y-100673352D01*
X84400695Y-100720971D01*
X84305457Y-100768590D01*
X83924504Y-100768590D01*
X85448314Y-101244780D02*
X84876885Y-101244780D01*
X85162600Y-101244780D02*
X85162600Y-100244780D01*
X85067361Y-100387638D01*
X84972123Y-100482876D01*
X84876885Y-100530495D01*
X18374542Y-98084666D02*
X18422161Y-98132285D01*
X18469780Y-98275142D01*
X18469780Y-98370380D01*
X18422161Y-98513238D01*
X18326923Y-98608476D01*
X18231685Y-98656095D01*
X18041209Y-98703714D01*
X17898352Y-98703714D01*
X17707876Y-98656095D01*
X17612638Y-98608476D01*
X17517400Y-98513238D01*
X17469780Y-98370380D01*
X17469780Y-98275142D01*
X17517400Y-98132285D01*
X17565019Y-98084666D01*
X17803114Y-97227523D02*
X18469780Y-97227523D01*
X17422161Y-97465619D02*
X18136447Y-97703714D01*
X18136447Y-97084666D01*
X98317980Y-32430295D02*
X99127504Y-32430295D01*
X99222742Y-32382676D01*
X99270361Y-32335057D01*
X99317980Y-32239819D01*
X99317980Y-32049342D01*
X99270361Y-31954104D01*
X99222742Y-31906485D01*
X99127504Y-31858866D01*
X98317980Y-31858866D01*
X99317980Y-30858866D02*
X99317980Y-31430295D01*
X99317980Y-31144580D02*
X98317980Y-31144580D01*
X98460838Y-31239819D01*
X98556076Y-31335057D01*
X98603695Y-31430295D01*
X98317980Y-30525533D02*
X98317980Y-29906485D01*
X98698933Y-30239819D01*
X98698933Y-30096961D01*
X98746552Y-30001723D01*
X98794171Y-29954104D01*
X98889409Y-29906485D01*
X99127504Y-29906485D01*
X99222742Y-29954104D01*
X99270361Y-30001723D01*
X99317980Y-30096961D01*
X99317980Y-30382676D01*
X99270361Y-30477914D01*
X99222742Y-30525533D01*
X100216343Y-30701545D02*
X100168724Y-30749164D01*
X100025867Y-30796783D01*
X99930629Y-30796783D01*
X99787772Y-30749164D01*
X99692534Y-30653926D01*
X99644915Y-30558688D01*
X99597296Y-30368212D01*
X99597296Y-30225355D01*
X99644915Y-30034879D01*
X99692534Y-29939641D01*
X99787772Y-29844403D01*
X99930629Y-29796783D01*
X100025867Y-29796783D01*
X100168724Y-29844403D01*
X100216343Y-29892022D01*
X101121105Y-29796783D02*
X100644915Y-29796783D01*
X100597296Y-30272974D01*
X100644915Y-30225355D01*
X100740153Y-30177736D01*
X100978248Y-30177736D01*
X101073486Y-30225355D01*
X101121105Y-30272974D01*
X101168724Y-30368212D01*
X101168724Y-30606307D01*
X101121105Y-30701545D01*
X101073486Y-30749164D01*
X100978248Y-30796783D01*
X100740153Y-30796783D01*
X100644915Y-30749164D01*
X100597296Y-30701545D01*
X102025867Y-29796783D02*
X101835391Y-29796783D01*
X101740153Y-29844403D01*
X101692534Y-29892022D01*
X101597296Y-30034879D01*
X101549677Y-30225355D01*
X101549677Y-30606307D01*
X101597296Y-30701545D01*
X101644915Y-30749164D01*
X101740153Y-30796783D01*
X101930629Y-30796783D01*
X102025867Y-30749164D01*
X102073486Y-30701545D01*
X102121105Y-30606307D01*
X102121105Y-30368212D01*
X102073486Y-30272974D01*
X102025867Y-30225355D01*
X101930629Y-30177736D01*
X101740153Y-30177736D01*
X101644915Y-30225355D01*
X101597296Y-30272974D01*
X101549677Y-30368212D01*
X92922743Y-35884544D02*
X92875124Y-35932163D01*
X92732267Y-35979782D01*
X92637029Y-35979782D01*
X92494172Y-35932163D01*
X92398934Y-35836925D01*
X92351315Y-35741687D01*
X92303696Y-35551211D01*
X92303696Y-35408354D01*
X92351315Y-35217878D01*
X92398934Y-35122640D01*
X92494172Y-35027402D01*
X92637029Y-34979782D01*
X92732267Y-34979782D01*
X92875124Y-35027402D01*
X92922743Y-35075021D01*
X93779886Y-34979782D02*
X93589410Y-34979782D01*
X93494172Y-35027402D01*
X93446553Y-35075021D01*
X93351315Y-35217878D01*
X93303696Y-35408354D01*
X93303696Y-35789306D01*
X93351315Y-35884544D01*
X93398934Y-35932163D01*
X93494172Y-35979782D01*
X93684648Y-35979782D01*
X93779886Y-35932163D01*
X93827505Y-35884544D01*
X93875124Y-35789306D01*
X93875124Y-35551211D01*
X93827505Y-35455973D01*
X93779886Y-35408354D01*
X93684648Y-35360735D01*
X93494172Y-35360735D01*
X93398934Y-35408354D01*
X93351315Y-35455973D01*
X93303696Y-35551211D01*
X94256077Y-35075021D02*
X94303696Y-35027402D01*
X94398934Y-34979782D01*
X94637029Y-34979782D01*
X94732267Y-35027402D01*
X94779886Y-35075021D01*
X94827505Y-35170259D01*
X94827505Y-35265497D01*
X94779886Y-35408354D01*
X94208458Y-35979782D01*
X94827505Y-35979782D01*
X75378542Y-44317942D02*
X75330923Y-44365561D01*
X75188066Y-44413180D01*
X75092828Y-44413180D01*
X74949971Y-44365561D01*
X74854733Y-44270323D01*
X74807114Y-44175085D01*
X74759495Y-43984609D01*
X74759495Y-43841752D01*
X74807114Y-43651276D01*
X74854733Y-43556038D01*
X74949971Y-43460800D01*
X75092828Y-43413180D01*
X75188066Y-43413180D01*
X75330923Y-43460800D01*
X75378542Y-43508419D01*
X75759495Y-43508419D02*
X75807114Y-43460800D01*
X75902352Y-43413180D01*
X76140447Y-43413180D01*
X76235685Y-43460800D01*
X76283304Y-43508419D01*
X76330923Y-43603657D01*
X76330923Y-43698895D01*
X76283304Y-43841752D01*
X75711876Y-44413180D01*
X76330923Y-44413180D01*
X76664257Y-43413180D02*
X77283304Y-43413180D01*
X76949971Y-43794133D01*
X77092828Y-43794133D01*
X77188066Y-43841752D01*
X77235685Y-43889371D01*
X77283304Y-43984609D01*
X77283304Y-44222704D01*
X77235685Y-44317942D01*
X77188066Y-44365561D01*
X77092828Y-44413180D01*
X76807114Y-44413180D01*
X76711876Y-44365561D01*
X76664257Y-44317942D01*
X62951361Y-70553419D02*
X62856123Y-70505800D01*
X62760885Y-70410561D01*
X62618028Y-70267704D01*
X62522790Y-70220085D01*
X62427552Y-70220085D01*
X62475171Y-70458180D02*
X62379933Y-70410561D01*
X62284695Y-70315323D01*
X62237076Y-70124847D01*
X62237076Y-69791514D01*
X62284695Y-69601038D01*
X62379933Y-69505800D01*
X62475171Y-69458180D01*
X62665647Y-69458180D01*
X62760885Y-69505800D01*
X62856123Y-69601038D01*
X62903742Y-69791514D01*
X62903742Y-70124847D01*
X62856123Y-70315323D01*
X62760885Y-70410561D01*
X62665647Y-70458180D01*
X62475171Y-70458180D01*
X63856123Y-70458180D02*
X63284695Y-70458180D01*
X63570409Y-70458180D02*
X63570409Y-69458180D01*
X63475171Y-69601038D01*
X63379933Y-69696276D01*
X63284695Y-69743895D01*
X38415141Y-19229057D02*
X38462760Y-19276676D01*
X38510379Y-19419533D01*
X38510379Y-19514771D01*
X38462760Y-19657628D01*
X38367522Y-19752866D01*
X38272284Y-19800485D01*
X38081808Y-19848104D01*
X37938951Y-19848104D01*
X37748475Y-19800485D01*
X37653237Y-19752866D01*
X37557999Y-19657628D01*
X37510379Y-19514771D01*
X37510379Y-19419533D01*
X37557999Y-19276676D01*
X37605618Y-19229057D01*
X37510379Y-18895723D02*
X37510379Y-18276676D01*
X37891332Y-18610009D01*
X37891332Y-18467152D01*
X37938951Y-18371914D01*
X37986570Y-18324295D01*
X38081808Y-18276676D01*
X38319903Y-18276676D01*
X38415141Y-18324295D01*
X38462760Y-18371914D01*
X38510379Y-18467152D01*
X38510379Y-18752866D01*
X38462760Y-18848104D01*
X38415141Y-18895723D01*
X38510379Y-17324295D02*
X38510379Y-17895723D01*
X38510379Y-17610009D02*
X37510379Y-17610009D01*
X37653237Y-17705247D01*
X37748475Y-17800485D01*
X37796094Y-17895723D01*
X51492571Y-86533933D02*
X51492571Y-86867266D01*
X52016380Y-86867266D02*
X51016380Y-86867266D01*
X51016380Y-86391076D01*
X51492571Y-85676790D02*
X51540190Y-85533933D01*
X51587809Y-85486314D01*
X51683047Y-85438695D01*
X51825904Y-85438695D01*
X51921142Y-85486314D01*
X51968761Y-85533933D01*
X52016380Y-85629171D01*
X52016380Y-86010123D01*
X51016380Y-86010123D01*
X51016380Y-85676790D01*
X51064000Y-85581552D01*
X51111619Y-85533933D01*
X51206857Y-85486314D01*
X51302095Y-85486314D01*
X51397333Y-85533933D01*
X51444952Y-85581552D01*
X51492571Y-85676790D01*
X51492571Y-86010123D01*
X52016380Y-84486314D02*
X52016380Y-85057742D01*
X52016380Y-84772028D02*
X51016380Y-84772028D01*
X51159238Y-84867266D01*
X51254476Y-84962504D01*
X51302095Y-85057742D01*
X30422095Y-74480780D02*
X30422095Y-75290304D01*
X30469714Y-75385542D01*
X30517333Y-75433161D01*
X30612571Y-75480780D01*
X30803047Y-75480780D01*
X30898285Y-75433161D01*
X30945904Y-75385542D01*
X30993523Y-75290304D01*
X30993523Y-74480780D01*
X31993523Y-75480780D02*
X31422095Y-75480780D01*
X31707809Y-75480780D02*
X31707809Y-74480780D01*
X31612571Y-74623638D01*
X31517333Y-74718876D01*
X31422095Y-74766495D01*
X58703104Y-80050380D02*
X58703104Y-79050380D01*
X58941200Y-79050380D01*
X59084057Y-79098000D01*
X59179295Y-79193238D01*
X59226914Y-79288476D01*
X59274533Y-79478952D01*
X59274533Y-79621809D01*
X59226914Y-79812285D01*
X59179295Y-79907523D01*
X59084057Y-80002761D01*
X58941200Y-80050380D01*
X58703104Y-80050380D01*
X59750723Y-80050380D02*
X59941200Y-80050380D01*
X60036438Y-80002761D01*
X60084057Y-79955142D01*
X60179295Y-79812285D01*
X60226914Y-79621809D01*
X60226914Y-79240857D01*
X60179295Y-79145619D01*
X60131676Y-79098000D01*
X60036438Y-79050380D01*
X59845961Y-79050380D01*
X59750723Y-79098000D01*
X59703104Y-79145619D01*
X59655485Y-79240857D01*
X59655485Y-79478952D01*
X59703104Y-79574190D01*
X59750723Y-79621809D01*
X59845961Y-79669428D01*
X60036438Y-79669428D01*
X60131676Y-79621809D01*
X60179295Y-79574190D01*
X60226914Y-79478952D01*
X76373742Y-90701181D02*
X76040409Y-90224991D01*
X75802314Y-90701181D02*
X75802314Y-89701181D01*
X76183266Y-89701181D01*
X76278504Y-89748801D01*
X76326123Y-89796420D01*
X76373742Y-89891658D01*
X76373742Y-90034515D01*
X76326123Y-90129753D01*
X76278504Y-90177372D01*
X76183266Y-90224991D01*
X75802314Y-90224991D01*
X76707076Y-89701181D02*
X77326123Y-89701181D01*
X76992790Y-90082134D01*
X77135647Y-90082134D01*
X77230885Y-90129753D01*
X77278504Y-90177372D01*
X77326123Y-90272610D01*
X77326123Y-90510705D01*
X77278504Y-90605943D01*
X77230885Y-90653562D01*
X77135647Y-90701181D01*
X76849933Y-90701181D01*
X76754695Y-90653562D01*
X76707076Y-90605943D01*
X78183266Y-90034515D02*
X78183266Y-90701181D01*
X77945171Y-89653562D02*
X77707076Y-90367848D01*
X78326123Y-90367848D01*
X68762142Y-45970180D02*
X68428809Y-45493990D01*
X68190714Y-45970180D02*
X68190714Y-44970180D01*
X68571666Y-44970180D01*
X68666904Y-45017800D01*
X68714523Y-45065419D01*
X68762142Y-45160657D01*
X68762142Y-45303514D01*
X68714523Y-45398752D01*
X68666904Y-45446371D01*
X68571666Y-45493990D01*
X68190714Y-45493990D01*
X69619285Y-44970180D02*
X69428809Y-44970180D01*
X69333571Y-45017800D01*
X69285952Y-45065419D01*
X69190714Y-45208276D01*
X69143095Y-45398752D01*
X69143095Y-45779704D01*
X69190714Y-45874942D01*
X69238333Y-45922561D01*
X69333571Y-45970180D01*
X69524047Y-45970180D01*
X69619285Y-45922561D01*
X69666904Y-45874942D01*
X69714523Y-45779704D01*
X69714523Y-45541609D01*
X69666904Y-45446371D01*
X69619285Y-45398752D01*
X69524047Y-45351133D01*
X69333571Y-45351133D01*
X69238333Y-45398752D01*
X69190714Y-45446371D01*
X69143095Y-45541609D01*
X70666904Y-45970180D02*
X70095476Y-45970180D01*
X70381190Y-45970180D02*
X70381190Y-44970180D01*
X70285952Y-45113038D01*
X70190714Y-45208276D01*
X70095476Y-45255895D01*
X61352743Y-64321657D02*
X61400362Y-64369276D01*
X61447981Y-64512133D01*
X61447981Y-64607371D01*
X61400362Y-64750228D01*
X61305124Y-64845466D01*
X61209886Y-64893085D01*
X61019410Y-64940704D01*
X60876553Y-64940704D01*
X60686077Y-64893085D01*
X60590839Y-64845466D01*
X60495601Y-64750228D01*
X60447981Y-64607371D01*
X60447981Y-64512133D01*
X60495601Y-64369276D01*
X60543220Y-64321657D01*
X60543220Y-63940704D02*
X60495601Y-63893085D01*
X60447981Y-63797847D01*
X60447981Y-63559752D01*
X60495601Y-63464514D01*
X60543220Y-63416895D01*
X60638458Y-63369276D01*
X60733696Y-63369276D01*
X60876553Y-63416895D01*
X61447981Y-63988323D01*
X61447981Y-63369276D01*
X60447981Y-63035942D02*
X60447981Y-62369276D01*
X61447981Y-62797847D01*
X43627437Y-97726093D02*
X42627437Y-97726093D01*
X42627437Y-97487998D01*
X42675057Y-97345140D01*
X42770295Y-97249902D01*
X42865533Y-97202283D01*
X43056009Y-97154664D01*
X43198866Y-97154664D01*
X43389342Y-97202283D01*
X43484580Y-97249902D01*
X43579818Y-97345140D01*
X43627437Y-97487998D01*
X43627437Y-97726093D01*
X42627437Y-96297521D02*
X42627437Y-96487998D01*
X42675057Y-96583236D01*
X42722676Y-96630855D01*
X42865533Y-96726093D01*
X43056009Y-96773712D01*
X43436961Y-96773712D01*
X43532199Y-96726093D01*
X43579818Y-96678474D01*
X43627437Y-96583236D01*
X43627437Y-96392759D01*
X43579818Y-96297521D01*
X43532199Y-96249902D01*
X43436961Y-96202283D01*
X43198866Y-96202283D01*
X43103628Y-96249902D01*
X43056009Y-96297521D01*
X43008390Y-96392759D01*
X43008390Y-96583236D01*
X43056009Y-96678474D01*
X43103628Y-96726093D01*
X43198866Y-96773712D01*
X102131533Y-65686942D02*
X102083914Y-65734561D01*
X101941057Y-65782180D01*
X101845819Y-65782180D01*
X101702961Y-65734561D01*
X101607723Y-65639323D01*
X101560104Y-65544085D01*
X101512485Y-65353609D01*
X101512485Y-65210752D01*
X101560104Y-65020276D01*
X101607723Y-64925038D01*
X101702961Y-64829800D01*
X101845819Y-64782180D01*
X101941057Y-64782180D01*
X102083914Y-64829800D01*
X102131533Y-64877419D01*
X102607723Y-65782180D02*
X102798200Y-65782180D01*
X102893438Y-65734561D01*
X102941057Y-65686942D01*
X103036295Y-65544085D01*
X103083914Y-65353609D01*
X103083914Y-64972657D01*
X103036295Y-64877419D01*
X102988676Y-64829800D01*
X102893438Y-64782180D01*
X102702961Y-64782180D01*
X102607723Y-64829800D01*
X102560104Y-64877419D01*
X102512485Y-64972657D01*
X102512485Y-65210752D01*
X102560104Y-65305990D01*
X102607723Y-65353609D01*
X102702961Y-65401228D01*
X102893438Y-65401228D01*
X102988676Y-65353609D01*
X103036295Y-65305990D01*
X103083914Y-65210752D01*
X85894295Y-58355980D02*
X86465723Y-58355980D01*
X86180009Y-59355980D02*
X86180009Y-58355980D01*
X86799057Y-59355980D02*
X86799057Y-58355980D01*
X87180009Y-58355980D01*
X87275247Y-58403600D01*
X87322866Y-58451219D01*
X87370485Y-58546457D01*
X87370485Y-58689314D01*
X87322866Y-58784552D01*
X87275247Y-58832171D01*
X87180009Y-58879790D01*
X86799057Y-58879790D01*
X87846676Y-59355980D02*
X88037152Y-59355980D01*
X88132390Y-59308361D01*
X88180009Y-59260742D01*
X88275247Y-59117885D01*
X88322866Y-58927409D01*
X88322866Y-58546457D01*
X88275247Y-58451219D01*
X88227628Y-58403600D01*
X88132390Y-58355980D01*
X87941914Y-58355980D01*
X87846676Y-58403600D01*
X87799057Y-58451219D01*
X87751438Y-58546457D01*
X87751438Y-58784552D01*
X87799057Y-58879790D01*
X87846676Y-58927409D01*
X87941914Y-58975028D01*
X88132390Y-58975028D01*
X88227628Y-58927409D01*
X88275247Y-58879790D01*
X88322866Y-58784552D01*
X69492333Y-44420780D02*
X69159000Y-43944590D01*
X68920904Y-44420780D02*
X68920904Y-43420780D01*
X69301857Y-43420780D01*
X69397095Y-43468400D01*
X69444714Y-43516019D01*
X69492333Y-43611257D01*
X69492333Y-43754114D01*
X69444714Y-43849352D01*
X69397095Y-43896971D01*
X69301857Y-43944590D01*
X68920904Y-43944590D01*
X69968523Y-44420780D02*
X70159000Y-44420780D01*
X70254238Y-44373161D01*
X70301857Y-44325542D01*
X70397095Y-44182685D01*
X70444714Y-43992209D01*
X70444714Y-43611257D01*
X70397095Y-43516019D01*
X70349476Y-43468400D01*
X70254238Y-43420780D01*
X70063761Y-43420780D01*
X69968523Y-43468400D01*
X69920904Y-43516019D01*
X69873285Y-43611257D01*
X69873285Y-43849352D01*
X69920904Y-43944590D01*
X69968523Y-43992209D01*
X70063761Y-44039828D01*
X70254238Y-44039828D01*
X70349476Y-43992209D01*
X70397095Y-43944590D01*
X70444714Y-43849352D01*
X33841979Y-16596904D02*
X33841979Y-16025476D01*
X34841979Y-16311190D02*
X33841979Y-16311190D01*
X34841979Y-15692142D02*
X33841979Y-15692142D01*
X33841979Y-15311190D01*
X33889599Y-15215952D01*
X33937218Y-15168333D01*
X34032456Y-15120714D01*
X34175313Y-15120714D01*
X34270551Y-15168333D01*
X34318170Y-15215952D01*
X34365789Y-15311190D01*
X34365789Y-15692142D01*
X33841979Y-14215952D02*
X33841979Y-14692142D01*
X34318170Y-14739761D01*
X34270551Y-14692142D01*
X34222932Y-14596904D01*
X34222932Y-14358809D01*
X34270551Y-14263571D01*
X34318170Y-14215952D01*
X34413408Y-14168333D01*
X34651503Y-14168333D01*
X34746741Y-14215952D01*
X34794360Y-14263571D01*
X34841979Y-14358809D01*
X34841979Y-14596904D01*
X34794360Y-14692142D01*
X34746741Y-14739761D01*
X91694942Y-22405342D02*
X91647323Y-22452961D01*
X91504466Y-22500580D01*
X91409228Y-22500580D01*
X91266371Y-22452961D01*
X91171133Y-22357723D01*
X91123514Y-22262485D01*
X91075895Y-22072009D01*
X91075895Y-21929152D01*
X91123514Y-21738676D01*
X91171133Y-21643438D01*
X91266371Y-21548200D01*
X91409228Y-21500580D01*
X91504466Y-21500580D01*
X91647323Y-21548200D01*
X91694942Y-21595819D01*
X92599704Y-21500580D02*
X92123514Y-21500580D01*
X92075895Y-21976771D01*
X92123514Y-21929152D01*
X92218752Y-21881533D01*
X92456847Y-21881533D01*
X92552085Y-21929152D01*
X92599704Y-21976771D01*
X92647323Y-22072009D01*
X92647323Y-22310104D01*
X92599704Y-22405342D01*
X92552085Y-22452961D01*
X92456847Y-22500580D01*
X92218752Y-22500580D01*
X92123514Y-22452961D01*
X92075895Y-22405342D01*
X92980657Y-21500580D02*
X93647323Y-21500580D01*
X93218752Y-22500580D01*
X103749981Y-29726857D02*
X103273791Y-30060190D01*
X103749981Y-30298285D02*
X102749981Y-30298285D01*
X102749981Y-29917333D01*
X102797601Y-29822095D01*
X102845220Y-29774476D01*
X102940458Y-29726857D01*
X103083315Y-29726857D01*
X103178553Y-29774476D01*
X103226172Y-29822095D01*
X103273791Y-29917333D01*
X103273791Y-30298285D01*
X102749981Y-29393523D02*
X102749981Y-28774476D01*
X103130934Y-29107809D01*
X103130934Y-28964952D01*
X103178553Y-28869714D01*
X103226172Y-28822095D01*
X103321410Y-28774476D01*
X103559505Y-28774476D01*
X103654743Y-28822095D01*
X103702362Y-28869714D01*
X103749981Y-28964952D01*
X103749981Y-29250666D01*
X103702362Y-29345904D01*
X103654743Y-29393523D01*
X103178553Y-28203047D02*
X103130934Y-28298285D01*
X103083315Y-28345904D01*
X102988077Y-28393523D01*
X102940458Y-28393523D01*
X102845220Y-28345904D01*
X102797601Y-28298285D01*
X102749981Y-28203047D01*
X102749981Y-28012571D01*
X102797601Y-27917333D01*
X102845220Y-27869714D01*
X102940458Y-27822095D01*
X102988077Y-27822095D01*
X103083315Y-27869714D01*
X103130934Y-27917333D01*
X103178553Y-28012571D01*
X103178553Y-28203047D01*
X103226172Y-28298285D01*
X103273791Y-28345904D01*
X103369029Y-28393523D01*
X103559505Y-28393523D01*
X103654743Y-28345904D01*
X103702362Y-28298285D01*
X103749981Y-28203047D01*
X103749981Y-28012571D01*
X103702362Y-27917333D01*
X103654743Y-27869714D01*
X103559505Y-27822095D01*
X103369029Y-27822095D01*
X103273791Y-27869714D01*
X103226172Y-27917333D01*
X103178553Y-28012571D01*
X71753980Y-99096657D02*
X71277790Y-99429990D01*
X71753980Y-99668085D02*
X70753980Y-99668085D01*
X70753980Y-99287133D01*
X70801600Y-99191895D01*
X70849219Y-99144276D01*
X70944457Y-99096657D01*
X71087314Y-99096657D01*
X71182552Y-99144276D01*
X71230171Y-99191895D01*
X71277790Y-99287133D01*
X71277790Y-99668085D01*
X70849219Y-98715704D02*
X70801600Y-98668085D01*
X70753980Y-98572847D01*
X70753980Y-98334752D01*
X70801600Y-98239514D01*
X70849219Y-98191895D01*
X70944457Y-98144276D01*
X71039695Y-98144276D01*
X71182552Y-98191895D01*
X71753980Y-98763323D01*
X71753980Y-98144276D01*
X70753980Y-97810942D02*
X70753980Y-97191895D01*
X71134933Y-97525228D01*
X71134933Y-97382371D01*
X71182552Y-97287133D01*
X71230171Y-97239514D01*
X71325409Y-97191895D01*
X71563504Y-97191895D01*
X71658742Y-97239514D01*
X71706361Y-97287133D01*
X71753980Y-97382371D01*
X71753980Y-97668085D01*
X71706361Y-97763323D01*
X71658742Y-97810942D01*
X98089380Y-50031227D02*
X98898904Y-50031227D01*
X98994142Y-49983608D01*
X99041761Y-49935989D01*
X99089380Y-49840751D01*
X99089380Y-49650274D01*
X99041761Y-49555036D01*
X98994142Y-49507417D01*
X98898904Y-49459798D01*
X98089380Y-49459798D01*
X99089380Y-48459798D02*
X99089380Y-49031227D01*
X99089380Y-48745512D02*
X98089380Y-48745512D01*
X98232238Y-48840751D01*
X98327476Y-48935989D01*
X98375095Y-49031227D01*
X99089380Y-47507417D02*
X99089380Y-48078846D01*
X99089380Y-47793132D02*
X98089380Y-47793132D01*
X98232238Y-47888370D01*
X98327476Y-47983608D01*
X98375095Y-48078846D01*
X70102980Y-69569085D02*
X69102980Y-69569085D01*
X69102980Y-69330990D01*
X69150600Y-69188133D01*
X69245838Y-69092895D01*
X69341076Y-69045276D01*
X69531552Y-68997657D01*
X69674409Y-68997657D01*
X69864885Y-69045276D01*
X69960123Y-69092895D01*
X70055361Y-69188133D01*
X70102980Y-69330990D01*
X70102980Y-69569085D01*
X70102980Y-68045276D02*
X70102980Y-68616704D01*
X70102980Y-68330990D02*
X69102980Y-68330990D01*
X69245838Y-68426228D01*
X69341076Y-68521466D01*
X69388695Y-68616704D01*
X69436314Y-67188133D02*
X70102980Y-67188133D01*
X69055361Y-67426228D02*
X69769647Y-67664323D01*
X69769647Y-67045276D01*
X43590379Y-25991866D02*
X43590379Y-26468057D01*
X42590379Y-26468057D01*
X42685618Y-25706152D02*
X42637999Y-25658533D01*
X42590379Y-25563295D01*
X42590379Y-25325200D01*
X42637999Y-25229961D01*
X42685618Y-25182342D01*
X42780856Y-25134723D01*
X42876094Y-25134723D01*
X43018951Y-25182342D01*
X43590379Y-25753771D01*
X43590379Y-25134723D01*
X93356380Y-84684104D02*
X94165904Y-84684104D01*
X94261142Y-84636485D01*
X94308761Y-84588866D01*
X94356380Y-84493628D01*
X94356380Y-84303152D01*
X94308761Y-84207914D01*
X94261142Y-84160295D01*
X94165904Y-84112676D01*
X93356380Y-84112676D01*
X93356380Y-83207914D02*
X93356380Y-83398390D01*
X93404000Y-83493628D01*
X93451619Y-83541247D01*
X93594476Y-83636485D01*
X93784952Y-83684104D01*
X94165904Y-83684104D01*
X94261142Y-83636485D01*
X94308761Y-83588866D01*
X94356380Y-83493628D01*
X94356380Y-83303152D01*
X94308761Y-83207914D01*
X94261142Y-83160295D01*
X94165904Y-83112676D01*
X93927809Y-83112676D01*
X93832571Y-83160295D01*
X93784952Y-83207914D01*
X93737333Y-83303152D01*
X93737333Y-83493628D01*
X93784952Y-83588866D01*
X93832571Y-83636485D01*
X93927809Y-83684104D01*
X44994142Y-85095542D02*
X44946523Y-85143161D01*
X44803666Y-85190780D01*
X44708428Y-85190780D01*
X44565571Y-85143161D01*
X44470333Y-85047923D01*
X44422714Y-84952685D01*
X44375095Y-84762209D01*
X44375095Y-84619352D01*
X44422714Y-84428876D01*
X44470333Y-84333638D01*
X44565571Y-84238400D01*
X44708428Y-84190780D01*
X44803666Y-84190780D01*
X44946523Y-84238400D01*
X44994142Y-84286019D01*
X45946523Y-85190780D02*
X45375095Y-85190780D01*
X45660809Y-85190780D02*
X45660809Y-84190780D01*
X45565571Y-84333638D01*
X45470333Y-84428876D01*
X45375095Y-84476495D01*
X46898904Y-85190780D02*
X46327476Y-85190780D01*
X46613190Y-85190780D02*
X46613190Y-84190780D01*
X46517952Y-84333638D01*
X46422714Y-84428876D01*
X46327476Y-84476495D01*
X68705980Y-99096657D02*
X68229790Y-99429990D01*
X68705980Y-99668085D02*
X67705980Y-99668085D01*
X67705980Y-99287133D01*
X67753600Y-99191895D01*
X67801219Y-99144276D01*
X67896457Y-99096657D01*
X68039314Y-99096657D01*
X68134552Y-99144276D01*
X68182171Y-99191895D01*
X68229790Y-99287133D01*
X68229790Y-99668085D01*
X68705980Y-98144276D02*
X68705980Y-98715704D01*
X68705980Y-98429990D02*
X67705980Y-98429990D01*
X67848838Y-98525228D01*
X67944076Y-98620466D01*
X67991695Y-98715704D01*
X68705980Y-97191895D02*
X68705980Y-97763323D01*
X68705980Y-97477609D02*
X67705980Y-97477609D01*
X67848838Y-97572847D01*
X67944076Y-97668085D01*
X67991695Y-97763323D01*
X36275180Y-75173866D02*
X35798990Y-75507200D01*
X36275180Y-75745295D02*
X35275180Y-75745295D01*
X35275180Y-75364342D01*
X35322800Y-75269104D01*
X35370419Y-75221485D01*
X35465657Y-75173866D01*
X35608514Y-75173866D01*
X35703752Y-75221485D01*
X35751371Y-75269104D01*
X35798990Y-75364342D01*
X35798990Y-75745295D01*
X35370419Y-74792914D02*
X35322800Y-74745295D01*
X35275180Y-74650057D01*
X35275180Y-74411961D01*
X35322800Y-74316723D01*
X35370419Y-74269104D01*
X35465657Y-74221485D01*
X35560895Y-74221485D01*
X35703752Y-74269104D01*
X36275180Y-74840533D01*
X36275180Y-74221485D01*
X55134333Y-83416142D02*
X55086714Y-83463761D01*
X54943857Y-83511380D01*
X54848619Y-83511380D01*
X54705761Y-83463761D01*
X54610523Y-83368523D01*
X54562904Y-83273285D01*
X54515285Y-83082809D01*
X54515285Y-82939952D01*
X54562904Y-82749476D01*
X54610523Y-82654238D01*
X54705761Y-82559000D01*
X54848619Y-82511380D01*
X54943857Y-82511380D01*
X55086714Y-82559000D01*
X55134333Y-82606619D01*
X55991476Y-82511380D02*
X55801000Y-82511380D01*
X55705761Y-82559000D01*
X55658142Y-82606619D01*
X55562904Y-82749476D01*
X55515285Y-82939952D01*
X55515285Y-83320904D01*
X55562904Y-83416142D01*
X55610523Y-83463761D01*
X55705761Y-83511380D01*
X55896238Y-83511380D01*
X55991476Y-83463761D01*
X56039095Y-83416142D01*
X56086714Y-83320904D01*
X56086714Y-83082809D01*
X56039095Y-82987571D01*
X55991476Y-82939952D01*
X55896238Y-82892333D01*
X55705761Y-82892333D01*
X55610523Y-82939952D01*
X55562904Y-82987571D01*
X55515285Y-83082809D01*
X58175971Y-83663733D02*
X58175971Y-83997066D01*
X58699780Y-83997066D02*
X57699780Y-83997066D01*
X57699780Y-83520876D01*
X58175971Y-82806590D02*
X58223590Y-82663733D01*
X58271209Y-82616114D01*
X58366447Y-82568495D01*
X58509304Y-82568495D01*
X58604542Y-82616114D01*
X58652161Y-82663733D01*
X58699780Y-82758971D01*
X58699780Y-83139923D01*
X57699780Y-83139923D01*
X57699780Y-82806590D01*
X57747400Y-82711352D01*
X57795019Y-82663733D01*
X57890257Y-82616114D01*
X57985495Y-82616114D01*
X58080733Y-82663733D01*
X58128352Y-82711352D01*
X58175971Y-82806590D01*
X58175971Y-83139923D01*
X58033114Y-81711352D02*
X58699780Y-81711352D01*
X57652161Y-81949447D02*
X58366447Y-82187542D01*
X58366447Y-81568495D01*
X78135742Y-86777657D02*
X78183361Y-86825276D01*
X78230980Y-86968133D01*
X78230980Y-87063371D01*
X78183361Y-87206228D01*
X78088123Y-87301466D01*
X77992885Y-87349085D01*
X77802409Y-87396704D01*
X77659552Y-87396704D01*
X77469076Y-87349085D01*
X77373838Y-87301466D01*
X77278600Y-87206228D01*
X77230980Y-87063371D01*
X77230980Y-86968133D01*
X77278600Y-86825276D01*
X77326219Y-86777657D01*
X77230980Y-86444323D02*
X77230980Y-85825276D01*
X77611933Y-86158609D01*
X77611933Y-86015752D01*
X77659552Y-85920514D01*
X77707171Y-85872895D01*
X77802409Y-85825276D01*
X78040504Y-85825276D01*
X78135742Y-85872895D01*
X78183361Y-85920514D01*
X78230980Y-86015752D01*
X78230980Y-86301466D01*
X78183361Y-86396704D01*
X78135742Y-86444323D01*
X77230980Y-85491942D02*
X77230980Y-84872895D01*
X77611933Y-85206228D01*
X77611933Y-85063371D01*
X77659552Y-84968133D01*
X77707171Y-84920514D01*
X77802409Y-84872895D01*
X78040504Y-84872895D01*
X78135742Y-84920514D01*
X78183361Y-84968133D01*
X78230980Y-85063371D01*
X78230980Y-85349085D01*
X78183361Y-85444323D01*
X78135742Y-85491942D01*
X85298542Y-81088057D02*
X85346161Y-81135676D01*
X85393780Y-81278533D01*
X85393780Y-81373771D01*
X85346161Y-81516628D01*
X85250923Y-81611866D01*
X85155685Y-81659485D01*
X84965209Y-81707104D01*
X84822352Y-81707104D01*
X84631876Y-81659485D01*
X84536638Y-81611866D01*
X84441400Y-81516628D01*
X84393780Y-81373771D01*
X84393780Y-81278533D01*
X84441400Y-81135676D01*
X84489019Y-81088057D01*
X84489019Y-80707104D02*
X84441400Y-80659485D01*
X84393780Y-80564247D01*
X84393780Y-80326152D01*
X84441400Y-80230914D01*
X84489019Y-80183295D01*
X84584257Y-80135676D01*
X84679495Y-80135676D01*
X84822352Y-80183295D01*
X85393780Y-80754723D01*
X85393780Y-80135676D01*
X84822352Y-79564247D02*
X84774733Y-79659485D01*
X84727114Y-79707104D01*
X84631876Y-79754723D01*
X84584257Y-79754723D01*
X84489019Y-79707104D01*
X84441400Y-79659485D01*
X84393780Y-79564247D01*
X84393780Y-79373771D01*
X84441400Y-79278533D01*
X84489019Y-79230914D01*
X84584257Y-79183295D01*
X84631876Y-79183295D01*
X84727114Y-79230914D01*
X84774733Y-79278533D01*
X84822352Y-79373771D01*
X84822352Y-79564247D01*
X84869971Y-79659485D01*
X84917590Y-79707104D01*
X85012828Y-79754723D01*
X85203304Y-79754723D01*
X85298542Y-79707104D01*
X85346161Y-79659485D01*
X85393780Y-79564247D01*
X85393780Y-79373771D01*
X85346161Y-79278533D01*
X85298542Y-79230914D01*
X85203304Y-79183295D01*
X85012828Y-79183295D01*
X84917590Y-79230914D01*
X84869971Y-79278533D01*
X84822352Y-79373771D01*
X102915333Y-74900780D02*
X102582000Y-74424590D01*
X102343904Y-74900780D02*
X102343904Y-73900780D01*
X102724857Y-73900780D01*
X102820095Y-73948400D01*
X102867714Y-73996019D01*
X102915333Y-74091257D01*
X102915333Y-74234114D01*
X102867714Y-74329352D01*
X102820095Y-74376971D01*
X102724857Y-74424590D01*
X102343904Y-74424590D01*
X103772476Y-74234114D02*
X103772476Y-74900780D01*
X103534380Y-73853161D02*
X103296285Y-74567447D01*
X103915333Y-74567447D01*
X29272242Y-29426857D02*
X29319861Y-29474476D01*
X29367480Y-29617333D01*
X29367480Y-29712571D01*
X29319861Y-29855428D01*
X29224623Y-29950666D01*
X29129385Y-29998285D01*
X28938909Y-30045904D01*
X28796052Y-30045904D01*
X28605576Y-29998285D01*
X28510338Y-29950666D01*
X28415100Y-29855428D01*
X28367480Y-29712571D01*
X28367480Y-29617333D01*
X28415100Y-29474476D01*
X28462719Y-29426857D01*
X28700814Y-28569714D02*
X29367480Y-28569714D01*
X28319861Y-28807809D02*
X29034147Y-29045904D01*
X29034147Y-28426857D01*
X28462719Y-28093523D02*
X28415100Y-28045904D01*
X28367480Y-27950666D01*
X28367480Y-27712571D01*
X28415100Y-27617333D01*
X28462719Y-27569714D01*
X28557957Y-27522095D01*
X28653195Y-27522095D01*
X28796052Y-27569714D01*
X29367480Y-28141142D01*
X29367480Y-27522095D01*
X103673781Y-26907457D02*
X103197591Y-27240790D01*
X103673781Y-27478885D02*
X102673781Y-27478885D01*
X102673781Y-27097933D01*
X102721401Y-27002695D01*
X102769020Y-26955076D01*
X102864258Y-26907457D01*
X103007115Y-26907457D01*
X103102353Y-26955076D01*
X103149972Y-27002695D01*
X103197591Y-27097933D01*
X103197591Y-27478885D01*
X102673781Y-26574123D02*
X102673781Y-25955076D01*
X103054734Y-26288409D01*
X103054734Y-26145552D01*
X103102353Y-26050314D01*
X103149972Y-26002695D01*
X103245210Y-25955076D01*
X103483305Y-25955076D01*
X103578543Y-26002695D01*
X103626162Y-26050314D01*
X103673781Y-26145552D01*
X103673781Y-26431266D01*
X103626162Y-26526504D01*
X103578543Y-26574123D01*
X102673781Y-25621742D02*
X102673781Y-24955076D01*
X103673781Y-25383647D01*
X55134333Y-82146142D02*
X55086714Y-82193761D01*
X54943857Y-82241380D01*
X54848619Y-82241380D01*
X54705761Y-82193761D01*
X54610523Y-82098523D01*
X54562904Y-82003285D01*
X54515285Y-81812809D01*
X54515285Y-81669952D01*
X54562904Y-81479476D01*
X54610523Y-81384238D01*
X54705761Y-81289000D01*
X54848619Y-81241380D01*
X54943857Y-81241380D01*
X55086714Y-81289000D01*
X55134333Y-81336619D01*
X55467666Y-81241380D02*
X56134333Y-81241380D01*
X55705761Y-82241380D01*
X93645742Y-94080180D02*
X93312409Y-93603990D01*
X93074314Y-94080180D02*
X93074314Y-93080180D01*
X93455266Y-93080180D01*
X93550504Y-93127800D01*
X93598123Y-93175419D01*
X93645742Y-93270657D01*
X93645742Y-93413514D01*
X93598123Y-93508752D01*
X93550504Y-93556371D01*
X93455266Y-93603990D01*
X93074314Y-93603990D01*
X94598123Y-94080180D02*
X94026695Y-94080180D01*
X94312409Y-94080180D02*
X94312409Y-93080180D01*
X94217171Y-93223038D01*
X94121933Y-93318276D01*
X94026695Y-93365895D01*
X94931457Y-93080180D02*
X95598123Y-93080180D01*
X95169552Y-94080180D01*
X93645742Y-87137542D02*
X93598123Y-87185161D01*
X93455266Y-87232780D01*
X93360028Y-87232780D01*
X93217171Y-87185161D01*
X93121933Y-87089923D01*
X93074314Y-86994685D01*
X93026695Y-86804209D01*
X93026695Y-86661352D01*
X93074314Y-86470876D01*
X93121933Y-86375638D01*
X93217171Y-86280400D01*
X93360028Y-86232780D01*
X93455266Y-86232780D01*
X93598123Y-86280400D01*
X93645742Y-86328019D01*
X93979076Y-86232780D02*
X94598123Y-86232780D01*
X94264790Y-86613733D01*
X94407647Y-86613733D01*
X94502885Y-86661352D01*
X94550504Y-86708971D01*
X94598123Y-86804209D01*
X94598123Y-87042304D01*
X94550504Y-87137542D01*
X94502885Y-87185161D01*
X94407647Y-87232780D01*
X94121933Y-87232780D01*
X94026695Y-87185161D01*
X93979076Y-87137542D01*
X95455266Y-86566114D02*
X95455266Y-87232780D01*
X95217171Y-86185161D02*
X94979076Y-86899447D01*
X95598123Y-86899447D01*
X101312095Y-18833580D02*
X101883523Y-18833580D01*
X101597809Y-19833580D02*
X101597809Y-18833580D01*
X102216857Y-19833580D02*
X102216857Y-18833580D01*
X102597809Y-18833580D01*
X102693047Y-18881200D01*
X102740666Y-18928819D01*
X102788285Y-19024057D01*
X102788285Y-19166914D01*
X102740666Y-19262152D01*
X102693047Y-19309771D01*
X102597809Y-19357390D01*
X102216857Y-19357390D01*
X103121619Y-18833580D02*
X103788285Y-18833580D01*
X103359714Y-19833580D01*
X17129942Y-98110066D02*
X17177561Y-98157685D01*
X17225180Y-98300542D01*
X17225180Y-98395780D01*
X17177561Y-98538638D01*
X17082323Y-98633876D01*
X16987085Y-98681495D01*
X16796609Y-98729114D01*
X16653752Y-98729114D01*
X16463276Y-98681495D01*
X16368038Y-98633876D01*
X16272800Y-98538638D01*
X16225180Y-98395780D01*
X16225180Y-98300542D01*
X16272800Y-98157685D01*
X16320419Y-98110066D01*
X16225180Y-97205304D02*
X16225180Y-97681495D01*
X16701371Y-97729114D01*
X16653752Y-97681495D01*
X16606133Y-97586257D01*
X16606133Y-97348161D01*
X16653752Y-97252923D01*
X16701371Y-97205304D01*
X16796609Y-97157685D01*
X17034704Y-97157685D01*
X17129942Y-97205304D01*
X17177561Y-97252923D01*
X17225180Y-97348161D01*
X17225180Y-97586257D01*
X17177561Y-97681495D01*
X17129942Y-97729114D01*
X92542542Y-60105257D02*
X92590161Y-60152876D01*
X92637780Y-60295733D01*
X92637780Y-60390971D01*
X92590161Y-60533828D01*
X92494923Y-60629066D01*
X92399685Y-60676685D01*
X92209209Y-60724304D01*
X92066352Y-60724304D01*
X91875876Y-60676685D01*
X91780638Y-60629066D01*
X91685400Y-60533828D01*
X91637780Y-60390971D01*
X91637780Y-60295733D01*
X91685400Y-60152876D01*
X91733019Y-60105257D01*
X92637780Y-59152876D02*
X92637780Y-59724304D01*
X92637780Y-59438590D02*
X91637780Y-59438590D01*
X91780638Y-59533828D01*
X91875876Y-59629066D01*
X91923495Y-59724304D01*
X91733019Y-58771923D02*
X91685400Y-58724304D01*
X91637780Y-58629066D01*
X91637780Y-58390971D01*
X91685400Y-58295733D01*
X91733019Y-58248114D01*
X91828257Y-58200495D01*
X91923495Y-58200495D01*
X92066352Y-58248114D01*
X92637780Y-58819542D01*
X92637780Y-58200495D01*
X57404942Y-58466980D02*
X57071609Y-57990790D01*
X56833514Y-58466980D02*
X56833514Y-57466980D01*
X57214466Y-57466980D01*
X57309704Y-57514600D01*
X57357323Y-57562219D01*
X57404942Y-57657457D01*
X57404942Y-57800314D01*
X57357323Y-57895552D01*
X57309704Y-57943171D01*
X57214466Y-57990790D01*
X56833514Y-57990790D01*
X58309704Y-57466980D02*
X57833514Y-57466980D01*
X57785895Y-57943171D01*
X57833514Y-57895552D01*
X57928752Y-57847933D01*
X58166847Y-57847933D01*
X58262085Y-57895552D01*
X58309704Y-57943171D01*
X58357323Y-58038409D01*
X58357323Y-58276504D01*
X58309704Y-58371742D01*
X58262085Y-58419361D01*
X58166847Y-58466980D01*
X57928752Y-58466980D01*
X57833514Y-58419361D01*
X57785895Y-58371742D01*
X58690657Y-57466980D02*
X59357323Y-57466980D01*
X58928752Y-58466980D01*
X43617323Y-90375695D02*
X42617323Y-90375695D01*
X42617323Y-90137600D01*
X42664943Y-89994742D01*
X42760181Y-89899504D01*
X42855419Y-89851885D01*
X43045895Y-89804266D01*
X43188752Y-89804266D01*
X43379228Y-89851885D01*
X43474466Y-89899504D01*
X43569704Y-89994742D01*
X43617323Y-90137600D01*
X43617323Y-90375695D01*
X42617323Y-88899504D02*
X42617323Y-89375695D01*
X43093514Y-89423314D01*
X43045895Y-89375695D01*
X42998276Y-89280457D01*
X42998276Y-89042361D01*
X43045895Y-88947123D01*
X43093514Y-88899504D01*
X43188752Y-88851885D01*
X43426847Y-88851885D01*
X43522085Y-88899504D01*
X43569704Y-88947123D01*
X43617323Y-89042361D01*
X43617323Y-89280457D01*
X43569704Y-89375695D01*
X43522085Y-89423314D01*
X103610580Y-44611257D02*
X103134390Y-44944590D01*
X103610580Y-45182685D02*
X102610580Y-45182685D01*
X102610580Y-44801733D01*
X102658200Y-44706495D01*
X102705819Y-44658876D01*
X102801057Y-44611257D01*
X102943914Y-44611257D01*
X103039152Y-44658876D01*
X103086771Y-44706495D01*
X103134390Y-44801733D01*
X103134390Y-45182685D01*
X102610580Y-44277923D02*
X102610580Y-43658876D01*
X102991533Y-43992209D01*
X102991533Y-43849352D01*
X103039152Y-43754114D01*
X103086771Y-43706495D01*
X103182009Y-43658876D01*
X103420104Y-43658876D01*
X103515342Y-43706495D01*
X103562961Y-43754114D01*
X103610580Y-43849352D01*
X103610580Y-44135066D01*
X103562961Y-44230304D01*
X103515342Y-44277923D01*
X102705819Y-43277923D02*
X102658200Y-43230304D01*
X102610580Y-43135066D01*
X102610580Y-42896971D01*
X102658200Y-42801733D01*
X102705819Y-42754114D01*
X102801057Y-42706495D01*
X102896295Y-42706495D01*
X103039152Y-42754114D01*
X103610580Y-43325542D01*
X103610580Y-42706495D01*
D16*
X58696133Y-70880123D02*
X58091371Y-70880123D01*
X58091371Y-69610123D01*
X59784704Y-70880123D02*
X59058990Y-70880123D01*
X59421847Y-70880123D02*
X59421847Y-69610123D01*
X59300895Y-69791552D01*
X59179942Y-69912504D01*
X59058990Y-69972980D01*
D15*
X63371980Y-64185657D02*
X62895790Y-64518990D01*
X63371980Y-64757085D02*
X62371980Y-64757085D01*
X62371980Y-64376133D01*
X62419600Y-64280895D01*
X62467219Y-64233276D01*
X62562457Y-64185657D01*
X62705314Y-64185657D01*
X62800552Y-64233276D01*
X62848171Y-64280895D01*
X62895790Y-64376133D01*
X62895790Y-64757085D01*
X63371980Y-63233276D02*
X63371980Y-63804704D01*
X63371980Y-63518990D02*
X62371980Y-63518990D01*
X62514838Y-63614228D01*
X62610076Y-63709466D01*
X62657695Y-63804704D01*
X62371980Y-62899942D02*
X62371980Y-62280895D01*
X62752933Y-62614228D01*
X62752933Y-62471371D01*
X62800552Y-62376133D01*
X62848171Y-62328514D01*
X62943409Y-62280895D01*
X63181504Y-62280895D01*
X63276742Y-62328514D01*
X63324361Y-62376133D01*
X63371980Y-62471371D01*
X63371980Y-62757085D01*
X63324361Y-62852323D01*
X63276742Y-62899942D01*
X30822842Y-22331542D02*
X30775223Y-22379161D01*
X30632366Y-22426780D01*
X30537128Y-22426780D01*
X30394271Y-22379161D01*
X30299033Y-22283923D01*
X30251414Y-22188685D01*
X30203795Y-21998209D01*
X30203795Y-21855352D01*
X30251414Y-21664876D01*
X30299033Y-21569638D01*
X30394271Y-21474400D01*
X30537128Y-21426780D01*
X30632366Y-21426780D01*
X30775223Y-21474400D01*
X30822842Y-21522019D01*
X31679985Y-21760114D02*
X31679985Y-22426780D01*
X31441890Y-21379161D02*
X31203795Y-22093447D01*
X31822842Y-22093447D01*
X32108557Y-21426780D02*
X32727604Y-21426780D01*
X32394271Y-21807733D01*
X32537128Y-21807733D01*
X32632366Y-21855352D01*
X32679985Y-21902971D01*
X32727604Y-21998209D01*
X32727604Y-22236304D01*
X32679985Y-22331542D01*
X32632366Y-22379161D01*
X32537128Y-22426780D01*
X32251414Y-22426780D01*
X32156176Y-22379161D01*
X32108557Y-22331542D01*
X38389741Y-26620457D02*
X38437360Y-26668076D01*
X38484979Y-26810933D01*
X38484979Y-26906171D01*
X38437360Y-27049028D01*
X38342122Y-27144266D01*
X38246884Y-27191885D01*
X38056408Y-27239504D01*
X37913551Y-27239504D01*
X37723075Y-27191885D01*
X37627837Y-27144266D01*
X37532599Y-27049028D01*
X37484979Y-26906171D01*
X37484979Y-26810933D01*
X37532599Y-26668076D01*
X37580218Y-26620457D01*
X37484979Y-26287123D02*
X37484979Y-25668076D01*
X37865932Y-26001409D01*
X37865932Y-25858552D01*
X37913551Y-25763314D01*
X37961170Y-25715695D01*
X38056408Y-25668076D01*
X38294503Y-25668076D01*
X38389741Y-25715695D01*
X38437360Y-25763314D01*
X38484979Y-25858552D01*
X38484979Y-26144266D01*
X38437360Y-26239504D01*
X38389741Y-26287123D01*
X37484979Y-24763314D02*
X37484979Y-25239504D01*
X37961170Y-25287123D01*
X37913551Y-25239504D01*
X37865932Y-25144266D01*
X37865932Y-24906171D01*
X37913551Y-24810933D01*
X37961170Y-24763314D01*
X38056408Y-24715695D01*
X38294503Y-24715695D01*
X38389741Y-24763314D01*
X38437360Y-24810933D01*
X38484979Y-24906171D01*
X38484979Y-25144266D01*
X38437360Y-25239504D01*
X38389741Y-25287123D01*
X78912333Y-58574942D02*
X78864714Y-58622561D01*
X78721857Y-58670180D01*
X78626619Y-58670180D01*
X78483761Y-58622561D01*
X78388523Y-58527323D01*
X78340904Y-58432085D01*
X78293285Y-58241609D01*
X78293285Y-58098752D01*
X78340904Y-57908276D01*
X78388523Y-57813038D01*
X78483761Y-57717800D01*
X78626619Y-57670180D01*
X78721857Y-57670180D01*
X78864714Y-57717800D01*
X78912333Y-57765419D01*
X79245666Y-57670180D02*
X79864714Y-57670180D01*
X79531380Y-58051133D01*
X79674238Y-58051133D01*
X79769476Y-58098752D01*
X79817095Y-58146371D01*
X79864714Y-58241609D01*
X79864714Y-58479704D01*
X79817095Y-58574942D01*
X79769476Y-58622561D01*
X79674238Y-58670180D01*
X79388523Y-58670180D01*
X79293285Y-58622561D01*
X79245666Y-58574942D01*
X22869778Y-53118932D02*
X21869778Y-53118932D01*
X22584064Y-52785599D01*
X21869778Y-52452266D01*
X22869778Y-52452266D01*
X22869778Y-51833218D02*
X22822159Y-51928456D01*
X22774540Y-51976075D01*
X22679302Y-52023694D01*
X22393588Y-52023694D01*
X22298350Y-51976075D01*
X22250731Y-51928456D01*
X22203112Y-51833218D01*
X22203112Y-51690361D01*
X22250731Y-51595123D01*
X22298350Y-51547504D01*
X22393588Y-51499885D01*
X22679302Y-51499885D01*
X22774540Y-51547504D01*
X22822159Y-51595123D01*
X22869778Y-51690361D01*
X22869778Y-51833218D01*
X22869778Y-50642742D02*
X21869778Y-50642742D01*
X22822159Y-50642742D02*
X22869778Y-50737980D01*
X22869778Y-50928456D01*
X22822159Y-51023694D01*
X22774540Y-51071313D01*
X22679302Y-51118932D01*
X22393588Y-51118932D01*
X22298350Y-51071313D01*
X22250731Y-51023694D01*
X22203112Y-50928456D01*
X22203112Y-50737980D01*
X22250731Y-50642742D01*
X22203112Y-49737980D02*
X22869778Y-49737980D01*
X22203112Y-50166551D02*
X22726921Y-50166551D01*
X22822159Y-50118932D01*
X22869778Y-50023694D01*
X22869778Y-49880837D01*
X22822159Y-49785599D01*
X22774540Y-49737980D01*
X22869778Y-49118932D02*
X22822159Y-49214170D01*
X22726921Y-49261790D01*
X21869778Y-49261790D01*
X22822159Y-48357028D02*
X22869778Y-48452266D01*
X22869778Y-48642742D01*
X22822159Y-48737980D01*
X22726921Y-48785599D01*
X22345969Y-48785599D01*
X22250731Y-48737980D01*
X22203112Y-48642742D01*
X22203112Y-48452266D01*
X22250731Y-48357028D01*
X22345969Y-48309409D01*
X22441207Y-48309409D01*
X22536445Y-48785599D01*
X22869778Y-47357028D02*
X22869778Y-47928456D01*
X22869778Y-47642742D02*
X21869778Y-47642742D01*
X22012636Y-47737980D01*
X22107874Y-47833218D01*
X22155493Y-47928456D01*
X96752380Y-79761904D02*
X95752380Y-79761904D01*
X96228571Y-79761904D02*
X96228571Y-79190476D01*
X96752380Y-79190476D02*
X95752380Y-79190476D01*
X96085714Y-78285714D02*
X96752380Y-78285714D01*
X95704761Y-78523809D02*
X96419047Y-78761904D01*
X96419047Y-78142857D01*
X54788741Y-22016742D02*
X54741122Y-22064361D01*
X54598265Y-22111980D01*
X54503027Y-22111980D01*
X54360170Y-22064361D01*
X54264932Y-21969123D01*
X54217313Y-21873885D01*
X54169694Y-21683409D01*
X54169694Y-21540552D01*
X54217313Y-21350076D01*
X54264932Y-21254838D01*
X54360170Y-21159600D01*
X54503027Y-21111980D01*
X54598265Y-21111980D01*
X54741122Y-21159600D01*
X54788741Y-21207219D01*
X55645884Y-21445314D02*
X55645884Y-22111980D01*
X55407789Y-21064361D02*
X55169694Y-21778647D01*
X55788741Y-21778647D01*
X56074456Y-21111980D02*
X56741122Y-21111980D01*
X56312551Y-22111980D01*
X21942494Y-74493185D02*
X21942494Y-75302709D01*
X21990113Y-75397947D01*
X22037732Y-75445566D01*
X22132970Y-75493185D01*
X22323446Y-75493185D01*
X22418684Y-75445566D01*
X22466303Y-75397947D01*
X22513922Y-75302709D01*
X22513922Y-74493185D01*
X22942494Y-74588424D02*
X22990113Y-74540805D01*
X23085351Y-74493185D01*
X23323446Y-74493185D01*
X23418684Y-74540805D01*
X23466303Y-74588424D01*
X23513922Y-74683662D01*
X23513922Y-74778900D01*
X23466303Y-74921757D01*
X22894875Y-75493185D01*
X23513922Y-75493185D01*
X92914142Y-53567342D02*
X92866523Y-53614961D01*
X92723666Y-53662580D01*
X92628428Y-53662580D01*
X92485571Y-53614961D01*
X92390333Y-53519723D01*
X92342714Y-53424485D01*
X92295095Y-53234009D01*
X92295095Y-53091152D01*
X92342714Y-52900676D01*
X92390333Y-52805438D01*
X92485571Y-52710200D01*
X92628428Y-52662580D01*
X92723666Y-52662580D01*
X92866523Y-52710200D01*
X92914142Y-52757819D01*
X93818904Y-52662580D02*
X93342714Y-52662580D01*
X93295095Y-53138771D01*
X93342714Y-53091152D01*
X93437952Y-53043533D01*
X93676047Y-53043533D01*
X93771285Y-53091152D01*
X93818904Y-53138771D01*
X93866523Y-53234009D01*
X93866523Y-53472104D01*
X93818904Y-53567342D01*
X93771285Y-53614961D01*
X93676047Y-53662580D01*
X93437952Y-53662580D01*
X93342714Y-53614961D01*
X93295095Y-53567342D01*
X94771285Y-52662580D02*
X94295095Y-52662580D01*
X94247476Y-53138771D01*
X94295095Y-53091152D01*
X94390333Y-53043533D01*
X94628428Y-53043533D01*
X94723666Y-53091152D01*
X94771285Y-53138771D01*
X94818904Y-53234009D01*
X94818904Y-53472104D01*
X94771285Y-53567342D01*
X94723666Y-53614961D01*
X94628428Y-53662580D01*
X94390333Y-53662580D01*
X94295095Y-53614961D01*
X94247476Y-53567342D01*
X29342242Y-10386857D02*
X29389861Y-10434476D01*
X29437480Y-10577333D01*
X29437480Y-10672571D01*
X29389861Y-10815428D01*
X29294623Y-10910666D01*
X29199385Y-10958285D01*
X29008909Y-11005904D01*
X28866052Y-11005904D01*
X28675576Y-10958285D01*
X28580338Y-10910666D01*
X28485100Y-10815428D01*
X28437480Y-10672571D01*
X28437480Y-10577333D01*
X28485100Y-10434476D01*
X28532719Y-10386857D01*
X28770814Y-9529714D02*
X29437480Y-9529714D01*
X28389861Y-9767809D02*
X29104147Y-10005904D01*
X29104147Y-9386857D01*
X29437480Y-8482095D02*
X29437480Y-9053523D01*
X29437480Y-8767809D02*
X28437480Y-8767809D01*
X28580338Y-8863047D01*
X28675576Y-8958285D01*
X28723195Y-9053523D01*
X65736142Y-61013342D02*
X65688523Y-61060961D01*
X65545666Y-61108580D01*
X65450428Y-61108580D01*
X65307571Y-61060961D01*
X65212333Y-60965723D01*
X65164714Y-60870485D01*
X65117095Y-60680009D01*
X65117095Y-60537152D01*
X65164714Y-60346676D01*
X65212333Y-60251438D01*
X65307571Y-60156200D01*
X65450428Y-60108580D01*
X65545666Y-60108580D01*
X65688523Y-60156200D01*
X65736142Y-60203819D01*
X66117095Y-60203819D02*
X66164714Y-60156200D01*
X66259952Y-60108580D01*
X66498047Y-60108580D01*
X66593285Y-60156200D01*
X66640904Y-60203819D01*
X66688523Y-60299057D01*
X66688523Y-60394295D01*
X66640904Y-60537152D01*
X66069476Y-61108580D01*
X66688523Y-61108580D01*
X67593285Y-60108580D02*
X67117095Y-60108580D01*
X67069476Y-60584771D01*
X67117095Y-60537152D01*
X67212333Y-60489533D01*
X67450428Y-60489533D01*
X67545666Y-60537152D01*
X67593285Y-60584771D01*
X67640904Y-60680009D01*
X67640904Y-60918104D01*
X67593285Y-61013342D01*
X67545666Y-61060961D01*
X67450428Y-61108580D01*
X67212333Y-61108580D01*
X67117095Y-61060961D01*
X67069476Y-61013342D01*
X64033780Y-87181657D02*
X63557590Y-87514990D01*
X64033780Y-87753085D02*
X63033780Y-87753085D01*
X63033780Y-87372133D01*
X63081400Y-87276895D01*
X63129019Y-87229276D01*
X63224257Y-87181657D01*
X63367114Y-87181657D01*
X63462352Y-87229276D01*
X63509971Y-87276895D01*
X63557590Y-87372133D01*
X63557590Y-87753085D01*
X64033780Y-86229276D02*
X64033780Y-86800704D01*
X64033780Y-86514990D02*
X63033780Y-86514990D01*
X63176638Y-86610228D01*
X63271876Y-86705466D01*
X63319495Y-86800704D01*
X63462352Y-85657847D02*
X63414733Y-85753085D01*
X63367114Y-85800704D01*
X63271876Y-85848323D01*
X63224257Y-85848323D01*
X63129019Y-85800704D01*
X63081400Y-85753085D01*
X63033780Y-85657847D01*
X63033780Y-85467371D01*
X63081400Y-85372133D01*
X63129019Y-85324514D01*
X63224257Y-85276895D01*
X63271876Y-85276895D01*
X63367114Y-85324514D01*
X63414733Y-85372133D01*
X63462352Y-85467371D01*
X63462352Y-85657847D01*
X63509971Y-85753085D01*
X63557590Y-85800704D01*
X63652828Y-85848323D01*
X63843304Y-85848323D01*
X63938542Y-85800704D01*
X63986161Y-85753085D01*
X64033780Y-85657847D01*
X64033780Y-85467371D01*
X63986161Y-85372133D01*
X63938542Y-85324514D01*
X63843304Y-85276895D01*
X63652828Y-85276895D01*
X63557590Y-85324514D01*
X63509971Y-85372133D01*
X63462352Y-85467371D01*
X50252979Y-16542195D02*
X51062503Y-16542195D01*
X51157741Y-16494576D01*
X51205360Y-16446957D01*
X51252979Y-16351719D01*
X51252979Y-16161242D01*
X51205360Y-16066004D01*
X51157741Y-16018385D01*
X51062503Y-15970766D01*
X50252979Y-15970766D01*
X51252979Y-14970766D02*
X51252979Y-15542195D01*
X51252979Y-15256480D02*
X50252979Y-15256480D01*
X50395837Y-15351719D01*
X50491075Y-15446957D01*
X50538694Y-15542195D01*
X50252979Y-14351719D02*
X50252979Y-14256480D01*
X50300599Y-14161242D01*
X50348218Y-14113623D01*
X50443456Y-14066004D01*
X50633932Y-14018385D01*
X50872027Y-14018385D01*
X51062503Y-14066004D01*
X51157741Y-14113623D01*
X51205360Y-14161242D01*
X51252979Y-14256480D01*
X51252979Y-14351719D01*
X51205360Y-14446957D01*
X51157741Y-14494576D01*
X51062503Y-14542195D01*
X50872027Y-14589814D01*
X50633932Y-14589814D01*
X50443456Y-14542195D01*
X50348218Y-14494576D01*
X50300599Y-14446957D01*
X50252979Y-14351719D01*
X98870143Y-24462742D02*
X98822524Y-24510361D01*
X98679667Y-24557980D01*
X98584429Y-24557980D01*
X98441572Y-24510361D01*
X98346334Y-24415123D01*
X98298715Y-24319885D01*
X98251096Y-24129409D01*
X98251096Y-23986552D01*
X98298715Y-23796076D01*
X98346334Y-23700838D01*
X98441572Y-23605600D01*
X98584429Y-23557980D01*
X98679667Y-23557980D01*
X98822524Y-23605600D01*
X98870143Y-23653219D01*
X99774905Y-23557980D02*
X99298715Y-23557980D01*
X99251096Y-24034171D01*
X99298715Y-23986552D01*
X99393953Y-23938933D01*
X99632048Y-23938933D01*
X99727286Y-23986552D01*
X99774905Y-24034171D01*
X99822524Y-24129409D01*
X99822524Y-24367504D01*
X99774905Y-24462742D01*
X99727286Y-24510361D01*
X99632048Y-24557980D01*
X99393953Y-24557980D01*
X99298715Y-24510361D01*
X99251096Y-24462742D01*
X100298715Y-24557980D02*
X100489191Y-24557980D01*
X100584429Y-24510361D01*
X100632048Y-24462742D01*
X100727286Y-24319885D01*
X100774905Y-24129409D01*
X100774905Y-23748457D01*
X100727286Y-23653219D01*
X100679667Y-23605600D01*
X100584429Y-23557980D01*
X100393953Y-23557980D01*
X100298715Y-23605600D01*
X100251096Y-23653219D01*
X100203477Y-23748457D01*
X100203477Y-23986552D01*
X100251096Y-24081790D01*
X100298715Y-24129409D01*
X100393953Y-24177028D01*
X100584429Y-24177028D01*
X100679667Y-24129409D01*
X100727286Y-24081790D01*
X100774905Y-23986552D01*
X102337542Y-38026342D02*
X102289923Y-38073961D01*
X102147066Y-38121580D01*
X102051828Y-38121580D01*
X101908971Y-38073961D01*
X101813733Y-37978723D01*
X101766114Y-37883485D01*
X101718495Y-37693009D01*
X101718495Y-37550152D01*
X101766114Y-37359676D01*
X101813733Y-37264438D01*
X101908971Y-37169200D01*
X102051828Y-37121580D01*
X102147066Y-37121580D01*
X102289923Y-37169200D01*
X102337542Y-37216819D01*
X103194685Y-37121580D02*
X103004209Y-37121580D01*
X102908971Y-37169200D01*
X102861352Y-37216819D01*
X102766114Y-37359676D01*
X102718495Y-37550152D01*
X102718495Y-37931104D01*
X102766114Y-38026342D01*
X102813733Y-38073961D01*
X102908971Y-38121580D01*
X103099447Y-38121580D01*
X103194685Y-38073961D01*
X103242304Y-38026342D01*
X103289923Y-37931104D01*
X103289923Y-37693009D01*
X103242304Y-37597771D01*
X103194685Y-37550152D01*
X103099447Y-37502533D01*
X102908971Y-37502533D01*
X102813733Y-37550152D01*
X102766114Y-37597771D01*
X102718495Y-37693009D01*
X104242304Y-38121580D02*
X103670876Y-38121580D01*
X103956590Y-38121580D02*
X103956590Y-37121580D01*
X103861352Y-37264438D01*
X103766114Y-37359676D01*
X103670876Y-37407295D01*
X30848242Y-17073742D02*
X30800623Y-17121361D01*
X30657766Y-17168980D01*
X30562528Y-17168980D01*
X30419671Y-17121361D01*
X30324433Y-17026123D01*
X30276814Y-16930885D01*
X30229195Y-16740409D01*
X30229195Y-16597552D01*
X30276814Y-16407076D01*
X30324433Y-16311838D01*
X30419671Y-16216600D01*
X30562528Y-16168980D01*
X30657766Y-16168980D01*
X30800623Y-16216600D01*
X30848242Y-16264219D01*
X31705385Y-16502314D02*
X31705385Y-17168980D01*
X31467290Y-16121361D02*
X31229195Y-16835647D01*
X31848242Y-16835647D01*
X32657766Y-16502314D02*
X32657766Y-17168980D01*
X32419671Y-16121361D02*
X32181576Y-16835647D01*
X32800623Y-16835647D01*
X62564542Y-44383943D02*
X62516923Y-44431562D01*
X62374066Y-44479181D01*
X62278828Y-44479181D01*
X62135971Y-44431562D01*
X62040733Y-44336324D01*
X61993114Y-44241086D01*
X61945495Y-44050610D01*
X61945495Y-43907753D01*
X61993114Y-43717277D01*
X62040733Y-43622039D01*
X62135971Y-43526801D01*
X62278828Y-43479181D01*
X62374066Y-43479181D01*
X62516923Y-43526801D01*
X62564542Y-43574420D01*
X62897876Y-43479181D02*
X63516923Y-43479181D01*
X63183590Y-43860134D01*
X63326447Y-43860134D01*
X63421685Y-43907753D01*
X63469304Y-43955372D01*
X63516923Y-44050610D01*
X63516923Y-44288705D01*
X63469304Y-44383943D01*
X63421685Y-44431562D01*
X63326447Y-44479181D01*
X63040733Y-44479181D01*
X62945495Y-44431562D01*
X62897876Y-44383943D01*
X63993114Y-44479181D02*
X64183590Y-44479181D01*
X64278828Y-44431562D01*
X64326447Y-44383943D01*
X64421685Y-44241086D01*
X64469304Y-44050610D01*
X64469304Y-43669658D01*
X64421685Y-43574420D01*
X64374066Y-43526801D01*
X64278828Y-43479181D01*
X64088352Y-43479181D01*
X63993114Y-43526801D01*
X63945495Y-43574420D01*
X63897876Y-43669658D01*
X63897876Y-43907753D01*
X63945495Y-44002991D01*
X63993114Y-44050610D01*
X64088352Y-44098229D01*
X64278828Y-44098229D01*
X64374066Y-44050610D01*
X64421685Y-44002991D01*
X64469304Y-43907753D01*
X54407741Y-17825742D02*
X54360122Y-17873361D01*
X54217265Y-17920980D01*
X54122027Y-17920980D01*
X53979170Y-17873361D01*
X53883932Y-17778123D01*
X53836313Y-17682885D01*
X53788694Y-17492409D01*
X53788694Y-17349552D01*
X53836313Y-17159076D01*
X53883932Y-17063838D01*
X53979170Y-16968600D01*
X54122027Y-16920980D01*
X54217265Y-16920980D01*
X54360122Y-16968600D01*
X54407741Y-17016219D01*
X55264884Y-17254314D02*
X55264884Y-17920980D01*
X55026789Y-16873361D02*
X54788694Y-17587647D01*
X55407741Y-17587647D01*
X55931551Y-17349552D02*
X55836313Y-17301933D01*
X55788694Y-17254314D01*
X55741075Y-17159076D01*
X55741075Y-17111457D01*
X55788694Y-17016219D01*
X55836313Y-16968600D01*
X55931551Y-16920980D01*
X56122027Y-16920980D01*
X56217265Y-16968600D01*
X56264884Y-17016219D01*
X56312503Y-17111457D01*
X56312503Y-17159076D01*
X56264884Y-17254314D01*
X56217265Y-17301933D01*
X56122027Y-17349552D01*
X55931551Y-17349552D01*
X55836313Y-17397171D01*
X55788694Y-17444790D01*
X55741075Y-17540028D01*
X55741075Y-17730504D01*
X55788694Y-17825742D01*
X55836313Y-17873361D01*
X55931551Y-17920980D01*
X56122027Y-17920980D01*
X56217265Y-17873361D01*
X56264884Y-17825742D01*
X56312503Y-17730504D01*
X56312503Y-17540028D01*
X56264884Y-17444790D01*
X56217265Y-17397171D01*
X56122027Y-17349552D01*
X82834742Y-89952657D02*
X82882361Y-90000276D01*
X82929980Y-90143133D01*
X82929980Y-90238371D01*
X82882361Y-90381228D01*
X82787123Y-90476466D01*
X82691885Y-90524085D01*
X82501409Y-90571704D01*
X82358552Y-90571704D01*
X82168076Y-90524085D01*
X82072838Y-90476466D01*
X81977600Y-90381228D01*
X81929980Y-90238371D01*
X81929980Y-90143133D01*
X81977600Y-90000276D01*
X82025219Y-89952657D01*
X81929980Y-89619323D02*
X81929980Y-89000276D01*
X82310933Y-89333609D01*
X82310933Y-89190752D01*
X82358552Y-89095514D01*
X82406171Y-89047895D01*
X82501409Y-89000276D01*
X82739504Y-89000276D01*
X82834742Y-89047895D01*
X82882361Y-89095514D01*
X82929980Y-89190752D01*
X82929980Y-89476466D01*
X82882361Y-89571704D01*
X82834742Y-89619323D01*
X81929980Y-88143133D02*
X81929980Y-88333609D01*
X81977600Y-88428847D01*
X82025219Y-88476466D01*
X82168076Y-88571704D01*
X82358552Y-88619323D01*
X82739504Y-88619323D01*
X82834742Y-88571704D01*
X82882361Y-88524085D01*
X82929980Y-88428847D01*
X82929980Y-88238371D01*
X82882361Y-88143133D01*
X82834742Y-88095514D01*
X82739504Y-88047895D01*
X82501409Y-88047895D01*
X82406171Y-88095514D01*
X82358552Y-88143133D01*
X82310933Y-88238371D01*
X82310933Y-88428847D01*
X82358552Y-88524085D01*
X82406171Y-88571704D01*
X82501409Y-88619323D01*
X87143342Y-96950380D02*
X86810009Y-96474190D01*
X86571914Y-96950380D02*
X86571914Y-95950380D01*
X86952866Y-95950380D01*
X87048104Y-95998000D01*
X87095723Y-96045619D01*
X87143342Y-96140857D01*
X87143342Y-96283714D01*
X87095723Y-96378952D01*
X87048104Y-96426571D01*
X86952866Y-96474190D01*
X86571914Y-96474190D01*
X87524295Y-96045619D02*
X87571914Y-95998000D01*
X87667152Y-95950380D01*
X87905247Y-95950380D01*
X88000485Y-95998000D01*
X88048104Y-96045619D01*
X88095723Y-96140857D01*
X88095723Y-96236095D01*
X88048104Y-96378952D01*
X87476676Y-96950380D01*
X88095723Y-96950380D01*
X89000485Y-95950380D02*
X88524295Y-95950380D01*
X88476676Y-96426571D01*
X88524295Y-96378952D01*
X88619533Y-96331333D01*
X88857628Y-96331333D01*
X88952866Y-96378952D01*
X89000485Y-96426571D01*
X89048104Y-96521809D01*
X89048104Y-96759904D01*
X89000485Y-96855142D01*
X88952866Y-96902761D01*
X88857628Y-96950380D01*
X88619533Y-96950380D01*
X88524295Y-96902761D01*
X88476676Y-96855142D01*
X44663541Y-16282657D02*
X44711160Y-16330276D01*
X44758779Y-16473133D01*
X44758779Y-16568371D01*
X44711160Y-16711228D01*
X44615922Y-16806466D01*
X44520684Y-16854085D01*
X44330208Y-16901704D01*
X44187351Y-16901704D01*
X43996875Y-16854085D01*
X43901637Y-16806466D01*
X43806399Y-16711228D01*
X43758779Y-16568371D01*
X43758779Y-16473133D01*
X43806399Y-16330276D01*
X43854018Y-16282657D01*
X43758779Y-15949323D02*
X43758779Y-15330276D01*
X44139732Y-15663609D01*
X44139732Y-15520752D01*
X44187351Y-15425514D01*
X44234970Y-15377895D01*
X44330208Y-15330276D01*
X44568303Y-15330276D01*
X44663541Y-15377895D01*
X44711160Y-15425514D01*
X44758779Y-15520752D01*
X44758779Y-15806466D01*
X44711160Y-15901704D01*
X44663541Y-15949323D01*
X43758779Y-14711228D02*
X43758779Y-14615990D01*
X43806399Y-14520752D01*
X43854018Y-14473133D01*
X43949256Y-14425514D01*
X44139732Y-14377895D01*
X44377827Y-14377895D01*
X44568303Y-14425514D01*
X44663541Y-14473133D01*
X44711160Y-14520752D01*
X44758779Y-14615990D01*
X44758779Y-14711228D01*
X44711160Y-14806466D01*
X44663541Y-14854085D01*
X44568303Y-14901704D01*
X44377827Y-14949323D01*
X44139732Y-14949323D01*
X43949256Y-14901704D01*
X43854018Y-14854085D01*
X43806399Y-14806466D01*
X43758779Y-14711228D01*
X87143342Y-95553380D02*
X86810009Y-95077190D01*
X86571914Y-95553380D02*
X86571914Y-94553380D01*
X86952866Y-94553380D01*
X87048104Y-94601000D01*
X87095723Y-94648619D01*
X87143342Y-94743857D01*
X87143342Y-94886714D01*
X87095723Y-94981952D01*
X87048104Y-95029571D01*
X86952866Y-95077190D01*
X86571914Y-95077190D01*
X87524295Y-94648619D02*
X87571914Y-94601000D01*
X87667152Y-94553380D01*
X87905247Y-94553380D01*
X88000485Y-94601000D01*
X88048104Y-94648619D01*
X88095723Y-94743857D01*
X88095723Y-94839095D01*
X88048104Y-94981952D01*
X87476676Y-95553380D01*
X88095723Y-95553380D01*
X88952866Y-94553380D02*
X88762390Y-94553380D01*
X88667152Y-94601000D01*
X88619533Y-94648619D01*
X88524295Y-94791476D01*
X88476676Y-94981952D01*
X88476676Y-95362904D01*
X88524295Y-95458142D01*
X88571914Y-95505761D01*
X88667152Y-95553380D01*
X88857628Y-95553380D01*
X88952866Y-95505761D01*
X89000485Y-95458142D01*
X89048104Y-95362904D01*
X89048104Y-95124809D01*
X89000485Y-95029571D01*
X88952866Y-94981952D01*
X88857628Y-94934333D01*
X88667152Y-94934333D01*
X88571914Y-94981952D01*
X88524295Y-95029571D01*
X88476676Y-95124809D01*
X3238095Y247619D02*
X3238095Y1247619D01*
X3238095Y771428D02*
X3809523Y771428D01*
X3809523Y247619D02*
X3809523Y1247619D01*
X4809523Y247619D02*
X4238095Y247619D01*
X4523809Y247619D02*
X4523809Y1247619D01*
X4428571Y1104761D01*
X4333333Y1009523D01*
X4238095Y961904D01*
X103362942Y-60130657D02*
X103410561Y-60178276D01*
X103458180Y-60321133D01*
X103458180Y-60416371D01*
X103410561Y-60559228D01*
X103315323Y-60654466D01*
X103220085Y-60702085D01*
X103029609Y-60749704D01*
X102886752Y-60749704D01*
X102696276Y-60702085D01*
X102601038Y-60654466D01*
X102505800Y-60559228D01*
X102458180Y-60416371D01*
X102458180Y-60321133D01*
X102505800Y-60178276D01*
X102553419Y-60130657D01*
X103458180Y-59178276D02*
X103458180Y-59749704D01*
X103458180Y-59463990D02*
X102458180Y-59463990D01*
X102601038Y-59559228D01*
X102696276Y-59654466D01*
X102743895Y-59749704D01*
X102458180Y-58273514D02*
X102458180Y-58749704D01*
X102934371Y-58797323D01*
X102886752Y-58749704D01*
X102839133Y-58654466D01*
X102839133Y-58416371D01*
X102886752Y-58321133D01*
X102934371Y-58273514D01*
X103029609Y-58225895D01*
X103267704Y-58225895D01*
X103362942Y-58273514D01*
X103410561Y-58321133D01*
X103458180Y-58416371D01*
X103458180Y-58654466D01*
X103410561Y-58749704D01*
X103362942Y-58797323D01*
X76373742Y-89031942D02*
X76326123Y-89079561D01*
X76183266Y-89127180D01*
X76088028Y-89127180D01*
X75945171Y-89079561D01*
X75849933Y-88984323D01*
X75802314Y-88889085D01*
X75754695Y-88698609D01*
X75754695Y-88555752D01*
X75802314Y-88365276D01*
X75849933Y-88270038D01*
X75945171Y-88174800D01*
X76088028Y-88127180D01*
X76183266Y-88127180D01*
X76326123Y-88174800D01*
X76373742Y-88222419D01*
X76707076Y-88127180D02*
X77326123Y-88127180D01*
X76992790Y-88508133D01*
X77135647Y-88508133D01*
X77230885Y-88555752D01*
X77278504Y-88603371D01*
X77326123Y-88698609D01*
X77326123Y-88936704D01*
X77278504Y-89031942D01*
X77230885Y-89079561D01*
X77135647Y-89127180D01*
X76849933Y-89127180D01*
X76754695Y-89079561D01*
X76707076Y-89031942D01*
X77897552Y-88555752D02*
X77802314Y-88508133D01*
X77754695Y-88460514D01*
X77707076Y-88365276D01*
X77707076Y-88317657D01*
X77754695Y-88222419D01*
X77802314Y-88174800D01*
X77897552Y-88127180D01*
X78088028Y-88127180D01*
X78183266Y-88174800D01*
X78230885Y-88222419D01*
X78278504Y-88317657D01*
X78278504Y-88365276D01*
X78230885Y-88460514D01*
X78183266Y-88508133D01*
X78088028Y-88555752D01*
X77897552Y-88555752D01*
X77802314Y-88603371D01*
X77754695Y-88650990D01*
X77707076Y-88746228D01*
X77707076Y-88936704D01*
X77754695Y-89031942D01*
X77802314Y-89079561D01*
X77897552Y-89127180D01*
X78088028Y-89127180D01*
X78183266Y-89079561D01*
X78230885Y-89031942D01*
X78278504Y-88936704D01*
X78278504Y-88746228D01*
X78230885Y-88650990D01*
X78183266Y-88603371D01*
X78088028Y-88555752D01*
X91390142Y-39394142D02*
X91342523Y-39441761D01*
X91199666Y-39489380D01*
X91104428Y-39489380D01*
X90961571Y-39441761D01*
X90866333Y-39346523D01*
X90818714Y-39251285D01*
X90771095Y-39060809D01*
X90771095Y-38917952D01*
X90818714Y-38727476D01*
X90866333Y-38632238D01*
X90961571Y-38537000D01*
X91104428Y-38489380D01*
X91199666Y-38489380D01*
X91342523Y-38537000D01*
X91390142Y-38584619D01*
X92294904Y-38489380D02*
X91818714Y-38489380D01*
X91771095Y-38965571D01*
X91818714Y-38917952D01*
X91913952Y-38870333D01*
X92152047Y-38870333D01*
X92247285Y-38917952D01*
X92294904Y-38965571D01*
X92342523Y-39060809D01*
X92342523Y-39298904D01*
X92294904Y-39394142D01*
X92247285Y-39441761D01*
X92152047Y-39489380D01*
X91913952Y-39489380D01*
X91818714Y-39441761D01*
X91771095Y-39394142D01*
X92961571Y-38489380D02*
X93056809Y-38489380D01*
X93152047Y-38537000D01*
X93199666Y-38584619D01*
X93247285Y-38679857D01*
X93294904Y-38870333D01*
X93294904Y-39108428D01*
X93247285Y-39298904D01*
X93199666Y-39394142D01*
X93152047Y-39441761D01*
X93056809Y-39489380D01*
X92961571Y-39489380D01*
X92866333Y-39441761D01*
X92818714Y-39394142D01*
X92771095Y-39298904D01*
X92723476Y-39108428D01*
X92723476Y-38870333D01*
X92771095Y-38679857D01*
X92818714Y-38584619D01*
X92866333Y-38537000D01*
X92961571Y-38489380D01*
X79177142Y-84364657D02*
X79224761Y-84412276D01*
X79272380Y-84555133D01*
X79272380Y-84650371D01*
X79224761Y-84793228D01*
X79129523Y-84888466D01*
X79034285Y-84936085D01*
X78843809Y-84983704D01*
X78700952Y-84983704D01*
X78510476Y-84936085D01*
X78415238Y-84888466D01*
X78320000Y-84793228D01*
X78272380Y-84650371D01*
X78272380Y-84555133D01*
X78320000Y-84412276D01*
X78367619Y-84364657D01*
X78367619Y-83983704D02*
X78320000Y-83936085D01*
X78272380Y-83840847D01*
X78272380Y-83602752D01*
X78320000Y-83507514D01*
X78367619Y-83459895D01*
X78462857Y-83412276D01*
X78558095Y-83412276D01*
X78700952Y-83459895D01*
X79272380Y-84031323D01*
X79272380Y-83412276D01*
X79272380Y-82936085D02*
X79272380Y-82745609D01*
X79224761Y-82650371D01*
X79177142Y-82602752D01*
X79034285Y-82507514D01*
X78843809Y-82459895D01*
X78462857Y-82459895D01*
X78367619Y-82507514D01*
X78320000Y-82555133D01*
X78272380Y-82650371D01*
X78272380Y-82840847D01*
X78320000Y-82936085D01*
X78367619Y-82983704D01*
X78462857Y-83031323D01*
X78700952Y-83031323D01*
X78796190Y-82983704D01*
X78843809Y-82936085D01*
X78891428Y-82840847D01*
X78891428Y-82650371D01*
X78843809Y-82555133D01*
X78796190Y-82507514D01*
X78700952Y-82459895D01*
X96152714Y-74875380D02*
X96152714Y-73875380D01*
X96390809Y-73875380D01*
X96533666Y-73923000D01*
X96628904Y-74018238D01*
X96676523Y-74113476D01*
X96724142Y-74303952D01*
X96724142Y-74446809D01*
X96676523Y-74637285D01*
X96628904Y-74732523D01*
X96533666Y-74827761D01*
X96390809Y-74875380D01*
X96152714Y-74875380D01*
X97676523Y-74875380D02*
X97105095Y-74875380D01*
X97390809Y-74875380D02*
X97390809Y-73875380D01*
X97295571Y-74018238D01*
X97200333Y-74113476D01*
X97105095Y-74161095D01*
X98581285Y-73875380D02*
X98105095Y-73875380D01*
X98057476Y-74351571D01*
X98105095Y-74303952D01*
X98200333Y-74256333D01*
X98438428Y-74256333D01*
X98533666Y-74303952D01*
X98581285Y-74351571D01*
X98628904Y-74446809D01*
X98628904Y-74684904D01*
X98581285Y-74780142D01*
X98533666Y-74827761D01*
X98438428Y-74875380D01*
X98200333Y-74875380D01*
X98105095Y-74827761D01*
X98057476Y-74780142D01*
X102286742Y-57127142D02*
X102239123Y-57174761D01*
X102096266Y-57222380D01*
X102001028Y-57222380D01*
X101858171Y-57174761D01*
X101762933Y-57079523D01*
X101715314Y-56984285D01*
X101667695Y-56793809D01*
X101667695Y-56650952D01*
X101715314Y-56460476D01*
X101762933Y-56365238D01*
X101858171Y-56270000D01*
X102001028Y-56222380D01*
X102096266Y-56222380D01*
X102239123Y-56270000D01*
X102286742Y-56317619D01*
X103191504Y-56222380D02*
X102715314Y-56222380D01*
X102667695Y-56698571D01*
X102715314Y-56650952D01*
X102810552Y-56603333D01*
X103048647Y-56603333D01*
X103143885Y-56650952D01*
X103191504Y-56698571D01*
X103239123Y-56793809D01*
X103239123Y-57031904D01*
X103191504Y-57127142D01*
X103143885Y-57174761D01*
X103048647Y-57222380D01*
X102810552Y-57222380D01*
X102715314Y-57174761D01*
X102667695Y-57127142D01*
X103572457Y-56222380D02*
X104191504Y-56222380D01*
X103858171Y-56603333D01*
X104001028Y-56603333D01*
X104096266Y-56650952D01*
X104143885Y-56698571D01*
X104191504Y-56793809D01*
X104191504Y-57031904D01*
X104143885Y-57127142D01*
X104096266Y-57174761D01*
X104001028Y-57222380D01*
X103715314Y-57222380D01*
X103620076Y-57174761D01*
X103572457Y-57127142D01*
X68936542Y-60962542D02*
X68888923Y-61010161D01*
X68746066Y-61057780D01*
X68650828Y-61057780D01*
X68507971Y-61010161D01*
X68412733Y-60914923D01*
X68365114Y-60819685D01*
X68317495Y-60629209D01*
X68317495Y-60486352D01*
X68365114Y-60295876D01*
X68412733Y-60200638D01*
X68507971Y-60105400D01*
X68650828Y-60057780D01*
X68746066Y-60057780D01*
X68888923Y-60105400D01*
X68936542Y-60153019D01*
X69888923Y-61057780D02*
X69317495Y-61057780D01*
X69603209Y-61057780D02*
X69603209Y-60057780D01*
X69507971Y-60200638D01*
X69412733Y-60295876D01*
X69317495Y-60343495D01*
X70507971Y-60057780D02*
X70603209Y-60057780D01*
X70698447Y-60105400D01*
X70746066Y-60153019D01*
X70793685Y-60248257D01*
X70841304Y-60438733D01*
X70841304Y-60676828D01*
X70793685Y-60867304D01*
X70746066Y-60962542D01*
X70698447Y-61010161D01*
X70603209Y-61057780D01*
X70507971Y-61057780D01*
X70412733Y-61010161D01*
X70365114Y-60962542D01*
X70317495Y-60867304D01*
X70269876Y-60676828D01*
X70269876Y-60438733D01*
X70317495Y-60248257D01*
X70365114Y-60153019D01*
X70412733Y-60105400D01*
X70507971Y-60057780D01*
X97730695Y-18884380D02*
X98302123Y-18884380D01*
X98016409Y-19884380D02*
X98016409Y-18884380D01*
X98635457Y-19884380D02*
X98635457Y-18884380D01*
X99016409Y-18884380D01*
X99111647Y-18932000D01*
X99159266Y-18979619D01*
X99206885Y-19074857D01*
X99206885Y-19217714D01*
X99159266Y-19312952D01*
X99111647Y-19360571D01*
X99016409Y-19408190D01*
X98635457Y-19408190D01*
X100064028Y-18884380D02*
X99873552Y-18884380D01*
X99778314Y-18932000D01*
X99730695Y-18979619D01*
X99635457Y-19122476D01*
X99587838Y-19312952D01*
X99587838Y-19693904D01*
X99635457Y-19789142D01*
X99683076Y-19836761D01*
X99778314Y-19884380D01*
X99968790Y-19884380D01*
X100064028Y-19836761D01*
X100111647Y-19789142D01*
X100159266Y-19693904D01*
X100159266Y-19455809D01*
X100111647Y-19360571D01*
X100064028Y-19312952D01*
X99968790Y-19265333D01*
X99778314Y-19265333D01*
X99683076Y-19312952D01*
X99635457Y-19360571D01*
X99587838Y-19455809D01*
X33791179Y-24115304D02*
X33791179Y-23543876D01*
X34791179Y-23829590D02*
X33791179Y-23829590D01*
X34791179Y-23210542D02*
X33791179Y-23210542D01*
X33791179Y-22829590D01*
X33838799Y-22734352D01*
X33886418Y-22686733D01*
X33981656Y-22639114D01*
X34124513Y-22639114D01*
X34219751Y-22686733D01*
X34267370Y-22734352D01*
X34314989Y-22829590D01*
X34314989Y-23210542D01*
X34791179Y-21686733D02*
X34791179Y-22258161D01*
X34791179Y-21972447D02*
X33791179Y-21972447D01*
X33934037Y-22067685D01*
X34029275Y-22162923D01*
X34076894Y-22258161D01*
X13374066Y-102164571D02*
X13040733Y-102164571D01*
X13040733Y-102688380D02*
X13040733Y-101688380D01*
X13516923Y-101688380D01*
X14231209Y-102164571D02*
X14374066Y-102212190D01*
X14421685Y-102259809D01*
X14469304Y-102355047D01*
X14469304Y-102497904D01*
X14421685Y-102593142D01*
X14374066Y-102640761D01*
X14278828Y-102688380D01*
X13897876Y-102688380D01*
X13897876Y-101688380D01*
X14231209Y-101688380D01*
X14326447Y-101736000D01*
X14374066Y-101783619D01*
X14421685Y-101878857D01*
X14421685Y-101974095D01*
X14374066Y-102069333D01*
X14326447Y-102116952D01*
X14231209Y-102164571D01*
X13897876Y-102164571D01*
X14802638Y-101688380D02*
X15421685Y-101688380D01*
X15088352Y-102069333D01*
X15231209Y-102069333D01*
X15326447Y-102116952D01*
X15374066Y-102164571D01*
X15421685Y-102259809D01*
X15421685Y-102497904D01*
X15374066Y-102593142D01*
X15326447Y-102640761D01*
X15231209Y-102688380D01*
X14945495Y-102688380D01*
X14850257Y-102640761D01*
X14802638Y-102593142D01*
X68756780Y-93254657D02*
X68280590Y-93587990D01*
X68756780Y-93826085D02*
X67756780Y-93826085D01*
X67756780Y-93445133D01*
X67804400Y-93349895D01*
X67852019Y-93302276D01*
X67947257Y-93254657D01*
X68090114Y-93254657D01*
X68185352Y-93302276D01*
X68232971Y-93349895D01*
X68280590Y-93445133D01*
X68280590Y-93826085D01*
X68756780Y-92302276D02*
X68756780Y-92873704D01*
X68756780Y-92587990D02*
X67756780Y-92587990D01*
X67899638Y-92683228D01*
X67994876Y-92778466D01*
X68042495Y-92873704D01*
X68090114Y-91445133D02*
X68756780Y-91445133D01*
X67709161Y-91683228D02*
X68423447Y-91921323D01*
X68423447Y-91302276D01*
X60020580Y-90724885D02*
X59020580Y-90724885D01*
X59020580Y-90486790D01*
X59068200Y-90343933D01*
X59163438Y-90248695D01*
X59258676Y-90201076D01*
X59449152Y-90153457D01*
X59592009Y-90153457D01*
X59782485Y-90201076D01*
X59877723Y-90248695D01*
X59972961Y-90343933D01*
X60020580Y-90486790D01*
X60020580Y-90724885D01*
X60020580Y-89201076D02*
X60020580Y-89772504D01*
X60020580Y-89486790D02*
X59020580Y-89486790D01*
X59163438Y-89582028D01*
X59258676Y-89677266D01*
X59306295Y-89772504D01*
X59020580Y-88582028D02*
X59020580Y-88486790D01*
X59068200Y-88391552D01*
X59115819Y-88343933D01*
X59211057Y-88296314D01*
X59401533Y-88248695D01*
X59639628Y-88248695D01*
X59830104Y-88296314D01*
X59925342Y-88343933D01*
X59972961Y-88391552D01*
X60020580Y-88486790D01*
X60020580Y-88582028D01*
X59972961Y-88677266D01*
X59925342Y-88724885D01*
X59830104Y-88772504D01*
X59639628Y-88820123D01*
X59401533Y-88820123D01*
X59211057Y-88772504D01*
X59115819Y-88724885D01*
X59068200Y-88677266D01*
X59020580Y-88582028D01*
X103661380Y-47405257D02*
X103185190Y-47738590D01*
X103661380Y-47976685D02*
X102661380Y-47976685D01*
X102661380Y-47595733D01*
X102709000Y-47500495D01*
X102756619Y-47452876D01*
X102851857Y-47405257D01*
X102994714Y-47405257D01*
X103089952Y-47452876D01*
X103137571Y-47500495D01*
X103185190Y-47595733D01*
X103185190Y-47976685D01*
X102661380Y-47071923D02*
X102661380Y-46452876D01*
X103042333Y-46786209D01*
X103042333Y-46643352D01*
X103089952Y-46548114D01*
X103137571Y-46500495D01*
X103232809Y-46452876D01*
X103470904Y-46452876D01*
X103566142Y-46500495D01*
X103613761Y-46548114D01*
X103661380Y-46643352D01*
X103661380Y-46929066D01*
X103613761Y-47024304D01*
X103566142Y-47071923D01*
X102661380Y-46119542D02*
X102661380Y-45500495D01*
X103042333Y-45833828D01*
X103042333Y-45690971D01*
X103089952Y-45595733D01*
X103137571Y-45548114D01*
X103232809Y-45500495D01*
X103470904Y-45500495D01*
X103566142Y-45548114D01*
X103613761Y-45595733D01*
X103661380Y-45690971D01*
X103661380Y-45976685D01*
X103613761Y-46071923D01*
X103566142Y-46119542D01*
X81036295Y-60902180D02*
X81607723Y-60902180D01*
X81322009Y-61902180D02*
X81322009Y-60902180D01*
X82512485Y-61902180D02*
X82179152Y-61425990D01*
X81941057Y-61902180D02*
X81941057Y-60902180D01*
X82322009Y-60902180D01*
X82417247Y-60949800D01*
X82464866Y-60997419D01*
X82512485Y-61092657D01*
X82512485Y-61235514D01*
X82464866Y-61330752D01*
X82417247Y-61378371D01*
X82322009Y-61425990D01*
X81941057Y-61425990D01*
X83464866Y-61902180D02*
X82893438Y-61902180D01*
X83179152Y-61902180D02*
X83179152Y-60902180D01*
X83083914Y-61045038D01*
X82988676Y-61140276D01*
X82893438Y-61187895D01*
X61424980Y-73554957D02*
X60948790Y-73888290D01*
X61424980Y-74126385D02*
X60424980Y-74126385D01*
X60424980Y-73745433D01*
X60472600Y-73650195D01*
X60520219Y-73602576D01*
X60615457Y-73554957D01*
X60758314Y-73554957D01*
X60853552Y-73602576D01*
X60901171Y-73650195D01*
X60948790Y-73745433D01*
X60948790Y-74126385D01*
X60424980Y-73221623D02*
X60424980Y-72602576D01*
X60805933Y-72935909D01*
X60805933Y-72793052D01*
X60853552Y-72697814D01*
X60901171Y-72650195D01*
X60996409Y-72602576D01*
X61234504Y-72602576D01*
X61329742Y-72650195D01*
X61377361Y-72697814D01*
X61424980Y-72793052D01*
X61424980Y-73078766D01*
X61377361Y-73174004D01*
X61329742Y-73221623D01*
X61424980Y-71650195D02*
X61424980Y-72221623D01*
X61424980Y-71935909D02*
X60424980Y-71935909D01*
X60567838Y-72031147D01*
X60663076Y-72126385D01*
X60710695Y-72221623D01*
X82122542Y-44858942D02*
X82074923Y-44906561D01*
X81932066Y-44954180D01*
X81836828Y-44954180D01*
X81693971Y-44906561D01*
X81598733Y-44811323D01*
X81551114Y-44716085D01*
X81503495Y-44525609D01*
X81503495Y-44382752D01*
X81551114Y-44192276D01*
X81598733Y-44097038D01*
X81693971Y-44001800D01*
X81836828Y-43954180D01*
X81932066Y-43954180D01*
X82074923Y-44001800D01*
X82122542Y-44049419D01*
X82979685Y-44287514D02*
X82979685Y-44954180D01*
X82741590Y-43906561D02*
X82503495Y-44620847D01*
X83122542Y-44620847D01*
X83693971Y-43954180D02*
X83789209Y-43954180D01*
X83884447Y-44001800D01*
X83932066Y-44049419D01*
X83979685Y-44144657D01*
X84027304Y-44335133D01*
X84027304Y-44573228D01*
X83979685Y-44763704D01*
X83932066Y-44858942D01*
X83884447Y-44906561D01*
X83789209Y-44954180D01*
X83693971Y-44954180D01*
X83598733Y-44906561D01*
X83551114Y-44858942D01*
X83503495Y-44763704D01*
X83455876Y-44573228D01*
X83455876Y-44335133D01*
X83503495Y-44144657D01*
X83551114Y-44049419D01*
X83598733Y-44001800D01*
X83693971Y-43954180D01*
X43589437Y-94236495D02*
X42589437Y-94236495D01*
X42589437Y-93998400D01*
X42637057Y-93855542D01*
X42732295Y-93760304D01*
X42827533Y-93712685D01*
X43018009Y-93665066D01*
X43160866Y-93665066D01*
X43351342Y-93712685D01*
X43446580Y-93760304D01*
X43541818Y-93855542D01*
X43589437Y-93998400D01*
X43589437Y-94236495D01*
X42589437Y-93331733D02*
X42589437Y-92665066D01*
X43589437Y-93093638D01*
X92542542Y-56828657D02*
X92590161Y-56876276D01*
X92637780Y-57019133D01*
X92637780Y-57114371D01*
X92590161Y-57257228D01*
X92494923Y-57352466D01*
X92399685Y-57400085D01*
X92209209Y-57447704D01*
X92066352Y-57447704D01*
X91875876Y-57400085D01*
X91780638Y-57352466D01*
X91685400Y-57257228D01*
X91637780Y-57114371D01*
X91637780Y-57019133D01*
X91685400Y-56876276D01*
X91733019Y-56828657D01*
X92637780Y-55876276D02*
X92637780Y-56447704D01*
X92637780Y-56161990D02*
X91637780Y-56161990D01*
X91780638Y-56257228D01*
X91875876Y-56352466D01*
X91923495Y-56447704D01*
X91637780Y-55542942D02*
X91637780Y-54923895D01*
X92018733Y-55257228D01*
X92018733Y-55114371D01*
X92066352Y-55019133D01*
X92113971Y-54971514D01*
X92209209Y-54923895D01*
X92447304Y-54923895D01*
X92542542Y-54971514D01*
X92590161Y-55019133D01*
X92637780Y-55114371D01*
X92637780Y-55400085D01*
X92590161Y-55495323D01*
X92542542Y-55542942D01*
X36646733Y-81130142D02*
X36599114Y-81177761D01*
X36456257Y-81225380D01*
X36361019Y-81225380D01*
X36218161Y-81177761D01*
X36122923Y-81082523D01*
X36075304Y-80987285D01*
X36027685Y-80796809D01*
X36027685Y-80653952D01*
X36075304Y-80463476D01*
X36122923Y-80368238D01*
X36218161Y-80273000D01*
X36361019Y-80225380D01*
X36456257Y-80225380D01*
X36599114Y-80273000D01*
X36646733Y-80320619D01*
X37599114Y-81225380D02*
X37027685Y-81225380D01*
X37313400Y-81225380D02*
X37313400Y-80225380D01*
X37218161Y-80368238D01*
X37122923Y-80463476D01*
X37027685Y-80511095D01*
X65689742Y-82332657D02*
X65737361Y-82380276D01*
X65784980Y-82523133D01*
X65784980Y-82618371D01*
X65737361Y-82761228D01*
X65642123Y-82856466D01*
X65546885Y-82904085D01*
X65356409Y-82951704D01*
X65213552Y-82951704D01*
X65023076Y-82904085D01*
X64927838Y-82856466D01*
X64832600Y-82761228D01*
X64784980Y-82618371D01*
X64784980Y-82523133D01*
X64832600Y-82380276D01*
X64880219Y-82332657D01*
X65784980Y-81380276D02*
X65784980Y-81951704D01*
X65784980Y-81665990D02*
X64784980Y-81665990D01*
X64927838Y-81761228D01*
X65023076Y-81856466D01*
X65070695Y-81951704D01*
X65213552Y-80808847D02*
X65165933Y-80904085D01*
X65118314Y-80951704D01*
X65023076Y-80999323D01*
X64975457Y-80999323D01*
X64880219Y-80951704D01*
X64832600Y-80904085D01*
X64784980Y-80808847D01*
X64784980Y-80618371D01*
X64832600Y-80523133D01*
X64880219Y-80475514D01*
X64975457Y-80427895D01*
X65023076Y-80427895D01*
X65118314Y-80475514D01*
X65165933Y-80523133D01*
X65213552Y-80618371D01*
X65213552Y-80808847D01*
X65261171Y-80904085D01*
X65308790Y-80951704D01*
X65404028Y-80999323D01*
X65594504Y-80999323D01*
X65689742Y-80951704D01*
X65737361Y-80904085D01*
X65784980Y-80808847D01*
X65784980Y-80618371D01*
X65737361Y-80523133D01*
X65689742Y-80475514D01*
X65594504Y-80427895D01*
X65404028Y-80427895D01*
X65308790Y-80475514D01*
X65261171Y-80523133D01*
X65213552Y-80618371D01*
X77926495Y-99014580D02*
X77926495Y-99824104D01*
X77974114Y-99919342D01*
X78021733Y-99966961D01*
X78116971Y-100014580D01*
X78307447Y-100014580D01*
X78402685Y-99966961D01*
X78450304Y-99919342D01*
X78497923Y-99824104D01*
X78497923Y-99014580D01*
X79450304Y-99014580D02*
X78974114Y-99014580D01*
X78926495Y-99490771D01*
X78974114Y-99443152D01*
X79069352Y-99395533D01*
X79307447Y-99395533D01*
X79402685Y-99443152D01*
X79450304Y-99490771D01*
X79497923Y-99586009D01*
X79497923Y-99824104D01*
X79450304Y-99919342D01*
X79402685Y-99966961D01*
X79307447Y-100014580D01*
X79069352Y-100014580D01*
X78974114Y-99966961D01*
X78926495Y-99919342D01*
X12561266Y-94188971D02*
X12227933Y-94188971D01*
X12227933Y-94712780D02*
X12227933Y-93712780D01*
X12704123Y-93712780D01*
X13418409Y-94188971D02*
X13561266Y-94236590D01*
X13608885Y-94284209D01*
X13656504Y-94379447D01*
X13656504Y-94522304D01*
X13608885Y-94617542D01*
X13561266Y-94665161D01*
X13466028Y-94712780D01*
X13085076Y-94712780D01*
X13085076Y-93712780D01*
X13418409Y-93712780D01*
X13513647Y-93760400D01*
X13561266Y-93808019D01*
X13608885Y-93903257D01*
X13608885Y-93998495D01*
X13561266Y-94093733D01*
X13513647Y-94141352D01*
X13418409Y-94188971D01*
X13085076Y-94188971D01*
X14037457Y-93808019D02*
X14085076Y-93760400D01*
X14180314Y-93712780D01*
X14418409Y-93712780D01*
X14513647Y-93760400D01*
X14561266Y-93808019D01*
X14608885Y-93903257D01*
X14608885Y-93998495D01*
X14561266Y-94141352D01*
X13989838Y-94712780D01*
X14608885Y-94712780D01*
X94539742Y-39336342D02*
X94492123Y-39383961D01*
X94349266Y-39431580D01*
X94254028Y-39431580D01*
X94111171Y-39383961D01*
X94015933Y-39288723D01*
X93968314Y-39193485D01*
X93920695Y-39003009D01*
X93920695Y-38860152D01*
X93968314Y-38669676D01*
X94015933Y-38574438D01*
X94111171Y-38479200D01*
X94254028Y-38431580D01*
X94349266Y-38431580D01*
X94492123Y-38479200D01*
X94539742Y-38526819D01*
X95444504Y-38431580D02*
X94968314Y-38431580D01*
X94920695Y-38907771D01*
X94968314Y-38860152D01*
X95063552Y-38812533D01*
X95301647Y-38812533D01*
X95396885Y-38860152D01*
X95444504Y-38907771D01*
X95492123Y-39003009D01*
X95492123Y-39241104D01*
X95444504Y-39336342D01*
X95396885Y-39383961D01*
X95301647Y-39431580D01*
X95063552Y-39431580D01*
X94968314Y-39383961D01*
X94920695Y-39336342D01*
X96444504Y-39431580D02*
X95873076Y-39431580D01*
X96158790Y-39431580D02*
X96158790Y-38431580D01*
X96063552Y-38574438D01*
X95968314Y-38669676D01*
X95873076Y-38717295D01*
X94996942Y-22405342D02*
X94949323Y-22452961D01*
X94806466Y-22500580D01*
X94711228Y-22500580D01*
X94568371Y-22452961D01*
X94473133Y-22357723D01*
X94425514Y-22262485D01*
X94377895Y-22072009D01*
X94377895Y-21929152D01*
X94425514Y-21738676D01*
X94473133Y-21643438D01*
X94568371Y-21548200D01*
X94711228Y-21500580D01*
X94806466Y-21500580D01*
X94949323Y-21548200D01*
X94996942Y-21595819D01*
X95901704Y-21500580D02*
X95425514Y-21500580D01*
X95377895Y-21976771D01*
X95425514Y-21929152D01*
X95520752Y-21881533D01*
X95758847Y-21881533D01*
X95854085Y-21929152D01*
X95901704Y-21976771D01*
X95949323Y-22072009D01*
X95949323Y-22310104D01*
X95901704Y-22405342D01*
X95854085Y-22452961D01*
X95758847Y-22500580D01*
X95520752Y-22500580D01*
X95425514Y-22452961D01*
X95377895Y-22405342D01*
X96520752Y-21929152D02*
X96425514Y-21881533D01*
X96377895Y-21833914D01*
X96330276Y-21738676D01*
X96330276Y-21691057D01*
X96377895Y-21595819D01*
X96425514Y-21548200D01*
X96520752Y-21500580D01*
X96711228Y-21500580D01*
X96806466Y-21548200D01*
X96854085Y-21595819D01*
X96901704Y-21691057D01*
X96901704Y-21738676D01*
X96854085Y-21833914D01*
X96806466Y-21881533D01*
X96711228Y-21929152D01*
X96520752Y-21929152D01*
X96425514Y-21976771D01*
X96377895Y-22024390D01*
X96330276Y-22119628D01*
X96330276Y-22310104D01*
X96377895Y-22405342D01*
X96425514Y-22452961D01*
X96520752Y-22500580D01*
X96711228Y-22500580D01*
X96806466Y-22452961D01*
X96854085Y-22405342D01*
X96901704Y-22310104D01*
X96901704Y-22119628D01*
X96854085Y-22024390D01*
X96806466Y-21976771D01*
X96711228Y-21929152D01*
X65988189Y-85612378D02*
X64988189Y-85612378D01*
X65892951Y-84564759D02*
X65940570Y-84612378D01*
X65988189Y-84755235D01*
X65988189Y-84850473D01*
X65940570Y-84993330D01*
X65845332Y-85088568D01*
X65750094Y-85136188D01*
X65559618Y-85183807D01*
X65416761Y-85183807D01*
X65226285Y-85136188D01*
X65131047Y-85088568D01*
X65035809Y-84993330D01*
X64988189Y-84850473D01*
X64988189Y-84755235D01*
X65035809Y-84612378D01*
X65083428Y-84564759D01*
X65083428Y-84183807D02*
X65035809Y-84136188D01*
X64988189Y-84040949D01*
X64988189Y-83802854D01*
X65035809Y-83707616D01*
X65083428Y-83659997D01*
X65178666Y-83612378D01*
X65273904Y-83612378D01*
X65416761Y-83659997D01*
X65988189Y-84231426D01*
X65988189Y-83612378D01*
X84451542Y-102844980D02*
X84118209Y-102368790D01*
X83880114Y-102844980D02*
X83880114Y-101844980D01*
X84261066Y-101844980D01*
X84356304Y-101892600D01*
X84403923Y-101940219D01*
X84451542Y-102035457D01*
X84451542Y-102178314D01*
X84403923Y-102273552D01*
X84356304Y-102321171D01*
X84261066Y-102368790D01*
X83880114Y-102368790D01*
X85403923Y-102844980D02*
X84832495Y-102844980D01*
X85118209Y-102844980D02*
X85118209Y-101844980D01*
X85022971Y-101987838D01*
X84927733Y-102083076D01*
X84832495Y-102130695D01*
X86022971Y-101844980D02*
X86118209Y-101844980D01*
X86213447Y-101892600D01*
X86261066Y-101940219D01*
X86308685Y-102035457D01*
X86356304Y-102225933D01*
X86356304Y-102464028D01*
X86308685Y-102654504D01*
X86261066Y-102749742D01*
X86213447Y-102797361D01*
X86118209Y-102844980D01*
X86022971Y-102844980D01*
X85927733Y-102797361D01*
X85880114Y-102749742D01*
X85832495Y-102654504D01*
X85784876Y-102464028D01*
X85784876Y-102225933D01*
X85832495Y-102035457D01*
X85880114Y-101940219D01*
X85927733Y-101892600D01*
X86022971Y-101844980D01*
X84628742Y-85729942D02*
X84581123Y-85777561D01*
X84438266Y-85825180D01*
X84343028Y-85825180D01*
X84200171Y-85777561D01*
X84104933Y-85682323D01*
X84057314Y-85587085D01*
X84009695Y-85396609D01*
X84009695Y-85253752D01*
X84057314Y-85063276D01*
X84104933Y-84968038D01*
X84200171Y-84872800D01*
X84343028Y-84825180D01*
X84438266Y-84825180D01*
X84581123Y-84872800D01*
X84628742Y-84920419D01*
X85009695Y-84920419D02*
X85057314Y-84872800D01*
X85152552Y-84825180D01*
X85390647Y-84825180D01*
X85485885Y-84872800D01*
X85533504Y-84920419D01*
X85581123Y-85015657D01*
X85581123Y-85110895D01*
X85533504Y-85253752D01*
X84962076Y-85825180D01*
X85581123Y-85825180D01*
X86438266Y-84825180D02*
X86247790Y-84825180D01*
X86152552Y-84872800D01*
X86104933Y-84920419D01*
X86009695Y-85063276D01*
X85962076Y-85253752D01*
X85962076Y-85634704D01*
X86009695Y-85729942D01*
X86057314Y-85777561D01*
X86152552Y-85825180D01*
X86343028Y-85825180D01*
X86438266Y-85777561D01*
X86485885Y-85729942D01*
X86533504Y-85634704D01*
X86533504Y-85396609D01*
X86485885Y-85301371D01*
X86438266Y-85253752D01*
X86343028Y-85206133D01*
X86152552Y-85206133D01*
X86057314Y-85253752D01*
X86009695Y-85301371D01*
X85962076Y-85396609D01*
X70789404Y-103192380D02*
X70789404Y-102192380D01*
X71027500Y-102192380D01*
X71170357Y-102240000D01*
X71265595Y-102335238D01*
X71313214Y-102430476D01*
X71360833Y-102620952D01*
X71360833Y-102763809D01*
X71313214Y-102954285D01*
X71265595Y-103049523D01*
X71170357Y-103144761D01*
X71027500Y-103192380D01*
X70789404Y-103192380D01*
X71741785Y-102287619D02*
X71789404Y-102240000D01*
X71884642Y-102192380D01*
X72122738Y-102192380D01*
X72217976Y-102240000D01*
X72265595Y-102287619D01*
X72313214Y-102382857D01*
X72313214Y-102478095D01*
X72265595Y-102620952D01*
X71694166Y-103192380D01*
X72313214Y-103192380D01*
X18393580Y-75275466D02*
X17917390Y-75608800D01*
X18393580Y-75846895D02*
X17393580Y-75846895D01*
X17393580Y-75465942D01*
X17441200Y-75370704D01*
X17488819Y-75323085D01*
X17584057Y-75275466D01*
X17726914Y-75275466D01*
X17822152Y-75323085D01*
X17869771Y-75370704D01*
X17917390Y-75465942D01*
X17917390Y-75846895D01*
X17393580Y-74942133D02*
X17393580Y-74323085D01*
X17774533Y-74656419D01*
X17774533Y-74513561D01*
X17822152Y-74418323D01*
X17869771Y-74370704D01*
X17965009Y-74323085D01*
X18203104Y-74323085D01*
X18298342Y-74370704D01*
X18345961Y-74418323D01*
X18393580Y-74513561D01*
X18393580Y-74799276D01*
X18345961Y-74894514D01*
X18298342Y-74942133D01*
X70506342Y-92505380D02*
X70173009Y-92029190D01*
X69934914Y-92505380D02*
X69934914Y-91505380D01*
X70315866Y-91505380D01*
X70411104Y-91553000D01*
X70458723Y-91600619D01*
X70506342Y-91695857D01*
X70506342Y-91838714D01*
X70458723Y-91933952D01*
X70411104Y-91981571D01*
X70315866Y-92029190D01*
X69934914Y-92029190D01*
X70887295Y-91600619D02*
X70934914Y-91553000D01*
X71030152Y-91505380D01*
X71268247Y-91505380D01*
X71363485Y-91553000D01*
X71411104Y-91600619D01*
X71458723Y-91695857D01*
X71458723Y-91791095D01*
X71411104Y-91933952D01*
X70839676Y-92505380D01*
X71458723Y-92505380D01*
X72315866Y-91838714D02*
X72315866Y-92505380D01*
X72077771Y-91457761D02*
X71839676Y-92172047D01*
X72458723Y-92172047D01*
X43607980Y-101501493D02*
X42607980Y-101501493D01*
X42607980Y-101263398D01*
X42655600Y-101120540D01*
X42750838Y-101025302D01*
X42846076Y-100977683D01*
X43036552Y-100930064D01*
X43179409Y-100930064D01*
X43369885Y-100977683D01*
X43465123Y-101025302D01*
X43560361Y-101120540D01*
X43607980Y-101263398D01*
X43607980Y-101501493D01*
X43036552Y-100358636D02*
X42988933Y-100453874D01*
X42941314Y-100501493D01*
X42846076Y-100549112D01*
X42798457Y-100549112D01*
X42703219Y-100501493D01*
X42655600Y-100453874D01*
X42607980Y-100358636D01*
X42607980Y-100168159D01*
X42655600Y-100072921D01*
X42703219Y-100025302D01*
X42798457Y-99977683D01*
X42846076Y-99977683D01*
X42941314Y-100025302D01*
X42988933Y-100072921D01*
X43036552Y-100168159D01*
X43036552Y-100358636D01*
X43084171Y-100453874D01*
X43131790Y-100501493D01*
X43227028Y-100549112D01*
X43417504Y-100549112D01*
X43512742Y-100501493D01*
X43560361Y-100453874D01*
X43607980Y-100358636D01*
X43607980Y-100168159D01*
X43560361Y-100072921D01*
X43512742Y-100025302D01*
X43417504Y-99977683D01*
X43227028Y-99977683D01*
X43131790Y-100025302D01*
X43084171Y-100072921D01*
X43036552Y-100168159D01*
X79550704Y-58914780D02*
X80122133Y-58914780D01*
X79836419Y-59914780D02*
X79836419Y-58914780D01*
X80455466Y-59914780D02*
X80455466Y-58914780D01*
X80836419Y-58914780D01*
X80931657Y-58962400D01*
X80979276Y-59010019D01*
X81026895Y-59105257D01*
X81026895Y-59248114D01*
X80979276Y-59343352D01*
X80931657Y-59390971D01*
X80836419Y-59438590D01*
X80455466Y-59438590D01*
X81979276Y-59914780D02*
X81407847Y-59914780D01*
X81693561Y-59914780D02*
X81693561Y-58914780D01*
X81598323Y-59057638D01*
X81503085Y-59152876D01*
X81407847Y-59200495D01*
X82931657Y-59914780D02*
X82360228Y-59914780D01*
X82645942Y-59914780D02*
X82645942Y-58914780D01*
X82550704Y-59057638D01*
X82455466Y-59152876D01*
X82360228Y-59200495D01*
X92535343Y-37746942D02*
X92487724Y-37794561D01*
X92344867Y-37842180D01*
X92249629Y-37842180D01*
X92106772Y-37794561D01*
X92011534Y-37699323D01*
X91963915Y-37604085D01*
X91916296Y-37413609D01*
X91916296Y-37270752D01*
X91963915Y-37080276D01*
X92011534Y-36985038D01*
X92106772Y-36889800D01*
X92249629Y-36842180D01*
X92344867Y-36842180D01*
X92487724Y-36889800D01*
X92535343Y-36937419D01*
X93392486Y-36842180D02*
X93202010Y-36842180D01*
X93106772Y-36889800D01*
X93059153Y-36937419D01*
X92963915Y-37080276D01*
X92916296Y-37270752D01*
X92916296Y-37651704D01*
X92963915Y-37746942D01*
X93011534Y-37794561D01*
X93106772Y-37842180D01*
X93297248Y-37842180D01*
X93392486Y-37794561D01*
X93440105Y-37746942D01*
X93487724Y-37651704D01*
X93487724Y-37413609D01*
X93440105Y-37318371D01*
X93392486Y-37270752D01*
X93297248Y-37223133D01*
X93106772Y-37223133D01*
X93011534Y-37270752D01*
X92963915Y-37318371D01*
X92916296Y-37413609D01*
X94106772Y-36842180D02*
X94202010Y-36842180D01*
X94297248Y-36889800D01*
X94344867Y-36937419D01*
X94392486Y-37032657D01*
X94440105Y-37223133D01*
X94440105Y-37461228D01*
X94392486Y-37651704D01*
X94344867Y-37746942D01*
X94297248Y-37794561D01*
X94202010Y-37842180D01*
X94106772Y-37842180D01*
X94011534Y-37794561D01*
X93963915Y-37746942D01*
X93916296Y-37651704D01*
X93868677Y-37461228D01*
X93868677Y-37223133D01*
X93916296Y-37032657D01*
X93963915Y-36937419D01*
X94011534Y-36889800D01*
X94106772Y-36842180D01*
X3238095Y-74752380D02*
X3238095Y-73752380D01*
X3238095Y-74228571D02*
X3809523Y-74228571D01*
X3809523Y-74752380D02*
X3809523Y-73752380D01*
X4190476Y-73752380D02*
X4809523Y-73752380D01*
X4476190Y-74133333D01*
X4619047Y-74133333D01*
X4714285Y-74180952D01*
X4761904Y-74228571D01*
X4809523Y-74323809D01*
X4809523Y-74561904D01*
X4761904Y-74657142D01*
X4714285Y-74704761D01*
X4619047Y-74752380D01*
X4333333Y-74752380D01*
X4238095Y-74704761D01*
X4190476Y-74657142D01*
X65742504Y-103018580D02*
X65742504Y-102018580D01*
X65980600Y-102018580D01*
X66123457Y-102066200D01*
X66218695Y-102161438D01*
X66266314Y-102256676D01*
X66313933Y-102447152D01*
X66313933Y-102590009D01*
X66266314Y-102780485D01*
X66218695Y-102875723D01*
X66123457Y-102970961D01*
X65980600Y-103018580D01*
X65742504Y-103018580D01*
X67266314Y-103018580D02*
X66694885Y-103018580D01*
X66980600Y-103018580D02*
X66980600Y-102018580D01*
X66885361Y-102161438D01*
X66790123Y-102256676D01*
X66694885Y-102304295D01*
X93613933Y-92429180D02*
X93280600Y-91952990D01*
X93042504Y-92429180D02*
X93042504Y-91429180D01*
X93423457Y-91429180D01*
X93518695Y-91476800D01*
X93566314Y-91524419D01*
X93613933Y-91619657D01*
X93613933Y-91762514D01*
X93566314Y-91857752D01*
X93518695Y-91905371D01*
X93423457Y-91952990D01*
X93042504Y-91952990D01*
X94518695Y-91429180D02*
X94042504Y-91429180D01*
X93994885Y-91905371D01*
X94042504Y-91857752D01*
X94137742Y-91810133D01*
X94375838Y-91810133D01*
X94471076Y-91857752D01*
X94518695Y-91905371D01*
X94566314Y-92000609D01*
X94566314Y-92238704D01*
X94518695Y-92333942D01*
X94471076Y-92381561D01*
X94375838Y-92429180D01*
X94137742Y-92429180D01*
X94042504Y-92381561D01*
X93994885Y-92333942D01*
D17*
X35100000Y-108780000D02*
X35040000Y-108870000D01*
X35210000Y-108490000D02*
X35100000Y-108780000D01*
X18730000Y-108700000D02*
X18420000Y-107940000D01*
X17500000Y-102190000D02*
X17460000Y-102420000D01*
X35055000Y-102740000D02*
X35055000Y-108960000D01*
X36300000Y-104440000D02*
X36230000Y-104880000D01*
X17480000Y-103180000D02*
X17440000Y-102520000D01*
X35055000Y-76190000D02*
X35055000Y-99640000D01*
X36480000Y-102870000D02*
X36470000Y-103070000D01*
X18150000Y-107040000D02*
X17870000Y-105720000D01*
X18420000Y-107940000D02*
X18150000Y-107040000D01*
X36230000Y-104880000D02*
X36130000Y-105300000D01*
X36460000Y-102600000D02*
X36480000Y-102870000D01*
X35680000Y-107090000D02*
X35500000Y-107650000D01*
X17680000Y-104900000D02*
X17620000Y-104490000D01*
X18745000Y-76190000D02*
X35055000Y-76190000D01*
X36430000Y-102200000D02*
X36460000Y-102600000D01*
X18745000Y-108960000D02*
X18745000Y-102740000D01*
X18745000Y-99640000D02*
X18745000Y-76190000D01*
X35500000Y-107650000D02*
X35350000Y-108080000D01*
X36130000Y-105300000D02*
X35950000Y-106060000D01*
X17870000Y-105720000D02*
X17680000Y-104900000D01*
X36410000Y-103760000D02*
X36300000Y-104440000D01*
X17540000Y-103790000D02*
X17480000Y-103180000D01*
X35055000Y-108960000D02*
X18745000Y-108960000D01*
X17620000Y-104490000D02*
X17540000Y-103790000D01*
X17460000Y-102420000D02*
X17450000Y-102740000D01*
X35350000Y-108080000D02*
X35210000Y-108490000D01*
X35950000Y-106060000D02*
X35680000Y-107060000D01*
D18*
X9830671Y-100176004D02*
X9830671Y-108976004D01*
X630671Y-108976004D02*
X630671Y-94276004D01*
X1480671Y-94076004D02*
X430671Y-94076004D01*
X630671Y-94276004D02*
X3230671Y-94276004D01*
X9830671Y-94276004D02*
X9830671Y-96176004D01*
X9830671Y-108976004D02*
X630671Y-108976004D01*
X430671Y-95126004D02*
X430671Y-94076004D01*
X7130671Y-94276004D02*
X9830671Y-94276004D01*
X61731396Y-47199795D02*
X58531396Y-47199795D01*
X68131396Y-56599795D02*
X70931396Y-56599795D01*
X88931396Y-53499795D02*
X88931396Y-47199795D01*
X60531396Y-56599795D02*
X61331396Y-56599795D01*
X71331396Y-47199795D02*
X68531396Y-47199795D01*
X85731396Y-56599795D02*
X86931396Y-56599795D01*
X58531396Y-47199795D02*
X58531396Y-53499795D01*
X88931396Y-47199795D02*
X86131396Y-47199795D01*
X69255100Y-95295542D02*
X69255100Y-95770058D01*
X70300100Y-95295542D02*
X70300100Y-95770058D01*
X46372341Y-13850900D02*
X46846857Y-13850900D01*
X46372341Y-12805900D02*
X46846857Y-12805900D01*
X73892020Y-86513800D02*
X74173180Y-86513800D01*
X73892020Y-87533800D02*
X74173180Y-87533800D01*
X49420341Y-13850900D02*
X49894857Y-13850900D01*
X49420341Y-12805900D02*
X49894857Y-12805900D01*
X64810100Y-94279542D02*
X64810100Y-94754058D01*
X65855100Y-94279542D02*
X65855100Y-94754058D01*
X18208613Y-87895200D02*
X18208613Y-93295200D01*
X14908613Y-87895200D02*
X14908613Y-93295200D01*
X18208613Y-87895200D02*
X14908613Y-87895200D01*
X99594948Y-55422200D02*
X100117452Y-55422200D01*
X99594948Y-53952200D02*
X100117452Y-53952200D01*
X87990142Y-87314900D02*
X88464658Y-87314900D01*
X87990142Y-86269900D02*
X88464658Y-86269900D01*
X99171248Y-61404400D02*
X100593752Y-61404400D01*
X99171248Y-64124400D02*
X100593752Y-64124400D01*
X51992346Y-18671600D02*
X52514850Y-18671600D01*
X51992346Y-20141600D02*
X52514850Y-20141600D01*
X91997500Y-89595058D02*
X91997500Y-89120542D01*
X93042500Y-89595058D02*
X93042500Y-89120542D01*
X82364500Y-91388101D02*
X84674500Y-91388101D01*
X84674500Y-93993101D02*
X86364500Y-93993101D01*
X80054500Y-91388101D02*
X80054500Y-91603101D01*
X84674500Y-94208101D02*
X84674500Y-93993101D01*
X82364500Y-94208101D02*
X80054500Y-94208101D01*
X82364500Y-91388101D02*
X80054500Y-91388101D01*
X82364500Y-94208101D02*
X84674500Y-94208101D01*
X84674500Y-91388101D02*
X84674500Y-91603101D01*
X80054500Y-94208101D02*
X80054500Y-93993101D01*
X74269858Y-84850300D02*
X73795342Y-84850300D01*
X74269858Y-85895300D02*
X73795342Y-85895300D01*
X91493100Y-89120542D02*
X91493100Y-89595058D01*
X90448100Y-89120542D02*
X90448100Y-89595058D01*
X51856800Y-91719202D02*
X51856800Y-95019202D01*
X51856800Y-95019202D02*
X57256800Y-95019202D01*
X51856800Y-91719202D02*
X57256800Y-91719202D01*
X67294200Y-79978400D02*
X69294200Y-79978400D01*
X69294200Y-79978400D02*
X69294200Y-76078400D01*
X67294200Y-79978400D02*
X67294200Y-76078400D01*
D15*
X100087800Y-40336200D02*
G75*
G03*
X100087800Y-40336200I-1400000J0D01*
G01*
D18*
X98129400Y-34520000D02*
X98129400Y-28220000D01*
X91829400Y-34520000D02*
X91829400Y-28220000D01*
X100604620Y-48824000D02*
X100885780Y-48824000D01*
X100604620Y-49844000D02*
X100885780Y-49844000D01*
X64890200Y-79977400D02*
X64890200Y-76077400D01*
X64890200Y-79977400D02*
X66890200Y-79977400D01*
X66890200Y-79977400D02*
X66890200Y-76077400D01*
X51844000Y-95429800D02*
X51844000Y-98729800D01*
X51844000Y-95429800D02*
X57244000Y-95429800D01*
X51844000Y-98729800D02*
X57244000Y-98729800D01*
X27017800Y-17981100D02*
X29617800Y-17981100D01*
X27017800Y-20641100D02*
X27017800Y-17981100D01*
X27017800Y-20641100D02*
X29617800Y-20641100D01*
X25747800Y-20641100D02*
X24417800Y-20641100D01*
X29617800Y-20641100D02*
X29617800Y-17981100D01*
X24417800Y-20641100D02*
X24417800Y-19311100D01*
X65842600Y-89538980D02*
X65842600Y-89257820D01*
X64822600Y-89538980D02*
X64822600Y-89257820D01*
X71198400Y-76850536D02*
X71198400Y-77304664D01*
X69728400Y-76850536D02*
X69728400Y-77304664D01*
X99017948Y-42833200D02*
X100440452Y-42833200D01*
X99017948Y-45553200D02*
X100440452Y-45553200D01*
X87670600Y-90963200D02*
X87670600Y-90033200D01*
X87670600Y-90963200D02*
X89830600Y-90963200D01*
X87670600Y-87803200D02*
X89130600Y-87803200D01*
X87670600Y-87803200D02*
X87670600Y-88733200D01*
X51824800Y-99138200D02*
X57224800Y-99138200D01*
X51824800Y-102438200D02*
X57224800Y-102438200D01*
X51824800Y-99138200D02*
X51824800Y-102438200D01*
X64458100Y-77964658D02*
X64458100Y-77490142D01*
X63413100Y-77964658D02*
X63413100Y-77490142D01*
X61307658Y-58914500D02*
X60833142Y-58914500D01*
X61307658Y-59959500D02*
X60833142Y-59959500D01*
X97850000Y-52220000D02*
X97850000Y-45920000D01*
X91550000Y-52220000D02*
X91550000Y-45920000D01*
X82334458Y-100219100D02*
X81859942Y-100219100D01*
X82334458Y-101264100D02*
X81859942Y-101264100D01*
X15958300Y-97885348D02*
X15958300Y-98407852D01*
X14488300Y-97885348D02*
X14488300Y-98407852D01*
X100288000Y-35874403D02*
X99488000Y-35874403D01*
X100288000Y-35874403D02*
X101088000Y-35874403D01*
X100288000Y-32754403D02*
X101088000Y-32754403D01*
X100288000Y-32754403D02*
X98488000Y-32754403D01*
X100718621Y-32284403D02*
X100999781Y-32284403D01*
X100718621Y-31264403D02*
X100999781Y-31264403D01*
X96770981Y-34890402D02*
X96489821Y-34890402D01*
X96770981Y-35910402D02*
X96489821Y-35910402D01*
X75880820Y-44880800D02*
X76161980Y-44880800D01*
X75880820Y-45900800D02*
X76161980Y-45900800D01*
X67694800Y-75029600D02*
X69644800Y-75029600D01*
X67694800Y-69909600D02*
X64244800Y-69909600D01*
X67694800Y-69909600D02*
X69644800Y-69909600D01*
X67694800Y-75029600D02*
X65744800Y-75029600D01*
X38907799Y-19297452D02*
X38907799Y-17874948D01*
X41627799Y-19297452D02*
X41627799Y-17874948D01*
X52484000Y-85863379D02*
X52484000Y-85537821D01*
X53504000Y-85863379D02*
X53504000Y-85537821D01*
X59086600Y-80268600D02*
X59086600Y-85668600D01*
X62386600Y-80268600D02*
X59086600Y-80268600D01*
X62386600Y-80268600D02*
X62386600Y-85668600D01*
X73795342Y-90881301D02*
X74269858Y-90881301D01*
X73795342Y-89836301D02*
X74269858Y-89836301D01*
X72847658Y-44877300D02*
X72373142Y-44877300D01*
X72847658Y-45922300D02*
X72373142Y-45922300D01*
X60635601Y-66563220D02*
X60635601Y-66844380D01*
X61655601Y-66563220D02*
X61655601Y-66844380D01*
X44204800Y-95429800D02*
X49604800Y-95429800D01*
X44204800Y-98729800D02*
X49604800Y-98729800D01*
X44204800Y-95429800D02*
X44204800Y-98729800D01*
X100022180Y-65738200D02*
X99741020Y-65738200D01*
X100022180Y-64718200D02*
X99741020Y-64718200D01*
D15*
X91172400Y-59818000D02*
G75*
G03*
X91172400Y-59818000I-1400000J0D01*
G01*
D18*
X72378142Y-43344300D02*
X72852658Y-43344300D01*
X72378142Y-44389300D02*
X72852658Y-44389300D01*
D15*
X38289599Y-15335000D02*
G75*
G03*
X38289599Y-15335000I-1400000J0D01*
G01*
D18*
X93570800Y-25680452D02*
X93570800Y-24257948D01*
X90850800Y-25680452D02*
X90850800Y-24257948D01*
X102686500Y-35093145D02*
X102686500Y-35567661D01*
X103731500Y-35093145D02*
X103731500Y-35567661D01*
X71845100Y-95304542D02*
X71845100Y-95779058D01*
X70800100Y-95304542D02*
X70800100Y-95779058D01*
X100186400Y-53434000D02*
X99386400Y-53434000D01*
X100186400Y-50314000D02*
X98386400Y-50314000D01*
X100186400Y-53434000D02*
X100986400Y-53434000D01*
X100186400Y-50314000D02*
X100986400Y-50314000D01*
X64293600Y-69354800D02*
X64293600Y-67354800D01*
X67493600Y-67354800D02*
X64293600Y-67354800D01*
X64293600Y-69354800D02*
X67493600Y-69354800D01*
X48777199Y-18585800D02*
X42477199Y-18585800D01*
X48777199Y-24885800D02*
X42477199Y-24885800D01*
X93064000Y-83922200D02*
X93064000Y-82122200D01*
X89944000Y-83922200D02*
X89944000Y-84722200D01*
X93064000Y-83922200D02*
X93064000Y-84722200D01*
X89944000Y-83922200D02*
X89944000Y-83122200D01*
X51992563Y-75168400D02*
X44337000Y-75168400D01*
X53057000Y-82823963D02*
X51992563Y-83888400D01*
X51992563Y-83888400D02*
X44337000Y-83888400D01*
X53797000Y-82538400D02*
X53797000Y-81538400D01*
X44337000Y-83888400D02*
X44337000Y-81038400D01*
X53057000Y-76232837D02*
X53057000Y-78018400D01*
X53057000Y-82823963D02*
X53057000Y-81038400D01*
X53057000Y-76232837D02*
X51992563Y-75168400D01*
X54297000Y-82038400D02*
X53297000Y-82038400D01*
X44337000Y-75168400D02*
X44337000Y-78018400D01*
X67731100Y-95770058D02*
X67731100Y-95295542D01*
X68776100Y-95770058D02*
X68776100Y-95295542D01*
X33850258Y-75580500D02*
X33375742Y-75580500D01*
X33850258Y-74535500D02*
X33375742Y-74535500D01*
X55359148Y-86055400D02*
X55881652Y-86055400D01*
X55359148Y-87525400D02*
X55881652Y-87525400D01*
X58706600Y-85863379D02*
X58706600Y-85537821D01*
X57686600Y-85863379D02*
X57686600Y-85537821D01*
X76891600Y-86007220D02*
X76891600Y-86288380D01*
X75871600Y-86007220D02*
X75871600Y-86288380D01*
X81283748Y-81722798D02*
X82706252Y-81722798D01*
X81283748Y-79002798D02*
X82706252Y-79002798D01*
X100152800Y-67724736D02*
X100152800Y-72078864D01*
X103572800Y-67724736D02*
X103572800Y-72078864D01*
X29800100Y-24347748D02*
X29800100Y-25770252D01*
X27980100Y-24347748D02*
X27980100Y-25770252D01*
X103731500Y-32045145D02*
X103731500Y-32519661D01*
X102686500Y-32045145D02*
X102686500Y-32519661D01*
X55359148Y-83896400D02*
X55881652Y-83896400D01*
X55359148Y-85366400D02*
X55881652Y-85366400D01*
X91078942Y-94070100D02*
X91553458Y-94070100D01*
X91078942Y-93025100D02*
X91553458Y-93025100D01*
X91147820Y-86282400D02*
X91428980Y-86282400D01*
X91147820Y-87302400D02*
X91428980Y-87302400D01*
D15*
X104075600Y-21667200D02*
G75*
G03*
X104075600Y-21667200I-1400000J0D01*
G01*
D18*
X12380100Y-97885348D02*
X12380100Y-98407852D01*
X13850100Y-97885348D02*
X13850100Y-98407852D01*
X95868452Y-60819700D02*
X94445948Y-60819700D01*
X95868452Y-58099700D02*
X94445948Y-58099700D01*
X61307658Y-58435500D02*
X60833142Y-58435500D01*
X61307658Y-57390500D02*
X60833142Y-57390500D01*
X44214943Y-88032403D02*
X49614943Y-88032403D01*
X44214943Y-91332403D02*
X49614943Y-91332403D01*
X44214943Y-88032403D02*
X44214943Y-91332403D01*
X103629900Y-49604742D02*
X103629900Y-50079258D01*
X102584900Y-49604742D02*
X102584900Y-50079258D01*
D19*
X59574600Y-71933800D02*
X59574600Y-76912200D01*
X53973800Y-76912200D02*
X53973800Y-71933800D01*
D18*
X63654600Y-66453236D02*
X63654600Y-66907364D01*
X62184600Y-66453236D02*
X62184600Y-66907364D01*
X28429520Y-21439000D02*
X28710680Y-21439000D01*
X28429520Y-22459000D02*
X28710680Y-22459000D01*
X38907799Y-24148748D02*
X38907799Y-25571252D01*
X41627799Y-24148748D02*
X41627799Y-25571252D01*
X81354820Y-57326800D02*
X81635980Y-57326800D01*
X81354820Y-58346800D02*
X81635980Y-58346800D01*
X42417398Y-31211790D02*
X41417398Y-31211790D01*
X42417398Y-68911790D02*
X41417398Y-68911790D01*
X52517398Y-30061790D02*
X4517398Y-30061790D01*
X19617398Y-34991790D02*
X20617398Y-34991790D01*
X4517398Y-70061790D02*
X52517398Y-70061790D01*
X19617398Y-68911790D02*
X19617398Y-65131790D01*
X42417398Y-34991790D02*
X41417398Y-34991790D01*
X19617398Y-34991790D02*
X19617398Y-31211790D01*
X19617398Y-31211790D02*
X20617398Y-31211790D01*
X42417398Y-68911790D02*
X42417398Y-65131790D01*
X42417398Y-65131790D02*
X41417398Y-65131790D01*
X1017398Y-33561790D02*
X1017398Y-66561790D01*
X56017398Y-66561790D02*
X56017398Y-33561790D01*
X42417398Y-34991790D02*
X42417398Y-31211790D01*
X52517398Y-30061790D02*
G75*
G02*
X56017398Y-33561790I0J-3500000D01*
G01*
X4517398Y-70061790D02*
G75*
G02*
X1017398Y-66561790I0J3500000D01*
G01*
X1017398Y-33561790D02*
G75*
G02*
X4517398Y-30061790I3500000J0D01*
G01*
X56017398Y-66561790D02*
G75*
G02*
X52517398Y-70061790I-3500000J0D01*
G01*
X51995347Y-22267600D02*
X52517851Y-22267600D01*
X51995347Y-20797600D02*
X52517851Y-20797600D01*
X96567780Y-53669400D02*
X96286620Y-53669400D01*
X96567780Y-52649400D02*
X96286620Y-52649400D01*
X29820100Y-14280252D02*
X29820100Y-12857748D01*
X28000100Y-14280252D02*
X28000100Y-12857748D01*
X67835600Y-64367052D02*
X67835600Y-62944548D01*
X65115600Y-64367052D02*
X65115600Y-62944548D01*
X62957300Y-89646258D02*
X62957300Y-89171742D01*
X64002300Y-89646258D02*
X64002300Y-89171742D01*
X49945599Y-16198600D02*
X49945599Y-16998600D01*
X46825599Y-16198600D02*
X46825599Y-17998600D01*
X49945599Y-16198600D02*
X49945599Y-15398600D01*
X46825599Y-16198600D02*
X46825599Y-15398600D01*
X98965348Y-27802400D02*
X100387852Y-27802400D01*
X98965348Y-25082400D02*
X100387852Y-25082400D01*
X99642949Y-37972400D02*
X100165453Y-37972400D01*
X99642949Y-36502400D02*
X100165453Y-36502400D01*
X28454920Y-17201200D02*
X28736080Y-17201200D01*
X28454920Y-16181200D02*
X28736080Y-16181200D01*
X63236981Y-44913801D02*
X62955821Y-44913801D01*
X63236981Y-45933801D02*
X62955821Y-45933801D01*
X51915019Y-17978600D02*
X52196179Y-17978600D01*
X51915019Y-16958600D02*
X52196179Y-16958600D01*
X84901900Y-89654451D02*
X84901900Y-89131947D01*
X86371900Y-89654451D02*
X86371900Y-89131947D01*
X87969942Y-93039500D02*
X88444458Y-93039500D01*
X87969942Y-94084500D02*
X88444458Y-94084500D01*
X45337599Y-15764380D02*
X45337599Y-15483220D01*
X46357599Y-15764380D02*
X46357599Y-15483220D01*
X87969942Y-92533201D02*
X88444458Y-92533201D01*
X87969942Y-91488201D02*
X88444458Y-91488201D01*
X99170348Y-58102400D02*
X100592852Y-58102400D01*
X99170348Y-60822400D02*
X100592852Y-60822400D01*
X73892020Y-88164800D02*
X74173180Y-88164800D01*
X73892020Y-89184800D02*
X74173180Y-89184800D01*
X90673000Y-42669252D02*
X90673000Y-41246748D01*
X93393000Y-42669252D02*
X93393000Y-41246748D01*
X73638437Y-78583001D02*
X78094000Y-78583001D01*
X78094000Y-84103001D02*
X78094000Y-82403001D01*
X72574000Y-79647438D02*
X73638437Y-78583001D01*
X71709000Y-79658001D02*
X72334000Y-79658001D01*
X72574000Y-79647438D02*
X72574000Y-80283001D01*
X78094000Y-78583001D02*
X78094000Y-80283001D01*
X72021500Y-79345501D02*
X72021500Y-79970501D01*
X72574000Y-83038564D02*
X72574000Y-82403001D01*
X73638437Y-84103001D02*
X78094000Y-84103001D01*
X72574000Y-83038564D02*
X73638437Y-84103001D01*
X99644400Y-70901800D02*
X99644400Y-66091800D01*
X95394400Y-66091800D02*
X99644400Y-66091800D01*
X95394400Y-66091800D02*
X95394400Y-70901800D01*
X99594948Y-57479600D02*
X100117452Y-57479600D01*
X99594948Y-56009600D02*
X100117452Y-56009600D01*
X68417600Y-64367052D02*
X68417600Y-62944548D01*
X71137600Y-64367052D02*
X71137600Y-62944548D01*
D15*
X100570400Y-21667200D02*
G75*
G03*
X100570400Y-21667200I-1400000J0D01*
G01*
X38238799Y-22853400D02*
G75*
G03*
X38238799Y-22853400I-1400000J0D01*
G01*
D18*
X13993821Y-101196600D02*
X14319379Y-101196600D01*
X13993821Y-100176600D02*
X14319379Y-100176600D01*
X65920342Y-91708300D02*
X66394858Y-91708300D01*
X65920342Y-92753300D02*
X66394858Y-92753300D01*
X51854143Y-91332403D02*
X57254143Y-91332403D01*
X51854143Y-88032403D02*
X51854143Y-91332403D01*
X51854143Y-88032403D02*
X57254143Y-88032403D01*
X102584900Y-52652742D02*
X102584900Y-53127258D01*
X103629900Y-52652742D02*
X103629900Y-53127258D01*
X86798200Y-77644800D02*
X89608200Y-77644800D01*
X89608200Y-77644800D02*
X89608200Y-62874800D01*
X79198200Y-62874800D02*
X76388200Y-62874800D01*
X79198200Y-77644800D02*
X76388200Y-77644800D01*
D20*
X75998200Y-65679800D02*
X75498200Y-65179800D01*
D18*
X76388200Y-77644800D02*
X76388200Y-62874800D01*
D20*
X75998200Y-64679800D02*
X75998200Y-65679800D01*
D18*
X86798200Y-62874800D02*
X89608200Y-62874800D01*
D20*
X75498200Y-65179800D02*
X75998200Y-64679800D01*
D18*
X63702600Y-73639164D02*
X63702600Y-72185036D01*
X61882600Y-73639164D02*
X61882600Y-72185036D01*
X82931380Y-45312600D02*
X82650220Y-45312600D01*
X82931380Y-46332600D02*
X82650220Y-46332600D01*
X44217600Y-91719202D02*
X49617600Y-91719202D01*
X44217600Y-95019202D02*
X49617600Y-95019202D01*
X44217600Y-91719202D02*
X44217600Y-95019202D01*
X95843052Y-54775000D02*
X94420548Y-54775000D01*
X95843052Y-57495000D02*
X94420548Y-57495000D01*
X36379600Y-83148780D02*
X36379600Y-82867620D01*
X37399600Y-83148780D02*
X37399600Y-82867620D01*
X68006852Y-81891400D02*
X67484348Y-81891400D01*
X68006852Y-80421400D02*
X67484348Y-80421400D01*
X77988400Y-102722200D02*
X79388400Y-102722200D01*
X79388400Y-100402200D02*
X77488400Y-100402200D01*
X13993821Y-96116600D02*
X14319379Y-96116600D01*
X13993821Y-95096600D02*
X14319379Y-95096600D01*
X93975000Y-42669252D02*
X93975000Y-41246748D01*
X96695000Y-42669252D02*
X96695000Y-41246748D01*
X96999800Y-25680452D02*
X96999800Y-24257948D01*
X94279800Y-25680452D02*
X94279800Y-24257948D01*
X66255609Y-87404788D02*
X66255609Y-85204788D01*
X66255609Y-87404788D02*
X66255609Y-91054788D01*
X71775609Y-87404788D02*
X71775609Y-85204788D01*
X71775609Y-87404788D02*
X71775609Y-89604788D01*
X82325658Y-101789700D02*
X81851142Y-101789700D01*
X82325658Y-102834700D02*
X81851142Y-102834700D01*
X88086820Y-84733000D02*
X88367980Y-84733000D01*
X88086820Y-85753000D02*
X88367980Y-85753000D01*
X75485000Y-103235000D02*
X75485000Y-101765000D01*
X75485000Y-101765000D02*
X73200000Y-101765000D01*
X73200000Y-103235000D02*
X75485000Y-103235000D01*
X19913742Y-74560900D02*
X20388258Y-74560900D01*
X19913742Y-75605900D02*
X20388258Y-75605900D01*
X73807542Y-92524700D02*
X74282058Y-92524700D01*
X73807542Y-91479700D02*
X74282058Y-91479700D01*
X44185600Y-99138200D02*
X44185600Y-102438200D01*
X44185600Y-102438200D02*
X49585600Y-102438200D01*
X44185600Y-99138200D02*
X49585600Y-99138200D01*
D15*
X86067000Y-59843400D02*
G75*
G03*
X86067000Y-59843400I-1400000J0D01*
G01*
D18*
X96665253Y-37972400D02*
X96142749Y-37972400D01*
X96665253Y-36502400D02*
X96142749Y-36502400D01*
X68200000Y-103235000D02*
X70485000Y-103235000D01*
X70485000Y-103235000D02*
X70485000Y-101765000D01*
X70485000Y-101765000D02*
X68200000Y-101765000D01*
X91076742Y-91451500D02*
X91551258Y-91451500D01*
X91076742Y-92496500D02*
X91551258Y-92496500D01*
M02*
