G04 #@! TF.GenerationSoftware,KiCad,Pcbnew,5.99.0-unknown-50e22de3ba~107~ubuntu20.04.1*
G04 #@! TF.CreationDate,2021-01-20T17:19:26-06:00*
G04 #@! TF.ProjectId,AP3500,41503335-3030-42e6-9b69-6361645f7063,rev?*
G04 #@! TF.SameCoordinates,Original*
G04 #@! TF.FileFunction,Paste,Top*
G04 #@! TF.FilePolarity,Positive*
%FSLAX46Y46*%
G04 Gerber Fmt 4.6, Leading zero omitted, Abs format (unit mm)*
G04 Created by KiCad (PCBNEW 5.99.0-unknown-50e22de3ba~107~ubuntu20.04.1) date 2021-01-20 17:19:26*
%MOMM*%
%LPD*%
G01*
G04 APERTURE LIST*
G04 Aperture macros list*
%AMRoundRect*
0 Rectangle with rounded corners*
0 $1 Rounding radius*
0 $2 $3 $4 $5 $6 $7 $8 $9 X,Y pos of 4 corners*
0 Add a 4 corners polygon primitive as box body*
4,1,4,$2,$3,$4,$5,$6,$7,$8,$9,$2,$3,0*
0 Add four circle primitives for the rounded corners*
1,1,$1+$1,$2,$3*
1,1,$1+$1,$4,$5*
1,1,$1+$1,$6,$7*
1,1,$1+$1,$8,$9*
0 Add four rect primitives between the rounded corners*
20,1,$1+$1,$2,$3,$4,$5,0*
20,1,$1+$1,$4,$5,$6,$7,0*
20,1,$1+$1,$6,$7,$8,$9,0*
20,1,$1+$1,$8,$9,$2,$3,0*%
G04 Aperture macros list end*
G04 #@! TA.AperFunction,Profile*
%ADD10C,0.100000*%
G04 #@! TD*
%ADD11R,0.600000X2.000000*%
%ADD12R,2.300000X3.200000*%
%ADD13RoundRect,0.200000X-0.275000X0.200000X-0.275000X-0.200000X0.275000X-0.200000X0.275000X0.200000X0*%
%ADD14RoundRect,0.200000X-0.200000X-0.275000X0.200000X-0.275000X0.200000X0.275000X-0.200000X0.275000X0*%
%ADD15RoundRect,0.225000X-0.225000X-0.250000X0.225000X-0.250000X0.225000X0.250000X-0.225000X0.250000X0*%
%ADD16R,1.800000X2.500000*%
%ADD17RoundRect,0.250000X-0.250000X-0.475000X0.250000X-0.475000X0.250000X0.475000X-0.250000X0.475000X0*%
%ADD18RoundRect,0.250000X-0.325000X-1.100000X0.325000X-1.100000X0.325000X1.100000X-0.325000X1.100000X0*%
%ADD19RoundRect,0.200000X0.275000X-0.200000X0.275000X0.200000X-0.275000X0.200000X-0.275000X-0.200000X0*%
%ADD20RoundRect,0.150000X0.662500X0.150000X-0.662500X0.150000X-0.662500X-0.150000X0.662500X-0.150000X0*%
%ADD21RoundRect,0.200000X0.200000X0.275000X-0.200000X0.275000X-0.200000X-0.275000X0.200000X-0.275000X0*%
%ADD22R,2.500000X1.800000*%
%ADD23R,1.200000X0.900000*%
%ADD24R,5.100000X1.900000*%
%ADD25RoundRect,0.225000X0.250000X-0.225000X0.250000X0.225000X-0.250000X0.225000X-0.250000X-0.225000X0*%
%ADD26RoundRect,0.250000X-0.450000X0.262500X-0.450000X-0.262500X0.450000X-0.262500X0.450000X0.262500X0*%
%ADD27R,0.900000X0.800000*%
%ADD28RoundRect,0.250000X-0.475000X0.250000X-0.475000X-0.250000X0.475000X-0.250000X0.475000X0.250000X0*%
%ADD29RoundRect,0.150000X-0.512500X-0.150000X0.512500X-0.150000X0.512500X0.150000X-0.512500X0.150000X0*%
%ADD30RoundRect,0.225000X0.225000X0.250000X-0.225000X0.250000X-0.225000X-0.250000X0.225000X-0.250000X0*%
%ADD31RoundRect,0.150000X-0.725000X-0.150000X0.725000X-0.150000X0.725000X0.150000X-0.725000X0.150000X0*%
%ADD32RoundRect,0.250000X1.100000X-0.325000X1.100000X0.325000X-1.100000X0.325000X-1.100000X-0.325000X0*%
%ADD33RoundRect,0.218750X0.256250X-0.218750X0.256250X0.218750X-0.256250X0.218750X-0.256250X-0.218750X0*%
%ADD34RoundRect,0.050000X-0.050000X0.232500X-0.050000X-0.232500X0.050000X-0.232500X0.050000X0.232500X0*%
%ADD35RoundRect,0.033400X-0.066600X0.249100X-0.066600X-0.249100X0.066600X-0.249100X0.066600X0.249100X0*%
%ADD36RoundRect,0.050050X-0.124950X0.232450X-0.124950X-0.232450X0.124950X-0.232450X0.124950X0.232450X0*%
%ADD37RoundRect,0.225000X-0.250000X0.225000X-0.250000X-0.225000X0.250000X-0.225000X0.250000X0.225000X0*%
%ADD38R,2.400000X1.500000*%
%ADD39R,1.050000X1.500000*%
%ADD40R,1.900000X5.100000*%
%ADD41RoundRect,0.150000X-0.150000X0.512500X-0.150000X-0.512500X0.150000X-0.512500X0.150000X0.512500X0*%
%ADD42RoundRect,0.250000X1.950000X1.000000X-1.950000X1.000000X-1.950000X-1.000000X1.950000X-1.000000X0*%
%ADD43RoundRect,0.250000X-1.425000X0.362500X-1.425000X-0.362500X1.425000X-0.362500X1.425000X0.362500X0*%
%ADD44RoundRect,0.250000X-0.650000X0.325000X-0.650000X-0.325000X0.650000X-0.325000X0.650000X0.325000X0*%
%ADD45RoundRect,0.250000X0.325000X1.100000X-0.325000X1.100000X-0.325000X-1.100000X0.325000X-1.100000X0*%
%ADD46R,5.300000X2.000000*%
%ADD47RoundRect,0.250000X-1.100000X0.325000X-1.100000X-0.325000X1.100000X-0.325000X1.100000X0.325000X0*%
%ADD48R,0.200000X0.700000*%
%ADD49RoundRect,0.250000X0.650000X-0.325000X0.650000X0.325000X-0.650000X0.325000X-0.650000X-0.325000X0*%
%ADD50RoundRect,0.150000X0.150000X-0.512500X0.150000X0.512500X-0.150000X0.512500X-0.150000X-0.512500X0*%
%ADD51RoundRect,0.250000X0.475000X-0.250000X0.475000X0.250000X-0.475000X0.250000X-0.475000X-0.250000X0*%
%ADD52RoundRect,0.250000X-1.250000X-0.550000X1.250000X-0.550000X1.250000X0.550000X-1.250000X0.550000X0*%
%ADD53R,3.360000X4.860000*%
%ADD54R,1.390000X1.400000*%
%ADD55RoundRect,0.218750X-0.218750X-0.256250X0.218750X-0.256250X0.218750X0.256250X-0.218750X0.256250X0*%
%ADD56R,2.500000X1.300000*%
%ADD57RoundRect,0.250000X0.625000X-0.312500X0.625000X0.312500X-0.625000X0.312500X-0.625000X-0.312500X0*%
%ADD58RoundRect,0.250000X0.250000X0.475000X-0.250000X0.475000X-0.250000X-0.475000X0.250000X-0.475000X0*%
%ADD59R,0.650000X0.400000*%
%ADD60RoundRect,0.232500X0.232500X-0.757500X0.232500X0.757500X-0.232500X0.757500X-0.232500X-0.757500X0*%
%ADD61RoundRect,0.100000X0.100000X-0.687500X0.100000X0.687500X-0.100000X0.687500X-0.100000X-0.687500X0*%
%ADD62RoundRect,0.218750X0.218750X0.256250X-0.218750X0.256250X-0.218750X-0.256250X0.218750X-0.256250X0*%
G04 APERTURE END LIST*
D10*
X105000000Y0D02*
X105000000Y-105000000D01*
X0Y0D02*
X105000000Y0D01*
X0Y-105000000D02*
X105000000Y-105000000D01*
X0Y-105000000D02*
X0Y0D01*
D11*
X61931396Y-55999795D03*
X62331396Y-47799795D03*
X62731396Y-55999795D03*
X63131396Y-47799795D03*
X63531396Y-55999795D03*
X63931396Y-47799795D03*
X64331396Y-55999795D03*
X64731396Y-47799795D03*
X65131396Y-55999795D03*
X65531396Y-47799795D03*
X65931396Y-55999795D03*
X66331396Y-47799795D03*
X66731396Y-55999795D03*
X67131396Y-47799795D03*
X67531396Y-55999795D03*
X67931396Y-47799795D03*
X71531396Y-55999795D03*
X71931396Y-47799795D03*
X72331396Y-55999795D03*
X72731396Y-47799795D03*
X73131396Y-55999795D03*
X73531396Y-47799795D03*
X73931396Y-55999795D03*
X74331396Y-47799795D03*
X74731396Y-55999795D03*
X75131396Y-47799795D03*
X75531396Y-55999795D03*
X75931396Y-47799795D03*
X76331396Y-55999795D03*
X76731396Y-47799795D03*
X77131396Y-55999795D03*
X77531396Y-47799795D03*
X77931396Y-55999795D03*
X78331396Y-47799795D03*
X78731396Y-55999795D03*
X79131396Y-47799795D03*
X79531396Y-55999795D03*
X79931396Y-47799795D03*
X80331396Y-55999795D03*
X80731396Y-47799795D03*
X81131396Y-55999795D03*
X81531396Y-47799795D03*
X81931396Y-55999795D03*
X82331396Y-47799795D03*
X82731396Y-55999795D03*
X83131396Y-47799795D03*
X83531396Y-55999795D03*
X83931396Y-47799795D03*
X84331396Y-55999795D03*
X84731396Y-47799795D03*
X85131396Y-55999795D03*
X85531396Y-47799795D03*
D12*
X59081396Y-55399795D03*
X88381396Y-55399795D03*
D13*
X69777600Y-94707800D03*
X69777600Y-96357800D03*
D14*
X45784599Y-13328400D03*
X47434599Y-13328400D03*
D15*
X73257600Y-87023800D03*
X74807600Y-87023800D03*
D14*
X48832599Y-13328400D03*
X50482599Y-13328400D03*
D13*
X65332600Y-93691800D03*
X65332600Y-95341800D03*
D16*
X16558613Y-89295200D03*
X16558613Y-93295200D03*
D17*
X98906200Y-54687200D03*
X100806200Y-54687200D03*
D14*
X87402400Y-86792400D03*
X89052400Y-86792400D03*
D18*
X98407500Y-62764400D03*
X101357500Y-62764400D03*
D17*
X51303598Y-19406600D03*
X53203598Y-19406600D03*
D19*
X92520000Y-90182800D03*
X92520000Y-88532800D03*
D20*
X85552000Y-93433101D03*
X85552000Y-92163101D03*
X79177000Y-92163101D03*
X79177000Y-93433101D03*
D21*
X74857600Y-85372800D03*
X73207600Y-85372800D03*
D13*
X90970600Y-88532800D03*
X90970600Y-90182800D03*
D22*
X53256800Y-93369202D03*
X57256800Y-93369202D03*
D23*
X68294200Y-79378400D03*
X68294200Y-76078400D03*
D24*
X94979400Y-33470000D03*
X94979400Y-29270000D03*
D15*
X99970200Y-49334000D03*
X101520200Y-49334000D03*
D23*
X65890200Y-79377400D03*
X65890200Y-76077400D03*
D22*
X53244000Y-97079800D03*
X57244000Y-97079800D03*
D25*
X65332600Y-90173400D03*
X65332600Y-88623400D03*
D26*
X70463400Y-76165100D03*
X70463400Y-77990100D03*
D18*
X98254200Y-44193200D03*
X101204200Y-44193200D03*
D27*
X89430600Y-90333200D03*
X89430600Y-88433200D03*
X87430600Y-89383200D03*
D22*
X53224800Y-100788200D03*
X57224800Y-100788200D03*
D19*
X63935600Y-78552400D03*
X63935600Y-76902400D03*
D21*
X61895400Y-59437000D03*
X60245400Y-59437000D03*
D24*
X94700000Y-51170000D03*
X94700000Y-46970000D03*
D21*
X82922200Y-100741600D03*
X81272200Y-100741600D03*
D28*
X15223300Y-97196600D03*
X15223300Y-99096600D03*
D29*
X99150500Y-33364403D03*
X99150500Y-34314403D03*
X99150500Y-35264403D03*
X101425500Y-35264403D03*
X101425500Y-34314403D03*
X101425500Y-33364403D03*
D15*
X100084201Y-31774403D03*
X101634201Y-31774403D03*
D30*
X97405401Y-35400402D03*
X95855401Y-35400402D03*
D15*
X75246400Y-45390800D03*
X76796400Y-45390800D03*
D31*
X65119800Y-70564600D03*
X65119800Y-71834600D03*
X65119800Y-73104600D03*
X65119800Y-74374600D03*
X70269800Y-74374600D03*
X70269800Y-73104600D03*
X70269800Y-71834600D03*
X70269800Y-70564600D03*
D32*
X40267799Y-20061200D03*
X40267799Y-17111200D03*
D33*
X52994000Y-86488100D03*
X52994000Y-84913100D03*
D34*
X29567800Y-74306100D03*
D35*
X29067800Y-74306100D03*
D36*
X28567800Y-74306100D03*
D34*
X28067800Y-74306100D03*
D35*
X27567800Y-74306100D03*
X27567800Y-75141100D03*
D34*
X28067800Y-75141100D03*
D36*
X28567800Y-75141100D03*
D34*
X29067800Y-75141100D03*
X29567800Y-75141100D03*
D16*
X60736600Y-81668600D03*
X60736600Y-85668600D03*
D14*
X73207600Y-90358801D03*
X74857600Y-90358801D03*
D21*
X73435400Y-45399800D03*
X71785400Y-45399800D03*
D37*
X61145601Y-65928800D03*
X61145601Y-67478800D03*
D22*
X45604800Y-97079800D03*
X49604800Y-97079800D03*
D30*
X100656600Y-65228200D03*
X99106600Y-65228200D03*
D14*
X71790400Y-43866800D03*
X73440400Y-43866800D03*
D32*
X92210800Y-26444200D03*
X92210800Y-23494200D03*
D13*
X103209000Y-34505403D03*
X103209000Y-36155403D03*
X71322600Y-94716800D03*
X71322600Y-96366800D03*
D29*
X99048900Y-50924000D03*
X99048900Y-51874000D03*
X99048900Y-52824000D03*
X101323900Y-52824000D03*
X101323900Y-51874000D03*
X101323900Y-50924000D03*
D38*
X65643600Y-68354800D03*
D39*
X68018600Y-68354800D03*
D40*
X47727199Y-21735800D03*
X43527199Y-21735800D03*
D41*
X92454000Y-82784700D03*
X91504000Y-82784700D03*
X90554000Y-82784700D03*
X90554000Y-85059700D03*
X92454000Y-85059700D03*
D42*
X52397000Y-79528400D03*
X44997000Y-79528400D03*
D19*
X68253600Y-96357800D03*
X68253600Y-94707800D03*
D21*
X34438000Y-75058000D03*
X32788000Y-75058000D03*
D17*
X54670400Y-86790400D03*
X56570400Y-86790400D03*
D33*
X58196600Y-86488100D03*
X58196600Y-84913100D03*
D37*
X76381600Y-85372800D03*
X76381600Y-86922800D03*
D18*
X80520000Y-80362798D03*
X83470000Y-80362798D03*
D43*
X101862800Y-66939300D03*
X101862800Y-72864300D03*
D44*
X28890100Y-23584000D03*
X28890100Y-26534000D03*
D13*
X103209000Y-31457403D03*
X103209000Y-33107403D03*
D17*
X54670400Y-84631400D03*
X56570400Y-84631400D03*
D14*
X90491200Y-93547600D03*
X92141200Y-93547600D03*
D15*
X90513400Y-86792400D03*
X92063400Y-86792400D03*
D28*
X13115100Y-97196600D03*
X13115100Y-99096600D03*
D45*
X96632200Y-59459700D03*
X93682200Y-59459700D03*
D21*
X61895400Y-57913000D03*
X60245400Y-57913000D03*
D22*
X45614943Y-89682403D03*
X49614943Y-89682403D03*
D13*
X103107400Y-49017000D03*
X103107400Y-50667000D03*
D46*
X56774200Y-76173000D03*
X56774200Y-72673000D03*
D26*
X62919600Y-65767800D03*
X62919600Y-67592800D03*
D15*
X27795100Y-21949000D03*
X29345100Y-21949000D03*
D47*
X40267799Y-23385000D03*
X40267799Y-26335000D03*
D15*
X80720400Y-57836800D03*
X82270400Y-57836800D03*
D48*
X21217398Y-68561790D03*
X21217398Y-65481790D03*
X21617398Y-68561790D03*
X21617398Y-65481790D03*
X22017398Y-68561790D03*
X22017398Y-65481790D03*
X22417398Y-68561790D03*
X22417398Y-65481790D03*
X22817398Y-68561790D03*
X22817398Y-65481790D03*
X23217398Y-68561790D03*
X23217398Y-65481790D03*
X23617398Y-68561790D03*
X23617398Y-65481790D03*
X24017398Y-68561790D03*
X24017398Y-65481790D03*
X24417398Y-68561790D03*
X24417398Y-65481790D03*
X24817398Y-68561790D03*
X24817398Y-65481790D03*
X25217398Y-68561790D03*
X25217398Y-65481790D03*
X25617398Y-68561790D03*
X25617398Y-65481790D03*
X26017398Y-68561790D03*
X26017398Y-65481790D03*
X26417398Y-68561790D03*
X26417398Y-65481790D03*
X26817398Y-68561790D03*
X26817398Y-65481790D03*
X27217398Y-68561790D03*
X27217398Y-65481790D03*
X27617398Y-68561790D03*
X27617398Y-65481790D03*
X28017398Y-68561790D03*
X28017398Y-65481790D03*
X28417398Y-68561790D03*
X28417398Y-65481790D03*
X28817398Y-68561790D03*
X28817398Y-65481790D03*
X29217398Y-68561790D03*
X29217398Y-65481790D03*
X29617398Y-68561790D03*
X29617398Y-65481790D03*
X30017398Y-68561790D03*
X30017398Y-65481790D03*
X30417398Y-68561790D03*
X30417398Y-65481790D03*
X30817398Y-68561790D03*
X30817398Y-65481790D03*
X31217398Y-68561790D03*
X31217398Y-65481790D03*
X31617398Y-68561790D03*
X31617398Y-65481790D03*
X32017398Y-68561790D03*
X32017398Y-65481790D03*
X32417398Y-68561790D03*
X32417398Y-65481790D03*
X32817398Y-68561790D03*
X32817398Y-65481790D03*
X33217398Y-68561790D03*
X33217398Y-65481790D03*
X33617398Y-68561790D03*
X33617398Y-65481790D03*
X34017398Y-68561790D03*
X34017398Y-65481790D03*
X34417398Y-68561790D03*
X34417398Y-65481790D03*
X34817398Y-68561790D03*
X34817398Y-65481790D03*
X35217398Y-68561790D03*
X35217398Y-65481790D03*
X35617398Y-68561790D03*
X35617398Y-65481790D03*
X36017398Y-68561790D03*
X36017398Y-65481790D03*
X36417398Y-68561790D03*
X36417398Y-65481790D03*
X36817398Y-68561790D03*
X36817398Y-65481790D03*
X37217398Y-68561790D03*
X37217398Y-65481790D03*
X37617398Y-68561790D03*
X37617398Y-65481790D03*
X38017398Y-68561790D03*
X38017398Y-65481790D03*
X38417398Y-68561790D03*
X38417398Y-65481790D03*
X38817398Y-68561790D03*
X38817398Y-65481790D03*
X39217398Y-68561790D03*
X39217398Y-65481790D03*
X39617398Y-68561790D03*
X39617398Y-65481790D03*
X40017398Y-68561790D03*
X40017398Y-65481790D03*
X40417398Y-68561790D03*
X40417398Y-65481790D03*
X40817398Y-68561790D03*
X40817398Y-65481790D03*
X21217398Y-34641790D03*
X21217398Y-31561790D03*
X21617398Y-34641790D03*
X21617398Y-31561790D03*
X22017398Y-34641790D03*
X22017398Y-31561790D03*
X22417398Y-34641790D03*
X22417398Y-31561790D03*
X22817398Y-34641790D03*
X22817398Y-31561790D03*
X23217398Y-34641790D03*
X23217398Y-31561790D03*
X23617398Y-34641790D03*
X23617398Y-31561790D03*
X24017398Y-34641790D03*
X24017398Y-31561790D03*
X24417398Y-34641790D03*
X24417398Y-31561790D03*
X24817398Y-34641790D03*
X24817398Y-31561790D03*
X25217398Y-34641790D03*
X25217398Y-31561790D03*
X25617398Y-34641790D03*
X25617398Y-31561790D03*
X26017398Y-34641790D03*
X26017398Y-31561790D03*
X26417398Y-34641790D03*
X26417398Y-31561790D03*
X26817398Y-34641790D03*
X26817398Y-31561790D03*
X27217398Y-34641790D03*
X27217398Y-31561790D03*
X27617398Y-34641790D03*
X27617398Y-31561790D03*
X28017398Y-34641790D03*
X28017398Y-31561790D03*
X28417398Y-34641790D03*
X28417398Y-31561790D03*
X28817398Y-34641790D03*
X28817398Y-31561790D03*
X29217398Y-34641790D03*
X29217398Y-31561790D03*
X29617398Y-34641790D03*
X29617398Y-31561790D03*
X30017398Y-34641790D03*
X30017398Y-31561790D03*
X30417398Y-34641790D03*
X30417398Y-31561790D03*
X30817398Y-34641790D03*
X30817398Y-31561790D03*
X31217398Y-34641790D03*
X31217398Y-31561790D03*
X31617398Y-34641790D03*
X31617398Y-31561790D03*
X32017398Y-34641790D03*
X32017398Y-31561790D03*
X32417398Y-34641790D03*
X32417398Y-31561790D03*
X32817398Y-34641790D03*
X32817398Y-31561790D03*
X33217398Y-34641790D03*
X33217398Y-31561790D03*
X33617398Y-34641790D03*
X33617398Y-31561790D03*
X34017398Y-34641790D03*
X34017398Y-31561790D03*
X34417398Y-34641790D03*
X34417398Y-31561790D03*
X34817398Y-34641790D03*
X34817398Y-31561790D03*
X35217398Y-34641790D03*
X35217398Y-31561790D03*
X35617398Y-34641790D03*
X35617398Y-31561790D03*
X36017398Y-34641790D03*
X36017398Y-31561790D03*
X36417398Y-34641790D03*
X36417398Y-31561790D03*
X36817398Y-34641790D03*
X36817398Y-31561790D03*
X37217398Y-34641790D03*
X37217398Y-31561790D03*
X37617398Y-34641790D03*
X37617398Y-31561790D03*
X38017398Y-34641790D03*
X38017398Y-31561790D03*
X38417398Y-34641790D03*
X38417398Y-31561790D03*
X38817398Y-34641790D03*
X38817398Y-31561790D03*
X39217398Y-34641790D03*
X39217398Y-31561790D03*
X39617398Y-34641790D03*
X39617398Y-31561790D03*
X40017398Y-34641790D03*
X40017398Y-31561790D03*
X40417398Y-34641790D03*
X40417398Y-31561790D03*
X40817398Y-34641790D03*
X40817398Y-31561790D03*
D17*
X51306599Y-21532600D03*
X53206599Y-21532600D03*
D34*
X26291200Y-74306100D03*
D35*
X25791200Y-74306100D03*
D36*
X25291200Y-74306100D03*
D34*
X24791200Y-74306100D03*
D35*
X24291200Y-74306100D03*
X24291200Y-75141100D03*
D34*
X24791200Y-75141100D03*
D36*
X25291200Y-75141100D03*
D34*
X25791200Y-75141100D03*
X26291200Y-75141100D03*
D30*
X97202200Y-53159400D03*
X95652200Y-53159400D03*
D49*
X28910100Y-15044000D03*
X28910100Y-12094000D03*
D32*
X66475600Y-65130800D03*
X66475600Y-62180800D03*
D19*
X63479800Y-90234000D03*
X63479800Y-88584000D03*
D50*
X47435599Y-17336100D03*
X48385599Y-17336100D03*
X49335599Y-17336100D03*
X49335599Y-15061100D03*
X48385599Y-15061100D03*
X47435599Y-15061100D03*
D18*
X98201600Y-26442400D03*
X101151600Y-26442400D03*
D17*
X98954201Y-37237400D03*
X100854201Y-37237400D03*
D15*
X27820500Y-16691200D03*
X29370500Y-16691200D03*
D30*
X63871401Y-45423801D03*
X62321401Y-45423801D03*
D15*
X51280599Y-17468600D03*
X52830599Y-17468600D03*
D51*
X85636900Y-90343199D03*
X85636900Y-88443199D03*
D14*
X87382200Y-93562000D03*
X89032200Y-93562000D03*
D25*
X45847599Y-16398800D03*
X45847599Y-14848800D03*
D14*
X87382200Y-92010701D03*
X89032200Y-92010701D03*
D18*
X98406600Y-59462400D03*
X101356600Y-59462400D03*
D15*
X73257600Y-88674800D03*
X74807600Y-88674800D03*
D32*
X92033000Y-43433000D03*
X92033000Y-40483000D03*
D52*
X73134000Y-81343001D03*
X77534000Y-81343001D03*
D53*
X97519400Y-68781800D03*
D54*
X98439400Y-72763800D03*
X96599400Y-72763800D03*
D17*
X98906200Y-56744600D03*
X100806200Y-56744600D03*
D32*
X69777600Y-65130800D03*
X69777600Y-62180800D03*
D55*
X13369100Y-100686600D03*
X14944100Y-100686600D03*
D14*
X65332600Y-92230800D03*
X66982600Y-92230800D03*
D22*
X53254143Y-89682403D03*
X57254143Y-89682403D03*
D13*
X103107400Y-52065000D03*
X103107400Y-53715000D03*
D56*
X73198200Y-65259800D03*
X73198200Y-67759800D03*
X73198200Y-70259800D03*
X73198200Y-72759800D03*
X73198200Y-75259800D03*
X92998200Y-75259800D03*
X92998200Y-72759800D03*
X92998200Y-70259800D03*
X92998200Y-67759800D03*
X92998200Y-65259800D03*
D57*
X62792600Y-74374600D03*
X62792600Y-71449600D03*
D30*
X83565800Y-45822600D03*
X82015800Y-45822600D03*
D22*
X45617600Y-93369202D03*
X49617600Y-93369202D03*
D45*
X96606800Y-56135000D03*
X93656800Y-56135000D03*
D25*
X36889600Y-83783200D03*
X36889600Y-82233200D03*
D58*
X68695600Y-81156400D03*
X66795600Y-81156400D03*
D59*
X77738400Y-100912200D03*
X77738400Y-101562200D03*
X77738400Y-102212200D03*
X79638400Y-102212200D03*
X79638400Y-100912200D03*
D55*
X13369100Y-95606600D03*
X14944100Y-95606600D03*
D32*
X95335000Y-43433000D03*
X95335000Y-40483000D03*
X95639800Y-26444200D03*
X95639800Y-23494200D03*
D60*
X69595609Y-87404788D03*
X68435609Y-87404788D03*
D61*
X66740609Y-90267288D03*
X67390609Y-90267288D03*
X68040609Y-90267288D03*
X68690609Y-90267288D03*
X69340609Y-90267288D03*
X69990609Y-90267288D03*
X70640609Y-90267288D03*
X71290609Y-90267288D03*
X71290609Y-84542288D03*
X70640609Y-84542288D03*
X69990609Y-84542288D03*
X69340609Y-84542288D03*
X68690609Y-84542288D03*
X68040609Y-84542288D03*
X67390609Y-84542288D03*
X66740609Y-84542288D03*
D21*
X82913400Y-102312200D03*
X81263400Y-102312200D03*
D15*
X87452400Y-85243000D03*
X89002400Y-85243000D03*
D62*
X74787500Y-102500000D03*
X73212500Y-102500000D03*
D14*
X19326000Y-75083400D03*
X20976000Y-75083400D03*
X73219800Y-92002200D03*
X74869800Y-92002200D03*
D22*
X45585600Y-100788200D03*
X49585600Y-100788200D03*
D58*
X97354001Y-37237400D03*
X95454001Y-37237400D03*
D62*
X69787500Y-102500000D03*
X68212500Y-102500000D03*
D14*
X90489000Y-91974000D03*
X92139000Y-91974000D03*
M02*
