M48
; DRILL file {KiCad 5.99.0-unknown-50e22de3ba~107~ubuntu20.04.1} date Mon Jan 25 09:58:59 2021
; FORMAT={-:-/ absolute / inch / decimal}
; #@! TF.CreationDate,2021-01-25T09:58:59-06:00
; #@! TF.GenerationSoftware,Kicad,Pcbnew,5.99.0-unknown-50e22de3ba~107~ubuntu20.04.1
FMAT,2
INCH
T1C0.0079
T2C0.0350
T3C0.0394
T4C0.0433
T5C0.0620
T6C0.1457
T7C0.0433
T8C0.0630
T9C0.1024
T10C0.1063
T11C0.1280
%
G90
G05
T1
X0.0253Y-3.343
X0.0253Y-3.4358
X0.0253Y-3.6044
X0.0253Y-3.7729
X0.0253Y-3.9415
X0.0253Y-4.11
X0.2059Y-4.11
X0.2133Y-3.343
X0.2133Y-3.4358
X0.3013Y-1.399
X0.3083Y-1.136
X0.3103Y-0.984
X0.3812Y-3.0862
X0.383Y-4.11
X0.4013Y-3.343
X0.4013Y-3.4358
X0.4073Y-0.985
X0.4083Y-1.416
X0.4163Y-1.089
X0.4313Y-2.145
X0.4353Y-0.776
X0.4713Y-1.301
X0.4753Y-0.682
X0.4783Y-2.739
X0.5352Y-1.084
X0.5362Y-1.017
X0.5572Y-1.05
X0.5601Y-4.11
X0.5603Y-2.471
X0.5733Y-0.624
X0.5792Y-1.084
X0.5802Y-1.017
X0.5893Y-3.343
X0.5893Y-3.4358
X0.5993Y-1.591
X0.6033Y-2.687
X0.6073Y-2.929
X0.6483Y-1.134
X0.6503Y-1.359
X0.6593Y-3.912
X0.6653Y-2.547
X0.6773Y-3.456
X0.6783Y-3.766
X0.6933Y-2.963
X0.6983Y-3.437
X0.6983Y-3.473
X0.7103Y-2.896
X0.7203Y-3.456
X0.7243Y-0.686
X0.7243Y-0.709
X0.7413Y-0.661
X0.7473Y-0.378
X0.7603Y-3.343
X0.7653Y-0.72
X0.7701Y-0.2528
X0.7913Y-0.999
X0.8153Y-2.47
X0.8203Y-2.5785
X0.8203Y-2.7
X0.8263Y-2.985
X0.8453Y-0.892
X0.8533Y-1.558
X0.8733Y-1.4
X0.8823Y-1.21
X0.8823Y-2.732
X0.8832Y-0.7247
X0.8832Y-0.7627
X0.8832Y-0.8077
X0.8832Y-0.8527
X0.8833Y-0.589
X0.8903Y-3.343
X0.8943Y-2.61
X0.8963Y-2.923
X0.8977Y-3.2159
X0.9144Y-4.11
X0.9217Y-2.9879
X0.9282Y-0.8067
X0.9293Y-2.732
X0.9303Y-1.21
X0.9303Y-1.399
X0.9343Y-2.545
X0.9493Y-2.668
X0.9683Y-3.654
X0.9723Y-1.21
X0.9773Y-1.399
X0.9773Y-2.221
X0.9843Y-0.463
X0.9883Y-1.993
X0.9927Y-2.545
X0.9947Y-2.9809
X0.9957Y-2.9029
X1.0013Y-2.669
X1.0083Y-2.732
X1.0253Y-1.399
X1.0313Y-1.211
X1.0313Y-2.303
X1.0343Y-2.649
X1.0433Y-0.884
X1.0711Y-2.545
X1.0713Y-1.21
X1.0713Y-1.399
X1.072Y-2.6114
X1.0733Y-2.398
X1.087Y-2.6657
X1.0873Y-2.732
X1.0915Y-4.11
X1.1193Y-1.21
X1.1193Y-1.399
X1.1247Y-2.9029
X1.1247Y-2.9809
X1.1293Y-2.092
X1.137Y-2.6161
X1.1393Y-3.571
X1.1473Y-1.85
X1.1493Y-2.5448
X1.1661Y-2.6657
X1.1663Y-1.21
X1.1663Y-1.399
X1.1663Y-2.732
X1.1743Y-2.616
X1.2047Y-2.9859
X1.2123Y-3.344
X1.2133Y-1.21
X1.2133Y-1.399
X1.2293Y-2.6677
X1.2339Y-2.6126
X1.2453Y-2.732
X1.2603Y-1.21
X1.2603Y-1.399
X1.2603Y-2.6677
X1.2613Y-0.862
X1.2613Y-3.135
X1.2686Y-4.11
X1.2903Y-2.923
X1.2923Y-2.732
X1.2929Y-2.6126
X1.2929Y-2.6677
X1.3047Y-2.5417
X1.3073Y-1.21
X1.3073Y-1.399
X1.3103Y-2.272
X1.3163Y-0.227
X1.317Y-2.891
X1.3381Y-2.5417
X1.3393Y-2.732
X1.3394Y-2.6126
X1.3402Y-2.6677
X1.3553Y-1.21
X1.3553Y-1.399
X1.365Y-0.3717
X1.3763Y-2.979
X1.3853Y-2.493
X1.3873Y-2.732
X1.3874Y-2.6677
X1.3893Y-2.5417
X1.3929Y-2.6126
X1.4023Y-1.21
X1.4023Y-1.399
X1.4103Y-0.864
X1.4328Y-2.6615
X1.4332Y-2.7257
X1.4343Y-2.149
X1.4403Y-0.693
X1.4457Y-4.11
X1.4485Y-2.6737
X1.4493Y-1.21
X1.4493Y-1.399
X1.4497Y-2.7371
X1.4643Y-2.6615
X1.4658Y-2.7253
X1.48Y-2.6737
X1.4808Y-2.7383
X1.4958Y-2.6615
X1.4966Y-2.7257
X1.4973Y-1.21
X1.4973Y-1.399
X1.5073Y-2.803
X1.5073Y-2.9136
X1.5073Y-3.0202
X1.5073Y-3.1268
X1.5073Y-3.2334
X1.5073Y-3.34
X1.5115Y-2.6737
X1.5123Y-2.7379
X1.5443Y-1.21
X1.5443Y-1.399
X1.5713Y-2.296
X1.5893Y-0.692
X1.5903Y-2.545
X1.5903Y-2.6126
X1.5913Y-1.21
X1.5913Y-1.21
X1.5913Y-1.399
X1.5913Y-1.399
X1.6193Y-2.902
X1.6193Y-2.9994
X1.6193Y-3.0968
X1.6193Y-3.1942
X1.6193Y-3.2916
X1.6193Y-3.389
X1.6228Y-4.11
X1.6234Y-2.802
X1.6753Y-1.847
X1.7023Y-1.867
X1.7089Y-3.0531
X1.7129Y-3.2054
X1.7238Y-2.902
X1.7283Y-1.887
X1.7394Y-2.802
X1.7503Y-0.863
X1.7563Y-1.827
X1.7833Y-1.807
X1.7999Y-4.11
X1.8103Y-1.781
X1.8283Y-2.902
X1.8555Y-2.802
X1.8672Y-3.203
X1.8682Y-3.052
X1.9093Y-0.228
X1.9116Y-0.023
X1.9273Y-0.694
X1.9328Y-2.902
X1.9463Y-0.945
X1.9715Y-2.802
X1.977Y-4.11
X2.0013Y-0.145
X2.013Y-3.9541
X2.013Y-3.9821
X2.0142Y-3.518
X2.0142Y-3.544
X2.0142Y-3.809
X2.0142Y-3.837
X2.0143Y-3.664
X2.0143Y-3.69
X2.03Y-3.9681
X2.0302Y-3.8229
X2.0322Y-3.531
X2.0323Y-3.677
X2.0343Y-0.229
X2.0373Y-2.902
X2.0409Y-0.023
X2.0523Y-2.755
X2.0723Y-0.825
X2.0743Y-3.289
X2.0902Y-3.273
X2.0902Y-3.304
X2.1072Y-3.289
X2.1073Y-2.857
X2.1133Y-0.145
X2.1541Y-4.11
X2.1702Y-0.023
X2.2183Y-2.43
X2.2533Y-1.926
X2.2613Y-1.747
X2.2883Y-1.311
X2.2994Y-0.023
X2.3183Y-2.348
X2.3263Y-0.292
X2.3272Y-3.215
X2.3272Y-3.241
X2.3272Y-3.267
X2.3312Y-4.11
X2.3323Y-2.486
X2.3434Y-0.1316
X2.4064Y-2.432
X2.4287Y-0.023
X2.4293Y-0.5616
X2.4296Y-0.4614
X2.4443Y-0.132
X2.4483Y-1.15
X2.4521Y-2.9661
X2.4533Y-1.415
X2.4613Y-0.419
X2.4613Y-0.605
X2.4753Y-2.349
X2.4763Y-0.132
X2.4779Y-2.432
X2.5083Y-3.841
X2.5083Y-3.9307
X2.5083Y-4.0204
X2.5083Y-4.11
X2.5093Y-0.131
X2.5121Y-2.9661
X2.5374Y-3.2791
X2.5493Y-2.432
X2.5573Y-2.348
X2.558Y-0.023
X2.5593Y-0.2456
X2.5762Y-3.596
X2.5793Y-3.841
X2.5796Y-3.906
X2.5796Y-3.996
X2.5796Y-4.11
X2.5971Y-3.1661
X2.5971Y-3.7311
X2.5973Y-0.1396
X2.6012Y-3.572
X2.6032Y-3.536
X2.6036Y-0.242
X2.6091Y-2.8781
X2.6193Y-0.606
X2.6351Y-0.242
X2.6404Y-3.388
X2.6404Y-3.4411
X2.6404Y-3.4943
X2.6413Y-0.1396
X2.6413Y-1.236
X2.6533Y-3.286
X2.6571Y-3.7961
X2.6768Y-2.348
X2.6793Y-3.286
X2.6811Y-2.4661
X2.6814Y-0.1353
X2.6833Y-0.2436
X2.6873Y-0.023
X2.6916Y-3.388
X2.6916Y-3.4411
X2.6916Y-3.4943
X2.6951Y-3.841
X2.6952Y-3.906
X2.6975Y-4.11
X2.7133Y-0.606
X2.7213Y-0.405
X2.7373Y-4.036
X2.7421Y-3.7671
X2.7427Y-3.388
X2.7427Y-3.4411
X2.7427Y-3.4943
X2.7771Y-3.2361
X2.7939Y-3.388
X2.7939Y-3.4411
X2.7939Y-3.4943
X2.7963Y-2.348
X2.7971Y-3.2661
X2.8003Y-1.928
X2.8073Y-0.1356
X2.8083Y-1.747
X2.8108Y-3.906
X2.8109Y-3.841
X2.8154Y-4.11
X2.8166Y-0.023
X2.8173Y-2.432
X2.8271Y-3.3011
X2.8271Y-3.3511
X2.8381Y-3.7871
X2.8421Y-3.5261
X2.8693Y-3.3961
X2.8694Y-0.4616
X2.8713Y-0.5616
X2.8773Y-3.329
X2.9158Y-2.348
X2.9173Y-0.2396
X2.9176Y-0.1386
X2.9265Y-3.906
X2.9267Y-3.841
X2.9293Y-3.3311
X2.9333Y-4.11
X2.9333Y-4.037
X2.9397Y-2.432
X2.9458Y-0.023
X2.9511Y-2.8361
X2.9511Y-2.8981
X2.9633Y-3.4391
X3.0051Y-3.1541
X3.0051Y-3.2511
X3.0353Y-2.348
X3.0421Y-3.906
X3.0425Y-3.841
X3.0512Y-4.11
X3.062Y-2.432
X3.0751Y-0.023
X3.0763Y-0.607
X3.0892Y-3.4681
X3.1121Y-3.1541
X3.1241Y-3.2341
X3.1263Y-0.653
X3.1303Y-4.036
X3.1373Y-0.243
X3.1548Y-2.348
X3.1577Y-3.906
X3.1583Y-3.841
X3.1691Y-4.11
X3.1843Y-2.432
X3.1843Y-2.5542
X3.1843Y-2.6764
X3.1843Y-2.7986
X3.1843Y-2.9208
X3.1843Y-3.0429
X3.1843Y-3.2873
X3.1843Y-3.4095
X3.1843Y-3.5317
X3.1843Y-3.6539
X3.1843Y-3.776
X3.2044Y-0.023
X3.2323Y-0.246
X3.264Y-0.2433
X3.2733Y-3.906
X3.2743Y-2.348
X3.2743Y-2.432
X3.2743Y-2.5542
X3.2743Y-2.6764
X3.2743Y-2.7986
X3.2743Y-2.9208
X3.2743Y-3.043
X3.2743Y-3.2874
X3.2743Y-3.4096
X3.2743Y-3.5318
X3.2743Y-3.654
X3.2743Y-3.7761
X3.287Y-4.11
X3.3263Y-4.037
X3.3337Y-0.023
X3.3413Y-0.5616
X3.3453Y-3.989
X3.3533Y-1.922
X3.3653Y-0.5106
X3.3693Y-3.313
X3.3764Y-0.6106
X3.3843Y-1.745
X3.3933Y-3.692
X3.4049Y-4.11
X3.4063Y-2.696
X3.4063Y-3.096
X3.4073Y-2.913
X3.4583Y-2.45
X3.463Y-0.023
X3.4943Y-2.063
X3.4953Y-2.31
X3.5093Y-3.671
X3.5228Y-4.11
X3.5233Y-4.036
X3.5313Y-3.708
X3.5453Y-0.909
X3.5493Y-1.585
X3.5753Y-3.049
X3.5833Y-3.803
X3.5863Y-1.411
X3.5922Y-0.023
X3.6093Y-3.181
X3.6323Y-3.706
X3.6363Y-3.387
X3.6373Y-3.442
X3.6407Y-4.11
X3.6471Y-2.6171
X3.6481Y-2.7151
X3.6491Y-2.5261
X3.658Y-3.2336
X3.6618Y-1.0654
X3.6618Y-1.0984
X3.6623Y-2.42
X3.6633Y-3.05
X3.6823Y-3.816
X3.6873Y-3.554
X3.6933Y-2.135
X3.7043Y-3.939
X3.7093Y-3.078
X3.7203Y-4.035
X3.7215Y-0.023
X3.7223Y-2.571
X3.7238Y-1.0654
X3.7238Y-1.0984
X3.7243Y-2.668
X3.7253Y-2.435
X3.7323Y-3.705
X3.7353Y-1.56
X3.7443Y-1.927
X3.7586Y-4.11
X3.7683Y-2.337
X3.7693Y-2.407
X3.7813Y-3.815
X3.7883Y-4.035
X3.7938Y-1.0654
X3.7938Y-1.0984
X3.7993Y-2.63
X3.7993Y-2.71
X3.7993Y-2.79
X3.8025Y-2.275
X3.8083Y-3.713
X3.8113Y-3.606
X3.8233Y-0.996
X3.8233Y-1.029
X3.8233Y-1.42
X3.8303Y-1.251
X3.8363Y-3.914
X3.8393Y-2.665
X3.8393Y-2.752
X3.8508Y-0.023
X3.8523Y-2.274
X3.8533Y-3.829
X3.8543Y-1.42
X3.8553Y-1.385
X3.8553Y-1.453
X3.8553Y-3.868
X3.8765Y-4.11
X3.8793Y-2.63
X3.8793Y-2.71
X3.8793Y-2.79
X3.8823Y-1.235
X3.8833Y-1.42
X3.8983Y-3.722
X3.9085Y-2.407
X3.9085Y-2.477
X3.9093Y-2.337
X3.9123Y-1.283
X3.9203Y-1.986
X3.9248Y-1.0765
X3.9483Y-1.908
X3.9801Y-0.023
X3.9873Y-1.814
X3.9893Y-1.661
X3.9944Y-4.11
X3.9953Y-2.198
X4.0113Y-2.406
X4.0113Y-2.536
X4.1093Y-0.023
X4.1093Y-0.2575
X4.1093Y-0.3743
X4.1093Y-0.491
X4.1093Y-0.6078
X4.1093Y-0.7245
X4.1093Y-0.8412
X4.1093Y-0.958
X4.1093Y-1.0747
X4.1093Y-1.1915
X4.1093Y-1.3082
X4.1093Y-1.425
X4.1093Y-1.5417
X4.1093Y-1.6584
X4.1093Y-1.7752
X4.1093Y-1.8919
X4.1093Y-2.0087
X4.1093Y-2.1254
X4.1093Y-2.2422
X4.1093Y-2.3589
X4.1093Y-2.4756
X4.1093Y-2.5924
X4.1093Y-2.7091
X4.1093Y-2.8259
X4.1093Y-2.9426
X4.1093Y-3.2928
X4.1093Y-3.4096
X4.1093Y-3.5263
X4.1093Y-3.6431
X4.1093Y-3.7598
X4.1093Y-3.8766
X4.1093Y-3.9933
X4.1093Y-4.11
T2
X0.8191Y-3.1598
X0.8391Y-3.5398
X0.8391Y-3.5984
X0.8591Y-3.2598
X0.8991Y-3.1598
X0.9391Y-3.2598
X0.9791Y-3.1598
X1.0191Y-3.2598
X1.0991Y-3.2598
X1.1391Y-3.1598
X1.1791Y-3.2598
X1.2191Y-3.1598
X1.2591Y-3.2598
X1.2791Y-3.5398
X1.2791Y-3.5984
X1.2991Y-3.1598
T3
X0.1703Y-0.505
X0.1703Y-0.605
X0.1703Y-0.705
X0.1703Y-0.805
X1.0503Y-0.185
X1.0503Y-0.285
T4
X0.8191Y-3.0598
X0.9191Y-3.0598
X1.1991Y-3.0598
X1.2991Y-3.0598
T5
X0.7415Y-3.9848
X1.3766Y-3.9848
T6
X0.1575Y-0.1575
X0.1575Y-3.1102
X3.9764Y-0.1575
X3.9764Y-3.1102
T7
X2.4018Y-0.3503
T8
X3.3861Y-0.3503
T9
X2.4176Y-2.242
X3.3703Y-2.242
T10
X0.1779Y-1.3213
X0.1779Y-2.6205
X2.0676Y-1.3213
X2.0676Y-2.6205
T11
X0.8091Y-3.8598
X1.3091Y-3.8598
T3
G00X0.1666Y-3.7471
M15
G01X0.2453Y-3.7471
M16
G05
G00X0.1666Y-3.9833
M15
G01X0.2453Y-3.9833
M16
G05
G00X0.391Y-3.9046
M15
G01X0.391Y-3.8258
M16
G05
T0
M30
