M48
; DRILL file {KiCad 5.99.0-unknown-50e22de3ba~107~ubuntu20.04.1} date Wed Jan 20 17:19:24 2021
; FORMAT={-:-/ absolute / inch / decimal}
; #@! TF.CreationDate,2021-01-20T17:19:24-06:00
; #@! TF.GenerationSoftware,Kicad,Pcbnew,5.99.0-unknown-50e22de3ba~107~ubuntu20.04.1
; #@! TF.FileFunction,Plated,1,4,PTH
FMAT,2
INCH
T1C0.0079
T2C0.0350
T3C0.0394
T4C0.0433
T5C0.0620
T6C0.1457
%
G90
G05
T1
X0.6423Y-3.029
X0.6783Y-3.766
X0.6843Y-3.454
X0.7013Y-3.439
X0.7013Y-3.47
X0.7346Y-2.9217
X0.8203Y-2.5785
X0.8803Y-1.2139
X0.882Y-2.6713
X0.8822Y-2.5535
X0.8977Y-3.2159
X0.8985Y-1.3898
X0.9022Y-2.618
X0.9217Y-2.9879
X0.9269Y-1.395
X0.9292Y-1.213
X0.9446Y-2.539
X0.9762Y-1.213
X0.9763Y-2.6505
X0.9947Y-2.9809
X0.9957Y-2.9029
X0.997Y-2.6688
X1.0103Y-2.6079
X1.0139Y-2.7316
X1.0577Y-3.2259
X1.0607Y-2.9889
X1.0717Y-2.5414
X1.0815Y-1.0405
X1.0852Y-2.7284
X1.1247Y-2.9029
X1.1247Y-2.9809
X1.1505Y-2.5501
X1.167Y-2.728
X1.1972Y-0.6956
X1.2004Y-0.4456
X1.2035Y-0.8338
X1.2047Y-2.9859
X1.2288Y-2.5505
X1.2505Y-2.8454
X1.2733Y-2.7296
X1.2812Y-2.656
X1.3147Y-2.7292
X1.317Y-2.8447
X1.3592Y-2.732
X1.4328Y-2.6615
X1.4332Y-2.7257
X1.4485Y-2.6737
X1.4497Y-2.7371
X1.4602Y-2.466
X1.4643Y-2.6615
X1.4658Y-2.7253
X1.48Y-2.6737
X1.4808Y-2.7383
X1.4958Y-2.6615
X1.4966Y-2.7257
X1.5115Y-2.6737
X1.5123Y-2.7379
X1.5513Y-0.7347
X1.5513Y-0.8497
X1.5853Y-0.6177
X1.5863Y-0.5597
X1.5883Y-1.0817
X1.5906Y-2.5513
X1.6163Y-0.8527
X1.6203Y-0.7347
X1.7043Y-0.7377
X1.7089Y-3.0531
X1.7129Y-3.2054
X1.776Y-0.5287
X1.8672Y-3.203
X1.8682Y-3.052
X1.9853Y-0.7247
X1.9853Y-0.7627
X1.9853Y-0.8077
X1.9853Y-0.8527
X2.013Y-3.9541
X2.013Y-3.9821
X2.0142Y-3.518
X2.0142Y-3.544
X2.0142Y-3.809
X2.0142Y-3.837
X2.0143Y-3.664
X2.0143Y-3.69
X2.03Y-3.9681
X2.0302Y-3.8229
X2.0303Y-0.8067
X2.0322Y-3.531
X2.0323Y-3.677
X2.0902Y-3.273
X2.0902Y-3.304
X2.0953Y-0.9627
X2.1072Y-3.289
X2.1903Y-0.9627
X2.3272Y-3.215
X2.3272Y-3.241
X2.3272Y-3.267
X2.3443Y-2.318
X2.3456Y-2.28
X2.4225Y-1.783
X2.4315Y-1.883
X2.4521Y-2.9661
X2.4555Y-1.832
X2.5121Y-2.9661
X2.5431Y-2.4761
X2.5646Y-2.1433
X2.5762Y-3.596
X2.5971Y-3.1661
X2.5971Y-3.7311
X2.6012Y-3.572
X2.6032Y-3.536
X2.6091Y-2.8781
X2.6371Y-3.2561
X2.6404Y-3.388
X2.6404Y-3.4411
X2.6404Y-3.4943
X2.6571Y-3.7961
X2.6593Y-4.007
X2.6811Y-2.4661
X2.6851Y-2.2059
X2.6916Y-3.388
X2.6916Y-3.4411
X2.6916Y-3.4943
X2.7421Y-3.7671
X2.7427Y-3.388
X2.7427Y-3.4411
X2.7427Y-3.4943
X2.7771Y-3.2361
X2.7895Y-1.783
X2.7939Y-3.388
X2.7939Y-3.4411
X2.7939Y-3.4943
X2.7971Y-3.2661
X2.8191Y-2.4691
X2.8271Y-3.3011
X2.8271Y-3.3511
X2.8381Y-3.7871
X2.8421Y-3.5261
X2.8485Y-1.6858
X2.8503Y-4.008
X2.8792Y-2.255
X2.8795Y-2.154
X2.8821Y-3.3311
X2.8821Y-3.3961
X2.9235Y-1.727
X2.9255Y-1.832
X2.9274Y-1.932
X2.9421Y-3.3311
X2.9511Y-2.8361
X2.9511Y-2.8981
X2.9761Y-3.4391
X2.9885Y-2.153
X2.9895Y-2.258
X3.0051Y-3.1541
X3.0051Y-3.2511
X3.0635Y-1.782
X3.0781Y-3.6051
X3.0925Y-1.999
X3.1121Y-3.1541
X3.1135Y-2.15
X3.1154Y-2.2583
X3.1241Y-3.2341
X3.1354Y-3.9532
X3.1555Y-2.254
X3.1617Y-2.1516
X3.1874Y-2.4502
X3.1874Y-2.6928
X3.1874Y-2.9353
X3.1885Y-1.782
X3.1901Y-3.2966
X3.1901Y-3.5391
X3.1922Y-4.0722
X3.1932Y-2.1516
X3.1995Y-2.254
X3.2375Y-2.148
X3.2705Y-2.4525
X3.2705Y-2.6947
X3.2705Y-2.9369
X3.2733Y-3.2996
X3.2733Y-3.5418
X3.3335Y-1.783
X3.3365Y-1.981
X3.3674Y-1.932
X3.3675Y-1.832
X3.4533Y-2.262
X3.6011Y-2.5691
X3.6021Y-2.6711
X3.6053Y-1.7639
X3.6053Y-1.7969
X3.6403Y-2.397
X3.6471Y-2.6171
X3.6481Y-2.7151
X3.6491Y-2.5261
X3.6653Y-1.7639
X3.6653Y-1.7969
X3.7271Y-3.6821
X3.7273Y-1.7639
X3.7273Y-1.7969
X3.7683Y-2.337
X3.7693Y-2.407
X3.7973Y-1.7639
X3.7973Y-1.7969
X3.7993Y-2.63
X3.7993Y-2.71
X3.7993Y-2.79
X3.8025Y-2.275
X3.8253Y-1.5739
X3.8353Y-1.425
X3.8393Y-2.665
X3.8393Y-2.752
X3.8523Y-2.274
X3.8663Y-1.425
X3.8793Y-2.63
X3.8793Y-2.71
X3.8793Y-2.79
X3.8983Y-1.425
X3.9085Y-2.407
X3.9085Y-2.477
X3.9093Y-2.337
X3.9283Y-1.775
X3.9293Y-1.425
X4.0225Y-2.399
X4.0285Y-2.535
X4.1013Y-2.271
T2
X0.8191Y-3.1598
X0.8391Y-3.5398
X0.8391Y-3.5984
X0.8591Y-3.2598
X0.8991Y-3.1598
X0.9391Y-3.2598
X0.9791Y-3.1598
X1.0191Y-3.2598
X1.0991Y-3.2598
X1.1391Y-3.1598
X1.1791Y-3.2598
X1.2191Y-3.1598
X1.2591Y-3.2598
X1.2791Y-3.5398
X1.2791Y-3.5984
X1.2991Y-3.1598
T3
X1.0137Y-0.7603
X1.1137Y-0.7603
X1.4503Y-0.8997
X1.4523Y-0.6037
X3.3333Y-2.356
X3.5343Y-2.355
X3.8853Y-1.588
X3.9043Y-0.853
X4.0423Y-0.853
T4
X0.8191Y-3.0598
X0.9191Y-3.0598
X1.1991Y-3.0598
X1.2991Y-3.0598
T5
X0.7415Y-3.9848
X1.3766Y-3.9848
T6
X0.1575Y-0.1575
X0.1575Y-3.1102
X3.9764Y-0.1575
X3.9764Y-3.1102
T3
G00X0.1666Y-3.7471
M15
G01X0.2453Y-3.7471
M16
G05
G00X0.1666Y-3.9833
M15
G01X0.2453Y-3.9833
M16
G05
G00X0.391Y-3.9046
M15
G01X0.391Y-3.8258
M16
G05
T0
M30
