G04 #@! TF.GenerationSoftware,KiCad,Pcbnew,5.99.0-unknown-50e22de3ba~107~ubuntu20.04.1*
G04 #@! TF.CreationDate,2021-01-25T09:59:02-06:00*
G04 #@! TF.ProjectId,AP3500,41503335-3030-42e6-9b69-6361645f7063,rev?*
G04 #@! TF.SameCoordinates,Original*
G04 #@! TF.FileFunction,Soldermask,Bot*
G04 #@! TF.FilePolarity,Negative*
%FSLAX46Y46*%
G04 Gerber Fmt 4.6, Leading zero omitted, Abs format (unit mm)*
G04 Created by KiCad (PCBNEW 5.99.0-unknown-50e22de3ba~107~ubuntu20.04.1) date 2021-01-25 09:59:02*
%MOMM*%
%LPD*%
G01*
G04 APERTURE LIST*
G04 Aperture macros list*
%AMRoundRect*
0 Rectangle with rounded corners*
0 $1 Rounding radius*
0 $2 $3 $4 $5 $6 $7 $8 $9 X,Y pos of 4 corners*
0 Add a 4 corners polygon primitive as box body*
4,1,4,$2,$3,$4,$5,$6,$7,$8,$9,$2,$3,0*
0 Add four circle primitives for the rounded corners*
1,1,$1+$1,$2,$3*
1,1,$1+$1,$4,$5*
1,1,$1+$1,$6,$7*
1,1,$1+$1,$8,$9*
0 Add four rect primitives between the rounded corners*
20,1,$1+$1,$2,$3,$4,$5,0*
20,1,$1+$1,$4,$5,$6,$7,0*
20,1,$1+$1,$6,$7,$8,$9,0*
20,1,$1+$1,$8,$9,$2,$3,0*%
G04 Aperture macros list end*
G04 #@! TA.AperFunction,Profile*
%ADD10C,0.100000*%
G04 #@! TD*
%ADD11R,3.500000X3.500000*%
%ADD12RoundRect,0.750000X1.000000X-0.750000X1.000000X0.750000X-1.000000X0.750000X-1.000000X-0.750000X0*%
%ADD13RoundRect,0.875000X0.875000X-0.875000X0.875000X0.875000X-0.875000X0.875000X-0.875000X-0.875000X0*%
%ADD14C,5.000000*%
%ADD15C,1.600000*%
%ADD16C,1.100000*%
%ADD17C,4.100000*%
%ADD18C,7.400000*%
%ADD19R,1.700000X1.700000*%
%ADD20O,1.700000X1.700000*%
%ADD21C,6.100000*%
%ADD22R,1.398000X1.398000*%
%ADD23C,1.398000*%
%ADD24C,1.200000*%
%ADD25C,1.650000*%
%ADD26C,2.362500*%
%ADD27C,3.250000*%
G04 APERTURE END LIST*
D10*
X105000000Y0D02*
X105000000Y-105000000D01*
X0Y0D02*
X105000000Y0D01*
X0Y-105000000D02*
X105000000Y-105000000D01*
X0Y-105000000D02*
X0Y0D01*
D11*
X5230671Y-95176004D03*
D12*
X5230671Y-101176004D03*
D13*
X9930671Y-98176004D03*
D14*
X85606800Y-56947800D03*
D15*
X86006800Y-8897800D03*
D14*
X61406800Y-56947800D03*
D16*
X61006800Y-8897800D03*
D17*
X101000000Y-4000000D03*
D18*
X101000000Y-4000000D03*
D19*
X26678800Y-4700000D03*
D20*
X26678800Y-7240000D03*
D19*
X4326800Y-12828000D03*
D20*
X4326800Y-15368000D03*
X4326800Y-17908000D03*
X4326800Y-20448000D03*
D21*
X52517398Y-66561790D03*
X4517398Y-33561790D03*
X52517398Y-33561790D03*
X4517398Y-66561790D03*
D18*
X101000000Y-79000000D03*
D17*
X101000000Y-79000000D03*
D22*
X31980000Y-82800000D03*
D23*
X29948000Y-82800000D03*
X27916000Y-82800000D03*
X25884000Y-82800000D03*
X23852000Y-82800000D03*
X21820000Y-82800000D03*
X32996000Y-80260000D03*
X30964000Y-80260000D03*
X28932000Y-80260000D03*
X24868000Y-80260000D03*
X22836000Y-80260000D03*
X20804000Y-80260000D03*
D24*
X32488000Y-89910000D03*
X21312000Y-89910000D03*
X32488000Y-91400000D03*
X21312000Y-91400000D03*
D25*
X32996000Y-77720000D03*
X30456000Y-77720000D03*
X23344000Y-77720000D03*
X20804000Y-77720000D03*
D26*
X34965000Y-101215000D03*
X18835000Y-101215000D03*
D27*
X33250000Y-98040000D03*
X20550000Y-98040000D03*
D18*
X4000000Y-4000000D03*
D17*
X4000000Y-4000000D03*
X4000000Y-79000000D03*
D18*
X4000000Y-79000000D03*
M02*
