<?xml version="1.0"?>
<!DOCTYPE svg PUBLIC "-//W3C//DTD SVG 1.1//EN" "http://www.w3.org/Graphics/SVG/1.1/DTD/svg11.dtd">
<svg width="110.16mm" height="112.16mm" viewBox="0 0 110.16 112.16" xmlns="http://www.w3.org/2000/svg" version="1.1">
<g id="Pad" transform="translate(1.080000,1.080000) scale(1,-1)">
<path id="Pad_f0000"  d="M 108.0 0.0 L 0.0 0.0 L 0.0 0.0 L 108.0 0.0 L 108.0 0.0 Z " stroke="#191919" stroke-width="0.35 px" style="stroke-width:0.35;stroke-miterlimit:4;stroke-dasharray:none;fill:#cccccc;fill-opacity:1.0;fill-rule: evenodd"/>
<path id="Pad_f0001"  d="M 108.0 -110.0 L 108.0 0.0 L 108.0 0.0 L 108.0 -110.0 L 108.0 -110.0 Z " stroke="#191919" stroke-width="0.35 px" style="stroke-width:0.35;stroke-miterlimit:4;stroke-dasharray:none;fill:#cccccc;fill-opacity:1.0;fill-rule: evenodd"/>
<path id="Pad_f0002"  d="M 0.0 -110.0 L 108.0 -110.0 L 108.0 -110.0 L 0.0 -110.0 L 0.0 -110.0 Z " stroke="#191919" stroke-width="0.35 px" style="stroke-width:0.35;stroke-miterlimit:4;stroke-dasharray:none;fill:#cccccc;fill-opacity:1.0;fill-rule: evenodd"/>
<path id="Pad_f0003"  d="M 0.0 0.0 L 0.0 -110.0 L 0.0 -110.0 L 0.0 0.0 L 0.0 0.0 Z " stroke="#191919" stroke-width="0.35 px" style="stroke-width:0.35;stroke-miterlimit:4;stroke-dasharray:none;fill:#cccccc;fill-opacity:1.0;fill-rule: evenodd"/>
<path id="Pad_f0004"  d="M 108.0 0.0 L 108.0 -110.0 L 0.0 -110.0 L 0.0 0.0 L 108.0 0.0 Z " stroke="#191919" stroke-width="0.35 px" style="stroke-width:0.35;stroke-miterlimit:4;stroke-dasharray:none;fill:#cccccc;fill-opacity:1.0;fill-rule: evenodd"/>
<path id="Pad_f0005"  d="M 0.0 0.0 L 108.0 0.0 L 108.0 -110.0 L 0.0 -110.0 L 0.0 0.0 Z " stroke="#191919" stroke-width="0.35 px" style="stroke-width:0.35;stroke-miterlimit:4;stroke-dasharray:none;fill:#cccccc;fill-opacity:1.0;fill-rule: evenodd"/>
<title>b'Pad'</title>
</g>
</svg>