<?xml version="1.0"?>
<!DOCTYPE svg PUBLIC "-//W3C//DTD SVG 1.1//EN" "http://www.w3.org/Graphics/SVG/1.1/DTD/svg11.dtd">
<svg width="110.16mm" height="112.16mm" viewBox="0 0 110.16 112.16" xmlns="http://www.w3.org/2000/svg" version="1.1">
<g id="Body" transform="translate(1.080000,1.080000) scale(1,-1)">
<path id="Body_f0000"  d="M 108.0 0.0 L 0.0 0.0 L 0.0 0.0 L 108.0 0.0 L 108.0 0.0 Z " stroke="#191919" stroke-width="0.35 px" style="stroke-width:0.35;stroke-miterlimit:4;stroke-dasharray:none;fill:#cccccc;fill-opacity:1.0;fill-rule: evenodd"/>
<path id="Body_f0001"  d="M 0.0 0.0 L 0.0 -110.0 L 0.0 -110.0 L 0.0 0.0 L 0.0 0.0 Z " stroke="#191919" stroke-width="0.35 px" style="stroke-width:0.35;stroke-miterlimit:4;stroke-dasharray:none;fill:#cccccc;fill-opacity:1.0;fill-rule: evenodd"/>
<path id="Body_f0002"  d="M 108.0 -110.0 L 108.0 0.0 L 108.0 0.0 L 108.0 -110.0 L 108.0 -110.0 Z " stroke="#191919" stroke-width="0.35 px" style="stroke-width:0.35;stroke-miterlimit:4;stroke-dasharray:none;fill:#cccccc;fill-opacity:1.0;fill-rule: evenodd"/>
<circle cx="103.0" cy="-105.0" r="4.0" stroke="#191919" stroke-width="0.35 px" style="stroke-width:0.35;stroke-miterlimit:4;stroke-dasharray:none;fill:#cccccc"/>
<circle cx="103.0" cy="-105.0" r="4.0" stroke="#191919" stroke-width="0.35 px" style="stroke-width:0.35;stroke-miterlimit:4;stroke-dasharray:none;fill:#cccccc"/>
<path id="Body_f0005"  d="M 11.0 -110.0 L 11.0 -110.0 L 0.0 -110.0 L 0.0 -110.0 L 11.0 -110.0 Z " stroke="#191919" stroke-width="0.35 px" style="stroke-width:0.35;stroke-miterlimit:4;stroke-dasharray:none;fill:#cccccc;fill-opacity:1.0;fill-rule: evenodd"/>
<path id="Body_f0006"  d="M 92.404358 -110.0 L 92.404358 -110.0 L 108.0 -110.0 L 108.0 -110.0 L 92.404358 -110.0 Z " stroke="#191919" stroke-width="0.35 px" style="stroke-width:0.35;stroke-miterlimit:4;stroke-dasharray:none;fill:#cccccc;fill-opacity:1.0;fill-rule: evenodd"/>
<path id="Body_f0007"  d="M 11.0 -100.0 L 11.0 -110.0 L 11.0 -110.0 L 11.0 -100.0 L 11.0 -100.0 Z " stroke="#191919" stroke-width="0.35 px" style="stroke-width:0.35;stroke-miterlimit:4;stroke-dasharray:none;fill:#cccccc;fill-opacity:1.0;fill-rule: evenodd"/>
<path id="Body_f0008"  d="M 47.5 -100.0 L 11.0 -100.0 L 11.0 -100.0 L 47.5 -100.0 L 47.5 -100.0 Z " stroke="#191919" stroke-width="0.35 px" style="stroke-width:0.35;stroke-miterlimit:4;stroke-dasharray:none;fill:#cccccc;fill-opacity:1.0;fill-rule: evenodd"/>
<path id="Body_f0009"  d="M 47.5 -78.0 L 47.5 -100.0 L 47.5 -100.0 L 47.5 -78.0 L 47.5 -78.0 Z " stroke="#191919" stroke-width="0.35 px" style="stroke-width:0.35;stroke-miterlimit:4;stroke-dasharray:none;fill:#cccccc;fill-opacity:1.0;fill-rule: evenodd"/>
<path id="Body_f0010"  d="M 67.0 -78.0 L 47.5 -78.0 L 47.5 -78.0 L 67.0 -78.0 L 67.0 -78.0 Z " stroke="#191919" stroke-width="0.35 px" style="stroke-width:0.35;stroke-miterlimit:4;stroke-dasharray:none;fill:#cccccc;fill-opacity:1.0;fill-rule: evenodd"/>
<path id="Body_f0011"  d="M 92.404358 -100.0 L 67.0 -78.0 L 67.0 -78.0 L 92.404358 -100.0 L 92.404358 -100.0 Z " stroke="#191919" stroke-width="0.35 px" style="stroke-width:0.35;stroke-miterlimit:4;stroke-dasharray:none;fill:#cccccc;fill-opacity:1.0;fill-rule: evenodd"/>
<path id="Body_f0012"  d="M 92.404358 -110.0 L 92.404358 -100.0 L 92.404358 -100.0 L 92.404358 -110.0 L 92.404358 -110.0 Z " stroke="#191919" stroke-width="0.35 px" style="stroke-width:0.35;stroke-miterlimit:4;stroke-dasharray:none;fill:#cccccc;fill-opacity:1.0;fill-rule: evenodd"/>
<circle cx="103.0" cy="-105.0" r="4.0" stroke="#191919" stroke-width="0.35 px" style="stroke-width:0.35;stroke-miterlimit:4;stroke-dasharray:none;fill:#cccccc"/>
<circle cx="104.472" cy="-92.965" r="1.025" stroke="#191919" stroke-width="0.35 px" style="stroke-width:0.35;stroke-miterlimit:4;stroke-dasharray:none;fill:#cccccc"/>
<circle cx="5.0" cy="-105.0" r="4.0" stroke="#191919" stroke-width="0.35 px" style="stroke-width:0.35;stroke-miterlimit:4;stroke-dasharray:none;fill:#cccccc"/>
<circle cx="41.972" cy="-84.965" r="1.025" stroke="#191919" stroke-width="0.35 px" style="stroke-width:0.35;stroke-miterlimit:4;stroke-dasharray:none;fill:#cccccc"/>
<circle cx="8.972" cy="-84.965" r="1.025" stroke="#191919" stroke-width="0.35 px" style="stroke-width:0.35;stroke-miterlimit:4;stroke-dasharray:none;fill:#cccccc"/>
<circle cx="101.972" cy="-36.965" r="1.025" stroke="#191919" stroke-width="0.35 px" style="stroke-width:0.35;stroke-miterlimit:4;stroke-dasharray:none;fill:#cccccc"/>
<circle cx="103.0" cy="-25.0" r="4.0" stroke="#191919" stroke-width="0.35 px" style="stroke-width:0.35;stroke-miterlimit:4;stroke-dasharray:none;fill:#cccccc"/>
<circle cx="41.972" cy="-36.965" r="1.025" stroke="#191919" stroke-width="0.35 px" style="stroke-width:0.35;stroke-miterlimit:4;stroke-dasharray:none;fill:#cccccc"/>
<path id="Body_f0021"  d="M 69.0 -19.5 L 39.0 -19.5 L 39.0 -19.5 L 69.0 -19.5 L 69.0 -19.5 Z " stroke="#191919" stroke-width="0.35 px" style="stroke-width:0.35;stroke-miterlimit:4;stroke-dasharray:none;fill:#cccccc;fill-opacity:1.0;fill-rule: evenodd"/>
<path id="Body_f0022"  d="M 69.0 -24.5 L 69.0 -19.5 L 69.0 -19.5 L 69.0 -24.5 L 69.0 -24.5 Z " stroke="#191919" stroke-width="0.35 px" style="stroke-width:0.35;stroke-miterlimit:4;stroke-dasharray:none;fill:#cccccc;fill-opacity:1.0;fill-rule: evenodd"/>
<path id="Body_f0023"  d="M 39.0 -24.5 L 69.0 -24.5 L 69.0 -24.5 L 39.0 -24.5 L 39.0 -24.5 Z " stroke="#191919" stroke-width="0.35 px" style="stroke-width:0.35;stroke-miterlimit:4;stroke-dasharray:none;fill:#cccccc;fill-opacity:1.0;fill-rule: evenodd"/>
<path id="Body_f0024"  d="M 39.0 -19.5 L 39.0 -24.5 L 39.0 -24.5 L 39.0 -19.5 L 39.0 -19.5 Z " stroke="#191919" stroke-width="0.35 px" style="stroke-width:0.35;stroke-miterlimit:4;stroke-dasharray:none;fill:#cccccc;fill-opacity:1.0;fill-rule: evenodd"/>
<circle cx="8.972" cy="-36.965" r="1.025" stroke="#191919" stroke-width="0.35 px" style="stroke-width:0.35;stroke-miterlimit:4;stroke-dasharray:none;fill:#cccccc"/>
<circle cx="5.0" cy="-25.0" r="4.0" stroke="#191919" stroke-width="0.35 px" style="stroke-width:0.35;stroke-miterlimit:4;stroke-dasharray:none;fill:#cccccc"/>
<title>b'Body'</title>
</g>
</svg>