%TF.GenerationSoftware,KiCad,Pcbnew,5.99.0-unknown-f19440f72~106~ubuntu20.04.1*%
%TF.CreationDate,2020-11-18T11:03:40-06:00*%
%TF.ProjectId,FlatAntPanel4x4,466c6174-416e-4745-9061-6e656c347834,rev?*%
%TF.SameCoordinates,Original*%
%TF.FileFunction,Copper,L1,Top*%
%TF.FilePolarity,Positive*%
%FSLAX46Y46*%
G04 Gerber Fmt 4.6, Leading zero omitted, Abs format (unit mm)*
G04 Created by KiCad (PCBNEW 5.99.0-unknown-f19440f72~106~ubuntu20.04.1) date 2020-11-18 11:03:40*
%MOMM*%
%LPD*%
G01*
G04 APERTURE LIST*
%TA.AperFunction,NonConductor*%
%ADD10C,0.100000*%
%TD*%
%TA.AperFunction,EtchedComponent*%
%ADD11C,0.010000*%
%TD*%
%TA.AperFunction,ComponentPad*%
%ADD12C,2.900000*%
%TD*%
%TA.AperFunction,ConnectorPad*%
%ADD13C,5.000000*%
%TD*%
%TA.AperFunction,WasherPad*%
%ADD14C,1.524000*%
%TD*%
%TA.AperFunction,Conductor*%
%ADD15C,0.500000*%
%TD*%
G04 APERTURE END LIST*
D10*
X134835169Y-87311034D02*
X132835169Y-87311034D01*
X132835169Y-87311034D02*
X132835169Y-80750846D01*
X132835169Y-80750846D02*
X134835169Y-80750846D01*
X134835169Y-80750846D02*
X134835169Y-87311034D01*
G36*
X134835169Y-87311034D02*
G01*
X132835169Y-87311034D01*
X132835169Y-80750846D01*
X134835169Y-80750846D01*
X134835169Y-87311034D01*
G37*
X134835169Y-87311034D02*
X132835169Y-87311034D01*
X132835169Y-80750846D01*
X134835169Y-80750846D01*
X134835169Y-87311034D01*
X76825171Y-203298467D02*
X74825171Y-203298467D01*
X74825171Y-203298467D02*
X74825171Y-196750844D01*
X74825171Y-196750844D02*
X76825171Y-196750844D01*
X76825171Y-196750844D02*
X76825171Y-203298467D01*
G36*
X76825171Y-203298467D02*
G01*
X74825171Y-203298467D01*
X74825171Y-196750844D01*
X76825171Y-196750844D01*
X76825171Y-203298467D01*
G37*
X76825171Y-203298467D02*
X74825171Y-203298467D01*
X74825171Y-196750844D01*
X76825171Y-196750844D01*
X76825171Y-203298467D01*
X132789998Y-85100000D02*
X126834827Y-85100000D01*
X126834827Y-85100000D02*
X126834827Y-83100000D01*
X126834827Y-83100000D02*
X132789998Y-83100000D01*
X132789998Y-83100000D02*
X132789998Y-85100000D01*
G36*
X132789998Y-85100000D02*
G01*
X126834827Y-85100000D01*
X126834827Y-83100000D01*
X132789998Y-83100000D01*
X132789998Y-85100000D01*
G37*
X132789998Y-85100000D02*
X126834827Y-85100000D01*
X126834827Y-83100000D01*
X132789998Y-83100000D01*
X132789998Y-85100000D01*
X134835169Y-145311034D02*
X132835169Y-145311034D01*
X132835169Y-145311034D02*
X132835169Y-138750846D01*
X132835169Y-138750846D02*
X134835169Y-138750846D01*
X134835169Y-138750846D02*
X134835169Y-145311034D01*
G36*
X134835169Y-145311034D02*
G01*
X132835169Y-145311034D01*
X132835169Y-138750846D01*
X134835169Y-138750846D01*
X134835169Y-145311034D01*
G37*
X134835169Y-145311034D02*
X132835169Y-145311034D01*
X132835169Y-138750846D01*
X134835169Y-138750846D01*
X134835169Y-145311034D01*
X76825171Y-87298467D02*
X74825171Y-87298467D01*
X74825171Y-87298467D02*
X74825171Y-80750844D01*
X74825171Y-80750844D02*
X76825171Y-80750844D01*
X76825171Y-80750844D02*
X76825171Y-87298467D01*
G36*
X76825171Y-87298467D02*
G01*
X74825171Y-87298467D01*
X74825171Y-80750844D01*
X76825171Y-80750844D01*
X76825171Y-87298467D01*
G37*
X76825171Y-87298467D02*
X74825171Y-87298467D01*
X74825171Y-80750844D01*
X76825171Y-80750844D01*
X76825171Y-87298467D01*
X82825171Y-27000000D02*
X76870000Y-27000000D01*
X76870000Y-27000000D02*
X76870000Y-25000000D01*
X76870000Y-25000000D02*
X82825171Y-25000000D01*
X82825171Y-25000000D02*
X82825171Y-27000000D01*
G36*
X82825171Y-27000000D02*
G01*
X76870000Y-27000000D01*
X76870000Y-25000000D01*
X82825171Y-25000000D01*
X82825171Y-27000000D01*
G37*
X82825171Y-27000000D02*
X76870000Y-27000000D01*
X76870000Y-25000000D01*
X82825171Y-25000000D01*
X82825171Y-27000000D01*
X82825171Y-85000000D02*
X76870000Y-85000000D01*
X76870000Y-85000000D02*
X76870000Y-83000000D01*
X76870000Y-83000000D02*
X82825171Y-83000000D01*
X82825171Y-83000000D02*
X82825171Y-85000000D01*
G36*
X82825171Y-85000000D02*
G01*
X76870000Y-85000000D01*
X76870000Y-83000000D01*
X82825171Y-83000000D01*
X82825171Y-85000000D01*
G37*
X82825171Y-85000000D02*
X76870000Y-85000000D01*
X76870000Y-83000000D01*
X82825171Y-83000000D01*
X82825171Y-85000000D01*
X76825171Y-29298467D02*
X74825171Y-29298467D01*
X74825171Y-29298467D02*
X74825171Y-22750844D01*
X74825171Y-22750844D02*
X76825171Y-22750844D01*
X76825171Y-22750844D02*
X76825171Y-29298467D01*
G36*
X76825171Y-29298467D02*
G01*
X74825171Y-29298467D01*
X74825171Y-22750844D01*
X76825171Y-22750844D01*
X76825171Y-29298467D01*
G37*
X76825171Y-29298467D02*
X74825171Y-29298467D01*
X74825171Y-22750844D01*
X76825171Y-22750844D01*
X76825171Y-29298467D01*
X132789998Y-27100000D02*
X126834827Y-27100000D01*
X126834827Y-27100000D02*
X126834827Y-25100000D01*
X126834827Y-25100000D02*
X132789998Y-25100000D01*
X132789998Y-25100000D02*
X132789998Y-27100000D01*
G36*
X132789998Y-27100000D02*
G01*
X126834827Y-27100000D01*
X126834827Y-25100000D01*
X132789998Y-25100000D01*
X132789998Y-27100000D01*
G37*
X132789998Y-27100000D02*
X126834827Y-27100000D01*
X126834827Y-25100000D01*
X132789998Y-25100000D01*
X132789998Y-27100000D01*
X132789998Y-143100000D02*
X126834827Y-143100000D01*
X126834827Y-143100000D02*
X126834827Y-141100000D01*
X126834827Y-141100000D02*
X132789998Y-141100000D01*
X132789998Y-141100000D02*
X132789998Y-143100000D01*
G36*
X132789998Y-143100000D02*
G01*
X126834827Y-143100000D01*
X126834827Y-141100000D01*
X132789998Y-141100000D01*
X132789998Y-143100000D01*
G37*
X132789998Y-143100000D02*
X126834827Y-143100000D01*
X126834827Y-141100000D01*
X132789998Y-141100000D01*
X132789998Y-143100000D01*
X82825171Y-143000000D02*
X76870000Y-143000000D01*
X76870000Y-143000000D02*
X76870000Y-141000000D01*
X76870000Y-141000000D02*
X82825171Y-141000000D01*
X82825171Y-141000000D02*
X82825171Y-143000000D01*
G36*
X82825171Y-143000000D02*
G01*
X76870000Y-143000000D01*
X76870000Y-141000000D01*
X82825171Y-141000000D01*
X82825171Y-143000000D01*
G37*
X82825171Y-143000000D02*
X76870000Y-143000000D01*
X76870000Y-141000000D01*
X82825171Y-141000000D01*
X82825171Y-143000000D01*
X132789998Y-201100000D02*
X126834827Y-201100000D01*
X126834827Y-201100000D02*
X126834827Y-199100000D01*
X126834827Y-199100000D02*
X132789998Y-199100000D01*
X132789998Y-199100000D02*
X132789998Y-201100000D01*
G36*
X132789998Y-201100000D02*
G01*
X126834827Y-201100000D01*
X126834827Y-199100000D01*
X132789998Y-199100000D01*
X132789998Y-201100000D01*
G37*
X132789998Y-201100000D02*
X126834827Y-201100000D01*
X126834827Y-199100000D01*
X132789998Y-199100000D01*
X132789998Y-201100000D01*
X134835169Y-203311034D02*
X132835169Y-203311034D01*
X132835169Y-203311034D02*
X132835169Y-196750846D01*
X132835169Y-196750846D02*
X134835169Y-196750846D01*
X134835169Y-196750846D02*
X134835169Y-203311034D01*
G36*
X134835169Y-203311034D02*
G01*
X132835169Y-203311034D01*
X132835169Y-196750846D01*
X134835169Y-196750846D01*
X134835169Y-203311034D01*
G37*
X134835169Y-203311034D02*
X132835169Y-203311034D01*
X132835169Y-196750846D01*
X134835169Y-196750846D01*
X134835169Y-203311034D01*
X82825171Y-201000000D02*
X76870000Y-201000000D01*
X76870000Y-201000000D02*
X76870000Y-199000000D01*
X76870000Y-199000000D02*
X82825171Y-199000000D01*
X82825171Y-199000000D02*
X82825171Y-201000000D01*
G36*
X82825171Y-201000000D02*
G01*
X76870000Y-201000000D01*
X76870000Y-199000000D01*
X82825171Y-199000000D01*
X82825171Y-201000000D01*
G37*
X82825171Y-201000000D02*
X76870000Y-201000000D01*
X76870000Y-199000000D01*
X82825171Y-199000000D01*
X82825171Y-201000000D01*
X76825171Y-145298467D02*
X74825171Y-145298467D01*
X74825171Y-145298467D02*
X74825171Y-138750844D01*
X74825171Y-138750844D02*
X76825171Y-138750844D01*
X76825171Y-138750844D02*
X76825171Y-145298467D01*
G36*
X76825171Y-145298467D02*
G01*
X74825171Y-145298467D01*
X74825171Y-138750844D01*
X76825171Y-138750844D01*
X76825171Y-145298467D01*
G37*
X76825171Y-145298467D02*
X74825171Y-145298467D01*
X74825171Y-138750844D01*
X76825171Y-138750844D01*
X76825171Y-145298467D01*
X134835169Y-29311034D02*
X132835169Y-29311034D01*
X132835169Y-29311034D02*
X132835169Y-22750846D01*
X132835169Y-22750846D02*
X134835169Y-22750846D01*
X134835169Y-22750846D02*
X134835169Y-29311034D01*
G36*
X134835169Y-29311034D02*
G01*
X132835169Y-29311034D01*
X132835169Y-22750846D01*
X134835169Y-22750846D01*
X134835169Y-29311034D01*
G37*
X134835169Y-29311034D02*
X132835169Y-29311034D01*
X132835169Y-22750846D01*
X134835169Y-22750846D01*
X134835169Y-29311034D01*
D11*
%TO.C,REF\u002A\u002A*%
X99250000Y-19750000D02*
X99250000Y-3250000D01*
X99250000Y-3250000D02*
X115750000Y-3250000D01*
X115750000Y-3250000D02*
X115750000Y-19750000D01*
X115750000Y-19750000D02*
X99250000Y-19750000D01*
G36*
X115750000Y-19750000D02*
G01*
X99250000Y-19750000D01*
X99250000Y-3250000D01*
X115750000Y-3250000D01*
X115750000Y-19750000D01*
G37*
X115750000Y-19750000D02*
X99250000Y-19750000D01*
X99250000Y-3250000D01*
X115750000Y-3250000D01*
X115750000Y-19750000D01*
X118550000Y-12220000D02*
X118550000Y-10775000D01*
X118550000Y-10775000D02*
X120000000Y-12220000D01*
X120000000Y-12220000D02*
X118550000Y-12220000D01*
G36*
X120000000Y-12220000D02*
G01*
X118550000Y-12220000D01*
X118550000Y-10775000D01*
X120000000Y-12220000D01*
G37*
X120000000Y-12220000D02*
X118550000Y-12220000D01*
X118550000Y-10775000D01*
X120000000Y-12220000D01*
X115750543Y-12225000D02*
X115750543Y-10775000D01*
X115750543Y-10775000D02*
X118550000Y-10775000D01*
X118550000Y-10775000D02*
X118550000Y-12225000D01*
X118550000Y-12225000D02*
X115750543Y-12225000D01*
G36*
X118550000Y-12225000D02*
G01*
X115750543Y-12225000D01*
X115750543Y-10775000D01*
X118550000Y-10775000D01*
X118550000Y-12225000D01*
G37*
X118550000Y-12225000D02*
X115750543Y-12225000D01*
X115750543Y-10775000D01*
X118550000Y-10775000D01*
X118550000Y-12225000D01*
X119999999Y-18992819D02*
X118550000Y-18992819D01*
X118550000Y-18992819D02*
X118550001Y-12220850D01*
X118550001Y-12220850D02*
X120000000Y-12220850D01*
X120000000Y-12220850D02*
X119999999Y-18992819D01*
G36*
X119999999Y-18992819D02*
G01*
X118550000Y-18992819D01*
X118550001Y-12220850D01*
X120000000Y-12220850D01*
X119999999Y-18992819D01*
G37*
X119999999Y-18992819D02*
X118550000Y-18992819D01*
X118550001Y-12220850D01*
X120000000Y-12220850D01*
X119999999Y-18992819D01*
X128250000Y-193750000D02*
X128250000Y-177250000D01*
X128250000Y-177250000D02*
X144750000Y-177250000D01*
X144750000Y-177250000D02*
X144750000Y-193750000D01*
X144750000Y-193750000D02*
X128250000Y-193750000D01*
G36*
X144750000Y-193750000D02*
G01*
X128250000Y-193750000D01*
X128250000Y-177250000D01*
X144750000Y-177250000D01*
X144750000Y-193750000D01*
G37*
X144750000Y-193750000D02*
X128250000Y-193750000D01*
X128250000Y-177250000D01*
X144750000Y-177250000D01*
X144750000Y-193750000D01*
X144750543Y-186225000D02*
X144750543Y-184775000D01*
X144750543Y-184775000D02*
X147550000Y-184775000D01*
X147550000Y-184775000D02*
X147550000Y-186225000D01*
X147550000Y-186225000D02*
X144750543Y-186225000D01*
G36*
X147550000Y-186225000D02*
G01*
X144750543Y-186225000D01*
X144750543Y-184775000D01*
X147550000Y-184775000D01*
X147550000Y-186225000D01*
G37*
X147550000Y-186225000D02*
X144750543Y-186225000D01*
X144750543Y-184775000D01*
X147550000Y-184775000D01*
X147550000Y-186225000D01*
X148999999Y-192992819D02*
X147550000Y-192992819D01*
X147550000Y-192992819D02*
X147550001Y-186220850D01*
X147550001Y-186220850D02*
X149000000Y-186220850D01*
X149000000Y-186220850D02*
X148999999Y-192992819D01*
G36*
X148999999Y-192992819D02*
G01*
X147550000Y-192992819D01*
X147550001Y-186220850D01*
X149000000Y-186220850D01*
X148999999Y-192992819D01*
G37*
X148999999Y-192992819D02*
X147550000Y-192992819D01*
X147550001Y-186220850D01*
X149000000Y-186220850D01*
X148999999Y-192992819D01*
X147550000Y-186220000D02*
X147550000Y-184775000D01*
X147550000Y-184775000D02*
X149000000Y-186220000D01*
X149000000Y-186220000D02*
X147550000Y-186220000D01*
G36*
X149000000Y-186220000D02*
G01*
X147550000Y-186220000D01*
X147550000Y-184775000D01*
X149000000Y-186220000D01*
G37*
X149000000Y-186220000D02*
X147550000Y-186220000D01*
X147550000Y-184775000D01*
X149000000Y-186220000D01*
X57750543Y-186225000D02*
X57750543Y-184775000D01*
X57750543Y-184775000D02*
X60550000Y-184775000D01*
X60550000Y-184775000D02*
X60550000Y-186225000D01*
X60550000Y-186225000D02*
X57750543Y-186225000D01*
G36*
X60550000Y-186225000D02*
G01*
X57750543Y-186225000D01*
X57750543Y-184775000D01*
X60550000Y-184775000D01*
X60550000Y-186225000D01*
G37*
X60550000Y-186225000D02*
X57750543Y-186225000D01*
X57750543Y-184775000D01*
X60550000Y-184775000D01*
X60550000Y-186225000D01*
X60550000Y-186220000D02*
X60550000Y-184775000D01*
X60550000Y-184775000D02*
X62000000Y-186220000D01*
X62000000Y-186220000D02*
X60550000Y-186220000D01*
G36*
X62000000Y-186220000D02*
G01*
X60550000Y-186220000D01*
X60550000Y-184775000D01*
X62000000Y-186220000D01*
G37*
X62000000Y-186220000D02*
X60550000Y-186220000D01*
X60550000Y-184775000D01*
X62000000Y-186220000D01*
X61999999Y-192992819D02*
X60550000Y-192992819D01*
X60550000Y-192992819D02*
X60550001Y-186220850D01*
X60550001Y-186220850D02*
X62000000Y-186220850D01*
X62000000Y-186220850D02*
X61999999Y-192992819D01*
G36*
X61999999Y-192992819D02*
G01*
X60550000Y-192992819D01*
X60550001Y-186220850D01*
X62000000Y-186220850D01*
X61999999Y-192992819D01*
G37*
X61999999Y-192992819D02*
X60550000Y-192992819D01*
X60550001Y-186220850D01*
X62000000Y-186220850D01*
X61999999Y-192992819D01*
X41250000Y-193750000D02*
X41250000Y-177250000D01*
X41250000Y-177250000D02*
X57750000Y-177250000D01*
X57750000Y-177250000D02*
X57750000Y-193750000D01*
X57750000Y-193750000D02*
X41250000Y-193750000D01*
G36*
X57750000Y-193750000D02*
G01*
X41250000Y-193750000D01*
X41250000Y-177250000D01*
X57750000Y-177250000D01*
X57750000Y-193750000D01*
G37*
X57750000Y-193750000D02*
X41250000Y-193750000D01*
X41250000Y-177250000D01*
X57750000Y-177250000D01*
X57750000Y-193750000D01*
X148999999Y-76992819D02*
X147550000Y-76992819D01*
X147550000Y-76992819D02*
X147550001Y-70220850D01*
X147550001Y-70220850D02*
X149000000Y-70220850D01*
X149000000Y-70220850D02*
X148999999Y-76992819D01*
G36*
X148999999Y-76992819D02*
G01*
X147550000Y-76992819D01*
X147550001Y-70220850D01*
X149000000Y-70220850D01*
X148999999Y-76992819D01*
G37*
X148999999Y-76992819D02*
X147550000Y-76992819D01*
X147550001Y-70220850D01*
X149000000Y-70220850D01*
X148999999Y-76992819D01*
X128250000Y-77750000D02*
X128250000Y-61250000D01*
X128250000Y-61250000D02*
X144750000Y-61250000D01*
X144750000Y-61250000D02*
X144750000Y-77750000D01*
X144750000Y-77750000D02*
X128250000Y-77750000D01*
G36*
X144750000Y-77750000D02*
G01*
X128250000Y-77750000D01*
X128250000Y-61250000D01*
X144750000Y-61250000D01*
X144750000Y-77750000D01*
G37*
X144750000Y-77750000D02*
X128250000Y-77750000D01*
X128250000Y-61250000D01*
X144750000Y-61250000D01*
X144750000Y-77750000D01*
X147550000Y-70220000D02*
X147550000Y-68775000D01*
X147550000Y-68775000D02*
X149000000Y-70220000D01*
X149000000Y-70220000D02*
X147550000Y-70220000D01*
G36*
X149000000Y-70220000D02*
G01*
X147550000Y-70220000D01*
X147550000Y-68775000D01*
X149000000Y-70220000D01*
G37*
X149000000Y-70220000D02*
X147550000Y-70220000D01*
X147550000Y-68775000D01*
X149000000Y-70220000D01*
X144750543Y-70225000D02*
X144750543Y-68775000D01*
X144750543Y-68775000D02*
X147550000Y-68775000D01*
X147550000Y-68775000D02*
X147550000Y-70225000D01*
X147550000Y-70225000D02*
X144750543Y-70225000D01*
G36*
X147550000Y-70225000D02*
G01*
X144750543Y-70225000D01*
X144750543Y-68775000D01*
X147550000Y-68775000D01*
X147550000Y-70225000D01*
G37*
X147550000Y-70225000D02*
X144750543Y-70225000D01*
X144750543Y-68775000D01*
X147550000Y-68775000D01*
X147550000Y-70225000D01*
X70250000Y-222750000D02*
X70250000Y-206250000D01*
X70250000Y-206250000D02*
X86750000Y-206250000D01*
X86750000Y-206250000D02*
X86750000Y-222750000D01*
X86750000Y-222750000D02*
X70250000Y-222750000D01*
G36*
X86750000Y-222750000D02*
G01*
X70250000Y-222750000D01*
X70250000Y-206250000D01*
X86750000Y-206250000D01*
X86750000Y-222750000D01*
G37*
X86750000Y-222750000D02*
X70250000Y-222750000D01*
X70250000Y-206250000D01*
X86750000Y-206250000D01*
X86750000Y-222750000D01*
X89550003Y-206997181D02*
X91000000Y-206997181D01*
X91000000Y-206997181D02*
X90999997Y-213769150D01*
X90999997Y-213769150D02*
X89550000Y-213769150D01*
X89550000Y-213769150D02*
X89550003Y-206997181D01*
G36*
X90999997Y-213769150D02*
G01*
X89550000Y-213769150D01*
X89550003Y-206997181D01*
X91000000Y-206997181D01*
X90999997Y-213769150D01*
G37*
X90999997Y-213769150D02*
X89550000Y-213769150D01*
X89550003Y-206997181D01*
X91000000Y-206997181D01*
X90999997Y-213769150D01*
X89550000Y-213770000D02*
X91000000Y-213770000D01*
X91000000Y-213770000D02*
X89550000Y-215230000D01*
X89550000Y-215230000D02*
X89550000Y-213770000D01*
G36*
X89550000Y-215230000D02*
G01*
X89550000Y-213770000D01*
X91000000Y-213770000D01*
X89550000Y-215230000D01*
G37*
X89550000Y-215230000D02*
X89550000Y-213770000D01*
X91000000Y-213770000D01*
X89550000Y-215230000D01*
X86750543Y-215225000D02*
X86750543Y-213775000D01*
X86750543Y-213775000D02*
X89550000Y-213775000D01*
X89550000Y-213775000D02*
X89550000Y-215230000D01*
X89550000Y-215230000D02*
X86750543Y-215225000D01*
G36*
X89550000Y-215230000D02*
G01*
X86750543Y-215225000D01*
X86750543Y-213775000D01*
X89550000Y-213775000D01*
X89550000Y-215230000D01*
G37*
X89550000Y-215230000D02*
X86750543Y-215225000D01*
X86750543Y-213775000D01*
X89550000Y-213775000D01*
X89550000Y-215230000D01*
X60550000Y-97770000D02*
X62000000Y-97770000D01*
X62000000Y-97770000D02*
X60550000Y-99230000D01*
X60550000Y-99230000D02*
X60550000Y-97770000D01*
G36*
X60550000Y-99230000D02*
G01*
X60550000Y-97770000D01*
X62000000Y-97770000D01*
X60550000Y-99230000D01*
G37*
X60550000Y-99230000D02*
X60550000Y-97770000D01*
X62000000Y-97770000D01*
X60550000Y-99230000D01*
X57750543Y-99225000D02*
X57750543Y-97775000D01*
X57750543Y-97775000D02*
X60550000Y-97775000D01*
X60550000Y-97775000D02*
X60550000Y-99230000D01*
X60550000Y-99230000D02*
X57750543Y-99225000D01*
G36*
X60550000Y-99230000D02*
G01*
X57750543Y-99225000D01*
X57750543Y-97775000D01*
X60550000Y-97775000D01*
X60550000Y-99230000D01*
G37*
X60550000Y-99230000D02*
X57750543Y-99225000D01*
X57750543Y-97775000D01*
X60550000Y-97775000D01*
X60550000Y-99230000D01*
X41250000Y-106750000D02*
X41250000Y-90250000D01*
X41250000Y-90250000D02*
X57750000Y-90250000D01*
X57750000Y-90250000D02*
X57750000Y-106750000D01*
X57750000Y-106750000D02*
X41250000Y-106750000D01*
G36*
X57750000Y-106750000D02*
G01*
X41250000Y-106750000D01*
X41250000Y-90250000D01*
X57750000Y-90250000D01*
X57750000Y-106750000D01*
G37*
X57750000Y-106750000D02*
X41250000Y-106750000D01*
X41250000Y-90250000D01*
X57750000Y-90250000D01*
X57750000Y-106750000D01*
X60550003Y-90997181D02*
X62000000Y-90997181D01*
X62000000Y-90997181D02*
X61999997Y-97769150D01*
X61999997Y-97769150D02*
X60550000Y-97769150D01*
X60550000Y-97769150D02*
X60550003Y-90997181D01*
G36*
X61999997Y-97769150D02*
G01*
X60550000Y-97769150D01*
X60550003Y-90997181D01*
X62000000Y-90997181D01*
X61999997Y-97769150D01*
G37*
X61999997Y-97769150D02*
X60550000Y-97769150D01*
X60550003Y-90997181D01*
X62000000Y-90997181D01*
X61999997Y-97769150D01*
X147550003Y-90997181D02*
X149000000Y-90997181D01*
X149000000Y-90997181D02*
X148999997Y-97769150D01*
X148999997Y-97769150D02*
X147550000Y-97769150D01*
X147550000Y-97769150D02*
X147550003Y-90997181D01*
G36*
X148999997Y-97769150D02*
G01*
X147550000Y-97769150D01*
X147550003Y-90997181D01*
X149000000Y-90997181D01*
X148999997Y-97769150D01*
G37*
X148999997Y-97769150D02*
X147550000Y-97769150D01*
X147550003Y-90997181D01*
X149000000Y-90997181D01*
X148999997Y-97769150D01*
X147550000Y-97770000D02*
X149000000Y-97770000D01*
X149000000Y-97770000D02*
X147550000Y-99230000D01*
X147550000Y-99230000D02*
X147550000Y-97770000D01*
G36*
X147550000Y-99230000D02*
G01*
X147550000Y-97770000D01*
X149000000Y-97770000D01*
X147550000Y-99230000D01*
G37*
X147550000Y-99230000D02*
X147550000Y-97770000D01*
X149000000Y-97770000D01*
X147550000Y-99230000D01*
X128250000Y-106750000D02*
X128250000Y-90250000D01*
X128250000Y-90250000D02*
X144750000Y-90250000D01*
X144750000Y-90250000D02*
X144750000Y-106750000D01*
X144750000Y-106750000D02*
X128250000Y-106750000D01*
G36*
X144750000Y-106750000D02*
G01*
X128250000Y-106750000D01*
X128250000Y-90250000D01*
X144750000Y-90250000D01*
X144750000Y-106750000D01*
G37*
X144750000Y-106750000D02*
X128250000Y-106750000D01*
X128250000Y-90250000D01*
X144750000Y-90250000D01*
X144750000Y-106750000D01*
X144750543Y-99225000D02*
X144750543Y-97775000D01*
X144750543Y-97775000D02*
X147550000Y-97775000D01*
X147550000Y-97775000D02*
X147550000Y-99230000D01*
X147550000Y-99230000D02*
X144750543Y-99225000D01*
G36*
X147550000Y-99230000D02*
G01*
X144750543Y-99225000D01*
X144750543Y-97775000D01*
X147550000Y-97775000D01*
X147550000Y-99230000D01*
G37*
X147550000Y-99230000D02*
X144750543Y-99225000D01*
X144750543Y-97775000D01*
X147550000Y-97775000D01*
X147550000Y-99230000D01*
X147550000Y-12220000D02*
X147550000Y-10775000D01*
X147550000Y-10775000D02*
X149000000Y-12220000D01*
X149000000Y-12220000D02*
X147550000Y-12220000D01*
G36*
X149000000Y-12220000D02*
G01*
X147550000Y-12220000D01*
X147550000Y-10775000D01*
X149000000Y-12220000D01*
G37*
X149000000Y-12220000D02*
X147550000Y-12220000D01*
X147550000Y-10775000D01*
X149000000Y-12220000D01*
X148999999Y-18992819D02*
X147550000Y-18992819D01*
X147550000Y-18992819D02*
X147550001Y-12220850D01*
X147550001Y-12220850D02*
X149000000Y-12220850D01*
X149000000Y-12220850D02*
X148999999Y-18992819D01*
G36*
X148999999Y-18992819D02*
G01*
X147550000Y-18992819D01*
X147550001Y-12220850D01*
X149000000Y-12220850D01*
X148999999Y-18992819D01*
G37*
X148999999Y-18992819D02*
X147550000Y-18992819D01*
X147550001Y-12220850D01*
X149000000Y-12220850D01*
X148999999Y-18992819D01*
X144750543Y-12225000D02*
X144750543Y-10775000D01*
X144750543Y-10775000D02*
X147550000Y-10775000D01*
X147550000Y-10775000D02*
X147550000Y-12225000D01*
X147550000Y-12225000D02*
X144750543Y-12225000D01*
G36*
X147550000Y-12225000D02*
G01*
X144750543Y-12225000D01*
X144750543Y-10775000D01*
X147550000Y-10775000D01*
X147550000Y-12225000D01*
G37*
X147550000Y-12225000D02*
X144750543Y-12225000D01*
X144750543Y-10775000D01*
X147550000Y-10775000D01*
X147550000Y-12225000D01*
X128250000Y-19750000D02*
X128250000Y-3250000D01*
X128250000Y-3250000D02*
X144750000Y-3250000D01*
X144750000Y-3250000D02*
X144750000Y-19750000D01*
X144750000Y-19750000D02*
X128250000Y-19750000D01*
G36*
X144750000Y-19750000D02*
G01*
X128250000Y-19750000D01*
X128250000Y-3250000D01*
X144750000Y-3250000D01*
X144750000Y-19750000D01*
G37*
X144750000Y-19750000D02*
X128250000Y-19750000D01*
X128250000Y-3250000D01*
X144750000Y-3250000D01*
X144750000Y-19750000D01*
X61999999Y-76992819D02*
X60550000Y-76992819D01*
X60550000Y-76992819D02*
X60550001Y-70220850D01*
X60550001Y-70220850D02*
X62000000Y-70220850D01*
X62000000Y-70220850D02*
X61999999Y-76992819D01*
G36*
X61999999Y-76992819D02*
G01*
X60550000Y-76992819D01*
X60550001Y-70220850D01*
X62000000Y-70220850D01*
X61999999Y-76992819D01*
G37*
X61999999Y-76992819D02*
X60550000Y-76992819D01*
X60550001Y-70220850D01*
X62000000Y-70220850D01*
X61999999Y-76992819D01*
X57750543Y-70225000D02*
X57750543Y-68775000D01*
X57750543Y-68775000D02*
X60550000Y-68775000D01*
X60550000Y-68775000D02*
X60550000Y-70225000D01*
X60550000Y-70225000D02*
X57750543Y-70225000D01*
G36*
X60550000Y-70225000D02*
G01*
X57750543Y-70225000D01*
X57750543Y-68775000D01*
X60550000Y-68775000D01*
X60550000Y-70225000D01*
G37*
X60550000Y-70225000D02*
X57750543Y-70225000D01*
X57750543Y-68775000D01*
X60550000Y-68775000D01*
X60550000Y-70225000D01*
X41250000Y-77750000D02*
X41250000Y-61250000D01*
X41250000Y-61250000D02*
X57750000Y-61250000D01*
X57750000Y-61250000D02*
X57750000Y-77750000D01*
X57750000Y-77750000D02*
X41250000Y-77750000D01*
G36*
X57750000Y-77750000D02*
G01*
X41250000Y-77750000D01*
X41250000Y-61250000D01*
X57750000Y-61250000D01*
X57750000Y-77750000D01*
G37*
X57750000Y-77750000D02*
X41250000Y-77750000D01*
X41250000Y-61250000D01*
X57750000Y-61250000D01*
X57750000Y-77750000D01*
X60550000Y-70220000D02*
X60550000Y-68775000D01*
X60550000Y-68775000D02*
X62000000Y-70220000D01*
X62000000Y-70220000D02*
X60550000Y-70220000D01*
G36*
X62000000Y-70220000D02*
G01*
X60550000Y-70220000D01*
X60550000Y-68775000D01*
X62000000Y-70220000D01*
G37*
X62000000Y-70220000D02*
X60550000Y-70220000D01*
X60550000Y-68775000D01*
X62000000Y-70220000D01*
X60550003Y-32997181D02*
X62000000Y-32997181D01*
X62000000Y-32997181D02*
X61999997Y-39769150D01*
X61999997Y-39769150D02*
X60550000Y-39769150D01*
X60550000Y-39769150D02*
X60550003Y-32997181D01*
G36*
X61999997Y-39769150D02*
G01*
X60550000Y-39769150D01*
X60550003Y-32997181D01*
X62000000Y-32997181D01*
X61999997Y-39769150D01*
G37*
X61999997Y-39769150D02*
X60550000Y-39769150D01*
X60550003Y-32997181D01*
X62000000Y-32997181D01*
X61999997Y-39769150D01*
X60550000Y-39770000D02*
X62000000Y-39770000D01*
X62000000Y-39770000D02*
X60550000Y-41230000D01*
X60550000Y-41230000D02*
X60550000Y-39770000D01*
G36*
X60550000Y-41230000D02*
G01*
X60550000Y-39770000D01*
X62000000Y-39770000D01*
X60550000Y-41230000D01*
G37*
X60550000Y-41230000D02*
X60550000Y-39770000D01*
X62000000Y-39770000D01*
X60550000Y-41230000D01*
X41250000Y-48750000D02*
X41250000Y-32250000D01*
X41250000Y-32250000D02*
X57750000Y-32250000D01*
X57750000Y-32250000D02*
X57750000Y-48750000D01*
X57750000Y-48750000D02*
X41250000Y-48750000D01*
G36*
X57750000Y-48750000D02*
G01*
X41250000Y-48750000D01*
X41250000Y-32250000D01*
X57750000Y-32250000D01*
X57750000Y-48750000D01*
G37*
X57750000Y-48750000D02*
X41250000Y-48750000D01*
X41250000Y-32250000D01*
X57750000Y-32250000D01*
X57750000Y-48750000D01*
X57750543Y-41225000D02*
X57750543Y-39775000D01*
X57750543Y-39775000D02*
X60550000Y-39775000D01*
X60550000Y-39775000D02*
X60550000Y-41230000D01*
X60550000Y-41230000D02*
X57750543Y-41225000D01*
G36*
X60550000Y-41230000D02*
G01*
X57750543Y-41225000D01*
X57750543Y-39775000D01*
X60550000Y-39775000D01*
X60550000Y-41230000D01*
G37*
X60550000Y-41230000D02*
X57750543Y-41225000D01*
X57750543Y-39775000D01*
X60550000Y-39775000D01*
X60550000Y-41230000D01*
X60550000Y-213770000D02*
X62000000Y-213770000D01*
X62000000Y-213770000D02*
X60550000Y-215230000D01*
X60550000Y-215230000D02*
X60550000Y-213770000D01*
G36*
X60550000Y-215230000D02*
G01*
X60550000Y-213770000D01*
X62000000Y-213770000D01*
X60550000Y-215230000D01*
G37*
X60550000Y-215230000D02*
X60550000Y-213770000D01*
X62000000Y-213770000D01*
X60550000Y-215230000D01*
X60550003Y-206997181D02*
X62000000Y-206997181D01*
X62000000Y-206997181D02*
X61999997Y-213769150D01*
X61999997Y-213769150D02*
X60550000Y-213769150D01*
X60550000Y-213769150D02*
X60550003Y-206997181D01*
G36*
X61999997Y-213769150D02*
G01*
X60550000Y-213769150D01*
X60550003Y-206997181D01*
X62000000Y-206997181D01*
X61999997Y-213769150D01*
G37*
X61999997Y-213769150D02*
X60550000Y-213769150D01*
X60550003Y-206997181D01*
X62000000Y-206997181D01*
X61999997Y-213769150D01*
X57750543Y-215225000D02*
X57750543Y-213775000D01*
X57750543Y-213775000D02*
X60550000Y-213775000D01*
X60550000Y-213775000D02*
X60550000Y-215230000D01*
X60550000Y-215230000D02*
X57750543Y-215225000D01*
G36*
X60550000Y-215230000D02*
G01*
X57750543Y-215225000D01*
X57750543Y-213775000D01*
X60550000Y-213775000D01*
X60550000Y-215230000D01*
G37*
X60550000Y-215230000D02*
X57750543Y-215225000D01*
X57750543Y-213775000D01*
X60550000Y-213775000D01*
X60550000Y-215230000D01*
X41250000Y-222750000D02*
X41250000Y-206250000D01*
X41250000Y-206250000D02*
X57750000Y-206250000D01*
X57750000Y-206250000D02*
X57750000Y-222750000D01*
X57750000Y-222750000D02*
X41250000Y-222750000D01*
G36*
X57750000Y-222750000D02*
G01*
X41250000Y-222750000D01*
X41250000Y-206250000D01*
X57750000Y-206250000D01*
X57750000Y-222750000D01*
G37*
X57750000Y-222750000D02*
X41250000Y-222750000D01*
X41250000Y-206250000D01*
X57750000Y-206250000D01*
X57750000Y-222750000D01*
X90999999Y-18992819D02*
X89550000Y-18992819D01*
X89550000Y-18992819D02*
X89550001Y-12220850D01*
X89550001Y-12220850D02*
X91000000Y-12220850D01*
X91000000Y-12220850D02*
X90999999Y-18992819D01*
G36*
X90999999Y-18992819D02*
G01*
X89550000Y-18992819D01*
X89550001Y-12220850D01*
X91000000Y-12220850D01*
X90999999Y-18992819D01*
G37*
X90999999Y-18992819D02*
X89550000Y-18992819D01*
X89550001Y-12220850D01*
X91000000Y-12220850D01*
X90999999Y-18992819D01*
X89550000Y-12220000D02*
X89550000Y-10775000D01*
X89550000Y-10775000D02*
X91000000Y-12220000D01*
X91000000Y-12220000D02*
X89550000Y-12220000D01*
G36*
X91000000Y-12220000D02*
G01*
X89550000Y-12220000D01*
X89550000Y-10775000D01*
X91000000Y-12220000D01*
G37*
X91000000Y-12220000D02*
X89550000Y-12220000D01*
X89550000Y-10775000D01*
X91000000Y-12220000D01*
X86750543Y-12225000D02*
X86750543Y-10775000D01*
X86750543Y-10775000D02*
X89550000Y-10775000D01*
X89550000Y-10775000D02*
X89550000Y-12225000D01*
X89550000Y-12225000D02*
X86750543Y-12225000D01*
G36*
X89550000Y-12225000D02*
G01*
X86750543Y-12225000D01*
X86750543Y-10775000D01*
X89550000Y-10775000D01*
X89550000Y-12225000D01*
G37*
X89550000Y-12225000D02*
X86750543Y-12225000D01*
X86750543Y-10775000D01*
X89550000Y-10775000D01*
X89550000Y-12225000D01*
X70250000Y-19750000D02*
X70250000Y-3250000D01*
X70250000Y-3250000D02*
X86750000Y-3250000D01*
X86750000Y-3250000D02*
X86750000Y-19750000D01*
X86750000Y-19750000D02*
X70250000Y-19750000D01*
G36*
X86750000Y-19750000D02*
G01*
X70250000Y-19750000D01*
X70250000Y-3250000D01*
X86750000Y-3250000D01*
X86750000Y-19750000D01*
G37*
X86750000Y-19750000D02*
X70250000Y-19750000D01*
X70250000Y-3250000D01*
X86750000Y-3250000D01*
X86750000Y-19750000D01*
X128250000Y-164750000D02*
X128250000Y-148250000D01*
X128250000Y-148250000D02*
X144750000Y-148250000D01*
X144750000Y-148250000D02*
X144750000Y-164750000D01*
X144750000Y-164750000D02*
X128250000Y-164750000D01*
G36*
X144750000Y-164750000D02*
G01*
X128250000Y-164750000D01*
X128250000Y-148250000D01*
X144750000Y-148250000D01*
X144750000Y-164750000D01*
G37*
X144750000Y-164750000D02*
X128250000Y-164750000D01*
X128250000Y-148250000D01*
X144750000Y-148250000D01*
X144750000Y-164750000D01*
X144750543Y-157225000D02*
X144750543Y-155775000D01*
X144750543Y-155775000D02*
X147550000Y-155775000D01*
X147550000Y-155775000D02*
X147550000Y-157230000D01*
X147550000Y-157230000D02*
X144750543Y-157225000D01*
G36*
X147550000Y-157230000D02*
G01*
X144750543Y-157225000D01*
X144750543Y-155775000D01*
X147550000Y-155775000D01*
X147550000Y-157230000D01*
G37*
X147550000Y-157230000D02*
X144750543Y-157225000D01*
X144750543Y-155775000D01*
X147550000Y-155775000D01*
X147550000Y-157230000D01*
X147550003Y-148997181D02*
X149000000Y-148997181D01*
X149000000Y-148997181D02*
X148999997Y-155769150D01*
X148999997Y-155769150D02*
X147550000Y-155769150D01*
X147550000Y-155769150D02*
X147550003Y-148997181D01*
G36*
X148999997Y-155769150D02*
G01*
X147550000Y-155769150D01*
X147550003Y-148997181D01*
X149000000Y-148997181D01*
X148999997Y-155769150D01*
G37*
X148999997Y-155769150D02*
X147550000Y-155769150D01*
X147550003Y-148997181D01*
X149000000Y-148997181D01*
X148999997Y-155769150D01*
X147550000Y-155770000D02*
X149000000Y-155770000D01*
X149000000Y-155770000D02*
X147550000Y-157230000D01*
X147550000Y-157230000D02*
X147550000Y-155770000D01*
G36*
X147550000Y-157230000D02*
G01*
X147550000Y-155770000D01*
X149000000Y-155770000D01*
X147550000Y-157230000D01*
G37*
X147550000Y-157230000D02*
X147550000Y-155770000D01*
X149000000Y-155770000D01*
X147550000Y-157230000D01*
X41250000Y-135750000D02*
X41250000Y-119250000D01*
X41250000Y-119250000D02*
X57750000Y-119250000D01*
X57750000Y-119250000D02*
X57750000Y-135750000D01*
X57750000Y-135750000D02*
X41250000Y-135750000D01*
G36*
X57750000Y-135750000D02*
G01*
X41250000Y-135750000D01*
X41250000Y-119250000D01*
X57750000Y-119250000D01*
X57750000Y-135750000D01*
G37*
X57750000Y-135750000D02*
X41250000Y-135750000D01*
X41250000Y-119250000D01*
X57750000Y-119250000D01*
X57750000Y-135750000D01*
X61999999Y-134992819D02*
X60550000Y-134992819D01*
X60550000Y-134992819D02*
X60550001Y-128220850D01*
X60550001Y-128220850D02*
X62000000Y-128220850D01*
X62000000Y-128220850D02*
X61999999Y-134992819D01*
G36*
X61999999Y-134992819D02*
G01*
X60550000Y-134992819D01*
X60550001Y-128220850D01*
X62000000Y-128220850D01*
X61999999Y-134992819D01*
G37*
X61999999Y-134992819D02*
X60550000Y-134992819D01*
X60550001Y-128220850D01*
X62000000Y-128220850D01*
X61999999Y-134992819D01*
X60550000Y-128220000D02*
X60550000Y-126775000D01*
X60550000Y-126775000D02*
X62000000Y-128220000D01*
X62000000Y-128220000D02*
X60550000Y-128220000D01*
G36*
X62000000Y-128220000D02*
G01*
X60550000Y-128220000D01*
X60550000Y-126775000D01*
X62000000Y-128220000D01*
G37*
X62000000Y-128220000D02*
X60550000Y-128220000D01*
X60550000Y-126775000D01*
X62000000Y-128220000D01*
X57750543Y-128225000D02*
X57750543Y-126775000D01*
X57750543Y-126775000D02*
X60550000Y-126775000D01*
X60550000Y-126775000D02*
X60550000Y-128225000D01*
X60550000Y-128225000D02*
X57750543Y-128225000D01*
G36*
X60550000Y-128225000D02*
G01*
X57750543Y-128225000D01*
X57750543Y-126775000D01*
X60550000Y-126775000D01*
X60550000Y-128225000D01*
G37*
X60550000Y-128225000D02*
X57750543Y-128225000D01*
X57750543Y-126775000D01*
X60550000Y-126775000D01*
X60550000Y-128225000D01*
X119999999Y-192992819D02*
X118550000Y-192992819D01*
X118550000Y-192992819D02*
X118550001Y-186220850D01*
X118550001Y-186220850D02*
X120000000Y-186220850D01*
X120000000Y-186220850D02*
X119999999Y-192992819D01*
G36*
X119999999Y-192992819D02*
G01*
X118550000Y-192992819D01*
X118550001Y-186220850D01*
X120000000Y-186220850D01*
X119999999Y-192992819D01*
G37*
X119999999Y-192992819D02*
X118550000Y-192992819D01*
X118550001Y-186220850D01*
X120000000Y-186220850D01*
X119999999Y-192992819D01*
X99250000Y-193750000D02*
X99250000Y-177250000D01*
X99250000Y-177250000D02*
X115750000Y-177250000D01*
X115750000Y-177250000D02*
X115750000Y-193750000D01*
X115750000Y-193750000D02*
X99250000Y-193750000D01*
G36*
X115750000Y-193750000D02*
G01*
X99250000Y-193750000D01*
X99250000Y-177250000D01*
X115750000Y-177250000D01*
X115750000Y-193750000D01*
G37*
X115750000Y-193750000D02*
X99250000Y-193750000D01*
X99250000Y-177250000D01*
X115750000Y-177250000D01*
X115750000Y-193750000D01*
X118550000Y-186220000D02*
X118550000Y-184775000D01*
X118550000Y-184775000D02*
X120000000Y-186220000D01*
X120000000Y-186220000D02*
X118550000Y-186220000D01*
G36*
X120000000Y-186220000D02*
G01*
X118550000Y-186220000D01*
X118550000Y-184775000D01*
X120000000Y-186220000D01*
G37*
X120000000Y-186220000D02*
X118550000Y-186220000D01*
X118550000Y-184775000D01*
X120000000Y-186220000D01*
X115750543Y-186225000D02*
X115750543Y-184775000D01*
X115750543Y-184775000D02*
X118550000Y-184775000D01*
X118550000Y-184775000D02*
X118550000Y-186225000D01*
X118550000Y-186225000D02*
X115750543Y-186225000D01*
G36*
X118550000Y-186225000D02*
G01*
X115750543Y-186225000D01*
X115750543Y-184775000D01*
X118550000Y-184775000D01*
X118550000Y-186225000D01*
G37*
X118550000Y-186225000D02*
X115750543Y-186225000D01*
X115750543Y-184775000D01*
X118550000Y-184775000D01*
X118550000Y-186225000D01*
X119999999Y-76992819D02*
X118550000Y-76992819D01*
X118550000Y-76992819D02*
X118550001Y-70220850D01*
X118550001Y-70220850D02*
X120000000Y-70220850D01*
X120000000Y-70220850D02*
X119999999Y-76992819D01*
G36*
X119999999Y-76992819D02*
G01*
X118550000Y-76992819D01*
X118550001Y-70220850D01*
X120000000Y-70220850D01*
X119999999Y-76992819D01*
G37*
X119999999Y-76992819D02*
X118550000Y-76992819D01*
X118550001Y-70220850D01*
X120000000Y-70220850D01*
X119999999Y-76992819D01*
X115750543Y-70225000D02*
X115750543Y-68775000D01*
X115750543Y-68775000D02*
X118550000Y-68775000D01*
X118550000Y-68775000D02*
X118550000Y-70225000D01*
X118550000Y-70225000D02*
X115750543Y-70225000D01*
G36*
X118550000Y-70225000D02*
G01*
X115750543Y-70225000D01*
X115750543Y-68775000D01*
X118550000Y-68775000D01*
X118550000Y-70225000D01*
G37*
X118550000Y-70225000D02*
X115750543Y-70225000D01*
X115750543Y-68775000D01*
X118550000Y-68775000D01*
X118550000Y-70225000D01*
X99250000Y-77750000D02*
X99250000Y-61250000D01*
X99250000Y-61250000D02*
X115750000Y-61250000D01*
X115750000Y-61250000D02*
X115750000Y-77750000D01*
X115750000Y-77750000D02*
X99250000Y-77750000D01*
G36*
X115750000Y-77750000D02*
G01*
X99250000Y-77750000D01*
X99250000Y-61250000D01*
X115750000Y-61250000D01*
X115750000Y-77750000D01*
G37*
X115750000Y-77750000D02*
X99250000Y-77750000D01*
X99250000Y-61250000D01*
X115750000Y-61250000D01*
X115750000Y-77750000D01*
X118550000Y-70220000D02*
X118550000Y-68775000D01*
X118550000Y-68775000D02*
X120000000Y-70220000D01*
X120000000Y-70220000D02*
X118550000Y-70220000D01*
G36*
X120000000Y-70220000D02*
G01*
X118550000Y-70220000D01*
X118550000Y-68775000D01*
X120000000Y-70220000D01*
G37*
X120000000Y-70220000D02*
X118550000Y-70220000D01*
X118550000Y-68775000D01*
X120000000Y-70220000D01*
X128250000Y-135750000D02*
X128250000Y-119250000D01*
X128250000Y-119250000D02*
X144750000Y-119250000D01*
X144750000Y-119250000D02*
X144750000Y-135750000D01*
X144750000Y-135750000D02*
X128250000Y-135750000D01*
G36*
X144750000Y-135750000D02*
G01*
X128250000Y-135750000D01*
X128250000Y-119250000D01*
X144750000Y-119250000D01*
X144750000Y-135750000D01*
G37*
X144750000Y-135750000D02*
X128250000Y-135750000D01*
X128250000Y-119250000D01*
X144750000Y-119250000D01*
X144750000Y-135750000D01*
X144750543Y-128225000D02*
X144750543Y-126775000D01*
X144750543Y-126775000D02*
X147550000Y-126775000D01*
X147550000Y-126775000D02*
X147550000Y-128225000D01*
X147550000Y-128225000D02*
X144750543Y-128225000D01*
G36*
X147550000Y-128225000D02*
G01*
X144750543Y-128225000D01*
X144750543Y-126775000D01*
X147550000Y-126775000D01*
X147550000Y-128225000D01*
G37*
X147550000Y-128225000D02*
X144750543Y-128225000D01*
X144750543Y-126775000D01*
X147550000Y-126775000D01*
X147550000Y-128225000D01*
X148999999Y-134992819D02*
X147550000Y-134992819D01*
X147550000Y-134992819D02*
X147550001Y-128220850D01*
X147550001Y-128220850D02*
X149000000Y-128220850D01*
X149000000Y-128220850D02*
X148999999Y-134992819D01*
G36*
X148999999Y-134992819D02*
G01*
X147550000Y-134992819D01*
X147550001Y-128220850D01*
X149000000Y-128220850D01*
X148999999Y-134992819D01*
G37*
X148999999Y-134992819D02*
X147550000Y-134992819D01*
X147550001Y-128220850D01*
X149000000Y-128220850D01*
X148999999Y-134992819D01*
X147550000Y-128220000D02*
X147550000Y-126775000D01*
X147550000Y-126775000D02*
X149000000Y-128220000D01*
X149000000Y-128220000D02*
X147550000Y-128220000D01*
G36*
X149000000Y-128220000D02*
G01*
X147550000Y-128220000D01*
X147550000Y-126775000D01*
X149000000Y-128220000D01*
G37*
X149000000Y-128220000D02*
X147550000Y-128220000D01*
X147550000Y-126775000D01*
X149000000Y-128220000D01*
X70250000Y-135750000D02*
X70250000Y-119250000D01*
X70250000Y-119250000D02*
X86750000Y-119250000D01*
X86750000Y-119250000D02*
X86750000Y-135750000D01*
X86750000Y-135750000D02*
X70250000Y-135750000D01*
G36*
X86750000Y-135750000D02*
G01*
X70250000Y-135750000D01*
X70250000Y-119250000D01*
X86750000Y-119250000D01*
X86750000Y-135750000D01*
G37*
X86750000Y-135750000D02*
X70250000Y-135750000D01*
X70250000Y-119250000D01*
X86750000Y-119250000D01*
X86750000Y-135750000D01*
X90999999Y-134992819D02*
X89550000Y-134992819D01*
X89550000Y-134992819D02*
X89550001Y-128220850D01*
X89550001Y-128220850D02*
X91000000Y-128220850D01*
X91000000Y-128220850D02*
X90999999Y-134992819D01*
G36*
X90999999Y-134992819D02*
G01*
X89550000Y-134992819D01*
X89550001Y-128220850D01*
X91000000Y-128220850D01*
X90999999Y-134992819D01*
G37*
X90999999Y-134992819D02*
X89550000Y-134992819D01*
X89550001Y-128220850D01*
X91000000Y-128220850D01*
X90999999Y-134992819D01*
X86750543Y-128225000D02*
X86750543Y-126775000D01*
X86750543Y-126775000D02*
X89550000Y-126775000D01*
X89550000Y-126775000D02*
X89550000Y-128225000D01*
X89550000Y-128225000D02*
X86750543Y-128225000D01*
G36*
X89550000Y-128225000D02*
G01*
X86750543Y-128225000D01*
X86750543Y-126775000D01*
X89550000Y-126775000D01*
X89550000Y-128225000D01*
G37*
X89550000Y-128225000D02*
X86750543Y-128225000D01*
X86750543Y-126775000D01*
X89550000Y-126775000D01*
X89550000Y-128225000D01*
X89550000Y-128220000D02*
X89550000Y-126775000D01*
X89550000Y-126775000D02*
X91000000Y-128220000D01*
X91000000Y-128220000D02*
X89550000Y-128220000D01*
G36*
X91000000Y-128220000D02*
G01*
X89550000Y-128220000D01*
X89550000Y-126775000D01*
X91000000Y-128220000D01*
G37*
X91000000Y-128220000D02*
X89550000Y-128220000D01*
X89550000Y-126775000D01*
X91000000Y-128220000D01*
X89550000Y-39770000D02*
X91000000Y-39770000D01*
X91000000Y-39770000D02*
X89550000Y-41230000D01*
X89550000Y-41230000D02*
X89550000Y-39770000D01*
G36*
X89550000Y-41230000D02*
G01*
X89550000Y-39770000D01*
X91000000Y-39770000D01*
X89550000Y-41230000D01*
G37*
X89550000Y-41230000D02*
X89550000Y-39770000D01*
X91000000Y-39770000D01*
X89550000Y-41230000D01*
X89550003Y-32997181D02*
X91000000Y-32997181D01*
X91000000Y-32997181D02*
X90999997Y-39769150D01*
X90999997Y-39769150D02*
X89550000Y-39769150D01*
X89550000Y-39769150D02*
X89550003Y-32997181D01*
G36*
X90999997Y-39769150D02*
G01*
X89550000Y-39769150D01*
X89550003Y-32997181D01*
X91000000Y-32997181D01*
X90999997Y-39769150D01*
G37*
X90999997Y-39769150D02*
X89550000Y-39769150D01*
X89550003Y-32997181D01*
X91000000Y-32997181D01*
X90999997Y-39769150D01*
X70250000Y-48750000D02*
X70250000Y-32250000D01*
X70250000Y-32250000D02*
X86750000Y-32250000D01*
X86750000Y-32250000D02*
X86750000Y-48750000D01*
X86750000Y-48750000D02*
X70250000Y-48750000D01*
G36*
X86750000Y-48750000D02*
G01*
X70250000Y-48750000D01*
X70250000Y-32250000D01*
X86750000Y-32250000D01*
X86750000Y-48750000D01*
G37*
X86750000Y-48750000D02*
X70250000Y-48750000D01*
X70250000Y-32250000D01*
X86750000Y-32250000D01*
X86750000Y-48750000D01*
X86750543Y-41225000D02*
X86750543Y-39775000D01*
X86750543Y-39775000D02*
X89550000Y-39775000D01*
X89550000Y-39775000D02*
X89550000Y-41230000D01*
X89550000Y-41230000D02*
X86750543Y-41225000D01*
G36*
X89550000Y-41230000D02*
G01*
X86750543Y-41225000D01*
X86750543Y-39775000D01*
X89550000Y-39775000D01*
X89550000Y-41230000D01*
G37*
X89550000Y-41230000D02*
X86750543Y-41225000D01*
X86750543Y-39775000D01*
X89550000Y-39775000D01*
X89550000Y-41230000D01*
X60550003Y-148997181D02*
X62000000Y-148997181D01*
X62000000Y-148997181D02*
X61999997Y-155769150D01*
X61999997Y-155769150D02*
X60550000Y-155769150D01*
X60550000Y-155769150D02*
X60550003Y-148997181D01*
G36*
X61999997Y-155769150D02*
G01*
X60550000Y-155769150D01*
X60550003Y-148997181D01*
X62000000Y-148997181D01*
X61999997Y-155769150D01*
G37*
X61999997Y-155769150D02*
X60550000Y-155769150D01*
X60550003Y-148997181D01*
X62000000Y-148997181D01*
X61999997Y-155769150D01*
X41250000Y-164750000D02*
X41250000Y-148250000D01*
X41250000Y-148250000D02*
X57750000Y-148250000D01*
X57750000Y-148250000D02*
X57750000Y-164750000D01*
X57750000Y-164750000D02*
X41250000Y-164750000D01*
G36*
X57750000Y-164750000D02*
G01*
X41250000Y-164750000D01*
X41250000Y-148250000D01*
X57750000Y-148250000D01*
X57750000Y-164750000D01*
G37*
X57750000Y-164750000D02*
X41250000Y-164750000D01*
X41250000Y-148250000D01*
X57750000Y-148250000D01*
X57750000Y-164750000D01*
X60550000Y-155770000D02*
X62000000Y-155770000D01*
X62000000Y-155770000D02*
X60550000Y-157230000D01*
X60550000Y-157230000D02*
X60550000Y-155770000D01*
G36*
X60550000Y-157230000D02*
G01*
X60550000Y-155770000D01*
X62000000Y-155770000D01*
X60550000Y-157230000D01*
G37*
X60550000Y-157230000D02*
X60550000Y-155770000D01*
X62000000Y-155770000D01*
X60550000Y-157230000D01*
X57750543Y-157225000D02*
X57750543Y-155775000D01*
X57750543Y-155775000D02*
X60550000Y-155775000D01*
X60550000Y-155775000D02*
X60550000Y-157230000D01*
X60550000Y-157230000D02*
X57750543Y-157225000D01*
G36*
X60550000Y-157230000D02*
G01*
X57750543Y-157225000D01*
X57750543Y-155775000D01*
X60550000Y-155775000D01*
X60550000Y-157230000D01*
G37*
X60550000Y-157230000D02*
X57750543Y-157225000D01*
X57750543Y-155775000D01*
X60550000Y-155775000D01*
X60550000Y-157230000D01*
X147550003Y-206997181D02*
X149000000Y-206997181D01*
X149000000Y-206997181D02*
X148999997Y-213769150D01*
X148999997Y-213769150D02*
X147550000Y-213769150D01*
X147550000Y-213769150D02*
X147550003Y-206997181D01*
G36*
X148999997Y-213769150D02*
G01*
X147550000Y-213769150D01*
X147550003Y-206997181D01*
X149000000Y-206997181D01*
X148999997Y-213769150D01*
G37*
X148999997Y-213769150D02*
X147550000Y-213769150D01*
X147550003Y-206997181D01*
X149000000Y-206997181D01*
X148999997Y-213769150D01*
X128250000Y-222750000D02*
X128250000Y-206250000D01*
X128250000Y-206250000D02*
X144750000Y-206250000D01*
X144750000Y-206250000D02*
X144750000Y-222750000D01*
X144750000Y-222750000D02*
X128250000Y-222750000D01*
G36*
X144750000Y-222750000D02*
G01*
X128250000Y-222750000D01*
X128250000Y-206250000D01*
X144750000Y-206250000D01*
X144750000Y-222750000D01*
G37*
X144750000Y-222750000D02*
X128250000Y-222750000D01*
X128250000Y-206250000D01*
X144750000Y-206250000D01*
X144750000Y-222750000D01*
X144750543Y-215225000D02*
X144750543Y-213775000D01*
X144750543Y-213775000D02*
X147550000Y-213775000D01*
X147550000Y-213775000D02*
X147550000Y-215230000D01*
X147550000Y-215230000D02*
X144750543Y-215225000D01*
G36*
X147550000Y-215230000D02*
G01*
X144750543Y-215225000D01*
X144750543Y-213775000D01*
X147550000Y-213775000D01*
X147550000Y-215230000D01*
G37*
X147550000Y-215230000D02*
X144750543Y-215225000D01*
X144750543Y-213775000D01*
X147550000Y-213775000D01*
X147550000Y-215230000D01*
X147550000Y-213770000D02*
X149000000Y-213770000D01*
X149000000Y-213770000D02*
X147550000Y-215230000D01*
X147550000Y-215230000D02*
X147550000Y-213770000D01*
G36*
X147550000Y-215230000D02*
G01*
X147550000Y-213770000D01*
X149000000Y-213770000D01*
X147550000Y-215230000D01*
G37*
X147550000Y-215230000D02*
X147550000Y-213770000D01*
X149000000Y-213770000D01*
X147550000Y-215230000D01*
X89550000Y-186220000D02*
X89550000Y-184775000D01*
X89550000Y-184775000D02*
X91000000Y-186220000D01*
X91000000Y-186220000D02*
X89550000Y-186220000D01*
G36*
X91000000Y-186220000D02*
G01*
X89550000Y-186220000D01*
X89550000Y-184775000D01*
X91000000Y-186220000D01*
G37*
X91000000Y-186220000D02*
X89550000Y-186220000D01*
X89550000Y-184775000D01*
X91000000Y-186220000D01*
X70250000Y-193750000D02*
X70250000Y-177250000D01*
X70250000Y-177250000D02*
X86750000Y-177250000D01*
X86750000Y-177250000D02*
X86750000Y-193750000D01*
X86750000Y-193750000D02*
X70250000Y-193750000D01*
G36*
X86750000Y-193750000D02*
G01*
X70250000Y-193750000D01*
X70250000Y-177250000D01*
X86750000Y-177250000D01*
X86750000Y-193750000D01*
G37*
X86750000Y-193750000D02*
X70250000Y-193750000D01*
X70250000Y-177250000D01*
X86750000Y-177250000D01*
X86750000Y-193750000D01*
X90999999Y-192992819D02*
X89550000Y-192992819D01*
X89550000Y-192992819D02*
X89550001Y-186220850D01*
X89550001Y-186220850D02*
X91000000Y-186220850D01*
X91000000Y-186220850D02*
X90999999Y-192992819D01*
G36*
X90999999Y-192992819D02*
G01*
X89550000Y-192992819D01*
X89550001Y-186220850D01*
X91000000Y-186220850D01*
X90999999Y-192992819D01*
G37*
X90999999Y-192992819D02*
X89550000Y-192992819D01*
X89550001Y-186220850D01*
X91000000Y-186220850D01*
X90999999Y-192992819D01*
X86750543Y-186225000D02*
X86750543Y-184775000D01*
X86750543Y-184775000D02*
X89550000Y-184775000D01*
X89550000Y-184775000D02*
X89550000Y-186225000D01*
X89550000Y-186225000D02*
X86750543Y-186225000D01*
G36*
X89550000Y-186225000D02*
G01*
X86750543Y-186225000D01*
X86750543Y-184775000D01*
X89550000Y-184775000D01*
X89550000Y-186225000D01*
G37*
X89550000Y-186225000D02*
X86750543Y-186225000D01*
X86750543Y-184775000D01*
X89550000Y-184775000D01*
X89550000Y-186225000D01*
X41250000Y-19750000D02*
X41250000Y-3250000D01*
X41250000Y-3250000D02*
X57750000Y-3250000D01*
X57750000Y-3250000D02*
X57750000Y-19750000D01*
X57750000Y-19750000D02*
X41250000Y-19750000D01*
G36*
X57750000Y-19750000D02*
G01*
X41250000Y-19750000D01*
X41250000Y-3250000D01*
X57750000Y-3250000D01*
X57750000Y-19750000D01*
G37*
X57750000Y-19750000D02*
X41250000Y-19750000D01*
X41250000Y-3250000D01*
X57750000Y-3250000D01*
X57750000Y-19750000D01*
X61999999Y-18992819D02*
X60550000Y-18992819D01*
X60550000Y-18992819D02*
X60550001Y-12220850D01*
X60550001Y-12220850D02*
X62000000Y-12220850D01*
X62000000Y-12220850D02*
X61999999Y-18992819D01*
G36*
X61999999Y-18992819D02*
G01*
X60550000Y-18992819D01*
X60550001Y-12220850D01*
X62000000Y-12220850D01*
X61999999Y-18992819D01*
G37*
X61999999Y-18992819D02*
X60550000Y-18992819D01*
X60550001Y-12220850D01*
X62000000Y-12220850D01*
X61999999Y-18992819D01*
X60550000Y-12220000D02*
X60550000Y-10775000D01*
X60550000Y-10775000D02*
X62000000Y-12220000D01*
X62000000Y-12220000D02*
X60550000Y-12220000D01*
G36*
X62000000Y-12220000D02*
G01*
X60550000Y-12220000D01*
X60550000Y-10775000D01*
X62000000Y-12220000D01*
G37*
X62000000Y-12220000D02*
X60550000Y-12220000D01*
X60550000Y-10775000D01*
X62000000Y-12220000D01*
X57750543Y-12225000D02*
X57750543Y-10775000D01*
X57750543Y-10775000D02*
X60550000Y-10775000D01*
X60550000Y-10775000D02*
X60550000Y-12225000D01*
X60550000Y-12225000D02*
X57750543Y-12225000D01*
G36*
X60550000Y-12225000D02*
G01*
X57750543Y-12225000D01*
X57750543Y-10775000D01*
X60550000Y-10775000D01*
X60550000Y-12225000D01*
G37*
X60550000Y-12225000D02*
X57750543Y-12225000D01*
X57750543Y-10775000D01*
X60550000Y-10775000D01*
X60550000Y-12225000D01*
X70250000Y-164750000D02*
X70250000Y-148250000D01*
X70250000Y-148250000D02*
X86750000Y-148250000D01*
X86750000Y-148250000D02*
X86750000Y-164750000D01*
X86750000Y-164750000D02*
X70250000Y-164750000D01*
G36*
X86750000Y-164750000D02*
G01*
X70250000Y-164750000D01*
X70250000Y-148250000D01*
X86750000Y-148250000D01*
X86750000Y-164750000D01*
G37*
X86750000Y-164750000D02*
X70250000Y-164750000D01*
X70250000Y-148250000D01*
X86750000Y-148250000D01*
X86750000Y-164750000D01*
X89550000Y-155770000D02*
X91000000Y-155770000D01*
X91000000Y-155770000D02*
X89550000Y-157230000D01*
X89550000Y-157230000D02*
X89550000Y-155770000D01*
G36*
X89550000Y-157230000D02*
G01*
X89550000Y-155770000D01*
X91000000Y-155770000D01*
X89550000Y-157230000D01*
G37*
X89550000Y-157230000D02*
X89550000Y-155770000D01*
X91000000Y-155770000D01*
X89550000Y-157230000D01*
X86750543Y-157225000D02*
X86750543Y-155775000D01*
X86750543Y-155775000D02*
X89550000Y-155775000D01*
X89550000Y-155775000D02*
X89550000Y-157230000D01*
X89550000Y-157230000D02*
X86750543Y-157225000D01*
G36*
X89550000Y-157230000D02*
G01*
X86750543Y-157225000D01*
X86750543Y-155775000D01*
X89550000Y-155775000D01*
X89550000Y-157230000D01*
G37*
X89550000Y-157230000D02*
X86750543Y-157225000D01*
X86750543Y-155775000D01*
X89550000Y-155775000D01*
X89550000Y-157230000D01*
X89550003Y-148997181D02*
X91000000Y-148997181D01*
X91000000Y-148997181D02*
X90999997Y-155769150D01*
X90999997Y-155769150D02*
X89550000Y-155769150D01*
X89550000Y-155769150D02*
X89550003Y-148997181D01*
G36*
X90999997Y-155769150D02*
G01*
X89550000Y-155769150D01*
X89550003Y-148997181D01*
X91000000Y-148997181D01*
X90999997Y-155769150D01*
G37*
X90999997Y-155769150D02*
X89550000Y-155769150D01*
X89550003Y-148997181D01*
X91000000Y-148997181D01*
X90999997Y-155769150D01*
X115750543Y-157225000D02*
X115750543Y-155775000D01*
X115750543Y-155775000D02*
X118550000Y-155775000D01*
X118550000Y-155775000D02*
X118550000Y-157230000D01*
X118550000Y-157230000D02*
X115750543Y-157225000D01*
G36*
X118550000Y-157230000D02*
G01*
X115750543Y-157225000D01*
X115750543Y-155775000D01*
X118550000Y-155775000D01*
X118550000Y-157230000D01*
G37*
X118550000Y-157230000D02*
X115750543Y-157225000D01*
X115750543Y-155775000D01*
X118550000Y-155775000D01*
X118550000Y-157230000D01*
X118550000Y-155770000D02*
X120000000Y-155770000D01*
X120000000Y-155770000D02*
X118550000Y-157230000D01*
X118550000Y-157230000D02*
X118550000Y-155770000D01*
G36*
X118550000Y-157230000D02*
G01*
X118550000Y-155770000D01*
X120000000Y-155770000D01*
X118550000Y-157230000D01*
G37*
X118550000Y-157230000D02*
X118550000Y-155770000D01*
X120000000Y-155770000D01*
X118550000Y-157230000D01*
X118550003Y-148997181D02*
X120000000Y-148997181D01*
X120000000Y-148997181D02*
X119999997Y-155769150D01*
X119999997Y-155769150D02*
X118550000Y-155769150D01*
X118550000Y-155769150D02*
X118550003Y-148997181D01*
G36*
X119999997Y-155769150D02*
G01*
X118550000Y-155769150D01*
X118550003Y-148997181D01*
X120000000Y-148997181D01*
X119999997Y-155769150D01*
G37*
X119999997Y-155769150D02*
X118550000Y-155769150D01*
X118550003Y-148997181D01*
X120000000Y-148997181D01*
X119999997Y-155769150D01*
X99250000Y-164750000D02*
X99250000Y-148250000D01*
X99250000Y-148250000D02*
X115750000Y-148250000D01*
X115750000Y-148250000D02*
X115750000Y-164750000D01*
X115750000Y-164750000D02*
X99250000Y-164750000D01*
G36*
X115750000Y-164750000D02*
G01*
X99250000Y-164750000D01*
X99250000Y-148250000D01*
X115750000Y-148250000D01*
X115750000Y-164750000D01*
G37*
X115750000Y-164750000D02*
X99250000Y-164750000D01*
X99250000Y-148250000D01*
X115750000Y-148250000D01*
X115750000Y-164750000D01*
X128250000Y-48750000D02*
X128250000Y-32250000D01*
X128250000Y-32250000D02*
X144750000Y-32250000D01*
X144750000Y-32250000D02*
X144750000Y-48750000D01*
X144750000Y-48750000D02*
X128250000Y-48750000D01*
G36*
X144750000Y-48750000D02*
G01*
X128250000Y-48750000D01*
X128250000Y-32250000D01*
X144750000Y-32250000D01*
X144750000Y-48750000D01*
G37*
X144750000Y-48750000D02*
X128250000Y-48750000D01*
X128250000Y-32250000D01*
X144750000Y-32250000D01*
X144750000Y-48750000D01*
X147550003Y-32997181D02*
X149000000Y-32997181D01*
X149000000Y-32997181D02*
X148999997Y-39769150D01*
X148999997Y-39769150D02*
X147550000Y-39769150D01*
X147550000Y-39769150D02*
X147550003Y-32997181D01*
G36*
X148999997Y-39769150D02*
G01*
X147550000Y-39769150D01*
X147550003Y-32997181D01*
X149000000Y-32997181D01*
X148999997Y-39769150D01*
G37*
X148999997Y-39769150D02*
X147550000Y-39769150D01*
X147550003Y-32997181D01*
X149000000Y-32997181D01*
X148999997Y-39769150D01*
X144750543Y-41225000D02*
X144750543Y-39775000D01*
X144750543Y-39775000D02*
X147550000Y-39775000D01*
X147550000Y-39775000D02*
X147550000Y-41230000D01*
X147550000Y-41230000D02*
X144750543Y-41225000D01*
G36*
X147550000Y-41230000D02*
G01*
X144750543Y-41225000D01*
X144750543Y-39775000D01*
X147550000Y-39775000D01*
X147550000Y-41230000D01*
G37*
X147550000Y-41230000D02*
X144750543Y-41225000D01*
X144750543Y-39775000D01*
X147550000Y-39775000D01*
X147550000Y-41230000D01*
X147550000Y-39770000D02*
X149000000Y-39770000D01*
X149000000Y-39770000D02*
X147550000Y-41230000D01*
X147550000Y-41230000D02*
X147550000Y-39770000D01*
G36*
X147550000Y-41230000D02*
G01*
X147550000Y-39770000D01*
X149000000Y-39770000D01*
X147550000Y-41230000D01*
G37*
X147550000Y-41230000D02*
X147550000Y-39770000D01*
X149000000Y-39770000D01*
X147550000Y-41230000D01*
X70250000Y-77750000D02*
X70250000Y-61250000D01*
X70250000Y-61250000D02*
X86750000Y-61250000D01*
X86750000Y-61250000D02*
X86750000Y-77750000D01*
X86750000Y-77750000D02*
X70250000Y-77750000D01*
G36*
X86750000Y-77750000D02*
G01*
X70250000Y-77750000D01*
X70250000Y-61250000D01*
X86750000Y-61250000D01*
X86750000Y-77750000D01*
G37*
X86750000Y-77750000D02*
X70250000Y-77750000D01*
X70250000Y-61250000D01*
X86750000Y-61250000D01*
X86750000Y-77750000D01*
X89550000Y-70220000D02*
X89550000Y-68775000D01*
X89550000Y-68775000D02*
X91000000Y-70220000D01*
X91000000Y-70220000D02*
X89550000Y-70220000D01*
G36*
X91000000Y-70220000D02*
G01*
X89550000Y-70220000D01*
X89550000Y-68775000D01*
X91000000Y-70220000D01*
G37*
X91000000Y-70220000D02*
X89550000Y-70220000D01*
X89550000Y-68775000D01*
X91000000Y-70220000D01*
X86750543Y-70225000D02*
X86750543Y-68775000D01*
X86750543Y-68775000D02*
X89550000Y-68775000D01*
X89550000Y-68775000D02*
X89550000Y-70225000D01*
X89550000Y-70225000D02*
X86750543Y-70225000D01*
G36*
X89550000Y-70225000D02*
G01*
X86750543Y-70225000D01*
X86750543Y-68775000D01*
X89550000Y-68775000D01*
X89550000Y-70225000D01*
G37*
X89550000Y-70225000D02*
X86750543Y-70225000D01*
X86750543Y-68775000D01*
X89550000Y-68775000D01*
X89550000Y-70225000D01*
X90999999Y-76992819D02*
X89550000Y-76992819D01*
X89550000Y-76992819D02*
X89550001Y-70220850D01*
X89550001Y-70220850D02*
X91000000Y-70220850D01*
X91000000Y-70220850D02*
X90999999Y-76992819D01*
G36*
X90999999Y-76992819D02*
G01*
X89550000Y-76992819D01*
X89550001Y-70220850D01*
X91000000Y-70220850D01*
X90999999Y-76992819D01*
G37*
X90999999Y-76992819D02*
X89550000Y-76992819D01*
X89550001Y-70220850D01*
X91000000Y-70220850D01*
X90999999Y-76992819D01*
X118550003Y-90997181D02*
X120000000Y-90997181D01*
X120000000Y-90997181D02*
X119999997Y-97769150D01*
X119999997Y-97769150D02*
X118550000Y-97769150D01*
X118550000Y-97769150D02*
X118550003Y-90997181D01*
G36*
X119999997Y-97769150D02*
G01*
X118550000Y-97769150D01*
X118550003Y-90997181D01*
X120000000Y-90997181D01*
X119999997Y-97769150D01*
G37*
X119999997Y-97769150D02*
X118550000Y-97769150D01*
X118550003Y-90997181D01*
X120000000Y-90997181D01*
X119999997Y-97769150D01*
X99250000Y-106750000D02*
X99250000Y-90250000D01*
X99250000Y-90250000D02*
X115750000Y-90250000D01*
X115750000Y-90250000D02*
X115750000Y-106750000D01*
X115750000Y-106750000D02*
X99250000Y-106750000D01*
G36*
X115750000Y-106750000D02*
G01*
X99250000Y-106750000D01*
X99250000Y-90250000D01*
X115750000Y-90250000D01*
X115750000Y-106750000D01*
G37*
X115750000Y-106750000D02*
X99250000Y-106750000D01*
X99250000Y-90250000D01*
X115750000Y-90250000D01*
X115750000Y-106750000D01*
X118550000Y-97770000D02*
X120000000Y-97770000D01*
X120000000Y-97770000D02*
X118550000Y-99230000D01*
X118550000Y-99230000D02*
X118550000Y-97770000D01*
G36*
X118550000Y-99230000D02*
G01*
X118550000Y-97770000D01*
X120000000Y-97770000D01*
X118550000Y-99230000D01*
G37*
X118550000Y-99230000D02*
X118550000Y-97770000D01*
X120000000Y-97770000D01*
X118550000Y-99230000D01*
X115750543Y-99225000D02*
X115750543Y-97775000D01*
X115750543Y-97775000D02*
X118550000Y-97775000D01*
X118550000Y-97775000D02*
X118550000Y-99230000D01*
X118550000Y-99230000D02*
X115750543Y-99225000D01*
G36*
X118550000Y-99230000D02*
G01*
X115750543Y-99225000D01*
X115750543Y-97775000D01*
X118550000Y-97775000D01*
X118550000Y-99230000D01*
G37*
X118550000Y-99230000D02*
X115750543Y-99225000D01*
X115750543Y-97775000D01*
X118550000Y-97775000D01*
X118550000Y-99230000D01*
X86750543Y-99225000D02*
X86750543Y-97775000D01*
X86750543Y-97775000D02*
X89550000Y-97775000D01*
X89550000Y-97775000D02*
X89550000Y-99230000D01*
X89550000Y-99230000D02*
X86750543Y-99225000D01*
G36*
X89550000Y-99230000D02*
G01*
X86750543Y-99225000D01*
X86750543Y-97775000D01*
X89550000Y-97775000D01*
X89550000Y-99230000D01*
G37*
X89550000Y-99230000D02*
X86750543Y-99225000D01*
X86750543Y-97775000D01*
X89550000Y-97775000D01*
X89550000Y-99230000D01*
X70250000Y-106750000D02*
X70250000Y-90250000D01*
X70250000Y-90250000D02*
X86750000Y-90250000D01*
X86750000Y-90250000D02*
X86750000Y-106750000D01*
X86750000Y-106750000D02*
X70250000Y-106750000D01*
G36*
X86750000Y-106750000D02*
G01*
X70250000Y-106750000D01*
X70250000Y-90250000D01*
X86750000Y-90250000D01*
X86750000Y-106750000D01*
G37*
X86750000Y-106750000D02*
X70250000Y-106750000D01*
X70250000Y-90250000D01*
X86750000Y-90250000D01*
X86750000Y-106750000D01*
X89550000Y-97770000D02*
X91000000Y-97770000D01*
X91000000Y-97770000D02*
X89550000Y-99230000D01*
X89550000Y-99230000D02*
X89550000Y-97770000D01*
G36*
X89550000Y-99230000D02*
G01*
X89550000Y-97770000D01*
X91000000Y-97770000D01*
X89550000Y-99230000D01*
G37*
X89550000Y-99230000D02*
X89550000Y-97770000D01*
X91000000Y-97770000D01*
X89550000Y-99230000D01*
X89550003Y-90997181D02*
X91000000Y-90997181D01*
X91000000Y-90997181D02*
X90999997Y-97769150D01*
X90999997Y-97769150D02*
X89550000Y-97769150D01*
X89550000Y-97769150D02*
X89550003Y-90997181D01*
G36*
X90999997Y-97769150D02*
G01*
X89550000Y-97769150D01*
X89550003Y-90997181D01*
X91000000Y-90997181D01*
X90999997Y-97769150D01*
G37*
X90999997Y-97769150D02*
X89550000Y-97769150D01*
X89550003Y-90997181D01*
X91000000Y-90997181D01*
X90999997Y-97769150D01*
X118550000Y-128220000D02*
X118550000Y-126775000D01*
X118550000Y-126775000D02*
X120000000Y-128220000D01*
X120000000Y-128220000D02*
X118550000Y-128220000D01*
G36*
X120000000Y-128220000D02*
G01*
X118550000Y-128220000D01*
X118550000Y-126775000D01*
X120000000Y-128220000D01*
G37*
X120000000Y-128220000D02*
X118550000Y-128220000D01*
X118550000Y-126775000D01*
X120000000Y-128220000D01*
X115750543Y-128225000D02*
X115750543Y-126775000D01*
X115750543Y-126775000D02*
X118550000Y-126775000D01*
X118550000Y-126775000D02*
X118550000Y-128225000D01*
X118550000Y-128225000D02*
X115750543Y-128225000D01*
G36*
X118550000Y-128225000D02*
G01*
X115750543Y-128225000D01*
X115750543Y-126775000D01*
X118550000Y-126775000D01*
X118550000Y-128225000D01*
G37*
X118550000Y-128225000D02*
X115750543Y-128225000D01*
X115750543Y-126775000D01*
X118550000Y-126775000D01*
X118550000Y-128225000D01*
X119999999Y-134992819D02*
X118550000Y-134992819D01*
X118550000Y-134992819D02*
X118550001Y-128220850D01*
X118550001Y-128220850D02*
X120000000Y-128220850D01*
X120000000Y-128220850D02*
X119999999Y-134992819D01*
G36*
X119999999Y-134992819D02*
G01*
X118550000Y-134992819D01*
X118550001Y-128220850D01*
X120000000Y-128220850D01*
X119999999Y-134992819D01*
G37*
X119999999Y-134992819D02*
X118550000Y-134992819D01*
X118550001Y-128220850D01*
X120000000Y-128220850D01*
X119999999Y-134992819D01*
X99250000Y-135750000D02*
X99250000Y-119250000D01*
X99250000Y-119250000D02*
X115750000Y-119250000D01*
X115750000Y-119250000D02*
X115750000Y-135750000D01*
X115750000Y-135750000D02*
X99250000Y-135750000D01*
G36*
X115750000Y-135750000D02*
G01*
X99250000Y-135750000D01*
X99250000Y-119250000D01*
X115750000Y-119250000D01*
X115750000Y-135750000D01*
G37*
X115750000Y-135750000D02*
X99250000Y-135750000D01*
X99250000Y-119250000D01*
X115750000Y-119250000D01*
X115750000Y-135750000D01*
X118550003Y-206997181D02*
X120000000Y-206997181D01*
X120000000Y-206997181D02*
X119999997Y-213769150D01*
X119999997Y-213769150D02*
X118550000Y-213769150D01*
X118550000Y-213769150D02*
X118550003Y-206997181D01*
G36*
X119999997Y-213769150D02*
G01*
X118550000Y-213769150D01*
X118550003Y-206997181D01*
X120000000Y-206997181D01*
X119999997Y-213769150D01*
G37*
X119999997Y-213769150D02*
X118550000Y-213769150D01*
X118550003Y-206997181D01*
X120000000Y-206997181D01*
X119999997Y-213769150D01*
X115750543Y-215225000D02*
X115750543Y-213775000D01*
X115750543Y-213775000D02*
X118550000Y-213775000D01*
X118550000Y-213775000D02*
X118550000Y-215230000D01*
X118550000Y-215230000D02*
X115750543Y-215225000D01*
G36*
X118550000Y-215230000D02*
G01*
X115750543Y-215225000D01*
X115750543Y-213775000D01*
X118550000Y-213775000D01*
X118550000Y-215230000D01*
G37*
X118550000Y-215230000D02*
X115750543Y-215225000D01*
X115750543Y-213775000D01*
X118550000Y-213775000D01*
X118550000Y-215230000D01*
X118550000Y-213770000D02*
X120000000Y-213770000D01*
X120000000Y-213770000D02*
X118550000Y-215230000D01*
X118550000Y-215230000D02*
X118550000Y-213770000D01*
G36*
X118550000Y-215230000D02*
G01*
X118550000Y-213770000D01*
X120000000Y-213770000D01*
X118550000Y-215230000D01*
G37*
X118550000Y-215230000D02*
X118550000Y-213770000D01*
X120000000Y-213770000D01*
X118550000Y-215230000D01*
X99250000Y-222750000D02*
X99250000Y-206250000D01*
X99250000Y-206250000D02*
X115750000Y-206250000D01*
X115750000Y-206250000D02*
X115750000Y-222750000D01*
X115750000Y-222750000D02*
X99250000Y-222750000D01*
G36*
X115750000Y-222750000D02*
G01*
X99250000Y-222750000D01*
X99250000Y-206250000D01*
X115750000Y-206250000D01*
X115750000Y-222750000D01*
G37*
X115750000Y-222750000D02*
X99250000Y-222750000D01*
X99250000Y-206250000D01*
X115750000Y-206250000D01*
X115750000Y-222750000D01*
X115750543Y-41225000D02*
X115750543Y-39775000D01*
X115750543Y-39775000D02*
X118550000Y-39775000D01*
X118550000Y-39775000D02*
X118550000Y-41230000D01*
X118550000Y-41230000D02*
X115750543Y-41225000D01*
G36*
X118550000Y-41230000D02*
G01*
X115750543Y-41225000D01*
X115750543Y-39775000D01*
X118550000Y-39775000D01*
X118550000Y-41230000D01*
G37*
X118550000Y-41230000D02*
X115750543Y-41225000D01*
X115750543Y-39775000D01*
X118550000Y-39775000D01*
X118550000Y-41230000D01*
X118550000Y-39770000D02*
X120000000Y-39770000D01*
X120000000Y-39770000D02*
X118550000Y-41230000D01*
X118550000Y-41230000D02*
X118550000Y-39770000D01*
G36*
X118550000Y-41230000D02*
G01*
X118550000Y-39770000D01*
X120000000Y-39770000D01*
X118550000Y-41230000D01*
G37*
X118550000Y-41230000D02*
X118550000Y-39770000D01*
X120000000Y-39770000D01*
X118550000Y-41230000D01*
X99250000Y-48750000D02*
X99250000Y-32250000D01*
X99250000Y-32250000D02*
X115750000Y-32250000D01*
X115750000Y-32250000D02*
X115750000Y-48750000D01*
X115750000Y-48750000D02*
X99250000Y-48750000D01*
G36*
X115750000Y-48750000D02*
G01*
X99250000Y-48750000D01*
X99250000Y-32250000D01*
X115750000Y-32250000D01*
X115750000Y-48750000D01*
G37*
X115750000Y-48750000D02*
X99250000Y-48750000D01*
X99250000Y-32250000D01*
X115750000Y-32250000D01*
X115750000Y-48750000D01*
X118550003Y-32997181D02*
X120000000Y-32997181D01*
X120000000Y-32997181D02*
X119999997Y-39769150D01*
X119999997Y-39769150D02*
X118550000Y-39769150D01*
X118550000Y-39769150D02*
X118550003Y-32997181D01*
G36*
X119999997Y-39769150D02*
G01*
X118550000Y-39769150D01*
X118550003Y-32997181D01*
X120000000Y-32997181D01*
X119999997Y-39769150D01*
G37*
X119999997Y-39769150D02*
X118550000Y-39769150D01*
X118550003Y-32997181D01*
X120000000Y-32997181D01*
X119999997Y-39769150D01*
%TD*%
D12*
%TO.P,H12,1,1*%
%TO.N,N/C*%
X170000000Y-113000000D03*
D13*
X170000000Y-113000000D03*
%TD*%
D14*
%TO.P,AE2,*%
%TO.N,*%
X104800000Y-84000000D03*
%TD*%
%TO.P,AE1,*%
%TO.N,*%
X104800000Y-26000000D03*
%TD*%
D12*
%TO.P,H4,1,1*%
%TO.N,N/C*%
X174000000Y-208000000D03*
D13*
X174000000Y-208000000D03*
%TD*%
D14*
%TO.P,AE3,*%
%TO.N,*%
X104800000Y-142000000D03*
%TD*%
%TO.P,AE4,*%
%TO.N,*%
X104800000Y-200000000D03*
%TD*%
D13*
%TO.P,H2,1,1*%
%TO.N,N/C*%
X174000000Y-18000000D03*
D12*
X174000000Y-18000000D03*
%TD*%
%TO.P,H3,1,1*%
%TO.N,N/C*%
X12000000Y-208000000D03*
D13*
X12000000Y-208000000D03*
%TD*%
D12*
%TO.P,H1,1,1*%
%TO.N,N/C*%
X12000000Y-18000000D03*
D13*
X12000000Y-18000000D03*
%TD*%
D12*
%TO.P,H11,1,1*%
%TO.N,N/C*%
X16000000Y-113000000D03*
D13*
X16000000Y-113000000D03*
%TD*%
D15*
%TO.N,*%
X119330000Y-80950000D02*
X148330000Y-80950000D01*
X148280000Y-203120000D02*
X119280000Y-203120000D01*
X148330000Y-22950000D02*
X148330000Y-18950000D01*
X148300000Y-91200000D02*
X148300000Y-87140000D01*
X90270000Y-203100000D02*
X61270000Y-203100000D01*
X61300000Y-134870000D02*
X61300000Y-138930000D01*
X61270000Y-91170000D02*
X61300000Y-91200000D01*
X90320000Y-196950000D02*
X90320000Y-192950000D01*
X104600000Y-142000002D02*
X82800000Y-142000002D01*
X90290000Y-206980000D02*
X90290000Y-203120000D01*
X61300000Y-138930000D02*
X61320000Y-138950000D01*
X61270000Y-29100000D02*
X61270000Y-33170000D01*
X126800000Y-84000000D02*
X105000000Y-84000000D01*
X90290000Y-90980000D02*
X90290000Y-87120000D01*
X90270000Y-145100000D02*
X61270000Y-145100000D01*
X61300000Y-22930000D02*
X61320000Y-22950000D01*
X148300000Y-33200000D02*
X148300000Y-29140000D01*
X126800000Y-26000000D02*
X105000000Y-26000000D01*
X119280000Y-87120000D02*
X119280000Y-91420000D01*
X61320000Y-138950000D02*
X90320000Y-138950000D01*
X148330000Y-138950000D02*
X148330000Y-134950000D01*
X61300000Y-80930000D02*
X61320000Y-80950000D01*
X119280000Y-203120000D02*
X119280000Y-207420000D01*
X61270000Y-207170000D02*
X61300000Y-207200000D01*
X90270000Y-29100000D02*
X61270000Y-29100000D01*
X104600000Y-84000002D02*
X82800000Y-84000002D01*
X61300000Y-76870000D02*
X61300000Y-80930000D01*
X90290000Y-32980000D02*
X90290000Y-29120000D01*
X61270000Y-87100000D02*
X61270000Y-91170000D01*
X148280000Y-87120000D02*
X119280000Y-87120000D01*
X61270000Y-149170000D02*
X61300000Y-149200000D01*
X119330000Y-22950000D02*
X148330000Y-22950000D01*
X119310000Y-18870000D02*
X119310000Y-22930000D01*
X61320000Y-22950000D02*
X90320000Y-22950000D01*
X119310000Y-192870000D02*
X119310000Y-196930000D01*
X148300000Y-149200000D02*
X148300000Y-145140000D01*
X119310000Y-22930000D02*
X119330000Y-22950000D01*
X148280000Y-145120000D02*
X119280000Y-145120000D01*
X148280000Y-29120000D02*
X119280000Y-29120000D01*
X61270000Y-145100000D02*
X61270000Y-149170000D01*
X90290000Y-203120000D02*
X90270000Y-203100000D01*
X119310000Y-134870000D02*
X119310000Y-138930000D01*
X148330000Y-80950000D02*
X148330000Y-76950000D01*
X90290000Y-87120000D02*
X90270000Y-87100000D01*
X90270000Y-87100000D02*
X61270000Y-87100000D01*
X90320000Y-22950000D02*
X90320000Y-18950000D01*
X119330000Y-138950000D02*
X148330000Y-138950000D01*
X119280000Y-145120000D02*
X119280000Y-149420000D01*
X104600000Y-26000002D02*
X82800000Y-26000002D01*
X119280000Y-29120000D02*
X119280000Y-33420000D01*
X90320000Y-80950000D02*
X90320000Y-76950000D01*
X119330000Y-196950000D02*
X148330000Y-196950000D01*
X61300000Y-18870000D02*
X61300000Y-22930000D01*
X61270000Y-33170000D02*
X61300000Y-33200000D01*
X61320000Y-80950000D02*
X90320000Y-80950000D01*
X90290000Y-148980000D02*
X90290000Y-145120000D01*
X119310000Y-80930000D02*
X119330000Y-80950000D01*
X61300000Y-196930000D02*
X61320000Y-196950000D01*
X148330000Y-196950000D02*
X148330000Y-192950000D01*
X61300000Y-192870000D02*
X61300000Y-196930000D01*
X119310000Y-196930000D02*
X119330000Y-196950000D01*
X126800000Y-200000000D02*
X105000000Y-200000000D01*
X104600000Y-200000002D02*
X82800000Y-200000002D01*
X90320000Y-138950000D02*
X90320000Y-134950000D01*
X90290000Y-145120000D02*
X90270000Y-145100000D01*
X148300000Y-207200000D02*
X148300000Y-203140000D01*
X119310000Y-138930000D02*
X119330000Y-138950000D01*
X61270000Y-203100000D02*
X61270000Y-207170000D01*
X126800000Y-142000000D02*
X105000000Y-142000000D01*
X90290000Y-29120000D02*
X90270000Y-29100000D01*
X119310000Y-76870000D02*
X119310000Y-80930000D01*
X61320000Y-196950000D02*
X90320000Y-196950000D01*
%TD*%
M02*
