%TF.GenerationSoftware,KiCad,Pcbnew,5.99.0-unknown-64afa3a42e~128~ubuntu20.04.1*%
%TF.CreationDate,2021-05-14T16:41:20-05:00*%
%TF.ProjectId,FlatAntPanel4x4,466c6174-416e-4745-9061-6e656c347834,rev?*%
%TF.SameCoordinates,Original*%
%TF.FileFunction,Soldermask,Bot*%
%TF.FilePolarity,Negative*%
%FSLAX46Y46*%
G04 Gerber Fmt 4.6, Leading zero omitted, Abs format (unit mm)*
G04 Created by KiCad (PCBNEW 5.99.0-unknown-64afa3a42e~128~ubuntu20.04.1) date 2021-05-14 16:41:20*
%MOMM*%
%LPD*%
G01*
G04 APERTURE LIST*
%ADD10C,0.000100*%
%ADD11C,5.000000*%
%ADD12C,2.900000*%
%ADD13C,1.565000*%
G04 APERTURE END LIST*
D10*
%TO.C,FEED 4*%
X102997704Y-200782490D02*
X102997704Y-199218379D01*
X102997704Y-199218379D02*
X100998415Y-199218380D01*
X100998415Y-199218380D02*
X100998415Y-200782490D01*
X100998415Y-200782490D02*
X102997704Y-200782490D01*
G36*
X102997704Y-200782490D02*
G01*
X100998415Y-200782490D01*
X100998415Y-199218380D01*
X102997704Y-199218379D01*
X102997704Y-200782490D01*
G37*
X102997704Y-200782490D02*
X100998415Y-200782490D01*
X100998415Y-199218380D01*
X102997704Y-199218379D01*
X102997704Y-200782490D01*
%TO.C,FEED 1*%
X102997703Y-26782489D02*
X102997703Y-25218378D01*
X102997703Y-25218378D02*
X100998414Y-25218379D01*
X100998414Y-25218379D02*
X100998414Y-26782489D01*
X100998414Y-26782489D02*
X102997703Y-26782489D01*
G36*
X102997703Y-26782489D02*
G01*
X100998414Y-26782489D01*
X100998414Y-25218379D01*
X102997703Y-25218378D01*
X102997703Y-26782489D01*
G37*
X102997703Y-26782489D02*
X100998414Y-26782489D01*
X100998414Y-25218379D01*
X102997703Y-25218378D01*
X102997703Y-26782489D01*
%TO.C,FEED 2*%
X102997704Y-84782490D02*
X102997704Y-83218379D01*
X102997704Y-83218379D02*
X100998415Y-83218380D01*
X100998415Y-83218380D02*
X100998415Y-84782490D01*
X100998415Y-84782490D02*
X102997704Y-84782490D01*
G36*
X102997704Y-84782490D02*
G01*
X100998415Y-84782490D01*
X100998415Y-83218380D01*
X102997704Y-83218379D01*
X102997704Y-84782490D01*
G37*
X102997704Y-84782490D02*
X100998415Y-84782490D01*
X100998415Y-83218380D01*
X102997704Y-83218379D01*
X102997704Y-84782490D01*
%TO.C,FEED 3*%
X102997704Y-142782490D02*
X102997704Y-141218379D01*
X102997704Y-141218379D02*
X100998415Y-141218380D01*
X100998415Y-141218380D02*
X100998415Y-142782490D01*
X100998415Y-142782490D02*
X102997704Y-142782490D01*
G36*
X102997704Y-142782490D02*
G01*
X100998415Y-142782490D01*
X100998415Y-141218380D01*
X102997704Y-141218379D01*
X102997704Y-142782490D01*
G37*
X102997704Y-142782490D02*
X100998415Y-142782490D01*
X100998415Y-141218380D01*
X102997704Y-141218379D01*
X102997704Y-142782490D01*
%TD*%
D11*
%TO.C,H11*%
X16000000Y-113000000D03*
D12*
X16000000Y-113000000D03*
%TD*%
%TO.C,H12*%
X170000000Y-113000000D03*
D11*
X170000000Y-113000000D03*
%TD*%
%TO.C,H10*%
X93000000Y-5000000D03*
D12*
X93000000Y-5000000D03*
%TD*%
D11*
%TO.C,H3*%
X12000000Y-208000000D03*
D12*
X12000000Y-208000000D03*
%TD*%
%TO.C,H1*%
X12000000Y-18000000D03*
D11*
X12000000Y-18000000D03*
%TD*%
%TO.C,H2*%
X174000000Y-18000000D03*
D12*
X174000000Y-18000000D03*
%TD*%
D11*
%TO.C,H12*%
X93000000Y-113000000D03*
D12*
X93000000Y-113000000D03*
%TD*%
D11*
%TO.C,H4*%
X174000000Y-208000000D03*
D12*
X174000000Y-208000000D03*
%TD*%
D11*
%TO.C,H9*%
X93000000Y-221000000D03*
D12*
X93000000Y-221000000D03*
%TD*%
D13*
%TO.C,FEED 4*%
X102000000Y-200000000D03*
%TD*%
%TO.C,FEED 1*%
X101999999Y-25999999D03*
%TD*%
%TO.C,FEED 2*%
X102000000Y-84000000D03*
%TD*%
%TO.C,FEED 3*%
X102000000Y-142000000D03*
%TD*%
M02*
