%TF.GenerationSoftware,KiCad,Pcbnew,5.99.0-unknown-64afa3a42e~128~ubuntu20.04.1*%
%TF.CreationDate,2021-05-14T16:41:19-05:00*%
%TF.ProjectId,FlatAntPanel4x4,466c6174-416e-4745-9061-6e656c347834,rev?*%
%TF.SameCoordinates,Original*%
%TF.FileFunction,Legend,Bot*%
%TF.FilePolarity,Positive*%
%FSLAX46Y46*%
G04 Gerber Fmt 4.6, Leading zero omitted, Abs format (unit mm)*
G04 Created by KiCad (PCBNEW 5.99.0-unknown-64afa3a42e~128~ubuntu20.04.1) date 2021-05-14 16:41:19*
%MOMM*%
%LPD*%
G01*
G04 APERTURE LIST*
%ADD10C,0.150000*%
G04 APERTURE END LIST*
D10*
%TO.C,FEED 4*%
X104084047Y-201754571D02*
X104417380Y-201754571D01*
X104417380Y-202278380D02*
X104417380Y-201278380D01*
X103941190Y-201278380D01*
X103560238Y-201754571D02*
X103226904Y-201754571D01*
X103084047Y-202278380D02*
X103560238Y-202278380D01*
X103560238Y-201278380D01*
X103084047Y-201278380D01*
X102655476Y-201754571D02*
X102322142Y-201754571D01*
X102179285Y-202278380D02*
X102655476Y-202278380D01*
X102655476Y-201278380D01*
X102179285Y-201278380D01*
X101750714Y-202278380D02*
X101750714Y-201278380D01*
X101512619Y-201278380D01*
X101369761Y-201326000D01*
X101274523Y-201421238D01*
X101226904Y-201516476D01*
X101179285Y-201706952D01*
X101179285Y-201849809D01*
X101226904Y-202040285D01*
X101274523Y-202135523D01*
X101369761Y-202230761D01*
X101512619Y-202278380D01*
X101750714Y-202278380D01*
X99560238Y-201611714D02*
X99560238Y-202278380D01*
X99798333Y-201230761D02*
X100036428Y-201945047D01*
X99417380Y-201945047D01*
%TO.C,FEED 1*%
X104084046Y-27754570D02*
X104417379Y-27754570D01*
X104417379Y-28278379D02*
X104417379Y-27278379D01*
X103941189Y-27278379D01*
X103560237Y-27754570D02*
X103226903Y-27754570D01*
X103084046Y-28278379D02*
X103560237Y-28278379D01*
X103560237Y-27278379D01*
X103084046Y-27278379D01*
X102655475Y-27754570D02*
X102322141Y-27754570D01*
X102179284Y-28278379D02*
X102655475Y-28278379D01*
X102655475Y-27278379D01*
X102179284Y-27278379D01*
X101750713Y-28278379D02*
X101750713Y-27278379D01*
X101512618Y-27278379D01*
X101369760Y-27325999D01*
X101274522Y-27421237D01*
X101226903Y-27516475D01*
X101179284Y-27706951D01*
X101179284Y-27849808D01*
X101226903Y-28040284D01*
X101274522Y-28135522D01*
X101369760Y-28230760D01*
X101512618Y-28278379D01*
X101750713Y-28278379D01*
X99464999Y-28278379D02*
X100036427Y-28278379D01*
X99750713Y-28278379D02*
X99750713Y-27278379D01*
X99845951Y-27421237D01*
X99941189Y-27516475D01*
X100036427Y-27564094D01*
%TO.C,FEED 2*%
X104084047Y-85754571D02*
X104417380Y-85754571D01*
X104417380Y-86278380D02*
X104417380Y-85278380D01*
X103941190Y-85278380D01*
X103560238Y-85754571D02*
X103226904Y-85754571D01*
X103084047Y-86278380D02*
X103560238Y-86278380D01*
X103560238Y-85278380D01*
X103084047Y-85278380D01*
X102655476Y-85754571D02*
X102322142Y-85754571D01*
X102179285Y-86278380D02*
X102655476Y-86278380D01*
X102655476Y-85278380D01*
X102179285Y-85278380D01*
X101750714Y-86278380D02*
X101750714Y-85278380D01*
X101512619Y-85278380D01*
X101369761Y-85326000D01*
X101274523Y-85421238D01*
X101226904Y-85516476D01*
X101179285Y-85706952D01*
X101179285Y-85849809D01*
X101226904Y-86040285D01*
X101274523Y-86135523D01*
X101369761Y-86230761D01*
X101512619Y-86278380D01*
X101750714Y-86278380D01*
X100036428Y-85373619D02*
X99988809Y-85326000D01*
X99893571Y-85278380D01*
X99655476Y-85278380D01*
X99560238Y-85326000D01*
X99512619Y-85373619D01*
X99465000Y-85468857D01*
X99465000Y-85564095D01*
X99512619Y-85706952D01*
X100084047Y-86278380D01*
X99465000Y-86278380D01*
%TO.C,FEED 3*%
X104084047Y-143754571D02*
X104417380Y-143754571D01*
X104417380Y-144278380D02*
X104417380Y-143278380D01*
X103941190Y-143278380D01*
X103560238Y-143754571D02*
X103226904Y-143754571D01*
X103084047Y-144278380D02*
X103560238Y-144278380D01*
X103560238Y-143278380D01*
X103084047Y-143278380D01*
X102655476Y-143754571D02*
X102322142Y-143754571D01*
X102179285Y-144278380D02*
X102655476Y-144278380D01*
X102655476Y-143278380D01*
X102179285Y-143278380D01*
X101750714Y-144278380D02*
X101750714Y-143278380D01*
X101512619Y-143278380D01*
X101369761Y-143326000D01*
X101274523Y-143421238D01*
X101226904Y-143516476D01*
X101179285Y-143706952D01*
X101179285Y-143849809D01*
X101226904Y-144040285D01*
X101274523Y-144135523D01*
X101369761Y-144230761D01*
X101512619Y-144278380D01*
X101750714Y-144278380D01*
X100084047Y-143278380D02*
X99465000Y-143278380D01*
X99798333Y-143659333D01*
X99655476Y-143659333D01*
X99560238Y-143706952D01*
X99512619Y-143754571D01*
X99465000Y-143849809D01*
X99465000Y-144087904D01*
X99512619Y-144183142D01*
X99560238Y-144230761D01*
X99655476Y-144278380D01*
X99941190Y-144278380D01*
X100036428Y-144230761D01*
X100084047Y-144183142D01*
%TD*%
M02*
