%TF.GenerationSoftware,KiCad,Pcbnew,5.99.0-unknown-f19440f72~106~ubuntu20.04.1*%
%TF.CreationDate,2020-11-18T11:03:41-06:00*%
%TF.ProjectId,FlatAntPanel4x4,466c6174-416e-4745-9061-6e656c347834,rev?*%
%TF.SameCoordinates,Original*%
%TF.FileFunction,Soldermask,Top*%
%TF.FilePolarity,Negative*%
%FSLAX46Y46*%
G04 Gerber Fmt 4.6, Leading zero omitted, Abs format (unit mm)*
G04 Created by KiCad (PCBNEW 5.99.0-unknown-f19440f72~106~ubuntu20.04.1) date 2020-11-18 11:03:41*
%MOMM*%
%LPD*%
G01*
G04 APERTURE LIST*
%ADD10C,0.000100*%
%ADD11C,2.900000*%
%ADD12C,5.000000*%
%ADD13C,1.524000*%
G04 APERTURE END LIST*
D10*
%TO.C,AE2*%
X106036600Y-83187200D02*
X106036600Y-84787400D01*
X106036600Y-84787400D02*
X103696151Y-84787399D01*
X103696151Y-84787399D02*
X103696151Y-83187200D01*
X103696151Y-83187200D02*
X106036600Y-83187200D01*
G36*
X106036600Y-84787400D02*
G01*
X103696151Y-84787399D01*
X103696151Y-83187200D01*
X106036600Y-83187200D01*
X106036600Y-84787400D01*
G37*
X106036600Y-84787400D02*
X103696151Y-84787399D01*
X103696151Y-83187200D01*
X106036600Y-83187200D01*
X106036600Y-84787400D01*
%TO.C,AE1*%
X106036600Y-25187200D02*
X106036600Y-26787400D01*
X106036600Y-26787400D02*
X103696151Y-26787399D01*
X103696151Y-26787399D02*
X103696151Y-25187200D01*
X103696151Y-25187200D02*
X106036600Y-25187200D01*
G36*
X106036600Y-26787400D02*
G01*
X103696151Y-26787399D01*
X103696151Y-25187200D01*
X106036600Y-25187200D01*
X106036600Y-26787400D01*
G37*
X106036600Y-26787400D02*
X103696151Y-26787399D01*
X103696151Y-25187200D01*
X106036600Y-25187200D01*
X106036600Y-26787400D01*
%TO.C,AE3*%
X106036600Y-141187200D02*
X106036600Y-142787400D01*
X106036600Y-142787400D02*
X103696151Y-142787399D01*
X103696151Y-142787399D02*
X103696151Y-141187200D01*
X103696151Y-141187200D02*
X106036600Y-141187200D01*
G36*
X106036600Y-142787400D02*
G01*
X103696151Y-142787399D01*
X103696151Y-141187200D01*
X106036600Y-141187200D01*
X106036600Y-142787400D01*
G37*
X106036600Y-142787400D02*
X103696151Y-142787399D01*
X103696151Y-141187200D01*
X106036600Y-141187200D01*
X106036600Y-142787400D01*
%TO.C,AE4*%
X106036600Y-199187200D02*
X106036600Y-200787400D01*
X106036600Y-200787400D02*
X103696151Y-200787399D01*
X103696151Y-200787399D02*
X103696151Y-199187200D01*
X103696151Y-199187200D02*
X106036600Y-199187200D01*
G36*
X106036600Y-200787400D02*
G01*
X103696151Y-200787399D01*
X103696151Y-199187200D01*
X106036600Y-199187200D01*
X106036600Y-200787400D01*
G37*
X106036600Y-200787400D02*
X103696151Y-200787399D01*
X103696151Y-199187200D01*
X106036600Y-199187200D01*
X106036600Y-200787400D01*
%TD*%
D11*
%TO.C,H12*%
X170000000Y-113000000D03*
D12*
X170000000Y-113000000D03*
%TD*%
D13*
%TO.C,AE2*%
X104800000Y-84000000D03*
%TD*%
%TO.C,AE1*%
X104800000Y-26000000D03*
%TD*%
D11*
%TO.C,H4*%
X174000000Y-208000000D03*
D12*
X174000000Y-208000000D03*
%TD*%
D13*
%TO.C,AE3*%
X104800000Y-142000000D03*
%TD*%
%TO.C,AE4*%
X104800000Y-200000000D03*
%TD*%
D12*
%TO.C,H2*%
X174000000Y-18000000D03*
D11*
X174000000Y-18000000D03*
%TD*%
%TO.C,H3*%
X12000000Y-208000000D03*
D12*
X12000000Y-208000000D03*
%TD*%
D11*
%TO.C,H1*%
X12000000Y-18000000D03*
D12*
X12000000Y-18000000D03*
%TD*%
D11*
%TO.C,H11*%
X16000000Y-113000000D03*
D12*
X16000000Y-113000000D03*
%TD*%
M02*
