%TF.GenerationSoftware,KiCad,Pcbnew,5.99.0-unknown-912657dd23~106~ubuntu20.04.1*%
%TF.CreationDate,2020-12-24T12:23:06-06:00*%
%TF.ProjectId,FlatAntPanel4x4,466c6174-416e-4745-9061-6e656c347834,rev?*%
%TF.SameCoordinates,Original*%
%TF.FileFunction,Copper,L2,Inr*%
%TF.FilePolarity,Positive*%
%FSLAX46Y46*%
G04 Gerber Fmt 4.6, Leading zero omitted, Abs format (unit mm)*
G04 Created by KiCad (PCBNEW 5.99.0-unknown-912657dd23~106~ubuntu20.04.1) date 2020-12-24 12:23:06*
%MOMM*%
%LPD*%
G01*
G04 APERTURE LIST*
%TA.AperFunction,ComponentPad*%
%ADD10C,2.900000*%
%TD*%
%TA.AperFunction,ViaPad*%
%ADD11C,0.800100*%
%TD*%
%TA.AperFunction,Conductor*%
%ADD12C,0.254000*%
%TD*%
G04 APERTURE END LIST*
D10*
%TO.N,N/C*%
%TO.C,H10*%
X93000000Y-5000000D03*
%TD*%
%TO.N,N/C*%
%TO.C,H12*%
X170000000Y-113000000D03*
%TD*%
%TO.N,N/C*%
%TO.C,H4*%
X174000000Y-208000000D03*
%TD*%
%TO.N,N/C*%
%TO.C,H9*%
X93000000Y-221000000D03*
%TD*%
%TO.N,N/C*%
%TO.C,H2*%
X174000000Y-18000000D03*
%TD*%
%TO.N,N/C*%
%TO.C,H3*%
X12000000Y-208000000D03*
%TD*%
%TO.N,N/C*%
%TO.C,H1*%
X12000000Y-18000000D03*
%TD*%
%TO.N,N/C*%
%TO.C,H11*%
X16000000Y-113000000D03*
%TD*%
D11*
%TO.N,GND*%
X74100000Y-46600000D03*
X114800000Y-152400000D03*
X114800000Y-155900000D03*
X91914000Y-157100000D03*
X73500000Y-45000000D03*
X108800000Y-153900000D03*
X71500000Y-45000000D03*
X78000000Y-48500000D03*
X104300000Y-64000000D03*
X77600000Y-46600000D03*
X99800000Y-67500000D03*
X91514000Y-158700000D03*
X79500000Y-47000000D03*
X100200000Y-65900000D03*
X80000000Y-45000000D03*
X93914000Y-157100000D03*
X87414000Y-157100000D03*
X106300000Y-67500000D03*
X88014000Y-158700000D03*
X110300000Y-152400000D03*
X97800000Y-67500000D03*
X110700000Y-154300000D03*
X93414000Y-159100000D03*
X104300000Y-67500000D03*
X116800000Y-155900000D03*
X105800000Y-65500000D03*
X91914000Y-160600000D03*
X73500000Y-48500000D03*
X72000000Y-47000000D03*
X114200000Y-154300000D03*
X98300000Y-65500000D03*
X108300000Y-155900000D03*
X103700000Y-65900000D03*
X116300000Y-153900000D03*
X99800000Y-64000000D03*
X110300000Y-155900000D03*
X78000000Y-45000000D03*
X85914000Y-159100000D03*
X87414000Y-160600000D03*
%TD*%
%TO.N,GND*%
D12*
X185366000Y-107366000D02*
X180078872Y-107366000D01*
X180050364Y-107361891D01*
X180030965Y-107360610D01*
X179789590Y-107363338D01*
X179775759Y-107362442D01*
X179756321Y-107362686D01*
X179743255Y-107363862D01*
X179733431Y-107363973D01*
X179715583Y-107365448D01*
X179701618Y-107367609D01*
X179288233Y-107404815D01*
X179271321Y-107405239D01*
X179251976Y-107407224D01*
X179242634Y-107408919D01*
X179236449Y-107409476D01*
X179218773Y-107412344D01*
X179202241Y-107416249D01*
X178789557Y-107491140D01*
X178772740Y-107493080D01*
X178753655Y-107496791D01*
X178744505Y-107499316D01*
X178738390Y-107500426D01*
X178721043Y-107504867D01*
X178704931Y-107510238D01*
X178300626Y-107621820D01*
X178284043Y-107625261D01*
X178265370Y-107630667D01*
X178256481Y-107634003D01*
X178250488Y-107635657D01*
X178233611Y-107641635D01*
X178218056Y-107648424D01*
X177825358Y-107795805D01*
X177809165Y-107800714D01*
X177791052Y-107807771D01*
X177782493Y-107811892D01*
X177776673Y-107814077D01*
X177760401Y-107821544D01*
X177745523Y-107829697D01*
X177367630Y-108011682D01*
X177351925Y-108018029D01*
X177334517Y-108026683D01*
X177326363Y-108031555D01*
X177320760Y-108034253D01*
X177305224Y-108043147D01*
X177291121Y-108052611D01*
X176931073Y-108267731D01*
X176916006Y-108275457D01*
X176899440Y-108285638D01*
X176891763Y-108291216D01*
X176886425Y-108294405D01*
X176871745Y-108304659D01*
X176858556Y-108315342D01*
X176519224Y-108561881D01*
X176504914Y-108570925D01*
X176489326Y-108582551D01*
X176482175Y-108588799D01*
X176477155Y-108592446D01*
X176463447Y-108603979D01*
X176451266Y-108615804D01*
X176135420Y-108891752D01*
X176121964Y-108902053D01*
X176107486Y-108915026D01*
X176100919Y-108921894D01*
X176096244Y-108925979D01*
X176083630Y-108938689D01*
X176072560Y-108951556D01*
X175782709Y-109254716D01*
X175770241Y-109266173D01*
X175756983Y-109280393D01*
X175751066Y-109287812D01*
X175746767Y-109292309D01*
X175735343Y-109306099D01*
X175725469Y-109319909D01*
X175463962Y-109647828D01*
X175452570Y-109660357D01*
X175440639Y-109675708D01*
X175435406Y-109683636D01*
X175431534Y-109688491D01*
X175421394Y-109703248D01*
X175412800Y-109717883D01*
X175181737Y-110067931D01*
X175171514Y-110081430D01*
X175161006Y-110097791D01*
X175156509Y-110106148D01*
X175153085Y-110111335D01*
X175144307Y-110126943D01*
X175137053Y-110142304D01*
X174938307Y-110511637D01*
X174929333Y-110526002D01*
X174920336Y-110543236D01*
X174916606Y-110551963D01*
X174913658Y-110557441D01*
X174906316Y-110573769D01*
X174900463Y-110589732D01*
X174735627Y-110975384D01*
X174727978Y-110990494D01*
X174720562Y-111008466D01*
X174717631Y-111017486D01*
X174715186Y-111023207D01*
X174709335Y-111040133D01*
X174704938Y-111056549D01*
X174575336Y-111455427D01*
X174569073Y-111471160D01*
X174563296Y-111489726D01*
X174561181Y-111498991D01*
X174559263Y-111504895D01*
X174554953Y-111522279D01*
X174552051Y-111538996D01*
X174458717Y-111947915D01*
X174453891Y-111964141D01*
X174449803Y-111983147D01*
X174448529Y-111992550D01*
X174447144Y-111998619D01*
X174444411Y-112016314D01*
X174443018Y-112033232D01*
X174386718Y-112448865D01*
X174383365Y-112465459D01*
X174380997Y-112484756D01*
X174380571Y-112494241D01*
X174379736Y-112500405D01*
X174378600Y-112518272D01*
X174378729Y-112535252D01*
X174359911Y-112954249D01*
X174358059Y-112971088D01*
X174357431Y-112990519D01*
X174357857Y-112999998D01*
X174357578Y-113006205D01*
X174358048Y-113024107D01*
X174359698Y-113041004D01*
X174378516Y-113460023D01*
X174378181Y-113476940D01*
X174379296Y-113496350D01*
X174380570Y-113505756D01*
X174380849Y-113511966D01*
X174382922Y-113529757D01*
X174386083Y-113546448D01*
X174442380Y-113962060D01*
X174443564Y-113978957D01*
X174446414Y-113998185D01*
X174448530Y-114007455D01*
X174449363Y-114013606D01*
X174453022Y-114031133D01*
X174457658Y-114047444D01*
X174550995Y-114456381D01*
X174553686Y-114473089D01*
X174558250Y-114491990D01*
X174561183Y-114501017D01*
X174562566Y-114507076D01*
X174567782Y-114524211D01*
X174573877Y-114540081D01*
X174703477Y-114938954D01*
X174707659Y-114955368D01*
X174713896Y-114973775D01*
X174717628Y-114982506D01*
X174719550Y-114988422D01*
X174726280Y-115005015D01*
X174733769Y-115020269D01*
X174898597Y-115405900D01*
X174904239Y-115421891D01*
X174912105Y-115439674D01*
X174916606Y-115448039D01*
X174919047Y-115453749D01*
X174927238Y-115469674D01*
X174936055Y-115484179D01*
X175134807Y-115853524D01*
X175141853Y-115868927D01*
X175151279Y-115885929D01*
X175156509Y-115893852D01*
X175159453Y-115899323D01*
X175169039Y-115914451D01*
X175179127Y-115928116D01*
X175410189Y-116278164D01*
X175418580Y-116292860D01*
X175429492Y-116308948D01*
X175435403Y-116316360D01*
X175438832Y-116321555D01*
X175449736Y-116335763D01*
X175461014Y-116348475D01*
X175722509Y-116676377D01*
X175732188Y-116690271D01*
X175744505Y-116705325D01*
X175751059Y-116712179D01*
X175754934Y-116717039D01*
X175767071Y-116730216D01*
X175779428Y-116741852D01*
X176069277Y-117045010D01*
X176080165Y-117057983D01*
X176093777Y-117071867D01*
X176100926Y-117078113D01*
X176105219Y-117082603D01*
X176118485Y-117094637D01*
X176131847Y-117105128D01*
X176447709Y-117381089D01*
X176459701Y-117393018D01*
X176474499Y-117405624D01*
X176482174Y-117411201D01*
X176486862Y-117415296D01*
X176501150Y-117426089D01*
X176515407Y-117435345D01*
X176854712Y-117681865D01*
X176867739Y-117692683D01*
X176883609Y-117703912D01*
X176891764Y-117708785D01*
X176896790Y-117712436D01*
X176911987Y-117721905D01*
X176927008Y-117729842D01*
X177287059Y-117944962D01*
X177300999Y-117954566D01*
X177317812Y-117964327D01*
X177326350Y-117968439D01*
X177331698Y-117971634D01*
X177347685Y-117979703D01*
X177363356Y-117986261D01*
X177741255Y-118168248D01*
X177755986Y-118176556D01*
X177773607Y-118184772D01*
X177782491Y-118188106D01*
X177788097Y-118190806D01*
X177804737Y-118197408D01*
X177820940Y-118202537D01*
X178213635Y-118349918D01*
X178229044Y-118356868D01*
X178247330Y-118363471D01*
X178256465Y-118365992D01*
X178262300Y-118368182D01*
X178279470Y-118373267D01*
X178296080Y-118376925D01*
X178700376Y-118488505D01*
X178716363Y-118494052D01*
X178735162Y-118498988D01*
X178744503Y-118500683D01*
X178750499Y-118502338D01*
X178768055Y-118505863D01*
X178784916Y-118508016D01*
X179197578Y-118582903D01*
X179214010Y-118586998D01*
X179233179Y-118590230D01*
X179242643Y-118591082D01*
X179248755Y-118592191D01*
X179266554Y-118594127D01*
X179283502Y-118594759D01*
X179697134Y-118631987D01*
X179710787Y-118634271D01*
X179730153Y-118635990D01*
X179743258Y-118636138D01*
X179753056Y-118637020D01*
X179770958Y-118637354D01*
X179785098Y-118636611D01*
X180027687Y-118639353D01*
X180045562Y-118638282D01*
X180078077Y-118634000D01*
X185366000Y-118634000D01*
X185366000Y-225366000D01*
X634000Y-225366000D01*
X634000Y-220943272D01*
X90911566Y-220943272D01*
X90922455Y-221220410D01*
X90924408Y-221238100D01*
X90974237Y-221510940D01*
X90978663Y-221528179D01*
X91066439Y-221791275D01*
X91073250Y-221807718D01*
X91197220Y-222055822D01*
X91206280Y-222071142D01*
X91363972Y-222299303D01*
X91375100Y-222313193D01*
X91563367Y-222516859D01*
X91576341Y-222529042D01*
X91791426Y-222704149D01*
X91805988Y-222714384D01*
X92043601Y-222857438D01*
X92059459Y-222865517D01*
X92314857Y-222973665D01*
X92331696Y-222979431D01*
X92599785Y-223050513D01*
X92617267Y-223053848D01*
X92892696Y-223086447D01*
X92910474Y-223087285D01*
X93187750Y-223080751D01*
X93205470Y-223079076D01*
X93479058Y-223033538D01*
X93496364Y-223029383D01*
X93760807Y-222945751D01*
X93777355Y-222939199D01*
X94027375Y-222819141D01*
X94042835Y-222810323D01*
X94273445Y-222656234D01*
X94287508Y-222645326D01*
X94494106Y-222460282D01*
X94506492Y-222447500D01*
X94684956Y-222235191D01*
X94695417Y-222220793D01*
X94842186Y-221985457D01*
X94850515Y-221969727D01*
X94962660Y-221716059D01*
X94968688Y-221699314D01*
X95043973Y-221432375D01*
X95047583Y-221414946D01*
X95084504Y-221140062D01*
X95085563Y-221127247D01*
X95089438Y-221003958D01*
X95089185Y-220991101D01*
X95069596Y-220714441D01*
X95067089Y-220696821D01*
X95008715Y-220425682D01*
X95003749Y-220408590D01*
X94907752Y-220148381D01*
X94900428Y-220132160D01*
X94768726Y-219888072D01*
X94759189Y-219873045D01*
X94594408Y-219649950D01*
X94582850Y-219636416D01*
X94388279Y-219438764D01*
X94374928Y-219426994D01*
X94154448Y-219258729D01*
X94139572Y-219248958D01*
X93897584Y-219113438D01*
X93881480Y-219105860D01*
X93622810Y-219005788D01*
X93605799Y-219000554D01*
X93335610Y-218937928D01*
X93318031Y-218935144D01*
X93041713Y-218911212D01*
X93023917Y-218910932D01*
X92746984Y-218926173D01*
X92729327Y-218928404D01*
X92457304Y-218982513D01*
X92440137Y-218987209D01*
X92178452Y-219079106D01*
X92162117Y-219086175D01*
X91915991Y-219214027D01*
X91900816Y-219223326D01*
X91675160Y-219384582D01*
X91661446Y-219395927D01*
X91460762Y-219587370D01*
X91448784Y-219600534D01*
X91277077Y-219818343D01*
X91267073Y-219833064D01*
X91127769Y-220072894D01*
X91119939Y-220088877D01*
X91015817Y-220345943D01*
X91010317Y-220362869D01*
X90943454Y-220632041D01*
X90940394Y-220649575D01*
X90912125Y-220925483D01*
X90911566Y-220943272D01*
X634000Y-220943272D01*
X634000Y-207943272D01*
X9911566Y-207943272D01*
X9922455Y-208220410D01*
X9924408Y-208238100D01*
X9974237Y-208510940D01*
X9978663Y-208528179D01*
X10066439Y-208791275D01*
X10073250Y-208807718D01*
X10197220Y-209055822D01*
X10206280Y-209071142D01*
X10363972Y-209299303D01*
X10375100Y-209313193D01*
X10563367Y-209516859D01*
X10576341Y-209529042D01*
X10791426Y-209704149D01*
X10805988Y-209714384D01*
X11043601Y-209857438D01*
X11059459Y-209865517D01*
X11314857Y-209973665D01*
X11331696Y-209979431D01*
X11599785Y-210050513D01*
X11617267Y-210053848D01*
X11892696Y-210086447D01*
X11910474Y-210087285D01*
X12187750Y-210080751D01*
X12205470Y-210079076D01*
X12479058Y-210033538D01*
X12496364Y-210029383D01*
X12760807Y-209945751D01*
X12777355Y-209939199D01*
X13027375Y-209819141D01*
X13042835Y-209810323D01*
X13273445Y-209656234D01*
X13287508Y-209645326D01*
X13494106Y-209460282D01*
X13506492Y-209447500D01*
X13684956Y-209235191D01*
X13695417Y-209220793D01*
X13842186Y-208985457D01*
X13850515Y-208969727D01*
X13962660Y-208716059D01*
X13968688Y-208699314D01*
X14043973Y-208432375D01*
X14047583Y-208414946D01*
X14084504Y-208140062D01*
X14085563Y-208127247D01*
X14089438Y-208003958D01*
X14089185Y-207991101D01*
X14085799Y-207943272D01*
X171911566Y-207943272D01*
X171922455Y-208220410D01*
X171924408Y-208238100D01*
X171974237Y-208510940D01*
X171978663Y-208528179D01*
X172066439Y-208791275D01*
X172073250Y-208807718D01*
X172197220Y-209055822D01*
X172206280Y-209071142D01*
X172363972Y-209299303D01*
X172375100Y-209313193D01*
X172563367Y-209516859D01*
X172576341Y-209529042D01*
X172791426Y-209704149D01*
X172805988Y-209714384D01*
X173043601Y-209857438D01*
X173059459Y-209865517D01*
X173314857Y-209973665D01*
X173331696Y-209979431D01*
X173599785Y-210050513D01*
X173617267Y-210053848D01*
X173892696Y-210086447D01*
X173910474Y-210087285D01*
X174187750Y-210080751D01*
X174205470Y-210079076D01*
X174479058Y-210033538D01*
X174496364Y-210029383D01*
X174760807Y-209945751D01*
X174777355Y-209939199D01*
X175027375Y-209819141D01*
X175042835Y-209810323D01*
X175273445Y-209656234D01*
X175287508Y-209645326D01*
X175494106Y-209460282D01*
X175506492Y-209447500D01*
X175684956Y-209235191D01*
X175695417Y-209220793D01*
X175842186Y-208985457D01*
X175850515Y-208969727D01*
X175962660Y-208716059D01*
X175968688Y-208699314D01*
X176043973Y-208432375D01*
X176047583Y-208414946D01*
X176084504Y-208140062D01*
X176085563Y-208127247D01*
X176089438Y-208003958D01*
X176089185Y-207991101D01*
X176069596Y-207714441D01*
X176067089Y-207696821D01*
X176008715Y-207425682D01*
X176003749Y-207408590D01*
X175907752Y-207148381D01*
X175900428Y-207132160D01*
X175768726Y-206888072D01*
X175759189Y-206873045D01*
X175594408Y-206649950D01*
X175582850Y-206636416D01*
X175388279Y-206438764D01*
X175374928Y-206426994D01*
X175154448Y-206258729D01*
X175139572Y-206248958D01*
X174897584Y-206113438D01*
X174881480Y-206105860D01*
X174622810Y-206005788D01*
X174605799Y-206000554D01*
X174335610Y-205937928D01*
X174318031Y-205935144D01*
X174041713Y-205911212D01*
X174023917Y-205910932D01*
X173746984Y-205926173D01*
X173729327Y-205928404D01*
X173457304Y-205982513D01*
X173440137Y-205987209D01*
X173178452Y-206079106D01*
X173162117Y-206086175D01*
X172915991Y-206214027D01*
X172900816Y-206223326D01*
X172675160Y-206384582D01*
X172661446Y-206395927D01*
X172460762Y-206587370D01*
X172448784Y-206600534D01*
X172277077Y-206818343D01*
X172267073Y-206833064D01*
X172127769Y-207072894D01*
X172119939Y-207088877D01*
X172015817Y-207345943D01*
X172010317Y-207362869D01*
X171943454Y-207632041D01*
X171940394Y-207649575D01*
X171912125Y-207925483D01*
X171911566Y-207943272D01*
X14085799Y-207943272D01*
X14069596Y-207714441D01*
X14067089Y-207696821D01*
X14008715Y-207425682D01*
X14003749Y-207408590D01*
X13907752Y-207148381D01*
X13900428Y-207132160D01*
X13768726Y-206888072D01*
X13759189Y-206873045D01*
X13594408Y-206649950D01*
X13582850Y-206636416D01*
X13388279Y-206438764D01*
X13374928Y-206426994D01*
X13154448Y-206258729D01*
X13139572Y-206248958D01*
X12897584Y-206113438D01*
X12881480Y-206105860D01*
X12622810Y-206005788D01*
X12605799Y-206000554D01*
X12335610Y-205937928D01*
X12318031Y-205935144D01*
X12041713Y-205911212D01*
X12023917Y-205910932D01*
X11746984Y-205926173D01*
X11729327Y-205928404D01*
X11457304Y-205982513D01*
X11440137Y-205987209D01*
X11178452Y-206079106D01*
X11162117Y-206086175D01*
X10915991Y-206214027D01*
X10900816Y-206223326D01*
X10675160Y-206384582D01*
X10661446Y-206395927D01*
X10460762Y-206587370D01*
X10448784Y-206600534D01*
X10277077Y-206818343D01*
X10267073Y-206833064D01*
X10127769Y-207072894D01*
X10119939Y-207088877D01*
X10015817Y-207345943D01*
X10010317Y-207362869D01*
X9943454Y-207632041D01*
X9940394Y-207649575D01*
X9912125Y-207925483D01*
X9911566Y-207943272D01*
X634000Y-207943272D01*
X634000Y-156554513D01*
X88590504Y-156554513D01*
X88590504Y-156745487D01*
X88593257Y-156771684D01*
X88632963Y-156958484D01*
X88641103Y-156983536D01*
X88718779Y-157157999D01*
X88731950Y-157180811D01*
X88844201Y-157335312D01*
X88861827Y-157354887D01*
X89003748Y-157482673D01*
X89025058Y-157498156D01*
X89190446Y-157593643D01*
X89214510Y-157604357D01*
X89396137Y-157663371D01*
X89421903Y-157668848D01*
X89564258Y-157683810D01*
X89577428Y-157684500D01*
X89672572Y-157684500D01*
X89685742Y-157683810D01*
X89828097Y-157668848D01*
X89853863Y-157663371D01*
X90035490Y-157604357D01*
X90059554Y-157593643D01*
X90224942Y-157498156D01*
X90246252Y-157482673D01*
X90388173Y-157354887D01*
X90405799Y-157335312D01*
X90518050Y-157180811D01*
X90531221Y-157157999D01*
X90608897Y-156983536D01*
X90617037Y-156958484D01*
X90656743Y-156771684D01*
X90659496Y-156745487D01*
X90659496Y-156554513D01*
X90656743Y-156528316D01*
X90617037Y-156341516D01*
X90608897Y-156316464D01*
X90587994Y-156269513D01*
X111475504Y-156269513D01*
X111475504Y-156460487D01*
X111478257Y-156486684D01*
X111517963Y-156673484D01*
X111526103Y-156698536D01*
X111603779Y-156872999D01*
X111616950Y-156895811D01*
X111729201Y-157050312D01*
X111746827Y-157069887D01*
X111888748Y-157197673D01*
X111910058Y-157213156D01*
X112075446Y-157308643D01*
X112099510Y-157319357D01*
X112281137Y-157378371D01*
X112306903Y-157383848D01*
X112449258Y-157398810D01*
X112462428Y-157399500D01*
X112557572Y-157399500D01*
X112570742Y-157398810D01*
X112713097Y-157383848D01*
X112738863Y-157378371D01*
X112920490Y-157319357D01*
X112944554Y-157308643D01*
X113109942Y-157213156D01*
X113131252Y-157197673D01*
X113273173Y-157069887D01*
X113290799Y-157050312D01*
X113403050Y-156895811D01*
X113416221Y-156872999D01*
X113493897Y-156698536D01*
X113502037Y-156673484D01*
X113541743Y-156486684D01*
X113544496Y-156460487D01*
X113544496Y-156269513D01*
X113541743Y-156243316D01*
X113502037Y-156056516D01*
X113493897Y-156031464D01*
X113416221Y-155857001D01*
X113403050Y-155834189D01*
X113290799Y-155679688D01*
X113273173Y-155660113D01*
X113131252Y-155532327D01*
X113109942Y-155516844D01*
X112944554Y-155421357D01*
X112920490Y-155410643D01*
X112738863Y-155351629D01*
X112713097Y-155346152D01*
X112570742Y-155331190D01*
X112557572Y-155330500D01*
X112462428Y-155330500D01*
X112449258Y-155331190D01*
X112306903Y-155346152D01*
X112281137Y-155351629D01*
X112099510Y-155410643D01*
X112075446Y-155421357D01*
X111910058Y-155516844D01*
X111888748Y-155532327D01*
X111746827Y-155660113D01*
X111729201Y-155679688D01*
X111616950Y-155834189D01*
X111603779Y-155857001D01*
X111526103Y-156031464D01*
X111517963Y-156056516D01*
X111478257Y-156243316D01*
X111475504Y-156269513D01*
X90587994Y-156269513D01*
X90531221Y-156142001D01*
X90518050Y-156119189D01*
X90405799Y-155964688D01*
X90388173Y-155945113D01*
X90246252Y-155817327D01*
X90224942Y-155801844D01*
X90059554Y-155706357D01*
X90035490Y-155695643D01*
X89853863Y-155636629D01*
X89828097Y-155631152D01*
X89685742Y-155616190D01*
X89672572Y-155615500D01*
X89577428Y-155615500D01*
X89564258Y-155616190D01*
X89421903Y-155631152D01*
X89396137Y-155636629D01*
X89214510Y-155695643D01*
X89190446Y-155706357D01*
X89025058Y-155801844D01*
X89003748Y-155817327D01*
X88861827Y-155945113D01*
X88844201Y-155964688D01*
X88731950Y-156119189D01*
X88718779Y-156142001D01*
X88641103Y-156316464D01*
X88632963Y-156341516D01*
X88593257Y-156528316D01*
X88590504Y-156554513D01*
X634000Y-156554513D01*
X634000Y-118634000D01*
X5921127Y-118634000D01*
X5949635Y-118638109D01*
X5969034Y-118639390D01*
X6210409Y-118636662D01*
X6224240Y-118637558D01*
X6243678Y-118637314D01*
X6256744Y-118636138D01*
X6266568Y-118636027D01*
X6284416Y-118634552D01*
X6298381Y-118632391D01*
X6711767Y-118595185D01*
X6728679Y-118594761D01*
X6748026Y-118592776D01*
X6757370Y-118591080D01*
X6763550Y-118590524D01*
X6781232Y-118587655D01*
X6797765Y-118583749D01*
X7210432Y-118508860D01*
X7227258Y-118506920D01*
X7246340Y-118503210D01*
X7255504Y-118500681D01*
X7261615Y-118499572D01*
X7278959Y-118495131D01*
X7295054Y-118489766D01*
X7699380Y-118378178D01*
X7715955Y-118374739D01*
X7734630Y-118369333D01*
X7743521Y-118365996D01*
X7749511Y-118364343D01*
X7766389Y-118358365D01*
X7781948Y-118351574D01*
X8174630Y-118204199D01*
X8190834Y-118199287D01*
X8208955Y-118192225D01*
X8217507Y-118188106D01*
X8223317Y-118185926D01*
X8239596Y-118178458D01*
X8254483Y-118170301D01*
X8632378Y-117988315D01*
X8648076Y-117981970D01*
X8665488Y-117973314D01*
X8673634Y-117968446D01*
X8679232Y-117965751D01*
X8694778Y-117956852D01*
X8708881Y-117947388D01*
X9068931Y-117732268D01*
X9083998Y-117724541D01*
X9100559Y-117714362D01*
X9108236Y-117708784D01*
X9113574Y-117705595D01*
X9128254Y-117695341D01*
X9141443Y-117684658D01*
X9480764Y-117438127D01*
X9495087Y-117429075D01*
X9510673Y-117417449D01*
X9517824Y-117411201D01*
X9522844Y-117407554D01*
X9536549Y-117396025D01*
X9548743Y-117384188D01*
X9864588Y-117108242D01*
X9878036Y-117097947D01*
X9892515Y-117084973D01*
X9899074Y-117078112D01*
X9903755Y-117074023D01*
X9916372Y-117061309D01*
X9927444Y-117048439D01*
X10217292Y-116745283D01*
X10229759Y-116733827D01*
X10243017Y-116719607D01*
X10248933Y-116712188D01*
X10253234Y-116707690D01*
X10264658Y-116693900D01*
X10274532Y-116680090D01*
X10536050Y-116352159D01*
X10547430Y-116339643D01*
X10559363Y-116324288D01*
X10564587Y-116316373D01*
X10568461Y-116311516D01*
X10578606Y-116296755D01*
X10587214Y-116282096D01*
X10818260Y-115932076D01*
X10828489Y-115918568D01*
X10838994Y-115902210D01*
X10843491Y-115893853D01*
X10846915Y-115888666D01*
X10855693Y-115873058D01*
X10862944Y-115857705D01*
X11061702Y-115488350D01*
X11070669Y-115473995D01*
X11079664Y-115456765D01*
X11083396Y-115448033D01*
X11086342Y-115442559D01*
X11093684Y-115426231D01*
X11099530Y-115410289D01*
X11264378Y-115024607D01*
X11272021Y-115009509D01*
X11279438Y-114991537D01*
X11282371Y-114982509D01*
X11284815Y-114976792D01*
X11290665Y-114959866D01*
X11295060Y-114943456D01*
X11424666Y-114544569D01*
X11430929Y-114528836D01*
X11436705Y-114510271D01*
X11438817Y-114501016D01*
X11440736Y-114495111D01*
X11445046Y-114477727D01*
X11447949Y-114461005D01*
X11541286Y-114052073D01*
X11546109Y-114035857D01*
X11550198Y-114016847D01*
X11551471Y-114007450D01*
X11552854Y-114001390D01*
X11555589Y-113983686D01*
X11556982Y-113966768D01*
X11613285Y-113551122D01*
X11616635Y-113534538D01*
X11619003Y-113515245D01*
X11619429Y-113505760D01*
X11620264Y-113499596D01*
X11621400Y-113481730D01*
X11621271Y-113464748D01*
X11640089Y-113045751D01*
X11641941Y-113028912D01*
X11642569Y-113009481D01*
X11642143Y-112999999D01*
X11642422Y-112993795D01*
X11641952Y-112975893D01*
X11640302Y-112958996D01*
X11639596Y-112943272D01*
X13911566Y-112943272D01*
X13922455Y-113220410D01*
X13924408Y-113238100D01*
X13974237Y-113510940D01*
X13978663Y-113528179D01*
X14066439Y-113791275D01*
X14073250Y-113807718D01*
X14197220Y-114055822D01*
X14206280Y-114071142D01*
X14363972Y-114299303D01*
X14375100Y-114313193D01*
X14563367Y-114516859D01*
X14576341Y-114529042D01*
X14791426Y-114704149D01*
X14805988Y-114714384D01*
X15043601Y-114857438D01*
X15059459Y-114865517D01*
X15314857Y-114973665D01*
X15331696Y-114979431D01*
X15599785Y-115050513D01*
X15617267Y-115053848D01*
X15892696Y-115086447D01*
X15910474Y-115087285D01*
X16187750Y-115080751D01*
X16205470Y-115079076D01*
X16479058Y-115033538D01*
X16496364Y-115029383D01*
X16760807Y-114945751D01*
X16777355Y-114939199D01*
X17027375Y-114819141D01*
X17042835Y-114810323D01*
X17273445Y-114656234D01*
X17287508Y-114645326D01*
X17494106Y-114460282D01*
X17506492Y-114447500D01*
X17684956Y-114235191D01*
X17695417Y-114220793D01*
X17842186Y-113985457D01*
X17850515Y-113969727D01*
X17962660Y-113716059D01*
X17968688Y-113699314D01*
X18043973Y-113432375D01*
X18047583Y-113414946D01*
X18084504Y-113140062D01*
X18085563Y-113127247D01*
X18089438Y-113003958D01*
X18089185Y-112991101D01*
X18085799Y-112943272D01*
X167911566Y-112943272D01*
X167922455Y-113220410D01*
X167924408Y-113238100D01*
X167974237Y-113510940D01*
X167978663Y-113528179D01*
X168066439Y-113791275D01*
X168073250Y-113807718D01*
X168197220Y-114055822D01*
X168206280Y-114071142D01*
X168363972Y-114299303D01*
X168375100Y-114313193D01*
X168563367Y-114516859D01*
X168576341Y-114529042D01*
X168791426Y-114704149D01*
X168805988Y-114714384D01*
X169043601Y-114857438D01*
X169059459Y-114865517D01*
X169314857Y-114973665D01*
X169331696Y-114979431D01*
X169599785Y-115050513D01*
X169617267Y-115053848D01*
X169892696Y-115086447D01*
X169910474Y-115087285D01*
X170187750Y-115080751D01*
X170205470Y-115079076D01*
X170479058Y-115033538D01*
X170496364Y-115029383D01*
X170760807Y-114945751D01*
X170777355Y-114939199D01*
X171027375Y-114819141D01*
X171042835Y-114810323D01*
X171273445Y-114656234D01*
X171287508Y-114645326D01*
X171494106Y-114460282D01*
X171506492Y-114447500D01*
X171684956Y-114235191D01*
X171695417Y-114220793D01*
X171842186Y-113985457D01*
X171850515Y-113969727D01*
X171962660Y-113716059D01*
X171968688Y-113699314D01*
X172043973Y-113432375D01*
X172047583Y-113414946D01*
X172084504Y-113140062D01*
X172085563Y-113127247D01*
X172089438Y-113003958D01*
X172089185Y-112991101D01*
X172069596Y-112714441D01*
X172067089Y-112696821D01*
X172008715Y-112425682D01*
X172003749Y-112408590D01*
X171907752Y-112148381D01*
X171900428Y-112132160D01*
X171768726Y-111888072D01*
X171759189Y-111873045D01*
X171594408Y-111649950D01*
X171582850Y-111636416D01*
X171388279Y-111438764D01*
X171374928Y-111426994D01*
X171154448Y-111258729D01*
X171139572Y-111248958D01*
X170897584Y-111113438D01*
X170881480Y-111105860D01*
X170622810Y-111005788D01*
X170605799Y-111000554D01*
X170335610Y-110937928D01*
X170318031Y-110935144D01*
X170041713Y-110911212D01*
X170023917Y-110910932D01*
X169746984Y-110926173D01*
X169729327Y-110928404D01*
X169457304Y-110982513D01*
X169440137Y-110987209D01*
X169178452Y-111079106D01*
X169162117Y-111086175D01*
X168915991Y-111214027D01*
X168900816Y-111223326D01*
X168675160Y-111384582D01*
X168661446Y-111395927D01*
X168460762Y-111587370D01*
X168448784Y-111600534D01*
X168277077Y-111818343D01*
X168267073Y-111833064D01*
X168127769Y-112072894D01*
X168119939Y-112088877D01*
X168015817Y-112345943D01*
X168010317Y-112362869D01*
X167943454Y-112632041D01*
X167940394Y-112649575D01*
X167912125Y-112925483D01*
X167911566Y-112943272D01*
X18085799Y-112943272D01*
X18069596Y-112714441D01*
X18067089Y-112696821D01*
X18008715Y-112425682D01*
X18003749Y-112408590D01*
X17907752Y-112148381D01*
X17900428Y-112132160D01*
X17768726Y-111888072D01*
X17759189Y-111873045D01*
X17594408Y-111649950D01*
X17582850Y-111636416D01*
X17388279Y-111438764D01*
X17374928Y-111426994D01*
X17154448Y-111258729D01*
X17139572Y-111248958D01*
X16897584Y-111113438D01*
X16881480Y-111105860D01*
X16622810Y-111005788D01*
X16605799Y-111000554D01*
X16335610Y-110937928D01*
X16318031Y-110935144D01*
X16041713Y-110911212D01*
X16023917Y-110910932D01*
X15746984Y-110926173D01*
X15729327Y-110928404D01*
X15457304Y-110982513D01*
X15440137Y-110987209D01*
X15178452Y-111079106D01*
X15162117Y-111086175D01*
X14915991Y-111214027D01*
X14900816Y-111223326D01*
X14675160Y-111384582D01*
X14661446Y-111395927D01*
X14460762Y-111587370D01*
X14448784Y-111600534D01*
X14277077Y-111818343D01*
X14267073Y-111833064D01*
X14127769Y-112072894D01*
X14119939Y-112088877D01*
X14015817Y-112345943D01*
X14010317Y-112362869D01*
X13943454Y-112632041D01*
X13940394Y-112649575D01*
X13912125Y-112925483D01*
X13911566Y-112943272D01*
X11639596Y-112943272D01*
X11621484Y-112539977D01*
X11621819Y-112523059D01*
X11620704Y-112503649D01*
X11619430Y-112494243D01*
X11619151Y-112488033D01*
X11617078Y-112470246D01*
X11613920Y-112453567D01*
X11557620Y-112037939D01*
X11556436Y-112021042D01*
X11553585Y-112001812D01*
X11551471Y-111992547D01*
X11550637Y-111986395D01*
X11546979Y-111968869D01*
X11542342Y-111952552D01*
X11449006Y-111543622D01*
X11446313Y-111526908D01*
X11441749Y-111508009D01*
X11438814Y-111498978D01*
X11437433Y-111492925D01*
X11432217Y-111475790D01*
X11426132Y-111459943D01*
X11296522Y-111061043D01*
X11292341Y-111044633D01*
X11286102Y-111026219D01*
X11282369Y-111017486D01*
X11280452Y-111011585D01*
X11273720Y-110994985D01*
X11266234Y-110979738D01*
X11101396Y-110594082D01*
X11095759Y-110578107D01*
X11087895Y-110560327D01*
X11083394Y-110551963D01*
X11080951Y-110546247D01*
X11072763Y-110530328D01*
X11063953Y-110515833D01*
X10865188Y-110146468D01*
X10858148Y-110131076D01*
X10848719Y-110114068D01*
X10843491Y-110106148D01*
X10840548Y-110100679D01*
X10830961Y-110085549D01*
X10820878Y-110071890D01*
X10589824Y-109721859D01*
X10581421Y-109707140D01*
X10570507Y-109691050D01*
X10564585Y-109683625D01*
X10561167Y-109678446D01*
X10550263Y-109664237D01*
X10539010Y-109651553D01*
X10277486Y-109323614D01*
X10267808Y-109309723D01*
X10255499Y-109294679D01*
X10248932Y-109287810D01*
X10245059Y-109282954D01*
X10232929Y-109269783D01*
X10220560Y-109258136D01*
X9930724Y-108954991D01*
X9919835Y-108942018D01*
X9906223Y-108928134D01*
X9899074Y-108921888D01*
X9894781Y-108917398D01*
X9881518Y-108905367D01*
X9868162Y-108894880D01*
X9552298Y-108618918D01*
X9540299Y-108606982D01*
X9525499Y-108594375D01*
X9517821Y-108588797D01*
X9513139Y-108584706D01*
X9498852Y-108573912D01*
X9484590Y-108564652D01*
X9145280Y-108318129D01*
X9132259Y-108307316D01*
X9116389Y-108296087D01*
X9108245Y-108291221D01*
X9103210Y-108287563D01*
X9088013Y-108278095D01*
X9072987Y-108270156D01*
X8712946Y-108055041D01*
X8699001Y-108045434D01*
X8682190Y-108035673D01*
X8673635Y-108031553D01*
X8668299Y-108028365D01*
X8652313Y-108020296D01*
X8636639Y-108013737D01*
X8258766Y-107831764D01*
X8244014Y-107823444D01*
X8226391Y-107815227D01*
X8217493Y-107811887D01*
X8211904Y-107809196D01*
X8195260Y-107802593D01*
X8179090Y-107797474D01*
X7786375Y-107650087D01*
X7770957Y-107643132D01*
X7752669Y-107636529D01*
X7743528Y-107634006D01*
X7737700Y-107631819D01*
X7720529Y-107626734D01*
X7703942Y-107623081D01*
X7299634Y-107511498D01*
X7283641Y-107505949D01*
X7264839Y-107501012D01*
X7255495Y-107499316D01*
X7249501Y-107497662D01*
X7231943Y-107494137D01*
X7215090Y-107491985D01*
X6802422Y-107417097D01*
X6785990Y-107413002D01*
X6766821Y-107409770D01*
X6757357Y-107408918D01*
X6751245Y-107407809D01*
X6733446Y-107405873D01*
X6716498Y-107405241D01*
X6302865Y-107368013D01*
X6289212Y-107365729D01*
X6269846Y-107364010D01*
X6256741Y-107363862D01*
X6246943Y-107362980D01*
X6229041Y-107362646D01*
X6214901Y-107363389D01*
X5972312Y-107360647D01*
X5954437Y-107361718D01*
X5921922Y-107366000D01*
X634000Y-107366000D01*
X634000Y-67854513D01*
X101045504Y-67854513D01*
X101045504Y-68045487D01*
X101048257Y-68071684D01*
X101087963Y-68258484D01*
X101096103Y-68283536D01*
X101173779Y-68457999D01*
X101186950Y-68480811D01*
X101299201Y-68635312D01*
X101316827Y-68654887D01*
X101458748Y-68782673D01*
X101480058Y-68798156D01*
X101645446Y-68893643D01*
X101669510Y-68904357D01*
X101851137Y-68963371D01*
X101876903Y-68968848D01*
X102019258Y-68983810D01*
X102032428Y-68984500D01*
X102127572Y-68984500D01*
X102140742Y-68983810D01*
X102283097Y-68968848D01*
X102308863Y-68963371D01*
X102490490Y-68904357D01*
X102514554Y-68893643D01*
X102679942Y-68798156D01*
X102701252Y-68782673D01*
X102843173Y-68654887D01*
X102860799Y-68635312D01*
X102973050Y-68480811D01*
X102986221Y-68457999D01*
X103063897Y-68283536D01*
X103072037Y-68258484D01*
X103111743Y-68071684D01*
X103114496Y-68045487D01*
X103114496Y-67854513D01*
X103111743Y-67828316D01*
X103072037Y-67641516D01*
X103063897Y-67616464D01*
X102986221Y-67442001D01*
X102973050Y-67419189D01*
X102860799Y-67264688D01*
X102843173Y-67245113D01*
X102701252Y-67117327D01*
X102679942Y-67101844D01*
X102514554Y-67006357D01*
X102490490Y-66995643D01*
X102308863Y-66936629D01*
X102283097Y-66931152D01*
X102140742Y-66916190D01*
X102127572Y-66915500D01*
X102032428Y-66915500D01*
X102019258Y-66916190D01*
X101876903Y-66931152D01*
X101851137Y-66936629D01*
X101669510Y-66995643D01*
X101645446Y-67006357D01*
X101480058Y-67101844D01*
X101458748Y-67117327D01*
X101316827Y-67245113D01*
X101299201Y-67264688D01*
X101186950Y-67419189D01*
X101173779Y-67442001D01*
X101096103Y-67616464D01*
X101087963Y-67641516D01*
X101048257Y-67828316D01*
X101045504Y-67854513D01*
X634000Y-67854513D01*
X634000Y-44434513D01*
X74750504Y-44434513D01*
X74750504Y-44625487D01*
X74753257Y-44651684D01*
X74792963Y-44838484D01*
X74801103Y-44863536D01*
X74878779Y-45037999D01*
X74891950Y-45060811D01*
X75004201Y-45215312D01*
X75021827Y-45234887D01*
X75163748Y-45362673D01*
X75185058Y-45378156D01*
X75350446Y-45473643D01*
X75374510Y-45484357D01*
X75556137Y-45543371D01*
X75581903Y-45548848D01*
X75724258Y-45563810D01*
X75737428Y-45564500D01*
X75832572Y-45564500D01*
X75845742Y-45563810D01*
X75988097Y-45548848D01*
X76013863Y-45543371D01*
X76195490Y-45484357D01*
X76219554Y-45473643D01*
X76384942Y-45378156D01*
X76406252Y-45362673D01*
X76548173Y-45234887D01*
X76565799Y-45215312D01*
X76678050Y-45060811D01*
X76691221Y-45037999D01*
X76768897Y-44863536D01*
X76777037Y-44838484D01*
X76816743Y-44651684D01*
X76819496Y-44625487D01*
X76819496Y-44434513D01*
X76816743Y-44408316D01*
X76777037Y-44221516D01*
X76768897Y-44196464D01*
X76691221Y-44022001D01*
X76678050Y-43999189D01*
X76565799Y-43844688D01*
X76548173Y-43825113D01*
X76406252Y-43697327D01*
X76384942Y-43681844D01*
X76219554Y-43586357D01*
X76195490Y-43575643D01*
X76013863Y-43516629D01*
X75988097Y-43511152D01*
X75845742Y-43496190D01*
X75832572Y-43495500D01*
X75737428Y-43495500D01*
X75724258Y-43496190D01*
X75581903Y-43511152D01*
X75556137Y-43516629D01*
X75374510Y-43575643D01*
X75350446Y-43586357D01*
X75185058Y-43681844D01*
X75163748Y-43697327D01*
X75021827Y-43825113D01*
X75004201Y-43844688D01*
X74891950Y-43999189D01*
X74878779Y-44022001D01*
X74801103Y-44196464D01*
X74792963Y-44221516D01*
X74753257Y-44408316D01*
X74750504Y-44434513D01*
X634000Y-44434513D01*
X634000Y-17943272D01*
X9911566Y-17943272D01*
X9922455Y-18220410D01*
X9924408Y-18238100D01*
X9974237Y-18510940D01*
X9978663Y-18528179D01*
X10066439Y-18791275D01*
X10073250Y-18807718D01*
X10197220Y-19055822D01*
X10206280Y-19071142D01*
X10363972Y-19299303D01*
X10375100Y-19313193D01*
X10563367Y-19516859D01*
X10576341Y-19529042D01*
X10791426Y-19704149D01*
X10805988Y-19714384D01*
X11043601Y-19857438D01*
X11059459Y-19865517D01*
X11314857Y-19973665D01*
X11331696Y-19979431D01*
X11599785Y-20050513D01*
X11617267Y-20053848D01*
X11892696Y-20086447D01*
X11910474Y-20087285D01*
X12187750Y-20080751D01*
X12205470Y-20079076D01*
X12479058Y-20033538D01*
X12496364Y-20029383D01*
X12760807Y-19945751D01*
X12777355Y-19939199D01*
X13027375Y-19819141D01*
X13042835Y-19810323D01*
X13273445Y-19656234D01*
X13287508Y-19645326D01*
X13494106Y-19460282D01*
X13506492Y-19447500D01*
X13684956Y-19235191D01*
X13695417Y-19220793D01*
X13842186Y-18985457D01*
X13850515Y-18969727D01*
X13962660Y-18716059D01*
X13968688Y-18699314D01*
X14043973Y-18432375D01*
X14047583Y-18414946D01*
X14084504Y-18140062D01*
X14085563Y-18127247D01*
X14089438Y-18003958D01*
X14089185Y-17991101D01*
X14085799Y-17943272D01*
X171911566Y-17943272D01*
X171922455Y-18220410D01*
X171924408Y-18238100D01*
X171974237Y-18510940D01*
X171978663Y-18528179D01*
X172066439Y-18791275D01*
X172073250Y-18807718D01*
X172197220Y-19055822D01*
X172206280Y-19071142D01*
X172363972Y-19299303D01*
X172375100Y-19313193D01*
X172563367Y-19516859D01*
X172576341Y-19529042D01*
X172791426Y-19704149D01*
X172805988Y-19714384D01*
X173043601Y-19857438D01*
X173059459Y-19865517D01*
X173314857Y-19973665D01*
X173331696Y-19979431D01*
X173599785Y-20050513D01*
X173617267Y-20053848D01*
X173892696Y-20086447D01*
X173910474Y-20087285D01*
X174187750Y-20080751D01*
X174205470Y-20079076D01*
X174479058Y-20033538D01*
X174496364Y-20029383D01*
X174760807Y-19945751D01*
X174777355Y-19939199D01*
X175027375Y-19819141D01*
X175042835Y-19810323D01*
X175273445Y-19656234D01*
X175287508Y-19645326D01*
X175494106Y-19460282D01*
X175506492Y-19447500D01*
X175684956Y-19235191D01*
X175695417Y-19220793D01*
X175842186Y-18985457D01*
X175850515Y-18969727D01*
X175962660Y-18716059D01*
X175968688Y-18699314D01*
X176043973Y-18432375D01*
X176047583Y-18414946D01*
X176084504Y-18140062D01*
X176085563Y-18127247D01*
X176089438Y-18003958D01*
X176089185Y-17991101D01*
X176069596Y-17714441D01*
X176067089Y-17696821D01*
X176008715Y-17425682D01*
X176003749Y-17408590D01*
X175907752Y-17148381D01*
X175900428Y-17132160D01*
X175768726Y-16888072D01*
X175759189Y-16873045D01*
X175594408Y-16649950D01*
X175582850Y-16636416D01*
X175388279Y-16438764D01*
X175374928Y-16426994D01*
X175154448Y-16258729D01*
X175139572Y-16248958D01*
X174897584Y-16113438D01*
X174881480Y-16105860D01*
X174622810Y-16005788D01*
X174605799Y-16000554D01*
X174335610Y-15937928D01*
X174318031Y-15935144D01*
X174041713Y-15911212D01*
X174023917Y-15910932D01*
X173746984Y-15926173D01*
X173729327Y-15928404D01*
X173457304Y-15982513D01*
X173440137Y-15987209D01*
X173178452Y-16079106D01*
X173162117Y-16086175D01*
X172915991Y-16214027D01*
X172900816Y-16223326D01*
X172675160Y-16384582D01*
X172661446Y-16395927D01*
X172460762Y-16587370D01*
X172448784Y-16600534D01*
X172277077Y-16818343D01*
X172267073Y-16833064D01*
X172127769Y-17072894D01*
X172119939Y-17088877D01*
X172015817Y-17345943D01*
X172010317Y-17362869D01*
X171943454Y-17632041D01*
X171940394Y-17649575D01*
X171912125Y-17925483D01*
X171911566Y-17943272D01*
X14085799Y-17943272D01*
X14069596Y-17714441D01*
X14067089Y-17696821D01*
X14008715Y-17425682D01*
X14003749Y-17408590D01*
X13907752Y-17148381D01*
X13900428Y-17132160D01*
X13768726Y-16888072D01*
X13759189Y-16873045D01*
X13594408Y-16649950D01*
X13582850Y-16636416D01*
X13388279Y-16438764D01*
X13374928Y-16426994D01*
X13154448Y-16258729D01*
X13139572Y-16248958D01*
X12897584Y-16113438D01*
X12881480Y-16105860D01*
X12622810Y-16005788D01*
X12605799Y-16000554D01*
X12335610Y-15937928D01*
X12318031Y-15935144D01*
X12041713Y-15911212D01*
X12023917Y-15910932D01*
X11746984Y-15926173D01*
X11729327Y-15928404D01*
X11457304Y-15982513D01*
X11440137Y-15987209D01*
X11178452Y-16079106D01*
X11162117Y-16086175D01*
X10915991Y-16214027D01*
X10900816Y-16223326D01*
X10675160Y-16384582D01*
X10661446Y-16395927D01*
X10460762Y-16587370D01*
X10448784Y-16600534D01*
X10277077Y-16818343D01*
X10267073Y-16833064D01*
X10127769Y-17072894D01*
X10119939Y-17088877D01*
X10015817Y-17345943D01*
X10010317Y-17362869D01*
X9943454Y-17632041D01*
X9940394Y-17649575D01*
X9912125Y-17925483D01*
X9911566Y-17943272D01*
X634000Y-17943272D01*
X634000Y-4943272D01*
X90911566Y-4943272D01*
X90922455Y-5220410D01*
X90924408Y-5238100D01*
X90974237Y-5510940D01*
X90978663Y-5528179D01*
X91066439Y-5791275D01*
X91073250Y-5807718D01*
X91197220Y-6055822D01*
X91206280Y-6071142D01*
X91363972Y-6299303D01*
X91375100Y-6313193D01*
X91563367Y-6516859D01*
X91576341Y-6529042D01*
X91791426Y-6704149D01*
X91805988Y-6714384D01*
X92043601Y-6857438D01*
X92059459Y-6865517D01*
X92314857Y-6973665D01*
X92331696Y-6979431D01*
X92599785Y-7050513D01*
X92617267Y-7053848D01*
X92892696Y-7086447D01*
X92910474Y-7087285D01*
X93187750Y-7080751D01*
X93205470Y-7079076D01*
X93479058Y-7033538D01*
X93496364Y-7029383D01*
X93760807Y-6945751D01*
X93777355Y-6939199D01*
X94027375Y-6819141D01*
X94042835Y-6810323D01*
X94273445Y-6656234D01*
X94287508Y-6645326D01*
X94494106Y-6460282D01*
X94506492Y-6447500D01*
X94684956Y-6235191D01*
X94695417Y-6220793D01*
X94842186Y-5985457D01*
X94850515Y-5969727D01*
X94962660Y-5716059D01*
X94968688Y-5699314D01*
X95043973Y-5432375D01*
X95047583Y-5414946D01*
X95084504Y-5140062D01*
X95085563Y-5127247D01*
X95089438Y-5003958D01*
X95089185Y-4991101D01*
X95069596Y-4714441D01*
X95067089Y-4696821D01*
X95008715Y-4425682D01*
X95003749Y-4408590D01*
X94907752Y-4148381D01*
X94900428Y-4132160D01*
X94768726Y-3888072D01*
X94759189Y-3873045D01*
X94594408Y-3649950D01*
X94582850Y-3636416D01*
X94388279Y-3438764D01*
X94374928Y-3426994D01*
X94154448Y-3258729D01*
X94139572Y-3248958D01*
X93897584Y-3113438D01*
X93881480Y-3105860D01*
X93622810Y-3005788D01*
X93605799Y-3000554D01*
X93335610Y-2937928D01*
X93318031Y-2935144D01*
X93041713Y-2911212D01*
X93023917Y-2910932D01*
X92746984Y-2926173D01*
X92729327Y-2928404D01*
X92457304Y-2982513D01*
X92440137Y-2987209D01*
X92178452Y-3079106D01*
X92162117Y-3086175D01*
X91915991Y-3214027D01*
X91900816Y-3223326D01*
X91675160Y-3384582D01*
X91661446Y-3395927D01*
X91460762Y-3587370D01*
X91448784Y-3600534D01*
X91277077Y-3818343D01*
X91267073Y-3833064D01*
X91127769Y-4072894D01*
X91119939Y-4088877D01*
X91015817Y-4345943D01*
X91010317Y-4362869D01*
X90943454Y-4632041D01*
X90940394Y-4649575D01*
X90912125Y-4925483D01*
X90911566Y-4943272D01*
X634000Y-4943272D01*
X634000Y-634000D01*
X185366000Y-634000D01*
X185366000Y-107366000D01*
%TA.AperFunction,Conductor*%
G36*
X185366000Y-107366000D02*
G01*
X180078872Y-107366000D01*
X180050364Y-107361891D01*
X180030965Y-107360610D01*
X179789590Y-107363338D01*
X179775759Y-107362442D01*
X179756321Y-107362686D01*
X179743255Y-107363862D01*
X179733431Y-107363973D01*
X179715583Y-107365448D01*
X179701618Y-107367609D01*
X179288233Y-107404815D01*
X179271321Y-107405239D01*
X179251976Y-107407224D01*
X179242634Y-107408919D01*
X179236449Y-107409476D01*
X179218773Y-107412344D01*
X179202241Y-107416249D01*
X178789557Y-107491140D01*
X178772740Y-107493080D01*
X178753655Y-107496791D01*
X178744505Y-107499316D01*
X178738390Y-107500426D01*
X178721043Y-107504867D01*
X178704931Y-107510238D01*
X178300626Y-107621820D01*
X178284043Y-107625261D01*
X178265370Y-107630667D01*
X178256481Y-107634003D01*
X178250488Y-107635657D01*
X178233611Y-107641635D01*
X178218056Y-107648424D01*
X177825358Y-107795805D01*
X177809165Y-107800714D01*
X177791052Y-107807771D01*
X177782493Y-107811892D01*
X177776673Y-107814077D01*
X177760401Y-107821544D01*
X177745523Y-107829697D01*
X177367630Y-108011682D01*
X177351925Y-108018029D01*
X177334517Y-108026683D01*
X177326363Y-108031555D01*
X177320760Y-108034253D01*
X177305224Y-108043147D01*
X177291121Y-108052611D01*
X176931073Y-108267731D01*
X176916006Y-108275457D01*
X176899440Y-108285638D01*
X176891763Y-108291216D01*
X176886425Y-108294405D01*
X176871745Y-108304659D01*
X176858556Y-108315342D01*
X176519224Y-108561881D01*
X176504914Y-108570925D01*
X176489326Y-108582551D01*
X176482175Y-108588799D01*
X176477155Y-108592446D01*
X176463447Y-108603979D01*
X176451266Y-108615804D01*
X176135420Y-108891752D01*
X176121964Y-108902053D01*
X176107486Y-108915026D01*
X176100919Y-108921894D01*
X176096244Y-108925979D01*
X176083630Y-108938689D01*
X176072560Y-108951556D01*
X175782709Y-109254716D01*
X175770241Y-109266173D01*
X175756983Y-109280393D01*
X175751066Y-109287812D01*
X175746767Y-109292309D01*
X175735343Y-109306099D01*
X175725469Y-109319909D01*
X175463962Y-109647828D01*
X175452570Y-109660357D01*
X175440639Y-109675708D01*
X175435406Y-109683636D01*
X175431534Y-109688491D01*
X175421394Y-109703248D01*
X175412800Y-109717883D01*
X175181737Y-110067931D01*
X175171514Y-110081430D01*
X175161006Y-110097791D01*
X175156509Y-110106148D01*
X175153085Y-110111335D01*
X175144307Y-110126943D01*
X175137053Y-110142304D01*
X174938307Y-110511637D01*
X174929333Y-110526002D01*
X174920336Y-110543236D01*
X174916606Y-110551963D01*
X174913658Y-110557441D01*
X174906316Y-110573769D01*
X174900463Y-110589732D01*
X174735627Y-110975384D01*
X174727978Y-110990494D01*
X174720562Y-111008466D01*
X174717631Y-111017486D01*
X174715186Y-111023207D01*
X174709335Y-111040133D01*
X174704938Y-111056549D01*
X174575336Y-111455427D01*
X174569073Y-111471160D01*
X174563296Y-111489726D01*
X174561181Y-111498991D01*
X174559263Y-111504895D01*
X174554953Y-111522279D01*
X174552051Y-111538996D01*
X174458717Y-111947915D01*
X174453891Y-111964141D01*
X174449803Y-111983147D01*
X174448529Y-111992550D01*
X174447144Y-111998619D01*
X174444411Y-112016314D01*
X174443018Y-112033232D01*
X174386718Y-112448865D01*
X174383365Y-112465459D01*
X174380997Y-112484756D01*
X174380571Y-112494241D01*
X174379736Y-112500405D01*
X174378600Y-112518272D01*
X174378729Y-112535252D01*
X174359911Y-112954249D01*
X174358059Y-112971088D01*
X174357431Y-112990519D01*
X174357857Y-112999998D01*
X174357578Y-113006205D01*
X174358048Y-113024107D01*
X174359698Y-113041004D01*
X174378516Y-113460023D01*
X174378181Y-113476940D01*
X174379296Y-113496350D01*
X174380570Y-113505756D01*
X174380849Y-113511966D01*
X174382922Y-113529757D01*
X174386083Y-113546448D01*
X174442380Y-113962060D01*
X174443564Y-113978957D01*
X174446414Y-113998185D01*
X174448530Y-114007455D01*
X174449363Y-114013606D01*
X174453022Y-114031133D01*
X174457658Y-114047444D01*
X174550995Y-114456381D01*
X174553686Y-114473089D01*
X174558250Y-114491990D01*
X174561183Y-114501017D01*
X174562566Y-114507076D01*
X174567782Y-114524211D01*
X174573877Y-114540081D01*
X174703477Y-114938954D01*
X174707659Y-114955368D01*
X174713896Y-114973775D01*
X174717628Y-114982506D01*
X174719550Y-114988422D01*
X174726280Y-115005015D01*
X174733769Y-115020269D01*
X174898597Y-115405900D01*
X174904239Y-115421891D01*
X174912105Y-115439674D01*
X174916606Y-115448039D01*
X174919047Y-115453749D01*
X174927238Y-115469674D01*
X174936055Y-115484179D01*
X175134807Y-115853524D01*
X175141853Y-115868927D01*
X175151279Y-115885929D01*
X175156509Y-115893852D01*
X175159453Y-115899323D01*
X175169039Y-115914451D01*
X175179127Y-115928116D01*
X175410189Y-116278164D01*
X175418580Y-116292860D01*
X175429492Y-116308948D01*
X175435403Y-116316360D01*
X175438832Y-116321555D01*
X175449736Y-116335763D01*
X175461014Y-116348475D01*
X175722509Y-116676377D01*
X175732188Y-116690271D01*
X175744505Y-116705325D01*
X175751059Y-116712179D01*
X175754934Y-116717039D01*
X175767071Y-116730216D01*
X175779428Y-116741852D01*
X176069277Y-117045010D01*
X176080165Y-117057983D01*
X176093777Y-117071867D01*
X176100926Y-117078113D01*
X176105219Y-117082603D01*
X176118485Y-117094637D01*
X176131847Y-117105128D01*
X176447709Y-117381089D01*
X176459701Y-117393018D01*
X176474499Y-117405624D01*
X176482174Y-117411201D01*
X176486862Y-117415296D01*
X176501150Y-117426089D01*
X176515407Y-117435345D01*
X176854712Y-117681865D01*
X176867739Y-117692683D01*
X176883609Y-117703912D01*
X176891764Y-117708785D01*
X176896790Y-117712436D01*
X176911987Y-117721905D01*
X176927008Y-117729842D01*
X177287059Y-117944962D01*
X177300999Y-117954566D01*
X177317812Y-117964327D01*
X177326350Y-117968439D01*
X177331698Y-117971634D01*
X177347685Y-117979703D01*
X177363356Y-117986261D01*
X177741255Y-118168248D01*
X177755986Y-118176556D01*
X177773607Y-118184772D01*
X177782491Y-118188106D01*
X177788097Y-118190806D01*
X177804737Y-118197408D01*
X177820940Y-118202537D01*
X178213635Y-118349918D01*
X178229044Y-118356868D01*
X178247330Y-118363471D01*
X178256465Y-118365992D01*
X178262300Y-118368182D01*
X178279470Y-118373267D01*
X178296080Y-118376925D01*
X178700376Y-118488505D01*
X178716363Y-118494052D01*
X178735162Y-118498988D01*
X178744503Y-118500683D01*
X178750499Y-118502338D01*
X178768055Y-118505863D01*
X178784916Y-118508016D01*
X179197578Y-118582903D01*
X179214010Y-118586998D01*
X179233179Y-118590230D01*
X179242643Y-118591082D01*
X179248755Y-118592191D01*
X179266554Y-118594127D01*
X179283502Y-118594759D01*
X179697134Y-118631987D01*
X179710787Y-118634271D01*
X179730153Y-118635990D01*
X179743258Y-118636138D01*
X179753056Y-118637020D01*
X179770958Y-118637354D01*
X179785098Y-118636611D01*
X180027687Y-118639353D01*
X180045562Y-118638282D01*
X180078077Y-118634000D01*
X185366000Y-118634000D01*
X185366000Y-225366000D01*
X634000Y-225366000D01*
X634000Y-220943272D01*
X90911566Y-220943272D01*
X90922455Y-221220410D01*
X90924408Y-221238100D01*
X90974237Y-221510940D01*
X90978663Y-221528179D01*
X91066439Y-221791275D01*
X91073250Y-221807718D01*
X91197220Y-222055822D01*
X91206280Y-222071142D01*
X91363972Y-222299303D01*
X91375100Y-222313193D01*
X91563367Y-222516859D01*
X91576341Y-222529042D01*
X91791426Y-222704149D01*
X91805988Y-222714384D01*
X92043601Y-222857438D01*
X92059459Y-222865517D01*
X92314857Y-222973665D01*
X92331696Y-222979431D01*
X92599785Y-223050513D01*
X92617267Y-223053848D01*
X92892696Y-223086447D01*
X92910474Y-223087285D01*
X93187750Y-223080751D01*
X93205470Y-223079076D01*
X93479058Y-223033538D01*
X93496364Y-223029383D01*
X93760807Y-222945751D01*
X93777355Y-222939199D01*
X94027375Y-222819141D01*
X94042835Y-222810323D01*
X94273445Y-222656234D01*
X94287508Y-222645326D01*
X94494106Y-222460282D01*
X94506492Y-222447500D01*
X94684956Y-222235191D01*
X94695417Y-222220793D01*
X94842186Y-221985457D01*
X94850515Y-221969727D01*
X94962660Y-221716059D01*
X94968688Y-221699314D01*
X95043973Y-221432375D01*
X95047583Y-221414946D01*
X95084504Y-221140062D01*
X95085563Y-221127247D01*
X95089438Y-221003958D01*
X95089185Y-220991101D01*
X95069596Y-220714441D01*
X95067089Y-220696821D01*
X95008715Y-220425682D01*
X95003749Y-220408590D01*
X94907752Y-220148381D01*
X94900428Y-220132160D01*
X94768726Y-219888072D01*
X94759189Y-219873045D01*
X94594408Y-219649950D01*
X94582850Y-219636416D01*
X94388279Y-219438764D01*
X94374928Y-219426994D01*
X94154448Y-219258729D01*
X94139572Y-219248958D01*
X93897584Y-219113438D01*
X93881480Y-219105860D01*
X93622810Y-219005788D01*
X93605799Y-219000554D01*
X93335610Y-218937928D01*
X93318031Y-218935144D01*
X93041713Y-218911212D01*
X93023917Y-218910932D01*
X92746984Y-218926173D01*
X92729327Y-218928404D01*
X92457304Y-218982513D01*
X92440137Y-218987209D01*
X92178452Y-219079106D01*
X92162117Y-219086175D01*
X91915991Y-219214027D01*
X91900816Y-219223326D01*
X91675160Y-219384582D01*
X91661446Y-219395927D01*
X91460762Y-219587370D01*
X91448784Y-219600534D01*
X91277077Y-219818343D01*
X91267073Y-219833064D01*
X91127769Y-220072894D01*
X91119939Y-220088877D01*
X91015817Y-220345943D01*
X91010317Y-220362869D01*
X90943454Y-220632041D01*
X90940394Y-220649575D01*
X90912125Y-220925483D01*
X90911566Y-220943272D01*
X634000Y-220943272D01*
X634000Y-207943272D01*
X9911566Y-207943272D01*
X9922455Y-208220410D01*
X9924408Y-208238100D01*
X9974237Y-208510940D01*
X9978663Y-208528179D01*
X10066439Y-208791275D01*
X10073250Y-208807718D01*
X10197220Y-209055822D01*
X10206280Y-209071142D01*
X10363972Y-209299303D01*
X10375100Y-209313193D01*
X10563367Y-209516859D01*
X10576341Y-209529042D01*
X10791426Y-209704149D01*
X10805988Y-209714384D01*
X11043601Y-209857438D01*
X11059459Y-209865517D01*
X11314857Y-209973665D01*
X11331696Y-209979431D01*
X11599785Y-210050513D01*
X11617267Y-210053848D01*
X11892696Y-210086447D01*
X11910474Y-210087285D01*
X12187750Y-210080751D01*
X12205470Y-210079076D01*
X12479058Y-210033538D01*
X12496364Y-210029383D01*
X12760807Y-209945751D01*
X12777355Y-209939199D01*
X13027375Y-209819141D01*
X13042835Y-209810323D01*
X13273445Y-209656234D01*
X13287508Y-209645326D01*
X13494106Y-209460282D01*
X13506492Y-209447500D01*
X13684956Y-209235191D01*
X13695417Y-209220793D01*
X13842186Y-208985457D01*
X13850515Y-208969727D01*
X13962660Y-208716059D01*
X13968688Y-208699314D01*
X14043973Y-208432375D01*
X14047583Y-208414946D01*
X14084504Y-208140062D01*
X14085563Y-208127247D01*
X14089438Y-208003958D01*
X14089185Y-207991101D01*
X14085799Y-207943272D01*
X171911566Y-207943272D01*
X171922455Y-208220410D01*
X171924408Y-208238100D01*
X171974237Y-208510940D01*
X171978663Y-208528179D01*
X172066439Y-208791275D01*
X172073250Y-208807718D01*
X172197220Y-209055822D01*
X172206280Y-209071142D01*
X172363972Y-209299303D01*
X172375100Y-209313193D01*
X172563367Y-209516859D01*
X172576341Y-209529042D01*
X172791426Y-209704149D01*
X172805988Y-209714384D01*
X173043601Y-209857438D01*
X173059459Y-209865517D01*
X173314857Y-209973665D01*
X173331696Y-209979431D01*
X173599785Y-210050513D01*
X173617267Y-210053848D01*
X173892696Y-210086447D01*
X173910474Y-210087285D01*
X174187750Y-210080751D01*
X174205470Y-210079076D01*
X174479058Y-210033538D01*
X174496364Y-210029383D01*
X174760807Y-209945751D01*
X174777355Y-209939199D01*
X175027375Y-209819141D01*
X175042835Y-209810323D01*
X175273445Y-209656234D01*
X175287508Y-209645326D01*
X175494106Y-209460282D01*
X175506492Y-209447500D01*
X175684956Y-209235191D01*
X175695417Y-209220793D01*
X175842186Y-208985457D01*
X175850515Y-208969727D01*
X175962660Y-208716059D01*
X175968688Y-208699314D01*
X176043973Y-208432375D01*
X176047583Y-208414946D01*
X176084504Y-208140062D01*
X176085563Y-208127247D01*
X176089438Y-208003958D01*
X176089185Y-207991101D01*
X176069596Y-207714441D01*
X176067089Y-207696821D01*
X176008715Y-207425682D01*
X176003749Y-207408590D01*
X175907752Y-207148381D01*
X175900428Y-207132160D01*
X175768726Y-206888072D01*
X175759189Y-206873045D01*
X175594408Y-206649950D01*
X175582850Y-206636416D01*
X175388279Y-206438764D01*
X175374928Y-206426994D01*
X175154448Y-206258729D01*
X175139572Y-206248958D01*
X174897584Y-206113438D01*
X174881480Y-206105860D01*
X174622810Y-206005788D01*
X174605799Y-206000554D01*
X174335610Y-205937928D01*
X174318031Y-205935144D01*
X174041713Y-205911212D01*
X174023917Y-205910932D01*
X173746984Y-205926173D01*
X173729327Y-205928404D01*
X173457304Y-205982513D01*
X173440137Y-205987209D01*
X173178452Y-206079106D01*
X173162117Y-206086175D01*
X172915991Y-206214027D01*
X172900816Y-206223326D01*
X172675160Y-206384582D01*
X172661446Y-206395927D01*
X172460762Y-206587370D01*
X172448784Y-206600534D01*
X172277077Y-206818343D01*
X172267073Y-206833064D01*
X172127769Y-207072894D01*
X172119939Y-207088877D01*
X172015817Y-207345943D01*
X172010317Y-207362869D01*
X171943454Y-207632041D01*
X171940394Y-207649575D01*
X171912125Y-207925483D01*
X171911566Y-207943272D01*
X14085799Y-207943272D01*
X14069596Y-207714441D01*
X14067089Y-207696821D01*
X14008715Y-207425682D01*
X14003749Y-207408590D01*
X13907752Y-207148381D01*
X13900428Y-207132160D01*
X13768726Y-206888072D01*
X13759189Y-206873045D01*
X13594408Y-206649950D01*
X13582850Y-206636416D01*
X13388279Y-206438764D01*
X13374928Y-206426994D01*
X13154448Y-206258729D01*
X13139572Y-206248958D01*
X12897584Y-206113438D01*
X12881480Y-206105860D01*
X12622810Y-206005788D01*
X12605799Y-206000554D01*
X12335610Y-205937928D01*
X12318031Y-205935144D01*
X12041713Y-205911212D01*
X12023917Y-205910932D01*
X11746984Y-205926173D01*
X11729327Y-205928404D01*
X11457304Y-205982513D01*
X11440137Y-205987209D01*
X11178452Y-206079106D01*
X11162117Y-206086175D01*
X10915991Y-206214027D01*
X10900816Y-206223326D01*
X10675160Y-206384582D01*
X10661446Y-206395927D01*
X10460762Y-206587370D01*
X10448784Y-206600534D01*
X10277077Y-206818343D01*
X10267073Y-206833064D01*
X10127769Y-207072894D01*
X10119939Y-207088877D01*
X10015817Y-207345943D01*
X10010317Y-207362869D01*
X9943454Y-207632041D01*
X9940394Y-207649575D01*
X9912125Y-207925483D01*
X9911566Y-207943272D01*
X634000Y-207943272D01*
X634000Y-156554513D01*
X88590504Y-156554513D01*
X88590504Y-156745487D01*
X88593257Y-156771684D01*
X88632963Y-156958484D01*
X88641103Y-156983536D01*
X88718779Y-157157999D01*
X88731950Y-157180811D01*
X88844201Y-157335312D01*
X88861827Y-157354887D01*
X89003748Y-157482673D01*
X89025058Y-157498156D01*
X89190446Y-157593643D01*
X89214510Y-157604357D01*
X89396137Y-157663371D01*
X89421903Y-157668848D01*
X89564258Y-157683810D01*
X89577428Y-157684500D01*
X89672572Y-157684500D01*
X89685742Y-157683810D01*
X89828097Y-157668848D01*
X89853863Y-157663371D01*
X90035490Y-157604357D01*
X90059554Y-157593643D01*
X90224942Y-157498156D01*
X90246252Y-157482673D01*
X90388173Y-157354887D01*
X90405799Y-157335312D01*
X90518050Y-157180811D01*
X90531221Y-157157999D01*
X90608897Y-156983536D01*
X90617037Y-156958484D01*
X90656743Y-156771684D01*
X90659496Y-156745487D01*
X90659496Y-156554513D01*
X90656743Y-156528316D01*
X90617037Y-156341516D01*
X90608897Y-156316464D01*
X90587994Y-156269513D01*
X111475504Y-156269513D01*
X111475504Y-156460487D01*
X111478257Y-156486684D01*
X111517963Y-156673484D01*
X111526103Y-156698536D01*
X111603779Y-156872999D01*
X111616950Y-156895811D01*
X111729201Y-157050312D01*
X111746827Y-157069887D01*
X111888748Y-157197673D01*
X111910058Y-157213156D01*
X112075446Y-157308643D01*
X112099510Y-157319357D01*
X112281137Y-157378371D01*
X112306903Y-157383848D01*
X112449258Y-157398810D01*
X112462428Y-157399500D01*
X112557572Y-157399500D01*
X112570742Y-157398810D01*
X112713097Y-157383848D01*
X112738863Y-157378371D01*
X112920490Y-157319357D01*
X112944554Y-157308643D01*
X113109942Y-157213156D01*
X113131252Y-157197673D01*
X113273173Y-157069887D01*
X113290799Y-157050312D01*
X113403050Y-156895811D01*
X113416221Y-156872999D01*
X113493897Y-156698536D01*
X113502037Y-156673484D01*
X113541743Y-156486684D01*
X113544496Y-156460487D01*
X113544496Y-156269513D01*
X113541743Y-156243316D01*
X113502037Y-156056516D01*
X113493897Y-156031464D01*
X113416221Y-155857001D01*
X113403050Y-155834189D01*
X113290799Y-155679688D01*
X113273173Y-155660113D01*
X113131252Y-155532327D01*
X113109942Y-155516844D01*
X112944554Y-155421357D01*
X112920490Y-155410643D01*
X112738863Y-155351629D01*
X112713097Y-155346152D01*
X112570742Y-155331190D01*
X112557572Y-155330500D01*
X112462428Y-155330500D01*
X112449258Y-155331190D01*
X112306903Y-155346152D01*
X112281137Y-155351629D01*
X112099510Y-155410643D01*
X112075446Y-155421357D01*
X111910058Y-155516844D01*
X111888748Y-155532327D01*
X111746827Y-155660113D01*
X111729201Y-155679688D01*
X111616950Y-155834189D01*
X111603779Y-155857001D01*
X111526103Y-156031464D01*
X111517963Y-156056516D01*
X111478257Y-156243316D01*
X111475504Y-156269513D01*
X90587994Y-156269513D01*
X90531221Y-156142001D01*
X90518050Y-156119189D01*
X90405799Y-155964688D01*
X90388173Y-155945113D01*
X90246252Y-155817327D01*
X90224942Y-155801844D01*
X90059554Y-155706357D01*
X90035490Y-155695643D01*
X89853863Y-155636629D01*
X89828097Y-155631152D01*
X89685742Y-155616190D01*
X89672572Y-155615500D01*
X89577428Y-155615500D01*
X89564258Y-155616190D01*
X89421903Y-155631152D01*
X89396137Y-155636629D01*
X89214510Y-155695643D01*
X89190446Y-155706357D01*
X89025058Y-155801844D01*
X89003748Y-155817327D01*
X88861827Y-155945113D01*
X88844201Y-155964688D01*
X88731950Y-156119189D01*
X88718779Y-156142001D01*
X88641103Y-156316464D01*
X88632963Y-156341516D01*
X88593257Y-156528316D01*
X88590504Y-156554513D01*
X634000Y-156554513D01*
X634000Y-118634000D01*
X5921127Y-118634000D01*
X5949635Y-118638109D01*
X5969034Y-118639390D01*
X6210409Y-118636662D01*
X6224240Y-118637558D01*
X6243678Y-118637314D01*
X6256744Y-118636138D01*
X6266568Y-118636027D01*
X6284416Y-118634552D01*
X6298381Y-118632391D01*
X6711767Y-118595185D01*
X6728679Y-118594761D01*
X6748026Y-118592776D01*
X6757370Y-118591080D01*
X6763550Y-118590524D01*
X6781232Y-118587655D01*
X6797765Y-118583749D01*
X7210432Y-118508860D01*
X7227258Y-118506920D01*
X7246340Y-118503210D01*
X7255504Y-118500681D01*
X7261615Y-118499572D01*
X7278959Y-118495131D01*
X7295054Y-118489766D01*
X7699380Y-118378178D01*
X7715955Y-118374739D01*
X7734630Y-118369333D01*
X7743521Y-118365996D01*
X7749511Y-118364343D01*
X7766389Y-118358365D01*
X7781948Y-118351574D01*
X8174630Y-118204199D01*
X8190834Y-118199287D01*
X8208955Y-118192225D01*
X8217507Y-118188106D01*
X8223317Y-118185926D01*
X8239596Y-118178458D01*
X8254483Y-118170301D01*
X8632378Y-117988315D01*
X8648076Y-117981970D01*
X8665488Y-117973314D01*
X8673634Y-117968446D01*
X8679232Y-117965751D01*
X8694778Y-117956852D01*
X8708881Y-117947388D01*
X9068931Y-117732268D01*
X9083998Y-117724541D01*
X9100559Y-117714362D01*
X9108236Y-117708784D01*
X9113574Y-117705595D01*
X9128254Y-117695341D01*
X9141443Y-117684658D01*
X9480764Y-117438127D01*
X9495087Y-117429075D01*
X9510673Y-117417449D01*
X9517824Y-117411201D01*
X9522844Y-117407554D01*
X9536549Y-117396025D01*
X9548743Y-117384188D01*
X9864588Y-117108242D01*
X9878036Y-117097947D01*
X9892515Y-117084973D01*
X9899074Y-117078112D01*
X9903755Y-117074023D01*
X9916372Y-117061309D01*
X9927444Y-117048439D01*
X10217292Y-116745283D01*
X10229759Y-116733827D01*
X10243017Y-116719607D01*
X10248933Y-116712188D01*
X10253234Y-116707690D01*
X10264658Y-116693900D01*
X10274532Y-116680090D01*
X10536050Y-116352159D01*
X10547430Y-116339643D01*
X10559363Y-116324288D01*
X10564587Y-116316373D01*
X10568461Y-116311516D01*
X10578606Y-116296755D01*
X10587214Y-116282096D01*
X10818260Y-115932076D01*
X10828489Y-115918568D01*
X10838994Y-115902210D01*
X10843491Y-115893853D01*
X10846915Y-115888666D01*
X10855693Y-115873058D01*
X10862944Y-115857705D01*
X11061702Y-115488350D01*
X11070669Y-115473995D01*
X11079664Y-115456765D01*
X11083396Y-115448033D01*
X11086342Y-115442559D01*
X11093684Y-115426231D01*
X11099530Y-115410289D01*
X11264378Y-115024607D01*
X11272021Y-115009509D01*
X11279438Y-114991537D01*
X11282371Y-114982509D01*
X11284815Y-114976792D01*
X11290665Y-114959866D01*
X11295060Y-114943456D01*
X11424666Y-114544569D01*
X11430929Y-114528836D01*
X11436705Y-114510271D01*
X11438817Y-114501016D01*
X11440736Y-114495111D01*
X11445046Y-114477727D01*
X11447949Y-114461005D01*
X11541286Y-114052073D01*
X11546109Y-114035857D01*
X11550198Y-114016847D01*
X11551471Y-114007450D01*
X11552854Y-114001390D01*
X11555589Y-113983686D01*
X11556982Y-113966768D01*
X11613285Y-113551122D01*
X11616635Y-113534538D01*
X11619003Y-113515245D01*
X11619429Y-113505760D01*
X11620264Y-113499596D01*
X11621400Y-113481730D01*
X11621271Y-113464748D01*
X11640089Y-113045751D01*
X11641941Y-113028912D01*
X11642569Y-113009481D01*
X11642143Y-112999999D01*
X11642422Y-112993795D01*
X11641952Y-112975893D01*
X11640302Y-112958996D01*
X11639596Y-112943272D01*
X13911566Y-112943272D01*
X13922455Y-113220410D01*
X13924408Y-113238100D01*
X13974237Y-113510940D01*
X13978663Y-113528179D01*
X14066439Y-113791275D01*
X14073250Y-113807718D01*
X14197220Y-114055822D01*
X14206280Y-114071142D01*
X14363972Y-114299303D01*
X14375100Y-114313193D01*
X14563367Y-114516859D01*
X14576341Y-114529042D01*
X14791426Y-114704149D01*
X14805988Y-114714384D01*
X15043601Y-114857438D01*
X15059459Y-114865517D01*
X15314857Y-114973665D01*
X15331696Y-114979431D01*
X15599785Y-115050513D01*
X15617267Y-115053848D01*
X15892696Y-115086447D01*
X15910474Y-115087285D01*
X16187750Y-115080751D01*
X16205470Y-115079076D01*
X16479058Y-115033538D01*
X16496364Y-115029383D01*
X16760807Y-114945751D01*
X16777355Y-114939199D01*
X17027375Y-114819141D01*
X17042835Y-114810323D01*
X17273445Y-114656234D01*
X17287508Y-114645326D01*
X17494106Y-114460282D01*
X17506492Y-114447500D01*
X17684956Y-114235191D01*
X17695417Y-114220793D01*
X17842186Y-113985457D01*
X17850515Y-113969727D01*
X17962660Y-113716059D01*
X17968688Y-113699314D01*
X18043973Y-113432375D01*
X18047583Y-113414946D01*
X18084504Y-113140062D01*
X18085563Y-113127247D01*
X18089438Y-113003958D01*
X18089185Y-112991101D01*
X18085799Y-112943272D01*
X167911566Y-112943272D01*
X167922455Y-113220410D01*
X167924408Y-113238100D01*
X167974237Y-113510940D01*
X167978663Y-113528179D01*
X168066439Y-113791275D01*
X168073250Y-113807718D01*
X168197220Y-114055822D01*
X168206280Y-114071142D01*
X168363972Y-114299303D01*
X168375100Y-114313193D01*
X168563367Y-114516859D01*
X168576341Y-114529042D01*
X168791426Y-114704149D01*
X168805988Y-114714384D01*
X169043601Y-114857438D01*
X169059459Y-114865517D01*
X169314857Y-114973665D01*
X169331696Y-114979431D01*
X169599785Y-115050513D01*
X169617267Y-115053848D01*
X169892696Y-115086447D01*
X169910474Y-115087285D01*
X170187750Y-115080751D01*
X170205470Y-115079076D01*
X170479058Y-115033538D01*
X170496364Y-115029383D01*
X170760807Y-114945751D01*
X170777355Y-114939199D01*
X171027375Y-114819141D01*
X171042835Y-114810323D01*
X171273445Y-114656234D01*
X171287508Y-114645326D01*
X171494106Y-114460282D01*
X171506492Y-114447500D01*
X171684956Y-114235191D01*
X171695417Y-114220793D01*
X171842186Y-113985457D01*
X171850515Y-113969727D01*
X171962660Y-113716059D01*
X171968688Y-113699314D01*
X172043973Y-113432375D01*
X172047583Y-113414946D01*
X172084504Y-113140062D01*
X172085563Y-113127247D01*
X172089438Y-113003958D01*
X172089185Y-112991101D01*
X172069596Y-112714441D01*
X172067089Y-112696821D01*
X172008715Y-112425682D01*
X172003749Y-112408590D01*
X171907752Y-112148381D01*
X171900428Y-112132160D01*
X171768726Y-111888072D01*
X171759189Y-111873045D01*
X171594408Y-111649950D01*
X171582850Y-111636416D01*
X171388279Y-111438764D01*
X171374928Y-111426994D01*
X171154448Y-111258729D01*
X171139572Y-111248958D01*
X170897584Y-111113438D01*
X170881480Y-111105860D01*
X170622810Y-111005788D01*
X170605799Y-111000554D01*
X170335610Y-110937928D01*
X170318031Y-110935144D01*
X170041713Y-110911212D01*
X170023917Y-110910932D01*
X169746984Y-110926173D01*
X169729327Y-110928404D01*
X169457304Y-110982513D01*
X169440137Y-110987209D01*
X169178452Y-111079106D01*
X169162117Y-111086175D01*
X168915991Y-111214027D01*
X168900816Y-111223326D01*
X168675160Y-111384582D01*
X168661446Y-111395927D01*
X168460762Y-111587370D01*
X168448784Y-111600534D01*
X168277077Y-111818343D01*
X168267073Y-111833064D01*
X168127769Y-112072894D01*
X168119939Y-112088877D01*
X168015817Y-112345943D01*
X168010317Y-112362869D01*
X167943454Y-112632041D01*
X167940394Y-112649575D01*
X167912125Y-112925483D01*
X167911566Y-112943272D01*
X18085799Y-112943272D01*
X18069596Y-112714441D01*
X18067089Y-112696821D01*
X18008715Y-112425682D01*
X18003749Y-112408590D01*
X17907752Y-112148381D01*
X17900428Y-112132160D01*
X17768726Y-111888072D01*
X17759189Y-111873045D01*
X17594408Y-111649950D01*
X17582850Y-111636416D01*
X17388279Y-111438764D01*
X17374928Y-111426994D01*
X17154448Y-111258729D01*
X17139572Y-111248958D01*
X16897584Y-111113438D01*
X16881480Y-111105860D01*
X16622810Y-111005788D01*
X16605799Y-111000554D01*
X16335610Y-110937928D01*
X16318031Y-110935144D01*
X16041713Y-110911212D01*
X16023917Y-110910932D01*
X15746984Y-110926173D01*
X15729327Y-110928404D01*
X15457304Y-110982513D01*
X15440137Y-110987209D01*
X15178452Y-111079106D01*
X15162117Y-111086175D01*
X14915991Y-111214027D01*
X14900816Y-111223326D01*
X14675160Y-111384582D01*
X14661446Y-111395927D01*
X14460762Y-111587370D01*
X14448784Y-111600534D01*
X14277077Y-111818343D01*
X14267073Y-111833064D01*
X14127769Y-112072894D01*
X14119939Y-112088877D01*
X14015817Y-112345943D01*
X14010317Y-112362869D01*
X13943454Y-112632041D01*
X13940394Y-112649575D01*
X13912125Y-112925483D01*
X13911566Y-112943272D01*
X11639596Y-112943272D01*
X11621484Y-112539977D01*
X11621819Y-112523059D01*
X11620704Y-112503649D01*
X11619430Y-112494243D01*
X11619151Y-112488033D01*
X11617078Y-112470246D01*
X11613920Y-112453567D01*
X11557620Y-112037939D01*
X11556436Y-112021042D01*
X11553585Y-112001812D01*
X11551471Y-111992547D01*
X11550637Y-111986395D01*
X11546979Y-111968869D01*
X11542342Y-111952552D01*
X11449006Y-111543622D01*
X11446313Y-111526908D01*
X11441749Y-111508009D01*
X11438814Y-111498978D01*
X11437433Y-111492925D01*
X11432217Y-111475790D01*
X11426132Y-111459943D01*
X11296522Y-111061043D01*
X11292341Y-111044633D01*
X11286102Y-111026219D01*
X11282369Y-111017486D01*
X11280452Y-111011585D01*
X11273720Y-110994985D01*
X11266234Y-110979738D01*
X11101396Y-110594082D01*
X11095759Y-110578107D01*
X11087895Y-110560327D01*
X11083394Y-110551963D01*
X11080951Y-110546247D01*
X11072763Y-110530328D01*
X11063953Y-110515833D01*
X10865188Y-110146468D01*
X10858148Y-110131076D01*
X10848719Y-110114068D01*
X10843491Y-110106148D01*
X10840548Y-110100679D01*
X10830961Y-110085549D01*
X10820878Y-110071890D01*
X10589824Y-109721859D01*
X10581421Y-109707140D01*
X10570507Y-109691050D01*
X10564585Y-109683625D01*
X10561167Y-109678446D01*
X10550263Y-109664237D01*
X10539010Y-109651553D01*
X10277486Y-109323614D01*
X10267808Y-109309723D01*
X10255499Y-109294679D01*
X10248932Y-109287810D01*
X10245059Y-109282954D01*
X10232929Y-109269783D01*
X10220560Y-109258136D01*
X9930724Y-108954991D01*
X9919835Y-108942018D01*
X9906223Y-108928134D01*
X9899074Y-108921888D01*
X9894781Y-108917398D01*
X9881518Y-108905367D01*
X9868162Y-108894880D01*
X9552298Y-108618918D01*
X9540299Y-108606982D01*
X9525499Y-108594375D01*
X9517821Y-108588797D01*
X9513139Y-108584706D01*
X9498852Y-108573912D01*
X9484590Y-108564652D01*
X9145280Y-108318129D01*
X9132259Y-108307316D01*
X9116389Y-108296087D01*
X9108245Y-108291221D01*
X9103210Y-108287563D01*
X9088013Y-108278095D01*
X9072987Y-108270156D01*
X8712946Y-108055041D01*
X8699001Y-108045434D01*
X8682190Y-108035673D01*
X8673635Y-108031553D01*
X8668299Y-108028365D01*
X8652313Y-108020296D01*
X8636639Y-108013737D01*
X8258766Y-107831764D01*
X8244014Y-107823444D01*
X8226391Y-107815227D01*
X8217493Y-107811887D01*
X8211904Y-107809196D01*
X8195260Y-107802593D01*
X8179090Y-107797474D01*
X7786375Y-107650087D01*
X7770957Y-107643132D01*
X7752669Y-107636529D01*
X7743528Y-107634006D01*
X7737700Y-107631819D01*
X7720529Y-107626734D01*
X7703942Y-107623081D01*
X7299634Y-107511498D01*
X7283641Y-107505949D01*
X7264839Y-107501012D01*
X7255495Y-107499316D01*
X7249501Y-107497662D01*
X7231943Y-107494137D01*
X7215090Y-107491985D01*
X6802422Y-107417097D01*
X6785990Y-107413002D01*
X6766821Y-107409770D01*
X6757357Y-107408918D01*
X6751245Y-107407809D01*
X6733446Y-107405873D01*
X6716498Y-107405241D01*
X6302865Y-107368013D01*
X6289212Y-107365729D01*
X6269846Y-107364010D01*
X6256741Y-107363862D01*
X6246943Y-107362980D01*
X6229041Y-107362646D01*
X6214901Y-107363389D01*
X5972312Y-107360647D01*
X5954437Y-107361718D01*
X5921922Y-107366000D01*
X634000Y-107366000D01*
X634000Y-67854513D01*
X101045504Y-67854513D01*
X101045504Y-68045487D01*
X101048257Y-68071684D01*
X101087963Y-68258484D01*
X101096103Y-68283536D01*
X101173779Y-68457999D01*
X101186950Y-68480811D01*
X101299201Y-68635312D01*
X101316827Y-68654887D01*
X101458748Y-68782673D01*
X101480058Y-68798156D01*
X101645446Y-68893643D01*
X101669510Y-68904357D01*
X101851137Y-68963371D01*
X101876903Y-68968848D01*
X102019258Y-68983810D01*
X102032428Y-68984500D01*
X102127572Y-68984500D01*
X102140742Y-68983810D01*
X102283097Y-68968848D01*
X102308863Y-68963371D01*
X102490490Y-68904357D01*
X102514554Y-68893643D01*
X102679942Y-68798156D01*
X102701252Y-68782673D01*
X102843173Y-68654887D01*
X102860799Y-68635312D01*
X102973050Y-68480811D01*
X102986221Y-68457999D01*
X103063897Y-68283536D01*
X103072037Y-68258484D01*
X103111743Y-68071684D01*
X103114496Y-68045487D01*
X103114496Y-67854513D01*
X103111743Y-67828316D01*
X103072037Y-67641516D01*
X103063897Y-67616464D01*
X102986221Y-67442001D01*
X102973050Y-67419189D01*
X102860799Y-67264688D01*
X102843173Y-67245113D01*
X102701252Y-67117327D01*
X102679942Y-67101844D01*
X102514554Y-67006357D01*
X102490490Y-66995643D01*
X102308863Y-66936629D01*
X102283097Y-66931152D01*
X102140742Y-66916190D01*
X102127572Y-66915500D01*
X102032428Y-66915500D01*
X102019258Y-66916190D01*
X101876903Y-66931152D01*
X101851137Y-66936629D01*
X101669510Y-66995643D01*
X101645446Y-67006357D01*
X101480058Y-67101844D01*
X101458748Y-67117327D01*
X101316827Y-67245113D01*
X101299201Y-67264688D01*
X101186950Y-67419189D01*
X101173779Y-67442001D01*
X101096103Y-67616464D01*
X101087963Y-67641516D01*
X101048257Y-67828316D01*
X101045504Y-67854513D01*
X634000Y-67854513D01*
X634000Y-44434513D01*
X74750504Y-44434513D01*
X74750504Y-44625487D01*
X74753257Y-44651684D01*
X74792963Y-44838484D01*
X74801103Y-44863536D01*
X74878779Y-45037999D01*
X74891950Y-45060811D01*
X75004201Y-45215312D01*
X75021827Y-45234887D01*
X75163748Y-45362673D01*
X75185058Y-45378156D01*
X75350446Y-45473643D01*
X75374510Y-45484357D01*
X75556137Y-45543371D01*
X75581903Y-45548848D01*
X75724258Y-45563810D01*
X75737428Y-45564500D01*
X75832572Y-45564500D01*
X75845742Y-45563810D01*
X75988097Y-45548848D01*
X76013863Y-45543371D01*
X76195490Y-45484357D01*
X76219554Y-45473643D01*
X76384942Y-45378156D01*
X76406252Y-45362673D01*
X76548173Y-45234887D01*
X76565799Y-45215312D01*
X76678050Y-45060811D01*
X76691221Y-45037999D01*
X76768897Y-44863536D01*
X76777037Y-44838484D01*
X76816743Y-44651684D01*
X76819496Y-44625487D01*
X76819496Y-44434513D01*
X76816743Y-44408316D01*
X76777037Y-44221516D01*
X76768897Y-44196464D01*
X76691221Y-44022001D01*
X76678050Y-43999189D01*
X76565799Y-43844688D01*
X76548173Y-43825113D01*
X76406252Y-43697327D01*
X76384942Y-43681844D01*
X76219554Y-43586357D01*
X76195490Y-43575643D01*
X76013863Y-43516629D01*
X75988097Y-43511152D01*
X75845742Y-43496190D01*
X75832572Y-43495500D01*
X75737428Y-43495500D01*
X75724258Y-43496190D01*
X75581903Y-43511152D01*
X75556137Y-43516629D01*
X75374510Y-43575643D01*
X75350446Y-43586357D01*
X75185058Y-43681844D01*
X75163748Y-43697327D01*
X75021827Y-43825113D01*
X75004201Y-43844688D01*
X74891950Y-43999189D01*
X74878779Y-44022001D01*
X74801103Y-44196464D01*
X74792963Y-44221516D01*
X74753257Y-44408316D01*
X74750504Y-44434513D01*
X634000Y-44434513D01*
X634000Y-17943272D01*
X9911566Y-17943272D01*
X9922455Y-18220410D01*
X9924408Y-18238100D01*
X9974237Y-18510940D01*
X9978663Y-18528179D01*
X10066439Y-18791275D01*
X10073250Y-18807718D01*
X10197220Y-19055822D01*
X10206280Y-19071142D01*
X10363972Y-19299303D01*
X10375100Y-19313193D01*
X10563367Y-19516859D01*
X10576341Y-19529042D01*
X10791426Y-19704149D01*
X10805988Y-19714384D01*
X11043601Y-19857438D01*
X11059459Y-19865517D01*
X11314857Y-19973665D01*
X11331696Y-19979431D01*
X11599785Y-20050513D01*
X11617267Y-20053848D01*
X11892696Y-20086447D01*
X11910474Y-20087285D01*
X12187750Y-20080751D01*
X12205470Y-20079076D01*
X12479058Y-20033538D01*
X12496364Y-20029383D01*
X12760807Y-19945751D01*
X12777355Y-19939199D01*
X13027375Y-19819141D01*
X13042835Y-19810323D01*
X13273445Y-19656234D01*
X13287508Y-19645326D01*
X13494106Y-19460282D01*
X13506492Y-19447500D01*
X13684956Y-19235191D01*
X13695417Y-19220793D01*
X13842186Y-18985457D01*
X13850515Y-18969727D01*
X13962660Y-18716059D01*
X13968688Y-18699314D01*
X14043973Y-18432375D01*
X14047583Y-18414946D01*
X14084504Y-18140062D01*
X14085563Y-18127247D01*
X14089438Y-18003958D01*
X14089185Y-17991101D01*
X14085799Y-17943272D01*
X171911566Y-17943272D01*
X171922455Y-18220410D01*
X171924408Y-18238100D01*
X171974237Y-18510940D01*
X171978663Y-18528179D01*
X172066439Y-18791275D01*
X172073250Y-18807718D01*
X172197220Y-19055822D01*
X172206280Y-19071142D01*
X172363972Y-19299303D01*
X172375100Y-19313193D01*
X172563367Y-19516859D01*
X172576341Y-19529042D01*
X172791426Y-19704149D01*
X172805988Y-19714384D01*
X173043601Y-19857438D01*
X173059459Y-19865517D01*
X173314857Y-19973665D01*
X173331696Y-19979431D01*
X173599785Y-20050513D01*
X173617267Y-20053848D01*
X173892696Y-20086447D01*
X173910474Y-20087285D01*
X174187750Y-20080751D01*
X174205470Y-20079076D01*
X174479058Y-20033538D01*
X174496364Y-20029383D01*
X174760807Y-19945751D01*
X174777355Y-19939199D01*
X175027375Y-19819141D01*
X175042835Y-19810323D01*
X175273445Y-19656234D01*
X175287508Y-19645326D01*
X175494106Y-19460282D01*
X175506492Y-19447500D01*
X175684956Y-19235191D01*
X175695417Y-19220793D01*
X175842186Y-18985457D01*
X175850515Y-18969727D01*
X175962660Y-18716059D01*
X175968688Y-18699314D01*
X176043973Y-18432375D01*
X176047583Y-18414946D01*
X176084504Y-18140062D01*
X176085563Y-18127247D01*
X176089438Y-18003958D01*
X176089185Y-17991101D01*
X176069596Y-17714441D01*
X176067089Y-17696821D01*
X176008715Y-17425682D01*
X176003749Y-17408590D01*
X175907752Y-17148381D01*
X175900428Y-17132160D01*
X175768726Y-16888072D01*
X175759189Y-16873045D01*
X175594408Y-16649950D01*
X175582850Y-16636416D01*
X175388279Y-16438764D01*
X175374928Y-16426994D01*
X175154448Y-16258729D01*
X175139572Y-16248958D01*
X174897584Y-16113438D01*
X174881480Y-16105860D01*
X174622810Y-16005788D01*
X174605799Y-16000554D01*
X174335610Y-15937928D01*
X174318031Y-15935144D01*
X174041713Y-15911212D01*
X174023917Y-15910932D01*
X173746984Y-15926173D01*
X173729327Y-15928404D01*
X173457304Y-15982513D01*
X173440137Y-15987209D01*
X173178452Y-16079106D01*
X173162117Y-16086175D01*
X172915991Y-16214027D01*
X172900816Y-16223326D01*
X172675160Y-16384582D01*
X172661446Y-16395927D01*
X172460762Y-16587370D01*
X172448784Y-16600534D01*
X172277077Y-16818343D01*
X172267073Y-16833064D01*
X172127769Y-17072894D01*
X172119939Y-17088877D01*
X172015817Y-17345943D01*
X172010317Y-17362869D01*
X171943454Y-17632041D01*
X171940394Y-17649575D01*
X171912125Y-17925483D01*
X171911566Y-17943272D01*
X14085799Y-17943272D01*
X14069596Y-17714441D01*
X14067089Y-17696821D01*
X14008715Y-17425682D01*
X14003749Y-17408590D01*
X13907752Y-17148381D01*
X13900428Y-17132160D01*
X13768726Y-16888072D01*
X13759189Y-16873045D01*
X13594408Y-16649950D01*
X13582850Y-16636416D01*
X13388279Y-16438764D01*
X13374928Y-16426994D01*
X13154448Y-16258729D01*
X13139572Y-16248958D01*
X12897584Y-16113438D01*
X12881480Y-16105860D01*
X12622810Y-16005788D01*
X12605799Y-16000554D01*
X12335610Y-15937928D01*
X12318031Y-15935144D01*
X12041713Y-15911212D01*
X12023917Y-15910932D01*
X11746984Y-15926173D01*
X11729327Y-15928404D01*
X11457304Y-15982513D01*
X11440137Y-15987209D01*
X11178452Y-16079106D01*
X11162117Y-16086175D01*
X10915991Y-16214027D01*
X10900816Y-16223326D01*
X10675160Y-16384582D01*
X10661446Y-16395927D01*
X10460762Y-16587370D01*
X10448784Y-16600534D01*
X10277077Y-16818343D01*
X10267073Y-16833064D01*
X10127769Y-17072894D01*
X10119939Y-17088877D01*
X10015817Y-17345943D01*
X10010317Y-17362869D01*
X9943454Y-17632041D01*
X9940394Y-17649575D01*
X9912125Y-17925483D01*
X9911566Y-17943272D01*
X634000Y-17943272D01*
X634000Y-4943272D01*
X90911566Y-4943272D01*
X90922455Y-5220410D01*
X90924408Y-5238100D01*
X90974237Y-5510940D01*
X90978663Y-5528179D01*
X91066439Y-5791275D01*
X91073250Y-5807718D01*
X91197220Y-6055822D01*
X91206280Y-6071142D01*
X91363972Y-6299303D01*
X91375100Y-6313193D01*
X91563367Y-6516859D01*
X91576341Y-6529042D01*
X91791426Y-6704149D01*
X91805988Y-6714384D01*
X92043601Y-6857438D01*
X92059459Y-6865517D01*
X92314857Y-6973665D01*
X92331696Y-6979431D01*
X92599785Y-7050513D01*
X92617267Y-7053848D01*
X92892696Y-7086447D01*
X92910474Y-7087285D01*
X93187750Y-7080751D01*
X93205470Y-7079076D01*
X93479058Y-7033538D01*
X93496364Y-7029383D01*
X93760807Y-6945751D01*
X93777355Y-6939199D01*
X94027375Y-6819141D01*
X94042835Y-6810323D01*
X94273445Y-6656234D01*
X94287508Y-6645326D01*
X94494106Y-6460282D01*
X94506492Y-6447500D01*
X94684956Y-6235191D01*
X94695417Y-6220793D01*
X94842186Y-5985457D01*
X94850515Y-5969727D01*
X94962660Y-5716059D01*
X94968688Y-5699314D01*
X95043973Y-5432375D01*
X95047583Y-5414946D01*
X95084504Y-5140062D01*
X95085563Y-5127247D01*
X95089438Y-5003958D01*
X95089185Y-4991101D01*
X95069596Y-4714441D01*
X95067089Y-4696821D01*
X95008715Y-4425682D01*
X95003749Y-4408590D01*
X94907752Y-4148381D01*
X94900428Y-4132160D01*
X94768726Y-3888072D01*
X94759189Y-3873045D01*
X94594408Y-3649950D01*
X94582850Y-3636416D01*
X94388279Y-3438764D01*
X94374928Y-3426994D01*
X94154448Y-3258729D01*
X94139572Y-3248958D01*
X93897584Y-3113438D01*
X93881480Y-3105860D01*
X93622810Y-3005788D01*
X93605799Y-3000554D01*
X93335610Y-2937928D01*
X93318031Y-2935144D01*
X93041713Y-2911212D01*
X93023917Y-2910932D01*
X92746984Y-2926173D01*
X92729327Y-2928404D01*
X92457304Y-2982513D01*
X92440137Y-2987209D01*
X92178452Y-3079106D01*
X92162117Y-3086175D01*
X91915991Y-3214027D01*
X91900816Y-3223326D01*
X91675160Y-3384582D01*
X91661446Y-3395927D01*
X91460762Y-3587370D01*
X91448784Y-3600534D01*
X91277077Y-3818343D01*
X91267073Y-3833064D01*
X91127769Y-4072894D01*
X91119939Y-4088877D01*
X91015817Y-4345943D01*
X91010317Y-4362869D01*
X90943454Y-4632041D01*
X90940394Y-4649575D01*
X90912125Y-4925483D01*
X90911566Y-4943272D01*
X634000Y-4943272D01*
X634000Y-634000D01*
X185366000Y-634000D01*
X185366000Y-107366000D01*
G37*
%TD.AperFunction*%
%TD*%
M02*
