%TF.GenerationSoftware,KiCad,Pcbnew,5.99.0-unknown-f19440f72~106~ubuntu20.04.1*%
%TF.CreationDate,2020-11-23T17:24:37-06:00*%
%TF.ProjectId,FlatAntPanel4x4,466c6174-416e-4745-9061-6e656c347834,rev?*%
%TF.SameCoordinates,Original*%
%TF.FileFunction,Soldermask,Bot*%
%TF.FilePolarity,Negative*%
%FSLAX46Y46*%
G04 Gerber Fmt 4.6, Leading zero omitted, Abs format (unit mm)*
G04 Created by KiCad (PCBNEW 5.99.0-unknown-f19440f72~106~ubuntu20.04.1) date 2020-11-23 17:24:37*
%MOMM*%
%LPD*%
G01*
G04 APERTURE LIST*
%ADD10C,2.500000*%
%ADD11C,0.000100*%
%ADD12C,5.000000*%
%ADD13C,2.900000*%
G04 APERTURE END LIST*
D10*
%TO.C,AF1*%
X103958695Y-33572347D02*
G75*
G03*
X103948400Y-26202762I-1419607J3682817D01*
G01*
D11*
X103023400Y-24628850D02*
X103218400Y-24667600D01*
X103218400Y-24667600D02*
X103378400Y-24697600D01*
X103378400Y-24697600D02*
X103578400Y-24747600D01*
X103578400Y-24747600D02*
X103908400Y-24857600D01*
X103908400Y-24857600D02*
X104288400Y-24997600D01*
X104288400Y-24997600D02*
X102698400Y-24957600D01*
X102698400Y-24957600D02*
X102698400Y-24607600D01*
X102698400Y-24607600D02*
X102828400Y-24607600D01*
X102828400Y-24607600D02*
X103023400Y-24628850D01*
G36*
X103023400Y-24628850D02*
G01*
X103218400Y-24667600D01*
X103378400Y-24697600D01*
X103578400Y-24747600D01*
X103908400Y-24857600D01*
X104288400Y-24997600D01*
X102698400Y-24957600D01*
X102698400Y-24607600D01*
X102828400Y-24607600D01*
X103023400Y-24628850D01*
G37*
X103023400Y-24628850D02*
X103218400Y-24667600D01*
X103378400Y-24697600D01*
X103578400Y-24747600D01*
X103908400Y-24857600D01*
X104288400Y-24997600D01*
X102698400Y-24957600D01*
X102698400Y-24607600D01*
X102828400Y-24607600D01*
X103023400Y-24628850D01*
X105448400Y-29427600D02*
X102698400Y-29427600D01*
X102698400Y-29427600D02*
X102698400Y-24947600D01*
X102698400Y-24947600D02*
X103988400Y-24947600D01*
X103988400Y-24947600D02*
X105448400Y-29427600D01*
G36*
X105448400Y-29427600D02*
G01*
X102698400Y-29427600D01*
X102698400Y-24947600D01*
X103988400Y-24947600D01*
X105448400Y-29427600D01*
G37*
X105448400Y-29427600D02*
X102698400Y-29427600D01*
X102698400Y-24947600D01*
X103988400Y-24947600D01*
X105448400Y-29427600D01*
X104168400Y-34807600D02*
X102698400Y-35027600D01*
X102698400Y-35027600D02*
X102698400Y-30532515D01*
X102698400Y-30532515D02*
X105198400Y-30527600D01*
X105198400Y-30527600D02*
X104168400Y-34807600D01*
G36*
X104168400Y-34807600D02*
G01*
X102698400Y-35027600D01*
X102698400Y-30532515D01*
X105198400Y-30527600D01*
X104168400Y-34807600D01*
G37*
X104168400Y-34807600D02*
X102698400Y-35027600D01*
X102698400Y-30532515D01*
X105198400Y-30527600D01*
X104168400Y-34807600D01*
X105268400Y-30537600D02*
X103238400Y-30537600D01*
X103238400Y-30537600D02*
X103238400Y-29427600D01*
X103238400Y-29427600D02*
X105268400Y-29427600D01*
X105268400Y-29427600D02*
X105268400Y-30537600D01*
G36*
X105268400Y-30537600D02*
G01*
X103238400Y-30537600D01*
X103238400Y-29427600D01*
X105268400Y-29427600D01*
X105268400Y-30537600D01*
G37*
X105268400Y-30537600D02*
X103238400Y-30537600D01*
X103238400Y-29427600D01*
X105268400Y-29427600D01*
X105268400Y-30537600D01*
X103308400Y-30547600D02*
X102718400Y-30547600D01*
X102718400Y-30547600D02*
X102808400Y-30527600D01*
X102808400Y-30527600D02*
X102918400Y-30487600D01*
X102918400Y-30487600D02*
X103018400Y-30437600D01*
X103018400Y-30437600D02*
X103108400Y-30367600D01*
X103108400Y-30367600D02*
X103168400Y-30297600D01*
X103168400Y-30297600D02*
X103235900Y-30161350D01*
X103235900Y-30161350D02*
X103247150Y-29938225D01*
X103247150Y-29938225D02*
X103209650Y-29796975D01*
X103209650Y-29796975D02*
X103158400Y-29707600D01*
X103158400Y-29707600D02*
X103108400Y-29637600D01*
X103108400Y-29637600D02*
X103048400Y-29567600D01*
X103048400Y-29567600D02*
X102978400Y-29507600D01*
X102978400Y-29507600D02*
X102908400Y-29467600D01*
X102908400Y-29467600D02*
X102808400Y-29427600D01*
X102808400Y-29427600D02*
X103308400Y-29427600D01*
X103308400Y-29427600D02*
X103308400Y-30547600D01*
G36*
X103308400Y-30547600D02*
G01*
X102718400Y-30547600D01*
X102808400Y-30527600D01*
X102918400Y-30487600D01*
X103018400Y-30437600D01*
X103108400Y-30367600D01*
X103168400Y-30297600D01*
X103235900Y-30161350D01*
X103247150Y-29938225D01*
X103209650Y-29796975D01*
X103158400Y-29707600D01*
X103108400Y-29637600D01*
X103048400Y-29567600D01*
X102978400Y-29507600D01*
X102908400Y-29467600D01*
X102808400Y-29427600D01*
X103308400Y-29427600D01*
X103308400Y-30547600D01*
G37*
X103308400Y-30547600D02*
X102718400Y-30547600D01*
X102808400Y-30527600D01*
X102918400Y-30487600D01*
X103018400Y-30437600D01*
X103108400Y-30367600D01*
X103168400Y-30297600D01*
X103235900Y-30161350D01*
X103247150Y-29938225D01*
X103209650Y-29796975D01*
X103158400Y-29707600D01*
X103108400Y-29637600D01*
X103048400Y-29567600D01*
X102978400Y-29507600D01*
X102908400Y-29467600D01*
X102808400Y-29427600D01*
X103308400Y-29427600D01*
X103308400Y-30547600D01*
X103958400Y-34867600D02*
X103788400Y-34907600D01*
X103788400Y-34907600D02*
X103588400Y-34947600D01*
X103588400Y-34947600D02*
X103338400Y-34987600D01*
X103338400Y-34987600D02*
X103148400Y-35007600D01*
X103148400Y-35007600D02*
X102998400Y-35017600D01*
X102998400Y-35017600D02*
X102788400Y-35027600D01*
X102788400Y-35027600D02*
X102698400Y-35027600D01*
X102698400Y-35027600D02*
X104168400Y-34807600D01*
X104168400Y-34807600D02*
X103958400Y-34867600D01*
G36*
X103958400Y-34867600D02*
G01*
X103788400Y-34907600D01*
X103588400Y-34947600D01*
X103338400Y-34987600D01*
X103148400Y-35007600D01*
X102998400Y-35017600D01*
X102788400Y-35027600D01*
X102698400Y-35027600D01*
X104168400Y-34807600D01*
X103958400Y-34867600D01*
G37*
X103958400Y-34867600D02*
X103788400Y-34907600D01*
X103588400Y-34947600D01*
X103338400Y-34987600D01*
X103148400Y-35007600D01*
X102998400Y-35017600D01*
X102788400Y-35027600D01*
X102698400Y-35027600D01*
X104168400Y-34807600D01*
X103958400Y-34867600D01*
%TD*%
D12*
%TO.C,H12*%
X170000000Y-113000000D03*
D13*
X170000000Y-113000000D03*
%TD*%
%TO.C,H4*%
X174000000Y-208000000D03*
D12*
X174000000Y-208000000D03*
%TD*%
%TO.C,H2*%
X174000000Y-18000000D03*
D13*
X174000000Y-18000000D03*
%TD*%
D12*
%TO.C,H3*%
X12000000Y-208000000D03*
D13*
X12000000Y-208000000D03*
%TD*%
%TO.C,H1*%
X12000000Y-18000000D03*
D12*
X12000000Y-18000000D03*
%TD*%
D13*
%TO.C,H11*%
X16000000Y-113000000D03*
D12*
X16000000Y-113000000D03*
%TD*%
M02*
