%TF.GenerationSoftware,KiCad,Pcbnew,5.99.0-unknown-c07a38b91~106~ubuntu20.04.1*%
%TF.CreationDate,2020-11-24T10:54:45-06:00*%
%TF.ProjectId,FlatAntPanel4x4,466c6174-416e-4745-9061-6e656c347834,rev?*%
%TF.SameCoordinates,Original*%
%TF.FileFunction,Legend,Top*%
%TF.FilePolarity,Positive*%
%FSLAX46Y46*%
G04 Gerber Fmt 4.6, Leading zero omitted, Abs format (unit mm)*
G04 Created by KiCad (PCBNEW 5.99.0-unknown-c07a38b91~106~ubuntu20.04.1) date 2020-11-24 10:54:45*
%MOMM*%
%LPD*%
G01*
G04 APERTURE LIST*
%ADD10C,0.300000*%
G04 APERTURE END LIST*
D10*
X178471071Y-191447857D02*
X176971071Y-191447857D01*
X176971071Y-190876428D01*
X177042500Y-190733571D01*
X177113928Y-190662142D01*
X177256785Y-190590714D01*
X177471071Y-190590714D01*
X177613928Y-190662142D01*
X177685357Y-190733571D01*
X177756785Y-190876428D01*
X177756785Y-191447857D01*
X178471071Y-189305000D02*
X177685357Y-189305000D01*
X177542500Y-189376428D01*
X177471071Y-189519285D01*
X177471071Y-189805000D01*
X177542500Y-189947857D01*
X178399642Y-189305000D02*
X178471071Y-189447857D01*
X178471071Y-189805000D01*
X178399642Y-189947857D01*
X178256785Y-190019285D01*
X178113928Y-190019285D01*
X177971071Y-189947857D01*
X177899642Y-189805000D01*
X177899642Y-189447857D01*
X177828214Y-189305000D01*
X177471071Y-188590714D02*
X178471071Y-188590714D01*
X177613928Y-188590714D02*
X177542500Y-188519285D01*
X177471071Y-188376428D01*
X177471071Y-188162142D01*
X177542500Y-188019285D01*
X177685357Y-187947857D01*
X178471071Y-187947857D01*
X178399642Y-186662142D02*
X178471071Y-186805000D01*
X178471071Y-187090714D01*
X178399642Y-187233571D01*
X178256785Y-187305000D01*
X177685357Y-187305000D01*
X177542500Y-187233571D01*
X177471071Y-187090714D01*
X177471071Y-186805000D01*
X177542500Y-186662142D01*
X177685357Y-186590714D01*
X177828214Y-186590714D01*
X177971071Y-187305000D01*
X178471071Y-185733571D02*
X178399642Y-185876428D01*
X178256785Y-185947857D01*
X176971071Y-185947857D01*
X178042500Y-184090714D02*
X178042500Y-183376428D01*
X178471071Y-184233571D02*
X176971071Y-183733571D01*
X178471071Y-183233571D01*
X177471071Y-182733571D02*
X178471071Y-182733571D01*
X177613928Y-182733571D02*
X177542500Y-182662142D01*
X177471071Y-182519285D01*
X177471071Y-182305000D01*
X177542500Y-182162142D01*
X177685357Y-182090714D01*
X178471071Y-182090714D01*
X177471071Y-181590714D02*
X177471071Y-181019285D01*
X176971071Y-181376428D02*
X178256785Y-181376428D01*
X178399642Y-181305000D01*
X178471071Y-181162142D01*
X178471071Y-181019285D01*
X178399642Y-179947857D02*
X178471071Y-180090714D01*
X178471071Y-180376428D01*
X178399642Y-180519285D01*
X178256785Y-180590714D01*
X177685357Y-180590714D01*
X177542500Y-180519285D01*
X177471071Y-180376428D01*
X177471071Y-180090714D01*
X177542500Y-179947857D01*
X177685357Y-179876428D01*
X177828214Y-179876428D01*
X177971071Y-180590714D01*
X177471071Y-179233571D02*
X178471071Y-179233571D01*
X177613928Y-179233571D02*
X177542500Y-179162142D01*
X177471071Y-179019285D01*
X177471071Y-178805000D01*
X177542500Y-178662142D01*
X177685357Y-178590714D01*
X178471071Y-178590714D01*
X177471071Y-177876428D02*
X178471071Y-177876428D01*
X177613928Y-177876428D02*
X177542500Y-177805000D01*
X177471071Y-177662142D01*
X177471071Y-177447857D01*
X177542500Y-177305000D01*
X177685357Y-177233571D01*
X178471071Y-177233571D01*
X178471071Y-175876428D02*
X177685357Y-175876428D01*
X177542500Y-175947857D01*
X177471071Y-176090714D01*
X177471071Y-176376428D01*
X177542500Y-176519285D01*
X178399642Y-175876428D02*
X178471071Y-176019285D01*
X178471071Y-176376428D01*
X178399642Y-176519285D01*
X178256785Y-176590714D01*
X178113928Y-176590714D01*
X177971071Y-176519285D01*
X177899642Y-176376428D01*
X177899642Y-176019285D01*
X177828214Y-175876428D01*
X177471071Y-173376428D02*
X178471071Y-173376428D01*
X176899642Y-173733571D02*
X177971071Y-174090714D01*
X177971071Y-173162142D01*
X178471071Y-172733571D02*
X177471071Y-171947857D01*
X177471071Y-172733571D02*
X178471071Y-171947857D01*
X177471071Y-170733571D02*
X178471071Y-170733571D01*
X176899642Y-171090714D02*
X177971071Y-171447857D01*
X177971071Y-170519285D01*
X180743214Y-190590714D02*
X180814642Y-190662142D01*
X180886071Y-190876428D01*
X180886071Y-191019285D01*
X180814642Y-191233571D01*
X180671785Y-191376428D01*
X180528928Y-191447857D01*
X180243214Y-191519285D01*
X180028928Y-191519285D01*
X179743214Y-191447857D01*
X179600357Y-191376428D01*
X179457500Y-191233571D01*
X179386071Y-191019285D01*
X179386071Y-190876428D01*
X179457500Y-190662142D01*
X179528928Y-190590714D01*
X180886071Y-189733571D02*
X180814642Y-189876428D01*
X180743214Y-189947857D01*
X180600357Y-190019285D01*
X180171785Y-190019285D01*
X180028928Y-189947857D01*
X179957500Y-189876428D01*
X179886071Y-189733571D01*
X179886071Y-189519285D01*
X179957500Y-189376428D01*
X180028928Y-189305000D01*
X180171785Y-189233571D01*
X180600357Y-189233571D01*
X180743214Y-189305000D01*
X180814642Y-189376428D01*
X180886071Y-189519285D01*
X180886071Y-189733571D01*
X179886071Y-188590714D02*
X181386071Y-188590714D01*
X179957500Y-188590714D02*
X179886071Y-188447857D01*
X179886071Y-188162142D01*
X179957500Y-188019285D01*
X180028928Y-187947857D01*
X180171785Y-187876428D01*
X180600357Y-187876428D01*
X180743214Y-187947857D01*
X180814642Y-188019285D01*
X180886071Y-188162142D01*
X180886071Y-188447857D01*
X180814642Y-188590714D01*
X179886071Y-187376428D02*
X180886071Y-187019285D01*
X179886071Y-186662142D02*
X180886071Y-187019285D01*
X181243214Y-187162142D01*
X181314642Y-187233571D01*
X181386071Y-187376428D01*
X180886071Y-186090714D02*
X179886071Y-186090714D01*
X180171785Y-186090714D02*
X180028928Y-186019285D01*
X179957500Y-185947857D01*
X179886071Y-185805000D01*
X179886071Y-185662142D01*
X180886071Y-185162142D02*
X179886071Y-185162142D01*
X179386071Y-185162142D02*
X179457500Y-185233571D01*
X179528928Y-185162142D01*
X179457500Y-185090714D01*
X179386071Y-185162142D01*
X179528928Y-185162142D01*
X179886071Y-183805000D02*
X181100357Y-183805000D01*
X181243214Y-183876428D01*
X181314642Y-183947857D01*
X181386071Y-184090714D01*
X181386071Y-184305000D01*
X181314642Y-184447857D01*
X180814642Y-183805000D02*
X180886071Y-183947857D01*
X180886071Y-184233571D01*
X180814642Y-184376428D01*
X180743214Y-184447857D01*
X180600357Y-184519285D01*
X180171785Y-184519285D01*
X180028928Y-184447857D01*
X179957500Y-184376428D01*
X179886071Y-184233571D01*
X179886071Y-183947857D01*
X179957500Y-183805000D01*
X180886071Y-183090714D02*
X179386071Y-183090714D01*
X180886071Y-182447857D02*
X180100357Y-182447857D01*
X179957500Y-182519285D01*
X179886071Y-182662142D01*
X179886071Y-182876428D01*
X179957500Y-183019285D01*
X180028928Y-183090714D01*
X179886071Y-181947857D02*
X179886071Y-181376428D01*
X179386071Y-181733571D02*
X180671785Y-181733571D01*
X180814642Y-181662142D01*
X180886071Y-181519285D01*
X180886071Y-181376428D01*
X179528928Y-179805000D02*
X179457500Y-179733571D01*
X179386071Y-179590714D01*
X179386071Y-179233571D01*
X179457500Y-179090714D01*
X179528928Y-179019285D01*
X179671785Y-178947857D01*
X179814642Y-178947857D01*
X180028928Y-179019285D01*
X180886071Y-179876428D01*
X180886071Y-178947857D01*
X179386071Y-178019285D02*
X179386071Y-177876428D01*
X179457500Y-177733571D01*
X179528928Y-177662142D01*
X179671785Y-177590714D01*
X179957500Y-177519285D01*
X180314642Y-177519285D01*
X180600357Y-177590714D01*
X180743214Y-177662142D01*
X180814642Y-177733571D01*
X180886071Y-177876428D01*
X180886071Y-178019285D01*
X180814642Y-178162142D01*
X180743214Y-178233571D01*
X180600357Y-178305000D01*
X180314642Y-178376428D01*
X179957500Y-178376428D01*
X179671785Y-178305000D01*
X179528928Y-178233571D01*
X179457500Y-178162142D01*
X179386071Y-178019285D01*
X179528928Y-176947857D02*
X179457500Y-176876428D01*
X179386071Y-176733571D01*
X179386071Y-176376428D01*
X179457500Y-176233571D01*
X179528928Y-176162142D01*
X179671785Y-176090714D01*
X179814642Y-176090714D01*
X180028928Y-176162142D01*
X180886071Y-177019285D01*
X180886071Y-176090714D01*
X179386071Y-175162142D02*
X179386071Y-175019285D01*
X179457500Y-174876428D01*
X179528928Y-174805000D01*
X179671785Y-174733571D01*
X179957500Y-174662142D01*
X180314642Y-174662142D01*
X180600357Y-174733571D01*
X180743214Y-174805000D01*
X180814642Y-174876428D01*
X180886071Y-175019285D01*
X180886071Y-175162142D01*
X180814642Y-175305000D01*
X180743214Y-175376428D01*
X180600357Y-175447857D01*
X180314642Y-175519285D01*
X179957500Y-175519285D01*
X179671785Y-175447857D01*
X179528928Y-175376428D01*
X179457500Y-175305000D01*
X179386071Y-175162142D01*
X180886071Y-172876428D02*
X179386071Y-172876428D01*
X180814642Y-172233571D02*
X180886071Y-172019285D01*
X180886071Y-171662142D01*
X180814642Y-171519285D01*
X180743214Y-171447857D01*
X180600357Y-171376428D01*
X180457500Y-171376428D01*
X180314642Y-171447857D01*
X180243214Y-171519285D01*
X180171785Y-171662142D01*
X180100357Y-171947857D01*
X180028928Y-172090714D01*
X179957500Y-172162142D01*
X179814642Y-172233571D01*
X179671785Y-172233571D01*
X179528928Y-172162142D01*
X179457500Y-172090714D01*
X179386071Y-171947857D01*
X179386071Y-171590714D01*
X179457500Y-171376428D01*
X180886071Y-170733571D02*
X179886071Y-170733571D01*
X179386071Y-170733571D02*
X179457500Y-170805000D01*
X179528928Y-170733571D01*
X179457500Y-170662142D01*
X179386071Y-170733571D01*
X179528928Y-170733571D01*
X180814642Y-170090714D02*
X180886071Y-169947857D01*
X180886071Y-169662142D01*
X180814642Y-169519285D01*
X180671785Y-169447857D01*
X180600357Y-169447857D01*
X180457500Y-169519285D01*
X180386071Y-169662142D01*
X180386071Y-169876428D01*
X180314642Y-170019285D01*
X180171785Y-170090714D01*
X180100357Y-170090714D01*
X179957500Y-170019285D01*
X179886071Y-169876428D01*
X179886071Y-169662142D01*
X179957500Y-169519285D01*
X180886071Y-167662142D02*
X179386071Y-167662142D01*
X180886071Y-166947857D02*
X179886071Y-166947857D01*
X180028928Y-166947857D02*
X179957500Y-166876428D01*
X179886071Y-166733571D01*
X179886071Y-166519285D01*
X179957500Y-166376428D01*
X180100357Y-166305000D01*
X180886071Y-166305000D01*
X180100357Y-166305000D02*
X179957500Y-166233571D01*
X179886071Y-166090714D01*
X179886071Y-165876428D01*
X179957500Y-165733571D01*
X180100357Y-165662142D01*
X180886071Y-165662142D01*
X180886071Y-164305000D02*
X180100357Y-164305000D01*
X179957500Y-164376428D01*
X179886071Y-164519285D01*
X179886071Y-164805000D01*
X179957500Y-164947857D01*
X180814642Y-164305000D02*
X180886071Y-164447857D01*
X180886071Y-164805000D01*
X180814642Y-164947857D01*
X180671785Y-165019285D01*
X180528928Y-165019285D01*
X180386071Y-164947857D01*
X180314642Y-164805000D01*
X180314642Y-164447857D01*
X180243214Y-164305000D01*
X179886071Y-162947857D02*
X181100357Y-162947857D01*
X181243214Y-163019285D01*
X181314642Y-163090714D01*
X181386071Y-163233571D01*
X181386071Y-163447857D01*
X181314642Y-163590714D01*
X180814642Y-162947857D02*
X180886071Y-163090714D01*
X180886071Y-163376428D01*
X180814642Y-163519285D01*
X180743214Y-163590714D01*
X180600357Y-163662142D01*
X180171785Y-163662142D01*
X180028928Y-163590714D01*
X179957500Y-163519285D01*
X179886071Y-163376428D01*
X179886071Y-163090714D01*
X179957500Y-162947857D01*
X180814642Y-161662142D02*
X180886071Y-161805000D01*
X180886071Y-162090714D01*
X180814642Y-162233571D01*
X180671785Y-162305000D01*
X180100357Y-162305000D01*
X179957500Y-162233571D01*
X179886071Y-162090714D01*
X179886071Y-161805000D01*
X179957500Y-161662142D01*
X180100357Y-161590714D01*
X180243214Y-161590714D01*
X180386071Y-162305000D01*
X180814642Y-161019285D02*
X180886071Y-160805000D01*
X180886071Y-160447857D01*
X180814642Y-160305000D01*
X180743214Y-160233571D01*
X180600357Y-160162142D01*
X180457500Y-160162142D01*
X180314642Y-160233571D01*
X180243214Y-160305000D01*
X180171785Y-160447857D01*
X180100357Y-160733571D01*
X180028928Y-160876428D01*
X179957500Y-160947857D01*
X179814642Y-161019285D01*
X179671785Y-161019285D01*
X179528928Y-160947857D01*
X179457500Y-160876428D01*
X179386071Y-160733571D01*
X179386071Y-160376428D01*
X179457500Y-160162142D01*
X179886071Y-159733571D02*
X179886071Y-159162142D01*
X179386071Y-159519285D02*
X180671785Y-159519285D01*
X180814642Y-159447857D01*
X180886071Y-159305000D01*
X180886071Y-159162142D01*
X180886071Y-158662142D02*
X179886071Y-158662142D01*
X180171785Y-158662142D02*
X180028928Y-158590714D01*
X179957500Y-158519285D01*
X179886071Y-158376428D01*
X179886071Y-158233571D01*
X180814642Y-157162142D02*
X180886071Y-157305000D01*
X180886071Y-157590714D01*
X180814642Y-157733571D01*
X180671785Y-157805000D01*
X180100357Y-157805000D01*
X179957500Y-157733571D01*
X179886071Y-157590714D01*
X179886071Y-157305000D01*
X179957500Y-157162142D01*
X180100357Y-157090714D01*
X180243214Y-157090714D01*
X180386071Y-157805000D01*
X180886071Y-155805000D02*
X180100357Y-155805000D01*
X179957500Y-155876428D01*
X179886071Y-156019285D01*
X179886071Y-156305000D01*
X179957500Y-156447857D01*
X180814642Y-155805000D02*
X180886071Y-155947857D01*
X180886071Y-156305000D01*
X180814642Y-156447857D01*
X180671785Y-156519285D01*
X180528928Y-156519285D01*
X180386071Y-156447857D01*
X180314642Y-156305000D01*
X180314642Y-155947857D01*
X180243214Y-155805000D01*
X180886071Y-155090714D02*
X179886071Y-155090714D01*
X180028928Y-155090714D02*
X179957500Y-155019285D01*
X179886071Y-154876428D01*
X179886071Y-154662142D01*
X179957500Y-154519285D01*
X180100357Y-154447857D01*
X180886071Y-154447857D01*
X180100357Y-154447857D02*
X179957500Y-154376428D01*
X179886071Y-154233571D01*
X179886071Y-154019285D01*
X179957500Y-153876428D01*
X180100357Y-153805000D01*
X180886071Y-153805000D01*
X180886071Y-151947857D02*
X179386071Y-151947857D01*
X179886071Y-151233571D02*
X180886071Y-151233571D01*
X180028928Y-151233571D02*
X179957500Y-151162142D01*
X179886071Y-151019285D01*
X179886071Y-150805000D01*
X179957500Y-150662142D01*
X180100357Y-150590714D01*
X180886071Y-150590714D01*
X179886071Y-150090714D02*
X179886071Y-149519285D01*
X179386071Y-149876428D02*
X180671785Y-149876428D01*
X180814642Y-149805000D01*
X180886071Y-149662142D01*
X180886071Y-149519285D01*
X180814642Y-148447857D02*
X180886071Y-148590714D01*
X180886071Y-148876428D01*
X180814642Y-149019285D01*
X180671785Y-149090714D01*
X180100357Y-149090714D01*
X179957500Y-149019285D01*
X179886071Y-148876428D01*
X179886071Y-148590714D01*
X179957500Y-148447857D01*
X180100357Y-148376428D01*
X180243214Y-148376428D01*
X180386071Y-149090714D01*
X180886071Y-147733571D02*
X179886071Y-147733571D01*
X180171785Y-147733571D02*
X180028928Y-147662142D01*
X179957500Y-147590714D01*
X179886071Y-147447857D01*
X179886071Y-147305000D01*
X179886071Y-146805000D02*
X180886071Y-146805000D01*
X180028928Y-146805000D02*
X179957500Y-146733571D01*
X179886071Y-146590714D01*
X179886071Y-146376428D01*
X179957500Y-146233571D01*
X180100357Y-146162142D01*
X180886071Y-146162142D01*
X180814642Y-144876428D02*
X180886071Y-145019285D01*
X180886071Y-145305000D01*
X180814642Y-145447857D01*
X180671785Y-145519285D01*
X180100357Y-145519285D01*
X179957500Y-145447857D01*
X179886071Y-145305000D01*
X179886071Y-145019285D01*
X179957500Y-144876428D01*
X180100357Y-144805000D01*
X180243214Y-144805000D01*
X180386071Y-145519285D01*
X179886071Y-144376428D02*
X179886071Y-143805000D01*
X179386071Y-144162142D02*
X180671785Y-144162142D01*
X180814642Y-144090714D01*
X180886071Y-143947857D01*
X180886071Y-143805000D01*
X180814642Y-142233571D02*
X180886071Y-142019285D01*
X180886071Y-141662142D01*
X180814642Y-141519285D01*
X180743214Y-141447857D01*
X180600357Y-141376428D01*
X180457500Y-141376428D01*
X180314642Y-141447857D01*
X180243214Y-141519285D01*
X180171785Y-141662142D01*
X180100357Y-141947857D01*
X180028928Y-142090714D01*
X179957500Y-142162142D01*
X179814642Y-142233571D01*
X179671785Y-142233571D01*
X179528928Y-142162142D01*
X179457500Y-142090714D01*
X179386071Y-141947857D01*
X179386071Y-141590714D01*
X179457500Y-141376428D01*
X180886071Y-140519285D02*
X180814642Y-140662142D01*
X180743214Y-140733571D01*
X180600357Y-140805000D01*
X180171785Y-140805000D01*
X180028928Y-140733571D01*
X179957500Y-140662142D01*
X179886071Y-140519285D01*
X179886071Y-140305000D01*
X179957500Y-140162142D01*
X180028928Y-140090714D01*
X180171785Y-140019285D01*
X180600357Y-140019285D01*
X180743214Y-140090714D01*
X180814642Y-140162142D01*
X180886071Y-140305000D01*
X180886071Y-140519285D01*
X180886071Y-139162142D02*
X180814642Y-139305000D01*
X180671785Y-139376428D01*
X179386071Y-139376428D01*
X179886071Y-137947857D02*
X180886071Y-137947857D01*
X179886071Y-138590714D02*
X180671785Y-138590714D01*
X180814642Y-138519285D01*
X180886071Y-138376428D01*
X180886071Y-138162142D01*
X180814642Y-138019285D01*
X180743214Y-137947857D01*
X179886071Y-137447857D02*
X179886071Y-136876428D01*
X179386071Y-137233571D02*
X180671785Y-137233571D01*
X180814642Y-137162142D01*
X180886071Y-137019285D01*
X180886071Y-136876428D01*
X180886071Y-136376428D02*
X179886071Y-136376428D01*
X179386071Y-136376428D02*
X179457500Y-136447857D01*
X179528928Y-136376428D01*
X179457500Y-136305000D01*
X179386071Y-136376428D01*
X179528928Y-136376428D01*
X180886071Y-135447857D02*
X180814642Y-135590714D01*
X180743214Y-135662142D01*
X180600357Y-135733571D01*
X180171785Y-135733571D01*
X180028928Y-135662142D01*
X179957500Y-135590714D01*
X179886071Y-135447857D01*
X179886071Y-135233571D01*
X179957500Y-135090714D01*
X180028928Y-135019285D01*
X180171785Y-134947857D01*
X180600357Y-134947857D01*
X180743214Y-135019285D01*
X180814642Y-135090714D01*
X180886071Y-135233571D01*
X180886071Y-135447857D01*
X179886071Y-134305000D02*
X180886071Y-134305000D01*
X180028928Y-134305000D02*
X179957500Y-134233571D01*
X179886071Y-134090714D01*
X179886071Y-133876428D01*
X179957500Y-133733571D01*
X180100357Y-133662142D01*
X180886071Y-133662142D01*
X180814642Y-133019285D02*
X180886071Y-132876428D01*
X180886071Y-132590714D01*
X180814642Y-132447857D01*
X180671785Y-132376428D01*
X180600357Y-132376428D01*
X180457500Y-132447857D01*
X180386071Y-132590714D01*
X180386071Y-132805000D01*
X180314642Y-132947857D01*
X180171785Y-133019285D01*
X180100357Y-133019285D01*
X179957500Y-132947857D01*
X179886071Y-132805000D01*
X179886071Y-132590714D01*
X179957500Y-132447857D01*
X180814642Y-131662142D02*
X180886071Y-131662142D01*
X181028928Y-131733571D01*
X181100357Y-131805000D01*
X180886071Y-129876428D02*
X179386071Y-129876428D01*
X179886071Y-129162142D02*
X180886071Y-129162142D01*
X180028928Y-129162142D02*
X179957500Y-129090714D01*
X179886071Y-128947857D01*
X179886071Y-128733571D01*
X179957500Y-128590714D01*
X180100357Y-128519285D01*
X180886071Y-128519285D01*
X180814642Y-127162142D02*
X180886071Y-127305000D01*
X180886071Y-127590714D01*
X180814642Y-127733571D01*
X180743214Y-127805000D01*
X180600357Y-127876428D01*
X180171785Y-127876428D01*
X180028928Y-127805000D01*
X179957500Y-127733571D01*
X179886071Y-127590714D01*
X179886071Y-127305000D01*
X179957500Y-127162142D01*
X180743214Y-126519285D02*
X180814642Y-126447857D01*
X180886071Y-126519285D01*
X180814642Y-126590714D01*
X180743214Y-126519285D01*
X180886071Y-126519285D01*
M02*
