%TF.GenerationSoftware,KiCad,Pcbnew,5.99.0-unknown-f19440f72~106~ubuntu20.04.1*%
%TF.CreationDate,2020-11-23T17:24:36-06:00*%
%TF.ProjectId,FlatAntPanel4x4,466c6174-416e-4745-9061-6e656c347834,rev?*%
%TF.SameCoordinates,Original*%
%TF.FileFunction,Copper,L1,Top*%
%TF.FilePolarity,Positive*%
%FSLAX46Y46*%
G04 Gerber Fmt 4.6, Leading zero omitted, Abs format (unit mm)*
G04 Created by KiCad (PCBNEW 5.99.0-unknown-f19440f72~106~ubuntu20.04.1) date 2020-11-23 17:24:36*
%MOMM*%
%LPD*%
G01*
G04 APERTURE LIST*
%TA.AperFunction,NonConductor*%
%ADD10C,0.100000*%
%TD*%
%TA.AperFunction,EtchedComponent*%
%ADD11C,0.000100*%
%TD*%
%TA.AperFunction,EtchedComponent*%
%ADD12C,0.001000*%
%TD*%
%TA.AperFunction,EtchedComponent*%
%ADD13C,0.010000*%
%TD*%
%TA.AperFunction,SMDPad,CuDef*%
%ADD14R,1.476000X1.400000*%
%TD*%
%TA.AperFunction,SMDPad,CuDef*%
%ADD15R,1.476000X1.476000*%
%TD*%
%TA.AperFunction,SMDPad,CuDef*%
%ADD16R,0.180000X0.313000*%
%TD*%
%TA.AperFunction,SMDPad,CuDef*%
%ADD17R,0.313000X0.313000*%
%TD*%
%TA.AperFunction,ConnectorPad*%
%ADD18C,5.000000*%
%TD*%
%TA.AperFunction,ComponentPad*%
%ADD19C,2.900000*%
%TD*%
%TA.AperFunction,WasherPad*%
%ADD20C,1.524000*%
%TD*%
%TA.AperFunction,Conductor*%
%ADD21C,0.313000*%
%TD*%
%TA.AperFunction,Conductor*%
%ADD22C,0.500000*%
%TD*%
%TA.AperFunction,Conductor*%
%ADD23C,0.312953*%
%TD*%
G04 APERTURE END LIST*
D10*
X134835169Y-87311034D02*
X132835169Y-87311034D01*
X132835169Y-87311034D02*
X132835169Y-80750846D01*
X132835169Y-80750846D02*
X134835169Y-80750846D01*
X134835169Y-80750846D02*
X134835169Y-87311034D01*
G36*
X134835169Y-87311034D02*
G01*
X132835169Y-87311034D01*
X132835169Y-80750846D01*
X134835169Y-80750846D01*
X134835169Y-87311034D01*
G37*
X134835169Y-87311034D02*
X132835169Y-87311034D01*
X132835169Y-80750846D01*
X134835169Y-80750846D01*
X134835169Y-87311034D01*
X76825171Y-203298467D02*
X74825171Y-203298467D01*
X74825171Y-203298467D02*
X74825171Y-196750844D01*
X74825171Y-196750844D02*
X76825171Y-196750844D01*
X76825171Y-196750844D02*
X76825171Y-203298467D01*
G36*
X76825171Y-203298467D02*
G01*
X74825171Y-203298467D01*
X74825171Y-196750844D01*
X76825171Y-196750844D01*
X76825171Y-203298467D01*
G37*
X76825171Y-203298467D02*
X74825171Y-203298467D01*
X74825171Y-196750844D01*
X76825171Y-196750844D01*
X76825171Y-203298467D01*
X132789998Y-85100000D02*
X126834827Y-85100000D01*
X126834827Y-85100000D02*
X126834827Y-83100000D01*
X126834827Y-83100000D02*
X132789998Y-83100000D01*
X132789998Y-83100000D02*
X132789998Y-85100000D01*
G36*
X132789998Y-85100000D02*
G01*
X126834827Y-85100000D01*
X126834827Y-83100000D01*
X132789998Y-83100000D01*
X132789998Y-85100000D01*
G37*
X132789998Y-85100000D02*
X126834827Y-85100000D01*
X126834827Y-83100000D01*
X132789998Y-83100000D01*
X132789998Y-85100000D01*
X134835169Y-145311034D02*
X132835169Y-145311034D01*
X132835169Y-145311034D02*
X132835169Y-138750846D01*
X132835169Y-138750846D02*
X134835169Y-138750846D01*
X134835169Y-138750846D02*
X134835169Y-145311034D01*
G36*
X134835169Y-145311034D02*
G01*
X132835169Y-145311034D01*
X132835169Y-138750846D01*
X134835169Y-138750846D01*
X134835169Y-145311034D01*
G37*
X134835169Y-145311034D02*
X132835169Y-145311034D01*
X132835169Y-138750846D01*
X134835169Y-138750846D01*
X134835169Y-145311034D01*
X76825171Y-87298467D02*
X74825171Y-87298467D01*
X74825171Y-87298467D02*
X74825171Y-80750844D01*
X74825171Y-80750844D02*
X76825171Y-80750844D01*
X76825171Y-80750844D02*
X76825171Y-87298467D01*
G36*
X76825171Y-87298467D02*
G01*
X74825171Y-87298467D01*
X74825171Y-80750844D01*
X76825171Y-80750844D01*
X76825171Y-87298467D01*
G37*
X76825171Y-87298467D02*
X74825171Y-87298467D01*
X74825171Y-80750844D01*
X76825171Y-80750844D01*
X76825171Y-87298467D01*
X358351171Y-39542000D02*
X352396000Y-39542000D01*
X352396000Y-39542000D02*
X352396000Y-37542000D01*
X352396000Y-37542000D02*
X358351171Y-37542000D01*
X358351171Y-37542000D02*
X358351171Y-39542000D01*
G36*
X358351171Y-39542000D02*
G01*
X352396000Y-39542000D01*
X352396000Y-37542000D01*
X358351171Y-37542000D01*
X358351171Y-39542000D01*
G37*
X358351171Y-39542000D02*
X352396000Y-39542000D01*
X352396000Y-37542000D01*
X358351171Y-37542000D01*
X358351171Y-39542000D01*
X82825171Y-85000000D02*
X76870000Y-85000000D01*
X76870000Y-85000000D02*
X76870000Y-83000000D01*
X76870000Y-83000000D02*
X82825171Y-83000000D01*
X82825171Y-83000000D02*
X82825171Y-85000000D01*
G36*
X82825171Y-85000000D02*
G01*
X76870000Y-85000000D01*
X76870000Y-83000000D01*
X82825171Y-83000000D01*
X82825171Y-85000000D01*
G37*
X82825171Y-85000000D02*
X76870000Y-85000000D01*
X76870000Y-83000000D01*
X82825171Y-83000000D01*
X82825171Y-85000000D01*
X352351171Y-41840467D02*
X350351171Y-41840467D01*
X350351171Y-41840467D02*
X350351171Y-35292844D01*
X350351171Y-35292844D02*
X352351171Y-35292844D01*
X352351171Y-35292844D02*
X352351171Y-41840467D01*
G36*
X352351171Y-41840467D02*
G01*
X350351171Y-41840467D01*
X350351171Y-35292844D01*
X352351171Y-35292844D01*
X352351171Y-41840467D01*
G37*
X352351171Y-41840467D02*
X350351171Y-41840467D01*
X350351171Y-35292844D01*
X352351171Y-35292844D01*
X352351171Y-41840467D01*
X408315998Y-39642000D02*
X402360827Y-39642000D01*
X402360827Y-39642000D02*
X402360827Y-37642000D01*
X402360827Y-37642000D02*
X408315998Y-37642000D01*
X408315998Y-37642000D02*
X408315998Y-39642000D01*
G36*
X408315998Y-39642000D02*
G01*
X402360827Y-39642000D01*
X402360827Y-37642000D01*
X408315998Y-37642000D01*
X408315998Y-39642000D01*
G37*
X408315998Y-39642000D02*
X402360827Y-39642000D01*
X402360827Y-37642000D01*
X408315998Y-37642000D01*
X408315998Y-39642000D01*
X132789998Y-143100000D02*
X126834827Y-143100000D01*
X126834827Y-143100000D02*
X126834827Y-141100000D01*
X126834827Y-141100000D02*
X132789998Y-141100000D01*
X132789998Y-141100000D02*
X132789998Y-143100000D01*
G36*
X132789998Y-143100000D02*
G01*
X126834827Y-143100000D01*
X126834827Y-141100000D01*
X132789998Y-141100000D01*
X132789998Y-143100000D01*
G37*
X132789998Y-143100000D02*
X126834827Y-143100000D01*
X126834827Y-141100000D01*
X132789998Y-141100000D01*
X132789998Y-143100000D01*
X82825171Y-143000000D02*
X76870000Y-143000000D01*
X76870000Y-143000000D02*
X76870000Y-141000000D01*
X76870000Y-141000000D02*
X82825171Y-141000000D01*
X82825171Y-141000000D02*
X82825171Y-143000000D01*
G36*
X82825171Y-143000000D02*
G01*
X76870000Y-143000000D01*
X76870000Y-141000000D01*
X82825171Y-141000000D01*
X82825171Y-143000000D01*
G37*
X82825171Y-143000000D02*
X76870000Y-143000000D01*
X76870000Y-141000000D01*
X82825171Y-141000000D01*
X82825171Y-143000000D01*
X132789998Y-201100000D02*
X126834827Y-201100000D01*
X126834827Y-201100000D02*
X126834827Y-199100000D01*
X126834827Y-199100000D02*
X132789998Y-199100000D01*
X132789998Y-199100000D02*
X132789998Y-201100000D01*
G36*
X132789998Y-201100000D02*
G01*
X126834827Y-201100000D01*
X126834827Y-199100000D01*
X132789998Y-199100000D01*
X132789998Y-201100000D01*
G37*
X132789998Y-201100000D02*
X126834827Y-201100000D01*
X126834827Y-199100000D01*
X132789998Y-199100000D01*
X132789998Y-201100000D01*
X134835169Y-203311034D02*
X132835169Y-203311034D01*
X132835169Y-203311034D02*
X132835169Y-196750846D01*
X132835169Y-196750846D02*
X134835169Y-196750846D01*
X134835169Y-196750846D02*
X134835169Y-203311034D01*
G36*
X134835169Y-203311034D02*
G01*
X132835169Y-203311034D01*
X132835169Y-196750846D01*
X134835169Y-196750846D01*
X134835169Y-203311034D01*
G37*
X134835169Y-203311034D02*
X132835169Y-203311034D01*
X132835169Y-196750846D01*
X134835169Y-196750846D01*
X134835169Y-203311034D01*
X82825171Y-201000000D02*
X76870000Y-201000000D01*
X76870000Y-201000000D02*
X76870000Y-199000000D01*
X76870000Y-199000000D02*
X82825171Y-199000000D01*
X82825171Y-199000000D02*
X82825171Y-201000000D01*
G36*
X82825171Y-201000000D02*
G01*
X76870000Y-201000000D01*
X76870000Y-199000000D01*
X82825171Y-199000000D01*
X82825171Y-201000000D01*
G37*
X82825171Y-201000000D02*
X76870000Y-201000000D01*
X76870000Y-199000000D01*
X82825171Y-199000000D01*
X82825171Y-201000000D01*
X76825171Y-145298467D02*
X74825171Y-145298467D01*
X74825171Y-145298467D02*
X74825171Y-138750844D01*
X74825171Y-138750844D02*
X76825171Y-138750844D01*
X76825171Y-138750844D02*
X76825171Y-145298467D01*
G36*
X76825171Y-145298467D02*
G01*
X74825171Y-145298467D01*
X74825171Y-138750844D01*
X76825171Y-138750844D01*
X76825171Y-145298467D01*
G37*
X76825171Y-145298467D02*
X74825171Y-145298467D01*
X74825171Y-138750844D01*
X76825171Y-138750844D01*
X76825171Y-145298467D01*
X410361169Y-41853034D02*
X408361169Y-41853034D01*
X408361169Y-41853034D02*
X408361169Y-35292846D01*
X408361169Y-35292846D02*
X410361169Y-35292846D01*
X410361169Y-35292846D02*
X410361169Y-41853034D01*
G36*
X410361169Y-41853034D02*
G01*
X408361169Y-41853034D01*
X408361169Y-35292846D01*
X410361169Y-35292846D01*
X410361169Y-41853034D01*
G37*
X410361169Y-41853034D02*
X408361169Y-41853034D01*
X408361169Y-35292846D01*
X410361169Y-35292846D01*
X410361169Y-41853034D01*
D11*
%TO.C,NT2*%
X72958413Y-30731000D02*
X73697000Y-29992000D01*
X73697000Y-29992000D02*
X72958413Y-29253000D01*
X72958413Y-29253000D02*
X72958413Y-27849707D01*
X72958413Y-27849707D02*
X74435829Y-27849707D01*
X74435829Y-27849707D02*
X74435829Y-32134360D01*
X74435829Y-32134360D02*
X72958413Y-32134360D01*
X72958413Y-32134360D02*
X72958413Y-30731000D01*
G36*
X74435829Y-32134360D02*
G01*
X72958413Y-32134360D01*
X72958413Y-30731000D01*
X73697000Y-29992000D01*
X72958413Y-29253000D01*
X72958413Y-27849707D01*
X74435829Y-27849707D01*
X74435829Y-32134360D01*
G37*
X74435829Y-32134360D02*
X72958413Y-32134360D01*
X72958413Y-30731000D01*
X73697000Y-29992000D01*
X72958413Y-29253000D01*
X72958413Y-27849707D01*
X74435829Y-27849707D01*
X74435829Y-32134360D01*
X74435000Y-29258721D02*
X78719008Y-29258718D01*
X78719008Y-29258718D02*
X78719008Y-30736421D01*
X78719008Y-30736421D02*
X74435000Y-30736424D01*
X74435000Y-30736424D02*
X74435000Y-29258721D01*
G36*
X78719008Y-30736421D02*
G01*
X74435000Y-30736424D01*
X74435000Y-29258721D01*
X78719008Y-29258718D01*
X78719008Y-30736421D01*
G37*
X78719008Y-30736421D02*
X74435000Y-30736424D01*
X74435000Y-29258721D01*
X78719008Y-29258718D01*
X78719008Y-30736421D01*
D12*
%TO.C,AE8*%
X82045000Y-44230996D02*
X82045000Y-44743111D01*
X82045000Y-44743111D02*
X85445000Y-44743111D01*
X85445000Y-44743111D02*
X85445000Y-52737000D01*
X85445000Y-52737000D02*
X72945000Y-52737000D01*
X72945000Y-52737000D02*
X72945000Y-36237000D01*
X72945000Y-36237000D02*
X85445000Y-36237000D01*
X85445000Y-36237000D02*
X85445000Y-44230996D01*
X85445000Y-44230996D02*
X82045000Y-44230996D01*
G36*
X85445000Y-44230996D02*
G01*
X82045000Y-44230996D01*
X82045000Y-44743111D01*
X85445000Y-44743111D01*
X85445000Y-52737000D01*
X72945000Y-52737000D01*
X72945000Y-36237000D01*
X85445000Y-36237000D01*
X85445000Y-44230996D01*
G37*
X85445000Y-44230996D02*
X82045000Y-44230996D01*
X82045000Y-44743111D01*
X85445000Y-44743111D01*
X85445000Y-52737000D01*
X72945000Y-52737000D01*
X72945000Y-36237000D01*
X85445000Y-36237000D01*
X85445000Y-44230996D01*
D11*
X82045000Y-44643500D02*
X82045000Y-44330500D01*
X82045000Y-44330500D02*
X87005000Y-44330500D01*
X87005000Y-44330500D02*
X87005000Y-44643500D01*
X87005000Y-44643500D02*
X82045000Y-44643500D01*
G36*
X87005000Y-44643500D02*
G01*
X82045000Y-44643500D01*
X82045000Y-44330500D01*
X87005000Y-44330500D01*
X87005000Y-44643500D01*
G37*
X87005000Y-44643500D02*
X82045000Y-44643500D01*
X82045000Y-44330500D01*
X87005000Y-44330500D01*
X87005000Y-44643500D01*
D12*
%TO.C,AE7*%
X53045000Y-44230996D02*
X53045000Y-44743111D01*
X53045000Y-44743111D02*
X56445000Y-44743111D01*
X56445000Y-44743111D02*
X56445000Y-52737000D01*
X56445000Y-52737000D02*
X43945000Y-52737000D01*
X43945000Y-52737000D02*
X43945000Y-36237000D01*
X43945000Y-36237000D02*
X56445000Y-36237000D01*
X56445000Y-36237000D02*
X56445000Y-44230996D01*
X56445000Y-44230996D02*
X53045000Y-44230996D01*
G36*
X56445000Y-44230996D02*
G01*
X53045000Y-44230996D01*
X53045000Y-44743111D01*
X56445000Y-44743111D01*
X56445000Y-52737000D01*
X43945000Y-52737000D01*
X43945000Y-36237000D01*
X56445000Y-36237000D01*
X56445000Y-44230996D01*
G37*
X56445000Y-44230996D02*
X53045000Y-44230996D01*
X53045000Y-44743111D01*
X56445000Y-44743111D01*
X56445000Y-52737000D01*
X43945000Y-52737000D01*
X43945000Y-36237000D01*
X56445000Y-36237000D01*
X56445000Y-44230996D01*
D11*
X53045000Y-44643500D02*
X53045000Y-44330500D01*
X53045000Y-44330500D02*
X58005000Y-44330500D01*
X58005000Y-44330500D02*
X58005000Y-44643500D01*
X58005000Y-44643500D02*
X53045000Y-44643500D01*
G36*
X58005000Y-44643500D02*
G01*
X53045000Y-44643500D01*
X53045000Y-44330500D01*
X58005000Y-44330500D01*
X58005000Y-44643500D01*
G37*
X58005000Y-44643500D02*
X53045000Y-44643500D01*
X53045000Y-44330500D01*
X58005000Y-44330500D01*
X58005000Y-44643500D01*
D12*
%TO.C,AE6*%
X82045000Y-15230996D02*
X82045000Y-15743111D01*
X82045000Y-15743111D02*
X85445000Y-15743111D01*
X85445000Y-15743111D02*
X85445000Y-23737000D01*
X85445000Y-23737000D02*
X72945000Y-23737000D01*
X72945000Y-23737000D02*
X72945000Y-7237000D01*
X72945000Y-7237000D02*
X85445000Y-7237000D01*
X85445000Y-7237000D02*
X85445000Y-15230996D01*
X85445000Y-15230996D02*
X82045000Y-15230996D01*
G36*
X85445000Y-15230996D02*
G01*
X82045000Y-15230996D01*
X82045000Y-15743111D01*
X85445000Y-15743111D01*
X85445000Y-23737000D01*
X72945000Y-23737000D01*
X72945000Y-7237000D01*
X85445000Y-7237000D01*
X85445000Y-15230996D01*
G37*
X85445000Y-15230996D02*
X82045000Y-15230996D01*
X82045000Y-15743111D01*
X85445000Y-15743111D01*
X85445000Y-23737000D01*
X72945000Y-23737000D01*
X72945000Y-7237000D01*
X85445000Y-7237000D01*
X85445000Y-15230996D01*
D11*
X82045000Y-15643500D02*
X82045000Y-15330500D01*
X82045000Y-15330500D02*
X87005000Y-15330500D01*
X87005000Y-15330500D02*
X87005000Y-15643500D01*
X87005000Y-15643500D02*
X82045000Y-15643500D01*
G36*
X87005000Y-15643500D02*
G01*
X82045000Y-15643500D01*
X82045000Y-15330500D01*
X87005000Y-15330500D01*
X87005000Y-15643500D01*
G37*
X87005000Y-15643500D02*
X82045000Y-15643500D01*
X82045000Y-15330500D01*
X87005000Y-15330500D01*
X87005000Y-15643500D01*
D12*
%TO.C,AE5*%
X53045000Y-15230996D02*
X53045000Y-15743111D01*
X53045000Y-15743111D02*
X56445000Y-15743111D01*
X56445000Y-15743111D02*
X56445000Y-23737000D01*
X56445000Y-23737000D02*
X43945000Y-23737000D01*
X43945000Y-23737000D02*
X43945000Y-7237000D01*
X43945000Y-7237000D02*
X56445000Y-7237000D01*
X56445000Y-7237000D02*
X56445000Y-15230996D01*
X56445000Y-15230996D02*
X53045000Y-15230996D01*
G36*
X56445000Y-15230996D02*
G01*
X53045000Y-15230996D01*
X53045000Y-15743111D01*
X56445000Y-15743111D01*
X56445000Y-23737000D01*
X43945000Y-23737000D01*
X43945000Y-7237000D01*
X56445000Y-7237000D01*
X56445000Y-15230996D01*
G37*
X56445000Y-15230996D02*
X53045000Y-15230996D01*
X53045000Y-15743111D01*
X56445000Y-15743111D01*
X56445000Y-23737000D01*
X43945000Y-23737000D01*
X43945000Y-7237000D01*
X56445000Y-7237000D01*
X56445000Y-15230996D01*
D11*
X53045000Y-15643500D02*
X53045000Y-15330500D01*
X53045000Y-15330500D02*
X58005000Y-15330500D01*
X58005000Y-15330500D02*
X58005000Y-15643500D01*
X58005000Y-15643500D02*
X53045000Y-15643500D01*
G36*
X58005000Y-15643500D02*
G01*
X53045000Y-15643500D01*
X53045000Y-15330500D01*
X58005000Y-15330500D01*
X58005000Y-15643500D01*
G37*
X58005000Y-15643500D02*
X53045000Y-15643500D01*
X53045000Y-15330500D01*
X58005000Y-15330500D01*
X58005000Y-15643500D01*
%TO.C,AA16*%
X88038500Y-44643000D02*
X87725500Y-44643000D01*
X87725500Y-44643000D02*
X87725500Y-44330000D01*
X87725500Y-44330000D02*
X88038500Y-44330000D01*
X88038500Y-44330000D02*
X88038500Y-44017000D01*
X88038500Y-44017000D02*
X88351500Y-44017000D01*
X88351500Y-44017000D02*
X88351500Y-44330000D01*
X88351500Y-44330000D02*
X88038500Y-44643000D01*
G36*
X88351500Y-44330000D02*
G01*
X88038500Y-44643000D01*
X87725500Y-44643000D01*
X87725500Y-44330000D01*
X88038500Y-44330000D01*
X88038500Y-44017000D01*
X88351500Y-44017000D01*
X88351500Y-44330000D01*
G37*
X88351500Y-44330000D02*
X88038500Y-44643000D01*
X87725500Y-44643000D01*
X87725500Y-44330000D01*
X88038500Y-44330000D01*
X88038500Y-44017000D01*
X88351500Y-44017000D01*
X88351500Y-44330000D01*
%TO.C,AA15*%
X88351000Y-32448500D02*
X88351000Y-32761500D01*
X88351000Y-32761500D02*
X88038000Y-32761500D01*
X88038000Y-32761500D02*
X88038000Y-32448500D01*
X88038000Y-32448500D02*
X87725000Y-32448500D01*
X87725000Y-32448500D02*
X87725000Y-32135500D01*
X87725000Y-32135500D02*
X88038000Y-32135500D01*
X88038000Y-32135500D02*
X88351000Y-32448500D01*
G36*
X88351000Y-32448500D02*
G01*
X88351000Y-32761500D01*
X88038000Y-32761500D01*
X88038000Y-32448500D01*
X87725000Y-32448500D01*
X87725000Y-32135500D01*
X88038000Y-32135500D01*
X88351000Y-32448500D01*
G37*
X88351000Y-32448500D02*
X88351000Y-32761500D01*
X88038000Y-32761500D01*
X88038000Y-32448500D01*
X87725000Y-32448500D01*
X87725000Y-32135500D01*
X88038000Y-32135500D01*
X88351000Y-32448500D01*
%TO.C,AA14*%
X59351500Y-32136000D02*
X59664500Y-32136000D01*
X59664500Y-32136000D02*
X59664500Y-32449000D01*
X59664500Y-32449000D02*
X59351500Y-32449000D01*
X59351500Y-32449000D02*
X59351500Y-32762000D01*
X59351500Y-32762000D02*
X59038500Y-32762000D01*
X59038500Y-32762000D02*
X59038500Y-32449000D01*
X59038500Y-32449000D02*
X59351500Y-32136000D01*
G36*
X59664500Y-32449000D02*
G01*
X59351500Y-32449000D01*
X59351500Y-32762000D01*
X59038500Y-32762000D01*
X59038500Y-32449000D01*
X59351500Y-32136000D01*
X59664500Y-32136000D01*
X59664500Y-32449000D01*
G37*
X59664500Y-32449000D02*
X59351500Y-32449000D01*
X59351500Y-32762000D01*
X59038500Y-32762000D01*
X59038500Y-32449000D01*
X59351500Y-32136000D01*
X59664500Y-32136000D01*
X59664500Y-32449000D01*
%TO.C,AA13*%
X59038500Y-44643000D02*
X58725500Y-44643000D01*
X58725500Y-44643000D02*
X58725500Y-44330000D01*
X58725500Y-44330000D02*
X59038500Y-44330000D01*
X59038500Y-44330000D02*
X59038500Y-44017000D01*
X59038500Y-44017000D02*
X59351500Y-44017000D01*
X59351500Y-44017000D02*
X59351500Y-44330000D01*
X59351500Y-44330000D02*
X59038500Y-44643000D01*
G36*
X59351500Y-44330000D02*
G01*
X59038500Y-44643000D01*
X58725500Y-44643000D01*
X58725500Y-44330000D01*
X59038500Y-44330000D01*
X59038500Y-44017000D01*
X59351500Y-44017000D01*
X59351500Y-44330000D01*
G37*
X59351500Y-44330000D02*
X59038500Y-44643000D01*
X58725500Y-44643000D01*
X58725500Y-44330000D01*
X59038500Y-44330000D01*
X59038500Y-44017000D01*
X59351500Y-44017000D01*
X59351500Y-44330000D01*
%TO.C,AA12*%
X88351000Y-15643500D02*
X88351000Y-15956500D01*
X88351000Y-15956500D02*
X88038000Y-15956500D01*
X88038000Y-15956500D02*
X88038000Y-15643500D01*
X88038000Y-15643500D02*
X87725000Y-15643500D01*
X87725000Y-15643500D02*
X87725000Y-15330500D01*
X87725000Y-15330500D02*
X88038000Y-15330500D01*
X88038000Y-15330500D02*
X88351000Y-15643500D01*
G36*
X88351000Y-15643500D02*
G01*
X88351000Y-15956500D01*
X88038000Y-15956500D01*
X88038000Y-15643500D01*
X87725000Y-15643500D01*
X87725000Y-15330500D01*
X88038000Y-15330500D01*
X88351000Y-15643500D01*
G37*
X88351000Y-15643500D02*
X88351000Y-15956500D01*
X88038000Y-15956500D01*
X88038000Y-15643500D01*
X87725000Y-15643500D01*
X87725000Y-15330500D01*
X88038000Y-15330500D01*
X88351000Y-15643500D01*
%TO.C,AA11*%
X88038500Y-27850000D02*
X87725500Y-27850000D01*
X87725500Y-27850000D02*
X87725500Y-27537000D01*
X87725500Y-27537000D02*
X88038500Y-27537000D01*
X88038500Y-27537000D02*
X88038500Y-27224000D01*
X88038500Y-27224000D02*
X88351500Y-27224000D01*
X88351500Y-27224000D02*
X88351500Y-27537000D01*
X88351500Y-27537000D02*
X88038500Y-27850000D01*
G36*
X88351500Y-27537000D02*
G01*
X88038500Y-27850000D01*
X87725500Y-27850000D01*
X87725500Y-27537000D01*
X88038500Y-27537000D01*
X88038500Y-27224000D01*
X88351500Y-27224000D01*
X88351500Y-27537000D01*
G37*
X88351500Y-27537000D02*
X88038500Y-27850000D01*
X87725500Y-27850000D01*
X87725500Y-27537000D01*
X88038500Y-27537000D01*
X88038500Y-27224000D01*
X88351500Y-27224000D01*
X88351500Y-27537000D01*
%TO.C,AA10*%
X59039000Y-27537500D02*
X59039000Y-27224500D01*
X59039000Y-27224500D02*
X59352000Y-27224500D01*
X59352000Y-27224500D02*
X59352000Y-27537500D01*
X59352000Y-27537500D02*
X59665000Y-27537500D01*
X59665000Y-27537500D02*
X59665000Y-27850500D01*
X59665000Y-27850500D02*
X59352000Y-27850500D01*
X59352000Y-27850500D02*
X59039000Y-27537500D01*
G36*
X59352000Y-27537500D02*
G01*
X59665000Y-27537500D01*
X59665000Y-27850500D01*
X59352000Y-27850500D01*
X59039000Y-27537500D01*
X59039000Y-27224500D01*
X59352000Y-27224500D01*
X59352000Y-27537500D01*
G37*
X59352000Y-27537500D02*
X59665000Y-27537500D01*
X59665000Y-27850500D01*
X59352000Y-27850500D01*
X59039000Y-27537500D01*
X59039000Y-27224500D01*
X59352000Y-27224500D01*
X59352000Y-27537500D01*
%TO.C,AA9*%
X59351000Y-15643500D02*
X59351000Y-15956500D01*
X59351000Y-15956500D02*
X59038000Y-15956500D01*
X59038000Y-15956500D02*
X59038000Y-15643500D01*
X59038000Y-15643500D02*
X58725000Y-15643500D01*
X58725000Y-15643500D02*
X58725000Y-15330500D01*
X58725000Y-15330500D02*
X59038000Y-15330500D01*
X59038000Y-15330500D02*
X59351000Y-15643500D01*
G36*
X59351000Y-15643500D02*
G01*
X59351000Y-15956500D01*
X59038000Y-15956500D01*
X59038000Y-15643500D01*
X58725000Y-15643500D01*
X58725000Y-15330500D01*
X59038000Y-15330500D01*
X59351000Y-15643500D01*
G37*
X59351000Y-15643500D02*
X59351000Y-15956500D01*
X59038000Y-15956500D01*
X59038000Y-15643500D01*
X58725000Y-15643500D01*
X58725000Y-15330500D01*
X59038000Y-15330500D01*
X59351000Y-15643500D01*
%TO.C,AA4*%
X146351000Y-15643500D02*
X146351000Y-15956500D01*
X146351000Y-15956500D02*
X146038000Y-15956500D01*
X146038000Y-15956500D02*
X146038000Y-15643500D01*
X146038000Y-15643500D02*
X145725000Y-15643500D01*
X145725000Y-15643500D02*
X145725000Y-15330500D01*
X145725000Y-15330500D02*
X146038000Y-15330500D01*
X146038000Y-15330500D02*
X146351000Y-15643500D01*
G36*
X146351000Y-15643500D02*
G01*
X146351000Y-15956500D01*
X146038000Y-15956500D01*
X146038000Y-15643500D01*
X145725000Y-15643500D01*
X145725000Y-15330500D01*
X146038000Y-15330500D01*
X146351000Y-15643500D01*
G37*
X146351000Y-15643500D02*
X146351000Y-15956500D01*
X146038000Y-15956500D01*
X146038000Y-15643500D01*
X145725000Y-15643500D01*
X145725000Y-15330500D01*
X146038000Y-15330500D01*
X146351000Y-15643500D01*
%TO.C,AA6*%
X117351500Y-32135000D02*
X117664500Y-32135000D01*
X117664500Y-32135000D02*
X117664500Y-32448000D01*
X117664500Y-32448000D02*
X117351500Y-32448000D01*
X117351500Y-32448000D02*
X117351500Y-32761000D01*
X117351500Y-32761000D02*
X117038500Y-32761000D01*
X117038500Y-32761000D02*
X117038500Y-32448000D01*
X117038500Y-32448000D02*
X117351500Y-32135000D01*
G36*
X117664500Y-32448000D02*
G01*
X117351500Y-32448000D01*
X117351500Y-32761000D01*
X117038500Y-32761000D01*
X117038500Y-32448000D01*
X117351500Y-32135000D01*
X117664500Y-32135000D01*
X117664500Y-32448000D01*
G37*
X117664500Y-32448000D02*
X117351500Y-32448000D01*
X117351500Y-32761000D01*
X117038500Y-32761000D01*
X117038500Y-32448000D01*
X117351500Y-32135000D01*
X117664500Y-32135000D01*
X117664500Y-32448000D01*
D13*
%TO.C,REF\u002A\u002A*%
X391276543Y-24767000D02*
X391276543Y-23317000D01*
X391276543Y-23317000D02*
X394076000Y-23317000D01*
X394076000Y-23317000D02*
X394076000Y-24767000D01*
X394076000Y-24767000D02*
X391276543Y-24767000D01*
G36*
X394076000Y-24767000D02*
G01*
X391276543Y-24767000D01*
X391276543Y-23317000D01*
X394076000Y-23317000D01*
X394076000Y-24767000D01*
G37*
X394076000Y-24767000D02*
X391276543Y-24767000D01*
X391276543Y-23317000D01*
X394076000Y-23317000D01*
X394076000Y-24767000D01*
X395525999Y-31534819D02*
X394076000Y-31534819D01*
X394076000Y-31534819D02*
X394076001Y-24762850D01*
X394076001Y-24762850D02*
X395526000Y-24762850D01*
X395526000Y-24762850D02*
X395525999Y-31534819D01*
G36*
X395525999Y-31534819D02*
G01*
X394076000Y-31534819D01*
X394076001Y-24762850D01*
X395526000Y-24762850D01*
X395525999Y-31534819D01*
G37*
X395525999Y-31534819D02*
X394076000Y-31534819D01*
X394076001Y-24762850D01*
X395526000Y-24762850D01*
X395525999Y-31534819D01*
X394076000Y-24762000D02*
X394076000Y-23317000D01*
X394076000Y-23317000D02*
X395526000Y-24762000D01*
X395526000Y-24762000D02*
X394076000Y-24762000D01*
G36*
X395526000Y-24762000D02*
G01*
X394076000Y-24762000D01*
X394076000Y-23317000D01*
X395526000Y-24762000D01*
G37*
X395526000Y-24762000D02*
X394076000Y-24762000D01*
X394076000Y-23317000D01*
X395526000Y-24762000D01*
X374776000Y-32292000D02*
X374776000Y-15792000D01*
X374776000Y-15792000D02*
X391276000Y-15792000D01*
X391276000Y-15792000D02*
X391276000Y-32292000D01*
X391276000Y-32292000D02*
X374776000Y-32292000D01*
G36*
X391276000Y-32292000D02*
G01*
X374776000Y-32292000D01*
X374776000Y-15792000D01*
X391276000Y-15792000D01*
X391276000Y-32292000D01*
G37*
X391276000Y-32292000D02*
X374776000Y-32292000D01*
X374776000Y-15792000D01*
X391276000Y-15792000D01*
X391276000Y-32292000D01*
X147550000Y-186220000D02*
X147550000Y-184775000D01*
X147550000Y-184775000D02*
X149000000Y-186220000D01*
X149000000Y-186220000D02*
X147550000Y-186220000D01*
G36*
X149000000Y-186220000D02*
G01*
X147550000Y-186220000D01*
X147550000Y-184775000D01*
X149000000Y-186220000D01*
G37*
X149000000Y-186220000D02*
X147550000Y-186220000D01*
X147550000Y-184775000D01*
X149000000Y-186220000D01*
X144750543Y-186225000D02*
X144750543Y-184775000D01*
X144750543Y-184775000D02*
X147550000Y-184775000D01*
X147550000Y-184775000D02*
X147550000Y-186225000D01*
X147550000Y-186225000D02*
X144750543Y-186225000D01*
G36*
X147550000Y-186225000D02*
G01*
X144750543Y-186225000D01*
X144750543Y-184775000D01*
X147550000Y-184775000D01*
X147550000Y-186225000D01*
G37*
X147550000Y-186225000D02*
X144750543Y-186225000D01*
X144750543Y-184775000D01*
X147550000Y-184775000D01*
X147550000Y-186225000D01*
X148999999Y-192992819D02*
X147550000Y-192992819D01*
X147550000Y-192992819D02*
X147550001Y-186220850D01*
X147550001Y-186220850D02*
X149000000Y-186220850D01*
X149000000Y-186220850D02*
X148999999Y-192992819D01*
G36*
X148999999Y-192992819D02*
G01*
X147550000Y-192992819D01*
X147550001Y-186220850D01*
X149000000Y-186220850D01*
X148999999Y-192992819D01*
G37*
X148999999Y-192992819D02*
X147550000Y-192992819D01*
X147550001Y-186220850D01*
X149000000Y-186220850D01*
X148999999Y-192992819D01*
X128250000Y-193750000D02*
X128250000Y-177250000D01*
X128250000Y-177250000D02*
X144750000Y-177250000D01*
X144750000Y-177250000D02*
X144750000Y-193750000D01*
X144750000Y-193750000D02*
X128250000Y-193750000D01*
G36*
X144750000Y-193750000D02*
G01*
X128250000Y-193750000D01*
X128250000Y-177250000D01*
X144750000Y-177250000D01*
X144750000Y-193750000D01*
G37*
X144750000Y-193750000D02*
X128250000Y-193750000D01*
X128250000Y-177250000D01*
X144750000Y-177250000D01*
X144750000Y-193750000D01*
X61999999Y-192992819D02*
X60550000Y-192992819D01*
X60550000Y-192992819D02*
X60550001Y-186220850D01*
X60550001Y-186220850D02*
X62000000Y-186220850D01*
X62000000Y-186220850D02*
X61999999Y-192992819D01*
G36*
X61999999Y-192992819D02*
G01*
X60550000Y-192992819D01*
X60550001Y-186220850D01*
X62000000Y-186220850D01*
X61999999Y-192992819D01*
G37*
X61999999Y-192992819D02*
X60550000Y-192992819D01*
X60550001Y-186220850D01*
X62000000Y-186220850D01*
X61999999Y-192992819D01*
X41250000Y-193750000D02*
X41250000Y-177250000D01*
X41250000Y-177250000D02*
X57750000Y-177250000D01*
X57750000Y-177250000D02*
X57750000Y-193750000D01*
X57750000Y-193750000D02*
X41250000Y-193750000D01*
G36*
X57750000Y-193750000D02*
G01*
X41250000Y-193750000D01*
X41250000Y-177250000D01*
X57750000Y-177250000D01*
X57750000Y-193750000D01*
G37*
X57750000Y-193750000D02*
X41250000Y-193750000D01*
X41250000Y-177250000D01*
X57750000Y-177250000D01*
X57750000Y-193750000D01*
X60550000Y-186220000D02*
X60550000Y-184775000D01*
X60550000Y-184775000D02*
X62000000Y-186220000D01*
X62000000Y-186220000D02*
X60550000Y-186220000D01*
G36*
X62000000Y-186220000D02*
G01*
X60550000Y-186220000D01*
X60550000Y-184775000D01*
X62000000Y-186220000D01*
G37*
X62000000Y-186220000D02*
X60550000Y-186220000D01*
X60550000Y-184775000D01*
X62000000Y-186220000D01*
X57750543Y-186225000D02*
X57750543Y-184775000D01*
X57750543Y-184775000D02*
X60550000Y-184775000D01*
X60550000Y-184775000D02*
X60550000Y-186225000D01*
X60550000Y-186225000D02*
X57750543Y-186225000D01*
G36*
X60550000Y-186225000D02*
G01*
X57750543Y-186225000D01*
X57750543Y-184775000D01*
X60550000Y-184775000D01*
X60550000Y-186225000D01*
G37*
X60550000Y-186225000D02*
X57750543Y-186225000D01*
X57750543Y-184775000D01*
X60550000Y-184775000D01*
X60550000Y-186225000D01*
X144750543Y-70225000D02*
X144750543Y-68775000D01*
X144750543Y-68775000D02*
X147550000Y-68775000D01*
X147550000Y-68775000D02*
X147550000Y-70225000D01*
X147550000Y-70225000D02*
X144750543Y-70225000D01*
G36*
X147550000Y-70225000D02*
G01*
X144750543Y-70225000D01*
X144750543Y-68775000D01*
X147550000Y-68775000D01*
X147550000Y-70225000D01*
G37*
X147550000Y-70225000D02*
X144750543Y-70225000D01*
X144750543Y-68775000D01*
X147550000Y-68775000D01*
X147550000Y-70225000D01*
X148999999Y-76992819D02*
X147550000Y-76992819D01*
X147550000Y-76992819D02*
X147550001Y-70220850D01*
X147550001Y-70220850D02*
X149000000Y-70220850D01*
X149000000Y-70220850D02*
X148999999Y-76992819D01*
G36*
X148999999Y-76992819D02*
G01*
X147550000Y-76992819D01*
X147550001Y-70220850D01*
X149000000Y-70220850D01*
X148999999Y-76992819D01*
G37*
X148999999Y-76992819D02*
X147550000Y-76992819D01*
X147550001Y-70220850D01*
X149000000Y-70220850D01*
X148999999Y-76992819D01*
X147550000Y-70220000D02*
X147550000Y-68775000D01*
X147550000Y-68775000D02*
X149000000Y-70220000D01*
X149000000Y-70220000D02*
X147550000Y-70220000D01*
G36*
X149000000Y-70220000D02*
G01*
X147550000Y-70220000D01*
X147550000Y-68775000D01*
X149000000Y-70220000D01*
G37*
X149000000Y-70220000D02*
X147550000Y-70220000D01*
X147550000Y-68775000D01*
X149000000Y-70220000D01*
X128250000Y-77750000D02*
X128250000Y-61250000D01*
X128250000Y-61250000D02*
X144750000Y-61250000D01*
X144750000Y-61250000D02*
X144750000Y-77750000D01*
X144750000Y-77750000D02*
X128250000Y-77750000D01*
G36*
X144750000Y-77750000D02*
G01*
X128250000Y-77750000D01*
X128250000Y-61250000D01*
X144750000Y-61250000D01*
X144750000Y-77750000D01*
G37*
X144750000Y-77750000D02*
X128250000Y-77750000D01*
X128250000Y-61250000D01*
X144750000Y-61250000D01*
X144750000Y-77750000D01*
X89550000Y-213770000D02*
X91000000Y-213770000D01*
X91000000Y-213770000D02*
X89550000Y-215230000D01*
X89550000Y-215230000D02*
X89550000Y-213770000D01*
G36*
X89550000Y-215230000D02*
G01*
X89550000Y-213770000D01*
X91000000Y-213770000D01*
X89550000Y-215230000D01*
G37*
X89550000Y-215230000D02*
X89550000Y-213770000D01*
X91000000Y-213770000D01*
X89550000Y-215230000D01*
X70250000Y-222750000D02*
X70250000Y-206250000D01*
X70250000Y-206250000D02*
X86750000Y-206250000D01*
X86750000Y-206250000D02*
X86750000Y-222750000D01*
X86750000Y-222750000D02*
X70250000Y-222750000D01*
G36*
X86750000Y-222750000D02*
G01*
X70250000Y-222750000D01*
X70250000Y-206250000D01*
X86750000Y-206250000D01*
X86750000Y-222750000D01*
G37*
X86750000Y-222750000D02*
X70250000Y-222750000D01*
X70250000Y-206250000D01*
X86750000Y-206250000D01*
X86750000Y-222750000D01*
X86750543Y-215225000D02*
X86750543Y-213775000D01*
X86750543Y-213775000D02*
X89550000Y-213775000D01*
X89550000Y-213775000D02*
X89550000Y-215230000D01*
X89550000Y-215230000D02*
X86750543Y-215225000D01*
G36*
X89550000Y-215230000D02*
G01*
X86750543Y-215225000D01*
X86750543Y-213775000D01*
X89550000Y-213775000D01*
X89550000Y-215230000D01*
G37*
X89550000Y-215230000D02*
X86750543Y-215225000D01*
X86750543Y-213775000D01*
X89550000Y-213775000D01*
X89550000Y-215230000D01*
X89550003Y-206997181D02*
X91000000Y-206997181D01*
X91000000Y-206997181D02*
X90999997Y-213769150D01*
X90999997Y-213769150D02*
X89550000Y-213769150D01*
X89550000Y-213769150D02*
X89550003Y-206997181D01*
G36*
X90999997Y-213769150D02*
G01*
X89550000Y-213769150D01*
X89550003Y-206997181D01*
X91000000Y-206997181D01*
X90999997Y-213769150D01*
G37*
X90999997Y-213769150D02*
X89550000Y-213769150D01*
X89550003Y-206997181D01*
X91000000Y-206997181D01*
X90999997Y-213769150D01*
D11*
%TO.C,AA1*%
X117351000Y-15643500D02*
X117351000Y-15956500D01*
X117351000Y-15956500D02*
X117038000Y-15956500D01*
X117038000Y-15956500D02*
X117038000Y-15643500D01*
X117038000Y-15643500D02*
X116725000Y-15643500D01*
X116725000Y-15643500D02*
X116725000Y-15330500D01*
X116725000Y-15330500D02*
X117038000Y-15330500D01*
X117038000Y-15330500D02*
X117351000Y-15643500D01*
G36*
X117351000Y-15643500D02*
G01*
X117351000Y-15956500D01*
X117038000Y-15956500D01*
X117038000Y-15643500D01*
X116725000Y-15643500D01*
X116725000Y-15330500D01*
X117038000Y-15330500D01*
X117351000Y-15643500D01*
G37*
X117351000Y-15643500D02*
X117351000Y-15956500D01*
X117038000Y-15956500D01*
X117038000Y-15643500D01*
X116725000Y-15643500D01*
X116725000Y-15330500D01*
X117038000Y-15330500D01*
X117351000Y-15643500D01*
D13*
%TO.C,REF\u002A\u002A*%
X57750543Y-99225000D02*
X57750543Y-97775000D01*
X57750543Y-97775000D02*
X60550000Y-97775000D01*
X60550000Y-97775000D02*
X60550000Y-99230000D01*
X60550000Y-99230000D02*
X57750543Y-99225000D01*
G36*
X60550000Y-99230000D02*
G01*
X57750543Y-99225000D01*
X57750543Y-97775000D01*
X60550000Y-97775000D01*
X60550000Y-99230000D01*
G37*
X60550000Y-99230000D02*
X57750543Y-99225000D01*
X57750543Y-97775000D01*
X60550000Y-97775000D01*
X60550000Y-99230000D01*
X41250000Y-106750000D02*
X41250000Y-90250000D01*
X41250000Y-90250000D02*
X57750000Y-90250000D01*
X57750000Y-90250000D02*
X57750000Y-106750000D01*
X57750000Y-106750000D02*
X41250000Y-106750000D01*
G36*
X57750000Y-106750000D02*
G01*
X41250000Y-106750000D01*
X41250000Y-90250000D01*
X57750000Y-90250000D01*
X57750000Y-106750000D01*
G37*
X57750000Y-106750000D02*
X41250000Y-106750000D01*
X41250000Y-90250000D01*
X57750000Y-90250000D01*
X57750000Y-106750000D01*
X60550000Y-97770000D02*
X62000000Y-97770000D01*
X62000000Y-97770000D02*
X60550000Y-99230000D01*
X60550000Y-99230000D02*
X60550000Y-97770000D01*
G36*
X60550000Y-99230000D02*
G01*
X60550000Y-97770000D01*
X62000000Y-97770000D01*
X60550000Y-99230000D01*
G37*
X60550000Y-99230000D02*
X60550000Y-97770000D01*
X62000000Y-97770000D01*
X60550000Y-99230000D01*
X60550003Y-90997181D02*
X62000000Y-90997181D01*
X62000000Y-90997181D02*
X61999997Y-97769150D01*
X61999997Y-97769150D02*
X60550000Y-97769150D01*
X60550000Y-97769150D02*
X60550003Y-90997181D01*
G36*
X61999997Y-97769150D02*
G01*
X60550000Y-97769150D01*
X60550003Y-90997181D01*
X62000000Y-90997181D01*
X61999997Y-97769150D01*
G37*
X61999997Y-97769150D02*
X60550000Y-97769150D01*
X60550003Y-90997181D01*
X62000000Y-90997181D01*
X61999997Y-97769150D01*
D11*
%TO.C,AE2*%
X140045000Y-15643500D02*
X140045000Y-15330500D01*
X140045000Y-15330500D02*
X145005000Y-15330500D01*
X145005000Y-15330500D02*
X145005000Y-15643500D01*
X145005000Y-15643500D02*
X140045000Y-15643500D01*
G36*
X145005000Y-15643500D02*
G01*
X140045000Y-15643500D01*
X140045000Y-15330500D01*
X145005000Y-15330500D01*
X145005000Y-15643500D01*
G37*
X145005000Y-15643500D02*
X140045000Y-15643500D01*
X140045000Y-15330500D01*
X145005000Y-15330500D01*
X145005000Y-15643500D01*
D12*
X140045000Y-15230996D02*
X140045000Y-15743111D01*
X140045000Y-15743111D02*
X143445000Y-15743111D01*
X143445000Y-15743111D02*
X143445000Y-23737000D01*
X143445000Y-23737000D02*
X130945000Y-23737000D01*
X130945000Y-23737000D02*
X130945000Y-7237000D01*
X130945000Y-7237000D02*
X143445000Y-7237000D01*
X143445000Y-7237000D02*
X143445000Y-15230996D01*
X143445000Y-15230996D02*
X140045000Y-15230996D01*
G36*
X143445000Y-15230996D02*
G01*
X140045000Y-15230996D01*
X140045000Y-15743111D01*
X143445000Y-15743111D01*
X143445000Y-23737000D01*
X130945000Y-23737000D01*
X130945000Y-7237000D01*
X143445000Y-7237000D01*
X143445000Y-15230996D01*
G37*
X143445000Y-15230996D02*
X140045000Y-15230996D01*
X140045000Y-15743111D01*
X143445000Y-15743111D01*
X143445000Y-23737000D01*
X130945000Y-23737000D01*
X130945000Y-7237000D01*
X143445000Y-7237000D01*
X143445000Y-15230996D01*
D13*
%TO.C,REF\u002A\u002A*%
X147550003Y-90997181D02*
X149000000Y-90997181D01*
X149000000Y-90997181D02*
X148999997Y-97769150D01*
X148999997Y-97769150D02*
X147550000Y-97769150D01*
X147550000Y-97769150D02*
X147550003Y-90997181D01*
G36*
X148999997Y-97769150D02*
G01*
X147550000Y-97769150D01*
X147550003Y-90997181D01*
X149000000Y-90997181D01*
X148999997Y-97769150D01*
G37*
X148999997Y-97769150D02*
X147550000Y-97769150D01*
X147550003Y-90997181D01*
X149000000Y-90997181D01*
X148999997Y-97769150D01*
X147550000Y-97770000D02*
X149000000Y-97770000D01*
X149000000Y-97770000D02*
X147550000Y-99230000D01*
X147550000Y-99230000D02*
X147550000Y-97770000D01*
G36*
X147550000Y-99230000D02*
G01*
X147550000Y-97770000D01*
X149000000Y-97770000D01*
X147550000Y-99230000D01*
G37*
X147550000Y-99230000D02*
X147550000Y-97770000D01*
X149000000Y-97770000D01*
X147550000Y-99230000D01*
X128250000Y-106750000D02*
X128250000Y-90250000D01*
X128250000Y-90250000D02*
X144750000Y-90250000D01*
X144750000Y-90250000D02*
X144750000Y-106750000D01*
X144750000Y-106750000D02*
X128250000Y-106750000D01*
G36*
X144750000Y-106750000D02*
G01*
X128250000Y-106750000D01*
X128250000Y-90250000D01*
X144750000Y-90250000D01*
X144750000Y-106750000D01*
G37*
X144750000Y-106750000D02*
X128250000Y-106750000D01*
X128250000Y-90250000D01*
X144750000Y-90250000D01*
X144750000Y-106750000D01*
X144750543Y-99225000D02*
X144750543Y-97775000D01*
X144750543Y-97775000D02*
X147550000Y-97775000D01*
X147550000Y-97775000D02*
X147550000Y-99230000D01*
X147550000Y-99230000D02*
X144750543Y-99225000D01*
G36*
X147550000Y-99230000D02*
G01*
X144750543Y-99225000D01*
X144750543Y-97775000D01*
X147550000Y-97775000D01*
X147550000Y-99230000D01*
G37*
X147550000Y-99230000D02*
X144750543Y-99225000D01*
X144750543Y-97775000D01*
X147550000Y-97775000D01*
X147550000Y-99230000D01*
X423076000Y-24762000D02*
X423076000Y-23317000D01*
X423076000Y-23317000D02*
X424526000Y-24762000D01*
X424526000Y-24762000D02*
X423076000Y-24762000D01*
G36*
X424526000Y-24762000D02*
G01*
X423076000Y-24762000D01*
X423076000Y-23317000D01*
X424526000Y-24762000D01*
G37*
X424526000Y-24762000D02*
X423076000Y-24762000D01*
X423076000Y-23317000D01*
X424526000Y-24762000D01*
X403776000Y-32292000D02*
X403776000Y-15792000D01*
X403776000Y-15792000D02*
X420276000Y-15792000D01*
X420276000Y-15792000D02*
X420276000Y-32292000D01*
X420276000Y-32292000D02*
X403776000Y-32292000D01*
G36*
X420276000Y-32292000D02*
G01*
X403776000Y-32292000D01*
X403776000Y-15792000D01*
X420276000Y-15792000D01*
X420276000Y-32292000D01*
G37*
X420276000Y-32292000D02*
X403776000Y-32292000D01*
X403776000Y-15792000D01*
X420276000Y-15792000D01*
X420276000Y-32292000D01*
X420276543Y-24767000D02*
X420276543Y-23317000D01*
X420276543Y-23317000D02*
X423076000Y-23317000D01*
X423076000Y-23317000D02*
X423076000Y-24767000D01*
X423076000Y-24767000D02*
X420276543Y-24767000D01*
G36*
X423076000Y-24767000D02*
G01*
X420276543Y-24767000D01*
X420276543Y-23317000D01*
X423076000Y-23317000D01*
X423076000Y-24767000D01*
G37*
X423076000Y-24767000D02*
X420276543Y-24767000D01*
X420276543Y-23317000D01*
X423076000Y-23317000D01*
X423076000Y-24767000D01*
X424525999Y-31534819D02*
X423076000Y-31534819D01*
X423076000Y-31534819D02*
X423076001Y-24762850D01*
X423076001Y-24762850D02*
X424526000Y-24762850D01*
X424526000Y-24762850D02*
X424525999Y-31534819D01*
G36*
X424525999Y-31534819D02*
G01*
X423076000Y-31534819D01*
X423076001Y-24762850D01*
X424526000Y-24762850D01*
X424525999Y-31534819D01*
G37*
X424525999Y-31534819D02*
X423076000Y-31534819D01*
X423076001Y-24762850D01*
X424526000Y-24762850D01*
X424525999Y-31534819D01*
X57750543Y-70225000D02*
X57750543Y-68775000D01*
X57750543Y-68775000D02*
X60550000Y-68775000D01*
X60550000Y-68775000D02*
X60550000Y-70225000D01*
X60550000Y-70225000D02*
X57750543Y-70225000D01*
G36*
X60550000Y-70225000D02*
G01*
X57750543Y-70225000D01*
X57750543Y-68775000D01*
X60550000Y-68775000D01*
X60550000Y-70225000D01*
G37*
X60550000Y-70225000D02*
X57750543Y-70225000D01*
X57750543Y-68775000D01*
X60550000Y-68775000D01*
X60550000Y-70225000D01*
X41250000Y-77750000D02*
X41250000Y-61250000D01*
X41250000Y-61250000D02*
X57750000Y-61250000D01*
X57750000Y-61250000D02*
X57750000Y-77750000D01*
X57750000Y-77750000D02*
X41250000Y-77750000D01*
G36*
X57750000Y-77750000D02*
G01*
X41250000Y-77750000D01*
X41250000Y-61250000D01*
X57750000Y-61250000D01*
X57750000Y-77750000D01*
G37*
X57750000Y-77750000D02*
X41250000Y-77750000D01*
X41250000Y-61250000D01*
X57750000Y-61250000D01*
X57750000Y-77750000D01*
X61999999Y-76992819D02*
X60550000Y-76992819D01*
X60550000Y-76992819D02*
X60550001Y-70220850D01*
X60550001Y-70220850D02*
X62000000Y-70220850D01*
X62000000Y-70220850D02*
X61999999Y-76992819D01*
G36*
X61999999Y-76992819D02*
G01*
X60550000Y-76992819D01*
X60550001Y-70220850D01*
X62000000Y-70220850D01*
X61999999Y-76992819D01*
G37*
X61999999Y-76992819D02*
X60550000Y-76992819D01*
X60550001Y-70220850D01*
X62000000Y-70220850D01*
X61999999Y-76992819D01*
X60550000Y-70220000D02*
X60550000Y-68775000D01*
X60550000Y-68775000D02*
X62000000Y-70220000D01*
X62000000Y-70220000D02*
X60550000Y-70220000D01*
G36*
X62000000Y-70220000D02*
G01*
X60550000Y-70220000D01*
X60550000Y-68775000D01*
X62000000Y-70220000D01*
G37*
X62000000Y-70220000D02*
X60550000Y-70220000D01*
X60550000Y-68775000D01*
X62000000Y-70220000D01*
D12*
%TO.C,AE1*%
X111045000Y-15230996D02*
X111045000Y-15743111D01*
X111045000Y-15743111D02*
X114445000Y-15743111D01*
X114445000Y-15743111D02*
X114445000Y-23737000D01*
X114445000Y-23737000D02*
X101945000Y-23737000D01*
X101945000Y-23737000D02*
X101945000Y-7237000D01*
X101945000Y-7237000D02*
X114445000Y-7237000D01*
X114445000Y-7237000D02*
X114445000Y-15230996D01*
X114445000Y-15230996D02*
X111045000Y-15230996D01*
G36*
X114445000Y-15230996D02*
G01*
X111045000Y-15230996D01*
X111045000Y-15743111D01*
X114445000Y-15743111D01*
X114445000Y-23737000D01*
X101945000Y-23737000D01*
X101945000Y-7237000D01*
X114445000Y-7237000D01*
X114445000Y-15230996D01*
G37*
X114445000Y-15230996D02*
X111045000Y-15230996D01*
X111045000Y-15743111D01*
X114445000Y-15743111D01*
X114445000Y-23737000D01*
X101945000Y-23737000D01*
X101945000Y-7237000D01*
X114445000Y-7237000D01*
X114445000Y-15230996D01*
D11*
X111045000Y-15643500D02*
X111045000Y-15330500D01*
X111045000Y-15330500D02*
X116005000Y-15330500D01*
X116005000Y-15330500D02*
X116005000Y-15643500D01*
X116005000Y-15643500D02*
X111045000Y-15643500D01*
G36*
X116005000Y-15643500D02*
G01*
X111045000Y-15643500D01*
X111045000Y-15330500D01*
X116005000Y-15330500D01*
X116005000Y-15643500D01*
G37*
X116005000Y-15643500D02*
X111045000Y-15643500D01*
X111045000Y-15330500D01*
X116005000Y-15330500D01*
X116005000Y-15643500D01*
%TO.C,AA7*%
X146351000Y-32447500D02*
X146351000Y-32760500D01*
X146351000Y-32760500D02*
X146038000Y-32760500D01*
X146038000Y-32760500D02*
X146038000Y-32447500D01*
X146038000Y-32447500D02*
X145725000Y-32447500D01*
X145725000Y-32447500D02*
X145725000Y-32134500D01*
X145725000Y-32134500D02*
X146038000Y-32134500D01*
X146038000Y-32134500D02*
X146351000Y-32447500D01*
G36*
X146351000Y-32447500D02*
G01*
X146351000Y-32760500D01*
X146038000Y-32760500D01*
X146038000Y-32447500D01*
X145725000Y-32447500D01*
X145725000Y-32134500D01*
X146038000Y-32134500D01*
X146351000Y-32447500D01*
G37*
X146351000Y-32447500D02*
X146351000Y-32760500D01*
X146038000Y-32760500D01*
X146038000Y-32447500D01*
X145725000Y-32447500D01*
X145725000Y-32134500D01*
X146038000Y-32134500D01*
X146351000Y-32447500D01*
D13*
%TO.C,REF\u002A\u002A*%
X336076000Y-52312000D02*
X337526000Y-52312000D01*
X337526000Y-52312000D02*
X336076000Y-53772000D01*
X336076000Y-53772000D02*
X336076000Y-52312000D01*
G36*
X336076000Y-53772000D02*
G01*
X336076000Y-52312000D01*
X337526000Y-52312000D01*
X336076000Y-53772000D01*
G37*
X336076000Y-53772000D02*
X336076000Y-52312000D01*
X337526000Y-52312000D01*
X336076000Y-53772000D01*
X316776000Y-61292000D02*
X316776000Y-44792000D01*
X316776000Y-44792000D02*
X333276000Y-44792000D01*
X333276000Y-44792000D02*
X333276000Y-61292000D01*
X333276000Y-61292000D02*
X316776000Y-61292000D01*
G36*
X333276000Y-61292000D02*
G01*
X316776000Y-61292000D01*
X316776000Y-44792000D01*
X333276000Y-44792000D01*
X333276000Y-61292000D01*
G37*
X333276000Y-61292000D02*
X316776000Y-61292000D01*
X316776000Y-44792000D01*
X333276000Y-44792000D01*
X333276000Y-61292000D01*
X333276543Y-53767000D02*
X333276543Y-52317000D01*
X333276543Y-52317000D02*
X336076000Y-52317000D01*
X336076000Y-52317000D02*
X336076000Y-53772000D01*
X336076000Y-53772000D02*
X333276543Y-53767000D01*
G36*
X336076000Y-53772000D02*
G01*
X333276543Y-53767000D01*
X333276543Y-52317000D01*
X336076000Y-52317000D01*
X336076000Y-53772000D01*
G37*
X336076000Y-53772000D02*
X333276543Y-53767000D01*
X333276543Y-52317000D01*
X336076000Y-52317000D01*
X336076000Y-53772000D01*
X336076003Y-45539181D02*
X337526000Y-45539181D01*
X337526000Y-45539181D02*
X337525997Y-52311150D01*
X337525997Y-52311150D02*
X336076000Y-52311150D01*
X336076000Y-52311150D02*
X336076003Y-45539181D01*
G36*
X337525997Y-52311150D02*
G01*
X336076000Y-52311150D01*
X336076003Y-45539181D01*
X337526000Y-45539181D01*
X337525997Y-52311150D01*
G37*
X337525997Y-52311150D02*
X336076000Y-52311150D01*
X336076003Y-45539181D01*
X337526000Y-45539181D01*
X337525997Y-52311150D01*
X57750543Y-215225000D02*
X57750543Y-213775000D01*
X57750543Y-213775000D02*
X60550000Y-213775000D01*
X60550000Y-213775000D02*
X60550000Y-215230000D01*
X60550000Y-215230000D02*
X57750543Y-215225000D01*
G36*
X60550000Y-215230000D02*
G01*
X57750543Y-215225000D01*
X57750543Y-213775000D01*
X60550000Y-213775000D01*
X60550000Y-215230000D01*
G37*
X60550000Y-215230000D02*
X57750543Y-215225000D01*
X57750543Y-213775000D01*
X60550000Y-213775000D01*
X60550000Y-215230000D01*
X60550003Y-206997181D02*
X62000000Y-206997181D01*
X62000000Y-206997181D02*
X61999997Y-213769150D01*
X61999997Y-213769150D02*
X60550000Y-213769150D01*
X60550000Y-213769150D02*
X60550003Y-206997181D01*
G36*
X61999997Y-213769150D02*
G01*
X60550000Y-213769150D01*
X60550003Y-206997181D01*
X62000000Y-206997181D01*
X61999997Y-213769150D01*
G37*
X61999997Y-213769150D02*
X60550000Y-213769150D01*
X60550003Y-206997181D01*
X62000000Y-206997181D01*
X61999997Y-213769150D01*
X60550000Y-213770000D02*
X62000000Y-213770000D01*
X62000000Y-213770000D02*
X60550000Y-215230000D01*
X60550000Y-215230000D02*
X60550000Y-213770000D01*
G36*
X60550000Y-215230000D02*
G01*
X60550000Y-213770000D01*
X62000000Y-213770000D01*
X60550000Y-215230000D01*
G37*
X60550000Y-215230000D02*
X60550000Y-213770000D01*
X62000000Y-213770000D01*
X60550000Y-215230000D01*
X41250000Y-222750000D02*
X41250000Y-206250000D01*
X41250000Y-206250000D02*
X57750000Y-206250000D01*
X57750000Y-206250000D02*
X57750000Y-222750000D01*
X57750000Y-222750000D02*
X41250000Y-222750000D01*
G36*
X57750000Y-222750000D02*
G01*
X41250000Y-222750000D01*
X41250000Y-206250000D01*
X57750000Y-206250000D01*
X57750000Y-222750000D01*
G37*
X57750000Y-222750000D02*
X41250000Y-222750000D01*
X41250000Y-206250000D01*
X57750000Y-206250000D01*
X57750000Y-222750000D01*
D11*
%TO.C,AA5*%
X117038500Y-44643000D02*
X116725500Y-44643000D01*
X116725500Y-44643000D02*
X116725500Y-44330000D01*
X116725500Y-44330000D02*
X117038500Y-44330000D01*
X117038500Y-44330000D02*
X117038500Y-44017000D01*
X117038500Y-44017000D02*
X117351500Y-44017000D01*
X117351500Y-44017000D02*
X117351500Y-44330000D01*
X117351500Y-44330000D02*
X117038500Y-44643000D01*
G36*
X117351500Y-44330000D02*
G01*
X117038500Y-44643000D01*
X116725500Y-44643000D01*
X116725500Y-44330000D01*
X117038500Y-44330000D01*
X117038500Y-44017000D01*
X117351500Y-44017000D01*
X117351500Y-44330000D01*
G37*
X117351500Y-44330000D02*
X117038500Y-44643000D01*
X116725500Y-44643000D01*
X116725500Y-44330000D01*
X117038500Y-44330000D01*
X117038500Y-44017000D01*
X117351500Y-44017000D01*
X117351500Y-44330000D01*
%TO.C,AA8*%
X146038500Y-44643000D02*
X145725500Y-44643000D01*
X145725500Y-44643000D02*
X145725500Y-44330000D01*
X145725500Y-44330000D02*
X146038500Y-44330000D01*
X146038500Y-44330000D02*
X146038500Y-44017000D01*
X146038500Y-44017000D02*
X146351500Y-44017000D01*
X146351500Y-44017000D02*
X146351500Y-44330000D01*
X146351500Y-44330000D02*
X146038500Y-44643000D01*
G36*
X146351500Y-44330000D02*
G01*
X146038500Y-44643000D01*
X145725500Y-44643000D01*
X145725500Y-44330000D01*
X146038500Y-44330000D01*
X146038500Y-44017000D01*
X146351500Y-44017000D01*
X146351500Y-44330000D01*
G37*
X146351500Y-44330000D02*
X146038500Y-44643000D01*
X145725500Y-44643000D01*
X145725500Y-44330000D01*
X146038500Y-44330000D01*
X146038500Y-44017000D01*
X146351500Y-44017000D01*
X146351500Y-44330000D01*
%TO.C,AA2*%
X117039000Y-27537500D02*
X117039000Y-27224500D01*
X117039000Y-27224500D02*
X117352000Y-27224500D01*
X117352000Y-27224500D02*
X117352000Y-27537500D01*
X117352000Y-27537500D02*
X117665000Y-27537500D01*
X117665000Y-27537500D02*
X117665000Y-27850500D01*
X117665000Y-27850500D02*
X117352000Y-27850500D01*
X117352000Y-27850500D02*
X117039000Y-27537500D01*
G36*
X117352000Y-27537500D02*
G01*
X117665000Y-27537500D01*
X117665000Y-27850500D01*
X117352000Y-27850500D01*
X117039000Y-27537500D01*
X117039000Y-27224500D01*
X117352000Y-27224500D01*
X117352000Y-27537500D01*
G37*
X117352000Y-27537500D02*
X117665000Y-27537500D01*
X117665000Y-27850500D01*
X117352000Y-27850500D01*
X117039000Y-27537500D01*
X117039000Y-27224500D01*
X117352000Y-27224500D01*
X117352000Y-27537500D01*
D13*
%TO.C,REF\u002A\u002A*%
X362276543Y-24767000D02*
X362276543Y-23317000D01*
X362276543Y-23317000D02*
X365076000Y-23317000D01*
X365076000Y-23317000D02*
X365076000Y-24767000D01*
X365076000Y-24767000D02*
X362276543Y-24767000D01*
G36*
X365076000Y-24767000D02*
G01*
X362276543Y-24767000D01*
X362276543Y-23317000D01*
X365076000Y-23317000D01*
X365076000Y-24767000D01*
G37*
X365076000Y-24767000D02*
X362276543Y-24767000D01*
X362276543Y-23317000D01*
X365076000Y-23317000D01*
X365076000Y-24767000D01*
X345776000Y-32292000D02*
X345776000Y-15792000D01*
X345776000Y-15792000D02*
X362276000Y-15792000D01*
X362276000Y-15792000D02*
X362276000Y-32292000D01*
X362276000Y-32292000D02*
X345776000Y-32292000D01*
G36*
X362276000Y-32292000D02*
G01*
X345776000Y-32292000D01*
X345776000Y-15792000D01*
X362276000Y-15792000D01*
X362276000Y-32292000D01*
G37*
X362276000Y-32292000D02*
X345776000Y-32292000D01*
X345776000Y-15792000D01*
X362276000Y-15792000D01*
X362276000Y-32292000D01*
X366525999Y-31534819D02*
X365076000Y-31534819D01*
X365076000Y-31534819D02*
X365076001Y-24762850D01*
X365076001Y-24762850D02*
X366526000Y-24762850D01*
X366526000Y-24762850D02*
X366525999Y-31534819D01*
G36*
X366525999Y-31534819D02*
G01*
X365076000Y-31534819D01*
X365076001Y-24762850D01*
X366526000Y-24762850D01*
X366525999Y-31534819D01*
G37*
X366525999Y-31534819D02*
X365076000Y-31534819D01*
X365076001Y-24762850D01*
X366526000Y-24762850D01*
X366525999Y-31534819D01*
X365076000Y-24762000D02*
X365076000Y-23317000D01*
X365076000Y-23317000D02*
X366526000Y-24762000D01*
X366526000Y-24762000D02*
X365076000Y-24762000D01*
G36*
X366526000Y-24762000D02*
G01*
X365076000Y-24762000D01*
X365076000Y-23317000D01*
X366526000Y-24762000D01*
G37*
X366526000Y-24762000D02*
X365076000Y-24762000D01*
X365076000Y-23317000D01*
X366526000Y-24762000D01*
X128250000Y-164750000D02*
X128250000Y-148250000D01*
X128250000Y-148250000D02*
X144750000Y-148250000D01*
X144750000Y-148250000D02*
X144750000Y-164750000D01*
X144750000Y-164750000D02*
X128250000Y-164750000D01*
G36*
X144750000Y-164750000D02*
G01*
X128250000Y-164750000D01*
X128250000Y-148250000D01*
X144750000Y-148250000D01*
X144750000Y-164750000D01*
G37*
X144750000Y-164750000D02*
X128250000Y-164750000D01*
X128250000Y-148250000D01*
X144750000Y-148250000D01*
X144750000Y-164750000D01*
X147550000Y-155770000D02*
X149000000Y-155770000D01*
X149000000Y-155770000D02*
X147550000Y-157230000D01*
X147550000Y-157230000D02*
X147550000Y-155770000D01*
G36*
X147550000Y-157230000D02*
G01*
X147550000Y-155770000D01*
X149000000Y-155770000D01*
X147550000Y-157230000D01*
G37*
X147550000Y-157230000D02*
X147550000Y-155770000D01*
X149000000Y-155770000D01*
X147550000Y-157230000D01*
X147550003Y-148997181D02*
X149000000Y-148997181D01*
X149000000Y-148997181D02*
X148999997Y-155769150D01*
X148999997Y-155769150D02*
X147550000Y-155769150D01*
X147550000Y-155769150D02*
X147550003Y-148997181D01*
G36*
X148999997Y-155769150D02*
G01*
X147550000Y-155769150D01*
X147550003Y-148997181D01*
X149000000Y-148997181D01*
X148999997Y-155769150D01*
G37*
X148999997Y-155769150D02*
X147550000Y-155769150D01*
X147550003Y-148997181D01*
X149000000Y-148997181D01*
X148999997Y-155769150D01*
X144750543Y-157225000D02*
X144750543Y-155775000D01*
X144750543Y-155775000D02*
X147550000Y-155775000D01*
X147550000Y-155775000D02*
X147550000Y-157230000D01*
X147550000Y-157230000D02*
X144750543Y-157225000D01*
G36*
X147550000Y-157230000D02*
G01*
X144750543Y-157225000D01*
X144750543Y-155775000D01*
X147550000Y-155775000D01*
X147550000Y-157230000D01*
G37*
X147550000Y-157230000D02*
X144750543Y-157225000D01*
X144750543Y-155775000D01*
X147550000Y-155775000D01*
X147550000Y-157230000D01*
X60550000Y-128220000D02*
X60550000Y-126775000D01*
X60550000Y-126775000D02*
X62000000Y-128220000D01*
X62000000Y-128220000D02*
X60550000Y-128220000D01*
G36*
X62000000Y-128220000D02*
G01*
X60550000Y-128220000D01*
X60550000Y-126775000D01*
X62000000Y-128220000D01*
G37*
X62000000Y-128220000D02*
X60550000Y-128220000D01*
X60550000Y-126775000D01*
X62000000Y-128220000D01*
X57750543Y-128225000D02*
X57750543Y-126775000D01*
X57750543Y-126775000D02*
X60550000Y-126775000D01*
X60550000Y-126775000D02*
X60550000Y-128225000D01*
X60550000Y-128225000D02*
X57750543Y-128225000D01*
G36*
X60550000Y-128225000D02*
G01*
X57750543Y-128225000D01*
X57750543Y-126775000D01*
X60550000Y-126775000D01*
X60550000Y-128225000D01*
G37*
X60550000Y-128225000D02*
X57750543Y-128225000D01*
X57750543Y-126775000D01*
X60550000Y-126775000D01*
X60550000Y-128225000D01*
X41250000Y-135750000D02*
X41250000Y-119250000D01*
X41250000Y-119250000D02*
X57750000Y-119250000D01*
X57750000Y-119250000D02*
X57750000Y-135750000D01*
X57750000Y-135750000D02*
X41250000Y-135750000D01*
G36*
X57750000Y-135750000D02*
G01*
X41250000Y-135750000D01*
X41250000Y-119250000D01*
X57750000Y-119250000D01*
X57750000Y-135750000D01*
G37*
X57750000Y-135750000D02*
X41250000Y-135750000D01*
X41250000Y-119250000D01*
X57750000Y-119250000D01*
X57750000Y-135750000D01*
X61999999Y-134992819D02*
X60550000Y-134992819D01*
X60550000Y-134992819D02*
X60550001Y-128220850D01*
X60550001Y-128220850D02*
X62000000Y-128220850D01*
X62000000Y-128220850D02*
X61999999Y-134992819D01*
G36*
X61999999Y-134992819D02*
G01*
X60550000Y-134992819D01*
X60550001Y-128220850D01*
X62000000Y-128220850D01*
X61999999Y-134992819D01*
G37*
X61999999Y-134992819D02*
X60550000Y-134992819D01*
X60550001Y-128220850D01*
X62000000Y-128220850D01*
X61999999Y-134992819D01*
X118550000Y-186220000D02*
X118550000Y-184775000D01*
X118550000Y-184775000D02*
X120000000Y-186220000D01*
X120000000Y-186220000D02*
X118550000Y-186220000D01*
G36*
X120000000Y-186220000D02*
G01*
X118550000Y-186220000D01*
X118550000Y-184775000D01*
X120000000Y-186220000D01*
G37*
X120000000Y-186220000D02*
X118550000Y-186220000D01*
X118550000Y-184775000D01*
X120000000Y-186220000D01*
X115750543Y-186225000D02*
X115750543Y-184775000D01*
X115750543Y-184775000D02*
X118550000Y-184775000D01*
X118550000Y-184775000D02*
X118550000Y-186225000D01*
X118550000Y-186225000D02*
X115750543Y-186225000D01*
G36*
X118550000Y-186225000D02*
G01*
X115750543Y-186225000D01*
X115750543Y-184775000D01*
X118550000Y-184775000D01*
X118550000Y-186225000D01*
G37*
X118550000Y-186225000D02*
X115750543Y-186225000D01*
X115750543Y-184775000D01*
X118550000Y-184775000D01*
X118550000Y-186225000D01*
X119999999Y-192992819D02*
X118550000Y-192992819D01*
X118550000Y-192992819D02*
X118550001Y-186220850D01*
X118550001Y-186220850D02*
X120000000Y-186220850D01*
X120000000Y-186220850D02*
X119999999Y-192992819D01*
G36*
X119999999Y-192992819D02*
G01*
X118550000Y-192992819D01*
X118550001Y-186220850D01*
X120000000Y-186220850D01*
X119999999Y-192992819D01*
G37*
X119999999Y-192992819D02*
X118550000Y-192992819D01*
X118550001Y-186220850D01*
X120000000Y-186220850D01*
X119999999Y-192992819D01*
X99250000Y-193750000D02*
X99250000Y-177250000D01*
X99250000Y-177250000D02*
X115750000Y-177250000D01*
X115750000Y-177250000D02*
X115750000Y-193750000D01*
X115750000Y-193750000D02*
X99250000Y-193750000D01*
G36*
X115750000Y-193750000D02*
G01*
X99250000Y-193750000D01*
X99250000Y-177250000D01*
X115750000Y-177250000D01*
X115750000Y-193750000D01*
G37*
X115750000Y-193750000D02*
X99250000Y-193750000D01*
X99250000Y-177250000D01*
X115750000Y-177250000D01*
X115750000Y-193750000D01*
D12*
%TO.C,AE3*%
X111045000Y-44230996D02*
X111045000Y-44743111D01*
X111045000Y-44743111D02*
X114445000Y-44743111D01*
X114445000Y-44743111D02*
X114445000Y-52737000D01*
X114445000Y-52737000D02*
X101945000Y-52737000D01*
X101945000Y-52737000D02*
X101945000Y-36237000D01*
X101945000Y-36237000D02*
X114445000Y-36237000D01*
X114445000Y-36237000D02*
X114445000Y-44230996D01*
X114445000Y-44230996D02*
X111045000Y-44230996D01*
G36*
X114445000Y-44230996D02*
G01*
X111045000Y-44230996D01*
X111045000Y-44743111D01*
X114445000Y-44743111D01*
X114445000Y-52737000D01*
X101945000Y-52737000D01*
X101945000Y-36237000D01*
X114445000Y-36237000D01*
X114445000Y-44230996D01*
G37*
X114445000Y-44230996D02*
X111045000Y-44230996D01*
X111045000Y-44743111D01*
X114445000Y-44743111D01*
X114445000Y-52737000D01*
X101945000Y-52737000D01*
X101945000Y-36237000D01*
X114445000Y-36237000D01*
X114445000Y-44230996D01*
D11*
X111045000Y-44643500D02*
X111045000Y-44330500D01*
X111045000Y-44330500D02*
X116005000Y-44330500D01*
X116005000Y-44330500D02*
X116005000Y-44643500D01*
X116005000Y-44643500D02*
X111045000Y-44643500D01*
G36*
X116005000Y-44643500D02*
G01*
X111045000Y-44643500D01*
X111045000Y-44330500D01*
X116005000Y-44330500D01*
X116005000Y-44643500D01*
G37*
X116005000Y-44643500D02*
X111045000Y-44643500D01*
X111045000Y-44330500D01*
X116005000Y-44330500D01*
X116005000Y-44643500D01*
D13*
%TO.C,REF\u002A\u002A*%
X115750543Y-70225000D02*
X115750543Y-68775000D01*
X115750543Y-68775000D02*
X118550000Y-68775000D01*
X118550000Y-68775000D02*
X118550000Y-70225000D01*
X118550000Y-70225000D02*
X115750543Y-70225000D01*
G36*
X118550000Y-70225000D02*
G01*
X115750543Y-70225000D01*
X115750543Y-68775000D01*
X118550000Y-68775000D01*
X118550000Y-70225000D01*
G37*
X118550000Y-70225000D02*
X115750543Y-70225000D01*
X115750543Y-68775000D01*
X118550000Y-68775000D01*
X118550000Y-70225000D01*
X99250000Y-77750000D02*
X99250000Y-61250000D01*
X99250000Y-61250000D02*
X115750000Y-61250000D01*
X115750000Y-61250000D02*
X115750000Y-77750000D01*
X115750000Y-77750000D02*
X99250000Y-77750000D01*
G36*
X115750000Y-77750000D02*
G01*
X99250000Y-77750000D01*
X99250000Y-61250000D01*
X115750000Y-61250000D01*
X115750000Y-77750000D01*
G37*
X115750000Y-77750000D02*
X99250000Y-77750000D01*
X99250000Y-61250000D01*
X115750000Y-61250000D01*
X115750000Y-77750000D01*
X118550000Y-70220000D02*
X118550000Y-68775000D01*
X118550000Y-68775000D02*
X120000000Y-70220000D01*
X120000000Y-70220000D02*
X118550000Y-70220000D01*
G36*
X120000000Y-70220000D02*
G01*
X118550000Y-70220000D01*
X118550000Y-68775000D01*
X120000000Y-70220000D01*
G37*
X120000000Y-70220000D02*
X118550000Y-70220000D01*
X118550000Y-68775000D01*
X120000000Y-70220000D01*
X119999999Y-76992819D02*
X118550000Y-76992819D01*
X118550000Y-76992819D02*
X118550001Y-70220850D01*
X118550001Y-70220850D02*
X120000000Y-70220850D01*
X120000000Y-70220850D02*
X119999999Y-76992819D01*
G36*
X119999999Y-76992819D02*
G01*
X118550000Y-76992819D01*
X118550001Y-70220850D01*
X120000000Y-70220850D01*
X119999999Y-76992819D01*
G37*
X119999999Y-76992819D02*
X118550000Y-76992819D01*
X118550001Y-70220850D01*
X120000000Y-70220850D01*
X119999999Y-76992819D01*
X144750543Y-128225000D02*
X144750543Y-126775000D01*
X144750543Y-126775000D02*
X147550000Y-126775000D01*
X147550000Y-126775000D02*
X147550000Y-128225000D01*
X147550000Y-128225000D02*
X144750543Y-128225000D01*
G36*
X147550000Y-128225000D02*
G01*
X144750543Y-128225000D01*
X144750543Y-126775000D01*
X147550000Y-126775000D01*
X147550000Y-128225000D01*
G37*
X147550000Y-128225000D02*
X144750543Y-128225000D01*
X144750543Y-126775000D01*
X147550000Y-126775000D01*
X147550000Y-128225000D01*
X128250000Y-135750000D02*
X128250000Y-119250000D01*
X128250000Y-119250000D02*
X144750000Y-119250000D01*
X144750000Y-119250000D02*
X144750000Y-135750000D01*
X144750000Y-135750000D02*
X128250000Y-135750000D01*
G36*
X144750000Y-135750000D02*
G01*
X128250000Y-135750000D01*
X128250000Y-119250000D01*
X144750000Y-119250000D01*
X144750000Y-135750000D01*
G37*
X144750000Y-135750000D02*
X128250000Y-135750000D01*
X128250000Y-119250000D01*
X144750000Y-119250000D01*
X144750000Y-135750000D01*
X147550000Y-128220000D02*
X147550000Y-126775000D01*
X147550000Y-126775000D02*
X149000000Y-128220000D01*
X149000000Y-128220000D02*
X147550000Y-128220000D01*
G36*
X149000000Y-128220000D02*
G01*
X147550000Y-128220000D01*
X147550000Y-126775000D01*
X149000000Y-128220000D01*
G37*
X149000000Y-128220000D02*
X147550000Y-128220000D01*
X147550000Y-126775000D01*
X149000000Y-128220000D01*
X148999999Y-134992819D02*
X147550000Y-134992819D01*
X147550000Y-134992819D02*
X147550001Y-128220850D01*
X147550001Y-128220850D02*
X149000000Y-128220850D01*
X149000000Y-128220850D02*
X148999999Y-134992819D01*
G36*
X148999999Y-134992819D02*
G01*
X147550000Y-134992819D01*
X147550001Y-128220850D01*
X149000000Y-128220850D01*
X148999999Y-134992819D01*
G37*
X148999999Y-134992819D02*
X147550000Y-134992819D01*
X147550001Y-128220850D01*
X149000000Y-128220850D01*
X148999999Y-134992819D01*
X90999999Y-134992819D02*
X89550000Y-134992819D01*
X89550000Y-134992819D02*
X89550001Y-128220850D01*
X89550001Y-128220850D02*
X91000000Y-128220850D01*
X91000000Y-128220850D02*
X90999999Y-134992819D01*
G36*
X90999999Y-134992819D02*
G01*
X89550000Y-134992819D01*
X89550001Y-128220850D01*
X91000000Y-128220850D01*
X90999999Y-134992819D01*
G37*
X90999999Y-134992819D02*
X89550000Y-134992819D01*
X89550001Y-128220850D01*
X91000000Y-128220850D01*
X90999999Y-134992819D01*
X86750543Y-128225000D02*
X86750543Y-126775000D01*
X86750543Y-126775000D02*
X89550000Y-126775000D01*
X89550000Y-126775000D02*
X89550000Y-128225000D01*
X89550000Y-128225000D02*
X86750543Y-128225000D01*
G36*
X89550000Y-128225000D02*
G01*
X86750543Y-128225000D01*
X86750543Y-126775000D01*
X89550000Y-126775000D01*
X89550000Y-128225000D01*
G37*
X89550000Y-128225000D02*
X86750543Y-128225000D01*
X86750543Y-126775000D01*
X89550000Y-126775000D01*
X89550000Y-128225000D01*
X89550000Y-128220000D02*
X89550000Y-126775000D01*
X89550000Y-126775000D02*
X91000000Y-128220000D01*
X91000000Y-128220000D02*
X89550000Y-128220000D01*
G36*
X91000000Y-128220000D02*
G01*
X89550000Y-128220000D01*
X89550000Y-126775000D01*
X91000000Y-128220000D01*
G37*
X91000000Y-128220000D02*
X89550000Y-128220000D01*
X89550000Y-126775000D01*
X91000000Y-128220000D01*
X70250000Y-135750000D02*
X70250000Y-119250000D01*
X70250000Y-119250000D02*
X86750000Y-119250000D01*
X86750000Y-119250000D02*
X86750000Y-135750000D01*
X86750000Y-135750000D02*
X70250000Y-135750000D01*
G36*
X86750000Y-135750000D02*
G01*
X70250000Y-135750000D01*
X70250000Y-119250000D01*
X86750000Y-119250000D01*
X86750000Y-135750000D01*
G37*
X86750000Y-135750000D02*
X70250000Y-135750000D01*
X70250000Y-119250000D01*
X86750000Y-119250000D01*
X86750000Y-135750000D01*
X362276543Y-53767000D02*
X362276543Y-52317000D01*
X362276543Y-52317000D02*
X365076000Y-52317000D01*
X365076000Y-52317000D02*
X365076000Y-53772000D01*
X365076000Y-53772000D02*
X362276543Y-53767000D01*
G36*
X365076000Y-53772000D02*
G01*
X362276543Y-53767000D01*
X362276543Y-52317000D01*
X365076000Y-52317000D01*
X365076000Y-53772000D01*
G37*
X365076000Y-53772000D02*
X362276543Y-53767000D01*
X362276543Y-52317000D01*
X365076000Y-52317000D01*
X365076000Y-53772000D01*
X365076000Y-52312000D02*
X366526000Y-52312000D01*
X366526000Y-52312000D02*
X365076000Y-53772000D01*
X365076000Y-53772000D02*
X365076000Y-52312000D01*
G36*
X365076000Y-53772000D02*
G01*
X365076000Y-52312000D01*
X366526000Y-52312000D01*
X365076000Y-53772000D01*
G37*
X365076000Y-53772000D02*
X365076000Y-52312000D01*
X366526000Y-52312000D01*
X365076000Y-53772000D01*
X365076003Y-45539181D02*
X366526000Y-45539181D01*
X366526000Y-45539181D02*
X366525997Y-52311150D01*
X366525997Y-52311150D02*
X365076000Y-52311150D01*
X365076000Y-52311150D02*
X365076003Y-45539181D01*
G36*
X366525997Y-52311150D02*
G01*
X365076000Y-52311150D01*
X365076003Y-45539181D01*
X366526000Y-45539181D01*
X366525997Y-52311150D01*
G37*
X366525997Y-52311150D02*
X365076000Y-52311150D01*
X365076003Y-45539181D01*
X366526000Y-45539181D01*
X366525997Y-52311150D01*
X345776000Y-61292000D02*
X345776000Y-44792000D01*
X345776000Y-44792000D02*
X362276000Y-44792000D01*
X362276000Y-44792000D02*
X362276000Y-61292000D01*
X362276000Y-61292000D02*
X345776000Y-61292000D01*
G36*
X362276000Y-61292000D02*
G01*
X345776000Y-61292000D01*
X345776000Y-44792000D01*
X362276000Y-44792000D01*
X362276000Y-61292000D01*
G37*
X362276000Y-61292000D02*
X345776000Y-61292000D01*
X345776000Y-44792000D01*
X362276000Y-44792000D01*
X362276000Y-61292000D01*
D12*
%TO.C,AE4*%
X140045000Y-44230996D02*
X140045000Y-44743111D01*
X140045000Y-44743111D02*
X143445000Y-44743111D01*
X143445000Y-44743111D02*
X143445000Y-52737000D01*
X143445000Y-52737000D02*
X130945000Y-52737000D01*
X130945000Y-52737000D02*
X130945000Y-36237000D01*
X130945000Y-36237000D02*
X143445000Y-36237000D01*
X143445000Y-36237000D02*
X143445000Y-44230996D01*
X143445000Y-44230996D02*
X140045000Y-44230996D01*
G36*
X143445000Y-44230996D02*
G01*
X140045000Y-44230996D01*
X140045000Y-44743111D01*
X143445000Y-44743111D01*
X143445000Y-52737000D01*
X130945000Y-52737000D01*
X130945000Y-36237000D01*
X143445000Y-36237000D01*
X143445000Y-44230996D01*
G37*
X143445000Y-44230996D02*
X140045000Y-44230996D01*
X140045000Y-44743111D01*
X143445000Y-44743111D01*
X143445000Y-52737000D01*
X130945000Y-52737000D01*
X130945000Y-36237000D01*
X143445000Y-36237000D01*
X143445000Y-44230996D01*
D11*
X140045000Y-44643500D02*
X140045000Y-44330500D01*
X140045000Y-44330500D02*
X145005000Y-44330500D01*
X145005000Y-44330500D02*
X145005000Y-44643500D01*
X145005000Y-44643500D02*
X140045000Y-44643500D01*
G36*
X145005000Y-44643500D02*
G01*
X140045000Y-44643500D01*
X140045000Y-44330500D01*
X145005000Y-44330500D01*
X145005000Y-44643500D01*
G37*
X145005000Y-44643500D02*
X140045000Y-44643500D01*
X140045000Y-44330500D01*
X145005000Y-44330500D01*
X145005000Y-44643500D01*
D13*
%TO.C,REF\u002A\u002A*%
X60550000Y-155770000D02*
X62000000Y-155770000D01*
X62000000Y-155770000D02*
X60550000Y-157230000D01*
X60550000Y-157230000D02*
X60550000Y-155770000D01*
G36*
X60550000Y-157230000D02*
G01*
X60550000Y-155770000D01*
X62000000Y-155770000D01*
X60550000Y-157230000D01*
G37*
X60550000Y-157230000D02*
X60550000Y-155770000D01*
X62000000Y-155770000D01*
X60550000Y-157230000D01*
X60550003Y-148997181D02*
X62000000Y-148997181D01*
X62000000Y-148997181D02*
X61999997Y-155769150D01*
X61999997Y-155769150D02*
X60550000Y-155769150D01*
X60550000Y-155769150D02*
X60550003Y-148997181D01*
G36*
X61999997Y-155769150D02*
G01*
X60550000Y-155769150D01*
X60550003Y-148997181D01*
X62000000Y-148997181D01*
X61999997Y-155769150D01*
G37*
X61999997Y-155769150D02*
X60550000Y-155769150D01*
X60550003Y-148997181D01*
X62000000Y-148997181D01*
X61999997Y-155769150D01*
X41250000Y-164750000D02*
X41250000Y-148250000D01*
X41250000Y-148250000D02*
X57750000Y-148250000D01*
X57750000Y-148250000D02*
X57750000Y-164750000D01*
X57750000Y-164750000D02*
X41250000Y-164750000D01*
G36*
X57750000Y-164750000D02*
G01*
X41250000Y-164750000D01*
X41250000Y-148250000D01*
X57750000Y-148250000D01*
X57750000Y-164750000D01*
G37*
X57750000Y-164750000D02*
X41250000Y-164750000D01*
X41250000Y-148250000D01*
X57750000Y-148250000D01*
X57750000Y-164750000D01*
X57750543Y-157225000D02*
X57750543Y-155775000D01*
X57750543Y-155775000D02*
X60550000Y-155775000D01*
X60550000Y-155775000D02*
X60550000Y-157230000D01*
X60550000Y-157230000D02*
X57750543Y-157225000D01*
G36*
X60550000Y-157230000D02*
G01*
X57750543Y-157225000D01*
X57750543Y-155775000D01*
X60550000Y-155775000D01*
X60550000Y-157230000D01*
G37*
X60550000Y-157230000D02*
X57750543Y-157225000D01*
X57750543Y-155775000D01*
X60550000Y-155775000D01*
X60550000Y-157230000D01*
X128250000Y-222750000D02*
X128250000Y-206250000D01*
X128250000Y-206250000D02*
X144750000Y-206250000D01*
X144750000Y-206250000D02*
X144750000Y-222750000D01*
X144750000Y-222750000D02*
X128250000Y-222750000D01*
G36*
X144750000Y-222750000D02*
G01*
X128250000Y-222750000D01*
X128250000Y-206250000D01*
X144750000Y-206250000D01*
X144750000Y-222750000D01*
G37*
X144750000Y-222750000D02*
X128250000Y-222750000D01*
X128250000Y-206250000D01*
X144750000Y-206250000D01*
X144750000Y-222750000D01*
X147550003Y-206997181D02*
X149000000Y-206997181D01*
X149000000Y-206997181D02*
X148999997Y-213769150D01*
X148999997Y-213769150D02*
X147550000Y-213769150D01*
X147550000Y-213769150D02*
X147550003Y-206997181D01*
G36*
X148999997Y-213769150D02*
G01*
X147550000Y-213769150D01*
X147550003Y-206997181D01*
X149000000Y-206997181D01*
X148999997Y-213769150D01*
G37*
X148999997Y-213769150D02*
X147550000Y-213769150D01*
X147550003Y-206997181D01*
X149000000Y-206997181D01*
X148999997Y-213769150D01*
X144750543Y-215225000D02*
X144750543Y-213775000D01*
X144750543Y-213775000D02*
X147550000Y-213775000D01*
X147550000Y-213775000D02*
X147550000Y-215230000D01*
X147550000Y-215230000D02*
X144750543Y-215225000D01*
G36*
X147550000Y-215230000D02*
G01*
X144750543Y-215225000D01*
X144750543Y-213775000D01*
X147550000Y-213775000D01*
X147550000Y-215230000D01*
G37*
X147550000Y-215230000D02*
X144750543Y-215225000D01*
X144750543Y-213775000D01*
X147550000Y-213775000D01*
X147550000Y-215230000D01*
X147550000Y-213770000D02*
X149000000Y-213770000D01*
X149000000Y-213770000D02*
X147550000Y-215230000D01*
X147550000Y-215230000D02*
X147550000Y-213770000D01*
G36*
X147550000Y-215230000D02*
G01*
X147550000Y-213770000D01*
X149000000Y-213770000D01*
X147550000Y-215230000D01*
G37*
X147550000Y-215230000D02*
X147550000Y-213770000D01*
X149000000Y-213770000D01*
X147550000Y-215230000D01*
D11*
%TO.C,NT1*%
X132430587Y-29253000D02*
X131692000Y-29992000D01*
X131692000Y-29992000D02*
X132430587Y-30731000D01*
X132430587Y-30731000D02*
X132430587Y-32134293D01*
X132430587Y-32134293D02*
X130953171Y-32134293D01*
X130953171Y-32134293D02*
X130953171Y-27849640D01*
X130953171Y-27849640D02*
X132430587Y-27849640D01*
X132430587Y-27849640D02*
X132430587Y-29253000D01*
G36*
X132430587Y-29253000D02*
G01*
X131692000Y-29992000D01*
X132430587Y-30731000D01*
X132430587Y-32134293D01*
X130953171Y-32134293D01*
X130953171Y-27849640D01*
X132430587Y-27849640D01*
X132430587Y-29253000D01*
G37*
X132430587Y-29253000D02*
X131692000Y-29992000D01*
X132430587Y-30731000D01*
X132430587Y-32134293D01*
X130953171Y-32134293D01*
X130953171Y-27849640D01*
X132430587Y-27849640D01*
X132430587Y-29253000D01*
X130954000Y-30725279D02*
X126669992Y-30725282D01*
X126669992Y-30725282D02*
X126669992Y-29247579D01*
X126669992Y-29247579D02*
X130954000Y-29247576D01*
X130954000Y-29247576D02*
X130954000Y-30725279D01*
G36*
X130954000Y-30725279D02*
G01*
X126669992Y-30725282D01*
X126669992Y-29247579D01*
X130954000Y-29247576D01*
X130954000Y-30725279D01*
G37*
X130954000Y-30725279D02*
X126669992Y-30725282D01*
X126669992Y-29247579D01*
X130954000Y-29247576D01*
X130954000Y-30725279D01*
D13*
%TO.C,REF\u002A\u002A*%
X70250000Y-193750000D02*
X70250000Y-177250000D01*
X70250000Y-177250000D02*
X86750000Y-177250000D01*
X86750000Y-177250000D02*
X86750000Y-193750000D01*
X86750000Y-193750000D02*
X70250000Y-193750000D01*
G36*
X86750000Y-193750000D02*
G01*
X70250000Y-193750000D01*
X70250000Y-177250000D01*
X86750000Y-177250000D01*
X86750000Y-193750000D01*
G37*
X86750000Y-193750000D02*
X70250000Y-193750000D01*
X70250000Y-177250000D01*
X86750000Y-177250000D01*
X86750000Y-193750000D01*
X86750543Y-186225000D02*
X86750543Y-184775000D01*
X86750543Y-184775000D02*
X89550000Y-184775000D01*
X89550000Y-184775000D02*
X89550000Y-186225000D01*
X89550000Y-186225000D02*
X86750543Y-186225000D01*
G36*
X89550000Y-186225000D02*
G01*
X86750543Y-186225000D01*
X86750543Y-184775000D01*
X89550000Y-184775000D01*
X89550000Y-186225000D01*
G37*
X89550000Y-186225000D02*
X86750543Y-186225000D01*
X86750543Y-184775000D01*
X89550000Y-184775000D01*
X89550000Y-186225000D01*
X89550000Y-186220000D02*
X89550000Y-184775000D01*
X89550000Y-184775000D02*
X91000000Y-186220000D01*
X91000000Y-186220000D02*
X89550000Y-186220000D01*
G36*
X91000000Y-186220000D02*
G01*
X89550000Y-186220000D01*
X89550000Y-184775000D01*
X91000000Y-186220000D01*
G37*
X91000000Y-186220000D02*
X89550000Y-186220000D01*
X89550000Y-184775000D01*
X91000000Y-186220000D01*
X90999999Y-192992819D02*
X89550000Y-192992819D01*
X89550000Y-192992819D02*
X89550001Y-186220850D01*
X89550001Y-186220850D02*
X91000000Y-186220850D01*
X91000000Y-186220850D02*
X90999999Y-192992819D01*
G36*
X90999999Y-192992819D02*
G01*
X89550000Y-192992819D01*
X89550001Y-186220850D01*
X91000000Y-186220850D01*
X90999999Y-192992819D01*
G37*
X90999999Y-192992819D02*
X89550000Y-192992819D01*
X89550001Y-186220850D01*
X91000000Y-186220850D01*
X90999999Y-192992819D01*
X337525999Y-31534819D02*
X336076000Y-31534819D01*
X336076000Y-31534819D02*
X336076001Y-24762850D01*
X336076001Y-24762850D02*
X337526000Y-24762850D01*
X337526000Y-24762850D02*
X337525999Y-31534819D01*
G36*
X337525999Y-31534819D02*
G01*
X336076000Y-31534819D01*
X336076001Y-24762850D01*
X337526000Y-24762850D01*
X337525999Y-31534819D01*
G37*
X337525999Y-31534819D02*
X336076000Y-31534819D01*
X336076001Y-24762850D01*
X337526000Y-24762850D01*
X337525999Y-31534819D01*
X333276543Y-24767000D02*
X333276543Y-23317000D01*
X333276543Y-23317000D02*
X336076000Y-23317000D01*
X336076000Y-23317000D02*
X336076000Y-24767000D01*
X336076000Y-24767000D02*
X333276543Y-24767000D01*
G36*
X336076000Y-24767000D02*
G01*
X333276543Y-24767000D01*
X333276543Y-23317000D01*
X336076000Y-23317000D01*
X336076000Y-24767000D01*
G37*
X336076000Y-24767000D02*
X333276543Y-24767000D01*
X333276543Y-23317000D01*
X336076000Y-23317000D01*
X336076000Y-24767000D01*
X316776000Y-32292000D02*
X316776000Y-15792000D01*
X316776000Y-15792000D02*
X333276000Y-15792000D01*
X333276000Y-15792000D02*
X333276000Y-32292000D01*
X333276000Y-32292000D02*
X316776000Y-32292000D01*
G36*
X333276000Y-32292000D02*
G01*
X316776000Y-32292000D01*
X316776000Y-15792000D01*
X333276000Y-15792000D01*
X333276000Y-32292000D01*
G37*
X333276000Y-32292000D02*
X316776000Y-32292000D01*
X316776000Y-15792000D01*
X333276000Y-15792000D01*
X333276000Y-32292000D01*
X336076000Y-24762000D02*
X336076000Y-23317000D01*
X336076000Y-23317000D02*
X337526000Y-24762000D01*
X337526000Y-24762000D02*
X336076000Y-24762000D01*
G36*
X337526000Y-24762000D02*
G01*
X336076000Y-24762000D01*
X336076000Y-23317000D01*
X337526000Y-24762000D01*
G37*
X337526000Y-24762000D02*
X336076000Y-24762000D01*
X336076000Y-23317000D01*
X337526000Y-24762000D01*
X89550000Y-155770000D02*
X91000000Y-155770000D01*
X91000000Y-155770000D02*
X89550000Y-157230000D01*
X89550000Y-157230000D02*
X89550000Y-155770000D01*
G36*
X89550000Y-157230000D02*
G01*
X89550000Y-155770000D01*
X91000000Y-155770000D01*
X89550000Y-157230000D01*
G37*
X89550000Y-157230000D02*
X89550000Y-155770000D01*
X91000000Y-155770000D01*
X89550000Y-157230000D01*
X89550003Y-148997181D02*
X91000000Y-148997181D01*
X91000000Y-148997181D02*
X90999997Y-155769150D01*
X90999997Y-155769150D02*
X89550000Y-155769150D01*
X89550000Y-155769150D02*
X89550003Y-148997181D01*
G36*
X90999997Y-155769150D02*
G01*
X89550000Y-155769150D01*
X89550003Y-148997181D01*
X91000000Y-148997181D01*
X90999997Y-155769150D01*
G37*
X90999997Y-155769150D02*
X89550000Y-155769150D01*
X89550003Y-148997181D01*
X91000000Y-148997181D01*
X90999997Y-155769150D01*
X86750543Y-157225000D02*
X86750543Y-155775000D01*
X86750543Y-155775000D02*
X89550000Y-155775000D01*
X89550000Y-155775000D02*
X89550000Y-157230000D01*
X89550000Y-157230000D02*
X86750543Y-157225000D01*
G36*
X89550000Y-157230000D02*
G01*
X86750543Y-157225000D01*
X86750543Y-155775000D01*
X89550000Y-155775000D01*
X89550000Y-157230000D01*
G37*
X89550000Y-157230000D02*
X86750543Y-157225000D01*
X86750543Y-155775000D01*
X89550000Y-155775000D01*
X89550000Y-157230000D01*
X70250000Y-164750000D02*
X70250000Y-148250000D01*
X70250000Y-148250000D02*
X86750000Y-148250000D01*
X86750000Y-148250000D02*
X86750000Y-164750000D01*
X86750000Y-164750000D02*
X70250000Y-164750000D01*
G36*
X86750000Y-164750000D02*
G01*
X70250000Y-164750000D01*
X70250000Y-148250000D01*
X86750000Y-148250000D01*
X86750000Y-164750000D01*
G37*
X86750000Y-164750000D02*
X70250000Y-164750000D01*
X70250000Y-148250000D01*
X86750000Y-148250000D01*
X86750000Y-164750000D01*
X115750543Y-157225000D02*
X115750543Y-155775000D01*
X115750543Y-155775000D02*
X118550000Y-155775000D01*
X118550000Y-155775000D02*
X118550000Y-157230000D01*
X118550000Y-157230000D02*
X115750543Y-157225000D01*
G36*
X118550000Y-157230000D02*
G01*
X115750543Y-157225000D01*
X115750543Y-155775000D01*
X118550000Y-155775000D01*
X118550000Y-157230000D01*
G37*
X118550000Y-157230000D02*
X115750543Y-157225000D01*
X115750543Y-155775000D01*
X118550000Y-155775000D01*
X118550000Y-157230000D01*
X118550003Y-148997181D02*
X120000000Y-148997181D01*
X120000000Y-148997181D02*
X119999997Y-155769150D01*
X119999997Y-155769150D02*
X118550000Y-155769150D01*
X118550000Y-155769150D02*
X118550003Y-148997181D01*
G36*
X119999997Y-155769150D02*
G01*
X118550000Y-155769150D01*
X118550003Y-148997181D01*
X120000000Y-148997181D01*
X119999997Y-155769150D01*
G37*
X119999997Y-155769150D02*
X118550000Y-155769150D01*
X118550003Y-148997181D01*
X120000000Y-148997181D01*
X119999997Y-155769150D01*
X99250000Y-164750000D02*
X99250000Y-148250000D01*
X99250000Y-148250000D02*
X115750000Y-148250000D01*
X115750000Y-148250000D02*
X115750000Y-164750000D01*
X115750000Y-164750000D02*
X99250000Y-164750000D01*
G36*
X115750000Y-164750000D02*
G01*
X99250000Y-164750000D01*
X99250000Y-148250000D01*
X115750000Y-148250000D01*
X115750000Y-164750000D01*
G37*
X115750000Y-164750000D02*
X99250000Y-164750000D01*
X99250000Y-148250000D01*
X115750000Y-148250000D01*
X115750000Y-164750000D01*
X118550000Y-155770000D02*
X120000000Y-155770000D01*
X120000000Y-155770000D02*
X118550000Y-157230000D01*
X118550000Y-157230000D02*
X118550000Y-155770000D01*
G36*
X118550000Y-157230000D02*
G01*
X118550000Y-155770000D01*
X120000000Y-155770000D01*
X118550000Y-157230000D01*
G37*
X118550000Y-157230000D02*
X118550000Y-155770000D01*
X120000000Y-155770000D01*
X118550000Y-157230000D01*
X423076000Y-52312000D02*
X424526000Y-52312000D01*
X424526000Y-52312000D02*
X423076000Y-53772000D01*
X423076000Y-53772000D02*
X423076000Y-52312000D01*
G36*
X423076000Y-53772000D02*
G01*
X423076000Y-52312000D01*
X424526000Y-52312000D01*
X423076000Y-53772000D01*
G37*
X423076000Y-53772000D02*
X423076000Y-52312000D01*
X424526000Y-52312000D01*
X423076000Y-53772000D01*
X403776000Y-61292000D02*
X403776000Y-44792000D01*
X403776000Y-44792000D02*
X420276000Y-44792000D01*
X420276000Y-44792000D02*
X420276000Y-61292000D01*
X420276000Y-61292000D02*
X403776000Y-61292000D01*
G36*
X420276000Y-61292000D02*
G01*
X403776000Y-61292000D01*
X403776000Y-44792000D01*
X420276000Y-44792000D01*
X420276000Y-61292000D01*
G37*
X420276000Y-61292000D02*
X403776000Y-61292000D01*
X403776000Y-44792000D01*
X420276000Y-44792000D01*
X420276000Y-61292000D01*
X420276543Y-53767000D02*
X420276543Y-52317000D01*
X420276543Y-52317000D02*
X423076000Y-52317000D01*
X423076000Y-52317000D02*
X423076000Y-53772000D01*
X423076000Y-53772000D02*
X420276543Y-53767000D01*
G36*
X423076000Y-53772000D02*
G01*
X420276543Y-53767000D01*
X420276543Y-52317000D01*
X423076000Y-52317000D01*
X423076000Y-53772000D01*
G37*
X423076000Y-53772000D02*
X420276543Y-53767000D01*
X420276543Y-52317000D01*
X423076000Y-52317000D01*
X423076000Y-53772000D01*
X423076003Y-45539181D02*
X424526000Y-45539181D01*
X424526000Y-45539181D02*
X424525997Y-52311150D01*
X424525997Y-52311150D02*
X423076000Y-52311150D01*
X423076000Y-52311150D02*
X423076003Y-45539181D01*
G36*
X424525997Y-52311150D02*
G01*
X423076000Y-52311150D01*
X423076003Y-45539181D01*
X424526000Y-45539181D01*
X424525997Y-52311150D01*
G37*
X424525997Y-52311150D02*
X423076000Y-52311150D01*
X423076003Y-45539181D01*
X424526000Y-45539181D01*
X424525997Y-52311150D01*
X90999999Y-76992819D02*
X89550000Y-76992819D01*
X89550000Y-76992819D02*
X89550001Y-70220850D01*
X89550001Y-70220850D02*
X91000000Y-70220850D01*
X91000000Y-70220850D02*
X90999999Y-76992819D01*
G36*
X90999999Y-76992819D02*
G01*
X89550000Y-76992819D01*
X89550001Y-70220850D01*
X91000000Y-70220850D01*
X90999999Y-76992819D01*
G37*
X90999999Y-76992819D02*
X89550000Y-76992819D01*
X89550001Y-70220850D01*
X91000000Y-70220850D01*
X90999999Y-76992819D01*
X86750543Y-70225000D02*
X86750543Y-68775000D01*
X86750543Y-68775000D02*
X89550000Y-68775000D01*
X89550000Y-68775000D02*
X89550000Y-70225000D01*
X89550000Y-70225000D02*
X86750543Y-70225000D01*
G36*
X89550000Y-70225000D02*
G01*
X86750543Y-70225000D01*
X86750543Y-68775000D01*
X89550000Y-68775000D01*
X89550000Y-70225000D01*
G37*
X89550000Y-70225000D02*
X86750543Y-70225000D01*
X86750543Y-68775000D01*
X89550000Y-68775000D01*
X89550000Y-70225000D01*
X70250000Y-77750000D02*
X70250000Y-61250000D01*
X70250000Y-61250000D02*
X86750000Y-61250000D01*
X86750000Y-61250000D02*
X86750000Y-77750000D01*
X86750000Y-77750000D02*
X70250000Y-77750000D01*
G36*
X86750000Y-77750000D02*
G01*
X70250000Y-77750000D01*
X70250000Y-61250000D01*
X86750000Y-61250000D01*
X86750000Y-77750000D01*
G37*
X86750000Y-77750000D02*
X70250000Y-77750000D01*
X70250000Y-61250000D01*
X86750000Y-61250000D01*
X86750000Y-77750000D01*
X89550000Y-70220000D02*
X89550000Y-68775000D01*
X89550000Y-68775000D02*
X91000000Y-70220000D01*
X91000000Y-70220000D02*
X89550000Y-70220000D01*
G36*
X91000000Y-70220000D02*
G01*
X89550000Y-70220000D01*
X89550000Y-68775000D01*
X91000000Y-70220000D01*
G37*
X91000000Y-70220000D02*
X89550000Y-70220000D01*
X89550000Y-68775000D01*
X91000000Y-70220000D01*
X118550003Y-90997181D02*
X120000000Y-90997181D01*
X120000000Y-90997181D02*
X119999997Y-97769150D01*
X119999997Y-97769150D02*
X118550000Y-97769150D01*
X118550000Y-97769150D02*
X118550003Y-90997181D01*
G36*
X119999997Y-97769150D02*
G01*
X118550000Y-97769150D01*
X118550003Y-90997181D01*
X120000000Y-90997181D01*
X119999997Y-97769150D01*
G37*
X119999997Y-97769150D02*
X118550000Y-97769150D01*
X118550003Y-90997181D01*
X120000000Y-90997181D01*
X119999997Y-97769150D01*
X118550000Y-97770000D02*
X120000000Y-97770000D01*
X120000000Y-97770000D02*
X118550000Y-99230000D01*
X118550000Y-99230000D02*
X118550000Y-97770000D01*
G36*
X118550000Y-99230000D02*
G01*
X118550000Y-97770000D01*
X120000000Y-97770000D01*
X118550000Y-99230000D01*
G37*
X118550000Y-99230000D02*
X118550000Y-97770000D01*
X120000000Y-97770000D01*
X118550000Y-99230000D01*
X99250000Y-106750000D02*
X99250000Y-90250000D01*
X99250000Y-90250000D02*
X115750000Y-90250000D01*
X115750000Y-90250000D02*
X115750000Y-106750000D01*
X115750000Y-106750000D02*
X99250000Y-106750000D01*
G36*
X115750000Y-106750000D02*
G01*
X99250000Y-106750000D01*
X99250000Y-90250000D01*
X115750000Y-90250000D01*
X115750000Y-106750000D01*
G37*
X115750000Y-106750000D02*
X99250000Y-106750000D01*
X99250000Y-90250000D01*
X115750000Y-90250000D01*
X115750000Y-106750000D01*
X115750543Y-99225000D02*
X115750543Y-97775000D01*
X115750543Y-97775000D02*
X118550000Y-97775000D01*
X118550000Y-97775000D02*
X118550000Y-99230000D01*
X118550000Y-99230000D02*
X115750543Y-99225000D01*
G36*
X118550000Y-99230000D02*
G01*
X115750543Y-99225000D01*
X115750543Y-97775000D01*
X118550000Y-97775000D01*
X118550000Y-99230000D01*
G37*
X118550000Y-99230000D02*
X115750543Y-99225000D01*
X115750543Y-97775000D01*
X118550000Y-97775000D01*
X118550000Y-99230000D01*
X86750543Y-99225000D02*
X86750543Y-97775000D01*
X86750543Y-97775000D02*
X89550000Y-97775000D01*
X89550000Y-97775000D02*
X89550000Y-99230000D01*
X89550000Y-99230000D02*
X86750543Y-99225000D01*
G36*
X89550000Y-99230000D02*
G01*
X86750543Y-99225000D01*
X86750543Y-97775000D01*
X89550000Y-97775000D01*
X89550000Y-99230000D01*
G37*
X89550000Y-99230000D02*
X86750543Y-99225000D01*
X86750543Y-97775000D01*
X89550000Y-97775000D01*
X89550000Y-99230000D01*
X70250000Y-106750000D02*
X70250000Y-90250000D01*
X70250000Y-90250000D02*
X86750000Y-90250000D01*
X86750000Y-90250000D02*
X86750000Y-106750000D01*
X86750000Y-106750000D02*
X70250000Y-106750000D01*
G36*
X86750000Y-106750000D02*
G01*
X70250000Y-106750000D01*
X70250000Y-90250000D01*
X86750000Y-90250000D01*
X86750000Y-106750000D01*
G37*
X86750000Y-106750000D02*
X70250000Y-106750000D01*
X70250000Y-90250000D01*
X86750000Y-90250000D01*
X86750000Y-106750000D01*
X89550000Y-97770000D02*
X91000000Y-97770000D01*
X91000000Y-97770000D02*
X89550000Y-99230000D01*
X89550000Y-99230000D02*
X89550000Y-97770000D01*
G36*
X89550000Y-99230000D02*
G01*
X89550000Y-97770000D01*
X91000000Y-97770000D01*
X89550000Y-99230000D01*
G37*
X89550000Y-99230000D02*
X89550000Y-97770000D01*
X91000000Y-97770000D01*
X89550000Y-99230000D01*
X89550003Y-90997181D02*
X91000000Y-90997181D01*
X91000000Y-90997181D02*
X90999997Y-97769150D01*
X90999997Y-97769150D02*
X89550000Y-97769150D01*
X89550000Y-97769150D02*
X89550003Y-90997181D01*
G36*
X90999997Y-97769150D02*
G01*
X89550000Y-97769150D01*
X89550003Y-90997181D01*
X91000000Y-90997181D01*
X90999997Y-97769150D01*
G37*
X90999997Y-97769150D02*
X89550000Y-97769150D01*
X89550003Y-90997181D01*
X91000000Y-90997181D01*
X90999997Y-97769150D01*
D11*
%TO.C,AA3*%
X146038500Y-27850000D02*
X145725500Y-27850000D01*
X145725500Y-27850000D02*
X145725500Y-27537000D01*
X145725500Y-27537000D02*
X146038500Y-27537000D01*
X146038500Y-27537000D02*
X146038500Y-27224000D01*
X146038500Y-27224000D02*
X146351500Y-27224000D01*
X146351500Y-27224000D02*
X146351500Y-27537000D01*
X146351500Y-27537000D02*
X146038500Y-27850000D01*
G36*
X146351500Y-27537000D02*
G01*
X146038500Y-27850000D01*
X145725500Y-27850000D01*
X145725500Y-27537000D01*
X146038500Y-27537000D01*
X146038500Y-27224000D01*
X146351500Y-27224000D01*
X146351500Y-27537000D01*
G37*
X146351500Y-27537000D02*
X146038500Y-27850000D01*
X145725500Y-27850000D01*
X145725500Y-27537000D01*
X146038500Y-27537000D01*
X146038500Y-27224000D01*
X146351500Y-27224000D01*
X146351500Y-27537000D01*
D13*
%TO.C,REF\u002A\u002A*%
X118550000Y-128220000D02*
X118550000Y-126775000D01*
X118550000Y-126775000D02*
X120000000Y-128220000D01*
X120000000Y-128220000D02*
X118550000Y-128220000D01*
G36*
X120000000Y-128220000D02*
G01*
X118550000Y-128220000D01*
X118550000Y-126775000D01*
X120000000Y-128220000D01*
G37*
X120000000Y-128220000D02*
X118550000Y-128220000D01*
X118550000Y-126775000D01*
X120000000Y-128220000D01*
X119999999Y-134992819D02*
X118550000Y-134992819D01*
X118550000Y-134992819D02*
X118550001Y-128220850D01*
X118550001Y-128220850D02*
X120000000Y-128220850D01*
X120000000Y-128220850D02*
X119999999Y-134992819D01*
G36*
X119999999Y-134992819D02*
G01*
X118550000Y-134992819D01*
X118550001Y-128220850D01*
X120000000Y-128220850D01*
X119999999Y-134992819D01*
G37*
X119999999Y-134992819D02*
X118550000Y-134992819D01*
X118550001Y-128220850D01*
X120000000Y-128220850D01*
X119999999Y-134992819D01*
X115750543Y-128225000D02*
X115750543Y-126775000D01*
X115750543Y-126775000D02*
X118550000Y-126775000D01*
X118550000Y-126775000D02*
X118550000Y-128225000D01*
X118550000Y-128225000D02*
X115750543Y-128225000D01*
G36*
X118550000Y-128225000D02*
G01*
X115750543Y-128225000D01*
X115750543Y-126775000D01*
X118550000Y-126775000D01*
X118550000Y-128225000D01*
G37*
X118550000Y-128225000D02*
X115750543Y-128225000D01*
X115750543Y-126775000D01*
X118550000Y-126775000D01*
X118550000Y-128225000D01*
X99250000Y-135750000D02*
X99250000Y-119250000D01*
X99250000Y-119250000D02*
X115750000Y-119250000D01*
X115750000Y-119250000D02*
X115750000Y-135750000D01*
X115750000Y-135750000D02*
X99250000Y-135750000D01*
G36*
X115750000Y-135750000D02*
G01*
X99250000Y-135750000D01*
X99250000Y-119250000D01*
X115750000Y-119250000D01*
X115750000Y-135750000D01*
G37*
X115750000Y-135750000D02*
X99250000Y-135750000D01*
X99250000Y-119250000D01*
X115750000Y-119250000D01*
X115750000Y-135750000D01*
X115750543Y-215225000D02*
X115750543Y-213775000D01*
X115750543Y-213775000D02*
X118550000Y-213775000D01*
X118550000Y-213775000D02*
X118550000Y-215230000D01*
X118550000Y-215230000D02*
X115750543Y-215225000D01*
G36*
X118550000Y-215230000D02*
G01*
X115750543Y-215225000D01*
X115750543Y-213775000D01*
X118550000Y-213775000D01*
X118550000Y-215230000D01*
G37*
X118550000Y-215230000D02*
X115750543Y-215225000D01*
X115750543Y-213775000D01*
X118550000Y-213775000D01*
X118550000Y-215230000D01*
X118550003Y-206997181D02*
X120000000Y-206997181D01*
X120000000Y-206997181D02*
X119999997Y-213769150D01*
X119999997Y-213769150D02*
X118550000Y-213769150D01*
X118550000Y-213769150D02*
X118550003Y-206997181D01*
G36*
X119999997Y-213769150D02*
G01*
X118550000Y-213769150D01*
X118550003Y-206997181D01*
X120000000Y-206997181D01*
X119999997Y-213769150D01*
G37*
X119999997Y-213769150D02*
X118550000Y-213769150D01*
X118550003Y-206997181D01*
X120000000Y-206997181D01*
X119999997Y-213769150D01*
X99250000Y-222750000D02*
X99250000Y-206250000D01*
X99250000Y-206250000D02*
X115750000Y-206250000D01*
X115750000Y-206250000D02*
X115750000Y-222750000D01*
X115750000Y-222750000D02*
X99250000Y-222750000D01*
G36*
X115750000Y-222750000D02*
G01*
X99250000Y-222750000D01*
X99250000Y-206250000D01*
X115750000Y-206250000D01*
X115750000Y-222750000D01*
G37*
X115750000Y-222750000D02*
X99250000Y-222750000D01*
X99250000Y-206250000D01*
X115750000Y-206250000D01*
X115750000Y-222750000D01*
X118550000Y-213770000D02*
X120000000Y-213770000D01*
X120000000Y-213770000D02*
X118550000Y-215230000D01*
X118550000Y-215230000D02*
X118550000Y-213770000D01*
G36*
X118550000Y-215230000D02*
G01*
X118550000Y-213770000D01*
X120000000Y-213770000D01*
X118550000Y-215230000D01*
G37*
X118550000Y-215230000D02*
X118550000Y-213770000D01*
X120000000Y-213770000D01*
X118550000Y-215230000D01*
X394076000Y-52312000D02*
X395526000Y-52312000D01*
X395526000Y-52312000D02*
X394076000Y-53772000D01*
X394076000Y-53772000D02*
X394076000Y-52312000D01*
G36*
X394076000Y-53772000D02*
G01*
X394076000Y-52312000D01*
X395526000Y-52312000D01*
X394076000Y-53772000D01*
G37*
X394076000Y-53772000D02*
X394076000Y-52312000D01*
X395526000Y-52312000D01*
X394076000Y-53772000D01*
X394076003Y-45539181D02*
X395526000Y-45539181D01*
X395526000Y-45539181D02*
X395525997Y-52311150D01*
X395525997Y-52311150D02*
X394076000Y-52311150D01*
X394076000Y-52311150D02*
X394076003Y-45539181D01*
G36*
X395525997Y-52311150D02*
G01*
X394076000Y-52311150D01*
X394076003Y-45539181D01*
X395526000Y-45539181D01*
X395525997Y-52311150D01*
G37*
X395525997Y-52311150D02*
X394076000Y-52311150D01*
X394076003Y-45539181D01*
X395526000Y-45539181D01*
X395525997Y-52311150D01*
X374776000Y-61292000D02*
X374776000Y-44792000D01*
X374776000Y-44792000D02*
X391276000Y-44792000D01*
X391276000Y-44792000D02*
X391276000Y-61292000D01*
X391276000Y-61292000D02*
X374776000Y-61292000D01*
G36*
X391276000Y-61292000D02*
G01*
X374776000Y-61292000D01*
X374776000Y-44792000D01*
X391276000Y-44792000D01*
X391276000Y-61292000D01*
G37*
X391276000Y-61292000D02*
X374776000Y-61292000D01*
X374776000Y-44792000D01*
X391276000Y-44792000D01*
X391276000Y-61292000D01*
X391276543Y-53767000D02*
X391276543Y-52317000D01*
X391276543Y-52317000D02*
X394076000Y-52317000D01*
X394076000Y-52317000D02*
X394076000Y-53772000D01*
X394076000Y-53772000D02*
X391276543Y-53767000D01*
G36*
X394076000Y-53772000D02*
G01*
X391276543Y-53767000D01*
X391276543Y-52317000D01*
X394076000Y-52317000D01*
X394076000Y-53772000D01*
G37*
X394076000Y-53772000D02*
X391276543Y-53767000D01*
X391276543Y-52317000D01*
X394076000Y-52317000D01*
X394076000Y-53772000D01*
%TD*%
D14*
%TO.P,NT2,3,3*%
%TO.N,/A1P4*%
X73697000Y-28551000D03*
%TO.P,NT2,2,2*%
%TO.N,/A1P5*%
X73697000Y-31432000D03*
D15*
%TO.P,NT2,1,1*%
%TO.N,/A1P1*%
X77980250Y-29997000D03*
%TD*%
D16*
%TO.P,AE8,1,A*%
%TO.N,/A1E8*%
X86915000Y-44487000D03*
%TD*%
%TO.P,AE7,1,A*%
%TO.N,/A1E7*%
X57915000Y-44487000D03*
%TD*%
%TO.P,AE6,1,A*%
%TO.N,/A1E6*%
X86915000Y-15487000D03*
%TD*%
%TO.P,AE5,1,A*%
%TO.N,/A1E5*%
X57915000Y-15487000D03*
%TD*%
D17*
%TO.P,AA16,2,2*%
%TO.N,/A1E8*%
X87882000Y-44486500D03*
%TO.P,AA16,1,1*%
%TO.N,/A1E8S2*%
X88195000Y-44173500D03*
%TD*%
%TO.P,AA15,2,2*%
%TO.N,/A1E8S2*%
X88194500Y-32605000D03*
%TO.P,AA15,1,1*%
%TO.N,/A1P5*%
X87881500Y-32292000D03*
%TD*%
%TO.P,AA14,2,2*%
%TO.N,/A1P5*%
X59508000Y-32292500D03*
%TO.P,AA14,1,1*%
%TO.N,/A1E7S2*%
X59195000Y-32605500D03*
%TD*%
%TO.P,AA13,2,2*%
%TO.N,/A1E7*%
X58882000Y-44486500D03*
%TO.P,AA13,1,1*%
%TO.N,/A1E7S2*%
X59195000Y-44173500D03*
%TD*%
%TO.P,AA12,2,2*%
%TO.N,/A1E6S2*%
X88194500Y-15800000D03*
%TO.P,AA12,1,1*%
%TO.N,/A1E6*%
X87881500Y-15487000D03*
%TD*%
%TO.P,AA11,2,2*%
%TO.N,/A1P4*%
X87882000Y-27693500D03*
%TO.P,AA11,1,1*%
%TO.N,/A1E6S2*%
X88195000Y-27380500D03*
%TD*%
%TO.P,AA10,2,2*%
%TO.N,/A1E5S2*%
X59195500Y-27381000D03*
%TO.P,AA10,1,1*%
%TO.N,/A1P4*%
X59508500Y-27694000D03*
%TD*%
%TO.P,AA9,2,2*%
%TO.N,/A1E5S2*%
X59194500Y-15800000D03*
%TO.P,AA9,1,1*%
%TO.N,/A1E5*%
X58881500Y-15487000D03*
%TD*%
%TO.P,AA4,1,1*%
%TO.N,/A1E2*%
X145881500Y-15487000D03*
%TO.P,AA4,2,2*%
%TO.N,/A1E2S2*%
X146194500Y-15800000D03*
%TD*%
%TO.P,AA6,1,1*%
%TO.N,/A1E3S2*%
X117195000Y-32604500D03*
%TO.P,AA6,2,2*%
%TO.N,/A1P3*%
X117508000Y-32291500D03*
%TD*%
D18*
%TO.P,H12,1,1*%
%TO.N,N/C*%
X170000000Y-113000000D03*
D19*
X170000000Y-113000000D03*
%TD*%
D17*
%TO.P,AA1,1,1*%
%TO.N,/A1E1*%
X116881500Y-15487000D03*
%TO.P,AA1,2,2*%
%TO.N,/A1E1S2*%
X117194500Y-15800000D03*
%TD*%
D16*
%TO.P,AE2,1,A*%
%TO.N,/A1E2*%
X144915000Y-15487000D03*
%TD*%
%TO.P,AE1,1,A*%
%TO.N,/A1E1*%
X115915000Y-15487000D03*
%TD*%
D17*
%TO.P,AA7,1,1*%
%TO.N,/A1P3*%
X145881500Y-32291000D03*
%TO.P,AA7,2,2*%
%TO.N,/A1E4S2*%
X146194500Y-32604000D03*
%TD*%
%TO.P,AA5,1,1*%
%TO.N,/A1E3S2*%
X117195000Y-44173500D03*
%TO.P,AA5,2,2*%
%TO.N,/A1E3*%
X116882000Y-44486500D03*
%TD*%
%TO.P,AA8,1,1*%
%TO.N,/A1E4S2*%
X146195000Y-44173500D03*
%TO.P,AA8,2,2*%
%TO.N,/A1E4*%
X145882000Y-44486500D03*
%TD*%
D20*
%TO.P,AF1,*%
%TO.N,*%
X102695000Y-29987000D03*
%TD*%
D17*
%TO.P,AA2,1,1*%
%TO.N,/A1P2*%
X117508500Y-27694000D03*
%TO.P,AA2,2,2*%
%TO.N,/A1E1S2*%
X117195500Y-27381000D03*
%TD*%
D19*
%TO.P,H4,1,1*%
%TO.N,N/C*%
X174000000Y-208000000D03*
D18*
X174000000Y-208000000D03*
%TD*%
D16*
%TO.P,AE3,1,A*%
%TO.N,/A1E3*%
X115915000Y-44487000D03*
%TD*%
%TO.P,AE4,1,A*%
%TO.N,/A1E4*%
X144915000Y-44487000D03*
%TD*%
D15*
%TO.P,NT1,1,1*%
%TO.N,/A1P1*%
X127408750Y-29987000D03*
D14*
%TO.P,NT1,2,2*%
%TO.N,/A1P2*%
X131692000Y-28552000D03*
%TO.P,NT1,3,3*%
%TO.N,/A1P3*%
X131692000Y-31433000D03*
%TD*%
D18*
%TO.P,H2,1,1*%
%TO.N,N/C*%
X174000000Y-18000000D03*
D19*
X174000000Y-18000000D03*
%TD*%
D18*
%TO.P,H3,1,1*%
%TO.N,N/C*%
X12000000Y-208000000D03*
D19*
X12000000Y-208000000D03*
%TD*%
D18*
%TO.P,H1,1,1*%
%TO.N,N/C*%
X12000000Y-18000000D03*
D19*
X12000000Y-18000000D03*
%TD*%
D17*
%TO.P,AA3,1,1*%
%TO.N,/A1E2S2*%
X146195000Y-27380500D03*
%TO.P,AA3,2,2*%
%TO.N,/A1P2*%
X145882000Y-27693500D03*
%TD*%
D19*
%TO.P,H11,1,1*%
%TO.N,N/C*%
X16000000Y-113000000D03*
D18*
X16000000Y-113000000D03*
%TD*%
D21*
%TO.N,/A1P4*%
X87895000Y-27694000D02*
X73662000Y-27694000D01*
X73662000Y-27694000D02*
X59495000Y-27694000D01*
X73715000Y-28557000D02*
X73715000Y-27747000D01*
X73715000Y-27747000D02*
X73662000Y-27694000D01*
%TO.N,/A1P5*%
X59595000Y-32291000D02*
X73751000Y-32291000D01*
X73751000Y-32291000D02*
X87795000Y-32291000D01*
X73785000Y-31417000D02*
X73785000Y-32257000D01*
X73785000Y-32257000D02*
X73751000Y-32291000D01*
%TO.N,/A1E8*%
X87885000Y-44487000D02*
X86915000Y-44487000D01*
%TO.N,/A1E8S2*%
X88195000Y-32607000D02*
X88195000Y-44177000D01*
%TO.N,/A1E7*%
X58855000Y-44487000D02*
X57905000Y-44487000D01*
%TO.N,/A1E7S2*%
X59188000Y-32600000D02*
X59195000Y-32607000D01*
X59195000Y-32607000D02*
X59195000Y-44177000D01*
%TO.N,/A1E5S2*%
X59195000Y-15787000D02*
X59195000Y-27287000D01*
%TO.N,/A1E5*%
X57895000Y-15487000D02*
X58895000Y-15487000D01*
%TO.N,/A1E6*%
X87895000Y-15487000D02*
X86895000Y-15487000D01*
%TO.N,/A1E6S2*%
X88195000Y-27287000D02*
X88195000Y-15887000D01*
%TO.N,/A1P1*%
X78195000Y-29987000D02*
X127195000Y-29987000D01*
D22*
%TO.N,*%
X119330000Y-80950000D02*
X148330000Y-80950000D01*
X148280000Y-203120000D02*
X119280000Y-203120000D01*
X423856000Y-35492000D02*
X423856000Y-31492000D01*
X148300000Y-91200000D02*
X148300000Y-87140000D01*
X90270000Y-203100000D02*
X61270000Y-203100000D01*
X61300000Y-134870000D02*
X61300000Y-138930000D01*
X61270000Y-91170000D02*
X61300000Y-91200000D01*
X90320000Y-196950000D02*
X90320000Y-192950000D01*
D23*
X104600000Y-142000002D02*
X82800000Y-142000002D01*
D22*
X90290000Y-206980000D02*
X90290000Y-203120000D01*
X61300000Y-138930000D02*
X61320000Y-138950000D01*
X336796000Y-41642000D02*
X336796000Y-45712000D01*
X126800000Y-84000000D02*
X105000000Y-84000000D01*
X90290000Y-90980000D02*
X90290000Y-87120000D01*
X90270000Y-145100000D02*
X61270000Y-145100000D01*
X336826000Y-35472000D02*
X336846000Y-35492000D01*
X423826000Y-45742000D02*
X423826000Y-41682000D01*
X402326000Y-38542000D02*
X380526000Y-38542000D01*
X119280000Y-87120000D02*
X119280000Y-91420000D01*
X61320000Y-138950000D02*
X90320000Y-138950000D01*
X148330000Y-138950000D02*
X148330000Y-134950000D01*
D23*
X147430000Y-156500000D02*
X144290000Y-156500000D01*
D22*
X61300000Y-80930000D02*
X61320000Y-80950000D01*
X119280000Y-203120000D02*
X119280000Y-207420000D01*
X61270000Y-207170000D02*
X61300000Y-207200000D01*
X365796000Y-41642000D02*
X336796000Y-41642000D01*
X104600000Y-84000002D02*
X82800000Y-84000002D01*
D23*
X148300000Y-155630000D02*
X147430000Y-156500000D01*
D22*
X61300000Y-76870000D02*
X61300000Y-80930000D01*
X365816000Y-45522000D02*
X365816000Y-41662000D01*
X61270000Y-87100000D02*
X61270000Y-91170000D01*
X148280000Y-87120000D02*
X119280000Y-87120000D01*
X61270000Y-149170000D02*
X61300000Y-149200000D01*
X394856000Y-35492000D02*
X423856000Y-35492000D01*
X394836000Y-31412000D02*
X394836000Y-35472000D01*
X336846000Y-35492000D02*
X365846000Y-35492000D01*
X119310000Y-192870000D02*
X119310000Y-196930000D01*
D23*
X148300000Y-149200000D02*
X148300000Y-145140000D01*
D22*
X394836000Y-35472000D02*
X394856000Y-35492000D01*
D23*
X148280000Y-145120000D02*
X119280000Y-145120000D01*
D22*
X423806000Y-41662000D02*
X394806000Y-41662000D01*
X61270000Y-145100000D02*
X61270000Y-149170000D01*
X90290000Y-203120000D02*
X90270000Y-203100000D01*
X119310000Y-134870000D02*
X119310000Y-138930000D01*
X148330000Y-80950000D02*
X148330000Y-76950000D01*
X90290000Y-87120000D02*
X90270000Y-87100000D01*
X90270000Y-87100000D02*
X61270000Y-87100000D01*
X365846000Y-35492000D02*
X365846000Y-31492000D01*
X119330000Y-138950000D02*
X148330000Y-138950000D01*
D23*
X119280000Y-145120000D02*
X119280000Y-149420000D01*
D22*
X380126000Y-38542002D02*
X358326000Y-38542002D01*
X394806000Y-41662000D02*
X394806000Y-45962000D01*
X90320000Y-80950000D02*
X90320000Y-76950000D01*
X119330000Y-196950000D02*
X148330000Y-196950000D01*
X336826000Y-31412000D02*
X336826000Y-35472000D01*
D23*
X148300000Y-149220000D02*
X148300000Y-155630000D01*
D22*
X336796000Y-45712000D02*
X336826000Y-45742000D01*
X61320000Y-80950000D02*
X90320000Y-80950000D01*
X90290000Y-148980000D02*
X90290000Y-145120000D01*
X119310000Y-80930000D02*
X119330000Y-80950000D01*
X61300000Y-196930000D02*
X61320000Y-196950000D01*
X148330000Y-196950000D02*
X148330000Y-192950000D01*
X61300000Y-192870000D02*
X61300000Y-196930000D01*
X119310000Y-196930000D02*
X119330000Y-196950000D01*
X126800000Y-200000000D02*
X105000000Y-200000000D01*
X104600000Y-200000002D02*
X82800000Y-200000002D01*
X90320000Y-138950000D02*
X90320000Y-134950000D01*
X90290000Y-145120000D02*
X90270000Y-145100000D01*
X148300000Y-207200000D02*
X148300000Y-203140000D01*
X119310000Y-138930000D02*
X119330000Y-138950000D01*
X61270000Y-203100000D02*
X61270000Y-207170000D01*
D23*
X126800000Y-142000000D02*
X105000000Y-142000000D01*
D22*
X365816000Y-41662000D02*
X365796000Y-41642000D01*
X119310000Y-76870000D02*
X119310000Y-80930000D01*
X61320000Y-196950000D02*
X90320000Y-196950000D01*
D21*
%TO.N,/A1E3*%
X115928000Y-44487000D02*
X116881000Y-44487000D01*
%TO.N,/A1E4*%
X144927000Y-44487000D02*
X145880000Y-44487000D01*
%TO.N,/A1E1*%
X116846000Y-15487000D02*
X115893000Y-15487000D01*
%TO.N,/A1P2*%
X117484000Y-27694000D02*
X131694000Y-27694000D01*
X131677000Y-27760500D02*
X131677000Y-28601500D01*
X131694000Y-27694000D02*
X145867000Y-27694000D01*
%TO.N,/A1E2*%
X145869000Y-15487000D02*
X144916000Y-15487000D01*
%TO.N,/A1E1S2*%
X117195000Y-27285000D02*
X117195000Y-15874000D01*
%TO.N,/A1E2S2*%
X146195000Y-27285000D02*
X146195000Y-15885000D01*
%TO.N,/A1E3S2*%
X117195000Y-32585000D02*
X117195000Y-44173000D01*
%TO.N,/A1E4S2*%
X146195000Y-32585000D02*
X146195000Y-44173000D01*
%TO.N,/A1P3*%
X145890000Y-32291000D02*
X131680000Y-32291000D01*
X131674000Y-31316000D02*
X131674000Y-32157000D01*
X131680000Y-32291000D02*
X117507000Y-32291000D01*
%TD*%
M02*
