%TF.GenerationSoftware,KiCad,Pcbnew,5.99.0-unknown-64afa3a42e~128~ubuntu20.04.1*%
%TF.CreationDate,2021-05-14T16:41:19-05:00*%
%TF.ProjectId,FlatAntPanel4x4,466c6174-416e-4745-9061-6e656c347834,rev?*%
%TF.SameCoordinates,Original*%
%TF.FileFunction,Soldermask,Top*%
%TF.FilePolarity,Negative*%
%FSLAX46Y46*%
G04 Gerber Fmt 4.6, Leading zero omitted, Abs format (unit mm)*
G04 Created by KiCad (PCBNEW 5.99.0-unknown-64afa3a42e~128~ubuntu20.04.1) date 2021-05-14 16:41:19*
%MOMM*%
%LPD*%
G01*
G04 APERTURE LIST*
%ADD10C,2.200000*%
%ADD11C,0.000100*%
%ADD12C,5.000000*%
%ADD13C,2.900000*%
G04 APERTURE END LIST*
D10*
%TO.C,FEED 4*%
X103123000Y-196265000D02*
G75*
G02*
X103095000Y-203734000I-1113900J-3730377D01*
G01*
D11*
X103262400Y-195161400D02*
X103092400Y-195121400D01*
X103092400Y-195121400D02*
X102892400Y-195081400D01*
X102892400Y-195081400D02*
X102642400Y-195041400D01*
X102642400Y-195041400D02*
X102452400Y-195021400D01*
X102452400Y-195021400D02*
X102302400Y-195011400D01*
X102302400Y-195011400D02*
X102092400Y-195001400D01*
X102092400Y-195001400D02*
X102002400Y-195001400D01*
X102002400Y-195001400D02*
X103472400Y-195221400D01*
X103472400Y-195221400D02*
X103262400Y-195161400D01*
G36*
X102302400Y-195011400D02*
G01*
X102452400Y-195021400D01*
X102642400Y-195041400D01*
X102892400Y-195081400D01*
X103092400Y-195121400D01*
X103262400Y-195161400D01*
X103472400Y-195221400D01*
X102002400Y-195001400D01*
X102092400Y-195001400D01*
X102302400Y-195011400D01*
G37*
X102302400Y-195011400D02*
X102452400Y-195021400D01*
X102642400Y-195041400D01*
X102892400Y-195081400D01*
X103092400Y-195121400D01*
X103262400Y-195161400D01*
X103472400Y-195221400D01*
X102002400Y-195001400D01*
X102092400Y-195001400D01*
X102302400Y-195011400D01*
X102613400Y-199439400D02*
X102023400Y-199439400D01*
X102023400Y-199439400D02*
X102113400Y-199459400D01*
X102113400Y-199459400D02*
X102223400Y-199499400D01*
X102223400Y-199499400D02*
X102323400Y-199549400D01*
X102323400Y-199549400D02*
X102413400Y-199619400D01*
X102413400Y-199619400D02*
X102473400Y-199689400D01*
X102473400Y-199689400D02*
X102540900Y-199825650D01*
X102540900Y-199825650D02*
X102552150Y-200048775D01*
X102552150Y-200048775D02*
X102514650Y-200190025D01*
X102514650Y-200190025D02*
X102463400Y-200279400D01*
X102463400Y-200279400D02*
X102413400Y-200349400D01*
X102413400Y-200349400D02*
X102353400Y-200419400D01*
X102353400Y-200419400D02*
X102283400Y-200479400D01*
X102283400Y-200479400D02*
X102213400Y-200519400D01*
X102213400Y-200519400D02*
X102113400Y-200559400D01*
X102113400Y-200559400D02*
X102613400Y-200559400D01*
X102613400Y-200559400D02*
X102613400Y-199439400D01*
G36*
X102613400Y-200559400D02*
G01*
X102113400Y-200559400D01*
X102213400Y-200519400D01*
X102283400Y-200479400D01*
X102353400Y-200419400D01*
X102413400Y-200349400D01*
X102463400Y-200279400D01*
X102514650Y-200190025D01*
X102552150Y-200048775D01*
X102540900Y-199825650D01*
X102473400Y-199689400D01*
X102413400Y-199619400D01*
X102323400Y-199549400D01*
X102223400Y-199499400D01*
X102113400Y-199459400D01*
X102023400Y-199439400D01*
X102613400Y-199439400D01*
X102613400Y-200559400D01*
G37*
X102613400Y-200559400D02*
X102113400Y-200559400D01*
X102213400Y-200519400D01*
X102283400Y-200479400D01*
X102353400Y-200419400D01*
X102413400Y-200349400D01*
X102463400Y-200279400D01*
X102514650Y-200190025D01*
X102552150Y-200048775D01*
X102540900Y-199825650D01*
X102473400Y-199689400D01*
X102413400Y-199619400D01*
X102323400Y-199549400D01*
X102223400Y-199499400D01*
X102113400Y-199459400D01*
X102023400Y-199439400D01*
X102613400Y-199439400D01*
X102613400Y-200559400D01*
X104982000Y-200486000D02*
X102003400Y-200559400D01*
X102003400Y-200559400D02*
X102003000Y-204996000D01*
X102003000Y-204996000D02*
X103284000Y-204810000D01*
X103284000Y-204810000D02*
X104982000Y-200486000D01*
G36*
X103284000Y-204810000D02*
G01*
X102003000Y-204996000D01*
X102003400Y-200559400D01*
X104982000Y-200486000D01*
X103284000Y-204810000D01*
G37*
X103284000Y-204810000D02*
X102003000Y-204996000D01*
X102003400Y-200559400D01*
X104982000Y-200486000D01*
X103284000Y-204810000D01*
X103467943Y-195215867D02*
X101997943Y-194995867D01*
X101997943Y-194995867D02*
X101994721Y-199440125D01*
X101994721Y-199440125D02*
X102616000Y-199445000D01*
X102616000Y-199445000D02*
X102597000Y-200567000D01*
X102597000Y-200567000D02*
X105240000Y-200486000D01*
X105240000Y-200486000D02*
X103467943Y-195215867D01*
G36*
X103467943Y-195215867D02*
G01*
X105240000Y-200486000D01*
X102597000Y-200567000D01*
X102616000Y-199445000D01*
X101994721Y-199440125D01*
X101997943Y-194995867D01*
X103467943Y-195215867D01*
G37*
X103467943Y-195215867D02*
X105240000Y-200486000D01*
X102597000Y-200567000D01*
X102616000Y-199445000D01*
X101994721Y-199440125D01*
X101997943Y-194995867D01*
X103467943Y-195215867D01*
X102328400Y-204991150D02*
X102526000Y-204971000D01*
X102526000Y-204971000D02*
X102680000Y-204948000D01*
X102680000Y-204948000D02*
X102908000Y-204913000D01*
X102908000Y-204913000D02*
X103271000Y-204826000D01*
X103271000Y-204826000D02*
X103783000Y-204657000D01*
X103783000Y-204657000D02*
X102003400Y-204662400D01*
X102003400Y-204662400D02*
X102003400Y-205012400D01*
X102003400Y-205012400D02*
X102142000Y-205004000D01*
X102142000Y-205004000D02*
X102328400Y-204991150D01*
G36*
X103271000Y-204826000D02*
G01*
X102908000Y-204913000D01*
X102680000Y-204948000D01*
X102526000Y-204971000D01*
X102328400Y-204991150D01*
X102142000Y-205004000D01*
X102003400Y-205012400D01*
X102003400Y-204662400D01*
X103783000Y-204657000D01*
X103271000Y-204826000D01*
G37*
X103271000Y-204826000D02*
X102908000Y-204913000D01*
X102680000Y-204948000D01*
X102526000Y-204971000D01*
X102328400Y-204991150D01*
X102142000Y-205004000D01*
X102003400Y-205012400D01*
X102003400Y-204662400D01*
X103783000Y-204657000D01*
X103271000Y-204826000D01*
D10*
%TO.C,FEED 1*%
X103122999Y-22264999D02*
G75*
G02*
X103094999Y-29733999I-1113900J-3730377D01*
G01*
D11*
X103467942Y-21215866D02*
X101997942Y-20995866D01*
X101997942Y-20995866D02*
X101994720Y-25440124D01*
X101994720Y-25440124D02*
X102615999Y-25444999D01*
X102615999Y-25444999D02*
X102596999Y-26566999D01*
X102596999Y-26566999D02*
X105239999Y-26485999D01*
X105239999Y-26485999D02*
X103467942Y-21215866D01*
G36*
X103467942Y-21215866D02*
G01*
X105239999Y-26485999D01*
X102596999Y-26566999D01*
X102615999Y-25444999D01*
X101994720Y-25440124D01*
X101997942Y-20995866D01*
X103467942Y-21215866D01*
G37*
X103467942Y-21215866D02*
X105239999Y-26485999D01*
X102596999Y-26566999D01*
X102615999Y-25444999D01*
X101994720Y-25440124D01*
X101997942Y-20995866D01*
X103467942Y-21215866D01*
X102613399Y-25439399D02*
X102023399Y-25439399D01*
X102023399Y-25439399D02*
X102113399Y-25459399D01*
X102113399Y-25459399D02*
X102223399Y-25499399D01*
X102223399Y-25499399D02*
X102323399Y-25549399D01*
X102323399Y-25549399D02*
X102413399Y-25619399D01*
X102413399Y-25619399D02*
X102473399Y-25689399D01*
X102473399Y-25689399D02*
X102540899Y-25825649D01*
X102540899Y-25825649D02*
X102552149Y-26048774D01*
X102552149Y-26048774D02*
X102514649Y-26190024D01*
X102514649Y-26190024D02*
X102463399Y-26279399D01*
X102463399Y-26279399D02*
X102413399Y-26349399D01*
X102413399Y-26349399D02*
X102353399Y-26419399D01*
X102353399Y-26419399D02*
X102283399Y-26479399D01*
X102283399Y-26479399D02*
X102213399Y-26519399D01*
X102213399Y-26519399D02*
X102113399Y-26559399D01*
X102113399Y-26559399D02*
X102613399Y-26559399D01*
X102613399Y-26559399D02*
X102613399Y-25439399D01*
G36*
X102613399Y-26559399D02*
G01*
X102113399Y-26559399D01*
X102213399Y-26519399D01*
X102283399Y-26479399D01*
X102353399Y-26419399D01*
X102413399Y-26349399D01*
X102463399Y-26279399D01*
X102514649Y-26190024D01*
X102552149Y-26048774D01*
X102540899Y-25825649D01*
X102473399Y-25689399D01*
X102413399Y-25619399D01*
X102323399Y-25549399D01*
X102223399Y-25499399D01*
X102113399Y-25459399D01*
X102023399Y-25439399D01*
X102613399Y-25439399D01*
X102613399Y-26559399D01*
G37*
X102613399Y-26559399D02*
X102113399Y-26559399D01*
X102213399Y-26519399D01*
X102283399Y-26479399D01*
X102353399Y-26419399D01*
X102413399Y-26349399D01*
X102463399Y-26279399D01*
X102514649Y-26190024D01*
X102552149Y-26048774D01*
X102540899Y-25825649D01*
X102473399Y-25689399D01*
X102413399Y-25619399D01*
X102323399Y-25549399D01*
X102223399Y-25499399D01*
X102113399Y-25459399D01*
X102023399Y-25439399D01*
X102613399Y-25439399D01*
X102613399Y-26559399D01*
X104981999Y-26485999D02*
X102003399Y-26559399D01*
X102003399Y-26559399D02*
X102002999Y-30995999D01*
X102002999Y-30995999D02*
X103283999Y-30809999D01*
X103283999Y-30809999D02*
X104981999Y-26485999D01*
G36*
X103283999Y-30809999D02*
G01*
X102002999Y-30995999D01*
X102003399Y-26559399D01*
X104981999Y-26485999D01*
X103283999Y-30809999D01*
G37*
X103283999Y-30809999D02*
X102002999Y-30995999D01*
X102003399Y-26559399D01*
X104981999Y-26485999D01*
X103283999Y-30809999D01*
X103262399Y-21161399D02*
X103092399Y-21121399D01*
X103092399Y-21121399D02*
X102892399Y-21081399D01*
X102892399Y-21081399D02*
X102642399Y-21041399D01*
X102642399Y-21041399D02*
X102452399Y-21021399D01*
X102452399Y-21021399D02*
X102302399Y-21011399D01*
X102302399Y-21011399D02*
X102092399Y-21001399D01*
X102092399Y-21001399D02*
X102002399Y-21001399D01*
X102002399Y-21001399D02*
X103472399Y-21221399D01*
X103472399Y-21221399D02*
X103262399Y-21161399D01*
G36*
X102302399Y-21011399D02*
G01*
X102452399Y-21021399D01*
X102642399Y-21041399D01*
X102892399Y-21081399D01*
X103092399Y-21121399D01*
X103262399Y-21161399D01*
X103472399Y-21221399D01*
X102002399Y-21001399D01*
X102092399Y-21001399D01*
X102302399Y-21011399D01*
G37*
X102302399Y-21011399D02*
X102452399Y-21021399D01*
X102642399Y-21041399D01*
X102892399Y-21081399D01*
X103092399Y-21121399D01*
X103262399Y-21161399D01*
X103472399Y-21221399D01*
X102002399Y-21001399D01*
X102092399Y-21001399D01*
X102302399Y-21011399D01*
X102328399Y-30991149D02*
X102525999Y-30970999D01*
X102525999Y-30970999D02*
X102679999Y-30947999D01*
X102679999Y-30947999D02*
X102907999Y-30912999D01*
X102907999Y-30912999D02*
X103270999Y-30825999D01*
X103270999Y-30825999D02*
X103782999Y-30656999D01*
X103782999Y-30656999D02*
X102003399Y-30662399D01*
X102003399Y-30662399D02*
X102003399Y-31012399D01*
X102003399Y-31012399D02*
X102141999Y-31003999D01*
X102141999Y-31003999D02*
X102328399Y-30991149D01*
G36*
X103270999Y-30825999D02*
G01*
X102907999Y-30912999D01*
X102679999Y-30947999D01*
X102525999Y-30970999D01*
X102328399Y-30991149D01*
X102141999Y-31003999D01*
X102003399Y-31012399D01*
X102003399Y-30662399D01*
X103782999Y-30656999D01*
X103270999Y-30825999D01*
G37*
X103270999Y-30825999D02*
X102907999Y-30912999D01*
X102679999Y-30947999D01*
X102525999Y-30970999D01*
X102328399Y-30991149D01*
X102141999Y-31003999D01*
X102003399Y-31012399D01*
X102003399Y-30662399D01*
X103782999Y-30656999D01*
X103270999Y-30825999D01*
D10*
%TO.C,FEED 2*%
X103123000Y-80265000D02*
G75*
G02*
X103095000Y-87734000I-1113900J-3730377D01*
G01*
D11*
X104982000Y-84486000D02*
X102003400Y-84559400D01*
X102003400Y-84559400D02*
X102003000Y-88996000D01*
X102003000Y-88996000D02*
X103284000Y-88810000D01*
X103284000Y-88810000D02*
X104982000Y-84486000D01*
G36*
X103284000Y-88810000D02*
G01*
X102003000Y-88996000D01*
X102003400Y-84559400D01*
X104982000Y-84486000D01*
X103284000Y-88810000D01*
G37*
X103284000Y-88810000D02*
X102003000Y-88996000D01*
X102003400Y-84559400D01*
X104982000Y-84486000D01*
X103284000Y-88810000D01*
X103262400Y-79161400D02*
X103092400Y-79121400D01*
X103092400Y-79121400D02*
X102892400Y-79081400D01*
X102892400Y-79081400D02*
X102642400Y-79041400D01*
X102642400Y-79041400D02*
X102452400Y-79021400D01*
X102452400Y-79021400D02*
X102302400Y-79011400D01*
X102302400Y-79011400D02*
X102092400Y-79001400D01*
X102092400Y-79001400D02*
X102002400Y-79001400D01*
X102002400Y-79001400D02*
X103472400Y-79221400D01*
X103472400Y-79221400D02*
X103262400Y-79161400D01*
G36*
X102302400Y-79011400D02*
G01*
X102452400Y-79021400D01*
X102642400Y-79041400D01*
X102892400Y-79081400D01*
X103092400Y-79121400D01*
X103262400Y-79161400D01*
X103472400Y-79221400D01*
X102002400Y-79001400D01*
X102092400Y-79001400D01*
X102302400Y-79011400D01*
G37*
X102302400Y-79011400D02*
X102452400Y-79021400D01*
X102642400Y-79041400D01*
X102892400Y-79081400D01*
X103092400Y-79121400D01*
X103262400Y-79161400D01*
X103472400Y-79221400D01*
X102002400Y-79001400D01*
X102092400Y-79001400D01*
X102302400Y-79011400D01*
X103467943Y-79215867D02*
X101997943Y-78995867D01*
X101997943Y-78995867D02*
X101994721Y-83440125D01*
X101994721Y-83440125D02*
X102616000Y-83445000D01*
X102616000Y-83445000D02*
X102597000Y-84567000D01*
X102597000Y-84567000D02*
X105240000Y-84486000D01*
X105240000Y-84486000D02*
X103467943Y-79215867D01*
G36*
X103467943Y-79215867D02*
G01*
X105240000Y-84486000D01*
X102597000Y-84567000D01*
X102616000Y-83445000D01*
X101994721Y-83440125D01*
X101997943Y-78995867D01*
X103467943Y-79215867D01*
G37*
X103467943Y-79215867D02*
X105240000Y-84486000D01*
X102597000Y-84567000D01*
X102616000Y-83445000D01*
X101994721Y-83440125D01*
X101997943Y-78995867D01*
X103467943Y-79215867D01*
X102613400Y-83439400D02*
X102023400Y-83439400D01*
X102023400Y-83439400D02*
X102113400Y-83459400D01*
X102113400Y-83459400D02*
X102223400Y-83499400D01*
X102223400Y-83499400D02*
X102323400Y-83549400D01*
X102323400Y-83549400D02*
X102413400Y-83619400D01*
X102413400Y-83619400D02*
X102473400Y-83689400D01*
X102473400Y-83689400D02*
X102540900Y-83825650D01*
X102540900Y-83825650D02*
X102552150Y-84048775D01*
X102552150Y-84048775D02*
X102514650Y-84190025D01*
X102514650Y-84190025D02*
X102463400Y-84279400D01*
X102463400Y-84279400D02*
X102413400Y-84349400D01*
X102413400Y-84349400D02*
X102353400Y-84419400D01*
X102353400Y-84419400D02*
X102283400Y-84479400D01*
X102283400Y-84479400D02*
X102213400Y-84519400D01*
X102213400Y-84519400D02*
X102113400Y-84559400D01*
X102113400Y-84559400D02*
X102613400Y-84559400D01*
X102613400Y-84559400D02*
X102613400Y-83439400D01*
G36*
X102613400Y-84559400D02*
G01*
X102113400Y-84559400D01*
X102213400Y-84519400D01*
X102283400Y-84479400D01*
X102353400Y-84419400D01*
X102413400Y-84349400D01*
X102463400Y-84279400D01*
X102514650Y-84190025D01*
X102552150Y-84048775D01*
X102540900Y-83825650D01*
X102473400Y-83689400D01*
X102413400Y-83619400D01*
X102323400Y-83549400D01*
X102223400Y-83499400D01*
X102113400Y-83459400D01*
X102023400Y-83439400D01*
X102613400Y-83439400D01*
X102613400Y-84559400D01*
G37*
X102613400Y-84559400D02*
X102113400Y-84559400D01*
X102213400Y-84519400D01*
X102283400Y-84479400D01*
X102353400Y-84419400D01*
X102413400Y-84349400D01*
X102463400Y-84279400D01*
X102514650Y-84190025D01*
X102552150Y-84048775D01*
X102540900Y-83825650D01*
X102473400Y-83689400D01*
X102413400Y-83619400D01*
X102323400Y-83549400D01*
X102223400Y-83499400D01*
X102113400Y-83459400D01*
X102023400Y-83439400D01*
X102613400Y-83439400D01*
X102613400Y-84559400D01*
X102328400Y-88991150D02*
X102526000Y-88971000D01*
X102526000Y-88971000D02*
X102680000Y-88948000D01*
X102680000Y-88948000D02*
X102908000Y-88913000D01*
X102908000Y-88913000D02*
X103271000Y-88826000D01*
X103271000Y-88826000D02*
X103783000Y-88657000D01*
X103783000Y-88657000D02*
X102003400Y-88662400D01*
X102003400Y-88662400D02*
X102003400Y-89012400D01*
X102003400Y-89012400D02*
X102142000Y-89004000D01*
X102142000Y-89004000D02*
X102328400Y-88991150D01*
G36*
X103271000Y-88826000D02*
G01*
X102908000Y-88913000D01*
X102680000Y-88948000D01*
X102526000Y-88971000D01*
X102328400Y-88991150D01*
X102142000Y-89004000D01*
X102003400Y-89012400D01*
X102003400Y-88662400D01*
X103783000Y-88657000D01*
X103271000Y-88826000D01*
G37*
X103271000Y-88826000D02*
X102908000Y-88913000D01*
X102680000Y-88948000D01*
X102526000Y-88971000D01*
X102328400Y-88991150D01*
X102142000Y-89004000D01*
X102003400Y-89012400D01*
X102003400Y-88662400D01*
X103783000Y-88657000D01*
X103271000Y-88826000D01*
D10*
%TO.C,FEED 3*%
X103123000Y-138265000D02*
G75*
G02*
X103095000Y-145734000I-1113900J-3730377D01*
G01*
D11*
X103262400Y-137161400D02*
X103092400Y-137121400D01*
X103092400Y-137121400D02*
X102892400Y-137081400D01*
X102892400Y-137081400D02*
X102642400Y-137041400D01*
X102642400Y-137041400D02*
X102452400Y-137021400D01*
X102452400Y-137021400D02*
X102302400Y-137011400D01*
X102302400Y-137011400D02*
X102092400Y-137001400D01*
X102092400Y-137001400D02*
X102002400Y-137001400D01*
X102002400Y-137001400D02*
X103472400Y-137221400D01*
X103472400Y-137221400D02*
X103262400Y-137161400D01*
G36*
X102302400Y-137011400D02*
G01*
X102452400Y-137021400D01*
X102642400Y-137041400D01*
X102892400Y-137081400D01*
X103092400Y-137121400D01*
X103262400Y-137161400D01*
X103472400Y-137221400D01*
X102002400Y-137001400D01*
X102092400Y-137001400D01*
X102302400Y-137011400D01*
G37*
X102302400Y-137011400D02*
X102452400Y-137021400D01*
X102642400Y-137041400D01*
X102892400Y-137081400D01*
X103092400Y-137121400D01*
X103262400Y-137161400D01*
X103472400Y-137221400D01*
X102002400Y-137001400D01*
X102092400Y-137001400D01*
X102302400Y-137011400D01*
X102328400Y-146991150D02*
X102526000Y-146971000D01*
X102526000Y-146971000D02*
X102680000Y-146948000D01*
X102680000Y-146948000D02*
X102908000Y-146913000D01*
X102908000Y-146913000D02*
X103271000Y-146826000D01*
X103271000Y-146826000D02*
X103783000Y-146657000D01*
X103783000Y-146657000D02*
X102003400Y-146662400D01*
X102003400Y-146662400D02*
X102003400Y-147012400D01*
X102003400Y-147012400D02*
X102142000Y-147004000D01*
X102142000Y-147004000D02*
X102328400Y-146991150D01*
G36*
X103271000Y-146826000D02*
G01*
X102908000Y-146913000D01*
X102680000Y-146948000D01*
X102526000Y-146971000D01*
X102328400Y-146991150D01*
X102142000Y-147004000D01*
X102003400Y-147012400D01*
X102003400Y-146662400D01*
X103783000Y-146657000D01*
X103271000Y-146826000D01*
G37*
X103271000Y-146826000D02*
X102908000Y-146913000D01*
X102680000Y-146948000D01*
X102526000Y-146971000D01*
X102328400Y-146991150D01*
X102142000Y-147004000D01*
X102003400Y-147012400D01*
X102003400Y-146662400D01*
X103783000Y-146657000D01*
X103271000Y-146826000D01*
X104982000Y-142486000D02*
X102003400Y-142559400D01*
X102003400Y-142559400D02*
X102003000Y-146996000D01*
X102003000Y-146996000D02*
X103284000Y-146810000D01*
X103284000Y-146810000D02*
X104982000Y-142486000D01*
G36*
X103284000Y-146810000D02*
G01*
X102003000Y-146996000D01*
X102003400Y-142559400D01*
X104982000Y-142486000D01*
X103284000Y-146810000D01*
G37*
X103284000Y-146810000D02*
X102003000Y-146996000D01*
X102003400Y-142559400D01*
X104982000Y-142486000D01*
X103284000Y-146810000D01*
X102613400Y-141439400D02*
X102023400Y-141439400D01*
X102023400Y-141439400D02*
X102113400Y-141459400D01*
X102113400Y-141459400D02*
X102223400Y-141499400D01*
X102223400Y-141499400D02*
X102323400Y-141549400D01*
X102323400Y-141549400D02*
X102413400Y-141619400D01*
X102413400Y-141619400D02*
X102473400Y-141689400D01*
X102473400Y-141689400D02*
X102540900Y-141825650D01*
X102540900Y-141825650D02*
X102552150Y-142048775D01*
X102552150Y-142048775D02*
X102514650Y-142190025D01*
X102514650Y-142190025D02*
X102463400Y-142279400D01*
X102463400Y-142279400D02*
X102413400Y-142349400D01*
X102413400Y-142349400D02*
X102353400Y-142419400D01*
X102353400Y-142419400D02*
X102283400Y-142479400D01*
X102283400Y-142479400D02*
X102213400Y-142519400D01*
X102213400Y-142519400D02*
X102113400Y-142559400D01*
X102113400Y-142559400D02*
X102613400Y-142559400D01*
X102613400Y-142559400D02*
X102613400Y-141439400D01*
G36*
X102613400Y-142559400D02*
G01*
X102113400Y-142559400D01*
X102213400Y-142519400D01*
X102283400Y-142479400D01*
X102353400Y-142419400D01*
X102413400Y-142349400D01*
X102463400Y-142279400D01*
X102514650Y-142190025D01*
X102552150Y-142048775D01*
X102540900Y-141825650D01*
X102473400Y-141689400D01*
X102413400Y-141619400D01*
X102323400Y-141549400D01*
X102223400Y-141499400D01*
X102113400Y-141459400D01*
X102023400Y-141439400D01*
X102613400Y-141439400D01*
X102613400Y-142559400D01*
G37*
X102613400Y-142559400D02*
X102113400Y-142559400D01*
X102213400Y-142519400D01*
X102283400Y-142479400D01*
X102353400Y-142419400D01*
X102413400Y-142349400D01*
X102463400Y-142279400D01*
X102514650Y-142190025D01*
X102552150Y-142048775D01*
X102540900Y-141825650D01*
X102473400Y-141689400D01*
X102413400Y-141619400D01*
X102323400Y-141549400D01*
X102223400Y-141499400D01*
X102113400Y-141459400D01*
X102023400Y-141439400D01*
X102613400Y-141439400D01*
X102613400Y-142559400D01*
X103467943Y-137215867D02*
X101997943Y-136995867D01*
X101997943Y-136995867D02*
X101994721Y-141440125D01*
X101994721Y-141440125D02*
X102616000Y-141445000D01*
X102616000Y-141445000D02*
X102597000Y-142567000D01*
X102597000Y-142567000D02*
X105240000Y-142486000D01*
X105240000Y-142486000D02*
X103467943Y-137215867D01*
G36*
X103467943Y-137215867D02*
G01*
X105240000Y-142486000D01*
X102597000Y-142567000D01*
X102616000Y-141445000D01*
X101994721Y-141440125D01*
X101997943Y-136995867D01*
X103467943Y-137215867D01*
G37*
X103467943Y-137215867D02*
X105240000Y-142486000D01*
X102597000Y-142567000D01*
X102616000Y-141445000D01*
X101994721Y-141440125D01*
X101997943Y-136995867D01*
X103467943Y-137215867D01*
%TD*%
D12*
%TO.C,H11*%
X16000000Y-113000000D03*
D13*
X16000000Y-113000000D03*
%TD*%
%TO.C,H12*%
X170000000Y-113000000D03*
D12*
X170000000Y-113000000D03*
%TD*%
D13*
%TO.C,H10*%
X93000000Y-5000000D03*
D12*
X93000000Y-5000000D03*
%TD*%
%TO.C,H3*%
X12000000Y-208000000D03*
D13*
X12000000Y-208000000D03*
%TD*%
D12*
%TO.C,H1*%
X12000000Y-18000000D03*
D13*
X12000000Y-18000000D03*
%TD*%
%TO.C,H2*%
X174000000Y-18000000D03*
D12*
X174000000Y-18000000D03*
%TD*%
%TO.C,H12*%
X93000000Y-113000000D03*
D13*
X93000000Y-113000000D03*
%TD*%
%TO.C,H4*%
X174000000Y-208000000D03*
D12*
X174000000Y-208000000D03*
%TD*%
D13*
%TO.C,H9*%
X93000000Y-221000000D03*
D12*
X93000000Y-221000000D03*
%TD*%
M02*
