%TF.GenerationSoftware,KiCad,Pcbnew,5.99.0-unknown-f19440f72~106~ubuntu20.04.1*%
%TF.CreationDate,2020-11-18T11:03:41-06:00*%
%TF.ProjectId,FlatAntPanel4x4,466c6174-416e-4745-9061-6e656c347834,rev?*%
%TF.SameCoordinates,Original*%
%TF.FileFunction,Soldermask,Bot*%
%TF.FilePolarity,Negative*%
%FSLAX46Y46*%
G04 Gerber Fmt 4.6, Leading zero omitted, Abs format (unit mm)*
G04 Created by KiCad (PCBNEW 5.99.0-unknown-f19440f72~106~ubuntu20.04.1) date 2020-11-18 11:03:41*
%MOMM*%
%LPD*%
G01*
G04 APERTURE LIST*
%ADD10C,2.500000*%
%ADD11C,0.000100*%
%ADD12C,2.900000*%
%ADD13C,5.000000*%
G04 APERTURE END LIST*
D10*
%TO.C,AE2*%
X106063695Y-87585347D02*
G75*
G03*
X106053400Y-80215762I-1419607J3682817D01*
G01*
D11*
X107553400Y-83440600D02*
X104803400Y-83440600D01*
X104803400Y-83440600D02*
X104803400Y-78960600D01*
X104803400Y-78960600D02*
X106093400Y-78960600D01*
X106093400Y-78960600D02*
X107553400Y-83440600D01*
G36*
X107553400Y-83440600D02*
G01*
X104803400Y-83440600D01*
X104803400Y-78960600D01*
X106093400Y-78960600D01*
X107553400Y-83440600D01*
G37*
X107553400Y-83440600D02*
X104803400Y-83440600D01*
X104803400Y-78960600D01*
X106093400Y-78960600D01*
X107553400Y-83440600D01*
X107373400Y-84550600D02*
X105343400Y-84550600D01*
X105343400Y-84550600D02*
X105343400Y-83440600D01*
X105343400Y-83440600D02*
X107373400Y-83440600D01*
X107373400Y-83440600D02*
X107373400Y-84550600D01*
G36*
X107373400Y-84550600D02*
G01*
X105343400Y-84550600D01*
X105343400Y-83440600D01*
X107373400Y-83440600D01*
X107373400Y-84550600D01*
G37*
X107373400Y-84550600D02*
X105343400Y-84550600D01*
X105343400Y-83440600D01*
X107373400Y-83440600D01*
X107373400Y-84550600D01*
X106063400Y-88880600D02*
X105893400Y-88920600D01*
X105893400Y-88920600D02*
X105693400Y-88960600D01*
X105693400Y-88960600D02*
X105443400Y-89000600D01*
X105443400Y-89000600D02*
X105253400Y-89020600D01*
X105253400Y-89020600D02*
X105103400Y-89030600D01*
X105103400Y-89030600D02*
X104893400Y-89040600D01*
X104893400Y-89040600D02*
X104803400Y-89040600D01*
X104803400Y-89040600D02*
X106273400Y-88820600D01*
X106273400Y-88820600D02*
X106063400Y-88880600D01*
G36*
X106063400Y-88880600D02*
G01*
X105893400Y-88920600D01*
X105693400Y-88960600D01*
X105443400Y-89000600D01*
X105253400Y-89020600D01*
X105103400Y-89030600D01*
X104893400Y-89040600D01*
X104803400Y-89040600D01*
X106273400Y-88820600D01*
X106063400Y-88880600D01*
G37*
X106063400Y-88880600D02*
X105893400Y-88920600D01*
X105693400Y-88960600D01*
X105443400Y-89000600D01*
X105253400Y-89020600D01*
X105103400Y-89030600D01*
X104893400Y-89040600D01*
X104803400Y-89040600D01*
X106273400Y-88820600D01*
X106063400Y-88880600D01*
X105413400Y-84560600D02*
X104823400Y-84560600D01*
X104823400Y-84560600D02*
X104913400Y-84540600D01*
X104913400Y-84540600D02*
X105023400Y-84500600D01*
X105023400Y-84500600D02*
X105123400Y-84450600D01*
X105123400Y-84450600D02*
X105213400Y-84380600D01*
X105213400Y-84380600D02*
X105273400Y-84310600D01*
X105273400Y-84310600D02*
X105340900Y-84174350D01*
X105340900Y-84174350D02*
X105352150Y-83951225D01*
X105352150Y-83951225D02*
X105314650Y-83809975D01*
X105314650Y-83809975D02*
X105263400Y-83720600D01*
X105263400Y-83720600D02*
X105213400Y-83650600D01*
X105213400Y-83650600D02*
X105153400Y-83580600D01*
X105153400Y-83580600D02*
X105083400Y-83520600D01*
X105083400Y-83520600D02*
X105013400Y-83480600D01*
X105013400Y-83480600D02*
X104913400Y-83440600D01*
X104913400Y-83440600D02*
X105413400Y-83440600D01*
X105413400Y-83440600D02*
X105413400Y-84560600D01*
G36*
X105413400Y-84560600D02*
G01*
X104823400Y-84560600D01*
X104913400Y-84540600D01*
X105023400Y-84500600D01*
X105123400Y-84450600D01*
X105213400Y-84380600D01*
X105273400Y-84310600D01*
X105340900Y-84174350D01*
X105352150Y-83951225D01*
X105314650Y-83809975D01*
X105263400Y-83720600D01*
X105213400Y-83650600D01*
X105153400Y-83580600D01*
X105083400Y-83520600D01*
X105013400Y-83480600D01*
X104913400Y-83440600D01*
X105413400Y-83440600D01*
X105413400Y-84560600D01*
G37*
X105413400Y-84560600D02*
X104823400Y-84560600D01*
X104913400Y-84540600D01*
X105023400Y-84500600D01*
X105123400Y-84450600D01*
X105213400Y-84380600D01*
X105273400Y-84310600D01*
X105340900Y-84174350D01*
X105352150Y-83951225D01*
X105314650Y-83809975D01*
X105263400Y-83720600D01*
X105213400Y-83650600D01*
X105153400Y-83580600D01*
X105083400Y-83520600D01*
X105013400Y-83480600D01*
X104913400Y-83440600D01*
X105413400Y-83440600D01*
X105413400Y-84560600D01*
X105128400Y-78641850D02*
X105323400Y-78680600D01*
X105323400Y-78680600D02*
X105483400Y-78710600D01*
X105483400Y-78710600D02*
X105683400Y-78760600D01*
X105683400Y-78760600D02*
X106013400Y-78870600D01*
X106013400Y-78870600D02*
X106393400Y-79010600D01*
X106393400Y-79010600D02*
X104803400Y-78970600D01*
X104803400Y-78970600D02*
X104803400Y-78620600D01*
X104803400Y-78620600D02*
X104933400Y-78620600D01*
X104933400Y-78620600D02*
X105128400Y-78641850D01*
G36*
X105128400Y-78641850D02*
G01*
X105323400Y-78680600D01*
X105483400Y-78710600D01*
X105683400Y-78760600D01*
X106013400Y-78870600D01*
X106393400Y-79010600D01*
X104803400Y-78970600D01*
X104803400Y-78620600D01*
X104933400Y-78620600D01*
X105128400Y-78641850D01*
G37*
X105128400Y-78641850D02*
X105323400Y-78680600D01*
X105483400Y-78710600D01*
X105683400Y-78760600D01*
X106013400Y-78870600D01*
X106393400Y-79010600D01*
X104803400Y-78970600D01*
X104803400Y-78620600D01*
X104933400Y-78620600D01*
X105128400Y-78641850D01*
X106273400Y-88820600D02*
X104803400Y-89040600D01*
X104803400Y-89040600D02*
X104803400Y-84545515D01*
X104803400Y-84545515D02*
X107303400Y-84540600D01*
X107303400Y-84540600D02*
X106273400Y-88820600D01*
G36*
X106273400Y-88820600D02*
G01*
X104803400Y-89040600D01*
X104803400Y-84545515D01*
X107303400Y-84540600D01*
X106273400Y-88820600D01*
G37*
X106273400Y-88820600D02*
X104803400Y-89040600D01*
X104803400Y-84545515D01*
X107303400Y-84540600D01*
X106273400Y-88820600D01*
D10*
%TO.C,AE1*%
X106063695Y-29585347D02*
G75*
G03*
X106053400Y-22215762I-1419607J3682817D01*
G01*
D11*
X107373400Y-26550600D02*
X105343400Y-26550600D01*
X105343400Y-26550600D02*
X105343400Y-25440600D01*
X105343400Y-25440600D02*
X107373400Y-25440600D01*
X107373400Y-25440600D02*
X107373400Y-26550600D01*
G36*
X107373400Y-26550600D02*
G01*
X105343400Y-26550600D01*
X105343400Y-25440600D01*
X107373400Y-25440600D01*
X107373400Y-26550600D01*
G37*
X107373400Y-26550600D02*
X105343400Y-26550600D01*
X105343400Y-25440600D01*
X107373400Y-25440600D01*
X107373400Y-26550600D01*
X106063400Y-30880600D02*
X105893400Y-30920600D01*
X105893400Y-30920600D02*
X105693400Y-30960600D01*
X105693400Y-30960600D02*
X105443400Y-31000600D01*
X105443400Y-31000600D02*
X105253400Y-31020600D01*
X105253400Y-31020600D02*
X105103400Y-31030600D01*
X105103400Y-31030600D02*
X104893400Y-31040600D01*
X104893400Y-31040600D02*
X104803400Y-31040600D01*
X104803400Y-31040600D02*
X106273400Y-30820600D01*
X106273400Y-30820600D02*
X106063400Y-30880600D01*
G36*
X106063400Y-30880600D02*
G01*
X105893400Y-30920600D01*
X105693400Y-30960600D01*
X105443400Y-31000600D01*
X105253400Y-31020600D01*
X105103400Y-31030600D01*
X104893400Y-31040600D01*
X104803400Y-31040600D01*
X106273400Y-30820600D01*
X106063400Y-30880600D01*
G37*
X106063400Y-30880600D02*
X105893400Y-30920600D01*
X105693400Y-30960600D01*
X105443400Y-31000600D01*
X105253400Y-31020600D01*
X105103400Y-31030600D01*
X104893400Y-31040600D01*
X104803400Y-31040600D01*
X106273400Y-30820600D01*
X106063400Y-30880600D01*
X106273400Y-30820600D02*
X104803400Y-31040600D01*
X104803400Y-31040600D02*
X104803400Y-26545515D01*
X104803400Y-26545515D02*
X107303400Y-26540600D01*
X107303400Y-26540600D02*
X106273400Y-30820600D01*
G36*
X106273400Y-30820600D02*
G01*
X104803400Y-31040600D01*
X104803400Y-26545515D01*
X107303400Y-26540600D01*
X106273400Y-30820600D01*
G37*
X106273400Y-30820600D02*
X104803400Y-31040600D01*
X104803400Y-26545515D01*
X107303400Y-26540600D01*
X106273400Y-30820600D01*
X105128400Y-20641850D02*
X105323400Y-20680600D01*
X105323400Y-20680600D02*
X105483400Y-20710600D01*
X105483400Y-20710600D02*
X105683400Y-20760600D01*
X105683400Y-20760600D02*
X106013400Y-20870600D01*
X106013400Y-20870600D02*
X106393400Y-21010600D01*
X106393400Y-21010600D02*
X104803400Y-20970600D01*
X104803400Y-20970600D02*
X104803400Y-20620600D01*
X104803400Y-20620600D02*
X104933400Y-20620600D01*
X104933400Y-20620600D02*
X105128400Y-20641850D01*
G36*
X105128400Y-20641850D02*
G01*
X105323400Y-20680600D01*
X105483400Y-20710600D01*
X105683400Y-20760600D01*
X106013400Y-20870600D01*
X106393400Y-21010600D01*
X104803400Y-20970600D01*
X104803400Y-20620600D01*
X104933400Y-20620600D01*
X105128400Y-20641850D01*
G37*
X105128400Y-20641850D02*
X105323400Y-20680600D01*
X105483400Y-20710600D01*
X105683400Y-20760600D01*
X106013400Y-20870600D01*
X106393400Y-21010600D01*
X104803400Y-20970600D01*
X104803400Y-20620600D01*
X104933400Y-20620600D01*
X105128400Y-20641850D01*
X107553400Y-25440600D02*
X104803400Y-25440600D01*
X104803400Y-25440600D02*
X104803400Y-20960600D01*
X104803400Y-20960600D02*
X106093400Y-20960600D01*
X106093400Y-20960600D02*
X107553400Y-25440600D01*
G36*
X107553400Y-25440600D02*
G01*
X104803400Y-25440600D01*
X104803400Y-20960600D01*
X106093400Y-20960600D01*
X107553400Y-25440600D01*
G37*
X107553400Y-25440600D02*
X104803400Y-25440600D01*
X104803400Y-20960600D01*
X106093400Y-20960600D01*
X107553400Y-25440600D01*
X105413400Y-26560600D02*
X104823400Y-26560600D01*
X104823400Y-26560600D02*
X104913400Y-26540600D01*
X104913400Y-26540600D02*
X105023400Y-26500600D01*
X105023400Y-26500600D02*
X105123400Y-26450600D01*
X105123400Y-26450600D02*
X105213400Y-26380600D01*
X105213400Y-26380600D02*
X105273400Y-26310600D01*
X105273400Y-26310600D02*
X105340900Y-26174350D01*
X105340900Y-26174350D02*
X105352150Y-25951225D01*
X105352150Y-25951225D02*
X105314650Y-25809975D01*
X105314650Y-25809975D02*
X105263400Y-25720600D01*
X105263400Y-25720600D02*
X105213400Y-25650600D01*
X105213400Y-25650600D02*
X105153400Y-25580600D01*
X105153400Y-25580600D02*
X105083400Y-25520600D01*
X105083400Y-25520600D02*
X105013400Y-25480600D01*
X105013400Y-25480600D02*
X104913400Y-25440600D01*
X104913400Y-25440600D02*
X105413400Y-25440600D01*
X105413400Y-25440600D02*
X105413400Y-26560600D01*
G36*
X105413400Y-26560600D02*
G01*
X104823400Y-26560600D01*
X104913400Y-26540600D01*
X105023400Y-26500600D01*
X105123400Y-26450600D01*
X105213400Y-26380600D01*
X105273400Y-26310600D01*
X105340900Y-26174350D01*
X105352150Y-25951225D01*
X105314650Y-25809975D01*
X105263400Y-25720600D01*
X105213400Y-25650600D01*
X105153400Y-25580600D01*
X105083400Y-25520600D01*
X105013400Y-25480600D01*
X104913400Y-25440600D01*
X105413400Y-25440600D01*
X105413400Y-26560600D01*
G37*
X105413400Y-26560600D02*
X104823400Y-26560600D01*
X104913400Y-26540600D01*
X105023400Y-26500600D01*
X105123400Y-26450600D01*
X105213400Y-26380600D01*
X105273400Y-26310600D01*
X105340900Y-26174350D01*
X105352150Y-25951225D01*
X105314650Y-25809975D01*
X105263400Y-25720600D01*
X105213400Y-25650600D01*
X105153400Y-25580600D01*
X105083400Y-25520600D01*
X105013400Y-25480600D01*
X104913400Y-25440600D01*
X105413400Y-25440600D01*
X105413400Y-26560600D01*
D10*
%TO.C,AE3*%
X106063695Y-145585347D02*
G75*
G03*
X106053400Y-138215762I-1419607J3682817D01*
G01*
D11*
X106063400Y-146880600D02*
X105893400Y-146920600D01*
X105893400Y-146920600D02*
X105693400Y-146960600D01*
X105693400Y-146960600D02*
X105443400Y-147000600D01*
X105443400Y-147000600D02*
X105253400Y-147020600D01*
X105253400Y-147020600D02*
X105103400Y-147030600D01*
X105103400Y-147030600D02*
X104893400Y-147040600D01*
X104893400Y-147040600D02*
X104803400Y-147040600D01*
X104803400Y-147040600D02*
X106273400Y-146820600D01*
X106273400Y-146820600D02*
X106063400Y-146880600D01*
G36*
X106063400Y-146880600D02*
G01*
X105893400Y-146920600D01*
X105693400Y-146960600D01*
X105443400Y-147000600D01*
X105253400Y-147020600D01*
X105103400Y-147030600D01*
X104893400Y-147040600D01*
X104803400Y-147040600D01*
X106273400Y-146820600D01*
X106063400Y-146880600D01*
G37*
X106063400Y-146880600D02*
X105893400Y-146920600D01*
X105693400Y-146960600D01*
X105443400Y-147000600D01*
X105253400Y-147020600D01*
X105103400Y-147030600D01*
X104893400Y-147040600D01*
X104803400Y-147040600D01*
X106273400Y-146820600D01*
X106063400Y-146880600D01*
X107373400Y-142550600D02*
X105343400Y-142550600D01*
X105343400Y-142550600D02*
X105343400Y-141440600D01*
X105343400Y-141440600D02*
X107373400Y-141440600D01*
X107373400Y-141440600D02*
X107373400Y-142550600D01*
G36*
X107373400Y-142550600D02*
G01*
X105343400Y-142550600D01*
X105343400Y-141440600D01*
X107373400Y-141440600D01*
X107373400Y-142550600D01*
G37*
X107373400Y-142550600D02*
X105343400Y-142550600D01*
X105343400Y-141440600D01*
X107373400Y-141440600D01*
X107373400Y-142550600D01*
X105128400Y-136641850D02*
X105323400Y-136680600D01*
X105323400Y-136680600D02*
X105483400Y-136710600D01*
X105483400Y-136710600D02*
X105683400Y-136760600D01*
X105683400Y-136760600D02*
X106013400Y-136870600D01*
X106013400Y-136870600D02*
X106393400Y-137010600D01*
X106393400Y-137010600D02*
X104803400Y-136970600D01*
X104803400Y-136970600D02*
X104803400Y-136620600D01*
X104803400Y-136620600D02*
X104933400Y-136620600D01*
X104933400Y-136620600D02*
X105128400Y-136641850D01*
G36*
X105128400Y-136641850D02*
G01*
X105323400Y-136680600D01*
X105483400Y-136710600D01*
X105683400Y-136760600D01*
X106013400Y-136870600D01*
X106393400Y-137010600D01*
X104803400Y-136970600D01*
X104803400Y-136620600D01*
X104933400Y-136620600D01*
X105128400Y-136641850D01*
G37*
X105128400Y-136641850D02*
X105323400Y-136680600D01*
X105483400Y-136710600D01*
X105683400Y-136760600D01*
X106013400Y-136870600D01*
X106393400Y-137010600D01*
X104803400Y-136970600D01*
X104803400Y-136620600D01*
X104933400Y-136620600D01*
X105128400Y-136641850D01*
X105413400Y-142560600D02*
X104823400Y-142560600D01*
X104823400Y-142560600D02*
X104913400Y-142540600D01*
X104913400Y-142540600D02*
X105023400Y-142500600D01*
X105023400Y-142500600D02*
X105123400Y-142450600D01*
X105123400Y-142450600D02*
X105213400Y-142380600D01*
X105213400Y-142380600D02*
X105273400Y-142310600D01*
X105273400Y-142310600D02*
X105340900Y-142174350D01*
X105340900Y-142174350D02*
X105352150Y-141951225D01*
X105352150Y-141951225D02*
X105314650Y-141809975D01*
X105314650Y-141809975D02*
X105263400Y-141720600D01*
X105263400Y-141720600D02*
X105213400Y-141650600D01*
X105213400Y-141650600D02*
X105153400Y-141580600D01*
X105153400Y-141580600D02*
X105083400Y-141520600D01*
X105083400Y-141520600D02*
X105013400Y-141480600D01*
X105013400Y-141480600D02*
X104913400Y-141440600D01*
X104913400Y-141440600D02*
X105413400Y-141440600D01*
X105413400Y-141440600D02*
X105413400Y-142560600D01*
G36*
X105413400Y-142560600D02*
G01*
X104823400Y-142560600D01*
X104913400Y-142540600D01*
X105023400Y-142500600D01*
X105123400Y-142450600D01*
X105213400Y-142380600D01*
X105273400Y-142310600D01*
X105340900Y-142174350D01*
X105352150Y-141951225D01*
X105314650Y-141809975D01*
X105263400Y-141720600D01*
X105213400Y-141650600D01*
X105153400Y-141580600D01*
X105083400Y-141520600D01*
X105013400Y-141480600D01*
X104913400Y-141440600D01*
X105413400Y-141440600D01*
X105413400Y-142560600D01*
G37*
X105413400Y-142560600D02*
X104823400Y-142560600D01*
X104913400Y-142540600D01*
X105023400Y-142500600D01*
X105123400Y-142450600D01*
X105213400Y-142380600D01*
X105273400Y-142310600D01*
X105340900Y-142174350D01*
X105352150Y-141951225D01*
X105314650Y-141809975D01*
X105263400Y-141720600D01*
X105213400Y-141650600D01*
X105153400Y-141580600D01*
X105083400Y-141520600D01*
X105013400Y-141480600D01*
X104913400Y-141440600D01*
X105413400Y-141440600D01*
X105413400Y-142560600D01*
X107553400Y-141440600D02*
X104803400Y-141440600D01*
X104803400Y-141440600D02*
X104803400Y-136960600D01*
X104803400Y-136960600D02*
X106093400Y-136960600D01*
X106093400Y-136960600D02*
X107553400Y-141440600D01*
G36*
X107553400Y-141440600D02*
G01*
X104803400Y-141440600D01*
X104803400Y-136960600D01*
X106093400Y-136960600D01*
X107553400Y-141440600D01*
G37*
X107553400Y-141440600D02*
X104803400Y-141440600D01*
X104803400Y-136960600D01*
X106093400Y-136960600D01*
X107553400Y-141440600D01*
X106273400Y-146820600D02*
X104803400Y-147040600D01*
X104803400Y-147040600D02*
X104803400Y-142545515D01*
X104803400Y-142545515D02*
X107303400Y-142540600D01*
X107303400Y-142540600D02*
X106273400Y-146820600D01*
G36*
X106273400Y-146820600D02*
G01*
X104803400Y-147040600D01*
X104803400Y-142545515D01*
X107303400Y-142540600D01*
X106273400Y-146820600D01*
G37*
X106273400Y-146820600D02*
X104803400Y-147040600D01*
X104803400Y-142545515D01*
X107303400Y-142540600D01*
X106273400Y-146820600D01*
D10*
%TO.C,AE4*%
X106063695Y-203585347D02*
G75*
G03*
X106053400Y-196215762I-1419607J3682817D01*
G01*
D11*
X107373400Y-200550600D02*
X105343400Y-200550600D01*
X105343400Y-200550600D02*
X105343400Y-199440600D01*
X105343400Y-199440600D02*
X107373400Y-199440600D01*
X107373400Y-199440600D02*
X107373400Y-200550600D01*
G36*
X107373400Y-200550600D02*
G01*
X105343400Y-200550600D01*
X105343400Y-199440600D01*
X107373400Y-199440600D01*
X107373400Y-200550600D01*
G37*
X107373400Y-200550600D02*
X105343400Y-200550600D01*
X105343400Y-199440600D01*
X107373400Y-199440600D01*
X107373400Y-200550600D01*
X107553400Y-199440600D02*
X104803400Y-199440600D01*
X104803400Y-199440600D02*
X104803400Y-194960600D01*
X104803400Y-194960600D02*
X106093400Y-194960600D01*
X106093400Y-194960600D02*
X107553400Y-199440600D01*
G36*
X107553400Y-199440600D02*
G01*
X104803400Y-199440600D01*
X104803400Y-194960600D01*
X106093400Y-194960600D01*
X107553400Y-199440600D01*
G37*
X107553400Y-199440600D02*
X104803400Y-199440600D01*
X104803400Y-194960600D01*
X106093400Y-194960600D01*
X107553400Y-199440600D01*
X106063400Y-204880600D02*
X105893400Y-204920600D01*
X105893400Y-204920600D02*
X105693400Y-204960600D01*
X105693400Y-204960600D02*
X105443400Y-205000600D01*
X105443400Y-205000600D02*
X105253400Y-205020600D01*
X105253400Y-205020600D02*
X105103400Y-205030600D01*
X105103400Y-205030600D02*
X104893400Y-205040600D01*
X104893400Y-205040600D02*
X104803400Y-205040600D01*
X104803400Y-205040600D02*
X106273400Y-204820600D01*
X106273400Y-204820600D02*
X106063400Y-204880600D01*
G36*
X106063400Y-204880600D02*
G01*
X105893400Y-204920600D01*
X105693400Y-204960600D01*
X105443400Y-205000600D01*
X105253400Y-205020600D01*
X105103400Y-205030600D01*
X104893400Y-205040600D01*
X104803400Y-205040600D01*
X106273400Y-204820600D01*
X106063400Y-204880600D01*
G37*
X106063400Y-204880600D02*
X105893400Y-204920600D01*
X105693400Y-204960600D01*
X105443400Y-205000600D01*
X105253400Y-205020600D01*
X105103400Y-205030600D01*
X104893400Y-205040600D01*
X104803400Y-205040600D01*
X106273400Y-204820600D01*
X106063400Y-204880600D01*
X105128400Y-194641850D02*
X105323400Y-194680600D01*
X105323400Y-194680600D02*
X105483400Y-194710600D01*
X105483400Y-194710600D02*
X105683400Y-194760600D01*
X105683400Y-194760600D02*
X106013400Y-194870600D01*
X106013400Y-194870600D02*
X106393400Y-195010600D01*
X106393400Y-195010600D02*
X104803400Y-194970600D01*
X104803400Y-194970600D02*
X104803400Y-194620600D01*
X104803400Y-194620600D02*
X104933400Y-194620600D01*
X104933400Y-194620600D02*
X105128400Y-194641850D01*
G36*
X105128400Y-194641850D02*
G01*
X105323400Y-194680600D01*
X105483400Y-194710600D01*
X105683400Y-194760600D01*
X106013400Y-194870600D01*
X106393400Y-195010600D01*
X104803400Y-194970600D01*
X104803400Y-194620600D01*
X104933400Y-194620600D01*
X105128400Y-194641850D01*
G37*
X105128400Y-194641850D02*
X105323400Y-194680600D01*
X105483400Y-194710600D01*
X105683400Y-194760600D01*
X106013400Y-194870600D01*
X106393400Y-195010600D01*
X104803400Y-194970600D01*
X104803400Y-194620600D01*
X104933400Y-194620600D01*
X105128400Y-194641850D01*
X106273400Y-204820600D02*
X104803400Y-205040600D01*
X104803400Y-205040600D02*
X104803400Y-200545515D01*
X104803400Y-200545515D02*
X107303400Y-200540600D01*
X107303400Y-200540600D02*
X106273400Y-204820600D01*
G36*
X106273400Y-204820600D02*
G01*
X104803400Y-205040600D01*
X104803400Y-200545515D01*
X107303400Y-200540600D01*
X106273400Y-204820600D01*
G37*
X106273400Y-204820600D02*
X104803400Y-205040600D01*
X104803400Y-200545515D01*
X107303400Y-200540600D01*
X106273400Y-204820600D01*
X105413400Y-200560600D02*
X104823400Y-200560600D01*
X104823400Y-200560600D02*
X104913400Y-200540600D01*
X104913400Y-200540600D02*
X105023400Y-200500600D01*
X105023400Y-200500600D02*
X105123400Y-200450600D01*
X105123400Y-200450600D02*
X105213400Y-200380600D01*
X105213400Y-200380600D02*
X105273400Y-200310600D01*
X105273400Y-200310600D02*
X105340900Y-200174350D01*
X105340900Y-200174350D02*
X105352150Y-199951225D01*
X105352150Y-199951225D02*
X105314650Y-199809975D01*
X105314650Y-199809975D02*
X105263400Y-199720600D01*
X105263400Y-199720600D02*
X105213400Y-199650600D01*
X105213400Y-199650600D02*
X105153400Y-199580600D01*
X105153400Y-199580600D02*
X105083400Y-199520600D01*
X105083400Y-199520600D02*
X105013400Y-199480600D01*
X105013400Y-199480600D02*
X104913400Y-199440600D01*
X104913400Y-199440600D02*
X105413400Y-199440600D01*
X105413400Y-199440600D02*
X105413400Y-200560600D01*
G36*
X105413400Y-200560600D02*
G01*
X104823400Y-200560600D01*
X104913400Y-200540600D01*
X105023400Y-200500600D01*
X105123400Y-200450600D01*
X105213400Y-200380600D01*
X105273400Y-200310600D01*
X105340900Y-200174350D01*
X105352150Y-199951225D01*
X105314650Y-199809975D01*
X105263400Y-199720600D01*
X105213400Y-199650600D01*
X105153400Y-199580600D01*
X105083400Y-199520600D01*
X105013400Y-199480600D01*
X104913400Y-199440600D01*
X105413400Y-199440600D01*
X105413400Y-200560600D01*
G37*
X105413400Y-200560600D02*
X104823400Y-200560600D01*
X104913400Y-200540600D01*
X105023400Y-200500600D01*
X105123400Y-200450600D01*
X105213400Y-200380600D01*
X105273400Y-200310600D01*
X105340900Y-200174350D01*
X105352150Y-199951225D01*
X105314650Y-199809975D01*
X105263400Y-199720600D01*
X105213400Y-199650600D01*
X105153400Y-199580600D01*
X105083400Y-199520600D01*
X105013400Y-199480600D01*
X104913400Y-199440600D01*
X105413400Y-199440600D01*
X105413400Y-200560600D01*
%TD*%
D12*
%TO.C,H12*%
X170000000Y-113000000D03*
D13*
X170000000Y-113000000D03*
%TD*%
D12*
%TO.C,H4*%
X174000000Y-208000000D03*
D13*
X174000000Y-208000000D03*
%TD*%
D12*
%TO.C,H2*%
X174000000Y-18000000D03*
D13*
X174000000Y-18000000D03*
%TD*%
D12*
%TO.C,H3*%
X12000000Y-208000000D03*
D13*
X12000000Y-208000000D03*
%TD*%
%TO.C,H1*%
X12000000Y-18000000D03*
D12*
X12000000Y-18000000D03*
%TD*%
%TO.C,H11*%
X16000000Y-113000000D03*
D13*
X16000000Y-113000000D03*
%TD*%
M02*
