%TF.GenerationSoftware,KiCad,Pcbnew,5.99.0-unknown-64afa3a42e~128~ubuntu20.04.1*%
%TF.CreationDate,2021-05-14T16:41:19-05:00*%
%TF.ProjectId,FlatAntPanel4x4,466c6174-416e-4745-9061-6e656c347834,rev?*%
%TF.SameCoordinates,Original*%
%TF.FileFunction,Copper,L2,Bot*%
%TF.FilePolarity,Positive*%
%FSLAX46Y46*%
G04 Gerber Fmt 4.6, Leading zero omitted, Abs format (unit mm)*
G04 Created by KiCad (PCBNEW 5.99.0-unknown-64afa3a42e~128~ubuntu20.04.1) date 2021-05-14 16:41:19*
%MOMM*%
%LPD*%
G01*
G04 APERTURE LIST*
G04 Aperture macros list*
%AMFreePoly0*
4,1,13,0.997739,0.781656,0.997754,0.781621,0.997754,-0.782490,0.997739,-0.782525,0.997704,-0.782540,-1.001585,-0.782540,-1.001620,-0.782525,-1.001635,-0.782490,-1.001635,0.781620,-1.001620,0.781655,-1.001585,0.781670,0.997704,0.781671,0.997739,0.781656,0.997739,0.781656,$1*%
G04 Aperture macros list end*
%TA.AperFunction,EtchedComponent*%
%ADD10C,0.000100*%
%TD*%
%TA.AperFunction,EtchedComponent*%
%ADD11C,0.001000*%
%TD*%
%TA.AperFunction,ConnectorPad*%
%ADD12C,5.000000*%
%TD*%
%TA.AperFunction,ComponentPad*%
%ADD13C,2.900000*%
%TD*%
%TA.AperFunction,SMDPad,CuDef*%
%ADD14R,0.313000X0.313000*%
%TD*%
%TA.AperFunction,SMDPad,CuDef*%
%ADD15R,0.180000X0.313000*%
%TD*%
%TA.AperFunction,SMDPad,CuDef*%
%ADD16R,1.476000X1.476000*%
%TD*%
%TA.AperFunction,SMDPad,CuDef*%
%ADD17R,1.476000X1.400000*%
%TD*%
%TA.AperFunction,WasherPad*%
%ADD18C,1.565000*%
%TD*%
%TA.AperFunction,SMDPad,CuDef*%
%ADD19FreePoly0,0.000000*%
%TD*%
%TA.AperFunction,Conductor*%
%ADD20C,0.313000*%
%TD*%
G04 APERTURE END LIST*
D10*
%TO.C,AA4*%
X145656000Y-40343500D02*
X145656000Y-40030500D01*
X145656000Y-40030500D02*
X145343000Y-40030500D01*
X145343000Y-40030500D02*
X145343000Y-40343500D01*
X145343000Y-40343500D02*
X145030000Y-40343500D01*
X145030000Y-40343500D02*
X145030000Y-40656500D01*
X145030000Y-40656500D02*
X145343000Y-40656500D01*
X145343000Y-40656500D02*
X145656000Y-40343500D01*
G36*
X145656000Y-40343500D02*
G01*
X145343000Y-40656500D01*
X145030000Y-40656500D01*
X145030000Y-40343500D01*
X145343000Y-40343500D01*
X145343000Y-40030500D01*
X145656000Y-40030500D01*
X145656000Y-40343500D01*
G37*
X145656000Y-40343500D02*
X145343000Y-40656500D01*
X145030000Y-40656500D01*
X145030000Y-40343500D01*
X145343000Y-40343500D01*
X145343000Y-40030500D01*
X145656000Y-40030500D01*
X145656000Y-40343500D01*
%TO.C,AA6*%
X116656500Y-23852000D02*
X116969500Y-23852000D01*
X116969500Y-23852000D02*
X116969500Y-23539000D01*
X116969500Y-23539000D02*
X116656500Y-23539000D01*
X116656500Y-23539000D02*
X116656500Y-23226000D01*
X116656500Y-23226000D02*
X116343500Y-23226000D01*
X116343500Y-23226000D02*
X116343500Y-23539000D01*
X116343500Y-23539000D02*
X116656500Y-23852000D01*
G36*
X116656500Y-23539000D02*
G01*
X116969500Y-23539000D01*
X116969500Y-23852000D01*
X116656500Y-23852000D01*
X116343500Y-23539000D01*
X116343500Y-23226000D01*
X116656500Y-23226000D01*
X116656500Y-23539000D01*
G37*
X116656500Y-23539000D02*
X116969500Y-23539000D01*
X116969500Y-23852000D01*
X116656500Y-23852000D01*
X116343500Y-23539000D01*
X116343500Y-23226000D01*
X116656500Y-23226000D01*
X116656500Y-23539000D01*
%TO.C,AA14*%
X58656500Y-139851000D02*
X58969500Y-139851000D01*
X58969500Y-139851000D02*
X58969500Y-139538000D01*
X58969500Y-139538000D02*
X58656500Y-139538000D01*
X58656500Y-139538000D02*
X58656500Y-139225000D01*
X58656500Y-139225000D02*
X58343500Y-139225000D01*
X58343500Y-139225000D02*
X58343500Y-139538000D01*
X58343500Y-139538000D02*
X58656500Y-139851000D01*
G36*
X58656500Y-139538000D02*
G01*
X58969500Y-139538000D01*
X58969500Y-139851000D01*
X58656500Y-139851000D01*
X58343500Y-139538000D01*
X58343500Y-139225000D01*
X58656500Y-139225000D01*
X58656500Y-139538000D01*
G37*
X58656500Y-139538000D02*
X58969500Y-139538000D01*
X58969500Y-139851000D01*
X58656500Y-139851000D01*
X58343500Y-139538000D01*
X58343500Y-139225000D01*
X58656500Y-139225000D01*
X58656500Y-139538000D01*
%TO.C,AE6*%
X81350000Y-214343500D02*
X81350000Y-214656500D01*
X81350000Y-214656500D02*
X86310000Y-214656500D01*
X86310000Y-214656500D02*
X86310000Y-214343500D01*
X86310000Y-214343500D02*
X81350000Y-214343500D01*
G36*
X86310000Y-214656500D02*
G01*
X81350000Y-214656500D01*
X81350000Y-214343500D01*
X86310000Y-214343500D01*
X86310000Y-214656500D01*
G37*
X86310000Y-214656500D02*
X81350000Y-214656500D01*
X81350000Y-214343500D01*
X86310000Y-214343500D01*
X86310000Y-214656500D01*
D11*
X81350000Y-214756004D02*
X81350000Y-214243889D01*
X81350000Y-214243889D02*
X84750000Y-214243889D01*
X84750000Y-214243889D02*
X84750000Y-206250000D01*
X84750000Y-206250000D02*
X72250000Y-206250000D01*
X72250000Y-206250000D02*
X72250000Y-222750000D01*
X72250000Y-222750000D02*
X84750000Y-222750000D01*
X84750000Y-222750000D02*
X84750000Y-214756004D01*
X84750000Y-214756004D02*
X81350000Y-214756004D01*
G36*
X84750000Y-214243889D02*
G01*
X81350000Y-214243889D01*
X81350000Y-214756004D01*
X84750000Y-214756004D01*
X84750000Y-222750000D01*
X72250000Y-222750000D01*
X72250000Y-206250000D01*
X84750000Y-206250000D01*
X84750000Y-214243889D01*
G37*
X84750000Y-214243889D02*
X81350000Y-214243889D01*
X81350000Y-214756004D01*
X84750000Y-214756004D01*
X84750000Y-222750000D01*
X72250000Y-222750000D01*
X72250000Y-206250000D01*
X84750000Y-206250000D01*
X84750000Y-214243889D01*
D10*
%TO.C,AA5*%
X116343500Y-185344000D02*
X116030500Y-185344000D01*
X116030500Y-185344000D02*
X116030500Y-185657000D01*
X116030500Y-185657000D02*
X116343500Y-185657000D01*
X116343500Y-185657000D02*
X116343500Y-185970000D01*
X116343500Y-185970000D02*
X116656500Y-185970000D01*
X116656500Y-185970000D02*
X116656500Y-185657000D01*
X116656500Y-185657000D02*
X116343500Y-185344000D01*
G36*
X116656500Y-185657000D02*
G01*
X116656500Y-185970000D01*
X116343500Y-185970000D01*
X116343500Y-185657000D01*
X116030500Y-185657000D01*
X116030500Y-185344000D01*
X116343500Y-185344000D01*
X116656500Y-185657000D01*
G37*
X116656500Y-185657000D02*
X116656500Y-185970000D01*
X116343500Y-185970000D01*
X116343500Y-185657000D01*
X116030500Y-185657000D01*
X116030500Y-185344000D01*
X116343500Y-185344000D01*
X116656500Y-185657000D01*
%TO.C,NT1*%
X131735587Y-84734000D02*
X130997000Y-83995000D01*
X130997000Y-83995000D02*
X131735587Y-83256000D01*
X131735587Y-83256000D02*
X131735587Y-81852707D01*
X131735587Y-81852707D02*
X130258171Y-81852707D01*
X130258171Y-81852707D02*
X130258171Y-86137360D01*
X130258171Y-86137360D02*
X131735587Y-86137360D01*
X131735587Y-86137360D02*
X131735587Y-84734000D01*
G36*
X131735587Y-83256000D02*
G01*
X130997000Y-83995000D01*
X131735587Y-84734000D01*
X131735587Y-86137360D01*
X130258171Y-86137360D01*
X130258171Y-81852707D01*
X131735587Y-81852707D01*
X131735587Y-83256000D01*
G37*
X131735587Y-83256000D02*
X130997000Y-83995000D01*
X131735587Y-84734000D01*
X131735587Y-86137360D01*
X130258171Y-86137360D01*
X130258171Y-81852707D01*
X131735587Y-81852707D01*
X131735587Y-83256000D01*
X130259000Y-83261721D02*
X125974992Y-83261718D01*
X125974992Y-83261718D02*
X125974992Y-84739421D01*
X125974992Y-84739421D02*
X130259000Y-84739424D01*
X130259000Y-84739424D02*
X130259000Y-83261721D01*
G36*
X130259000Y-83261721D02*
G01*
X130259000Y-84739424D01*
X125974992Y-84739421D01*
X125974992Y-83261718D01*
X130259000Y-83261721D01*
G37*
X130259000Y-83261721D02*
X130259000Y-84739424D01*
X125974992Y-84739421D01*
X125974992Y-83261718D01*
X130259000Y-83261721D01*
%TO.C,NT2*%
X72263413Y-199256000D02*
X73002000Y-199995000D01*
X73002000Y-199995000D02*
X72263413Y-200734000D01*
X72263413Y-200734000D02*
X72263413Y-202137293D01*
X72263413Y-202137293D02*
X73740829Y-202137293D01*
X73740829Y-202137293D02*
X73740829Y-197852640D01*
X73740829Y-197852640D02*
X72263413Y-197852640D01*
X72263413Y-197852640D02*
X72263413Y-199256000D01*
G36*
X73740829Y-202137293D02*
G01*
X72263413Y-202137293D01*
X72263413Y-200734000D01*
X73002000Y-199995000D01*
X72263413Y-199256000D01*
X72263413Y-197852640D01*
X73740829Y-197852640D01*
X73740829Y-202137293D01*
G37*
X73740829Y-202137293D02*
X72263413Y-202137293D01*
X72263413Y-200734000D01*
X73002000Y-199995000D01*
X72263413Y-199256000D01*
X72263413Y-197852640D01*
X73740829Y-197852640D01*
X73740829Y-202137293D01*
X73740000Y-200728279D02*
X78024008Y-200728282D01*
X78024008Y-200728282D02*
X78024008Y-199250579D01*
X78024008Y-199250579D02*
X73740000Y-199250576D01*
X73740000Y-199250576D02*
X73740000Y-200728279D01*
G36*
X78024008Y-199250579D02*
G01*
X78024008Y-200728282D01*
X73740000Y-200728279D01*
X73740000Y-199250576D01*
X78024008Y-199250579D01*
G37*
X78024008Y-199250579D02*
X78024008Y-200728282D01*
X73740000Y-200728279D01*
X73740000Y-199250576D01*
X78024008Y-199250579D01*
%TO.C,AA15*%
X87656000Y-81538500D02*
X87656000Y-81225500D01*
X87656000Y-81225500D02*
X87343000Y-81225500D01*
X87343000Y-81225500D02*
X87343000Y-81538500D01*
X87343000Y-81538500D02*
X87030000Y-81538500D01*
X87030000Y-81538500D02*
X87030000Y-81851500D01*
X87030000Y-81851500D02*
X87343000Y-81851500D01*
X87343000Y-81851500D02*
X87656000Y-81538500D01*
G36*
X87656000Y-81538500D02*
G01*
X87343000Y-81851500D01*
X87030000Y-81851500D01*
X87030000Y-81538500D01*
X87343000Y-81538500D01*
X87343000Y-81225500D01*
X87656000Y-81225500D01*
X87656000Y-81538500D01*
G37*
X87656000Y-81538500D02*
X87343000Y-81851500D01*
X87030000Y-81851500D01*
X87030000Y-81538500D01*
X87343000Y-81538500D01*
X87343000Y-81225500D01*
X87656000Y-81225500D01*
X87656000Y-81538500D01*
%TO.C,AA6*%
X116656500Y-197852000D02*
X116969500Y-197852000D01*
X116969500Y-197852000D02*
X116969500Y-197539000D01*
X116969500Y-197539000D02*
X116656500Y-197539000D01*
X116656500Y-197539000D02*
X116656500Y-197226000D01*
X116656500Y-197226000D02*
X116343500Y-197226000D01*
X116343500Y-197226000D02*
X116343500Y-197539000D01*
X116343500Y-197539000D02*
X116656500Y-197852000D01*
G36*
X116656500Y-197539000D02*
G01*
X116969500Y-197539000D01*
X116969500Y-197852000D01*
X116656500Y-197852000D01*
X116343500Y-197539000D01*
X116343500Y-197226000D01*
X116656500Y-197226000D01*
X116656500Y-197539000D01*
G37*
X116656500Y-197539000D02*
X116969500Y-197539000D01*
X116969500Y-197852000D01*
X116656500Y-197852000D01*
X116343500Y-197539000D01*
X116343500Y-197226000D01*
X116656500Y-197226000D01*
X116656500Y-197539000D01*
%TO.C,AE7*%
X52350000Y-185343500D02*
X52350000Y-185656500D01*
X52350000Y-185656500D02*
X57310000Y-185656500D01*
X57310000Y-185656500D02*
X57310000Y-185343500D01*
X57310000Y-185343500D02*
X52350000Y-185343500D01*
G36*
X57310000Y-185656500D02*
G01*
X52350000Y-185656500D01*
X52350000Y-185343500D01*
X57310000Y-185343500D01*
X57310000Y-185656500D01*
G37*
X57310000Y-185656500D02*
X52350000Y-185656500D01*
X52350000Y-185343500D01*
X57310000Y-185343500D01*
X57310000Y-185656500D01*
D11*
X52350000Y-185756004D02*
X52350000Y-185243889D01*
X52350000Y-185243889D02*
X55750000Y-185243889D01*
X55750000Y-185243889D02*
X55750000Y-177250000D01*
X55750000Y-177250000D02*
X43250000Y-177250000D01*
X43250000Y-177250000D02*
X43250000Y-193750000D01*
X43250000Y-193750000D02*
X55750000Y-193750000D01*
X55750000Y-193750000D02*
X55750000Y-185756004D01*
X55750000Y-185756004D02*
X52350000Y-185756004D01*
G36*
X55750000Y-185243889D02*
G01*
X52350000Y-185243889D01*
X52350000Y-185756004D01*
X55750000Y-185756004D01*
X55750000Y-193750000D01*
X43250000Y-193750000D01*
X43250000Y-177250000D01*
X55750000Y-177250000D01*
X55750000Y-185243889D01*
G37*
X55750000Y-185243889D02*
X52350000Y-185243889D01*
X52350000Y-185756004D01*
X55750000Y-185756004D01*
X55750000Y-193750000D01*
X43250000Y-193750000D01*
X43250000Y-177250000D01*
X55750000Y-177250000D01*
X55750000Y-185243889D01*
D10*
%TO.C,AA1*%
X116656000Y-98343500D02*
X116656000Y-98030500D01*
X116656000Y-98030500D02*
X116343000Y-98030500D01*
X116343000Y-98030500D02*
X116343000Y-98343500D01*
X116343000Y-98343500D02*
X116030000Y-98343500D01*
X116030000Y-98343500D02*
X116030000Y-98656500D01*
X116030000Y-98656500D02*
X116343000Y-98656500D01*
X116343000Y-98656500D02*
X116656000Y-98343500D01*
G36*
X116656000Y-98343500D02*
G01*
X116343000Y-98656500D01*
X116030000Y-98656500D01*
X116030000Y-98343500D01*
X116343000Y-98343500D01*
X116343000Y-98030500D01*
X116656000Y-98030500D01*
X116656000Y-98343500D01*
G37*
X116656000Y-98343500D02*
X116343000Y-98656500D01*
X116030000Y-98656500D01*
X116030000Y-98343500D01*
X116343000Y-98343500D01*
X116343000Y-98030500D01*
X116656000Y-98030500D01*
X116656000Y-98343500D01*
D11*
%TO.C,AE6*%
X81350000Y-98756004D02*
X81350000Y-98243889D01*
X81350000Y-98243889D02*
X84750000Y-98243889D01*
X84750000Y-98243889D02*
X84750000Y-90250000D01*
X84750000Y-90250000D02*
X72250000Y-90250000D01*
X72250000Y-90250000D02*
X72250000Y-106750000D01*
X72250000Y-106750000D02*
X84750000Y-106750000D01*
X84750000Y-106750000D02*
X84750000Y-98756004D01*
X84750000Y-98756004D02*
X81350000Y-98756004D01*
G36*
X84750000Y-98243889D02*
G01*
X81350000Y-98243889D01*
X81350000Y-98756004D01*
X84750000Y-98756004D01*
X84750000Y-106750000D01*
X72250000Y-106750000D01*
X72250000Y-90250000D01*
X84750000Y-90250000D01*
X84750000Y-98243889D01*
G37*
X84750000Y-98243889D02*
X81350000Y-98243889D01*
X81350000Y-98756004D01*
X84750000Y-98756004D01*
X84750000Y-106750000D01*
X72250000Y-106750000D01*
X72250000Y-90250000D01*
X84750000Y-90250000D01*
X84750000Y-98243889D01*
D10*
X81350000Y-98343500D02*
X81350000Y-98656500D01*
X81350000Y-98656500D02*
X86310000Y-98656500D01*
X86310000Y-98656500D02*
X86310000Y-98343500D01*
X86310000Y-98343500D02*
X81350000Y-98343500D01*
G36*
X86310000Y-98656500D02*
G01*
X81350000Y-98656500D01*
X81350000Y-98343500D01*
X86310000Y-98343500D01*
X86310000Y-98656500D01*
G37*
X86310000Y-98656500D02*
X81350000Y-98656500D01*
X81350000Y-98343500D01*
X86310000Y-98343500D01*
X86310000Y-98656500D01*
%TO.C,AA5*%
X116343500Y-127344000D02*
X116030500Y-127344000D01*
X116030500Y-127344000D02*
X116030500Y-127657000D01*
X116030500Y-127657000D02*
X116343500Y-127657000D01*
X116343500Y-127657000D02*
X116343500Y-127970000D01*
X116343500Y-127970000D02*
X116656500Y-127970000D01*
X116656500Y-127970000D02*
X116656500Y-127657000D01*
X116656500Y-127657000D02*
X116343500Y-127344000D01*
G36*
X116656500Y-127657000D02*
G01*
X116656500Y-127970000D01*
X116343500Y-127970000D01*
X116343500Y-127657000D01*
X116030500Y-127657000D01*
X116030500Y-127344000D01*
X116343500Y-127344000D01*
X116656500Y-127657000D01*
G37*
X116656500Y-127657000D02*
X116656500Y-127970000D01*
X116343500Y-127970000D01*
X116343500Y-127657000D01*
X116030500Y-127657000D01*
X116030500Y-127344000D01*
X116343500Y-127344000D01*
X116656500Y-127657000D01*
D11*
%TO.C,AE2*%
X139350000Y-156756004D02*
X139350000Y-156243889D01*
X139350000Y-156243889D02*
X142750000Y-156243889D01*
X142750000Y-156243889D02*
X142750000Y-148250000D01*
X142750000Y-148250000D02*
X130250000Y-148250000D01*
X130250000Y-148250000D02*
X130250000Y-164750000D01*
X130250000Y-164750000D02*
X142750000Y-164750000D01*
X142750000Y-164750000D02*
X142750000Y-156756004D01*
X142750000Y-156756004D02*
X139350000Y-156756004D01*
G36*
X142750000Y-156243889D02*
G01*
X139350000Y-156243889D01*
X139350000Y-156756004D01*
X142750000Y-156756004D01*
X142750000Y-164750000D01*
X130250000Y-164750000D01*
X130250000Y-148250000D01*
X142750000Y-148250000D01*
X142750000Y-156243889D01*
G37*
X142750000Y-156243889D02*
X139350000Y-156243889D01*
X139350000Y-156756004D01*
X142750000Y-156756004D01*
X142750000Y-164750000D01*
X130250000Y-164750000D01*
X130250000Y-148250000D01*
X142750000Y-148250000D01*
X142750000Y-156243889D01*
D10*
X139350000Y-156343500D02*
X139350000Y-156656500D01*
X139350000Y-156656500D02*
X144310000Y-156656500D01*
X144310000Y-156656500D02*
X144310000Y-156343500D01*
X144310000Y-156343500D02*
X139350000Y-156343500D01*
G36*
X144310000Y-156656500D02*
G01*
X139350000Y-156656500D01*
X139350000Y-156343500D01*
X144310000Y-156343500D01*
X144310000Y-156656500D01*
G37*
X144310000Y-156656500D02*
X139350000Y-156656500D01*
X139350000Y-156343500D01*
X144310000Y-156343500D01*
X144310000Y-156656500D01*
%TO.C,AA4*%
X145656000Y-214343500D02*
X145656000Y-214030500D01*
X145656000Y-214030500D02*
X145343000Y-214030500D01*
X145343000Y-214030500D02*
X145343000Y-214343500D01*
X145343000Y-214343500D02*
X145030000Y-214343500D01*
X145030000Y-214343500D02*
X145030000Y-214656500D01*
X145030000Y-214656500D02*
X145343000Y-214656500D01*
X145343000Y-214656500D02*
X145656000Y-214343500D01*
G36*
X145656000Y-214343500D02*
G01*
X145343000Y-214656500D01*
X145030000Y-214656500D01*
X145030000Y-214343500D01*
X145343000Y-214343500D01*
X145343000Y-214030500D01*
X145656000Y-214030500D01*
X145656000Y-214343500D01*
G37*
X145656000Y-214343500D02*
X145343000Y-214656500D01*
X145030000Y-214656500D01*
X145030000Y-214343500D01*
X145343000Y-214343500D01*
X145343000Y-214030500D01*
X145656000Y-214030500D01*
X145656000Y-214343500D01*
%TO.C,AA11*%
X87343500Y-144137000D02*
X87030500Y-144137000D01*
X87030500Y-144137000D02*
X87030500Y-144450000D01*
X87030500Y-144450000D02*
X87343500Y-144450000D01*
X87343500Y-144450000D02*
X87343500Y-144763000D01*
X87343500Y-144763000D02*
X87656500Y-144763000D01*
X87656500Y-144763000D02*
X87656500Y-144450000D01*
X87656500Y-144450000D02*
X87343500Y-144137000D01*
G36*
X87656500Y-144450000D02*
G01*
X87656500Y-144763000D01*
X87343500Y-144763000D01*
X87343500Y-144450000D01*
X87030500Y-144450000D01*
X87030500Y-144137000D01*
X87343500Y-144137000D01*
X87656500Y-144450000D01*
G37*
X87656500Y-144450000D02*
X87656500Y-144763000D01*
X87343500Y-144763000D01*
X87343500Y-144450000D01*
X87030500Y-144450000D01*
X87030500Y-144137000D01*
X87343500Y-144137000D01*
X87656500Y-144450000D01*
%TO.C,AA8*%
X145343500Y-127344000D02*
X145030500Y-127344000D01*
X145030500Y-127344000D02*
X145030500Y-127657000D01*
X145030500Y-127657000D02*
X145343500Y-127657000D01*
X145343500Y-127657000D02*
X145343500Y-127970000D01*
X145343500Y-127970000D02*
X145656500Y-127970000D01*
X145656500Y-127970000D02*
X145656500Y-127657000D01*
X145656500Y-127657000D02*
X145343500Y-127344000D01*
G36*
X145656500Y-127657000D02*
G01*
X145656500Y-127970000D01*
X145343500Y-127970000D01*
X145343500Y-127657000D01*
X145030500Y-127657000D01*
X145030500Y-127344000D01*
X145343500Y-127344000D01*
X145656500Y-127657000D01*
G37*
X145656500Y-127657000D02*
X145656500Y-127970000D01*
X145343500Y-127970000D01*
X145343500Y-127657000D01*
X145030500Y-127657000D01*
X145030500Y-127344000D01*
X145343500Y-127344000D01*
X145656500Y-127657000D01*
%TO.C,AA1*%
X116656000Y-40343500D02*
X116656000Y-40030500D01*
X116656000Y-40030500D02*
X116343000Y-40030500D01*
X116343000Y-40030500D02*
X116343000Y-40343500D01*
X116343000Y-40343500D02*
X116030000Y-40343500D01*
X116030000Y-40343500D02*
X116030000Y-40656500D01*
X116030000Y-40656500D02*
X116343000Y-40656500D01*
X116343000Y-40656500D02*
X116656000Y-40343500D01*
G36*
X116656000Y-40343500D02*
G01*
X116343000Y-40656500D01*
X116030000Y-40656500D01*
X116030000Y-40343500D01*
X116343000Y-40343500D01*
X116343000Y-40030500D01*
X116656000Y-40030500D01*
X116656000Y-40343500D01*
G37*
X116656000Y-40343500D02*
X116343000Y-40656500D01*
X116030000Y-40656500D01*
X116030000Y-40343500D01*
X116343000Y-40343500D01*
X116343000Y-40030500D01*
X116656000Y-40030500D01*
X116656000Y-40343500D01*
%TO.C,AA4*%
X145656000Y-98343500D02*
X145656000Y-98030500D01*
X145656000Y-98030500D02*
X145343000Y-98030500D01*
X145343000Y-98030500D02*
X145343000Y-98343500D01*
X145343000Y-98343500D02*
X145030000Y-98343500D01*
X145030000Y-98343500D02*
X145030000Y-98656500D01*
X145030000Y-98656500D02*
X145343000Y-98656500D01*
X145343000Y-98656500D02*
X145656000Y-98343500D01*
G36*
X145656000Y-98343500D02*
G01*
X145343000Y-98656500D01*
X145030000Y-98656500D01*
X145030000Y-98343500D01*
X145343000Y-98343500D01*
X145343000Y-98030500D01*
X145656000Y-98030500D01*
X145656000Y-98343500D01*
G37*
X145656000Y-98343500D02*
X145343000Y-98656500D01*
X145030000Y-98656500D01*
X145030000Y-98343500D01*
X145343000Y-98343500D01*
X145343000Y-98030500D01*
X145656000Y-98030500D01*
X145656000Y-98343500D01*
%TO.C,AA16*%
X87343500Y-69344000D02*
X87030500Y-69344000D01*
X87030500Y-69344000D02*
X87030500Y-69657000D01*
X87030500Y-69657000D02*
X87343500Y-69657000D01*
X87343500Y-69657000D02*
X87343500Y-69970000D01*
X87343500Y-69970000D02*
X87656500Y-69970000D01*
X87656500Y-69970000D02*
X87656500Y-69657000D01*
X87656500Y-69657000D02*
X87343500Y-69344000D01*
G36*
X87656500Y-69657000D02*
G01*
X87656500Y-69970000D01*
X87343500Y-69970000D01*
X87343500Y-69657000D01*
X87030500Y-69657000D01*
X87030500Y-69344000D01*
X87343500Y-69344000D01*
X87656500Y-69657000D01*
G37*
X87656500Y-69657000D02*
X87656500Y-69970000D01*
X87343500Y-69970000D01*
X87343500Y-69657000D01*
X87030500Y-69657000D01*
X87030500Y-69344000D01*
X87343500Y-69344000D01*
X87656500Y-69657000D01*
%TO.C,AE2*%
X139350000Y-40343500D02*
X139350000Y-40656500D01*
X139350000Y-40656500D02*
X144310000Y-40656500D01*
X144310000Y-40656500D02*
X144310000Y-40343500D01*
X144310000Y-40343500D02*
X139350000Y-40343500D01*
G36*
X144310000Y-40656500D02*
G01*
X139350000Y-40656500D01*
X139350000Y-40343500D01*
X144310000Y-40343500D01*
X144310000Y-40656500D01*
G37*
X144310000Y-40656500D02*
X139350000Y-40656500D01*
X139350000Y-40343500D01*
X144310000Y-40343500D01*
X144310000Y-40656500D01*
D11*
X139350000Y-40756004D02*
X139350000Y-40243889D01*
X139350000Y-40243889D02*
X142750000Y-40243889D01*
X142750000Y-40243889D02*
X142750000Y-32250000D01*
X142750000Y-32250000D02*
X130250000Y-32250000D01*
X130250000Y-32250000D02*
X130250000Y-48750000D01*
X130250000Y-48750000D02*
X142750000Y-48750000D01*
X142750000Y-48750000D02*
X142750000Y-40756004D01*
X142750000Y-40756004D02*
X139350000Y-40756004D01*
G36*
X142750000Y-40243889D02*
G01*
X139350000Y-40243889D01*
X139350000Y-40756004D01*
X142750000Y-40756004D01*
X142750000Y-48750000D01*
X130250000Y-48750000D01*
X130250000Y-32250000D01*
X142750000Y-32250000D01*
X142750000Y-40243889D01*
G37*
X142750000Y-40243889D02*
X139350000Y-40243889D01*
X139350000Y-40756004D01*
X142750000Y-40756004D01*
X142750000Y-48750000D01*
X130250000Y-48750000D01*
X130250000Y-32250000D01*
X142750000Y-32250000D01*
X142750000Y-40243889D01*
%TO.C,AE5*%
X52350000Y-98756004D02*
X52350000Y-98243889D01*
X52350000Y-98243889D02*
X55750000Y-98243889D01*
X55750000Y-98243889D02*
X55750000Y-90250000D01*
X55750000Y-90250000D02*
X43250000Y-90250000D01*
X43250000Y-90250000D02*
X43250000Y-106750000D01*
X43250000Y-106750000D02*
X55750000Y-106750000D01*
X55750000Y-106750000D02*
X55750000Y-98756004D01*
X55750000Y-98756004D02*
X52350000Y-98756004D01*
G36*
X55750000Y-98243889D02*
G01*
X52350000Y-98243889D01*
X52350000Y-98756004D01*
X55750000Y-98756004D01*
X55750000Y-106750000D01*
X43250000Y-106750000D01*
X43250000Y-90250000D01*
X55750000Y-90250000D01*
X55750000Y-98243889D01*
G37*
X55750000Y-98243889D02*
X52350000Y-98243889D01*
X52350000Y-98756004D01*
X55750000Y-98756004D01*
X55750000Y-106750000D01*
X43250000Y-106750000D01*
X43250000Y-90250000D01*
X55750000Y-90250000D01*
X55750000Y-98243889D01*
D10*
X52350000Y-98343500D02*
X52350000Y-98656500D01*
X52350000Y-98656500D02*
X57310000Y-98656500D01*
X57310000Y-98656500D02*
X57310000Y-98343500D01*
X57310000Y-98343500D02*
X52350000Y-98343500D01*
G36*
X57310000Y-98656500D02*
G01*
X52350000Y-98656500D01*
X52350000Y-98343500D01*
X57310000Y-98343500D01*
X57310000Y-98656500D01*
G37*
X57310000Y-98656500D02*
X52350000Y-98656500D01*
X52350000Y-98343500D01*
X57310000Y-98343500D01*
X57310000Y-98656500D01*
%TO.C,AA14*%
X58656500Y-197851000D02*
X58969500Y-197851000D01*
X58969500Y-197851000D02*
X58969500Y-197538000D01*
X58969500Y-197538000D02*
X58656500Y-197538000D01*
X58656500Y-197538000D02*
X58656500Y-197225000D01*
X58656500Y-197225000D02*
X58343500Y-197225000D01*
X58343500Y-197225000D02*
X58343500Y-197538000D01*
X58343500Y-197538000D02*
X58656500Y-197851000D01*
G36*
X58656500Y-197538000D02*
G01*
X58969500Y-197538000D01*
X58969500Y-197851000D01*
X58656500Y-197851000D01*
X58343500Y-197538000D01*
X58343500Y-197225000D01*
X58656500Y-197225000D01*
X58656500Y-197538000D01*
G37*
X58656500Y-197538000D02*
X58969500Y-197538000D01*
X58969500Y-197851000D01*
X58656500Y-197851000D01*
X58343500Y-197538000D01*
X58343500Y-197225000D01*
X58656500Y-197225000D01*
X58656500Y-197538000D01*
%TO.C,AE6*%
X81350000Y-40343500D02*
X81350000Y-40656500D01*
X81350000Y-40656500D02*
X86310000Y-40656500D01*
X86310000Y-40656500D02*
X86310000Y-40343500D01*
X86310000Y-40343500D02*
X81350000Y-40343500D01*
G36*
X86310000Y-40656500D02*
G01*
X81350000Y-40656500D01*
X81350000Y-40343500D01*
X86310000Y-40343500D01*
X86310000Y-40656500D01*
G37*
X86310000Y-40656500D02*
X81350000Y-40656500D01*
X81350000Y-40343500D01*
X86310000Y-40343500D01*
X86310000Y-40656500D01*
D11*
X81350000Y-40756004D02*
X81350000Y-40243889D01*
X81350000Y-40243889D02*
X84750000Y-40243889D01*
X84750000Y-40243889D02*
X84750000Y-32250000D01*
X84750000Y-32250000D02*
X72250000Y-32250000D01*
X72250000Y-32250000D02*
X72250000Y-48750000D01*
X72250000Y-48750000D02*
X84750000Y-48750000D01*
X84750000Y-48750000D02*
X84750000Y-40756004D01*
X84750000Y-40756004D02*
X81350000Y-40756004D01*
G36*
X84750000Y-40243889D02*
G01*
X81350000Y-40243889D01*
X81350000Y-40756004D01*
X84750000Y-40756004D01*
X84750000Y-48750000D01*
X72250000Y-48750000D01*
X72250000Y-32250000D01*
X84750000Y-32250000D01*
X84750000Y-40243889D01*
G37*
X84750000Y-40243889D02*
X81350000Y-40243889D01*
X81350000Y-40756004D01*
X84750000Y-40756004D01*
X84750000Y-48750000D01*
X72250000Y-48750000D01*
X72250000Y-32250000D01*
X84750000Y-32250000D01*
X84750000Y-40243889D01*
D10*
%TO.C,AA7*%
X145656000Y-81539500D02*
X145656000Y-81226500D01*
X145656000Y-81226500D02*
X145343000Y-81226500D01*
X145343000Y-81226500D02*
X145343000Y-81539500D01*
X145343000Y-81539500D02*
X145030000Y-81539500D01*
X145030000Y-81539500D02*
X145030000Y-81852500D01*
X145030000Y-81852500D02*
X145343000Y-81852500D01*
X145343000Y-81852500D02*
X145656000Y-81539500D01*
G36*
X145656000Y-81539500D02*
G01*
X145343000Y-81852500D01*
X145030000Y-81852500D01*
X145030000Y-81539500D01*
X145343000Y-81539500D01*
X145343000Y-81226500D01*
X145656000Y-81226500D01*
X145656000Y-81539500D01*
G37*
X145656000Y-81539500D02*
X145343000Y-81852500D01*
X145030000Y-81852500D01*
X145030000Y-81539500D01*
X145343000Y-81539500D01*
X145343000Y-81226500D01*
X145656000Y-81226500D01*
X145656000Y-81539500D01*
%TO.C,AA16*%
X87343500Y-11344000D02*
X87030500Y-11344000D01*
X87030500Y-11344000D02*
X87030500Y-11657000D01*
X87030500Y-11657000D02*
X87343500Y-11657000D01*
X87343500Y-11657000D02*
X87343500Y-11970000D01*
X87343500Y-11970000D02*
X87656500Y-11970000D01*
X87656500Y-11970000D02*
X87656500Y-11657000D01*
X87656500Y-11657000D02*
X87343500Y-11344000D01*
G36*
X87656500Y-11657000D02*
G01*
X87656500Y-11970000D01*
X87343500Y-11970000D01*
X87343500Y-11657000D01*
X87030500Y-11657000D01*
X87030500Y-11344000D01*
X87343500Y-11344000D01*
X87656500Y-11657000D01*
G37*
X87656500Y-11657000D02*
X87656500Y-11970000D01*
X87343500Y-11970000D01*
X87343500Y-11657000D01*
X87030500Y-11657000D01*
X87030500Y-11344000D01*
X87343500Y-11344000D01*
X87656500Y-11657000D01*
%TO.C,AA11*%
X87343500Y-202137000D02*
X87030500Y-202137000D01*
X87030500Y-202137000D02*
X87030500Y-202450000D01*
X87030500Y-202450000D02*
X87343500Y-202450000D01*
X87343500Y-202450000D02*
X87343500Y-202763000D01*
X87343500Y-202763000D02*
X87656500Y-202763000D01*
X87656500Y-202763000D02*
X87656500Y-202450000D01*
X87656500Y-202450000D02*
X87343500Y-202137000D01*
G36*
X87656500Y-202450000D02*
G01*
X87656500Y-202763000D01*
X87343500Y-202763000D01*
X87343500Y-202450000D01*
X87030500Y-202450000D01*
X87030500Y-202137000D01*
X87343500Y-202137000D01*
X87656500Y-202450000D01*
G37*
X87656500Y-202450000D02*
X87656500Y-202763000D01*
X87343500Y-202763000D01*
X87343500Y-202450000D01*
X87030500Y-202450000D01*
X87030500Y-202137000D01*
X87343500Y-202137000D01*
X87656500Y-202450000D01*
%TO.C,AE7*%
X52350000Y-127343500D02*
X52350000Y-127656500D01*
X52350000Y-127656500D02*
X57310000Y-127656500D01*
X57310000Y-127656500D02*
X57310000Y-127343500D01*
X57310000Y-127343500D02*
X52350000Y-127343500D01*
G36*
X57310000Y-127656500D02*
G01*
X52350000Y-127656500D01*
X52350000Y-127343500D01*
X57310000Y-127343500D01*
X57310000Y-127656500D01*
G37*
X57310000Y-127656500D02*
X52350000Y-127656500D01*
X52350000Y-127343500D01*
X57310000Y-127343500D01*
X57310000Y-127656500D01*
D11*
X52350000Y-127756004D02*
X52350000Y-127243889D01*
X52350000Y-127243889D02*
X55750000Y-127243889D01*
X55750000Y-127243889D02*
X55750000Y-119250000D01*
X55750000Y-119250000D02*
X43250000Y-119250000D01*
X43250000Y-119250000D02*
X43250000Y-135750000D01*
X43250000Y-135750000D02*
X55750000Y-135750000D01*
X55750000Y-135750000D02*
X55750000Y-127756004D01*
X55750000Y-127756004D02*
X52350000Y-127756004D01*
G36*
X55750000Y-127243889D02*
G01*
X52350000Y-127243889D01*
X52350000Y-127756004D01*
X55750000Y-127756004D01*
X55750000Y-135750000D01*
X43250000Y-135750000D01*
X43250000Y-119250000D01*
X55750000Y-119250000D01*
X55750000Y-127243889D01*
G37*
X55750000Y-127243889D02*
X52350000Y-127243889D01*
X52350000Y-127756004D01*
X55750000Y-127756004D01*
X55750000Y-135750000D01*
X43250000Y-135750000D01*
X43250000Y-119250000D01*
X55750000Y-119250000D01*
X55750000Y-127243889D01*
D10*
%TO.C,AA6*%
X116656500Y-139852000D02*
X116969500Y-139852000D01*
X116969500Y-139852000D02*
X116969500Y-139539000D01*
X116969500Y-139539000D02*
X116656500Y-139539000D01*
X116656500Y-139539000D02*
X116656500Y-139226000D01*
X116656500Y-139226000D02*
X116343500Y-139226000D01*
X116343500Y-139226000D02*
X116343500Y-139539000D01*
X116343500Y-139539000D02*
X116656500Y-139852000D01*
G36*
X116656500Y-139539000D02*
G01*
X116969500Y-139539000D01*
X116969500Y-139852000D01*
X116656500Y-139852000D01*
X116343500Y-139539000D01*
X116343500Y-139226000D01*
X116656500Y-139226000D01*
X116656500Y-139539000D01*
G37*
X116656500Y-139539000D02*
X116969500Y-139539000D01*
X116969500Y-139852000D01*
X116656500Y-139852000D01*
X116343500Y-139539000D01*
X116343500Y-139226000D01*
X116656500Y-139226000D01*
X116656500Y-139539000D01*
%TO.C,AA14*%
X58656500Y-81851000D02*
X58969500Y-81851000D01*
X58969500Y-81851000D02*
X58969500Y-81538000D01*
X58969500Y-81538000D02*
X58656500Y-81538000D01*
X58656500Y-81538000D02*
X58656500Y-81225000D01*
X58656500Y-81225000D02*
X58343500Y-81225000D01*
X58343500Y-81225000D02*
X58343500Y-81538000D01*
X58343500Y-81538000D02*
X58656500Y-81851000D01*
G36*
X58656500Y-81538000D02*
G01*
X58969500Y-81538000D01*
X58969500Y-81851000D01*
X58656500Y-81851000D01*
X58343500Y-81538000D01*
X58343500Y-81225000D01*
X58656500Y-81225000D01*
X58656500Y-81538000D01*
G37*
X58656500Y-81538000D02*
X58969500Y-81538000D01*
X58969500Y-81851000D01*
X58656500Y-81851000D01*
X58343500Y-81538000D01*
X58343500Y-81225000D01*
X58656500Y-81225000D01*
X58656500Y-81538000D01*
%TO.C,AA12*%
X87656000Y-156343500D02*
X87656000Y-156030500D01*
X87656000Y-156030500D02*
X87343000Y-156030500D01*
X87343000Y-156030500D02*
X87343000Y-156343500D01*
X87343000Y-156343500D02*
X87030000Y-156343500D01*
X87030000Y-156343500D02*
X87030000Y-156656500D01*
X87030000Y-156656500D02*
X87343000Y-156656500D01*
X87343000Y-156656500D02*
X87656000Y-156343500D01*
G36*
X87656000Y-156343500D02*
G01*
X87343000Y-156656500D01*
X87030000Y-156656500D01*
X87030000Y-156343500D01*
X87343000Y-156343500D01*
X87343000Y-156030500D01*
X87656000Y-156030500D01*
X87656000Y-156343500D01*
G37*
X87656000Y-156343500D02*
X87343000Y-156656500D01*
X87030000Y-156656500D01*
X87030000Y-156343500D01*
X87343000Y-156343500D01*
X87343000Y-156030500D01*
X87656000Y-156030500D01*
X87656000Y-156343500D01*
%TO.C,AA1*%
X116656000Y-156343500D02*
X116656000Y-156030500D01*
X116656000Y-156030500D02*
X116343000Y-156030500D01*
X116343000Y-156030500D02*
X116343000Y-156343500D01*
X116343000Y-156343500D02*
X116030000Y-156343500D01*
X116030000Y-156343500D02*
X116030000Y-156656500D01*
X116030000Y-156656500D02*
X116343000Y-156656500D01*
X116343000Y-156656500D02*
X116656000Y-156343500D01*
G36*
X116656000Y-156343500D02*
G01*
X116343000Y-156656500D01*
X116030000Y-156656500D01*
X116030000Y-156343500D01*
X116343000Y-156343500D01*
X116343000Y-156030500D01*
X116656000Y-156030500D01*
X116656000Y-156343500D01*
G37*
X116656000Y-156343500D02*
X116343000Y-156656500D01*
X116030000Y-156656500D01*
X116030000Y-156343500D01*
X116343000Y-156343500D01*
X116343000Y-156030500D01*
X116656000Y-156030500D01*
X116656000Y-156343500D01*
%TO.C,AE5*%
X52350000Y-40343500D02*
X52350000Y-40656500D01*
X52350000Y-40656500D02*
X57310000Y-40656500D01*
X57310000Y-40656500D02*
X57310000Y-40343500D01*
X57310000Y-40343500D02*
X52350000Y-40343500D01*
G36*
X57310000Y-40656500D02*
G01*
X52350000Y-40656500D01*
X52350000Y-40343500D01*
X57310000Y-40343500D01*
X57310000Y-40656500D01*
G37*
X57310000Y-40656500D02*
X52350000Y-40656500D01*
X52350000Y-40343500D01*
X57310000Y-40343500D01*
X57310000Y-40656500D01*
D11*
X52350000Y-40756004D02*
X52350000Y-40243889D01*
X52350000Y-40243889D02*
X55750000Y-40243889D01*
X55750000Y-40243889D02*
X55750000Y-32250000D01*
X55750000Y-32250000D02*
X43250000Y-32250000D01*
X43250000Y-32250000D02*
X43250000Y-48750000D01*
X43250000Y-48750000D02*
X55750000Y-48750000D01*
X55750000Y-48750000D02*
X55750000Y-40756004D01*
X55750000Y-40756004D02*
X52350000Y-40756004D01*
G36*
X55750000Y-40243889D02*
G01*
X52350000Y-40243889D01*
X52350000Y-40756004D01*
X55750000Y-40756004D01*
X55750000Y-48750000D01*
X43250000Y-48750000D01*
X43250000Y-32250000D01*
X55750000Y-32250000D01*
X55750000Y-40243889D01*
G37*
X55750000Y-40243889D02*
X52350000Y-40243889D01*
X52350000Y-40756004D01*
X55750000Y-40756004D01*
X55750000Y-48750000D01*
X43250000Y-48750000D01*
X43250000Y-32250000D01*
X55750000Y-32250000D01*
X55750000Y-40243889D01*
D10*
%TO.C,AA5*%
X116343500Y-69344000D02*
X116030500Y-69344000D01*
X116030500Y-69344000D02*
X116030500Y-69657000D01*
X116030500Y-69657000D02*
X116343500Y-69657000D01*
X116343500Y-69657000D02*
X116343500Y-69970000D01*
X116343500Y-69970000D02*
X116656500Y-69970000D01*
X116656500Y-69970000D02*
X116656500Y-69657000D01*
X116656500Y-69657000D02*
X116343500Y-69344000D01*
G36*
X116656500Y-69657000D02*
G01*
X116656500Y-69970000D01*
X116343500Y-69970000D01*
X116343500Y-69657000D01*
X116030500Y-69657000D01*
X116030500Y-69344000D01*
X116343500Y-69344000D01*
X116656500Y-69657000D01*
G37*
X116656500Y-69657000D02*
X116656500Y-69970000D01*
X116343500Y-69970000D01*
X116343500Y-69657000D01*
X116030500Y-69657000D01*
X116030500Y-69344000D01*
X116343500Y-69344000D01*
X116656500Y-69657000D01*
D11*
%TO.C,AE1*%
X110350000Y-40756004D02*
X110350000Y-40243889D01*
X110350000Y-40243889D02*
X113750000Y-40243889D01*
X113750000Y-40243889D02*
X113750000Y-32250000D01*
X113750000Y-32250000D02*
X101250000Y-32250000D01*
X101250000Y-32250000D02*
X101250000Y-48750000D01*
X101250000Y-48750000D02*
X113750000Y-48750000D01*
X113750000Y-48750000D02*
X113750000Y-40756004D01*
X113750000Y-40756004D02*
X110350000Y-40756004D01*
G36*
X113750000Y-40243889D02*
G01*
X110350000Y-40243889D01*
X110350000Y-40756004D01*
X113750000Y-40756004D01*
X113750000Y-48750000D01*
X101250000Y-48750000D01*
X101250000Y-32250000D01*
X113750000Y-32250000D01*
X113750000Y-40243889D01*
G37*
X113750000Y-40243889D02*
X110350000Y-40243889D01*
X110350000Y-40756004D01*
X113750000Y-40756004D01*
X113750000Y-48750000D01*
X101250000Y-48750000D01*
X101250000Y-32250000D01*
X113750000Y-32250000D01*
X113750000Y-40243889D01*
D10*
X110350000Y-40343500D02*
X110350000Y-40656500D01*
X110350000Y-40656500D02*
X115310000Y-40656500D01*
X115310000Y-40656500D02*
X115310000Y-40343500D01*
X115310000Y-40343500D02*
X110350000Y-40343500D01*
G36*
X115310000Y-40656500D02*
G01*
X110350000Y-40656500D01*
X110350000Y-40343500D01*
X115310000Y-40343500D01*
X115310000Y-40656500D01*
G37*
X115310000Y-40656500D02*
X110350000Y-40656500D01*
X110350000Y-40343500D01*
X115310000Y-40343500D01*
X115310000Y-40656500D01*
%TO.C,AA7*%
X145656000Y-197539500D02*
X145656000Y-197226500D01*
X145656000Y-197226500D02*
X145343000Y-197226500D01*
X145343000Y-197226500D02*
X145343000Y-197539500D01*
X145343000Y-197539500D02*
X145030000Y-197539500D01*
X145030000Y-197539500D02*
X145030000Y-197852500D01*
X145030000Y-197852500D02*
X145343000Y-197852500D01*
X145343000Y-197852500D02*
X145656000Y-197539500D01*
G36*
X145656000Y-197539500D02*
G01*
X145343000Y-197852500D01*
X145030000Y-197852500D01*
X145030000Y-197539500D01*
X145343000Y-197539500D01*
X145343000Y-197226500D01*
X145656000Y-197226500D01*
X145656000Y-197539500D01*
G37*
X145656000Y-197539500D02*
X145343000Y-197852500D01*
X145030000Y-197852500D01*
X145030000Y-197539500D01*
X145343000Y-197539500D01*
X145343000Y-197226500D01*
X145656000Y-197226500D01*
X145656000Y-197539500D01*
X145656000Y-23539500D02*
X145656000Y-23226500D01*
X145656000Y-23226500D02*
X145343000Y-23226500D01*
X145343000Y-23226500D02*
X145343000Y-23539500D01*
X145343000Y-23539500D02*
X145030000Y-23539500D01*
X145030000Y-23539500D02*
X145030000Y-23852500D01*
X145030000Y-23852500D02*
X145343000Y-23852500D01*
X145343000Y-23852500D02*
X145656000Y-23539500D01*
G36*
X145656000Y-23539500D02*
G01*
X145343000Y-23852500D01*
X145030000Y-23852500D01*
X145030000Y-23539500D01*
X145343000Y-23539500D01*
X145343000Y-23226500D01*
X145656000Y-23226500D01*
X145656000Y-23539500D01*
G37*
X145656000Y-23539500D02*
X145343000Y-23852500D01*
X145030000Y-23852500D01*
X145030000Y-23539500D01*
X145343000Y-23539500D01*
X145343000Y-23226500D01*
X145656000Y-23226500D01*
X145656000Y-23539500D01*
%TO.C,AA12*%
X87656000Y-98343500D02*
X87656000Y-98030500D01*
X87656000Y-98030500D02*
X87343000Y-98030500D01*
X87343000Y-98030500D02*
X87343000Y-98343500D01*
X87343000Y-98343500D02*
X87030000Y-98343500D01*
X87030000Y-98343500D02*
X87030000Y-98656500D01*
X87030000Y-98656500D02*
X87343000Y-98656500D01*
X87343000Y-98656500D02*
X87656000Y-98343500D01*
G36*
X87656000Y-98343500D02*
G01*
X87343000Y-98656500D01*
X87030000Y-98656500D01*
X87030000Y-98343500D01*
X87343000Y-98343500D01*
X87343000Y-98030500D01*
X87656000Y-98030500D01*
X87656000Y-98343500D01*
G37*
X87656000Y-98343500D02*
X87343000Y-98656500D01*
X87030000Y-98656500D01*
X87030000Y-98343500D01*
X87343000Y-98343500D01*
X87343000Y-98030500D01*
X87656000Y-98030500D01*
X87656000Y-98343500D01*
%TO.C,NT2*%
X73740000Y-26728279D02*
X78024008Y-26728282D01*
X78024008Y-26728282D02*
X78024008Y-25250579D01*
X78024008Y-25250579D02*
X73740000Y-25250576D01*
X73740000Y-25250576D02*
X73740000Y-26728279D01*
G36*
X78024008Y-25250579D02*
G01*
X78024008Y-26728282D01*
X73740000Y-26728279D01*
X73740000Y-25250576D01*
X78024008Y-25250579D01*
G37*
X78024008Y-25250579D02*
X78024008Y-26728282D01*
X73740000Y-26728279D01*
X73740000Y-25250576D01*
X78024008Y-25250579D01*
X72263413Y-25256000D02*
X73002000Y-25995000D01*
X73002000Y-25995000D02*
X72263413Y-26734000D01*
X72263413Y-26734000D02*
X72263413Y-28137293D01*
X72263413Y-28137293D02*
X73740829Y-28137293D01*
X73740829Y-28137293D02*
X73740829Y-23852640D01*
X73740829Y-23852640D02*
X72263413Y-23852640D01*
X72263413Y-23852640D02*
X72263413Y-25256000D01*
G36*
X73740829Y-28137293D02*
G01*
X72263413Y-28137293D01*
X72263413Y-26734000D01*
X73002000Y-25995000D01*
X72263413Y-25256000D01*
X72263413Y-23852640D01*
X73740829Y-23852640D01*
X73740829Y-28137293D01*
G37*
X73740829Y-28137293D02*
X72263413Y-28137293D01*
X72263413Y-26734000D01*
X73002000Y-25995000D01*
X72263413Y-25256000D01*
X72263413Y-23852640D01*
X73740829Y-23852640D01*
X73740829Y-28137293D01*
%TO.C,AA9*%
X58656000Y-156343500D02*
X58656000Y-156030500D01*
X58656000Y-156030500D02*
X58343000Y-156030500D01*
X58343000Y-156030500D02*
X58343000Y-156343500D01*
X58343000Y-156343500D02*
X58030000Y-156343500D01*
X58030000Y-156343500D02*
X58030000Y-156656500D01*
X58030000Y-156656500D02*
X58343000Y-156656500D01*
X58343000Y-156656500D02*
X58656000Y-156343500D01*
G36*
X58656000Y-156343500D02*
G01*
X58343000Y-156656500D01*
X58030000Y-156656500D01*
X58030000Y-156343500D01*
X58343000Y-156343500D01*
X58343000Y-156030500D01*
X58656000Y-156030500D01*
X58656000Y-156343500D01*
G37*
X58656000Y-156343500D02*
X58343000Y-156656500D01*
X58030000Y-156656500D01*
X58030000Y-156343500D01*
X58343000Y-156343500D01*
X58343000Y-156030500D01*
X58656000Y-156030500D01*
X58656000Y-156343500D01*
%TO.C,AE3*%
X110350000Y-185343500D02*
X110350000Y-185656500D01*
X110350000Y-185656500D02*
X115310000Y-185656500D01*
X115310000Y-185656500D02*
X115310000Y-185343500D01*
X115310000Y-185343500D02*
X110350000Y-185343500D01*
G36*
X115310000Y-185656500D02*
G01*
X110350000Y-185656500D01*
X110350000Y-185343500D01*
X115310000Y-185343500D01*
X115310000Y-185656500D01*
G37*
X115310000Y-185656500D02*
X110350000Y-185656500D01*
X110350000Y-185343500D01*
X115310000Y-185343500D01*
X115310000Y-185656500D01*
D11*
X110350000Y-185756004D02*
X110350000Y-185243889D01*
X110350000Y-185243889D02*
X113750000Y-185243889D01*
X113750000Y-185243889D02*
X113750000Y-177250000D01*
X113750000Y-177250000D02*
X101250000Y-177250000D01*
X101250000Y-177250000D02*
X101250000Y-193750000D01*
X101250000Y-193750000D02*
X113750000Y-193750000D01*
X113750000Y-193750000D02*
X113750000Y-185756004D01*
X113750000Y-185756004D02*
X110350000Y-185756004D01*
G36*
X113750000Y-185243889D02*
G01*
X110350000Y-185243889D01*
X110350000Y-185756004D01*
X113750000Y-185756004D01*
X113750000Y-193750000D01*
X101250000Y-193750000D01*
X101250000Y-177250000D01*
X113750000Y-177250000D01*
X113750000Y-185243889D01*
G37*
X113750000Y-185243889D02*
X110350000Y-185243889D01*
X110350000Y-185756004D01*
X113750000Y-185756004D01*
X113750000Y-193750000D01*
X101250000Y-193750000D01*
X101250000Y-177250000D01*
X113750000Y-177250000D01*
X113750000Y-185243889D01*
D10*
%TO.C,AE8*%
X81350000Y-127343500D02*
X81350000Y-127656500D01*
X81350000Y-127656500D02*
X86310000Y-127656500D01*
X86310000Y-127656500D02*
X86310000Y-127343500D01*
X86310000Y-127343500D02*
X81350000Y-127343500D01*
G36*
X86310000Y-127656500D02*
G01*
X81350000Y-127656500D01*
X81350000Y-127343500D01*
X86310000Y-127343500D01*
X86310000Y-127656500D01*
G37*
X86310000Y-127656500D02*
X81350000Y-127656500D01*
X81350000Y-127343500D01*
X86310000Y-127343500D01*
X86310000Y-127656500D01*
D11*
X81350000Y-127756004D02*
X81350000Y-127243889D01*
X81350000Y-127243889D02*
X84750000Y-127243889D01*
X84750000Y-127243889D02*
X84750000Y-119250000D01*
X84750000Y-119250000D02*
X72250000Y-119250000D01*
X72250000Y-119250000D02*
X72250000Y-135750000D01*
X72250000Y-135750000D02*
X84750000Y-135750000D01*
X84750000Y-135750000D02*
X84750000Y-127756004D01*
X84750000Y-127756004D02*
X81350000Y-127756004D01*
G36*
X84750000Y-127243889D02*
G01*
X81350000Y-127243889D01*
X81350000Y-127756004D01*
X84750000Y-127756004D01*
X84750000Y-135750000D01*
X72250000Y-135750000D01*
X72250000Y-119250000D01*
X84750000Y-119250000D01*
X84750000Y-127243889D01*
G37*
X84750000Y-127243889D02*
X81350000Y-127243889D01*
X81350000Y-127756004D01*
X84750000Y-127756004D01*
X84750000Y-135750000D01*
X72250000Y-135750000D01*
X72250000Y-119250000D01*
X84750000Y-119250000D01*
X84750000Y-127243889D01*
D10*
%TO.C,AA15*%
X87656000Y-197538500D02*
X87656000Y-197225500D01*
X87656000Y-197225500D02*
X87343000Y-197225500D01*
X87343000Y-197225500D02*
X87343000Y-197538500D01*
X87343000Y-197538500D02*
X87030000Y-197538500D01*
X87030000Y-197538500D02*
X87030000Y-197851500D01*
X87030000Y-197851500D02*
X87343000Y-197851500D01*
X87343000Y-197851500D02*
X87656000Y-197538500D01*
G36*
X87656000Y-197538500D02*
G01*
X87343000Y-197851500D01*
X87030000Y-197851500D01*
X87030000Y-197538500D01*
X87343000Y-197538500D01*
X87343000Y-197225500D01*
X87656000Y-197225500D01*
X87656000Y-197538500D01*
G37*
X87656000Y-197538500D02*
X87343000Y-197851500D01*
X87030000Y-197851500D01*
X87030000Y-197538500D01*
X87343000Y-197538500D01*
X87343000Y-197225500D01*
X87656000Y-197225500D01*
X87656000Y-197538500D01*
%TO.C,AA6*%
X116656500Y-81852000D02*
X116969500Y-81852000D01*
X116969500Y-81852000D02*
X116969500Y-81539000D01*
X116969500Y-81539000D02*
X116656500Y-81539000D01*
X116656500Y-81539000D02*
X116656500Y-81226000D01*
X116656500Y-81226000D02*
X116343500Y-81226000D01*
X116343500Y-81226000D02*
X116343500Y-81539000D01*
X116343500Y-81539000D02*
X116656500Y-81852000D01*
G36*
X116656500Y-81539000D02*
G01*
X116969500Y-81539000D01*
X116969500Y-81852000D01*
X116656500Y-81852000D01*
X116343500Y-81539000D01*
X116343500Y-81226000D01*
X116656500Y-81226000D01*
X116656500Y-81539000D01*
G37*
X116656500Y-81539000D02*
X116969500Y-81539000D01*
X116969500Y-81852000D01*
X116656500Y-81852000D01*
X116343500Y-81539000D01*
X116343500Y-81226000D01*
X116656500Y-81226000D01*
X116656500Y-81539000D01*
%TO.C,AA13*%
X58343500Y-127344000D02*
X58030500Y-127344000D01*
X58030500Y-127344000D02*
X58030500Y-127657000D01*
X58030500Y-127657000D02*
X58343500Y-127657000D01*
X58343500Y-127657000D02*
X58343500Y-127970000D01*
X58343500Y-127970000D02*
X58656500Y-127970000D01*
X58656500Y-127970000D02*
X58656500Y-127657000D01*
X58656500Y-127657000D02*
X58343500Y-127344000D01*
G36*
X58656500Y-127657000D02*
G01*
X58656500Y-127970000D01*
X58343500Y-127970000D01*
X58343500Y-127657000D01*
X58030500Y-127657000D01*
X58030500Y-127344000D01*
X58343500Y-127344000D01*
X58656500Y-127657000D01*
G37*
X58656500Y-127657000D02*
X58656500Y-127970000D01*
X58343500Y-127970000D01*
X58343500Y-127657000D01*
X58030500Y-127657000D01*
X58030500Y-127344000D01*
X58343500Y-127344000D01*
X58656500Y-127657000D01*
%TO.C,AA5*%
X116343500Y-11344000D02*
X116030500Y-11344000D01*
X116030500Y-11344000D02*
X116030500Y-11657000D01*
X116030500Y-11657000D02*
X116343500Y-11657000D01*
X116343500Y-11657000D02*
X116343500Y-11970000D01*
X116343500Y-11970000D02*
X116656500Y-11970000D01*
X116656500Y-11970000D02*
X116656500Y-11657000D01*
X116656500Y-11657000D02*
X116343500Y-11344000D01*
G36*
X116656500Y-11657000D02*
G01*
X116656500Y-11970000D01*
X116343500Y-11970000D01*
X116343500Y-11657000D01*
X116030500Y-11657000D01*
X116030500Y-11344000D01*
X116343500Y-11344000D01*
X116656500Y-11657000D01*
G37*
X116656500Y-11657000D02*
X116656500Y-11970000D01*
X116343500Y-11970000D01*
X116343500Y-11657000D01*
X116030500Y-11657000D01*
X116030500Y-11344000D01*
X116343500Y-11344000D01*
X116656500Y-11657000D01*
%TO.C,AA8*%
X145343500Y-11344000D02*
X145030500Y-11344000D01*
X145030500Y-11344000D02*
X145030500Y-11657000D01*
X145030500Y-11657000D02*
X145343500Y-11657000D01*
X145343500Y-11657000D02*
X145343500Y-11970000D01*
X145343500Y-11970000D02*
X145656500Y-11970000D01*
X145656500Y-11970000D02*
X145656500Y-11657000D01*
X145656500Y-11657000D02*
X145343500Y-11344000D01*
G36*
X145656500Y-11657000D02*
G01*
X145656500Y-11970000D01*
X145343500Y-11970000D01*
X145343500Y-11657000D01*
X145030500Y-11657000D01*
X145030500Y-11344000D01*
X145343500Y-11344000D01*
X145656500Y-11657000D01*
G37*
X145656500Y-11657000D02*
X145656500Y-11970000D01*
X145343500Y-11970000D01*
X145343500Y-11657000D01*
X145030500Y-11657000D01*
X145030500Y-11344000D01*
X145343500Y-11344000D01*
X145656500Y-11657000D01*
X145343500Y-69344000D02*
X145030500Y-69344000D01*
X145030500Y-69344000D02*
X145030500Y-69657000D01*
X145030500Y-69657000D02*
X145343500Y-69657000D01*
X145343500Y-69657000D02*
X145343500Y-69970000D01*
X145343500Y-69970000D02*
X145656500Y-69970000D01*
X145656500Y-69970000D02*
X145656500Y-69657000D01*
X145656500Y-69657000D02*
X145343500Y-69344000D01*
G36*
X145656500Y-69657000D02*
G01*
X145656500Y-69970000D01*
X145343500Y-69970000D01*
X145343500Y-69657000D01*
X145030500Y-69657000D01*
X145030500Y-69344000D01*
X145343500Y-69344000D01*
X145656500Y-69657000D01*
G37*
X145656500Y-69657000D02*
X145656500Y-69970000D01*
X145343500Y-69970000D01*
X145343500Y-69657000D01*
X145030500Y-69657000D01*
X145030500Y-69344000D01*
X145343500Y-69344000D01*
X145656500Y-69657000D01*
%TO.C,AA11*%
X87343500Y-28137000D02*
X87030500Y-28137000D01*
X87030500Y-28137000D02*
X87030500Y-28450000D01*
X87030500Y-28450000D02*
X87343500Y-28450000D01*
X87343500Y-28450000D02*
X87343500Y-28763000D01*
X87343500Y-28763000D02*
X87656500Y-28763000D01*
X87656500Y-28763000D02*
X87656500Y-28450000D01*
X87656500Y-28450000D02*
X87343500Y-28137000D01*
G36*
X87656500Y-28450000D02*
G01*
X87656500Y-28763000D01*
X87343500Y-28763000D01*
X87343500Y-28450000D01*
X87030500Y-28450000D01*
X87030500Y-28137000D01*
X87343500Y-28137000D01*
X87656500Y-28450000D01*
G37*
X87656500Y-28450000D02*
X87656500Y-28763000D01*
X87343500Y-28763000D01*
X87343500Y-28450000D01*
X87030500Y-28450000D01*
X87030500Y-28137000D01*
X87343500Y-28137000D01*
X87656500Y-28450000D01*
%TO.C,AA3*%
X145343500Y-144137000D02*
X145030500Y-144137000D01*
X145030500Y-144137000D02*
X145030500Y-144450000D01*
X145030500Y-144450000D02*
X145343500Y-144450000D01*
X145343500Y-144450000D02*
X145343500Y-144763000D01*
X145343500Y-144763000D02*
X145656500Y-144763000D01*
X145656500Y-144763000D02*
X145656500Y-144450000D01*
X145656500Y-144450000D02*
X145343500Y-144137000D01*
G36*
X145656500Y-144450000D02*
G01*
X145656500Y-144763000D01*
X145343500Y-144763000D01*
X145343500Y-144450000D01*
X145030500Y-144450000D01*
X145030500Y-144137000D01*
X145343500Y-144137000D01*
X145656500Y-144450000D01*
G37*
X145656500Y-144450000D02*
X145656500Y-144763000D01*
X145343500Y-144763000D01*
X145343500Y-144450000D01*
X145030500Y-144450000D01*
X145030500Y-144137000D01*
X145343500Y-144137000D01*
X145656500Y-144450000D01*
%TO.C,AA2*%
X116344000Y-28449500D02*
X116344000Y-28762500D01*
X116344000Y-28762500D02*
X116657000Y-28762500D01*
X116657000Y-28762500D02*
X116657000Y-28449500D01*
X116657000Y-28449500D02*
X116970000Y-28449500D01*
X116970000Y-28449500D02*
X116970000Y-28136500D01*
X116970000Y-28136500D02*
X116657000Y-28136500D01*
X116657000Y-28136500D02*
X116344000Y-28449500D01*
G36*
X116970000Y-28449500D02*
G01*
X116657000Y-28449500D01*
X116657000Y-28762500D01*
X116344000Y-28762500D01*
X116344000Y-28449500D01*
X116657000Y-28136500D01*
X116970000Y-28136500D01*
X116970000Y-28449500D01*
G37*
X116970000Y-28449500D02*
X116657000Y-28449500D01*
X116657000Y-28762500D01*
X116344000Y-28762500D01*
X116344000Y-28449500D01*
X116657000Y-28136500D01*
X116970000Y-28136500D01*
X116970000Y-28449500D01*
%TO.C,AA13*%
X58343500Y-185344000D02*
X58030500Y-185344000D01*
X58030500Y-185344000D02*
X58030500Y-185657000D01*
X58030500Y-185657000D02*
X58343500Y-185657000D01*
X58343500Y-185657000D02*
X58343500Y-185970000D01*
X58343500Y-185970000D02*
X58656500Y-185970000D01*
X58656500Y-185970000D02*
X58656500Y-185657000D01*
X58656500Y-185657000D02*
X58343500Y-185344000D01*
G36*
X58656500Y-185657000D02*
G01*
X58656500Y-185970000D01*
X58343500Y-185970000D01*
X58343500Y-185657000D01*
X58030500Y-185657000D01*
X58030500Y-185344000D01*
X58343500Y-185344000D01*
X58656500Y-185657000D01*
G37*
X58656500Y-185657000D02*
X58656500Y-185970000D01*
X58343500Y-185970000D01*
X58343500Y-185657000D01*
X58030500Y-185657000D01*
X58030500Y-185344000D01*
X58343500Y-185344000D01*
X58656500Y-185657000D01*
X58343500Y-69344000D02*
X58030500Y-69344000D01*
X58030500Y-69344000D02*
X58030500Y-69657000D01*
X58030500Y-69657000D02*
X58343500Y-69657000D01*
X58343500Y-69657000D02*
X58343500Y-69970000D01*
X58343500Y-69970000D02*
X58656500Y-69970000D01*
X58656500Y-69970000D02*
X58656500Y-69657000D01*
X58656500Y-69657000D02*
X58343500Y-69344000D01*
G36*
X58656500Y-69657000D02*
G01*
X58656500Y-69970000D01*
X58343500Y-69970000D01*
X58343500Y-69657000D01*
X58030500Y-69657000D01*
X58030500Y-69344000D01*
X58343500Y-69344000D01*
X58656500Y-69657000D01*
G37*
X58656500Y-69657000D02*
X58656500Y-69970000D01*
X58343500Y-69970000D01*
X58343500Y-69657000D01*
X58030500Y-69657000D01*
X58030500Y-69344000D01*
X58343500Y-69344000D01*
X58656500Y-69657000D01*
%TO.C,AA3*%
X145343500Y-202137000D02*
X145030500Y-202137000D01*
X145030500Y-202137000D02*
X145030500Y-202450000D01*
X145030500Y-202450000D02*
X145343500Y-202450000D01*
X145343500Y-202450000D02*
X145343500Y-202763000D01*
X145343500Y-202763000D02*
X145656500Y-202763000D01*
X145656500Y-202763000D02*
X145656500Y-202450000D01*
X145656500Y-202450000D02*
X145343500Y-202137000D01*
G36*
X145656500Y-202450000D02*
G01*
X145656500Y-202763000D01*
X145343500Y-202763000D01*
X145343500Y-202450000D01*
X145030500Y-202450000D01*
X145030500Y-202137000D01*
X145343500Y-202137000D01*
X145656500Y-202450000D01*
G37*
X145656500Y-202450000D02*
X145656500Y-202763000D01*
X145343500Y-202763000D01*
X145343500Y-202450000D01*
X145030500Y-202450000D01*
X145030500Y-202137000D01*
X145343500Y-202137000D01*
X145656500Y-202450000D01*
%TO.C,AA8*%
X145343500Y-185344000D02*
X145030500Y-185344000D01*
X145030500Y-185344000D02*
X145030500Y-185657000D01*
X145030500Y-185657000D02*
X145343500Y-185657000D01*
X145343500Y-185657000D02*
X145343500Y-185970000D01*
X145343500Y-185970000D02*
X145656500Y-185970000D01*
X145656500Y-185970000D02*
X145656500Y-185657000D01*
X145656500Y-185657000D02*
X145343500Y-185344000D01*
G36*
X145656500Y-185657000D02*
G01*
X145656500Y-185970000D01*
X145343500Y-185970000D01*
X145343500Y-185657000D01*
X145030500Y-185657000D01*
X145030500Y-185344000D01*
X145343500Y-185344000D01*
X145656500Y-185657000D01*
G37*
X145656500Y-185657000D02*
X145656500Y-185970000D01*
X145343500Y-185970000D01*
X145343500Y-185657000D01*
X145030500Y-185657000D01*
X145030500Y-185344000D01*
X145343500Y-185344000D01*
X145656500Y-185657000D01*
D11*
%TO.C,AE1*%
X110350000Y-156756004D02*
X110350000Y-156243889D01*
X110350000Y-156243889D02*
X113750000Y-156243889D01*
X113750000Y-156243889D02*
X113750000Y-148250000D01*
X113750000Y-148250000D02*
X101250000Y-148250000D01*
X101250000Y-148250000D02*
X101250000Y-164750000D01*
X101250000Y-164750000D02*
X113750000Y-164750000D01*
X113750000Y-164750000D02*
X113750000Y-156756004D01*
X113750000Y-156756004D02*
X110350000Y-156756004D01*
G36*
X113750000Y-156243889D02*
G01*
X110350000Y-156243889D01*
X110350000Y-156756004D01*
X113750000Y-156756004D01*
X113750000Y-164750000D01*
X101250000Y-164750000D01*
X101250000Y-148250000D01*
X113750000Y-148250000D01*
X113750000Y-156243889D01*
G37*
X113750000Y-156243889D02*
X110350000Y-156243889D01*
X110350000Y-156756004D01*
X113750000Y-156756004D01*
X113750000Y-164750000D01*
X101250000Y-164750000D01*
X101250000Y-148250000D01*
X113750000Y-148250000D01*
X113750000Y-156243889D01*
D10*
X110350000Y-156343500D02*
X110350000Y-156656500D01*
X110350000Y-156656500D02*
X115310000Y-156656500D01*
X115310000Y-156656500D02*
X115310000Y-156343500D01*
X115310000Y-156343500D02*
X110350000Y-156343500D01*
G36*
X115310000Y-156656500D02*
G01*
X110350000Y-156656500D01*
X110350000Y-156343500D01*
X115310000Y-156343500D01*
X115310000Y-156656500D01*
G37*
X115310000Y-156656500D02*
X110350000Y-156656500D01*
X110350000Y-156343500D01*
X115310000Y-156343500D01*
X115310000Y-156656500D01*
%TO.C,AA12*%
X87656000Y-214343500D02*
X87656000Y-214030500D01*
X87656000Y-214030500D02*
X87343000Y-214030500D01*
X87343000Y-214030500D02*
X87343000Y-214343500D01*
X87343000Y-214343500D02*
X87030000Y-214343500D01*
X87030000Y-214343500D02*
X87030000Y-214656500D01*
X87030000Y-214656500D02*
X87343000Y-214656500D01*
X87343000Y-214656500D02*
X87656000Y-214343500D01*
G36*
X87656000Y-214343500D02*
G01*
X87343000Y-214656500D01*
X87030000Y-214656500D01*
X87030000Y-214343500D01*
X87343000Y-214343500D01*
X87343000Y-214030500D01*
X87656000Y-214030500D01*
X87656000Y-214343500D01*
G37*
X87656000Y-214343500D02*
X87343000Y-214656500D01*
X87030000Y-214656500D01*
X87030000Y-214343500D01*
X87343000Y-214343500D01*
X87343000Y-214030500D01*
X87656000Y-214030500D01*
X87656000Y-214343500D01*
%TO.C,AA13*%
X58343500Y-11344000D02*
X58030500Y-11344000D01*
X58030500Y-11344000D02*
X58030500Y-11657000D01*
X58030500Y-11657000D02*
X58343500Y-11657000D01*
X58343500Y-11657000D02*
X58343500Y-11970000D01*
X58343500Y-11970000D02*
X58656500Y-11970000D01*
X58656500Y-11970000D02*
X58656500Y-11657000D01*
X58656500Y-11657000D02*
X58343500Y-11344000D01*
G36*
X58656500Y-11657000D02*
G01*
X58656500Y-11970000D01*
X58343500Y-11970000D01*
X58343500Y-11657000D01*
X58030500Y-11657000D01*
X58030500Y-11344000D01*
X58343500Y-11344000D01*
X58656500Y-11657000D01*
G37*
X58656500Y-11657000D02*
X58656500Y-11970000D01*
X58343500Y-11970000D01*
X58343500Y-11657000D01*
X58030500Y-11657000D01*
X58030500Y-11344000D01*
X58343500Y-11344000D01*
X58656500Y-11657000D01*
%TO.C,AA9*%
X58656000Y-40343500D02*
X58656000Y-40030500D01*
X58656000Y-40030500D02*
X58343000Y-40030500D01*
X58343000Y-40030500D02*
X58343000Y-40343500D01*
X58343000Y-40343500D02*
X58030000Y-40343500D01*
X58030000Y-40343500D02*
X58030000Y-40656500D01*
X58030000Y-40656500D02*
X58343000Y-40656500D01*
X58343000Y-40656500D02*
X58656000Y-40343500D01*
G36*
X58656000Y-40343500D02*
G01*
X58343000Y-40656500D01*
X58030000Y-40656500D01*
X58030000Y-40343500D01*
X58343000Y-40343500D01*
X58343000Y-40030500D01*
X58656000Y-40030500D01*
X58656000Y-40343500D01*
G37*
X58656000Y-40343500D02*
X58343000Y-40656500D01*
X58030000Y-40656500D01*
X58030000Y-40343500D01*
X58343000Y-40343500D01*
X58343000Y-40030500D01*
X58656000Y-40030500D01*
X58656000Y-40343500D01*
%TO.C,NT1*%
X130259000Y-141261721D02*
X125974992Y-141261718D01*
X125974992Y-141261718D02*
X125974992Y-142739421D01*
X125974992Y-142739421D02*
X130259000Y-142739424D01*
X130259000Y-142739424D02*
X130259000Y-141261721D01*
G36*
X130259000Y-141261721D02*
G01*
X130259000Y-142739424D01*
X125974992Y-142739421D01*
X125974992Y-141261718D01*
X130259000Y-141261721D01*
G37*
X130259000Y-141261721D02*
X130259000Y-142739424D01*
X125974992Y-142739421D01*
X125974992Y-141261718D01*
X130259000Y-141261721D01*
X131735587Y-142734000D02*
X130997000Y-141995000D01*
X130997000Y-141995000D02*
X131735587Y-141256000D01*
X131735587Y-141256000D02*
X131735587Y-139852707D01*
X131735587Y-139852707D02*
X130258171Y-139852707D01*
X130258171Y-139852707D02*
X130258171Y-144137360D01*
X130258171Y-144137360D02*
X131735587Y-144137360D01*
X131735587Y-144137360D02*
X131735587Y-142734000D01*
G36*
X131735587Y-141256000D02*
G01*
X130997000Y-141995000D01*
X131735587Y-142734000D01*
X131735587Y-144137360D01*
X130258171Y-144137360D01*
X130258171Y-139852707D01*
X131735587Y-139852707D01*
X131735587Y-141256000D01*
G37*
X131735587Y-141256000D02*
X130997000Y-141995000D01*
X131735587Y-142734000D01*
X131735587Y-144137360D01*
X130258171Y-144137360D01*
X130258171Y-139852707D01*
X131735587Y-139852707D01*
X131735587Y-141256000D01*
%TO.C,AA16*%
X87343500Y-127344000D02*
X87030500Y-127344000D01*
X87030500Y-127344000D02*
X87030500Y-127657000D01*
X87030500Y-127657000D02*
X87343500Y-127657000D01*
X87343500Y-127657000D02*
X87343500Y-127970000D01*
X87343500Y-127970000D02*
X87656500Y-127970000D01*
X87656500Y-127970000D02*
X87656500Y-127657000D01*
X87656500Y-127657000D02*
X87343500Y-127344000D01*
G36*
X87656500Y-127657000D02*
G01*
X87656500Y-127970000D01*
X87343500Y-127970000D01*
X87343500Y-127657000D01*
X87030500Y-127657000D01*
X87030500Y-127344000D01*
X87343500Y-127344000D01*
X87656500Y-127657000D01*
G37*
X87656500Y-127657000D02*
X87656500Y-127970000D01*
X87343500Y-127970000D01*
X87343500Y-127657000D01*
X87030500Y-127657000D01*
X87030500Y-127344000D01*
X87343500Y-127344000D01*
X87656500Y-127657000D01*
%TO.C,AA9*%
X58656000Y-214343500D02*
X58656000Y-214030500D01*
X58656000Y-214030500D02*
X58343000Y-214030500D01*
X58343000Y-214030500D02*
X58343000Y-214343500D01*
X58343000Y-214343500D02*
X58030000Y-214343500D01*
X58030000Y-214343500D02*
X58030000Y-214656500D01*
X58030000Y-214656500D02*
X58343000Y-214656500D01*
X58343000Y-214656500D02*
X58656000Y-214343500D01*
G36*
X58656000Y-214343500D02*
G01*
X58343000Y-214656500D01*
X58030000Y-214656500D01*
X58030000Y-214343500D01*
X58343000Y-214343500D01*
X58343000Y-214030500D01*
X58656000Y-214030500D01*
X58656000Y-214343500D01*
G37*
X58656000Y-214343500D02*
X58343000Y-214656500D01*
X58030000Y-214656500D01*
X58030000Y-214343500D01*
X58343000Y-214343500D01*
X58343000Y-214030500D01*
X58656000Y-214030500D01*
X58656000Y-214343500D01*
%TO.C,AA7*%
X145656000Y-139539500D02*
X145656000Y-139226500D01*
X145656000Y-139226500D02*
X145343000Y-139226500D01*
X145343000Y-139226500D02*
X145343000Y-139539500D01*
X145343000Y-139539500D02*
X145030000Y-139539500D01*
X145030000Y-139539500D02*
X145030000Y-139852500D01*
X145030000Y-139852500D02*
X145343000Y-139852500D01*
X145343000Y-139852500D02*
X145656000Y-139539500D01*
G36*
X145656000Y-139539500D02*
G01*
X145343000Y-139852500D01*
X145030000Y-139852500D01*
X145030000Y-139539500D01*
X145343000Y-139539500D01*
X145343000Y-139226500D01*
X145656000Y-139226500D01*
X145656000Y-139539500D01*
G37*
X145656000Y-139539500D02*
X145343000Y-139852500D01*
X145030000Y-139852500D01*
X145030000Y-139539500D01*
X145343000Y-139539500D01*
X145343000Y-139226500D01*
X145656000Y-139226500D01*
X145656000Y-139539500D01*
%TO.C,NT2*%
X73740000Y-142728279D02*
X78024008Y-142728282D01*
X78024008Y-142728282D02*
X78024008Y-141250579D01*
X78024008Y-141250579D02*
X73740000Y-141250576D01*
X73740000Y-141250576D02*
X73740000Y-142728279D01*
G36*
X78024008Y-141250579D02*
G01*
X78024008Y-142728282D01*
X73740000Y-142728279D01*
X73740000Y-141250576D01*
X78024008Y-141250579D01*
G37*
X78024008Y-141250579D02*
X78024008Y-142728282D01*
X73740000Y-142728279D01*
X73740000Y-141250576D01*
X78024008Y-141250579D01*
X72263413Y-141256000D02*
X73002000Y-141995000D01*
X73002000Y-141995000D02*
X72263413Y-142734000D01*
X72263413Y-142734000D02*
X72263413Y-144137293D01*
X72263413Y-144137293D02*
X73740829Y-144137293D01*
X73740829Y-144137293D02*
X73740829Y-139852640D01*
X73740829Y-139852640D02*
X72263413Y-139852640D01*
X72263413Y-139852640D02*
X72263413Y-141256000D01*
G36*
X73740829Y-144137293D02*
G01*
X72263413Y-144137293D01*
X72263413Y-142734000D01*
X73002000Y-141995000D01*
X72263413Y-141256000D01*
X72263413Y-139852640D01*
X73740829Y-139852640D01*
X73740829Y-144137293D01*
G37*
X73740829Y-144137293D02*
X72263413Y-144137293D01*
X72263413Y-142734000D01*
X73002000Y-141995000D01*
X72263413Y-141256000D01*
X72263413Y-139852640D01*
X73740829Y-139852640D01*
X73740829Y-144137293D01*
%TO.C,AA3*%
X145343500Y-86137000D02*
X145030500Y-86137000D01*
X145030500Y-86137000D02*
X145030500Y-86450000D01*
X145030500Y-86450000D02*
X145343500Y-86450000D01*
X145343500Y-86450000D02*
X145343500Y-86763000D01*
X145343500Y-86763000D02*
X145656500Y-86763000D01*
X145656500Y-86763000D02*
X145656500Y-86450000D01*
X145656500Y-86450000D02*
X145343500Y-86137000D01*
G36*
X145656500Y-86450000D02*
G01*
X145656500Y-86763000D01*
X145343500Y-86763000D01*
X145343500Y-86450000D01*
X145030500Y-86450000D01*
X145030500Y-86137000D01*
X145343500Y-86137000D01*
X145656500Y-86450000D01*
G37*
X145656500Y-86450000D02*
X145656500Y-86763000D01*
X145343500Y-86763000D01*
X145343500Y-86450000D01*
X145030500Y-86450000D01*
X145030500Y-86137000D01*
X145343500Y-86137000D01*
X145656500Y-86450000D01*
%TO.C,AA9*%
X58656000Y-98343500D02*
X58656000Y-98030500D01*
X58656000Y-98030500D02*
X58343000Y-98030500D01*
X58343000Y-98030500D02*
X58343000Y-98343500D01*
X58343000Y-98343500D02*
X58030000Y-98343500D01*
X58030000Y-98343500D02*
X58030000Y-98656500D01*
X58030000Y-98656500D02*
X58343000Y-98656500D01*
X58343000Y-98656500D02*
X58656000Y-98343500D01*
G36*
X58656000Y-98343500D02*
G01*
X58343000Y-98656500D01*
X58030000Y-98656500D01*
X58030000Y-98343500D01*
X58343000Y-98343500D01*
X58343000Y-98030500D01*
X58656000Y-98030500D01*
X58656000Y-98343500D01*
G37*
X58656000Y-98343500D02*
X58343000Y-98656500D01*
X58030000Y-98656500D01*
X58030000Y-98343500D01*
X58343000Y-98343500D01*
X58343000Y-98030500D01*
X58656000Y-98030500D01*
X58656000Y-98343500D01*
%TO.C,AA15*%
X87656000Y-139538500D02*
X87656000Y-139225500D01*
X87656000Y-139225500D02*
X87343000Y-139225500D01*
X87343000Y-139225500D02*
X87343000Y-139538500D01*
X87343000Y-139538500D02*
X87030000Y-139538500D01*
X87030000Y-139538500D02*
X87030000Y-139851500D01*
X87030000Y-139851500D02*
X87343000Y-139851500D01*
X87343000Y-139851500D02*
X87656000Y-139538500D01*
G36*
X87656000Y-139538500D02*
G01*
X87343000Y-139851500D01*
X87030000Y-139851500D01*
X87030000Y-139538500D01*
X87343000Y-139538500D01*
X87343000Y-139225500D01*
X87656000Y-139225500D01*
X87656000Y-139538500D01*
G37*
X87656000Y-139538500D02*
X87343000Y-139851500D01*
X87030000Y-139851500D01*
X87030000Y-139538500D01*
X87343000Y-139538500D01*
X87343000Y-139225500D01*
X87656000Y-139225500D01*
X87656000Y-139538500D01*
%TO.C,AE7*%
X52350000Y-69343500D02*
X52350000Y-69656500D01*
X52350000Y-69656500D02*
X57310000Y-69656500D01*
X57310000Y-69656500D02*
X57310000Y-69343500D01*
X57310000Y-69343500D02*
X52350000Y-69343500D01*
G36*
X57310000Y-69656500D02*
G01*
X52350000Y-69656500D01*
X52350000Y-69343500D01*
X57310000Y-69343500D01*
X57310000Y-69656500D01*
G37*
X57310000Y-69656500D02*
X52350000Y-69656500D01*
X52350000Y-69343500D01*
X57310000Y-69343500D01*
X57310000Y-69656500D01*
D11*
X52350000Y-69756004D02*
X52350000Y-69243889D01*
X52350000Y-69243889D02*
X55750000Y-69243889D01*
X55750000Y-69243889D02*
X55750000Y-61250000D01*
X55750000Y-61250000D02*
X43250000Y-61250000D01*
X43250000Y-61250000D02*
X43250000Y-77750000D01*
X43250000Y-77750000D02*
X55750000Y-77750000D01*
X55750000Y-77750000D02*
X55750000Y-69756004D01*
X55750000Y-69756004D02*
X52350000Y-69756004D01*
G36*
X55750000Y-69243889D02*
G01*
X52350000Y-69243889D01*
X52350000Y-69756004D01*
X55750000Y-69756004D01*
X55750000Y-77750000D01*
X43250000Y-77750000D01*
X43250000Y-61250000D01*
X55750000Y-61250000D01*
X55750000Y-69243889D01*
G37*
X55750000Y-69243889D02*
X52350000Y-69243889D01*
X52350000Y-69756004D01*
X55750000Y-69756004D01*
X55750000Y-77750000D01*
X43250000Y-77750000D01*
X43250000Y-61250000D01*
X55750000Y-61250000D01*
X55750000Y-69243889D01*
%TO.C,AE3*%
X110350000Y-11756004D02*
X110350000Y-11243889D01*
X110350000Y-11243889D02*
X113750000Y-11243889D01*
X113750000Y-11243889D02*
X113750000Y-3250000D01*
X113750000Y-3250000D02*
X101250000Y-3250000D01*
X101250000Y-3250000D02*
X101250000Y-19750000D01*
X101250000Y-19750000D02*
X113750000Y-19750000D01*
X113750000Y-19750000D02*
X113750000Y-11756004D01*
X113750000Y-11756004D02*
X110350000Y-11756004D01*
G36*
X113750000Y-11243889D02*
G01*
X110350000Y-11243889D01*
X110350000Y-11756004D01*
X113750000Y-11756004D01*
X113750000Y-19750000D01*
X101250000Y-19750000D01*
X101250000Y-3250000D01*
X113750000Y-3250000D01*
X113750000Y-11243889D01*
G37*
X113750000Y-11243889D02*
X110350000Y-11243889D01*
X110350000Y-11756004D01*
X113750000Y-11756004D01*
X113750000Y-19750000D01*
X101250000Y-19750000D01*
X101250000Y-3250000D01*
X113750000Y-3250000D01*
X113750000Y-11243889D01*
D10*
X110350000Y-11343500D02*
X110350000Y-11656500D01*
X110350000Y-11656500D02*
X115310000Y-11656500D01*
X115310000Y-11656500D02*
X115310000Y-11343500D01*
X115310000Y-11343500D02*
X110350000Y-11343500D01*
G36*
X115310000Y-11656500D02*
G01*
X110350000Y-11656500D01*
X110350000Y-11343500D01*
X115310000Y-11343500D01*
X115310000Y-11656500D01*
G37*
X115310000Y-11656500D02*
X110350000Y-11656500D01*
X110350000Y-11343500D01*
X115310000Y-11343500D01*
X115310000Y-11656500D01*
%TO.C,AE6*%
X81350000Y-156343500D02*
X81350000Y-156656500D01*
X81350000Y-156656500D02*
X86310000Y-156656500D01*
X86310000Y-156656500D02*
X86310000Y-156343500D01*
X86310000Y-156343500D02*
X81350000Y-156343500D01*
G36*
X86310000Y-156656500D02*
G01*
X81350000Y-156656500D01*
X81350000Y-156343500D01*
X86310000Y-156343500D01*
X86310000Y-156656500D01*
G37*
X86310000Y-156656500D02*
X81350000Y-156656500D01*
X81350000Y-156343500D01*
X86310000Y-156343500D01*
X86310000Y-156656500D01*
D11*
X81350000Y-156756004D02*
X81350000Y-156243889D01*
X81350000Y-156243889D02*
X84750000Y-156243889D01*
X84750000Y-156243889D02*
X84750000Y-148250000D01*
X84750000Y-148250000D02*
X72250000Y-148250000D01*
X72250000Y-148250000D02*
X72250000Y-164750000D01*
X72250000Y-164750000D02*
X84750000Y-164750000D01*
X84750000Y-164750000D02*
X84750000Y-156756004D01*
X84750000Y-156756004D02*
X81350000Y-156756004D01*
G36*
X84750000Y-156243889D02*
G01*
X81350000Y-156243889D01*
X81350000Y-156756004D01*
X84750000Y-156756004D01*
X84750000Y-164750000D01*
X72250000Y-164750000D01*
X72250000Y-148250000D01*
X84750000Y-148250000D01*
X84750000Y-156243889D01*
G37*
X84750000Y-156243889D02*
X81350000Y-156243889D01*
X81350000Y-156756004D01*
X84750000Y-156756004D01*
X84750000Y-164750000D01*
X72250000Y-164750000D01*
X72250000Y-148250000D01*
X84750000Y-148250000D01*
X84750000Y-156243889D01*
%TO.C,AE8*%
X81350000Y-11756004D02*
X81350000Y-11243889D01*
X81350000Y-11243889D02*
X84750000Y-11243889D01*
X84750000Y-11243889D02*
X84750000Y-3250000D01*
X84750000Y-3250000D02*
X72250000Y-3250000D01*
X72250000Y-3250000D02*
X72250000Y-19750000D01*
X72250000Y-19750000D02*
X84750000Y-19750000D01*
X84750000Y-19750000D02*
X84750000Y-11756004D01*
X84750000Y-11756004D02*
X81350000Y-11756004D01*
G36*
X84750000Y-11243889D02*
G01*
X81350000Y-11243889D01*
X81350000Y-11756004D01*
X84750000Y-11756004D01*
X84750000Y-19750000D01*
X72250000Y-19750000D01*
X72250000Y-3250000D01*
X84750000Y-3250000D01*
X84750000Y-11243889D01*
G37*
X84750000Y-11243889D02*
X81350000Y-11243889D01*
X81350000Y-11756004D01*
X84750000Y-11756004D01*
X84750000Y-19750000D01*
X72250000Y-19750000D01*
X72250000Y-3250000D01*
X84750000Y-3250000D01*
X84750000Y-11243889D01*
D10*
X81350000Y-11343500D02*
X81350000Y-11656500D01*
X81350000Y-11656500D02*
X86310000Y-11656500D01*
X86310000Y-11656500D02*
X86310000Y-11343500D01*
X86310000Y-11343500D02*
X81350000Y-11343500D01*
G36*
X86310000Y-11656500D02*
G01*
X81350000Y-11656500D01*
X81350000Y-11343500D01*
X86310000Y-11343500D01*
X86310000Y-11656500D01*
G37*
X86310000Y-11656500D02*
X81350000Y-11656500D01*
X81350000Y-11343500D01*
X86310000Y-11343500D01*
X86310000Y-11656500D01*
%TO.C,AE5*%
X52350000Y-214343500D02*
X52350000Y-214656500D01*
X52350000Y-214656500D02*
X57310000Y-214656500D01*
X57310000Y-214656500D02*
X57310000Y-214343500D01*
X57310000Y-214343500D02*
X52350000Y-214343500D01*
G36*
X57310000Y-214656500D02*
G01*
X52350000Y-214656500D01*
X52350000Y-214343500D01*
X57310000Y-214343500D01*
X57310000Y-214656500D01*
G37*
X57310000Y-214656500D02*
X52350000Y-214656500D01*
X52350000Y-214343500D01*
X57310000Y-214343500D01*
X57310000Y-214656500D01*
D11*
X52350000Y-214756004D02*
X52350000Y-214243889D01*
X52350000Y-214243889D02*
X55750000Y-214243889D01*
X55750000Y-214243889D02*
X55750000Y-206250000D01*
X55750000Y-206250000D02*
X43250000Y-206250000D01*
X43250000Y-206250000D02*
X43250000Y-222750000D01*
X43250000Y-222750000D02*
X55750000Y-222750000D01*
X55750000Y-222750000D02*
X55750000Y-214756004D01*
X55750000Y-214756004D02*
X52350000Y-214756004D01*
G36*
X55750000Y-214243889D02*
G01*
X52350000Y-214243889D01*
X52350000Y-214756004D01*
X55750000Y-214756004D01*
X55750000Y-222750000D01*
X43250000Y-222750000D01*
X43250000Y-206250000D01*
X55750000Y-206250000D01*
X55750000Y-214243889D01*
G37*
X55750000Y-214243889D02*
X52350000Y-214243889D01*
X52350000Y-214756004D01*
X55750000Y-214756004D01*
X55750000Y-222750000D01*
X43250000Y-222750000D01*
X43250000Y-206250000D01*
X55750000Y-206250000D01*
X55750000Y-214243889D01*
D10*
%TO.C,AA2*%
X116344000Y-202449500D02*
X116344000Y-202762500D01*
X116344000Y-202762500D02*
X116657000Y-202762500D01*
X116657000Y-202762500D02*
X116657000Y-202449500D01*
X116657000Y-202449500D02*
X116970000Y-202449500D01*
X116970000Y-202449500D02*
X116970000Y-202136500D01*
X116970000Y-202136500D02*
X116657000Y-202136500D01*
X116657000Y-202136500D02*
X116344000Y-202449500D01*
G36*
X116970000Y-202449500D02*
G01*
X116657000Y-202449500D01*
X116657000Y-202762500D01*
X116344000Y-202762500D01*
X116344000Y-202449500D01*
X116657000Y-202136500D01*
X116970000Y-202136500D01*
X116970000Y-202449500D01*
G37*
X116970000Y-202449500D02*
X116657000Y-202449500D01*
X116657000Y-202762500D01*
X116344000Y-202762500D01*
X116344000Y-202449500D01*
X116657000Y-202136500D01*
X116970000Y-202136500D01*
X116970000Y-202449500D01*
X116344000Y-144449500D02*
X116344000Y-144762500D01*
X116344000Y-144762500D02*
X116657000Y-144762500D01*
X116657000Y-144762500D02*
X116657000Y-144449500D01*
X116657000Y-144449500D02*
X116970000Y-144449500D01*
X116970000Y-144449500D02*
X116970000Y-144136500D01*
X116970000Y-144136500D02*
X116657000Y-144136500D01*
X116657000Y-144136500D02*
X116344000Y-144449500D01*
G36*
X116970000Y-144449500D02*
G01*
X116657000Y-144449500D01*
X116657000Y-144762500D01*
X116344000Y-144762500D01*
X116344000Y-144449500D01*
X116657000Y-144136500D01*
X116970000Y-144136500D01*
X116970000Y-144449500D01*
G37*
X116970000Y-144449500D02*
X116657000Y-144449500D01*
X116657000Y-144762500D01*
X116344000Y-144762500D01*
X116344000Y-144449500D01*
X116657000Y-144136500D01*
X116970000Y-144136500D01*
X116970000Y-144449500D01*
%TO.C,AE4*%
X139350000Y-127343500D02*
X139350000Y-127656500D01*
X139350000Y-127656500D02*
X144310000Y-127656500D01*
X144310000Y-127656500D02*
X144310000Y-127343500D01*
X144310000Y-127343500D02*
X139350000Y-127343500D01*
G36*
X144310000Y-127656500D02*
G01*
X139350000Y-127656500D01*
X139350000Y-127343500D01*
X144310000Y-127343500D01*
X144310000Y-127656500D01*
G37*
X144310000Y-127656500D02*
X139350000Y-127656500D01*
X139350000Y-127343500D01*
X144310000Y-127343500D01*
X144310000Y-127656500D01*
D11*
X139350000Y-127756004D02*
X139350000Y-127243889D01*
X139350000Y-127243889D02*
X142750000Y-127243889D01*
X142750000Y-127243889D02*
X142750000Y-119250000D01*
X142750000Y-119250000D02*
X130250000Y-119250000D01*
X130250000Y-119250000D02*
X130250000Y-135750000D01*
X130250000Y-135750000D02*
X142750000Y-135750000D01*
X142750000Y-135750000D02*
X142750000Y-127756004D01*
X142750000Y-127756004D02*
X139350000Y-127756004D01*
G36*
X142750000Y-127243889D02*
G01*
X139350000Y-127243889D01*
X139350000Y-127756004D01*
X142750000Y-127756004D01*
X142750000Y-135750000D01*
X130250000Y-135750000D01*
X130250000Y-119250000D01*
X142750000Y-119250000D01*
X142750000Y-127243889D01*
G37*
X142750000Y-127243889D02*
X139350000Y-127243889D01*
X139350000Y-127756004D01*
X142750000Y-127756004D01*
X142750000Y-135750000D01*
X130250000Y-135750000D01*
X130250000Y-119250000D01*
X142750000Y-119250000D01*
X142750000Y-127243889D01*
D10*
%TO.C,AA15*%
X87656000Y-23538500D02*
X87656000Y-23225500D01*
X87656000Y-23225500D02*
X87343000Y-23225500D01*
X87343000Y-23225500D02*
X87343000Y-23538500D01*
X87343000Y-23538500D02*
X87030000Y-23538500D01*
X87030000Y-23538500D02*
X87030000Y-23851500D01*
X87030000Y-23851500D02*
X87343000Y-23851500D01*
X87343000Y-23851500D02*
X87656000Y-23538500D01*
G36*
X87656000Y-23538500D02*
G01*
X87343000Y-23851500D01*
X87030000Y-23851500D01*
X87030000Y-23538500D01*
X87343000Y-23538500D01*
X87343000Y-23225500D01*
X87656000Y-23225500D01*
X87656000Y-23538500D01*
G37*
X87656000Y-23538500D02*
X87343000Y-23851500D01*
X87030000Y-23851500D01*
X87030000Y-23538500D01*
X87343000Y-23538500D01*
X87343000Y-23225500D01*
X87656000Y-23225500D01*
X87656000Y-23538500D01*
D11*
%TO.C,AE5*%
X52350000Y-156756004D02*
X52350000Y-156243889D01*
X52350000Y-156243889D02*
X55750000Y-156243889D01*
X55750000Y-156243889D02*
X55750000Y-148250000D01*
X55750000Y-148250000D02*
X43250000Y-148250000D01*
X43250000Y-148250000D02*
X43250000Y-164750000D01*
X43250000Y-164750000D02*
X55750000Y-164750000D01*
X55750000Y-164750000D02*
X55750000Y-156756004D01*
X55750000Y-156756004D02*
X52350000Y-156756004D01*
G36*
X55750000Y-156243889D02*
G01*
X52350000Y-156243889D01*
X52350000Y-156756004D01*
X55750000Y-156756004D01*
X55750000Y-164750000D01*
X43250000Y-164750000D01*
X43250000Y-148250000D01*
X55750000Y-148250000D01*
X55750000Y-156243889D01*
G37*
X55750000Y-156243889D02*
X52350000Y-156243889D01*
X52350000Y-156756004D01*
X55750000Y-156756004D01*
X55750000Y-164750000D01*
X43250000Y-164750000D01*
X43250000Y-148250000D01*
X55750000Y-148250000D01*
X55750000Y-156243889D01*
D10*
X52350000Y-156343500D02*
X52350000Y-156656500D01*
X52350000Y-156656500D02*
X57310000Y-156656500D01*
X57310000Y-156656500D02*
X57310000Y-156343500D01*
X57310000Y-156343500D02*
X52350000Y-156343500D01*
G36*
X57310000Y-156656500D02*
G01*
X52350000Y-156656500D01*
X52350000Y-156343500D01*
X57310000Y-156343500D01*
X57310000Y-156656500D01*
G37*
X57310000Y-156656500D02*
X52350000Y-156656500D01*
X52350000Y-156343500D01*
X57310000Y-156343500D01*
X57310000Y-156656500D01*
D11*
%TO.C,AE1*%
X110350000Y-98756004D02*
X110350000Y-98243889D01*
X110350000Y-98243889D02*
X113750000Y-98243889D01*
X113750000Y-98243889D02*
X113750000Y-90250000D01*
X113750000Y-90250000D02*
X101250000Y-90250000D01*
X101250000Y-90250000D02*
X101250000Y-106750000D01*
X101250000Y-106750000D02*
X113750000Y-106750000D01*
X113750000Y-106750000D02*
X113750000Y-98756004D01*
X113750000Y-98756004D02*
X110350000Y-98756004D01*
G36*
X113750000Y-98243889D02*
G01*
X110350000Y-98243889D01*
X110350000Y-98756004D01*
X113750000Y-98756004D01*
X113750000Y-106750000D01*
X101250000Y-106750000D01*
X101250000Y-90250000D01*
X113750000Y-90250000D01*
X113750000Y-98243889D01*
G37*
X113750000Y-98243889D02*
X110350000Y-98243889D01*
X110350000Y-98756004D01*
X113750000Y-98756004D01*
X113750000Y-106750000D01*
X101250000Y-106750000D01*
X101250000Y-90250000D01*
X113750000Y-90250000D01*
X113750000Y-98243889D01*
D10*
X110350000Y-98343500D02*
X110350000Y-98656500D01*
X110350000Y-98656500D02*
X115310000Y-98656500D01*
X115310000Y-98656500D02*
X115310000Y-98343500D01*
X115310000Y-98343500D02*
X110350000Y-98343500D01*
G36*
X115310000Y-98656500D02*
G01*
X110350000Y-98656500D01*
X110350000Y-98343500D01*
X115310000Y-98343500D01*
X115310000Y-98656500D01*
G37*
X115310000Y-98656500D02*
X110350000Y-98656500D01*
X110350000Y-98343500D01*
X115310000Y-98343500D01*
X115310000Y-98656500D01*
%TO.C,AA4*%
X145656000Y-156343500D02*
X145656000Y-156030500D01*
X145656000Y-156030500D02*
X145343000Y-156030500D01*
X145343000Y-156030500D02*
X145343000Y-156343500D01*
X145343000Y-156343500D02*
X145030000Y-156343500D01*
X145030000Y-156343500D02*
X145030000Y-156656500D01*
X145030000Y-156656500D02*
X145343000Y-156656500D01*
X145343000Y-156656500D02*
X145656000Y-156343500D01*
G36*
X145656000Y-156343500D02*
G01*
X145343000Y-156656500D01*
X145030000Y-156656500D01*
X145030000Y-156343500D01*
X145343000Y-156343500D01*
X145343000Y-156030500D01*
X145656000Y-156030500D01*
X145656000Y-156343500D01*
G37*
X145656000Y-156343500D02*
X145343000Y-156656500D01*
X145030000Y-156656500D01*
X145030000Y-156343500D01*
X145343000Y-156343500D01*
X145343000Y-156030500D01*
X145656000Y-156030500D01*
X145656000Y-156343500D01*
D11*
%TO.C,AE4*%
X139350000Y-11756004D02*
X139350000Y-11243889D01*
X139350000Y-11243889D02*
X142750000Y-11243889D01*
X142750000Y-11243889D02*
X142750000Y-3250000D01*
X142750000Y-3250000D02*
X130250000Y-3250000D01*
X130250000Y-3250000D02*
X130250000Y-19750000D01*
X130250000Y-19750000D02*
X142750000Y-19750000D01*
X142750000Y-19750000D02*
X142750000Y-11756004D01*
X142750000Y-11756004D02*
X139350000Y-11756004D01*
G36*
X142750000Y-11243889D02*
G01*
X139350000Y-11243889D01*
X139350000Y-11756004D01*
X142750000Y-11756004D01*
X142750000Y-19750000D01*
X130250000Y-19750000D01*
X130250000Y-3250000D01*
X142750000Y-3250000D01*
X142750000Y-11243889D01*
G37*
X142750000Y-11243889D02*
X139350000Y-11243889D01*
X139350000Y-11756004D01*
X142750000Y-11756004D01*
X142750000Y-19750000D01*
X130250000Y-19750000D01*
X130250000Y-3250000D01*
X142750000Y-3250000D01*
X142750000Y-11243889D01*
D10*
X139350000Y-11343500D02*
X139350000Y-11656500D01*
X139350000Y-11656500D02*
X144310000Y-11656500D01*
X144310000Y-11656500D02*
X144310000Y-11343500D01*
X144310000Y-11343500D02*
X139350000Y-11343500D01*
G36*
X144310000Y-11656500D02*
G01*
X139350000Y-11656500D01*
X139350000Y-11343500D01*
X144310000Y-11343500D01*
X144310000Y-11656500D01*
G37*
X144310000Y-11656500D02*
X139350000Y-11656500D01*
X139350000Y-11343500D01*
X144310000Y-11343500D01*
X144310000Y-11656500D01*
%TO.C,AA16*%
X87343500Y-185344000D02*
X87030500Y-185344000D01*
X87030500Y-185344000D02*
X87030500Y-185657000D01*
X87030500Y-185657000D02*
X87343500Y-185657000D01*
X87343500Y-185657000D02*
X87343500Y-185970000D01*
X87343500Y-185970000D02*
X87656500Y-185970000D01*
X87656500Y-185970000D02*
X87656500Y-185657000D01*
X87656500Y-185657000D02*
X87343500Y-185344000D01*
G36*
X87656500Y-185657000D02*
G01*
X87656500Y-185970000D01*
X87343500Y-185970000D01*
X87343500Y-185657000D01*
X87030500Y-185657000D01*
X87030500Y-185344000D01*
X87343500Y-185344000D01*
X87656500Y-185657000D01*
G37*
X87656500Y-185657000D02*
X87656500Y-185970000D01*
X87343500Y-185970000D01*
X87343500Y-185657000D01*
X87030500Y-185657000D01*
X87030500Y-185344000D01*
X87343500Y-185344000D01*
X87656500Y-185657000D01*
%TO.C,NT2*%
X73740000Y-84728279D02*
X78024008Y-84728282D01*
X78024008Y-84728282D02*
X78024008Y-83250579D01*
X78024008Y-83250579D02*
X73740000Y-83250576D01*
X73740000Y-83250576D02*
X73740000Y-84728279D01*
G36*
X78024008Y-83250579D02*
G01*
X78024008Y-84728282D01*
X73740000Y-84728279D01*
X73740000Y-83250576D01*
X78024008Y-83250579D01*
G37*
X78024008Y-83250579D02*
X78024008Y-84728282D01*
X73740000Y-84728279D01*
X73740000Y-83250576D01*
X78024008Y-83250579D01*
X72263413Y-83256000D02*
X73002000Y-83995000D01*
X73002000Y-83995000D02*
X72263413Y-84734000D01*
X72263413Y-84734000D02*
X72263413Y-86137293D01*
X72263413Y-86137293D02*
X73740829Y-86137293D01*
X73740829Y-86137293D02*
X73740829Y-81852640D01*
X73740829Y-81852640D02*
X72263413Y-81852640D01*
X72263413Y-81852640D02*
X72263413Y-83256000D01*
G36*
X73740829Y-86137293D02*
G01*
X72263413Y-86137293D01*
X72263413Y-84734000D01*
X73002000Y-83995000D01*
X72263413Y-83256000D01*
X72263413Y-81852640D01*
X73740829Y-81852640D01*
X73740829Y-86137293D01*
G37*
X73740829Y-86137293D02*
X72263413Y-86137293D01*
X72263413Y-84734000D01*
X73002000Y-83995000D01*
X72263413Y-83256000D01*
X72263413Y-81852640D01*
X73740829Y-81852640D01*
X73740829Y-86137293D01*
D11*
%TO.C,AE8*%
X81350000Y-185756004D02*
X81350000Y-185243889D01*
X81350000Y-185243889D02*
X84750000Y-185243889D01*
X84750000Y-185243889D02*
X84750000Y-177250000D01*
X84750000Y-177250000D02*
X72250000Y-177250000D01*
X72250000Y-177250000D02*
X72250000Y-193750000D01*
X72250000Y-193750000D02*
X84750000Y-193750000D01*
X84750000Y-193750000D02*
X84750000Y-185756004D01*
X84750000Y-185756004D02*
X81350000Y-185756004D01*
G36*
X84750000Y-185243889D02*
G01*
X81350000Y-185243889D01*
X81350000Y-185756004D01*
X84750000Y-185756004D01*
X84750000Y-193750000D01*
X72250000Y-193750000D01*
X72250000Y-177250000D01*
X84750000Y-177250000D01*
X84750000Y-185243889D01*
G37*
X84750000Y-185243889D02*
X81350000Y-185243889D01*
X81350000Y-185756004D01*
X84750000Y-185756004D01*
X84750000Y-193750000D01*
X72250000Y-193750000D01*
X72250000Y-177250000D01*
X84750000Y-177250000D01*
X84750000Y-185243889D01*
D10*
X81350000Y-185343500D02*
X81350000Y-185656500D01*
X81350000Y-185656500D02*
X86310000Y-185656500D01*
X86310000Y-185656500D02*
X86310000Y-185343500D01*
X86310000Y-185343500D02*
X81350000Y-185343500D01*
G36*
X86310000Y-185656500D02*
G01*
X81350000Y-185656500D01*
X81350000Y-185343500D01*
X86310000Y-185343500D01*
X86310000Y-185656500D01*
G37*
X86310000Y-185656500D02*
X81350000Y-185656500D01*
X81350000Y-185343500D01*
X86310000Y-185343500D01*
X86310000Y-185656500D01*
%TO.C,AA14*%
X58656500Y-23851000D02*
X58969500Y-23851000D01*
X58969500Y-23851000D02*
X58969500Y-23538000D01*
X58969500Y-23538000D02*
X58656500Y-23538000D01*
X58656500Y-23538000D02*
X58656500Y-23225000D01*
X58656500Y-23225000D02*
X58343500Y-23225000D01*
X58343500Y-23225000D02*
X58343500Y-23538000D01*
X58343500Y-23538000D02*
X58656500Y-23851000D01*
G36*
X58656500Y-23538000D02*
G01*
X58969500Y-23538000D01*
X58969500Y-23851000D01*
X58656500Y-23851000D01*
X58343500Y-23538000D01*
X58343500Y-23225000D01*
X58656500Y-23225000D01*
X58656500Y-23538000D01*
G37*
X58656500Y-23538000D02*
X58969500Y-23538000D01*
X58969500Y-23851000D01*
X58656500Y-23851000D01*
X58343500Y-23538000D01*
X58343500Y-23225000D01*
X58656500Y-23225000D01*
X58656500Y-23538000D01*
%TO.C,AA10*%
X58344000Y-86449500D02*
X58344000Y-86762500D01*
X58344000Y-86762500D02*
X58657000Y-86762500D01*
X58657000Y-86762500D02*
X58657000Y-86449500D01*
X58657000Y-86449500D02*
X58970000Y-86449500D01*
X58970000Y-86449500D02*
X58970000Y-86136500D01*
X58970000Y-86136500D02*
X58657000Y-86136500D01*
X58657000Y-86136500D02*
X58344000Y-86449500D01*
G36*
X58970000Y-86449500D02*
G01*
X58657000Y-86449500D01*
X58657000Y-86762500D01*
X58344000Y-86762500D01*
X58344000Y-86449500D01*
X58657000Y-86136500D01*
X58970000Y-86136500D01*
X58970000Y-86449500D01*
G37*
X58970000Y-86449500D02*
X58657000Y-86449500D01*
X58657000Y-86762500D01*
X58344000Y-86762500D01*
X58344000Y-86449500D01*
X58657000Y-86136500D01*
X58970000Y-86136500D01*
X58970000Y-86449500D01*
%TO.C,NT1*%
X131735587Y-26734000D02*
X130997000Y-25995000D01*
X130997000Y-25995000D02*
X131735587Y-25256000D01*
X131735587Y-25256000D02*
X131735587Y-23852707D01*
X131735587Y-23852707D02*
X130258171Y-23852707D01*
X130258171Y-23852707D02*
X130258171Y-28137360D01*
X130258171Y-28137360D02*
X131735587Y-28137360D01*
X131735587Y-28137360D02*
X131735587Y-26734000D01*
G36*
X131735587Y-25256000D02*
G01*
X130997000Y-25995000D01*
X131735587Y-26734000D01*
X131735587Y-28137360D01*
X130258171Y-28137360D01*
X130258171Y-23852707D01*
X131735587Y-23852707D01*
X131735587Y-25256000D01*
G37*
X131735587Y-25256000D02*
X130997000Y-25995000D01*
X131735587Y-26734000D01*
X131735587Y-28137360D01*
X130258171Y-28137360D01*
X130258171Y-23852707D01*
X131735587Y-23852707D01*
X131735587Y-25256000D01*
X130259000Y-25261721D02*
X125974992Y-25261718D01*
X125974992Y-25261718D02*
X125974992Y-26739421D01*
X125974992Y-26739421D02*
X130259000Y-26739424D01*
X130259000Y-26739424D02*
X130259000Y-25261721D01*
G36*
X130259000Y-25261721D02*
G01*
X130259000Y-26739424D01*
X125974992Y-26739421D01*
X125974992Y-25261718D01*
X130259000Y-25261721D01*
G37*
X130259000Y-25261721D02*
X130259000Y-26739424D01*
X125974992Y-26739421D01*
X125974992Y-25261718D01*
X130259000Y-25261721D01*
D11*
%TO.C,AE1*%
X110350000Y-214756004D02*
X110350000Y-214243889D01*
X110350000Y-214243889D02*
X113750000Y-214243889D01*
X113750000Y-214243889D02*
X113750000Y-206250000D01*
X113750000Y-206250000D02*
X101250000Y-206250000D01*
X101250000Y-206250000D02*
X101250000Y-222750000D01*
X101250000Y-222750000D02*
X113750000Y-222750000D01*
X113750000Y-222750000D02*
X113750000Y-214756004D01*
X113750000Y-214756004D02*
X110350000Y-214756004D01*
G36*
X113750000Y-214243889D02*
G01*
X110350000Y-214243889D01*
X110350000Y-214756004D01*
X113750000Y-214756004D01*
X113750000Y-222750000D01*
X101250000Y-222750000D01*
X101250000Y-206250000D01*
X113750000Y-206250000D01*
X113750000Y-214243889D01*
G37*
X113750000Y-214243889D02*
X110350000Y-214243889D01*
X110350000Y-214756004D01*
X113750000Y-214756004D01*
X113750000Y-222750000D01*
X101250000Y-222750000D01*
X101250000Y-206250000D01*
X113750000Y-206250000D01*
X113750000Y-214243889D01*
D10*
X110350000Y-214343500D02*
X110350000Y-214656500D01*
X110350000Y-214656500D02*
X115310000Y-214656500D01*
X115310000Y-214656500D02*
X115310000Y-214343500D01*
X115310000Y-214343500D02*
X110350000Y-214343500D01*
G36*
X115310000Y-214656500D02*
G01*
X110350000Y-214656500D01*
X110350000Y-214343500D01*
X115310000Y-214343500D01*
X115310000Y-214656500D01*
G37*
X115310000Y-214656500D02*
X110350000Y-214656500D01*
X110350000Y-214343500D01*
X115310000Y-214343500D01*
X115310000Y-214656500D01*
%TO.C,AA1*%
X116656000Y-214343500D02*
X116656000Y-214030500D01*
X116656000Y-214030500D02*
X116343000Y-214030500D01*
X116343000Y-214030500D02*
X116343000Y-214343500D01*
X116343000Y-214343500D02*
X116030000Y-214343500D01*
X116030000Y-214343500D02*
X116030000Y-214656500D01*
X116030000Y-214656500D02*
X116343000Y-214656500D01*
X116343000Y-214656500D02*
X116656000Y-214343500D01*
G36*
X116656000Y-214343500D02*
G01*
X116343000Y-214656500D01*
X116030000Y-214656500D01*
X116030000Y-214343500D01*
X116343000Y-214343500D01*
X116343000Y-214030500D01*
X116656000Y-214030500D01*
X116656000Y-214343500D01*
G37*
X116656000Y-214343500D02*
X116343000Y-214656500D01*
X116030000Y-214656500D01*
X116030000Y-214343500D01*
X116343000Y-214343500D01*
X116343000Y-214030500D01*
X116656000Y-214030500D01*
X116656000Y-214343500D01*
%TO.C,AA12*%
X87656000Y-40343500D02*
X87656000Y-40030500D01*
X87656000Y-40030500D02*
X87343000Y-40030500D01*
X87343000Y-40030500D02*
X87343000Y-40343500D01*
X87343000Y-40343500D02*
X87030000Y-40343500D01*
X87030000Y-40343500D02*
X87030000Y-40656500D01*
X87030000Y-40656500D02*
X87343000Y-40656500D01*
X87343000Y-40656500D02*
X87656000Y-40343500D01*
G36*
X87656000Y-40343500D02*
G01*
X87343000Y-40656500D01*
X87030000Y-40656500D01*
X87030000Y-40343500D01*
X87343000Y-40343500D01*
X87343000Y-40030500D01*
X87656000Y-40030500D01*
X87656000Y-40343500D01*
G37*
X87656000Y-40343500D02*
X87343000Y-40656500D01*
X87030000Y-40656500D01*
X87030000Y-40343500D01*
X87343000Y-40343500D01*
X87343000Y-40030500D01*
X87656000Y-40030500D01*
X87656000Y-40343500D01*
%TO.C,NT1*%
X130259000Y-199261721D02*
X125974992Y-199261718D01*
X125974992Y-199261718D02*
X125974992Y-200739421D01*
X125974992Y-200739421D02*
X130259000Y-200739424D01*
X130259000Y-200739424D02*
X130259000Y-199261721D01*
G36*
X130259000Y-199261721D02*
G01*
X130259000Y-200739424D01*
X125974992Y-200739421D01*
X125974992Y-199261718D01*
X130259000Y-199261721D01*
G37*
X130259000Y-199261721D02*
X130259000Y-200739424D01*
X125974992Y-200739421D01*
X125974992Y-199261718D01*
X130259000Y-199261721D01*
X131735587Y-200734000D02*
X130997000Y-199995000D01*
X130997000Y-199995000D02*
X131735587Y-199256000D01*
X131735587Y-199256000D02*
X131735587Y-197852707D01*
X131735587Y-197852707D02*
X130258171Y-197852707D01*
X130258171Y-197852707D02*
X130258171Y-202137360D01*
X130258171Y-202137360D02*
X131735587Y-202137360D01*
X131735587Y-202137360D02*
X131735587Y-200734000D01*
G36*
X131735587Y-199256000D02*
G01*
X130997000Y-199995000D01*
X131735587Y-200734000D01*
X131735587Y-202137360D01*
X130258171Y-202137360D01*
X130258171Y-197852707D01*
X131735587Y-197852707D01*
X131735587Y-199256000D01*
G37*
X131735587Y-199256000D02*
X130997000Y-199995000D01*
X131735587Y-200734000D01*
X131735587Y-202137360D01*
X130258171Y-202137360D01*
X130258171Y-197852707D01*
X131735587Y-197852707D01*
X131735587Y-199256000D01*
%TO.C,AA2*%
X116344000Y-86449500D02*
X116344000Y-86762500D01*
X116344000Y-86762500D02*
X116657000Y-86762500D01*
X116657000Y-86762500D02*
X116657000Y-86449500D01*
X116657000Y-86449500D02*
X116970000Y-86449500D01*
X116970000Y-86449500D02*
X116970000Y-86136500D01*
X116970000Y-86136500D02*
X116657000Y-86136500D01*
X116657000Y-86136500D02*
X116344000Y-86449500D01*
G36*
X116970000Y-86449500D02*
G01*
X116657000Y-86449500D01*
X116657000Y-86762500D01*
X116344000Y-86762500D01*
X116344000Y-86449500D01*
X116657000Y-86136500D01*
X116970000Y-86136500D01*
X116970000Y-86449500D01*
G37*
X116970000Y-86449500D02*
X116657000Y-86449500D01*
X116657000Y-86762500D01*
X116344000Y-86762500D01*
X116344000Y-86449500D01*
X116657000Y-86136500D01*
X116970000Y-86136500D01*
X116970000Y-86449500D01*
%TO.C,AE3*%
X110350000Y-69343500D02*
X110350000Y-69656500D01*
X110350000Y-69656500D02*
X115310000Y-69656500D01*
X115310000Y-69656500D02*
X115310000Y-69343500D01*
X115310000Y-69343500D02*
X110350000Y-69343500D01*
G36*
X115310000Y-69656500D02*
G01*
X110350000Y-69656500D01*
X110350000Y-69343500D01*
X115310000Y-69343500D01*
X115310000Y-69656500D01*
G37*
X115310000Y-69656500D02*
X110350000Y-69656500D01*
X110350000Y-69343500D01*
X115310000Y-69343500D01*
X115310000Y-69656500D01*
D11*
X110350000Y-69756004D02*
X110350000Y-69243889D01*
X110350000Y-69243889D02*
X113750000Y-69243889D01*
X113750000Y-69243889D02*
X113750000Y-61250000D01*
X113750000Y-61250000D02*
X101250000Y-61250000D01*
X101250000Y-61250000D02*
X101250000Y-77750000D01*
X101250000Y-77750000D02*
X113750000Y-77750000D01*
X113750000Y-77750000D02*
X113750000Y-69756004D01*
X113750000Y-69756004D02*
X110350000Y-69756004D01*
G36*
X113750000Y-69243889D02*
G01*
X110350000Y-69243889D01*
X110350000Y-69756004D01*
X113750000Y-69756004D01*
X113750000Y-77750000D01*
X101250000Y-77750000D01*
X101250000Y-61250000D01*
X113750000Y-61250000D01*
X113750000Y-69243889D01*
G37*
X113750000Y-69243889D02*
X110350000Y-69243889D01*
X110350000Y-69756004D01*
X113750000Y-69756004D01*
X113750000Y-77750000D01*
X101250000Y-77750000D01*
X101250000Y-61250000D01*
X113750000Y-61250000D01*
X113750000Y-69243889D01*
%TO.C,AE2*%
X139350000Y-214756004D02*
X139350000Y-214243889D01*
X139350000Y-214243889D02*
X142750000Y-214243889D01*
X142750000Y-214243889D02*
X142750000Y-206250000D01*
X142750000Y-206250000D02*
X130250000Y-206250000D01*
X130250000Y-206250000D02*
X130250000Y-222750000D01*
X130250000Y-222750000D02*
X142750000Y-222750000D01*
X142750000Y-222750000D02*
X142750000Y-214756004D01*
X142750000Y-214756004D02*
X139350000Y-214756004D01*
G36*
X142750000Y-214243889D02*
G01*
X139350000Y-214243889D01*
X139350000Y-214756004D01*
X142750000Y-214756004D01*
X142750000Y-222750000D01*
X130250000Y-222750000D01*
X130250000Y-206250000D01*
X142750000Y-206250000D01*
X142750000Y-214243889D01*
G37*
X142750000Y-214243889D02*
X139350000Y-214243889D01*
X139350000Y-214756004D01*
X142750000Y-214756004D01*
X142750000Y-222750000D01*
X130250000Y-222750000D01*
X130250000Y-206250000D01*
X142750000Y-206250000D01*
X142750000Y-214243889D01*
D10*
X139350000Y-214343500D02*
X139350000Y-214656500D01*
X139350000Y-214656500D02*
X144310000Y-214656500D01*
X144310000Y-214656500D02*
X144310000Y-214343500D01*
X144310000Y-214343500D02*
X139350000Y-214343500D01*
G36*
X144310000Y-214656500D02*
G01*
X139350000Y-214656500D01*
X139350000Y-214343500D01*
X144310000Y-214343500D01*
X144310000Y-214656500D01*
G37*
X144310000Y-214656500D02*
X139350000Y-214656500D01*
X139350000Y-214343500D01*
X144310000Y-214343500D01*
X144310000Y-214656500D01*
%TO.C,AE3*%
X110350000Y-127343500D02*
X110350000Y-127656500D01*
X110350000Y-127656500D02*
X115310000Y-127656500D01*
X115310000Y-127656500D02*
X115310000Y-127343500D01*
X115310000Y-127343500D02*
X110350000Y-127343500D01*
G36*
X115310000Y-127656500D02*
G01*
X110350000Y-127656500D01*
X110350000Y-127343500D01*
X115310000Y-127343500D01*
X115310000Y-127656500D01*
G37*
X115310000Y-127656500D02*
X110350000Y-127656500D01*
X110350000Y-127343500D01*
X115310000Y-127343500D01*
X115310000Y-127656500D01*
D11*
X110350000Y-127756004D02*
X110350000Y-127243889D01*
X110350000Y-127243889D02*
X113750000Y-127243889D01*
X113750000Y-127243889D02*
X113750000Y-119250000D01*
X113750000Y-119250000D02*
X101250000Y-119250000D01*
X101250000Y-119250000D02*
X101250000Y-135750000D01*
X101250000Y-135750000D02*
X113750000Y-135750000D01*
X113750000Y-135750000D02*
X113750000Y-127756004D01*
X113750000Y-127756004D02*
X110350000Y-127756004D01*
G36*
X113750000Y-127243889D02*
G01*
X110350000Y-127243889D01*
X110350000Y-127756004D01*
X113750000Y-127756004D01*
X113750000Y-135750000D01*
X101250000Y-135750000D01*
X101250000Y-119250000D01*
X113750000Y-119250000D01*
X113750000Y-127243889D01*
G37*
X113750000Y-127243889D02*
X110350000Y-127243889D01*
X110350000Y-127756004D01*
X113750000Y-127756004D01*
X113750000Y-135750000D01*
X101250000Y-135750000D01*
X101250000Y-119250000D01*
X113750000Y-119250000D01*
X113750000Y-127243889D01*
D10*
%TO.C,AA3*%
X145343500Y-28137000D02*
X145030500Y-28137000D01*
X145030500Y-28137000D02*
X145030500Y-28450000D01*
X145030500Y-28450000D02*
X145343500Y-28450000D01*
X145343500Y-28450000D02*
X145343500Y-28763000D01*
X145343500Y-28763000D02*
X145656500Y-28763000D01*
X145656500Y-28763000D02*
X145656500Y-28450000D01*
X145656500Y-28450000D02*
X145343500Y-28137000D01*
G36*
X145656500Y-28450000D02*
G01*
X145656500Y-28763000D01*
X145343500Y-28763000D01*
X145343500Y-28450000D01*
X145030500Y-28450000D01*
X145030500Y-28137000D01*
X145343500Y-28137000D01*
X145656500Y-28450000D01*
G37*
X145656500Y-28450000D02*
X145656500Y-28763000D01*
X145343500Y-28763000D01*
X145343500Y-28450000D01*
X145030500Y-28450000D01*
X145030500Y-28137000D01*
X145343500Y-28137000D01*
X145656500Y-28450000D01*
%TO.C,AE8*%
X81350000Y-69343500D02*
X81350000Y-69656500D01*
X81350000Y-69656500D02*
X86310000Y-69656500D01*
X86310000Y-69656500D02*
X86310000Y-69343500D01*
X86310000Y-69343500D02*
X81350000Y-69343500D01*
G36*
X86310000Y-69656500D02*
G01*
X81350000Y-69656500D01*
X81350000Y-69343500D01*
X86310000Y-69343500D01*
X86310000Y-69656500D01*
G37*
X86310000Y-69656500D02*
X81350000Y-69656500D01*
X81350000Y-69343500D01*
X86310000Y-69343500D01*
X86310000Y-69656500D01*
D11*
X81350000Y-69756004D02*
X81350000Y-69243889D01*
X81350000Y-69243889D02*
X84750000Y-69243889D01*
X84750000Y-69243889D02*
X84750000Y-61250000D01*
X84750000Y-61250000D02*
X72250000Y-61250000D01*
X72250000Y-61250000D02*
X72250000Y-77750000D01*
X72250000Y-77750000D02*
X84750000Y-77750000D01*
X84750000Y-77750000D02*
X84750000Y-69756004D01*
X84750000Y-69756004D02*
X81350000Y-69756004D01*
G36*
X84750000Y-69243889D02*
G01*
X81350000Y-69243889D01*
X81350000Y-69756004D01*
X84750000Y-69756004D01*
X84750000Y-77750000D01*
X72250000Y-77750000D01*
X72250000Y-61250000D01*
X84750000Y-61250000D01*
X84750000Y-69243889D01*
G37*
X84750000Y-69243889D02*
X81350000Y-69243889D01*
X81350000Y-69756004D01*
X84750000Y-69756004D01*
X84750000Y-77750000D01*
X72250000Y-77750000D01*
X72250000Y-61250000D01*
X84750000Y-61250000D01*
X84750000Y-69243889D01*
%TO.C,AE2*%
X139350000Y-98756004D02*
X139350000Y-98243889D01*
X139350000Y-98243889D02*
X142750000Y-98243889D01*
X142750000Y-98243889D02*
X142750000Y-90250000D01*
X142750000Y-90250000D02*
X130250000Y-90250000D01*
X130250000Y-90250000D02*
X130250000Y-106750000D01*
X130250000Y-106750000D02*
X142750000Y-106750000D01*
X142750000Y-106750000D02*
X142750000Y-98756004D01*
X142750000Y-98756004D02*
X139350000Y-98756004D01*
G36*
X142750000Y-98243889D02*
G01*
X139350000Y-98243889D01*
X139350000Y-98756004D01*
X142750000Y-98756004D01*
X142750000Y-106750000D01*
X130250000Y-106750000D01*
X130250000Y-90250000D01*
X142750000Y-90250000D01*
X142750000Y-98243889D01*
G37*
X142750000Y-98243889D02*
X139350000Y-98243889D01*
X139350000Y-98756004D01*
X142750000Y-98756004D01*
X142750000Y-106750000D01*
X130250000Y-106750000D01*
X130250000Y-90250000D01*
X142750000Y-90250000D01*
X142750000Y-98243889D01*
D10*
X139350000Y-98343500D02*
X139350000Y-98656500D01*
X139350000Y-98656500D02*
X144310000Y-98656500D01*
X144310000Y-98656500D02*
X144310000Y-98343500D01*
X144310000Y-98343500D02*
X139350000Y-98343500D01*
G36*
X144310000Y-98656500D02*
G01*
X139350000Y-98656500D01*
X139350000Y-98343500D01*
X144310000Y-98343500D01*
X144310000Y-98656500D01*
G37*
X144310000Y-98656500D02*
X139350000Y-98656500D01*
X139350000Y-98343500D01*
X144310000Y-98343500D01*
X144310000Y-98656500D01*
%TO.C,AA10*%
X58344000Y-202449500D02*
X58344000Y-202762500D01*
X58344000Y-202762500D02*
X58657000Y-202762500D01*
X58657000Y-202762500D02*
X58657000Y-202449500D01*
X58657000Y-202449500D02*
X58970000Y-202449500D01*
X58970000Y-202449500D02*
X58970000Y-202136500D01*
X58970000Y-202136500D02*
X58657000Y-202136500D01*
X58657000Y-202136500D02*
X58344000Y-202449500D01*
G36*
X58970000Y-202449500D02*
G01*
X58657000Y-202449500D01*
X58657000Y-202762500D01*
X58344000Y-202762500D01*
X58344000Y-202449500D01*
X58657000Y-202136500D01*
X58970000Y-202136500D01*
X58970000Y-202449500D01*
G37*
X58970000Y-202449500D02*
X58657000Y-202449500D01*
X58657000Y-202762500D01*
X58344000Y-202762500D01*
X58344000Y-202449500D01*
X58657000Y-202136500D01*
X58970000Y-202136500D01*
X58970000Y-202449500D01*
X58344000Y-144449500D02*
X58344000Y-144762500D01*
X58344000Y-144762500D02*
X58657000Y-144762500D01*
X58657000Y-144762500D02*
X58657000Y-144449500D01*
X58657000Y-144449500D02*
X58970000Y-144449500D01*
X58970000Y-144449500D02*
X58970000Y-144136500D01*
X58970000Y-144136500D02*
X58657000Y-144136500D01*
X58657000Y-144136500D02*
X58344000Y-144449500D01*
G36*
X58970000Y-144449500D02*
G01*
X58657000Y-144449500D01*
X58657000Y-144762500D01*
X58344000Y-144762500D01*
X58344000Y-144449500D01*
X58657000Y-144136500D01*
X58970000Y-144136500D01*
X58970000Y-144449500D01*
G37*
X58970000Y-144449500D02*
X58657000Y-144449500D01*
X58657000Y-144762500D01*
X58344000Y-144762500D01*
X58344000Y-144449500D01*
X58657000Y-144136500D01*
X58970000Y-144136500D01*
X58970000Y-144449500D01*
%TO.C,AE4*%
X139350000Y-69343500D02*
X139350000Y-69656500D01*
X139350000Y-69656500D02*
X144310000Y-69656500D01*
X144310000Y-69656500D02*
X144310000Y-69343500D01*
X144310000Y-69343500D02*
X139350000Y-69343500D01*
G36*
X144310000Y-69656500D02*
G01*
X139350000Y-69656500D01*
X139350000Y-69343500D01*
X144310000Y-69343500D01*
X144310000Y-69656500D01*
G37*
X144310000Y-69656500D02*
X139350000Y-69656500D01*
X139350000Y-69343500D01*
X144310000Y-69343500D01*
X144310000Y-69656500D01*
D11*
X139350000Y-69756004D02*
X139350000Y-69243889D01*
X139350000Y-69243889D02*
X142750000Y-69243889D01*
X142750000Y-69243889D02*
X142750000Y-61250000D01*
X142750000Y-61250000D02*
X130250000Y-61250000D01*
X130250000Y-61250000D02*
X130250000Y-77750000D01*
X130250000Y-77750000D02*
X142750000Y-77750000D01*
X142750000Y-77750000D02*
X142750000Y-69756004D01*
X142750000Y-69756004D02*
X139350000Y-69756004D01*
G36*
X142750000Y-69243889D02*
G01*
X139350000Y-69243889D01*
X139350000Y-69756004D01*
X142750000Y-69756004D01*
X142750000Y-77750000D01*
X130250000Y-77750000D01*
X130250000Y-61250000D01*
X142750000Y-61250000D01*
X142750000Y-69243889D01*
G37*
X142750000Y-69243889D02*
X139350000Y-69243889D01*
X139350000Y-69756004D01*
X142750000Y-69756004D01*
X142750000Y-77750000D01*
X130250000Y-77750000D01*
X130250000Y-61250000D01*
X142750000Y-61250000D01*
X142750000Y-69243889D01*
D10*
%TO.C,AA11*%
X87343500Y-86137000D02*
X87030500Y-86137000D01*
X87030500Y-86137000D02*
X87030500Y-86450000D01*
X87030500Y-86450000D02*
X87343500Y-86450000D01*
X87343500Y-86450000D02*
X87343500Y-86763000D01*
X87343500Y-86763000D02*
X87656500Y-86763000D01*
X87656500Y-86763000D02*
X87656500Y-86450000D01*
X87656500Y-86450000D02*
X87343500Y-86137000D01*
G36*
X87656500Y-86450000D02*
G01*
X87656500Y-86763000D01*
X87343500Y-86763000D01*
X87343500Y-86450000D01*
X87030500Y-86450000D01*
X87030500Y-86137000D01*
X87343500Y-86137000D01*
X87656500Y-86450000D01*
G37*
X87656500Y-86450000D02*
X87656500Y-86763000D01*
X87343500Y-86763000D01*
X87343500Y-86450000D01*
X87030500Y-86450000D01*
X87030500Y-86137000D01*
X87343500Y-86137000D01*
X87656500Y-86450000D01*
%TO.C,AA10*%
X58344000Y-28449500D02*
X58344000Y-28762500D01*
X58344000Y-28762500D02*
X58657000Y-28762500D01*
X58657000Y-28762500D02*
X58657000Y-28449500D01*
X58657000Y-28449500D02*
X58970000Y-28449500D01*
X58970000Y-28449500D02*
X58970000Y-28136500D01*
X58970000Y-28136500D02*
X58657000Y-28136500D01*
X58657000Y-28136500D02*
X58344000Y-28449500D01*
G36*
X58970000Y-28449500D02*
G01*
X58657000Y-28449500D01*
X58657000Y-28762500D01*
X58344000Y-28762500D01*
X58344000Y-28449500D01*
X58657000Y-28136500D01*
X58970000Y-28136500D01*
X58970000Y-28449500D01*
G37*
X58970000Y-28449500D02*
X58657000Y-28449500D01*
X58657000Y-28762500D01*
X58344000Y-28762500D01*
X58344000Y-28449500D01*
X58657000Y-28136500D01*
X58970000Y-28136500D01*
X58970000Y-28449500D01*
D11*
%TO.C,AE7*%
X52350000Y-11756004D02*
X52350000Y-11243889D01*
X52350000Y-11243889D02*
X55750000Y-11243889D01*
X55750000Y-11243889D02*
X55750000Y-3250000D01*
X55750000Y-3250000D02*
X43250000Y-3250000D01*
X43250000Y-3250000D02*
X43250000Y-19750000D01*
X43250000Y-19750000D02*
X55750000Y-19750000D01*
X55750000Y-19750000D02*
X55750000Y-11756004D01*
X55750000Y-11756004D02*
X52350000Y-11756004D01*
G36*
X55750000Y-11243889D02*
G01*
X52350000Y-11243889D01*
X52350000Y-11756004D01*
X55750000Y-11756004D01*
X55750000Y-19750000D01*
X43250000Y-19750000D01*
X43250000Y-3250000D01*
X55750000Y-3250000D01*
X55750000Y-11243889D01*
G37*
X55750000Y-11243889D02*
X52350000Y-11243889D01*
X52350000Y-11756004D01*
X55750000Y-11756004D01*
X55750000Y-19750000D01*
X43250000Y-19750000D01*
X43250000Y-3250000D01*
X55750000Y-3250000D01*
X55750000Y-11243889D01*
D10*
X52350000Y-11343500D02*
X52350000Y-11656500D01*
X52350000Y-11656500D02*
X57310000Y-11656500D01*
X57310000Y-11656500D02*
X57310000Y-11343500D01*
X57310000Y-11343500D02*
X52350000Y-11343500D01*
G36*
X57310000Y-11656500D02*
G01*
X52350000Y-11656500D01*
X52350000Y-11343500D01*
X57310000Y-11343500D01*
X57310000Y-11656500D01*
G37*
X57310000Y-11656500D02*
X52350000Y-11656500D01*
X52350000Y-11343500D01*
X57310000Y-11343500D01*
X57310000Y-11656500D01*
%TO.C,AE4*%
X139350000Y-185343500D02*
X139350000Y-185656500D01*
X139350000Y-185656500D02*
X144310000Y-185656500D01*
X144310000Y-185656500D02*
X144310000Y-185343500D01*
X144310000Y-185343500D02*
X139350000Y-185343500D01*
G36*
X144310000Y-185656500D02*
G01*
X139350000Y-185656500D01*
X139350000Y-185343500D01*
X144310000Y-185343500D01*
X144310000Y-185656500D01*
G37*
X144310000Y-185656500D02*
X139350000Y-185656500D01*
X139350000Y-185343500D01*
X144310000Y-185343500D01*
X144310000Y-185656500D01*
D11*
X139350000Y-185756004D02*
X139350000Y-185243889D01*
X139350000Y-185243889D02*
X142750000Y-185243889D01*
X142750000Y-185243889D02*
X142750000Y-177250000D01*
X142750000Y-177250000D02*
X130250000Y-177250000D01*
X130250000Y-177250000D02*
X130250000Y-193750000D01*
X130250000Y-193750000D02*
X142750000Y-193750000D01*
X142750000Y-193750000D02*
X142750000Y-185756004D01*
X142750000Y-185756004D02*
X139350000Y-185756004D01*
G36*
X142750000Y-185243889D02*
G01*
X139350000Y-185243889D01*
X139350000Y-185756004D01*
X142750000Y-185756004D01*
X142750000Y-193750000D01*
X130250000Y-193750000D01*
X130250000Y-177250000D01*
X142750000Y-177250000D01*
X142750000Y-185243889D01*
G37*
X142750000Y-185243889D02*
X139350000Y-185243889D01*
X139350000Y-185756004D01*
X142750000Y-185756004D01*
X142750000Y-193750000D01*
X130250000Y-193750000D01*
X130250000Y-177250000D01*
X142750000Y-177250000D01*
X142750000Y-185243889D01*
%TD*%
D12*
%TO.P,H11,1,1*%
%TO.N,N/C*%
X16000000Y-113000000D03*
D13*
X16000000Y-113000000D03*
%TD*%
%TO.P,H12,1,1*%
%TO.N,N/C*%
X170000000Y-113000000D03*
D12*
X170000000Y-113000000D03*
%TD*%
%TO.P,H10,1,1*%
%TO.N,N/C*%
X93000000Y-5000000D03*
D13*
X93000000Y-5000000D03*
%TD*%
D12*
%TO.P,H3,1,1*%
%TO.N,N/C*%
X12000000Y-208000000D03*
D13*
X12000000Y-208000000D03*
%TD*%
%TO.P,H1,1,1*%
%TO.N,N/C*%
X12000000Y-18000000D03*
D12*
X12000000Y-18000000D03*
%TD*%
%TO.P,H2,1,1*%
%TO.N,N/C*%
X174000000Y-18000000D03*
D13*
X174000000Y-18000000D03*
%TD*%
D12*
%TO.P,H12,1,1*%
%TO.N,N/C*%
X93000000Y-113000000D03*
D13*
X93000000Y-113000000D03*
%TD*%
D12*
%TO.P,H4,1,1*%
%TO.N,N/C*%
X174000000Y-208000000D03*
D13*
X174000000Y-208000000D03*
%TD*%
D12*
%TO.P,H9,1,1*%
%TO.N,N/C*%
X93000000Y-221000000D03*
D13*
X93000000Y-221000000D03*
%TD*%
D14*
%TO.P,AA4,1,1*%
%TO.N,/A1E2*%
X145186500Y-40500000D03*
%TO.P,AA4,2,2*%
%TO.N,/A1E2S2*%
X145499500Y-40187000D03*
%TD*%
%TO.P,AA6,1,1*%
%TO.N,/A1E3S2*%
X116500000Y-23382500D03*
%TO.P,AA6,2,2*%
%TO.N,/A1P3*%
X116813000Y-23695500D03*
%TD*%
%TO.P,AA14,1,1*%
%TO.N,/A1E7S2*%
X58500000Y-139381500D03*
%TO.P,AA14,2,2*%
%TO.N,/A1P5*%
X58813000Y-139694500D03*
%TD*%
D15*
%TO.P,AE6,1,A*%
%TO.N,/A1E6*%
X86220000Y-214500000D03*
%TD*%
D14*
%TO.P,AA5,1,1*%
%TO.N,/A1E3S2*%
X116500000Y-185813500D03*
%TO.P,AA5,2,2*%
%TO.N,/A1E3*%
X116187000Y-185500500D03*
%TD*%
D16*
%TO.P,NT1,1,1*%
%TO.N,/A1P1*%
X126713750Y-84000000D03*
D17*
%TO.P,NT1,2,2*%
%TO.N,/A1P2*%
X130997000Y-85435000D03*
%TO.P,NT1,3,3*%
%TO.N,/A1P3*%
X130997000Y-82554000D03*
%TD*%
D16*
%TO.P,NT2,1,1*%
%TO.N,/A1P1*%
X77285250Y-199990000D03*
D17*
%TO.P,NT2,2,2*%
%TO.N,/A1P5*%
X73002000Y-198555000D03*
%TO.P,NT2,3,3*%
%TO.N,/A1P4*%
X73002000Y-201436000D03*
%TD*%
D14*
%TO.P,AA15,1,1*%
%TO.N,/A1P5*%
X87186500Y-81695000D03*
%TO.P,AA15,2,2*%
%TO.N,/A1E8S2*%
X87499500Y-81382000D03*
%TD*%
%TO.P,AA6,1,1*%
%TO.N,/A1E3S2*%
X116500000Y-197382500D03*
%TO.P,AA6,2,2*%
%TO.N,/A1P3*%
X116813000Y-197695500D03*
%TD*%
D15*
%TO.P,AE7,1,A*%
%TO.N,/A1E7*%
X57220000Y-185500000D03*
%TD*%
D14*
%TO.P,AA1,1,1*%
%TO.N,/A1E1*%
X116186500Y-98500000D03*
%TO.P,AA1,2,2*%
%TO.N,/A1E1S2*%
X116499500Y-98187000D03*
%TD*%
D15*
%TO.P,AE6,1,A*%
%TO.N,/A1E6*%
X86220000Y-98500000D03*
%TD*%
D14*
%TO.P,AA5,1,1*%
%TO.N,/A1E3S2*%
X116500000Y-127813500D03*
%TO.P,AA5,2,2*%
%TO.N,/A1E3*%
X116187000Y-127500500D03*
%TD*%
D15*
%TO.P,AE2,1,A*%
%TO.N,/A1E2*%
X144220000Y-156500000D03*
%TD*%
D14*
%TO.P,AA4,1,1*%
%TO.N,/A1E2*%
X145186500Y-214500000D03*
%TO.P,AA4,2,2*%
%TO.N,/A1E2S2*%
X145499500Y-214187000D03*
%TD*%
%TO.P,AA11,1,1*%
%TO.N,/A1E6S2*%
X87500000Y-144606500D03*
%TO.P,AA11,2,2*%
%TO.N,/A1P4*%
X87187000Y-144293500D03*
%TD*%
%TO.P,AA8,1,1*%
%TO.N,/A1E4S2*%
X145500000Y-127813500D03*
%TO.P,AA8,2,2*%
%TO.N,/A1E4*%
X145187000Y-127500500D03*
%TD*%
%TO.P,AA1,1,1*%
%TO.N,/A1E1*%
X116186500Y-40500000D03*
%TO.P,AA1,2,2*%
%TO.N,/A1E1S2*%
X116499500Y-40187000D03*
%TD*%
D18*
%TO.P,FEED 4,*%
%TO.N,*%
X102000000Y-200000000D03*
D19*
%TO.P,FEED 4,1*%
%TO.N,N/C*%
X102000000Y-200000000D03*
%TD*%
D14*
%TO.P,AA4,1,1*%
%TO.N,/A1E2*%
X145186500Y-98500000D03*
%TO.P,AA4,2,2*%
%TO.N,/A1E2S2*%
X145499500Y-98187000D03*
%TD*%
%TO.P,AA16,1,1*%
%TO.N,/A1E8S2*%
X87500000Y-69813500D03*
%TO.P,AA16,2,2*%
%TO.N,/A1E8*%
X87187000Y-69500500D03*
%TD*%
D15*
%TO.P,AE2,1,A*%
%TO.N,/A1E2*%
X144220000Y-40500000D03*
%TD*%
%TO.P,AE5,1,A*%
%TO.N,/A1E5*%
X57220000Y-98500000D03*
%TD*%
D14*
%TO.P,AA14,1,1*%
%TO.N,/A1E7S2*%
X58500000Y-197381500D03*
%TO.P,AA14,2,2*%
%TO.N,/A1P5*%
X58813000Y-197694500D03*
%TD*%
D15*
%TO.P,AE6,1,A*%
%TO.N,/A1E6*%
X86220000Y-40500000D03*
%TD*%
D14*
%TO.P,AA7,1,1*%
%TO.N,/A1P3*%
X145186500Y-81696000D03*
%TO.P,AA7,2,2*%
%TO.N,/A1E4S2*%
X145499500Y-81383000D03*
%TD*%
%TO.P,AA16,1,1*%
%TO.N,/A1E8S2*%
X87500000Y-11813500D03*
%TO.P,AA16,2,2*%
%TO.N,/A1E8*%
X87187000Y-11500500D03*
%TD*%
%TO.P,AA11,1,1*%
%TO.N,/A1E6S2*%
X87500000Y-202606500D03*
%TO.P,AA11,2,2*%
%TO.N,/A1P4*%
X87187000Y-202293500D03*
%TD*%
D15*
%TO.P,AE7,1,A*%
%TO.N,/A1E7*%
X57220000Y-127500000D03*
%TD*%
D14*
%TO.P,AA6,1,1*%
%TO.N,/A1E3S2*%
X116500000Y-139382500D03*
%TO.P,AA6,2,2*%
%TO.N,/A1P3*%
X116813000Y-139695500D03*
%TD*%
%TO.P,AA14,1,1*%
%TO.N,/A1E7S2*%
X58500000Y-81381500D03*
%TO.P,AA14,2,2*%
%TO.N,/A1P5*%
X58813000Y-81694500D03*
%TD*%
%TO.P,AA12,1,1*%
%TO.N,/A1E6*%
X87186500Y-156500000D03*
%TO.P,AA12,2,2*%
%TO.N,/A1E6S2*%
X87499500Y-156187000D03*
%TD*%
%TO.P,AA1,1,1*%
%TO.N,/A1E1*%
X116186500Y-156500000D03*
%TO.P,AA1,2,2*%
%TO.N,/A1E1S2*%
X116499500Y-156187000D03*
%TD*%
D15*
%TO.P,AE5,1,A*%
%TO.N,/A1E5*%
X57220000Y-40500000D03*
%TD*%
D14*
%TO.P,AA5,1,1*%
%TO.N,/A1E3S2*%
X116500000Y-69813500D03*
%TO.P,AA5,2,2*%
%TO.N,/A1E3*%
X116187000Y-69500500D03*
%TD*%
D15*
%TO.P,AE1,1,A*%
%TO.N,/A1E1*%
X115220000Y-40500000D03*
%TD*%
D14*
%TO.P,AA7,1,1*%
%TO.N,/A1P3*%
X145186500Y-197696000D03*
%TO.P,AA7,2,2*%
%TO.N,/A1E4S2*%
X145499500Y-197383000D03*
%TD*%
%TO.P,AA7,1,1*%
%TO.N,/A1P3*%
X145186500Y-23696000D03*
%TO.P,AA7,2,2*%
%TO.N,/A1E4S2*%
X145499500Y-23383000D03*
%TD*%
%TO.P,AA12,1,1*%
%TO.N,/A1E6*%
X87186500Y-98500000D03*
%TO.P,AA12,2,2*%
%TO.N,/A1E6S2*%
X87499500Y-98187000D03*
%TD*%
D16*
%TO.P,NT2,1,1*%
%TO.N,/A1P1*%
X77285250Y-25990000D03*
D17*
%TO.P,NT2,2,2*%
%TO.N,/A1P5*%
X73002000Y-24555000D03*
%TO.P,NT2,3,3*%
%TO.N,/A1P4*%
X73002000Y-27436000D03*
%TD*%
D14*
%TO.P,AA9,1,1*%
%TO.N,/A1E5*%
X58186500Y-156500000D03*
%TO.P,AA9,2,2*%
%TO.N,/A1E5S2*%
X58499500Y-156187000D03*
%TD*%
D15*
%TO.P,AE3,1,A*%
%TO.N,/A1E3*%
X115220000Y-185500000D03*
%TD*%
%TO.P,AE8,1,A*%
%TO.N,/A1E8*%
X86220000Y-127500000D03*
%TD*%
D14*
%TO.P,AA15,1,1*%
%TO.N,/A1P5*%
X87186500Y-197695000D03*
%TO.P,AA15,2,2*%
%TO.N,/A1E8S2*%
X87499500Y-197382000D03*
%TD*%
%TO.P,AA6,1,1*%
%TO.N,/A1E3S2*%
X116500000Y-81382500D03*
%TO.P,AA6,2,2*%
%TO.N,/A1P3*%
X116813000Y-81695500D03*
%TD*%
%TO.P,AA13,1,1*%
%TO.N,/A1E7S2*%
X58500000Y-127813500D03*
%TO.P,AA13,2,2*%
%TO.N,/A1E7*%
X58187000Y-127500500D03*
%TD*%
%TO.P,AA5,1,1*%
%TO.N,/A1E3S2*%
X116500000Y-11813500D03*
%TO.P,AA5,2,2*%
%TO.N,/A1E3*%
X116187000Y-11500500D03*
%TD*%
%TO.P,AA8,1,1*%
%TO.N,/A1E4S2*%
X145500000Y-11813500D03*
%TO.P,AA8,2,2*%
%TO.N,/A1E4*%
X145187000Y-11500500D03*
%TD*%
%TO.P,AA8,1,1*%
%TO.N,/A1E4S2*%
X145500000Y-69813500D03*
%TO.P,AA8,2,2*%
%TO.N,/A1E4*%
X145187000Y-69500500D03*
%TD*%
%TO.P,AA11,1,1*%
%TO.N,/A1E6S2*%
X87500000Y-28606500D03*
%TO.P,AA11,2,2*%
%TO.N,/A1P4*%
X87187000Y-28293500D03*
%TD*%
D18*
%TO.P,FEED 1,*%
%TO.N,*%
X101999999Y-25999999D03*
D19*
%TO.P,FEED 1,1*%
%TO.N,N/C*%
X101999999Y-25999999D03*
%TD*%
D14*
%TO.P,AA3,1,1*%
%TO.N,/A1E2S2*%
X145500000Y-144606500D03*
%TO.P,AA3,2,2*%
%TO.N,/A1P2*%
X145187000Y-144293500D03*
%TD*%
%TO.P,AA2,1,1*%
%TO.N,/A1P2*%
X116813500Y-28293000D03*
%TO.P,AA2,2,2*%
%TO.N,/A1E1S2*%
X116500500Y-28606000D03*
%TD*%
D18*
%TO.P,FEED 2,*%
%TO.N,*%
X102000000Y-84000000D03*
D19*
%TO.P,FEED 2,1*%
%TO.N,N/C*%
X102000000Y-84000000D03*
%TD*%
D14*
%TO.P,AA13,1,1*%
%TO.N,/A1E7S2*%
X58500000Y-185813500D03*
%TO.P,AA13,2,2*%
%TO.N,/A1E7*%
X58187000Y-185500500D03*
%TD*%
%TO.P,AA13,1,1*%
%TO.N,/A1E7S2*%
X58500000Y-69813500D03*
%TO.P,AA13,2,2*%
%TO.N,/A1E7*%
X58187000Y-69500500D03*
%TD*%
%TO.P,AA3,1,1*%
%TO.N,/A1E2S2*%
X145500000Y-202606500D03*
%TO.P,AA3,2,2*%
%TO.N,/A1P2*%
X145187000Y-202293500D03*
%TD*%
%TO.P,AA8,1,1*%
%TO.N,/A1E4S2*%
X145500000Y-185813500D03*
%TO.P,AA8,2,2*%
%TO.N,/A1E4*%
X145187000Y-185500500D03*
%TD*%
D15*
%TO.P,AE1,1,A*%
%TO.N,/A1E1*%
X115220000Y-156500000D03*
%TD*%
D14*
%TO.P,AA12,1,1*%
%TO.N,/A1E6*%
X87186500Y-214500000D03*
%TO.P,AA12,2,2*%
%TO.N,/A1E6S2*%
X87499500Y-214187000D03*
%TD*%
%TO.P,AA13,1,1*%
%TO.N,/A1E7S2*%
X58500000Y-11813500D03*
%TO.P,AA13,2,2*%
%TO.N,/A1E7*%
X58187000Y-11500500D03*
%TD*%
%TO.P,AA9,1,1*%
%TO.N,/A1E5*%
X58186500Y-40500000D03*
%TO.P,AA9,2,2*%
%TO.N,/A1E5S2*%
X58499500Y-40187000D03*
%TD*%
D16*
%TO.P,NT1,1,1*%
%TO.N,/A1P1*%
X126713750Y-142000000D03*
D17*
%TO.P,NT1,2,2*%
%TO.N,/A1P2*%
X130997000Y-143435000D03*
%TO.P,NT1,3,3*%
%TO.N,/A1P3*%
X130997000Y-140554000D03*
%TD*%
D14*
%TO.P,AA16,1,1*%
%TO.N,/A1E8S2*%
X87500000Y-127813500D03*
%TO.P,AA16,2,2*%
%TO.N,/A1E8*%
X87187000Y-127500500D03*
%TD*%
%TO.P,AA9,1,1*%
%TO.N,/A1E5*%
X58186500Y-214500000D03*
%TO.P,AA9,2,2*%
%TO.N,/A1E5S2*%
X58499500Y-214187000D03*
%TD*%
%TO.P,AA7,1,1*%
%TO.N,/A1P3*%
X145186500Y-139696000D03*
%TO.P,AA7,2,2*%
%TO.N,/A1E4S2*%
X145499500Y-139383000D03*
%TD*%
D16*
%TO.P,NT2,1,1*%
%TO.N,/A1P1*%
X77285250Y-141990000D03*
D17*
%TO.P,NT2,2,2*%
%TO.N,/A1P5*%
X73002000Y-140555000D03*
%TO.P,NT2,3,3*%
%TO.N,/A1P4*%
X73002000Y-143436000D03*
%TD*%
D14*
%TO.P,AA3,1,1*%
%TO.N,/A1E2S2*%
X145500000Y-86606500D03*
%TO.P,AA3,2,2*%
%TO.N,/A1P2*%
X145187000Y-86293500D03*
%TD*%
%TO.P,AA9,1,1*%
%TO.N,/A1E5*%
X58186500Y-98500000D03*
%TO.P,AA9,2,2*%
%TO.N,/A1E5S2*%
X58499500Y-98187000D03*
%TD*%
%TO.P,AA15,1,1*%
%TO.N,/A1P5*%
X87186500Y-139695000D03*
%TO.P,AA15,2,2*%
%TO.N,/A1E8S2*%
X87499500Y-139382000D03*
%TD*%
D15*
%TO.P,AE7,1,A*%
%TO.N,/A1E7*%
X57220000Y-69500000D03*
%TD*%
%TO.P,AE3,1,A*%
%TO.N,/A1E3*%
X115220000Y-11500000D03*
%TD*%
%TO.P,AE6,1,A*%
%TO.N,/A1E6*%
X86220000Y-156500000D03*
%TD*%
%TO.P,AE8,1,A*%
%TO.N,/A1E8*%
X86220000Y-11500000D03*
%TD*%
%TO.P,AE5,1,A*%
%TO.N,/A1E5*%
X57220000Y-214500000D03*
%TD*%
D14*
%TO.P,AA2,1,1*%
%TO.N,/A1P2*%
X116813500Y-202293000D03*
%TO.P,AA2,2,2*%
%TO.N,/A1E1S2*%
X116500500Y-202606000D03*
%TD*%
%TO.P,AA2,1,1*%
%TO.N,/A1P2*%
X116813500Y-144293000D03*
%TO.P,AA2,2,2*%
%TO.N,/A1E1S2*%
X116500500Y-144606000D03*
%TD*%
D15*
%TO.P,AE4,1,A*%
%TO.N,/A1E4*%
X144220000Y-127500000D03*
%TD*%
D14*
%TO.P,AA15,1,1*%
%TO.N,/A1P5*%
X87186500Y-23695000D03*
%TO.P,AA15,2,2*%
%TO.N,/A1E8S2*%
X87499500Y-23382000D03*
%TD*%
D15*
%TO.P,AE5,1,A*%
%TO.N,/A1E5*%
X57220000Y-156500000D03*
%TD*%
%TO.P,AE1,1,A*%
%TO.N,/A1E1*%
X115220000Y-98500000D03*
%TD*%
D14*
%TO.P,AA4,1,1*%
%TO.N,/A1E2*%
X145186500Y-156500000D03*
%TO.P,AA4,2,2*%
%TO.N,/A1E2S2*%
X145499500Y-156187000D03*
%TD*%
D15*
%TO.P,AE4,1,A*%
%TO.N,/A1E4*%
X144220000Y-11500000D03*
%TD*%
D14*
%TO.P,AA16,1,1*%
%TO.N,/A1E8S2*%
X87500000Y-185813500D03*
%TO.P,AA16,2,2*%
%TO.N,/A1E8*%
X87187000Y-185500500D03*
%TD*%
D16*
%TO.P,NT2,1,1*%
%TO.N,/A1P1*%
X77285250Y-83990000D03*
D17*
%TO.P,NT2,2,2*%
%TO.N,/A1P5*%
X73002000Y-82555000D03*
%TO.P,NT2,3,3*%
%TO.N,/A1P4*%
X73002000Y-85436000D03*
%TD*%
D15*
%TO.P,AE8,1,A*%
%TO.N,/A1E8*%
X86220000Y-185500000D03*
%TD*%
D14*
%TO.P,AA14,1,1*%
%TO.N,/A1E7S2*%
X58500000Y-23381500D03*
%TO.P,AA14,2,2*%
%TO.N,/A1P5*%
X58813000Y-23694500D03*
%TD*%
%TO.P,AA10,1,1*%
%TO.N,/A1P4*%
X58813500Y-86293000D03*
%TO.P,AA10,2,2*%
%TO.N,/A1E5S2*%
X58500500Y-86606000D03*
%TD*%
D16*
%TO.P,NT1,1,1*%
%TO.N,/A1P1*%
X126713750Y-26000000D03*
D17*
%TO.P,NT1,2,2*%
%TO.N,/A1P2*%
X130997000Y-27435000D03*
%TO.P,NT1,3,3*%
%TO.N,/A1P3*%
X130997000Y-24554000D03*
%TD*%
D15*
%TO.P,AE1,1,A*%
%TO.N,/A1E1*%
X115220000Y-214500000D03*
%TD*%
D14*
%TO.P,AA1,1,1*%
%TO.N,/A1E1*%
X116186500Y-214500000D03*
%TO.P,AA1,2,2*%
%TO.N,/A1E1S2*%
X116499500Y-214187000D03*
%TD*%
%TO.P,AA12,1,1*%
%TO.N,/A1E6*%
X87186500Y-40500000D03*
%TO.P,AA12,2,2*%
%TO.N,/A1E6S2*%
X87499500Y-40187000D03*
%TD*%
D16*
%TO.P,NT1,1,1*%
%TO.N,/A1P1*%
X126713750Y-200000000D03*
D17*
%TO.P,NT1,2,2*%
%TO.N,/A1P2*%
X130997000Y-201435000D03*
%TO.P,NT1,3,3*%
%TO.N,/A1P3*%
X130997000Y-198554000D03*
%TD*%
D14*
%TO.P,AA2,1,1*%
%TO.N,/A1P2*%
X116813500Y-86293000D03*
%TO.P,AA2,2,2*%
%TO.N,/A1E1S2*%
X116500500Y-86606000D03*
%TD*%
D15*
%TO.P,AE3,1,A*%
%TO.N,/A1E3*%
X115220000Y-69500000D03*
%TD*%
%TO.P,AE2,1,A*%
%TO.N,/A1E2*%
X144220000Y-214500000D03*
%TD*%
%TO.P,AE3,1,A*%
%TO.N,/A1E3*%
X115220000Y-127500000D03*
%TD*%
D14*
%TO.P,AA3,1,1*%
%TO.N,/A1E2S2*%
X145500000Y-28606500D03*
%TO.P,AA3,2,2*%
%TO.N,/A1P2*%
X145187000Y-28293500D03*
%TD*%
D15*
%TO.P,AE8,1,A*%
%TO.N,/A1E8*%
X86220000Y-69500000D03*
%TD*%
%TO.P,AE2,1,A*%
%TO.N,/A1E2*%
X144220000Y-98500000D03*
%TD*%
D14*
%TO.P,AA10,1,1*%
%TO.N,/A1P4*%
X58813500Y-202293000D03*
%TO.P,AA10,2,2*%
%TO.N,/A1E5S2*%
X58500500Y-202606000D03*
%TD*%
%TO.P,AA10,1,1*%
%TO.N,/A1P4*%
X58813500Y-144293000D03*
%TO.P,AA10,2,2*%
%TO.N,/A1E5S2*%
X58500500Y-144606000D03*
%TD*%
D15*
%TO.P,AE4,1,A*%
%TO.N,/A1E4*%
X144220000Y-69500000D03*
%TD*%
D14*
%TO.P,AA11,1,1*%
%TO.N,/A1E6S2*%
X87500000Y-86606500D03*
%TO.P,AA11,2,2*%
%TO.N,/A1P4*%
X87187000Y-86293500D03*
%TD*%
%TO.P,AA10,1,1*%
%TO.N,/A1P4*%
X58813500Y-28293000D03*
%TO.P,AA10,2,2*%
%TO.N,/A1E5S2*%
X58500500Y-28606000D03*
%TD*%
D15*
%TO.P,AE7,1,A*%
%TO.N,/A1E7*%
X57220000Y-11500000D03*
%TD*%
%TO.P,AE4,1,A*%
%TO.N,/A1E4*%
X144220000Y-185500000D03*
%TD*%
D18*
%TO.P,FEED 3,*%
%TO.N,*%
X102000000Y-142000000D03*
D19*
%TO.P,FEED 3,1*%
%TO.N,N/C*%
X102000000Y-142000000D03*
%TD*%
D20*
%TO.N,/A1E1*%
X116151000Y-156500000D02*
X115198000Y-156500000D01*
X116151000Y-214500000D02*
X115198000Y-214500000D01*
X116151000Y-98500000D02*
X115198000Y-98500000D01*
X116151000Y-40500000D02*
X115198000Y-40500000D01*
%TO.N,/A1E1S2*%
X116500000Y-86702000D02*
X116500000Y-98113000D01*
X116500000Y-202702000D02*
X116500000Y-214113000D01*
X116500000Y-28702000D02*
X116500000Y-40113000D01*
X116500000Y-144702000D02*
X116500000Y-156113000D01*
%TO.N,/A1E2*%
X145174000Y-214500000D02*
X144221000Y-214500000D01*
X145174000Y-156500000D02*
X144221000Y-156500000D01*
X145174000Y-98500000D02*
X144221000Y-98500000D01*
X145174000Y-40500000D02*
X144221000Y-40500000D01*
%TO.N,/A1E2S2*%
X145500000Y-28702000D02*
X145500000Y-40102000D01*
X145500000Y-202702000D02*
X145500000Y-214102000D01*
X145500000Y-86702000D02*
X145500000Y-98102000D01*
X145500000Y-144702000D02*
X145500000Y-156102000D01*
%TO.N,/A1E3S2*%
X116500000Y-81402000D02*
X116500000Y-69814000D01*
X116500000Y-139402000D02*
X116500000Y-127814000D01*
X116500000Y-197402000D02*
X116500000Y-185814000D01*
X116500000Y-23402000D02*
X116500000Y-11814000D01*
%TO.N,/A1E3*%
X115233000Y-11500000D02*
X116186000Y-11500000D01*
X115233000Y-127500000D02*
X116186000Y-127500000D01*
X115233000Y-185500000D02*
X116186000Y-185500000D01*
X115233000Y-69500000D02*
X116186000Y-69500000D01*
%TO.N,/A1E4S2*%
X145500000Y-197402000D02*
X145500000Y-185814000D01*
X145500000Y-23402000D02*
X145500000Y-11814000D01*
X145500000Y-139402000D02*
X145500000Y-127814000D01*
X145500000Y-81402000D02*
X145500000Y-69814000D01*
%TO.N,/A1E4*%
X144232000Y-185500000D02*
X145185000Y-185500000D01*
X144232000Y-69500000D02*
X145185000Y-69500000D01*
X144232000Y-11500000D02*
X145185000Y-11500000D01*
X144232000Y-127500000D02*
X145185000Y-127500000D01*
%TO.N,/A1E5S2*%
X58500000Y-98200000D02*
X58500000Y-86700000D01*
X58500000Y-40200000D02*
X58500000Y-28700000D01*
X58500000Y-156200000D02*
X58500000Y-144700000D01*
X58500000Y-214200000D02*
X58500000Y-202700000D01*
%TO.N,/A1E5*%
X57200000Y-98500000D02*
X58200000Y-98500000D01*
X57200000Y-156500000D02*
X58200000Y-156500000D01*
X57200000Y-214500000D02*
X58200000Y-214500000D01*
X57200000Y-40500000D02*
X58200000Y-40500000D01*
%TO.N,/A1P2*%
X116789000Y-86293000D02*
X130999000Y-86293000D01*
X116789000Y-202293000D02*
X130999000Y-202293000D01*
X130999000Y-144293000D02*
X145172000Y-144293000D01*
X130999000Y-202293000D02*
X145172000Y-202293000D01*
X116789000Y-28293000D02*
X130999000Y-28293000D01*
X130982000Y-202226500D02*
X130982000Y-201385500D01*
X130999000Y-86293000D02*
X145172000Y-86293000D01*
X130982000Y-28226500D02*
X130982000Y-27385500D01*
X116789000Y-144293000D02*
X130999000Y-144293000D01*
X130982000Y-144226500D02*
X130982000Y-143385500D01*
X130999000Y-28293000D02*
X145172000Y-28293000D01*
X130982000Y-86226500D02*
X130982000Y-85385500D01*
%TO.N,/A1E6S2*%
X87500000Y-28700000D02*
X87500000Y-40100000D01*
X87500000Y-144700000D02*
X87500000Y-156100000D01*
X87500000Y-86700000D02*
X87500000Y-98100000D01*
X87500000Y-202700000D02*
X87500000Y-214100000D01*
%TO.N,/A1E6*%
X87200000Y-98500000D02*
X86200000Y-98500000D01*
X87200000Y-156500000D02*
X86200000Y-156500000D01*
X87200000Y-40500000D02*
X86200000Y-40500000D01*
X87200000Y-214500000D02*
X86200000Y-214500000D01*
%TO.N,/A1E7*%
X58160000Y-127500000D02*
X57210000Y-127500000D01*
X58160000Y-11500000D02*
X57210000Y-11500000D01*
X58160000Y-185500000D02*
X57210000Y-185500000D01*
X58160000Y-69500000D02*
X57210000Y-69500000D01*
%TO.N,/A1E7S2*%
X58500000Y-197380000D02*
X58500000Y-185810000D01*
X58500000Y-139380000D02*
X58500000Y-127810000D01*
X58500000Y-81380000D02*
X58500000Y-69810000D01*
X58500000Y-23380000D02*
X58500000Y-11810000D01*
%TO.N,/A1P3*%
X145195000Y-139696000D02*
X130985000Y-139696000D01*
X130985000Y-81696000D02*
X116812000Y-81696000D01*
X145195000Y-23696000D02*
X130985000Y-23696000D01*
X145195000Y-81696000D02*
X130985000Y-81696000D01*
X130979000Y-140671000D02*
X130979000Y-139830000D01*
X145195000Y-197696000D02*
X130985000Y-197696000D01*
X130979000Y-24671000D02*
X130979000Y-23830000D01*
X130985000Y-197696000D02*
X116812000Y-197696000D01*
X130979000Y-82671000D02*
X130979000Y-81830000D01*
X130979000Y-198671000D02*
X130979000Y-197830000D01*
X130985000Y-139696000D02*
X116812000Y-139696000D01*
X130985000Y-23696000D02*
X116812000Y-23696000D01*
%TO.N,/A1E8*%
X87190000Y-11500000D02*
X86220000Y-11500000D01*
X87190000Y-127500000D02*
X86220000Y-127500000D01*
X87190000Y-185500000D02*
X86220000Y-185500000D01*
X87190000Y-69500000D02*
X86220000Y-69500000D01*
%TO.N,/A1E8S2*%
X87500000Y-197380000D02*
X87500000Y-185810000D01*
X87500000Y-23380000D02*
X87500000Y-11810000D01*
X87500000Y-139380000D02*
X87500000Y-127810000D01*
X87500000Y-81380000D02*
X87500000Y-69810000D01*
%TO.N,/A1P1*%
X77500000Y-26000000D02*
X126500000Y-26000000D01*
X77500000Y-84000000D02*
X126500000Y-84000000D01*
X77500000Y-142000000D02*
X126500000Y-142000000D01*
X77500000Y-200000000D02*
X126500000Y-200000000D01*
%TO.N,/A1P4*%
X73020000Y-27430000D02*
X73020000Y-28240000D01*
X72967000Y-86293000D02*
X58800000Y-86293000D01*
X87200000Y-28293000D02*
X72967000Y-28293000D01*
X73020000Y-86240000D02*
X72967000Y-86293000D01*
X72967000Y-144293000D02*
X58800000Y-144293000D01*
X73020000Y-143430000D02*
X73020000Y-144240000D01*
X73020000Y-201430000D02*
X73020000Y-202240000D01*
X72967000Y-28293000D02*
X58800000Y-28293000D01*
X73020000Y-144240000D02*
X72967000Y-144293000D01*
X73020000Y-85430000D02*
X73020000Y-86240000D01*
X73020000Y-202240000D02*
X72967000Y-202293000D01*
X72967000Y-202293000D02*
X58800000Y-202293000D01*
X87200000Y-144293000D02*
X72967000Y-144293000D01*
X87200000Y-202293000D02*
X72967000Y-202293000D01*
X87200000Y-86293000D02*
X72967000Y-86293000D01*
X73020000Y-28240000D02*
X72967000Y-28293000D01*
%TO.N,/A1P5*%
X58900000Y-139696000D02*
X73056000Y-139696000D01*
X73090000Y-197730000D02*
X73056000Y-197696000D01*
X73056000Y-197696000D02*
X87100000Y-197696000D01*
X73090000Y-198570000D02*
X73090000Y-197730000D01*
X73090000Y-82570000D02*
X73090000Y-81730000D01*
X73090000Y-23730000D02*
X73056000Y-23696000D01*
X73090000Y-140570000D02*
X73090000Y-139730000D01*
X73056000Y-23696000D02*
X87100000Y-23696000D01*
X73056000Y-139696000D02*
X87100000Y-139696000D01*
X58900000Y-23696000D02*
X73056000Y-23696000D01*
X73090000Y-139730000D02*
X73056000Y-139696000D01*
X73090000Y-81730000D02*
X73056000Y-81696000D01*
X58900000Y-197696000D02*
X73056000Y-197696000D01*
X58900000Y-81696000D02*
X73056000Y-81696000D01*
X73056000Y-81696000D02*
X87100000Y-81696000D01*
X73090000Y-24570000D02*
X73090000Y-23730000D01*
%TD*%
M02*
