%TF.GenerationSoftware,KiCad,Pcbnew,5.99.0-unknown-c07a38b91~106~ubuntu20.04.1*%
%TF.CreationDate,2020-11-24T10:54:45-06:00*%
%TF.ProjectId,FlatAntPanel4x4,466c6174-416e-4745-9061-6e656c347834,rev?*%
%TF.SameCoordinates,Original*%
%TF.FileFunction,Soldermask,Bot*%
%TF.FilePolarity,Negative*%
%FSLAX46Y46*%
G04 Gerber Fmt 4.6, Leading zero omitted, Abs format (unit mm)*
G04 Created by KiCad (PCBNEW 5.99.0-unknown-c07a38b91~106~ubuntu20.04.1) date 2020-11-24 10:54:45*
%MOMM*%
%LPD*%
G01*
G04 APERTURE LIST*
%ADD10C,0.000100*%
%ADD11C,5.000000*%
%ADD12C,2.900000*%
%ADD13C,1.524000*%
G04 APERTURE END LIST*
D10*
%TO.C,FEED 4*%
X103236600Y-200812800D02*
X103236600Y-199212600D01*
X103236600Y-199212600D02*
X100896151Y-199212601D01*
X100896151Y-199212601D02*
X100896151Y-200812800D01*
X100896151Y-200812800D02*
X103236600Y-200812800D01*
G36*
X103236600Y-200812800D02*
G01*
X100896151Y-200812800D01*
X100896151Y-199212601D01*
X103236600Y-199212600D01*
X103236600Y-200812800D01*
G37*
X103236600Y-200812800D02*
X100896151Y-200812800D01*
X100896151Y-199212601D01*
X103236600Y-199212600D01*
X103236600Y-200812800D01*
%TO.C,FEED 1*%
X103236600Y-26812800D02*
X103236600Y-25212600D01*
X103236600Y-25212600D02*
X100896151Y-25212601D01*
X100896151Y-25212601D02*
X100896151Y-26812800D01*
X100896151Y-26812800D02*
X103236600Y-26812800D01*
G36*
X103236600Y-26812800D02*
G01*
X100896151Y-26812800D01*
X100896151Y-25212601D01*
X103236600Y-25212600D01*
X103236600Y-26812800D01*
G37*
X103236600Y-26812800D02*
X100896151Y-26812800D01*
X100896151Y-25212601D01*
X103236600Y-25212600D01*
X103236600Y-26812800D01*
%TO.C,FEED 2*%
X103236600Y-84812800D02*
X103236600Y-83212600D01*
X103236600Y-83212600D02*
X100896151Y-83212601D01*
X100896151Y-83212601D02*
X100896151Y-84812800D01*
X100896151Y-84812800D02*
X103236600Y-84812800D01*
G36*
X103236600Y-84812800D02*
G01*
X100896151Y-84812800D01*
X100896151Y-83212601D01*
X103236600Y-83212600D01*
X103236600Y-84812800D01*
G37*
X103236600Y-84812800D02*
X100896151Y-84812800D01*
X100896151Y-83212601D01*
X103236600Y-83212600D01*
X103236600Y-84812800D01*
%TO.C,FEED 3*%
X103236600Y-142812800D02*
X103236600Y-141212600D01*
X103236600Y-141212600D02*
X100896151Y-141212601D01*
X100896151Y-141212601D02*
X100896151Y-142812800D01*
X100896151Y-142812800D02*
X103236600Y-142812800D01*
G36*
X103236600Y-142812800D02*
G01*
X100896151Y-142812800D01*
X100896151Y-141212601D01*
X103236600Y-141212600D01*
X103236600Y-142812800D01*
G37*
X103236600Y-142812800D02*
X100896151Y-142812800D01*
X100896151Y-141212601D01*
X103236600Y-141212600D01*
X103236600Y-142812800D01*
%TD*%
D11*
%TO.C,H12*%
X170000000Y-113000000D03*
D12*
X170000000Y-113000000D03*
%TD*%
%TO.C,H4*%
X174000000Y-208000000D03*
D11*
X174000000Y-208000000D03*
%TD*%
%TO.C,H2*%
X174000000Y-18000000D03*
D12*
X174000000Y-18000000D03*
%TD*%
D11*
%TO.C,H3*%
X12000000Y-208000000D03*
D12*
X12000000Y-208000000D03*
%TD*%
%TO.C,H1*%
X12000000Y-18000000D03*
D11*
X12000000Y-18000000D03*
%TD*%
D12*
%TO.C,H11*%
X16000000Y-113000000D03*
D11*
X16000000Y-113000000D03*
%TD*%
D13*
%TO.C,FEED 4*%
X102000000Y-200000000D03*
%TD*%
%TO.C,FEED 1*%
X102000000Y-26000000D03*
%TD*%
%TO.C,FEED 2*%
X102000000Y-84000000D03*
%TD*%
%TO.C,FEED 3*%
X102000000Y-142000000D03*
%TD*%
M02*
