%TF.GenerationSoftware,KiCad,Pcbnew,5.99.0-unknown-912657dd23~106~ubuntu20.04.1*%
%TF.CreationDate,2020-12-24T12:23:06-06:00*%
%TF.ProjectId,FlatAntPanel4x4,466c6174-416e-4745-9061-6e656c347834,rev?*%
%TF.SameCoordinates,Original*%
%TF.FileFunction,Soldermask,Top*%
%TF.FilePolarity,Negative*%
%FSLAX46Y46*%
G04 Gerber Fmt 4.6, Leading zero omitted, Abs format (unit mm)*
G04 Created by KiCad (PCBNEW 5.99.0-unknown-912657dd23~106~ubuntu20.04.1) date 2020-12-24 12:23:06*
%MOMM*%
%LPD*%
G01*
G04 APERTURE LIST*
%ADD10C,2.200000*%
%ADD11C,0.000100*%
%ADD12C,2.900000*%
%ADD13C,5.000000*%
G04 APERTURE END LIST*
D10*
%TO.C,Feed1*%
X116245000Y-157488000D02*
G75*
G02*
X108776000Y-157460000I-3730377J1113900D01*
G01*
D11*
X117294133Y-157832943D02*
X117514133Y-156362943D01*
X117514133Y-156362943D02*
X113069875Y-156359721D01*
X113069875Y-156359721D02*
X113065000Y-156981000D01*
X113065000Y-156981000D02*
X111943000Y-156962000D01*
X111943000Y-156962000D02*
X112024000Y-159605000D01*
X112024000Y-159605000D02*
X117294133Y-157832943D01*
G36*
X117514133Y-156362943D02*
G01*
X117294133Y-157832943D01*
X112024000Y-159605000D01*
X111943000Y-156962000D01*
X113065000Y-156981000D01*
X113069875Y-156359721D01*
X117514133Y-156362943D01*
G37*
X117514133Y-156362943D02*
X117294133Y-157832943D01*
X112024000Y-159605000D01*
X111943000Y-156962000D01*
X113065000Y-156981000D01*
X113069875Y-156359721D01*
X117514133Y-156362943D01*
X107518850Y-156693400D02*
X107539000Y-156891000D01*
X107539000Y-156891000D02*
X107562000Y-157045000D01*
X107562000Y-157045000D02*
X107597000Y-157273000D01*
X107597000Y-157273000D02*
X107684000Y-157636000D01*
X107684000Y-157636000D02*
X107853000Y-158148000D01*
X107853000Y-158148000D02*
X107847600Y-156368400D01*
X107847600Y-156368400D02*
X107497600Y-156368400D01*
X107497600Y-156368400D02*
X107506000Y-156507000D01*
X107506000Y-156507000D02*
X107518850Y-156693400D01*
G36*
X107853000Y-158148000D02*
G01*
X107684000Y-157636000D01*
X107597000Y-157273000D01*
X107562000Y-157045000D01*
X107539000Y-156891000D01*
X107518850Y-156693400D01*
X107506000Y-156507000D01*
X107497600Y-156368400D01*
X107847600Y-156368400D01*
X107853000Y-158148000D01*
G37*
X107853000Y-158148000D02*
X107684000Y-157636000D01*
X107597000Y-157273000D01*
X107562000Y-157045000D01*
X107539000Y-156891000D01*
X107518850Y-156693400D01*
X107506000Y-156507000D01*
X107497600Y-156368400D01*
X107847600Y-156368400D01*
X107853000Y-158148000D01*
X113070600Y-156978400D02*
X113070600Y-156388400D01*
X113070600Y-156388400D02*
X113050600Y-156478400D01*
X113050600Y-156478400D02*
X113010600Y-156588400D01*
X113010600Y-156588400D02*
X112960600Y-156688400D01*
X112960600Y-156688400D02*
X112890600Y-156778400D01*
X112890600Y-156778400D02*
X112820600Y-156838400D01*
X112820600Y-156838400D02*
X112684350Y-156905900D01*
X112684350Y-156905900D02*
X112461225Y-156917150D01*
X112461225Y-156917150D02*
X112319975Y-156879650D01*
X112319975Y-156879650D02*
X112230600Y-156828400D01*
X112230600Y-156828400D02*
X112160600Y-156778400D01*
X112160600Y-156778400D02*
X112090600Y-156718400D01*
X112090600Y-156718400D02*
X112030600Y-156648400D01*
X112030600Y-156648400D02*
X111990600Y-156578400D01*
X111990600Y-156578400D02*
X111950600Y-156478400D01*
X111950600Y-156478400D02*
X111950600Y-156978400D01*
X111950600Y-156978400D02*
X113070600Y-156978400D01*
G36*
X113070600Y-156978400D02*
G01*
X111950600Y-156978400D01*
X111950600Y-156478400D01*
X111990600Y-156578400D01*
X112030600Y-156648400D01*
X112090600Y-156718400D01*
X112160600Y-156778400D01*
X112230600Y-156828400D01*
X112319975Y-156879650D01*
X112461225Y-156917150D01*
X112684350Y-156905900D01*
X112820600Y-156838400D01*
X112890600Y-156778400D01*
X112960600Y-156688400D01*
X113010600Y-156588400D01*
X113050600Y-156478400D01*
X113070600Y-156388400D01*
X113070600Y-156978400D01*
G37*
X113070600Y-156978400D02*
X111950600Y-156978400D01*
X111950600Y-156478400D01*
X111990600Y-156578400D01*
X112030600Y-156648400D01*
X112090600Y-156718400D01*
X112160600Y-156778400D01*
X112230600Y-156828400D01*
X112319975Y-156879650D01*
X112461225Y-156917150D01*
X112684350Y-156905900D01*
X112820600Y-156838400D01*
X112890600Y-156778400D01*
X112960600Y-156688400D01*
X113010600Y-156588400D01*
X113050600Y-156478400D01*
X113070600Y-156388400D01*
X113070600Y-156978400D01*
X112024000Y-159347000D02*
X111950600Y-156368400D01*
X111950600Y-156368400D02*
X107514000Y-156368000D01*
X107514000Y-156368000D02*
X107700000Y-157649000D01*
X107700000Y-157649000D02*
X112024000Y-159347000D01*
G36*
X111950600Y-156368400D02*
G01*
X112024000Y-159347000D01*
X107700000Y-157649000D01*
X107514000Y-156368000D01*
X111950600Y-156368400D01*
G37*
X111950600Y-156368400D02*
X112024000Y-159347000D01*
X107700000Y-157649000D01*
X107514000Y-156368000D01*
X111950600Y-156368400D01*
X117348600Y-157627400D02*
X117388600Y-157457400D01*
X117388600Y-157457400D02*
X117428600Y-157257400D01*
X117428600Y-157257400D02*
X117468600Y-157007400D01*
X117468600Y-157007400D02*
X117488600Y-156817400D01*
X117488600Y-156817400D02*
X117498600Y-156667400D01*
X117498600Y-156667400D02*
X117508600Y-156457400D01*
X117508600Y-156457400D02*
X117508600Y-156367400D01*
X117508600Y-156367400D02*
X117288600Y-157837400D01*
X117288600Y-157837400D02*
X117348600Y-157627400D01*
G36*
X117508600Y-156457400D02*
G01*
X117498600Y-156667400D01*
X117488600Y-156817400D01*
X117468600Y-157007400D01*
X117428600Y-157257400D01*
X117388600Y-157457400D01*
X117348600Y-157627400D01*
X117288600Y-157837400D01*
X117508600Y-156367400D01*
X117508600Y-156457400D01*
G37*
X117508600Y-156457400D02*
X117498600Y-156667400D01*
X117488600Y-156817400D01*
X117468600Y-157007400D01*
X117428600Y-157257400D01*
X117388600Y-157457400D01*
X117348600Y-157627400D01*
X117288600Y-157837400D01*
X117508600Y-156367400D01*
X117508600Y-156457400D01*
D10*
X72050000Y-43407000D02*
G75*
G02*
X79519000Y-43435000I3730377J-1113900D01*
G01*
D11*
X71000867Y-43062057D02*
X70780867Y-44532057D01*
X70780867Y-44532057D02*
X75225125Y-44535279D01*
X75225125Y-44535279D02*
X75230000Y-43914000D01*
X75230000Y-43914000D02*
X76352000Y-43933000D01*
X76352000Y-43933000D02*
X76271000Y-41290000D01*
X76271000Y-41290000D02*
X71000867Y-43062057D01*
G36*
X76352000Y-43933000D02*
G01*
X75230000Y-43914000D01*
X75225125Y-44535279D01*
X70780867Y-44532057D01*
X71000867Y-43062057D01*
X76271000Y-41290000D01*
X76352000Y-43933000D01*
G37*
X76352000Y-43933000D02*
X75230000Y-43914000D01*
X75225125Y-44535279D01*
X70780867Y-44532057D01*
X71000867Y-43062057D01*
X76271000Y-41290000D01*
X76352000Y-43933000D01*
X70946400Y-43267600D02*
X70906400Y-43437600D01*
X70906400Y-43437600D02*
X70866400Y-43637600D01*
X70866400Y-43637600D02*
X70826400Y-43887600D01*
X70826400Y-43887600D02*
X70806400Y-44077600D01*
X70806400Y-44077600D02*
X70796400Y-44227600D01*
X70796400Y-44227600D02*
X70786400Y-44437600D01*
X70786400Y-44437600D02*
X70786400Y-44527600D01*
X70786400Y-44527600D02*
X71006400Y-43057600D01*
X71006400Y-43057600D02*
X70946400Y-43267600D01*
G36*
X70786400Y-44527600D02*
G01*
X70786400Y-44437600D01*
X70796400Y-44227600D01*
X70806400Y-44077600D01*
X70826400Y-43887600D01*
X70866400Y-43637600D01*
X70906400Y-43437600D01*
X70946400Y-43267600D01*
X71006400Y-43057600D01*
X70786400Y-44527600D01*
G37*
X70786400Y-44527600D02*
X70786400Y-44437600D01*
X70796400Y-44227600D01*
X70806400Y-44077600D01*
X70826400Y-43887600D01*
X70866400Y-43637600D01*
X70906400Y-43437600D01*
X70946400Y-43267600D01*
X71006400Y-43057600D01*
X70786400Y-44527600D01*
X80776150Y-44201600D02*
X80756000Y-44004000D01*
X80756000Y-44004000D02*
X80733000Y-43850000D01*
X80733000Y-43850000D02*
X80698000Y-43622000D01*
X80698000Y-43622000D02*
X80611000Y-43259000D01*
X80611000Y-43259000D02*
X80442000Y-42747000D01*
X80442000Y-42747000D02*
X80447400Y-44526600D01*
X80447400Y-44526600D02*
X80797400Y-44526600D01*
X80797400Y-44526600D02*
X80789000Y-44388000D01*
X80789000Y-44388000D02*
X80776150Y-44201600D01*
G36*
X80611000Y-43259000D02*
G01*
X80698000Y-43622000D01*
X80733000Y-43850000D01*
X80756000Y-44004000D01*
X80776150Y-44201600D01*
X80789000Y-44388000D01*
X80797400Y-44526600D01*
X80447400Y-44526600D01*
X80442000Y-42747000D01*
X80611000Y-43259000D01*
G37*
X80611000Y-43259000D02*
X80698000Y-43622000D01*
X80733000Y-43850000D01*
X80756000Y-44004000D01*
X80776150Y-44201600D01*
X80789000Y-44388000D01*
X80797400Y-44526600D01*
X80447400Y-44526600D01*
X80442000Y-42747000D01*
X80611000Y-43259000D01*
X76271000Y-41548000D02*
X76344400Y-44526600D01*
X76344400Y-44526600D02*
X80781000Y-44527000D01*
X80781000Y-44527000D02*
X80595000Y-43246000D01*
X80595000Y-43246000D02*
X76271000Y-41548000D01*
G36*
X80595000Y-43246000D02*
G01*
X80781000Y-44527000D01*
X76344400Y-44526600D01*
X76271000Y-41548000D01*
X80595000Y-43246000D01*
G37*
X80595000Y-43246000D02*
X80781000Y-44527000D01*
X76344400Y-44526600D01*
X76271000Y-41548000D01*
X80595000Y-43246000D01*
X75224400Y-43916600D02*
X75224400Y-44506600D01*
X75224400Y-44506600D02*
X75244400Y-44416600D01*
X75244400Y-44416600D02*
X75284400Y-44306600D01*
X75284400Y-44306600D02*
X75334400Y-44206600D01*
X75334400Y-44206600D02*
X75404400Y-44116600D01*
X75404400Y-44116600D02*
X75474400Y-44056600D01*
X75474400Y-44056600D02*
X75610650Y-43989100D01*
X75610650Y-43989100D02*
X75833775Y-43977850D01*
X75833775Y-43977850D02*
X75975025Y-44015350D01*
X75975025Y-44015350D02*
X76064400Y-44066600D01*
X76064400Y-44066600D02*
X76134400Y-44116600D01*
X76134400Y-44116600D02*
X76204400Y-44176600D01*
X76204400Y-44176600D02*
X76264400Y-44246600D01*
X76264400Y-44246600D02*
X76304400Y-44316600D01*
X76304400Y-44316600D02*
X76344400Y-44416600D01*
X76344400Y-44416600D02*
X76344400Y-43916600D01*
X76344400Y-43916600D02*
X75224400Y-43916600D01*
G36*
X76344400Y-44416600D02*
G01*
X76304400Y-44316600D01*
X76264400Y-44246600D01*
X76204400Y-44176600D01*
X76134400Y-44116600D01*
X76064400Y-44066600D01*
X75975025Y-44015350D01*
X75833775Y-43977850D01*
X75610650Y-43989100D01*
X75474400Y-44056600D01*
X75404400Y-44116600D01*
X75334400Y-44206600D01*
X75284400Y-44306600D01*
X75244400Y-44416600D01*
X75224400Y-44506600D01*
X75224400Y-43916600D01*
X76344400Y-43916600D01*
X76344400Y-44416600D01*
G37*
X76344400Y-44416600D02*
X76304400Y-44316600D01*
X76264400Y-44246600D01*
X76204400Y-44176600D01*
X76134400Y-44116600D01*
X76064400Y-44066600D01*
X75975025Y-44015350D01*
X75833775Y-43977850D01*
X75610650Y-43989100D01*
X75474400Y-44056600D01*
X75404400Y-44116600D01*
X75334400Y-44206600D01*
X75284400Y-44306600D01*
X75244400Y-44416600D01*
X75224400Y-44506600D01*
X75224400Y-43916600D01*
X76344400Y-43916600D01*
X76344400Y-44416600D01*
D10*
X105815000Y-69073000D02*
G75*
G02*
X98346000Y-69045000I-3730377J1113900D01*
G01*
D11*
X101594000Y-70932000D02*
X101520600Y-67953400D01*
X101520600Y-67953400D02*
X97084000Y-67953000D01*
X97084000Y-67953000D02*
X97270000Y-69234000D01*
X97270000Y-69234000D02*
X101594000Y-70932000D01*
G36*
X101520600Y-67953400D02*
G01*
X101594000Y-70932000D01*
X97270000Y-69234000D01*
X97084000Y-67953000D01*
X101520600Y-67953400D01*
G37*
X101520600Y-67953400D02*
X101594000Y-70932000D01*
X97270000Y-69234000D01*
X97084000Y-67953000D01*
X101520600Y-67953400D01*
X97088850Y-68278400D02*
X97109000Y-68476000D01*
X97109000Y-68476000D02*
X97132000Y-68630000D01*
X97132000Y-68630000D02*
X97167000Y-68858000D01*
X97167000Y-68858000D02*
X97254000Y-69221000D01*
X97254000Y-69221000D02*
X97423000Y-69733000D01*
X97423000Y-69733000D02*
X97417600Y-67953400D01*
X97417600Y-67953400D02*
X97067600Y-67953400D01*
X97067600Y-67953400D02*
X97076000Y-68092000D01*
X97076000Y-68092000D02*
X97088850Y-68278400D01*
G36*
X97423000Y-69733000D02*
G01*
X97254000Y-69221000D01*
X97167000Y-68858000D01*
X97132000Y-68630000D01*
X97109000Y-68476000D01*
X97088850Y-68278400D01*
X97076000Y-68092000D01*
X97067600Y-67953400D01*
X97417600Y-67953400D01*
X97423000Y-69733000D01*
G37*
X97423000Y-69733000D02*
X97254000Y-69221000D01*
X97167000Y-68858000D01*
X97132000Y-68630000D01*
X97109000Y-68476000D01*
X97088850Y-68278400D01*
X97076000Y-68092000D01*
X97067600Y-67953400D01*
X97417600Y-67953400D01*
X97423000Y-69733000D01*
X106918600Y-69212400D02*
X106958600Y-69042400D01*
X106958600Y-69042400D02*
X106998600Y-68842400D01*
X106998600Y-68842400D02*
X107038600Y-68592400D01*
X107038600Y-68592400D02*
X107058600Y-68402400D01*
X107058600Y-68402400D02*
X107068600Y-68252400D01*
X107068600Y-68252400D02*
X107078600Y-68042400D01*
X107078600Y-68042400D02*
X107078600Y-67952400D01*
X107078600Y-67952400D02*
X106858600Y-69422400D01*
X106858600Y-69422400D02*
X106918600Y-69212400D01*
G36*
X107078600Y-68042400D02*
G01*
X107068600Y-68252400D01*
X107058600Y-68402400D01*
X107038600Y-68592400D01*
X106998600Y-68842400D01*
X106958600Y-69042400D01*
X106918600Y-69212400D01*
X106858600Y-69422400D01*
X107078600Y-67952400D01*
X107078600Y-68042400D01*
G37*
X107078600Y-68042400D02*
X107068600Y-68252400D01*
X107058600Y-68402400D01*
X107038600Y-68592400D01*
X106998600Y-68842400D01*
X106958600Y-69042400D01*
X106918600Y-69212400D01*
X106858600Y-69422400D01*
X107078600Y-67952400D01*
X107078600Y-68042400D01*
X106864133Y-69417943D02*
X107084133Y-67947943D01*
X107084133Y-67947943D02*
X102639875Y-67944721D01*
X102639875Y-67944721D02*
X102635000Y-68566000D01*
X102635000Y-68566000D02*
X101513000Y-68547000D01*
X101513000Y-68547000D02*
X101594000Y-71190000D01*
X101594000Y-71190000D02*
X106864133Y-69417943D01*
G36*
X107084133Y-67947943D02*
G01*
X106864133Y-69417943D01*
X101594000Y-71190000D01*
X101513000Y-68547000D01*
X102635000Y-68566000D01*
X102639875Y-67944721D01*
X107084133Y-67947943D01*
G37*
X107084133Y-67947943D02*
X106864133Y-69417943D01*
X101594000Y-71190000D01*
X101513000Y-68547000D01*
X102635000Y-68566000D01*
X102639875Y-67944721D01*
X107084133Y-67947943D01*
X102640600Y-68563400D02*
X102640600Y-67973400D01*
X102640600Y-67973400D02*
X102620600Y-68063400D01*
X102620600Y-68063400D02*
X102580600Y-68173400D01*
X102580600Y-68173400D02*
X102530600Y-68273400D01*
X102530600Y-68273400D02*
X102460600Y-68363400D01*
X102460600Y-68363400D02*
X102390600Y-68423400D01*
X102390600Y-68423400D02*
X102254350Y-68490900D01*
X102254350Y-68490900D02*
X102031225Y-68502150D01*
X102031225Y-68502150D02*
X101889975Y-68464650D01*
X101889975Y-68464650D02*
X101800600Y-68413400D01*
X101800600Y-68413400D02*
X101730600Y-68363400D01*
X101730600Y-68363400D02*
X101660600Y-68303400D01*
X101660600Y-68303400D02*
X101600600Y-68233400D01*
X101600600Y-68233400D02*
X101560600Y-68163400D01*
X101560600Y-68163400D02*
X101520600Y-68063400D01*
X101520600Y-68063400D02*
X101520600Y-68563400D01*
X101520600Y-68563400D02*
X102640600Y-68563400D01*
G36*
X102640600Y-68563400D02*
G01*
X101520600Y-68563400D01*
X101520600Y-68063400D01*
X101560600Y-68163400D01*
X101600600Y-68233400D01*
X101660600Y-68303400D01*
X101730600Y-68363400D01*
X101800600Y-68413400D01*
X101889975Y-68464650D01*
X102031225Y-68502150D01*
X102254350Y-68490900D01*
X102390600Y-68423400D01*
X102460600Y-68363400D01*
X102530600Y-68273400D01*
X102580600Y-68173400D01*
X102620600Y-68063400D01*
X102640600Y-67973400D01*
X102640600Y-68563400D01*
G37*
X102640600Y-68563400D02*
X101520600Y-68563400D01*
X101520600Y-68063400D01*
X101560600Y-68163400D01*
X101600600Y-68233400D01*
X101660600Y-68303400D01*
X101730600Y-68363400D01*
X101800600Y-68413400D01*
X101889975Y-68464650D01*
X102031225Y-68502150D01*
X102254350Y-68490900D01*
X102390600Y-68423400D01*
X102460600Y-68363400D01*
X102530600Y-68273400D01*
X102580600Y-68173400D01*
X102620600Y-68063400D01*
X102640600Y-67973400D01*
X102640600Y-68563400D01*
D10*
X85890000Y-155527000D02*
G75*
G02*
X93359000Y-155555000I3730377J-1113900D01*
G01*
D11*
X94616150Y-156321600D02*
X94596000Y-156124000D01*
X94596000Y-156124000D02*
X94573000Y-155970000D01*
X94573000Y-155970000D02*
X94538000Y-155742000D01*
X94538000Y-155742000D02*
X94451000Y-155379000D01*
X94451000Y-155379000D02*
X94282000Y-154867000D01*
X94282000Y-154867000D02*
X94287400Y-156646600D01*
X94287400Y-156646600D02*
X94637400Y-156646600D01*
X94637400Y-156646600D02*
X94629000Y-156508000D01*
X94629000Y-156508000D02*
X94616150Y-156321600D01*
G36*
X94451000Y-155379000D02*
G01*
X94538000Y-155742000D01*
X94573000Y-155970000D01*
X94596000Y-156124000D01*
X94616150Y-156321600D01*
X94629000Y-156508000D01*
X94637400Y-156646600D01*
X94287400Y-156646600D01*
X94282000Y-154867000D01*
X94451000Y-155379000D01*
G37*
X94451000Y-155379000D02*
X94538000Y-155742000D01*
X94573000Y-155970000D01*
X94596000Y-156124000D01*
X94616150Y-156321600D01*
X94629000Y-156508000D01*
X94637400Y-156646600D01*
X94287400Y-156646600D01*
X94282000Y-154867000D01*
X94451000Y-155379000D01*
X89064400Y-156036600D02*
X89064400Y-156626600D01*
X89064400Y-156626600D02*
X89084400Y-156536600D01*
X89084400Y-156536600D02*
X89124400Y-156426600D01*
X89124400Y-156426600D02*
X89174400Y-156326600D01*
X89174400Y-156326600D02*
X89244400Y-156236600D01*
X89244400Y-156236600D02*
X89314400Y-156176600D01*
X89314400Y-156176600D02*
X89450650Y-156109100D01*
X89450650Y-156109100D02*
X89673775Y-156097850D01*
X89673775Y-156097850D02*
X89815025Y-156135350D01*
X89815025Y-156135350D02*
X89904400Y-156186600D01*
X89904400Y-156186600D02*
X89974400Y-156236600D01*
X89974400Y-156236600D02*
X90044400Y-156296600D01*
X90044400Y-156296600D02*
X90104400Y-156366600D01*
X90104400Y-156366600D02*
X90144400Y-156436600D01*
X90144400Y-156436600D02*
X90184400Y-156536600D01*
X90184400Y-156536600D02*
X90184400Y-156036600D01*
X90184400Y-156036600D02*
X89064400Y-156036600D01*
G36*
X90184400Y-156536600D02*
G01*
X90144400Y-156436600D01*
X90104400Y-156366600D01*
X90044400Y-156296600D01*
X89974400Y-156236600D01*
X89904400Y-156186600D01*
X89815025Y-156135350D01*
X89673775Y-156097850D01*
X89450650Y-156109100D01*
X89314400Y-156176600D01*
X89244400Y-156236600D01*
X89174400Y-156326600D01*
X89124400Y-156426600D01*
X89084400Y-156536600D01*
X89064400Y-156626600D01*
X89064400Y-156036600D01*
X90184400Y-156036600D01*
X90184400Y-156536600D01*
G37*
X90184400Y-156536600D02*
X90144400Y-156436600D01*
X90104400Y-156366600D01*
X90044400Y-156296600D01*
X89974400Y-156236600D01*
X89904400Y-156186600D01*
X89815025Y-156135350D01*
X89673775Y-156097850D01*
X89450650Y-156109100D01*
X89314400Y-156176600D01*
X89244400Y-156236600D01*
X89174400Y-156326600D01*
X89124400Y-156426600D01*
X89084400Y-156536600D01*
X89064400Y-156626600D01*
X89064400Y-156036600D01*
X90184400Y-156036600D01*
X90184400Y-156536600D01*
X90111000Y-153668000D02*
X90184400Y-156646600D01*
X90184400Y-156646600D02*
X94621000Y-156647000D01*
X94621000Y-156647000D02*
X94435000Y-155366000D01*
X94435000Y-155366000D02*
X90111000Y-153668000D01*
G36*
X94435000Y-155366000D02*
G01*
X94621000Y-156647000D01*
X90184400Y-156646600D01*
X90111000Y-153668000D01*
X94435000Y-155366000D01*
G37*
X94435000Y-155366000D02*
X94621000Y-156647000D01*
X90184400Y-156646600D01*
X90111000Y-153668000D01*
X94435000Y-155366000D01*
X84786400Y-155387600D02*
X84746400Y-155557600D01*
X84746400Y-155557600D02*
X84706400Y-155757600D01*
X84706400Y-155757600D02*
X84666400Y-156007600D01*
X84666400Y-156007600D02*
X84646400Y-156197600D01*
X84646400Y-156197600D02*
X84636400Y-156347600D01*
X84636400Y-156347600D02*
X84626400Y-156557600D01*
X84626400Y-156557600D02*
X84626400Y-156647600D01*
X84626400Y-156647600D02*
X84846400Y-155177600D01*
X84846400Y-155177600D02*
X84786400Y-155387600D01*
G36*
X84626400Y-156647600D02*
G01*
X84626400Y-156557600D01*
X84636400Y-156347600D01*
X84646400Y-156197600D01*
X84666400Y-156007600D01*
X84706400Y-155757600D01*
X84746400Y-155557600D01*
X84786400Y-155387600D01*
X84846400Y-155177600D01*
X84626400Y-156647600D01*
G37*
X84626400Y-156647600D02*
X84626400Y-156557600D01*
X84636400Y-156347600D01*
X84646400Y-156197600D01*
X84666400Y-156007600D01*
X84706400Y-155757600D01*
X84746400Y-155557600D01*
X84786400Y-155387600D01*
X84846400Y-155177600D01*
X84626400Y-156647600D01*
X84840867Y-155182057D02*
X84620867Y-156652057D01*
X84620867Y-156652057D02*
X89065125Y-156655279D01*
X89065125Y-156655279D02*
X89070000Y-156034000D01*
X89070000Y-156034000D02*
X90192000Y-156053000D01*
X90192000Y-156053000D02*
X90111000Y-153410000D01*
X90111000Y-153410000D02*
X84840867Y-155182057D01*
G36*
X90192000Y-156053000D02*
G01*
X89070000Y-156034000D01*
X89065125Y-156655279D01*
X84620867Y-156652057D01*
X84840867Y-155182057D01*
X90111000Y-153410000D01*
X90192000Y-156053000D01*
G37*
X90192000Y-156053000D02*
X89070000Y-156034000D01*
X89065125Y-156655279D01*
X84620867Y-156652057D01*
X84840867Y-155182057D01*
X90111000Y-153410000D01*
X90192000Y-156053000D01*
%TD*%
D12*
%TO.C,H10*%
X93000000Y-5000000D03*
D13*
X93000000Y-5000000D03*
%TD*%
D12*
%TO.C,H12*%
X170000000Y-113000000D03*
D13*
X170000000Y-113000000D03*
%TD*%
D12*
%TO.C,H4*%
X174000000Y-208000000D03*
D13*
X174000000Y-208000000D03*
%TD*%
D12*
%TO.C,H9*%
X93000000Y-221000000D03*
D13*
X93000000Y-221000000D03*
%TD*%
D12*
%TO.C,H2*%
X174000000Y-18000000D03*
D13*
X174000000Y-18000000D03*
%TD*%
%TO.C,H3*%
X12000000Y-208000000D03*
D12*
X12000000Y-208000000D03*
%TD*%
D13*
%TO.C,H1*%
X12000000Y-18000000D03*
D12*
X12000000Y-18000000D03*
%TD*%
D13*
%TO.C,H11*%
X16000000Y-113000000D03*
D12*
X16000000Y-113000000D03*
%TD*%
M02*
