G04 #@! TF.GenerationSoftware,KiCad,Pcbnew,5.99.0-unknown-64afa3a42e~128~ubuntu20.04.1*
G04 #@! TF.CreationDate,2021-05-28T16:02:49-05:00*
G04 #@! TF.ProjectId,Feeds,46656564-732e-46b6-9963-61645f706362,rev?*
G04 #@! TF.SameCoordinates,Original*
G04 #@! TF.FileFunction,Soldermask,Top*
G04 #@! TF.FilePolarity,Negative*
%FSLAX46Y46*%
G04 Gerber Fmt 4.6, Leading zero omitted, Abs format (unit mm)*
G04 Created by KiCad (PCBNEW 5.99.0-unknown-64afa3a42e~128~ubuntu20.04.1) date 2021-05-28 16:02:49*
%MOMM*%
%LPD*%
G01*
G04 APERTURE LIST*
%ADD10C,2.200000*%
%ADD11C,0.000100*%
%ADD12C,2.900000*%
%ADD13C,5.000000*%
G04 APERTURE END LIST*
D10*
G04 #@! TO.C,Feed4*
X108623129Y-109215000D02*
G75*
G02*
X108595129Y-116684000I-1113900J-3730377D01*
G01*
D11*
X108113529Y-112389400D02*
X107523529Y-112389400D01*
X107523529Y-112389400D02*
X107613529Y-112409400D01*
X107613529Y-112409400D02*
X107723529Y-112449400D01*
X107723529Y-112449400D02*
X107823529Y-112499400D01*
X107823529Y-112499400D02*
X107913529Y-112569400D01*
X107913529Y-112569400D02*
X107973529Y-112639400D01*
X107973529Y-112639400D02*
X108041029Y-112775650D01*
X108041029Y-112775650D02*
X108052279Y-112998775D01*
X108052279Y-112998775D02*
X108014779Y-113140025D01*
X108014779Y-113140025D02*
X107963529Y-113229400D01*
X107963529Y-113229400D02*
X107913529Y-113299400D01*
X107913529Y-113299400D02*
X107853529Y-113369400D01*
X107853529Y-113369400D02*
X107783529Y-113429400D01*
X107783529Y-113429400D02*
X107713529Y-113469400D01*
X107713529Y-113469400D02*
X107613529Y-113509400D01*
X107613529Y-113509400D02*
X108113529Y-113509400D01*
X108113529Y-113509400D02*
X108113529Y-112389400D01*
G36*
X108113529Y-113509400D02*
G01*
X107613529Y-113509400D01*
X107713529Y-113469400D01*
X107783529Y-113429400D01*
X107853529Y-113369400D01*
X107913529Y-113299400D01*
X107963529Y-113229400D01*
X108014779Y-113140025D01*
X108052279Y-112998775D01*
X108041029Y-112775650D01*
X107973529Y-112639400D01*
X107913529Y-112569400D01*
X107823529Y-112499400D01*
X107723529Y-112449400D01*
X107613529Y-112409400D01*
X107523529Y-112389400D01*
X108113529Y-112389400D01*
X108113529Y-113509400D01*
G37*
X108113529Y-113509400D02*
X107613529Y-113509400D01*
X107713529Y-113469400D01*
X107783529Y-113429400D01*
X107853529Y-113369400D01*
X107913529Y-113299400D01*
X107963529Y-113229400D01*
X108014779Y-113140025D01*
X108052279Y-112998775D01*
X108041029Y-112775650D01*
X107973529Y-112639400D01*
X107913529Y-112569400D01*
X107823529Y-112499400D01*
X107723529Y-112449400D01*
X107613529Y-112409400D01*
X107523529Y-112389400D01*
X108113529Y-112389400D01*
X108113529Y-113509400D01*
X108968072Y-108165867D02*
X107498072Y-107945867D01*
X107498072Y-107945867D02*
X107494850Y-112390125D01*
X107494850Y-112390125D02*
X108116129Y-112395000D01*
X108116129Y-112395000D02*
X108097129Y-113517000D01*
X108097129Y-113517000D02*
X110740129Y-113436000D01*
X110740129Y-113436000D02*
X108968072Y-108165867D01*
G36*
X108968072Y-108165867D02*
G01*
X110740129Y-113436000D01*
X108097129Y-113517000D01*
X108116129Y-112395000D01*
X107494850Y-112390125D01*
X107498072Y-107945867D01*
X108968072Y-108165867D01*
G37*
X108968072Y-108165867D02*
X110740129Y-113436000D01*
X108097129Y-113517000D01*
X108116129Y-112395000D01*
X107494850Y-112390125D01*
X107498072Y-107945867D01*
X108968072Y-108165867D01*
X107828529Y-117941150D02*
X108026129Y-117921000D01*
X108026129Y-117921000D02*
X108180129Y-117898000D01*
X108180129Y-117898000D02*
X108408129Y-117863000D01*
X108408129Y-117863000D02*
X108771129Y-117776000D01*
X108771129Y-117776000D02*
X109283129Y-117607000D01*
X109283129Y-117607000D02*
X107503529Y-117612400D01*
X107503529Y-117612400D02*
X107503529Y-117962400D01*
X107503529Y-117962400D02*
X107642129Y-117954000D01*
X107642129Y-117954000D02*
X107828529Y-117941150D01*
G36*
X108771129Y-117776000D02*
G01*
X108408129Y-117863000D01*
X108180129Y-117898000D01*
X108026129Y-117921000D01*
X107828529Y-117941150D01*
X107642129Y-117954000D01*
X107503529Y-117962400D01*
X107503529Y-117612400D01*
X109283129Y-117607000D01*
X108771129Y-117776000D01*
G37*
X108771129Y-117776000D02*
X108408129Y-117863000D01*
X108180129Y-117898000D01*
X108026129Y-117921000D01*
X107828529Y-117941150D01*
X107642129Y-117954000D01*
X107503529Y-117962400D01*
X107503529Y-117612400D01*
X109283129Y-117607000D01*
X108771129Y-117776000D01*
X110482129Y-113436000D02*
X107503529Y-113509400D01*
X107503529Y-113509400D02*
X107503129Y-117946000D01*
X107503129Y-117946000D02*
X108784129Y-117760000D01*
X108784129Y-117760000D02*
X110482129Y-113436000D01*
G36*
X108784129Y-117760000D02*
G01*
X107503129Y-117946000D01*
X107503529Y-113509400D01*
X110482129Y-113436000D01*
X108784129Y-117760000D01*
G37*
X108784129Y-117760000D02*
X107503129Y-117946000D01*
X107503529Y-113509400D01*
X110482129Y-113436000D01*
X108784129Y-117760000D01*
X108762529Y-108111400D02*
X108592529Y-108071400D01*
X108592529Y-108071400D02*
X108392529Y-108031400D01*
X108392529Y-108031400D02*
X108142529Y-107991400D01*
X108142529Y-107991400D02*
X107952529Y-107971400D01*
X107952529Y-107971400D02*
X107802529Y-107961400D01*
X107802529Y-107961400D02*
X107592529Y-107951400D01*
X107592529Y-107951400D02*
X107502529Y-107951400D01*
X107502529Y-107951400D02*
X108972529Y-108171400D01*
X108972529Y-108171400D02*
X108762529Y-108111400D01*
G36*
X107802529Y-107961400D02*
G01*
X107952529Y-107971400D01*
X108142529Y-107991400D01*
X108392529Y-108031400D01*
X108592529Y-108071400D01*
X108762529Y-108111400D01*
X108972529Y-108171400D01*
X107502529Y-107951400D01*
X107592529Y-107951400D01*
X107802529Y-107961400D01*
G37*
X107802529Y-107961400D02*
X107952529Y-107971400D01*
X108142529Y-107991400D01*
X108392529Y-108031400D01*
X108592529Y-108071400D01*
X108762529Y-108111400D01*
X108972529Y-108171400D01*
X107502529Y-107951400D01*
X107592529Y-107951400D01*
X107802529Y-107961400D01*
D10*
X68623129Y-109215000D02*
G75*
G02*
X68595129Y-116684000I-1113900J-3730377D01*
G01*
D11*
X68968072Y-108165867D02*
X67498072Y-107945867D01*
X67498072Y-107945867D02*
X67494850Y-112390125D01*
X67494850Y-112390125D02*
X68116129Y-112395000D01*
X68116129Y-112395000D02*
X68097129Y-113517000D01*
X68097129Y-113517000D02*
X70740129Y-113436000D01*
X70740129Y-113436000D02*
X68968072Y-108165867D01*
G36*
X68968072Y-108165867D02*
G01*
X70740129Y-113436000D01*
X68097129Y-113517000D01*
X68116129Y-112395000D01*
X67494850Y-112390125D01*
X67498072Y-107945867D01*
X68968072Y-108165867D01*
G37*
X68968072Y-108165867D02*
X70740129Y-113436000D01*
X68097129Y-113517000D01*
X68116129Y-112395000D01*
X67494850Y-112390125D01*
X67498072Y-107945867D01*
X68968072Y-108165867D01*
X67828529Y-117941150D02*
X68026129Y-117921000D01*
X68026129Y-117921000D02*
X68180129Y-117898000D01*
X68180129Y-117898000D02*
X68408129Y-117863000D01*
X68408129Y-117863000D02*
X68771129Y-117776000D01*
X68771129Y-117776000D02*
X69283129Y-117607000D01*
X69283129Y-117607000D02*
X67503529Y-117612400D01*
X67503529Y-117612400D02*
X67503529Y-117962400D01*
X67503529Y-117962400D02*
X67642129Y-117954000D01*
X67642129Y-117954000D02*
X67828529Y-117941150D01*
G36*
X68771129Y-117776000D02*
G01*
X68408129Y-117863000D01*
X68180129Y-117898000D01*
X68026129Y-117921000D01*
X67828529Y-117941150D01*
X67642129Y-117954000D01*
X67503529Y-117962400D01*
X67503529Y-117612400D01*
X69283129Y-117607000D01*
X68771129Y-117776000D01*
G37*
X68771129Y-117776000D02*
X68408129Y-117863000D01*
X68180129Y-117898000D01*
X68026129Y-117921000D01*
X67828529Y-117941150D01*
X67642129Y-117954000D01*
X67503529Y-117962400D01*
X67503529Y-117612400D01*
X69283129Y-117607000D01*
X68771129Y-117776000D01*
X68113529Y-112389400D02*
X67523529Y-112389400D01*
X67523529Y-112389400D02*
X67613529Y-112409400D01*
X67613529Y-112409400D02*
X67723529Y-112449400D01*
X67723529Y-112449400D02*
X67823529Y-112499400D01*
X67823529Y-112499400D02*
X67913529Y-112569400D01*
X67913529Y-112569400D02*
X67973529Y-112639400D01*
X67973529Y-112639400D02*
X68041029Y-112775650D01*
X68041029Y-112775650D02*
X68052279Y-112998775D01*
X68052279Y-112998775D02*
X68014779Y-113140025D01*
X68014779Y-113140025D02*
X67963529Y-113229400D01*
X67963529Y-113229400D02*
X67913529Y-113299400D01*
X67913529Y-113299400D02*
X67853529Y-113369400D01*
X67853529Y-113369400D02*
X67783529Y-113429400D01*
X67783529Y-113429400D02*
X67713529Y-113469400D01*
X67713529Y-113469400D02*
X67613529Y-113509400D01*
X67613529Y-113509400D02*
X68113529Y-113509400D01*
X68113529Y-113509400D02*
X68113529Y-112389400D01*
G36*
X68113529Y-113509400D02*
G01*
X67613529Y-113509400D01*
X67713529Y-113469400D01*
X67783529Y-113429400D01*
X67853529Y-113369400D01*
X67913529Y-113299400D01*
X67963529Y-113229400D01*
X68014779Y-113140025D01*
X68052279Y-112998775D01*
X68041029Y-112775650D01*
X67973529Y-112639400D01*
X67913529Y-112569400D01*
X67823529Y-112499400D01*
X67723529Y-112449400D01*
X67613529Y-112409400D01*
X67523529Y-112389400D01*
X68113529Y-112389400D01*
X68113529Y-113509400D01*
G37*
X68113529Y-113509400D02*
X67613529Y-113509400D01*
X67713529Y-113469400D01*
X67783529Y-113429400D01*
X67853529Y-113369400D01*
X67913529Y-113299400D01*
X67963529Y-113229400D01*
X68014779Y-113140025D01*
X68052279Y-112998775D01*
X68041029Y-112775650D01*
X67973529Y-112639400D01*
X67913529Y-112569400D01*
X67823529Y-112499400D01*
X67723529Y-112449400D01*
X67613529Y-112409400D01*
X67523529Y-112389400D01*
X68113529Y-112389400D01*
X68113529Y-113509400D01*
X70482129Y-113436000D02*
X67503529Y-113509400D01*
X67503529Y-113509400D02*
X67503129Y-117946000D01*
X67503129Y-117946000D02*
X68784129Y-117760000D01*
X68784129Y-117760000D02*
X70482129Y-113436000D01*
G36*
X68784129Y-117760000D02*
G01*
X67503129Y-117946000D01*
X67503529Y-113509400D01*
X70482129Y-113436000D01*
X68784129Y-117760000D01*
G37*
X68784129Y-117760000D02*
X67503129Y-117946000D01*
X67503529Y-113509400D01*
X70482129Y-113436000D01*
X68784129Y-117760000D01*
X68762529Y-108111400D02*
X68592529Y-108071400D01*
X68592529Y-108071400D02*
X68392529Y-108031400D01*
X68392529Y-108031400D02*
X68142529Y-107991400D01*
X68142529Y-107991400D02*
X67952529Y-107971400D01*
X67952529Y-107971400D02*
X67802529Y-107961400D01*
X67802529Y-107961400D02*
X67592529Y-107951400D01*
X67592529Y-107951400D02*
X67502529Y-107951400D01*
X67502529Y-107951400D02*
X68972529Y-108171400D01*
X68972529Y-108171400D02*
X68762529Y-108111400D01*
G36*
X67802529Y-107961400D02*
G01*
X67952529Y-107971400D01*
X68142529Y-107991400D01*
X68392529Y-108031400D01*
X68592529Y-108071400D01*
X68762529Y-108111400D01*
X68972529Y-108171400D01*
X67502529Y-107951400D01*
X67592529Y-107951400D01*
X67802529Y-107961400D01*
G37*
X67802529Y-107961400D02*
X67952529Y-107971400D01*
X68142529Y-107991400D01*
X68392529Y-108031400D01*
X68592529Y-108071400D01*
X68762529Y-108111400D01*
X68972529Y-108171400D01*
X67502529Y-107951400D01*
X67592529Y-107951400D01*
X67802529Y-107961400D01*
D10*
X148623129Y-109215000D02*
G75*
G02*
X148595129Y-116684000I-1113900J-3730377D01*
G01*
D11*
X148113529Y-112389400D02*
X147523529Y-112389400D01*
X147523529Y-112389400D02*
X147613529Y-112409400D01*
X147613529Y-112409400D02*
X147723529Y-112449400D01*
X147723529Y-112449400D02*
X147823529Y-112499400D01*
X147823529Y-112499400D02*
X147913529Y-112569400D01*
X147913529Y-112569400D02*
X147973529Y-112639400D01*
X147973529Y-112639400D02*
X148041029Y-112775650D01*
X148041029Y-112775650D02*
X148052279Y-112998775D01*
X148052279Y-112998775D02*
X148014779Y-113140025D01*
X148014779Y-113140025D02*
X147963529Y-113229400D01*
X147963529Y-113229400D02*
X147913529Y-113299400D01*
X147913529Y-113299400D02*
X147853529Y-113369400D01*
X147853529Y-113369400D02*
X147783529Y-113429400D01*
X147783529Y-113429400D02*
X147713529Y-113469400D01*
X147713529Y-113469400D02*
X147613529Y-113509400D01*
X147613529Y-113509400D02*
X148113529Y-113509400D01*
X148113529Y-113509400D02*
X148113529Y-112389400D01*
G36*
X148113529Y-113509400D02*
G01*
X147613529Y-113509400D01*
X147713529Y-113469400D01*
X147783529Y-113429400D01*
X147853529Y-113369400D01*
X147913529Y-113299400D01*
X147963529Y-113229400D01*
X148014779Y-113140025D01*
X148052279Y-112998775D01*
X148041029Y-112775650D01*
X147973529Y-112639400D01*
X147913529Y-112569400D01*
X147823529Y-112499400D01*
X147723529Y-112449400D01*
X147613529Y-112409400D01*
X147523529Y-112389400D01*
X148113529Y-112389400D01*
X148113529Y-113509400D01*
G37*
X148113529Y-113509400D02*
X147613529Y-113509400D01*
X147713529Y-113469400D01*
X147783529Y-113429400D01*
X147853529Y-113369400D01*
X147913529Y-113299400D01*
X147963529Y-113229400D01*
X148014779Y-113140025D01*
X148052279Y-112998775D01*
X148041029Y-112775650D01*
X147973529Y-112639400D01*
X147913529Y-112569400D01*
X147823529Y-112499400D01*
X147723529Y-112449400D01*
X147613529Y-112409400D01*
X147523529Y-112389400D01*
X148113529Y-112389400D01*
X148113529Y-113509400D01*
X148968072Y-108165867D02*
X147498072Y-107945867D01*
X147498072Y-107945867D02*
X147494850Y-112390125D01*
X147494850Y-112390125D02*
X148116129Y-112395000D01*
X148116129Y-112395000D02*
X148097129Y-113517000D01*
X148097129Y-113517000D02*
X150740129Y-113436000D01*
X150740129Y-113436000D02*
X148968072Y-108165867D01*
G36*
X148968072Y-108165867D02*
G01*
X150740129Y-113436000D01*
X148097129Y-113517000D01*
X148116129Y-112395000D01*
X147494850Y-112390125D01*
X147498072Y-107945867D01*
X148968072Y-108165867D01*
G37*
X148968072Y-108165867D02*
X150740129Y-113436000D01*
X148097129Y-113517000D01*
X148116129Y-112395000D01*
X147494850Y-112390125D01*
X147498072Y-107945867D01*
X148968072Y-108165867D01*
X150482129Y-113436000D02*
X147503529Y-113509400D01*
X147503529Y-113509400D02*
X147503129Y-117946000D01*
X147503129Y-117946000D02*
X148784129Y-117760000D01*
X148784129Y-117760000D02*
X150482129Y-113436000D01*
G36*
X148784129Y-117760000D02*
G01*
X147503129Y-117946000D01*
X147503529Y-113509400D01*
X150482129Y-113436000D01*
X148784129Y-117760000D01*
G37*
X148784129Y-117760000D02*
X147503129Y-117946000D01*
X147503529Y-113509400D01*
X150482129Y-113436000D01*
X148784129Y-117760000D01*
X147828529Y-117941150D02*
X148026129Y-117921000D01*
X148026129Y-117921000D02*
X148180129Y-117898000D01*
X148180129Y-117898000D02*
X148408129Y-117863000D01*
X148408129Y-117863000D02*
X148771129Y-117776000D01*
X148771129Y-117776000D02*
X149283129Y-117607000D01*
X149283129Y-117607000D02*
X147503529Y-117612400D01*
X147503529Y-117612400D02*
X147503529Y-117962400D01*
X147503529Y-117962400D02*
X147642129Y-117954000D01*
X147642129Y-117954000D02*
X147828529Y-117941150D01*
G36*
X148771129Y-117776000D02*
G01*
X148408129Y-117863000D01*
X148180129Y-117898000D01*
X148026129Y-117921000D01*
X147828529Y-117941150D01*
X147642129Y-117954000D01*
X147503529Y-117962400D01*
X147503529Y-117612400D01*
X149283129Y-117607000D01*
X148771129Y-117776000D01*
G37*
X148771129Y-117776000D02*
X148408129Y-117863000D01*
X148180129Y-117898000D01*
X148026129Y-117921000D01*
X147828529Y-117941150D01*
X147642129Y-117954000D01*
X147503529Y-117962400D01*
X147503529Y-117612400D01*
X149283129Y-117607000D01*
X148771129Y-117776000D01*
X148762529Y-108111400D02*
X148592529Y-108071400D01*
X148592529Y-108071400D02*
X148392529Y-108031400D01*
X148392529Y-108031400D02*
X148142529Y-107991400D01*
X148142529Y-107991400D02*
X147952529Y-107971400D01*
X147952529Y-107971400D02*
X147802529Y-107961400D01*
X147802529Y-107961400D02*
X147592529Y-107951400D01*
X147592529Y-107951400D02*
X147502529Y-107951400D01*
X147502529Y-107951400D02*
X148972529Y-108171400D01*
X148972529Y-108171400D02*
X148762529Y-108111400D01*
G36*
X147802529Y-107961400D02*
G01*
X147952529Y-107971400D01*
X148142529Y-107991400D01*
X148392529Y-108031400D01*
X148592529Y-108071400D01*
X148762529Y-108111400D01*
X148972529Y-108171400D01*
X147502529Y-107951400D01*
X147592529Y-107951400D01*
X147802529Y-107961400D01*
G37*
X147802529Y-107961400D02*
X147952529Y-107971400D01*
X148142529Y-107991400D01*
X148392529Y-108031400D01*
X148592529Y-108071400D01*
X148762529Y-108111400D01*
X148972529Y-108171400D01*
X147502529Y-107951400D01*
X147592529Y-107951400D01*
X147802529Y-107961400D01*
D10*
X28623129Y-109215000D02*
G75*
G02*
X28595129Y-116684000I-1113900J-3730377D01*
G01*
D11*
X28762529Y-108111400D02*
X28592529Y-108071400D01*
X28592529Y-108071400D02*
X28392529Y-108031400D01*
X28392529Y-108031400D02*
X28142529Y-107991400D01*
X28142529Y-107991400D02*
X27952529Y-107971400D01*
X27952529Y-107971400D02*
X27802529Y-107961400D01*
X27802529Y-107961400D02*
X27592529Y-107951400D01*
X27592529Y-107951400D02*
X27502529Y-107951400D01*
X27502529Y-107951400D02*
X28972529Y-108171400D01*
X28972529Y-108171400D02*
X28762529Y-108111400D01*
G36*
X27802529Y-107961400D02*
G01*
X27952529Y-107971400D01*
X28142529Y-107991400D01*
X28392529Y-108031400D01*
X28592529Y-108071400D01*
X28762529Y-108111400D01*
X28972529Y-108171400D01*
X27502529Y-107951400D01*
X27592529Y-107951400D01*
X27802529Y-107961400D01*
G37*
X27802529Y-107961400D02*
X27952529Y-107971400D01*
X28142529Y-107991400D01*
X28392529Y-108031400D01*
X28592529Y-108071400D01*
X28762529Y-108111400D01*
X28972529Y-108171400D01*
X27502529Y-107951400D01*
X27592529Y-107951400D01*
X27802529Y-107961400D01*
X28113529Y-112389400D02*
X27523529Y-112389400D01*
X27523529Y-112389400D02*
X27613529Y-112409400D01*
X27613529Y-112409400D02*
X27723529Y-112449400D01*
X27723529Y-112449400D02*
X27823529Y-112499400D01*
X27823529Y-112499400D02*
X27913529Y-112569400D01*
X27913529Y-112569400D02*
X27973529Y-112639400D01*
X27973529Y-112639400D02*
X28041029Y-112775650D01*
X28041029Y-112775650D02*
X28052279Y-112998775D01*
X28052279Y-112998775D02*
X28014779Y-113140025D01*
X28014779Y-113140025D02*
X27963529Y-113229400D01*
X27963529Y-113229400D02*
X27913529Y-113299400D01*
X27913529Y-113299400D02*
X27853529Y-113369400D01*
X27853529Y-113369400D02*
X27783529Y-113429400D01*
X27783529Y-113429400D02*
X27713529Y-113469400D01*
X27713529Y-113469400D02*
X27613529Y-113509400D01*
X27613529Y-113509400D02*
X28113529Y-113509400D01*
X28113529Y-113509400D02*
X28113529Y-112389400D01*
G36*
X28113529Y-113509400D02*
G01*
X27613529Y-113509400D01*
X27713529Y-113469400D01*
X27783529Y-113429400D01*
X27853529Y-113369400D01*
X27913529Y-113299400D01*
X27963529Y-113229400D01*
X28014779Y-113140025D01*
X28052279Y-112998775D01*
X28041029Y-112775650D01*
X27973529Y-112639400D01*
X27913529Y-112569400D01*
X27823529Y-112499400D01*
X27723529Y-112449400D01*
X27613529Y-112409400D01*
X27523529Y-112389400D01*
X28113529Y-112389400D01*
X28113529Y-113509400D01*
G37*
X28113529Y-113509400D02*
X27613529Y-113509400D01*
X27713529Y-113469400D01*
X27783529Y-113429400D01*
X27853529Y-113369400D01*
X27913529Y-113299400D01*
X27963529Y-113229400D01*
X28014779Y-113140025D01*
X28052279Y-112998775D01*
X28041029Y-112775650D01*
X27973529Y-112639400D01*
X27913529Y-112569400D01*
X27823529Y-112499400D01*
X27723529Y-112449400D01*
X27613529Y-112409400D01*
X27523529Y-112389400D01*
X28113529Y-112389400D01*
X28113529Y-113509400D01*
X28968072Y-108165867D02*
X27498072Y-107945867D01*
X27498072Y-107945867D02*
X27494850Y-112390125D01*
X27494850Y-112390125D02*
X28116129Y-112395000D01*
X28116129Y-112395000D02*
X28097129Y-113517000D01*
X28097129Y-113517000D02*
X30740129Y-113436000D01*
X30740129Y-113436000D02*
X28968072Y-108165867D01*
G36*
X28968072Y-108165867D02*
G01*
X30740129Y-113436000D01*
X28097129Y-113517000D01*
X28116129Y-112395000D01*
X27494850Y-112390125D01*
X27498072Y-107945867D01*
X28968072Y-108165867D01*
G37*
X28968072Y-108165867D02*
X30740129Y-113436000D01*
X28097129Y-113517000D01*
X28116129Y-112395000D01*
X27494850Y-112390125D01*
X27498072Y-107945867D01*
X28968072Y-108165867D01*
X27828529Y-117941150D02*
X28026129Y-117921000D01*
X28026129Y-117921000D02*
X28180129Y-117898000D01*
X28180129Y-117898000D02*
X28408129Y-117863000D01*
X28408129Y-117863000D02*
X28771129Y-117776000D01*
X28771129Y-117776000D02*
X29283129Y-117607000D01*
X29283129Y-117607000D02*
X27503529Y-117612400D01*
X27503529Y-117612400D02*
X27503529Y-117962400D01*
X27503529Y-117962400D02*
X27642129Y-117954000D01*
X27642129Y-117954000D02*
X27828529Y-117941150D01*
G36*
X28771129Y-117776000D02*
G01*
X28408129Y-117863000D01*
X28180129Y-117898000D01*
X28026129Y-117921000D01*
X27828529Y-117941150D01*
X27642129Y-117954000D01*
X27503529Y-117962400D01*
X27503529Y-117612400D01*
X29283129Y-117607000D01*
X28771129Y-117776000D01*
G37*
X28771129Y-117776000D02*
X28408129Y-117863000D01*
X28180129Y-117898000D01*
X28026129Y-117921000D01*
X27828529Y-117941150D01*
X27642129Y-117954000D01*
X27503529Y-117962400D01*
X27503529Y-117612400D01*
X29283129Y-117607000D01*
X28771129Y-117776000D01*
X30482129Y-113436000D02*
X27503529Y-113509400D01*
X27503529Y-113509400D02*
X27503129Y-117946000D01*
X27503129Y-117946000D02*
X28784129Y-117760000D01*
X28784129Y-117760000D02*
X30482129Y-113436000D01*
G36*
X28784129Y-117760000D02*
G01*
X27503129Y-117946000D01*
X27503529Y-113509400D01*
X30482129Y-113436000D01*
X28784129Y-117760000D01*
G37*
X28784129Y-117760000D02*
X27503129Y-117946000D01*
X27503529Y-113509400D01*
X30482129Y-113436000D01*
X28784129Y-117760000D01*
G04 #@! TD*
D12*
G04 #@! TO.C,H10*
X93000000Y-5000000D03*
D13*
X93000000Y-5000000D03*
G04 #@! TD*
D12*
G04 #@! TO.C,H12*
X170000000Y-113000000D03*
D13*
X170000000Y-113000000D03*
G04 #@! TD*
G04 #@! TO.C,H12*
X92855436Y-112957000D03*
D12*
X92855436Y-112957000D03*
G04 #@! TD*
G04 #@! TO.C,H4*
X174000000Y-208000000D03*
D13*
X174000000Y-208000000D03*
G04 #@! TD*
D12*
G04 #@! TO.C,H9*
X93000000Y-221000000D03*
D13*
X93000000Y-221000000D03*
G04 #@! TD*
D12*
G04 #@! TO.C,H2*
X174000000Y-18000000D03*
D13*
X174000000Y-18000000D03*
G04 #@! TD*
G04 #@! TO.C,H3*
X12000000Y-208000000D03*
D12*
X12000000Y-208000000D03*
G04 #@! TD*
D13*
G04 #@! TO.C,H1*
X12000000Y-18000000D03*
D12*
X12000000Y-18000000D03*
G04 #@! TD*
D13*
G04 #@! TO.C,H11*
X16000000Y-113000000D03*
D12*
X16000000Y-113000000D03*
G04 #@! TD*
M02*
