G04 #@! TF.GenerationSoftware,KiCad,Pcbnew,5.99.0-unknown-64afa3a42e~128~ubuntu20.04.1*
G04 #@! TF.CreationDate,2021-05-28T16:02:49-05:00*
G04 #@! TF.ProjectId,Feeds,46656564-732e-46b6-9963-61645f706362,rev?*
G04 #@! TF.SameCoordinates,Original*
G04 #@! TF.FileFunction,Copper,L2,Bot*
G04 #@! TF.FilePolarity,Positive*
%FSLAX46Y46*%
G04 Gerber Fmt 4.6, Leading zero omitted, Abs format (unit mm)*
G04 Created by KiCad (PCBNEW 5.99.0-unknown-64afa3a42e~128~ubuntu20.04.1) date 2021-05-28 16:02:49*
%MOMM*%
%LPD*%
G01*
G04 APERTURE LIST*
G04 Aperture macros list*
%AMFreePoly0*
4,1,13,0.997739,0.781656,0.997754,0.781621,0.997754,-0.782490,0.997739,-0.782525,0.997704,-0.782540,-1.001585,-0.782540,-1.001620,-0.782525,-1.001635,-0.782490,-1.001635,0.781620,-1.001620,0.781655,-1.001585,0.781670,0.997704,0.781671,0.997739,0.781656,0.997739,0.781656,$1*%
G04 Aperture macros list end*
G04 #@! TA.AperFunction,NonConductor*
%ADD10C,0.001000*%
G04 #@! TD*
G04 #@! TA.AperFunction,EtchedComponent*
%ADD11C,0.000100*%
G04 #@! TD*
G04 #@! TA.AperFunction,SMDPad,CuDef*
%ADD12R,1.109000X1.109000*%
G04 #@! TD*
G04 #@! TA.AperFunction,ConnectorPad*
%ADD13C,5.000000*%
G04 #@! TD*
G04 #@! TA.AperFunction,ComponentPad*
%ADD14C,2.900000*%
G04 #@! TD*
G04 #@! TA.AperFunction,SMDPad,CuDef*
%ADD15R,0.553000X0.553000*%
G04 #@! TD*
G04 #@! TA.AperFunction,WasherPad*
%ADD16C,1.565000*%
G04 #@! TD*
G04 #@! TA.AperFunction,SMDPad,CuDef*
%ADD17FreePoly0,0.000000*%
G04 #@! TD*
G04 #@! TA.AperFunction,SMDPad,CuDef*
%ADD18R,0.620000X0.560000*%
G04 #@! TD*
G04 #@! TA.AperFunction,SMDPad,CuDef*
%ADD19R,0.560000X0.620000*%
G04 #@! TD*
G04 #@! TA.AperFunction,ViaPad*
%ADD20C,0.800100*%
G04 #@! TD*
G04 #@! TA.AperFunction,Conductor*
%ADD21C,0.620000*%
G04 #@! TD*
G04 #@! TA.AperFunction,Conductor*
%ADD22C,1.109000*%
G04 #@! TD*
G04 APERTURE END LIST*
D10*
X25571013Y-144239500D02*
X26679013Y-144239500D01*
X26679013Y-144239500D02*
X26679013Y-144804500D01*
X26679013Y-144804500D02*
X25571013Y-144804500D01*
X25571013Y-144804500D02*
X25571013Y-144239500D01*
G36*
X25571013Y-144239500D02*
G01*
X26679013Y-144239500D01*
X26679013Y-144804500D01*
X25571013Y-144804500D01*
X25571013Y-144239500D01*
G37*
X105299013Y-72445500D02*
X106403013Y-72445500D01*
X106403013Y-72445500D02*
X106403013Y-73551500D01*
X106403013Y-73551500D02*
X105299013Y-73551500D01*
X105299013Y-73551500D02*
X105299013Y-72445500D01*
G36*
X105299013Y-72445500D02*
G01*
X106403013Y-72445500D01*
X106403013Y-73551500D01*
X105299013Y-73551500D01*
X105299013Y-72445500D01*
G37*
X105575013Y-64238500D02*
X106683013Y-64238500D01*
X106683013Y-64238500D02*
X106683013Y-64803500D01*
X106683013Y-64803500D02*
X105575013Y-64803500D01*
X105575013Y-64803500D02*
X105575013Y-64238500D01*
G36*
X105575013Y-64238500D02*
G01*
X106683013Y-64238500D01*
X106683013Y-64803500D01*
X105575013Y-64803500D01*
X105575013Y-64238500D01*
G37*
X65315129Y-113560000D02*
X66498129Y-113560000D01*
X66498129Y-113560000D02*
X66498129Y-112442000D01*
X66498129Y-112442000D02*
X65315129Y-112442000D01*
X65315129Y-112442000D02*
X65315129Y-113560000D01*
G36*
X65315129Y-113560000D02*
G01*
X66498129Y-113560000D01*
X66498129Y-112442000D01*
X65315129Y-112442000D01*
X65315129Y-113560000D01*
G37*
X105315129Y-113560000D02*
X106498129Y-113560000D01*
X106498129Y-113560000D02*
X106498129Y-112442000D01*
X106498129Y-112442000D02*
X105315129Y-112442000D01*
X105315129Y-112442000D02*
X105315129Y-113560000D01*
G36*
X105315129Y-113560000D02*
G01*
X106498129Y-113560000D01*
X106498129Y-112442000D01*
X105315129Y-112442000D01*
X105315129Y-113560000D01*
G37*
X25571013Y-81192500D02*
X26679013Y-81192500D01*
X26679013Y-81192500D02*
X26679013Y-81757500D01*
X26679013Y-81757500D02*
X25571013Y-81757500D01*
X25571013Y-81757500D02*
X25571013Y-81192500D01*
G36*
X25571013Y-81192500D02*
G01*
X26679013Y-81192500D01*
X26679013Y-81757500D01*
X25571013Y-81757500D01*
X25571013Y-81192500D01*
G37*
X140555129Y-121200500D02*
X141663129Y-121200500D01*
X141663129Y-121200500D02*
X141663129Y-121765500D01*
X141663129Y-121765500D02*
X140555129Y-121765500D01*
X140555129Y-121765500D02*
X140555129Y-121200500D01*
G36*
X140555129Y-121200500D02*
G01*
X141663129Y-121200500D01*
X141663129Y-121765500D01*
X140555129Y-121765500D01*
X140555129Y-121200500D01*
G37*
X20555129Y-121200500D02*
X21663129Y-121200500D01*
X21663129Y-121200500D02*
X21663129Y-121765500D01*
X21663129Y-121765500D02*
X20555129Y-121765500D01*
X20555129Y-121765500D02*
X20555129Y-121200500D01*
G36*
X20555129Y-121200500D02*
G01*
X21663129Y-121200500D01*
X21663129Y-121765500D01*
X20555129Y-121765500D01*
X20555129Y-121200500D01*
G37*
X100560129Y-104234000D02*
X101668129Y-104234000D01*
X101668129Y-104234000D02*
X101668129Y-104799000D01*
X101668129Y-104799000D02*
X100560129Y-104799000D01*
X100560129Y-104799000D02*
X100560129Y-104234000D01*
G36*
X100560129Y-104234000D02*
G01*
X101668129Y-104234000D01*
X101668129Y-104799000D01*
X100560129Y-104799000D01*
X100560129Y-104234000D01*
G37*
X25299013Y-72445500D02*
X26403013Y-72445500D01*
X26403013Y-72445500D02*
X26403013Y-73551500D01*
X26403013Y-73551500D02*
X25299013Y-73551500D01*
X25299013Y-73551500D02*
X25299013Y-72445500D01*
G36*
X25299013Y-72445500D02*
G01*
X26403013Y-72445500D01*
X26403013Y-73551500D01*
X25299013Y-73551500D01*
X25299013Y-72445500D01*
G37*
X60831129Y-113559000D02*
X63795129Y-113559000D01*
X63795129Y-113559000D02*
X63795129Y-112441000D01*
X63795129Y-112441000D02*
X60831129Y-112441000D01*
X60831129Y-112441000D02*
X60831129Y-113559000D01*
G36*
X60831129Y-113559000D02*
G01*
X63795129Y-113559000D01*
X63795129Y-112441000D01*
X60831129Y-112441000D01*
X60831129Y-113559000D01*
G37*
X105571013Y-144239500D02*
X106679013Y-144239500D01*
X106679013Y-144239500D02*
X106679013Y-144804500D01*
X106679013Y-144804500D02*
X105571013Y-144804500D01*
X105571013Y-144804500D02*
X105571013Y-144239500D01*
G36*
X105571013Y-144239500D02*
G01*
X106679013Y-144239500D01*
X106679013Y-144804500D01*
X105571013Y-144804500D01*
X105571013Y-144239500D01*
G37*
X65299013Y-72445500D02*
X66403013Y-72445500D01*
X66403013Y-72445500D02*
X66403013Y-73551500D01*
X66403013Y-73551500D02*
X65299013Y-73551500D01*
X65299013Y-73551500D02*
X65299013Y-72445500D01*
G36*
X65299013Y-72445500D02*
G01*
X66403013Y-72445500D01*
X66403013Y-73551500D01*
X65299013Y-73551500D01*
X65299013Y-72445500D01*
G37*
X100555129Y-121200500D02*
X101663129Y-121200500D01*
X101663129Y-121200500D02*
X101663129Y-121765500D01*
X101663129Y-121765500D02*
X100555129Y-121765500D01*
X100555129Y-121765500D02*
X100555129Y-121200500D01*
G36*
X100555129Y-121200500D02*
G01*
X101663129Y-121200500D01*
X101663129Y-121765500D01*
X100555129Y-121765500D01*
X100555129Y-121200500D01*
G37*
X25836013Y-153551500D02*
X26401013Y-153551500D01*
X26401013Y-153551500D02*
X26401013Y-152443500D01*
X26401013Y-152443500D02*
X25836013Y-152443500D01*
X25836013Y-152443500D02*
X25836013Y-153551500D01*
G36*
X25836013Y-153551500D02*
G01*
X26401013Y-153551500D01*
X26401013Y-152443500D01*
X25836013Y-152443500D01*
X25836013Y-153551500D01*
G37*
X105567013Y-161193500D02*
X106675013Y-161193500D01*
X106675013Y-161193500D02*
X106675013Y-161758500D01*
X106675013Y-161758500D02*
X105567013Y-161758500D01*
X105567013Y-161758500D02*
X105567013Y-161193500D01*
G36*
X105567013Y-161193500D02*
G01*
X106675013Y-161193500D01*
X106675013Y-161758500D01*
X105567013Y-161758500D01*
X105567013Y-161193500D01*
G37*
X25567013Y-161193500D02*
X26675013Y-161193500D01*
X26675013Y-161193500D02*
X26675013Y-161758500D01*
X26675013Y-161758500D02*
X25567013Y-161758500D01*
X25567013Y-161758500D02*
X25567013Y-161193500D01*
G36*
X25567013Y-161193500D02*
G01*
X26675013Y-161193500D01*
X26675013Y-161758500D01*
X25567013Y-161758500D01*
X25567013Y-161193500D01*
G37*
X145571013Y-81192500D02*
X146679013Y-81192500D01*
X146679013Y-81192500D02*
X146679013Y-81757500D01*
X146679013Y-81757500D02*
X145571013Y-81757500D01*
X145571013Y-81757500D02*
X145571013Y-81192500D01*
G36*
X145571013Y-81192500D02*
G01*
X146679013Y-81192500D01*
X146679013Y-81757500D01*
X145571013Y-81757500D01*
X145571013Y-81192500D01*
G37*
X25575013Y-64238500D02*
X26683013Y-64238500D01*
X26683013Y-64238500D02*
X26683013Y-64803500D01*
X26683013Y-64803500D02*
X25575013Y-64803500D01*
X25575013Y-64803500D02*
X25575013Y-64238500D01*
G36*
X25575013Y-64238500D02*
G01*
X26683013Y-64238500D01*
X26683013Y-64803500D01*
X25575013Y-64803500D01*
X25575013Y-64238500D01*
G37*
X20831129Y-113559000D02*
X23795129Y-113559000D01*
X23795129Y-113559000D02*
X23795129Y-112441000D01*
X23795129Y-112441000D02*
X20831129Y-112441000D01*
X20831129Y-112441000D02*
X20831129Y-113559000D01*
G36*
X20831129Y-113559000D02*
G01*
X23795129Y-113559000D01*
X23795129Y-112441000D01*
X20831129Y-112441000D01*
X20831129Y-113559000D01*
G37*
X105836013Y-153551500D02*
X106401013Y-153551500D01*
X106401013Y-153551500D02*
X106401013Y-152443500D01*
X106401013Y-152443500D02*
X105836013Y-152443500D01*
X105836013Y-152443500D02*
X105836013Y-153551500D01*
G36*
X105836013Y-153551500D02*
G01*
X106401013Y-153551500D01*
X106401013Y-152443500D01*
X105836013Y-152443500D01*
X105836013Y-153551500D01*
G37*
X145571013Y-144239500D02*
X146679013Y-144239500D01*
X146679013Y-144239500D02*
X146679013Y-144804500D01*
X146679013Y-144804500D02*
X145571013Y-144804500D01*
X145571013Y-144804500D02*
X145571013Y-144239500D01*
G36*
X145571013Y-144239500D02*
G01*
X146679013Y-144239500D01*
X146679013Y-144804500D01*
X145571013Y-144804500D01*
X145571013Y-144239500D01*
G37*
X65571013Y-144239500D02*
X66679013Y-144239500D01*
X66679013Y-144239500D02*
X66679013Y-144804500D01*
X66679013Y-144804500D02*
X65571013Y-144804500D01*
X65571013Y-144804500D02*
X65571013Y-144239500D01*
G36*
X65571013Y-144239500D02*
G01*
X66679013Y-144239500D01*
X66679013Y-144804500D01*
X65571013Y-144804500D01*
X65571013Y-144239500D01*
G37*
X145567013Y-161193500D02*
X146675013Y-161193500D01*
X146675013Y-161193500D02*
X146675013Y-161758500D01*
X146675013Y-161758500D02*
X145567013Y-161758500D01*
X145567013Y-161758500D02*
X145567013Y-161193500D01*
G36*
X145567013Y-161193500D02*
G01*
X146675013Y-161193500D01*
X146675013Y-161758500D01*
X145567013Y-161758500D01*
X145567013Y-161193500D01*
G37*
X65575013Y-64238500D02*
X66683013Y-64238500D01*
X66683013Y-64238500D02*
X66683013Y-64803500D01*
X66683013Y-64803500D02*
X65575013Y-64803500D01*
X65575013Y-64803500D02*
X65575013Y-64238500D01*
G36*
X65575013Y-64238500D02*
G01*
X66683013Y-64238500D01*
X66683013Y-64803500D01*
X65575013Y-64803500D01*
X65575013Y-64238500D01*
G37*
X65836013Y-153551500D02*
X66401013Y-153551500D01*
X66401013Y-153551500D02*
X66401013Y-152443500D01*
X66401013Y-152443500D02*
X65836013Y-152443500D01*
X65836013Y-152443500D02*
X65836013Y-153551500D01*
G36*
X65836013Y-153551500D02*
G01*
X66401013Y-153551500D01*
X66401013Y-152443500D01*
X65836013Y-152443500D01*
X65836013Y-153551500D01*
G37*
X65567013Y-161193500D02*
X66675013Y-161193500D01*
X66675013Y-161193500D02*
X66675013Y-161758500D01*
X66675013Y-161758500D02*
X65567013Y-161758500D01*
X65567013Y-161758500D02*
X65567013Y-161193500D01*
G36*
X65567013Y-161193500D02*
G01*
X66675013Y-161193500D01*
X66675013Y-161758500D01*
X65567013Y-161758500D01*
X65567013Y-161193500D01*
G37*
X65571013Y-81192500D02*
X66679013Y-81192500D01*
X66679013Y-81192500D02*
X66679013Y-81757500D01*
X66679013Y-81757500D02*
X65571013Y-81757500D01*
X65571013Y-81757500D02*
X65571013Y-81192500D01*
G36*
X65571013Y-81192500D02*
G01*
X66679013Y-81192500D01*
X66679013Y-81757500D01*
X65571013Y-81757500D01*
X65571013Y-81192500D01*
G37*
X105571013Y-81192500D02*
X106679013Y-81192500D01*
X106679013Y-81192500D02*
X106679013Y-81757500D01*
X106679013Y-81757500D02*
X105571013Y-81757500D01*
X105571013Y-81757500D02*
X105571013Y-81192500D01*
G36*
X105571013Y-81192500D02*
G01*
X106679013Y-81192500D01*
X106679013Y-81757500D01*
X105571013Y-81757500D01*
X105571013Y-81192500D01*
G37*
X145315129Y-113560000D02*
X146498129Y-113560000D01*
X146498129Y-113560000D02*
X146498129Y-112442000D01*
X146498129Y-112442000D02*
X145315129Y-112442000D01*
X145315129Y-112442000D02*
X145315129Y-113560000D01*
G36*
X145315129Y-113560000D02*
G01*
X146498129Y-113560000D01*
X146498129Y-112442000D01*
X145315129Y-112442000D01*
X145315129Y-113560000D01*
G37*
X60555129Y-121200500D02*
X61663129Y-121200500D01*
X61663129Y-121200500D02*
X61663129Y-121765500D01*
X61663129Y-121765500D02*
X60555129Y-121765500D01*
X60555129Y-121765500D02*
X60555129Y-121200500D01*
G36*
X60555129Y-121200500D02*
G01*
X61663129Y-121200500D01*
X61663129Y-121765500D01*
X60555129Y-121765500D01*
X60555129Y-121200500D01*
G37*
X25315129Y-113560000D02*
X26498129Y-113560000D01*
X26498129Y-113560000D02*
X26498129Y-112442000D01*
X26498129Y-112442000D02*
X25315129Y-112442000D01*
X25315129Y-112442000D02*
X25315129Y-113560000D01*
G36*
X25315129Y-113560000D02*
G01*
X26498129Y-113560000D01*
X26498129Y-112442000D01*
X25315129Y-112442000D01*
X25315129Y-113560000D01*
G37*
X140560129Y-104234000D02*
X141668129Y-104234000D01*
X141668129Y-104234000D02*
X141668129Y-104799000D01*
X141668129Y-104799000D02*
X140560129Y-104799000D01*
X140560129Y-104799000D02*
X140560129Y-104234000D01*
G36*
X140560129Y-104234000D02*
G01*
X141668129Y-104234000D01*
X141668129Y-104799000D01*
X140560129Y-104799000D01*
X140560129Y-104234000D01*
G37*
X145575013Y-64238500D02*
X146683013Y-64238500D01*
X146683013Y-64238500D02*
X146683013Y-64803500D01*
X146683013Y-64803500D02*
X145575013Y-64803500D01*
X145575013Y-64803500D02*
X145575013Y-64238500D01*
G36*
X145575013Y-64238500D02*
G01*
X146683013Y-64238500D01*
X146683013Y-64803500D01*
X145575013Y-64803500D01*
X145575013Y-64238500D01*
G37*
X145836013Y-153551500D02*
X146401013Y-153551500D01*
X146401013Y-153551500D02*
X146401013Y-152443500D01*
X146401013Y-152443500D02*
X145836013Y-152443500D01*
X145836013Y-152443500D02*
X145836013Y-153551500D01*
G36*
X145836013Y-153551500D02*
G01*
X146401013Y-153551500D01*
X146401013Y-152443500D01*
X145836013Y-152443500D01*
X145836013Y-153551500D01*
G37*
X60560129Y-104234000D02*
X61668129Y-104234000D01*
X61668129Y-104234000D02*
X61668129Y-104799000D01*
X61668129Y-104799000D02*
X60560129Y-104799000D01*
X60560129Y-104799000D02*
X60560129Y-104234000D01*
G36*
X60560129Y-104234000D02*
G01*
X61668129Y-104234000D01*
X61668129Y-104799000D01*
X60560129Y-104799000D01*
X60560129Y-104234000D01*
G37*
X100831129Y-113559000D02*
X103795129Y-113559000D01*
X103795129Y-113559000D02*
X103795129Y-112441000D01*
X103795129Y-112441000D02*
X100831129Y-112441000D01*
X100831129Y-112441000D02*
X100831129Y-113559000D01*
G36*
X100831129Y-113559000D02*
G01*
X103795129Y-113559000D01*
X103795129Y-112441000D01*
X100831129Y-112441000D01*
X100831129Y-113559000D01*
G37*
X140831129Y-113559000D02*
X143795129Y-113559000D01*
X143795129Y-113559000D02*
X143795129Y-112441000D01*
X143795129Y-112441000D02*
X140831129Y-112441000D01*
X140831129Y-112441000D02*
X140831129Y-113559000D01*
G36*
X140831129Y-113559000D02*
G01*
X143795129Y-113559000D01*
X143795129Y-112441000D01*
X140831129Y-112441000D01*
X140831129Y-113559000D01*
G37*
X20560129Y-104234000D02*
X21668129Y-104234000D01*
X21668129Y-104234000D02*
X21668129Y-104799000D01*
X21668129Y-104799000D02*
X20560129Y-104799000D01*
X20560129Y-104799000D02*
X20560129Y-104234000D01*
G36*
X20560129Y-104234000D02*
G01*
X21668129Y-104234000D01*
X21668129Y-104799000D01*
X20560129Y-104799000D01*
X20560129Y-104234000D01*
G37*
X145299013Y-72445500D02*
X146403013Y-72445500D01*
X146403013Y-72445500D02*
X146403013Y-73551500D01*
X146403013Y-73551500D02*
X145299013Y-73551500D01*
X145299013Y-73551500D02*
X145299013Y-72445500D01*
G36*
X145299013Y-72445500D02*
G01*
X146403013Y-72445500D01*
X146403013Y-73551500D01*
X145299013Y-73551500D01*
X145299013Y-72445500D01*
G37*
D11*
G04 #@! TO.C,AE5*
X147310000Y-52445500D02*
X164178000Y-52445500D01*
X164178000Y-52445500D02*
X164178000Y-53554500D01*
X164178000Y-53554500D02*
X147310000Y-53554500D01*
X147310000Y-53554500D02*
X147310000Y-52445500D01*
G36*
X147310000Y-52445500D02*
G01*
X164178000Y-52445500D01*
X164178000Y-53554500D01*
X147310000Y-53554500D01*
X147310000Y-52445500D01*
G37*
X67310000Y-52445500D02*
X84178000Y-52445500D01*
X84178000Y-52445500D02*
X84178000Y-53554500D01*
X84178000Y-53554500D02*
X67310000Y-53554500D01*
X67310000Y-53554500D02*
X67310000Y-52445500D01*
G36*
X67310000Y-52445500D02*
G01*
X84178000Y-52445500D01*
X84178000Y-53554500D01*
X67310000Y-53554500D01*
X67310000Y-52445500D01*
G37*
X107310000Y-92445500D02*
X124178000Y-92445500D01*
X124178000Y-92445500D02*
X124178000Y-93554500D01*
X124178000Y-93554500D02*
X107310000Y-93554500D01*
X107310000Y-93554500D02*
X107310000Y-92445500D01*
G36*
X107310000Y-92445500D02*
G01*
X124178000Y-92445500D01*
X124178000Y-93554500D01*
X107310000Y-93554500D01*
X107310000Y-92445500D01*
G37*
X67310000Y-172445500D02*
X84178000Y-172445500D01*
X84178000Y-172445500D02*
X84178000Y-173554500D01*
X84178000Y-173554500D02*
X67310000Y-173554500D01*
X67310000Y-173554500D02*
X67310000Y-172445500D01*
G36*
X67310000Y-172445500D02*
G01*
X84178000Y-172445500D01*
X84178000Y-173554500D01*
X67310000Y-173554500D01*
X67310000Y-172445500D01*
G37*
X147310000Y-92445500D02*
X164178000Y-92445500D01*
X164178000Y-92445500D02*
X164178000Y-93554500D01*
X164178000Y-93554500D02*
X147310000Y-93554500D01*
X147310000Y-93554500D02*
X147310000Y-92445500D01*
G36*
X147310000Y-92445500D02*
G01*
X164178000Y-92445500D01*
X164178000Y-93554500D01*
X147310000Y-93554500D01*
X147310000Y-92445500D01*
G37*
X107310000Y-52445500D02*
X124178000Y-52445500D01*
X124178000Y-52445500D02*
X124178000Y-53554500D01*
X124178000Y-53554500D02*
X107310000Y-53554500D01*
X107310000Y-53554500D02*
X107310000Y-52445500D01*
G36*
X107310000Y-52445500D02*
G01*
X124178000Y-52445500D01*
X124178000Y-53554500D01*
X107310000Y-53554500D01*
X107310000Y-52445500D01*
G37*
X27310000Y-92445500D02*
X44178000Y-92445500D01*
X44178000Y-92445500D02*
X44178000Y-93554500D01*
X44178000Y-93554500D02*
X27310000Y-93554500D01*
X27310000Y-93554500D02*
X27310000Y-92445500D01*
G36*
X27310000Y-92445500D02*
G01*
X44178000Y-92445500D01*
X44178000Y-93554500D01*
X27310000Y-93554500D01*
X27310000Y-92445500D01*
G37*
X147310000Y-172445500D02*
X164178000Y-172445500D01*
X164178000Y-172445500D02*
X164178000Y-173554500D01*
X164178000Y-173554500D02*
X147310000Y-173554500D01*
X147310000Y-173554500D02*
X147310000Y-172445500D01*
G36*
X147310000Y-172445500D02*
G01*
X164178000Y-172445500D01*
X164178000Y-173554500D01*
X147310000Y-173554500D01*
X147310000Y-172445500D01*
G37*
X27310000Y-52445500D02*
X44178000Y-52445500D01*
X44178000Y-52445500D02*
X44178000Y-53554500D01*
X44178000Y-53554500D02*
X27310000Y-53554500D01*
X27310000Y-53554500D02*
X27310000Y-52445500D01*
G36*
X27310000Y-52445500D02*
G01*
X44178000Y-52445500D01*
X44178000Y-53554500D01*
X27310000Y-53554500D01*
X27310000Y-52445500D01*
G37*
X67310000Y-92445500D02*
X84178000Y-92445500D01*
X84178000Y-92445500D02*
X84178000Y-93554500D01*
X84178000Y-93554500D02*
X67310000Y-93554500D01*
X67310000Y-93554500D02*
X67310000Y-92445500D01*
G36*
X67310000Y-92445500D02*
G01*
X84178000Y-92445500D01*
X84178000Y-93554500D01*
X67310000Y-93554500D01*
X67310000Y-92445500D01*
G37*
X107310000Y-132445500D02*
X124178000Y-132445500D01*
X124178000Y-132445500D02*
X124178000Y-133554500D01*
X124178000Y-133554500D02*
X107310000Y-133554500D01*
X107310000Y-133554500D02*
X107310000Y-132445500D01*
G36*
X107310000Y-132445500D02*
G01*
X124178000Y-132445500D01*
X124178000Y-133554500D01*
X107310000Y-133554500D01*
X107310000Y-132445500D01*
G37*
X107310000Y-172445500D02*
X124178000Y-172445500D01*
X124178000Y-172445500D02*
X124178000Y-173554500D01*
X124178000Y-173554500D02*
X107310000Y-173554500D01*
X107310000Y-173554500D02*
X107310000Y-172445500D01*
G36*
X107310000Y-172445500D02*
G01*
X124178000Y-172445500D01*
X124178000Y-173554500D01*
X107310000Y-173554500D01*
X107310000Y-172445500D01*
G37*
X27310000Y-172445500D02*
X44178000Y-172445500D01*
X44178000Y-172445500D02*
X44178000Y-173554500D01*
X44178000Y-173554500D02*
X27310000Y-173554500D01*
X27310000Y-173554500D02*
X27310000Y-172445500D01*
G36*
X27310000Y-172445500D02*
G01*
X44178000Y-172445500D01*
X44178000Y-173554500D01*
X27310000Y-173554500D01*
X27310000Y-172445500D01*
G37*
X27310000Y-132445500D02*
X44178000Y-132445500D01*
X44178000Y-132445500D02*
X44178000Y-133554500D01*
X44178000Y-133554500D02*
X27310000Y-133554500D01*
X27310000Y-133554500D02*
X27310000Y-132445500D01*
G36*
X27310000Y-132445500D02*
G01*
X44178000Y-132445500D01*
X44178000Y-133554500D01*
X27310000Y-133554500D01*
X27310000Y-132445500D01*
G37*
X67310000Y-132445500D02*
X84178000Y-132445500D01*
X84178000Y-132445500D02*
X84178000Y-133554500D01*
X84178000Y-133554500D02*
X67310000Y-133554500D01*
X67310000Y-133554500D02*
X67310000Y-132445500D01*
G36*
X67310000Y-132445500D02*
G01*
X84178000Y-132445500D01*
X84178000Y-133554500D01*
X67310000Y-133554500D01*
X67310000Y-132445500D01*
G37*
X147310000Y-132445500D02*
X164178000Y-132445500D01*
X164178000Y-132445500D02*
X164178000Y-133554500D01*
X164178000Y-133554500D02*
X147310000Y-133554500D01*
X147310000Y-133554500D02*
X147310000Y-132445500D01*
G36*
X147310000Y-132445500D02*
G01*
X164178000Y-132445500D01*
X164178000Y-133554500D01*
X147310000Y-133554500D01*
X147310000Y-132445500D01*
G37*
G04 #@! TO.C,REF\u002A\u002A*
X146401629Y-144805000D02*
X145847629Y-144805000D01*
X145847629Y-144805000D02*
X145847629Y-152446000D01*
X145847629Y-152446000D02*
X146401629Y-152446000D01*
X146401629Y-152446000D02*
X146401629Y-144805000D01*
G36*
X146401629Y-152446000D02*
G01*
X145847629Y-152446000D01*
X145847629Y-144805000D01*
X146401629Y-144805000D01*
X146401629Y-152446000D01*
G37*
X146401629Y-152446000D02*
X145847629Y-152446000D01*
X145847629Y-144805000D01*
X146401629Y-144805000D01*
X146401629Y-152446000D01*
X145845629Y-161193500D02*
X146399629Y-161193500D01*
X146399629Y-161193500D02*
X146399629Y-153552500D01*
X146399629Y-153552500D02*
X145845629Y-153552500D01*
X145845629Y-153552500D02*
X145845629Y-161193500D01*
G36*
X146399629Y-161193500D02*
G01*
X145845629Y-161193500D01*
X145845629Y-153552500D01*
X146399629Y-153552500D01*
X146399629Y-161193500D01*
G37*
X146399629Y-161193500D02*
X145845629Y-161193500D01*
X145845629Y-153552500D01*
X146399629Y-153552500D01*
X146399629Y-161193500D01*
X146406129Y-64804000D02*
X145852129Y-64804000D01*
X145852129Y-64804000D02*
X145852129Y-72445000D01*
X145852129Y-72445000D02*
X146406129Y-72445000D01*
X146406129Y-72445000D02*
X146406129Y-64804000D01*
G36*
X146406129Y-72445000D02*
G01*
X145852129Y-72445000D01*
X145852129Y-64804000D01*
X146406129Y-64804000D01*
X146406129Y-72445000D01*
G37*
X146406129Y-72445000D02*
X145852129Y-72445000D01*
X145852129Y-64804000D01*
X146406129Y-64804000D01*
X146406129Y-72445000D01*
X25850013Y-81192500D02*
X26404013Y-81192500D01*
X26404013Y-81192500D02*
X26404013Y-73551500D01*
X26404013Y-73551500D02*
X25850013Y-73551500D01*
X25850013Y-73551500D02*
X25850013Y-81192500D01*
G36*
X26404013Y-81192500D02*
G01*
X25850013Y-81192500D01*
X25850013Y-73551500D01*
X26404013Y-73551500D01*
X26404013Y-81192500D01*
G37*
X26404013Y-81192500D02*
X25850013Y-81192500D01*
X25850013Y-73551500D01*
X26404013Y-73551500D01*
X26404013Y-81192500D01*
X26406129Y-64804000D02*
X25852129Y-64804000D01*
X25852129Y-64804000D02*
X25852129Y-72445000D01*
X25852129Y-72445000D02*
X26406129Y-72445000D01*
X26406129Y-72445000D02*
X26406129Y-64804000D01*
G36*
X26406129Y-72445000D02*
G01*
X25852129Y-72445000D01*
X25852129Y-64804000D01*
X26406129Y-64804000D01*
X26406129Y-72445000D01*
G37*
X26406129Y-72445000D02*
X25852129Y-72445000D01*
X25852129Y-64804000D01*
X26406129Y-64804000D01*
X26406129Y-72445000D01*
X20831129Y-121200000D02*
X21385129Y-121200000D01*
X21385129Y-121200000D02*
X21385129Y-113559000D01*
X21385129Y-113559000D02*
X20831129Y-113559000D01*
X20831129Y-113559000D02*
X20831129Y-121200000D01*
G36*
X21385129Y-121200000D02*
G01*
X20831129Y-121200000D01*
X20831129Y-113559000D01*
X21385129Y-113559000D01*
X21385129Y-121200000D01*
G37*
X21385129Y-121200000D02*
X20831129Y-121200000D01*
X20831129Y-113559000D01*
X21385129Y-113559000D01*
X21385129Y-121200000D01*
X25845629Y-161193500D02*
X26399629Y-161193500D01*
X26399629Y-161193500D02*
X26399629Y-153552500D01*
X26399629Y-153552500D02*
X25845629Y-153552500D01*
X25845629Y-153552500D02*
X25845629Y-161193500D01*
G36*
X26399629Y-161193500D02*
G01*
X25845629Y-161193500D01*
X25845629Y-153552500D01*
X26399629Y-153552500D01*
X26399629Y-161193500D01*
G37*
X26399629Y-161193500D02*
X25845629Y-161193500D01*
X25845629Y-153552500D01*
X26399629Y-153552500D01*
X26399629Y-161193500D01*
X60831129Y-121200000D02*
X61385129Y-121200000D01*
X61385129Y-121200000D02*
X61385129Y-113559000D01*
X61385129Y-113559000D02*
X60831129Y-113559000D01*
X60831129Y-113559000D02*
X60831129Y-121200000D01*
G36*
X61385129Y-121200000D02*
G01*
X60831129Y-121200000D01*
X60831129Y-113559000D01*
X61385129Y-113559000D01*
X61385129Y-121200000D01*
G37*
X61385129Y-121200000D02*
X60831129Y-121200000D01*
X60831129Y-113559000D01*
X61385129Y-113559000D01*
X61385129Y-121200000D01*
X65850013Y-81192500D02*
X66404013Y-81192500D01*
X66404013Y-81192500D02*
X66404013Y-73551500D01*
X66404013Y-73551500D02*
X65850013Y-73551500D01*
X65850013Y-73551500D02*
X65850013Y-81192500D01*
G36*
X66404013Y-81192500D02*
G01*
X65850013Y-81192500D01*
X65850013Y-73551500D01*
X66404013Y-73551500D01*
X66404013Y-81192500D01*
G37*
X66404013Y-81192500D02*
X65850013Y-81192500D01*
X65850013Y-73551500D01*
X66404013Y-73551500D01*
X66404013Y-81192500D01*
X101386129Y-104799000D02*
X100832129Y-104799000D01*
X100832129Y-104799000D02*
X100832129Y-112440000D01*
X100832129Y-112440000D02*
X101386129Y-112440000D01*
X101386129Y-112440000D02*
X101386129Y-104799000D01*
G36*
X101386129Y-112440000D02*
G01*
X100832129Y-112440000D01*
X100832129Y-104799000D01*
X101386129Y-104799000D01*
X101386129Y-112440000D01*
G37*
X101386129Y-112440000D02*
X100832129Y-112440000D01*
X100832129Y-104799000D01*
X101386129Y-104799000D01*
X101386129Y-112440000D01*
X100831129Y-121200000D02*
X101385129Y-121200000D01*
X101385129Y-121200000D02*
X101385129Y-113559000D01*
X101385129Y-113559000D02*
X100831129Y-113559000D01*
X100831129Y-113559000D02*
X100831129Y-121200000D01*
G36*
X101385129Y-121200000D02*
G01*
X100831129Y-121200000D01*
X100831129Y-113559000D01*
X101385129Y-113559000D01*
X101385129Y-121200000D01*
G37*
X101385129Y-121200000D02*
X100831129Y-121200000D01*
X100831129Y-113559000D01*
X101385129Y-113559000D01*
X101385129Y-121200000D01*
X66401629Y-144805000D02*
X65847629Y-144805000D01*
X65847629Y-144805000D02*
X65847629Y-152446000D01*
X65847629Y-152446000D02*
X66401629Y-152446000D01*
X66401629Y-152446000D02*
X66401629Y-144805000D01*
G36*
X66401629Y-152446000D02*
G01*
X65847629Y-152446000D01*
X65847629Y-144805000D01*
X66401629Y-144805000D01*
X66401629Y-152446000D01*
G37*
X66401629Y-152446000D02*
X65847629Y-152446000D01*
X65847629Y-144805000D01*
X66401629Y-144805000D01*
X66401629Y-152446000D01*
X105845629Y-161193500D02*
X106399629Y-161193500D01*
X106399629Y-161193500D02*
X106399629Y-153552500D01*
X106399629Y-153552500D02*
X105845629Y-153552500D01*
X105845629Y-153552500D02*
X105845629Y-161193500D01*
G36*
X106399629Y-161193500D02*
G01*
X105845629Y-161193500D01*
X105845629Y-153552500D01*
X106399629Y-153552500D01*
X106399629Y-161193500D01*
G37*
X106399629Y-161193500D02*
X105845629Y-161193500D01*
X105845629Y-153552500D01*
X106399629Y-153552500D01*
X106399629Y-161193500D01*
X141386129Y-104799000D02*
X140832129Y-104799000D01*
X140832129Y-104799000D02*
X140832129Y-112440000D01*
X140832129Y-112440000D02*
X141386129Y-112440000D01*
X141386129Y-112440000D02*
X141386129Y-104799000D01*
G36*
X141386129Y-112440000D02*
G01*
X140832129Y-112440000D01*
X140832129Y-104799000D01*
X141386129Y-104799000D01*
X141386129Y-112440000D01*
G37*
X141386129Y-112440000D02*
X140832129Y-112440000D01*
X140832129Y-104799000D01*
X141386129Y-104799000D01*
X141386129Y-112440000D01*
X105850013Y-81192500D02*
X106404013Y-81192500D01*
X106404013Y-81192500D02*
X106404013Y-73551500D01*
X106404013Y-73551500D02*
X105850013Y-73551500D01*
X105850013Y-73551500D02*
X105850013Y-81192500D01*
G36*
X106404013Y-81192500D02*
G01*
X105850013Y-81192500D01*
X105850013Y-73551500D01*
X106404013Y-73551500D01*
X106404013Y-81192500D01*
G37*
X106404013Y-81192500D02*
X105850013Y-81192500D01*
X105850013Y-73551500D01*
X106404013Y-73551500D01*
X106404013Y-81192500D01*
X106401629Y-144805000D02*
X105847629Y-144805000D01*
X105847629Y-144805000D02*
X105847629Y-152446000D01*
X105847629Y-152446000D02*
X106401629Y-152446000D01*
X106401629Y-152446000D02*
X106401629Y-144805000D01*
G36*
X106401629Y-152446000D02*
G01*
X105847629Y-152446000D01*
X105847629Y-144805000D01*
X106401629Y-144805000D01*
X106401629Y-152446000D01*
G37*
X106401629Y-152446000D02*
X105847629Y-152446000D01*
X105847629Y-144805000D01*
X106401629Y-144805000D01*
X106401629Y-152446000D01*
X66406129Y-64804000D02*
X65852129Y-64804000D01*
X65852129Y-64804000D02*
X65852129Y-72445000D01*
X65852129Y-72445000D02*
X66406129Y-72445000D01*
X66406129Y-72445000D02*
X66406129Y-64804000D01*
G36*
X66406129Y-72445000D02*
G01*
X65852129Y-72445000D01*
X65852129Y-64804000D01*
X66406129Y-64804000D01*
X66406129Y-72445000D01*
G37*
X66406129Y-72445000D02*
X65852129Y-72445000D01*
X65852129Y-64804000D01*
X66406129Y-64804000D01*
X66406129Y-72445000D01*
X61386129Y-104799000D02*
X60832129Y-104799000D01*
X60832129Y-104799000D02*
X60832129Y-112440000D01*
X60832129Y-112440000D02*
X61386129Y-112440000D01*
X61386129Y-112440000D02*
X61386129Y-104799000D01*
G36*
X61386129Y-112440000D02*
G01*
X60832129Y-112440000D01*
X60832129Y-104799000D01*
X61386129Y-104799000D01*
X61386129Y-112440000D01*
G37*
X61386129Y-112440000D02*
X60832129Y-112440000D01*
X60832129Y-104799000D01*
X61386129Y-104799000D01*
X61386129Y-112440000D01*
X26401629Y-144805000D02*
X25847629Y-144805000D01*
X25847629Y-144805000D02*
X25847629Y-152446000D01*
X25847629Y-152446000D02*
X26401629Y-152446000D01*
X26401629Y-152446000D02*
X26401629Y-144805000D01*
G36*
X26401629Y-152446000D02*
G01*
X25847629Y-152446000D01*
X25847629Y-144805000D01*
X26401629Y-144805000D01*
X26401629Y-152446000D01*
G37*
X26401629Y-152446000D02*
X25847629Y-152446000D01*
X25847629Y-144805000D01*
X26401629Y-144805000D01*
X26401629Y-152446000D01*
X65845629Y-161193500D02*
X66399629Y-161193500D01*
X66399629Y-161193500D02*
X66399629Y-153552500D01*
X66399629Y-153552500D02*
X65845629Y-153552500D01*
X65845629Y-153552500D02*
X65845629Y-161193500D01*
G36*
X66399629Y-161193500D02*
G01*
X65845629Y-161193500D01*
X65845629Y-153552500D01*
X66399629Y-153552500D01*
X66399629Y-161193500D01*
G37*
X66399629Y-161193500D02*
X65845629Y-161193500D01*
X65845629Y-153552500D01*
X66399629Y-153552500D01*
X66399629Y-161193500D01*
X140831129Y-121200000D02*
X141385129Y-121200000D01*
X141385129Y-121200000D02*
X141385129Y-113559000D01*
X141385129Y-113559000D02*
X140831129Y-113559000D01*
X140831129Y-113559000D02*
X140831129Y-121200000D01*
G36*
X141385129Y-121200000D02*
G01*
X140831129Y-121200000D01*
X140831129Y-113559000D01*
X141385129Y-113559000D01*
X141385129Y-121200000D01*
G37*
X141385129Y-121200000D02*
X140831129Y-121200000D01*
X140831129Y-113559000D01*
X141385129Y-113559000D01*
X141385129Y-121200000D01*
X21386129Y-104799000D02*
X20832129Y-104799000D01*
X20832129Y-104799000D02*
X20832129Y-112440000D01*
X20832129Y-112440000D02*
X21386129Y-112440000D01*
X21386129Y-112440000D02*
X21386129Y-104799000D01*
G36*
X21386129Y-112440000D02*
G01*
X20832129Y-112440000D01*
X20832129Y-104799000D01*
X21386129Y-104799000D01*
X21386129Y-112440000D01*
G37*
X21386129Y-112440000D02*
X20832129Y-112440000D01*
X20832129Y-104799000D01*
X21386129Y-104799000D01*
X21386129Y-112440000D01*
X145850013Y-81192500D02*
X146404013Y-81192500D01*
X146404013Y-81192500D02*
X146404013Y-73551500D01*
X146404013Y-73551500D02*
X145850013Y-73551500D01*
X145850013Y-73551500D02*
X145850013Y-81192500D01*
G36*
X146404013Y-81192500D02*
G01*
X145850013Y-81192500D01*
X145850013Y-73551500D01*
X146404013Y-73551500D01*
X146404013Y-81192500D01*
G37*
X146404013Y-81192500D02*
X145850013Y-81192500D01*
X145850013Y-73551500D01*
X146404013Y-73551500D01*
X146404013Y-81192500D01*
X106406129Y-64804000D02*
X105852129Y-64804000D01*
X105852129Y-64804000D02*
X105852129Y-72445000D01*
X105852129Y-72445000D02*
X106406129Y-72445000D01*
X106406129Y-72445000D02*
X106406129Y-64804000D01*
G36*
X106406129Y-72445000D02*
G01*
X105852129Y-72445000D01*
X105852129Y-64804000D01*
X106406129Y-64804000D01*
X106406129Y-72445000D01*
G37*
X106406129Y-72445000D02*
X105852129Y-72445000D01*
X105852129Y-64804000D01*
X106406129Y-64804000D01*
X106406129Y-72445000D01*
G04 #@! TD*
D12*
G04 #@! TO.P,AE5,1,A*
G04 #@! TO.N,/A1E5*
X147864500Y-52999000D03*
G04 #@! TD*
G04 #@! TO.P,AE5,1,A*
G04 #@! TO.N,/A1E5*
X67864500Y-52999000D03*
G04 #@! TD*
D13*
G04 #@! TO.P,H10,1,1*
G04 #@! TO.N,N/C*
X93000000Y-5000000D03*
D14*
X93000000Y-5000000D03*
G04 #@! TD*
D12*
G04 #@! TO.P,AE5,1,A*
G04 #@! TO.N,/A1E5*
X107864500Y-92999000D03*
G04 #@! TD*
D14*
G04 #@! TO.P,H12,1,1*
G04 #@! TO.N,N/C*
X170000000Y-113000000D03*
D13*
X170000000Y-113000000D03*
G04 #@! TD*
D12*
G04 #@! TO.P,AE5,1,A*
G04 #@! TO.N,/A1E5*
X67864500Y-172999000D03*
G04 #@! TD*
D13*
G04 #@! TO.P,H12,1,1*
G04 #@! TO.N,N/C*
X92855436Y-112957000D03*
D14*
X92855436Y-112957000D03*
G04 #@! TD*
D12*
G04 #@! TO.P,AE5,1,A*
G04 #@! TO.N,/A1E5*
X147864500Y-92999000D03*
G04 #@! TD*
G04 #@! TO.P,AE5,1,A*
G04 #@! TO.N,/A1E5*
X107864500Y-52999000D03*
G04 #@! TD*
G04 #@! TO.P,AE5,1,A*
G04 #@! TO.N,/A1E5*
X27864500Y-92999000D03*
G04 #@! TD*
D13*
G04 #@! TO.P,H4,1,1*
G04 #@! TO.N,N/C*
X174000000Y-208000000D03*
D14*
X174000000Y-208000000D03*
G04 #@! TD*
D12*
G04 #@! TO.P,AE5,1,A*
G04 #@! TO.N,/A1E5*
X147864500Y-172999000D03*
G04 #@! TD*
G04 #@! TO.P,AE5,1,A*
G04 #@! TO.N,/A1E5*
X27864500Y-52999000D03*
G04 #@! TD*
G04 #@! TO.P,AE5,1,A*
G04 #@! TO.N,/A1E5*
X67864500Y-92999000D03*
G04 #@! TD*
G04 #@! TO.P,AE5,1,A*
G04 #@! TO.N,/A1E5*
X107864500Y-132999000D03*
G04 #@! TD*
G04 #@! TO.P,AE5,1,A*
G04 #@! TO.N,/A1E5*
X107864500Y-172999000D03*
G04 #@! TD*
G04 #@! TO.P,AE5,1,A*
G04 #@! TO.N,/A1E5*
X27864500Y-172999000D03*
G04 #@! TD*
D13*
G04 #@! TO.P,H9,1,1*
G04 #@! TO.N,N/C*
X93000000Y-221000000D03*
D14*
X93000000Y-221000000D03*
G04 #@! TD*
D12*
G04 #@! TO.P,AE5,1,A*
G04 #@! TO.N,/A1E5*
X27864500Y-132999000D03*
G04 #@! TD*
D13*
G04 #@! TO.P,H2,1,1*
G04 #@! TO.N,N/C*
X174000000Y-18000000D03*
D14*
X174000000Y-18000000D03*
G04 #@! TD*
D13*
G04 #@! TO.P,H3,1,1*
G04 #@! TO.N,N/C*
X12000000Y-208000000D03*
D14*
X12000000Y-208000000D03*
G04 #@! TD*
G04 #@! TO.P,H1,1,1*
G04 #@! TO.N,N/C*
X12000000Y-18000000D03*
D13*
X12000000Y-18000000D03*
G04 #@! TD*
D12*
G04 #@! TO.P,AE5,1,A*
G04 #@! TO.N,/A1E5*
X67864500Y-132999000D03*
G04 #@! TD*
G04 #@! TO.P,AE5,1,A*
G04 #@! TO.N,/A1E5*
X147864500Y-132999000D03*
G04 #@! TD*
D13*
G04 #@! TO.P,H11,1,1*
G04 #@! TO.N,N/C*
X16000000Y-113000000D03*
D14*
X16000000Y-113000000D03*
G04 #@! TD*
D15*
G04 #@! TO.P,REF\u002A\u002A,1*
G04 #@! TO.N,N/C*
X146124629Y-145081500D03*
G04 #@! TO.P,REF\u002A\u002A,2*
X146124629Y-152169000D03*
G04 #@! TD*
G04 #@! TO.P,REF\u002A\u002A,1*
G04 #@! TO.N,N/C*
X146122629Y-160917000D03*
G04 #@! TO.P,REF\u002A\u002A,2*
X146122629Y-153829500D03*
G04 #@! TD*
G04 #@! TO.P,REF\u002A\u002A,1*
G04 #@! TO.N,/A1E5*
X146129129Y-65080500D03*
G04 #@! TO.P,REF\u002A\u002A,2*
G04 #@! TO.N,N/C*
X146129129Y-72168000D03*
G04 #@! TD*
D16*
G04 #@! TO.P,Feed4,*
G04 #@! TO.N,/A1P1*
X107500129Y-112950000D03*
D17*
G04 #@! TO.P,Feed4,1,A*
X107500129Y-112950000D03*
G04 #@! TD*
D15*
G04 #@! TO.P,REF\u002A\u002A,1*
G04 #@! TO.N,N/C*
X26127013Y-80916000D03*
G04 #@! TO.P,REF\u002A\u002A,2*
X26127013Y-73828500D03*
G04 #@! TD*
D16*
G04 #@! TO.P,Feed4,*
G04 #@! TO.N,/A1P1*
X67500129Y-112950000D03*
D17*
G04 #@! TO.P,Feed4,1,A*
X67500129Y-112950000D03*
G04 #@! TD*
D15*
G04 #@! TO.P,REF\u002A\u002A,1*
G04 #@! TO.N,/A1E5*
X26129129Y-65080500D03*
G04 #@! TO.P,REF\u002A\u002A,2*
G04 #@! TO.N,N/C*
X26129129Y-72168000D03*
G04 #@! TD*
D18*
G04 #@! TO.P,>NAME,1*
G04 #@! TO.N,N/C*
X143141129Y-112724000D03*
G04 #@! TO.P,>NAME,2*
X143141129Y-111764000D03*
G04 #@! TD*
G04 #@! TO.P,>NAME,1*
G04 #@! TO.N,N/C*
X103141129Y-112724000D03*
G04 #@! TO.P,>NAME,2*
X103141129Y-111764000D03*
G04 #@! TD*
D15*
G04 #@! TO.P,REF\u002A\u002A,1*
G04 #@! TO.N,N/C*
X21108129Y-120923500D03*
G04 #@! TO.P,REF\u002A\u002A,2*
X21108129Y-113836000D03*
G04 #@! TD*
G04 #@! TO.P,REF\u002A\u002A,1*
G04 #@! TO.N,N/C*
X26122629Y-160917000D03*
G04 #@! TO.P,REF\u002A\u002A,2*
X26122629Y-153829500D03*
G04 #@! TD*
D16*
G04 #@! TO.P,Feed4,*
G04 #@! TO.N,/A1P1*
X147500129Y-112950000D03*
D17*
G04 #@! TO.P,Feed4,1,A*
X147500129Y-112950000D03*
G04 #@! TD*
D18*
G04 #@! TO.P,>NAME,1*
G04 #@! TO.N,N/C*
X63141129Y-112724000D03*
G04 #@! TO.P,>NAME,2*
X63141129Y-111764000D03*
G04 #@! TD*
D15*
G04 #@! TO.P,REF\u002A\u002A,1*
G04 #@! TO.N,N/C*
X61108129Y-120923500D03*
G04 #@! TO.P,REF\u002A\u002A,2*
X61108129Y-113836000D03*
G04 #@! TD*
D19*
G04 #@! TO.P,>NAME,1*
G04 #@! TO.N,N/C*
X24075129Y-112999000D03*
G04 #@! TO.P,>NAME,2*
X25035129Y-112999000D03*
G04 #@! TD*
G04 #@! TO.P,>NAME,1*
G04 #@! TO.N,N/C*
X104075129Y-112999000D03*
G04 #@! TO.P,>NAME,2*
X105035129Y-112999000D03*
G04 #@! TD*
D15*
G04 #@! TO.P,REF\u002A\u002A,1*
G04 #@! TO.N,N/C*
X66127013Y-80916000D03*
G04 #@! TO.P,REF\u002A\u002A,2*
X66127013Y-73828500D03*
G04 #@! TD*
D18*
G04 #@! TO.P,>NAME,1*
G04 #@! TO.N,N/C*
X65923129Y-112723000D03*
G04 #@! TO.P,>NAME,2*
G04 #@! TO.N,GND*
X65923129Y-111763000D03*
G04 #@! TD*
D15*
G04 #@! TO.P,REF\u002A\u002A,1*
G04 #@! TO.N,N/C*
X101109129Y-105075500D03*
G04 #@! TO.P,REF\u002A\u002A,2*
X101109129Y-112163000D03*
G04 #@! TD*
G04 #@! TO.P,REF\u002A\u002A,1*
G04 #@! TO.N,N/C*
X101108129Y-120923500D03*
G04 #@! TO.P,REF\u002A\u002A,2*
X101108129Y-113836000D03*
G04 #@! TD*
G04 #@! TO.P,REF\u002A\u002A,1*
G04 #@! TO.N,N/C*
X66124629Y-145081500D03*
G04 #@! TO.P,REF\u002A\u002A,2*
X66124629Y-152169000D03*
G04 #@! TD*
D18*
G04 #@! TO.P,>NAME,1*
G04 #@! TO.N,N/C*
X105923129Y-112723000D03*
G04 #@! TO.P,>NAME,2*
G04 #@! TO.N,GND*
X105923129Y-111763000D03*
G04 #@! TD*
D16*
G04 #@! TO.P,Feed4,*
G04 #@! TO.N,/A1P1*
X27500129Y-112950000D03*
D17*
G04 #@! TO.P,Feed4,1,A*
X27500129Y-112950000D03*
G04 #@! TD*
D15*
G04 #@! TO.P,REF\u002A\u002A,1*
G04 #@! TO.N,N/C*
X106122629Y-160917000D03*
G04 #@! TO.P,REF\u002A\u002A,2*
X106122629Y-153829500D03*
G04 #@! TD*
G04 #@! TO.P,REF\u002A\u002A,1*
G04 #@! TO.N,N/C*
X141109129Y-105075500D03*
G04 #@! TO.P,REF\u002A\u002A,2*
X141109129Y-112163000D03*
G04 #@! TD*
G04 #@! TO.P,REF\u002A\u002A,1*
G04 #@! TO.N,N/C*
X106127013Y-80916000D03*
G04 #@! TO.P,REF\u002A\u002A,2*
X106127013Y-73828500D03*
G04 #@! TD*
G04 #@! TO.P,REF\u002A\u002A,1*
G04 #@! TO.N,N/C*
X106124629Y-145081500D03*
G04 #@! TO.P,REF\u002A\u002A,2*
X106124629Y-152169000D03*
G04 #@! TD*
G04 #@! TO.P,REF\u002A\u002A,1*
G04 #@! TO.N,/A1E5*
X66129129Y-65080500D03*
G04 #@! TO.P,REF\u002A\u002A,2*
G04 #@! TO.N,N/C*
X66129129Y-72168000D03*
G04 #@! TD*
G04 #@! TO.P,REF\u002A\u002A,1*
G04 #@! TO.N,N/C*
X61109129Y-105075500D03*
G04 #@! TO.P,REF\u002A\u002A,2*
X61109129Y-112163000D03*
G04 #@! TD*
D18*
G04 #@! TO.P,>NAME,1*
G04 #@! TO.N,N/C*
X25923129Y-112723000D03*
G04 #@! TO.P,>NAME,2*
G04 #@! TO.N,GND*
X25923129Y-111763000D03*
G04 #@! TD*
D15*
G04 #@! TO.P,REF\u002A\u002A,1*
G04 #@! TO.N,N/C*
X26124629Y-145081500D03*
G04 #@! TO.P,REF\u002A\u002A,2*
X26124629Y-152169000D03*
G04 #@! TD*
D18*
G04 #@! TO.P,>NAME,1*
G04 #@! TO.N,N/C*
X23141129Y-112724000D03*
G04 #@! TO.P,>NAME,2*
X23141129Y-111764000D03*
G04 #@! TD*
D15*
G04 #@! TO.P,REF\u002A\u002A,1*
G04 #@! TO.N,N/C*
X66122629Y-160917000D03*
G04 #@! TO.P,REF\u002A\u002A,2*
X66122629Y-153829500D03*
G04 #@! TD*
G04 #@! TO.P,REF\u002A\u002A,1*
G04 #@! TO.N,N/C*
X141108129Y-120923500D03*
G04 #@! TO.P,REF\u002A\u002A,2*
X141108129Y-113836000D03*
G04 #@! TD*
D18*
G04 #@! TO.P,>NAME,1*
G04 #@! TO.N,N/C*
X145923129Y-112723000D03*
G04 #@! TO.P,>NAME,2*
G04 #@! TO.N,GND*
X145923129Y-111763000D03*
G04 #@! TD*
D15*
G04 #@! TO.P,REF\u002A\u002A,1*
G04 #@! TO.N,N/C*
X21109129Y-105075500D03*
G04 #@! TO.P,REF\u002A\u002A,2*
X21109129Y-112163000D03*
G04 #@! TD*
D19*
G04 #@! TO.P,>NAME,1*
G04 #@! TO.N,N/C*
X64075129Y-112999000D03*
G04 #@! TO.P,>NAME,2*
X65035129Y-112999000D03*
G04 #@! TD*
D15*
G04 #@! TO.P,REF\u002A\u002A,1*
G04 #@! TO.N,N/C*
X146127013Y-80916000D03*
G04 #@! TO.P,REF\u002A\u002A,2*
X146127013Y-73828500D03*
G04 #@! TD*
D19*
G04 #@! TO.P,>NAME,1*
G04 #@! TO.N,N/C*
X144075129Y-112999000D03*
G04 #@! TO.P,>NAME,2*
X145035129Y-112999000D03*
G04 #@! TD*
D15*
G04 #@! TO.P,REF\u002A\u002A,1*
G04 #@! TO.N,/A1E5*
X106129129Y-65080500D03*
G04 #@! TO.P,REF\u002A\u002A,2*
G04 #@! TO.N,N/C*
X106129129Y-72168000D03*
G04 #@! TD*
D20*
G04 #@! TO.N,GND*
X63141129Y-111029000D03*
X143141129Y-111029000D03*
X103141129Y-111029000D03*
X23141129Y-111029000D03*
X145923129Y-111029000D03*
X25923129Y-111029000D03*
X105923129Y-111029000D03*
X65923129Y-111029000D03*
G04 #@! TD*
D21*
G04 #@! TO.N,GND*
X143141129Y-111029000D02*
X143141129Y-111734030D01*
X103141129Y-111029000D02*
X103141129Y-111734030D01*
X63141129Y-111029000D02*
X63141129Y-111734030D01*
X23141129Y-111029000D02*
X23141129Y-111734030D01*
D22*
G04 #@! TO.N,/A1E5*
X141114449Y-104313000D02*
X141114449Y-74203192D01*
X101549577Y-152585500D02*
X101629256Y-152662556D01*
X146552497Y-173000000D02*
X147860000Y-173000000D01*
X61362292Y-73604847D02*
X61437577Y-73525500D01*
X22435818Y-152996646D02*
X25011431Y-152996646D01*
X146120629Y-161752000D02*
X146120629Y-172116820D01*
X26552497Y-173000000D02*
X27860000Y-173000000D01*
X141362292Y-73604847D02*
X141437577Y-73525500D01*
X23232105Y-152995500D02*
X25847013Y-152995500D01*
X27313000Y-132998000D02*
X28271129Y-132998000D01*
X21808581Y-152792844D02*
X22006080Y-152893474D01*
X21240798Y-73786675D02*
X21362292Y-73604847D01*
X26129129Y-64239000D02*
X26129129Y-53973239D01*
X106124629Y-144240000D02*
X106124629Y-133974239D01*
X107317500Y-52997000D02*
X108275629Y-52997000D01*
X141157112Y-73988711D02*
X141240798Y-73786675D01*
X106129129Y-64239000D02*
X106129129Y-53973239D01*
X147313000Y-132998000D02*
X148271129Y-132998000D01*
X147317500Y-52997000D02*
X148275629Y-52997000D01*
X106552497Y-173000000D02*
X107860000Y-173000000D01*
X62435818Y-152996646D02*
X65011431Y-152996646D01*
X106120629Y-161752000D02*
X106120629Y-172116820D01*
X67313000Y-132998000D02*
X68271129Y-132998000D01*
X61549577Y-152585500D02*
X61629256Y-152662556D01*
X141808581Y-152792844D02*
X142006080Y-152893474D01*
X106125129Y-81751000D02*
X106125129Y-92115820D01*
X141109577Y-121742552D02*
X141109577Y-151523247D01*
X27317500Y-52997000D02*
X28275629Y-52997000D01*
X107313000Y-132998000D02*
X108271129Y-132998000D01*
X61114449Y-104313000D02*
X61114449Y-74203192D01*
X103232105Y-152995500D02*
X105847013Y-152995500D01*
X141240798Y-73786675D02*
X141362292Y-73604847D01*
X146125129Y-81751000D02*
X146125129Y-92115820D01*
X61240798Y-73786675D02*
X61362292Y-73604847D01*
X101240798Y-73786675D02*
X101362292Y-73604847D01*
X142717110Y-72997500D02*
X145003577Y-72997500D01*
X101110129Y-121742000D02*
X101109577Y-121742552D01*
X23230397Y-72996500D02*
X25849013Y-72996500D01*
X101362292Y-73604847D02*
X101437577Y-73525500D01*
X102435818Y-152996646D02*
X105011431Y-152996646D01*
X102006080Y-152893474D02*
X102216889Y-152961971D01*
X26968126Y-92997000D02*
X28275629Y-92997000D01*
X26125129Y-81751000D02*
X26125129Y-92115820D01*
X106968126Y-92997000D02*
X108275629Y-92997000D01*
X142435818Y-152996646D02*
X145011431Y-152996646D01*
X102216889Y-152961971D02*
X102435818Y-152996646D01*
X101629256Y-152662556D02*
X101808581Y-152792844D01*
X22717110Y-72997500D02*
X25003577Y-72997500D01*
X101157112Y-73988711D02*
X101240798Y-73786675D01*
X66125129Y-81751000D02*
X66125129Y-92115820D01*
X62216889Y-152961971D02*
X62435818Y-152996646D01*
X61109577Y-121742552D02*
X61109577Y-151523247D01*
X21629256Y-152662556D02*
X21808581Y-152792844D01*
X66552497Y-173000000D02*
X67860000Y-173000000D01*
X141110129Y-121742000D02*
X141109577Y-121742552D01*
X146124629Y-144240000D02*
X146124629Y-133974239D01*
X101109577Y-121742552D02*
X101109577Y-151523247D01*
X61157112Y-73988711D02*
X61240798Y-73786675D01*
X66129129Y-64239000D02*
X66129129Y-53973239D01*
X143232105Y-152995500D02*
X145847013Y-152995500D01*
X26124629Y-144240000D02*
X26124629Y-133974239D01*
X141114449Y-74203192D02*
X141157112Y-73988711D01*
X62717110Y-72997500D02*
X65003577Y-72997500D01*
X102717110Y-72997500D02*
X105003577Y-72997500D01*
X101114449Y-104313000D02*
X101114449Y-74203192D01*
X101808581Y-152792844D02*
X102006080Y-152893474D01*
X146968126Y-92997000D02*
X148275629Y-92997000D01*
X21362292Y-73604847D02*
X21437577Y-73525500D01*
X21549577Y-152585500D02*
X21629256Y-152662556D01*
X101114449Y-74203192D02*
X101157112Y-73988711D01*
X66124629Y-144240000D02*
X66124629Y-133974239D01*
X21157112Y-73988711D02*
X21240798Y-73786675D01*
X21114449Y-74203192D02*
X21157112Y-73988711D01*
X67317500Y-52997000D02*
X68275629Y-52997000D01*
X61110129Y-121742000D02*
X61109577Y-121742552D01*
X21114449Y-104313000D02*
X21114449Y-74203192D01*
X22006080Y-152893474D02*
X22216889Y-152961971D01*
X61629256Y-152662556D02*
X61808581Y-152792844D01*
X61114449Y-74203192D02*
X61157112Y-73988711D01*
X143230397Y-72996500D02*
X145849013Y-72996500D01*
X141549577Y-152585500D02*
X141629256Y-152662556D01*
X62006080Y-152893474D02*
X62216889Y-152961971D01*
X142006080Y-152893474D02*
X142216889Y-152961971D01*
X61808581Y-152792844D02*
X62006080Y-152893474D01*
X22216889Y-152961971D02*
X22435818Y-152996646D01*
X26120629Y-161752000D02*
X26120629Y-172116820D01*
X103230397Y-72996500D02*
X105849013Y-72996500D01*
X142216889Y-152961971D02*
X142435818Y-152996646D01*
X66120629Y-161752000D02*
X66120629Y-172116820D01*
X21110129Y-121742000D02*
X21109577Y-121742552D01*
X63232105Y-152995500D02*
X65847013Y-152995500D01*
X141629256Y-152662556D02*
X141808581Y-152792844D01*
X66968126Y-92997000D02*
X68275629Y-92997000D01*
X63230397Y-72996500D02*
X65849013Y-72996500D01*
X146129129Y-64239000D02*
X146129129Y-53973239D01*
X21109577Y-121742552D02*
X21109577Y-151523247D01*
X22717110Y-72995501D02*
G75*
G03*
X21437578Y-73525501I3J-1809539D01*
G01*
X106371129Y-53389000D02*
G75*
G03*
X106129129Y-53973239I584234J-584237D01*
G01*
X146968126Y-92997000D02*
G75*
G02*
X146391129Y-92758000I-1J815994D01*
G01*
X147317500Y-52997001D02*
G75*
G03*
X146371130Y-53389001I1J-1338372D01*
G01*
X146963626Y-172998000D02*
G75*
G02*
X146386629Y-172759000I-1J815994D01*
G01*
X142717110Y-72995501D02*
G75*
G03*
X141437578Y-73525501I3J-1809539D01*
G01*
X106386629Y-172759000D02*
G75*
G02*
X106120629Y-172116820I642179J642180D01*
G01*
X106366629Y-133390000D02*
G75*
G03*
X106124629Y-133974239I584234J-584237D01*
G01*
X146371129Y-53389000D02*
G75*
G03*
X146129129Y-53973239I584234J-584237D01*
G01*
X61549577Y-152585500D02*
G75*
G02*
X61109577Y-151523247I1062250J1062252D01*
G01*
X146366629Y-133390000D02*
G75*
G03*
X146124629Y-133974239I584234J-584237D01*
G01*
X106963626Y-172998000D02*
G75*
G02*
X106386629Y-172759000I-1J815994D01*
G01*
X67313000Y-132998001D02*
G75*
G03*
X66366630Y-133390001I1J-1338372D01*
G01*
X66968126Y-92997000D02*
G75*
G02*
X66391129Y-92758000I-1J815994D01*
G01*
X66386629Y-172759000D02*
G75*
G02*
X66120629Y-172116820I642179J642180D01*
G01*
X66371129Y-53389000D02*
G75*
G03*
X66129129Y-53973239I584234J-584237D01*
G01*
X147313000Y-132998001D02*
G75*
G03*
X146366630Y-133390001I1J-1338372D01*
G01*
X107317500Y-52997001D02*
G75*
G03*
X106371130Y-53389001I1J-1338372D01*
G01*
X26366629Y-133390000D02*
G75*
G03*
X26124629Y-133974239I584234J-584237D01*
G01*
X66366629Y-133390000D02*
G75*
G03*
X66124629Y-133974239I584234J-584237D01*
G01*
X106968126Y-92997000D02*
G75*
G02*
X106391129Y-92758000I-1J815994D01*
G01*
X26371129Y-53389000D02*
G75*
G03*
X26129129Y-53973239I584234J-584237D01*
G01*
X26963626Y-172998000D02*
G75*
G02*
X26386629Y-172759000I-1J815994D01*
G01*
X102717110Y-72995501D02*
G75*
G03*
X101437578Y-73525501I3J-1809539D01*
G01*
X26386629Y-172759000D02*
G75*
G02*
X26120629Y-172116820I642179J642180D01*
G01*
X26968126Y-92997000D02*
G75*
G02*
X26391129Y-92758000I-1J815994D01*
G01*
X27317500Y-52997001D02*
G75*
G03*
X26371130Y-53389001I1J-1338372D01*
G01*
X146386629Y-172759000D02*
G75*
G02*
X146120629Y-172116820I642179J642180D01*
G01*
X107313000Y-132998001D02*
G75*
G03*
X106366630Y-133390001I1J-1338372D01*
G01*
X62717110Y-72995501D02*
G75*
G03*
X61437578Y-73525501I3J-1809539D01*
G01*
X146391129Y-92758000D02*
G75*
G02*
X146125129Y-92115820I642179J642180D01*
G01*
X66963626Y-172998000D02*
G75*
G02*
X66386629Y-172759000I-1J815994D01*
G01*
X106391129Y-92758000D02*
G75*
G02*
X106125129Y-92115820I642179J642180D01*
G01*
X21549577Y-152585500D02*
G75*
G02*
X21109577Y-151523247I1062250J1062252D01*
G01*
X101549577Y-152585500D02*
G75*
G02*
X101109577Y-151523247I1062250J1062252D01*
G01*
X26391129Y-92758000D02*
G75*
G02*
X26125129Y-92115820I642179J642180D01*
G01*
X66391129Y-92758000D02*
G75*
G02*
X66125129Y-92115820I642179J642180D01*
G01*
X27313000Y-132998001D02*
G75*
G03*
X26366630Y-133390001I1J-1338372D01*
G01*
X67317500Y-52997001D02*
G75*
G03*
X66371130Y-53389001I1J-1338372D01*
G01*
X141549577Y-152585500D02*
G75*
G02*
X141109577Y-151523247I1062250J1062252D01*
G01*
G04 #@! TD*
M02*
