%TF.GenerationSoftware,KiCad,Pcbnew,5.99.0-unknown-64afa3a42e~128~ubuntu20.04.1*%
%TF.CreationDate,2021-05-18T17:39:42-05:00*%
%TF.ProjectId,Feeds,46656564-732e-46b6-9963-61645f706362,rev?*%
%TF.SameCoordinates,Original*%
%TF.FileFunction,Legend,Bot*%
%TF.FilePolarity,Positive*%
%FSLAX46Y46*%
G04 Gerber Fmt 4.6, Leading zero omitted, Abs format (unit mm)*
G04 Created by KiCad (PCBNEW 5.99.0-unknown-64afa3a42e~128~ubuntu20.04.1) date 2021-05-18 17:39:42*
%MOMM*%
%LPD*%
G01*
G04 APERTURE LIST*
%ADD10C,0.300000*%
%ADD11C,0.150000*%
G04 APERTURE END LIST*
D10*
X179455471Y-137915342D02*
X177955471Y-137915342D01*
X177955471Y-138486771D01*
X178026900Y-138629628D01*
X178098328Y-138701057D01*
X178241185Y-138772485D01*
X178455471Y-138772485D01*
X178598328Y-138701057D01*
X178669757Y-138629628D01*
X178741185Y-138486771D01*
X178741185Y-137915342D01*
X179455471Y-140058200D02*
X178669757Y-140058200D01*
X178526900Y-139986771D01*
X178455471Y-139843914D01*
X178455471Y-139558200D01*
X178526900Y-139415342D01*
X179384042Y-140058200D02*
X179455471Y-139915342D01*
X179455471Y-139558200D01*
X179384042Y-139415342D01*
X179241185Y-139343914D01*
X179098328Y-139343914D01*
X178955471Y-139415342D01*
X178884042Y-139558200D01*
X178884042Y-139915342D01*
X178812614Y-140058200D01*
X178455471Y-140772485D02*
X179455471Y-140772485D01*
X178598328Y-140772485D02*
X178526900Y-140843914D01*
X178455471Y-140986771D01*
X178455471Y-141201057D01*
X178526900Y-141343914D01*
X178669757Y-141415342D01*
X179455471Y-141415342D01*
X179384042Y-142701057D02*
X179455471Y-142558200D01*
X179455471Y-142272485D01*
X179384042Y-142129628D01*
X179241185Y-142058200D01*
X178669757Y-142058200D01*
X178526900Y-142129628D01*
X178455471Y-142272485D01*
X178455471Y-142558200D01*
X178526900Y-142701057D01*
X178669757Y-142772485D01*
X178812614Y-142772485D01*
X178955471Y-142058200D01*
X179455471Y-143629628D02*
X179384042Y-143486771D01*
X179241185Y-143415342D01*
X177955471Y-143415342D01*
X179026900Y-145272485D02*
X179026900Y-145986771D01*
X179455471Y-145129628D02*
X177955471Y-145629628D01*
X179455471Y-146129628D01*
X178455471Y-146629628D02*
X179455471Y-146629628D01*
X178598328Y-146629628D02*
X178526900Y-146701057D01*
X178455471Y-146843914D01*
X178455471Y-147058200D01*
X178526900Y-147201057D01*
X178669757Y-147272485D01*
X179455471Y-147272485D01*
X178455471Y-147772485D02*
X178455471Y-148343914D01*
X177955471Y-147986771D02*
X179241185Y-147986771D01*
X179384042Y-148058200D01*
X179455471Y-148201057D01*
X179455471Y-148343914D01*
X179384042Y-149415342D02*
X179455471Y-149272485D01*
X179455471Y-148986771D01*
X179384042Y-148843914D01*
X179241185Y-148772485D01*
X178669757Y-148772485D01*
X178526900Y-148843914D01*
X178455471Y-148986771D01*
X178455471Y-149272485D01*
X178526900Y-149415342D01*
X178669757Y-149486771D01*
X178812614Y-149486771D01*
X178955471Y-148772485D01*
X178455471Y-150129628D02*
X179455471Y-150129628D01*
X178598328Y-150129628D02*
X178526900Y-150201057D01*
X178455471Y-150343914D01*
X178455471Y-150558200D01*
X178526900Y-150701057D01*
X178669757Y-150772485D01*
X179455471Y-150772485D01*
X178455471Y-151486771D02*
X179455471Y-151486771D01*
X178598328Y-151486771D02*
X178526900Y-151558200D01*
X178455471Y-151701057D01*
X178455471Y-151915342D01*
X178526900Y-152058200D01*
X178669757Y-152129628D01*
X179455471Y-152129628D01*
X179455471Y-153486771D02*
X178669757Y-153486771D01*
X178526900Y-153415342D01*
X178455471Y-153272485D01*
X178455471Y-152986771D01*
X178526900Y-152843914D01*
X179384042Y-153486771D02*
X179455471Y-153343914D01*
X179455471Y-152986771D01*
X179384042Y-152843914D01*
X179241185Y-152772485D01*
X179098328Y-152772485D01*
X178955471Y-152843914D01*
X178884042Y-152986771D01*
X178884042Y-153343914D01*
X178812614Y-153486771D01*
X178455471Y-155986771D02*
X179455471Y-155986771D01*
X177884042Y-155629628D02*
X178955471Y-155272485D01*
X178955471Y-156201057D01*
X179455471Y-156629628D02*
X178455471Y-157415342D01*
X178455471Y-156629628D02*
X179455471Y-157415342D01*
X178455471Y-158629628D02*
X179455471Y-158629628D01*
X177884042Y-158272485D02*
X178955471Y-157915342D01*
X178955471Y-158843914D01*
X179455471Y-160558200D02*
X178455471Y-160558200D01*
X178741185Y-160558200D02*
X178598328Y-160629628D01*
X178526900Y-160701057D01*
X178455471Y-160843914D01*
X178455471Y-160986771D01*
X179384042Y-162058200D02*
X179455471Y-161915342D01*
X179455471Y-161629628D01*
X179384042Y-161486771D01*
X179241185Y-161415342D01*
X178669757Y-161415342D01*
X178526900Y-161486771D01*
X178455471Y-161629628D01*
X178455471Y-161915342D01*
X178526900Y-162058200D01*
X178669757Y-162129628D01*
X178812614Y-162129628D01*
X178955471Y-161415342D01*
X178455471Y-162629628D02*
X179455471Y-162986771D01*
X178455471Y-163343914D01*
X177955471Y-164629628D02*
X177955471Y-163915342D01*
X178669757Y-163843914D01*
X178598328Y-163915342D01*
X178526900Y-164058200D01*
X178526900Y-164415342D01*
X178598328Y-164558200D01*
X178669757Y-164629628D01*
X178812614Y-164701057D01*
X179169757Y-164701057D01*
X179312614Y-164629628D01*
X179384042Y-164558200D01*
X179455471Y-164415342D01*
X179455471Y-164058200D01*
X179384042Y-163915342D01*
X179312614Y-163843914D01*
X181727614Y-138772485D02*
X181799042Y-138701057D01*
X181870471Y-138486771D01*
X181870471Y-138343914D01*
X181799042Y-138129628D01*
X181656185Y-137986771D01*
X181513328Y-137915342D01*
X181227614Y-137843914D01*
X181013328Y-137843914D01*
X180727614Y-137915342D01*
X180584757Y-137986771D01*
X180441900Y-138129628D01*
X180370471Y-138343914D01*
X180370471Y-138486771D01*
X180441900Y-138701057D01*
X180513328Y-138772485D01*
X181870471Y-139629628D02*
X181799042Y-139486771D01*
X181727614Y-139415342D01*
X181584757Y-139343914D01*
X181156185Y-139343914D01*
X181013328Y-139415342D01*
X180941900Y-139486771D01*
X180870471Y-139629628D01*
X180870471Y-139843914D01*
X180941900Y-139986771D01*
X181013328Y-140058200D01*
X181156185Y-140129628D01*
X181584757Y-140129628D01*
X181727614Y-140058200D01*
X181799042Y-139986771D01*
X181870471Y-139843914D01*
X181870471Y-139629628D01*
X180870471Y-140772485D02*
X182370471Y-140772485D01*
X180941900Y-140772485D02*
X180870471Y-140915342D01*
X180870471Y-141201057D01*
X180941900Y-141343914D01*
X181013328Y-141415342D01*
X181156185Y-141486771D01*
X181584757Y-141486771D01*
X181727614Y-141415342D01*
X181799042Y-141343914D01*
X181870471Y-141201057D01*
X181870471Y-140915342D01*
X181799042Y-140772485D01*
X180870471Y-141986771D02*
X181870471Y-142343914D01*
X180870471Y-142701057D02*
X181870471Y-142343914D01*
X182227614Y-142201057D01*
X182299042Y-142129628D01*
X182370471Y-141986771D01*
X181870471Y-143272485D02*
X180870471Y-143272485D01*
X181156185Y-143272485D02*
X181013328Y-143343914D01*
X180941900Y-143415342D01*
X180870471Y-143558200D01*
X180870471Y-143701057D01*
X181870471Y-144201057D02*
X180870471Y-144201057D01*
X180370471Y-144201057D02*
X180441900Y-144129628D01*
X180513328Y-144201057D01*
X180441900Y-144272485D01*
X180370471Y-144201057D01*
X180513328Y-144201057D01*
X180870471Y-145558200D02*
X182084757Y-145558200D01*
X182227614Y-145486771D01*
X182299042Y-145415342D01*
X182370471Y-145272485D01*
X182370471Y-145058200D01*
X182299042Y-144915342D01*
X181799042Y-145558200D02*
X181870471Y-145415342D01*
X181870471Y-145129628D01*
X181799042Y-144986771D01*
X181727614Y-144915342D01*
X181584757Y-144843914D01*
X181156185Y-144843914D01*
X181013328Y-144915342D01*
X180941900Y-144986771D01*
X180870471Y-145129628D01*
X180870471Y-145415342D01*
X180941900Y-145558200D01*
X181870471Y-146272485D02*
X180370471Y-146272485D01*
X181870471Y-146915342D02*
X181084757Y-146915342D01*
X180941900Y-146843914D01*
X180870471Y-146701057D01*
X180870471Y-146486771D01*
X180941900Y-146343914D01*
X181013328Y-146272485D01*
X180870471Y-147415342D02*
X180870471Y-147986771D01*
X180370471Y-147629628D02*
X181656185Y-147629628D01*
X181799042Y-147701057D01*
X181870471Y-147843914D01*
X181870471Y-147986771D01*
X180513328Y-149558200D02*
X180441900Y-149629628D01*
X180370471Y-149772485D01*
X180370471Y-150129628D01*
X180441900Y-150272485D01*
X180513328Y-150343914D01*
X180656185Y-150415342D01*
X180799042Y-150415342D01*
X181013328Y-150343914D01*
X181870471Y-149486771D01*
X181870471Y-150415342D01*
X180370471Y-151343914D02*
X180370471Y-151486771D01*
X180441900Y-151629628D01*
X180513328Y-151701057D01*
X180656185Y-151772485D01*
X180941900Y-151843914D01*
X181299042Y-151843914D01*
X181584757Y-151772485D01*
X181727614Y-151701057D01*
X181799042Y-151629628D01*
X181870471Y-151486771D01*
X181870471Y-151343914D01*
X181799042Y-151201057D01*
X181727614Y-151129628D01*
X181584757Y-151058200D01*
X181299042Y-150986771D01*
X180941900Y-150986771D01*
X180656185Y-151058200D01*
X180513328Y-151129628D01*
X180441900Y-151201057D01*
X180370471Y-151343914D01*
X180513328Y-152415342D02*
X180441900Y-152486771D01*
X180370471Y-152629628D01*
X180370471Y-152986771D01*
X180441900Y-153129628D01*
X180513328Y-153201057D01*
X180656185Y-153272485D01*
X180799042Y-153272485D01*
X181013328Y-153201057D01*
X181870471Y-152343914D01*
X181870471Y-153272485D01*
X181870471Y-154701057D02*
X181870471Y-153843914D01*
X181870471Y-154272485D02*
X180370471Y-154272485D01*
X180584757Y-154129628D01*
X180727614Y-153986771D01*
X180799042Y-153843914D01*
X181870471Y-156486771D02*
X180370471Y-156486771D01*
X181799042Y-157129628D02*
X181870471Y-157343914D01*
X181870471Y-157701057D01*
X181799042Y-157843914D01*
X181727614Y-157915342D01*
X181584757Y-157986771D01*
X181441900Y-157986771D01*
X181299042Y-157915342D01*
X181227614Y-157843914D01*
X181156185Y-157701057D01*
X181084757Y-157415342D01*
X181013328Y-157272485D01*
X180941900Y-157201057D01*
X180799042Y-157129628D01*
X180656185Y-157129628D01*
X180513328Y-157201057D01*
X180441900Y-157272485D01*
X180370471Y-157415342D01*
X180370471Y-157772485D01*
X180441900Y-157986771D01*
X181870471Y-158629628D02*
X180870471Y-158629628D01*
X180370471Y-158629628D02*
X180441900Y-158558200D01*
X180513328Y-158629628D01*
X180441900Y-158701057D01*
X180370471Y-158629628D01*
X180513328Y-158629628D01*
X181799042Y-159272485D02*
X181870471Y-159415342D01*
X181870471Y-159701057D01*
X181799042Y-159843914D01*
X181656185Y-159915342D01*
X181584757Y-159915342D01*
X181441900Y-159843914D01*
X181370471Y-159701057D01*
X181370471Y-159486771D01*
X181299042Y-159343914D01*
X181156185Y-159272485D01*
X181084757Y-159272485D01*
X180941900Y-159343914D01*
X180870471Y-159486771D01*
X180870471Y-159701057D01*
X180941900Y-159843914D01*
X181870471Y-161701057D02*
X180370471Y-161701057D01*
X181870471Y-162415342D02*
X180870471Y-162415342D01*
X181013328Y-162415342D02*
X180941900Y-162486771D01*
X180870471Y-162629628D01*
X180870471Y-162843914D01*
X180941900Y-162986771D01*
X181084757Y-163058200D01*
X181870471Y-163058200D01*
X181084757Y-163058200D02*
X180941900Y-163129628D01*
X180870471Y-163272485D01*
X180870471Y-163486771D01*
X180941900Y-163629628D01*
X181084757Y-163701057D01*
X181870471Y-163701057D01*
X181870471Y-165058200D02*
X181084757Y-165058200D01*
X180941900Y-164986771D01*
X180870471Y-164843914D01*
X180870471Y-164558200D01*
X180941900Y-164415342D01*
X181799042Y-165058200D02*
X181870471Y-164915342D01*
X181870471Y-164558200D01*
X181799042Y-164415342D01*
X181656185Y-164343914D01*
X181513328Y-164343914D01*
X181370471Y-164415342D01*
X181299042Y-164558200D01*
X181299042Y-164915342D01*
X181227614Y-165058200D01*
X180870471Y-166415342D02*
X182084757Y-166415342D01*
X182227614Y-166343914D01*
X182299042Y-166272485D01*
X182370471Y-166129628D01*
X182370471Y-165915342D01*
X182299042Y-165772485D01*
X181799042Y-166415342D02*
X181870471Y-166272485D01*
X181870471Y-165986771D01*
X181799042Y-165843914D01*
X181727614Y-165772485D01*
X181584757Y-165701057D01*
X181156185Y-165701057D01*
X181013328Y-165772485D01*
X180941900Y-165843914D01*
X180870471Y-165986771D01*
X180870471Y-166272485D01*
X180941900Y-166415342D01*
X181799042Y-167701057D02*
X181870471Y-167558200D01*
X181870471Y-167272485D01*
X181799042Y-167129628D01*
X181656185Y-167058200D01*
X181084757Y-167058200D01*
X180941900Y-167129628D01*
X180870471Y-167272485D01*
X180870471Y-167558200D01*
X180941900Y-167701057D01*
X181084757Y-167772485D01*
X181227614Y-167772485D01*
X181370471Y-167058200D01*
X181799042Y-168343914D02*
X181870471Y-168558200D01*
X181870471Y-168915342D01*
X181799042Y-169058200D01*
X181727614Y-169129628D01*
X181584757Y-169201057D01*
X181441900Y-169201057D01*
X181299042Y-169129628D01*
X181227614Y-169058200D01*
X181156185Y-168915342D01*
X181084757Y-168629628D01*
X181013328Y-168486771D01*
X180941900Y-168415342D01*
X180799042Y-168343914D01*
X180656185Y-168343914D01*
X180513328Y-168415342D01*
X180441900Y-168486771D01*
X180370471Y-168629628D01*
X180370471Y-168986771D01*
X180441900Y-169201057D01*
X180870471Y-169629628D02*
X180870471Y-170201057D01*
X180370471Y-169843914D02*
X181656185Y-169843914D01*
X181799042Y-169915342D01*
X181870471Y-170058200D01*
X181870471Y-170201057D01*
X181870471Y-170701057D02*
X180870471Y-170701057D01*
X181156185Y-170701057D02*
X181013328Y-170772485D01*
X180941900Y-170843914D01*
X180870471Y-170986771D01*
X180870471Y-171129628D01*
X181799042Y-172201057D02*
X181870471Y-172058200D01*
X181870471Y-171772485D01*
X181799042Y-171629628D01*
X181656185Y-171558200D01*
X181084757Y-171558200D01*
X180941900Y-171629628D01*
X180870471Y-171772485D01*
X180870471Y-172058200D01*
X180941900Y-172201057D01*
X181084757Y-172272485D01*
X181227614Y-172272485D01*
X181370471Y-171558200D01*
X181870471Y-173558200D02*
X181084757Y-173558200D01*
X180941900Y-173486771D01*
X180870471Y-173343914D01*
X180870471Y-173058200D01*
X180941900Y-172915342D01*
X181799042Y-173558200D02*
X181870471Y-173415342D01*
X181870471Y-173058200D01*
X181799042Y-172915342D01*
X181656185Y-172843914D01*
X181513328Y-172843914D01*
X181370471Y-172915342D01*
X181299042Y-173058200D01*
X181299042Y-173415342D01*
X181227614Y-173558200D01*
X181870471Y-174272485D02*
X180870471Y-174272485D01*
X181013328Y-174272485D02*
X180941900Y-174343914D01*
X180870471Y-174486771D01*
X180870471Y-174701057D01*
X180941900Y-174843914D01*
X181084757Y-174915342D01*
X181870471Y-174915342D01*
X181084757Y-174915342D02*
X180941900Y-174986771D01*
X180870471Y-175129628D01*
X180870471Y-175343914D01*
X180941900Y-175486771D01*
X181084757Y-175558200D01*
X181870471Y-175558200D01*
X181870471Y-177415342D02*
X180370471Y-177415342D01*
X180870471Y-178129628D02*
X181870471Y-178129628D01*
X181013328Y-178129628D02*
X180941900Y-178201057D01*
X180870471Y-178343914D01*
X180870471Y-178558200D01*
X180941900Y-178701057D01*
X181084757Y-178772485D01*
X181870471Y-178772485D01*
X180870471Y-179272485D02*
X180870471Y-179843914D01*
X180370471Y-179486771D02*
X181656185Y-179486771D01*
X181799042Y-179558200D01*
X181870471Y-179701057D01*
X181870471Y-179843914D01*
X181799042Y-180915342D02*
X181870471Y-180772485D01*
X181870471Y-180486771D01*
X181799042Y-180343914D01*
X181656185Y-180272485D01*
X181084757Y-180272485D01*
X180941900Y-180343914D01*
X180870471Y-180486771D01*
X180870471Y-180772485D01*
X180941900Y-180915342D01*
X181084757Y-180986771D01*
X181227614Y-180986771D01*
X181370471Y-180272485D01*
X181870471Y-181629628D02*
X180870471Y-181629628D01*
X181156185Y-181629628D02*
X181013328Y-181701057D01*
X180941900Y-181772485D01*
X180870471Y-181915342D01*
X180870471Y-182058200D01*
X180870471Y-182558200D02*
X181870471Y-182558200D01*
X181013328Y-182558200D02*
X180941900Y-182629628D01*
X180870471Y-182772485D01*
X180870471Y-182986771D01*
X180941900Y-183129628D01*
X181084757Y-183201057D01*
X181870471Y-183201057D01*
X181799042Y-184486771D02*
X181870471Y-184343914D01*
X181870471Y-184058200D01*
X181799042Y-183915342D01*
X181656185Y-183843914D01*
X181084757Y-183843914D01*
X180941900Y-183915342D01*
X180870471Y-184058200D01*
X180870471Y-184343914D01*
X180941900Y-184486771D01*
X181084757Y-184558200D01*
X181227614Y-184558200D01*
X181370471Y-183843914D01*
X180870471Y-184986771D02*
X180870471Y-185558200D01*
X180370471Y-185201057D02*
X181656185Y-185201057D01*
X181799042Y-185272485D01*
X181870471Y-185415342D01*
X181870471Y-185558200D01*
X181799042Y-187129628D02*
X181870471Y-187343914D01*
X181870471Y-187701057D01*
X181799042Y-187843914D01*
X181727614Y-187915342D01*
X181584757Y-187986771D01*
X181441900Y-187986771D01*
X181299042Y-187915342D01*
X181227614Y-187843914D01*
X181156185Y-187701057D01*
X181084757Y-187415342D01*
X181013328Y-187272485D01*
X180941900Y-187201057D01*
X180799042Y-187129628D01*
X180656185Y-187129628D01*
X180513328Y-187201057D01*
X180441900Y-187272485D01*
X180370471Y-187415342D01*
X180370471Y-187772485D01*
X180441900Y-187986771D01*
X181870471Y-188843914D02*
X181799042Y-188701057D01*
X181727614Y-188629628D01*
X181584757Y-188558200D01*
X181156185Y-188558200D01*
X181013328Y-188629628D01*
X180941900Y-188701057D01*
X180870471Y-188843914D01*
X180870471Y-189058200D01*
X180941900Y-189201057D01*
X181013328Y-189272485D01*
X181156185Y-189343914D01*
X181584757Y-189343914D01*
X181727614Y-189272485D01*
X181799042Y-189201057D01*
X181870471Y-189058200D01*
X181870471Y-188843914D01*
X181870471Y-190201057D02*
X181799042Y-190058200D01*
X181656185Y-189986771D01*
X180370471Y-189986771D01*
X180870471Y-191415342D02*
X181870471Y-191415342D01*
X180870471Y-190772485D02*
X181656185Y-190772485D01*
X181799042Y-190843914D01*
X181870471Y-190986771D01*
X181870471Y-191201057D01*
X181799042Y-191343914D01*
X181727614Y-191415342D01*
X180870471Y-191915342D02*
X180870471Y-192486771D01*
X180370471Y-192129628D02*
X181656185Y-192129628D01*
X181799042Y-192201057D01*
X181870471Y-192343914D01*
X181870471Y-192486771D01*
X181870471Y-192986771D02*
X180870471Y-192986771D01*
X180370471Y-192986771D02*
X180441900Y-192915342D01*
X180513328Y-192986771D01*
X180441900Y-193058200D01*
X180370471Y-192986771D01*
X180513328Y-192986771D01*
X181870471Y-193915342D02*
X181799042Y-193772485D01*
X181727614Y-193701057D01*
X181584757Y-193629628D01*
X181156185Y-193629628D01*
X181013328Y-193701057D01*
X180941900Y-193772485D01*
X180870471Y-193915342D01*
X180870471Y-194129628D01*
X180941900Y-194272485D01*
X181013328Y-194343914D01*
X181156185Y-194415342D01*
X181584757Y-194415342D01*
X181727614Y-194343914D01*
X181799042Y-194272485D01*
X181870471Y-194129628D01*
X181870471Y-193915342D01*
X180870471Y-195058200D02*
X181870471Y-195058200D01*
X181013328Y-195058200D02*
X180941900Y-195129628D01*
X180870471Y-195272485D01*
X180870471Y-195486771D01*
X180941900Y-195629628D01*
X181084757Y-195701057D01*
X181870471Y-195701057D01*
X181799042Y-196343914D02*
X181870471Y-196486771D01*
X181870471Y-196772485D01*
X181799042Y-196915342D01*
X181656185Y-196986771D01*
X181584757Y-196986771D01*
X181441900Y-196915342D01*
X181370471Y-196772485D01*
X181370471Y-196558200D01*
X181299042Y-196415342D01*
X181156185Y-196343914D01*
X181084757Y-196343914D01*
X180941900Y-196415342D01*
X180870471Y-196558200D01*
X180870471Y-196772485D01*
X180941900Y-196915342D01*
X181799042Y-197701057D02*
X181870471Y-197701057D01*
X182013328Y-197629628D01*
X182084757Y-197558200D01*
X181870471Y-199486771D02*
X180370471Y-199486771D01*
X180870471Y-200201057D02*
X181870471Y-200201057D01*
X181013328Y-200201057D02*
X180941900Y-200272485D01*
X180870471Y-200415342D01*
X180870471Y-200629628D01*
X180941900Y-200772485D01*
X181084757Y-200843914D01*
X181870471Y-200843914D01*
X181799042Y-202201057D02*
X181870471Y-202058200D01*
X181870471Y-201772485D01*
X181799042Y-201629628D01*
X181727614Y-201558200D01*
X181584757Y-201486771D01*
X181156185Y-201486771D01*
X181013328Y-201558200D01*
X180941900Y-201629628D01*
X180870471Y-201772485D01*
X180870471Y-202058200D01*
X180941900Y-202201057D01*
X181727614Y-202843914D02*
X181799042Y-202915342D01*
X181870471Y-202843914D01*
X181799042Y-202772485D01*
X181727614Y-202843914D01*
X181870471Y-202843914D01*
D11*
%TO.C,Feed4*%
X72180571Y-125848142D02*
X72180571Y-125514809D01*
X72704380Y-125514809D02*
X71704380Y-125514809D01*
X71704380Y-125991000D01*
X72656761Y-126752904D02*
X72704380Y-126657666D01*
X72704380Y-126467190D01*
X72656761Y-126371952D01*
X72561523Y-126324333D01*
X72180571Y-126324333D01*
X72085333Y-126371952D01*
X72037714Y-126467190D01*
X72037714Y-126657666D01*
X72085333Y-126752904D01*
X72180571Y-126800523D01*
X72275809Y-126800523D01*
X72371047Y-126324333D01*
X72656761Y-127610047D02*
X72704380Y-127514809D01*
X72704380Y-127324333D01*
X72656761Y-127229095D01*
X72561523Y-127181476D01*
X72180571Y-127181476D01*
X72085333Y-127229095D01*
X72037714Y-127324333D01*
X72037714Y-127514809D01*
X72085333Y-127610047D01*
X72180571Y-127657666D01*
X72275809Y-127657666D01*
X72371047Y-127181476D01*
X72704380Y-128514809D02*
X71704380Y-128514809D01*
X72656761Y-128514809D02*
X72704380Y-128419571D01*
X72704380Y-128229095D01*
X72656761Y-128133857D01*
X72609142Y-128086238D01*
X72513904Y-128038619D01*
X72228190Y-128038619D01*
X72132952Y-128086238D01*
X72085333Y-128133857D01*
X72037714Y-128229095D01*
X72037714Y-128419571D01*
X72085333Y-128514809D01*
X72037714Y-129419571D02*
X72704380Y-129419571D01*
X71656761Y-129181476D02*
X72371047Y-128943380D01*
X72371047Y-129562428D01*
%TO.C,Feed1*%
X68587453Y-101023607D02*
X68587453Y-101356940D01*
X68063644Y-101356940D02*
X69063644Y-101356940D01*
X69063644Y-100880750D01*
X68111263Y-100118845D02*
X68063644Y-100214083D01*
X68063644Y-100404559D01*
X68111263Y-100499797D01*
X68206501Y-100547416D01*
X68587453Y-100547416D01*
X68682691Y-100499797D01*
X68730310Y-100404559D01*
X68730310Y-100214083D01*
X68682691Y-100118845D01*
X68587453Y-100071226D01*
X68492215Y-100071226D01*
X68396977Y-100547416D01*
X68111263Y-99261702D02*
X68063644Y-99356940D01*
X68063644Y-99547416D01*
X68111263Y-99642654D01*
X68206501Y-99690273D01*
X68587453Y-99690273D01*
X68682691Y-99642654D01*
X68730310Y-99547416D01*
X68730310Y-99356940D01*
X68682691Y-99261702D01*
X68587453Y-99214083D01*
X68492215Y-99214083D01*
X68396977Y-99690273D01*
X68063644Y-98356940D02*
X69063644Y-98356940D01*
X68111263Y-98356940D02*
X68063644Y-98452178D01*
X68063644Y-98642654D01*
X68111263Y-98737892D01*
X68158882Y-98785511D01*
X68254120Y-98833130D01*
X68539834Y-98833130D01*
X68635072Y-98785511D01*
X68682691Y-98737892D01*
X68730310Y-98642654D01*
X68730310Y-98452178D01*
X68682691Y-98356940D01*
X68063644Y-97356940D02*
X68063644Y-97928369D01*
X68063644Y-97642654D02*
X69063644Y-97642654D01*
X68920786Y-97737892D01*
X68825548Y-97833130D01*
X68777929Y-97928369D01*
%TO.C,Feed3*%
X152602428Y-129171857D02*
X152602428Y-129505190D01*
X152078619Y-129505190D02*
X153078619Y-129505190D01*
X153078619Y-129029000D01*
X152126238Y-128267095D02*
X152078619Y-128362333D01*
X152078619Y-128552809D01*
X152126238Y-128648047D01*
X152221476Y-128695666D01*
X152602428Y-128695666D01*
X152697666Y-128648047D01*
X152745285Y-128552809D01*
X152745285Y-128362333D01*
X152697666Y-128267095D01*
X152602428Y-128219476D01*
X152507190Y-128219476D01*
X152411952Y-128695666D01*
X152126238Y-127409952D02*
X152078619Y-127505190D01*
X152078619Y-127695666D01*
X152126238Y-127790904D01*
X152221476Y-127838523D01*
X152602428Y-127838523D01*
X152697666Y-127790904D01*
X152745285Y-127695666D01*
X152745285Y-127505190D01*
X152697666Y-127409952D01*
X152602428Y-127362333D01*
X152507190Y-127362333D01*
X152411952Y-127838523D01*
X152078619Y-126505190D02*
X153078619Y-126505190D01*
X152126238Y-126505190D02*
X152078619Y-126600428D01*
X152078619Y-126790904D01*
X152126238Y-126886142D01*
X152173857Y-126933761D01*
X152269095Y-126981380D01*
X152554809Y-126981380D01*
X152650047Y-126933761D01*
X152697666Y-126886142D01*
X152745285Y-126790904D01*
X152745285Y-126600428D01*
X152697666Y-126505190D01*
X153078619Y-126124238D02*
X153078619Y-125505190D01*
X152697666Y-125838523D01*
X152697666Y-125695666D01*
X152650047Y-125600428D01*
X152602428Y-125552809D01*
X152507190Y-125505190D01*
X152269095Y-125505190D01*
X152173857Y-125552809D01*
X152126238Y-125600428D01*
X152078619Y-125695666D01*
X152078619Y-125981380D01*
X152126238Y-126076619D01*
X152173857Y-126124238D01*
%TO.C,Feed2*%
X148597571Y-97912142D02*
X148597571Y-97578809D01*
X149121380Y-97578809D02*
X148121380Y-97578809D01*
X148121380Y-98055000D01*
X149073761Y-98816904D02*
X149121380Y-98721666D01*
X149121380Y-98531190D01*
X149073761Y-98435952D01*
X148978523Y-98388333D01*
X148597571Y-98388333D01*
X148502333Y-98435952D01*
X148454714Y-98531190D01*
X148454714Y-98721666D01*
X148502333Y-98816904D01*
X148597571Y-98864523D01*
X148692809Y-98864523D01*
X148788047Y-98388333D01*
X149073761Y-99674047D02*
X149121380Y-99578809D01*
X149121380Y-99388333D01*
X149073761Y-99293095D01*
X148978523Y-99245476D01*
X148597571Y-99245476D01*
X148502333Y-99293095D01*
X148454714Y-99388333D01*
X148454714Y-99578809D01*
X148502333Y-99674047D01*
X148597571Y-99721666D01*
X148692809Y-99721666D01*
X148788047Y-99245476D01*
X149121380Y-100578809D02*
X148121380Y-100578809D01*
X149073761Y-100578809D02*
X149121380Y-100483571D01*
X149121380Y-100293095D01*
X149073761Y-100197857D01*
X149026142Y-100150238D01*
X148930904Y-100102619D01*
X148645190Y-100102619D01*
X148549952Y-100150238D01*
X148502333Y-100197857D01*
X148454714Y-100293095D01*
X148454714Y-100483571D01*
X148502333Y-100578809D01*
X148216619Y-101007380D02*
X148169000Y-101055000D01*
X148121380Y-101150238D01*
X148121380Y-101388333D01*
X148169000Y-101483571D01*
X148216619Y-101531190D01*
X148311857Y-101578809D01*
X148407095Y-101578809D01*
X148549952Y-101531190D01*
X149121380Y-100959761D01*
X149121380Y-101578809D01*
%TD*%
M02*
