M48
; DRILL file {KiCad 5.99.0-unknown-64afa3a42e~128~ubuntu20.04.1} date Tue May 18 17:39:40 2021
; FORMAT={-:-/ absolute / inch / decimal}
; #@! TF.CreationDate,2021-05-18T17:39:40-05:00
; #@! TF.GenerationSoftware,Kicad,Pcbnew,5.99.0-unknown-64afa3a42e~128~ubuntu20.04.1
; #@! TF.FileFunction,MixedPlating,1,2
FMAT,2
INCH
; #@! TA.AperFunction,Plated,PTH,ViaDrill
T1C0.0158
; #@! TA.AperFunction,Plated,PTH,ComponentDrill
T2C0.0984
; #@! TA.AperFunction,NonPlated,NPTH,ComponentDrill
T3C0.0394
%
G90
G05
T1
X2.6992Y-5.0898
X2.6992Y-5.1993
X2.8538Y-3.7416
X2.8538Y-3.8511
X5.8488Y-5.0898
X5.8488Y-5.1993
X6.0034Y-3.7416
X6.0034Y-3.8511
T2
X0.4724Y-0.7087
X0.4724Y-8.189
X0.6299Y-4.4488
X3.6614Y-0.1969
X3.6614Y-4.4488
X3.6614Y-8.7008
X6.6929Y-4.4488
X6.8504Y-0.7087
X6.8504Y-8.189
T3
X2.7762Y-3.9132
X2.7768Y-5.0277
X5.9258Y-3.9132
X5.9264Y-5.0277
T0
M30
