G04 #@! TF.GenerationSoftware,KiCad,Pcbnew,5.99.0-unknown-64afa3a42e~128~ubuntu20.04.1*
G04 #@! TF.CreationDate,2021-05-28T16:02:49-05:00*
G04 #@! TF.ProjectId,Feeds,46656564-732e-46b6-9963-61645f706362,rev?*
G04 #@! TF.SameCoordinates,Original*
G04 #@! TF.FileFunction,Copper,L1,Top*
G04 #@! TF.FilePolarity,Positive*
%FSLAX46Y46*%
G04 Gerber Fmt 4.6, Leading zero omitted, Abs format (unit mm)*
G04 Created by KiCad (PCBNEW 5.99.0-unknown-64afa3a42e~128~ubuntu20.04.1) date 2021-05-28 16:02:49*
%MOMM*%
%LPD*%
G01*
G04 APERTURE LIST*
G04 #@! TA.AperFunction,ComponentPad*
%ADD10C,2.900000*%
G04 #@! TD*
G04 #@! TA.AperFunction,ConnectorPad*
%ADD11C,5.000000*%
G04 #@! TD*
G04 #@! TA.AperFunction,SMDPad,CuDef*
%ADD12C,1.000000*%
G04 #@! TD*
G04 #@! TA.AperFunction,ViaPad*
%ADD13C,0.800100*%
G04 #@! TD*
G04 #@! TA.AperFunction,Conductor*
%ADD14C,0.254000*%
G04 #@! TD*
G04 APERTURE END LIST*
D10*
G04 #@! TO.P,H10,1,1*
G04 #@! TO.N,N/C*
X93000000Y-5000000D03*
D11*
X93000000Y-5000000D03*
G04 #@! TD*
D10*
G04 #@! TO.P,H12,1,1*
G04 #@! TO.N,N/C*
X170000000Y-113000000D03*
D11*
X170000000Y-113000000D03*
G04 #@! TD*
G04 #@! TO.P,H12,1,1*
G04 #@! TO.N,N/C*
X92855436Y-112957000D03*
D10*
X92855436Y-112957000D03*
G04 #@! TD*
G04 #@! TO.P,H4,1,1*
G04 #@! TO.N,N/C*
X174000000Y-208000000D03*
D11*
X174000000Y-208000000D03*
G04 #@! TD*
D10*
G04 #@! TO.P,H9,1,1*
G04 #@! TO.N,N/C*
X93000000Y-221000000D03*
D11*
X93000000Y-221000000D03*
G04 #@! TD*
D10*
G04 #@! TO.P,H2,1,1*
G04 #@! TO.N,N/C*
X174000000Y-18000000D03*
D11*
X174000000Y-18000000D03*
G04 #@! TD*
G04 #@! TO.P,H3,1,1*
G04 #@! TO.N,N/C*
X12000000Y-208000000D03*
D10*
X12000000Y-208000000D03*
G04 #@! TD*
D11*
G04 #@! TO.P,H1,1,1*
G04 #@! TO.N,N/C*
X12000000Y-18000000D03*
D10*
X12000000Y-18000000D03*
G04 #@! TD*
D11*
G04 #@! TO.P,H11,1,1*
G04 #@! TO.N,N/C*
X16000000Y-113000000D03*
D10*
X16000000Y-113000000D03*
G04 #@! TD*
D12*
G04 #@! TO.P,Feed4,2,Shield*
G04 #@! TO.N,GND*
X111500129Y-112950000D03*
G04 #@! TD*
G04 #@! TO.P,Feed4,2,Shield*
G04 #@! TO.N,GND*
X71500129Y-112950000D03*
G04 #@! TD*
G04 #@! TO.P,Feed4,2,Shield*
G04 #@! TO.N,GND*
X151500129Y-112950000D03*
G04 #@! TD*
G04 #@! TO.P,Feed4,2,Shield*
G04 #@! TO.N,GND*
X31500129Y-112950000D03*
G04 #@! TD*
D13*
G04 #@! TO.N,GND*
X63141129Y-111029000D03*
X143141129Y-111029000D03*
X103141129Y-111029000D03*
X23141129Y-111029000D03*
X145923129Y-111029000D03*
X25923129Y-111029000D03*
X105923129Y-111029000D03*
X65923129Y-111029000D03*
G04 #@! TD*
G04 #@! TO.N,GND*
D14*
X185366000Y-107366000D02*
X180078879Y-107366000D01*
X180050366Y-107361890D01*
X180030966Y-107360609D01*
X179789573Y-107363338D01*
X179775764Y-107362443D01*
X179756321Y-107362686D01*
X179743268Y-107363861D01*
X179733432Y-107363972D01*
X179715586Y-107365446D01*
X179701596Y-107367611D01*
X179288234Y-107404814D01*
X179271315Y-107405239D01*
X179251974Y-107407224D01*
X179242629Y-107408920D01*
X179236450Y-107409476D01*
X179218770Y-107412345D01*
X179202246Y-107416249D01*
X178789557Y-107491140D01*
X178772740Y-107493080D01*
X178753655Y-107496791D01*
X178744505Y-107499316D01*
X178738390Y-107500426D01*
X178721040Y-107504868D01*
X178704923Y-107510241D01*
X178300619Y-107621821D01*
X178284045Y-107625260D01*
X178265370Y-107630666D01*
X178256479Y-107634003D01*
X178250489Y-107635656D01*
X178233609Y-107641634D01*
X178218039Y-107648429D01*
X177825355Y-107795806D01*
X177809165Y-107800714D01*
X177791049Y-107807773D01*
X177782503Y-107811888D01*
X177776677Y-107814075D01*
X177760399Y-107821544D01*
X177745500Y-107829709D01*
X177367613Y-108011689D01*
X177351922Y-108018031D01*
X177334513Y-108026685D01*
X177326366Y-108031553D01*
X177320767Y-108034249D01*
X177305223Y-108043147D01*
X177291120Y-108052611D01*
X176931062Y-108267735D01*
X176916004Y-108275457D01*
X176899440Y-108285637D01*
X176891763Y-108291215D01*
X176886425Y-108294404D01*
X176871742Y-108304660D01*
X176858550Y-108315345D01*
X176519228Y-108561878D01*
X176504913Y-108570925D01*
X176489331Y-108582547D01*
X176482181Y-108588794D01*
X176477150Y-108592449D01*
X176463447Y-108603978D01*
X176451259Y-108615810D01*
X176135401Y-108891767D01*
X176121966Y-108902052D01*
X176107488Y-108915024D01*
X176100928Y-108921885D01*
X176096241Y-108925980D01*
X176083631Y-108938686D01*
X176072546Y-108951570D01*
X175782709Y-109254715D01*
X175770241Y-109266172D01*
X175756983Y-109280392D01*
X175751067Y-109287811D01*
X175746766Y-109292309D01*
X175735341Y-109306101D01*
X175725471Y-109319906D01*
X175463955Y-109647835D01*
X175452571Y-109660355D01*
X175440638Y-109675709D01*
X175435406Y-109683635D01*
X175431536Y-109688488D01*
X175421392Y-109703249D01*
X175412794Y-109717892D01*
X175181739Y-110067926D01*
X175171514Y-110081428D01*
X175161007Y-110097789D01*
X175156513Y-110106141D01*
X175153084Y-110111335D01*
X175144304Y-110126947D01*
X175137051Y-110142308D01*
X174938304Y-110511638D01*
X174929332Y-110526001D01*
X174920335Y-110543236D01*
X174916603Y-110551967D01*
X174913658Y-110557440D01*
X174906314Y-110573773D01*
X174900468Y-110589717D01*
X174735630Y-110975375D01*
X174727977Y-110990493D01*
X174720561Y-111008464D01*
X174717627Y-111017492D01*
X174715185Y-111023207D01*
X174709335Y-111040132D01*
X174704943Y-111056533D01*
X174575335Y-111455426D01*
X174569071Y-111471161D01*
X174563295Y-111489729D01*
X174561184Y-111498981D01*
X174559263Y-111504891D01*
X174554952Y-111522276D01*
X174552048Y-111539004D01*
X174458715Y-111947920D01*
X174453890Y-111964142D01*
X174449802Y-111983147D01*
X174448528Y-111992550D01*
X174447143Y-111998619D01*
X174444410Y-112016314D01*
X174443017Y-112033232D01*
X174386714Y-112448877D01*
X174383364Y-112465461D01*
X174380996Y-112484755D01*
X174380570Y-112494240D01*
X174379735Y-112500404D01*
X174378599Y-112518271D01*
X174378728Y-112535251D01*
X174359910Y-112954264D01*
X174358059Y-112971087D01*
X174357430Y-112990519D01*
X174357856Y-112999999D01*
X174357577Y-113006206D01*
X174358047Y-113024109D01*
X174359697Y-113041006D01*
X174378515Y-113460014D01*
X174378180Y-113476942D01*
X174379295Y-113496348D01*
X174380570Y-113505761D01*
X174380849Y-113511972D01*
X174382922Y-113529757D01*
X174386079Y-113546430D01*
X174442381Y-113962074D01*
X174443564Y-113978958D01*
X174446416Y-113998193D01*
X174448528Y-114007444D01*
X174449361Y-114013597D01*
X174453020Y-114031133D01*
X174457665Y-114047476D01*
X174550992Y-114456369D01*
X174553685Y-114473089D01*
X174558249Y-114491988D01*
X174561182Y-114501016D01*
X174562566Y-114507078D01*
X174567782Y-114524211D01*
X174573871Y-114540066D01*
X174703480Y-114938966D01*
X174707658Y-114955365D01*
X174713895Y-114973775D01*
X174717627Y-114982506D01*
X174719549Y-114988422D01*
X174726278Y-115005012D01*
X174733755Y-115020241D01*
X174898608Y-115405934D01*
X174904241Y-115421897D01*
X174912105Y-115439674D01*
X174916602Y-115448031D01*
X174919047Y-115453751D01*
X174927236Y-115469673D01*
X174936060Y-115484190D01*
X175134803Y-115853518D01*
X175141851Y-115868926D01*
X175151280Y-115885932D01*
X175156508Y-115893852D01*
X175159451Y-115899321D01*
X175169040Y-115914453D01*
X175179117Y-115928102D01*
X175410182Y-116278151D01*
X175418576Y-116292855D01*
X175429488Y-116308945D01*
X175435412Y-116316374D01*
X175438835Y-116321559D01*
X175449736Y-116335763D01*
X175460996Y-116348455D01*
X175722518Y-116676392D01*
X175732191Y-116690276D01*
X175744501Y-116705322D01*
X175751067Y-116712190D01*
X175754940Y-116717046D01*
X175767070Y-116730217D01*
X175779439Y-116741864D01*
X176069281Y-117045016D01*
X176080164Y-117057982D01*
X176093776Y-117071866D01*
X176100920Y-117078108D01*
X176105220Y-117082605D01*
X176118486Y-117094638D01*
X176131838Y-117105120D01*
X176447701Y-117381083D01*
X176459700Y-117393019D01*
X176474497Y-117405624D01*
X176482188Y-117411212D01*
X176486865Y-117415298D01*
X176501147Y-117426087D01*
X176515385Y-117435331D01*
X176854719Y-117681871D01*
X176867739Y-117692683D01*
X176883610Y-117703913D01*
X176891754Y-117708779D01*
X176896789Y-117712437D01*
X176911989Y-117721907D01*
X176927006Y-117729841D01*
X177287050Y-117944957D01*
X177300996Y-117954565D01*
X177317810Y-117964327D01*
X177326365Y-117968447D01*
X177331701Y-117971635D01*
X177347689Y-117979704D01*
X177363343Y-117986254D01*
X177741244Y-118168242D01*
X177755987Y-118176557D01*
X177773608Y-118184773D01*
X177782497Y-118188109D01*
X177788095Y-118190805D01*
X177804743Y-118197409D01*
X177820924Y-118202530D01*
X178213610Y-118349908D01*
X178229040Y-118356868D01*
X178247327Y-118363472D01*
X178256492Y-118366002D01*
X178262305Y-118368183D01*
X178279472Y-118373267D01*
X178296056Y-118376920D01*
X178700354Y-118488498D01*
X178716356Y-118494051D01*
X178735168Y-118498990D01*
X178744512Y-118500685D01*
X178750492Y-118502336D01*
X178768051Y-118505862D01*
X178784886Y-118508013D01*
X179197575Y-118582903D01*
X179214006Y-118586998D01*
X179233180Y-118590230D01*
X179242637Y-118591081D01*
X179248753Y-118592191D01*
X179266558Y-118594129D01*
X179283537Y-118594762D01*
X179697124Y-118631986D01*
X179710788Y-118634272D01*
X179730154Y-118635991D01*
X179743269Y-118636139D01*
X179753055Y-118637020D01*
X179770963Y-118637353D01*
X179785076Y-118636611D01*
X180027688Y-118639354D01*
X180045563Y-118638283D01*
X180078086Y-118634000D01*
X185366000Y-118634000D01*
X185366000Y-225366000D01*
X634000Y-225366000D01*
X634000Y-220908642D01*
X89862030Y-220908642D01*
X89871112Y-221255461D01*
X89872326Y-221269917D01*
X89921210Y-221613394D01*
X89924077Y-221627613D01*
X90012115Y-221963196D01*
X90016598Y-221976993D01*
X90142624Y-222300232D01*
X90148663Y-222313421D01*
X90311006Y-222620033D01*
X90318520Y-222632441D01*
X90515028Y-222918362D01*
X90523919Y-222929824D01*
X90751988Y-223191264D01*
X90762137Y-223201628D01*
X91018743Y-223435122D01*
X91030017Y-223444252D01*
X91311760Y-223646705D01*
X91324008Y-223654477D01*
X91627153Y-223823206D01*
X91640213Y-223829520D01*
X91960742Y-223962287D01*
X91974441Y-223967057D01*
X92308106Y-224062104D01*
X92322263Y-224065269D01*
X92664641Y-224121336D01*
X92679068Y-224122852D01*
X93025622Y-224139195D01*
X93040127Y-224139043D01*
X93386262Y-224115446D01*
X93400654Y-224113628D01*
X93741783Y-224050403D01*
X93755870Y-224046943D01*
X94087471Y-223944929D01*
X94101067Y-223939872D01*
X94418745Y-223800421D01*
X94431670Y-223793836D01*
X94731215Y-223618796D01*
X94743298Y-223610768D01*
X95020740Y-223402459D01*
X95031820Y-223393096D01*
X95283480Y-223154280D01*
X95293410Y-223143706D01*
X95515953Y-222877547D01*
X95524602Y-222865901D01*
X95715080Y-222575927D01*
X95722333Y-222563364D01*
X95878219Y-222253419D01*
X95883980Y-222240106D01*
X96003208Y-221914298D01*
X96007401Y-221900411D01*
X96088392Y-221563059D01*
X96090960Y-221548783D01*
X96132641Y-221204357D01*
X96133492Y-221193176D01*
X96139438Y-221003957D01*
X96139291Y-220992747D01*
X96119320Y-220646384D01*
X96117653Y-220631974D01*
X96058004Y-220290202D01*
X96054691Y-220276079D01*
X95956155Y-219943427D01*
X95951241Y-219929778D01*
X95815124Y-219610657D01*
X95808675Y-219597664D01*
X95636782Y-219296302D01*
X95628881Y-219284136D01*
X95423489Y-219004529D01*
X95414242Y-218993352D01*
X95178073Y-218739205D01*
X95167604Y-218729165D01*
X94903790Y-218503846D01*
X94892235Y-218495075D01*
X94604272Y-218301572D01*
X94591786Y-218294188D01*
X94283491Y-218135065D01*
X94270239Y-218129165D01*
X93945697Y-218006531D01*
X93931855Y-218002193D01*
X93595370Y-217917673D01*
X93581120Y-217914955D01*
X93237149Y-217869671D01*
X93222682Y-217868609D01*
X92875787Y-217863159D01*
X92861294Y-217863766D01*
X92516071Y-217898224D01*
X92501743Y-217900493D01*
X92162768Y-217974402D01*
X92148796Y-217978303D01*
X91820563Y-218090682D01*
X91807133Y-218096163D01*
X91493991Y-218245524D01*
X91481279Y-218252513D01*
X91187380Y-218436875D01*
X91175555Y-218445278D01*
X90904794Y-218662199D01*
X90894014Y-218671905D01*
X90649979Y-218918509D01*
X90640386Y-218929391D01*
X90426313Y-219202409D01*
X90418034Y-219214320D01*
X90236759Y-219510133D01*
X90229904Y-219522918D01*
X90083831Y-219837607D01*
X90078491Y-219851094D01*
X89969555Y-220180486D01*
X89965801Y-220194498D01*
X89895446Y-220534228D01*
X89893327Y-220548578D01*
X89862486Y-220894143D01*
X89862030Y-220908642D01*
X634000Y-220908642D01*
X634000Y-207908642D01*
X8862030Y-207908642D01*
X8871112Y-208255461D01*
X8872326Y-208269917D01*
X8921210Y-208613394D01*
X8924077Y-208627613D01*
X9012115Y-208963196D01*
X9016598Y-208976993D01*
X9142624Y-209300232D01*
X9148663Y-209313421D01*
X9311006Y-209620033D01*
X9318520Y-209632441D01*
X9515028Y-209918362D01*
X9523919Y-209929824D01*
X9751988Y-210191264D01*
X9762137Y-210201628D01*
X10018743Y-210435122D01*
X10030017Y-210444252D01*
X10311760Y-210646705D01*
X10324008Y-210654477D01*
X10627153Y-210823206D01*
X10640213Y-210829520D01*
X10960742Y-210962287D01*
X10974441Y-210967057D01*
X11308106Y-211062104D01*
X11322263Y-211065269D01*
X11664641Y-211121336D01*
X11679068Y-211122852D01*
X12025622Y-211139195D01*
X12040127Y-211139043D01*
X12386262Y-211115446D01*
X12400654Y-211113628D01*
X12741783Y-211050403D01*
X12755870Y-211046943D01*
X13087471Y-210944929D01*
X13101067Y-210939872D01*
X13418745Y-210800421D01*
X13431670Y-210793836D01*
X13731215Y-210618796D01*
X13743298Y-210610768D01*
X14020740Y-210402459D01*
X14031820Y-210393096D01*
X14283480Y-210154280D01*
X14293410Y-210143706D01*
X14515953Y-209877547D01*
X14524602Y-209865901D01*
X14715080Y-209575927D01*
X14722333Y-209563364D01*
X14878219Y-209253419D01*
X14883980Y-209240106D01*
X15003208Y-208914298D01*
X15007401Y-208900411D01*
X15088392Y-208563059D01*
X15090960Y-208548783D01*
X15132641Y-208204357D01*
X15133492Y-208193176D01*
X15139438Y-208003957D01*
X15139291Y-207992747D01*
X15134442Y-207908642D01*
X170862030Y-207908642D01*
X170871112Y-208255461D01*
X170872326Y-208269917D01*
X170921210Y-208613394D01*
X170924077Y-208627613D01*
X171012115Y-208963196D01*
X171016598Y-208976993D01*
X171142624Y-209300232D01*
X171148663Y-209313421D01*
X171311006Y-209620033D01*
X171318520Y-209632441D01*
X171515028Y-209918362D01*
X171523919Y-209929824D01*
X171751988Y-210191264D01*
X171762137Y-210201628D01*
X172018743Y-210435122D01*
X172030017Y-210444252D01*
X172311760Y-210646705D01*
X172324008Y-210654477D01*
X172627153Y-210823206D01*
X172640213Y-210829520D01*
X172960742Y-210962287D01*
X172974441Y-210967057D01*
X173308106Y-211062104D01*
X173322263Y-211065269D01*
X173664641Y-211121336D01*
X173679068Y-211122852D01*
X174025622Y-211139195D01*
X174040127Y-211139043D01*
X174386262Y-211115446D01*
X174400654Y-211113628D01*
X174741783Y-211050403D01*
X174755870Y-211046943D01*
X175087471Y-210944929D01*
X175101067Y-210939872D01*
X175418745Y-210800421D01*
X175431670Y-210793836D01*
X175731215Y-210618796D01*
X175743298Y-210610768D01*
X176020740Y-210402459D01*
X176031820Y-210393096D01*
X176283480Y-210154280D01*
X176293410Y-210143706D01*
X176515953Y-209877547D01*
X176524602Y-209865901D01*
X176715080Y-209575927D01*
X176722333Y-209563364D01*
X176878219Y-209253419D01*
X176883980Y-209240106D01*
X177003208Y-208914298D01*
X177007401Y-208900411D01*
X177088392Y-208563059D01*
X177090960Y-208548783D01*
X177132641Y-208204357D01*
X177133492Y-208193176D01*
X177139438Y-208003957D01*
X177139291Y-207992747D01*
X177119320Y-207646384D01*
X177117653Y-207631974D01*
X177058004Y-207290202D01*
X177054691Y-207276079D01*
X176956155Y-206943427D01*
X176951241Y-206929778D01*
X176815124Y-206610657D01*
X176808675Y-206597664D01*
X176636782Y-206296302D01*
X176628881Y-206284136D01*
X176423489Y-206004529D01*
X176414242Y-205993352D01*
X176178073Y-205739205D01*
X176167604Y-205729165D01*
X175903790Y-205503846D01*
X175892235Y-205495075D01*
X175604272Y-205301572D01*
X175591786Y-205294188D01*
X175283491Y-205135065D01*
X175270239Y-205129165D01*
X174945697Y-205006531D01*
X174931855Y-205002193D01*
X174595370Y-204917673D01*
X174581120Y-204914955D01*
X174237149Y-204869671D01*
X174222682Y-204868609D01*
X173875787Y-204863159D01*
X173861294Y-204863766D01*
X173516071Y-204898224D01*
X173501743Y-204900493D01*
X173162768Y-204974402D01*
X173148796Y-204978303D01*
X172820563Y-205090682D01*
X172807133Y-205096163D01*
X172493991Y-205245524D01*
X172481279Y-205252513D01*
X172187380Y-205436875D01*
X172175555Y-205445278D01*
X171904794Y-205662199D01*
X171894014Y-205671905D01*
X171649979Y-205918509D01*
X171640386Y-205929391D01*
X171426313Y-206202409D01*
X171418034Y-206214320D01*
X171236759Y-206510133D01*
X171229904Y-206522918D01*
X171083831Y-206837607D01*
X171078491Y-206851094D01*
X170969555Y-207180486D01*
X170965801Y-207194498D01*
X170895446Y-207534228D01*
X170893327Y-207548578D01*
X170862486Y-207894143D01*
X170862030Y-207908642D01*
X15134442Y-207908642D01*
X15119320Y-207646384D01*
X15117653Y-207631974D01*
X15058004Y-207290202D01*
X15054691Y-207276079D01*
X14956155Y-206943427D01*
X14951241Y-206929778D01*
X14815124Y-206610657D01*
X14808675Y-206597664D01*
X14636782Y-206296302D01*
X14628881Y-206284136D01*
X14423489Y-206004529D01*
X14414242Y-205993352D01*
X14178073Y-205739205D01*
X14167604Y-205729165D01*
X13903790Y-205503846D01*
X13892235Y-205495075D01*
X13604272Y-205301572D01*
X13591786Y-205294188D01*
X13283491Y-205135065D01*
X13270239Y-205129165D01*
X12945697Y-205006531D01*
X12931855Y-205002193D01*
X12595370Y-204917673D01*
X12581120Y-204914955D01*
X12237149Y-204869671D01*
X12222682Y-204868609D01*
X11875787Y-204863159D01*
X11861294Y-204863766D01*
X11516071Y-204898224D01*
X11501743Y-204900493D01*
X11162768Y-204974402D01*
X11148796Y-204978303D01*
X10820563Y-205090682D01*
X10807133Y-205096163D01*
X10493991Y-205245524D01*
X10481279Y-205252513D01*
X10187380Y-205436875D01*
X10175555Y-205445278D01*
X9904794Y-205662199D01*
X9894014Y-205671905D01*
X9649979Y-205918509D01*
X9640386Y-205929391D01*
X9426313Y-206202409D01*
X9418034Y-206214320D01*
X9236759Y-206510133D01*
X9229904Y-206522918D01*
X9083831Y-206837607D01*
X9078491Y-206851094D01*
X8969555Y-207180486D01*
X8965801Y-207194498D01*
X8895446Y-207534228D01*
X8893327Y-207548578D01*
X8862486Y-207894143D01*
X8862030Y-207908642D01*
X634000Y-207908642D01*
X634000Y-165790000D01*
X41600850Y-165790000D01*
X41600850Y-180210000D01*
X41620852Y-180278121D01*
X41674508Y-180324614D01*
X41726850Y-180336000D01*
X42273150Y-180336000D01*
X42341271Y-180315998D01*
X42387764Y-180262342D01*
X42399150Y-180210000D01*
X42399150Y-165790000D01*
X81600850Y-165790000D01*
X81600850Y-180210000D01*
X81620852Y-180278121D01*
X81674508Y-180324614D01*
X81726850Y-180336000D01*
X82273150Y-180336000D01*
X82341271Y-180315998D01*
X82387764Y-180262342D01*
X82399150Y-180210000D01*
X82399150Y-165790000D01*
X121600850Y-165790000D01*
X121600850Y-180210000D01*
X121620852Y-180278121D01*
X121674508Y-180324614D01*
X121726850Y-180336000D01*
X122273150Y-180336000D01*
X122341271Y-180315998D01*
X122387764Y-180262342D01*
X122399150Y-180210000D01*
X122399150Y-165790000D01*
X161600850Y-165790000D01*
X161600850Y-180210000D01*
X161620852Y-180278121D01*
X161674508Y-180324614D01*
X161726850Y-180336000D01*
X162273150Y-180336000D01*
X162341271Y-180315998D01*
X162387764Y-180262342D01*
X162399150Y-180210000D01*
X162399150Y-165790000D01*
X162379148Y-165721879D01*
X162325492Y-165675386D01*
X162273150Y-165664000D01*
X161726850Y-165664000D01*
X161658729Y-165684002D01*
X161612236Y-165737658D01*
X161600850Y-165790000D01*
X122399150Y-165790000D01*
X122379148Y-165721879D01*
X122325492Y-165675386D01*
X122273150Y-165664000D01*
X121726850Y-165664000D01*
X121658729Y-165684002D01*
X121612236Y-165737658D01*
X121600850Y-165790000D01*
X82399150Y-165790000D01*
X82379148Y-165721879D01*
X82325492Y-165675386D01*
X82273150Y-165664000D01*
X81726850Y-165664000D01*
X81658729Y-165684002D01*
X81612236Y-165737658D01*
X81600850Y-165790000D01*
X42399150Y-165790000D01*
X42379148Y-165721879D01*
X42325492Y-165675386D01*
X42273150Y-165664000D01*
X41726850Y-165664000D01*
X41658729Y-165684002D01*
X41612236Y-165737658D01*
X41600850Y-165790000D01*
X634000Y-165790000D01*
X634000Y-125790000D01*
X41600850Y-125790000D01*
X41600850Y-140210000D01*
X41620852Y-140278121D01*
X41674508Y-140324614D01*
X41726850Y-140336000D01*
X42273150Y-140336000D01*
X42341271Y-140315998D01*
X42387764Y-140262342D01*
X42399150Y-140210000D01*
X42399150Y-125790000D01*
X81600850Y-125790000D01*
X81600850Y-140210000D01*
X81620852Y-140278121D01*
X81674508Y-140324614D01*
X81726850Y-140336000D01*
X82273150Y-140336000D01*
X82341271Y-140315998D01*
X82387764Y-140262342D01*
X82399150Y-140210000D01*
X82399150Y-125790000D01*
X121600850Y-125790000D01*
X121600850Y-140210000D01*
X121620852Y-140278121D01*
X121674508Y-140324614D01*
X121726850Y-140336000D01*
X122273150Y-140336000D01*
X122341271Y-140315998D01*
X122387764Y-140262342D01*
X122399150Y-140210000D01*
X122399150Y-125790000D01*
X161600850Y-125790000D01*
X161600850Y-140210000D01*
X161620852Y-140278121D01*
X161674508Y-140324614D01*
X161726850Y-140336000D01*
X162273150Y-140336000D01*
X162341271Y-140315998D01*
X162387764Y-140262342D01*
X162399150Y-140210000D01*
X162399150Y-125790000D01*
X162379148Y-125721879D01*
X162325492Y-125675386D01*
X162273150Y-125664000D01*
X161726850Y-125664000D01*
X161658729Y-125684002D01*
X161612236Y-125737658D01*
X161600850Y-125790000D01*
X122399150Y-125790000D01*
X122379148Y-125721879D01*
X122325492Y-125675386D01*
X122273150Y-125664000D01*
X121726850Y-125664000D01*
X121658729Y-125684002D01*
X121612236Y-125737658D01*
X121600850Y-125790000D01*
X82399150Y-125790000D01*
X82379148Y-125721879D01*
X82325492Y-125675386D01*
X82273150Y-125664000D01*
X81726850Y-125664000D01*
X81658729Y-125684002D01*
X81612236Y-125737658D01*
X81600850Y-125790000D01*
X42399150Y-125790000D01*
X42379148Y-125721879D01*
X42325492Y-125675386D01*
X42273150Y-125664000D01*
X41726850Y-125664000D01*
X41658729Y-125684002D01*
X41612236Y-125737658D01*
X41600850Y-125790000D01*
X634000Y-125790000D01*
X634000Y-118634000D01*
X5921121Y-118634000D01*
X5949634Y-118638110D01*
X5969034Y-118639391D01*
X6210427Y-118636662D01*
X6224236Y-118637557D01*
X6243679Y-118637314D01*
X6256732Y-118636139D01*
X6266568Y-118636028D01*
X6284414Y-118634554D01*
X6298405Y-118632389D01*
X6711768Y-118595185D01*
X6728679Y-118594761D01*
X6748026Y-118592776D01*
X6757371Y-118591080D01*
X6763550Y-118590524D01*
X6781230Y-118587655D01*
X6797754Y-118583751D01*
X7210434Y-118508861D01*
X7227257Y-118506921D01*
X7246342Y-118503210D01*
X7255494Y-118500684D01*
X7261612Y-118499574D01*
X7278961Y-118495132D01*
X7295086Y-118489756D01*
X7699380Y-118378179D01*
X7715955Y-118374740D01*
X7734630Y-118369334D01*
X7743521Y-118365997D01*
X7749511Y-118364344D01*
X7766389Y-118358367D01*
X7781963Y-118351570D01*
X8174628Y-118204200D01*
X8190838Y-118199286D01*
X8208948Y-118192229D01*
X8217507Y-118188108D01*
X8223327Y-118185923D01*
X8239599Y-118178457D01*
X8254501Y-118170291D01*
X8632360Y-117988323D01*
X8648077Y-117981971D01*
X8665488Y-117973315D01*
X8673643Y-117968442D01*
X8679232Y-117965751D01*
X8694780Y-117956851D01*
X8708870Y-117947395D01*
X9068935Y-117732268D01*
X9083997Y-117724543D01*
X9100560Y-117714363D01*
X9108237Y-117708785D01*
X9113575Y-117705596D01*
X9128258Y-117695340D01*
X9141450Y-117684655D01*
X9480772Y-117438122D01*
X9495087Y-117429075D01*
X9510669Y-117417453D01*
X9517819Y-117411206D01*
X9522850Y-117407551D01*
X9536553Y-117396022D01*
X9548741Y-117384190D01*
X9864588Y-117108243D01*
X9878036Y-117097948D01*
X9892516Y-117084973D01*
X9899075Y-117078113D01*
X9903755Y-117074024D01*
X9916371Y-117061312D01*
X9927448Y-117048437D01*
X10217292Y-116745284D01*
X10229759Y-116733828D01*
X10243017Y-116719608D01*
X10248933Y-116712189D01*
X10253234Y-116707691D01*
X10264659Y-116693899D01*
X10274538Y-116680082D01*
X10536035Y-116352176D01*
X10547431Y-116339643D01*
X10559362Y-116324291D01*
X10564594Y-116316365D01*
X10568464Y-116311512D01*
X10578609Y-116296750D01*
X10587211Y-116282100D01*
X10818261Y-115932073D01*
X10828485Y-115918573D01*
X10838993Y-115902211D01*
X10843487Y-115893859D01*
X10846916Y-115888665D01*
X10855694Y-115873057D01*
X10862950Y-115857692D01*
X11061697Y-115488359D01*
X11070667Y-115474000D01*
X11079665Y-115456765D01*
X11083395Y-115448038D01*
X11086343Y-115442560D01*
X11093685Y-115426230D01*
X11099526Y-115410299D01*
X11264373Y-115024618D01*
X11272023Y-115009507D01*
X11279440Y-114991534D01*
X11282377Y-114982493D01*
X11284813Y-114976795D01*
X11290664Y-114959869D01*
X11295054Y-114943480D01*
X11424665Y-114544576D01*
X11430930Y-114528837D01*
X11436705Y-114510271D01*
X11438816Y-114501019D01*
X11440737Y-114495109D01*
X11445048Y-114477724D01*
X11447952Y-114460996D01*
X11541285Y-114052080D01*
X11546110Y-114035858D01*
X11550198Y-114016853D01*
X11551472Y-114007450D01*
X11552857Y-114001381D01*
X11555590Y-113983686D01*
X11556983Y-113966768D01*
X11613286Y-113551123D01*
X11616636Y-113534539D01*
X11619004Y-113515245D01*
X11619430Y-113505760D01*
X11620265Y-113499596D01*
X11621401Y-113481729D01*
X11621272Y-113464749D01*
X11640090Y-113045736D01*
X11641941Y-113028913D01*
X11642570Y-113009481D01*
X11642144Y-113000000D01*
X11642423Y-112993794D01*
X11641953Y-112975891D01*
X11640303Y-112958994D01*
X11638042Y-112908642D01*
X12862030Y-112908642D01*
X12871112Y-113255461D01*
X12872326Y-113269917D01*
X12921210Y-113613394D01*
X12924077Y-113627613D01*
X13012115Y-113963196D01*
X13016598Y-113976993D01*
X13142624Y-114300232D01*
X13148663Y-114313421D01*
X13311006Y-114620033D01*
X13318520Y-114632441D01*
X13515028Y-114918362D01*
X13523919Y-114929824D01*
X13751988Y-115191264D01*
X13762137Y-115201628D01*
X14018743Y-115435122D01*
X14030017Y-115444252D01*
X14311760Y-115646705D01*
X14324008Y-115654477D01*
X14627153Y-115823206D01*
X14640213Y-115829520D01*
X14960742Y-115962287D01*
X14974441Y-115967057D01*
X15308106Y-116062104D01*
X15322263Y-116065269D01*
X15664641Y-116121336D01*
X15679068Y-116122852D01*
X16025622Y-116139195D01*
X16040127Y-116139043D01*
X16386262Y-116115446D01*
X16400654Y-116113628D01*
X16741783Y-116050403D01*
X16755870Y-116046943D01*
X17087471Y-115944929D01*
X17101067Y-115939872D01*
X17418745Y-115800421D01*
X17431670Y-115793836D01*
X17731215Y-115618796D01*
X17743298Y-115610768D01*
X18020740Y-115402459D01*
X18031820Y-115393096D01*
X18283480Y-115154280D01*
X18293410Y-115143706D01*
X18515953Y-114877547D01*
X18524602Y-114865901D01*
X18715080Y-114575927D01*
X18722333Y-114563364D01*
X18878219Y-114253419D01*
X18883980Y-114240106D01*
X19003208Y-113914298D01*
X19007401Y-113900411D01*
X19088392Y-113563059D01*
X19090960Y-113548783D01*
X19132641Y-113204357D01*
X19133492Y-113193176D01*
X19139438Y-113003957D01*
X19139291Y-112992747D01*
X19137077Y-112954344D01*
X26361173Y-112954344D01*
X26379100Y-113151331D01*
X26383707Y-113175486D01*
X26439554Y-113365239D01*
X26448766Y-113388039D01*
X26540406Y-113563330D01*
X26553871Y-113583907D01*
X26677814Y-113738061D01*
X26695020Y-113755631D01*
X26846544Y-113882775D01*
X26866834Y-113896668D01*
X27040168Y-113991959D01*
X27062770Y-114001646D01*
X27251312Y-114061455D01*
X27275366Y-114066568D01*
X27428239Y-114083715D01*
X27442284Y-114084500D01*
X27551123Y-114084500D01*
X27563418Y-114083899D01*
X27709281Y-114069597D01*
X27733404Y-114064820D01*
X27922762Y-114007649D01*
X27945497Y-113998279D01*
X28120144Y-113905418D01*
X28140627Y-113891809D01*
X28293912Y-113766793D01*
X28311361Y-113749465D01*
X28437444Y-113597057D01*
X28451195Y-113576670D01*
X28545273Y-113402675D01*
X28554802Y-113380007D01*
X28613294Y-113191052D01*
X28618239Y-113166962D01*
X28638914Y-112970246D01*
X28639025Y-112954344D01*
X66361173Y-112954344D01*
X66379100Y-113151331D01*
X66383707Y-113175486D01*
X66439554Y-113365239D01*
X66448766Y-113388039D01*
X66540406Y-113563330D01*
X66553871Y-113583907D01*
X66677814Y-113738061D01*
X66695020Y-113755631D01*
X66846544Y-113882775D01*
X66866834Y-113896668D01*
X67040168Y-113991959D01*
X67062770Y-114001646D01*
X67251312Y-114061455D01*
X67275366Y-114066568D01*
X67428239Y-114083715D01*
X67442284Y-114084500D01*
X67551123Y-114084500D01*
X67563418Y-114083899D01*
X67709281Y-114069597D01*
X67733404Y-114064820D01*
X67922762Y-114007649D01*
X67945497Y-113998279D01*
X68120144Y-113905418D01*
X68140627Y-113891809D01*
X68293912Y-113766793D01*
X68311361Y-113749465D01*
X68437444Y-113597057D01*
X68451195Y-113576670D01*
X68545273Y-113402675D01*
X68554802Y-113380007D01*
X68613294Y-113191052D01*
X68618239Y-113166962D01*
X68638914Y-112970246D01*
X68638934Y-112967367D01*
X78600578Y-112967367D01*
X78600619Y-112979018D01*
X78608946Y-113146284D01*
X78621369Y-113395817D01*
X78622486Y-113407415D01*
X78681647Y-113820515D01*
X78683830Y-113831959D01*
X78780896Y-114237828D01*
X78784127Y-114249022D01*
X78918268Y-114644190D01*
X78922519Y-114655038D01*
X79092589Y-115036126D01*
X79097824Y-115046535D01*
X79302368Y-115410284D01*
X79308542Y-115420165D01*
X79545811Y-115763465D01*
X79552872Y-115772733D01*
X79820838Y-116092648D01*
X79828724Y-116101224D01*
X80125095Y-116395020D01*
X80133740Y-116402831D01*
X80455981Y-116667995D01*
X80465311Y-116674975D01*
X80810669Y-116909239D01*
X80820603Y-116915327D01*
X81186123Y-117116689D01*
X81196577Y-117121833D01*
X81579134Y-117288571D01*
X81590018Y-117292727D01*
X81986342Y-117423415D01*
X81997564Y-117426548D01*
X82404265Y-117520068D01*
X82415729Y-117522152D01*
X82829329Y-117577706D01*
X82840936Y-117578721D01*
X83257900Y-117595832D01*
X83269551Y-117595771D01*
X83686313Y-117574294D01*
X83697908Y-117573157D01*
X84110904Y-117513276D01*
X84122345Y-117511073D01*
X84528044Y-117413298D01*
X84539233Y-117410047D01*
X84934166Y-117275216D01*
X84945006Y-117270946D01*
X85325796Y-117100212D01*
X85336196Y-117094959D01*
X85699588Y-116889780D01*
X85709458Y-116883588D01*
X86052343Y-116645720D01*
X86061598Y-116638644D01*
X86381046Y-116370121D01*
X86389609Y-116362219D01*
X86682887Y-116065335D01*
X86690683Y-116056677D01*
X86955283Y-115733973D01*
X86962246Y-115724632D01*
X87195908Y-115378866D01*
X87201979Y-115368920D01*
X87402702Y-115003049D01*
X87407827Y-114992587D01*
X87573897Y-114609740D01*
X87578035Y-114598848D01*
X87708031Y-114202297D01*
X87711144Y-114191069D01*
X87803955Y-113784205D01*
X87806019Y-113772738D01*
X87860850Y-113359042D01*
X87861827Y-113347873D01*
X87878321Y-112962386D01*
X87878301Y-112951175D01*
X87874342Y-112865642D01*
X89717466Y-112865642D01*
X89726548Y-113212461D01*
X89727762Y-113226917D01*
X89776646Y-113570394D01*
X89779513Y-113584613D01*
X89867551Y-113920196D01*
X89872034Y-113933993D01*
X89998060Y-114257232D01*
X90004099Y-114270421D01*
X90166442Y-114577033D01*
X90173956Y-114589441D01*
X90370464Y-114875362D01*
X90379355Y-114886824D01*
X90607424Y-115148264D01*
X90617573Y-115158628D01*
X90874179Y-115392122D01*
X90885453Y-115401252D01*
X91167196Y-115603705D01*
X91179444Y-115611477D01*
X91482589Y-115780206D01*
X91495649Y-115786520D01*
X91816178Y-115919287D01*
X91829877Y-115924057D01*
X92163542Y-116019104D01*
X92177699Y-116022269D01*
X92520077Y-116078336D01*
X92534504Y-116079852D01*
X92881058Y-116096195D01*
X92895563Y-116096043D01*
X93241698Y-116072446D01*
X93256090Y-116070628D01*
X93597219Y-116007403D01*
X93611306Y-116003943D01*
X93942907Y-115901929D01*
X93956503Y-115896872D01*
X94274181Y-115757421D01*
X94287106Y-115750836D01*
X94586651Y-115575796D01*
X94598734Y-115567768D01*
X94876176Y-115359459D01*
X94887256Y-115350096D01*
X95138916Y-115111280D01*
X95148846Y-115100706D01*
X95371389Y-114834547D01*
X95380038Y-114822901D01*
X95570516Y-114532927D01*
X95577769Y-114520364D01*
X95733655Y-114210419D01*
X95739416Y-114197106D01*
X95858644Y-113871298D01*
X95862837Y-113857411D01*
X95943828Y-113520059D01*
X95946396Y-113505783D01*
X95988077Y-113161357D01*
X95988928Y-113150176D01*
X95994874Y-112960957D01*
X95994787Y-112954344D01*
X106361173Y-112954344D01*
X106379100Y-113151331D01*
X106383707Y-113175486D01*
X106439554Y-113365239D01*
X106448766Y-113388039D01*
X106540406Y-113563330D01*
X106553871Y-113583907D01*
X106677814Y-113738061D01*
X106695020Y-113755631D01*
X106846544Y-113882775D01*
X106866834Y-113896668D01*
X107040168Y-113991959D01*
X107062770Y-114001646D01*
X107251312Y-114061455D01*
X107275366Y-114066568D01*
X107428239Y-114083715D01*
X107442284Y-114084500D01*
X107551123Y-114084500D01*
X107563418Y-114083899D01*
X107709281Y-114069597D01*
X107733404Y-114064820D01*
X107922762Y-114007649D01*
X107945497Y-113998279D01*
X108120144Y-113905418D01*
X108140627Y-113891809D01*
X108293912Y-113766793D01*
X108311361Y-113749465D01*
X108437444Y-113597057D01*
X108451195Y-113576670D01*
X108545273Y-113402675D01*
X108554802Y-113380007D01*
X108613294Y-113191052D01*
X108618239Y-113166962D01*
X108638914Y-112970246D01*
X108639025Y-112954344D01*
X146361173Y-112954344D01*
X146379100Y-113151331D01*
X146383707Y-113175486D01*
X146439554Y-113365239D01*
X146448766Y-113388039D01*
X146540406Y-113563330D01*
X146553871Y-113583907D01*
X146677814Y-113738061D01*
X146695020Y-113755631D01*
X146846544Y-113882775D01*
X146866834Y-113896668D01*
X147040168Y-113991959D01*
X147062770Y-114001646D01*
X147251312Y-114061455D01*
X147275366Y-114066568D01*
X147428239Y-114083715D01*
X147442284Y-114084500D01*
X147551123Y-114084500D01*
X147563418Y-114083899D01*
X147709281Y-114069597D01*
X147733404Y-114064820D01*
X147922762Y-114007649D01*
X147945497Y-113998279D01*
X148120144Y-113905418D01*
X148140627Y-113891809D01*
X148293912Y-113766793D01*
X148311361Y-113749465D01*
X148437444Y-113597057D01*
X148451195Y-113576670D01*
X148545273Y-113402675D01*
X148554802Y-113380007D01*
X148613294Y-113191052D01*
X148618239Y-113166962D01*
X148638914Y-112970246D01*
X148639085Y-112945656D01*
X148635717Y-112908642D01*
X166862030Y-112908642D01*
X166871112Y-113255461D01*
X166872326Y-113269917D01*
X166921210Y-113613394D01*
X166924077Y-113627613D01*
X167012115Y-113963196D01*
X167016598Y-113976993D01*
X167142624Y-114300232D01*
X167148663Y-114313421D01*
X167311006Y-114620033D01*
X167318520Y-114632441D01*
X167515028Y-114918362D01*
X167523919Y-114929824D01*
X167751988Y-115191264D01*
X167762137Y-115201628D01*
X168018743Y-115435122D01*
X168030017Y-115444252D01*
X168311760Y-115646705D01*
X168324008Y-115654477D01*
X168627153Y-115823206D01*
X168640213Y-115829520D01*
X168960742Y-115962287D01*
X168974441Y-115967057D01*
X169308106Y-116062104D01*
X169322263Y-116065269D01*
X169664641Y-116121336D01*
X169679068Y-116122852D01*
X170025622Y-116139195D01*
X170040127Y-116139043D01*
X170386262Y-116115446D01*
X170400654Y-116113628D01*
X170741783Y-116050403D01*
X170755870Y-116046943D01*
X171087471Y-115944929D01*
X171101067Y-115939872D01*
X171418745Y-115800421D01*
X171431670Y-115793836D01*
X171731215Y-115618796D01*
X171743298Y-115610768D01*
X172020740Y-115402459D01*
X172031820Y-115393096D01*
X172283480Y-115154280D01*
X172293410Y-115143706D01*
X172515953Y-114877547D01*
X172524602Y-114865901D01*
X172715080Y-114575927D01*
X172722333Y-114563364D01*
X172878219Y-114253419D01*
X172883980Y-114240106D01*
X173003208Y-113914298D01*
X173007401Y-113900411D01*
X173088392Y-113563059D01*
X173090960Y-113548783D01*
X173132641Y-113204357D01*
X173133492Y-113193176D01*
X173139438Y-113003957D01*
X173139291Y-112992747D01*
X173119320Y-112646384D01*
X173117653Y-112631974D01*
X173058004Y-112290202D01*
X173054691Y-112276079D01*
X172956155Y-111943427D01*
X172951241Y-111929778D01*
X172815124Y-111610657D01*
X172808675Y-111597664D01*
X172636782Y-111296302D01*
X172628881Y-111284136D01*
X172423489Y-111004529D01*
X172414242Y-110993352D01*
X172178073Y-110739205D01*
X172167604Y-110729165D01*
X171903790Y-110503846D01*
X171892235Y-110495075D01*
X171604272Y-110301572D01*
X171591786Y-110294188D01*
X171283491Y-110135065D01*
X171270239Y-110129165D01*
X170945697Y-110006531D01*
X170931855Y-110002193D01*
X170595370Y-109917673D01*
X170581120Y-109914955D01*
X170237149Y-109869671D01*
X170222682Y-109868609D01*
X169875787Y-109863159D01*
X169861294Y-109863766D01*
X169516071Y-109898224D01*
X169501743Y-109900493D01*
X169162768Y-109974402D01*
X169148796Y-109978303D01*
X168820563Y-110090682D01*
X168807133Y-110096163D01*
X168493991Y-110245524D01*
X168481279Y-110252513D01*
X168187380Y-110436875D01*
X168175555Y-110445278D01*
X167904794Y-110662199D01*
X167894014Y-110671905D01*
X167649979Y-110918509D01*
X167640386Y-110929391D01*
X167426313Y-111202409D01*
X167418034Y-111214320D01*
X167236759Y-111510133D01*
X167229904Y-111522918D01*
X167083831Y-111837607D01*
X167078491Y-111851094D01*
X166969555Y-112180486D01*
X166965801Y-112194498D01*
X166895446Y-112534228D01*
X166893327Y-112548578D01*
X166862486Y-112894143D01*
X166862030Y-112908642D01*
X148635717Y-112908642D01*
X148621158Y-112748669D01*
X148616551Y-112724514D01*
X148560704Y-112534761D01*
X148551492Y-112511961D01*
X148459852Y-112336670D01*
X148446387Y-112316093D01*
X148322444Y-112161939D01*
X148305238Y-112144369D01*
X148153714Y-112017225D01*
X148133424Y-112003332D01*
X147960090Y-111908041D01*
X147937488Y-111898354D01*
X147748946Y-111838545D01*
X147724892Y-111833432D01*
X147572019Y-111816285D01*
X147557974Y-111815500D01*
X147449135Y-111815500D01*
X147436840Y-111816101D01*
X147290977Y-111830403D01*
X147266854Y-111835180D01*
X147077496Y-111892351D01*
X147054761Y-111901721D01*
X146880114Y-111994582D01*
X146859631Y-112008191D01*
X146706346Y-112133207D01*
X146688897Y-112150535D01*
X146562814Y-112302943D01*
X146549063Y-112323330D01*
X146454985Y-112497325D01*
X146445456Y-112519993D01*
X146386964Y-112708948D01*
X146382019Y-112733038D01*
X146361344Y-112929754D01*
X146361173Y-112954344D01*
X108639025Y-112954344D01*
X108639085Y-112945656D01*
X108621158Y-112748669D01*
X108616551Y-112724514D01*
X108560704Y-112534761D01*
X108551492Y-112511961D01*
X108459852Y-112336670D01*
X108446387Y-112316093D01*
X108322444Y-112161939D01*
X108305238Y-112144369D01*
X108153714Y-112017225D01*
X108133424Y-112003332D01*
X107960090Y-111908041D01*
X107937488Y-111898354D01*
X107748946Y-111838545D01*
X107724892Y-111833432D01*
X107572019Y-111816285D01*
X107557974Y-111815500D01*
X107449135Y-111815500D01*
X107436840Y-111816101D01*
X107290977Y-111830403D01*
X107266854Y-111835180D01*
X107077496Y-111892351D01*
X107054761Y-111901721D01*
X106880114Y-111994582D01*
X106859631Y-112008191D01*
X106706346Y-112133207D01*
X106688897Y-112150535D01*
X106562814Y-112302943D01*
X106549063Y-112323330D01*
X106454985Y-112497325D01*
X106445456Y-112519993D01*
X106386964Y-112708948D01*
X106382019Y-112733038D01*
X106361344Y-112929754D01*
X106361173Y-112954344D01*
X95994787Y-112954344D01*
X95994727Y-112949747D01*
X95974756Y-112603384D01*
X95973089Y-112588974D01*
X95913440Y-112247202D01*
X95910127Y-112233079D01*
X95811591Y-111900427D01*
X95806677Y-111886778D01*
X95670560Y-111567657D01*
X95664111Y-111554664D01*
X95492218Y-111253302D01*
X95484317Y-111241136D01*
X95278925Y-110961529D01*
X95269678Y-110950352D01*
X95033509Y-110696205D01*
X95023040Y-110686165D01*
X94759226Y-110460846D01*
X94747671Y-110452075D01*
X94459708Y-110258572D01*
X94447222Y-110251188D01*
X94138927Y-110092065D01*
X94125675Y-110086165D01*
X93801133Y-109963531D01*
X93787291Y-109959193D01*
X93450806Y-109874673D01*
X93436556Y-109871955D01*
X93092585Y-109826671D01*
X93078118Y-109825609D01*
X92731223Y-109820159D01*
X92716730Y-109820766D01*
X92371507Y-109855224D01*
X92357179Y-109857493D01*
X92018204Y-109931402D01*
X92004232Y-109935303D01*
X91675999Y-110047682D01*
X91662569Y-110053163D01*
X91349427Y-110202524D01*
X91336715Y-110209513D01*
X91042816Y-110393875D01*
X91030991Y-110402278D01*
X90760230Y-110619199D01*
X90749450Y-110628905D01*
X90505415Y-110875509D01*
X90495822Y-110886391D01*
X90281749Y-111159409D01*
X90273470Y-111171320D01*
X90092195Y-111467133D01*
X90085340Y-111479918D01*
X89939267Y-111794607D01*
X89933927Y-111808094D01*
X89824991Y-112137486D01*
X89821237Y-112151498D01*
X89750882Y-112491228D01*
X89748763Y-112505578D01*
X89717922Y-112851143D01*
X89717466Y-112865642D01*
X87874342Y-112865642D01*
X87859007Y-112534307D01*
X87857931Y-112522705D01*
X87800212Y-112109401D01*
X87798069Y-112097949D01*
X87702421Y-111691743D01*
X87699229Y-111680537D01*
X87566467Y-111284903D01*
X87562254Y-111274041D01*
X87393516Y-110892362D01*
X87388317Y-110881935D01*
X87185044Y-110517474D01*
X87178904Y-110507571D01*
X86942834Y-110163445D01*
X86935806Y-110154153D01*
X86668959Y-109833304D01*
X86661103Y-109824700D01*
X86365759Y-109529872D01*
X86357141Y-109522031D01*
X86035827Y-109255744D01*
X86026522Y-109248732D01*
X85681985Y-109013263D01*
X85672072Y-109007140D01*
X85307257Y-108804504D01*
X85296821Y-108799324D01*
X84914848Y-108631252D01*
X84903978Y-108627057D01*
X84508113Y-108494986D01*
X84496902Y-108491814D01*
X84090530Y-108396875D01*
X84079074Y-108394752D01*
X83665670Y-108337755D01*
X83654067Y-108336699D01*
X83237165Y-108318132D01*
X83225514Y-108318152D01*
X82808680Y-108338174D01*
X82797080Y-108339271D01*
X82383878Y-108397710D01*
X82372430Y-108399873D01*
X81966392Y-108496231D01*
X81955192Y-108499442D01*
X81559790Y-108632893D01*
X81548935Y-108637126D01*
X81167551Y-108806531D01*
X81157133Y-108811748D01*
X80793028Y-109015657D01*
X80783136Y-109021813D01*
X80439422Y-109258482D01*
X80430142Y-109265527D01*
X80109759Y-109532934D01*
X80101168Y-109540805D01*
X79806856Y-109836663D01*
X79799030Y-109845294D01*
X79533304Y-110167073D01*
X79526309Y-110176391D01*
X79291442Y-110521339D01*
X79285337Y-110531262D01*
X79083338Y-110896430D01*
X79078175Y-110906875D01*
X78910770Y-111289140D01*
X78906595Y-111300017D01*
X78775215Y-111696112D01*
X78772062Y-111707329D01*
X78677832Y-112113866D01*
X78675729Y-112125326D01*
X78619454Y-112538829D01*
X78618418Y-112550434D01*
X78600578Y-112967367D01*
X68638934Y-112967367D01*
X68639085Y-112945656D01*
X68621158Y-112748669D01*
X68616551Y-112724514D01*
X68560704Y-112534761D01*
X68551492Y-112511961D01*
X68459852Y-112336670D01*
X68446387Y-112316093D01*
X68322444Y-112161939D01*
X68305238Y-112144369D01*
X68153714Y-112017225D01*
X68133424Y-112003332D01*
X67960090Y-111908041D01*
X67937488Y-111898354D01*
X67748946Y-111838545D01*
X67724892Y-111833432D01*
X67572019Y-111816285D01*
X67557974Y-111815500D01*
X67449135Y-111815500D01*
X67436840Y-111816101D01*
X67290977Y-111830403D01*
X67266854Y-111835180D01*
X67077496Y-111892351D01*
X67054761Y-111901721D01*
X66880114Y-111994582D01*
X66859631Y-112008191D01*
X66706346Y-112133207D01*
X66688897Y-112150535D01*
X66562814Y-112302943D01*
X66549063Y-112323330D01*
X66454985Y-112497325D01*
X66445456Y-112519993D01*
X66386964Y-112708948D01*
X66382019Y-112733038D01*
X66361344Y-112929754D01*
X66361173Y-112954344D01*
X28639025Y-112954344D01*
X28639085Y-112945656D01*
X28621158Y-112748669D01*
X28616551Y-112724514D01*
X28560704Y-112534761D01*
X28551492Y-112511961D01*
X28459852Y-112336670D01*
X28446387Y-112316093D01*
X28322444Y-112161939D01*
X28305238Y-112144369D01*
X28153714Y-112017225D01*
X28133424Y-112003332D01*
X27960090Y-111908041D01*
X27937488Y-111898354D01*
X27748946Y-111838545D01*
X27724892Y-111833432D01*
X27572019Y-111816285D01*
X27557974Y-111815500D01*
X27449135Y-111815500D01*
X27436840Y-111816101D01*
X27290977Y-111830403D01*
X27266854Y-111835180D01*
X27077496Y-111892351D01*
X27054761Y-111901721D01*
X26880114Y-111994582D01*
X26859631Y-112008191D01*
X26706346Y-112133207D01*
X26688897Y-112150535D01*
X26562814Y-112302943D01*
X26549063Y-112323330D01*
X26454985Y-112497325D01*
X26445456Y-112519993D01*
X26386964Y-112708948D01*
X26382019Y-112733038D01*
X26361344Y-112929754D01*
X26361173Y-112954344D01*
X19137077Y-112954344D01*
X19119320Y-112646384D01*
X19117653Y-112631974D01*
X19058004Y-112290202D01*
X19054691Y-112276079D01*
X18956155Y-111943427D01*
X18951241Y-111929778D01*
X18815124Y-111610657D01*
X18808675Y-111597664D01*
X18636782Y-111296302D01*
X18628881Y-111284136D01*
X18423489Y-111004529D01*
X18414242Y-110993352D01*
X18178073Y-110739205D01*
X18167604Y-110729165D01*
X17903790Y-110503846D01*
X17892235Y-110495075D01*
X17604272Y-110301572D01*
X17591786Y-110294188D01*
X17283491Y-110135065D01*
X17270239Y-110129165D01*
X16945697Y-110006531D01*
X16931855Y-110002193D01*
X16595370Y-109917673D01*
X16581120Y-109914955D01*
X16237149Y-109869671D01*
X16222682Y-109868609D01*
X15875787Y-109863159D01*
X15861294Y-109863766D01*
X15516071Y-109898224D01*
X15501743Y-109900493D01*
X15162768Y-109974402D01*
X15148796Y-109978303D01*
X14820563Y-110090682D01*
X14807133Y-110096163D01*
X14493991Y-110245524D01*
X14481279Y-110252513D01*
X14187380Y-110436875D01*
X14175555Y-110445278D01*
X13904794Y-110662199D01*
X13894014Y-110671905D01*
X13649979Y-110918509D01*
X13640386Y-110929391D01*
X13426313Y-111202409D01*
X13418034Y-111214320D01*
X13236759Y-111510133D01*
X13229904Y-111522918D01*
X13083831Y-111837607D01*
X13078491Y-111851094D01*
X12969555Y-112180486D01*
X12965801Y-112194498D01*
X12895446Y-112534228D01*
X12893327Y-112548578D01*
X12862486Y-112894143D01*
X12862030Y-112908642D01*
X11638042Y-112908642D01*
X11621485Y-112539986D01*
X11621820Y-112523058D01*
X11620705Y-112503652D01*
X11619430Y-112494239D01*
X11619151Y-112488028D01*
X11617078Y-112470243D01*
X11613921Y-112453570D01*
X11557619Y-112037926D01*
X11556436Y-112021042D01*
X11553585Y-112001810D01*
X11551474Y-111992559D01*
X11550639Y-111986398D01*
X11546980Y-111968868D01*
X11542338Y-111952533D01*
X11449007Y-111543627D01*
X11446315Y-111526913D01*
X11441750Y-111508009D01*
X11438815Y-111498978D01*
X11437434Y-111492925D01*
X11432219Y-111475791D01*
X11426130Y-111459935D01*
X11296526Y-111061055D01*
X11292343Y-111044637D01*
X11286104Y-111026224D01*
X11282370Y-111017487D01*
X11280450Y-111011579D01*
X11273720Y-110994986D01*
X11266241Y-110979754D01*
X11101396Y-110594081D01*
X11095760Y-110578107D01*
X11087896Y-110560327D01*
X11083393Y-110551959D01*
X11080952Y-110546248D01*
X11072762Y-110530325D01*
X11063945Y-110515820D01*
X10865193Y-110146475D01*
X10858147Y-110131072D01*
X10848721Y-110114070D01*
X10843491Y-110106147D01*
X10840547Y-110100676D01*
X10830960Y-110085547D01*
X10820874Y-110071884D01*
X10589818Y-109721848D01*
X10581422Y-109707142D01*
X10570508Y-109691052D01*
X10564597Y-109683640D01*
X10561168Y-109678445D01*
X10550266Y-109664239D01*
X10538993Y-109651532D01*
X10277481Y-109323608D01*
X10267811Y-109309727D01*
X10255500Y-109294679D01*
X10248933Y-109287811D01*
X10245061Y-109282955D01*
X10232929Y-109269783D01*
X10220572Y-109258147D01*
X9930724Y-108954990D01*
X9919836Y-108942017D01*
X9906224Y-108928133D01*
X9899075Y-108921887D01*
X9894782Y-108917397D01*
X9881514Y-108905362D01*
X9868161Y-108894879D01*
X9552305Y-108618924D01*
X9540300Y-108606981D01*
X9525503Y-108594376D01*
X9517812Y-108588788D01*
X9513135Y-108584702D01*
X9498853Y-108573913D01*
X9484615Y-108564669D01*
X9145281Y-108318129D01*
X9132261Y-108307317D01*
X9116390Y-108296087D01*
X9108246Y-108291221D01*
X9103211Y-108287563D01*
X9088011Y-108278093D01*
X9072994Y-108270159D01*
X8712946Y-108055040D01*
X8699005Y-108045436D01*
X8682190Y-108035673D01*
X8673635Y-108031553D01*
X8668299Y-108028365D01*
X8652311Y-108020296D01*
X8636657Y-108013746D01*
X8258758Y-107831758D01*
X8244010Y-107823441D01*
X8226390Y-107815227D01*
X8217506Y-107811893D01*
X8211906Y-107809196D01*
X8195257Y-107802591D01*
X8179071Y-107797468D01*
X7786386Y-107650090D01*
X7770957Y-107643131D01*
X7752673Y-107636528D01*
X7743508Y-107633998D01*
X7737695Y-107631817D01*
X7720528Y-107626733D01*
X7703944Y-107623080D01*
X7299646Y-107511502D01*
X7283644Y-107505949D01*
X7264832Y-107501010D01*
X7255488Y-107499315D01*
X7249508Y-107497664D01*
X7231949Y-107494138D01*
X7215114Y-107491987D01*
X6802425Y-107417097D01*
X6785994Y-107413002D01*
X6766820Y-107409770D01*
X6757363Y-107408919D01*
X6751247Y-107407809D01*
X6733442Y-107405871D01*
X6716463Y-107405238D01*
X6302876Y-107368014D01*
X6289212Y-107365728D01*
X6269846Y-107364009D01*
X6256731Y-107363861D01*
X6246945Y-107362980D01*
X6229037Y-107362647D01*
X6214924Y-107363389D01*
X5972312Y-107360646D01*
X5954437Y-107361717D01*
X5921914Y-107366000D01*
X634000Y-107366000D01*
X634000Y-85790000D01*
X41600850Y-85790000D01*
X41600850Y-100210000D01*
X41620852Y-100278121D01*
X41674508Y-100324614D01*
X41726850Y-100336000D01*
X42273150Y-100336000D01*
X42341271Y-100315998D01*
X42387764Y-100262342D01*
X42399150Y-100210000D01*
X42399150Y-85790000D01*
X81600850Y-85790000D01*
X81600850Y-100210000D01*
X81620852Y-100278121D01*
X81674508Y-100324614D01*
X81726850Y-100336000D01*
X82273150Y-100336000D01*
X82341271Y-100315998D01*
X82387764Y-100262342D01*
X82399150Y-100210000D01*
X82399150Y-85790000D01*
X121600850Y-85790000D01*
X121600850Y-100210000D01*
X121620852Y-100278121D01*
X121674508Y-100324614D01*
X121726850Y-100336000D01*
X122273150Y-100336000D01*
X122341271Y-100315998D01*
X122387764Y-100262342D01*
X122399150Y-100210000D01*
X122399150Y-85790000D01*
X161600850Y-85790000D01*
X161600850Y-100210000D01*
X161620852Y-100278121D01*
X161674508Y-100324614D01*
X161726850Y-100336000D01*
X162273150Y-100336000D01*
X162341271Y-100315998D01*
X162387764Y-100262342D01*
X162399150Y-100210000D01*
X162399150Y-85790000D01*
X162379148Y-85721879D01*
X162325492Y-85675386D01*
X162273150Y-85664000D01*
X161726850Y-85664000D01*
X161658729Y-85684002D01*
X161612236Y-85737658D01*
X161600850Y-85790000D01*
X122399150Y-85790000D01*
X122379148Y-85721879D01*
X122325492Y-85675386D01*
X122273150Y-85664000D01*
X121726850Y-85664000D01*
X121658729Y-85684002D01*
X121612236Y-85737658D01*
X121600850Y-85790000D01*
X82399150Y-85790000D01*
X82379148Y-85721879D01*
X82325492Y-85675386D01*
X82273150Y-85664000D01*
X81726850Y-85664000D01*
X81658729Y-85684002D01*
X81612236Y-85737658D01*
X81600850Y-85790000D01*
X42399150Y-85790000D01*
X42379148Y-85721879D01*
X42325492Y-85675386D01*
X42273150Y-85664000D01*
X41726850Y-85664000D01*
X41658729Y-85684002D01*
X41612236Y-85737658D01*
X41600850Y-85790000D01*
X634000Y-85790000D01*
X634000Y-45790000D01*
X41600850Y-45790000D01*
X41600850Y-60210000D01*
X41620852Y-60278121D01*
X41674508Y-60324614D01*
X41726850Y-60336000D01*
X42273150Y-60336000D01*
X42341271Y-60315998D01*
X42387764Y-60262342D01*
X42399150Y-60210000D01*
X42399150Y-45790000D01*
X81600850Y-45790000D01*
X81600850Y-60210000D01*
X81620852Y-60278121D01*
X81674508Y-60324614D01*
X81726850Y-60336000D01*
X82273150Y-60336000D01*
X82341271Y-60315998D01*
X82387764Y-60262342D01*
X82399150Y-60210000D01*
X82399150Y-45790000D01*
X121600850Y-45790000D01*
X121600850Y-60210000D01*
X121620852Y-60278121D01*
X121674508Y-60324614D01*
X121726850Y-60336000D01*
X122273150Y-60336000D01*
X122341271Y-60315998D01*
X122387764Y-60262342D01*
X122399150Y-60210000D01*
X122399150Y-45790000D01*
X161600850Y-45790000D01*
X161600850Y-60210000D01*
X161620852Y-60278121D01*
X161674508Y-60324614D01*
X161726850Y-60336000D01*
X162273150Y-60336000D01*
X162341271Y-60315998D01*
X162387764Y-60262342D01*
X162399150Y-60210000D01*
X162399150Y-45790000D01*
X162379148Y-45721879D01*
X162325492Y-45675386D01*
X162273150Y-45664000D01*
X161726850Y-45664000D01*
X161658729Y-45684002D01*
X161612236Y-45737658D01*
X161600850Y-45790000D01*
X122399150Y-45790000D01*
X122379148Y-45721879D01*
X122325492Y-45675386D01*
X122273150Y-45664000D01*
X121726850Y-45664000D01*
X121658729Y-45684002D01*
X121612236Y-45737658D01*
X121600850Y-45790000D01*
X82399150Y-45790000D01*
X82379148Y-45721879D01*
X82325492Y-45675386D01*
X82273150Y-45664000D01*
X81726850Y-45664000D01*
X81658729Y-45684002D01*
X81612236Y-45737658D01*
X81600850Y-45790000D01*
X42399150Y-45790000D01*
X42379148Y-45721879D01*
X42325492Y-45675386D01*
X42273150Y-45664000D01*
X41726850Y-45664000D01*
X41658729Y-45684002D01*
X41612236Y-45737658D01*
X41600850Y-45790000D01*
X634000Y-45790000D01*
X634000Y-17908642D01*
X8862030Y-17908642D01*
X8871112Y-18255461D01*
X8872326Y-18269917D01*
X8921210Y-18613394D01*
X8924077Y-18627613D01*
X9012115Y-18963196D01*
X9016598Y-18976993D01*
X9142624Y-19300232D01*
X9148663Y-19313421D01*
X9311006Y-19620033D01*
X9318520Y-19632441D01*
X9515028Y-19918362D01*
X9523919Y-19929824D01*
X9751988Y-20191264D01*
X9762137Y-20201628D01*
X10018743Y-20435122D01*
X10030017Y-20444252D01*
X10311760Y-20646705D01*
X10324008Y-20654477D01*
X10627153Y-20823206D01*
X10640213Y-20829520D01*
X10960742Y-20962287D01*
X10974441Y-20967057D01*
X11308106Y-21062104D01*
X11322263Y-21065269D01*
X11664641Y-21121336D01*
X11679068Y-21122852D01*
X12025622Y-21139195D01*
X12040127Y-21139043D01*
X12386262Y-21115446D01*
X12400654Y-21113628D01*
X12741783Y-21050403D01*
X12755870Y-21046943D01*
X13087471Y-20944929D01*
X13101067Y-20939872D01*
X13418745Y-20800421D01*
X13431670Y-20793836D01*
X13731215Y-20618796D01*
X13743298Y-20610768D01*
X14020740Y-20402459D01*
X14031820Y-20393096D01*
X14283480Y-20154280D01*
X14293410Y-20143706D01*
X14515953Y-19877547D01*
X14524602Y-19865901D01*
X14715080Y-19575927D01*
X14722333Y-19563364D01*
X14878219Y-19253419D01*
X14883980Y-19240106D01*
X15003208Y-18914298D01*
X15007401Y-18900411D01*
X15088392Y-18563059D01*
X15090960Y-18548783D01*
X15132641Y-18204357D01*
X15133492Y-18193176D01*
X15139438Y-18003957D01*
X15139291Y-17992747D01*
X15134442Y-17908642D01*
X170862030Y-17908642D01*
X170871112Y-18255461D01*
X170872326Y-18269917D01*
X170921210Y-18613394D01*
X170924077Y-18627613D01*
X171012115Y-18963196D01*
X171016598Y-18976993D01*
X171142624Y-19300232D01*
X171148663Y-19313421D01*
X171311006Y-19620033D01*
X171318520Y-19632441D01*
X171515028Y-19918362D01*
X171523919Y-19929824D01*
X171751988Y-20191264D01*
X171762137Y-20201628D01*
X172018743Y-20435122D01*
X172030017Y-20444252D01*
X172311760Y-20646705D01*
X172324008Y-20654477D01*
X172627153Y-20823206D01*
X172640213Y-20829520D01*
X172960742Y-20962287D01*
X172974441Y-20967057D01*
X173308106Y-21062104D01*
X173322263Y-21065269D01*
X173664641Y-21121336D01*
X173679068Y-21122852D01*
X174025622Y-21139195D01*
X174040127Y-21139043D01*
X174386262Y-21115446D01*
X174400654Y-21113628D01*
X174741783Y-21050403D01*
X174755870Y-21046943D01*
X175087471Y-20944929D01*
X175101067Y-20939872D01*
X175418745Y-20800421D01*
X175431670Y-20793836D01*
X175731215Y-20618796D01*
X175743298Y-20610768D01*
X176020740Y-20402459D01*
X176031820Y-20393096D01*
X176283480Y-20154280D01*
X176293410Y-20143706D01*
X176515953Y-19877547D01*
X176524602Y-19865901D01*
X176715080Y-19575927D01*
X176722333Y-19563364D01*
X176878219Y-19253419D01*
X176883980Y-19240106D01*
X177003208Y-18914298D01*
X177007401Y-18900411D01*
X177088392Y-18563059D01*
X177090960Y-18548783D01*
X177132641Y-18204357D01*
X177133492Y-18193176D01*
X177139438Y-18003957D01*
X177139291Y-17992747D01*
X177119320Y-17646384D01*
X177117653Y-17631974D01*
X177058004Y-17290202D01*
X177054691Y-17276079D01*
X176956155Y-16943427D01*
X176951241Y-16929778D01*
X176815124Y-16610657D01*
X176808675Y-16597664D01*
X176636782Y-16296302D01*
X176628881Y-16284136D01*
X176423489Y-16004529D01*
X176414242Y-15993352D01*
X176178073Y-15739205D01*
X176167604Y-15729165D01*
X175903790Y-15503846D01*
X175892235Y-15495075D01*
X175604272Y-15301572D01*
X175591786Y-15294188D01*
X175283491Y-15135065D01*
X175270239Y-15129165D01*
X174945697Y-15006531D01*
X174931855Y-15002193D01*
X174595370Y-14917673D01*
X174581120Y-14914955D01*
X174237149Y-14869671D01*
X174222682Y-14868609D01*
X173875787Y-14863159D01*
X173861294Y-14863766D01*
X173516071Y-14898224D01*
X173501743Y-14900493D01*
X173162768Y-14974402D01*
X173148796Y-14978303D01*
X172820563Y-15090682D01*
X172807133Y-15096163D01*
X172493991Y-15245524D01*
X172481279Y-15252513D01*
X172187380Y-15436875D01*
X172175555Y-15445278D01*
X171904794Y-15662199D01*
X171894014Y-15671905D01*
X171649979Y-15918509D01*
X171640386Y-15929391D01*
X171426313Y-16202409D01*
X171418034Y-16214320D01*
X171236759Y-16510133D01*
X171229904Y-16522918D01*
X171083831Y-16837607D01*
X171078491Y-16851094D01*
X170969555Y-17180486D01*
X170965801Y-17194498D01*
X170895446Y-17534228D01*
X170893327Y-17548578D01*
X170862486Y-17894143D01*
X170862030Y-17908642D01*
X15134442Y-17908642D01*
X15119320Y-17646384D01*
X15117653Y-17631974D01*
X15058004Y-17290202D01*
X15054691Y-17276079D01*
X14956155Y-16943427D01*
X14951241Y-16929778D01*
X14815124Y-16610657D01*
X14808675Y-16597664D01*
X14636782Y-16296302D01*
X14628881Y-16284136D01*
X14423489Y-16004529D01*
X14414242Y-15993352D01*
X14178073Y-15739205D01*
X14167604Y-15729165D01*
X13903790Y-15503846D01*
X13892235Y-15495075D01*
X13604272Y-15301572D01*
X13591786Y-15294188D01*
X13283491Y-15135065D01*
X13270239Y-15129165D01*
X12945697Y-15006531D01*
X12931855Y-15002193D01*
X12595370Y-14917673D01*
X12581120Y-14914955D01*
X12237149Y-14869671D01*
X12222682Y-14868609D01*
X11875787Y-14863159D01*
X11861294Y-14863766D01*
X11516071Y-14898224D01*
X11501743Y-14900493D01*
X11162768Y-14974402D01*
X11148796Y-14978303D01*
X10820563Y-15090682D01*
X10807133Y-15096163D01*
X10493991Y-15245524D01*
X10481279Y-15252513D01*
X10187380Y-15436875D01*
X10175555Y-15445278D01*
X9904794Y-15662199D01*
X9894014Y-15671905D01*
X9649979Y-15918509D01*
X9640386Y-15929391D01*
X9426313Y-16202409D01*
X9418034Y-16214320D01*
X9236759Y-16510133D01*
X9229904Y-16522918D01*
X9083831Y-16837607D01*
X9078491Y-16851094D01*
X8969555Y-17180486D01*
X8965801Y-17194498D01*
X8895446Y-17534228D01*
X8893327Y-17548578D01*
X8862486Y-17894143D01*
X8862030Y-17908642D01*
X634000Y-17908642D01*
X634000Y-4908642D01*
X89862030Y-4908642D01*
X89871112Y-5255461D01*
X89872326Y-5269917D01*
X89921210Y-5613394D01*
X89924077Y-5627613D01*
X90012115Y-5963196D01*
X90016598Y-5976993D01*
X90142624Y-6300232D01*
X90148663Y-6313421D01*
X90311006Y-6620033D01*
X90318520Y-6632441D01*
X90515028Y-6918362D01*
X90523919Y-6929824D01*
X90751988Y-7191264D01*
X90762137Y-7201628D01*
X91018743Y-7435122D01*
X91030017Y-7444252D01*
X91311760Y-7646705D01*
X91324008Y-7654477D01*
X91627153Y-7823206D01*
X91640213Y-7829520D01*
X91960742Y-7962287D01*
X91974441Y-7967057D01*
X92308106Y-8062104D01*
X92322263Y-8065269D01*
X92664641Y-8121336D01*
X92679068Y-8122852D01*
X93025622Y-8139195D01*
X93040127Y-8139043D01*
X93386262Y-8115446D01*
X93400654Y-8113628D01*
X93741783Y-8050403D01*
X93755870Y-8046943D01*
X94087471Y-7944929D01*
X94101067Y-7939872D01*
X94418745Y-7800421D01*
X94431670Y-7793836D01*
X94731215Y-7618796D01*
X94743298Y-7610768D01*
X95020740Y-7402459D01*
X95031820Y-7393096D01*
X95283480Y-7154280D01*
X95293410Y-7143706D01*
X95515953Y-6877547D01*
X95524602Y-6865901D01*
X95715080Y-6575927D01*
X95722333Y-6563364D01*
X95878219Y-6253419D01*
X95883980Y-6240106D01*
X96003208Y-5914298D01*
X96007401Y-5900411D01*
X96088392Y-5563059D01*
X96090960Y-5548783D01*
X96132641Y-5204357D01*
X96133492Y-5193176D01*
X96139438Y-5003957D01*
X96139291Y-4992747D01*
X96119320Y-4646384D01*
X96117653Y-4631974D01*
X96058004Y-4290202D01*
X96054691Y-4276079D01*
X95956155Y-3943427D01*
X95951241Y-3929778D01*
X95815124Y-3610657D01*
X95808675Y-3597664D01*
X95636782Y-3296302D01*
X95628881Y-3284136D01*
X95423489Y-3004529D01*
X95414242Y-2993352D01*
X95178073Y-2739205D01*
X95167604Y-2729165D01*
X94903790Y-2503846D01*
X94892235Y-2495075D01*
X94604272Y-2301572D01*
X94591786Y-2294188D01*
X94283491Y-2135065D01*
X94270239Y-2129165D01*
X93945697Y-2006531D01*
X93931855Y-2002193D01*
X93595370Y-1917673D01*
X93581120Y-1914955D01*
X93237149Y-1869671D01*
X93222682Y-1868609D01*
X92875787Y-1863159D01*
X92861294Y-1863766D01*
X92516071Y-1898224D01*
X92501743Y-1900493D01*
X92162768Y-1974402D01*
X92148796Y-1978303D01*
X91820563Y-2090682D01*
X91807133Y-2096163D01*
X91493991Y-2245524D01*
X91481279Y-2252513D01*
X91187380Y-2436875D01*
X91175555Y-2445278D01*
X90904794Y-2662199D01*
X90894014Y-2671905D01*
X90649979Y-2918509D01*
X90640386Y-2929391D01*
X90426313Y-3202409D01*
X90418034Y-3214320D01*
X90236759Y-3510133D01*
X90229904Y-3522918D01*
X90083831Y-3837607D01*
X90078491Y-3851094D01*
X89969555Y-4180486D01*
X89965801Y-4194498D01*
X89895446Y-4534228D01*
X89893327Y-4548578D01*
X89862486Y-4894143D01*
X89862030Y-4908642D01*
X634000Y-4908642D01*
X634000Y-634000D01*
X185366000Y-634000D01*
X185366000Y-107366000D01*
G04 #@! TA.AperFunction,Conductor*
G36*
X185366000Y-107366000D02*
G01*
X180078879Y-107366000D01*
X180050366Y-107361890D01*
X180030966Y-107360609D01*
X179789573Y-107363338D01*
X179775764Y-107362443D01*
X179756321Y-107362686D01*
X179743268Y-107363861D01*
X179733432Y-107363972D01*
X179715586Y-107365446D01*
X179701596Y-107367611D01*
X179288234Y-107404814D01*
X179271315Y-107405239D01*
X179251974Y-107407224D01*
X179242629Y-107408920D01*
X179236450Y-107409476D01*
X179218770Y-107412345D01*
X179202246Y-107416249D01*
X178789557Y-107491140D01*
X178772740Y-107493080D01*
X178753655Y-107496791D01*
X178744505Y-107499316D01*
X178738390Y-107500426D01*
X178721040Y-107504868D01*
X178704923Y-107510241D01*
X178300619Y-107621821D01*
X178284045Y-107625260D01*
X178265370Y-107630666D01*
X178256479Y-107634003D01*
X178250489Y-107635656D01*
X178233609Y-107641634D01*
X178218039Y-107648429D01*
X177825355Y-107795806D01*
X177809165Y-107800714D01*
X177791049Y-107807773D01*
X177782503Y-107811888D01*
X177776677Y-107814075D01*
X177760399Y-107821544D01*
X177745500Y-107829709D01*
X177367613Y-108011689D01*
X177351922Y-108018031D01*
X177334513Y-108026685D01*
X177326366Y-108031553D01*
X177320767Y-108034249D01*
X177305223Y-108043147D01*
X177291120Y-108052611D01*
X176931062Y-108267735D01*
X176916004Y-108275457D01*
X176899440Y-108285637D01*
X176891763Y-108291215D01*
X176886425Y-108294404D01*
X176871742Y-108304660D01*
X176858550Y-108315345D01*
X176519228Y-108561878D01*
X176504913Y-108570925D01*
X176489331Y-108582547D01*
X176482181Y-108588794D01*
X176477150Y-108592449D01*
X176463447Y-108603978D01*
X176451259Y-108615810D01*
X176135401Y-108891767D01*
X176121966Y-108902052D01*
X176107488Y-108915024D01*
X176100928Y-108921885D01*
X176096241Y-108925980D01*
X176083631Y-108938686D01*
X176072546Y-108951570D01*
X175782709Y-109254715D01*
X175770241Y-109266172D01*
X175756983Y-109280392D01*
X175751067Y-109287811D01*
X175746766Y-109292309D01*
X175735341Y-109306101D01*
X175725471Y-109319906D01*
X175463955Y-109647835D01*
X175452571Y-109660355D01*
X175440638Y-109675709D01*
X175435406Y-109683635D01*
X175431536Y-109688488D01*
X175421392Y-109703249D01*
X175412794Y-109717892D01*
X175181739Y-110067926D01*
X175171514Y-110081428D01*
X175161007Y-110097789D01*
X175156513Y-110106141D01*
X175153084Y-110111335D01*
X175144304Y-110126947D01*
X175137051Y-110142308D01*
X174938304Y-110511638D01*
X174929332Y-110526001D01*
X174920335Y-110543236D01*
X174916603Y-110551967D01*
X174913658Y-110557440D01*
X174906314Y-110573773D01*
X174900468Y-110589717D01*
X174735630Y-110975375D01*
X174727977Y-110990493D01*
X174720561Y-111008464D01*
X174717627Y-111017492D01*
X174715185Y-111023207D01*
X174709335Y-111040132D01*
X174704943Y-111056533D01*
X174575335Y-111455426D01*
X174569071Y-111471161D01*
X174563295Y-111489729D01*
X174561184Y-111498981D01*
X174559263Y-111504891D01*
X174554952Y-111522276D01*
X174552048Y-111539004D01*
X174458715Y-111947920D01*
X174453890Y-111964142D01*
X174449802Y-111983147D01*
X174448528Y-111992550D01*
X174447143Y-111998619D01*
X174444410Y-112016314D01*
X174443017Y-112033232D01*
X174386714Y-112448877D01*
X174383364Y-112465461D01*
X174380996Y-112484755D01*
X174380570Y-112494240D01*
X174379735Y-112500404D01*
X174378599Y-112518271D01*
X174378728Y-112535251D01*
X174359910Y-112954264D01*
X174358059Y-112971087D01*
X174357430Y-112990519D01*
X174357856Y-112999999D01*
X174357577Y-113006206D01*
X174358047Y-113024109D01*
X174359697Y-113041006D01*
X174378515Y-113460014D01*
X174378180Y-113476942D01*
X174379295Y-113496348D01*
X174380570Y-113505761D01*
X174380849Y-113511972D01*
X174382922Y-113529757D01*
X174386079Y-113546430D01*
X174442381Y-113962074D01*
X174443564Y-113978958D01*
X174446416Y-113998193D01*
X174448528Y-114007444D01*
X174449361Y-114013597D01*
X174453020Y-114031133D01*
X174457665Y-114047476D01*
X174550992Y-114456369D01*
X174553685Y-114473089D01*
X174558249Y-114491988D01*
X174561182Y-114501016D01*
X174562566Y-114507078D01*
X174567782Y-114524211D01*
X174573871Y-114540066D01*
X174703480Y-114938966D01*
X174707658Y-114955365D01*
X174713895Y-114973775D01*
X174717627Y-114982506D01*
X174719549Y-114988422D01*
X174726278Y-115005012D01*
X174733755Y-115020241D01*
X174898608Y-115405934D01*
X174904241Y-115421897D01*
X174912105Y-115439674D01*
X174916602Y-115448031D01*
X174919047Y-115453751D01*
X174927236Y-115469673D01*
X174936060Y-115484190D01*
X175134803Y-115853518D01*
X175141851Y-115868926D01*
X175151280Y-115885932D01*
X175156508Y-115893852D01*
X175159451Y-115899321D01*
X175169040Y-115914453D01*
X175179117Y-115928102D01*
X175410182Y-116278151D01*
X175418576Y-116292855D01*
X175429488Y-116308945D01*
X175435412Y-116316374D01*
X175438835Y-116321559D01*
X175449736Y-116335763D01*
X175460996Y-116348455D01*
X175722518Y-116676392D01*
X175732191Y-116690276D01*
X175744501Y-116705322D01*
X175751067Y-116712190D01*
X175754940Y-116717046D01*
X175767070Y-116730217D01*
X175779439Y-116741864D01*
X176069281Y-117045016D01*
X176080164Y-117057982D01*
X176093776Y-117071866D01*
X176100920Y-117078108D01*
X176105220Y-117082605D01*
X176118486Y-117094638D01*
X176131838Y-117105120D01*
X176447701Y-117381083D01*
X176459700Y-117393019D01*
X176474497Y-117405624D01*
X176482188Y-117411212D01*
X176486865Y-117415298D01*
X176501147Y-117426087D01*
X176515385Y-117435331D01*
X176854719Y-117681871D01*
X176867739Y-117692683D01*
X176883610Y-117703913D01*
X176891754Y-117708779D01*
X176896789Y-117712437D01*
X176911989Y-117721907D01*
X176927006Y-117729841D01*
X177287050Y-117944957D01*
X177300996Y-117954565D01*
X177317810Y-117964327D01*
X177326365Y-117968447D01*
X177331701Y-117971635D01*
X177347689Y-117979704D01*
X177363343Y-117986254D01*
X177741244Y-118168242D01*
X177755987Y-118176557D01*
X177773608Y-118184773D01*
X177782497Y-118188109D01*
X177788095Y-118190805D01*
X177804743Y-118197409D01*
X177820924Y-118202530D01*
X178213610Y-118349908D01*
X178229040Y-118356868D01*
X178247327Y-118363472D01*
X178256492Y-118366002D01*
X178262305Y-118368183D01*
X178279472Y-118373267D01*
X178296056Y-118376920D01*
X178700354Y-118488498D01*
X178716356Y-118494051D01*
X178735168Y-118498990D01*
X178744512Y-118500685D01*
X178750492Y-118502336D01*
X178768051Y-118505862D01*
X178784886Y-118508013D01*
X179197575Y-118582903D01*
X179214006Y-118586998D01*
X179233180Y-118590230D01*
X179242637Y-118591081D01*
X179248753Y-118592191D01*
X179266558Y-118594129D01*
X179283537Y-118594762D01*
X179697124Y-118631986D01*
X179710788Y-118634272D01*
X179730154Y-118635991D01*
X179743269Y-118636139D01*
X179753055Y-118637020D01*
X179770963Y-118637353D01*
X179785076Y-118636611D01*
X180027688Y-118639354D01*
X180045563Y-118638283D01*
X180078086Y-118634000D01*
X185366000Y-118634000D01*
X185366000Y-225366000D01*
X634000Y-225366000D01*
X634000Y-220908642D01*
X89862030Y-220908642D01*
X89871112Y-221255461D01*
X89872326Y-221269917D01*
X89921210Y-221613394D01*
X89924077Y-221627613D01*
X90012115Y-221963196D01*
X90016598Y-221976993D01*
X90142624Y-222300232D01*
X90148663Y-222313421D01*
X90311006Y-222620033D01*
X90318520Y-222632441D01*
X90515028Y-222918362D01*
X90523919Y-222929824D01*
X90751988Y-223191264D01*
X90762137Y-223201628D01*
X91018743Y-223435122D01*
X91030017Y-223444252D01*
X91311760Y-223646705D01*
X91324008Y-223654477D01*
X91627153Y-223823206D01*
X91640213Y-223829520D01*
X91960742Y-223962287D01*
X91974441Y-223967057D01*
X92308106Y-224062104D01*
X92322263Y-224065269D01*
X92664641Y-224121336D01*
X92679068Y-224122852D01*
X93025622Y-224139195D01*
X93040127Y-224139043D01*
X93386262Y-224115446D01*
X93400654Y-224113628D01*
X93741783Y-224050403D01*
X93755870Y-224046943D01*
X94087471Y-223944929D01*
X94101067Y-223939872D01*
X94418745Y-223800421D01*
X94431670Y-223793836D01*
X94731215Y-223618796D01*
X94743298Y-223610768D01*
X95020740Y-223402459D01*
X95031820Y-223393096D01*
X95283480Y-223154280D01*
X95293410Y-223143706D01*
X95515953Y-222877547D01*
X95524602Y-222865901D01*
X95715080Y-222575927D01*
X95722333Y-222563364D01*
X95878219Y-222253419D01*
X95883980Y-222240106D01*
X96003208Y-221914298D01*
X96007401Y-221900411D01*
X96088392Y-221563059D01*
X96090960Y-221548783D01*
X96132641Y-221204357D01*
X96133492Y-221193176D01*
X96139438Y-221003957D01*
X96139291Y-220992747D01*
X96119320Y-220646384D01*
X96117653Y-220631974D01*
X96058004Y-220290202D01*
X96054691Y-220276079D01*
X95956155Y-219943427D01*
X95951241Y-219929778D01*
X95815124Y-219610657D01*
X95808675Y-219597664D01*
X95636782Y-219296302D01*
X95628881Y-219284136D01*
X95423489Y-219004529D01*
X95414242Y-218993352D01*
X95178073Y-218739205D01*
X95167604Y-218729165D01*
X94903790Y-218503846D01*
X94892235Y-218495075D01*
X94604272Y-218301572D01*
X94591786Y-218294188D01*
X94283491Y-218135065D01*
X94270239Y-218129165D01*
X93945697Y-218006531D01*
X93931855Y-218002193D01*
X93595370Y-217917673D01*
X93581120Y-217914955D01*
X93237149Y-217869671D01*
X93222682Y-217868609D01*
X92875787Y-217863159D01*
X92861294Y-217863766D01*
X92516071Y-217898224D01*
X92501743Y-217900493D01*
X92162768Y-217974402D01*
X92148796Y-217978303D01*
X91820563Y-218090682D01*
X91807133Y-218096163D01*
X91493991Y-218245524D01*
X91481279Y-218252513D01*
X91187380Y-218436875D01*
X91175555Y-218445278D01*
X90904794Y-218662199D01*
X90894014Y-218671905D01*
X90649979Y-218918509D01*
X90640386Y-218929391D01*
X90426313Y-219202409D01*
X90418034Y-219214320D01*
X90236759Y-219510133D01*
X90229904Y-219522918D01*
X90083831Y-219837607D01*
X90078491Y-219851094D01*
X89969555Y-220180486D01*
X89965801Y-220194498D01*
X89895446Y-220534228D01*
X89893327Y-220548578D01*
X89862486Y-220894143D01*
X89862030Y-220908642D01*
X634000Y-220908642D01*
X634000Y-207908642D01*
X8862030Y-207908642D01*
X8871112Y-208255461D01*
X8872326Y-208269917D01*
X8921210Y-208613394D01*
X8924077Y-208627613D01*
X9012115Y-208963196D01*
X9016598Y-208976993D01*
X9142624Y-209300232D01*
X9148663Y-209313421D01*
X9311006Y-209620033D01*
X9318520Y-209632441D01*
X9515028Y-209918362D01*
X9523919Y-209929824D01*
X9751988Y-210191264D01*
X9762137Y-210201628D01*
X10018743Y-210435122D01*
X10030017Y-210444252D01*
X10311760Y-210646705D01*
X10324008Y-210654477D01*
X10627153Y-210823206D01*
X10640213Y-210829520D01*
X10960742Y-210962287D01*
X10974441Y-210967057D01*
X11308106Y-211062104D01*
X11322263Y-211065269D01*
X11664641Y-211121336D01*
X11679068Y-211122852D01*
X12025622Y-211139195D01*
X12040127Y-211139043D01*
X12386262Y-211115446D01*
X12400654Y-211113628D01*
X12741783Y-211050403D01*
X12755870Y-211046943D01*
X13087471Y-210944929D01*
X13101067Y-210939872D01*
X13418745Y-210800421D01*
X13431670Y-210793836D01*
X13731215Y-210618796D01*
X13743298Y-210610768D01*
X14020740Y-210402459D01*
X14031820Y-210393096D01*
X14283480Y-210154280D01*
X14293410Y-210143706D01*
X14515953Y-209877547D01*
X14524602Y-209865901D01*
X14715080Y-209575927D01*
X14722333Y-209563364D01*
X14878219Y-209253419D01*
X14883980Y-209240106D01*
X15003208Y-208914298D01*
X15007401Y-208900411D01*
X15088392Y-208563059D01*
X15090960Y-208548783D01*
X15132641Y-208204357D01*
X15133492Y-208193176D01*
X15139438Y-208003957D01*
X15139291Y-207992747D01*
X15134442Y-207908642D01*
X170862030Y-207908642D01*
X170871112Y-208255461D01*
X170872326Y-208269917D01*
X170921210Y-208613394D01*
X170924077Y-208627613D01*
X171012115Y-208963196D01*
X171016598Y-208976993D01*
X171142624Y-209300232D01*
X171148663Y-209313421D01*
X171311006Y-209620033D01*
X171318520Y-209632441D01*
X171515028Y-209918362D01*
X171523919Y-209929824D01*
X171751988Y-210191264D01*
X171762137Y-210201628D01*
X172018743Y-210435122D01*
X172030017Y-210444252D01*
X172311760Y-210646705D01*
X172324008Y-210654477D01*
X172627153Y-210823206D01*
X172640213Y-210829520D01*
X172960742Y-210962287D01*
X172974441Y-210967057D01*
X173308106Y-211062104D01*
X173322263Y-211065269D01*
X173664641Y-211121336D01*
X173679068Y-211122852D01*
X174025622Y-211139195D01*
X174040127Y-211139043D01*
X174386262Y-211115446D01*
X174400654Y-211113628D01*
X174741783Y-211050403D01*
X174755870Y-211046943D01*
X175087471Y-210944929D01*
X175101067Y-210939872D01*
X175418745Y-210800421D01*
X175431670Y-210793836D01*
X175731215Y-210618796D01*
X175743298Y-210610768D01*
X176020740Y-210402459D01*
X176031820Y-210393096D01*
X176283480Y-210154280D01*
X176293410Y-210143706D01*
X176515953Y-209877547D01*
X176524602Y-209865901D01*
X176715080Y-209575927D01*
X176722333Y-209563364D01*
X176878219Y-209253419D01*
X176883980Y-209240106D01*
X177003208Y-208914298D01*
X177007401Y-208900411D01*
X177088392Y-208563059D01*
X177090960Y-208548783D01*
X177132641Y-208204357D01*
X177133492Y-208193176D01*
X177139438Y-208003957D01*
X177139291Y-207992747D01*
X177119320Y-207646384D01*
X177117653Y-207631974D01*
X177058004Y-207290202D01*
X177054691Y-207276079D01*
X176956155Y-206943427D01*
X176951241Y-206929778D01*
X176815124Y-206610657D01*
X176808675Y-206597664D01*
X176636782Y-206296302D01*
X176628881Y-206284136D01*
X176423489Y-206004529D01*
X176414242Y-205993352D01*
X176178073Y-205739205D01*
X176167604Y-205729165D01*
X175903790Y-205503846D01*
X175892235Y-205495075D01*
X175604272Y-205301572D01*
X175591786Y-205294188D01*
X175283491Y-205135065D01*
X175270239Y-205129165D01*
X174945697Y-205006531D01*
X174931855Y-205002193D01*
X174595370Y-204917673D01*
X174581120Y-204914955D01*
X174237149Y-204869671D01*
X174222682Y-204868609D01*
X173875787Y-204863159D01*
X173861294Y-204863766D01*
X173516071Y-204898224D01*
X173501743Y-204900493D01*
X173162768Y-204974402D01*
X173148796Y-204978303D01*
X172820563Y-205090682D01*
X172807133Y-205096163D01*
X172493991Y-205245524D01*
X172481279Y-205252513D01*
X172187380Y-205436875D01*
X172175555Y-205445278D01*
X171904794Y-205662199D01*
X171894014Y-205671905D01*
X171649979Y-205918509D01*
X171640386Y-205929391D01*
X171426313Y-206202409D01*
X171418034Y-206214320D01*
X171236759Y-206510133D01*
X171229904Y-206522918D01*
X171083831Y-206837607D01*
X171078491Y-206851094D01*
X170969555Y-207180486D01*
X170965801Y-207194498D01*
X170895446Y-207534228D01*
X170893327Y-207548578D01*
X170862486Y-207894143D01*
X170862030Y-207908642D01*
X15134442Y-207908642D01*
X15119320Y-207646384D01*
X15117653Y-207631974D01*
X15058004Y-207290202D01*
X15054691Y-207276079D01*
X14956155Y-206943427D01*
X14951241Y-206929778D01*
X14815124Y-206610657D01*
X14808675Y-206597664D01*
X14636782Y-206296302D01*
X14628881Y-206284136D01*
X14423489Y-206004529D01*
X14414242Y-205993352D01*
X14178073Y-205739205D01*
X14167604Y-205729165D01*
X13903790Y-205503846D01*
X13892235Y-205495075D01*
X13604272Y-205301572D01*
X13591786Y-205294188D01*
X13283491Y-205135065D01*
X13270239Y-205129165D01*
X12945697Y-205006531D01*
X12931855Y-205002193D01*
X12595370Y-204917673D01*
X12581120Y-204914955D01*
X12237149Y-204869671D01*
X12222682Y-204868609D01*
X11875787Y-204863159D01*
X11861294Y-204863766D01*
X11516071Y-204898224D01*
X11501743Y-204900493D01*
X11162768Y-204974402D01*
X11148796Y-204978303D01*
X10820563Y-205090682D01*
X10807133Y-205096163D01*
X10493991Y-205245524D01*
X10481279Y-205252513D01*
X10187380Y-205436875D01*
X10175555Y-205445278D01*
X9904794Y-205662199D01*
X9894014Y-205671905D01*
X9649979Y-205918509D01*
X9640386Y-205929391D01*
X9426313Y-206202409D01*
X9418034Y-206214320D01*
X9236759Y-206510133D01*
X9229904Y-206522918D01*
X9083831Y-206837607D01*
X9078491Y-206851094D01*
X8969555Y-207180486D01*
X8965801Y-207194498D01*
X8895446Y-207534228D01*
X8893327Y-207548578D01*
X8862486Y-207894143D01*
X8862030Y-207908642D01*
X634000Y-207908642D01*
X634000Y-165790000D01*
X41600850Y-165790000D01*
X41600850Y-180210000D01*
X41620852Y-180278121D01*
X41674508Y-180324614D01*
X41726850Y-180336000D01*
X42273150Y-180336000D01*
X42341271Y-180315998D01*
X42387764Y-180262342D01*
X42399150Y-180210000D01*
X42399150Y-165790000D01*
X81600850Y-165790000D01*
X81600850Y-180210000D01*
X81620852Y-180278121D01*
X81674508Y-180324614D01*
X81726850Y-180336000D01*
X82273150Y-180336000D01*
X82341271Y-180315998D01*
X82387764Y-180262342D01*
X82399150Y-180210000D01*
X82399150Y-165790000D01*
X121600850Y-165790000D01*
X121600850Y-180210000D01*
X121620852Y-180278121D01*
X121674508Y-180324614D01*
X121726850Y-180336000D01*
X122273150Y-180336000D01*
X122341271Y-180315998D01*
X122387764Y-180262342D01*
X122399150Y-180210000D01*
X122399150Y-165790000D01*
X161600850Y-165790000D01*
X161600850Y-180210000D01*
X161620852Y-180278121D01*
X161674508Y-180324614D01*
X161726850Y-180336000D01*
X162273150Y-180336000D01*
X162341271Y-180315998D01*
X162387764Y-180262342D01*
X162399150Y-180210000D01*
X162399150Y-165790000D01*
X162379148Y-165721879D01*
X162325492Y-165675386D01*
X162273150Y-165664000D01*
X161726850Y-165664000D01*
X161658729Y-165684002D01*
X161612236Y-165737658D01*
X161600850Y-165790000D01*
X122399150Y-165790000D01*
X122379148Y-165721879D01*
X122325492Y-165675386D01*
X122273150Y-165664000D01*
X121726850Y-165664000D01*
X121658729Y-165684002D01*
X121612236Y-165737658D01*
X121600850Y-165790000D01*
X82399150Y-165790000D01*
X82379148Y-165721879D01*
X82325492Y-165675386D01*
X82273150Y-165664000D01*
X81726850Y-165664000D01*
X81658729Y-165684002D01*
X81612236Y-165737658D01*
X81600850Y-165790000D01*
X42399150Y-165790000D01*
X42379148Y-165721879D01*
X42325492Y-165675386D01*
X42273150Y-165664000D01*
X41726850Y-165664000D01*
X41658729Y-165684002D01*
X41612236Y-165737658D01*
X41600850Y-165790000D01*
X634000Y-165790000D01*
X634000Y-125790000D01*
X41600850Y-125790000D01*
X41600850Y-140210000D01*
X41620852Y-140278121D01*
X41674508Y-140324614D01*
X41726850Y-140336000D01*
X42273150Y-140336000D01*
X42341271Y-140315998D01*
X42387764Y-140262342D01*
X42399150Y-140210000D01*
X42399150Y-125790000D01*
X81600850Y-125790000D01*
X81600850Y-140210000D01*
X81620852Y-140278121D01*
X81674508Y-140324614D01*
X81726850Y-140336000D01*
X82273150Y-140336000D01*
X82341271Y-140315998D01*
X82387764Y-140262342D01*
X82399150Y-140210000D01*
X82399150Y-125790000D01*
X121600850Y-125790000D01*
X121600850Y-140210000D01*
X121620852Y-140278121D01*
X121674508Y-140324614D01*
X121726850Y-140336000D01*
X122273150Y-140336000D01*
X122341271Y-140315998D01*
X122387764Y-140262342D01*
X122399150Y-140210000D01*
X122399150Y-125790000D01*
X161600850Y-125790000D01*
X161600850Y-140210000D01*
X161620852Y-140278121D01*
X161674508Y-140324614D01*
X161726850Y-140336000D01*
X162273150Y-140336000D01*
X162341271Y-140315998D01*
X162387764Y-140262342D01*
X162399150Y-140210000D01*
X162399150Y-125790000D01*
X162379148Y-125721879D01*
X162325492Y-125675386D01*
X162273150Y-125664000D01*
X161726850Y-125664000D01*
X161658729Y-125684002D01*
X161612236Y-125737658D01*
X161600850Y-125790000D01*
X122399150Y-125790000D01*
X122379148Y-125721879D01*
X122325492Y-125675386D01*
X122273150Y-125664000D01*
X121726850Y-125664000D01*
X121658729Y-125684002D01*
X121612236Y-125737658D01*
X121600850Y-125790000D01*
X82399150Y-125790000D01*
X82379148Y-125721879D01*
X82325492Y-125675386D01*
X82273150Y-125664000D01*
X81726850Y-125664000D01*
X81658729Y-125684002D01*
X81612236Y-125737658D01*
X81600850Y-125790000D01*
X42399150Y-125790000D01*
X42379148Y-125721879D01*
X42325492Y-125675386D01*
X42273150Y-125664000D01*
X41726850Y-125664000D01*
X41658729Y-125684002D01*
X41612236Y-125737658D01*
X41600850Y-125790000D01*
X634000Y-125790000D01*
X634000Y-118634000D01*
X5921121Y-118634000D01*
X5949634Y-118638110D01*
X5969034Y-118639391D01*
X6210427Y-118636662D01*
X6224236Y-118637557D01*
X6243679Y-118637314D01*
X6256732Y-118636139D01*
X6266568Y-118636028D01*
X6284414Y-118634554D01*
X6298405Y-118632389D01*
X6711768Y-118595185D01*
X6728679Y-118594761D01*
X6748026Y-118592776D01*
X6757371Y-118591080D01*
X6763550Y-118590524D01*
X6781230Y-118587655D01*
X6797754Y-118583751D01*
X7210434Y-118508861D01*
X7227257Y-118506921D01*
X7246342Y-118503210D01*
X7255494Y-118500684D01*
X7261612Y-118499574D01*
X7278961Y-118495132D01*
X7295086Y-118489756D01*
X7699380Y-118378179D01*
X7715955Y-118374740D01*
X7734630Y-118369334D01*
X7743521Y-118365997D01*
X7749511Y-118364344D01*
X7766389Y-118358367D01*
X7781963Y-118351570D01*
X8174628Y-118204200D01*
X8190838Y-118199286D01*
X8208948Y-118192229D01*
X8217507Y-118188108D01*
X8223327Y-118185923D01*
X8239599Y-118178457D01*
X8254501Y-118170291D01*
X8632360Y-117988323D01*
X8648077Y-117981971D01*
X8665488Y-117973315D01*
X8673643Y-117968442D01*
X8679232Y-117965751D01*
X8694780Y-117956851D01*
X8708870Y-117947395D01*
X9068935Y-117732268D01*
X9083997Y-117724543D01*
X9100560Y-117714363D01*
X9108237Y-117708785D01*
X9113575Y-117705596D01*
X9128258Y-117695340D01*
X9141450Y-117684655D01*
X9480772Y-117438122D01*
X9495087Y-117429075D01*
X9510669Y-117417453D01*
X9517819Y-117411206D01*
X9522850Y-117407551D01*
X9536553Y-117396022D01*
X9548741Y-117384190D01*
X9864588Y-117108243D01*
X9878036Y-117097948D01*
X9892516Y-117084973D01*
X9899075Y-117078113D01*
X9903755Y-117074024D01*
X9916371Y-117061312D01*
X9927448Y-117048437D01*
X10217292Y-116745284D01*
X10229759Y-116733828D01*
X10243017Y-116719608D01*
X10248933Y-116712189D01*
X10253234Y-116707691D01*
X10264659Y-116693899D01*
X10274538Y-116680082D01*
X10536035Y-116352176D01*
X10547431Y-116339643D01*
X10559362Y-116324291D01*
X10564594Y-116316365D01*
X10568464Y-116311512D01*
X10578609Y-116296750D01*
X10587211Y-116282100D01*
X10818261Y-115932073D01*
X10828485Y-115918573D01*
X10838993Y-115902211D01*
X10843487Y-115893859D01*
X10846916Y-115888665D01*
X10855694Y-115873057D01*
X10862950Y-115857692D01*
X11061697Y-115488359D01*
X11070667Y-115474000D01*
X11079665Y-115456765D01*
X11083395Y-115448038D01*
X11086343Y-115442560D01*
X11093685Y-115426230D01*
X11099526Y-115410299D01*
X11264373Y-115024618D01*
X11272023Y-115009507D01*
X11279440Y-114991534D01*
X11282377Y-114982493D01*
X11284813Y-114976795D01*
X11290664Y-114959869D01*
X11295054Y-114943480D01*
X11424665Y-114544576D01*
X11430930Y-114528837D01*
X11436705Y-114510271D01*
X11438816Y-114501019D01*
X11440737Y-114495109D01*
X11445048Y-114477724D01*
X11447952Y-114460996D01*
X11541285Y-114052080D01*
X11546110Y-114035858D01*
X11550198Y-114016853D01*
X11551472Y-114007450D01*
X11552857Y-114001381D01*
X11555590Y-113983686D01*
X11556983Y-113966768D01*
X11613286Y-113551123D01*
X11616636Y-113534539D01*
X11619004Y-113515245D01*
X11619430Y-113505760D01*
X11620265Y-113499596D01*
X11621401Y-113481729D01*
X11621272Y-113464749D01*
X11640090Y-113045736D01*
X11641941Y-113028913D01*
X11642570Y-113009481D01*
X11642144Y-113000000D01*
X11642423Y-112993794D01*
X11641953Y-112975891D01*
X11640303Y-112958994D01*
X11638042Y-112908642D01*
X12862030Y-112908642D01*
X12871112Y-113255461D01*
X12872326Y-113269917D01*
X12921210Y-113613394D01*
X12924077Y-113627613D01*
X13012115Y-113963196D01*
X13016598Y-113976993D01*
X13142624Y-114300232D01*
X13148663Y-114313421D01*
X13311006Y-114620033D01*
X13318520Y-114632441D01*
X13515028Y-114918362D01*
X13523919Y-114929824D01*
X13751988Y-115191264D01*
X13762137Y-115201628D01*
X14018743Y-115435122D01*
X14030017Y-115444252D01*
X14311760Y-115646705D01*
X14324008Y-115654477D01*
X14627153Y-115823206D01*
X14640213Y-115829520D01*
X14960742Y-115962287D01*
X14974441Y-115967057D01*
X15308106Y-116062104D01*
X15322263Y-116065269D01*
X15664641Y-116121336D01*
X15679068Y-116122852D01*
X16025622Y-116139195D01*
X16040127Y-116139043D01*
X16386262Y-116115446D01*
X16400654Y-116113628D01*
X16741783Y-116050403D01*
X16755870Y-116046943D01*
X17087471Y-115944929D01*
X17101067Y-115939872D01*
X17418745Y-115800421D01*
X17431670Y-115793836D01*
X17731215Y-115618796D01*
X17743298Y-115610768D01*
X18020740Y-115402459D01*
X18031820Y-115393096D01*
X18283480Y-115154280D01*
X18293410Y-115143706D01*
X18515953Y-114877547D01*
X18524602Y-114865901D01*
X18715080Y-114575927D01*
X18722333Y-114563364D01*
X18878219Y-114253419D01*
X18883980Y-114240106D01*
X19003208Y-113914298D01*
X19007401Y-113900411D01*
X19088392Y-113563059D01*
X19090960Y-113548783D01*
X19132641Y-113204357D01*
X19133492Y-113193176D01*
X19139438Y-113003957D01*
X19139291Y-112992747D01*
X19137077Y-112954344D01*
X26361173Y-112954344D01*
X26379100Y-113151331D01*
X26383707Y-113175486D01*
X26439554Y-113365239D01*
X26448766Y-113388039D01*
X26540406Y-113563330D01*
X26553871Y-113583907D01*
X26677814Y-113738061D01*
X26695020Y-113755631D01*
X26846544Y-113882775D01*
X26866834Y-113896668D01*
X27040168Y-113991959D01*
X27062770Y-114001646D01*
X27251312Y-114061455D01*
X27275366Y-114066568D01*
X27428239Y-114083715D01*
X27442284Y-114084500D01*
X27551123Y-114084500D01*
X27563418Y-114083899D01*
X27709281Y-114069597D01*
X27733404Y-114064820D01*
X27922762Y-114007649D01*
X27945497Y-113998279D01*
X28120144Y-113905418D01*
X28140627Y-113891809D01*
X28293912Y-113766793D01*
X28311361Y-113749465D01*
X28437444Y-113597057D01*
X28451195Y-113576670D01*
X28545273Y-113402675D01*
X28554802Y-113380007D01*
X28613294Y-113191052D01*
X28618239Y-113166962D01*
X28638914Y-112970246D01*
X28639025Y-112954344D01*
X66361173Y-112954344D01*
X66379100Y-113151331D01*
X66383707Y-113175486D01*
X66439554Y-113365239D01*
X66448766Y-113388039D01*
X66540406Y-113563330D01*
X66553871Y-113583907D01*
X66677814Y-113738061D01*
X66695020Y-113755631D01*
X66846544Y-113882775D01*
X66866834Y-113896668D01*
X67040168Y-113991959D01*
X67062770Y-114001646D01*
X67251312Y-114061455D01*
X67275366Y-114066568D01*
X67428239Y-114083715D01*
X67442284Y-114084500D01*
X67551123Y-114084500D01*
X67563418Y-114083899D01*
X67709281Y-114069597D01*
X67733404Y-114064820D01*
X67922762Y-114007649D01*
X67945497Y-113998279D01*
X68120144Y-113905418D01*
X68140627Y-113891809D01*
X68293912Y-113766793D01*
X68311361Y-113749465D01*
X68437444Y-113597057D01*
X68451195Y-113576670D01*
X68545273Y-113402675D01*
X68554802Y-113380007D01*
X68613294Y-113191052D01*
X68618239Y-113166962D01*
X68638914Y-112970246D01*
X68638934Y-112967367D01*
X78600578Y-112967367D01*
X78600619Y-112979018D01*
X78608946Y-113146284D01*
X78621369Y-113395817D01*
X78622486Y-113407415D01*
X78681647Y-113820515D01*
X78683830Y-113831959D01*
X78780896Y-114237828D01*
X78784127Y-114249022D01*
X78918268Y-114644190D01*
X78922519Y-114655038D01*
X79092589Y-115036126D01*
X79097824Y-115046535D01*
X79302368Y-115410284D01*
X79308542Y-115420165D01*
X79545811Y-115763465D01*
X79552872Y-115772733D01*
X79820838Y-116092648D01*
X79828724Y-116101224D01*
X80125095Y-116395020D01*
X80133740Y-116402831D01*
X80455981Y-116667995D01*
X80465311Y-116674975D01*
X80810669Y-116909239D01*
X80820603Y-116915327D01*
X81186123Y-117116689D01*
X81196577Y-117121833D01*
X81579134Y-117288571D01*
X81590018Y-117292727D01*
X81986342Y-117423415D01*
X81997564Y-117426548D01*
X82404265Y-117520068D01*
X82415729Y-117522152D01*
X82829329Y-117577706D01*
X82840936Y-117578721D01*
X83257900Y-117595832D01*
X83269551Y-117595771D01*
X83686313Y-117574294D01*
X83697908Y-117573157D01*
X84110904Y-117513276D01*
X84122345Y-117511073D01*
X84528044Y-117413298D01*
X84539233Y-117410047D01*
X84934166Y-117275216D01*
X84945006Y-117270946D01*
X85325796Y-117100212D01*
X85336196Y-117094959D01*
X85699588Y-116889780D01*
X85709458Y-116883588D01*
X86052343Y-116645720D01*
X86061598Y-116638644D01*
X86381046Y-116370121D01*
X86389609Y-116362219D01*
X86682887Y-116065335D01*
X86690683Y-116056677D01*
X86955283Y-115733973D01*
X86962246Y-115724632D01*
X87195908Y-115378866D01*
X87201979Y-115368920D01*
X87402702Y-115003049D01*
X87407827Y-114992587D01*
X87573897Y-114609740D01*
X87578035Y-114598848D01*
X87708031Y-114202297D01*
X87711144Y-114191069D01*
X87803955Y-113784205D01*
X87806019Y-113772738D01*
X87860850Y-113359042D01*
X87861827Y-113347873D01*
X87878321Y-112962386D01*
X87878301Y-112951175D01*
X87874342Y-112865642D01*
X89717466Y-112865642D01*
X89726548Y-113212461D01*
X89727762Y-113226917D01*
X89776646Y-113570394D01*
X89779513Y-113584613D01*
X89867551Y-113920196D01*
X89872034Y-113933993D01*
X89998060Y-114257232D01*
X90004099Y-114270421D01*
X90166442Y-114577033D01*
X90173956Y-114589441D01*
X90370464Y-114875362D01*
X90379355Y-114886824D01*
X90607424Y-115148264D01*
X90617573Y-115158628D01*
X90874179Y-115392122D01*
X90885453Y-115401252D01*
X91167196Y-115603705D01*
X91179444Y-115611477D01*
X91482589Y-115780206D01*
X91495649Y-115786520D01*
X91816178Y-115919287D01*
X91829877Y-115924057D01*
X92163542Y-116019104D01*
X92177699Y-116022269D01*
X92520077Y-116078336D01*
X92534504Y-116079852D01*
X92881058Y-116096195D01*
X92895563Y-116096043D01*
X93241698Y-116072446D01*
X93256090Y-116070628D01*
X93597219Y-116007403D01*
X93611306Y-116003943D01*
X93942907Y-115901929D01*
X93956503Y-115896872D01*
X94274181Y-115757421D01*
X94287106Y-115750836D01*
X94586651Y-115575796D01*
X94598734Y-115567768D01*
X94876176Y-115359459D01*
X94887256Y-115350096D01*
X95138916Y-115111280D01*
X95148846Y-115100706D01*
X95371389Y-114834547D01*
X95380038Y-114822901D01*
X95570516Y-114532927D01*
X95577769Y-114520364D01*
X95733655Y-114210419D01*
X95739416Y-114197106D01*
X95858644Y-113871298D01*
X95862837Y-113857411D01*
X95943828Y-113520059D01*
X95946396Y-113505783D01*
X95988077Y-113161357D01*
X95988928Y-113150176D01*
X95994874Y-112960957D01*
X95994787Y-112954344D01*
X106361173Y-112954344D01*
X106379100Y-113151331D01*
X106383707Y-113175486D01*
X106439554Y-113365239D01*
X106448766Y-113388039D01*
X106540406Y-113563330D01*
X106553871Y-113583907D01*
X106677814Y-113738061D01*
X106695020Y-113755631D01*
X106846544Y-113882775D01*
X106866834Y-113896668D01*
X107040168Y-113991959D01*
X107062770Y-114001646D01*
X107251312Y-114061455D01*
X107275366Y-114066568D01*
X107428239Y-114083715D01*
X107442284Y-114084500D01*
X107551123Y-114084500D01*
X107563418Y-114083899D01*
X107709281Y-114069597D01*
X107733404Y-114064820D01*
X107922762Y-114007649D01*
X107945497Y-113998279D01*
X108120144Y-113905418D01*
X108140627Y-113891809D01*
X108293912Y-113766793D01*
X108311361Y-113749465D01*
X108437444Y-113597057D01*
X108451195Y-113576670D01*
X108545273Y-113402675D01*
X108554802Y-113380007D01*
X108613294Y-113191052D01*
X108618239Y-113166962D01*
X108638914Y-112970246D01*
X108639025Y-112954344D01*
X146361173Y-112954344D01*
X146379100Y-113151331D01*
X146383707Y-113175486D01*
X146439554Y-113365239D01*
X146448766Y-113388039D01*
X146540406Y-113563330D01*
X146553871Y-113583907D01*
X146677814Y-113738061D01*
X146695020Y-113755631D01*
X146846544Y-113882775D01*
X146866834Y-113896668D01*
X147040168Y-113991959D01*
X147062770Y-114001646D01*
X147251312Y-114061455D01*
X147275366Y-114066568D01*
X147428239Y-114083715D01*
X147442284Y-114084500D01*
X147551123Y-114084500D01*
X147563418Y-114083899D01*
X147709281Y-114069597D01*
X147733404Y-114064820D01*
X147922762Y-114007649D01*
X147945497Y-113998279D01*
X148120144Y-113905418D01*
X148140627Y-113891809D01*
X148293912Y-113766793D01*
X148311361Y-113749465D01*
X148437444Y-113597057D01*
X148451195Y-113576670D01*
X148545273Y-113402675D01*
X148554802Y-113380007D01*
X148613294Y-113191052D01*
X148618239Y-113166962D01*
X148638914Y-112970246D01*
X148639085Y-112945656D01*
X148635717Y-112908642D01*
X166862030Y-112908642D01*
X166871112Y-113255461D01*
X166872326Y-113269917D01*
X166921210Y-113613394D01*
X166924077Y-113627613D01*
X167012115Y-113963196D01*
X167016598Y-113976993D01*
X167142624Y-114300232D01*
X167148663Y-114313421D01*
X167311006Y-114620033D01*
X167318520Y-114632441D01*
X167515028Y-114918362D01*
X167523919Y-114929824D01*
X167751988Y-115191264D01*
X167762137Y-115201628D01*
X168018743Y-115435122D01*
X168030017Y-115444252D01*
X168311760Y-115646705D01*
X168324008Y-115654477D01*
X168627153Y-115823206D01*
X168640213Y-115829520D01*
X168960742Y-115962287D01*
X168974441Y-115967057D01*
X169308106Y-116062104D01*
X169322263Y-116065269D01*
X169664641Y-116121336D01*
X169679068Y-116122852D01*
X170025622Y-116139195D01*
X170040127Y-116139043D01*
X170386262Y-116115446D01*
X170400654Y-116113628D01*
X170741783Y-116050403D01*
X170755870Y-116046943D01*
X171087471Y-115944929D01*
X171101067Y-115939872D01*
X171418745Y-115800421D01*
X171431670Y-115793836D01*
X171731215Y-115618796D01*
X171743298Y-115610768D01*
X172020740Y-115402459D01*
X172031820Y-115393096D01*
X172283480Y-115154280D01*
X172293410Y-115143706D01*
X172515953Y-114877547D01*
X172524602Y-114865901D01*
X172715080Y-114575927D01*
X172722333Y-114563364D01*
X172878219Y-114253419D01*
X172883980Y-114240106D01*
X173003208Y-113914298D01*
X173007401Y-113900411D01*
X173088392Y-113563059D01*
X173090960Y-113548783D01*
X173132641Y-113204357D01*
X173133492Y-113193176D01*
X173139438Y-113003957D01*
X173139291Y-112992747D01*
X173119320Y-112646384D01*
X173117653Y-112631974D01*
X173058004Y-112290202D01*
X173054691Y-112276079D01*
X172956155Y-111943427D01*
X172951241Y-111929778D01*
X172815124Y-111610657D01*
X172808675Y-111597664D01*
X172636782Y-111296302D01*
X172628881Y-111284136D01*
X172423489Y-111004529D01*
X172414242Y-110993352D01*
X172178073Y-110739205D01*
X172167604Y-110729165D01*
X171903790Y-110503846D01*
X171892235Y-110495075D01*
X171604272Y-110301572D01*
X171591786Y-110294188D01*
X171283491Y-110135065D01*
X171270239Y-110129165D01*
X170945697Y-110006531D01*
X170931855Y-110002193D01*
X170595370Y-109917673D01*
X170581120Y-109914955D01*
X170237149Y-109869671D01*
X170222682Y-109868609D01*
X169875787Y-109863159D01*
X169861294Y-109863766D01*
X169516071Y-109898224D01*
X169501743Y-109900493D01*
X169162768Y-109974402D01*
X169148796Y-109978303D01*
X168820563Y-110090682D01*
X168807133Y-110096163D01*
X168493991Y-110245524D01*
X168481279Y-110252513D01*
X168187380Y-110436875D01*
X168175555Y-110445278D01*
X167904794Y-110662199D01*
X167894014Y-110671905D01*
X167649979Y-110918509D01*
X167640386Y-110929391D01*
X167426313Y-111202409D01*
X167418034Y-111214320D01*
X167236759Y-111510133D01*
X167229904Y-111522918D01*
X167083831Y-111837607D01*
X167078491Y-111851094D01*
X166969555Y-112180486D01*
X166965801Y-112194498D01*
X166895446Y-112534228D01*
X166893327Y-112548578D01*
X166862486Y-112894143D01*
X166862030Y-112908642D01*
X148635717Y-112908642D01*
X148621158Y-112748669D01*
X148616551Y-112724514D01*
X148560704Y-112534761D01*
X148551492Y-112511961D01*
X148459852Y-112336670D01*
X148446387Y-112316093D01*
X148322444Y-112161939D01*
X148305238Y-112144369D01*
X148153714Y-112017225D01*
X148133424Y-112003332D01*
X147960090Y-111908041D01*
X147937488Y-111898354D01*
X147748946Y-111838545D01*
X147724892Y-111833432D01*
X147572019Y-111816285D01*
X147557974Y-111815500D01*
X147449135Y-111815500D01*
X147436840Y-111816101D01*
X147290977Y-111830403D01*
X147266854Y-111835180D01*
X147077496Y-111892351D01*
X147054761Y-111901721D01*
X146880114Y-111994582D01*
X146859631Y-112008191D01*
X146706346Y-112133207D01*
X146688897Y-112150535D01*
X146562814Y-112302943D01*
X146549063Y-112323330D01*
X146454985Y-112497325D01*
X146445456Y-112519993D01*
X146386964Y-112708948D01*
X146382019Y-112733038D01*
X146361344Y-112929754D01*
X146361173Y-112954344D01*
X108639025Y-112954344D01*
X108639085Y-112945656D01*
X108621158Y-112748669D01*
X108616551Y-112724514D01*
X108560704Y-112534761D01*
X108551492Y-112511961D01*
X108459852Y-112336670D01*
X108446387Y-112316093D01*
X108322444Y-112161939D01*
X108305238Y-112144369D01*
X108153714Y-112017225D01*
X108133424Y-112003332D01*
X107960090Y-111908041D01*
X107937488Y-111898354D01*
X107748946Y-111838545D01*
X107724892Y-111833432D01*
X107572019Y-111816285D01*
X107557974Y-111815500D01*
X107449135Y-111815500D01*
X107436840Y-111816101D01*
X107290977Y-111830403D01*
X107266854Y-111835180D01*
X107077496Y-111892351D01*
X107054761Y-111901721D01*
X106880114Y-111994582D01*
X106859631Y-112008191D01*
X106706346Y-112133207D01*
X106688897Y-112150535D01*
X106562814Y-112302943D01*
X106549063Y-112323330D01*
X106454985Y-112497325D01*
X106445456Y-112519993D01*
X106386964Y-112708948D01*
X106382019Y-112733038D01*
X106361344Y-112929754D01*
X106361173Y-112954344D01*
X95994787Y-112954344D01*
X95994727Y-112949747D01*
X95974756Y-112603384D01*
X95973089Y-112588974D01*
X95913440Y-112247202D01*
X95910127Y-112233079D01*
X95811591Y-111900427D01*
X95806677Y-111886778D01*
X95670560Y-111567657D01*
X95664111Y-111554664D01*
X95492218Y-111253302D01*
X95484317Y-111241136D01*
X95278925Y-110961529D01*
X95269678Y-110950352D01*
X95033509Y-110696205D01*
X95023040Y-110686165D01*
X94759226Y-110460846D01*
X94747671Y-110452075D01*
X94459708Y-110258572D01*
X94447222Y-110251188D01*
X94138927Y-110092065D01*
X94125675Y-110086165D01*
X93801133Y-109963531D01*
X93787291Y-109959193D01*
X93450806Y-109874673D01*
X93436556Y-109871955D01*
X93092585Y-109826671D01*
X93078118Y-109825609D01*
X92731223Y-109820159D01*
X92716730Y-109820766D01*
X92371507Y-109855224D01*
X92357179Y-109857493D01*
X92018204Y-109931402D01*
X92004232Y-109935303D01*
X91675999Y-110047682D01*
X91662569Y-110053163D01*
X91349427Y-110202524D01*
X91336715Y-110209513D01*
X91042816Y-110393875D01*
X91030991Y-110402278D01*
X90760230Y-110619199D01*
X90749450Y-110628905D01*
X90505415Y-110875509D01*
X90495822Y-110886391D01*
X90281749Y-111159409D01*
X90273470Y-111171320D01*
X90092195Y-111467133D01*
X90085340Y-111479918D01*
X89939267Y-111794607D01*
X89933927Y-111808094D01*
X89824991Y-112137486D01*
X89821237Y-112151498D01*
X89750882Y-112491228D01*
X89748763Y-112505578D01*
X89717922Y-112851143D01*
X89717466Y-112865642D01*
X87874342Y-112865642D01*
X87859007Y-112534307D01*
X87857931Y-112522705D01*
X87800212Y-112109401D01*
X87798069Y-112097949D01*
X87702421Y-111691743D01*
X87699229Y-111680537D01*
X87566467Y-111284903D01*
X87562254Y-111274041D01*
X87393516Y-110892362D01*
X87388317Y-110881935D01*
X87185044Y-110517474D01*
X87178904Y-110507571D01*
X86942834Y-110163445D01*
X86935806Y-110154153D01*
X86668959Y-109833304D01*
X86661103Y-109824700D01*
X86365759Y-109529872D01*
X86357141Y-109522031D01*
X86035827Y-109255744D01*
X86026522Y-109248732D01*
X85681985Y-109013263D01*
X85672072Y-109007140D01*
X85307257Y-108804504D01*
X85296821Y-108799324D01*
X84914848Y-108631252D01*
X84903978Y-108627057D01*
X84508113Y-108494986D01*
X84496902Y-108491814D01*
X84090530Y-108396875D01*
X84079074Y-108394752D01*
X83665670Y-108337755D01*
X83654067Y-108336699D01*
X83237165Y-108318132D01*
X83225514Y-108318152D01*
X82808680Y-108338174D01*
X82797080Y-108339271D01*
X82383878Y-108397710D01*
X82372430Y-108399873D01*
X81966392Y-108496231D01*
X81955192Y-108499442D01*
X81559790Y-108632893D01*
X81548935Y-108637126D01*
X81167551Y-108806531D01*
X81157133Y-108811748D01*
X80793028Y-109015657D01*
X80783136Y-109021813D01*
X80439422Y-109258482D01*
X80430142Y-109265527D01*
X80109759Y-109532934D01*
X80101168Y-109540805D01*
X79806856Y-109836663D01*
X79799030Y-109845294D01*
X79533304Y-110167073D01*
X79526309Y-110176391D01*
X79291442Y-110521339D01*
X79285337Y-110531262D01*
X79083338Y-110896430D01*
X79078175Y-110906875D01*
X78910770Y-111289140D01*
X78906595Y-111300017D01*
X78775215Y-111696112D01*
X78772062Y-111707329D01*
X78677832Y-112113866D01*
X78675729Y-112125326D01*
X78619454Y-112538829D01*
X78618418Y-112550434D01*
X78600578Y-112967367D01*
X68638934Y-112967367D01*
X68639085Y-112945656D01*
X68621158Y-112748669D01*
X68616551Y-112724514D01*
X68560704Y-112534761D01*
X68551492Y-112511961D01*
X68459852Y-112336670D01*
X68446387Y-112316093D01*
X68322444Y-112161939D01*
X68305238Y-112144369D01*
X68153714Y-112017225D01*
X68133424Y-112003332D01*
X67960090Y-111908041D01*
X67937488Y-111898354D01*
X67748946Y-111838545D01*
X67724892Y-111833432D01*
X67572019Y-111816285D01*
X67557974Y-111815500D01*
X67449135Y-111815500D01*
X67436840Y-111816101D01*
X67290977Y-111830403D01*
X67266854Y-111835180D01*
X67077496Y-111892351D01*
X67054761Y-111901721D01*
X66880114Y-111994582D01*
X66859631Y-112008191D01*
X66706346Y-112133207D01*
X66688897Y-112150535D01*
X66562814Y-112302943D01*
X66549063Y-112323330D01*
X66454985Y-112497325D01*
X66445456Y-112519993D01*
X66386964Y-112708948D01*
X66382019Y-112733038D01*
X66361344Y-112929754D01*
X66361173Y-112954344D01*
X28639025Y-112954344D01*
X28639085Y-112945656D01*
X28621158Y-112748669D01*
X28616551Y-112724514D01*
X28560704Y-112534761D01*
X28551492Y-112511961D01*
X28459852Y-112336670D01*
X28446387Y-112316093D01*
X28322444Y-112161939D01*
X28305238Y-112144369D01*
X28153714Y-112017225D01*
X28133424Y-112003332D01*
X27960090Y-111908041D01*
X27937488Y-111898354D01*
X27748946Y-111838545D01*
X27724892Y-111833432D01*
X27572019Y-111816285D01*
X27557974Y-111815500D01*
X27449135Y-111815500D01*
X27436840Y-111816101D01*
X27290977Y-111830403D01*
X27266854Y-111835180D01*
X27077496Y-111892351D01*
X27054761Y-111901721D01*
X26880114Y-111994582D01*
X26859631Y-112008191D01*
X26706346Y-112133207D01*
X26688897Y-112150535D01*
X26562814Y-112302943D01*
X26549063Y-112323330D01*
X26454985Y-112497325D01*
X26445456Y-112519993D01*
X26386964Y-112708948D01*
X26382019Y-112733038D01*
X26361344Y-112929754D01*
X26361173Y-112954344D01*
X19137077Y-112954344D01*
X19119320Y-112646384D01*
X19117653Y-112631974D01*
X19058004Y-112290202D01*
X19054691Y-112276079D01*
X18956155Y-111943427D01*
X18951241Y-111929778D01*
X18815124Y-111610657D01*
X18808675Y-111597664D01*
X18636782Y-111296302D01*
X18628881Y-111284136D01*
X18423489Y-111004529D01*
X18414242Y-110993352D01*
X18178073Y-110739205D01*
X18167604Y-110729165D01*
X17903790Y-110503846D01*
X17892235Y-110495075D01*
X17604272Y-110301572D01*
X17591786Y-110294188D01*
X17283491Y-110135065D01*
X17270239Y-110129165D01*
X16945697Y-110006531D01*
X16931855Y-110002193D01*
X16595370Y-109917673D01*
X16581120Y-109914955D01*
X16237149Y-109869671D01*
X16222682Y-109868609D01*
X15875787Y-109863159D01*
X15861294Y-109863766D01*
X15516071Y-109898224D01*
X15501743Y-109900493D01*
X15162768Y-109974402D01*
X15148796Y-109978303D01*
X14820563Y-110090682D01*
X14807133Y-110096163D01*
X14493991Y-110245524D01*
X14481279Y-110252513D01*
X14187380Y-110436875D01*
X14175555Y-110445278D01*
X13904794Y-110662199D01*
X13894014Y-110671905D01*
X13649979Y-110918509D01*
X13640386Y-110929391D01*
X13426313Y-111202409D01*
X13418034Y-111214320D01*
X13236759Y-111510133D01*
X13229904Y-111522918D01*
X13083831Y-111837607D01*
X13078491Y-111851094D01*
X12969555Y-112180486D01*
X12965801Y-112194498D01*
X12895446Y-112534228D01*
X12893327Y-112548578D01*
X12862486Y-112894143D01*
X12862030Y-112908642D01*
X11638042Y-112908642D01*
X11621485Y-112539986D01*
X11621820Y-112523058D01*
X11620705Y-112503652D01*
X11619430Y-112494239D01*
X11619151Y-112488028D01*
X11617078Y-112470243D01*
X11613921Y-112453570D01*
X11557619Y-112037926D01*
X11556436Y-112021042D01*
X11553585Y-112001810D01*
X11551474Y-111992559D01*
X11550639Y-111986398D01*
X11546980Y-111968868D01*
X11542338Y-111952533D01*
X11449007Y-111543627D01*
X11446315Y-111526913D01*
X11441750Y-111508009D01*
X11438815Y-111498978D01*
X11437434Y-111492925D01*
X11432219Y-111475791D01*
X11426130Y-111459935D01*
X11296526Y-111061055D01*
X11292343Y-111044637D01*
X11286104Y-111026224D01*
X11282370Y-111017487D01*
X11280450Y-111011579D01*
X11273720Y-110994986D01*
X11266241Y-110979754D01*
X11101396Y-110594081D01*
X11095760Y-110578107D01*
X11087896Y-110560327D01*
X11083393Y-110551959D01*
X11080952Y-110546248D01*
X11072762Y-110530325D01*
X11063945Y-110515820D01*
X10865193Y-110146475D01*
X10858147Y-110131072D01*
X10848721Y-110114070D01*
X10843491Y-110106147D01*
X10840547Y-110100676D01*
X10830960Y-110085547D01*
X10820874Y-110071884D01*
X10589818Y-109721848D01*
X10581422Y-109707142D01*
X10570508Y-109691052D01*
X10564597Y-109683640D01*
X10561168Y-109678445D01*
X10550266Y-109664239D01*
X10538993Y-109651532D01*
X10277481Y-109323608D01*
X10267811Y-109309727D01*
X10255500Y-109294679D01*
X10248933Y-109287811D01*
X10245061Y-109282955D01*
X10232929Y-109269783D01*
X10220572Y-109258147D01*
X9930724Y-108954990D01*
X9919836Y-108942017D01*
X9906224Y-108928133D01*
X9899075Y-108921887D01*
X9894782Y-108917397D01*
X9881514Y-108905362D01*
X9868161Y-108894879D01*
X9552305Y-108618924D01*
X9540300Y-108606981D01*
X9525503Y-108594376D01*
X9517812Y-108588788D01*
X9513135Y-108584702D01*
X9498853Y-108573913D01*
X9484615Y-108564669D01*
X9145281Y-108318129D01*
X9132261Y-108307317D01*
X9116390Y-108296087D01*
X9108246Y-108291221D01*
X9103211Y-108287563D01*
X9088011Y-108278093D01*
X9072994Y-108270159D01*
X8712946Y-108055040D01*
X8699005Y-108045436D01*
X8682190Y-108035673D01*
X8673635Y-108031553D01*
X8668299Y-108028365D01*
X8652311Y-108020296D01*
X8636657Y-108013746D01*
X8258758Y-107831758D01*
X8244010Y-107823441D01*
X8226390Y-107815227D01*
X8217506Y-107811893D01*
X8211906Y-107809196D01*
X8195257Y-107802591D01*
X8179071Y-107797468D01*
X7786386Y-107650090D01*
X7770957Y-107643131D01*
X7752673Y-107636528D01*
X7743508Y-107633998D01*
X7737695Y-107631817D01*
X7720528Y-107626733D01*
X7703944Y-107623080D01*
X7299646Y-107511502D01*
X7283644Y-107505949D01*
X7264832Y-107501010D01*
X7255488Y-107499315D01*
X7249508Y-107497664D01*
X7231949Y-107494138D01*
X7215114Y-107491987D01*
X6802425Y-107417097D01*
X6785994Y-107413002D01*
X6766820Y-107409770D01*
X6757363Y-107408919D01*
X6751247Y-107407809D01*
X6733442Y-107405871D01*
X6716463Y-107405238D01*
X6302876Y-107368014D01*
X6289212Y-107365728D01*
X6269846Y-107364009D01*
X6256731Y-107363861D01*
X6246945Y-107362980D01*
X6229037Y-107362647D01*
X6214924Y-107363389D01*
X5972312Y-107360646D01*
X5954437Y-107361717D01*
X5921914Y-107366000D01*
X634000Y-107366000D01*
X634000Y-85790000D01*
X41600850Y-85790000D01*
X41600850Y-100210000D01*
X41620852Y-100278121D01*
X41674508Y-100324614D01*
X41726850Y-100336000D01*
X42273150Y-100336000D01*
X42341271Y-100315998D01*
X42387764Y-100262342D01*
X42399150Y-100210000D01*
X42399150Y-85790000D01*
X81600850Y-85790000D01*
X81600850Y-100210000D01*
X81620852Y-100278121D01*
X81674508Y-100324614D01*
X81726850Y-100336000D01*
X82273150Y-100336000D01*
X82341271Y-100315998D01*
X82387764Y-100262342D01*
X82399150Y-100210000D01*
X82399150Y-85790000D01*
X121600850Y-85790000D01*
X121600850Y-100210000D01*
X121620852Y-100278121D01*
X121674508Y-100324614D01*
X121726850Y-100336000D01*
X122273150Y-100336000D01*
X122341271Y-100315998D01*
X122387764Y-100262342D01*
X122399150Y-100210000D01*
X122399150Y-85790000D01*
X161600850Y-85790000D01*
X161600850Y-100210000D01*
X161620852Y-100278121D01*
X161674508Y-100324614D01*
X161726850Y-100336000D01*
X162273150Y-100336000D01*
X162341271Y-100315998D01*
X162387764Y-100262342D01*
X162399150Y-100210000D01*
X162399150Y-85790000D01*
X162379148Y-85721879D01*
X162325492Y-85675386D01*
X162273150Y-85664000D01*
X161726850Y-85664000D01*
X161658729Y-85684002D01*
X161612236Y-85737658D01*
X161600850Y-85790000D01*
X122399150Y-85790000D01*
X122379148Y-85721879D01*
X122325492Y-85675386D01*
X122273150Y-85664000D01*
X121726850Y-85664000D01*
X121658729Y-85684002D01*
X121612236Y-85737658D01*
X121600850Y-85790000D01*
X82399150Y-85790000D01*
X82379148Y-85721879D01*
X82325492Y-85675386D01*
X82273150Y-85664000D01*
X81726850Y-85664000D01*
X81658729Y-85684002D01*
X81612236Y-85737658D01*
X81600850Y-85790000D01*
X42399150Y-85790000D01*
X42379148Y-85721879D01*
X42325492Y-85675386D01*
X42273150Y-85664000D01*
X41726850Y-85664000D01*
X41658729Y-85684002D01*
X41612236Y-85737658D01*
X41600850Y-85790000D01*
X634000Y-85790000D01*
X634000Y-45790000D01*
X41600850Y-45790000D01*
X41600850Y-60210000D01*
X41620852Y-60278121D01*
X41674508Y-60324614D01*
X41726850Y-60336000D01*
X42273150Y-60336000D01*
X42341271Y-60315998D01*
X42387764Y-60262342D01*
X42399150Y-60210000D01*
X42399150Y-45790000D01*
X81600850Y-45790000D01*
X81600850Y-60210000D01*
X81620852Y-60278121D01*
X81674508Y-60324614D01*
X81726850Y-60336000D01*
X82273150Y-60336000D01*
X82341271Y-60315998D01*
X82387764Y-60262342D01*
X82399150Y-60210000D01*
X82399150Y-45790000D01*
X121600850Y-45790000D01*
X121600850Y-60210000D01*
X121620852Y-60278121D01*
X121674508Y-60324614D01*
X121726850Y-60336000D01*
X122273150Y-60336000D01*
X122341271Y-60315998D01*
X122387764Y-60262342D01*
X122399150Y-60210000D01*
X122399150Y-45790000D01*
X161600850Y-45790000D01*
X161600850Y-60210000D01*
X161620852Y-60278121D01*
X161674508Y-60324614D01*
X161726850Y-60336000D01*
X162273150Y-60336000D01*
X162341271Y-60315998D01*
X162387764Y-60262342D01*
X162399150Y-60210000D01*
X162399150Y-45790000D01*
X162379148Y-45721879D01*
X162325492Y-45675386D01*
X162273150Y-45664000D01*
X161726850Y-45664000D01*
X161658729Y-45684002D01*
X161612236Y-45737658D01*
X161600850Y-45790000D01*
X122399150Y-45790000D01*
X122379148Y-45721879D01*
X122325492Y-45675386D01*
X122273150Y-45664000D01*
X121726850Y-45664000D01*
X121658729Y-45684002D01*
X121612236Y-45737658D01*
X121600850Y-45790000D01*
X82399150Y-45790000D01*
X82379148Y-45721879D01*
X82325492Y-45675386D01*
X82273150Y-45664000D01*
X81726850Y-45664000D01*
X81658729Y-45684002D01*
X81612236Y-45737658D01*
X81600850Y-45790000D01*
X42399150Y-45790000D01*
X42379148Y-45721879D01*
X42325492Y-45675386D01*
X42273150Y-45664000D01*
X41726850Y-45664000D01*
X41658729Y-45684002D01*
X41612236Y-45737658D01*
X41600850Y-45790000D01*
X634000Y-45790000D01*
X634000Y-17908642D01*
X8862030Y-17908642D01*
X8871112Y-18255461D01*
X8872326Y-18269917D01*
X8921210Y-18613394D01*
X8924077Y-18627613D01*
X9012115Y-18963196D01*
X9016598Y-18976993D01*
X9142624Y-19300232D01*
X9148663Y-19313421D01*
X9311006Y-19620033D01*
X9318520Y-19632441D01*
X9515028Y-19918362D01*
X9523919Y-19929824D01*
X9751988Y-20191264D01*
X9762137Y-20201628D01*
X10018743Y-20435122D01*
X10030017Y-20444252D01*
X10311760Y-20646705D01*
X10324008Y-20654477D01*
X10627153Y-20823206D01*
X10640213Y-20829520D01*
X10960742Y-20962287D01*
X10974441Y-20967057D01*
X11308106Y-21062104D01*
X11322263Y-21065269D01*
X11664641Y-21121336D01*
X11679068Y-21122852D01*
X12025622Y-21139195D01*
X12040127Y-21139043D01*
X12386262Y-21115446D01*
X12400654Y-21113628D01*
X12741783Y-21050403D01*
X12755870Y-21046943D01*
X13087471Y-20944929D01*
X13101067Y-20939872D01*
X13418745Y-20800421D01*
X13431670Y-20793836D01*
X13731215Y-20618796D01*
X13743298Y-20610768D01*
X14020740Y-20402459D01*
X14031820Y-20393096D01*
X14283480Y-20154280D01*
X14293410Y-20143706D01*
X14515953Y-19877547D01*
X14524602Y-19865901D01*
X14715080Y-19575927D01*
X14722333Y-19563364D01*
X14878219Y-19253419D01*
X14883980Y-19240106D01*
X15003208Y-18914298D01*
X15007401Y-18900411D01*
X15088392Y-18563059D01*
X15090960Y-18548783D01*
X15132641Y-18204357D01*
X15133492Y-18193176D01*
X15139438Y-18003957D01*
X15139291Y-17992747D01*
X15134442Y-17908642D01*
X170862030Y-17908642D01*
X170871112Y-18255461D01*
X170872326Y-18269917D01*
X170921210Y-18613394D01*
X170924077Y-18627613D01*
X171012115Y-18963196D01*
X171016598Y-18976993D01*
X171142624Y-19300232D01*
X171148663Y-19313421D01*
X171311006Y-19620033D01*
X171318520Y-19632441D01*
X171515028Y-19918362D01*
X171523919Y-19929824D01*
X171751988Y-20191264D01*
X171762137Y-20201628D01*
X172018743Y-20435122D01*
X172030017Y-20444252D01*
X172311760Y-20646705D01*
X172324008Y-20654477D01*
X172627153Y-20823206D01*
X172640213Y-20829520D01*
X172960742Y-20962287D01*
X172974441Y-20967057D01*
X173308106Y-21062104D01*
X173322263Y-21065269D01*
X173664641Y-21121336D01*
X173679068Y-21122852D01*
X174025622Y-21139195D01*
X174040127Y-21139043D01*
X174386262Y-21115446D01*
X174400654Y-21113628D01*
X174741783Y-21050403D01*
X174755870Y-21046943D01*
X175087471Y-20944929D01*
X175101067Y-20939872D01*
X175418745Y-20800421D01*
X175431670Y-20793836D01*
X175731215Y-20618796D01*
X175743298Y-20610768D01*
X176020740Y-20402459D01*
X176031820Y-20393096D01*
X176283480Y-20154280D01*
X176293410Y-20143706D01*
X176515953Y-19877547D01*
X176524602Y-19865901D01*
X176715080Y-19575927D01*
X176722333Y-19563364D01*
X176878219Y-19253419D01*
X176883980Y-19240106D01*
X177003208Y-18914298D01*
X177007401Y-18900411D01*
X177088392Y-18563059D01*
X177090960Y-18548783D01*
X177132641Y-18204357D01*
X177133492Y-18193176D01*
X177139438Y-18003957D01*
X177139291Y-17992747D01*
X177119320Y-17646384D01*
X177117653Y-17631974D01*
X177058004Y-17290202D01*
X177054691Y-17276079D01*
X176956155Y-16943427D01*
X176951241Y-16929778D01*
X176815124Y-16610657D01*
X176808675Y-16597664D01*
X176636782Y-16296302D01*
X176628881Y-16284136D01*
X176423489Y-16004529D01*
X176414242Y-15993352D01*
X176178073Y-15739205D01*
X176167604Y-15729165D01*
X175903790Y-15503846D01*
X175892235Y-15495075D01*
X175604272Y-15301572D01*
X175591786Y-15294188D01*
X175283491Y-15135065D01*
X175270239Y-15129165D01*
X174945697Y-15006531D01*
X174931855Y-15002193D01*
X174595370Y-14917673D01*
X174581120Y-14914955D01*
X174237149Y-14869671D01*
X174222682Y-14868609D01*
X173875787Y-14863159D01*
X173861294Y-14863766D01*
X173516071Y-14898224D01*
X173501743Y-14900493D01*
X173162768Y-14974402D01*
X173148796Y-14978303D01*
X172820563Y-15090682D01*
X172807133Y-15096163D01*
X172493991Y-15245524D01*
X172481279Y-15252513D01*
X172187380Y-15436875D01*
X172175555Y-15445278D01*
X171904794Y-15662199D01*
X171894014Y-15671905D01*
X171649979Y-15918509D01*
X171640386Y-15929391D01*
X171426313Y-16202409D01*
X171418034Y-16214320D01*
X171236759Y-16510133D01*
X171229904Y-16522918D01*
X171083831Y-16837607D01*
X171078491Y-16851094D01*
X170969555Y-17180486D01*
X170965801Y-17194498D01*
X170895446Y-17534228D01*
X170893327Y-17548578D01*
X170862486Y-17894143D01*
X170862030Y-17908642D01*
X15134442Y-17908642D01*
X15119320Y-17646384D01*
X15117653Y-17631974D01*
X15058004Y-17290202D01*
X15054691Y-17276079D01*
X14956155Y-16943427D01*
X14951241Y-16929778D01*
X14815124Y-16610657D01*
X14808675Y-16597664D01*
X14636782Y-16296302D01*
X14628881Y-16284136D01*
X14423489Y-16004529D01*
X14414242Y-15993352D01*
X14178073Y-15739205D01*
X14167604Y-15729165D01*
X13903790Y-15503846D01*
X13892235Y-15495075D01*
X13604272Y-15301572D01*
X13591786Y-15294188D01*
X13283491Y-15135065D01*
X13270239Y-15129165D01*
X12945697Y-15006531D01*
X12931855Y-15002193D01*
X12595370Y-14917673D01*
X12581120Y-14914955D01*
X12237149Y-14869671D01*
X12222682Y-14868609D01*
X11875787Y-14863159D01*
X11861294Y-14863766D01*
X11516071Y-14898224D01*
X11501743Y-14900493D01*
X11162768Y-14974402D01*
X11148796Y-14978303D01*
X10820563Y-15090682D01*
X10807133Y-15096163D01*
X10493991Y-15245524D01*
X10481279Y-15252513D01*
X10187380Y-15436875D01*
X10175555Y-15445278D01*
X9904794Y-15662199D01*
X9894014Y-15671905D01*
X9649979Y-15918509D01*
X9640386Y-15929391D01*
X9426313Y-16202409D01*
X9418034Y-16214320D01*
X9236759Y-16510133D01*
X9229904Y-16522918D01*
X9083831Y-16837607D01*
X9078491Y-16851094D01*
X8969555Y-17180486D01*
X8965801Y-17194498D01*
X8895446Y-17534228D01*
X8893327Y-17548578D01*
X8862486Y-17894143D01*
X8862030Y-17908642D01*
X634000Y-17908642D01*
X634000Y-4908642D01*
X89862030Y-4908642D01*
X89871112Y-5255461D01*
X89872326Y-5269917D01*
X89921210Y-5613394D01*
X89924077Y-5627613D01*
X90012115Y-5963196D01*
X90016598Y-5976993D01*
X90142624Y-6300232D01*
X90148663Y-6313421D01*
X90311006Y-6620033D01*
X90318520Y-6632441D01*
X90515028Y-6918362D01*
X90523919Y-6929824D01*
X90751988Y-7191264D01*
X90762137Y-7201628D01*
X91018743Y-7435122D01*
X91030017Y-7444252D01*
X91311760Y-7646705D01*
X91324008Y-7654477D01*
X91627153Y-7823206D01*
X91640213Y-7829520D01*
X91960742Y-7962287D01*
X91974441Y-7967057D01*
X92308106Y-8062104D01*
X92322263Y-8065269D01*
X92664641Y-8121336D01*
X92679068Y-8122852D01*
X93025622Y-8139195D01*
X93040127Y-8139043D01*
X93386262Y-8115446D01*
X93400654Y-8113628D01*
X93741783Y-8050403D01*
X93755870Y-8046943D01*
X94087471Y-7944929D01*
X94101067Y-7939872D01*
X94418745Y-7800421D01*
X94431670Y-7793836D01*
X94731215Y-7618796D01*
X94743298Y-7610768D01*
X95020740Y-7402459D01*
X95031820Y-7393096D01*
X95283480Y-7154280D01*
X95293410Y-7143706D01*
X95515953Y-6877547D01*
X95524602Y-6865901D01*
X95715080Y-6575927D01*
X95722333Y-6563364D01*
X95878219Y-6253419D01*
X95883980Y-6240106D01*
X96003208Y-5914298D01*
X96007401Y-5900411D01*
X96088392Y-5563059D01*
X96090960Y-5548783D01*
X96132641Y-5204357D01*
X96133492Y-5193176D01*
X96139438Y-5003957D01*
X96139291Y-4992747D01*
X96119320Y-4646384D01*
X96117653Y-4631974D01*
X96058004Y-4290202D01*
X96054691Y-4276079D01*
X95956155Y-3943427D01*
X95951241Y-3929778D01*
X95815124Y-3610657D01*
X95808675Y-3597664D01*
X95636782Y-3296302D01*
X95628881Y-3284136D01*
X95423489Y-3004529D01*
X95414242Y-2993352D01*
X95178073Y-2739205D01*
X95167604Y-2729165D01*
X94903790Y-2503846D01*
X94892235Y-2495075D01*
X94604272Y-2301572D01*
X94591786Y-2294188D01*
X94283491Y-2135065D01*
X94270239Y-2129165D01*
X93945697Y-2006531D01*
X93931855Y-2002193D01*
X93595370Y-1917673D01*
X93581120Y-1914955D01*
X93237149Y-1869671D01*
X93222682Y-1868609D01*
X92875787Y-1863159D01*
X92861294Y-1863766D01*
X92516071Y-1898224D01*
X92501743Y-1900493D01*
X92162768Y-1974402D01*
X92148796Y-1978303D01*
X91820563Y-2090682D01*
X91807133Y-2096163D01*
X91493991Y-2245524D01*
X91481279Y-2252513D01*
X91187380Y-2436875D01*
X91175555Y-2445278D01*
X90904794Y-2662199D01*
X90894014Y-2671905D01*
X90649979Y-2918509D01*
X90640386Y-2929391D01*
X90426313Y-3202409D01*
X90418034Y-3214320D01*
X90236759Y-3510133D01*
X90229904Y-3522918D01*
X90083831Y-3837607D01*
X90078491Y-3851094D01*
X89969555Y-4180486D01*
X89965801Y-4194498D01*
X89895446Y-4534228D01*
X89893327Y-4548578D01*
X89862486Y-4894143D01*
X89862030Y-4908642D01*
X634000Y-4908642D01*
X634000Y-634000D01*
X185366000Y-634000D01*
X185366000Y-107366000D01*
G37*
G04 #@! TD.AperFunction*
G04 #@! TD*
M02*
