%TF.GenerationSoftware,KiCad,Pcbnew,5.99.0-unknown-64afa3a42e~128~ubuntu20.04.1*%
%TF.CreationDate,2021-05-18T17:39:42-05:00*%
%TF.ProjectId,Feeds,46656564-732e-46b6-9963-61645f706362,rev?*%
%TF.SameCoordinates,Original*%
%TF.FileFunction,Copper,L2,Bot*%
%TF.FilePolarity,Positive*%
%FSLAX46Y46*%
G04 Gerber Fmt 4.6, Leading zero omitted, Abs format (unit mm)*
G04 Created by KiCad (PCBNEW 5.99.0-unknown-64afa3a42e~128~ubuntu20.04.1) date 2021-05-18 17:39:42*
%MOMM*%
%LPD*%
G01*
G04 APERTURE LIST*
G04 Aperture macros list*
%AMRotRect*
0 Rectangle, with rotation*
0 The origin of the aperture is its center*
0 $1 length*
0 $2 width*
0 $3 Rotation angle, in degrees counterclockwise*
0 Add horizontal line*
21,1,$1,$2,0,0,$3*%
%AMFreePoly0*
4,1,13,0.997739,0.781656,0.997754,0.781621,0.997754,-0.782490,0.997739,-0.782525,0.997704,-0.782540,-1.001585,-0.782540,-1.001620,-0.782525,-1.001635,-0.782490,-1.001635,0.781620,-1.001620,0.781655,-1.001585,0.781670,0.997704,0.781671,0.997739,0.781656,0.997739,0.781656,$1*%
G04 Aperture macros list end*
%TA.AperFunction,NonConductor*%
%ADD10C,0.001000*%
%TD*%
%TA.AperFunction,EtchedComponent*%
%ADD11C,0.000100*%
%TD*%
%TA.AperFunction,SMDPad,CuDef*%
%ADD12RotRect,1.109000X1.109000X225.000000*%
%TD*%
%TA.AperFunction,ConnectorPad*%
%ADD13C,5.000000*%
%TD*%
%TA.AperFunction,ComponentPad*%
%ADD14C,2.900000*%
%TD*%
%TA.AperFunction,SMDPad,CuDef*%
%ADD15RotRect,1.109000X1.109000X135.000000*%
%TD*%
%TA.AperFunction,ConnectorPad*%
%ADD16R,0.222000X0.111000*%
%TD*%
%TA.AperFunction,ConnectorPad*%
%ADD17R,0.111000X0.222000*%
%TD*%
%TA.AperFunction,SMDPad,CuDef*%
%ADD18R,0.560000X0.620000*%
%TD*%
%TA.AperFunction,SMDPad,CuDef*%
%ADD19R,0.620000X0.560000*%
%TD*%
%TA.AperFunction,SMDPad,CuDef*%
%ADD20R,0.553000X0.553000*%
%TD*%
%TA.AperFunction,SMDPad,CuDef*%
%ADD21RotRect,0.553000X0.553000X135.000000*%
%TD*%
%TA.AperFunction,SMDPad,CuDef*%
%ADD22RotRect,0.553000X0.553000X225.000000*%
%TD*%
%TA.AperFunction,WasherPad*%
%ADD23C,1.565000*%
%TD*%
%TA.AperFunction,SMDPad,CuDef*%
%ADD24FreePoly0,90.000000*%
%TD*%
%TA.AperFunction,SMDPad,CuDef*%
%ADD25FreePoly0,270.000000*%
%TD*%
%TA.AperFunction,ViaPad*%
%ADD26C,0.800100*%
%TD*%
%TA.AperFunction,Conductor*%
%ADD27C,0.222000*%
%TD*%
%TA.AperFunction,Conductor*%
%ADD28C,0.620000*%
%TD*%
G04 APERTURE END LIST*
D10*
X69956000Y-97210000D02*
X71074000Y-97210000D01*
X71074000Y-97210000D02*
X71074000Y-98393000D01*
X71074000Y-98393000D02*
X69956000Y-98393000D01*
X69956000Y-98393000D02*
X69956000Y-97210000D01*
G36*
X69956000Y-97210000D02*
G01*
X71074000Y-97210000D01*
X71074000Y-98393000D01*
X69956000Y-98393000D01*
X69956000Y-97210000D01*
G37*
X149957000Y-91736000D02*
X151075000Y-91736000D01*
X151075000Y-91736000D02*
X151075000Y-95691000D01*
X151075000Y-95691000D02*
X149957000Y-95691000D01*
X149957000Y-95691000D02*
X149957000Y-91736000D01*
G36*
X149957000Y-91736000D02*
G01*
X151075000Y-91736000D01*
X151075000Y-95691000D01*
X149957000Y-95691000D01*
X149957000Y-91736000D01*
G37*
X71089000Y-135364000D02*
X69971000Y-135364000D01*
X69971000Y-135364000D02*
X69971000Y-131409000D01*
X69971000Y-131409000D02*
X71089000Y-131409000D01*
X71089000Y-131409000D02*
X71089000Y-135364000D01*
G36*
X71089000Y-135364000D02*
G01*
X69971000Y-135364000D01*
X69971000Y-131409000D01*
X71089000Y-131409000D01*
X71089000Y-135364000D01*
G37*
X71090000Y-129889000D02*
X69972000Y-129889000D01*
X69972000Y-129889000D02*
X69972000Y-128706000D01*
X69972000Y-128706000D02*
X71090000Y-128706000D01*
X71090000Y-128706000D02*
X71090000Y-129889000D01*
G36*
X71090000Y-129889000D02*
G01*
X69972000Y-129889000D01*
X69972000Y-128706000D01*
X71090000Y-128706000D01*
X71090000Y-129889000D01*
G37*
X151091000Y-129889000D02*
X149973000Y-129889000D01*
X149973000Y-129889000D02*
X149973000Y-128706000D01*
X149973000Y-128706000D02*
X151091000Y-128706000D01*
X151091000Y-128706000D02*
X151091000Y-129889000D01*
G36*
X151091000Y-129889000D02*
G01*
X149973000Y-129889000D01*
X149973000Y-128706000D01*
X151091000Y-128706000D01*
X151091000Y-129889000D01*
G37*
X151090000Y-135364000D02*
X149972000Y-135364000D01*
X149972000Y-135364000D02*
X149972000Y-131409000D01*
X149972000Y-131409000D02*
X151090000Y-131409000D01*
X151090000Y-131409000D02*
X151090000Y-135364000D01*
G36*
X151090000Y-135364000D02*
G01*
X149972000Y-135364000D01*
X149972000Y-131409000D01*
X151090000Y-131409000D01*
X151090000Y-135364000D01*
G37*
X149956000Y-97211000D02*
X151074000Y-97211000D01*
X151074000Y-97211000D02*
X151074000Y-98394000D01*
X151074000Y-98394000D02*
X149956000Y-98394000D01*
X149956000Y-98394000D02*
X149956000Y-97211000D01*
G36*
X149956000Y-97211000D02*
G01*
X151074000Y-97211000D01*
X151074000Y-98394000D01*
X149956000Y-98394000D01*
X149956000Y-97211000D01*
G37*
X69957000Y-91735000D02*
X71075000Y-91735000D01*
X71075000Y-91735000D02*
X71075000Y-95690000D01*
X71075000Y-95690000D02*
X69957000Y-95690000D01*
X69957000Y-95690000D02*
X69957000Y-91735000D01*
G36*
X69957000Y-91735000D02*
G01*
X71075000Y-91735000D01*
X71075000Y-95690000D01*
X69957000Y-95690000D01*
X69957000Y-91735000D01*
G37*
D11*
%TO.C,AE5*%
X45779489Y-177004692D02*
X33852012Y-188932169D01*
X33852012Y-188932169D02*
X33067831Y-188147988D01*
X33067831Y-188147988D02*
X44995308Y-176220511D01*
X44995308Y-176220511D02*
X45779489Y-177004692D01*
G36*
X45779489Y-177004692D02*
G01*
X33852012Y-188932169D01*
X33067831Y-188147988D01*
X44995308Y-176220511D01*
X45779489Y-177004692D01*
G37*
X76995308Y-50779489D02*
X65067831Y-38852012D01*
X65067831Y-38852012D02*
X65852012Y-38067831D01*
X65852012Y-38067831D02*
X77779489Y-49995308D01*
X77779489Y-49995308D02*
X76995308Y-50779489D01*
G36*
X76995308Y-50779489D02*
G01*
X65067831Y-38852012D01*
X65852012Y-38067831D01*
X77779489Y-49995308D01*
X76995308Y-50779489D01*
G37*
X157779489Y-145004692D02*
X145852012Y-156932169D01*
X145852012Y-156932169D02*
X145067831Y-156147988D01*
X145067831Y-156147988D02*
X156995308Y-144220511D01*
X156995308Y-144220511D02*
X157779489Y-145004692D01*
G36*
X157779489Y-145004692D02*
G01*
X145852012Y-156932169D01*
X145067831Y-156147988D01*
X156995308Y-144220511D01*
X157779489Y-145004692D01*
G37*
X156995308Y-82779489D02*
X145067831Y-70852012D01*
X145067831Y-70852012D02*
X145852012Y-70067831D01*
X145852012Y-70067831D02*
X157779489Y-81995308D01*
X157779489Y-81995308D02*
X156995308Y-82779489D01*
G36*
X156995308Y-82779489D02*
G01*
X145067831Y-70852012D01*
X145852012Y-70067831D01*
X157779489Y-81995308D01*
X156995308Y-82779489D01*
G37*
X157779489Y-177004692D02*
X145852012Y-188932169D01*
X145852012Y-188932169D02*
X145067831Y-188147988D01*
X145067831Y-188147988D02*
X156995308Y-176220511D01*
X156995308Y-176220511D02*
X157779489Y-177004692D01*
G36*
X157779489Y-177004692D02*
G01*
X145852012Y-188932169D01*
X145067831Y-188147988D01*
X156995308Y-176220511D01*
X157779489Y-177004692D01*
G37*
X44995308Y-50779489D02*
X33067831Y-38852012D01*
X33067831Y-38852012D02*
X33852012Y-38067831D01*
X33852012Y-38067831D02*
X45779489Y-49995308D01*
X45779489Y-49995308D02*
X44995308Y-50779489D01*
G36*
X44995308Y-50779489D02*
G01*
X33067831Y-38852012D01*
X33852012Y-38067831D01*
X45779489Y-49995308D01*
X44995308Y-50779489D01*
G37*
X44995308Y-82779489D02*
X33067831Y-70852012D01*
X33067831Y-70852012D02*
X33852012Y-70067831D01*
X33852012Y-70067831D02*
X45779489Y-81995308D01*
X45779489Y-81995308D02*
X44995308Y-82779489D01*
G36*
X44995308Y-82779489D02*
G01*
X33067831Y-70852012D01*
X33852012Y-70067831D01*
X45779489Y-81995308D01*
X44995308Y-82779489D01*
G37*
X125779489Y-177004692D02*
X113852012Y-188932169D01*
X113852012Y-188932169D02*
X113067831Y-188147988D01*
X113067831Y-188147988D02*
X124995308Y-176220511D01*
X124995308Y-176220511D02*
X125779489Y-177004692D01*
G36*
X125779489Y-177004692D02*
G01*
X113852012Y-188932169D01*
X113067831Y-188147988D01*
X124995308Y-176220511D01*
X125779489Y-177004692D01*
G37*
X125779489Y-145004692D02*
X113852012Y-156932169D01*
X113852012Y-156932169D02*
X113067831Y-156147988D01*
X113067831Y-156147988D02*
X124995308Y-144220511D01*
X124995308Y-144220511D02*
X125779489Y-145004692D01*
G36*
X125779489Y-145004692D02*
G01*
X113852012Y-156932169D01*
X113067831Y-156147988D01*
X124995308Y-144220511D01*
X125779489Y-145004692D01*
G37*
X76995308Y-82779489D02*
X65067831Y-70852012D01*
X65067831Y-70852012D02*
X65852012Y-70067831D01*
X65852012Y-70067831D02*
X77779489Y-81995308D01*
X77779489Y-81995308D02*
X76995308Y-82779489D01*
G36*
X76995308Y-82779489D02*
G01*
X65067831Y-70852012D01*
X65852012Y-70067831D01*
X77779489Y-81995308D01*
X76995308Y-82779489D01*
G37*
X124995308Y-82779489D02*
X113067831Y-70852012D01*
X113067831Y-70852012D02*
X113852012Y-70067831D01*
X113852012Y-70067831D02*
X125779489Y-81995308D01*
X125779489Y-81995308D02*
X124995308Y-82779489D01*
G36*
X124995308Y-82779489D02*
G01*
X113067831Y-70852012D01*
X113852012Y-70067831D01*
X125779489Y-81995308D01*
X124995308Y-82779489D01*
G37*
X124995308Y-50779489D02*
X113067831Y-38852012D01*
X113067831Y-38852012D02*
X113852012Y-38067831D01*
X113852012Y-38067831D02*
X125779489Y-49995308D01*
X125779489Y-49995308D02*
X124995308Y-50779489D01*
G36*
X124995308Y-50779489D02*
G01*
X113067831Y-38852012D01*
X113852012Y-38067831D01*
X125779489Y-49995308D01*
X124995308Y-50779489D01*
G37*
X77779489Y-177004692D02*
X65852012Y-188932169D01*
X65852012Y-188932169D02*
X65067831Y-188147988D01*
X65067831Y-188147988D02*
X76995308Y-176220511D01*
X76995308Y-176220511D02*
X77779489Y-177004692D01*
G36*
X77779489Y-177004692D02*
G01*
X65852012Y-188932169D01*
X65067831Y-188147988D01*
X76995308Y-176220511D01*
X77779489Y-177004692D01*
G37*
X77779489Y-145004692D02*
X65852012Y-156932169D01*
X65852012Y-156932169D02*
X65067831Y-156147988D01*
X65067831Y-156147988D02*
X76995308Y-144220511D01*
X76995308Y-144220511D02*
X77779489Y-145004692D01*
G36*
X77779489Y-145004692D02*
G01*
X65852012Y-156932169D01*
X65067831Y-156147988D01*
X76995308Y-144220511D01*
X77779489Y-145004692D01*
G37*
X45779489Y-145004692D02*
X33852012Y-156932169D01*
X33852012Y-156932169D02*
X33067831Y-156147988D01*
X33067831Y-156147988D02*
X44995308Y-144220511D01*
X44995308Y-144220511D02*
X45779489Y-145004692D01*
G36*
X45779489Y-145004692D02*
G01*
X33852012Y-156932169D01*
X33067831Y-156147988D01*
X44995308Y-144220511D01*
X45779489Y-145004692D01*
G37*
X156995308Y-50779489D02*
X145067831Y-38852012D01*
X145067831Y-38852012D02*
X145852012Y-38067831D01*
X145852012Y-38067831D02*
X157779489Y-49995308D01*
X157779489Y-49995308D02*
X156995308Y-50779489D01*
G36*
X156995308Y-50779489D02*
G01*
X145067831Y-38852012D01*
X145852012Y-38067831D01*
X157779489Y-49995308D01*
X156995308Y-50779489D01*
G37*
%TO.C,REF\u002A\u002A*%
X163842025Y-138782025D02*
X163648025Y-138782025D01*
X163648025Y-138782025D02*
X163648025Y-139004025D01*
X163648025Y-139004025D02*
X163913025Y-139004025D01*
X163913025Y-139004025D02*
X163913025Y-139269025D01*
X163913025Y-139269025D02*
X164135025Y-139269025D01*
X164135025Y-139269025D02*
X164135025Y-139070025D01*
X164135025Y-139070025D02*
X163842025Y-138782025D01*
G36*
X164135025Y-139070025D02*
G01*
X164135025Y-139269025D01*
X163913025Y-139269025D01*
X163913025Y-139004025D01*
X163648025Y-139004025D01*
X163648025Y-138782025D01*
X163842025Y-138782025D01*
X164135025Y-139070025D01*
G37*
X164135025Y-139070025D02*
X164135025Y-139269025D01*
X163913025Y-139269025D01*
X163913025Y-139004025D01*
X163648025Y-139004025D01*
X163648025Y-138782025D01*
X163842025Y-138782025D01*
X164135025Y-139070025D01*
X86349000Y-135142975D02*
X86155000Y-135142975D01*
X86155000Y-135142975D02*
X86155000Y-135364975D01*
X86155000Y-135364975D02*
X86420000Y-135364975D01*
X86420000Y-135364975D02*
X86420000Y-135629975D01*
X86420000Y-135629975D02*
X86642000Y-135629975D01*
X86642000Y-135629975D02*
X86642000Y-135430975D01*
X86642000Y-135430975D02*
X86349000Y-135142975D01*
G36*
X86642000Y-135430975D02*
G01*
X86642000Y-135629975D01*
X86420000Y-135629975D01*
X86420000Y-135364975D01*
X86155000Y-135364975D01*
X86155000Y-135142975D01*
X86349000Y-135142975D01*
X86642000Y-135430975D01*
G37*
X86642000Y-135430975D02*
X86642000Y-135629975D01*
X86420000Y-135629975D01*
X86420000Y-135364975D01*
X86155000Y-135364975D01*
X86155000Y-135142975D01*
X86349000Y-135142975D01*
X86642000Y-135430975D01*
X132121025Y-87818025D02*
X132121025Y-87624025D01*
X132121025Y-87624025D02*
X131899025Y-87624025D01*
X131899025Y-87624025D02*
X131899025Y-87889025D01*
X131899025Y-87889025D02*
X131634025Y-87889025D01*
X131634025Y-87889025D02*
X131634025Y-88111025D01*
X131634025Y-88111025D02*
X131833025Y-88111025D01*
X131833025Y-88111025D02*
X132121025Y-87818025D01*
G36*
X132121025Y-87818025D02*
G01*
X131833025Y-88111025D01*
X131634025Y-88111025D01*
X131634025Y-87889025D01*
X131899025Y-87889025D01*
X131899025Y-87624025D01*
X132121025Y-87624025D01*
X132121025Y-87818025D01*
G37*
X132121025Y-87818025D02*
X131833025Y-88111025D01*
X131634025Y-88111025D01*
X131634025Y-87889025D01*
X131899025Y-87889025D01*
X131899025Y-87624025D01*
X132121025Y-87624025D01*
X132121025Y-87818025D01*
X166254000Y-148973025D02*
X166808000Y-148973025D01*
X166808000Y-148973025D02*
X166808000Y-154387025D01*
X166808000Y-154387025D02*
X166254000Y-154942025D01*
X166254000Y-154942025D02*
X166254000Y-154616025D01*
X166254000Y-154616025D02*
X166254000Y-148973025D01*
G36*
X166808000Y-154387025D02*
G01*
X166254000Y-154942025D01*
X166254000Y-148973025D01*
X166808000Y-148973025D01*
X166808000Y-154387025D01*
G37*
X166808000Y-154387025D02*
X166254000Y-154942025D01*
X166254000Y-148973025D01*
X166808000Y-148973025D01*
X166808000Y-154387025D01*
X166025000Y-155170025D02*
X164135273Y-155170025D01*
X164135273Y-155170025D02*
X164135273Y-154616025D01*
X164135273Y-154616025D02*
X166254000Y-154616025D01*
X166254000Y-154616025D02*
X166254000Y-154942025D01*
X166254000Y-154942025D02*
X166025000Y-155170025D01*
G36*
X166254000Y-154942025D02*
G01*
X166025000Y-155170025D01*
X164135273Y-155170025D01*
X164135273Y-154616025D01*
X166254000Y-154616025D01*
X166254000Y-154942025D01*
G37*
X166254000Y-154942025D02*
X166025000Y-155170025D01*
X164135273Y-155170025D01*
X164135273Y-154616025D01*
X166254000Y-154616025D01*
X166254000Y-154942025D01*
X82581266Y-55993003D02*
X82973003Y-55601266D01*
X82973003Y-55601266D02*
X77570000Y-50198263D01*
X77570000Y-50198263D02*
X77178263Y-50590000D01*
X77178263Y-50590000D02*
X82581266Y-55993003D01*
G36*
X82973003Y-55601266D02*
G01*
X82581266Y-55993003D01*
X77178263Y-50590000D01*
X77570000Y-50198263D01*
X82973003Y-55601266D01*
G37*
X82973003Y-55601266D02*
X82581266Y-55993003D01*
X77178263Y-50590000D01*
X77570000Y-50198263D01*
X82973003Y-55601266D01*
X83842025Y-138782025D02*
X83648025Y-138782025D01*
X83648025Y-138782025D02*
X83648025Y-139004025D01*
X83648025Y-139004025D02*
X83913025Y-139004025D01*
X83913025Y-139004025D02*
X83913025Y-139269025D01*
X83913025Y-139269025D02*
X84135025Y-139269025D01*
X84135025Y-139269025D02*
X84135025Y-139070025D01*
X84135025Y-139070025D02*
X83842025Y-138782025D01*
G36*
X84135025Y-139070025D02*
G01*
X84135025Y-139269025D01*
X83913025Y-139269025D01*
X83913025Y-139004025D01*
X83648025Y-139004025D01*
X83648025Y-138782025D01*
X83842025Y-138782025D01*
X84135025Y-139070025D01*
G37*
X84135025Y-139070025D02*
X84135025Y-139269025D01*
X83913025Y-139269025D01*
X83913025Y-139004025D01*
X83648025Y-139004025D01*
X83648025Y-138782025D01*
X83842025Y-138782025D01*
X84135025Y-139070025D01*
X82964003Y-171386734D02*
X82572266Y-170994997D01*
X82572266Y-170994997D02*
X77169263Y-176398000D01*
X77169263Y-176398000D02*
X77561000Y-176789737D01*
X77561000Y-176789737D02*
X82964003Y-171386734D01*
G36*
X82964003Y-171386734D02*
G01*
X77561000Y-176789737D01*
X77169263Y-176398000D01*
X82572266Y-170994997D01*
X82964003Y-171386734D01*
G37*
X82964003Y-171386734D02*
X77561000Y-176789737D01*
X77169263Y-176398000D01*
X82572266Y-170994997D01*
X82964003Y-171386734D01*
X51842025Y-138782025D02*
X51648025Y-138782025D01*
X51648025Y-138782025D02*
X51648025Y-139004025D01*
X51648025Y-139004025D02*
X51913025Y-139004025D01*
X51913025Y-139004025D02*
X51913025Y-139269025D01*
X51913025Y-139269025D02*
X52135025Y-139269025D01*
X52135025Y-139269025D02*
X52135025Y-139070025D01*
X52135025Y-139070025D02*
X51842025Y-138782025D01*
G36*
X52135025Y-139070025D02*
G01*
X52135025Y-139269025D01*
X51913025Y-139269025D01*
X51913025Y-139004025D01*
X51648025Y-139004025D01*
X51648025Y-138782025D01*
X51842025Y-138782025D01*
X52135025Y-139070025D01*
G37*
X52135025Y-139070025D02*
X52135025Y-139269025D01*
X51913025Y-139269025D01*
X51913025Y-139004025D01*
X51648025Y-139004025D01*
X51648025Y-138782025D01*
X51842025Y-138782025D01*
X52135025Y-139070025D01*
X164121025Y-87818025D02*
X164121025Y-87624025D01*
X164121025Y-87624025D02*
X163899025Y-87624025D01*
X163899025Y-87624025D02*
X163899025Y-87889025D01*
X163899025Y-87889025D02*
X163634025Y-87889025D01*
X163634025Y-87889025D02*
X163634025Y-88111025D01*
X163634025Y-88111025D02*
X163833025Y-88111025D01*
X163833025Y-88111025D02*
X164121025Y-87818025D01*
G36*
X164121025Y-87818025D02*
G01*
X163833025Y-88111025D01*
X163634025Y-88111025D01*
X163634025Y-87889025D01*
X163899025Y-87889025D01*
X163899025Y-87624025D01*
X164121025Y-87624025D01*
X164121025Y-87818025D01*
G37*
X164121025Y-87818025D02*
X163833025Y-88111025D01*
X163634025Y-88111025D01*
X163634025Y-87889025D01*
X163899025Y-87889025D01*
X163899025Y-87624025D01*
X164121025Y-87624025D01*
X164121025Y-87818025D01*
X86254000Y-148973025D02*
X86808000Y-148973025D01*
X86808000Y-148973025D02*
X86808000Y-154387025D01*
X86808000Y-154387025D02*
X86254000Y-154942025D01*
X86254000Y-154942025D02*
X86254000Y-154616025D01*
X86254000Y-154616025D02*
X86254000Y-148973025D01*
G36*
X86808000Y-154387025D02*
G01*
X86254000Y-154942025D01*
X86254000Y-148973025D01*
X86808000Y-148973025D01*
X86808000Y-154387025D01*
G37*
X86808000Y-154387025D02*
X86254000Y-154942025D01*
X86254000Y-148973025D01*
X86808000Y-148973025D01*
X86808000Y-154387025D01*
X86025000Y-155170025D02*
X84135273Y-155170025D01*
X84135273Y-155170025D02*
X84135273Y-154616025D01*
X84135273Y-154616025D02*
X86254000Y-154616025D01*
X86254000Y-154616025D02*
X86254000Y-154942025D01*
X86254000Y-154942025D02*
X86025000Y-155170025D01*
G36*
X86254000Y-154942025D02*
G01*
X86025000Y-155170025D01*
X84135273Y-155170025D01*
X84135273Y-154616025D01*
X86254000Y-154616025D01*
X86254000Y-154942025D01*
G37*
X86254000Y-154942025D02*
X86025000Y-155170025D01*
X84135273Y-155170025D01*
X84135273Y-154616025D01*
X86254000Y-154616025D01*
X86254000Y-154942025D01*
X162581266Y-87993003D02*
X162973003Y-87601266D01*
X162973003Y-87601266D02*
X157570000Y-82198263D01*
X157570000Y-82198263D02*
X157178263Y-82590000D01*
X157178263Y-82590000D02*
X162581266Y-87993003D01*
G36*
X162973003Y-87601266D02*
G01*
X162581266Y-87993003D01*
X157178263Y-82590000D01*
X157570000Y-82198263D01*
X162973003Y-87601266D01*
G37*
X162973003Y-87601266D02*
X162581266Y-87993003D01*
X157178263Y-82590000D01*
X157570000Y-82198263D01*
X162973003Y-87601266D01*
X50964003Y-139386734D02*
X50572266Y-138994997D01*
X50572266Y-138994997D02*
X45169263Y-144398000D01*
X45169263Y-144398000D02*
X45561000Y-144789737D01*
X45561000Y-144789737D02*
X50964003Y-139386734D01*
G36*
X50964003Y-139386734D02*
G01*
X45561000Y-144789737D01*
X45169263Y-144398000D01*
X50572266Y-138994997D01*
X50964003Y-139386734D01*
G37*
X50964003Y-139386734D02*
X45561000Y-144789737D01*
X45169263Y-144398000D01*
X50572266Y-138994997D01*
X50964003Y-139386734D01*
X54010000Y-71723025D02*
X52120273Y-71723025D01*
X52120273Y-71723025D02*
X52120273Y-72277025D01*
X52120273Y-72277025D02*
X54239000Y-72277025D01*
X54239000Y-72277025D02*
X54239000Y-71951025D01*
X54239000Y-71951025D02*
X54010000Y-71723025D01*
G36*
X54239000Y-71951025D02*
G01*
X54239000Y-72277025D01*
X52120273Y-72277025D01*
X52120273Y-71723025D01*
X54010000Y-71723025D01*
X54239000Y-71951025D01*
G37*
X54239000Y-71951025D02*
X54239000Y-72277025D01*
X52120273Y-72277025D01*
X52120273Y-71723025D01*
X54010000Y-71723025D01*
X54239000Y-71951025D01*
X54239000Y-77920025D02*
X54793000Y-77920025D01*
X54793000Y-77920025D02*
X54793000Y-72506025D01*
X54793000Y-72506025D02*
X54239000Y-71951025D01*
X54239000Y-71951025D02*
X54239000Y-72277025D01*
X54239000Y-72277025D02*
X54239000Y-77920025D01*
G36*
X54793000Y-72506025D02*
G01*
X54793000Y-77920025D01*
X54239000Y-77920025D01*
X54239000Y-71951025D01*
X54793000Y-72506025D01*
G37*
X54793000Y-72506025D02*
X54793000Y-77920025D01*
X54239000Y-77920025D01*
X54239000Y-71951025D01*
X54793000Y-72506025D01*
X83828025Y-55889025D02*
X83634025Y-55889025D01*
X83634025Y-55889025D02*
X83634025Y-56111025D01*
X83634025Y-56111025D02*
X83899025Y-56111025D01*
X83899025Y-56111025D02*
X83899025Y-56376025D01*
X83899025Y-56376025D02*
X84121025Y-56376025D01*
X84121025Y-56376025D02*
X84121025Y-56177025D01*
X84121025Y-56177025D02*
X83828025Y-55889025D01*
G36*
X84121025Y-56177025D02*
G01*
X84121025Y-56376025D01*
X83899025Y-56376025D01*
X83899025Y-56111025D01*
X83634025Y-56111025D01*
X83634025Y-55889025D01*
X83828025Y-55889025D01*
X84121025Y-56177025D01*
G37*
X84121025Y-56177025D02*
X84121025Y-56376025D01*
X83899025Y-56376025D01*
X83899025Y-56111025D01*
X83634025Y-56111025D01*
X83634025Y-55889025D01*
X83828025Y-55889025D01*
X84121025Y-56177025D01*
X84121025Y-87818025D02*
X84121025Y-87624025D01*
X84121025Y-87624025D02*
X83899025Y-87624025D01*
X83899025Y-87624025D02*
X83899025Y-87889025D01*
X83899025Y-87889025D02*
X83634025Y-87889025D01*
X83634025Y-87889025D02*
X83634025Y-88111025D01*
X83634025Y-88111025D02*
X83833025Y-88111025D01*
X83833025Y-88111025D02*
X84121025Y-87818025D01*
G36*
X84121025Y-87818025D02*
G01*
X83833025Y-88111025D01*
X83634025Y-88111025D01*
X83634025Y-87889025D01*
X83899025Y-87889025D01*
X83899025Y-87624025D01*
X84121025Y-87624025D01*
X84121025Y-87818025D01*
G37*
X84121025Y-87818025D02*
X83833025Y-88111025D01*
X83634025Y-88111025D01*
X83634025Y-87889025D01*
X83899025Y-87889025D01*
X83899025Y-87624025D01*
X84121025Y-87624025D01*
X84121025Y-87818025D01*
X54254000Y-148973025D02*
X54808000Y-148973025D01*
X54808000Y-148973025D02*
X54808000Y-154387025D01*
X54808000Y-154387025D02*
X54254000Y-154942025D01*
X54254000Y-154942025D02*
X54254000Y-154616025D01*
X54254000Y-154616025D02*
X54254000Y-148973025D01*
G36*
X54808000Y-154387025D02*
G01*
X54254000Y-154942025D01*
X54254000Y-148973025D01*
X54808000Y-148973025D01*
X54808000Y-154387025D01*
G37*
X54808000Y-154387025D02*
X54254000Y-154942025D01*
X54254000Y-148973025D01*
X54808000Y-148973025D01*
X54808000Y-154387025D01*
X54025000Y-155170025D02*
X52135273Y-155170025D01*
X52135273Y-155170025D02*
X52135273Y-154616025D01*
X52135273Y-154616025D02*
X54254000Y-154616025D01*
X54254000Y-154616025D02*
X54254000Y-154942025D01*
X54254000Y-154942025D02*
X54025000Y-155170025D01*
G36*
X54254000Y-154942025D02*
G01*
X54025000Y-155170025D01*
X52135273Y-155170025D01*
X52135273Y-154616025D01*
X54254000Y-154616025D01*
X54254000Y-154942025D01*
G37*
X54254000Y-154942025D02*
X54025000Y-155170025D01*
X52135273Y-155170025D01*
X52135273Y-154616025D01*
X54254000Y-154616025D01*
X54254000Y-154942025D01*
X166627000Y-91664025D02*
X166627000Y-91470025D01*
X166627000Y-91470025D02*
X166405000Y-91470025D01*
X166405000Y-91470025D02*
X166405000Y-91735025D01*
X166405000Y-91735025D02*
X166140000Y-91735025D01*
X166140000Y-91735025D02*
X166140000Y-91957025D01*
X166140000Y-91957025D02*
X166339000Y-91957025D01*
X166339000Y-91957025D02*
X166627000Y-91664025D01*
G36*
X166627000Y-91664025D02*
G01*
X166339000Y-91957025D01*
X166140000Y-91957025D01*
X166140000Y-91735025D01*
X166405000Y-91735025D01*
X166405000Y-91470025D01*
X166627000Y-91470025D01*
X166627000Y-91664025D01*
G37*
X166627000Y-91664025D02*
X166339000Y-91957025D01*
X166140000Y-91957025D01*
X166140000Y-91735025D01*
X166405000Y-91735025D01*
X166405000Y-91470025D01*
X166627000Y-91470025D01*
X166627000Y-91664025D01*
X130964003Y-171386734D02*
X130572266Y-170994997D01*
X130572266Y-170994997D02*
X125169263Y-176398000D01*
X125169263Y-176398000D02*
X125561000Y-176789737D01*
X125561000Y-176789737D02*
X130964003Y-171386734D01*
G36*
X130964003Y-171386734D02*
G01*
X125561000Y-176789737D01*
X125169263Y-176398000D01*
X130572266Y-170994997D01*
X130964003Y-171386734D01*
G37*
X130964003Y-171386734D02*
X125561000Y-176789737D01*
X125169263Y-176398000D01*
X130572266Y-170994997D01*
X130964003Y-171386734D01*
X50581266Y-87993003D02*
X50973003Y-87601266D01*
X50973003Y-87601266D02*
X45570000Y-82198263D01*
X45570000Y-82198263D02*
X45178263Y-82590000D01*
X45178263Y-82590000D02*
X50581266Y-87993003D01*
G36*
X50973003Y-87601266D02*
G01*
X50581266Y-87993003D01*
X45178263Y-82590000D01*
X45570000Y-82198263D01*
X50973003Y-87601266D01*
G37*
X50973003Y-87601266D02*
X50581266Y-87993003D01*
X45178263Y-82590000D01*
X45570000Y-82198263D01*
X50973003Y-87601266D01*
X84135025Y-170711025D02*
X84135025Y-170517025D01*
X84135025Y-170517025D02*
X83913025Y-170517025D01*
X83913025Y-170517025D02*
X83913025Y-170782025D01*
X83913025Y-170782025D02*
X83648025Y-170782025D01*
X83648025Y-170782025D02*
X83648025Y-171004025D01*
X83648025Y-171004025D02*
X83847025Y-171004025D01*
X83847025Y-171004025D02*
X84135025Y-170711025D01*
G36*
X84135025Y-170711025D02*
G01*
X83847025Y-171004025D01*
X83648025Y-171004025D01*
X83648025Y-170782025D01*
X83913025Y-170782025D01*
X83913025Y-170517025D01*
X84135025Y-170517025D01*
X84135025Y-170711025D01*
G37*
X84135025Y-170711025D02*
X83847025Y-171004025D01*
X83648025Y-171004025D01*
X83648025Y-170782025D01*
X83913025Y-170782025D01*
X83913025Y-170517025D01*
X84135025Y-170517025D01*
X84135025Y-170711025D01*
X52121025Y-87818025D02*
X52121025Y-87624025D01*
X52121025Y-87624025D02*
X51899025Y-87624025D01*
X51899025Y-87624025D02*
X51899025Y-87889025D01*
X51899025Y-87889025D02*
X51634025Y-87889025D01*
X51634025Y-87889025D02*
X51634025Y-88111025D01*
X51634025Y-88111025D02*
X51833025Y-88111025D01*
X51833025Y-88111025D02*
X52121025Y-87818025D01*
G36*
X52121025Y-87818025D02*
G01*
X51833025Y-88111025D01*
X51634025Y-88111025D01*
X51634025Y-87889025D01*
X51899025Y-87889025D01*
X51899025Y-87624025D01*
X52121025Y-87624025D01*
X52121025Y-87818025D01*
G37*
X52121025Y-87818025D02*
X51833025Y-88111025D01*
X51634025Y-88111025D01*
X51634025Y-87889025D01*
X51899025Y-87889025D01*
X51899025Y-87624025D01*
X52121025Y-87624025D01*
X52121025Y-87818025D01*
X50964003Y-171386734D02*
X50572266Y-170994997D01*
X50572266Y-170994997D02*
X45169263Y-176398000D01*
X45169263Y-176398000D02*
X45561000Y-176789737D01*
X45561000Y-176789737D02*
X50964003Y-171386734D01*
G36*
X50964003Y-171386734D02*
G01*
X45561000Y-176789737D01*
X45169263Y-176398000D01*
X50572266Y-170994997D01*
X50964003Y-171386734D01*
G37*
X50964003Y-171386734D02*
X45561000Y-176789737D01*
X45169263Y-176398000D01*
X50572266Y-170994997D01*
X50964003Y-171386734D01*
X86010000Y-71723025D02*
X84120273Y-71723025D01*
X84120273Y-71723025D02*
X84120273Y-72277025D01*
X84120273Y-72277025D02*
X86239000Y-72277025D01*
X86239000Y-72277025D02*
X86239000Y-71951025D01*
X86239000Y-71951025D02*
X86010000Y-71723025D01*
G36*
X86239000Y-71951025D02*
G01*
X86239000Y-72277025D01*
X84120273Y-72277025D01*
X84120273Y-71723025D01*
X86010000Y-71723025D01*
X86239000Y-71951025D01*
G37*
X86239000Y-71951025D02*
X86239000Y-72277025D01*
X84120273Y-72277025D01*
X84120273Y-71723025D01*
X86010000Y-71723025D01*
X86239000Y-71951025D01*
X86239000Y-77920025D02*
X86793000Y-77920025D01*
X86793000Y-77920025D02*
X86793000Y-72506025D01*
X86793000Y-72506025D02*
X86239000Y-71951025D01*
X86239000Y-71951025D02*
X86239000Y-72277025D01*
X86239000Y-72277025D02*
X86239000Y-77920025D01*
G36*
X86793000Y-72506025D02*
G01*
X86793000Y-77920025D01*
X86239000Y-77920025D01*
X86239000Y-71951025D01*
X86793000Y-72506025D01*
G37*
X86793000Y-72506025D02*
X86793000Y-77920025D01*
X86239000Y-77920025D01*
X86239000Y-71951025D01*
X86793000Y-72506025D01*
X164135025Y-170711025D02*
X164135025Y-170517025D01*
X164135025Y-170517025D02*
X163913025Y-170517025D01*
X163913025Y-170517025D02*
X163913025Y-170782025D01*
X163913025Y-170782025D02*
X163648025Y-170782025D01*
X163648025Y-170782025D02*
X163648025Y-171004025D01*
X163648025Y-171004025D02*
X163847025Y-171004025D01*
X163847025Y-171004025D02*
X164135025Y-170711025D01*
G36*
X164135025Y-170711025D02*
G01*
X163847025Y-171004025D01*
X163648025Y-171004025D01*
X163648025Y-170782025D01*
X163913025Y-170782025D01*
X163913025Y-170517025D01*
X164135025Y-170517025D01*
X164135025Y-170711025D01*
G37*
X164135025Y-170711025D02*
X163847025Y-171004025D01*
X163648025Y-171004025D01*
X163648025Y-170782025D01*
X163913025Y-170782025D01*
X163913025Y-170517025D01*
X164135025Y-170517025D01*
X164135025Y-170711025D01*
X54420000Y-135435975D02*
X54420000Y-135629975D01*
X54420000Y-135629975D02*
X54642000Y-135629975D01*
X54642000Y-135629975D02*
X54642000Y-135364975D01*
X54642000Y-135364975D02*
X54907000Y-135364975D01*
X54907000Y-135364975D02*
X54907000Y-135142975D01*
X54907000Y-135142975D02*
X54708000Y-135142975D01*
X54708000Y-135142975D02*
X54420000Y-135435975D01*
G36*
X54907000Y-135364975D02*
G01*
X54642000Y-135364975D01*
X54642000Y-135629975D01*
X54420000Y-135629975D01*
X54420000Y-135435975D01*
X54708000Y-135142975D01*
X54907000Y-135142975D01*
X54907000Y-135364975D01*
G37*
X54907000Y-135364975D02*
X54642000Y-135364975D01*
X54642000Y-135629975D01*
X54420000Y-135629975D01*
X54420000Y-135435975D01*
X54708000Y-135142975D01*
X54907000Y-135142975D01*
X54907000Y-135364975D01*
X52135025Y-170711025D02*
X52135025Y-170517025D01*
X52135025Y-170517025D02*
X51913025Y-170517025D01*
X51913025Y-170517025D02*
X51913025Y-170782025D01*
X51913025Y-170782025D02*
X51648025Y-170782025D01*
X51648025Y-170782025D02*
X51648025Y-171004025D01*
X51648025Y-171004025D02*
X51847025Y-171004025D01*
X51847025Y-171004025D02*
X52135025Y-170711025D01*
G36*
X52135025Y-170711025D02*
G01*
X51847025Y-171004025D01*
X51648025Y-171004025D01*
X51648025Y-170782025D01*
X51913025Y-170782025D01*
X51913025Y-170517025D01*
X52135025Y-170517025D01*
X52135025Y-170711025D01*
G37*
X52135025Y-170711025D02*
X51847025Y-171004025D01*
X51648025Y-171004025D01*
X51648025Y-170782025D01*
X51913025Y-170782025D01*
X51913025Y-170517025D01*
X52135025Y-170517025D01*
X52135025Y-170711025D01*
X134698000Y-91957025D02*
X134892000Y-91957025D01*
X134892000Y-91957025D02*
X134892000Y-91735025D01*
X134892000Y-91735025D02*
X134627000Y-91735025D01*
X134627000Y-91735025D02*
X134627000Y-91470025D01*
X134627000Y-91470025D02*
X134405000Y-91470025D01*
X134405000Y-91470025D02*
X134405000Y-91669025D01*
X134405000Y-91669025D02*
X134698000Y-91957025D01*
G36*
X134627000Y-91735025D02*
G01*
X134892000Y-91735025D01*
X134892000Y-91957025D01*
X134698000Y-91957025D01*
X134405000Y-91669025D01*
X134405000Y-91470025D01*
X134627000Y-91470025D01*
X134627000Y-91735025D01*
G37*
X134627000Y-91735025D02*
X134892000Y-91735025D01*
X134892000Y-91957025D01*
X134698000Y-91957025D01*
X134405000Y-91669025D01*
X134405000Y-91470025D01*
X134627000Y-91470025D01*
X134627000Y-91735025D01*
X134420000Y-135435975D02*
X134420000Y-135629975D01*
X134420000Y-135629975D02*
X134642000Y-135629975D01*
X134642000Y-135629975D02*
X134642000Y-135364975D01*
X134642000Y-135364975D02*
X134907000Y-135364975D01*
X134907000Y-135364975D02*
X134907000Y-135142975D01*
X134907000Y-135142975D02*
X134708000Y-135142975D01*
X134708000Y-135142975D02*
X134420000Y-135435975D01*
G36*
X134907000Y-135364975D02*
G01*
X134642000Y-135364975D01*
X134642000Y-135629975D01*
X134420000Y-135629975D01*
X134420000Y-135435975D01*
X134708000Y-135142975D01*
X134907000Y-135142975D01*
X134907000Y-135364975D01*
G37*
X134907000Y-135364975D02*
X134642000Y-135364975D01*
X134642000Y-135629975D01*
X134420000Y-135629975D01*
X134420000Y-135435975D01*
X134708000Y-135142975D01*
X134907000Y-135142975D01*
X134907000Y-135364975D01*
X134239000Y-77920025D02*
X134793000Y-77920025D01*
X134793000Y-77920025D02*
X134793000Y-72506025D01*
X134793000Y-72506025D02*
X134239000Y-71951025D01*
X134239000Y-71951025D02*
X134239000Y-72277025D01*
X134239000Y-72277025D02*
X134239000Y-77920025D01*
G36*
X134793000Y-72506025D02*
G01*
X134793000Y-77920025D01*
X134239000Y-77920025D01*
X134239000Y-71951025D01*
X134793000Y-72506025D01*
G37*
X134793000Y-72506025D02*
X134793000Y-77920025D01*
X134239000Y-77920025D01*
X134239000Y-71951025D01*
X134793000Y-72506025D01*
X134010000Y-71723025D02*
X132120273Y-71723025D01*
X132120273Y-71723025D02*
X132120273Y-72277025D01*
X132120273Y-72277025D02*
X134239000Y-72277025D01*
X134239000Y-72277025D02*
X134239000Y-71951025D01*
X134239000Y-71951025D02*
X134010000Y-71723025D01*
G36*
X134239000Y-71951025D02*
G01*
X134239000Y-72277025D01*
X132120273Y-72277025D01*
X132120273Y-71723025D01*
X134010000Y-71723025D01*
X134239000Y-71951025D01*
G37*
X134239000Y-71951025D02*
X134239000Y-72277025D01*
X132120273Y-72277025D01*
X132120273Y-71723025D01*
X134010000Y-71723025D01*
X134239000Y-71951025D01*
X166349000Y-135142975D02*
X166155000Y-135142975D01*
X166155000Y-135142975D02*
X166155000Y-135364975D01*
X166155000Y-135364975D02*
X166420000Y-135364975D01*
X166420000Y-135364975D02*
X166420000Y-135629975D01*
X166420000Y-135629975D02*
X166642000Y-135629975D01*
X166642000Y-135629975D02*
X166642000Y-135430975D01*
X166642000Y-135430975D02*
X166349000Y-135142975D01*
G36*
X166642000Y-135430975D02*
G01*
X166642000Y-135629975D01*
X166420000Y-135629975D01*
X166420000Y-135364975D01*
X166155000Y-135364975D01*
X166155000Y-135142975D01*
X166349000Y-135142975D01*
X166642000Y-135430975D01*
G37*
X166642000Y-135430975D02*
X166642000Y-135629975D01*
X166420000Y-135629975D01*
X166420000Y-135364975D01*
X166155000Y-135364975D01*
X166155000Y-135142975D01*
X166349000Y-135142975D01*
X166642000Y-135430975D01*
X51828025Y-55889025D02*
X51634025Y-55889025D01*
X51634025Y-55889025D02*
X51634025Y-56111025D01*
X51634025Y-56111025D02*
X51899025Y-56111025D01*
X51899025Y-56111025D02*
X51899025Y-56376025D01*
X51899025Y-56376025D02*
X52121025Y-56376025D01*
X52121025Y-56376025D02*
X52121025Y-56177025D01*
X52121025Y-56177025D02*
X51828025Y-55889025D01*
G36*
X52121025Y-56177025D02*
G01*
X52121025Y-56376025D01*
X51899025Y-56376025D01*
X51899025Y-56111025D01*
X51634025Y-56111025D01*
X51634025Y-55889025D01*
X51828025Y-55889025D01*
X52121025Y-56177025D01*
G37*
X52121025Y-56177025D02*
X52121025Y-56376025D01*
X51899025Y-56376025D01*
X51899025Y-56111025D01*
X51634025Y-56111025D01*
X51634025Y-55889025D01*
X51828025Y-55889025D01*
X52121025Y-56177025D01*
X86627000Y-91664025D02*
X86627000Y-91470025D01*
X86627000Y-91470025D02*
X86405000Y-91470025D01*
X86405000Y-91470025D02*
X86405000Y-91735025D01*
X86405000Y-91735025D02*
X86140000Y-91735025D01*
X86140000Y-91735025D02*
X86140000Y-91957025D01*
X86140000Y-91957025D02*
X86339000Y-91957025D01*
X86339000Y-91957025D02*
X86627000Y-91664025D01*
G36*
X86627000Y-91664025D02*
G01*
X86339000Y-91957025D01*
X86140000Y-91957025D01*
X86140000Y-91735025D01*
X86405000Y-91735025D01*
X86405000Y-91470025D01*
X86627000Y-91470025D01*
X86627000Y-91664025D01*
G37*
X86627000Y-91664025D02*
X86339000Y-91957025D01*
X86140000Y-91957025D01*
X86140000Y-91735025D01*
X86405000Y-91735025D01*
X86405000Y-91470025D01*
X86627000Y-91470025D01*
X86627000Y-91664025D01*
X131828025Y-55889025D02*
X131634025Y-55889025D01*
X131634025Y-55889025D02*
X131634025Y-56111025D01*
X131634025Y-56111025D02*
X131899025Y-56111025D01*
X131899025Y-56111025D02*
X131899025Y-56376025D01*
X131899025Y-56376025D02*
X132121025Y-56376025D01*
X132121025Y-56376025D02*
X132121025Y-56177025D01*
X132121025Y-56177025D02*
X131828025Y-55889025D01*
G36*
X132121025Y-56177025D02*
G01*
X132121025Y-56376025D01*
X131899025Y-56376025D01*
X131899025Y-56111025D01*
X131634025Y-56111025D01*
X131634025Y-55889025D01*
X131828025Y-55889025D01*
X132121025Y-56177025D01*
G37*
X132121025Y-56177025D02*
X132121025Y-56376025D01*
X131899025Y-56376025D01*
X131899025Y-56111025D01*
X131634025Y-56111025D01*
X131634025Y-55889025D01*
X131828025Y-55889025D01*
X132121025Y-56177025D01*
X130581266Y-87993003D02*
X130973003Y-87601266D01*
X130973003Y-87601266D02*
X125570000Y-82198263D01*
X125570000Y-82198263D02*
X125178263Y-82590000D01*
X125178263Y-82590000D02*
X130581266Y-87993003D01*
G36*
X130973003Y-87601266D02*
G01*
X130581266Y-87993003D01*
X125178263Y-82590000D01*
X125570000Y-82198263D01*
X130973003Y-87601266D01*
G37*
X130973003Y-87601266D02*
X130581266Y-87993003D01*
X125178263Y-82590000D01*
X125570000Y-82198263D01*
X130973003Y-87601266D01*
X163828025Y-55889025D02*
X163634025Y-55889025D01*
X163634025Y-55889025D02*
X163634025Y-56111025D01*
X163634025Y-56111025D02*
X163899025Y-56111025D01*
X163899025Y-56111025D02*
X163899025Y-56376025D01*
X163899025Y-56376025D02*
X164121025Y-56376025D01*
X164121025Y-56376025D02*
X164121025Y-56177025D01*
X164121025Y-56177025D02*
X163828025Y-55889025D01*
G36*
X164121025Y-56177025D02*
G01*
X164121025Y-56376025D01*
X163899025Y-56376025D01*
X163899025Y-56111025D01*
X163634025Y-56111025D01*
X163634025Y-55889025D01*
X163828025Y-55889025D01*
X164121025Y-56177025D01*
G37*
X164121025Y-56177025D02*
X164121025Y-56376025D01*
X163899025Y-56376025D01*
X163899025Y-56111025D01*
X163634025Y-56111025D01*
X163634025Y-55889025D01*
X163828025Y-55889025D01*
X164121025Y-56177025D01*
X82964003Y-139386734D02*
X82572266Y-138994997D01*
X82572266Y-138994997D02*
X77169263Y-144398000D01*
X77169263Y-144398000D02*
X77561000Y-144789737D01*
X77561000Y-144789737D02*
X82964003Y-139386734D01*
G36*
X82964003Y-139386734D02*
G01*
X77561000Y-144789737D01*
X77169263Y-144398000D01*
X82572266Y-138994997D01*
X82964003Y-139386734D01*
G37*
X82964003Y-139386734D02*
X77561000Y-144789737D01*
X77169263Y-144398000D01*
X82572266Y-138994997D01*
X82964003Y-139386734D01*
X134254000Y-148973025D02*
X134808000Y-148973025D01*
X134808000Y-148973025D02*
X134808000Y-154387025D01*
X134808000Y-154387025D02*
X134254000Y-154942025D01*
X134254000Y-154942025D02*
X134254000Y-154616025D01*
X134254000Y-154616025D02*
X134254000Y-148973025D01*
G36*
X134808000Y-154387025D02*
G01*
X134254000Y-154942025D01*
X134254000Y-148973025D01*
X134808000Y-148973025D01*
X134808000Y-154387025D01*
G37*
X134808000Y-154387025D02*
X134254000Y-154942025D01*
X134254000Y-148973025D01*
X134808000Y-148973025D01*
X134808000Y-154387025D01*
X134025000Y-155170025D02*
X132135273Y-155170025D01*
X132135273Y-155170025D02*
X132135273Y-154616025D01*
X132135273Y-154616025D02*
X134254000Y-154616025D01*
X134254000Y-154616025D02*
X134254000Y-154942025D01*
X134254000Y-154942025D02*
X134025000Y-155170025D01*
G36*
X134254000Y-154942025D02*
G01*
X134025000Y-155170025D01*
X132135273Y-155170025D01*
X132135273Y-154616025D01*
X134254000Y-154616025D01*
X134254000Y-154942025D01*
G37*
X134254000Y-154942025D02*
X134025000Y-155170025D01*
X132135273Y-155170025D01*
X132135273Y-154616025D01*
X134254000Y-154616025D01*
X134254000Y-154942025D01*
X162964003Y-171386734D02*
X162572266Y-170994997D01*
X162572266Y-170994997D02*
X157169263Y-176398000D01*
X157169263Y-176398000D02*
X157561000Y-176789737D01*
X157561000Y-176789737D02*
X162964003Y-171386734D01*
G36*
X162964003Y-171386734D02*
G01*
X157561000Y-176789737D01*
X157169263Y-176398000D01*
X162572266Y-170994997D01*
X162964003Y-171386734D01*
G37*
X162964003Y-171386734D02*
X157561000Y-176789737D01*
X157169263Y-176398000D01*
X162572266Y-170994997D01*
X162964003Y-171386734D01*
X130581266Y-55993003D02*
X130973003Y-55601266D01*
X130973003Y-55601266D02*
X125570000Y-50198263D01*
X125570000Y-50198263D02*
X125178263Y-50590000D01*
X125178263Y-50590000D02*
X130581266Y-55993003D01*
G36*
X130973003Y-55601266D02*
G01*
X130581266Y-55993003D01*
X125178263Y-50590000D01*
X125570000Y-50198263D01*
X130973003Y-55601266D01*
G37*
X130973003Y-55601266D02*
X130581266Y-55993003D01*
X125178263Y-50590000D01*
X125570000Y-50198263D01*
X130973003Y-55601266D01*
X166239000Y-77920025D02*
X166793000Y-77920025D01*
X166793000Y-77920025D02*
X166793000Y-72506025D01*
X166793000Y-72506025D02*
X166239000Y-71951025D01*
X166239000Y-71951025D02*
X166239000Y-72277025D01*
X166239000Y-72277025D02*
X166239000Y-77920025D01*
G36*
X166793000Y-72506025D02*
G01*
X166793000Y-77920025D01*
X166239000Y-77920025D01*
X166239000Y-71951025D01*
X166793000Y-72506025D01*
G37*
X166793000Y-72506025D02*
X166793000Y-77920025D01*
X166239000Y-77920025D01*
X166239000Y-71951025D01*
X166793000Y-72506025D01*
X166010000Y-71723025D02*
X164120273Y-71723025D01*
X164120273Y-71723025D02*
X164120273Y-72277025D01*
X164120273Y-72277025D02*
X166239000Y-72277025D01*
X166239000Y-72277025D02*
X166239000Y-71951025D01*
X166239000Y-71951025D02*
X166010000Y-71723025D01*
G36*
X166239000Y-71951025D02*
G01*
X166239000Y-72277025D01*
X164120273Y-72277025D01*
X164120273Y-71723025D01*
X166010000Y-71723025D01*
X166239000Y-71951025D01*
G37*
X166239000Y-71951025D02*
X166239000Y-72277025D01*
X164120273Y-72277025D01*
X164120273Y-71723025D01*
X166010000Y-71723025D01*
X166239000Y-71951025D01*
X50581266Y-55993003D02*
X50973003Y-55601266D01*
X50973003Y-55601266D02*
X45570000Y-50198263D01*
X45570000Y-50198263D02*
X45178263Y-50590000D01*
X45178263Y-50590000D02*
X50581266Y-55993003D01*
G36*
X50973003Y-55601266D02*
G01*
X50581266Y-55993003D01*
X45178263Y-50590000D01*
X45570000Y-50198263D01*
X50973003Y-55601266D01*
G37*
X50973003Y-55601266D02*
X50581266Y-55993003D01*
X45178263Y-50590000D01*
X45570000Y-50198263D01*
X50973003Y-55601266D01*
X131842025Y-138782025D02*
X131648025Y-138782025D01*
X131648025Y-138782025D02*
X131648025Y-139004025D01*
X131648025Y-139004025D02*
X131913025Y-139004025D01*
X131913025Y-139004025D02*
X131913025Y-139269025D01*
X131913025Y-139269025D02*
X132135025Y-139269025D01*
X132135025Y-139269025D02*
X132135025Y-139070025D01*
X132135025Y-139070025D02*
X131842025Y-138782025D01*
G36*
X132135025Y-139070025D02*
G01*
X132135025Y-139269025D01*
X131913025Y-139269025D01*
X131913025Y-139004025D01*
X131648025Y-139004025D01*
X131648025Y-138782025D01*
X131842025Y-138782025D01*
X132135025Y-139070025D01*
G37*
X132135025Y-139070025D02*
X132135025Y-139269025D01*
X131913025Y-139269025D01*
X131913025Y-139004025D01*
X131648025Y-139004025D01*
X131648025Y-138782025D01*
X131842025Y-138782025D01*
X132135025Y-139070025D01*
X162964003Y-139386734D02*
X162572266Y-138994997D01*
X162572266Y-138994997D02*
X157169263Y-144398000D01*
X157169263Y-144398000D02*
X157561000Y-144789737D01*
X157561000Y-144789737D02*
X162964003Y-139386734D01*
G36*
X162964003Y-139386734D02*
G01*
X157561000Y-144789737D01*
X157169263Y-144398000D01*
X162572266Y-138994997D01*
X162964003Y-139386734D01*
G37*
X162964003Y-139386734D02*
X157561000Y-144789737D01*
X157169263Y-144398000D01*
X162572266Y-138994997D01*
X162964003Y-139386734D01*
X162581266Y-55993003D02*
X162973003Y-55601266D01*
X162973003Y-55601266D02*
X157570000Y-50198263D01*
X157570000Y-50198263D02*
X157178263Y-50590000D01*
X157178263Y-50590000D02*
X162581266Y-55993003D01*
G36*
X162973003Y-55601266D02*
G01*
X162581266Y-55993003D01*
X157178263Y-50590000D01*
X157570000Y-50198263D01*
X162973003Y-55601266D01*
G37*
X162973003Y-55601266D02*
X162581266Y-55993003D01*
X157178263Y-50590000D01*
X157570000Y-50198263D01*
X162973003Y-55601266D01*
X132135025Y-170711025D02*
X132135025Y-170517025D01*
X132135025Y-170517025D02*
X131913025Y-170517025D01*
X131913025Y-170517025D02*
X131913025Y-170782025D01*
X131913025Y-170782025D02*
X131648025Y-170782025D01*
X131648025Y-170782025D02*
X131648025Y-171004025D01*
X131648025Y-171004025D02*
X131847025Y-171004025D01*
X131847025Y-171004025D02*
X132135025Y-170711025D01*
G36*
X132135025Y-170711025D02*
G01*
X131847025Y-171004025D01*
X131648025Y-171004025D01*
X131648025Y-170782025D01*
X131913025Y-170782025D01*
X131913025Y-170517025D01*
X132135025Y-170517025D01*
X132135025Y-170711025D01*
G37*
X132135025Y-170711025D02*
X131847025Y-171004025D01*
X131648025Y-171004025D01*
X131648025Y-170782025D01*
X131913025Y-170782025D01*
X131913025Y-170517025D01*
X132135025Y-170517025D01*
X132135025Y-170711025D01*
X82581266Y-87993003D02*
X82973003Y-87601266D01*
X82973003Y-87601266D02*
X77570000Y-82198263D01*
X77570000Y-82198263D02*
X77178263Y-82590000D01*
X77178263Y-82590000D02*
X82581266Y-87993003D01*
G36*
X82973003Y-87601266D02*
G01*
X82581266Y-87993003D01*
X77178263Y-82590000D01*
X77570000Y-82198263D01*
X82973003Y-87601266D01*
G37*
X82973003Y-87601266D02*
X82581266Y-87993003D01*
X77178263Y-82590000D01*
X77570000Y-82198263D01*
X82973003Y-87601266D01*
X54698000Y-91957025D02*
X54892000Y-91957025D01*
X54892000Y-91957025D02*
X54892000Y-91735025D01*
X54892000Y-91735025D02*
X54627000Y-91735025D01*
X54627000Y-91735025D02*
X54627000Y-91470025D01*
X54627000Y-91470025D02*
X54405000Y-91470025D01*
X54405000Y-91470025D02*
X54405000Y-91669025D01*
X54405000Y-91669025D02*
X54698000Y-91957025D01*
G36*
X54627000Y-91735025D02*
G01*
X54892000Y-91735025D01*
X54892000Y-91957025D01*
X54698000Y-91957025D01*
X54405000Y-91669025D01*
X54405000Y-91470025D01*
X54627000Y-91470025D01*
X54627000Y-91735025D01*
G37*
X54627000Y-91735025D02*
X54892000Y-91735025D01*
X54892000Y-91957025D01*
X54698000Y-91957025D01*
X54405000Y-91669025D01*
X54405000Y-91470025D01*
X54627000Y-91470025D01*
X54627000Y-91735025D01*
X130964003Y-139386734D02*
X130572266Y-138994997D01*
X130572266Y-138994997D02*
X125169263Y-144398000D01*
X125169263Y-144398000D02*
X125561000Y-144789737D01*
X125561000Y-144789737D02*
X130964003Y-139386734D01*
G36*
X130964003Y-139386734D02*
G01*
X125561000Y-144789737D01*
X125169263Y-144398000D01*
X130572266Y-138994997D01*
X130964003Y-139386734D01*
G37*
X130964003Y-139386734D02*
X125561000Y-144789737D01*
X125169263Y-144398000D01*
X130572266Y-138994997D01*
X130964003Y-139386734D01*
%TD*%
D12*
%TO.P,AE5,1,A*%
%TO.N,/A1E5*%
X44996015Y-177005399D03*
%TD*%
D13*
%TO.P,H10,1,1*%
%TO.N,N/C*%
X93000000Y-5000000D03*
D14*
X93000000Y-5000000D03*
%TD*%
%TO.P,H12,1,1*%
%TO.N,N/C*%
X170000000Y-113000000D03*
D13*
X170000000Y-113000000D03*
%TD*%
%TO.P,H12,1,1*%
%TO.N,N/C*%
X93000000Y-113000000D03*
D14*
X93000000Y-113000000D03*
%TD*%
D15*
%TO.P,AE5,1,A*%
%TO.N,/A1E5*%
X76994601Y-49996015D03*
%TD*%
D12*
%TO.P,AE5,1,A*%
%TO.N,/A1E5*%
X156996015Y-145005399D03*
%TD*%
D15*
%TO.P,AE5,1,A*%
%TO.N,/A1E5*%
X156994601Y-81996015D03*
%TD*%
D12*
%TO.P,AE5,1,A*%
%TO.N,/A1E5*%
X156996015Y-177005399D03*
%TD*%
D15*
%TO.P,AE5,1,A*%
%TO.N,/A1E5*%
X44994601Y-49996015D03*
%TD*%
%TO.P,AE5,1,A*%
%TO.N,/A1E5*%
X44994601Y-81996015D03*
%TD*%
D12*
%TO.P,AE5,1,A*%
%TO.N,/A1E5*%
X124996015Y-177005399D03*
%TD*%
D13*
%TO.P,H4,1,1*%
%TO.N,N/C*%
X174000000Y-208000000D03*
D14*
X174000000Y-208000000D03*
%TD*%
D12*
%TO.P,AE5,1,A*%
%TO.N,/A1E5*%
X124996015Y-145005399D03*
%TD*%
D15*
%TO.P,AE5,1,A*%
%TO.N,/A1E5*%
X76994601Y-81996015D03*
%TD*%
%TO.P,AE5,1,A*%
%TO.N,/A1E5*%
X124994601Y-81996015D03*
%TD*%
%TO.P,AE5,1,A*%
%TO.N,/A1E5*%
X124994601Y-49996015D03*
%TD*%
D12*
%TO.P,AE5,1,A*%
%TO.N,/A1E5*%
X76996015Y-177005399D03*
%TD*%
D13*
%TO.P,H9,1,1*%
%TO.N,N/C*%
X93000000Y-221000000D03*
D14*
X93000000Y-221000000D03*
%TD*%
D12*
%TO.P,AE5,1,A*%
%TO.N,/A1E5*%
X76996015Y-145005399D03*
%TD*%
%TO.P,AE5,1,A*%
%TO.N,/A1E5*%
X44996015Y-145005399D03*
%TD*%
D13*
%TO.P,H2,1,1*%
%TO.N,N/C*%
X174000000Y-18000000D03*
D14*
X174000000Y-18000000D03*
%TD*%
D13*
%TO.P,H3,1,1*%
%TO.N,N/C*%
X12000000Y-208000000D03*
D14*
X12000000Y-208000000D03*
%TD*%
%TO.P,H1,1,1*%
%TO.N,N/C*%
X12000000Y-18000000D03*
D13*
X12000000Y-18000000D03*
%TD*%
%TO.P,H11,1,1*%
%TO.N,N/C*%
X16000000Y-113000000D03*
D14*
X16000000Y-113000000D03*
%TD*%
D15*
%TO.P,AE5,1,A*%
%TO.N,/A1E5*%
X156994601Y-49996015D03*
%TD*%
D16*
%TO.P,REF\u002A\u002A,1*%
%TO.N,N/C*%
X164024025Y-139213025D03*
D17*
%TO.P,REF\u002A\u002A,2*%
X163704025Y-138893025D03*
%TD*%
D16*
%TO.P,REF\u002A\u002A,1*%
%TO.N,N/C*%
X86531000Y-135573975D03*
D17*
%TO.P,REF\u002A\u002A,2*%
X86211000Y-135253975D03*
%TD*%
D18*
%TO.P,>NAME,1*%
%TO.N,N/C*%
X150254000Y-129281000D03*
%TO.P,>NAME,2*%
%TO.N,GND*%
X149294000Y-129281000D03*
%TD*%
D19*
%TO.P,>NAME,1*%
%TO.N,N/C*%
X150530000Y-131129000D03*
%TO.P,>NAME,2*%
X150530000Y-130169000D03*
%TD*%
D17*
%TO.P,REF\u002A\u002A,1*%
%TO.N,N/C*%
X131690025Y-88000025D03*
D16*
%TO.P,REF\u002A\u002A,2*%
X132010025Y-87680025D03*
%TD*%
D20*
%TO.P,REF\u002A\u002A,1*%
%TO.N,N/C*%
X166532000Y-149251025D03*
%TO.P,REF\u002A\u002A,2*%
X164411800Y-154893025D03*
%TD*%
D21*
%TO.P,REF\u002A\u002A,1*%
%TO.N,N/C*%
X82581619Y-55601619D03*
%TO.P,REF\u002A\u002A,2*%
%TO.N,/A1E5*%
X77570000Y-50590000D03*
%TD*%
D16*
%TO.P,REF\u002A\u002A,1*%
%TO.N,N/C*%
X84024025Y-139213025D03*
D17*
%TO.P,REF\u002A\u002A,2*%
X83704025Y-138893025D03*
%TD*%
D22*
%TO.P,REF\u002A\u002A,1*%
%TO.N,N/C*%
X82572619Y-171386381D03*
%TO.P,REF\u002A\u002A,2*%
%TO.N,/A1E5*%
X77561000Y-176398000D03*
%TD*%
D16*
%TO.P,REF\u002A\u002A,1*%
%TO.N,N/C*%
X52024025Y-139213025D03*
D17*
%TO.P,REF\u002A\u002A,2*%
X51704025Y-138893025D03*
%TD*%
D18*
%TO.P,>NAME,1*%
%TO.N,N/C*%
X70253000Y-129281000D03*
%TO.P,>NAME,2*%
%TO.N,GND*%
X69293000Y-129281000D03*
%TD*%
%TO.P,>NAME,1*%
%TO.N,N/C*%
X70254000Y-132063000D03*
%TO.P,>NAME,2*%
X69294000Y-132063000D03*
%TD*%
%TO.P,>NAME,1*%
%TO.N,N/C*%
X150793000Y-97819000D03*
%TO.P,>NAME,2*%
%TO.N,GND*%
X151753000Y-97819000D03*
%TD*%
D17*
%TO.P,REF\u002A\u002A,1*%
%TO.N,N/C*%
X163690025Y-88000025D03*
D16*
%TO.P,REF\u002A\u002A,2*%
X164010025Y-87680025D03*
%TD*%
D20*
%TO.P,REF\u002A\u002A,1*%
%TO.N,N/C*%
X86532000Y-149251025D03*
%TO.P,REF\u002A\u002A,2*%
X84411800Y-154893025D03*
%TD*%
D21*
%TO.P,REF\u002A\u002A,1*%
%TO.N,N/C*%
X162581619Y-87601619D03*
%TO.P,REF\u002A\u002A,2*%
%TO.N,/A1E5*%
X157570000Y-82590000D03*
%TD*%
D22*
%TO.P,REF\u002A\u002A,1*%
%TO.N,N/C*%
X50572619Y-139386381D03*
%TO.P,REF\u002A\u002A,2*%
%TO.N,/A1E5*%
X45561000Y-144398000D03*
%TD*%
D20*
%TO.P,REF\u002A\u002A,1*%
%TO.N,N/C*%
X54516000Y-77643025D03*
%TO.P,REF\u002A\u002A,2*%
X52396800Y-72000025D03*
%TD*%
D23*
%TO.P,Feed4,*%
%TO.N,/A1P1*%
X70530000Y-127704000D03*
D24*
%TO.P,Feed4,1,A*%
X70530000Y-127704000D03*
%TD*%
D16*
%TO.P,REF\u002A\u002A,1*%
%TO.N,N/C*%
X84010025Y-56320025D03*
D17*
%TO.P,REF\u002A\u002A,2*%
X83690025Y-56000025D03*
%TD*%
%TO.P,REF\u002A\u002A,1*%
%TO.N,N/C*%
X83690025Y-88000025D03*
D16*
%TO.P,REF\u002A\u002A,2*%
X84010025Y-87680025D03*
%TD*%
D20*
%TO.P,REF\u002A\u002A,1*%
%TO.N,N/C*%
X54532000Y-149251025D03*
%TO.P,REF\u002A\u002A,2*%
X52411800Y-154893025D03*
%TD*%
D17*
%TO.P,REF\u002A\u002A,1*%
%TO.N,N/C*%
X166196000Y-91846025D03*
D16*
%TO.P,REF\u002A\u002A,2*%
X166516000Y-91526025D03*
%TD*%
D22*
%TO.P,REF\u002A\u002A,1*%
%TO.N,N/C*%
X130572619Y-171386381D03*
%TO.P,REF\u002A\u002A,2*%
%TO.N,/A1E5*%
X125561000Y-176398000D03*
%TD*%
D21*
%TO.P,REF\u002A\u002A,1*%
%TO.N,N/C*%
X50581619Y-87601619D03*
%TO.P,REF\u002A\u002A,2*%
%TO.N,/A1E5*%
X45570000Y-82590000D03*
%TD*%
D17*
%TO.P,REF\u002A\u002A,1*%
%TO.N,N/C*%
X83704025Y-170893025D03*
D16*
%TO.P,REF\u002A\u002A,2*%
X84024025Y-170573025D03*
%TD*%
D17*
%TO.P,REF\u002A\u002A,1*%
%TO.N,N/C*%
X51690025Y-88000025D03*
D16*
%TO.P,REF\u002A\u002A,2*%
X52010025Y-87680025D03*
%TD*%
D19*
%TO.P,>NAME,1*%
%TO.N,N/C*%
X150517000Y-95971000D03*
%TO.P,>NAME,2*%
X150517000Y-96931000D03*
%TD*%
D22*
%TO.P,REF\u002A\u002A,1*%
%TO.N,N/C*%
X50572619Y-171386381D03*
%TO.P,REF\u002A\u002A,2*%
%TO.N,/A1E5*%
X45561000Y-176398000D03*
%TD*%
D18*
%TO.P,>NAME,1*%
%TO.N,N/C*%
X150255000Y-132063000D03*
%TO.P,>NAME,2*%
X149295000Y-132063000D03*
%TD*%
D20*
%TO.P,REF\u002A\u002A,1*%
%TO.N,N/C*%
X86516000Y-77643025D03*
%TO.P,REF\u002A\u002A,2*%
X84396800Y-72000025D03*
%TD*%
D18*
%TO.P,>NAME,1*%
%TO.N,N/C*%
X70793000Y-97818000D03*
%TO.P,>NAME,2*%
%TO.N,GND*%
X71753000Y-97818000D03*
%TD*%
D23*
%TO.P,Feed1,*%
%TO.N,/A1P1*%
X70516000Y-99395000D03*
D25*
%TO.P,Feed1,1,A*%
X70516000Y-99395000D03*
%TD*%
D17*
%TO.P,REF\u002A\u002A,1*%
%TO.N,N/C*%
X163704025Y-170893025D03*
D16*
%TO.P,REF\u002A\u002A,2*%
X164024025Y-170573025D03*
%TD*%
D17*
%TO.P,REF\u002A\u002A,1*%
%TO.N,N/C*%
X54851000Y-135253975D03*
D16*
%TO.P,REF\u002A\u002A,2*%
X54531000Y-135573975D03*
%TD*%
D17*
%TO.P,REF\u002A\u002A,1*%
%TO.N,N/C*%
X51704025Y-170893025D03*
D16*
%TO.P,REF\u002A\u002A,2*%
X52024025Y-170573025D03*
%TD*%
%TO.P,REF\u002A\u002A,1*%
%TO.N,N/C*%
X134516000Y-91526025D03*
D17*
%TO.P,REF\u002A\u002A,2*%
X134836000Y-91846025D03*
%TD*%
%TO.P,REF\u002A\u002A,1*%
%TO.N,N/C*%
X134851000Y-135253975D03*
D16*
%TO.P,REF\u002A\u002A,2*%
X134531000Y-135573975D03*
%TD*%
D20*
%TO.P,REF\u002A\u002A,1*%
%TO.N,N/C*%
X134516000Y-77643025D03*
%TO.P,REF\u002A\u002A,2*%
X132396800Y-72000025D03*
%TD*%
D16*
%TO.P,REF\u002A\u002A,1*%
%TO.N,N/C*%
X166531000Y-135573975D03*
D17*
%TO.P,REF\u002A\u002A,2*%
X166211000Y-135253975D03*
%TD*%
D16*
%TO.P,REF\u002A\u002A,1*%
%TO.N,N/C*%
X52010025Y-56320025D03*
D17*
%TO.P,REF\u002A\u002A,2*%
X51690025Y-56000025D03*
%TD*%
%TO.P,REF\u002A\u002A,1*%
%TO.N,N/C*%
X86196000Y-91846025D03*
D16*
%TO.P,REF\u002A\u002A,2*%
X86516000Y-91526025D03*
%TD*%
%TO.P,REF\u002A\u002A,1*%
%TO.N,N/C*%
X132010025Y-56320025D03*
D17*
%TO.P,REF\u002A\u002A,2*%
X131690025Y-56000025D03*
%TD*%
D21*
%TO.P,REF\u002A\u002A,1*%
%TO.N,N/C*%
X130581619Y-87601619D03*
%TO.P,REF\u002A\u002A,2*%
%TO.N,/A1E5*%
X125570000Y-82590000D03*
%TD*%
D16*
%TO.P,REF\u002A\u002A,1*%
%TO.N,N/C*%
X164010025Y-56320025D03*
D17*
%TO.P,REF\u002A\u002A,2*%
X163690025Y-56000025D03*
%TD*%
D19*
%TO.P,>NAME,1*%
%TO.N,N/C*%
X70517000Y-95970000D03*
%TO.P,>NAME,2*%
X70517000Y-96930000D03*
%TD*%
D22*
%TO.P,REF\u002A\u002A,1*%
%TO.N,N/C*%
X82572619Y-139386381D03*
%TO.P,REF\u002A\u002A,2*%
%TO.N,/A1E5*%
X77561000Y-144398000D03*
%TD*%
D20*
%TO.P,REF\u002A\u002A,1*%
%TO.N,N/C*%
X134532000Y-149251025D03*
%TO.P,REF\u002A\u002A,2*%
X132411800Y-154893025D03*
%TD*%
D22*
%TO.P,REF\u002A\u002A,1*%
%TO.N,N/C*%
X162572619Y-171386381D03*
%TO.P,REF\u002A\u002A,2*%
%TO.N,/A1E5*%
X157561000Y-176398000D03*
%TD*%
D21*
%TO.P,REF\u002A\u002A,1*%
%TO.N,N/C*%
X130581619Y-55601619D03*
%TO.P,REF\u002A\u002A,2*%
%TO.N,/A1E5*%
X125570000Y-50590000D03*
%TD*%
D19*
%TO.P,>NAME,1*%
%TO.N,N/C*%
X70529000Y-131129000D03*
%TO.P,>NAME,2*%
X70529000Y-130169000D03*
%TD*%
D20*
%TO.P,REF\u002A\u002A,1*%
%TO.N,N/C*%
X166516000Y-77643025D03*
%TO.P,REF\u002A\u002A,2*%
X164396800Y-72000025D03*
%TD*%
D23*
%TO.P,Feed3,*%
%TO.N,/A1P1*%
X150531000Y-127704000D03*
D24*
%TO.P,Feed3,1,A*%
X150531000Y-127704000D03*
%TD*%
D21*
%TO.P,REF\u002A\u002A,1*%
%TO.N,N/C*%
X50581619Y-55601619D03*
%TO.P,REF\u002A\u002A,2*%
%TO.N,/A1E5*%
X45570000Y-50590000D03*
%TD*%
D23*
%TO.P,Feed2,*%
%TO.N,/A1P1*%
X150516000Y-99395000D03*
D25*
%TO.P,Feed2,1,A*%
X150516000Y-99395000D03*
%TD*%
D18*
%TO.P,>NAME,1*%
%TO.N,N/C*%
X70792000Y-95036000D03*
%TO.P,>NAME,2*%
X71752000Y-95036000D03*
%TD*%
D16*
%TO.P,REF\u002A\u002A,1*%
%TO.N,N/C*%
X132024025Y-139213025D03*
D17*
%TO.P,REF\u002A\u002A,2*%
X131704025Y-138893025D03*
%TD*%
D22*
%TO.P,REF\u002A\u002A,1*%
%TO.N,N/C*%
X162572619Y-139386381D03*
%TO.P,REF\u002A\u002A,2*%
%TO.N,/A1E5*%
X157561000Y-144398000D03*
%TD*%
D18*
%TO.P,>NAME,1*%
%TO.N,N/C*%
X150792000Y-95037000D03*
%TO.P,>NAME,2*%
X151752000Y-95037000D03*
%TD*%
D21*
%TO.P,REF\u002A\u002A,1*%
%TO.N,N/C*%
X162581619Y-55601619D03*
%TO.P,REF\u002A\u002A,2*%
%TO.N,/A1E5*%
X157570000Y-50590000D03*
%TD*%
D17*
%TO.P,REF\u002A\u002A,1*%
%TO.N,N/C*%
X131704025Y-170893025D03*
D16*
%TO.P,REF\u002A\u002A,2*%
X132024025Y-170573025D03*
%TD*%
D21*
%TO.P,REF\u002A\u002A,1*%
%TO.N,N/C*%
X82581619Y-87601619D03*
%TO.P,REF\u002A\u002A,2*%
%TO.N,/A1E5*%
X77570000Y-82590000D03*
%TD*%
D16*
%TO.P,REF\u002A\u002A,1*%
%TO.N,N/C*%
X54516000Y-91526025D03*
D17*
%TO.P,REF\u002A\u002A,2*%
X54836000Y-91846025D03*
%TD*%
D22*
%TO.P,REF\u002A\u002A,1*%
%TO.N,N/C*%
X130572619Y-139386381D03*
%TO.P,REF\u002A\u002A,2*%
%TO.N,/A1E5*%
X125561000Y-144398000D03*
%TD*%
D26*
%TO.N,GND*%
X152487000Y-95037000D03*
X152487000Y-97819000D03*
X68559000Y-132063000D03*
X68559000Y-129281000D03*
X148560000Y-132063000D03*
X72487000Y-97818000D03*
X72487000Y-95036000D03*
X148560000Y-129281000D03*
%TD*%
D27*
%TO.N,*%
X54516000Y-77910000D02*
X54516000Y-91580000D01*
X166531000Y-149190000D02*
X166531000Y-135520000D01*
X131055000Y-88000000D02*
X131700000Y-88000000D01*
X50630000Y-87660000D02*
X50970000Y-88000000D01*
X130670000Y-55700000D02*
X130970000Y-56000000D01*
X51055000Y-88000000D02*
X51700000Y-88000000D01*
X86516000Y-77841000D02*
X86516000Y-91511000D01*
X50970000Y-88000000D02*
X51055000Y-88000000D01*
X83055000Y-88000000D02*
X83700000Y-88000000D01*
X83069000Y-170893000D02*
X83714000Y-170893000D01*
X51069000Y-138893000D02*
X51747000Y-138893000D01*
X82970000Y-56000000D02*
X83055000Y-56000000D01*
X162970000Y-56000000D02*
X163055000Y-56000000D01*
X130970000Y-56000000D02*
X131733000Y-56000000D01*
X86531000Y-149190000D02*
X86531000Y-135520000D01*
X162646000Y-139316000D02*
X163069000Y-138893000D01*
X130646000Y-139316000D02*
X131069000Y-138893000D01*
X163069000Y-170893000D02*
X163714000Y-170893000D01*
X162970000Y-88000000D02*
X163055000Y-88000000D01*
X54531000Y-149190000D02*
X54531000Y-135520000D01*
X82630000Y-87660000D02*
X82970000Y-88000000D01*
X162970000Y-56000000D02*
X163733000Y-56000000D01*
X134516000Y-77910000D02*
X134516000Y-91580000D01*
X131069000Y-138893000D02*
X131747000Y-138893000D01*
X50646000Y-171316000D02*
X51069000Y-170893000D01*
X82646000Y-139316000D02*
X83069000Y-138893000D01*
X162630000Y-87660000D02*
X162970000Y-88000000D01*
X51069000Y-170893000D02*
X51714000Y-170893000D01*
X131069000Y-170893000D02*
X131714000Y-170893000D01*
X82646000Y-171316000D02*
X83069000Y-170893000D01*
X163055000Y-88000000D02*
X163700000Y-88000000D01*
X50970000Y-56000000D02*
X51055000Y-56000000D01*
X50670000Y-55700000D02*
X50970000Y-56000000D01*
X134531000Y-149190000D02*
X134531000Y-135520000D01*
X50646000Y-139316000D02*
X51069000Y-138893000D01*
X162670000Y-55700000D02*
X162970000Y-56000000D01*
X166516000Y-77910000D02*
X166516000Y-91580000D01*
X130970000Y-56000000D02*
X131055000Y-56000000D01*
X130630000Y-87660000D02*
X130970000Y-88000000D01*
X82970000Y-56000000D02*
X83733000Y-56000000D01*
X50970000Y-56000000D02*
X51733000Y-56000000D01*
X82970000Y-88000000D02*
X83055000Y-88000000D01*
X162646000Y-171316000D02*
X163069000Y-170893000D01*
X82670000Y-55700000D02*
X82970000Y-56000000D01*
X130646000Y-171316000D02*
X131069000Y-170893000D01*
X163069000Y-138893000D02*
X163747000Y-138893000D01*
X130970000Y-88000000D02*
X131055000Y-88000000D01*
X83069000Y-138893000D02*
X83747000Y-138893000D01*
D28*
%TO.N,GND*%
X72487000Y-97818000D02*
X71781970Y-97818000D01*
X148560000Y-129281000D02*
X149265030Y-129281000D01*
X152487000Y-95037000D02*
X151781970Y-95037000D01*
X68559000Y-129281000D02*
X69264030Y-129281000D01*
X148560000Y-132063000D02*
X149265030Y-132063000D01*
X72487000Y-95036000D02*
X71781970Y-95036000D01*
X68559000Y-132063000D02*
X69264030Y-132063000D01*
X152487000Y-97819000D02*
X151781970Y-97819000D01*
D27*
X151753000Y-97819000D02*
G75*
G03*
X151781970Y-97831000I28972J28975D01*
G01*
X149294000Y-129281000D02*
G75*
G03*
X149265030Y-129269000I-28972J-28975D01*
G01*
X69293000Y-129281000D02*
G75*
G03*
X69264030Y-129269000I-28972J-28975D01*
G01*
X71753000Y-97818000D02*
G75*
G03*
X71781970Y-97830000I28972J28975D01*
G01*
%TO.N,/A1E3*%
X132024000Y-170572050D02*
X132024000Y-139213050D01*
X52010000Y-87679050D02*
X52010000Y-56320050D01*
X132010000Y-56320050D02*
X132010025Y-56320025D01*
X132010000Y-87679050D02*
X132010000Y-56320050D01*
X164024000Y-170572050D02*
X164024000Y-139213050D01*
X84010000Y-87679050D02*
X84010000Y-56320050D01*
X52010000Y-56320050D02*
X52010025Y-56320025D01*
X164010000Y-56320050D02*
X164010025Y-56320025D01*
X164024000Y-139213050D02*
X164024025Y-139213025D01*
X52024000Y-139213050D02*
X52024025Y-139213025D01*
X84010000Y-56320050D02*
X84010025Y-56320025D01*
X84024000Y-139213050D02*
X84024025Y-139213025D01*
X164010000Y-87679050D02*
X164010000Y-56320050D01*
X84024000Y-170572050D02*
X84024000Y-139213050D01*
X52024000Y-170572050D02*
X52024000Y-139213050D01*
X132024000Y-139213050D02*
X132024025Y-139213025D01*
%TO.N,/A1P1*%
X54850000Y-91846000D02*
X54849000Y-91845000D01*
X54887500Y-135254000D02*
X86191000Y-135254000D01*
X166191000Y-135254000D02*
X166192000Y-135255000D01*
X86153500Y-91846000D02*
X54850000Y-91846000D01*
X134850000Y-91846000D02*
X134849000Y-91845000D01*
X86191000Y-135254000D02*
X86192000Y-135255000D01*
X166153500Y-91846000D02*
X134850000Y-91846000D01*
X134887500Y-135254000D02*
X166191000Y-135254000D01*
%TD*%
M02*
