M48
INCH,TZ
T1C0.0158
T2C0.0984
T3C0.0394
%
G90
G05
T1
X9111Y-43712
X10206Y-43712
X24859Y-43712
X25954Y-43712
X40607Y-43712
X41702Y-43712
X56355Y-43712
X57450Y-43712
T2
X4724Y-7087
X4724Y-81890
X6299Y-44488
X36557Y-44471
X36614Y-1969
X36614Y-87008
X66929Y-44488
X68504Y-7087
X68504Y-81890
T3
X10827Y-44469
X26575Y-44469
X42323Y-44469
X58071Y-44469
T0
M30
