M48
; DRILL file {KiCad 5.1.6-c6e7f7d~86~ubuntu18.04.1} date Mon Jun  1 18:26:35 2020
; FORMAT={-:-/ absolute / inch / decimal}
; #@! TF.CreationDate,2020-06-01T18:26:35-05:00
; #@! TF.GenerationSoftware,Kicad,Pcbnew,5.1.6-c6e7f7d~86~ubuntu18.04.1
; #@! TF.FileFunction,Plated,1,6,PTH
FMAT,2
INCH
T1C0.0079
T2C0.0080
%
G90
G05
T1
X2.6118Y-4.0799
X2.6118Y-4.1114
X2.6118Y-4.1429
X2.6118Y-4.1744
X2.6118Y-4.2059
X2.6433Y-3.9539
T2
X4.0384Y-4.7441
X4.0384Y-4.7815
X4.0384Y-4.8189
X4.0384Y-4.8563
X4.0384Y-4.8937
X4.0758Y-4.7441
X4.0758Y-4.7815
X4.0758Y-4.8189
X4.0758Y-4.8563
X4.0758Y-4.8937
X4.1132Y-4.7441
X4.1132Y-4.7815
X4.1132Y-4.8189
X4.1132Y-4.8563
X4.1132Y-4.8937
X4.1506Y-4.7441
X4.1506Y-4.7815
X4.1506Y-4.8189
X4.1506Y-4.8563
X4.1506Y-4.8937
T0
M30
