%TF.GenerationSoftware,KiCad,Pcbnew,5.1.6-c6e7f7d~86~ubuntu18.04.1*%
%TF.CreationDate,2020-06-01T18:26:28-05:00*%
%TF.ProjectId,AP2100,41503231-3030-42e6-9b69-6361645f7063,rev?*%
%TF.SameCoordinates,Original*%
%TF.FileFunction,Copper,L6,Bot*%
%TF.FilePolarity,Positive*%
%FSLAX46Y46*%
G04 Gerber Fmt 4.6, Leading zero omitted, Abs format (unit mm)*
G04 Created by KiCad (PCBNEW 5.1.6-c6e7f7d~86~ubuntu18.04.1) date 2020-06-01 18:26:28*
%MOMM*%
%LPD*%
G01*
G04 APERTURE LIST*
%TA.AperFunction,ComponentPad*%
%ADD10C,0.499999*%
%TD*%
%TA.AperFunction,ViaPad*%
%ADD11C,0.400000*%
%TD*%
%TA.AperFunction,Conductor*%
%ADD12C,0.105000*%
%TD*%
%TA.AperFunction,NonConductor*%
%ADD13C,0.254000*%
%TD*%
G04 APERTURE END LIST*
D10*
%TO.P,U1,V*%
%TO.N,N/C*%
X103525000Y-121449999D03*
X103525000Y-123350001D03*
X103525000Y-122400000D03*
X104475000Y-122400000D03*
X104475000Y-123350001D03*
X104475000Y-121449999D03*
X104475000Y-120499999D03*
X103525000Y-120499999D03*
X103525000Y-124300001D03*
X104475000Y-124300001D03*
X105425001Y-124300001D03*
X105425001Y-120499999D03*
X105425001Y-121449999D03*
X105425001Y-123350001D03*
X105425001Y-122400000D03*
X102574999Y-122400000D03*
X102574999Y-123350001D03*
X102574999Y-121449999D03*
X102574999Y-120499999D03*
X102574999Y-124300001D03*
%TD*%
D11*
%TO.N,*%
X66340000Y-106030000D03*
X66340000Y-104430000D03*
%TO.N,GND*%
X66340000Y-106830000D03*
%TO.N,Net-(U2-PadW22)*%
X66340000Y-105230000D03*
%TO.N,Net-(U2-PadU22)*%
X66340000Y-103630000D03*
%TO.N,Net-(U2-PadN23)*%
X67140000Y-100430000D03*
%TD*%
D12*
%TO.N,*%
X66340000Y-104430000D02*
X69940000Y-104430000D01*
%TO.N,Net-(U2-PadU22)*%
X66340000Y-103630000D02*
X69940000Y-103630000D01*
%TO.N,Net-(U2-PadN23)*%
X67140000Y-100430000D02*
X67540000Y-100830000D01*
X67540000Y-100830000D02*
X69940000Y-100830000D01*
%TD*%
D13*
G36*
X142873000Y-52873000D02*
G01*
X7127000Y-52873000D01*
X7127000Y-16127000D01*
X142873000Y-16127000D01*
X142873000Y-52873000D01*
G37*
X142873000Y-52873000D02*
X7127000Y-52873000D01*
X7127000Y-16127000D01*
X142873000Y-16127000D01*
X142873000Y-52873000D01*
M02*
