%TF.GenerationSoftware,KiCad,Pcbnew,5.1.6-c6e7f7d~86~ubuntu18.04.1*%
%TF.CreationDate,2020-06-01T18:26:28-05:00*%
%TF.ProjectId,AP2100,41503231-3030-42e6-9b69-6361645f7063,rev?*%
%TF.SameCoordinates,Original*%
%TF.FileFunction,Soldermask,Top*%
%TF.FilePolarity,Negative*%
%FSLAX46Y46*%
G04 Gerber Fmt 4.6, Leading zero omitted, Abs format (unit mm)*
G04 Created by KiCad (PCBNEW 5.1.6-c6e7f7d~86~ubuntu18.04.1) date 2020-06-01 18:26:28*
%MOMM*%
%LPD*%
G01*
G04 APERTURE LIST*
%ADD10C,0.152400*%
%ADD11C,1.200000*%
%ADD12C,1.700000*%
%ADD13R,2.400000X3.300000*%
%ADD14R,0.700000X2.100000*%
%ADD15C,0.510000*%
%ADD16R,1.500000X0.549999*%
%ADD17R,3.500001X5.100000*%
%ADD18C,0.599999*%
%ADD19C,0.254000*%
G04 APERTURE END LIST*
D10*
%TO.C,U1*%
X102770000Y-124125800D02*
X102770000Y-120674200D01*
X102770000Y-120674200D02*
X102770945Y-120664601D01*
X102770945Y-120664601D02*
X102773744Y-120655371D01*
X102773744Y-120655371D02*
X102778290Y-120646867D01*
X102778290Y-120646867D02*
X102784409Y-120639409D01*
X102784409Y-120639409D02*
X102791867Y-120633290D01*
X102791867Y-120633290D02*
X102800371Y-120628744D01*
X102800371Y-120628744D02*
X102809601Y-120625945D01*
X102809601Y-120625945D02*
X102819200Y-120625000D01*
X102819200Y-120625000D02*
X105180800Y-120625000D01*
X105180800Y-120625000D02*
X105190399Y-120625945D01*
X105190399Y-120625945D02*
X105199629Y-120628744D01*
X105199629Y-120628744D02*
X105208133Y-120633290D01*
X105208133Y-120633290D02*
X105215591Y-120639409D01*
X105215591Y-120639409D02*
X105221710Y-120646867D01*
X105221710Y-120646867D02*
X105226256Y-120655371D01*
X105226256Y-120655371D02*
X105229055Y-120664601D01*
X105229055Y-120664601D02*
X105230000Y-120674200D01*
X105230000Y-120674200D02*
X105230000Y-124125800D01*
X105230000Y-124125800D02*
X105229055Y-124135399D01*
X105229055Y-124135399D02*
X105226256Y-124144629D01*
X105226256Y-124144629D02*
X105221710Y-124153133D01*
X105221710Y-124153133D02*
X105215591Y-124160591D01*
X105215591Y-124160591D02*
X105208133Y-124166710D01*
X105208133Y-124166710D02*
X105199629Y-124171256D01*
X105199629Y-124171256D02*
X105190399Y-124174055D01*
X105190399Y-124174055D02*
X105180800Y-124175000D01*
X105180800Y-124175000D02*
X102819200Y-124175000D01*
X102819200Y-124175000D02*
X102809601Y-124174055D01*
X102809601Y-124174055D02*
X102800371Y-124171256D01*
X102800371Y-124171256D02*
X102791867Y-124166710D01*
X102791867Y-124166710D02*
X102784409Y-124160591D01*
X102784409Y-124160591D02*
X102778290Y-124153133D01*
X102778290Y-124153133D02*
X102773744Y-124144629D01*
X102773744Y-124144629D02*
X102770945Y-124135399D01*
X102770945Y-124135399D02*
X102770000Y-124125800D01*
%TD*%
D11*
%TO.C,J3*%
X137500000Y-60000000D03*
D12*
X112500000Y-60000000D03*
D13*
X110350000Y-63500000D03*
X139650000Y-63500000D03*
D14*
X113200000Y-64100000D03*
X113600000Y-55900000D03*
X114000000Y-64100000D03*
X114400000Y-55900000D03*
X114800000Y-64100000D03*
X115200000Y-55900000D03*
X115600000Y-64100000D03*
X116000000Y-55900000D03*
X116400000Y-64100000D03*
X116800000Y-55900000D03*
X117200000Y-64100000D03*
X117600000Y-55900000D03*
X118000000Y-64100000D03*
X118400000Y-55900000D03*
X118800000Y-64100000D03*
X119200000Y-55900000D03*
X122800000Y-64100000D03*
X123200000Y-55900000D03*
X123600000Y-64100000D03*
X124000000Y-55900000D03*
X124400000Y-64100000D03*
X124800000Y-55900000D03*
X125200000Y-64100000D03*
X125600000Y-55900000D03*
X126000000Y-64100000D03*
X126400000Y-55900000D03*
X126800000Y-64100000D03*
X127200000Y-55900000D03*
X127600000Y-64100000D03*
X128000000Y-55900000D03*
X128400000Y-64100000D03*
X128800000Y-55900000D03*
X129200000Y-64100000D03*
X129600000Y-55900000D03*
X130000000Y-64100000D03*
X130400000Y-55900000D03*
X130800000Y-64100000D03*
X131200000Y-55900000D03*
X131600000Y-64100000D03*
X132000000Y-55900000D03*
X132400000Y-64100000D03*
X132800000Y-55900000D03*
X133200000Y-64100000D03*
X133600000Y-55900000D03*
X134000000Y-64100000D03*
X134400000Y-55900000D03*
X134800000Y-64100000D03*
X135200000Y-55900000D03*
X135600000Y-64100000D03*
X136000000Y-55900000D03*
X136400000Y-64100000D03*
X136800000Y-55900000D03*
%TD*%
D11*
%TO.C,J2*%
X87500000Y-60000000D03*
D12*
X62500000Y-60000000D03*
D13*
X60350000Y-63500000D03*
X89650000Y-63500000D03*
D14*
X63200000Y-64100000D03*
X63600000Y-55900000D03*
X64000000Y-64100000D03*
X64400000Y-55900000D03*
X64800000Y-64100000D03*
X65200000Y-55900000D03*
X65600000Y-64100000D03*
X66000000Y-55900000D03*
X66400000Y-64100000D03*
X66800000Y-55900000D03*
X67200000Y-64100000D03*
X67600000Y-55900000D03*
X68000000Y-64100000D03*
X68400000Y-55900000D03*
X68800000Y-64100000D03*
X69200000Y-55900000D03*
X72800000Y-64100000D03*
X73200000Y-55900000D03*
X73600000Y-64100000D03*
X74000000Y-55900000D03*
X74400000Y-64100000D03*
X74800000Y-55900000D03*
X75200000Y-64100000D03*
X75600000Y-55900000D03*
X76000000Y-64100000D03*
X76400000Y-55900000D03*
X76800000Y-64100000D03*
X77200000Y-55900000D03*
X77600000Y-64100000D03*
X78000000Y-55900000D03*
X78400000Y-64100000D03*
X78800000Y-55900000D03*
X79200000Y-64100000D03*
X79600000Y-55900000D03*
X80000000Y-64100000D03*
X80400000Y-55900000D03*
X80800000Y-64100000D03*
X81200000Y-55900000D03*
X81600000Y-64100000D03*
X82000000Y-55900000D03*
X82400000Y-64100000D03*
X82800000Y-55900000D03*
X83200000Y-64100000D03*
X83600000Y-55900000D03*
X84000000Y-64100000D03*
X84400000Y-55900000D03*
X84800000Y-64100000D03*
X85200000Y-55900000D03*
X85600000Y-64100000D03*
X86000000Y-55900000D03*
X86400000Y-64100000D03*
X86800000Y-55900000D03*
%TD*%
D11*
%TO.C,J1*%
X37500000Y-60000000D03*
D12*
X12500000Y-60000000D03*
D13*
X10350000Y-63500000D03*
X39650000Y-63500000D03*
D14*
X13200000Y-64100000D03*
X13600000Y-55900000D03*
X14000000Y-64100000D03*
X14400000Y-55900000D03*
X14800000Y-64100000D03*
X15200000Y-55900000D03*
X15600000Y-64100000D03*
X16000000Y-55900000D03*
X16400000Y-64100000D03*
X16800000Y-55900000D03*
X17200000Y-64100000D03*
X17600000Y-55900000D03*
X18000000Y-64100000D03*
X18400000Y-55900000D03*
X18800000Y-64100000D03*
X19200000Y-55900000D03*
X22800000Y-64100000D03*
X23200000Y-55900000D03*
X23600000Y-64100000D03*
X24000000Y-55900000D03*
X24400000Y-64100000D03*
X24800000Y-55900000D03*
X25200000Y-64100000D03*
X25600000Y-55900000D03*
X26000000Y-64100000D03*
X26400000Y-55900000D03*
X26800000Y-64100000D03*
X27200000Y-55900000D03*
X27600000Y-64100000D03*
X28000000Y-55900000D03*
X28400000Y-64100000D03*
X28800000Y-55900000D03*
X29200000Y-64100000D03*
X29600000Y-55900000D03*
X30000000Y-64100000D03*
X30400000Y-55900000D03*
X30800000Y-64100000D03*
X31200000Y-55900000D03*
X31600000Y-64100000D03*
X32000000Y-55900000D03*
X32400000Y-64100000D03*
X32800000Y-55900000D03*
X33200000Y-64100000D03*
X33600000Y-55900000D03*
X34000000Y-64100000D03*
X34400000Y-55900000D03*
X34800000Y-64100000D03*
X35200000Y-55900000D03*
X35600000Y-64100000D03*
X36000000Y-55900000D03*
X36400000Y-64100000D03*
X36800000Y-55900000D03*
%TD*%
D15*
%TO.C,U2*%
X67537686Y-109633837D03*
X66737686Y-109633837D03*
X65937686Y-109633837D03*
X65137686Y-109633837D03*
X64337686Y-109633837D03*
X63537686Y-109633837D03*
X62737686Y-109633837D03*
X61937686Y-109633837D03*
X61137686Y-109633837D03*
X60337686Y-109633837D03*
X59537686Y-109633837D03*
X58737686Y-109633837D03*
X57937686Y-109633837D03*
X57137686Y-109633837D03*
X56337686Y-109633837D03*
X55537686Y-109633837D03*
X54737686Y-109633837D03*
X53937686Y-109633837D03*
X53137686Y-109633837D03*
X52337686Y-109633837D03*
X51537686Y-109633837D03*
X50737686Y-109633837D03*
X49937686Y-109633837D03*
X68337686Y-108833837D03*
X67537686Y-108833837D03*
X66737686Y-108833837D03*
X65937686Y-108833837D03*
X65137686Y-108833837D03*
X64337686Y-108833837D03*
X63537686Y-108833837D03*
X62737686Y-108833837D03*
X61937686Y-108833837D03*
X61137686Y-108833837D03*
X60337686Y-108833837D03*
X59537686Y-108833837D03*
X58737686Y-108833837D03*
X57937686Y-108833837D03*
X57137686Y-108833837D03*
X56337686Y-108833837D03*
X55537686Y-108833837D03*
X54737686Y-108833837D03*
X53937686Y-108833837D03*
X53137686Y-108833837D03*
X52337686Y-108833837D03*
X51537686Y-108833837D03*
X50737686Y-108833837D03*
X49937686Y-108833837D03*
X49137686Y-108833837D03*
X68337686Y-108033837D03*
X67537686Y-108033837D03*
X66737686Y-108033837D03*
X65937686Y-108033837D03*
X65137686Y-108033837D03*
X64337686Y-108033837D03*
X63537686Y-108033837D03*
X62737686Y-108033837D03*
X61937686Y-108033837D03*
X61137686Y-108033837D03*
X60337686Y-108033837D03*
X59537686Y-108033837D03*
X58737686Y-108033837D03*
X57937686Y-108033837D03*
X57137686Y-108033837D03*
X56337686Y-108033837D03*
X55537686Y-108033837D03*
X54737686Y-108033837D03*
X53937686Y-108033837D03*
X53137686Y-108033837D03*
X52337686Y-108033837D03*
X51537686Y-108033837D03*
X50737686Y-108033837D03*
X49937686Y-108033837D03*
X49137686Y-108033837D03*
X68337686Y-107233837D03*
X67537686Y-107233837D03*
X66737686Y-107233837D03*
X65937686Y-107233837D03*
X65137686Y-107233837D03*
X64337686Y-107233837D03*
X63537686Y-107233837D03*
X62737686Y-107233837D03*
X61937686Y-107233837D03*
X61137686Y-107233837D03*
X60337686Y-107233837D03*
X59537686Y-107233837D03*
X58737686Y-107233837D03*
X57937686Y-107233837D03*
X57137686Y-107233837D03*
X56337686Y-107233837D03*
X55537686Y-107233837D03*
X54737686Y-107233837D03*
X53937686Y-107233837D03*
X53137686Y-107233837D03*
X52337686Y-107233837D03*
X51537686Y-107233837D03*
X50737686Y-107233837D03*
X49937686Y-107233837D03*
X49137686Y-107233837D03*
X68337686Y-106433837D03*
X67537686Y-106433837D03*
X66737686Y-106433837D03*
X65937686Y-106433837D03*
X65137686Y-106433837D03*
X64337686Y-106433837D03*
X63537686Y-106433837D03*
X62737686Y-106433837D03*
X61937686Y-106433837D03*
X61137686Y-106433837D03*
X60337686Y-106433837D03*
X59537686Y-106433837D03*
X58737686Y-106433837D03*
X57937686Y-106433837D03*
X57137686Y-106433837D03*
X56337686Y-106433837D03*
X55537686Y-106433837D03*
X54737686Y-106433837D03*
X53937686Y-106433837D03*
X53137686Y-106433837D03*
X52337686Y-106433837D03*
X51537686Y-106433837D03*
X50737686Y-106433837D03*
X49937686Y-106433837D03*
X49137686Y-106433837D03*
X68337686Y-105633837D03*
X67537686Y-105633837D03*
X66737686Y-105633837D03*
X65937686Y-105633837D03*
X65137686Y-105633837D03*
X64337686Y-105633837D03*
X63537686Y-105633837D03*
X62737686Y-105633837D03*
X61937686Y-105633837D03*
X61137686Y-105633837D03*
X60337686Y-105633837D03*
X59537686Y-105633837D03*
X58737686Y-105633837D03*
X57937686Y-105633837D03*
X57137686Y-105633837D03*
X56337686Y-105633837D03*
X55537686Y-105633837D03*
X54737686Y-105633837D03*
X53937686Y-105633837D03*
X53137686Y-105633837D03*
X52337686Y-105633837D03*
X51537686Y-105633837D03*
X50737686Y-105633837D03*
X49937686Y-105633837D03*
X49137686Y-105633837D03*
X68337686Y-104833837D03*
X67537686Y-104833837D03*
X66737686Y-104833837D03*
X65937686Y-104833837D03*
X65137686Y-104833837D03*
X64337686Y-104833837D03*
X63537686Y-104833837D03*
X62737686Y-104833837D03*
X61937686Y-104833837D03*
X61137686Y-104833837D03*
X60337686Y-104833837D03*
X59537686Y-104833837D03*
X58737686Y-104833837D03*
X57937686Y-104833837D03*
X57137686Y-104833837D03*
X56337686Y-104833837D03*
X55537686Y-104833837D03*
X54737686Y-104833837D03*
X53937686Y-104833837D03*
X53137686Y-104833837D03*
X52337686Y-104833837D03*
X51537686Y-104833837D03*
X50737686Y-104833837D03*
X49937686Y-104833837D03*
X49137686Y-104833837D03*
X68337686Y-104033837D03*
X67537686Y-104033837D03*
X66737686Y-104033837D03*
X65937686Y-104033837D03*
X65137686Y-104033837D03*
X64337686Y-104033837D03*
X63537686Y-104033837D03*
X62737686Y-104033837D03*
X61937686Y-104033837D03*
X61137686Y-104033837D03*
X60337686Y-104033837D03*
X59537686Y-104033837D03*
X58737686Y-104033837D03*
X57937686Y-104033837D03*
X57137686Y-104033837D03*
X56337686Y-104033837D03*
X55537686Y-104033837D03*
X54737686Y-104033837D03*
X53937686Y-104033837D03*
X53137686Y-104033837D03*
X52337686Y-104033837D03*
X51537686Y-104033837D03*
X50737686Y-104033837D03*
X49937686Y-104033837D03*
X49137686Y-104033837D03*
X68337686Y-103233837D03*
X67537686Y-103233837D03*
X66737686Y-103233837D03*
X65937686Y-103233837D03*
X65137686Y-103233837D03*
X64337686Y-103233837D03*
X63537686Y-103233837D03*
X62737686Y-103233837D03*
X61937686Y-103233837D03*
X61137686Y-103233837D03*
X60337686Y-103233837D03*
X59537686Y-103233837D03*
X58737686Y-103233837D03*
X57937686Y-103233837D03*
X57137686Y-103233837D03*
X56337686Y-103233837D03*
X55537686Y-103233837D03*
X54737686Y-103233837D03*
X53937686Y-103233837D03*
X53137686Y-103233837D03*
X52337686Y-103233837D03*
X51537686Y-103233837D03*
X50737686Y-103233837D03*
X49937686Y-103233837D03*
X49137686Y-103233837D03*
X68337686Y-102433837D03*
X67537686Y-102433837D03*
X66737686Y-102433837D03*
X65937686Y-102433837D03*
X65137686Y-102433837D03*
X64337686Y-102433837D03*
X63537686Y-102433837D03*
X62737686Y-102433837D03*
X61937686Y-102433837D03*
X61137686Y-102433837D03*
X60337686Y-102433837D03*
X59537686Y-102433837D03*
X58737686Y-102433837D03*
X57937686Y-102433837D03*
X57137686Y-102433837D03*
X56337686Y-102433837D03*
X55537686Y-102433837D03*
X54737686Y-102433837D03*
X53937686Y-102433837D03*
X53137686Y-102433837D03*
X52337686Y-102433837D03*
X51537686Y-102433837D03*
X50737686Y-102433837D03*
X49937686Y-102433837D03*
X49137686Y-102433837D03*
X68337686Y-101633837D03*
X67537686Y-101633837D03*
X66737686Y-101633837D03*
X65937686Y-101633837D03*
X65137686Y-101633837D03*
X64337686Y-101633837D03*
X63537686Y-101633837D03*
X62737686Y-101633837D03*
X61937686Y-101633837D03*
X61137686Y-101633837D03*
X60337686Y-101633837D03*
X59537686Y-101633837D03*
X58737686Y-101633837D03*
X57937686Y-101633837D03*
X57137686Y-101633837D03*
X56337686Y-101633837D03*
X55537686Y-101633837D03*
X54737686Y-101633837D03*
X53937686Y-101633837D03*
X53137686Y-101633837D03*
X52337686Y-101633837D03*
X51537686Y-101633837D03*
X50737686Y-101633837D03*
X49937686Y-101633837D03*
X49137686Y-101633837D03*
X68337686Y-100833837D03*
X67537686Y-100833837D03*
X66737686Y-100833837D03*
X65937686Y-100833837D03*
X65137686Y-100833837D03*
X64337686Y-100833837D03*
X63537686Y-100833837D03*
X62737686Y-100833837D03*
X61937686Y-100833837D03*
X61137686Y-100833837D03*
X60337686Y-100833837D03*
X59537686Y-100833837D03*
X58737686Y-100833837D03*
X57937686Y-100833837D03*
X57137686Y-100833837D03*
X56337686Y-100833837D03*
X55537686Y-100833837D03*
X54737686Y-100833837D03*
X53937686Y-100833837D03*
X53137686Y-100833837D03*
X52337686Y-100833837D03*
X51537686Y-100833837D03*
X50737686Y-100833837D03*
X49937686Y-100833837D03*
X49137686Y-100833837D03*
X68337686Y-100033837D03*
X67537686Y-100033837D03*
X66737686Y-100033837D03*
X65937686Y-100033837D03*
X65137686Y-100033837D03*
X64337686Y-100033837D03*
X63537686Y-100033837D03*
X62737686Y-100033837D03*
X61937686Y-100033837D03*
X61137686Y-100033837D03*
X60337686Y-100033837D03*
X59537686Y-100033837D03*
X58737686Y-100033837D03*
X57937686Y-100033837D03*
X57137686Y-100033837D03*
X56337686Y-100033837D03*
X55537686Y-100033837D03*
X54737686Y-100033837D03*
X53937686Y-100033837D03*
X53137686Y-100033837D03*
X52337686Y-100033837D03*
X51537686Y-100033837D03*
X50737686Y-100033837D03*
X49937686Y-100033837D03*
X49137686Y-100033837D03*
X68337686Y-99233837D03*
X67537686Y-99233837D03*
X66737686Y-99233837D03*
X65937686Y-99233837D03*
X65137686Y-99233837D03*
X64337686Y-99233837D03*
X63537686Y-99233837D03*
X62737686Y-99233837D03*
X61937686Y-99233837D03*
X61137686Y-99233837D03*
X60337686Y-99233837D03*
X59537686Y-99233837D03*
X58737686Y-99233837D03*
X57937686Y-99233837D03*
X57137686Y-99233837D03*
X56337686Y-99233837D03*
X55537686Y-99233837D03*
X54737686Y-99233837D03*
X53937686Y-99233837D03*
X53137686Y-99233837D03*
X52337686Y-99233837D03*
X51537686Y-99233837D03*
X50737686Y-99233837D03*
X49937686Y-99233837D03*
X49137686Y-99233837D03*
X68337686Y-98433837D03*
X67537686Y-98433837D03*
X66737686Y-98433837D03*
X65937686Y-98433837D03*
X65137686Y-98433837D03*
X64337686Y-98433837D03*
X63537686Y-98433837D03*
X62737686Y-98433837D03*
X61937686Y-98433837D03*
X61137686Y-98433837D03*
X60337686Y-98433837D03*
X59537686Y-98433837D03*
X58737686Y-98433837D03*
X57937686Y-98433837D03*
X57137686Y-98433837D03*
X56337686Y-98433837D03*
X55537686Y-98433837D03*
X54737686Y-98433837D03*
X53937686Y-98433837D03*
X53137686Y-98433837D03*
X52337686Y-98433837D03*
X51537686Y-98433837D03*
X50737686Y-98433837D03*
X49937686Y-98433837D03*
X49137686Y-98433837D03*
X68337686Y-97633837D03*
X67537686Y-97633837D03*
X66737686Y-97633837D03*
X65937686Y-97633837D03*
X65137686Y-97633837D03*
X64337686Y-97633837D03*
X63537686Y-97633837D03*
X62737686Y-97633837D03*
X61937686Y-97633837D03*
X61137686Y-97633837D03*
X60337686Y-97633837D03*
X59537686Y-97633837D03*
X58737686Y-97633837D03*
X57937686Y-97633837D03*
X57137686Y-97633837D03*
X56337686Y-97633837D03*
X55537686Y-97633837D03*
X54737686Y-97633837D03*
X53937686Y-97633837D03*
X53137686Y-97633837D03*
X52337686Y-97633837D03*
X51537686Y-97633837D03*
X50737686Y-97633837D03*
X49937686Y-97633837D03*
X49137686Y-97633837D03*
X68337686Y-96833837D03*
X67537686Y-96833837D03*
X66737686Y-96833837D03*
X65937686Y-96833837D03*
X65137686Y-96833837D03*
X64337686Y-96833837D03*
X63537686Y-96833837D03*
X62737686Y-96833837D03*
X61937686Y-96833837D03*
X61137686Y-96833837D03*
X60337686Y-96833837D03*
X59537686Y-96833837D03*
X58737686Y-96833837D03*
X57937686Y-96833837D03*
X57137686Y-96833837D03*
X56337686Y-96833837D03*
X55537686Y-96833837D03*
X54737686Y-96833837D03*
X53937686Y-96833837D03*
X53137686Y-96833837D03*
X52337686Y-96833837D03*
X51537686Y-96833837D03*
X50737686Y-96833837D03*
X49937686Y-96833837D03*
X49137686Y-96833837D03*
X68337686Y-96033837D03*
X67537686Y-96033837D03*
X66737686Y-96033837D03*
X65937686Y-96033837D03*
X65137686Y-96033837D03*
X64337686Y-96033837D03*
X63537686Y-96033837D03*
X62737686Y-96033837D03*
X61937686Y-96033837D03*
X61137686Y-96033837D03*
X60337686Y-96033837D03*
X59537686Y-96033837D03*
X58737686Y-96033837D03*
X57937686Y-96033837D03*
X57137686Y-96033837D03*
X56337686Y-96033837D03*
X55537686Y-96033837D03*
X54737686Y-96033837D03*
X53937686Y-96033837D03*
X53137686Y-96033837D03*
X52337686Y-96033837D03*
X51537686Y-96033837D03*
X50737686Y-96033837D03*
X49937686Y-96033837D03*
X49137686Y-96033837D03*
X68337686Y-95233837D03*
X67537686Y-95233837D03*
X66737686Y-95233837D03*
X65937686Y-95233837D03*
X65137686Y-95233837D03*
X64337686Y-95233837D03*
X63537686Y-95233837D03*
X62737686Y-95233837D03*
X61937686Y-95233837D03*
X61137686Y-95233837D03*
X60337686Y-95233837D03*
X59537686Y-95233837D03*
X58737686Y-95233837D03*
X57937686Y-95233837D03*
X57137686Y-95233837D03*
X56337686Y-95233837D03*
X55537686Y-95233837D03*
X54737686Y-95233837D03*
X53937686Y-95233837D03*
X53137686Y-95233837D03*
X52337686Y-95233837D03*
X51537686Y-95233837D03*
X50737686Y-95233837D03*
X49937686Y-95233837D03*
X49137686Y-95233837D03*
X68337686Y-94433837D03*
X67537686Y-94433837D03*
X66737686Y-94433837D03*
X65937686Y-94433837D03*
X65137686Y-94433837D03*
X64337686Y-94433837D03*
X63537686Y-94433837D03*
X62737686Y-94433837D03*
X61937686Y-94433837D03*
X61137686Y-94433837D03*
X60337686Y-94433837D03*
X59537686Y-94433837D03*
X58737686Y-94433837D03*
X57937686Y-94433837D03*
X57137686Y-94433837D03*
X56337686Y-94433837D03*
X55537686Y-94433837D03*
X54737686Y-94433837D03*
X53937686Y-94433837D03*
X53137686Y-94433837D03*
X52337686Y-94433837D03*
X51537686Y-94433837D03*
X50737686Y-94433837D03*
X49937686Y-94433837D03*
X49137686Y-94433837D03*
X68337686Y-93633837D03*
X67537686Y-93633837D03*
X66737686Y-93633837D03*
X65937686Y-93633837D03*
X65137686Y-93633837D03*
X64337686Y-93633837D03*
X63537686Y-93633837D03*
X62737686Y-93633837D03*
X61937686Y-93633837D03*
X61137686Y-93633837D03*
X60337686Y-93633837D03*
X59537686Y-93633837D03*
X58737686Y-93633837D03*
X57937686Y-93633837D03*
X57137686Y-93633837D03*
X56337686Y-93633837D03*
X55537686Y-93633837D03*
X54737686Y-93633837D03*
X53937686Y-93633837D03*
X53137686Y-93633837D03*
X52337686Y-93633837D03*
X51537686Y-93633837D03*
X50737686Y-93633837D03*
X49937686Y-93633837D03*
X49137686Y-93633837D03*
X68337686Y-92833837D03*
X67537686Y-92833837D03*
X66737686Y-92833837D03*
X65937686Y-92833837D03*
X65137686Y-92833837D03*
X64337686Y-92833837D03*
X63537686Y-92833837D03*
X62737686Y-92833837D03*
X61937686Y-92833837D03*
X61137686Y-92833837D03*
X60337686Y-92833837D03*
X59537686Y-92833837D03*
X58737686Y-92833837D03*
X57937686Y-92833837D03*
X57137686Y-92833837D03*
X56337686Y-92833837D03*
X55537686Y-92833837D03*
X54737686Y-92833837D03*
X53937686Y-92833837D03*
X53137686Y-92833837D03*
X52337686Y-92833837D03*
X51537686Y-92833837D03*
X50737686Y-92833837D03*
X49937686Y-92833837D03*
X49137686Y-92833837D03*
X68337686Y-92033837D03*
X67537686Y-92033837D03*
X66737686Y-92033837D03*
X65937686Y-92033837D03*
X65137686Y-92033837D03*
X64337686Y-92033837D03*
X63537686Y-92033837D03*
X62737686Y-92033837D03*
X61937686Y-92033837D03*
X61137686Y-92033837D03*
X60337686Y-92033837D03*
X59537686Y-92033837D03*
X58737686Y-92033837D03*
X57937686Y-92033837D03*
X57137686Y-92033837D03*
X56337686Y-92033837D03*
X55537686Y-92033837D03*
X54737686Y-92033837D03*
X53937686Y-92033837D03*
X53137686Y-92033837D03*
X52337686Y-92033837D03*
X51537686Y-92033837D03*
X50737686Y-92033837D03*
X49937686Y-92033837D03*
X49137686Y-92033837D03*
X68337686Y-91233837D03*
X67537686Y-91233837D03*
X66737686Y-91233837D03*
X65937686Y-91233837D03*
X65137686Y-91233837D03*
X64337686Y-91233837D03*
X63537686Y-91233837D03*
X62737686Y-91233837D03*
X61937686Y-91233837D03*
X61137686Y-91233837D03*
X60337686Y-91233837D03*
X59537686Y-91233837D03*
X58737686Y-91233837D03*
X57937686Y-91233837D03*
X57137686Y-91233837D03*
X56337686Y-91233837D03*
X55537686Y-91233837D03*
X54737686Y-91233837D03*
X53937686Y-91233837D03*
X53137686Y-91233837D03*
X52337686Y-91233837D03*
X51537686Y-91233837D03*
X50737686Y-91233837D03*
X49937686Y-91233837D03*
X49137686Y-91233837D03*
X67537686Y-90433837D03*
X66737686Y-90433837D03*
X65937686Y-90433837D03*
X65137686Y-90433837D03*
X64337686Y-90433837D03*
X63537686Y-90433837D03*
X62737686Y-90433837D03*
X61937686Y-90433837D03*
X61137686Y-90433837D03*
X60337686Y-90433837D03*
X59537686Y-90433837D03*
X58737686Y-90433837D03*
X57937686Y-90433837D03*
X57137686Y-90433837D03*
X56337686Y-90433837D03*
X55537686Y-90433837D03*
X54737686Y-90433837D03*
X53937686Y-90433837D03*
X53137686Y-90433837D03*
X52337686Y-90433837D03*
X51537686Y-90433837D03*
X50737686Y-90433837D03*
X49937686Y-90433837D03*
%TD*%
D16*
%TO.C,U1*%
X101050001Y-120125001D03*
X101050001Y-120775002D03*
X101050001Y-121425001D03*
X101050001Y-122075002D03*
X101050001Y-122725001D03*
X101050001Y-123375002D03*
X101050001Y-124025001D03*
X101050001Y-124675002D03*
X106950002Y-124675002D03*
X106950002Y-124025001D03*
X106950002Y-123375002D03*
X106950002Y-122725001D03*
X106950002Y-122075002D03*
X106950002Y-121425001D03*
X106950002Y-120775002D03*
X106950002Y-120125001D03*
D17*
X104000000Y-122400000D03*
D18*
X103525000Y-121449999D03*
X103525000Y-123350001D03*
X103525000Y-122400000D03*
X104475000Y-122400000D03*
X104475000Y-123350001D03*
X104475000Y-121449999D03*
X104475000Y-120499999D03*
X103525000Y-120499999D03*
X103525000Y-124300001D03*
X104475000Y-124300001D03*
X105425001Y-124300001D03*
X105425001Y-120499999D03*
X105425001Y-121449999D03*
X105425001Y-123350001D03*
X105425001Y-122400000D03*
X102574999Y-122400000D03*
X102574999Y-123350001D03*
X102574999Y-121449999D03*
X102574999Y-120499999D03*
X102574999Y-124300001D03*
%TD*%
D19*
G36*
X142873000Y-52873000D02*
G01*
X7127000Y-52873000D01*
X7127000Y-16127000D01*
X142873000Y-16127000D01*
X142873000Y-52873000D01*
G37*
X142873000Y-52873000D02*
X7127000Y-52873000D01*
X7127000Y-16127000D01*
X142873000Y-16127000D01*
X142873000Y-52873000D01*
M02*
