  0
SECTION
  2
HEADER
  9
$ANGBASE
  50
0.0
  9
$ANGDIR
  70
1
  9
$MEASUREMENT
  70
0
  0
ENDSEC
  0
SECTION
  2
TABLES
  0
TABLE
  2
LTYPE
  70
4
  0
LTYPE
  5
40F
  2
CONTINUOUS
  70
0
  3
Solid line
  72
65
  73
0
  40
0.0
  0
LTYPE
  5
410
  2
DASHDOT
 70
0
  3
Dash Dot ____ _ ____ _
 72
65
 73
4
 40
2.0
 49
1.25
 49
-0.25
 49
0.25
 49
-0.25
  0
LTYPE
  5
411
  2
DASHED
 70
0
  3
Dashed __ __ __ __ __
 72
65
 73
2
 40
0.75
 49
0.5
 49
-0.25
  0
LTYPE
  5
43B
  2
DOTTED
 70
0
  3
Dotted .  .  .  .
 72
65
 73
2
 40
0.2
 49
0.0
 49
-0.2
  0
ENDTAB
  0
TABLE
  2
STYLE
  70
4
  0
STYLE
  2
KICAD
  70
0
  40
0
  41
1
  42
1
  50
0
  71
0
  3
isocp.shx
  0
STYLE
  2
KICADB
  70
0
  40
0
  41
1
  42
1
  50
0
  71
0
  3
isocp.shx
  0
STYLE
  2
KICADI
  70
0
  40
0
  41
1
  42
1
  50
15
  71
0
  3
isocp.shx
  0
STYLE
  2
KICADBI
  70
0
  40
0
  41
1
  42
1
  50
15
  71
0
  3
isocp.shx
  0
ENDTAB
  0
TABLE
  2
LAYER
  70
1
  0
LAYER
  2
BLACK
  70
0
  62
7
  6
CONTINUOUS
  0
ENDTAB
  0
ENDSEC
  0
SECTION
  2
ENTITIES
0
LINE
8
BLACK
6
CONTINUOUS
10
1.71527
20
-4.25474
11
1.71952
21
-4.25691
0
LINE
8
BLACK
6
CONTINUOUS
10
1.71952
20
-4.25691
11
1.72289
21
-4.26028
0
LINE
8
BLACK
6
CONTINUOUS
10
1.72289
20
-4.26028
11
1.72506
21
-4.26454
0
LINE
8
BLACK
6
CONTINUOUS
10
1.72506
20
-4.26454
11
1.72581
21
-4.26925
0
LINE
8
BLACK
6
CONTINUOUS
10
1.72581
20
-4.26925
11
1.72581
21
-4.29976
0
LINE
8
BLACK
6
CONTINUOUS
10
1.72581
20
-4.29976
11
1.72506
21
-4.30448
0
LINE
8
BLACK
6
CONTINUOUS
10
1.72506
20
-4.30448
11
1.72289
21
-4.30873
0
LINE
8
BLACK
6
CONTINUOUS
10
1.72289
20
-4.30873
11
1.71952
21
-4.31211
0
LINE
8
BLACK
6
CONTINUOUS
10
1.71952
20
-4.31211
11
1.71527
21
-4.31427
0
LINE
8
BLACK
6
CONTINUOUS
10
1.71527
20
-4.31427
11
1.71055
21
-4.31502
0
LINE
8
BLACK
6
CONTINUOUS
10
1.71055
20
-4.31502
11
1.70584
21
-4.31427
0
LINE
8
BLACK
6
CONTINUOUS
10
1.70584
20
-4.31427
11
1.70158
21
-4.31211
0
LINE
8
BLACK
6
CONTINUOUS
10
1.70158
20
-4.31211
11
1.69821
21
-4.30873
0
LINE
8
BLACK
6
CONTINUOUS
10
1.69821
20
-4.30873
11
1.69604
21
-4.30448
0
LINE
8
BLACK
6
CONTINUOUS
10
1.69604
20
-4.30448
11
1.6953
21
-4.29976
0
LINE
8
BLACK
6
CONTINUOUS
10
1.6953
20
-4.29976
11
1.6953
21
-4.26925
0
LINE
8
BLACK
6
CONTINUOUS
10
1.6953
20
-4.26925
11
1.69604
21
-4.26454
0
LINE
8
BLACK
6
CONTINUOUS
10
1.69604
20
-4.26454
11
1.69821
21
-4.26028
0
LINE
8
BLACK
6
CONTINUOUS
10
1.69821
20
-4.26028
11
1.70158
21
-4.25691
0
LINE
8
BLACK
6
CONTINUOUS
10
1.70158
20
-4.25691
11
1.70584
21
-4.25474
0
LINE
8
BLACK
6
CONTINUOUS
10
1.70584
20
-4.25474
11
1.71055
21
-4.254
0
LINE
8
BLACK
6
CONTINUOUS
10
1.71055
20
-4.254
11
1.71527
21
-4.25474
0
LINE
8
BLACK
6
CONTINUOUS
10
1.43968
20
-4.25474
11
1.44393
21
-4.25691
0
LINE
8
BLACK
6
CONTINUOUS
10
1.44393
20
-4.25691
11
1.4473
21
-4.26028
0
LINE
8
BLACK
6
CONTINUOUS
10
1.4473
20
-4.26028
11
1.44947
21
-4.26454
0
LINE
8
BLACK
6
CONTINUOUS
10
1.44947
20
-4.26454
11
1.45022
21
-4.26925
0
LINE
8
BLACK
6
CONTINUOUS
10
1.45022
20
-4.26925
11
1.45022
21
-4.29976
0
LINE
8
BLACK
6
CONTINUOUS
10
1.45022
20
-4.29976
11
1.44947
21
-4.30448
0
LINE
8
BLACK
6
CONTINUOUS
10
1.44947
20
-4.30448
11
1.4473
21
-4.30873
0
LINE
8
BLACK
6
CONTINUOUS
10
1.4473
20
-4.30873
11
1.44393
21
-4.31211
0
LINE
8
BLACK
6
CONTINUOUS
10
1.44393
20
-4.31211
11
1.43968
21
-4.31427
0
LINE
8
BLACK
6
CONTINUOUS
10
1.43968
20
-4.31427
11
1.43496
21
-4.31502
0
LINE
8
BLACK
6
CONTINUOUS
10
1.43496
20
-4.31502
11
1.43025
21
-4.31427
0
LINE
8
BLACK
6
CONTINUOUS
10
1.43025
20
-4.31427
11
1.42599
21
-4.31211
0
LINE
8
BLACK
6
CONTINUOUS
10
1.42599
20
-4.31211
11
1.42262
21
-4.30873
0
LINE
8
BLACK
6
CONTINUOUS
10
1.42262
20
-4.30873
11
1.42045
21
-4.30448
0
LINE
8
BLACK
6
CONTINUOUS
10
1.42045
20
-4.30448
11
1.4197
21
-4.29976
0
LINE
8
BLACK
6
CONTINUOUS
10
1.4197
20
-4.29976
11
1.4197
21
-4.26925
0
LINE
8
BLACK
6
CONTINUOUS
10
1.4197
20
-4.26925
11
1.42045
21
-4.26454
0
LINE
8
BLACK
6
CONTINUOUS
10
1.42045
20
-4.26454
11
1.42262
21
-4.26028
0
LINE
8
BLACK
6
CONTINUOUS
10
1.42262
20
-4.26028
11
1.42599
21
-4.25691
0
LINE
8
BLACK
6
CONTINUOUS
10
1.42599
20
-4.25691
11
1.43025
21
-4.25474
0
LINE
8
BLACK
6
CONTINUOUS
10
1.43025
20
-4.25474
11
1.43496
21
-4.254
0
LINE
8
BLACK
6
CONTINUOUS
10
1.43496
20
-4.254
11
1.43968
21
-4.25474
0
LINE
8
BLACK
6
CONTINUOUS
10
4.07158
20
-3.97724
11
4.08678
21
-3.97959
0
LINE
8
BLACK
6
CONTINUOUS
10
4.08678
20
-3.97959
11
4.10169
21
-3.98342
0
LINE
8
BLACK
6
CONTINUOUS
10
4.10169
20
-3.98342
11
4.11614
21
-3.98868
0
LINE
8
BLACK
6
CONTINUOUS
10
4.11614
20
-3.98868
11
4.13002
21
-3.99533
0
LINE
8
BLACK
6
CONTINUOUS
10
4.13002
20
-3.99533
11
4.14318
21
-4.0033
0
LINE
8
BLACK
6
CONTINUOUS
10
4.14318
20
-4.0033
11
4.1555
21
-4.01252
0
LINE
8
BLACK
6
CONTINUOUS
10
4.1555
20
-4.01252
11
4.16686
21
-4.02289
0
LINE
8
BLACK
6
CONTINUOUS
10
4.16686
20
-4.02289
11
4.17716
21
-4.03433
0
LINE
8
BLACK
6
CONTINUOUS
10
4.17716
20
-4.03433
11
4.18629
21
-4.04671
0
LINE
8
BLACK
6
CONTINUOUS
10
4.18629
20
-4.04671
11
4.19416
21
-4.05993
0
LINE
8
BLACK
6
CONTINUOUS
10
4.19416
20
-4.05993
11
4.20072
21
-4.07385
0
LINE
8
BLACK
6
CONTINUOUS
10
4.20072
20
-4.07385
11
4.20588
21
-4.08834
0
LINE
8
BLACK
6
CONTINUOUS
10
4.20588
20
-4.08834
11
4.2096
21
-4.10327
0
LINE
8
BLACK
6
CONTINUOUS
10
4.2096
20
-4.10327
11
4.21185
21
-4.11849
0
LINE
8
BLACK
6
CONTINUOUS
10
4.21185
20
-4.11849
11
4.2126
21
-4.13386
0
LINE
8
BLACK
6
CONTINUOUS
10
4.2126
20
-4.13386
11
4.21254
21
-4.13826
0
LINE
8
BLACK
6
CONTINUOUS
10
4.21254
20
-4.13826
11
4.21136
21
-4.1536
0
LINE
8
BLACK
6
CONTINUOUS
10
4.21136
20
-4.1536
11
4.20868
21
-4.16875
0
LINE
8
BLACK
6
CONTINUOUS
10
4.20868
20
-4.16875
11
4.20455
21
-4.18357
0
LINE
8
BLACK
6
CONTINUOUS
10
4.20455
20
-4.18357
11
4.19898
21
-4.19791
0
LINE
8
BLACK
6
CONTINUOUS
10
4.19898
20
-4.19791
11
4.19205
21
-4.21164
0
LINE
8
BLACK
6
CONTINUOUS
10
4.19205
20
-4.21164
11
4.1838
21
-4.22464
0
LINE
8
BLACK
6
CONTINUOUS
10
4.1838
20
-4.22464
11
4.17433
21
-4.23676
0
LINE
8
BLACK
6
CONTINUOUS
10
4.17433
20
-4.23676
11
4.16372
21
-4.2479
0
LINE
8
BLACK
6
CONTINUOUS
10
4.16372
20
-4.2479
11
4.15207
21
-4.25795
0
LINE
8
BLACK
6
CONTINUOUS
10
4.15207
20
-4.25795
11
4.1395
21
-4.26682
0
LINE
8
BLACK
6
CONTINUOUS
10
4.1395
20
-4.26682
11
4.12612
21
-4.27442
0
LINE
8
BLACK
6
CONTINUOUS
10
4.12612
20
-4.27442
11
4.11207
21
-4.28068
0
LINE
8
BLACK
6
CONTINUOUS
10
4.11207
20
-4.28068
11
4.09747
21
-4.28554
0
LINE
8
BLACK
6
CONTINUOUS
10
4.09747
20
-4.28554
11
4.08246
21
-4.28895
0
LINE
8
BLACK
6
CONTINUOUS
10
4.08246
20
-4.28895
11
4.0672
21
-4.29087
0
LINE
8
BLACK
6
CONTINUOUS
10
4.0672
20
-4.29087
11
4.05182
21
-4.2913
0
LINE
8
BLACK
6
CONTINUOUS
10
4.05182
20
-4.2913
11
4.03647
21
-4.29023
0
LINE
8
BLACK
6
CONTINUOUS
10
4.03647
20
-4.29023
11
4.0213
21
-4.28766
0
LINE
8
BLACK
6
CONTINUOUS
10
4.0213
20
-4.28766
11
4.00645
21
-4.28363
0
LINE
8
BLACK
6
CONTINUOUS
10
4.00645
20
-4.28363
11
3.99207
21
-4.27817
0
LINE
8
BLACK
6
CONTINUOUS
10
3.99207
20
-4.27817
11
3.97829
21
-4.27133
0
LINE
8
BLACK
6
CONTINUOUS
10
3.97829
20
-4.27133
11
3.96524
21
-4.26317
0
LINE
8
BLACK
6
CONTINUOUS
10
3.96524
20
-4.26317
11
3.95305
21
-4.25379
0
LINE
8
BLACK
6
CONTINUOUS
10
3.95305
20
-4.25379
11
3.94184
21
-4.24325
0
LINE
8
BLACK
6
CONTINUOUS
10
3.94184
20
-4.24325
11
3.9317
21
-4.23168
0
LINE
8
BLACK
6
CONTINUOUS
10
3.9317
20
-4.23168
11
3.92275
21
-4.21917
0
LINE
8
BLACK
6
CONTINUOUS
10
3.92275
20
-4.21917
11
3.91505
21
-4.20584
0
LINE
8
BLACK
6
CONTINUOUS
10
3.91505
20
-4.20584
11
3.9087
21
-4.19183
0
LINE
8
BLACK
6
CONTINUOUS
10
3.9087
20
-4.19183
11
3.90374
21
-4.17727
0
LINE
8
BLACK
6
CONTINUOUS
10
3.90374
20
-4.17727
11
3.90022
21
-4.16229
0
LINE
8
BLACK
6
CONTINUOUS
10
3.90022
20
-4.16229
11
3.89819
21
-4.14704
0
LINE
8
BLACK
6
CONTINUOUS
10
3.89819
20
-4.14704
11
3.89765
21
-4.13166
0
LINE
8
BLACK
6
CONTINUOUS
10
3.89765
20
-4.13166
11
3.89862
21
-4.1163
0
LINE
8
BLACK
6
CONTINUOUS
10
3.89862
20
-4.1163
11
3.90108
21
-4.10112
0
LINE
8
BLACK
6
CONTINUOUS
10
3.90108
20
-4.10112
11
3.90501
21
-4.08624
0
LINE
8
BLACK
6
CONTINUOUS
10
3.90501
20
-4.08624
11
3.91037
21
-4.07182
0
LINE
8
BLACK
6
CONTINUOUS
10
3.91037
20
-4.07182
11
3.91712
21
-4.05799
0
LINE
8
BLACK
6
CONTINUOUS
10
3.91712
20
-4.05799
11
3.92518
21
-4.04489
0
LINE
8
BLACK
6
CONTINUOUS
10
3.92518
20
-4.04489
11
3.93448
21
-4.03263
0
LINE
8
BLACK
6
CONTINUOUS
10
3.93448
20
-4.03263
11
3.94493
21
-4.02134
0
LINE
8
BLACK
6
CONTINUOUS
10
3.94493
20
-4.02134
11
3.95644
21
-4.01113
0
LINE
8
BLACK
6
CONTINUOUS
10
3.95644
20
-4.01113
11
3.96889
21
-4.00208
0
LINE
8
BLACK
6
CONTINUOUS
10
3.96889
20
-4.00208
11
3.98216
21
-3.9943
0
LINE
8
BLACK
6
CONTINUOUS
10
3.98216
20
-3.9943
11
3.99612
21
-3.98785
0
LINE
8
BLACK
6
CONTINUOUS
10
3.99612
20
-3.98785
11
4.01065
21
-3.98279
0
LINE
8
BLACK
6
CONTINUOUS
10
4.01065
20
-3.98279
11
4.02561
21
-3.97917
0
LINE
8
BLACK
6
CONTINUOUS
10
4.02561
20
-3.97917
11
4.04085
21
-3.97703
0
LINE
8
BLACK
6
CONTINUOUS
10
4.04085
20
-3.97703
11
4.05622
21
-3.97638
0
LINE
8
BLACK
6
CONTINUOUS
10
4.05622
20
-3.97638
11
4.07158
21
-3.97724
0
LINE
8
BLACK
6
CONTINUOUS
10
0.213312
20
-3.97724
11
0.228516
21
-3.97959
0
LINE
8
BLACK
6
CONTINUOUS
10
0.228516
20
-3.97959
11
0.243419
21
-3.98342
0
LINE
8
BLACK
6
CONTINUOUS
10
0.243419
20
-3.98342
11
0.257876
21
-3.98868
0
LINE
8
BLACK
6
CONTINUOUS
10
0.257876
20
-3.98868
11
0.271752
21
-3.99533
0
LINE
8
BLACK
6
CONTINUOUS
10
0.271752
20
-3.99533
11
0.284912
21
-4.0033
0
LINE
8
BLACK
6
CONTINUOUS
10
0.284912
20
-4.0033
11
0.297232
21
-4.01252
0
LINE
8
BLACK
6
CONTINUOUS
10
0.297232
20
-4.01252
11
0.308594
21
-4.02289
0
LINE
8
BLACK
6
CONTINUOUS
10
0.308594
20
-4.02289
11
0.318889
21
-4.03433
0
LINE
8
BLACK
6
CONTINUOUS
10
0.318889
20
-4.03433
11
0.328019
21
-4.04671
0
LINE
8
BLACK
6
CONTINUOUS
10
0.328019
20
-4.04671
11
0.335897
21
-4.05993
0
LINE
8
BLACK
6
CONTINUOUS
10
0.335897
20
-4.05993
11
0.342448
21
-4.07385
0
LINE
8
BLACK
6
CONTINUOUS
10
0.342448
20
-4.07385
11
0.347609
21
-4.08834
0
LINE
8
BLACK
6
CONTINUOUS
10
0.347609
20
-4.08834
11
0.351332
21
-4.10327
0
LINE
8
BLACK
6
CONTINUOUS
10
0.351332
20
-4.10327
11
0.353579
21
-4.11849
0
LINE
8
BLACK
6
CONTINUOUS
10
0.353579
20
-4.11849
11
0.354331
21
-4.13386
0
LINE
8
BLACK
6
CONTINUOUS
10
0.354331
20
-4.13386
11
0.354269
21
-4.13826
0
LINE
8
BLACK
6
CONTINUOUS
10
0.354269
20
-4.13826
11
0.353089
21
-4.1536
0
LINE
8
BLACK
6
CONTINUOUS
10
0.353089
20
-4.1536
11
0.350417
21
-4.16875
0
LINE
8
BLACK
6
CONTINUOUS
10
0.350417
20
-4.16875
11
0.34628
21
-4.18357
0
LINE
8
BLACK
6
CONTINUOUS
10
0.34628
20
-4.18357
11
0.340716
21
-4.19791
0
LINE
8
BLACK
6
CONTINUOUS
10
0.340716
20
-4.19791
11
0.333779
21
-4.21164
0
LINE
8
BLACK
6
CONTINUOUS
10
0.333779
20
-4.21164
11
0.325535
21
-4.22464
0
LINE
8
BLACK
6
CONTINUOUS
10
0.325535
20
-4.22464
11
0.316062
21
-4.23676
0
LINE
8
BLACK
6
CONTINUOUS
10
0.316062
20
-4.23676
11
0.305452
21
-4.2479
0
LINE
8
BLACK
6
CONTINUOUS
10
0.305452
20
-4.2479
11
0.293805
21
-4.25795
0
LINE
8
BLACK
6
CONTINUOUS
10
0.293805
20
-4.25795
11
0.281233
21
-4.26682
0
LINE
8
BLACK
6
CONTINUOUS
10
0.281233
20
-4.26682
11
0.267855
21
-4.27442
0
LINE
8
BLACK
6
CONTINUOUS
10
0.267855
20
-4.27442
11
0.253799
21
-4.28068
0
LINE
8
BLACK
6
CONTINUOUS
10
0.253799
20
-4.28068
11
0.2392
21
-4.28554
0
LINE
8
BLACK
6
CONTINUOUS
10
0.2392
20
-4.28554
11
0.224197
21
-4.28895
0
LINE
8
BLACK
6
CONTINUOUS
10
0.224197
20
-4.28895
11
0.208932
21
-4.29087
0
LINE
8
BLACK
6
CONTINUOUS
10
0.208932
20
-4.29087
11
0.193552
21
-4.2913
0
LINE
8
BLACK
6
CONTINUOUS
10
0.193552
20
-4.2913
11
0.178204
21
-4.29023
0
LINE
8
BLACK
6
CONTINUOUS
10
0.178204
20
-4.29023
11
0.163034
21
-4.28766
0
LINE
8
BLACK
6
CONTINUOUS
10
0.163034
20
-4.28766
11
0.148186
21
-4.28363
0
LINE
8
BLACK
6
CONTINUOUS
10
0.148186
20
-4.28363
11
0.133803
21
-4.27817
0
LINE
8
BLACK
6
CONTINUOUS
10
0.133803
20
-4.27817
11
0.120022
21
-4.27133
0
LINE
8
BLACK
6
CONTINUOUS
10
0.120022
20
-4.27133
11
0.106974
21
-4.26317
0
LINE
8
BLACK
6
CONTINUOUS
10
0.106974
20
-4.26317
11
0.0947843
21
-4.25379
0
LINE
8
BLACK
6
CONTINUOUS
10
0.0947843
20
-4.25379
11
0.0835685
21
-4.24325
0
LINE
8
BLACK
6
CONTINUOUS
10
0.0835685
20
-4.24325
11
0.0734341
21
-4.23168
0
LINE
8
BLACK
6
CONTINUOUS
10
0.0734341
20
-4.23168
11
0.0644777
21
-4.21917
0
LINE
8
BLACK
6
CONTINUOUS
10
0.0644777
20
-4.21917
11
0.0567848
21
-4.20584
0
LINE
8
BLACK
6
CONTINUOUS
10
0.0567848
20
-4.20584
11
0.0504289
21
-4.19183
0
LINE
8
BLACK
6
CONTINUOUS
10
0.0504289
20
-4.19183
11
0.0454706
21
-4.17727
0
LINE
8
BLACK
6
CONTINUOUS
10
0.0454706
20
-4.17727
11
0.0419572
21
-4.16229
0
LINE
8
BLACK
6
CONTINUOUS
10
0.0419572
20
-4.16229
11
0.0399224
21
-4.14704
0
LINE
8
BLACK
6
CONTINUOUS
10
0.0399224
20
-4.14704
11
0.0393854
21
-4.13166
0
LINE
8
BLACK
6
CONTINUOUS
10
0.0393854
20
-4.13166
11
0.0403515
21
-4.1163
0
LINE
8
BLACK
6
CONTINUOUS
10
0.0403515
20
-4.1163
11
0.0428114
21
-4.10112
0
LINE
8
BLACK
6
CONTINUOUS
10
0.0428114
20
-4.10112
11
0.0467416
21
-4.08624
0
LINE
8
BLACK
6
CONTINUOUS
10
0.0467416
20
-4.08624
11
0.0521047
21
-4.07182
0
LINE
8
BLACK
6
CONTINUOUS
10
0.0521047
20
-4.07182
11
0.0588493
21
-4.05799
0
LINE
8
BLACK
6
CONTINUOUS
10
0.0588493
20
-4.05799
11
0.0669113
21
-4.04489
0
LINE
8
BLACK
6
CONTINUOUS
10
0.0669113
20
-4.04489
11
0.0762135
21
-4.03263
0
LINE
8
BLACK
6
CONTINUOUS
10
0.0762135
20
-4.03263
11
0.0866672
21
-4.02134
0
LINE
8
BLACK
6
CONTINUOUS
10
0.0866672
20
-4.02134
11
0.0981726
21
-4.01113
0
LINE
8
BLACK
6
CONTINUOUS
10
0.0981726
20
-4.01113
11
0.11062
21
-4.00208
0
LINE
8
BLACK
6
CONTINUOUS
10
0.11062
20
-4.00208
11
0.12389
21
-3.9943
0
LINE
8
BLACK
6
CONTINUOUS
10
0.12389
20
-3.9943
11
0.137857
21
-3.98785
0
LINE
8
BLACK
6
CONTINUOUS
10
0.137857
20
-3.98785
11
0.152387
21
-3.98279
0
LINE
8
BLACK
6
CONTINUOUS
10
0.152387
20
-3.98279
11
0.167342
21
-3.97917
0
LINE
8
BLACK
6
CONTINUOUS
10
0.167342
20
-3.97917
11
0.182578
21
-3.97703
0
LINE
8
BLACK
6
CONTINUOUS
10
0.182578
20
-3.97703
11
0.19795
21
-3.97638
0
LINE
8
BLACK
6
CONTINUOUS
10
0.19795
20
-3.97638
11
0.213312
21
-3.97724
0
LINE
8
BLACK
6
CONTINUOUS
10
0.476483
20
-4.18176
11
0.482874
21
-4.1846
0
LINE
8
BLACK
6
CONTINUOUS
10
0.482874
20
-4.1846
11
0.488534
21
-4.18871
0
LINE
8
BLACK
6
CONTINUOUS
10
0.488534
20
-4.18871
11
0.493215
21
-4.19391
0
LINE
8
BLACK
6
CONTINUOUS
10
0.493215
20
-4.19391
11
0.496713
21
-4.19997
0
LINE
8
BLACK
6
CONTINUOUS
10
0.496713
20
-4.19997
11
0.498875
21
-4.20662
0
LINE
8
BLACK
6
CONTINUOUS
10
0.498875
20
-4.20662
11
0.499606
21
-4.21358
0
LINE
8
BLACK
6
CONTINUOUS
10
0.499606
20
-4.21358
11
0.498875
21
-4.22054
0
LINE
8
BLACK
6
CONTINUOUS
10
0.498875
20
-4.22054
11
0.496713
21
-4.22719
0
LINE
8
BLACK
6
CONTINUOUS
10
0.496713
20
-4.22719
11
0.493215
21
-4.23325
0
LINE
8
BLACK
6
CONTINUOUS
10
0.493215
20
-4.23325
11
0.488534
21
-4.23845
0
LINE
8
BLACK
6
CONTINUOUS
10
0.488534
20
-4.23845
11
0.482874
21
-4.24256
0
LINE
8
BLACK
6
CONTINUOUS
10
0.482874
20
-4.24256
11
0.476483
21
-4.24541
0
LINE
8
BLACK
6
CONTINUOUS
10
0.476483
20
-4.24541
11
0.46964
21
-4.24686
0
LINE
8
BLACK
6
CONTINUOUS
10
0.46964
20
-4.24686
11
0.462644
21
-4.24686
0
LINE
8
BLACK
6
CONTINUOUS
10
0.462644
20
-4.24686
11
0.455801
21
-4.24541
0
LINE
8
BLACK
6
CONTINUOUS
10
0.455801
20
-4.24541
11
0.449409
21
-4.24256
0
LINE
8
BLACK
6
CONTINUOUS
10
0.449409
20
-4.24256
11
0.44375
21
-4.23845
0
LINE
8
BLACK
6
CONTINUOUS
10
0.44375
20
-4.23845
11
0.439068
21
-4.23325
0
LINE
8
BLACK
6
CONTINUOUS
10
0.439068
20
-4.23325
11
0.43557
21
-4.22719
0
LINE
8
BLACK
6
CONTINUOUS
10
0.43557
20
-4.22719
11
0.433408
21
-4.22054
0
LINE
8
BLACK
6
CONTINUOUS
10
0.433408
20
-4.22054
11
0.432677
21
-4.21358
0
LINE
8
BLACK
6
CONTINUOUS
10
0.432677
20
-4.21358
11
0.433408
21
-4.20662
0
LINE
8
BLACK
6
CONTINUOUS
10
0.433408
20
-4.20662
11
0.43557
21
-4.19997
0
LINE
8
BLACK
6
CONTINUOUS
10
0.43557
20
-4.19997
11
0.439068
21
-4.19391
0
LINE
8
BLACK
6
CONTINUOUS
10
0.439068
20
-4.19391
11
0.44375
21
-4.18871
0
LINE
8
BLACK
6
CONTINUOUS
10
0.44375
20
-4.18871
11
0.449409
21
-4.1846
0
LINE
8
BLACK
6
CONTINUOUS
10
0.449409
20
-4.1846
11
0.455801
21
-4.18176
0
LINE
8
BLACK
6
CONTINUOUS
10
0.455801
20
-4.18176
11
0.462644
21
-4.1803
0
LINE
8
BLACK
6
CONTINUOUS
10
0.462644
20
-4.1803
11
0.46964
21
-4.1803
0
LINE
8
BLACK
6
CONTINUOUS
10
0.46964
20
-4.1803
11
0.476483
21
-4.18176
0
LINE
8
BLACK
6
CONTINUOUS
10
0.94189
20
-4.16567
11
0.948191
21
-4.16792
0
LINE
8
BLACK
6
CONTINUOUS
10
0.948191
20
-4.16792
11
0.953837
21
-4.1715
0
LINE
8
BLACK
6
CONTINUOUS
10
0.953837
20
-4.1715
11
0.95855
21
-4.17625
0
LINE
8
BLACK
6
CONTINUOUS
10
0.95855
20
-4.17625
11
0.962094
21
-4.18192
0
LINE
8
BLACK
6
CONTINUOUS
10
0.962094
20
-4.18192
11
0.964294
21
-4.18824
0
LINE
8
BLACK
6
CONTINUOUS
10
0.964294
20
-4.18824
11
0.965039
21
-4.19488
0
LINE
8
BLACK
6
CONTINUOUS
10
0.965039
20
-4.19488
11
0.965028
21
-4.19572
0
LINE
8
BLACK
6
CONTINUOUS
10
0.965028
20
-4.19572
11
0.964097
21
-4.20234
0
LINE
8
BLACK
6
CONTINUOUS
10
0.964097
20
-4.20234
11
0.961722
21
-4.20859
0
LINE
8
BLACK
6
CONTINUOUS
10
0.961722
20
-4.20859
11
0.958021
21
-4.21417
0
LINE
8
BLACK
6
CONTINUOUS
10
0.958021
20
-4.21417
11
0.953177
21
-4.21878
0
LINE
8
BLACK
6
CONTINUOUS
10
0.953177
20
-4.21878
11
0.947433
21
-4.2222
0
LINE
8
BLACK
6
CONTINUOUS
10
0.947433
20
-4.2222
11
0.941072
21
-4.22427
0
LINE
8
BLACK
6
CONTINUOUS
10
0.941072
20
-4.22427
11
0.934411
21
-4.22488
0
LINE
8
BLACK
6
CONTINUOUS
10
0.934411
20
-4.22488
11
0.927782
21
-4.22399
0
LINE
8
BLACK
6
CONTINUOUS
10
0.927782
20
-4.22399
11
0.921513
21
-4.22166
0
LINE
8
BLACK
6
CONTINUOUS
10
0.921513
20
-4.22166
11
0.915917
21
-4.218
0
LINE
8
BLACK
6
CONTINUOUS
10
0.915917
20
-4.218
11
0.911271
21
-4.21319
0
LINE
8
BLACK
6
CONTINUOUS
10
0.911271
20
-4.21319
11
0.907806
21
-4.20747
0
LINE
8
BLACK
6
CONTINUOUS
10
0.907806
20
-4.20747
11
0.905695
21
-4.20112
0
LINE
8
BLACK
6
CONTINUOUS
10
0.905695
20
-4.20112
11
0.905042
21
-4.19446
0
LINE
8
BLACK
6
CONTINUOUS
10
0.905042
20
-4.19446
11
0.905881
21
-4.18783
0
LINE
8
BLACK
6
CONTINUOUS
10
0.905881
20
-4.18783
11
0.908168
21
-4.18154
0
LINE
8
BLACK
6
CONTINUOUS
10
0.908168
20
-4.18154
11
0.911791
21
-4.17592
0
LINE
8
BLACK
6
CONTINUOUS
10
0.911791
20
-4.17592
11
0.91657
21
-4.17124
0
LINE
8
BLACK
6
CONTINUOUS
10
0.91657
20
-4.17124
11
0.922266
21
-4.16774
0
LINE
8
BLACK
6
CONTINUOUS
10
0.922266
20
-4.16774
11
0.928597
21
-4.16558
0
LINE
8
BLACK
6
CONTINUOUS
10
0.928597
20
-4.16558
11
0.935249
21
-4.16488
0
LINE
8
BLACK
6
CONTINUOUS
10
0.935249
20
-4.16488
11
0.94189
21
-4.16567
0
LINE
8
BLACK
6
CONTINUOUS
10
1.11906
20
-4.16567
11
1.12536
21
-4.16792
0
LINE
8
BLACK
6
CONTINUOUS
10
1.12536
20
-4.16792
11
1.131
21
-4.1715
0
LINE
8
BLACK
6
CONTINUOUS
10
1.131
20
-4.1715
11
1.13572
21
-4.17625
0
LINE
8
BLACK
6
CONTINUOUS
10
1.13572
20
-4.17625
11
1.13926
21
-4.18192
0
LINE
8
BLACK
6
CONTINUOUS
10
1.13926
20
-4.18192
11
1.14146
21
-4.18824
0
LINE
8
BLACK
6
CONTINUOUS
10
1.14146
20
-4.18824
11
1.1422
21
-4.19488
0
LINE
8
BLACK
6
CONTINUOUS
10
1.1422
20
-4.19488
11
1.14219
21
-4.19572
0
LINE
8
BLACK
6
CONTINUOUS
10
1.14219
20
-4.19572
11
1.14126
21
-4.20234
0
LINE
8
BLACK
6
CONTINUOUS
10
1.14126
20
-4.20234
11
1.13889
21
-4.20859
0
LINE
8
BLACK
6
CONTINUOUS
10
1.13889
20
-4.20859
11
1.13519
21
-4.21417
0
LINE
8
BLACK
6
CONTINUOUS
10
1.13519
20
-4.21417
11
1.13034
21
-4.21878
0
LINE
8
BLACK
6
CONTINUOUS
10
1.13034
20
-4.21878
11
1.1246
21
-4.2222
0
LINE
8
BLACK
6
CONTINUOUS
10
1.1246
20
-4.2222
11
1.11824
21
-4.22427
0
LINE
8
BLACK
6
CONTINUOUS
10
1.11824
20
-4.22427
11
1.11158
21
-4.22488
0
LINE
8
BLACK
6
CONTINUOUS
10
1.11158
20
-4.22488
11
1.10495
21
-4.22399
0
LINE
8
BLACK
6
CONTINUOUS
10
1.10495
20
-4.22399
11
1.09868
21
-4.22166
0
LINE
8
BLACK
6
CONTINUOUS
10
1.09868
20
-4.22166
11
1.09308
21
-4.218
0
LINE
8
BLACK
6
CONTINUOUS
10
1.09308
20
-4.218
11
1.08844
21
-4.21319
0
LINE
8
BLACK
6
CONTINUOUS
10
1.08844
20
-4.21319
11
1.08497
21
-4.20747
0
LINE
8
BLACK
6
CONTINUOUS
10
1.08497
20
-4.20747
11
1.08286
21
-4.20112
0
LINE
8
BLACK
6
CONTINUOUS
10
1.08286
20
-4.20112
11
1.08221
21
-4.19446
0
LINE
8
BLACK
6
CONTINUOUS
10
1.08221
20
-4.19446
11
1.08305
21
-4.18783
0
LINE
8
BLACK
6
CONTINUOUS
10
1.08305
20
-4.18783
11
1.08533
21
-4.18154
0
LINE
8
BLACK
6
CONTINUOUS
10
1.08533
20
-4.18154
11
1.08896
21
-4.17592
0
LINE
8
BLACK
6
CONTINUOUS
10
1.08896
20
-4.17592
11
1.09373
21
-4.17124
0
LINE
8
BLACK
6
CONTINUOUS
10
1.09373
20
-4.17124
11
1.09943
21
-4.16774
0
LINE
8
BLACK
6
CONTINUOUS
10
1.09943
20
-4.16774
11
1.10576
21
-4.16558
0
LINE
8
BLACK
6
CONTINUOUS
10
1.10576
20
-4.16558
11
1.11241
21
-4.16488
0
LINE
8
BLACK
6
CONTINUOUS
10
1.11241
20
-4.16488
11
1.11906
21
-4.16567
0
LINE
8
BLACK
6
CONTINUOUS
10
2.80235
20
-4.14305
11
2.80887
21
-4.14537
0
LINE
8
BLACK
6
CONTINUOUS
10
2.80887
20
-4.14537
11
2.8147
21
-4.14907
0
LINE
8
BLACK
6
CONTINUOUS
10
2.8147
20
-4.14907
11
2.81957
21
-4.15397
0
LINE
8
BLACK
6
CONTINUOUS
10
2.81957
20
-4.15397
11
2.82323
21
-4.15983
0
LINE
8
BLACK
6
CONTINUOUS
10
2.82323
20
-4.15983
11
2.82551
21
-4.16636
0
LINE
8
BLACK
6
CONTINUOUS
10
2.82551
20
-4.16636
11
2.82628
21
-4.17323
0
LINE
8
BLACK
6
CONTINUOUS
10
2.82628
20
-4.17323
11
2.82626
21
-4.17409
0
LINE
8
BLACK
6
CONTINUOUS
10
2.82626
20
-4.17409
11
2.8253
21
-4.18094
0
LINE
8
BLACK
6
CONTINUOUS
10
2.8253
20
-4.18094
11
2.82285
21
-4.1874
0
LINE
8
BLACK
6
CONTINUOUS
10
2.82285
20
-4.1874
11
2.81902
21
-4.19315
0
LINE
8
BLACK
6
CONTINUOUS
10
2.81902
20
-4.19315
11
2.81402
21
-4.19792
0
LINE
8
BLACK
6
CONTINUOUS
10
2.81402
20
-4.19792
11
2.80808
21
-4.20146
0
LINE
8
BLACK
6
CONTINUOUS
10
2.80808
20
-4.20146
11
2.80151
21
-4.2036
0
LINE
8
BLACK
6
CONTINUOUS
10
2.80151
20
-4.2036
11
2.79463
21
-4.20422
0
LINE
8
BLACK
6
CONTINUOUS
10
2.79463
20
-4.20422
11
2.78778
21
-4.20331
0
LINE
8
BLACK
6
CONTINUOUS
10
2.78778
20
-4.20331
11
2.7813
21
-4.2009
0
LINE
8
BLACK
6
CONTINUOUS
10
2.7813
20
-4.2009
11
2.77552
21
-4.19711
0
LINE
8
BLACK
6
CONTINUOUS
10
2.77552
20
-4.19711
11
2.77071
21
-4.19214
0
LINE
8
BLACK
6
CONTINUOUS
10
2.77071
20
-4.19214
11
2.76713
21
-4.18623
0
LINE
8
BLACK
6
CONTINUOUS
10
2.76713
20
-4.18623
11
2.76495
21
-4.17967
0
LINE
8
BLACK
6
CONTINUOUS
10
2.76495
20
-4.17967
11
2.76428
21
-4.1728
0
LINE
8
BLACK
6
CONTINUOUS
10
2.76428
20
-4.1728
11
2.76514
21
-4.16594
0
LINE
8
BLACK
6
CONTINUOUS
10
2.76514
20
-4.16594
11
2.76751
21
-4.15944
0
LINE
8
BLACK
6
CONTINUOUS
10
2.76751
20
-4.15944
11
2.77125
21
-4.15364
0
LINE
8
BLACK
6
CONTINUOUS
10
2.77125
20
-4.15364
11
2.77619
21
-4.1488
0
LINE
8
BLACK
6
CONTINUOUS
10
2.77619
20
-4.1488
11
2.78208
21
-4.14518
0
LINE
8
BLACK
6
CONTINUOUS
10
2.78208
20
-4.14518
11
2.78862
21
-4.14295
0
LINE
8
BLACK
6
CONTINUOUS
10
2.78862
20
-4.14295
11
2.79549
21
-4.14223
0
LINE
8
BLACK
6
CONTINUOUS
10
2.79549
20
-4.14223
11
2.80235
21
-4.14305
0
LINE
8
BLACK
6
CONTINUOUS
10
1.68835
20
-4.16619
11
1.6922
21
-4.16841
0
LINE
8
BLACK
6
CONTINUOUS
10
1.6922
20
-4.16841
11
1.69506
21
-4.17181
0
LINE
8
BLACK
6
CONTINUOUS
10
1.69506
20
-4.17181
11
1.69658
21
-4.17599
0
LINE
8
BLACK
6
CONTINUOUS
10
1.69658
20
-4.17599
11
1.69658
21
-4.18043
0
LINE
8
BLACK
6
CONTINUOUS
10
1.69658
20
-4.18043
11
1.69506
21
-4.18461
0
LINE
8
BLACK
6
CONTINUOUS
10
1.69506
20
-4.18461
11
1.6922
21
-4.18801
0
LINE
8
BLACK
6
CONTINUOUS
10
1.6922
20
-4.18801
11
1.68835
21
-4.19023
0
LINE
8
BLACK
6
CONTINUOUS
10
1.68835
20
-4.19023
11
1.68398
21
-4.191
0
LINE
8
BLACK
6
CONTINUOUS
10
1.68398
20
-4.191
11
1.65839
21
-4.191
0
LINE
8
BLACK
6
CONTINUOUS
10
1.65839
20
-4.191
11
1.65401
21
-4.19023
0
LINE
8
BLACK
6
CONTINUOUS
10
1.65401
20
-4.19023
11
1.65016
21
-4.18801
0
LINE
8
BLACK
6
CONTINUOUS
10
1.65016
20
-4.18801
11
1.6473
21
-4.18461
0
LINE
8
BLACK
6
CONTINUOUS
10
1.6473
20
-4.18461
11
1.64579
21
-4.18043
0
LINE
8
BLACK
6
CONTINUOUS
10
1.64579
20
-4.18043
11
1.64579
21
-4.17599
0
LINE
8
BLACK
6
CONTINUOUS
10
1.64579
20
-4.17599
11
1.6473
21
-4.17181
0
LINE
8
BLACK
6
CONTINUOUS
10
1.6473
20
-4.17181
11
1.65016
21
-4.16841
0
LINE
8
BLACK
6
CONTINUOUS
10
1.65016
20
-4.16841
11
1.65401
21
-4.16619
0
LINE
8
BLACK
6
CONTINUOUS
10
1.65401
20
-4.16619
11
1.65839
21
-4.16541
0
LINE
8
BLACK
6
CONTINUOUS
10
1.65839
20
-4.16541
11
1.68398
21
-4.16541
0
LINE
8
BLACK
6
CONTINUOUS
10
1.68398
20
-4.16541
11
1.68835
21
-4.16619
0
LINE
8
BLACK
6
CONTINUOUS
10
1.4915
20
-4.16619
11
1.49535
21
-4.16841
0
LINE
8
BLACK
6
CONTINUOUS
10
1.49535
20
-4.16841
11
1.49821
21
-4.17181
0
LINE
8
BLACK
6
CONTINUOUS
10
1.49821
20
-4.17181
11
1.49973
21
-4.17599
0
LINE
8
BLACK
6
CONTINUOUS
10
1.49973
20
-4.17599
11
1.49973
21
-4.18043
0
LINE
8
BLACK
6
CONTINUOUS
10
1.49973
20
-4.18043
11
1.49821
21
-4.18461
0
LINE
8
BLACK
6
CONTINUOUS
10
1.49821
20
-4.18461
11
1.49535
21
-4.18801
0
LINE
8
BLACK
6
CONTINUOUS
10
1.49535
20
-4.18801
11
1.4915
21
-4.19023
0
LINE
8
BLACK
6
CONTINUOUS
10
1.4915
20
-4.19023
11
1.48713
21
-4.191
0
LINE
8
BLACK
6
CONTINUOUS
10
1.48713
20
-4.191
11
1.46154
21
-4.191
0
LINE
8
BLACK
6
CONTINUOUS
10
1.46154
20
-4.191
11
1.45716
21
-4.19023
0
LINE
8
BLACK
6
CONTINUOUS
10
1.45716
20
-4.19023
11
1.45331
21
-4.18801
0
LINE
8
BLACK
6
CONTINUOUS
10
1.45331
20
-4.18801
11
1.45045
21
-4.18461
0
LINE
8
BLACK
6
CONTINUOUS
10
1.45045
20
-4.18461
11
1.44893
21
-4.18043
0
LINE
8
BLACK
6
CONTINUOUS
10
1.44893
20
-4.18043
11
1.44893
21
-4.17599
0
LINE
8
BLACK
6
CONTINUOUS
10
1.44893
20
-4.17599
11
1.45045
21
-4.17181
0
LINE
8
BLACK
6
CONTINUOUS
10
1.45045
20
-4.17181
11
1.45331
21
-4.16841
0
LINE
8
BLACK
6
CONTINUOUS
10
1.45331
20
-4.16841
11
1.45716
21
-4.16619
0
LINE
8
BLACK
6
CONTINUOUS
10
1.45716
20
-4.16619
11
1.46154
21
-4.16541
0
LINE
8
BLACK
6
CONTINUOUS
10
1.46154
20
-4.16541
11
1.48713
21
-4.16541
0
LINE
8
BLACK
6
CONTINUOUS
10
1.48713
20
-4.16541
11
1.4915
21
-4.16619
0
LINE
8
BLACK
6
CONTINUOUS
10
3.2737
20
-4.04116
11
3.2802
21
-4.04332
0
LINE
8
BLACK
6
CONTINUOUS
10
3.2802
20
-4.04332
11
3.28602
21
-4.04691
0
LINE
8
BLACK
6
CONTINUOUS
10
3.28602
20
-4.04691
11
3.29086
21
-4.05174
0
LINE
8
BLACK
6
CONTINUOUS
10
3.29086
20
-4.05174
11
3.29446
21
-4.05755
0
LINE
8
BLACK
6
CONTINUOUS
10
3.29446
20
-4.05755
11
3.29662
21
-4.06404
0
LINE
8
BLACK
6
CONTINUOUS
10
3.29662
20
-4.06404
11
3.29724
21
-4.07008
0
LINE
8
BLACK
6
CONTINUOUS
10
3.29724
20
-4.07008
11
3.29724
21
-4.12913
0
LINE
8
BLACK
6
CONTINUOUS
10
3.29724
20
-4.12913
11
3.29663
21
-4.13512
0
LINE
8
BLACK
6
CONTINUOUS
10
3.29663
20
-4.13512
11
3.29448
21
-4.14161
0
LINE
8
BLACK
6
CONTINUOUS
10
3.29448
20
-4.14161
11
3.29089
21
-4.14743
0
LINE
8
BLACK
6
CONTINUOUS
10
3.29089
20
-4.14743
11
3.28606
21
-4.15227
0
LINE
8
BLACK
6
CONTINUOUS
10
3.28606
20
-4.15227
11
3.28024
21
-4.15587
0
LINE
8
BLACK
6
CONTINUOUS
10
3.28024
20
-4.15587
11
3.27375
21
-4.15804
0
LINE
8
BLACK
6
CONTINUOUS
10
3.27375
20
-4.15804
11
3.26772
21
-4.15866
0
LINE
8
BLACK
6
CONTINUOUS
10
3.26772
20
-4.15866
11
3.18898
21
-4.15866
0
LINE
8
BLACK
6
CONTINUOUS
10
3.18898
20
-4.15866
11
3.18299
21
-4.15805
0
LINE
8
BLACK
6
CONTINUOUS
10
3.18299
20
-4.15805
11
3.1765
21
-4.15589
0
LINE
8
BLACK
6
CONTINUOUS
10
3.1765
20
-4.15589
11
3.17068
21
-4.15231
0
LINE
8
BLACK
6
CONTINUOUS
10
3.17068
20
-4.15231
11
3.16584
21
-4.14747
0
LINE
8
BLACK
6
CONTINUOUS
10
3.16584
20
-4.14747
11
3.16224
21
-4.14166
0
LINE
8
BLACK
6
CONTINUOUS
10
3.16224
20
-4.14166
11
3.16007
21
-4.13517
0
LINE
8
BLACK
6
CONTINUOUS
10
3.16007
20
-4.13517
11
3.15945
21
-4.12913
0
LINE
8
BLACK
6
CONTINUOUS
10
3.15945
20
-4.12913
11
3.15945
21
-4.07008
0
LINE
8
BLACK
6
CONTINUOUS
10
3.15945
20
-4.07008
11
3.16006
21
-4.06409
0
LINE
8
BLACK
6
CONTINUOUS
10
3.16006
20
-4.06409
11
3.16222
21
-4.0576
0
LINE
8
BLACK
6
CONTINUOUS
10
3.16222
20
-4.0576
11
3.1658
21
-4.05178
0
LINE
8
BLACK
6
CONTINUOUS
10
3.1658
20
-4.05178
11
3.17064
21
-4.04694
0
LINE
8
BLACK
6
CONTINUOUS
10
3.17064
20
-4.04694
11
3.17645
21
-4.04334
0
LINE
8
BLACK
6
CONTINUOUS
10
3.17645
20
-4.04334
11
3.18294
21
-4.04118
0
LINE
8
BLACK
6
CONTINUOUS
10
3.18294
20
-4.04118
11
3.18898
21
-4.04055
0
LINE
8
BLACK
6
CONTINUOUS
10
3.18898
20
-4.04055
11
3.26772
21
-4.04055
0
LINE
8
BLACK
6
CONTINUOUS
10
3.26772
20
-4.04055
11
3.2737
21
-4.04116
0
LINE
8
BLACK
6
CONTINUOUS
10
1.92809
20
-4.06143
11
1.93644
21
-4.06309
0
LINE
8
BLACK
6
CONTINUOUS
10
1.93644
20
-4.06309
11
1.94434
21
-4.06624
0
LINE
8
BLACK
6
CONTINUOUS
10
1.94434
20
-4.06624
11
1.95154
21
-4.07078
0
LINE
8
BLACK
6
CONTINUOUS
10
1.95154
20
-4.07078
11
1.95779
21
-4.07656
0
LINE
8
BLACK
6
CONTINUOUS
10
1.95779
20
-4.07656
11
1.96288
21
-4.08338
0
LINE
8
BLACK
6
CONTINUOUS
10
1.96288
20
-4.08338
11
1.96665
21
-4.09101
0
LINE
8
BLACK
6
CONTINUOUS
10
1.96665
20
-4.09101
11
1.96896
21
-4.0992
0
LINE
8
BLACK
6
CONTINUOUS
10
1.96896
20
-4.0992
11
1.96973
21
-4.10768
0
LINE
8
BLACK
6
CONTINUOUS
10
1.96973
20
-4.10768
11
1.96967
21
-4.11011
0
LINE
8
BLACK
6
CONTINUOUS
10
1.96967
20
-4.11011
11
1.96845
21
-4.11853
0
LINE
8
BLACK
6
CONTINUOUS
10
1.96845
20
-4.11853
11
1.96571
21
-4.12659
0
LINE
8
BLACK
6
CONTINUOUS
10
1.96571
20
-4.12659
11
1.96156
21
-4.13402
0
LINE
8
BLACK
6
CONTINUOUS
10
1.96156
20
-4.13402
11
1.95611
21
-4.14056
0
LINE
8
BLACK
6
CONTINUOUS
10
1.95611
20
-4.14056
11
1.94957
21
-4.146
0
LINE
8
BLACK
6
CONTINUOUS
10
1.94957
20
-4.146
11
1.94214
21
-4.15016
0
LINE
8
BLACK
6
CONTINUOUS
10
1.94214
20
-4.15016
11
1.93408
21
-4.1529
0
LINE
8
BLACK
6
CONTINUOUS
10
1.93408
20
-4.1529
11
1.92566
21
-4.15412
0
LINE
8
BLACK
6
CONTINUOUS
10
1.92566
20
-4.15412
11
1.91716
21
-4.15379
0
LINE
8
BLACK
6
CONTINUOUS
10
1.91716
20
-4.15379
11
1.90886
21
-4.15191
0
LINE
8
BLACK
6
CONTINUOUS
10
1.90886
20
-4.15191
11
1.90104
21
-4.14855
0
LINE
8
BLACK
6
CONTINUOUS
10
1.90104
20
-4.14855
11
1.89396
21
-4.14382
0
LINE
8
BLACK
6
CONTINUOUS
10
1.89396
20
-4.14382
11
1.88786
21
-4.13788
0
LINE
8
BLACK
6
CONTINUOUS
10
1.88786
20
-4.13788
11
1.88295
21
-4.13093
0
LINE
8
BLACK
6
CONTINUOUS
10
1.88295
20
-4.13093
11
1.87939
21
-4.1232
0
LINE
8
BLACK
6
CONTINUOUS
10
1.87939
20
-4.1232
11
1.87729
21
-4.11495
0
LINE
8
BLACK
6
CONTINUOUS
10
1.87729
20
-4.11495
11
1.87674
21
-4.10646
0
LINE
8
BLACK
6
CONTINUOUS
10
1.87674
20
-4.10646
11
1.87774
21
-4.09801
0
LINE
8
BLACK
6
CONTINUOUS
10
1.87774
20
-4.09801
11
1.88026
21
-4.08988
0
LINE
8
BLACK
6
CONTINUOUS
10
1.88026
20
-4.08988
11
1.88423
21
-4.08235
0
LINE
8
BLACK
6
CONTINUOUS
10
1.88423
20
-4.08235
11
1.88949
21
-4.07566
0
LINE
8
BLACK
6
CONTINUOUS
10
1.88949
20
-4.07566
11
1.89589
21
-4.07005
0
LINE
8
BLACK
6
CONTINUOUS
10
1.89589
20
-4.07005
11
1.90321
21
-4.0657
0
LINE
8
BLACK
6
CONTINUOUS
10
1.90321
20
-4.0657
11
1.91119
21
-4.06276
0
LINE
8
BLACK
6
CONTINUOUS
10
1.91119
20
-4.06276
11
1.91958
21
-4.06131
0
LINE
8
BLACK
6
CONTINUOUS
10
1.91958
20
-4.06131
11
1.92809
21
-4.06143
0
LINE
8
BLACK
6
CONTINUOUS
10
2.56313
20
-4.06143
11
2.57148
21
-4.06309
0
LINE
8
BLACK
6
CONTINUOUS
10
2.57148
20
-4.06309
11
2.57938
21
-4.06624
0
LINE
8
BLACK
6
CONTINUOUS
10
2.57938
20
-4.06624
11
2.58658
21
-4.07078
0
LINE
8
BLACK
6
CONTINUOUS
10
2.58658
20
-4.07078
11
2.59283
21
-4.07656
0
LINE
8
BLACK
6
CONTINUOUS
10
2.59283
20
-4.07656
11
2.59792
21
-4.08338
0
LINE
8
BLACK
6
CONTINUOUS
10
2.59792
20
-4.08338
11
2.60168
21
-4.09101
0
LINE
8
BLACK
6
CONTINUOUS
10
2.60168
20
-4.09101
11
2.60399
21
-4.0992
0
LINE
8
BLACK
6
CONTINUOUS
10
2.60399
20
-4.0992
11
2.60477
21
-4.10768
0
LINE
8
BLACK
6
CONTINUOUS
10
2.60477
20
-4.10768
11
2.60471
21
-4.11011
0
LINE
8
BLACK
6
CONTINUOUS
10
2.60471
20
-4.11011
11
2.60349
21
-4.11853
0
LINE
8
BLACK
6
CONTINUOUS
10
2.60349
20
-4.11853
11
2.60075
21
-4.12659
0
LINE
8
BLACK
6
CONTINUOUS
10
2.60075
20
-4.12659
11
2.59659
21
-4.13402
0
LINE
8
BLACK
6
CONTINUOUS
10
2.59659
20
-4.13402
11
2.59115
21
-4.14056
0
LINE
8
BLACK
6
CONTINUOUS
10
2.59115
20
-4.14056
11
2.58461
21
-4.146
0
LINE
8
BLACK
6
CONTINUOUS
10
2.58461
20
-4.146
11
2.57718
21
-4.15016
0
LINE
8
BLACK
6
CONTINUOUS
10
2.57718
20
-4.15016
11
2.56912
21
-4.1529
0
LINE
8
BLACK
6
CONTINUOUS
10
2.56912
20
-4.1529
11
2.5607
21
-4.15412
0
LINE
8
BLACK
6
CONTINUOUS
10
2.5607
20
-4.15412
11
2.5522
21
-4.15379
0
LINE
8
BLACK
6
CONTINUOUS
10
2.5522
20
-4.15379
11
2.5439
21
-4.15191
0
LINE
8
BLACK
6
CONTINUOUS
10
2.5439
20
-4.15191
11
2.53608
21
-4.14855
0
LINE
8
BLACK
6
CONTINUOUS
10
2.53608
20
-4.14855
11
2.529
21
-4.14382
0
LINE
8
BLACK
6
CONTINUOUS
10
2.529
20
-4.14382
11
2.5229
21
-4.13788
0
LINE
8
BLACK
6
CONTINUOUS
10
2.5229
20
-4.13788
11
2.51799
21
-4.13093
0
LINE
8
BLACK
6
CONTINUOUS
10
2.51799
20
-4.13093
11
2.51443
21
-4.1232
0
LINE
8
BLACK
6
CONTINUOUS
10
2.51443
20
-4.1232
11
2.51233
21
-4.11495
0
LINE
8
BLACK
6
CONTINUOUS
10
2.51233
20
-4.11495
11
2.51178
21
-4.10646
0
LINE
8
BLACK
6
CONTINUOUS
10
2.51178
20
-4.10646
11
2.51278
21
-4.09801
0
LINE
8
BLACK
6
CONTINUOUS
10
2.51278
20
-4.09801
11
2.5153
21
-4.08988
0
LINE
8
BLACK
6
CONTINUOUS
10
2.5153
20
-4.08988
11
2.51926
21
-4.08235
0
LINE
8
BLACK
6
CONTINUOUS
10
2.51926
20
-4.08235
11
2.52453
21
-4.07566
0
LINE
8
BLACK
6
CONTINUOUS
10
2.52453
20
-4.07566
11
2.53093
21
-4.07005
0
LINE
8
BLACK
6
CONTINUOUS
10
2.53093
20
-4.07005
11
2.53825
21
-4.0657
0
LINE
8
BLACK
6
CONTINUOUS
10
2.53825
20
-4.0657
11
2.54623
21
-4.06276
0
LINE
8
BLACK
6
CONTINUOUS
10
2.54623
20
-4.06276
11
2.55462
21
-4.06131
0
LINE
8
BLACK
6
CONTINUOUS
10
2.55462
20
-4.06131
11
2.56313
21
-4.06143
0
LINE
8
BLACK
6
CONTINUOUS
10
0.499606
20
-4.14705
11
0.432677
21
-4.14705
0
LINE
8
BLACK
6
CONTINUOUS
10
0.432677
20
-4.14705
11
0.432677
21
-4.08012
0
LINE
8
BLACK
6
CONTINUOUS
10
0.432677
20
-4.08012
11
0.499606
21
-4.08012
0
LINE
8
BLACK
6
CONTINUOUS
10
0.499606
20
-4.08012
11
0.499606
21
-4.14705
0
LINE
8
BLACK
6
CONTINUOUS
10
1.17176
20
-4.06463
11
1.17815
21
-4.06748
0
LINE
8
BLACK
6
CONTINUOUS
10
1.17815
20
-4.06748
11
1.18381
21
-4.07159
0
LINE
8
BLACK
6
CONTINUOUS
10
1.18381
20
-4.07159
11
1.18849
21
-4.07679
0
LINE
8
BLACK
6
CONTINUOUS
10
1.18849
20
-4.07679
11
1.19199
21
-4.08285
0
LINE
8
BLACK
6
CONTINUOUS
10
1.19199
20
-4.08285
11
1.19415
21
-4.0895
0
LINE
8
BLACK
6
CONTINUOUS
10
1.19415
20
-4.0895
11
1.19488
21
-4.09646
0
LINE
8
BLACK
6
CONTINUOUS
10
1.19488
20
-4.09646
11
1.19415
21
-4.10341
0
LINE
8
BLACK
6
CONTINUOUS
10
1.19415
20
-4.10341
11
1.19199
21
-4.11007
0
LINE
8
BLACK
6
CONTINUOUS
10
1.19199
20
-4.11007
11
1.18849
21
-4.11613
0
LINE
8
BLACK
6
CONTINUOUS
10
1.18849
20
-4.11613
11
1.18381
21
-4.12133
0
LINE
8
BLACK
6
CONTINUOUS
10
1.18381
20
-4.12133
11
1.17815
21
-4.12544
0
LINE
8
BLACK
6
CONTINUOUS
10
1.17815
20
-4.12544
11
1.17176
21
-4.12828
0
LINE
8
BLACK
6
CONTINUOUS
10
1.17176
20
-4.12828
11
1.16492
21
-4.12974
0
LINE
8
BLACK
6
CONTINUOUS
10
1.16492
20
-4.12974
11
1.15792
21
-4.12974
0
LINE
8
BLACK
6
CONTINUOUS
10
1.15792
20
-4.12974
11
1.15108
21
-4.12828
0
LINE
8
BLACK
6
CONTINUOUS
10
1.15108
20
-4.12828
11
1.14469
21
-4.12544
0
LINE
8
BLACK
6
CONTINUOUS
10
1.14469
20
-4.12544
11
1.13903
21
-4.12133
0
LINE
8
BLACK
6
CONTINUOUS
10
1.13903
20
-4.12133
11
1.13434
21
-4.11613
0
LINE
8
BLACK
6
CONTINUOUS
10
1.13434
20
-4.11613
11
1.13085
21
-4.11007
0
LINE
8
BLACK
6
CONTINUOUS
10
1.13085
20
-4.11007
11
1.12868
21
-4.10341
0
LINE
8
BLACK
6
CONTINUOUS
10
1.12868
20
-4.10341
11
1.12795
21
-4.09646
0
LINE
8
BLACK
6
CONTINUOUS
10
1.12795
20
-4.09646
11
1.12868
21
-4.0895
0
LINE
8
BLACK
6
CONTINUOUS
10
1.12868
20
-4.0895
11
1.13085
21
-4.08285
0
LINE
8
BLACK
6
CONTINUOUS
10
1.13085
20
-4.08285
11
1.13434
21
-4.07679
0
LINE
8
BLACK
6
CONTINUOUS
10
1.13434
20
-4.07679
11
1.13903
21
-4.07159
0
LINE
8
BLACK
6
CONTINUOUS
10
1.13903
20
-4.07159
11
1.14469
21
-4.06748
0
LINE
8
BLACK
6
CONTINUOUS
10
1.14469
20
-4.06748
11
1.15108
21
-4.06463
0
LINE
8
BLACK
6
CONTINUOUS
10
1.15108
20
-4.06463
11
1.15792
21
-4.06318
0
LINE
8
BLACK
6
CONTINUOUS
10
1.15792
20
-4.06318
11
1.16492
21
-4.06318
0
LINE
8
BLACK
6
CONTINUOUS
10
1.16492
20
-4.06318
11
1.17176
21
-4.06463
0
LINE
8
BLACK
6
CONTINUOUS
10
0.896168
20
-4.06463
11
0.902559
21
-4.06748
0
LINE
8
BLACK
6
CONTINUOUS
10
0.902559
20
-4.06748
11
0.908219
21
-4.07159
0
LINE
8
BLACK
6
CONTINUOUS
10
0.908219
20
-4.07159
11
0.9129
21
-4.07679
0
LINE
8
BLACK
6
CONTINUOUS
10
0.9129
20
-4.07679
11
0.916398
21
-4.08285
0
LINE
8
BLACK
6
CONTINUOUS
10
0.916398
20
-4.08285
11
0.91856
21
-4.0895
0
LINE
8
BLACK
6
CONTINUOUS
10
0.91856
20
-4.0895
11
0.919291
21
-4.09646
0
LINE
8
BLACK
6
CONTINUOUS
10
0.919291
20
-4.09646
11
0.91856
21
-4.10341
0
LINE
8
BLACK
6
CONTINUOUS
10
0.91856
20
-4.10341
11
0.916398
21
-4.11007
0
LINE
8
BLACK
6
CONTINUOUS
10
0.916398
20
-4.11007
11
0.9129
21
-4.11613
0
LINE
8
BLACK
6
CONTINUOUS
10
0.9129
20
-4.11613
11
0.908219
21
-4.12133
0
LINE
8
BLACK
6
CONTINUOUS
10
0.908219
20
-4.12133
11
0.902559
21
-4.12544
0
LINE
8
BLACK
6
CONTINUOUS
10
0.902559
20
-4.12544
11
0.896168
21
-4.12828
0
LINE
8
BLACK
6
CONTINUOUS
10
0.896168
20
-4.12828
11
0.889325
21
-4.12974
0
LINE
8
BLACK
6
CONTINUOUS
10
0.889325
20
-4.12974
11
0.882329
21
-4.12974
0
LINE
8
BLACK
6
CONTINUOUS
10
0.882329
20
-4.12974
11
0.875486
21
-4.12828
0
LINE
8
BLACK
6
CONTINUOUS
10
0.875486
20
-4.12828
11
0.869094
21
-4.12544
0
LINE
8
BLACK
6
CONTINUOUS
10
0.869094
20
-4.12544
11
0.863435
21
-4.12133
0
LINE
8
BLACK
6
CONTINUOUS
10
0.863435
20
-4.12133
11
0.858753
21
-4.11613
0
LINE
8
BLACK
6
CONTINUOUS
10
0.858753
20
-4.11613
11
0.855255
21
-4.11007
0
LINE
8
BLACK
6
CONTINUOUS
10
0.855255
20
-4.11007
11
0.853094
21
-4.10341
0
LINE
8
BLACK
6
CONTINUOUS
10
0.853094
20
-4.10341
11
0.852362
21
-4.09646
0
LINE
8
BLACK
6
CONTINUOUS
10
0.852362
20
-4.09646
11
0.853094
21
-4.0895
0
LINE
8
BLACK
6
CONTINUOUS
10
0.853094
20
-4.0895
11
0.855255
21
-4.08285
0
LINE
8
BLACK
6
CONTINUOUS
10
0.855255
20
-4.08285
11
0.858753
21
-4.07679
0
LINE
8
BLACK
6
CONTINUOUS
10
0.858753
20
-4.07679
11
0.863435
21
-4.07159
0
LINE
8
BLACK
6
CONTINUOUS
10
0.863435
20
-4.07159
11
0.869094
21
-4.06748
0
LINE
8
BLACK
6
CONTINUOUS
10
0.869094
20
-4.06748
11
0.875486
21
-4.06463
0
LINE
8
BLACK
6
CONTINUOUS
10
0.875486
20
-4.06463
11
0.882329
21
-4.06318
0
LINE
8
BLACK
6
CONTINUOUS
10
0.882329
20
-4.06318
11
0.889325
21
-4.06318
0
LINE
8
BLACK
6
CONTINUOUS
10
0.889325
20
-4.06318
11
0.896168
21
-4.06463
0
LINE
8
BLACK
6
CONTINUOUS
10
3.45251
20
-3.91292
11
3.45973
21
-3.91472
0
LINE
8
BLACK
6
CONTINUOUS
10
3.45973
20
-3.91472
11
3.46639
21
-3.91803
0
LINE
8
BLACK
6
CONTINUOUS
10
3.46639
20
-3.91803
11
3.47219
21
-3.92269
0
LINE
8
BLACK
6
CONTINUOUS
10
3.47219
20
-3.92269
11
3.47686
21
-3.92849
0
LINE
8
BLACK
6
CONTINUOUS
10
3.47686
20
-3.92849
11
3.48016
21
-3.93515
0
LINE
8
BLACK
6
CONTINUOUS
10
3.48016
20
-3.93515
11
3.48196
21
-3.94237
0
LINE
8
BLACK
6
CONTINUOUS
10
3.48196
20
-3.94237
11
3.48228
21
-3.94705
0
LINE
8
BLACK
6
CONTINUOUS
10
3.48228
20
-3.94705
11
3.48228
21
-4.01594
0
LINE
8
BLACK
6
CONTINUOUS
10
3.48228
20
-4.01594
11
3.48196
21
-4.02062
0
LINE
8
BLACK
6
CONTINUOUS
10
3.48196
20
-4.02062
11
3.48016
21
-4.02784
0
LINE
8
BLACK
6
CONTINUOUS
10
3.48016
20
-4.02784
11
3.47686
21
-4.0345
0
LINE
8
BLACK
6
CONTINUOUS
10
3.47686
20
-4.0345
11
3.47219
21
-4.0403
0
LINE
8
BLACK
6
CONTINUOUS
10
3.47219
20
-4.0403
11
3.46639
21
-4.04497
0
LINE
8
BLACK
6
CONTINUOUS
10
3.46639
20
-4.04497
11
3.45973
21
-4.04827
0
LINE
8
BLACK
6
CONTINUOUS
10
3.45973
20
-4.04827
11
3.45251
21
-4.05007
0
LINE
8
BLACK
6
CONTINUOUS
10
3.45251
20
-4.05007
11
3.44783
21
-4.05039
0
LINE
8
BLACK
6
CONTINUOUS
10
3.44783
20
-4.05039
11
3.37894
21
-4.05039
0
LINE
8
BLACK
6
CONTINUOUS
10
3.37894
20
-4.05039
11
3.37426
21
-4.05007
0
LINE
8
BLACK
6
CONTINUOUS
10
3.37426
20
-4.05007
11
3.36704
21
-4.04827
0
LINE
8
BLACK
6
CONTINUOUS
10
3.36704
20
-4.04827
11
3.36038
21
-4.04497
0
LINE
8
BLACK
6
CONTINUOUS
10
3.36038
20
-4.04497
11
3.35458
21
-4.0403
0
LINE
8
BLACK
6
CONTINUOUS
10
3.35458
20
-4.0403
11
3.34992
21
-4.0345
0
LINE
8
BLACK
6
CONTINUOUS
10
3.34992
20
-4.0345
11
3.34661
21
-4.02784
0
LINE
8
BLACK
6
CONTINUOUS
10
3.34661
20
-4.02784
11
3.34481
21
-4.02062
0
LINE
8
BLACK
6
CONTINUOUS
10
3.34481
20
-4.02062
11
3.34449
21
-4.01594
0
LINE
8
BLACK
6
CONTINUOUS
10
3.34449
20
-4.01594
11
3.34449
21
-3.94705
0
LINE
8
BLACK
6
CONTINUOUS
10
3.34449
20
-3.94705
11
3.34481
21
-3.94237
0
LINE
8
BLACK
6
CONTINUOUS
10
3.34481
20
-3.94237
11
3.34661
21
-3.93515
0
LINE
8
BLACK
6
CONTINUOUS
10
3.34661
20
-3.93515
11
3.34992
21
-3.92849
0
LINE
8
BLACK
6
CONTINUOUS
10
3.34992
20
-3.92849
11
3.35458
21
-3.92269
0
LINE
8
BLACK
6
CONTINUOUS
10
3.35458
20
-3.92269
11
3.36038
21
-3.91803
0
LINE
8
BLACK
6
CONTINUOUS
10
3.36038
20
-3.91803
11
3.36704
21
-3.91472
0
LINE
8
BLACK
6
CONTINUOUS
10
3.36704
20
-3.91472
11
3.37426
21
-3.91292
0
LINE
8
BLACK
6
CONTINUOUS
10
3.37426
20
-3.91292
11
3.37894
21
-3.9126
0
LINE
8
BLACK
6
CONTINUOUS
10
3.37894
20
-3.9126
11
3.44783
21
-3.9126
0
LINE
8
BLACK
6
CONTINUOUS
10
3.44783
20
-3.9126
11
3.45251
21
-3.91292
0
LINE
8
BLACK
6
CONTINUOUS
10
2.50076
20
-3.91949
11
2.51052
21
-3.92183
0
LINE
8
BLACK
6
CONTINUOUS
10
2.51052
20
-3.92183
11
2.51979
21
-3.92567
0
LINE
8
BLACK
6
CONTINUOUS
10
2.51979
20
-3.92567
11
2.52835
21
-3.93092
0
LINE
8
BLACK
6
CONTINUOUS
10
2.52835
20
-3.93092
11
2.53599
21
-3.93744
0
LINE
8
BLACK
6
CONTINUOUS
10
2.53599
20
-3.93744
11
2.54251
21
-3.94507
0
LINE
8
BLACK
6
CONTINUOUS
10
2.54251
20
-3.94507
11
2.54775
21
-3.95363
0
LINE
8
BLACK
6
CONTINUOUS
10
2.54775
20
-3.95363
11
2.55159
21
-3.96291
0
LINE
8
BLACK
6
CONTINUOUS
10
2.55159
20
-3.96291
11
2.55394
21
-3.97267
0
LINE
8
BLACK
6
CONTINUOUS
10
2.55394
20
-3.97267
11
2.55472
21
-3.98268
0
LINE
8
BLACK
6
CONTINUOUS
10
2.55472
20
-3.98268
11
2.55394
21
-3.99269
0
LINE
8
BLACK
6
CONTINUOUS
10
2.55394
20
-3.99269
11
2.55159
21
-4.00245
0
LINE
8
BLACK
6
CONTINUOUS
10
2.55159
20
-4.00245
11
2.54775
21
-4.01172
0
LINE
8
BLACK
6
CONTINUOUS
10
2.54775
20
-4.01172
11
2.54251
21
-4.02028
0
LINE
8
BLACK
6
CONTINUOUS
10
2.54251
20
-4.02028
11
2.53599
21
-4.02792
0
LINE
8
BLACK
6
CONTINUOUS
10
2.53599
20
-4.02792
11
2.52835
21
-4.03444
0
LINE
8
BLACK
6
CONTINUOUS
10
2.52835
20
-4.03444
11
2.51979
21
-4.03968
0
LINE
8
BLACK
6
CONTINUOUS
10
2.51979
20
-4.03968
11
2.51052
21
-4.04352
0
LINE
8
BLACK
6
CONTINUOUS
10
2.51052
20
-4.04352
11
2.50076
21
-4.04587
0
LINE
8
BLACK
6
CONTINUOUS
10
2.50076
20
-4.04587
11
2.49075
21
-4.04665
0
LINE
8
BLACK
6
CONTINUOUS
10
2.49075
20
-4.04665
11
2.48074
21
-4.04587
0
LINE
8
BLACK
6
CONTINUOUS
10
2.48074
20
-4.04587
11
2.47098
21
-4.04352
0
LINE
8
BLACK
6
CONTINUOUS
10
2.47098
20
-4.04352
11
2.4617
21
-4.03968
0
LINE
8
BLACK
6
CONTINUOUS
10
2.4617
20
-4.03968
11
2.45314
21
-4.03444
0
LINE
8
BLACK
6
CONTINUOUS
10
2.45314
20
-4.03444
11
2.44551
21
-4.02792
0
LINE
8
BLACK
6
CONTINUOUS
10
2.44551
20
-4.02792
11
2.43899
21
-4.02028
0
LINE
8
BLACK
6
CONTINUOUS
10
2.43899
20
-4.02028
11
2.43374
21
-4.01172
0
LINE
8
BLACK
6
CONTINUOUS
10
2.43374
20
-4.01172
11
2.4299
21
-4.00245
0
LINE
8
BLACK
6
CONTINUOUS
10
2.4299
20
-4.00245
11
2.42756
21
-3.99269
0
LINE
8
BLACK
6
CONTINUOUS
10
2.42756
20
-3.99269
11
2.42677
21
-3.98268
0
LINE
8
BLACK
6
CONTINUOUS
10
2.42677
20
-3.98268
11
2.42756
21
-3.97267
0
LINE
8
BLACK
6
CONTINUOUS
10
2.42756
20
-3.97267
11
2.4299
21
-3.96291
0
LINE
8
BLACK
6
CONTINUOUS
10
2.4299
20
-3.96291
11
2.43374
21
-3.95363
0
LINE
8
BLACK
6
CONTINUOUS
10
2.43374
20
-3.95363
11
2.43899
21
-3.94507
0
LINE
8
BLACK
6
CONTINUOUS
10
2.43899
20
-3.94507
11
2.44551
21
-3.93744
0
LINE
8
BLACK
6
CONTINUOUS
10
2.44551
20
-3.93744
11
2.45314
21
-3.93092
0
LINE
8
BLACK
6
CONTINUOUS
10
2.45314
20
-3.93092
11
2.4617
21
-3.92567
0
LINE
8
BLACK
6
CONTINUOUS
10
2.4617
20
-3.92567
11
2.47098
21
-3.92183
0
LINE
8
BLACK
6
CONTINUOUS
10
2.47098
20
-3.92183
11
2.48074
21
-3.91949
0
LINE
8
BLACK
6
CONTINUOUS
10
2.48074
20
-3.91949
11
2.49075
21
-3.9187
0
LINE
8
BLACK
6
CONTINUOUS
10
2.49075
20
-3.9187
11
2.50076
21
-3.91949
0
LINE
8
BLACK
6
CONTINUOUS
10
2.00076
20
-3.91949
11
2.01052
21
-3.92183
0
LINE
8
BLACK
6
CONTINUOUS
10
2.01052
20
-3.92183
11
2.01979
21
-3.92567
0
LINE
8
BLACK
6
CONTINUOUS
10
2.01979
20
-3.92567
11
2.02835
21
-3.93092
0
LINE
8
BLACK
6
CONTINUOUS
10
2.02835
20
-3.93092
11
2.03599
21
-3.93744
0
LINE
8
BLACK
6
CONTINUOUS
10
2.03599
20
-3.93744
11
2.04251
21
-3.94507
0
LINE
8
BLACK
6
CONTINUOUS
10
2.04251
20
-3.94507
11
2.04775
21
-3.95363
0
LINE
8
BLACK
6
CONTINUOUS
10
2.04775
20
-3.95363
11
2.05159
21
-3.96291
0
LINE
8
BLACK
6
CONTINUOUS
10
2.05159
20
-3.96291
11
2.05394
21
-3.97267
0
LINE
8
BLACK
6
CONTINUOUS
10
2.05394
20
-3.97267
11
2.05472
21
-3.98268
0
LINE
8
BLACK
6
CONTINUOUS
10
2.05472
20
-3.98268
11
2.05394
21
-3.99269
0
LINE
8
BLACK
6
CONTINUOUS
10
2.05394
20
-3.99269
11
2.05159
21
-4.00245
0
LINE
8
BLACK
6
CONTINUOUS
10
2.05159
20
-4.00245
11
2.04775
21
-4.01172
0
LINE
8
BLACK
6
CONTINUOUS
10
2.04775
20
-4.01172
11
2.04251
21
-4.02028
0
LINE
8
BLACK
6
CONTINUOUS
10
2.04251
20
-4.02028
11
2.03599
21
-4.02792
0
LINE
8
BLACK
6
CONTINUOUS
10
2.03599
20
-4.02792
11
2.02835
21
-4.03444
0
LINE
8
BLACK
6
CONTINUOUS
10
2.02835
20
-4.03444
11
2.01979
21
-4.03968
0
LINE
8
BLACK
6
CONTINUOUS
10
2.01979
20
-4.03968
11
2.01052
21
-4.04352
0
LINE
8
BLACK
6
CONTINUOUS
10
2.01052
20
-4.04352
11
2.00076
21
-4.04587
0
LINE
8
BLACK
6
CONTINUOUS
10
2.00076
20
-4.04587
11
1.99075
21
-4.04665
0
LINE
8
BLACK
6
CONTINUOUS
10
1.99075
20
-4.04665
11
1.98074
21
-4.04587
0
LINE
8
BLACK
6
CONTINUOUS
10
1.98074
20
-4.04587
11
1.97098
21
-4.04352
0
LINE
8
BLACK
6
CONTINUOUS
10
1.97098
20
-4.04352
11
1.9617
21
-4.03968
0
LINE
8
BLACK
6
CONTINUOUS
10
1.9617
20
-4.03968
11
1.95314
21
-4.03444
0
LINE
8
BLACK
6
CONTINUOUS
10
1.95314
20
-4.03444
11
1.94551
21
-4.02792
0
LINE
8
BLACK
6
CONTINUOUS
10
1.94551
20
-4.02792
11
1.93899
21
-4.02028
0
LINE
8
BLACK
6
CONTINUOUS
10
1.93899
20
-4.02028
11
1.93374
21
-4.01172
0
LINE
8
BLACK
6
CONTINUOUS
10
1.93374
20
-4.01172
11
1.9299
21
-4.00245
0
LINE
8
BLACK
6
CONTINUOUS
10
1.9299
20
-4.00245
11
1.92756
21
-3.99269
0
LINE
8
BLACK
6
CONTINUOUS
10
1.92756
20
-3.99269
11
1.92677
21
-3.98268
0
LINE
8
BLACK
6
CONTINUOUS
10
1.92677
20
-3.98268
11
1.92756
21
-3.97267
0
LINE
8
BLACK
6
CONTINUOUS
10
1.92756
20
-3.97267
11
1.9299
21
-3.96291
0
LINE
8
BLACK
6
CONTINUOUS
10
1.9299
20
-3.96291
11
1.93374
21
-3.95363
0
LINE
8
BLACK
6
CONTINUOUS
10
1.93374
20
-3.95363
11
1.93899
21
-3.94507
0
LINE
8
BLACK
6
CONTINUOUS
10
1.93899
20
-3.94507
11
1.94551
21
-3.93744
0
LINE
8
BLACK
6
CONTINUOUS
10
1.94551
20
-3.93744
11
1.95314
21
-3.93092
0
LINE
8
BLACK
6
CONTINUOUS
10
1.95314
20
-3.93092
11
1.9617
21
-3.92567
0
LINE
8
BLACK
6
CONTINUOUS
10
1.9617
20
-3.92567
11
1.97098
21
-3.92183
0
LINE
8
BLACK
6
CONTINUOUS
10
1.97098
20
-3.92183
11
1.98074
21
-3.91949
0
LINE
8
BLACK
6
CONTINUOUS
10
1.98074
20
-3.91949
11
1.99075
21
-3.9187
0
LINE
8
BLACK
6
CONTINUOUS
10
1.99075
20
-3.9187
11
2.00076
21
-3.91949
0
LINE
8
BLACK
6
CONTINUOUS
10
3.29724
20
-3.93228
11
3.15945
21
-3.93228
0
LINE
8
BLACK
6
CONTINUOUS
10
3.15945
20
-3.93228
11
3.15945
21
-3.79449
0
LINE
8
BLACK
6
CONTINUOUS
10
3.15945
20
-3.79449
11
3.29724
21
-3.79449
0
LINE
8
BLACK
6
CONTINUOUS
10
3.29724
20
-3.79449
11
3.29724
21
-3.93228
0
LINE
8
BLACK
6
CONTINUOUS
10
2.80235
20
-3.78605
11
2.80887
21
-3.78837
0
LINE
8
BLACK
6
CONTINUOUS
10
2.80887
20
-3.78837
11
2.8147
21
-3.79207
0
LINE
8
BLACK
6
CONTINUOUS
10
2.8147
20
-3.79207
11
2.81957
21
-3.79697
0
LINE
8
BLACK
6
CONTINUOUS
10
2.81957
20
-3.79697
11
2.82323
21
-3.80283
0
LINE
8
BLACK
6
CONTINUOUS
10
2.82323
20
-3.80283
11
2.82551
21
-3.80936
0
LINE
8
BLACK
6
CONTINUOUS
10
2.82551
20
-3.80936
11
2.82628
21
-3.81623
0
LINE
8
BLACK
6
CONTINUOUS
10
2.82628
20
-3.81623
11
2.82626
21
-3.81709
0
LINE
8
BLACK
6
CONTINUOUS
10
2.82626
20
-3.81709
11
2.8253
21
-3.82394
0
LINE
8
BLACK
6
CONTINUOUS
10
2.8253
20
-3.82394
11
2.82285
21
-3.8304
0
LINE
8
BLACK
6
CONTINUOUS
10
2.82285
20
-3.8304
11
2.81902
21
-3.83615
0
LINE
8
BLACK
6
CONTINUOUS
10
2.81902
20
-3.83615
11
2.81402
21
-3.84092
0
LINE
8
BLACK
6
CONTINUOUS
10
2.81402
20
-3.84092
11
2.80808
21
-3.84446
0
LINE
8
BLACK
6
CONTINUOUS
10
2.80808
20
-3.84446
11
2.80151
21
-3.8466
0
LINE
8
BLACK
6
CONTINUOUS
10
2.80151
20
-3.8466
11
2.79463
21
-3.84722
0
LINE
8
BLACK
6
CONTINUOUS
10
2.79463
20
-3.84722
11
2.78778
21
-3.84631
0
LINE
8
BLACK
6
CONTINUOUS
10
2.78778
20
-3.84631
11
2.7813
21
-3.8439
0
LINE
8
BLACK
6
CONTINUOUS
10
2.7813
20
-3.8439
11
2.77552
21
-3.84011
0
LINE
8
BLACK
6
CONTINUOUS
10
2.77552
20
-3.84011
11
2.77071
21
-3.83514
0
LINE
8
BLACK
6
CONTINUOUS
10
2.77071
20
-3.83514
11
2.76713
21
-3.82923
0
LINE
8
BLACK
6
CONTINUOUS
10
2.76713
20
-3.82923
11
2.76495
21
-3.82267
0
LINE
8
BLACK
6
CONTINUOUS
10
2.76495
20
-3.82267
11
2.76428
21
-3.8158
0
LINE
8
BLACK
6
CONTINUOUS
10
2.76428
20
-3.8158
11
2.76514
21
-3.80894
0
LINE
8
BLACK
6
CONTINUOUS
10
2.76514
20
-3.80894
11
2.76751
21
-3.80244
0
LINE
8
BLACK
6
CONTINUOUS
10
2.76751
20
-3.80244
11
2.77125
21
-3.79664
0
LINE
8
BLACK
6
CONTINUOUS
10
2.77125
20
-3.79664
11
2.77619
21
-3.7918
0
LINE
8
BLACK
6
CONTINUOUS
10
2.77619
20
-3.7918
11
2.78208
21
-3.78818
0
LINE
8
BLACK
6
CONTINUOUS
10
2.78208
20
-3.78818
11
2.78862
21
-3.78595
0
LINE
8
BLACK
6
CONTINUOUS
10
2.78862
20
-3.78595
11
2.79549
21
-3.78523
0
LINE
8
BLACK
6
CONTINUOUS
10
2.79549
20
-3.78523
11
2.80235
21
-3.78605
0
LINE
8
BLACK
6
CONTINUOUS
10
4.12729
20
-3.54081
11
4.14049
21
-3.54313
0
LINE
8
BLACK
6
CONTINUOUS
10
4.14049
20
-3.54313
11
4.15335
21
-3.54692
0
LINE
8
BLACK
6
CONTINUOUS
10
4.15335
20
-3.54692
11
4.16571
21
-3.55211
0
LINE
8
BLACK
6
CONTINUOUS
10
4.16571
20
-3.55211
11
4.17741
21
-3.55865
0
LINE
8
BLACK
6
CONTINUOUS
10
4.17741
20
-3.55865
11
4.18831
21
-3.56646
0
LINE
8
BLACK
6
CONTINUOUS
10
4.18831
20
-3.56646
11
4.19828
21
-3.57543
0
LINE
8
BLACK
6
CONTINUOUS
10
4.19828
20
-3.57543
11
4.20718
21
-3.58545
0
LINE
8
BLACK
6
CONTINUOUS
10
4.20718
20
-3.58545
11
4.2149
21
-3.59641
0
LINE
8
BLACK
6
CONTINUOUS
10
4.2149
20
-3.59641
11
4.22136
21
-3.60816
0
LINE
8
BLACK
6
CONTINUOUS
10
4.22136
20
-3.60816
11
4.22647
21
-3.62055
0
LINE
8
BLACK
6
CONTINUOUS
10
4.22647
20
-3.62055
11
4.23017
21
-3.63344
0
LINE
8
BLACK
6
CONTINUOUS
10
4.23017
20
-3.63344
11
4.2324
21
-3.64665
0
LINE
8
BLACK
6
CONTINUOUS
10
4.2324
20
-3.64665
11
4.23315
21
-3.66004
0
LINE
8
BLACK
6
CONTINUOUS
10
4.23315
20
-3.66004
11
4.2331
21
-3.66339
0
LINE
8
BLACK
6
CONTINUOUS
10
4.2331
20
-3.66339
11
4.23198
21
-3.67675
0
LINE
8
BLACK
6
CONTINUOUS
10
4.23198
20
-3.67675
11
4.22938
21
-3.6899
0
LINE
8
BLACK
6
CONTINUOUS
10
4.22938
20
-3.6899
11
4.22532
21
-3.70268
0
LINE
8
BLACK
6
CONTINUOUS
10
4.22532
20
-3.70268
11
4.21987
21
-3.71493
0
LINE
8
BLACK
6
CONTINUOUS
10
4.21987
20
-3.71493
11
4.21309
21
-3.72649
0
LINE
8
BLACK
6
CONTINUOUS
10
4.21309
20
-3.72649
11
4.20506
21
-3.73722
0
LINE
8
BLACK
6
CONTINUOUS
10
4.20506
20
-3.73722
11
4.19588
21
-3.747
0
LINE
8
BLACK
6
CONTINUOUS
10
4.19588
20
-3.747
11
4.18567
21
-3.75569
0
LINE
8
BLACK
6
CONTINUOUS
10
4.18567
20
-3.75569
11
4.17456
21
-3.76318
0
LINE
8
BLACK
6
CONTINUOUS
10
4.17456
20
-3.76318
11
4.16268
21
-3.76939
0
LINE
8
BLACK
6
CONTINUOUS
10
4.16268
20
-3.76939
11
4.15018
21
-3.77424
0
LINE
8
BLACK
6
CONTINUOUS
10
4.15018
20
-3.77424
11
4.13722
21
-3.77767
0
LINE
8
BLACK
6
CONTINUOUS
10
4.13722
20
-3.77767
11
4.12395
21
-3.77962
0
LINE
8
BLACK
6
CONTINUOUS
10
4.12395
20
-3.77962
11
4.11056
21
-3.78009
0
LINE
8
BLACK
6
CONTINUOUS
10
4.11056
20
-3.78009
11
4.09719
21
-3.77906
0
LINE
8
BLACK
6
CONTINUOUS
10
4.09719
20
-3.77906
11
4.08402
21
-3.77655
0
LINE
8
BLACK
6
CONTINUOUS
10
4.08402
20
-3.77655
11
4.07121
21
-3.77259
0
LINE
8
BLACK
6
CONTINUOUS
10
4.07121
20
-3.77259
11
4.05893
21
-3.76722
0
LINE
8
BLACK
6
CONTINUOUS
10
4.05893
20
-3.76722
11
4.04732
21
-3.76052
0
LINE
8
BLACK
6
CONTINUOUS
10
4.04732
20
-3.76052
11
4.03653
21
-3.75256
0
LINE
8
BLACK
6
CONTINUOUS
10
4.03653
20
-3.75256
11
4.02669
21
-3.74345
0
LINE
8
BLACK
6
CONTINUOUS
10
4.02669
20
-3.74345
11
4.01793
21
-3.7333
0
LINE
8
BLACK
6
CONTINUOUS
10
4.01793
20
-3.7333
11
4.01036
21
-3.72224
0
LINE
8
BLACK
6
CONTINUOUS
10
4.01036
20
-3.72224
11
4.00407
21
-3.71041
0
LINE
8
BLACK
6
CONTINUOUS
10
4.00407
20
-3.71041
11
3.99913
21
-3.69794
0
LINE
8
BLACK
6
CONTINUOUS
10
3.99913
20
-3.69794
11
3.99562
21
-3.68501
0
LINE
8
BLACK
6
CONTINUOUS
10
3.99562
20
-3.68501
11
3.99357
21
-3.67176
0
LINE
8
BLACK
6
CONTINUOUS
10
3.99357
20
-3.67176
11
3.993
21
-3.65836
0
LINE
8
BLACK
6
CONTINUOUS
10
3.993
20
-3.65836
11
3.99394
21
-3.64499
0
LINE
8
BLACK
6
CONTINUOUS
10
3.99394
20
-3.64499
11
3.99636
21
-3.6318
0
LINE
8
BLACK
6
CONTINUOUS
10
3.99636
20
-3.6318
11
4.00023
21
-3.61897
0
LINE
8
BLACK
6
CONTINUOUS
10
4.00023
20
-3.61897
11
4.00551
21
-3.60665
0
LINE
8
BLACK
6
CONTINUOUS
10
4.00551
20
-3.60665
11
4.01214
21
-3.59499
0
LINE
8
BLACK
6
CONTINUOUS
10
4.01214
20
-3.59499
11
4.02002
21
-3.58415
0
LINE
8
BLACK
6
CONTINUOUS
10
4.02002
20
-3.58415
11
4.02906
21
-3.57425
0
LINE
8
BLACK
6
CONTINUOUS
10
4.02906
20
-3.57425
11
4.03914
21
-3.56542
0
LINE
8
BLACK
6
CONTINUOUS
10
4.03914
20
-3.56542
11
4.05015
21
-3.55777
0
LINE
8
BLACK
6
CONTINUOUS
10
4.05015
20
-3.55777
11
4.06194
21
-3.55139
0
LINE
8
BLACK
6
CONTINUOUS
10
4.06194
20
-3.55139
11
4.07437
21
-3.54637
0
LINE
8
BLACK
6
CONTINUOUS
10
4.07437
20
-3.54637
11
4.08729
21
-3.54276
0
LINE
8
BLACK
6
CONTINUOUS
10
4.08729
20
-3.54276
11
4.10052
21
-3.54062
0
LINE
8
BLACK
6
CONTINUOUS
10
4.10052
20
-3.54062
11
4.11391
21
-3.53996
0
LINE
8
BLACK
6
CONTINUOUS
10
4.11391
20
-3.53996
11
4.12729
21
-3.54081
0
LINE
8
BLACK
6
CONTINUOUS
10
2.02686
20
-3.69844
11
2.03256
21
-3.7008
0
LINE
8
BLACK
6
CONTINUOUS
10
2.03256
20
-3.7008
11
2.03745
21
-3.70456
0
LINE
8
BLACK
6
CONTINUOUS
10
2.03745
20
-3.70456
11
2.04121
21
-3.70945
0
LINE
8
BLACK
6
CONTINUOUS
10
2.04121
20
-3.70945
11
2.04357
21
-3.71515
0
LINE
8
BLACK
6
CONTINUOUS
10
2.04357
20
-3.71515
11
2.04437
21
-3.72126
0
LINE
8
BLACK
6
CONTINUOUS
10
2.04437
20
-3.72126
11
2.04357
21
-3.72737
0
LINE
8
BLACK
6
CONTINUOUS
10
2.04357
20
-3.72737
11
2.04121
21
-3.73307
0
LINE
8
BLACK
6
CONTINUOUS
10
2.04121
20
-3.73307
11
2.03745
21
-3.73796
0
LINE
8
BLACK
6
CONTINUOUS
10
2.03745
20
-3.73796
11
2.03256
21
-3.74172
0
LINE
8
BLACK
6
CONTINUOUS
10
2.03256
20
-3.74172
11
2.02686
21
-3.74408
0
LINE
8
BLACK
6
CONTINUOUS
10
2.02686
20
-3.74408
11
2.02075
21
-3.74488
0
LINE
8
BLACK
6
CONTINUOUS
10
2.02075
20
-3.74488
11
2.01463
21
-3.74408
0
LINE
8
BLACK
6
CONTINUOUS
10
2.01463
20
-3.74408
11
2.00894
21
-3.74172
0
LINE
8
BLACK
6
CONTINUOUS
10
2.00894
20
-3.74172
11
2.00404
21
-3.73796
0
LINE
8
BLACK
6
CONTINUOUS
10
2.00404
20
-3.73796
11
2.00029
21
-3.73307
0
LINE
8
BLACK
6
CONTINUOUS
10
2.00029
20
-3.73307
11
1.99793
21
-3.72737
0
LINE
8
BLACK
6
CONTINUOUS
10
1.99793
20
-3.72737
11
1.99713
21
-3.72126
0
LINE
8
BLACK
6
CONTINUOUS
10
1.99713
20
-3.72126
11
1.99793
21
-3.71515
0
LINE
8
BLACK
6
CONTINUOUS
10
1.99793
20
-3.71515
11
2.00029
21
-3.70945
0
LINE
8
BLACK
6
CONTINUOUS
10
2.00029
20
-3.70945
11
2.00404
21
-3.70456
0
LINE
8
BLACK
6
CONTINUOUS
10
2.00404
20
-3.70456
11
2.00894
21
-3.7008
0
LINE
8
BLACK
6
CONTINUOUS
10
2.00894
20
-3.7008
11
2.01463
21
-3.69844
0
LINE
8
BLACK
6
CONTINUOUS
10
2.01463
20
-3.69844
11
2.02075
21
-3.69764
0
LINE
8
BLACK
6
CONTINUOUS
10
2.02075
20
-3.69764
11
2.02686
21
-3.69844
0
LINE
8
BLACK
6
CONTINUOUS
10
2.46686
20
-3.69844
11
2.47256
21
-3.7008
0
LINE
8
BLACK
6
CONTINUOUS
10
2.47256
20
-3.7008
11
2.47745
21
-3.70456
0
LINE
8
BLACK
6
CONTINUOUS
10
2.47745
20
-3.70456
11
2.48121
21
-3.70945
0
LINE
8
BLACK
6
CONTINUOUS
10
2.48121
20
-3.70945
11
2.48357
21
-3.71515
0
LINE
8
BLACK
6
CONTINUOUS
10
2.48357
20
-3.71515
11
2.48437
21
-3.72126
0
LINE
8
BLACK
6
CONTINUOUS
10
2.48437
20
-3.72126
11
2.48357
21
-3.72737
0
LINE
8
BLACK
6
CONTINUOUS
10
2.48357
20
-3.72737
11
2.48121
21
-3.73307
0
LINE
8
BLACK
6
CONTINUOUS
10
2.48121
20
-3.73307
11
2.47745
21
-3.73796
0
LINE
8
BLACK
6
CONTINUOUS
10
2.47745
20
-3.73796
11
2.47256
21
-3.74172
0
LINE
8
BLACK
6
CONTINUOUS
10
2.47256
20
-3.74172
11
2.46686
21
-3.74408
0
LINE
8
BLACK
6
CONTINUOUS
10
2.46686
20
-3.74408
11
2.46075
21
-3.74488
0
LINE
8
BLACK
6
CONTINUOUS
10
2.46075
20
-3.74488
11
2.45463
21
-3.74408
0
LINE
8
BLACK
6
CONTINUOUS
10
2.45463
20
-3.74408
11
2.44894
21
-3.74172
0
LINE
8
BLACK
6
CONTINUOUS
10
2.44894
20
-3.74172
11
2.44404
21
-3.73796
0
LINE
8
BLACK
6
CONTINUOUS
10
2.44404
20
-3.73796
11
2.44029
21
-3.73307
0
LINE
8
BLACK
6
CONTINUOUS
10
2.44029
20
-3.73307
11
2.43793
21
-3.72737
0
LINE
8
BLACK
6
CONTINUOUS
10
2.43793
20
-3.72737
11
2.43713
21
-3.72126
0
LINE
8
BLACK
6
CONTINUOUS
10
2.43713
20
-3.72126
11
2.43793
21
-3.71515
0
LINE
8
BLACK
6
CONTINUOUS
10
2.43793
20
-3.71515
11
2.44029
21
-3.70945
0
LINE
8
BLACK
6
CONTINUOUS
10
2.44029
20
-3.70945
11
2.44404
21
-3.70456
0
LINE
8
BLACK
6
CONTINUOUS
10
2.44404
20
-3.70456
11
2.44894
21
-3.7008
0
LINE
8
BLACK
6
CONTINUOUS
10
2.44894
20
-3.7008
11
2.45463
21
-3.69844
0
LINE
8
BLACK
6
CONTINUOUS
10
2.45463
20
-3.69844
11
2.46075
21
-3.69764
0
LINE
8
BLACK
6
CONTINUOUS
10
2.46075
20
-3.69764
11
2.46686
21
-3.69844
0
LINE
8
BLACK
6
CONTINUOUS
10
2.02686
20
-3.63978
11
2.03256
21
-3.64214
0
LINE
8
BLACK
6
CONTINUOUS
10
2.03256
20
-3.64214
11
2.03745
21
-3.6459
0
LINE
8
BLACK
6
CONTINUOUS
10
2.03745
20
-3.6459
11
2.04121
21
-3.65079
0
LINE
8
BLACK
6
CONTINUOUS
10
2.04121
20
-3.65079
11
2.04357
21
-3.65648
0
LINE
8
BLACK
6
CONTINUOUS
10
2.04357
20
-3.65648
11
2.04437
21
-3.6626
0
LINE
8
BLACK
6
CONTINUOUS
10
2.04437
20
-3.6626
11
2.04357
21
-3.66871
0
LINE
8
BLACK
6
CONTINUOUS
10
2.04357
20
-3.66871
11
2.04121
21
-3.67441
0
LINE
8
BLACK
6
CONTINUOUS
10
2.04121
20
-3.67441
11
2.03745
21
-3.6793
0
LINE
8
BLACK
6
CONTINUOUS
10
2.03745
20
-3.6793
11
2.03256
21
-3.68306
0
LINE
8
BLACK
6
CONTINUOUS
10
2.03256
20
-3.68306
11
2.02686
21
-3.68542
0
LINE
8
BLACK
6
CONTINUOUS
10
2.02686
20
-3.68542
11
2.02075
21
-3.68622
0
LINE
8
BLACK
6
CONTINUOUS
10
2.02075
20
-3.68622
11
2.01463
21
-3.68542
0
LINE
8
BLACK
6
CONTINUOUS
10
2.01463
20
-3.68542
11
2.00894
21
-3.68306
0
LINE
8
BLACK
6
CONTINUOUS
10
2.00894
20
-3.68306
11
2.00404
21
-3.6793
0
LINE
8
BLACK
6
CONTINUOUS
10
2.00404
20
-3.6793
11
2.00029
21
-3.67441
0
LINE
8
BLACK
6
CONTINUOUS
10
2.00029
20
-3.67441
11
1.99793
21
-3.66871
0
LINE
8
BLACK
6
CONTINUOUS
10
1.99793
20
-3.66871
11
1.99713
21
-3.6626
0
LINE
8
BLACK
6
CONTINUOUS
10
1.99713
20
-3.6626
11
1.99793
21
-3.65648
0
LINE
8
BLACK
6
CONTINUOUS
10
1.99793
20
-3.65648
11
2.00029
21
-3.65079
0
LINE
8
BLACK
6
CONTINUOUS
10
2.00029
20
-3.65079
11
2.00404
21
-3.6459
0
LINE
8
BLACK
6
CONTINUOUS
10
2.00404
20
-3.6459
11
2.00894
21
-3.64214
0
LINE
8
BLACK
6
CONTINUOUS
10
2.00894
20
-3.64214
11
2.01463
21
-3.63978
0
LINE
8
BLACK
6
CONTINUOUS
10
2.01463
20
-3.63978
11
2.02075
21
-3.63898
0
LINE
8
BLACK
6
CONTINUOUS
10
2.02075
20
-3.63898
11
2.02686
21
-3.63978
0
LINE
8
BLACK
6
CONTINUOUS
10
2.46686
20
-3.63978
11
2.47256
21
-3.64214
0
LINE
8
BLACK
6
CONTINUOUS
10
2.47256
20
-3.64214
11
2.47745
21
-3.6459
0
LINE
8
BLACK
6
CONTINUOUS
10
2.47745
20
-3.6459
11
2.48121
21
-3.65079
0
LINE
8
BLACK
6
CONTINUOUS
10
2.48121
20
-3.65079
11
2.48357
21
-3.65648
0
LINE
8
BLACK
6
CONTINUOUS
10
2.48357
20
-3.65648
11
2.48437
21
-3.6626
0
LINE
8
BLACK
6
CONTINUOUS
10
2.48437
20
-3.6626
11
2.48357
21
-3.66871
0
LINE
8
BLACK
6
CONTINUOUS
10
2.48357
20
-3.66871
11
2.48121
21
-3.67441
0
LINE
8
BLACK
6
CONTINUOUS
10
2.48121
20
-3.67441
11
2.47745
21
-3.6793
0
LINE
8
BLACK
6
CONTINUOUS
10
2.47745
20
-3.6793
11
2.47256
21
-3.68306
0
LINE
8
BLACK
6
CONTINUOUS
10
2.47256
20
-3.68306
11
2.46686
21
-3.68542
0
LINE
8
BLACK
6
CONTINUOUS
10
2.46686
20
-3.68542
11
2.46075
21
-3.68622
0
LINE
8
BLACK
6
CONTINUOUS
10
2.46075
20
-3.68622
11
2.45463
21
-3.68542
0
LINE
8
BLACK
6
CONTINUOUS
10
2.45463
20
-3.68542
11
2.44894
21
-3.68306
0
LINE
8
BLACK
6
CONTINUOUS
10
2.44894
20
-3.68306
11
2.44404
21
-3.6793
0
LINE
8
BLACK
6
CONTINUOUS
10
2.44404
20
-3.6793
11
2.44029
21
-3.67441
0
LINE
8
BLACK
6
CONTINUOUS
10
2.44029
20
-3.67441
11
2.43793
21
-3.66871
0
LINE
8
BLACK
6
CONTINUOUS
10
2.43793
20
-3.66871
11
2.43713
21
-3.6626
0
LINE
8
BLACK
6
CONTINUOUS
10
2.43713
20
-3.6626
11
2.43793
21
-3.65648
0
LINE
8
BLACK
6
CONTINUOUS
10
2.43793
20
-3.65648
11
2.44029
21
-3.65079
0
LINE
8
BLACK
6
CONTINUOUS
10
2.44029
20
-3.65079
11
2.44404
21
-3.6459
0
LINE
8
BLACK
6
CONTINUOUS
10
2.44404
20
-3.6459
11
2.44894
21
-3.64214
0
LINE
8
BLACK
6
CONTINUOUS
10
2.44894
20
-3.64214
11
2.45463
21
-3.63978
0
LINE
8
BLACK
6
CONTINUOUS
10
2.45463
20
-3.63978
11
2.46075
21
-3.63898
0
LINE
8
BLACK
6
CONTINUOUS
10
2.46075
20
-3.63898
11
2.46686
21
-3.63978
0
LINE
8
BLACK
6
CONTINUOUS
10
1.66665
20
-3.22585
11
1.67985
21
-3.22818
0
LINE
8
BLACK
6
CONTINUOUS
10
1.67985
20
-3.22818
11
1.69271
21
-3.23197
0
LINE
8
BLACK
6
CONTINUOUS
10
1.69271
20
-3.23197
11
1.70507
21
-3.23716
0
LINE
8
BLACK
6
CONTINUOUS
10
1.70507
20
-3.23716
11
1.71677
21
-3.2437
0
LINE
8
BLACK
6
CONTINUOUS
10
1.71677
20
-3.2437
11
1.72767
21
-3.2515
0
LINE
8
BLACK
6
CONTINUOUS
10
1.72767
20
-3.2515
11
1.73764
21
-3.26047
0
LINE
8
BLACK
6
CONTINUOUS
10
1.73764
20
-3.26047
11
1.74654
21
-3.2705
0
LINE
8
BLACK
6
CONTINUOUS
10
1.74654
20
-3.2705
11
1.75426
21
-3.28145
0
LINE
8
BLACK
6
CONTINUOUS
10
1.75426
20
-3.28145
11
1.76072
21
-3.2932
0
LINE
8
BLACK
6
CONTINUOUS
10
1.76072
20
-3.2932
11
1.76583
21
-3.3056
0
LINE
8
BLACK
6
CONTINUOUS
10
1.76583
20
-3.3056
11
1.76953
21
-3.31848
0
LINE
8
BLACK
6
CONTINUOUS
10
1.76953
20
-3.31848
11
1.77176
21
-3.3317
0
LINE
8
BLACK
6
CONTINUOUS
10
1.77176
20
-3.3317
11
1.77251
21
-3.34509
0
LINE
8
BLACK
6
CONTINUOUS
10
1.77251
20
-3.34509
11
1.77246
21
-3.34844
0
LINE
8
BLACK
6
CONTINUOUS
10
1.77246
20
-3.34844
11
1.77134
21
-3.3618
0
LINE
8
BLACK
6
CONTINUOUS
10
1.77134
20
-3.3618
11
1.76874
21
-3.37495
0
LINE
8
BLACK
6
CONTINUOUS
10
1.76874
20
-3.37495
11
1.76469
21
-3.38773
0
LINE
8
BLACK
6
CONTINUOUS
10
1.76469
20
-3.38773
11
1.75923
21
-3.39997
0
LINE
8
BLACK
6
CONTINUOUS
10
1.75923
20
-3.39997
11
1.75245
21
-3.41154
0
LINE
8
BLACK
6
CONTINUOUS
10
1.75245
20
-3.41154
11
1.74442
21
-3.42227
0
LINE
8
BLACK
6
CONTINUOUS
10
1.74442
20
-3.42227
11
1.73524
21
-3.43204
0
LINE
8
BLACK
6
CONTINUOUS
10
1.73524
20
-3.43204
11
1.72503
21
-3.44073
0
LINE
8
BLACK
6
CONTINUOUS
10
1.72503
20
-3.44073
11
1.71392
21
-3.44823
0
LINE
8
BLACK
6
CONTINUOUS
10
1.71392
20
-3.44823
11
1.70204
21
-3.45444
0
LINE
8
BLACK
6
CONTINUOUS
10
1.70204
20
-3.45444
11
1.68954
21
-3.45929
0
LINE
8
BLACK
6
CONTINUOUS
10
1.68954
20
-3.45929
11
1.67658
21
-3.46271
0
LINE
8
BLACK
6
CONTINUOUS
10
1.67658
20
-3.46271
11
1.66332
21
-3.46467
0
LINE
8
BLACK
6
CONTINUOUS
10
1.66332
20
-3.46467
11
1.64992
21
-3.46514
0
LINE
8
BLACK
6
CONTINUOUS
10
1.64992
20
-3.46514
11
1.63655
21
-3.46411
0
LINE
8
BLACK
6
CONTINUOUS
10
1.63655
20
-3.46411
11
1.62338
21
-3.4616
0
LINE
8
BLACK
6
CONTINUOUS
10
1.62338
20
-3.4616
11
1.61058
21
-3.45763
0
LINE
8
BLACK
6
CONTINUOUS
10
1.61058
20
-3.45763
11
1.59829
21
-3.45227
0
LINE
8
BLACK
6
CONTINUOUS
10
1.59829
20
-3.45227
11
1.58668
21
-3.44556
0
LINE
8
BLACK
6
CONTINUOUS
10
1.58668
20
-3.44556
11
1.57589
21
-3.43761
0
LINE
8
BLACK
6
CONTINUOUS
10
1.57589
20
-3.43761
11
1.56605
21
-3.4285
0
LINE
8
BLACK
6
CONTINUOUS
10
1.56605
20
-3.4285
11
1.5573
21
-3.41835
0
LINE
8
BLACK
6
CONTINUOUS
10
1.5573
20
-3.41835
11
1.54972
21
-3.40729
0
LINE
8
BLACK
6
CONTINUOUS
10
1.54972
20
-3.40729
11
1.54343
21
-3.39545
0
LINE
8
BLACK
6
CONTINUOUS
10
1.54343
20
-3.39545
11
1.53849
21
-3.38299
0
LINE
8
BLACK
6
CONTINUOUS
10
1.53849
20
-3.38299
11
1.53498
21
-3.37005
0
LINE
8
BLACK
6
CONTINUOUS
10
1.53498
20
-3.37005
11
1.53293
21
-3.3568
0
LINE
8
BLACK
6
CONTINUOUS
10
1.53293
20
-3.3568
11
1.53237
21
-3.34341
0
LINE
8
BLACK
6
CONTINUOUS
10
1.53237
20
-3.34341
11
1.5333
21
-3.33004
0
LINE
8
BLACK
6
CONTINUOUS
10
1.5333
20
-3.33004
11
1.53572
21
-3.31685
0
LINE
8
BLACK
6
CONTINUOUS
10
1.53572
20
-3.31685
11
1.5396
21
-3.30402
0
LINE
8
BLACK
6
CONTINUOUS
10
1.5396
20
-3.30402
11
1.54488
21
-3.29169
0
LINE
8
BLACK
6
CONTINUOUS
10
1.54488
20
-3.29169
11
1.5515
21
-3.28004
0
LINE
8
BLACK
6
CONTINUOUS
10
1.5515
20
-3.28004
11
1.55938
21
-3.26919
0
LINE
8
BLACK
6
CONTINUOUS
10
1.55938
20
-3.26919
11
1.56842
21
-3.25929
0
LINE
8
BLACK
6
CONTINUOUS
10
1.56842
20
-3.25929
11
1.5785
21
-3.25046
0
LINE
8
BLACK
6
CONTINUOUS
10
1.5785
20
-3.25046
11
1.58951
21
-3.24281
0
LINE
8
BLACK
6
CONTINUOUS
10
1.58951
20
-3.24281
11
1.60131
21
-3.23644
0
LINE
8
BLACK
6
CONTINUOUS
10
1.60131
20
-3.23644
11
1.61374
21
-3.23141
0
LINE
8
BLACK
6
CONTINUOUS
10
1.61374
20
-3.23141
11
1.62665
21
-3.22781
0
LINE
8
BLACK
6
CONTINUOUS
10
1.62665
20
-3.22781
11
1.63988
21
-3.22567
0
LINE
8
BLACK
6
CONTINUOUS
10
1.63988
20
-3.22567
11
1.65327
21
-3.22501
0
LINE
8
BLACK
6
CONTINUOUS
10
1.65327
20
-3.22501
11
1.66665
21
-3.22585
0
LINE
8
BLACK
6
CONTINUOUS
10
0.367438
20
-3.22585
11
0.38064
21
-3.22818
0
LINE
8
BLACK
6
CONTINUOUS
10
0.38064
20
-3.22818
11
0.3935
21
-3.23197
0
LINE
8
BLACK
6
CONTINUOUS
10
0.3935
20
-3.23197
11
0.405859
21
-3.23716
0
LINE
8
BLACK
6
CONTINUOUS
10
0.405859
20
-3.23716
11
0.417561
21
-3.2437
0
LINE
8
BLACK
6
CONTINUOUS
10
0.417561
20
-3.2437
11
0.428462
21
-3.2515
0
LINE
8
BLACK
6
CONTINUOUS
10
0.428462
20
-3.2515
11
0.438424
21
-3.26047
0
LINE
8
BLACK
6
CONTINUOUS
10
0.438424
20
-3.26047
11
0.447325
21
-3.2705
0
LINE
8
BLACK
6
CONTINUOUS
10
0.447325
20
-3.2705
11
0.455052
21
-3.28145
0
LINE
8
BLACK
6
CONTINUOUS
10
0.455052
20
-3.28145
11
0.461511
21
-3.2932
0
LINE
8
BLACK
6
CONTINUOUS
10
0.461511
20
-3.2932
11
0.466619
21
-3.3056
0
LINE
8
BLACK
6
CONTINUOUS
10
0.466619
20
-3.3056
11
0.470314
21
-3.31848
0
LINE
8
BLACK
6
CONTINUOUS
10
0.470314
20
-3.31848
11
0.47255
21
-3.3317
0
LINE
8
BLACK
6
CONTINUOUS
10
0.47255
20
-3.3317
11
0.473299
21
-3.34509
0
LINE
8
BLACK
6
CONTINUOUS
10
0.473299
20
-3.34509
11
0.473252
21
-3.34844
0
LINE
8
BLACK
6
CONTINUOUS
10
0.473252
20
-3.34844
11
0.47213
21
-3.3618
0
LINE
8
BLACK
6
CONTINUOUS
10
0.47213
20
-3.3618
11
0.469526
21
-3.37495
0
LINE
8
BLACK
6
CONTINUOUS
10
0.469526
20
-3.37495
11
0.465472
21
-3.38773
0
LINE
8
BLACK
6
CONTINUOUS
10
0.465472
20
-3.38773
11
0.46002
21
-3.39997
0
LINE
8
BLACK
6
CONTINUOUS
10
0.46002
20
-3.39997
11
0.453236
21
-3.41154
0
LINE
8
BLACK
6
CONTINUOUS
10
0.453236
20
-3.41154
11
0.445205
21
-3.42227
0
LINE
8
BLACK
6
CONTINUOUS
10
0.445205
20
-3.42227
11
0.436028
21
-3.43204
0
LINE
8
BLACK
6
CONTINUOUS
10
0.436028
20
-3.43204
11
0.425819
21
-3.44073
0
LINE
8
BLACK
6
CONTINUOUS
10
0.425819
20
-3.44073
11
0.414705
21
-3.44823
0
LINE
8
BLACK
6
CONTINUOUS
10
0.414705
20
-3.44823
11
0.402825
21
-3.45444
0
LINE
8
BLACK
6
CONTINUOUS
10
0.402825
20
-3.45444
11
0.390326
21
-3.45929
0
LINE
8
BLACK
6
CONTINUOUS
10
0.390326
20
-3.45929
11
0.377365
21
-3.46271
0
LINE
8
BLACK
6
CONTINUOUS
10
0.377365
20
-3.46271
11
0.364103
21
-3.46467
0
LINE
8
BLACK
6
CONTINUOUS
10
0.364103
20
-3.46467
11
0.350705
21
-3.46514
0
LINE
8
BLACK
6
CONTINUOUS
10
0.350705
20
-3.46514
11
0.337339
21
-3.46411
0
LINE
8
BLACK
6
CONTINUOUS
10
0.337339
20
-3.46411
11
0.32417
21
-3.4616
0
LINE
8
BLACK
6
CONTINUOUS
10
0.32417
20
-3.4616
11
0.311364
21
-3.45763
0
LINE
8
BLACK
6
CONTINUOUS
10
0.311364
20
-3.45763
11
0.299079
21
-3.45227
0
LINE
8
BLACK
6
CONTINUOUS
10
0.299079
20
-3.45227
11
0.287469
21
-3.44556
0
LINE
8
BLACK
6
CONTINUOUS
10
0.287469
20
-3.44556
11
0.276679
21
-3.43761
0
LINE
8
BLACK
6
CONTINUOUS
10
0.276679
20
-3.43761
11
0.266842
21
-3.4285
0
LINE
8
BLACK
6
CONTINUOUS
10
0.266842
20
-3.4285
11
0.258083
21
-3.41835
0
LINE
8
BLACK
6
CONTINUOUS
10
0.258083
20
-3.41835
11
0.250509
21
-3.40729
0
LINE
8
BLACK
6
CONTINUOUS
10
0.250509
20
-3.40729
11
0.244215
21
-3.39545
0
LINE
8
BLACK
6
CONTINUOUS
10
0.244215
20
-3.39545
11
0.23928
21
-3.38299
0
LINE
8
BLACK
6
CONTINUOUS
10
0.23928
20
-3.38299
11
0.235765
21
-3.37005
0
LINE
8
BLACK
6
CONTINUOUS
10
0.235765
20
-3.37005
11
0.233714
21
-3.3568
0
LINE
8
BLACK
6
CONTINUOUS
10
0.233714
20
-3.3568
11
0.233153
21
-3.34341
0
LINE
8
BLACK
6
CONTINUOUS
10
0.233153
20
-3.34341
11
0.234088
21
-3.33004
0
LINE
8
BLACK
6
CONTINUOUS
10
0.234088
20
-3.33004
11
0.236508
21
-3.31685
0
LINE
8
BLACK
6
CONTINUOUS
10
0.236508
20
-3.31685
11
0.240383
21
-3.30402
0
LINE
8
BLACK
6
CONTINUOUS
10
0.240383
20
-3.30402
11
0.245664
21
-3.29169
0
LINE
8
BLACK
6
CONTINUOUS
10
0.245664
20
-3.29169
11
0.252286
21
-3.28004
0
LINE
8
BLACK
6
CONTINUOUS
10
0.252286
20
-3.28004
11
0.260165
21
-3.26919
0
LINE
8
BLACK
6
CONTINUOUS
10
0.260165
20
-3.26919
11
0.269205
21
-3.25929
0
LINE
8
BLACK
6
CONTINUOUS
10
0.269205
20
-3.25929
11
0.279292
21
-3.25046
0
LINE
8
BLACK
6
CONTINUOUS
10
0.279292
20
-3.25046
11
0.2903
21
-3.24281
0
LINE
8
BLACK
6
CONTINUOUS
10
0.2903
20
-3.24281
11
0.302093
21
-3.23644
0
LINE
8
BLACK
6
CONTINUOUS
10
0.302093
20
-3.23644
11
0.314523
21
-3.23141
0
LINE
8
BLACK
6
CONTINUOUS
10
0.314523
20
-3.23141
11
0.327435
21
-3.22781
0
LINE
8
BLACK
6
CONTINUOUS
10
0.327435
20
-3.22781
11
0.340668
21
-3.22567
0
LINE
8
BLACK
6
CONTINUOUS
10
0.340668
20
-3.22567
11
0.354058
21
-3.22501
0
LINE
8
BLACK
6
CONTINUOUS
10
0.354058
20
-3.22501
11
0.367438
21
-3.22585
0
LINE
8
BLACK
6
CONTINUOUS
10
2.46827
20
-3.4102
11
2.41323
21
-3.4102
0
LINE
8
BLACK
6
CONTINUOUS
10
2.41323
20
-3.4102
11
2.41323
21
-3.35516
0
LINE
8
BLACK
6
CONTINUOUS
10
2.41323
20
-3.35516
11
2.46827
21
-3.35516
0
LINE
8
BLACK
6
CONTINUOUS
10
2.46827
20
-3.35516
11
2.46827
21
-3.4102
0
LINE
8
BLACK
6
CONTINUOUS
10
2.2842
20
-3.35537
11
2.29061
21
-3.35699
0
LINE
8
BLACK
6
CONTINUOUS
10
2.29061
20
-3.35699
11
2.29645
21
-3.36008
0
LINE
8
BLACK
6
CONTINUOUS
10
2.29645
20
-3.36008
11
2.30139
21
-3.36448
0
LINE
8
BLACK
6
CONTINUOUS
10
2.30139
20
-3.36448
11
2.30514
21
-3.36993
0
LINE
8
BLACK
6
CONTINUOUS
10
2.30514
20
-3.36993
11
2.30747
21
-3.37611
0
LINE
8
BLACK
6
CONTINUOUS
10
2.30747
20
-3.37611
11
2.30827
21
-3.38268
0
LINE
8
BLACK
6
CONTINUOUS
10
2.30827
20
-3.38268
11
2.30826
21
-3.38325
0
LINE
8
BLACK
6
CONTINUOUS
10
2.30826
20
-3.38325
11
2.30733
21
-3.3898
0
LINE
8
BLACK
6
CONTINUOUS
10
2.30733
20
-3.3898
11
2.30486
21
-3.39593
0
LINE
8
BLACK
6
CONTINUOUS
10
2.30486
20
-3.39593
11
2.30101
21
-3.4013
0
LINE
8
BLACK
6
CONTINUOUS
10
2.30101
20
-3.4013
11
2.29598
21
-3.4056
0
LINE
8
BLACK
6
CONTINUOUS
10
2.29598
20
-3.4056
11
2.29007
21
-3.40857
0
LINE
8
BLACK
6
CONTINUOUS
10
2.29007
20
-3.40857
11
2.28362
21
-3.41005
0
LINE
8
BLACK
6
CONTINUOUS
10
2.28362
20
-3.41005
11
2.27701
21
-3.40994
0
LINE
8
BLACK
6
CONTINUOUS
10
2.27701
20
-3.40994
11
2.27062
21
-3.40826
0
LINE
8
BLACK
6
CONTINUOUS
10
2.27062
20
-3.40826
11
2.26481
21
-3.40511
0
LINE
8
BLACK
6
CONTINUOUS
10
2.26481
20
-3.40511
11
2.25992
21
-3.40066
0
LINE
8
BLACK
6
CONTINUOUS
10
2.25992
20
-3.40066
11
2.25623
21
-3.39517
0
LINE
8
BLACK
6
CONTINUOUS
10
2.25623
20
-3.39517
11
2.25396
21
-3.38896
0
LINE
8
BLACK
6
CONTINUOUS
10
2.25396
20
-3.38896
11
2.25323
21
-3.38239
0
LINE
8
BLACK
6
CONTINUOUS
10
2.25323
20
-3.38239
11
2.25409
21
-3.37583
0
LINE
8
BLACK
6
CONTINUOUS
10
2.25409
20
-3.37583
11
2.25649
21
-3.36967
0
LINE
8
BLACK
6
CONTINUOUS
10
2.25649
20
-3.36967
11
2.2603
21
-3.36426
0
LINE
8
BLACK
6
CONTINUOUS
10
2.2603
20
-3.36426
11
2.26528
21
-3.35992
0
LINE
8
BLACK
6
CONTINUOUS
10
2.26528
20
-3.35992
11
2.27116
21
-3.35688
0
LINE
8
BLACK
6
CONTINUOUS
10
2.27116
20
-3.35688
11
2.27758
21
-3.35534
0
LINE
8
BLACK
6
CONTINUOUS
10
2.27758
20
-3.35534
11
2.2842
21
-3.35537
0
LINE
8
BLACK
6
CONTINUOUS
10
2.0442
20
-3.35537
11
2.05061
21
-3.35699
0
LINE
8
BLACK
6
CONTINUOUS
10
2.05061
20
-3.35699
11
2.05645
21
-3.36008
0
LINE
8
BLACK
6
CONTINUOUS
10
2.05645
20
-3.36008
11
2.06139
21
-3.36448
0
LINE
8
BLACK
6
CONTINUOUS
10
2.06139
20
-3.36448
11
2.06514
21
-3.36993
0
LINE
8
BLACK
6
CONTINUOUS
10
2.06514
20
-3.36993
11
2.06747
21
-3.37611
0
LINE
8
BLACK
6
CONTINUOUS
10
2.06747
20
-3.37611
11
2.06827
21
-3.38268
0
LINE
8
BLACK
6
CONTINUOUS
10
2.06827
20
-3.38268
11
2.06826
21
-3.38325
0
LINE
8
BLACK
6
CONTINUOUS
10
2.06826
20
-3.38325
11
2.06733
21
-3.3898
0
LINE
8
BLACK
6
CONTINUOUS
10
2.06733
20
-3.3898
11
2.06486
21
-3.39593
0
LINE
8
BLACK
6
CONTINUOUS
10
2.06486
20
-3.39593
11
2.06101
21
-3.4013
0
LINE
8
BLACK
6
CONTINUOUS
10
2.06101
20
-3.4013
11
2.05598
21
-3.4056
0
LINE
8
BLACK
6
CONTINUOUS
10
2.05598
20
-3.4056
11
2.05007
21
-3.40857
0
LINE
8
BLACK
6
CONTINUOUS
10
2.05007
20
-3.40857
11
2.04362
21
-3.41005
0
LINE
8
BLACK
6
CONTINUOUS
10
2.04362
20
-3.41005
11
2.03701
21
-3.40994
0
LINE
8
BLACK
6
CONTINUOUS
10
2.03701
20
-3.40994
11
2.03062
21
-3.40826
0
LINE
8
BLACK
6
CONTINUOUS
10
2.03062
20
-3.40826
11
2.02481
21
-3.40511
0
LINE
8
BLACK
6
CONTINUOUS
10
2.02481
20
-3.40511
11
2.01992
21
-3.40066
0
LINE
8
BLACK
6
CONTINUOUS
10
2.01992
20
-3.40066
11
2.01623
21
-3.39517
0
LINE
8
BLACK
6
CONTINUOUS
10
2.01623
20
-3.39517
11
2.01396
21
-3.38896
0
LINE
8
BLACK
6
CONTINUOUS
10
2.01396
20
-3.38896
11
2.01323
21
-3.38239
0
LINE
8
BLACK
6
CONTINUOUS
10
2.01323
20
-3.38239
11
2.01409
21
-3.37583
0
LINE
8
BLACK
6
CONTINUOUS
10
2.01409
20
-3.37583
11
2.01649
21
-3.36967
0
LINE
8
BLACK
6
CONTINUOUS
10
2.01649
20
-3.36967
11
2.0203
21
-3.36426
0
LINE
8
BLACK
6
CONTINUOUS
10
2.0203
20
-3.36426
11
2.02528
21
-3.35992
0
LINE
8
BLACK
6
CONTINUOUS
10
2.02528
20
-3.35992
11
2.03116
21
-3.35688
0
LINE
8
BLACK
6
CONTINUOUS
10
2.03116
20
-3.35688
11
2.03758
21
-3.35534
0
LINE
8
BLACK
6
CONTINUOUS
10
2.03758
20
-3.35534
11
2.0442
21
-3.35537
0
LINE
8
BLACK
6
CONTINUOUS
10
2.1242
20
-3.35537
11
2.13061
21
-3.35699
0
LINE
8
BLACK
6
CONTINUOUS
10
2.13061
20
-3.35699
11
2.13645
21
-3.36008
0
LINE
8
BLACK
6
CONTINUOUS
10
2.13645
20
-3.36008
11
2.14139
21
-3.36448
0
LINE
8
BLACK
6
CONTINUOUS
10
2.14139
20
-3.36448
11
2.14514
21
-3.36993
0
LINE
8
BLACK
6
CONTINUOUS
10
2.14514
20
-3.36993
11
2.14747
21
-3.37611
0
LINE
8
BLACK
6
CONTINUOUS
10
2.14747
20
-3.37611
11
2.14827
21
-3.38268
0
LINE
8
BLACK
6
CONTINUOUS
10
2.14827
20
-3.38268
11
2.14826
21
-3.38325
0
LINE
8
BLACK
6
CONTINUOUS
10
2.14826
20
-3.38325
11
2.14733
21
-3.3898
0
LINE
8
BLACK
6
CONTINUOUS
10
2.14733
20
-3.3898
11
2.14486
21
-3.39593
0
LINE
8
BLACK
6
CONTINUOUS
10
2.14486
20
-3.39593
11
2.14101
21
-3.4013
0
LINE
8
BLACK
6
CONTINUOUS
10
2.14101
20
-3.4013
11
2.13598
21
-3.4056
0
LINE
8
BLACK
6
CONTINUOUS
10
2.13598
20
-3.4056
11
2.13007
21
-3.40857
0
LINE
8
BLACK
6
CONTINUOUS
10
2.13007
20
-3.40857
11
2.12362
21
-3.41005
0
LINE
8
BLACK
6
CONTINUOUS
10
2.12362
20
-3.41005
11
2.11701
21
-3.40994
0
LINE
8
BLACK
6
CONTINUOUS
10
2.11701
20
-3.40994
11
2.11062
21
-3.40826
0
LINE
8
BLACK
6
CONTINUOUS
10
2.11062
20
-3.40826
11
2.10481
21
-3.40511
0
LINE
8
BLACK
6
CONTINUOUS
10
2.10481
20
-3.40511
11
2.09992
21
-3.40066
0
LINE
8
BLACK
6
CONTINUOUS
10
2.09992
20
-3.40066
11
2.09623
21
-3.39517
0
LINE
8
BLACK
6
CONTINUOUS
10
2.09623
20
-3.39517
11
2.09396
21
-3.38896
0
LINE
8
BLACK
6
CONTINUOUS
10
2.09396
20
-3.38896
11
2.09323
21
-3.38239
0
LINE
8
BLACK
6
CONTINUOUS
10
2.09323
20
-3.38239
11
2.09409
21
-3.37583
0
LINE
8
BLACK
6
CONTINUOUS
10
2.09409
20
-3.37583
11
2.09649
21
-3.36967
0
LINE
8
BLACK
6
CONTINUOUS
10
2.09649
20
-3.36967
11
2.1003
21
-3.36426
0
LINE
8
BLACK
6
CONTINUOUS
10
2.1003
20
-3.36426
11
2.10528
21
-3.35992
0
LINE
8
BLACK
6
CONTINUOUS
10
2.10528
20
-3.35992
11
2.11116
21
-3.35688
0
LINE
8
BLACK
6
CONTINUOUS
10
2.11116
20
-3.35688
11
2.11759
21
-3.35534
0
LINE
8
BLACK
6
CONTINUOUS
10
2.11759
20
-3.35534
11
2.1242
21
-3.35537
0
LINE
8
BLACK
6
CONTINUOUS
10
2.2042
20
-3.35537
11
2.21061
21
-3.35699
0
LINE
8
BLACK
6
CONTINUOUS
10
2.21061
20
-3.35699
11
2.21645
21
-3.36008
0
LINE
8
BLACK
6
CONTINUOUS
10
2.21645
20
-3.36008
11
2.22139
21
-3.36448
0
LINE
8
BLACK
6
CONTINUOUS
10
2.22139
20
-3.36448
11
2.22514
21
-3.36993
0
LINE
8
BLACK
6
CONTINUOUS
10
2.22514
20
-3.36993
11
2.22747
21
-3.37611
0
LINE
8
BLACK
6
CONTINUOUS
10
2.22747
20
-3.37611
11
2.22827
21
-3.38268
0
LINE
8
BLACK
6
CONTINUOUS
10
2.22827
20
-3.38268
11
2.22826
21
-3.38325
0
LINE
8
BLACK
6
CONTINUOUS
10
2.22826
20
-3.38325
11
2.22733
21
-3.3898
0
LINE
8
BLACK
6
CONTINUOUS
10
2.22733
20
-3.3898
11
2.22486
21
-3.39593
0
LINE
8
BLACK
6
CONTINUOUS
10
2.22486
20
-3.39593
11
2.22101
21
-3.4013
0
LINE
8
BLACK
6
CONTINUOUS
10
2.22101
20
-3.4013
11
2.21598
21
-3.4056
0
LINE
8
BLACK
6
CONTINUOUS
10
2.21598
20
-3.4056
11
2.21007
21
-3.40857
0
LINE
8
BLACK
6
CONTINUOUS
10
2.21007
20
-3.40857
11
2.20362
21
-3.41005
0
LINE
8
BLACK
6
CONTINUOUS
10
2.20362
20
-3.41005
11
2.19701
21
-3.40994
0
LINE
8
BLACK
6
CONTINUOUS
10
2.19701
20
-3.40994
11
2.19062
21
-3.40826
0
LINE
8
BLACK
6
CONTINUOUS
10
2.19062
20
-3.40826
11
2.18481
21
-3.40511
0
LINE
8
BLACK
6
CONTINUOUS
10
2.18481
20
-3.40511
11
2.17992
21
-3.40066
0
LINE
8
BLACK
6
CONTINUOUS
10
2.17992
20
-3.40066
11
2.17623
21
-3.39517
0
LINE
8
BLACK
6
CONTINUOUS
10
2.17623
20
-3.39517
11
2.17396
21
-3.38896
0
LINE
8
BLACK
6
CONTINUOUS
10
2.17396
20
-3.38896
11
2.17323
21
-3.38239
0
LINE
8
BLACK
6
CONTINUOUS
10
2.17323
20
-3.38239
11
2.17409
21
-3.37583
0
LINE
8
BLACK
6
CONTINUOUS
10
2.17409
20
-3.37583
11
2.17649
21
-3.36967
0
LINE
8
BLACK
6
CONTINUOUS
10
2.17649
20
-3.36967
11
2.1803
21
-3.36426
0
LINE
8
BLACK
6
CONTINUOUS
10
2.1803
20
-3.36426
11
2.18528
21
-3.35992
0
LINE
8
BLACK
6
CONTINUOUS
10
2.18528
20
-3.35992
11
2.19116
21
-3.35688
0
LINE
8
BLACK
6
CONTINUOUS
10
2.19116
20
-3.35688
11
2.19759
21
-3.35534
0
LINE
8
BLACK
6
CONTINUOUS
10
2.19759
20
-3.35534
11
2.2042
21
-3.35537
0
LINE
8
BLACK
6
CONTINUOUS
10
2.3642
20
-3.35537
11
2.37061
21
-3.35699
0
LINE
8
BLACK
6
CONTINUOUS
10
2.37061
20
-3.35699
11
2.37645
21
-3.36008
0
LINE
8
BLACK
6
CONTINUOUS
10
2.37645
20
-3.36008
11
2.38139
21
-3.36448
0
LINE
8
BLACK
6
CONTINUOUS
10
2.38139
20
-3.36448
11
2.38514
21
-3.36993
0
LINE
8
BLACK
6
CONTINUOUS
10
2.38514
20
-3.36993
11
2.38747
21
-3.37611
0
LINE
8
BLACK
6
CONTINUOUS
10
2.38747
20
-3.37611
11
2.38827
21
-3.38268
0
LINE
8
BLACK
6
CONTINUOUS
10
2.38827
20
-3.38268
11
2.38826
21
-3.38325
0
LINE
8
BLACK
6
CONTINUOUS
10
2.38826
20
-3.38325
11
2.38733
21
-3.3898
0
LINE
8
BLACK
6
CONTINUOUS
10
2.38733
20
-3.3898
11
2.38486
21
-3.39593
0
LINE
8
BLACK
6
CONTINUOUS
10
2.38486
20
-3.39593
11
2.38101
21
-3.4013
0
LINE
8
BLACK
6
CONTINUOUS
10
2.38101
20
-3.4013
11
2.37598
21
-3.4056
0
LINE
8
BLACK
6
CONTINUOUS
10
2.37598
20
-3.4056
11
2.37007
21
-3.40857
0
LINE
8
BLACK
6
CONTINUOUS
10
2.37007
20
-3.40857
11
2.36362
21
-3.41005
0
LINE
8
BLACK
6
CONTINUOUS
10
2.36362
20
-3.41005
11
2.35701
21
-3.40994
0
LINE
8
BLACK
6
CONTINUOUS
10
2.35701
20
-3.40994
11
2.35062
21
-3.40826
0
LINE
8
BLACK
6
CONTINUOUS
10
2.35062
20
-3.40826
11
2.34481
21
-3.40511
0
LINE
8
BLACK
6
CONTINUOUS
10
2.34481
20
-3.40511
11
2.33992
21
-3.40066
0
LINE
8
BLACK
6
CONTINUOUS
10
2.33992
20
-3.40066
11
2.33623
21
-3.39517
0
LINE
8
BLACK
6
CONTINUOUS
10
2.33623
20
-3.39517
11
2.33396
21
-3.38896
0
LINE
8
BLACK
6
CONTINUOUS
10
2.33396
20
-3.38896
11
2.33323
21
-3.38239
0
LINE
8
BLACK
6
CONTINUOUS
10
2.33323
20
-3.38239
11
2.33409
21
-3.37583
0
LINE
8
BLACK
6
CONTINUOUS
10
2.33409
20
-3.37583
11
2.33649
21
-3.36967
0
LINE
8
BLACK
6
CONTINUOUS
10
2.33649
20
-3.36967
11
2.3403
21
-3.36426
0
LINE
8
BLACK
6
CONTINUOUS
10
2.3403
20
-3.36426
11
2.34528
21
-3.35992
0
LINE
8
BLACK
6
CONTINUOUS
10
2.34528
20
-3.35992
11
2.35116
21
-3.35688
0
LINE
8
BLACK
6
CONTINUOUS
10
2.35116
20
-3.35688
11
2.35758
21
-3.35534
0
LINE
8
BLACK
6
CONTINUOUS
10
2.35758
20
-3.35534
11
2.3642
21
-3.35537
0
LINE
8
BLACK
6
CONTINUOUS
10
2.4842
20
-3.25537
11
2.49061
21
-3.25699
0
LINE
8
BLACK
6
CONTINUOUS
10
2.49061
20
-3.25699
11
2.49645
21
-3.26008
0
LINE
8
BLACK
6
CONTINUOUS
10
2.49645
20
-3.26008
11
2.50139
21
-3.26448
0
LINE
8
BLACK
6
CONTINUOUS
10
2.50139
20
-3.26448
11
2.50514
21
-3.26993
0
LINE
8
BLACK
6
CONTINUOUS
10
2.50514
20
-3.26993
11
2.50747
21
-3.27611
0
LINE
8
BLACK
6
CONTINUOUS
10
2.50747
20
-3.27611
11
2.50827
21
-3.28268
0
LINE
8
BLACK
6
CONTINUOUS
10
2.50827
20
-3.28268
11
2.50826
21
-3.28325
0
LINE
8
BLACK
6
CONTINUOUS
10
2.50826
20
-3.28325
11
2.50733
21
-3.2898
0
LINE
8
BLACK
6
CONTINUOUS
10
2.50733
20
-3.2898
11
2.50486
21
-3.29593
0
LINE
8
BLACK
6
CONTINUOUS
10
2.50486
20
-3.29593
11
2.50101
21
-3.3013
0
LINE
8
BLACK
6
CONTINUOUS
10
2.50101
20
-3.3013
11
2.49598
21
-3.3056
0
LINE
8
BLACK
6
CONTINUOUS
10
2.49598
20
-3.3056
11
2.49007
21
-3.30857
0
LINE
8
BLACK
6
CONTINUOUS
10
2.49007
20
-3.30857
11
2.48362
21
-3.31005
0
LINE
8
BLACK
6
CONTINUOUS
10
2.48362
20
-3.31005
11
2.47701
21
-3.30994
0
LINE
8
BLACK
6
CONTINUOUS
10
2.47701
20
-3.30994
11
2.47062
21
-3.30826
0
LINE
8
BLACK
6
CONTINUOUS
10
2.47062
20
-3.30826
11
2.46481
21
-3.30511
0
LINE
8
BLACK
6
CONTINUOUS
10
2.46481
20
-3.30511
11
2.45992
21
-3.30066
0
LINE
8
BLACK
6
CONTINUOUS
10
2.45992
20
-3.30066
11
2.45623
21
-3.29517
0
LINE
8
BLACK
6
CONTINUOUS
10
2.45623
20
-3.29517
11
2.45396
21
-3.28896
0
LINE
8
BLACK
6
CONTINUOUS
10
2.45396
20
-3.28896
11
2.45323
21
-3.28239
0
LINE
8
BLACK
6
CONTINUOUS
10
2.45323
20
-3.28239
11
2.45409
21
-3.27583
0
LINE
8
BLACK
6
CONTINUOUS
10
2.45409
20
-3.27583
11
2.45649
21
-3.26967
0
LINE
8
BLACK
6
CONTINUOUS
10
2.45649
20
-3.26967
11
2.4603
21
-3.26426
0
LINE
8
BLACK
6
CONTINUOUS
10
2.4603
20
-3.26426
11
2.46528
21
-3.25992
0
LINE
8
BLACK
6
CONTINUOUS
10
2.46528
20
-3.25992
11
2.47116
21
-3.25688
0
LINE
8
BLACK
6
CONTINUOUS
10
2.47116
20
-3.25688
11
2.47758
21
-3.25534
0
LINE
8
BLACK
6
CONTINUOUS
10
2.47758
20
-3.25534
11
2.4842
21
-3.25537
0
LINE
8
BLACK
6
CONTINUOUS
10
2.4042
20
-3.25537
11
2.41061
21
-3.25699
0
LINE
8
BLACK
6
CONTINUOUS
10
2.41061
20
-3.25699
11
2.41645
21
-3.26008
0
LINE
8
BLACK
6
CONTINUOUS
10
2.41645
20
-3.26008
11
2.42139
21
-3.26448
0
LINE
8
BLACK
6
CONTINUOUS
10
2.42139
20
-3.26448
11
2.42514
21
-3.26993
0
LINE
8
BLACK
6
CONTINUOUS
10
2.42514
20
-3.26993
11
2.42747
21
-3.27611
0
LINE
8
BLACK
6
CONTINUOUS
10
2.42747
20
-3.27611
11
2.42827
21
-3.28268
0
LINE
8
BLACK
6
CONTINUOUS
10
2.42827
20
-3.28268
11
2.42826
21
-3.28325
0
LINE
8
BLACK
6
CONTINUOUS
10
2.42826
20
-3.28325
11
2.42733
21
-3.2898
0
LINE
8
BLACK
6
CONTINUOUS
10
2.42733
20
-3.2898
11
2.42486
21
-3.29593
0
LINE
8
BLACK
6
CONTINUOUS
10
2.42486
20
-3.29593
11
2.42101
21
-3.3013
0
LINE
8
BLACK
6
CONTINUOUS
10
2.42101
20
-3.3013
11
2.41598
21
-3.3056
0
LINE
8
BLACK
6
CONTINUOUS
10
2.41598
20
-3.3056
11
2.41007
21
-3.30857
0
LINE
8
BLACK
6
CONTINUOUS
10
2.41007
20
-3.30857
11
2.40362
21
-3.31005
0
LINE
8
BLACK
6
CONTINUOUS
10
2.40362
20
-3.31005
11
2.39701
21
-3.30994
0
LINE
8
BLACK
6
CONTINUOUS
10
2.39701
20
-3.30994
11
2.39062
21
-3.30826
0
LINE
8
BLACK
6
CONTINUOUS
10
2.39062
20
-3.30826
11
2.38481
21
-3.30511
0
LINE
8
BLACK
6
CONTINUOUS
10
2.38481
20
-3.30511
11
2.37992
21
-3.30066
0
LINE
8
BLACK
6
CONTINUOUS
10
2.37992
20
-3.30066
11
2.37623
21
-3.29517
0
LINE
8
BLACK
6
CONTINUOUS
10
2.37623
20
-3.29517
11
2.37396
21
-3.28896
0
LINE
8
BLACK
6
CONTINUOUS
10
2.37396
20
-3.28896
11
2.37323
21
-3.28239
0
LINE
8
BLACK
6
CONTINUOUS
10
2.37323
20
-3.28239
11
2.37409
21
-3.27583
0
LINE
8
BLACK
6
CONTINUOUS
10
2.37409
20
-3.27583
11
2.37649
21
-3.26967
0
LINE
8
BLACK
6
CONTINUOUS
10
2.37649
20
-3.26967
11
2.3803
21
-3.26426
0
LINE
8
BLACK
6
CONTINUOUS
10
2.3803
20
-3.26426
11
2.38528
21
-3.25992
0
LINE
8
BLACK
6
CONTINUOUS
10
2.38528
20
-3.25992
11
2.39116
21
-3.25688
0
LINE
8
BLACK
6
CONTINUOUS
10
2.39116
20
-3.25688
11
2.39758
21
-3.25534
0
LINE
8
BLACK
6
CONTINUOUS
10
2.39758
20
-3.25534
11
2.4042
21
-3.25537
0
LINE
8
BLACK
6
CONTINUOUS
10
2.3242
20
-3.25537
11
2.33061
21
-3.25699
0
LINE
8
BLACK
6
CONTINUOUS
10
2.33061
20
-3.25699
11
2.33645
21
-3.26008
0
LINE
8
BLACK
6
CONTINUOUS
10
2.33645
20
-3.26008
11
2.34139
21
-3.26448
0
LINE
8
BLACK
6
CONTINUOUS
10
2.34139
20
-3.26448
11
2.34514
21
-3.26993
0
LINE
8
BLACK
6
CONTINUOUS
10
2.34514
20
-3.26993
11
2.34747
21
-3.27611
0
LINE
8
BLACK
6
CONTINUOUS
10
2.34747
20
-3.27611
11
2.34827
21
-3.28268
0
LINE
8
BLACK
6
CONTINUOUS
10
2.34827
20
-3.28268
11
2.34826
21
-3.28325
0
LINE
8
BLACK
6
CONTINUOUS
10
2.34826
20
-3.28325
11
2.34733
21
-3.2898
0
LINE
8
BLACK
6
CONTINUOUS
10
2.34733
20
-3.2898
11
2.34486
21
-3.29593
0
LINE
8
BLACK
6
CONTINUOUS
10
2.34486
20
-3.29593
11
2.34101
21
-3.3013
0
LINE
8
BLACK
6
CONTINUOUS
10
2.34101
20
-3.3013
11
2.33598
21
-3.3056
0
LINE
8
BLACK
6
CONTINUOUS
10
2.33598
20
-3.3056
11
2.33007
21
-3.30857
0
LINE
8
BLACK
6
CONTINUOUS
10
2.33007
20
-3.30857
11
2.32362
21
-3.31005
0
LINE
8
BLACK
6
CONTINUOUS
10
2.32362
20
-3.31005
11
2.31701
21
-3.30994
0
LINE
8
BLACK
6
CONTINUOUS
10
2.31701
20
-3.30994
11
2.31062
21
-3.30826
0
LINE
8
BLACK
6
CONTINUOUS
10
2.31062
20
-3.30826
11
2.30481
21
-3.30511
0
LINE
8
BLACK
6
CONTINUOUS
10
2.30481
20
-3.30511
11
2.29992
21
-3.30066
0
LINE
8
BLACK
6
CONTINUOUS
10
2.29992
20
-3.30066
11
2.29623
21
-3.29517
0
LINE
8
BLACK
6
CONTINUOUS
10
2.29623
20
-3.29517
11
2.29396
21
-3.28896
0
LINE
8
BLACK
6
CONTINUOUS
10
2.29396
20
-3.28896
11
2.29323
21
-3.28239
0
LINE
8
BLACK
6
CONTINUOUS
10
2.29323
20
-3.28239
11
2.29409
21
-3.27583
0
LINE
8
BLACK
6
CONTINUOUS
10
2.29409
20
-3.27583
11
2.29649
21
-3.26967
0
LINE
8
BLACK
6
CONTINUOUS
10
2.29649
20
-3.26967
11
2.3003
21
-3.26426
0
LINE
8
BLACK
6
CONTINUOUS
10
2.3003
20
-3.26426
11
2.30528
21
-3.25992
0
LINE
8
BLACK
6
CONTINUOUS
10
2.30528
20
-3.25992
11
2.31116
21
-3.25688
0
LINE
8
BLACK
6
CONTINUOUS
10
2.31116
20
-3.25688
11
2.31758
21
-3.25534
0
LINE
8
BLACK
6
CONTINUOUS
10
2.31758
20
-3.25534
11
2.3242
21
-3.25537
0
LINE
8
BLACK
6
CONTINUOUS
10
2.1642
20
-3.25537
11
2.17061
21
-3.25699
0
LINE
8
BLACK
6
CONTINUOUS
10
2.17061
20
-3.25699
11
2.17645
21
-3.26008
0
LINE
8
BLACK
6
CONTINUOUS
10
2.17645
20
-3.26008
11
2.18139
21
-3.26448
0
LINE
8
BLACK
6
CONTINUOUS
10
2.18139
20
-3.26448
11
2.18514
21
-3.26993
0
LINE
8
BLACK
6
CONTINUOUS
10
2.18514
20
-3.26993
11
2.18747
21
-3.27611
0
LINE
8
BLACK
6
CONTINUOUS
10
2.18747
20
-3.27611
11
2.18827
21
-3.28268
0
LINE
8
BLACK
6
CONTINUOUS
10
2.18827
20
-3.28268
11
2.18826
21
-3.28325
0
LINE
8
BLACK
6
CONTINUOUS
10
2.18826
20
-3.28325
11
2.18733
21
-3.2898
0
LINE
8
BLACK
6
CONTINUOUS
10
2.18733
20
-3.2898
11
2.18486
21
-3.29593
0
LINE
8
BLACK
6
CONTINUOUS
10
2.18486
20
-3.29593
11
2.18101
21
-3.3013
0
LINE
8
BLACK
6
CONTINUOUS
10
2.18101
20
-3.3013
11
2.17598
21
-3.3056
0
LINE
8
BLACK
6
CONTINUOUS
10
2.17598
20
-3.3056
11
2.17007
21
-3.30857
0
LINE
8
BLACK
6
CONTINUOUS
10
2.17007
20
-3.30857
11
2.16362
21
-3.31005
0
LINE
8
BLACK
6
CONTINUOUS
10
2.16362
20
-3.31005
11
2.15701
21
-3.30994
0
LINE
8
BLACK
6
CONTINUOUS
10
2.15701
20
-3.30994
11
2.15062
21
-3.30826
0
LINE
8
BLACK
6
CONTINUOUS
10
2.15062
20
-3.30826
11
2.14481
21
-3.30511
0
LINE
8
BLACK
6
CONTINUOUS
10
2.14481
20
-3.30511
11
2.13992
21
-3.30066
0
LINE
8
BLACK
6
CONTINUOUS
10
2.13992
20
-3.30066
11
2.13623
21
-3.29517
0
LINE
8
BLACK
6
CONTINUOUS
10
2.13623
20
-3.29517
11
2.13396
21
-3.28896
0
LINE
8
BLACK
6
CONTINUOUS
10
2.13396
20
-3.28896
11
2.13323
21
-3.28239
0
LINE
8
BLACK
6
CONTINUOUS
10
2.13323
20
-3.28239
11
2.13409
21
-3.27583
0
LINE
8
BLACK
6
CONTINUOUS
10
2.13409
20
-3.27583
11
2.13649
21
-3.26967
0
LINE
8
BLACK
6
CONTINUOUS
10
2.13649
20
-3.26967
11
2.1403
21
-3.26426
0
LINE
8
BLACK
6
CONTINUOUS
10
2.1403
20
-3.26426
11
2.14528
21
-3.25992
0
LINE
8
BLACK
6
CONTINUOUS
10
2.14528
20
-3.25992
11
2.15116
21
-3.25688
0
LINE
8
BLACK
6
CONTINUOUS
10
2.15116
20
-3.25688
11
2.15759
21
-3.25534
0
LINE
8
BLACK
6
CONTINUOUS
10
2.15759
20
-3.25534
11
2.1642
21
-3.25537
0
LINE
8
BLACK
6
CONTINUOUS
10
2.0842
20
-3.25537
11
2.09061
21
-3.25699
0
LINE
8
BLACK
6
CONTINUOUS
10
2.09061
20
-3.25699
11
2.09645
21
-3.26008
0
LINE
8
BLACK
6
CONTINUOUS
10
2.09645
20
-3.26008
11
2.10139
21
-3.26448
0
LINE
8
BLACK
6
CONTINUOUS
10
2.10139
20
-3.26448
11
2.10514
21
-3.26993
0
LINE
8
BLACK
6
CONTINUOUS
10
2.10514
20
-3.26993
11
2.10747
21
-3.27611
0
LINE
8
BLACK
6
CONTINUOUS
10
2.10747
20
-3.27611
11
2.10827
21
-3.28268
0
LINE
8
BLACK
6
CONTINUOUS
10
2.10827
20
-3.28268
11
2.10826
21
-3.28325
0
LINE
8
BLACK
6
CONTINUOUS
10
2.10826
20
-3.28325
11
2.10733
21
-3.2898
0
LINE
8
BLACK
6
CONTINUOUS
10
2.10733
20
-3.2898
11
2.10486
21
-3.29593
0
LINE
8
BLACK
6
CONTINUOUS
10
2.10486
20
-3.29593
11
2.10101
21
-3.3013
0
LINE
8
BLACK
6
CONTINUOUS
10
2.10101
20
-3.3013
11
2.09598
21
-3.3056
0
LINE
8
BLACK
6
CONTINUOUS
10
2.09598
20
-3.3056
11
2.09007
21
-3.30857
0
LINE
8
BLACK
6
CONTINUOUS
10
2.09007
20
-3.30857
11
2.08362
21
-3.31005
0
LINE
8
BLACK
6
CONTINUOUS
10
2.08362
20
-3.31005
11
2.07701
21
-3.30994
0
LINE
8
BLACK
6
CONTINUOUS
10
2.07701
20
-3.30994
11
2.07062
21
-3.30826
0
LINE
8
BLACK
6
CONTINUOUS
10
2.07062
20
-3.30826
11
2.06481
21
-3.30511
0
LINE
8
BLACK
6
CONTINUOUS
10
2.06481
20
-3.30511
11
2.05992
21
-3.30066
0
LINE
8
BLACK
6
CONTINUOUS
10
2.05992
20
-3.30066
11
2.05623
21
-3.29517
0
LINE
8
BLACK
6
CONTINUOUS
10
2.05623
20
-3.29517
11
2.05396
21
-3.28896
0
LINE
8
BLACK
6
CONTINUOUS
10
2.05396
20
-3.28896
11
2.05323
21
-3.28239
0
LINE
8
BLACK
6
CONTINUOUS
10
2.05323
20
-3.28239
11
2.05409
21
-3.27583
0
LINE
8
BLACK
6
CONTINUOUS
10
2.05409
20
-3.27583
11
2.05649
21
-3.26967
0
LINE
8
BLACK
6
CONTINUOUS
10
2.05649
20
-3.26967
11
2.0603
21
-3.26426
0
LINE
8
BLACK
6
CONTINUOUS
10
2.0603
20
-3.26426
11
2.06528
21
-3.25992
0
LINE
8
BLACK
6
CONTINUOUS
10
2.06528
20
-3.25992
11
2.07116
21
-3.25688
0
LINE
8
BLACK
6
CONTINUOUS
10
2.07116
20
-3.25688
11
2.07759
21
-3.25534
0
LINE
8
BLACK
6
CONTINUOUS
10
2.07759
20
-3.25534
11
2.0842
21
-3.25537
0
LINE
8
BLACK
6
CONTINUOUS
10
2.0042
20
-3.25537
11
2.01061
21
-3.25699
0
LINE
8
BLACK
6
CONTINUOUS
10
2.01061
20
-3.25699
11
2.01645
21
-3.26008
0
LINE
8
BLACK
6
CONTINUOUS
10
2.01645
20
-3.26008
11
2.02139
21
-3.26448
0
LINE
8
BLACK
6
CONTINUOUS
10
2.02139
20
-3.26448
11
2.02514
21
-3.26993
0
LINE
8
BLACK
6
CONTINUOUS
10
2.02514
20
-3.26993
11
2.02747
21
-3.27611
0
LINE
8
BLACK
6
CONTINUOUS
10
2.02747
20
-3.27611
11
2.02827
21
-3.28268
0
LINE
8
BLACK
6
CONTINUOUS
10
2.02827
20
-3.28268
11
2.02826
21
-3.28325
0
LINE
8
BLACK
6
CONTINUOUS
10
2.02826
20
-3.28325
11
2.02733
21
-3.2898
0
LINE
8
BLACK
6
CONTINUOUS
10
2.02733
20
-3.2898
11
2.02486
21
-3.29593
0
LINE
8
BLACK
6
CONTINUOUS
10
2.02486
20
-3.29593
11
2.02101
21
-3.3013
0
LINE
8
BLACK
6
CONTINUOUS
10
2.02101
20
-3.3013
11
2.01598
21
-3.3056
0
LINE
8
BLACK
6
CONTINUOUS
10
2.01598
20
-3.3056
11
2.01007
21
-3.30857
0
LINE
8
BLACK
6
CONTINUOUS
10
2.01007
20
-3.30857
11
2.00362
21
-3.31005
0
LINE
8
BLACK
6
CONTINUOUS
10
2.00362
20
-3.31005
11
1.99701
21
-3.30994
0
LINE
8
BLACK
6
CONTINUOUS
10
1.99701
20
-3.30994
11
1.99062
21
-3.30826
0
LINE
8
BLACK
6
CONTINUOUS
10
1.99062
20
-3.30826
11
1.98481
21
-3.30511
0
LINE
8
BLACK
6
CONTINUOUS
10
1.98481
20
-3.30511
11
1.97992
21
-3.30066
0
LINE
8
BLACK
6
CONTINUOUS
10
1.97992
20
-3.30066
11
1.97623
21
-3.29517
0
LINE
8
BLACK
6
CONTINUOUS
10
1.97623
20
-3.29517
11
1.97396
21
-3.28896
0
LINE
8
BLACK
6
CONTINUOUS
10
1.97396
20
-3.28896
11
1.97323
21
-3.28239
0
LINE
8
BLACK
6
CONTINUOUS
10
1.97323
20
-3.28239
11
1.97409
21
-3.27583
0
LINE
8
BLACK
6
CONTINUOUS
10
1.97409
20
-3.27583
11
1.97649
21
-3.26967
0
LINE
8
BLACK
6
CONTINUOUS
10
1.97649
20
-3.26967
11
1.9803
21
-3.26426
0
LINE
8
BLACK
6
CONTINUOUS
10
1.9803
20
-3.26426
11
1.98528
21
-3.25992
0
LINE
8
BLACK
6
CONTINUOUS
10
1.98528
20
-3.25992
11
1.99116
21
-3.25688
0
LINE
8
BLACK
6
CONTINUOUS
10
1.99116
20
-3.25688
11
1.99758
21
-3.25534
0
LINE
8
BLACK
6
CONTINUOUS
10
1.99758
20
-3.25534
11
2.0042
21
-3.25537
0
LINE
8
BLACK
6
CONTINUOUS
10
2.49078
20
-3.15179
11
2.49699
21
-3.15455
0
LINE
8
BLACK
6
CONTINUOUS
10
2.49699
20
-3.15455
11
2.50248
21
-3.15854
0
LINE
8
BLACK
6
CONTINUOUS
10
2.50248
20
-3.15854
11
2.50703
21
-3.16359
0
LINE
8
BLACK
6
CONTINUOUS
10
2.50703
20
-3.16359
11
2.51042
21
-3.16947
0
LINE
8
BLACK
6
CONTINUOUS
10
2.51042
20
-3.16947
11
2.51252
21
-3.17592
0
LINE
8
BLACK
6
CONTINUOUS
10
2.51252
20
-3.17592
11
2.51323
21
-3.18268
0
LINE
8
BLACK
6
CONTINUOUS
10
2.51323
20
-3.18268
11
2.51252
21
-3.18943
0
LINE
8
BLACK
6
CONTINUOUS
10
2.51252
20
-3.18943
11
2.51042
21
-3.19589
0
LINE
8
BLACK
6
CONTINUOUS
10
2.51042
20
-3.19589
11
2.50703
21
-3.20177
0
LINE
8
BLACK
6
CONTINUOUS
10
2.50703
20
-3.20177
11
2.50248
21
-3.20681
0
LINE
8
BLACK
6
CONTINUOUS
10
2.50248
20
-3.20681
11
2.49699
21
-3.21081
0
LINE
8
BLACK
6
CONTINUOUS
10
2.49699
20
-3.21081
11
2.49078
21
-3.21357
0
LINE
8
BLACK
6
CONTINUOUS
10
2.49078
20
-3.21357
11
2.48414
21
-3.21498
0
LINE
8
BLACK
6
CONTINUOUS
10
2.48414
20
-3.21498
11
2.47735
21
-3.21498
0
LINE
8
BLACK
6
CONTINUOUS
10
2.47735
20
-3.21498
11
2.47071
21
-3.21357
0
LINE
8
BLACK
6
CONTINUOUS
10
2.47071
20
-3.21357
11
2.46451
21
-3.21081
0
LINE
8
BLACK
6
CONTINUOUS
10
2.46451
20
-3.21081
11
2.45901
21
-3.20681
0
LINE
8
BLACK
6
CONTINUOUS
10
2.45901
20
-3.20681
11
2.45447
21
-3.20177
0
LINE
8
BLACK
6
CONTINUOUS
10
2.45447
20
-3.20177
11
2.45108
21
-3.19589
0
LINE
8
BLACK
6
CONTINUOUS
10
2.45108
20
-3.19589
11
2.44898
21
-3.18943
0
LINE
8
BLACK
6
CONTINUOUS
10
2.44898
20
-3.18943
11
2.44827
21
-3.18268
0
LINE
8
BLACK
6
CONTINUOUS
10
2.44827
20
-3.18268
11
2.44898
21
-3.17592
0
LINE
8
BLACK
6
CONTINUOUS
10
2.44898
20
-3.17592
11
2.45108
21
-3.16947
0
LINE
8
BLACK
6
CONTINUOUS
10
2.45108
20
-3.16947
11
2.45447
21
-3.16359
0
LINE
8
BLACK
6
CONTINUOUS
10
2.45447
20
-3.16359
11
2.45901
21
-3.15854
0
LINE
8
BLACK
6
CONTINUOUS
10
2.45901
20
-3.15854
11
2.46451
21
-3.15455
0
LINE
8
BLACK
6
CONTINUOUS
10
2.46451
20
-3.15455
11
2.47071
21
-3.15179
0
LINE
8
BLACK
6
CONTINUOUS
10
2.47071
20
-3.15179
11
2.47735
21
-3.15037
0
LINE
8
BLACK
6
CONTINUOUS
10
2.47735
20
-3.15037
11
2.48414
21
-3.15037
0
LINE
8
BLACK
6
CONTINUOUS
10
2.48414
20
-3.15037
11
2.49078
21
-3.15179
0
LINE
8
BLACK
6
CONTINUOUS
10
2.01078
20
-3.15179
11
2.01699
21
-3.15455
0
LINE
8
BLACK
6
CONTINUOUS
10
2.01699
20
-3.15455
11
2.02248
21
-3.15854
0
LINE
8
BLACK
6
CONTINUOUS
10
2.02248
20
-3.15854
11
2.02703
21
-3.16359
0
LINE
8
BLACK
6
CONTINUOUS
10
2.02703
20
-3.16359
11
2.03042
21
-3.16947
0
LINE
8
BLACK
6
CONTINUOUS
10
2.03042
20
-3.16947
11
2.03252
21
-3.17592
0
LINE
8
BLACK
6
CONTINUOUS
10
2.03252
20
-3.17592
11
2.03323
21
-3.18268
0
LINE
8
BLACK
6
CONTINUOUS
10
2.03323
20
-3.18268
11
2.03252
21
-3.18943
0
LINE
8
BLACK
6
CONTINUOUS
10
2.03252
20
-3.18943
11
2.03042
21
-3.19589
0
LINE
8
BLACK
6
CONTINUOUS
10
2.03042
20
-3.19589
11
2.02703
21
-3.20177
0
LINE
8
BLACK
6
CONTINUOUS
10
2.02703
20
-3.20177
11
2.02248
21
-3.20681
0
LINE
8
BLACK
6
CONTINUOUS
10
2.02248
20
-3.20681
11
2.01699
21
-3.21081
0
LINE
8
BLACK
6
CONTINUOUS
10
2.01699
20
-3.21081
11
2.01078
21
-3.21357
0
LINE
8
BLACK
6
CONTINUOUS
10
2.01078
20
-3.21357
11
2.00414
21
-3.21498
0
LINE
8
BLACK
6
CONTINUOUS
10
2.00414
20
-3.21498
11
1.99735
21
-3.21498
0
LINE
8
BLACK
6
CONTINUOUS
10
1.99735
20
-3.21498
11
1.99071
21
-3.21357
0
LINE
8
BLACK
6
CONTINUOUS
10
1.99071
20
-3.21357
11
1.98451
21
-3.21081
0
LINE
8
BLACK
6
CONTINUOUS
10
1.98451
20
-3.21081
11
1.97901
21
-3.20681
0
LINE
8
BLACK
6
CONTINUOUS
10
1.97901
20
-3.20681
11
1.97447
21
-3.20177
0
LINE
8
BLACK
6
CONTINUOUS
10
1.97447
20
-3.20177
11
1.97108
21
-3.19589
0
LINE
8
BLACK
6
CONTINUOUS
10
1.97108
20
-3.19589
11
1.96898
21
-3.18943
0
LINE
8
BLACK
6
CONTINUOUS
10
1.96898
20
-3.18943
11
1.96827
21
-3.18268
0
LINE
8
BLACK
6
CONTINUOUS
10
1.96827
20
-3.18268
11
1.96898
21
-3.17592
0
LINE
8
BLACK
6
CONTINUOUS
10
1.96898
20
-3.17592
11
1.97108
21
-3.16947
0
LINE
8
BLACK
6
CONTINUOUS
10
1.97108
20
-3.16947
11
1.97447
21
-3.16359
0
LINE
8
BLACK
6
CONTINUOUS
10
1.97447
20
-3.16359
11
1.97901
21
-3.15854
0
LINE
8
BLACK
6
CONTINUOUS
10
1.97901
20
-3.15854
11
1.98451
21
-3.15455
0
LINE
8
BLACK
6
CONTINUOUS
10
1.98451
20
-3.15455
11
1.99071
21
-3.15179
0
LINE
8
BLACK
6
CONTINUOUS
10
1.99071
20
-3.15179
11
1.99735
21
-3.15037
0
LINE
8
BLACK
6
CONTINUOUS
10
1.99735
20
-3.15037
11
2.00414
21
-3.15037
0
LINE
8
BLACK
6
CONTINUOUS
10
2.00414
20
-3.15037
11
2.01078
21
-3.15179
0
LINE
8
BLACK
6
CONTINUOUS
10
2.11078
20
-3.15179
11
2.11699
21
-3.15455
0
LINE
8
BLACK
6
CONTINUOUS
10
2.11699
20
-3.15455
11
2.12248
21
-3.15854
0
LINE
8
BLACK
6
CONTINUOUS
10
2.12248
20
-3.15854
11
2.12703
21
-3.16359
0
LINE
8
BLACK
6
CONTINUOUS
10
2.12703
20
-3.16359
11
2.13042
21
-3.16947
0
LINE
8
BLACK
6
CONTINUOUS
10
2.13042
20
-3.16947
11
2.13252
21
-3.17592
0
LINE
8
BLACK
6
CONTINUOUS
10
2.13252
20
-3.17592
11
2.13323
21
-3.18268
0
LINE
8
BLACK
6
CONTINUOUS
10
2.13323
20
-3.18268
11
2.13252
21
-3.18943
0
LINE
8
BLACK
6
CONTINUOUS
10
2.13252
20
-3.18943
11
2.13042
21
-3.19589
0
LINE
8
BLACK
6
CONTINUOUS
10
2.13042
20
-3.19589
11
2.12703
21
-3.20177
0
LINE
8
BLACK
6
CONTINUOUS
10
2.12703
20
-3.20177
11
2.12248
21
-3.20681
0
LINE
8
BLACK
6
CONTINUOUS
10
2.12248
20
-3.20681
11
2.11699
21
-3.21081
0
LINE
8
BLACK
6
CONTINUOUS
10
2.11699
20
-3.21081
11
2.11078
21
-3.21357
0
LINE
8
BLACK
6
CONTINUOUS
10
2.11078
20
-3.21357
11
2.10414
21
-3.21498
0
LINE
8
BLACK
6
CONTINUOUS
10
2.10414
20
-3.21498
11
2.09735
21
-3.21498
0
LINE
8
BLACK
6
CONTINUOUS
10
2.09735
20
-3.21498
11
2.09071
21
-3.21357
0
LINE
8
BLACK
6
CONTINUOUS
10
2.09071
20
-3.21357
11
2.08451
21
-3.21081
0
LINE
8
BLACK
6
CONTINUOUS
10
2.08451
20
-3.21081
11
2.07901
21
-3.20681
0
LINE
8
BLACK
6
CONTINUOUS
10
2.07901
20
-3.20681
11
2.07447
21
-3.20177
0
LINE
8
BLACK
6
CONTINUOUS
10
2.07447
20
-3.20177
11
2.07108
21
-3.19589
0
LINE
8
BLACK
6
CONTINUOUS
10
2.07108
20
-3.19589
11
2.06898
21
-3.18943
0
LINE
8
BLACK
6
CONTINUOUS
10
2.06898
20
-3.18943
11
2.06827
21
-3.18268
0
LINE
8
BLACK
6
CONTINUOUS
10
2.06827
20
-3.18268
11
2.06898
21
-3.17592
0
LINE
8
BLACK
6
CONTINUOUS
10
2.06898
20
-3.17592
11
2.07108
21
-3.16947
0
LINE
8
BLACK
6
CONTINUOUS
10
2.07108
20
-3.16947
11
2.07447
21
-3.16359
0
LINE
8
BLACK
6
CONTINUOUS
10
2.07447
20
-3.16359
11
2.07901
21
-3.15854
0
LINE
8
BLACK
6
CONTINUOUS
10
2.07901
20
-3.15854
11
2.08451
21
-3.15455
0
LINE
8
BLACK
6
CONTINUOUS
10
2.08451
20
-3.15455
11
2.09071
21
-3.15179
0
LINE
8
BLACK
6
CONTINUOUS
10
2.09071
20
-3.15179
11
2.09735
21
-3.15037
0
LINE
8
BLACK
6
CONTINUOUS
10
2.09735
20
-3.15037
11
2.10414
21
-3.15037
0
LINE
8
BLACK
6
CONTINUOUS
10
2.10414
20
-3.15037
11
2.11078
21
-3.15179
0
LINE
8
BLACK
6
CONTINUOUS
10
2.39079
20
-3.15179
11
2.39699
21
-3.15455
0
LINE
8
BLACK
6
CONTINUOUS
10
2.39699
20
-3.15455
11
2.40248
21
-3.15854
0
LINE
8
BLACK
6
CONTINUOUS
10
2.40248
20
-3.15854
11
2.40703
21
-3.16359
0
LINE
8
BLACK
6
CONTINUOUS
10
2.40703
20
-3.16359
11
2.41042
21
-3.16947
0
LINE
8
BLACK
6
CONTINUOUS
10
2.41042
20
-3.16947
11
2.41252
21
-3.17592
0
LINE
8
BLACK
6
CONTINUOUS
10
2.41252
20
-3.17592
11
2.41323
21
-3.18268
0
LINE
8
BLACK
6
CONTINUOUS
10
2.41323
20
-3.18268
11
2.41252
21
-3.18943
0
LINE
8
BLACK
6
CONTINUOUS
10
2.41252
20
-3.18943
11
2.41042
21
-3.19589
0
LINE
8
BLACK
6
CONTINUOUS
10
2.41042
20
-3.19589
11
2.40703
21
-3.20177
0
LINE
8
BLACK
6
CONTINUOUS
10
2.40703
20
-3.20177
11
2.40248
21
-3.20681
0
LINE
8
BLACK
6
CONTINUOUS
10
2.40248
20
-3.20681
11
2.39699
21
-3.21081
0
LINE
8
BLACK
6
CONTINUOUS
10
2.39699
20
-3.21081
11
2.39079
21
-3.21357
0
LINE
8
BLACK
6
CONTINUOUS
10
2.39079
20
-3.21357
11
2.38414
21
-3.21498
0
LINE
8
BLACK
6
CONTINUOUS
10
2.38414
20
-3.21498
11
2.37735
21
-3.21498
0
LINE
8
BLACK
6
CONTINUOUS
10
2.37735
20
-3.21498
11
2.37071
21
-3.21357
0
LINE
8
BLACK
6
CONTINUOUS
10
2.37071
20
-3.21357
11
2.36451
21
-3.21081
0
LINE
8
BLACK
6
CONTINUOUS
10
2.36451
20
-3.21081
11
2.35901
21
-3.20681
0
LINE
8
BLACK
6
CONTINUOUS
10
2.35901
20
-3.20681
11
2.35447
21
-3.20177
0
LINE
8
BLACK
6
CONTINUOUS
10
2.35447
20
-3.20177
11
2.35108
21
-3.19589
0
LINE
8
BLACK
6
CONTINUOUS
10
2.35108
20
-3.19589
11
2.34898
21
-3.18943
0
LINE
8
BLACK
6
CONTINUOUS
10
2.34898
20
-3.18943
11
2.34827
21
-3.18268
0
LINE
8
BLACK
6
CONTINUOUS
10
2.34827
20
-3.18268
11
2.34898
21
-3.17592
0
LINE
8
BLACK
6
CONTINUOUS
10
2.34898
20
-3.17592
11
2.35108
21
-3.16947
0
LINE
8
BLACK
6
CONTINUOUS
10
2.35108
20
-3.16947
11
2.35447
21
-3.16359
0
LINE
8
BLACK
6
CONTINUOUS
10
2.35447
20
-3.16359
11
2.35901
21
-3.15854
0
LINE
8
BLACK
6
CONTINUOUS
10
2.35901
20
-3.15854
11
2.36451
21
-3.15455
0
LINE
8
BLACK
6
CONTINUOUS
10
2.36451
20
-3.15455
11
2.37071
21
-3.15179
0
LINE
8
BLACK
6
CONTINUOUS
10
2.37071
20
-3.15179
11
2.37735
21
-3.15037
0
LINE
8
BLACK
6
CONTINUOUS
10
2.37735
20
-3.15037
11
2.38414
21
-3.15037
0
LINE
8
BLACK
6
CONTINUOUS
10
2.38414
20
-3.15037
11
2.39079
21
-3.15179
0
LINE
8
BLACK
6
CONTINUOUS
10
2.0344
20
-2.44914
11
2.04101
21
-2.45149
0
LINE
8
BLACK
6
CONTINUOUS
10
2.04101
20
-2.45149
11
2.04694
21
-2.45526
0
LINE
8
BLACK
6
CONTINUOUS
10
2.04694
20
-2.45526
11
2.05189
21
-2.46024
0
LINE
8
BLACK
6
CONTINUOUS
10
2.05189
20
-2.46024
11
2.05561
21
-2.46619
0
LINE
8
BLACK
6
CONTINUOUS
10
2.05561
20
-2.46619
11
2.05792
21
-2.47283
0
LINE
8
BLACK
6
CONTINUOUS
10
2.05792
20
-2.47283
11
2.0587
21
-2.4798
0
LINE
8
BLACK
6
CONTINUOUS
10
2.0587
20
-2.4798
11
2.05869
21
-2.48068
0
LINE
8
BLACK
6
CONTINUOUS
10
2.05869
20
-2.48068
11
2.05771
21
-2.48764
0
LINE
8
BLACK
6
CONTINUOUS
10
2.05771
20
-2.48764
11
2.05522
21
-2.4942
0
LINE
8
BLACK
6
CONTINUOUS
10
2.05522
20
-2.4942
11
2.05133
21
-2.50005
0
LINE
8
BLACK
6
CONTINUOUS
10
2.05133
20
-2.50005
11
2.04625
21
-2.50489
0
LINE
8
BLACK
6
CONTINUOUS
10
2.04625
20
-2.50489
11
2.04022
21
-2.50849
0
LINE
8
BLACK
6
CONTINUOUS
10
2.04022
20
-2.50849
11
2.03354
21
-2.51066
0
LINE
8
BLACK
6
CONTINUOUS
10
2.03354
20
-2.51066
11
2.02655
21
-2.51129
0
LINE
8
BLACK
6
CONTINUOUS
10
2.02655
20
-2.51129
11
2.01959
21
-2.51036
0
LINE
8
BLACK
6
CONTINUOUS
10
2.01959
20
-2.51036
11
2.013
21
-2.50792
0
LINE
8
BLACK
6
CONTINUOUS
10
2.013
20
-2.50792
11
2.00713
21
-2.50407
0
LINE
8
BLACK
6
CONTINUOUS
10
2.00713
20
-2.50407
11
2.00225
21
-2.49902
0
LINE
8
BLACK
6
CONTINUOUS
10
2.00225
20
-2.49902
11
1.99861
21
-2.49301
0
LINE
8
BLACK
6
CONTINUOUS
10
1.99861
20
-2.49301
11
1.9964
21
-2.48635
0
LINE
8
BLACK
6
CONTINUOUS
10
1.9964
20
-2.48635
11
1.99571
21
-2.47936
0
LINE
8
BLACK
6
CONTINUOUS
10
1.99571
20
-2.47936
11
1.99659
21
-2.4724
0
LINE
8
BLACK
6
CONTINUOUS
10
1.99659
20
-2.4724
11
1.99899
21
-2.4658
0
LINE
8
BLACK
6
CONTINUOUS
10
1.99899
20
-2.4658
11
2.0028
21
-2.4599
0
LINE
8
BLACK
6
CONTINUOUS
10
2.0028
20
-2.4599
11
2.00781
21
-2.45498
0
LINE
8
BLACK
6
CONTINUOUS
10
2.00781
20
-2.45498
11
2.01379
21
-2.4513
0
LINE
8
BLACK
6
CONTINUOUS
10
2.01379
20
-2.4513
11
2.02044
21
-2.44904
0
LINE
8
BLACK
6
CONTINUOUS
10
2.02044
20
-2.44904
11
2.02742
21
-2.44831
0
LINE
8
BLACK
6
CONTINUOUS
10
2.02742
20
-2.44831
11
2.0344
21
-2.44914
0
LINE
8
BLACK
6
CONTINUOUS
10
3.01706
20
-2.45889
11
3.02228
21
-2.46105
0
LINE
8
BLACK
6
CONTINUOUS
10
3.02228
20
-2.46105
11
3.02677
21
-2.46449
0
LINE
8
BLACK
6
CONTINUOUS
10
3.02677
20
-2.46449
11
3.03021
21
-2.46898
0
LINE
8
BLACK
6
CONTINUOUS
10
3.03021
20
-2.46898
11
3.03237
21
-2.4742
0
LINE
8
BLACK
6
CONTINUOUS
10
3.03237
20
-2.4742
11
3.03311
21
-2.4798
0
LINE
8
BLACK
6
CONTINUOUS
10
3.03311
20
-2.4798
11
3.03237
21
-2.48541
0
LINE
8
BLACK
6
CONTINUOUS
10
3.03237
20
-2.48541
11
3.03021
21
-2.49063
0
LINE
8
BLACK
6
CONTINUOUS
10
3.03021
20
-2.49063
11
3.02677
21
-2.49511
0
LINE
8
BLACK
6
CONTINUOUS
10
3.02677
20
-2.49511
11
3.02228
21
-2.49856
0
LINE
8
BLACK
6
CONTINUOUS
10
3.02228
20
-2.49856
11
3.01706
21
-2.50072
0
LINE
8
BLACK
6
CONTINUOUS
10
3.01706
20
-2.50072
11
3.01146
21
-2.50146
0
LINE
8
BLACK
6
CONTINUOUS
10
3.01146
20
-2.50146
11
3.00585
21
-2.50072
0
LINE
8
BLACK
6
CONTINUOUS
10
3.00585
20
-2.50072
11
3.00063
21
-2.49856
0
LINE
8
BLACK
6
CONTINUOUS
10
3.00063
20
-2.49856
11
2.99615
21
-2.49511
0
LINE
8
BLACK
6
CONTINUOUS
10
2.99615
20
-2.49511
11
2.9927
21
-2.49063
0
LINE
8
BLACK
6
CONTINUOUS
10
2.9927
20
-2.49063
11
2.99054
21
-2.48541
0
LINE
8
BLACK
6
CONTINUOUS
10
2.99054
20
-2.48541
11
2.9898
21
-2.4798
0
LINE
8
BLACK
6
CONTINUOUS
10
2.9898
20
-2.4798
11
2.99054
21
-2.4742
0
LINE
8
BLACK
6
CONTINUOUS
10
2.99054
20
-2.4742
11
2.9927
21
-2.46898
0
LINE
8
BLACK
6
CONTINUOUS
10
2.9927
20
-2.46898
11
2.99615
21
-2.46449
0
LINE
8
BLACK
6
CONTINUOUS
10
2.99615
20
-2.46449
11
3.00063
21
-2.46105
0
LINE
8
BLACK
6
CONTINUOUS
10
3.00063
20
-2.46105
11
3.00585
21
-2.45889
0
LINE
8
BLACK
6
CONTINUOUS
10
3.00585
20
-2.45889
11
3.01146
21
-2.45815
0
LINE
8
BLACK
6
CONTINUOUS
10
3.01146
20
-2.45815
11
3.01706
21
-2.45889
0
LINE
8
BLACK
6
CONTINUOUS
10
1.66665
20
-1.33609
11
1.67985
21
-1.33842
0
LINE
8
BLACK
6
CONTINUOUS
10
1.67985
20
-1.33842
11
1.69271
21
-1.3422
0
LINE
8
BLACK
6
CONTINUOUS
10
1.69271
20
-1.3422
11
1.70507
21
-1.3474
0
LINE
8
BLACK
6
CONTINUOUS
10
1.70507
20
-1.3474
11
1.71677
21
-1.35394
0
LINE
8
BLACK
6
CONTINUOUS
10
1.71677
20
-1.35394
11
1.72767
21
-1.36174
0
LINE
8
BLACK
6
CONTINUOUS
10
1.72767
20
-1.36174
11
1.73764
21
-1.37071
0
LINE
8
BLACK
6
CONTINUOUS
10
1.73764
20
-1.37071
11
1.74654
21
-1.38074
0
LINE
8
BLACK
6
CONTINUOUS
10
1.74654
20
-1.38074
11
1.75426
21
-1.39169
0
LINE
8
BLACK
6
CONTINUOUS
10
1.75426
20
-1.39169
11
1.76072
21
-1.40344
0
LINE
8
BLACK
6
CONTINUOUS
10
1.76072
20
-1.40344
11
1.76583
21
-1.41583
0
LINE
8
BLACK
6
CONTINUOUS
10
1.76583
20
-1.41583
11
1.76953
21
-1.42872
0
LINE
8
BLACK
6
CONTINUOUS
10
1.76953
20
-1.42872
11
1.77176
21
-1.44194
0
LINE
8
BLACK
6
CONTINUOUS
10
1.77176
20
-1.44194
11
1.77251
21
-1.45532
0
LINE
8
BLACK
6
CONTINUOUS
10
1.77251
20
-1.45532
11
1.77246
21
-1.45868
0
LINE
8
BLACK
6
CONTINUOUS
10
1.77246
20
-1.45868
11
1.77134
21
-1.47203
0
LINE
8
BLACK
6
CONTINUOUS
10
1.77134
20
-1.47203
11
1.76874
21
-1.48518
0
LINE
8
BLACK
6
CONTINUOUS
10
1.76874
20
-1.48518
11
1.76469
21
-1.49796
0
LINE
8
BLACK
6
CONTINUOUS
10
1.76469
20
-1.49796
11
1.75923
21
-1.51021
0
LINE
8
BLACK
6
CONTINUOUS
10
1.75923
20
-1.51021
11
1.75245
21
-1.52177
0
LINE
8
BLACK
6
CONTINUOUS
10
1.75245
20
-1.52177
11
1.74442
21
-1.53251
0
LINE
8
BLACK
6
CONTINUOUS
10
1.74442
20
-1.53251
11
1.73524
21
-1.54228
0
LINE
8
BLACK
6
CONTINUOUS
10
1.73524
20
-1.54228
11
1.72503
21
-1.55097
0
LINE
8
BLACK
6
CONTINUOUS
10
1.72503
20
-1.55097
11
1.71392
21
-1.55847
0
LINE
8
BLACK
6
CONTINUOUS
10
1.71392
20
-1.55847
11
1.70204
21
-1.56468
0
LINE
8
BLACK
6
CONTINUOUS
10
1.70204
20
-1.56468
11
1.68954
21
-1.56952
0
LINE
8
BLACK
6
CONTINUOUS
10
1.68954
20
-1.56952
11
1.67658
21
-1.57295
0
LINE
8
BLACK
6
CONTINUOUS
10
1.67658
20
-1.57295
11
1.66332
21
-1.57491
0
LINE
8
BLACK
6
CONTINUOUS
10
1.66332
20
-1.57491
11
1.64992
21
-1.57537
0
LINE
8
BLACK
6
CONTINUOUS
10
1.64992
20
-1.57537
11
1.63655
21
-1.57435
0
LINE
8
BLACK
6
CONTINUOUS
10
1.63655
20
-1.57435
11
1.62338
21
-1.57183
0
LINE
8
BLACK
6
CONTINUOUS
10
1.62338
20
-1.57183
11
1.61058
21
-1.56787
0
LINE
8
BLACK
6
CONTINUOUS
10
1.61058
20
-1.56787
11
1.59829
21
-1.5625
0
LINE
8
BLACK
6
CONTINUOUS
10
1.59829
20
-1.5625
11
1.58668
21
-1.5558
0
LINE
8
BLACK
6
CONTINUOUS
10
1.58668
20
-1.5558
11
1.57589
21
-1.54784
0
LINE
8
BLACK
6
CONTINUOUS
10
1.57589
20
-1.54784
11
1.56605
21
-1.53874
0
LINE
8
BLACK
6
CONTINUOUS
10
1.56605
20
-1.53874
11
1.5573
21
-1.52859
0
LINE
8
BLACK
6
CONTINUOUS
10
1.5573
20
-1.52859
11
1.54972
21
-1.51753
0
LINE
8
BLACK
6
CONTINUOUS
10
1.54972
20
-1.51753
11
1.54343
21
-1.50569
0
LINE
8
BLACK
6
CONTINUOUS
10
1.54343
20
-1.50569
11
1.53849
21
-1.49323
0
LINE
8
BLACK
6
CONTINUOUS
10
1.53849
20
-1.49323
11
1.53498
21
-1.48029
0
LINE
8
BLACK
6
CONTINUOUS
10
1.53498
20
-1.48029
11
1.53293
21
-1.46704
0
LINE
8
BLACK
6
CONTINUOUS
10
1.53293
20
-1.46704
11
1.53237
21
-1.45365
0
LINE
8
BLACK
6
CONTINUOUS
10
1.53237
20
-1.45365
11
1.5333
21
-1.44027
0
LINE
8
BLACK
6
CONTINUOUS
10
1.5333
20
-1.44027
11
1.53572
21
-1.42709
0
LINE
8
BLACK
6
CONTINUOUS
10
1.53572
20
-1.42709
11
1.5396
21
-1.41425
0
LINE
8
BLACK
6
CONTINUOUS
10
1.5396
20
-1.41425
11
1.54488
21
-1.40193
0
LINE
8
BLACK
6
CONTINUOUS
10
1.54488
20
-1.40193
11
1.5515
21
-1.39027
0
LINE
8
BLACK
6
CONTINUOUS
10
1.5515
20
-1.39027
11
1.55938
21
-1.37943
0
LINE
8
BLACK
6
CONTINUOUS
10
1.55938
20
-1.37943
11
1.56842
21
-1.36953
0
LINE
8
BLACK
6
CONTINUOUS
10
1.56842
20
-1.36953
11
1.5785
21
-1.3607
0
LINE
8
BLACK
6
CONTINUOUS
10
1.5785
20
-1.3607
11
1.58951
21
-1.35305
0
LINE
8
BLACK
6
CONTINUOUS
10
1.58951
20
-1.35305
11
1.60131
21
-1.34667
0
LINE
8
BLACK
6
CONTINUOUS
10
1.60131
20
-1.34667
11
1.61374
21
-1.34165
0
LINE
8
BLACK
6
CONTINUOUS
10
1.61374
20
-1.34165
11
1.62665
21
-1.33804
0
LINE
8
BLACK
6
CONTINUOUS
10
1.62665
20
-1.33804
11
1.63988
21
-1.3359
0
LINE
8
BLACK
6
CONTINUOUS
10
1.63988
20
-1.3359
11
1.65327
21
-1.33525
0
LINE
8
BLACK
6
CONTINUOUS
10
1.65327
20
-1.33525
11
1.66665
21
-1.33609
0
LINE
8
BLACK
6
CONTINUOUS
10
0.367438
20
-1.33609
11
0.38064
21
-1.33842
0
LINE
8
BLACK
6
CONTINUOUS
10
0.38064
20
-1.33842
11
0.3935
21
-1.3422
0
LINE
8
BLACK
6
CONTINUOUS
10
0.3935
20
-1.3422
11
0.405859
21
-1.3474
0
LINE
8
BLACK
6
CONTINUOUS
10
0.405859
20
-1.3474
11
0.417561
21
-1.35394
0
LINE
8
BLACK
6
CONTINUOUS
10
0.417561
20
-1.35394
11
0.428462
21
-1.36174
0
LINE
8
BLACK
6
CONTINUOUS
10
0.428462
20
-1.36174
11
0.438424
21
-1.37071
0
LINE
8
BLACK
6
CONTINUOUS
10
0.438424
20
-1.37071
11
0.447325
21
-1.38074
0
LINE
8
BLACK
6
CONTINUOUS
10
0.447325
20
-1.38074
11
0.455052
21
-1.39169
0
LINE
8
BLACK
6
CONTINUOUS
10
0.455052
20
-1.39169
11
0.461511
21
-1.40344
0
LINE
8
BLACK
6
CONTINUOUS
10
0.461511
20
-1.40344
11
0.466619
21
-1.41583
0
LINE
8
BLACK
6
CONTINUOUS
10
0.466619
20
-1.41583
11
0.470314
21
-1.42872
0
LINE
8
BLACK
6
CONTINUOUS
10
0.470314
20
-1.42872
11
0.47255
21
-1.44194
0
LINE
8
BLACK
6
CONTINUOUS
10
0.47255
20
-1.44194
11
0.473299
21
-1.45532
0
LINE
8
BLACK
6
CONTINUOUS
10
0.473299
20
-1.45532
11
0.473252
21
-1.45868
0
LINE
8
BLACK
6
CONTINUOUS
10
0.473252
20
-1.45868
11
0.47213
21
-1.47203
0
LINE
8
BLACK
6
CONTINUOUS
10
0.47213
20
-1.47203
11
0.469526
21
-1.48518
0
LINE
8
BLACK
6
CONTINUOUS
10
0.469526
20
-1.48518
11
0.465472
21
-1.49796
0
LINE
8
BLACK
6
CONTINUOUS
10
0.465472
20
-1.49796
11
0.46002
21
-1.51021
0
LINE
8
BLACK
6
CONTINUOUS
10
0.46002
20
-1.51021
11
0.453236
21
-1.52177
0
LINE
8
BLACK
6
CONTINUOUS
10
0.453236
20
-1.52177
11
0.445205
21
-1.53251
0
LINE
8
BLACK
6
CONTINUOUS
10
0.445205
20
-1.53251
11
0.436028
21
-1.54228
0
LINE
8
BLACK
6
CONTINUOUS
10
0.436028
20
-1.54228
11
0.425819
21
-1.55097
0
LINE
8
BLACK
6
CONTINUOUS
10
0.425819
20
-1.55097
11
0.414705
21
-1.55847
0
LINE
8
BLACK
6
CONTINUOUS
10
0.414705
20
-1.55847
11
0.402825
21
-1.56468
0
LINE
8
BLACK
6
CONTINUOUS
10
0.402825
20
-1.56468
11
0.390326
21
-1.56952
0
LINE
8
BLACK
6
CONTINUOUS
10
0.390326
20
-1.56952
11
0.377365
21
-1.57295
0
LINE
8
BLACK
6
CONTINUOUS
10
0.377365
20
-1.57295
11
0.364103
21
-1.57491
0
LINE
8
BLACK
6
CONTINUOUS
10
0.364103
20
-1.57491
11
0.350705
21
-1.57537
0
LINE
8
BLACK
6
CONTINUOUS
10
0.350705
20
-1.57537
11
0.337339
21
-1.57435
0
LINE
8
BLACK
6
CONTINUOUS
10
0.337339
20
-1.57435
11
0.32417
21
-1.57183
0
LINE
8
BLACK
6
CONTINUOUS
10
0.32417
20
-1.57183
11
0.311364
21
-1.56787
0
LINE
8
BLACK
6
CONTINUOUS
10
0.311364
20
-1.56787
11
0.299079
21
-1.5625
0
LINE
8
BLACK
6
CONTINUOUS
10
0.299079
20
-1.5625
11
0.287469
21
-1.5558
0
LINE
8
BLACK
6
CONTINUOUS
10
0.287469
20
-1.5558
11
0.276679
21
-1.54784
0
LINE
8
BLACK
6
CONTINUOUS
10
0.276679
20
-1.54784
11
0.266842
21
-1.53874
0
LINE
8
BLACK
6
CONTINUOUS
10
0.266842
20
-1.53874
11
0.258083
21
-1.52859
0
LINE
8
BLACK
6
CONTINUOUS
10
0.258083
20
-1.52859
11
0.250509
21
-1.51753
0
LINE
8
BLACK
6
CONTINUOUS
10
0.250509
20
-1.51753
11
0.244215
21
-1.50569
0
LINE
8
BLACK
6
CONTINUOUS
10
0.244215
20
-1.50569
11
0.23928
21
-1.49323
0
LINE
8
BLACK
6
CONTINUOUS
10
0.23928
20
-1.49323
11
0.235765
21
-1.48029
0
LINE
8
BLACK
6
CONTINUOUS
10
0.235765
20
-1.48029
11
0.233714
21
-1.46704
0
LINE
8
BLACK
6
CONTINUOUS
10
0.233714
20
-1.46704
11
0.233153
21
-1.45365
0
LINE
8
BLACK
6
CONTINUOUS
10
0.233153
20
-1.45365
11
0.234088
21
-1.44027
0
LINE
8
BLACK
6
CONTINUOUS
10
0.234088
20
-1.44027
11
0.236508
21
-1.42709
0
LINE
8
BLACK
6
CONTINUOUS
10
0.236508
20
-1.42709
11
0.240383
21
-1.41425
0
LINE
8
BLACK
6
CONTINUOUS
10
0.240383
20
-1.41425
11
0.245664
21
-1.40193
0
LINE
8
BLACK
6
CONTINUOUS
10
0.245664
20
-1.40193
11
0.252286
21
-1.39027
0
LINE
8
BLACK
6
CONTINUOUS
10
0.252286
20
-1.39027
11
0.260165
21
-1.37943
0
LINE
8
BLACK
6
CONTINUOUS
10
0.260165
20
-1.37943
11
0.269205
21
-1.36953
0
LINE
8
BLACK
6
CONTINUOUS
10
0.269205
20
-1.36953
11
0.279292
21
-1.3607
0
LINE
8
BLACK
6
CONTINUOUS
10
0.279292
20
-1.3607
11
0.2903
21
-1.35305
0
LINE
8
BLACK
6
CONTINUOUS
10
0.2903
20
-1.35305
11
0.302093
21
-1.34667
0
LINE
8
BLACK
6
CONTINUOUS
10
0.302093
20
-1.34667
11
0.314523
21
-1.34165
0
LINE
8
BLACK
6
CONTINUOUS
10
0.314523
20
-1.34165
11
0.327435
21
-1.33804
0
LINE
8
BLACK
6
CONTINUOUS
10
0.327435
20
-1.33804
11
0.340668
21
-1.3359
0
LINE
8
BLACK
6
CONTINUOUS
10
0.340668
20
-1.3359
11
0.354058
21
-1.33525
0
LINE
8
BLACK
6
CONTINUOUS
10
0.354058
20
-1.33525
11
0.367438
21
-1.33609
0
LINE
8
BLACK
6
CONTINUOUS
10
4.02886
20
-1.33608
11
4.04207
21
-1.33841
0
LINE
8
BLACK
6
CONTINUOUS
10
4.04207
20
-1.33841
11
4.05493
21
-1.34219
0
LINE
8
BLACK
6
CONTINUOUS
10
4.05493
20
-1.34219
11
4.06728
21
-1.34739
0
LINE
8
BLACK
6
CONTINUOUS
10
4.06728
20
-1.34739
11
4.07899
21
-1.35393
0
LINE
8
BLACK
6
CONTINUOUS
10
4.07899
20
-1.35393
11
4.08989
21
-1.36173
0
LINE
8
BLACK
6
CONTINUOUS
10
4.08989
20
-1.36173
11
4.09985
21
-1.3707
0
LINE
8
BLACK
6
CONTINUOUS
10
4.09985
20
-1.3707
11
4.10875
21
-1.38073
0
LINE
8
BLACK
6
CONTINUOUS
10
4.10875
20
-1.38073
11
4.11648
21
-1.39168
0
LINE
8
BLACK
6
CONTINUOUS
10
4.11648
20
-1.39168
11
4.12294
21
-1.40343
0
LINE
8
BLACK
6
CONTINUOUS
10
4.12294
20
-1.40343
11
4.12805
21
-1.41583
0
LINE
8
BLACK
6
CONTINUOUS
10
4.12805
20
-1.41583
11
4.13174
21
-1.42871
0
LINE
8
BLACK
6
CONTINUOUS
10
4.13174
20
-1.42871
11
4.13398
21
-1.44193
0
LINE
8
BLACK
6
CONTINUOUS
10
4.13398
20
-1.44193
11
4.13472
21
-1.45531
0
LINE
8
BLACK
6
CONTINUOUS
10
4.13472
20
-1.45531
11
4.13468
21
-1.45867
0
LINE
8
BLACK
6
CONTINUOUS
10
4.13468
20
-1.45867
11
4.13356
21
-1.47203
0
LINE
8
BLACK
6
CONTINUOUS
10
4.13356
20
-1.47203
11
4.13095
21
-1.48518
0
LINE
8
BLACK
6
CONTINUOUS
10
4.13095
20
-1.48518
11
4.1269
21
-1.49796
0
LINE
8
BLACK
6
CONTINUOUS
10
4.1269
20
-1.49796
11
4.12145
21
-1.5102
0
LINE
8
BLACK
6
CONTINUOUS
10
4.12145
20
-1.5102
11
4.11466
21
-1.52177
0
LINE
8
BLACK
6
CONTINUOUS
10
4.11466
20
-1.52177
11
4.10663
21
-1.5325
0
LINE
8
BLACK
6
CONTINUOUS
10
4.10663
20
-1.5325
11
4.09745
21
-1.54227
0
LINE
8
BLACK
6
CONTINUOUS
10
4.09745
20
-1.54227
11
4.08725
21
-1.55096
0
LINE
8
BLACK
6
CONTINUOUS
10
4.08725
20
-1.55096
11
4.07613
21
-1.55846
0
LINE
8
BLACK
6
CONTINUOUS
10
4.07613
20
-1.55846
11
4.06425
21
-1.56467
0
LINE
8
BLACK
6
CONTINUOUS
10
4.06425
20
-1.56467
11
4.05175
21
-1.56952
0
LINE
8
BLACK
6
CONTINUOUS
10
4.05175
20
-1.56952
11
4.03879
21
-1.57294
0
LINE
8
BLACK
6
CONTINUOUS
10
4.03879
20
-1.57294
11
4.02553
21
-1.5749
0
LINE
8
BLACK
6
CONTINUOUS
10
4.02553
20
-1.5749
11
4.01213
21
-1.57537
0
LINE
8
BLACK
6
CONTINUOUS
10
4.01213
20
-1.57537
11
3.99876
21
-1.57434
0
LINE
8
BLACK
6
CONTINUOUS
10
3.99876
20
-1.57434
11
3.9856
21
-1.57183
0
LINE
8
BLACK
6
CONTINUOUS
10
3.9856
20
-1.57183
11
3.97279
21
-1.56786
0
LINE
8
BLACK
6
CONTINUOUS
10
3.97279
20
-1.56786
11
3.9605
21
-1.5625
0
LINE
8
BLACK
6
CONTINUOUS
10
3.9605
20
-1.5625
11
3.94889
21
-1.55579
0
LINE
8
BLACK
6
CONTINUOUS
10
3.94889
20
-1.55579
11
3.9381
21
-1.54784
0
LINE
8
BLACK
6
CONTINUOUS
10
3.9381
20
-1.54784
11
3.92827
21
-1.53873
0
LINE
8
BLACK
6
CONTINUOUS
10
3.92827
20
-1.53873
11
3.91951
21
-1.52858
0
LINE
8
BLACK
6
CONTINUOUS
10
3.91951
20
-1.52858
11
3.91193
21
-1.51752
0
LINE
8
BLACK
6
CONTINUOUS
10
3.91193
20
-1.51752
11
3.90564
21
-1.50568
0
LINE
8
BLACK
6
CONTINUOUS
10
3.90564
20
-1.50568
11
3.90071
21
-1.49322
0
LINE
8
BLACK
6
CONTINUOUS
10
3.90071
20
-1.49322
11
3.89719
21
-1.48028
0
LINE
8
BLACK
6
CONTINUOUS
10
3.89719
20
-1.48028
11
3.89514
21
-1.46703
0
LINE
8
BLACK
6
CONTINUOUS
10
3.89514
20
-1.46703
11
3.89458
21
-1.45364
0
LINE
8
BLACK
6
CONTINUOUS
10
3.89458
20
-1.45364
11
3.89551
21
-1.44027
0
LINE
8
BLACK
6
CONTINUOUS
10
3.89551
20
-1.44027
11
3.89793
21
-1.42708
0
LINE
8
BLACK
6
CONTINUOUS
10
3.89793
20
-1.42708
11
3.90181
21
-1.41425
0
LINE
8
BLACK
6
CONTINUOUS
10
3.90181
20
-1.41425
11
3.90709
21
-1.40192
0
LINE
8
BLACK
6
CONTINUOUS
10
3.90709
20
-1.40192
11
3.91371
21
-1.39027
0
LINE
8
BLACK
6
CONTINUOUS
10
3.91371
20
-1.39027
11
3.92159
21
-1.37942
0
LINE
8
BLACK
6
CONTINUOUS
10
3.92159
20
-1.37942
11
3.93063
21
-1.36952
0
LINE
8
BLACK
6
CONTINUOUS
10
3.93063
20
-1.36952
11
3.94072
21
-1.36069
0
LINE
8
BLACK
6
CONTINUOUS
10
3.94072
20
-1.36069
11
3.95173
21
-1.35304
0
LINE
8
BLACK
6
CONTINUOUS
10
3.95173
20
-1.35304
11
3.96352
21
-1.34666
0
LINE
8
BLACK
6
CONTINUOUS
10
3.96352
20
-1.34666
11
3.97595
21
-1.34164
0
LINE
8
BLACK
6
CONTINUOUS
10
3.97595
20
-1.34164
11
3.98886
21
-1.33804
0
LINE
8
BLACK
6
CONTINUOUS
10
3.98886
20
-1.33804
11
4.00209
21
-1.33589
0
LINE
8
BLACK
6
CONTINUOUS
10
4.00209
20
-1.33589
11
4.01548
21
-1.33524
0
LINE
8
BLACK
6
CONTINUOUS
10
4.01548
20
-1.33524
11
4.02886
21
-1.33608
0
LINE
8
BLACK
6
CONTINUOUS
10
4.07158
20
-0.827634
11
4.08678
21
-0.829988
0
LINE
8
BLACK
6
CONTINUOUS
10
4.08678
20
-0.829988
11
4.10169
21
-0.833814
0
LINE
8
BLACK
6
CONTINUOUS
10
4.10169
20
-0.833814
11
4.11614
21
-0.839077
0
LINE
8
BLACK
6
CONTINUOUS
10
4.11614
20
-0.839077
11
4.13002
21
-0.845725
0
LINE
8
BLACK
6
CONTINUOUS
10
4.13002
20
-0.845725
11
4.14318
21
-0.853695
0
LINE
8
BLACK
6
CONTINUOUS
10
4.14318
20
-0.853695
11
4.1555
21
-0.862911
0
LINE
8
BLACK
6
CONTINUOUS
10
4.1555
20
-0.862911
11
4.16686
21
-0.873286
0
LINE
8
BLACK
6
CONTINUOUS
10
4.16686
20
-0.873286
11
4.17716
21
-0.88472
0
LINE
8
BLACK
6
CONTINUOUS
10
4.17716
20
-0.88472
11
4.18629
21
-0.897104
0
LINE
8
BLACK
6
CONTINUOUS
10
4.18629
20
-0.897104
11
4.19416
21
-0.910319
0
LINE
8
BLACK
6
CONTINUOUS
10
4.19416
20
-0.910319
11
4.20072
21
-0.924241
0
LINE
8
BLACK
6
CONTINUOUS
10
4.20072
20
-0.924241
11
4.20588
21
-0.938735
0
LINE
8
BLACK
6
CONTINUOUS
10
4.20588
20
-0.938735
11
4.2096
21
-0.953664
0
LINE
8
BLACK
6
CONTINUOUS
10
4.2096
20
-0.953664
11
4.21185
21
-0.968885
0
LINE
8
BLACK
6
CONTINUOUS
10
4.21185
20
-0.968885
11
4.2126
21
-0.984252
0
LINE
8
BLACK
6
CONTINUOUS
10
4.2126
20
-0.984252
11
4.21254
21
-0.988649
0
LINE
8
BLACK
6
CONTINUOUS
10
4.21254
20
-0.988649
11
4.21136
21
-1.00399
0
LINE
8
BLACK
6
CONTINUOUS
10
4.21136
20
-1.00399
11
4.20868
21
-1.01914
0
LINE
8
BLACK
6
CONTINUOUS
10
4.20868
20
-1.01914
11
4.20455
21
-1.03396
0
LINE
8
BLACK
6
CONTINUOUS
10
4.20455
20
-1.03396
11
4.19898
21
-1.04831
0
LINE
8
BLACK
6
CONTINUOUS
10
4.19898
20
-1.04831
11
4.19205
21
-1.06204
0
LINE
8
BLACK
6
CONTINUOUS
10
4.19205
20
-1.06204
11
4.1838
21
-1.07503
0
LINE
8
BLACK
6
CONTINUOUS
10
4.1838
20
-1.07503
11
4.17433
21
-1.08715
0
LINE
8
BLACK
6
CONTINUOUS
10
4.17433
20
-1.08715
11
4.16372
21
-1.09829
0
LINE
8
BLACK
6
CONTINUOUS
10
4.16372
20
-1.09829
11
4.15207
21
-1.10835
0
LINE
8
BLACK
6
CONTINUOUS
10
4.15207
20
-1.10835
11
4.1395
21
-1.11722
0
LINE
8
BLACK
6
CONTINUOUS
10
4.1395
20
-1.11722
11
4.12612
21
-1.12482
0
LINE
8
BLACK
6
CONTINUOUS
10
4.12612
20
-1.12482
11
4.11207
21
-1.13107
0
LINE
8
BLACK
6
CONTINUOUS
10
4.11207
20
-1.13107
11
4.09747
21
-1.13593
0
LINE
8
BLACK
6
CONTINUOUS
10
4.09747
20
-1.13593
11
4.08246
21
-1.13934
0
LINE
8
BLACK
6
CONTINUOUS
10
4.08246
20
-1.13934
11
4.0672
21
-1.14127
0
LINE
8
BLACK
6
CONTINUOUS
10
4.0672
20
-1.14127
11
4.05182
21
-1.1417
0
LINE
8
BLACK
6
CONTINUOUS
10
4.05182
20
-1.1417
11
4.03647
21
-1.14062
0
LINE
8
BLACK
6
CONTINUOUS
10
4.03647
20
-1.14062
11
4.0213
21
-1.13806
0
LINE
8
BLACK
6
CONTINUOUS
10
4.0213
20
-1.13806
11
4.00645
21
-1.13402
0
LINE
8
BLACK
6
CONTINUOUS
10
4.00645
20
-1.13402
11
3.99207
21
-1.12856
0
LINE
8
BLACK
6
CONTINUOUS
10
3.99207
20
-1.12856
11
3.97829
21
-1.12172
0
LINE
8
BLACK
6
CONTINUOUS
10
3.97829
20
-1.12172
11
3.96524
21
-1.11357
0
LINE
8
BLACK
6
CONTINUOUS
10
3.96524
20
-1.11357
11
3.95305
21
-1.10418
0
LINE
8
BLACK
6
CONTINUOUS
10
3.95305
20
-1.10418
11
3.94184
21
-1.09365
0
LINE
8
BLACK
6
CONTINUOUS
10
3.94184
20
-1.09365
11
3.9317
21
-1.08207
0
LINE
8
BLACK
6
CONTINUOUS
10
3.9317
20
-1.08207
11
3.92275
21
-1.06956
0
LINE
8
BLACK
6
CONTINUOUS
10
3.92275
20
-1.06956
11
3.91505
21
-1.05624
0
LINE
8
BLACK
6
CONTINUOUS
10
3.91505
20
-1.05624
11
3.9087
21
-1.04222
0
LINE
8
BLACK
6
CONTINUOUS
10
3.9087
20
-1.04222
11
3.90374
21
-1.02766
0
LINE
8
BLACK
6
CONTINUOUS
10
3.90374
20
-1.02766
11
3.90022
21
-1.01268
0
LINE
8
BLACK
6
CONTINUOUS
10
3.90022
20
-1.01268
11
3.89819
21
-0.99743
0
LINE
8
BLACK
6
CONTINUOUS
10
3.89819
20
-0.99743
11
3.89765
21
-0.982053
0
LINE
8
BLACK
6
CONTINUOUS
10
3.89765
20
-0.982053
11
3.89862
21
-0.966698
0
LINE
8
BLACK
6
CONTINUOUS
10
3.89862
20
-0.966698
11
3.90108
21
-0.95151
0
LINE
8
BLACK
6
CONTINUOUS
10
3.90108
20
-0.95151
11
3.90501
21
-0.936635
0
LINE
8
BLACK
6
CONTINUOUS
10
3.90501
20
-0.936635
11
3.91037
21
-0.922214
0
LINE
8
BLACK
6
CONTINUOUS
10
3.91037
20
-0.922214
11
3.91712
21
-0.908385
0
LINE
8
BLACK
6
CONTINUOUS
10
3.91712
20
-0.908385
11
3.92518
21
-0.895281
0
LINE
8
BLACK
6
CONTINUOUS
10
3.92518
20
-0.895281
11
3.93448
21
-0.883026
0
LINE
8
BLACK
6
CONTINUOUS
10
3.93448
20
-0.883026
11
3.94493
21
-0.871737
0
LINE
8
BLACK
6
CONTINUOUS
10
3.94493
20
-0.871737
11
3.95644
21
-0.861522
0
LINE
8
BLACK
6
CONTINUOUS
10
3.95644
20
-0.861522
11
3.96889
21
-0.852478
0
LINE
8
BLACK
6
CONTINUOUS
10
3.96889
20
-0.852478
11
3.98216
21
-0.844692
0
LINE
8
BLACK
6
CONTINUOUS
10
3.98216
20
-0.844692
11
3.99612
21
-0.838239
0
LINE
8
BLACK
6
CONTINUOUS
10
3.99612
20
-0.838239
11
4.01065
21
-0.833179
0
LINE
8
BLACK
6
CONTINUOUS
10
4.01065
20
-0.833179
11
4.02561
21
-0.829561
0
LINE
8
BLACK
6
CONTINUOUS
10
4.02561
20
-0.829561
11
4.04085
21
-0.82742
0
LINE
8
BLACK
6
CONTINUOUS
10
4.04085
20
-0.82742
11
4.05622
21
-0.826775
0
LINE
8
BLACK
6
CONTINUOUS
10
4.05622
20
-0.826775
11
4.07158
21
-0.827634
0
LINE
8
BLACK
6
CONTINUOUS
10
0.213312
20
-0.827634
11
0.228516
21
-0.829988
0
LINE
8
BLACK
6
CONTINUOUS
10
0.228516
20
-0.829988
11
0.243419
21
-0.833814
0
LINE
8
BLACK
6
CONTINUOUS
10
0.243419
20
-0.833814
11
0.257876
21
-0.839077
0
LINE
8
BLACK
6
CONTINUOUS
10
0.257876
20
-0.839077
11
0.271752
21
-0.845725
0
LINE
8
BLACK
6
CONTINUOUS
10
0.271752
20
-0.845725
11
0.284912
21
-0.853695
0
LINE
8
BLACK
6
CONTINUOUS
10
0.284912
20
-0.853695
11
0.297232
21
-0.862911
0
LINE
8
BLACK
6
CONTINUOUS
10
0.297232
20
-0.862911
11
0.308594
21
-0.873286
0
LINE
8
BLACK
6
CONTINUOUS
10
0.308594
20
-0.873286
11
0.318889
21
-0.88472
0
LINE
8
BLACK
6
CONTINUOUS
10
0.318889
20
-0.88472
11
0.328019
21
-0.897104
0
LINE
8
BLACK
6
CONTINUOUS
10
0.328019
20
-0.897104
11
0.335897
21
-0.910319
0
LINE
8
BLACK
6
CONTINUOUS
10
0.335897
20
-0.910319
11
0.342448
21
-0.924241
0
LINE
8
BLACK
6
CONTINUOUS
10
0.342448
20
-0.924241
11
0.347609
21
-0.938735
0
LINE
8
BLACK
6
CONTINUOUS
10
0.347609
20
-0.938735
11
0.351332
21
-0.953664
0
LINE
8
BLACK
6
CONTINUOUS
10
0.351332
20
-0.953664
11
0.353579
21
-0.968885
0
LINE
8
BLACK
6
CONTINUOUS
10
0.353579
20
-0.968885
11
0.354331
21
-0.984252
0
LINE
8
BLACK
6
CONTINUOUS
10
0.354331
20
-0.984252
11
0.354269
21
-0.988649
0
LINE
8
BLACK
6
CONTINUOUS
10
0.354269
20
-0.988649
11
0.353089
21
-1.00399
0
LINE
8
BLACK
6
CONTINUOUS
10
0.353089
20
-1.00399
11
0.350417
21
-1.01914
0
LINE
8
BLACK
6
CONTINUOUS
10
0.350417
20
-1.01914
11
0.34628
21
-1.03396
0
LINE
8
BLACK
6
CONTINUOUS
10
0.34628
20
-1.03396
11
0.340716
21
-1.04831
0
LINE
8
BLACK
6
CONTINUOUS
10
0.340716
20
-1.04831
11
0.333779
21
-1.06204
0
LINE
8
BLACK
6
CONTINUOUS
10
0.333779
20
-1.06204
11
0.325535
21
-1.07503
0
LINE
8
BLACK
6
CONTINUOUS
10
0.325535
20
-1.07503
11
0.316062
21
-1.08715
0
LINE
8
BLACK
6
CONTINUOUS
10
0.316062
20
-1.08715
11
0.305452
21
-1.09829
0
LINE
8
BLACK
6
CONTINUOUS
10
0.305452
20
-1.09829
11
0.293805
21
-1.10835
0
LINE
8
BLACK
6
CONTINUOUS
10
0.293805
20
-1.10835
11
0.281233
21
-1.11722
0
LINE
8
BLACK
6
CONTINUOUS
10
0.281233
20
-1.11722
11
0.267855
21
-1.12482
0
LINE
8
BLACK
6
CONTINUOUS
10
0.267855
20
-1.12482
11
0.253799
21
-1.13107
0
LINE
8
BLACK
6
CONTINUOUS
10
0.253799
20
-1.13107
11
0.2392
21
-1.13593
0
LINE
8
BLACK
6
CONTINUOUS
10
0.2392
20
-1.13593
11
0.224197
21
-1.13934
0
LINE
8
BLACK
6
CONTINUOUS
10
0.224197
20
-1.13934
11
0.208932
21
-1.14127
0
LINE
8
BLACK
6
CONTINUOUS
10
0.208932
20
-1.14127
11
0.193552
21
-1.1417
0
LINE
8
BLACK
6
CONTINUOUS
10
0.193552
20
-1.1417
11
0.178204
21
-1.14062
0
LINE
8
BLACK
6
CONTINUOUS
10
0.178204
20
-1.14062
11
0.163034
21
-1.13806
0
LINE
8
BLACK
6
CONTINUOUS
10
0.163034
20
-1.13806
11
0.148186
21
-1.13402
0
LINE
8
BLACK
6
CONTINUOUS
10
0.148186
20
-1.13402
11
0.133803
21
-1.12856
0
LINE
8
BLACK
6
CONTINUOUS
10
0.133803
20
-1.12856
11
0.120022
21
-1.12172
0
LINE
8
BLACK
6
CONTINUOUS
10
0.120022
20
-1.12172
11
0.106974
21
-1.11357
0
LINE
8
BLACK
6
CONTINUOUS
10
0.106974
20
-1.11357
11
0.0947843
21
-1.10418
0
LINE
8
BLACK
6
CONTINUOUS
10
0.0947843
20
-1.10418
11
0.0835685
21
-1.09365
0
LINE
8
BLACK
6
CONTINUOUS
10
0.0835685
20
-1.09365
11
0.0734341
21
-1.08207
0
LINE
8
BLACK
6
CONTINUOUS
10
0.0734341
20
-1.08207
11
0.0644777
21
-1.06956
0
LINE
8
BLACK
6
CONTINUOUS
10
0.0644777
20
-1.06956
11
0.0567848
21
-1.05624
0
LINE
8
BLACK
6
CONTINUOUS
10
0.0567848
20
-1.05624
11
0.0504289
21
-1.04222
0
LINE
8
BLACK
6
CONTINUOUS
10
0.0504289
20
-1.04222
11
0.0454706
21
-1.02766
0
LINE
8
BLACK
6
CONTINUOUS
10
0.0454706
20
-1.02766
11
0.0419572
21
-1.01268
0
LINE
8
BLACK
6
CONTINUOUS
10
0.0419572
20
-1.01268
11
0.0399224
21
-0.99743
0
LINE
8
BLACK
6
CONTINUOUS
10
0.0399224
20
-0.99743
11
0.0393854
21
-0.982053
0
LINE
8
BLACK
6
CONTINUOUS
10
0.0393854
20
-0.982053
11
0.0403515
21
-0.966698
0
LINE
8
BLACK
6
CONTINUOUS
10
0.0403515
20
-0.966698
11
0.0428114
21
-0.95151
0
LINE
8
BLACK
6
CONTINUOUS
10
0.0428114
20
-0.95151
11
0.0467416
21
-0.936635
0
LINE
8
BLACK
6
CONTINUOUS
10
0.0467416
20
-0.936635
11
0.0521047
21
-0.922214
0
LINE
8
BLACK
6
CONTINUOUS
10
0.0521047
20
-0.922214
11
0.0588493
21
-0.908385
0
LINE
8
BLACK
6
CONTINUOUS
10
0.0588493
20
-0.908385
11
0.0669113
21
-0.895281
0
LINE
8
BLACK
6
CONTINUOUS
10
0.0669113
20
-0.895281
11
0.0762135
21
-0.883026
0
LINE
8
BLACK
6
CONTINUOUS
10
0.0762135
20
-0.883026
11
0.0866672
21
-0.871737
0
LINE
8
BLACK
6
CONTINUOUS
10
0.0866672
20
-0.871737
11
0.0981726
21
-0.861522
0
LINE
8
BLACK
6
CONTINUOUS
10
0.0981726
20
-0.861522
11
0.11062
21
-0.852478
0
LINE
8
BLACK
6
CONTINUOUS
10
0.11062
20
-0.852478
11
0.12389
21
-0.844692
0
LINE
8
BLACK
6
CONTINUOUS
10
0.12389
20
-0.844692
11
0.137857
21
-0.838239
0
LINE
8
BLACK
6
CONTINUOUS
10
0.137857
20
-0.838239
11
0.152387
21
-0.833179
0
LINE
8
BLACK
6
CONTINUOUS
10
0.152387
20
-0.833179
11
0.167342
21
-0.829561
0
LINE
8
BLACK
6
CONTINUOUS
10
0.167342
20
-0.829561
11
0.182578
21
-0.82742
0
LINE
8
BLACK
6
CONTINUOUS
10
0.182578
20
-0.82742
11
0.19795
21
-0.826775
0
LINE
8
BLACK
6
CONTINUOUS
10
0.19795
20
-0.826775
11
0.213312
21
-0.827634
0
LINE
8
BLACK
6
CONTINUOUS
10
2.44153
20
-0.848096
11
2.44433
21
-0.849963
0
LINE
8
BLACK
6
CONTINUOUS
10
2.44433
20
-0.849963
11
2.44619
21
-0.852757
0
LINE
8
BLACK
6
CONTINUOUS
10
2.44619
20
-0.852757
11
2.44685
21
-0.856053
0
LINE
8
BLACK
6
CONTINUOUS
10
2.44685
20
-0.856053
11
2.44685
21
-0.87623
0
LINE
8
BLACK
6
CONTINUOUS
10
2.44685
20
-0.87623
11
2.44619
21
-0.879526
0
LINE
8
BLACK
6
CONTINUOUS
10
2.44619
20
-0.879526
11
2.44433
21
-0.88232
0
LINE
8
BLACK
6
CONTINUOUS
10
2.44433
20
-0.88232
11
2.44153
21
-0.884187
0
LINE
8
BLACK
6
CONTINUOUS
10
2.44153
20
-0.884187
11
2.43824
21
-0.884843
0
LINE
8
BLACK
6
CONTINUOUS
10
2.43824
20
-0.884843
11
2.42101
21
-0.884843
0
LINE
8
BLACK
6
CONTINUOUS
10
2.42101
20
-0.884843
11
2.41772
21
-0.884187
0
LINE
8
BLACK
6
CONTINUOUS
10
2.41772
20
-0.884187
11
2.41492
21
-0.88232
0
LINE
8
BLACK
6
CONTINUOUS
10
2.41492
20
-0.88232
11
2.41306
21
-0.879526
0
LINE
8
BLACK
6
CONTINUOUS
10
2.41306
20
-0.879526
11
2.4124
21
-0.87623
0
LINE
8
BLACK
6
CONTINUOUS
10
2.4124
20
-0.87623
11
2.4124
21
-0.856053
0
LINE
8
BLACK
6
CONTINUOUS
10
2.4124
20
-0.856053
11
2.41306
21
-0.852757
0
LINE
8
BLACK
6
CONTINUOUS
10
2.41306
20
-0.852757
11
2.41492
21
-0.849963
0
LINE
8
BLACK
6
CONTINUOUS
10
2.41492
20
-0.849963
11
2.41772
21
-0.848096
0
LINE
8
BLACK
6
CONTINUOUS
10
2.41772
20
-0.848096
11
2.42101
21
-0.847441
0
LINE
8
BLACK
6
CONTINUOUS
10
2.42101
20
-0.847441
11
2.43824
21
-0.847441
0
LINE
8
BLACK
6
CONTINUOUS
10
2.43824
20
-0.847441
11
2.44153
21
-0.848096
0
LINE
8
BLACK
6
CONTINUOUS
10
2.50354
20
-0.848096
11
2.50634
21
-0.849963
0
LINE
8
BLACK
6
CONTINUOUS
10
2.50634
20
-0.849963
11
2.5082
21
-0.852757
0
LINE
8
BLACK
6
CONTINUOUS
10
2.5082
20
-0.852757
11
2.50886
21
-0.856053
0
LINE
8
BLACK
6
CONTINUOUS
10
2.50886
20
-0.856053
11
2.50886
21
-0.87623
0
LINE
8
BLACK
6
CONTINUOUS
10
2.50886
20
-0.87623
11
2.5082
21
-0.879526
0
LINE
8
BLACK
6
CONTINUOUS
10
2.5082
20
-0.879526
11
2.50634
21
-0.88232
0
LINE
8
BLACK
6
CONTINUOUS
10
2.50634
20
-0.88232
11
2.50354
21
-0.884187
0
LINE
8
BLACK
6
CONTINUOUS
10
2.50354
20
-0.884187
11
2.50025
21
-0.884843
0
LINE
8
BLACK
6
CONTINUOUS
10
2.50025
20
-0.884843
11
2.48302
21
-0.884843
0
LINE
8
BLACK
6
CONTINUOUS
10
2.48302
20
-0.884843
11
2.47973
21
-0.884187
0
LINE
8
BLACK
6
CONTINUOUS
10
2.47973
20
-0.884187
11
2.47693
21
-0.88232
0
LINE
8
BLACK
6
CONTINUOUS
10
2.47693
20
-0.88232
11
2.47506
21
-0.879526
0
LINE
8
BLACK
6
CONTINUOUS
10
2.47506
20
-0.879526
11
2.47441
21
-0.87623
0
LINE
8
BLACK
6
CONTINUOUS
10
2.47441
20
-0.87623
11
2.47441
21
-0.856053
0
LINE
8
BLACK
6
CONTINUOUS
10
2.47441
20
-0.856053
11
2.47506
21
-0.852757
0
LINE
8
BLACK
6
CONTINUOUS
10
2.47506
20
-0.852757
11
2.47693
21
-0.849963
0
LINE
8
BLACK
6
CONTINUOUS
10
2.47693
20
-0.849963
11
2.47973
21
-0.848096
0
LINE
8
BLACK
6
CONTINUOUS
10
2.47973
20
-0.848096
11
2.48302
21
-0.847441
0
LINE
8
BLACK
6
CONTINUOUS
10
2.48302
20
-0.847441
11
2.50025
21
-0.847441
0
LINE
8
BLACK
6
CONTINUOUS
10
2.50025
20
-0.847441
11
2.50354
21
-0.848096
0
LINE
8
BLACK
6
CONTINUOUS
10
1.77224
20
-0.848096
11
1.77504
21
-0.849963
0
LINE
8
BLACK
6
CONTINUOUS
10
1.77504
20
-0.849963
11
1.7769
21
-0.852757
0
LINE
8
BLACK
6
CONTINUOUS
10
1.7769
20
-0.852757
11
1.77756
21
-0.856053
0
LINE
8
BLACK
6
CONTINUOUS
10
1.77756
20
-0.856053
11
1.77756
21
-0.87623
0
LINE
8
BLACK
6
CONTINUOUS
10
1.77756
20
-0.87623
11
1.7769
21
-0.879526
0
LINE
8
BLACK
6
CONTINUOUS
10
1.7769
20
-0.879526
11
1.77504
21
-0.88232
0
LINE
8
BLACK
6
CONTINUOUS
10
1.77504
20
-0.88232
11
1.77224
21
-0.884187
0
LINE
8
BLACK
6
CONTINUOUS
10
1.77224
20
-0.884187
11
1.76895
21
-0.884843
0
LINE
8
BLACK
6
CONTINUOUS
10
1.76895
20
-0.884843
11
1.75172
21
-0.884843
0
LINE
8
BLACK
6
CONTINUOUS
10
1.75172
20
-0.884843
11
1.74843
21
-0.884187
0
LINE
8
BLACK
6
CONTINUOUS
10
1.74843
20
-0.884187
11
1.74563
21
-0.88232
0
LINE
8
BLACK
6
CONTINUOUS
10
1.74563
20
-0.88232
11
1.74377
21
-0.879526
0
LINE
8
BLACK
6
CONTINUOUS
10
1.74377
20
-0.879526
11
1.74311
21
-0.87623
0
LINE
8
BLACK
6
CONTINUOUS
10
1.74311
20
-0.87623
11
1.74311
21
-0.856053
0
LINE
8
BLACK
6
CONTINUOUS
10
1.74311
20
-0.856053
11
1.74377
21
-0.852757
0
LINE
8
BLACK
6
CONTINUOUS
10
1.74377
20
-0.852757
11
1.74563
21
-0.849963
0
LINE
8
BLACK
6
CONTINUOUS
10
1.74563
20
-0.849963
11
1.74843
21
-0.848096
0
LINE
8
BLACK
6
CONTINUOUS
10
1.74843
20
-0.848096
11
1.75172
21
-0.847441
0
LINE
8
BLACK
6
CONTINUOUS
10
1.75172
20
-0.847441
11
1.76895
21
-0.847441
0
LINE
8
BLACK
6
CONTINUOUS
10
1.76895
20
-0.847441
11
1.77224
21
-0.848096
0
LINE
8
BLACK
6
CONTINUOUS
10
1.83425
20
-0.848096
11
1.83704
21
-0.849963
0
LINE
8
BLACK
6
CONTINUOUS
10
1.83704
20
-0.849963
11
1.83891
21
-0.852757
0
LINE
8
BLACK
6
CONTINUOUS
10
1.83891
20
-0.852757
11
1.83957
21
-0.856053
0
LINE
8
BLACK
6
CONTINUOUS
10
1.83957
20
-0.856053
11
1.83957
21
-0.87623
0
LINE
8
BLACK
6
CONTINUOUS
10
1.83957
20
-0.87623
11
1.83891
21
-0.879526
0
LINE
8
BLACK
6
CONTINUOUS
10
1.83891
20
-0.879526
11
1.83704
21
-0.88232
0
LINE
8
BLACK
6
CONTINUOUS
10
1.83704
20
-0.88232
11
1.83425
21
-0.884187
0
LINE
8
BLACK
6
CONTINUOUS
10
1.83425
20
-0.884187
11
1.83095
21
-0.884843
0
LINE
8
BLACK
6
CONTINUOUS
10
1.83095
20
-0.884843
11
1.81373
21
-0.884843
0
LINE
8
BLACK
6
CONTINUOUS
10
1.81373
20
-0.884843
11
1.81043
21
-0.884187
0
LINE
8
BLACK
6
CONTINUOUS
10
1.81043
20
-0.884187
11
1.80764
21
-0.88232
0
LINE
8
BLACK
6
CONTINUOUS
10
1.80764
20
-0.88232
11
1.80577
21
-0.879526
0
LINE
8
BLACK
6
CONTINUOUS
10
1.80577
20
-0.879526
11
1.80512
21
-0.87623
0
LINE
8
BLACK
6
CONTINUOUS
10
1.80512
20
-0.87623
11
1.80512
21
-0.856053
0
LINE
8
BLACK
6
CONTINUOUS
10
1.80512
20
-0.856053
11
1.80577
21
-0.852757
0
LINE
8
BLACK
6
CONTINUOUS
10
1.80577
20
-0.852757
11
1.80764
21
-0.849963
0
LINE
8
BLACK
6
CONTINUOUS
10
1.80764
20
-0.849963
11
1.81043
21
-0.848096
0
LINE
8
BLACK
6
CONTINUOUS
10
1.81043
20
-0.848096
11
1.81373
21
-0.847441
0
LINE
8
BLACK
6
CONTINUOUS
10
1.81373
20
-0.847441
11
1.83095
21
-0.847441
0
LINE
8
BLACK
6
CONTINUOUS
10
1.83095
20
-0.847441
11
1.83425
21
-0.848096
0
LINE
8
BLACK
6
CONTINUOUS
10
2.10689
20
-0.848096
11
2.10968
21
-0.849963
0
LINE
8
BLACK
6
CONTINUOUS
10
2.10968
20
-0.849963
11
2.11155
21
-0.852757
0
LINE
8
BLACK
6
CONTINUOUS
10
2.11155
20
-0.852757
11
2.1122
21
-0.856053
0
LINE
8
BLACK
6
CONTINUOUS
10
2.1122
20
-0.856053
11
2.1122
21
-0.87623
0
LINE
8
BLACK
6
CONTINUOUS
10
2.1122
20
-0.87623
11
2.11155
21
-0.879526
0
LINE
8
BLACK
6
CONTINUOUS
10
2.11155
20
-0.879526
11
2.10968
21
-0.88232
0
LINE
8
BLACK
6
CONTINUOUS
10
2.10968
20
-0.88232
11
2.10689
21
-0.884187
0
LINE
8
BLACK
6
CONTINUOUS
10
2.10689
20
-0.884187
11
2.10359
21
-0.884843
0
LINE
8
BLACK
6
CONTINUOUS
10
2.10359
20
-0.884843
11
2.08637
21
-0.884843
0
LINE
8
BLACK
6
CONTINUOUS
10
2.08637
20
-0.884843
11
2.08307
21
-0.884187
0
LINE
8
BLACK
6
CONTINUOUS
10
2.08307
20
-0.884187
11
2.08028
21
-0.88232
0
LINE
8
BLACK
6
CONTINUOUS
10
2.08028
20
-0.88232
11
2.07841
21
-0.879526
0
LINE
8
BLACK
6
CONTINUOUS
10
2.07841
20
-0.879526
11
2.07776
21
-0.87623
0
LINE
8
BLACK
6
CONTINUOUS
10
2.07776
20
-0.87623
11
2.07776
21
-0.856053
0
LINE
8
BLACK
6
CONTINUOUS
10
2.07776
20
-0.856053
11
2.07841
21
-0.852757
0
LINE
8
BLACK
6
CONTINUOUS
10
2.07841
20
-0.852757
11
2.08028
21
-0.849963
0
LINE
8
BLACK
6
CONTINUOUS
10
2.08028
20
-0.849963
11
2.08307
21
-0.848096
0
LINE
8
BLACK
6
CONTINUOUS
10
2.08307
20
-0.848096
11
2.08637
21
-0.847441
0
LINE
8
BLACK
6
CONTINUOUS
10
2.08637
20
-0.847441
11
2.10359
21
-0.847441
0
LINE
8
BLACK
6
CONTINUOUS
10
2.10359
20
-0.847441
11
2.10689
21
-0.848096
0
LINE
8
BLACK
6
CONTINUOUS
10
2.1689
20
-0.848096
11
2.17169
21
-0.849963
0
LINE
8
BLACK
6
CONTINUOUS
10
2.17169
20
-0.849963
11
2.17356
21
-0.852757
0
LINE
8
BLACK
6
CONTINUOUS
10
2.17356
20
-0.852757
11
2.17421
21
-0.856053
0
LINE
8
BLACK
6
CONTINUOUS
10
2.17421
20
-0.856053
11
2.17421
21
-0.87623
0
LINE
8
BLACK
6
CONTINUOUS
10
2.17421
20
-0.87623
11
2.17356
21
-0.879526
0
LINE
8
BLACK
6
CONTINUOUS
10
2.17356
20
-0.879526
11
2.17169
21
-0.88232
0
LINE
8
BLACK
6
CONTINUOUS
10
2.17169
20
-0.88232
11
2.1689
21
-0.884187
0
LINE
8
BLACK
6
CONTINUOUS
10
2.1689
20
-0.884187
11
2.1656
21
-0.884843
0
LINE
8
BLACK
6
CONTINUOUS
10
2.1656
20
-0.884843
11
2.14838
21
-0.884843
0
LINE
8
BLACK
6
CONTINUOUS
10
2.14838
20
-0.884843
11
2.14508
21
-0.884187
0
LINE
8
BLACK
6
CONTINUOUS
10
2.14508
20
-0.884187
11
2.14229
21
-0.88232
0
LINE
8
BLACK
6
CONTINUOUS
10
2.14229
20
-0.88232
11
2.14042
21
-0.879526
0
LINE
8
BLACK
6
CONTINUOUS
10
2.14042
20
-0.879526
11
2.13976
21
-0.87623
0
LINE
8
BLACK
6
CONTINUOUS
10
2.13976
20
-0.87623
11
2.13976
21
-0.856053
0
LINE
8
BLACK
6
CONTINUOUS
10
2.13976
20
-0.856053
11
2.14042
21
-0.852757
0
LINE
8
BLACK
6
CONTINUOUS
10
2.14042
20
-0.852757
11
2.14229
21
-0.849963
0
LINE
8
BLACK
6
CONTINUOUS
10
2.14229
20
-0.849963
11
2.14508
21
-0.848096
0
LINE
8
BLACK
6
CONTINUOUS
10
2.14508
20
-0.848096
11
2.14838
21
-0.847441
0
LINE
8
BLACK
6
CONTINUOUS
10
2.14838
20
-0.847441
11
2.1656
21
-0.847441
0
LINE
8
BLACK
6
CONTINUOUS
10
2.1656
20
-0.847441
11
2.1689
21
-0.848096
0
LINE
8
BLACK
6
CONTINUOUS
10
3.00878
20
-0.484563
11
3.02113
21
-0.486883
0
LINE
8
BLACK
6
CONTINUOUS
10
3.02113
20
-0.486883
11
3.0331
21
-0.49067
0
LINE
8
BLACK
6
CONTINUOUS
10
3.0331
20
-0.49067
11
3.04453
21
-0.495867
0
LINE
8
BLACK
6
CONTINUOUS
10
3.04453
20
-0.495867
11
3.05525
21
-0.5024
0
LINE
8
BLACK
6
CONTINUOUS
10
3.05525
20
-0.5024
11
3.06511
21
-0.510174
0
LINE
8
BLACK
6
CONTINUOUS
10
3.06511
20
-0.510174
11
3.07397
21
-0.519076
0
LINE
8
BLACK
6
CONTINUOUS
10
3.07397
20
-0.519076
11
3.08169
21
-0.528977
0
LINE
8
BLACK
6
CONTINUOUS
10
3.08169
20
-0.528977
11
3.08817
21
-0.539735
0
LINE
8
BLACK
6
CONTINUOUS
10
3.08817
20
-0.539735
11
3.0933
21
-0.551193
0
LINE
8
BLACK
6
CONTINUOUS
10
3.0933
20
-0.551193
11
3.09703
21
-0.563184
0
LINE
8
BLACK
6
CONTINUOUS
10
3.09703
20
-0.563184
11
3.09928
21
-0.575537
0
LINE
8
BLACK
6
CONTINUOUS
10
3.09928
20
-0.575537
11
3.10004
21
-0.588071
0
LINE
8
BLACK
6
CONTINUOUS
10
3.10004
20
-0.588071
11
3.10002
21
-0.590256
0
LINE
8
BLACK
6
CONTINUOUS
10
3.10002
20
-0.590256
11
3.099
21
-0.602771
0
LINE
8
BLACK
6
CONTINUOUS
10
3.099
20
-0.602771
11
3.09648
21
-0.615074
0
LINE
8
BLACK
6
CONTINUOUS
10
3.09648
20
-0.615074
11
3.09251
21
-0.626985
0
LINE
8
BLACK
6
CONTINUOUS
10
3.09251
20
-0.626985
11
3.08713
21
-0.638333
0
LINE
8
BLACK
6
CONTINUOUS
10
3.08713
20
-0.638333
11
3.08043
21
-0.648952
0
LINE
8
BLACK
6
CONTINUOUS
10
3.08043
20
-0.648952
11
3.07251
21
-0.65869
0
LINE
8
BLACK
6
CONTINUOUS
10
3.07251
20
-0.65869
11
3.06347
21
-0.667405
0
LINE
8
BLACK
6
CONTINUOUS
10
3.06347
20
-0.667405
11
3.05344
21
-0.67497
0
LINE
8
BLACK
6
CONTINUOUS
10
3.05344
20
-0.67497
11
3.04259
21
-0.681277
0
LINE
8
BLACK
6
CONTINUOUS
10
3.04259
20
-0.681277
11
3.03105
21
-0.686234
0
LINE
8
BLACK
6
CONTINUOUS
10
3.03105
20
-0.686234
11
3.019
21
-0.689768
0
LINE
8
BLACK
6
CONTINUOUS
10
3.019
20
-0.689768
11
3.00661
21
-0.69183
0
LINE
8
BLACK
6
CONTINUOUS
10
3.00661
20
-0.69183
11
2.99407
21
-0.692389
0
LINE
8
BLACK
6
CONTINUOUS
10
2.99407
20
-0.692389
11
2.98155
21
-0.691436
0
LINE
8
BLACK
6
CONTINUOUS
10
2.98155
20
-0.691436
11
2.96923
21
-0.688987
0
LINE
8
BLACK
6
CONTINUOUS
10
2.96923
20
-0.688987
11
2.9573
21
-0.685075
0
LINE
8
BLACK
6
CONTINUOUS
10
2.9573
20
-0.685075
11
2.94593
21
-0.679758
0
LINE
8
BLACK
6
CONTINUOUS
10
2.94593
20
-0.679758
11
2.93527
21
-0.673114
0
LINE
8
BLACK
6
CONTINUOUS
10
2.93527
20
-0.673114
11
2.92549
21
-0.665237
0
LINE
8
BLACK
6
CONTINUOUS
10
2.92549
20
-0.665237
11
2.91673
21
-0.656243
0
LINE
8
BLACK
6
CONTINUOUS
10
2.91673
20
-0.656243
11
2.90911
21
-0.646261
0
LINE
8
BLACK
6
CONTINUOUS
10
2.90911
20
-0.646261
11
2.90275
21
-0.635436
0
LINE
8
BLACK
6
CONTINUOUS
10
2.90275
20
-0.635436
11
2.89773
21
-0.623925
0
LINE
8
BLACK
6
CONTINUOUS
10
2.89773
20
-0.623925
11
2.89413
21
-0.611895
0
LINE
8
BLACK
6
CONTINUOUS
10
2.89413
20
-0.611895
11
2.89201
21
-0.59952
0
LINE
8
BLACK
6
CONTINUOUS
10
2.89201
20
-0.59952
11
2.89138
21
-0.586978
0
LINE
8
BLACK
6
CONTINUOUS
10
2.89138
20
-0.586978
11
2.89227
21
-0.574453
0
LINE
8
BLACK
6
CONTINUOUS
10
2.89227
20
-0.574453
11
2.89466
21
-0.562125
0
LINE
8
BLACK
6
CONTINUOUS
10
2.89466
20
-0.562125
11
2.8985
21
-0.550173
0
LINE
8
BLACK
6
CONTINUOUS
10
2.8985
20
-0.550173
11
2.90376
21
-0.538769
0
LINE
8
BLACK
6
CONTINUOUS
10
2.90376
20
-0.538769
11
2.91035
21
-0.52808
0
LINE
8
BLACK
6
CONTINUOUS
10
2.91035
20
-0.52808
11
2.91818
21
-0.51826
0
LINE
8
BLACK
6
CONTINUOUS
10
2.91818
20
-0.51826
11
2.92712
21
-0.509451
0
LINE
8
BLACK
6
CONTINUOUS
10
2.92712
20
-0.509451
11
2.93707
21
-0.501781
0
LINE
8
BLACK
6
CONTINUOUS
10
2.93707
20
-0.501781
11
2.94786
21
-0.495361
0
LINE
8
BLACK
6
CONTINUOUS
10
2.94786
20
-0.495361
11
2.95934
21
-0.490284
0
LINE
8
BLACK
6
CONTINUOUS
10
2.95934
20
-0.490284
11
2.97135
21
-0.486623
0
LINE
8
BLACK
6
CONTINUOUS
10
2.97135
20
-0.486623
11
2.98372
21
-0.484432
0
LINE
8
BLACK
6
CONTINUOUS
10
2.98372
20
-0.484432
11
2.99625
21
-0.483742
0
LINE
8
BLACK
6
CONTINUOUS
10
2.99625
20
-0.483742
11
3.00878
21
-0.484563
0
LINE
8
BLACK
6
CONTINUOUS
10
2.05603
20
-0.484563
11
2.06837
21
-0.486883
0
LINE
8
BLACK
6
CONTINUOUS
10
2.06837
20
-0.486883
11
2.08034
21
-0.49067
0
LINE
8
BLACK
6
CONTINUOUS
10
2.08034
20
-0.49067
11
2.09177
21
-0.495867
0
LINE
8
BLACK
6
CONTINUOUS
10
2.09177
20
-0.495867
11
2.1025
21
-0.5024
0
LINE
8
BLACK
6
CONTINUOUS
10
2.1025
20
-0.5024
11
2.11236
21
-0.510174
0
LINE
8
BLACK
6
CONTINUOUS
10
2.11236
20
-0.510174
11
2.12121
21
-0.519076
0
LINE
8
BLACK
6
CONTINUOUS
10
2.12121
20
-0.519076
11
2.12893
21
-0.528977
0
LINE
8
BLACK
6
CONTINUOUS
10
2.12893
20
-0.528977
11
2.13541
21
-0.539735
0
LINE
8
BLACK
6
CONTINUOUS
10
2.13541
20
-0.539735
11
2.14055
21
-0.551193
0
LINE
8
BLACK
6
CONTINUOUS
10
2.14055
20
-0.551193
11
2.14427
21
-0.563184
0
LINE
8
BLACK
6
CONTINUOUS
10
2.14427
20
-0.563184
11
2.14653
21
-0.575537
0
LINE
8
BLACK
6
CONTINUOUS
10
2.14653
20
-0.575537
11
2.14728
21
-0.588071
0
LINE
8
BLACK
6
CONTINUOUS
10
2.14728
20
-0.588071
11
2.14726
21
-0.590256
0
LINE
8
BLACK
6
CONTINUOUS
10
2.14726
20
-0.590256
11
2.14624
21
-0.602771
0
LINE
8
BLACK
6
CONTINUOUS
10
2.14624
20
-0.602771
11
2.14373
21
-0.615074
0
LINE
8
BLACK
6
CONTINUOUS
10
2.14373
20
-0.615074
11
2.13975
21
-0.626985
0
LINE
8
BLACK
6
CONTINUOUS
10
2.13975
20
-0.626985
11
2.13438
21
-0.638333
0
LINE
8
BLACK
6
CONTINUOUS
10
2.13438
20
-0.638333
11
2.12768
21
-0.648952
0
LINE
8
BLACK
6
CONTINUOUS
10
2.12768
20
-0.648952
11
2.11975
21
-0.65869
0
LINE
8
BLACK
6
CONTINUOUS
10
2.11975
20
-0.65869
11
2.11071
21
-0.667405
0
LINE
8
BLACK
6
CONTINUOUS
10
2.11071
20
-0.667405
11
2.10069
21
-0.67497
0
LINE
8
BLACK
6
CONTINUOUS
10
2.10069
20
-0.67497
11
2.08983
21
-0.681277
0
LINE
8
BLACK
6
CONTINUOUS
10
2.08983
20
-0.681277
11
2.07829
21
-0.686234
0
LINE
8
BLACK
6
CONTINUOUS
10
2.07829
20
-0.686234
11
2.06624
21
-0.689768
0
LINE
8
BLACK
6
CONTINUOUS
10
2.06624
20
-0.689768
11
2.05386
21
-0.69183
0
LINE
8
BLACK
6
CONTINUOUS
10
2.05386
20
-0.69183
11
2.04131
21
-0.692389
0
LINE
8
BLACK
6
CONTINUOUS
10
2.04131
20
-0.692389
11
2.02879
21
-0.691436
0
LINE
8
BLACK
6
CONTINUOUS
10
2.02879
20
-0.691436
11
2.01648
21
-0.688987
0
LINE
8
BLACK
6
CONTINUOUS
10
2.01648
20
-0.688987
11
2.00455
21
-0.685075
0
LINE
8
BLACK
6
CONTINUOUS
10
2.00455
20
-0.685075
11
1.99317
21
-0.679758
0
LINE
8
BLACK
6
CONTINUOUS
10
1.99317
20
-0.679758
11
1.98252
21
-0.673114
0
LINE
8
BLACK
6
CONTINUOUS
10
1.98252
20
-0.673114
11
1.97274
21
-0.665237
0
LINE
8
BLACK
6
CONTINUOUS
10
1.97274
20
-0.665237
11
1.96397
21
-0.656243
0
LINE
8
BLACK
6
CONTINUOUS
10
1.96397
20
-0.656243
11
1.95636
21
-0.646261
0
LINE
8
BLACK
6
CONTINUOUS
10
1.95636
20
-0.646261
11
1.94999
21
-0.635436
0
LINE
8
BLACK
6
CONTINUOUS
10
1.94999
20
-0.635436
11
1.94498
21
-0.623925
0
LINE
8
BLACK
6
CONTINUOUS
10
1.94498
20
-0.623925
11
1.94138
21
-0.611895
0
LINE
8
BLACK
6
CONTINUOUS
10
1.94138
20
-0.611895
11
1.93925
21
-0.59952
0
LINE
8
BLACK
6
CONTINUOUS
10
1.93925
20
-0.59952
11
1.93863
21
-0.586978
0
LINE
8
BLACK
6
CONTINUOUS
10
1.93863
20
-0.586978
11
1.93951
21
-0.574453
0
LINE
8
BLACK
6
CONTINUOUS
10
1.93951
20
-0.574453
11
1.9419
21
-0.562125
0
LINE
8
BLACK
6
CONTINUOUS
10
1.9419
20
-0.562125
11
1.94575
21
-0.550173
0
LINE
8
BLACK
6
CONTINUOUS
10
1.94575
20
-0.550173
11
1.95101
21
-0.538769
0
LINE
8
BLACK
6
CONTINUOUS
10
1.95101
20
-0.538769
11
1.95759
21
-0.52808
0
LINE
8
BLACK
6
CONTINUOUS
10
1.95759
20
-0.52808
11
1.96542
21
-0.51826
0
LINE
8
BLACK
6
CONTINUOUS
10
1.96542
20
-0.51826
11
1.97437
21
-0.509451
0
LINE
8
BLACK
6
CONTINUOUS
10
1.97437
20
-0.509451
11
1.98431
21
-0.501781
0
LINE
8
BLACK
6
CONTINUOUS
10
1.98431
20
-0.501781
11
1.9951
21
-0.495361
0
LINE
8
BLACK
6
CONTINUOUS
10
1.9951
20
-0.495361
11
2.00659
21
-0.490284
0
LINE
8
BLACK
6
CONTINUOUS
10
2.00659
20
-0.490284
11
2.0186
21
-0.486623
0
LINE
8
BLACK
6
CONTINUOUS
10
2.0186
20
-0.486623
11
2.03096
21
-0.484432
0
LINE
8
BLACK
6
CONTINUOUS
10
2.03096
20
-0.484432
11
2.0435
21
-0.483742
0
LINE
8
BLACK
6
CONTINUOUS
10
2.0435
20
-0.483742
11
2.05603
21
-0.484563
0
LINE
8
BLACK
6
CONTINUOUS
10
0.525443
20
-0.39301
11
0.529696
21
-0.395177
0
LINE
8
BLACK
6
CONTINUOUS
10
0.529696
20
-0.395177
11
0.533071
21
-0.398552
0
LINE
8
BLACK
6
CONTINUOUS
10
0.533071
20
-0.398552
11
0.535238
21
-0.402805
0
LINE
8
BLACK
6
CONTINUOUS
10
0.535238
20
-0.402805
11
0.535984
21
-0.40752
0
LINE
8
BLACK
6
CONTINUOUS
10
0.535984
20
-0.40752
11
0.535238
21
-0.412234
0
LINE
8
BLACK
6
CONTINUOUS
10
0.535238
20
-0.412234
11
0.533071
21
-0.416487
0
LINE
8
BLACK
6
CONTINUOUS
10
0.533071
20
-0.416487
11
0.529696
21
-0.419862
0
LINE
8
BLACK
6
CONTINUOUS
10
0.529696
20
-0.419862
11
0.525443
21
-0.422029
0
LINE
8
BLACK
6
CONTINUOUS
10
0.525443
20
-0.422029
11
0.520728
21
-0.422776
0
LINE
8
BLACK
6
CONTINUOUS
10
0.520728
20
-0.422776
11
0.490216
21
-0.422776
0
LINE
8
BLACK
6
CONTINUOUS
10
0.490216
20
-0.422776
11
0.485502
21
-0.422029
0
LINE
8
BLACK
6
CONTINUOUS
10
0.485502
20
-0.422029
11
0.481249
21
-0.419862
0
LINE
8
BLACK
6
CONTINUOUS
10
0.481249
20
-0.419862
11
0.477874
21
-0.416487
0
LINE
8
BLACK
6
CONTINUOUS
10
0.477874
20
-0.416487
11
0.475707
21
-0.412234
0
LINE
8
BLACK
6
CONTINUOUS
10
0.475707
20
-0.412234
11
0.474961
21
-0.40752
0
LINE
8
BLACK
6
CONTINUOUS
10
0.474961
20
-0.40752
11
0.475707
21
-0.402805
0
LINE
8
BLACK
6
CONTINUOUS
10
0.475707
20
-0.402805
11
0.477874
21
-0.398552
0
LINE
8
BLACK
6
CONTINUOUS
10
0.477874
20
-0.398552
11
0.481249
21
-0.395177
0
LINE
8
BLACK
6
CONTINUOUS
10
0.481249
20
-0.395177
11
0.485502
21
-0.39301
0
LINE
8
BLACK
6
CONTINUOUS
10
0.485502
20
-0.39301
11
0.490216
21
-0.392264
0
LINE
8
BLACK
6
CONTINUOUS
10
0.490216
20
-0.392264
11
0.520728
21
-0.392264
0
LINE
8
BLACK
6
CONTINUOUS
10
0.520728
20
-0.392264
11
0.525443
21
-0.39301
0
LINE
8
BLACK
6
CONTINUOUS
10
0.405571
20
-0.344273
11
0.408975
21
-0.34713
0
LINE
8
BLACK
6
CONTINUOUS
10
0.408975
20
-0.34713
11
0.411197
21
-0.350978
0
LINE
8
BLACK
6
CONTINUOUS
10
0.411197
20
-0.350978
11
0.411968
21
-0.355354
0
LINE
8
BLACK
6
CONTINUOUS
10
0.411968
20
-0.355354
11
0.411968
21
-0.380945
0
LINE
8
BLACK
6
CONTINUOUS
10
0.411968
20
-0.380945
11
0.411197
21
-0.385321
0
LINE
8
BLACK
6
CONTINUOUS
10
0.411197
20
-0.385321
11
0.408975
21
-0.38917
0
LINE
8
BLACK
6
CONTINUOUS
10
0.408975
20
-0.38917
11
0.405571
21
-0.392026
0
LINE
8
BLACK
6
CONTINUOUS
10
0.405571
20
-0.392026
11
0.401395
21
-0.393546
0
LINE
8
BLACK
6
CONTINUOUS
10
0.401395
20
-0.393546
11
0.396951
21
-0.393546
0
LINE
8
BLACK
6
CONTINUOUS
10
0.396951
20
-0.393546
11
0.392776
21
-0.392026
0
LINE
8
BLACK
6
CONTINUOUS
10
0.392776
20
-0.392026
11
0.389371
21
-0.38917
0
LINE
8
BLACK
6
CONTINUOUS
10
0.389371
20
-0.38917
11
0.38715
21
-0.385321
0
LINE
8
BLACK
6
CONTINUOUS
10
0.38715
20
-0.385321
11
0.386378
21
-0.380945
0
LINE
8
BLACK
6
CONTINUOUS
10
0.386378
20
-0.380945
11
0.386378
21
-0.355354
0
LINE
8
BLACK
6
CONTINUOUS
10
0.386378
20
-0.355354
11
0.38715
21
-0.350978
0
LINE
8
BLACK
6
CONTINUOUS
10
0.38715
20
-0.350978
11
0.389371
21
-0.34713
0
LINE
8
BLACK
6
CONTINUOUS
10
0.389371
20
-0.34713
11
0.392776
21
-0.344273
0
LINE
8
BLACK
6
CONTINUOUS
10
0.392776
20
-0.344273
11
0.396951
21
-0.342753
0
LINE
8
BLACK
6
CONTINUOUS
10
0.396951
20
-0.342753
11
0.401395
21
-0.342753
0
LINE
8
BLACK
6
CONTINUOUS
10
0.401395
20
-0.342753
11
0.405571
21
-0.344273
0
LINE
8
BLACK
6
CONTINUOUS
10
0.405571
20
-0.147423
11
0.408975
21
-0.150279
0
LINE
8
BLACK
6
CONTINUOUS
10
0.408975
20
-0.150279
11
0.411197
21
-0.154128
0
LINE
8
BLACK
6
CONTINUOUS
10
0.411197
20
-0.154128
11
0.411968
21
-0.158504
0
LINE
8
BLACK
6
CONTINUOUS
10
0.411968
20
-0.158504
11
0.411968
21
-0.184094
0
LINE
8
BLACK
6
CONTINUOUS
10
0.411968
20
-0.184094
11
0.411197
21
-0.188471
0
LINE
8
BLACK
6
CONTINUOUS
10
0.411197
20
-0.188471
11
0.408975
21
-0.192319
0
LINE
8
BLACK
6
CONTINUOUS
10
0.408975
20
-0.192319
11
0.405571
21
-0.195176
0
LINE
8
BLACK
6
CONTINUOUS
10
0.405571
20
-0.195176
11
0.401395
21
-0.196695
0
LINE
8
BLACK
6
CONTINUOUS
10
0.401395
20
-0.196695
11
0.396951
21
-0.196695
0
LINE
8
BLACK
6
CONTINUOUS
10
0.396951
20
-0.196695
11
0.392776
21
-0.195176
0
LINE
8
BLACK
6
CONTINUOUS
10
0.392776
20
-0.195176
11
0.389371
21
-0.192319
0
LINE
8
BLACK
6
CONTINUOUS
10
0.389371
20
-0.192319
11
0.38715
21
-0.188471
0
LINE
8
BLACK
6
CONTINUOUS
10
0.38715
20
-0.188471
11
0.386378
21
-0.184094
0
LINE
8
BLACK
6
CONTINUOUS
10
0.386378
20
-0.184094
11
0.386378
21
-0.158504
0
LINE
8
BLACK
6
CONTINUOUS
10
0.386378
20
-0.158504
11
0.38715
21
-0.154128
0
LINE
8
BLACK
6
CONTINUOUS
10
0.38715
20
-0.154128
11
0.389371
21
-0.150279
0
LINE
8
BLACK
6
CONTINUOUS
10
0.389371
20
-0.150279
11
0.392776
21
-0.147423
0
LINE
8
BLACK
6
CONTINUOUS
10
0.392776
20
-0.147423
11
0.396951
21
-0.145903
0
LINE
8
BLACK
6
CONTINUOUS
10
0.396951
20
-0.145903
11
0.401395
21
-0.145903
0
LINE
8
BLACK
6
CONTINUOUS
10
0.401395
20
-0.145903
11
0.405571
21
-0.147423
0
LINE
8
BLACK
6
CONTINUOUS
10
0.525443
20
-0.11742
11
0.529696
21
-0.119587
0
LINE
8
BLACK
6
CONTINUOUS
10
0.529696
20
-0.119587
11
0.533071
21
-0.122962
0
LINE
8
BLACK
6
CONTINUOUS
10
0.533071
20
-0.122962
11
0.535238
21
-0.127215
0
LINE
8
BLACK
6
CONTINUOUS
10
0.535238
20
-0.127215
11
0.535984
21
-0.131929
0
LINE
8
BLACK
6
CONTINUOUS
10
0.535984
20
-0.131929
11
0.535238
21
-0.136643
0
LINE
8
BLACK
6
CONTINUOUS
10
0.535238
20
-0.136643
11
0.533071
21
-0.140896
0
LINE
8
BLACK
6
CONTINUOUS
10
0.533071
20
-0.140896
11
0.529696
21
-0.144271
0
LINE
8
BLACK
6
CONTINUOUS
10
0.529696
20
-0.144271
11
0.525443
21
-0.146438
0
LINE
8
BLACK
6
CONTINUOUS
10
0.525443
20
-0.146438
11
0.520728
21
-0.147185
0
LINE
8
BLACK
6
CONTINUOUS
10
0.520728
20
-0.147185
11
0.490216
21
-0.147185
0
LINE
8
BLACK
6
CONTINUOUS
10
0.490216
20
-0.147185
11
0.485502
21
-0.146438
0
LINE
8
BLACK
6
CONTINUOUS
10
0.485502
20
-0.146438
11
0.481249
21
-0.144271
0
LINE
8
BLACK
6
CONTINUOUS
10
0.481249
20
-0.144271
11
0.477874
21
-0.140896
0
LINE
8
BLACK
6
CONTINUOUS
10
0.477874
20
-0.140896
11
0.475707
21
-0.136643
0
LINE
8
BLACK
6
CONTINUOUS
10
0.475707
20
-0.136643
11
0.474961
21
-0.131929
0
LINE
8
BLACK
6
CONTINUOUS
10
0.474961
20
-0.131929
11
0.475707
21
-0.127215
0
LINE
8
BLACK
6
CONTINUOUS
10
0.475707
20
-0.127215
11
0.477874
21
-0.122962
0
LINE
8
BLACK
6
CONTINUOUS
10
0.477874
20
-0.122962
11
0.481249
21
-0.119587
0
LINE
8
BLACK
6
CONTINUOUS
10
0.481249
20
-0.119587
11
0.485502
21
-0.11742
0
LINE
8
BLACK
6
CONTINUOUS
10
0.485502
20
-0.11742
11
0.490216
21
-0.116673
0
LINE
8
BLACK
6
CONTINUOUS
10
0.490216
20
-0.116673
11
0.520728
21
-0.116673
0
LINE
8
BLACK
6
CONTINUOUS
10
0.520728
20
-0.116673
11
0.525443
21
-0.11742
0
LINE
8
BLACK
6
CONTINUOUS
10
-0.00139193
20
-4.3321
11
-0.0019685
21
-4.33071
0
LINE
8
BLACK
6
CONTINUOUS
10
-0.0019685
20
-4.33071
11
-0.0019685
21
0
0
LINE
8
BLACK
6
CONTINUOUS
10
-0.0019685
20
0
11
-0.00139193
21
0.00139193
0
LINE
8
BLACK
6
CONTINUOUS
10
-0.00139193
20
0.00139193
11
0
21
0.0019685
0
LINE
8
BLACK
6
CONTINUOUS
10
0
20
0.0019685
11
4.25197
21
0.0019685
0
LINE
8
BLACK
6
CONTINUOUS
10
4.25197
20
0.0019685
11
4.25336
21
0.00139193
0
LINE
8
BLACK
6
CONTINUOUS
10
4.25336
20
0.00139193
11
4.25394
21
0
0
LINE
8
BLACK
6
CONTINUOUS
10
4.25394
20
0
11
4.25394
21
-4.33071
0
LINE
8
BLACK
6
CONTINUOUS
10
4.25394
20
-4.33071
11
4.25336
21
-4.3321
0
LINE
8
BLACK
6
CONTINUOUS
10
4.25336
20
-4.3321
11
4.25197
21
-4.33268
0
LINE
8
BLACK
6
CONTINUOUS
10
4.25197
20
-4.33268
11
0
21
-4.33268
0
LINE
8
BLACK
6
CONTINUOUS
10
0
20
-4.33268
11
-0.00139193
21
-4.3321
0
LINE
8
BLACK
6
CONTINUOUS
10
0.0019685
20
-0.0019685
11
0.0019685
21
-4.32874
0
LINE
8
BLACK
6
CONTINUOUS
10
0.0019685
20
-4.32874
11
4.25
21
-4.32874
0
LINE
8
BLACK
6
CONTINUOUS
10
4.25
20
-4.32874
11
4.25
21
-0.0019685
0
LINE
8
BLACK
6
CONTINUOUS
10
4.25
20
-0.0019685
11
0.0019685
21
-0.0019685
  0
ENDSEC
  0
EOF
