%TF.GenerationSoftware,KiCad,Pcbnew,5.99.0-unknown-b84d1456d5~131~ubuntu20.04.1*%
%TF.CreationDate,2021-09-21T16:18:27-05:00*%
%TF.ProjectId,AP2000,41503230-3030-42e6-9b69-6361645f7063,rev?*%
%TF.SameCoordinates,Original*%
%TF.FileFunction,Legend,Bot*%
%TF.FilePolarity,Positive*%
%FSLAX46Y46*%
G04 Gerber Fmt 4.6, Leading zero omitted, Abs format (unit mm)*
G04 Created by KiCad (PCBNEW 5.99.0-unknown-b84d1456d5~131~ubuntu20.04.1) date 2021-09-21 16:18:27*
%MOMM*%
%LPD*%
G01*
G04 APERTURE LIST*
%TA.AperFunction,Profile*%
%ADD10C,0.100000*%
%TD*%
%ADD11C,0.152400*%
%ADD12C,0.120000*%
G04 APERTURE END LIST*
D10*
X108000000Y0D02*
X108000000Y-110000000D01*
X0Y0D02*
X108000000Y0D01*
X0Y-110000000D02*
X108000000Y-110000000D01*
X0Y-110000000D02*
X0Y0D01*
D11*
X63193971Y-9014695D02*
X63193971Y-8201895D01*
X63000447Y-8201895D01*
X62884333Y-8240600D01*
X62806923Y-8318009D01*
X62768219Y-8395419D01*
X62729514Y-8550238D01*
X62729514Y-8666352D01*
X62768219Y-8821171D01*
X62806923Y-8898580D01*
X62884333Y-8975990D01*
X63000447Y-9014695D01*
X63193971Y-9014695D01*
X62419876Y-8279304D02*
X62381171Y-8240600D01*
X62303761Y-8201895D01*
X62110238Y-8201895D01*
X62032828Y-8240600D01*
X61994123Y-8279304D01*
X61955419Y-8356714D01*
X61955419Y-8434123D01*
X61994123Y-8550238D01*
X62458580Y-9014695D01*
X61955419Y-9014695D01*
X61452257Y-8201895D02*
X61374847Y-8201895D01*
X61297438Y-8240600D01*
X61258733Y-8279304D01*
X61220028Y-8356714D01*
X61181323Y-8511533D01*
X61181323Y-8705057D01*
X61220028Y-8859876D01*
X61258733Y-8937285D01*
X61297438Y-8975990D01*
X61374847Y-9014695D01*
X61452257Y-9014695D01*
X61529666Y-8975990D01*
X61568371Y-8937285D01*
X61607076Y-8859876D01*
X61645780Y-8705057D01*
X61645780Y-8511533D01*
X61607076Y-8356714D01*
X61568371Y-8279304D01*
X61529666Y-8240600D01*
X61452257Y-8201895D01*
X45976923Y-9043695D02*
X45976923Y-8230895D01*
X45783400Y-8230895D01*
X45667285Y-8269600D01*
X45589876Y-8347009D01*
X45551171Y-8424419D01*
X45512466Y-8579238D01*
X45512466Y-8695352D01*
X45551171Y-8850171D01*
X45589876Y-8927580D01*
X45667285Y-9004990D01*
X45783400Y-9043695D01*
X45976923Y-9043695D01*
X45241533Y-8230895D02*
X44738371Y-8230895D01*
X45009304Y-8540533D01*
X44893190Y-8540533D01*
X44815780Y-8579238D01*
X44777076Y-8617942D01*
X44738371Y-8695352D01*
X44738371Y-8888876D01*
X44777076Y-8966285D01*
X44815780Y-9004990D01*
X44893190Y-9043695D01*
X45125419Y-9043695D01*
X45202828Y-9004990D01*
X45241533Y-8966285D01*
X54841971Y-9017695D02*
X54841971Y-8204895D01*
X54648447Y-8204895D01*
X54532333Y-8243600D01*
X54454923Y-8321009D01*
X54416219Y-8398419D01*
X54377514Y-8553238D01*
X54377514Y-8669352D01*
X54416219Y-8824171D01*
X54454923Y-8901580D01*
X54532333Y-8978990D01*
X54648447Y-9017695D01*
X54841971Y-9017695D01*
X53603419Y-9017695D02*
X54067876Y-9017695D01*
X53835647Y-9017695D02*
X53835647Y-8204895D01*
X53913057Y-8321009D01*
X53990466Y-8398419D01*
X54067876Y-8437123D01*
X53216371Y-9017695D02*
X53061552Y-9017695D01*
X52984142Y-8978990D01*
X52945438Y-8940285D01*
X52868028Y-8824171D01*
X52829323Y-8669352D01*
X52829323Y-8359714D01*
X52868028Y-8282304D01*
X52906733Y-8243600D01*
X52984142Y-8204895D01*
X53138961Y-8204895D01*
X53216371Y-8243600D01*
X53255076Y-8282304D01*
X53293780Y-8359714D01*
X53293780Y-8553238D01*
X53255076Y-8630647D01*
X53216371Y-8669352D01*
X53138961Y-8708057D01*
X52984142Y-8708057D01*
X52906733Y-8669352D01*
X52868028Y-8630647D01*
X52829323Y-8553238D01*
D12*
X61015000Y-10735000D02*
X61015000Y-9265000D01*
X61015000Y-9265000D02*
X63300000Y-9265000D01*
X63300000Y-10735000D02*
X61015000Y-10735000D01*
X46300000Y-10735000D02*
X44015000Y-10735000D01*
X44015000Y-10735000D02*
X44015000Y-9265000D01*
X44015000Y-9265000D02*
X46300000Y-9265000D01*
X52515000Y-10735000D02*
X52515000Y-9265000D01*
X54800000Y-10735000D02*
X52515000Y-10735000D01*
X52515000Y-9265000D02*
X54800000Y-9265000D01*
M02*
