%TF.GenerationSoftware,KiCad,Pcbnew,5.99.0-unknown-b84d1456d5~131~ubuntu20.04.1*%
%TF.CreationDate,2021-09-21T16:18:27-05:00*%
%TF.ProjectId,AP2000,41503230-3030-42e6-9b69-6361645f7063,rev?*%
%TF.SameCoordinates,Original*%
%TF.FileFunction,Soldermask,Top*%
%TF.FilePolarity,Negative*%
%FSLAX46Y46*%
G04 Gerber Fmt 4.6, Leading zero omitted, Abs format (unit mm)*
G04 Created by KiCad (PCBNEW 5.99.0-unknown-b84d1456d5~131~ubuntu20.04.1) date 2021-09-21 16:18:27*
%MOMM*%
%LPD*%
G01*
G04 APERTURE LIST*
G04 Aperture macros list*
%AMRoundRect*
0 Rectangle with rounded corners*
0 $1 Rounding radius*
0 $2 $3 $4 $5 $6 $7 $8 $9 X,Y pos of 4 corners*
0 Add a 4 corners polygon primitive as box body*
4,1,4,$2,$3,$4,$5,$6,$7,$8,$9,$2,$3,0*
0 Add four circle primitives for the rounded corners*
1,1,$1+$1,$2,$3*
1,1,$1+$1,$4,$5*
1,1,$1+$1,$6,$7*
1,1,$1+$1,$8,$9*
0 Add four rect primitives between the rounded corners*
20,1,$1+$1,$2,$3,$4,$5,0*
20,1,$1+$1,$4,$5,$6,$7,0*
20,1,$1+$1,$6,$7,$8,$9,0*
20,1,$1+$1,$8,$9,$2,$3,0*%
G04 Aperture macros list end*
%TA.AperFunction,Profile*%
%ADD10C,0.100000*%
%TD*%
%ADD11C,0.000100*%
%ADD12C,5.000000*%
%ADD13C,1.600000*%
%ADD14C,1.100000*%
%ADD15R,0.600000X2.000000*%
%ADD16R,2.300000X3.200000*%
%ADD17R,1.350000X0.400000*%
%ADD18R,1.550000X1.500000*%
%ADD19O,1.550000X0.775000*%
%ADD20O,0.650000X1.300000*%
%ADD21R,0.400000X1.350000*%
%ADD22R,1.500000X1.550000*%
%ADD23O,0.775000X1.550000*%
%ADD24O,1.300000X0.650000*%
%ADD25R,3.500000X3.500000*%
%ADD26RoundRect,0.750000X1.000000X-0.750000X1.000000X0.750000X-1.000000X0.750000X-1.000000X-0.750000X0*%
%ADD27RoundRect,0.875000X0.875000X-0.875000X0.875000X0.875000X-0.875000X0.875000X-0.875000X-0.875000X0*%
%ADD28RoundRect,0.200000X-0.200000X-0.275000X0.200000X-0.275000X0.200000X0.275000X-0.200000X0.275000X0*%
%ADD29RoundRect,0.200000X0.275000X-0.200000X0.275000X0.200000X-0.275000X0.200000X-0.275000X-0.200000X0*%
%ADD30RoundRect,0.225000X-0.250000X0.225000X-0.250000X-0.225000X0.250000X-0.225000X0.250000X0.225000X0*%
%ADD31RoundRect,0.200000X0.200000X0.275000X-0.200000X0.275000X-0.200000X-0.275000X0.200000X-0.275000X0*%
%ADD32R,1.800000X2.500000*%
%ADD33RoundRect,0.250000X0.475000X-0.250000X0.475000X0.250000X-0.475000X0.250000X-0.475000X-0.250000X0*%
%ADD34RoundRect,0.250000X0.650000X-0.325000X0.650000X0.325000X-0.650000X0.325000X-0.650000X-0.325000X0*%
%ADD35RoundRect,0.150000X0.150000X-0.825000X0.150000X0.825000X-0.150000X0.825000X-0.150000X-0.825000X0*%
%ADD36RoundRect,0.150000X-0.150000X0.662500X-0.150000X-0.662500X0.150000X-0.662500X0.150000X0.662500X0*%
%ADD37C,7.400000*%
%ADD38C,8.000000*%
%ADD39R,0.900000X1.200000*%
%ADD40R,5.100000X1.900000*%
%ADD41RoundRect,0.225000X0.250000X-0.225000X0.250000X0.225000X-0.250000X0.225000X-0.250000X-0.225000X0*%
%ADD42RoundRect,0.250000X-0.262500X-0.450000X0.262500X-0.450000X0.262500X0.450000X-0.262500X0.450000X0*%
%ADD43RoundRect,0.150000X0.650000X0.150000X-0.650000X0.150000X-0.650000X-0.150000X0.650000X-0.150000X0*%
%ADD44R,0.800000X0.900000*%
%ADD45R,1.900000X5.100000*%
%ADD46RoundRect,0.250000X-0.250000X-0.475000X0.250000X-0.475000X0.250000X0.475000X-0.250000X0.475000X0*%
%ADD47RoundRect,0.150000X0.512500X0.150000X-0.512500X0.150000X-0.512500X-0.150000X0.512500X-0.150000X0*%
%ADD48RoundRect,0.225000X0.225000X0.250000X-0.225000X0.250000X-0.225000X-0.250000X0.225000X-0.250000X0*%
%ADD49RoundRect,0.225000X-0.225000X-0.250000X0.225000X-0.250000X0.225000X0.250000X-0.225000X0.250000X0*%
%ADD50RoundRect,0.150000X-0.725000X-0.150000X0.725000X-0.150000X0.725000X0.150000X-0.725000X0.150000X0*%
%ADD51RoundRect,0.250000X-0.325000X-0.650000X0.325000X-0.650000X0.325000X0.650000X-0.325000X0.650000X0*%
%ADD52RoundRect,0.218750X-0.218750X-0.381250X0.218750X-0.381250X0.218750X0.381250X-0.218750X0.381250X0*%
%ADD53RoundRect,0.200000X-0.275000X0.200000X-0.275000X-0.200000X0.275000X-0.200000X0.275000X0.200000X0*%
%ADD54RoundRect,0.250000X-0.650000X0.325000X-0.650000X-0.325000X0.650000X-0.325000X0.650000X0.325000X0*%
%ADD55RoundRect,0.250001X-0.924999X0.499999X-0.924999X-0.499999X0.924999X-0.499999X0.924999X0.499999X0*%
%ADD56RoundRect,0.150000X0.150000X-0.512500X0.150000X0.512500X-0.150000X0.512500X-0.150000X-0.512500X0*%
%ADD57R,1.500000X2.400000*%
%ADD58R,1.500000X1.050000*%
%ADD59RoundRect,0.150000X-0.512500X-0.150000X0.512500X-0.150000X0.512500X0.150000X-0.512500X0.150000X0*%
%ADD60RoundRect,0.250000X-1.000000X1.950000X-1.000000X-1.950000X1.000000X-1.950000X1.000000X1.950000X0*%
%ADD61R,1.700000X1.700000*%
%ADD62O,1.700000X1.700000*%
%ADD63RoundRect,0.250000X1.100000X-0.325000X1.100000X0.325000X-1.100000X0.325000X-1.100000X-0.325000X0*%
%ADD64RoundRect,0.250000X-1.425000X0.362500X-1.425000X-0.362500X1.425000X-0.362500X1.425000X0.362500X0*%
%ADD65RoundRect,0.250000X-0.475000X0.250000X-0.475000X-0.250000X0.475000X-0.250000X0.475000X0.250000X0*%
%ADD66R,5.300000X2.000000*%
%ADD67RoundRect,0.250000X0.262500X0.450000X-0.262500X0.450000X-0.262500X-0.450000X0.262500X-0.450000X0*%
%ADD68C,6.100000*%
%ADD69R,1.000000X0.220000*%
%ADD70C,3.250000*%
%ADD71R,1.398000X1.398000*%
%ADD72C,1.398000*%
%ADD73C,1.200000*%
%ADD74C,1.650000*%
%ADD75C,2.362500*%
%ADD76RoundRect,0.250000X0.325000X1.100000X-0.325000X1.100000X-0.325000X-1.100000X0.325000X-1.100000X0*%
%ADD77RoundRect,0.250000X0.325000X0.650000X-0.325000X0.650000X-0.325000X-0.650000X0.325000X-0.650000X0*%
%ADD78RoundRect,0.250000X0.550000X-1.250000X0.550000X1.250000X-0.550000X1.250000X-0.550000X-1.250000X0*%
%ADD79R,3.360000X4.860000*%
%ADD80R,1.390000X1.400000*%
%ADD81R,0.750000X0.300000*%
%ADD82R,1.300000X1.500000*%
%ADD83RoundRect,0.218750X-0.381250X0.218750X-0.381250X-0.218750X0.381250X-0.218750X0.381250X0.218750X0*%
%ADD84R,1.270000X2.540000*%
%ADD85RoundRect,0.250000X-0.312500X-0.625000X0.312500X-0.625000X0.312500X0.625000X-0.312500X0.625000X0*%
%ADD86R,2.460000X3.550000*%
%ADD87RoundRect,0.100000X-0.687500X-0.100000X0.687500X-0.100000X0.687500X0.100000X-0.687500X0.100000X0*%
%ADD88RoundRect,0.218750X-0.256250X0.218750X-0.256250X-0.218750X0.256250X-0.218750X0.256250X0.218750X0*%
%ADD89RoundRect,0.218750X0.256250X-0.218750X0.256250X0.218750X-0.256250X0.218750X-0.256250X-0.218750X0*%
G04 APERTURE END LIST*
D10*
X108000000Y0D02*
X108000000Y-110000000D01*
X0Y0D02*
X108000000Y0D01*
X0Y-110000000D02*
X108000000Y-110000000D01*
X0Y-110000000D02*
X0Y0D01*
D11*
X13713999Y-3251000D02*
X13713999Y-4651000D01*
X13713999Y-4651000D02*
X11963999Y-4651000D01*
X11963999Y-4651000D02*
X11963999Y-3251000D01*
X11963999Y-3251000D02*
X11964999Y-3225000D01*
X11964999Y-3225000D02*
X11966999Y-3199000D01*
X11966999Y-3199000D02*
X11969999Y-3173000D01*
X11969999Y-3173000D02*
X11974999Y-3147000D01*
X11974999Y-3147000D02*
X11980999Y-3122000D01*
X11980999Y-3122000D02*
X11987999Y-3096000D01*
X11987999Y-3096000D02*
X11996999Y-3072000D01*
X11996999Y-3072000D02*
X12006999Y-3048000D01*
X12006999Y-3048000D02*
X12017999Y-3024000D01*
X12017999Y-3024000D02*
X12030999Y-3001000D01*
X12030999Y-3001000D02*
X12044999Y-2979000D01*
X12044999Y-2979000D02*
X12058999Y-2957000D01*
X12058999Y-2957000D02*
X12074999Y-2936000D01*
X12074999Y-2936000D02*
X12091999Y-2916000D01*
X12091999Y-2916000D02*
X12109999Y-2897000D01*
X12109999Y-2897000D02*
X12128999Y-2879000D01*
X12128999Y-2879000D02*
X12148999Y-2862000D01*
X12148999Y-2862000D02*
X12169999Y-2846000D01*
X12169999Y-2846000D02*
X12191999Y-2832000D01*
X12191999Y-2832000D02*
X12213999Y-2818000D01*
X12213999Y-2818000D02*
X12236999Y-2805000D01*
X12236999Y-2805000D02*
X12260999Y-2794000D01*
X12260999Y-2794000D02*
X12284999Y-2784000D01*
X12284999Y-2784000D02*
X12308999Y-2775000D01*
X12308999Y-2775000D02*
X12334999Y-2768000D01*
X12334999Y-2768000D02*
X12359999Y-2762000D01*
X12359999Y-2762000D02*
X12385999Y-2757000D01*
X12385999Y-2757000D02*
X12411999Y-2754000D01*
X12411999Y-2754000D02*
X12437999Y-2752000D01*
X12437999Y-2752000D02*
X12463999Y-2751000D01*
X12463999Y-2751000D02*
X13213999Y-2751000D01*
X13213999Y-2751000D02*
X13239999Y-2752000D01*
X13239999Y-2752000D02*
X13265999Y-2754000D01*
X13265999Y-2754000D02*
X13291999Y-2757000D01*
X13291999Y-2757000D02*
X13317999Y-2762000D01*
X13317999Y-2762000D02*
X13342999Y-2768000D01*
X13342999Y-2768000D02*
X13368999Y-2775000D01*
X13368999Y-2775000D02*
X13392999Y-2784000D01*
X13392999Y-2784000D02*
X13416999Y-2794000D01*
X13416999Y-2794000D02*
X13440999Y-2805000D01*
X13440999Y-2805000D02*
X13463999Y-2818000D01*
X13463999Y-2818000D02*
X13485999Y-2832000D01*
X13485999Y-2832000D02*
X13507999Y-2846000D01*
X13507999Y-2846000D02*
X13528999Y-2862000D01*
X13528999Y-2862000D02*
X13548999Y-2879000D01*
X13548999Y-2879000D02*
X13567999Y-2897000D01*
X13567999Y-2897000D02*
X13585999Y-2916000D01*
X13585999Y-2916000D02*
X13602999Y-2936000D01*
X13602999Y-2936000D02*
X13618999Y-2957000D01*
X13618999Y-2957000D02*
X13632999Y-2979000D01*
X13632999Y-2979000D02*
X13646999Y-3001000D01*
X13646999Y-3001000D02*
X13659999Y-3024000D01*
X13659999Y-3024000D02*
X13670999Y-3048000D01*
X13670999Y-3048000D02*
X13680999Y-3072000D01*
X13680999Y-3072000D02*
X13689999Y-3096000D01*
X13689999Y-3096000D02*
X13696999Y-3122000D01*
X13696999Y-3122000D02*
X13702999Y-3147000D01*
X13702999Y-3147000D02*
X13707999Y-3173000D01*
X13707999Y-3173000D02*
X13710999Y-3199000D01*
X13710999Y-3199000D02*
X13712999Y-3225000D01*
X13712999Y-3225000D02*
X13713999Y-3251000D01*
X13713999Y-3251000D02*
X13713999Y-3251000D01*
G36*
X13239999Y-2752000D02*
G01*
X13265999Y-2754000D01*
X13291999Y-2757000D01*
X13317999Y-2762000D01*
X13342999Y-2768000D01*
X13368999Y-2775000D01*
X13392999Y-2784000D01*
X13416999Y-2794000D01*
X13440999Y-2805000D01*
X13463999Y-2818000D01*
X13507999Y-2846000D01*
X13528999Y-2862000D01*
X13548999Y-2879000D01*
X13567999Y-2897000D01*
X13585999Y-2916000D01*
X13602999Y-2936000D01*
X13618999Y-2957000D01*
X13646999Y-3001000D01*
X13659999Y-3024000D01*
X13670999Y-3048000D01*
X13680999Y-3072000D01*
X13689999Y-3096000D01*
X13696999Y-3122000D01*
X13702999Y-3147000D01*
X13707999Y-3173000D01*
X13710999Y-3199000D01*
X13712999Y-3225000D01*
X13713999Y-3251000D01*
X13713999Y-4651000D01*
X11963999Y-4651000D01*
X11963999Y-3251000D01*
X11964999Y-3225000D01*
X11966999Y-3199000D01*
X11969999Y-3173000D01*
X11974999Y-3147000D01*
X11980999Y-3122000D01*
X11987999Y-3096000D01*
X11996999Y-3072000D01*
X12006999Y-3048000D01*
X12017999Y-3024000D01*
X12030999Y-3001000D01*
X12058999Y-2957000D01*
X12074999Y-2936000D01*
X12091999Y-2916000D01*
X12109999Y-2897000D01*
X12128999Y-2879000D01*
X12148999Y-2862000D01*
X12169999Y-2846000D01*
X12213999Y-2818000D01*
X12236999Y-2805000D01*
X12260999Y-2794000D01*
X12284999Y-2784000D01*
X12308999Y-2775000D01*
X12334999Y-2768000D01*
X12359999Y-2762000D01*
X12385999Y-2757000D01*
X12411999Y-2754000D01*
X12437999Y-2752000D01*
X12463999Y-2751000D01*
X13213999Y-2751000D01*
X13239999Y-2752000D01*
G37*
X13239999Y-2752000D02*
X13265999Y-2754000D01*
X13291999Y-2757000D01*
X13317999Y-2762000D01*
X13342999Y-2768000D01*
X13368999Y-2775000D01*
X13392999Y-2784000D01*
X13416999Y-2794000D01*
X13440999Y-2805000D01*
X13463999Y-2818000D01*
X13507999Y-2846000D01*
X13528999Y-2862000D01*
X13548999Y-2879000D01*
X13567999Y-2897000D01*
X13585999Y-2916000D01*
X13602999Y-2936000D01*
X13618999Y-2957000D01*
X13646999Y-3001000D01*
X13659999Y-3024000D01*
X13670999Y-3048000D01*
X13680999Y-3072000D01*
X13689999Y-3096000D01*
X13696999Y-3122000D01*
X13702999Y-3147000D01*
X13707999Y-3173000D01*
X13710999Y-3199000D01*
X13712999Y-3225000D01*
X13713999Y-3251000D01*
X13713999Y-4651000D01*
X11963999Y-4651000D01*
X11963999Y-3251000D01*
X11964999Y-3225000D01*
X11966999Y-3199000D01*
X11969999Y-3173000D01*
X11974999Y-3147000D01*
X11980999Y-3122000D01*
X11987999Y-3096000D01*
X11996999Y-3072000D01*
X12006999Y-3048000D01*
X12017999Y-3024000D01*
X12030999Y-3001000D01*
X12058999Y-2957000D01*
X12074999Y-2936000D01*
X12091999Y-2916000D01*
X12109999Y-2897000D01*
X12128999Y-2879000D01*
X12148999Y-2862000D01*
X12169999Y-2846000D01*
X12213999Y-2818000D01*
X12236999Y-2805000D01*
X12260999Y-2794000D01*
X12284999Y-2784000D01*
X12308999Y-2775000D01*
X12334999Y-2768000D01*
X12359999Y-2762000D01*
X12385999Y-2757000D01*
X12411999Y-2754000D01*
X12437999Y-2752000D01*
X12463999Y-2751000D01*
X13213999Y-2751000D01*
X13239999Y-2752000D01*
X11963999Y-10451000D02*
X11963999Y-9051000D01*
X11963999Y-9051000D02*
X13713999Y-9051000D01*
X13713999Y-9051000D02*
X13713999Y-10451000D01*
X13713999Y-10451000D02*
X13712999Y-10477000D01*
X13712999Y-10477000D02*
X13710999Y-10503000D01*
X13710999Y-10503000D02*
X13707999Y-10529000D01*
X13707999Y-10529000D02*
X13702999Y-10555000D01*
X13702999Y-10555000D02*
X13696999Y-10580000D01*
X13696999Y-10580000D02*
X13689999Y-10606000D01*
X13689999Y-10606000D02*
X13680999Y-10630000D01*
X13680999Y-10630000D02*
X13670999Y-10654000D01*
X13670999Y-10654000D02*
X13659999Y-10678000D01*
X13659999Y-10678000D02*
X13646999Y-10701000D01*
X13646999Y-10701000D02*
X13632999Y-10723000D01*
X13632999Y-10723000D02*
X13618999Y-10745000D01*
X13618999Y-10745000D02*
X13602999Y-10766000D01*
X13602999Y-10766000D02*
X13585999Y-10786000D01*
X13585999Y-10786000D02*
X13567999Y-10805000D01*
X13567999Y-10805000D02*
X13548999Y-10823000D01*
X13548999Y-10823000D02*
X13528999Y-10840000D01*
X13528999Y-10840000D02*
X13507999Y-10856000D01*
X13507999Y-10856000D02*
X13485999Y-10870000D01*
X13485999Y-10870000D02*
X13463999Y-10884000D01*
X13463999Y-10884000D02*
X13440999Y-10897000D01*
X13440999Y-10897000D02*
X13416999Y-10908000D01*
X13416999Y-10908000D02*
X13392999Y-10918000D01*
X13392999Y-10918000D02*
X13368999Y-10927000D01*
X13368999Y-10927000D02*
X13342999Y-10934000D01*
X13342999Y-10934000D02*
X13317999Y-10940000D01*
X13317999Y-10940000D02*
X13291999Y-10945000D01*
X13291999Y-10945000D02*
X13265999Y-10948000D01*
X13265999Y-10948000D02*
X13239999Y-10950000D01*
X13239999Y-10950000D02*
X13213999Y-10951000D01*
X13213999Y-10951000D02*
X12463999Y-10951000D01*
X12463999Y-10951000D02*
X12437999Y-10950000D01*
X12437999Y-10950000D02*
X12411999Y-10948000D01*
X12411999Y-10948000D02*
X12385999Y-10945000D01*
X12385999Y-10945000D02*
X12359999Y-10940000D01*
X12359999Y-10940000D02*
X12334999Y-10934000D01*
X12334999Y-10934000D02*
X12308999Y-10927000D01*
X12308999Y-10927000D02*
X12284999Y-10918000D01*
X12284999Y-10918000D02*
X12260999Y-10908000D01*
X12260999Y-10908000D02*
X12236999Y-10897000D01*
X12236999Y-10897000D02*
X12213999Y-10884000D01*
X12213999Y-10884000D02*
X12191999Y-10870000D01*
X12191999Y-10870000D02*
X12169999Y-10856000D01*
X12169999Y-10856000D02*
X12148999Y-10840000D01*
X12148999Y-10840000D02*
X12128999Y-10823000D01*
X12128999Y-10823000D02*
X12109999Y-10805000D01*
X12109999Y-10805000D02*
X12091999Y-10786000D01*
X12091999Y-10786000D02*
X12074999Y-10766000D01*
X12074999Y-10766000D02*
X12058999Y-10745000D01*
X12058999Y-10745000D02*
X12044999Y-10723000D01*
X12044999Y-10723000D02*
X12030999Y-10701000D01*
X12030999Y-10701000D02*
X12017999Y-10678000D01*
X12017999Y-10678000D02*
X12006999Y-10654000D01*
X12006999Y-10654000D02*
X11996999Y-10630000D01*
X11996999Y-10630000D02*
X11987999Y-10606000D01*
X11987999Y-10606000D02*
X11980999Y-10580000D01*
X11980999Y-10580000D02*
X11974999Y-10555000D01*
X11974999Y-10555000D02*
X11969999Y-10529000D01*
X11969999Y-10529000D02*
X11966999Y-10503000D01*
X11966999Y-10503000D02*
X11964999Y-10477000D01*
X11964999Y-10477000D02*
X11963999Y-10451000D01*
X11963999Y-10451000D02*
X11963999Y-10451000D01*
G36*
X13713999Y-10451000D02*
G01*
X13712999Y-10477000D01*
X13710999Y-10503000D01*
X13707999Y-10529000D01*
X13702999Y-10555000D01*
X13696999Y-10580000D01*
X13689999Y-10606000D01*
X13680999Y-10630000D01*
X13670999Y-10654000D01*
X13659999Y-10678000D01*
X13646999Y-10701000D01*
X13618999Y-10745000D01*
X13602999Y-10766000D01*
X13585999Y-10786000D01*
X13567999Y-10805000D01*
X13548999Y-10823000D01*
X13528999Y-10840000D01*
X13507999Y-10856000D01*
X13463999Y-10884000D01*
X13440999Y-10897000D01*
X13416999Y-10908000D01*
X13392999Y-10918000D01*
X13368999Y-10927000D01*
X13342999Y-10934000D01*
X13317999Y-10940000D01*
X13291999Y-10945000D01*
X13265999Y-10948000D01*
X13239999Y-10950000D01*
X13213999Y-10951000D01*
X12463999Y-10951000D01*
X12437999Y-10950000D01*
X12411999Y-10948000D01*
X12385999Y-10945000D01*
X12359999Y-10940000D01*
X12334999Y-10934000D01*
X12308999Y-10927000D01*
X12284999Y-10918000D01*
X12260999Y-10908000D01*
X12236999Y-10897000D01*
X12213999Y-10884000D01*
X12169999Y-10856000D01*
X12148999Y-10840000D01*
X12128999Y-10823000D01*
X12109999Y-10805000D01*
X12091999Y-10786000D01*
X12074999Y-10766000D01*
X12058999Y-10745000D01*
X12030999Y-10701000D01*
X12017999Y-10678000D01*
X12006999Y-10654000D01*
X11996999Y-10630000D01*
X11987999Y-10606000D01*
X11980999Y-10580000D01*
X11974999Y-10555000D01*
X11969999Y-10529000D01*
X11966999Y-10503000D01*
X11964999Y-10477000D01*
X11963999Y-10451000D01*
X11963999Y-9051000D01*
X13713999Y-9051000D01*
X13713999Y-10451000D01*
G37*
X13713999Y-10451000D02*
X13712999Y-10477000D01*
X13710999Y-10503000D01*
X13707999Y-10529000D01*
X13702999Y-10555000D01*
X13696999Y-10580000D01*
X13689999Y-10606000D01*
X13680999Y-10630000D01*
X13670999Y-10654000D01*
X13659999Y-10678000D01*
X13646999Y-10701000D01*
X13618999Y-10745000D01*
X13602999Y-10766000D01*
X13585999Y-10786000D01*
X13567999Y-10805000D01*
X13548999Y-10823000D01*
X13528999Y-10840000D01*
X13507999Y-10856000D01*
X13463999Y-10884000D01*
X13440999Y-10897000D01*
X13416999Y-10908000D01*
X13392999Y-10918000D01*
X13368999Y-10927000D01*
X13342999Y-10934000D01*
X13317999Y-10940000D01*
X13291999Y-10945000D01*
X13265999Y-10948000D01*
X13239999Y-10950000D01*
X13213999Y-10951000D01*
X12463999Y-10951000D01*
X12437999Y-10950000D01*
X12411999Y-10948000D01*
X12385999Y-10945000D01*
X12359999Y-10940000D01*
X12334999Y-10934000D01*
X12308999Y-10927000D01*
X12284999Y-10918000D01*
X12260999Y-10908000D01*
X12236999Y-10897000D01*
X12213999Y-10884000D01*
X12169999Y-10856000D01*
X12148999Y-10840000D01*
X12128999Y-10823000D01*
X12109999Y-10805000D01*
X12091999Y-10786000D01*
X12074999Y-10766000D01*
X12058999Y-10745000D01*
X12030999Y-10701000D01*
X12017999Y-10678000D01*
X12006999Y-10654000D01*
X11996999Y-10630000D01*
X11987999Y-10606000D01*
X11980999Y-10580000D01*
X11974999Y-10555000D01*
X11969999Y-10529000D01*
X11966999Y-10503000D01*
X11964999Y-10477000D01*
X11963999Y-10451000D01*
X11963999Y-9051000D01*
X13713999Y-9051000D01*
X13713999Y-10451000D01*
X43548002Y-109701503D02*
X42148002Y-109701503D01*
X42148002Y-109701503D02*
X42148002Y-107951503D01*
X42148002Y-107951503D02*
X43548002Y-107951503D01*
X43548002Y-107951503D02*
X43574002Y-107952503D01*
X43574002Y-107952503D02*
X43600002Y-107954503D01*
X43600002Y-107954503D02*
X43626002Y-107957503D01*
X43626002Y-107957503D02*
X43652002Y-107962503D01*
X43652002Y-107962503D02*
X43677002Y-107968503D01*
X43677002Y-107968503D02*
X43703002Y-107975503D01*
X43703002Y-107975503D02*
X43727002Y-107984503D01*
X43727002Y-107984503D02*
X43751002Y-107994503D01*
X43751002Y-107994503D02*
X43775002Y-108005503D01*
X43775002Y-108005503D02*
X43798002Y-108018503D01*
X43798002Y-108018503D02*
X43820002Y-108032503D01*
X43820002Y-108032503D02*
X43842002Y-108046503D01*
X43842002Y-108046503D02*
X43863002Y-108062503D01*
X43863002Y-108062503D02*
X43883002Y-108079503D01*
X43883002Y-108079503D02*
X43902002Y-108097503D01*
X43902002Y-108097503D02*
X43920002Y-108116503D01*
X43920002Y-108116503D02*
X43937002Y-108136503D01*
X43937002Y-108136503D02*
X43953002Y-108157503D01*
X43953002Y-108157503D02*
X43967002Y-108179503D01*
X43967002Y-108179503D02*
X43981002Y-108201503D01*
X43981002Y-108201503D02*
X43994002Y-108224503D01*
X43994002Y-108224503D02*
X44005002Y-108248503D01*
X44005002Y-108248503D02*
X44015002Y-108272503D01*
X44015002Y-108272503D02*
X44024002Y-108296503D01*
X44024002Y-108296503D02*
X44031002Y-108322503D01*
X44031002Y-108322503D02*
X44037002Y-108347503D01*
X44037002Y-108347503D02*
X44042002Y-108373503D01*
X44042002Y-108373503D02*
X44045002Y-108399503D01*
X44045002Y-108399503D02*
X44047002Y-108425503D01*
X44047002Y-108425503D02*
X44048002Y-108451503D01*
X44048002Y-108451503D02*
X44048002Y-109201503D01*
X44048002Y-109201503D02*
X44047002Y-109227503D01*
X44047002Y-109227503D02*
X44045002Y-109253503D01*
X44045002Y-109253503D02*
X44042002Y-109279503D01*
X44042002Y-109279503D02*
X44037002Y-109305503D01*
X44037002Y-109305503D02*
X44031002Y-109330503D01*
X44031002Y-109330503D02*
X44024002Y-109356503D01*
X44024002Y-109356503D02*
X44015002Y-109380503D01*
X44015002Y-109380503D02*
X44005002Y-109404503D01*
X44005002Y-109404503D02*
X43994002Y-109428503D01*
X43994002Y-109428503D02*
X43981002Y-109451503D01*
X43981002Y-109451503D02*
X43967002Y-109473503D01*
X43967002Y-109473503D02*
X43953002Y-109495503D01*
X43953002Y-109495503D02*
X43937002Y-109516503D01*
X43937002Y-109516503D02*
X43920002Y-109536503D01*
X43920002Y-109536503D02*
X43902002Y-109555503D01*
X43902002Y-109555503D02*
X43883002Y-109573503D01*
X43883002Y-109573503D02*
X43863002Y-109590503D01*
X43863002Y-109590503D02*
X43842002Y-109606503D01*
X43842002Y-109606503D02*
X43820002Y-109620503D01*
X43820002Y-109620503D02*
X43798002Y-109634503D01*
X43798002Y-109634503D02*
X43775002Y-109647503D01*
X43775002Y-109647503D02*
X43751002Y-109658503D01*
X43751002Y-109658503D02*
X43727002Y-109668503D01*
X43727002Y-109668503D02*
X43703002Y-109677503D01*
X43703002Y-109677503D02*
X43677002Y-109684503D01*
X43677002Y-109684503D02*
X43652002Y-109690503D01*
X43652002Y-109690503D02*
X43626002Y-109695503D01*
X43626002Y-109695503D02*
X43600002Y-109698503D01*
X43600002Y-109698503D02*
X43574002Y-109700503D01*
X43574002Y-109700503D02*
X43548002Y-109701503D01*
X43548002Y-109701503D02*
X43548002Y-109701503D01*
G36*
X43574002Y-107952503D02*
G01*
X43600002Y-107954503D01*
X43626002Y-107957503D01*
X43652002Y-107962503D01*
X43677002Y-107968503D01*
X43703002Y-107975503D01*
X43727002Y-107984503D01*
X43751002Y-107994503D01*
X43775002Y-108005503D01*
X43798002Y-108018503D01*
X43842002Y-108046503D01*
X43863002Y-108062503D01*
X43883002Y-108079503D01*
X43902002Y-108097503D01*
X43920002Y-108116503D01*
X43937002Y-108136503D01*
X43953002Y-108157503D01*
X43981002Y-108201503D01*
X43994002Y-108224503D01*
X44005002Y-108248503D01*
X44015002Y-108272503D01*
X44024002Y-108296503D01*
X44031002Y-108322503D01*
X44037002Y-108347503D01*
X44042002Y-108373503D01*
X44045002Y-108399503D01*
X44047002Y-108425503D01*
X44048002Y-108451503D01*
X44048002Y-109201503D01*
X44047002Y-109227503D01*
X44045002Y-109253503D01*
X44042002Y-109279503D01*
X44037002Y-109305503D01*
X44031002Y-109330503D01*
X44024002Y-109356503D01*
X44015002Y-109380503D01*
X44005002Y-109404503D01*
X43994002Y-109428503D01*
X43981002Y-109451503D01*
X43953002Y-109495503D01*
X43937002Y-109516503D01*
X43920002Y-109536503D01*
X43902002Y-109555503D01*
X43883002Y-109573503D01*
X43863002Y-109590503D01*
X43842002Y-109606503D01*
X43798002Y-109634503D01*
X43775002Y-109647503D01*
X43751002Y-109658503D01*
X43727002Y-109668503D01*
X43703002Y-109677503D01*
X43677002Y-109684503D01*
X43652002Y-109690503D01*
X43626002Y-109695503D01*
X43600002Y-109698503D01*
X43574002Y-109700503D01*
X43548002Y-109701503D01*
X42148002Y-109701503D01*
X42148002Y-107951503D01*
X43548002Y-107951503D01*
X43574002Y-107952503D01*
G37*
X43574002Y-107952503D02*
X43600002Y-107954503D01*
X43626002Y-107957503D01*
X43652002Y-107962503D01*
X43677002Y-107968503D01*
X43703002Y-107975503D01*
X43727002Y-107984503D01*
X43751002Y-107994503D01*
X43775002Y-108005503D01*
X43798002Y-108018503D01*
X43842002Y-108046503D01*
X43863002Y-108062503D01*
X43883002Y-108079503D01*
X43902002Y-108097503D01*
X43920002Y-108116503D01*
X43937002Y-108136503D01*
X43953002Y-108157503D01*
X43981002Y-108201503D01*
X43994002Y-108224503D01*
X44005002Y-108248503D01*
X44015002Y-108272503D01*
X44024002Y-108296503D01*
X44031002Y-108322503D01*
X44037002Y-108347503D01*
X44042002Y-108373503D01*
X44045002Y-108399503D01*
X44047002Y-108425503D01*
X44048002Y-108451503D01*
X44048002Y-109201503D01*
X44047002Y-109227503D01*
X44045002Y-109253503D01*
X44042002Y-109279503D01*
X44037002Y-109305503D01*
X44031002Y-109330503D01*
X44024002Y-109356503D01*
X44015002Y-109380503D01*
X44005002Y-109404503D01*
X43994002Y-109428503D01*
X43981002Y-109451503D01*
X43953002Y-109495503D01*
X43937002Y-109516503D01*
X43920002Y-109536503D01*
X43902002Y-109555503D01*
X43883002Y-109573503D01*
X43863002Y-109590503D01*
X43842002Y-109606503D01*
X43798002Y-109634503D01*
X43775002Y-109647503D01*
X43751002Y-109658503D01*
X43727002Y-109668503D01*
X43703002Y-109677503D01*
X43677002Y-109684503D01*
X43652002Y-109690503D01*
X43626002Y-109695503D01*
X43600002Y-109698503D01*
X43574002Y-109700503D01*
X43548002Y-109701503D01*
X42148002Y-109701503D01*
X42148002Y-107951503D01*
X43548002Y-107951503D01*
X43574002Y-107952503D01*
X36348002Y-107951503D02*
X37748002Y-107951503D01*
X37748002Y-107951503D02*
X37748002Y-109701503D01*
X37748002Y-109701503D02*
X36348002Y-109701503D01*
X36348002Y-109701503D02*
X36322002Y-109700503D01*
X36322002Y-109700503D02*
X36296002Y-109698503D01*
X36296002Y-109698503D02*
X36270002Y-109695503D01*
X36270002Y-109695503D02*
X36244002Y-109690503D01*
X36244002Y-109690503D02*
X36219002Y-109684503D01*
X36219002Y-109684503D02*
X36193002Y-109677503D01*
X36193002Y-109677503D02*
X36169002Y-109668503D01*
X36169002Y-109668503D02*
X36145002Y-109658503D01*
X36145002Y-109658503D02*
X36121002Y-109647503D01*
X36121002Y-109647503D02*
X36098002Y-109634503D01*
X36098002Y-109634503D02*
X36076002Y-109620503D01*
X36076002Y-109620503D02*
X36054002Y-109606503D01*
X36054002Y-109606503D02*
X36033002Y-109590503D01*
X36033002Y-109590503D02*
X36013002Y-109573503D01*
X36013002Y-109573503D02*
X35994002Y-109555503D01*
X35994002Y-109555503D02*
X35976002Y-109536503D01*
X35976002Y-109536503D02*
X35959002Y-109516503D01*
X35959002Y-109516503D02*
X35943002Y-109495503D01*
X35943002Y-109495503D02*
X35929002Y-109473503D01*
X35929002Y-109473503D02*
X35915002Y-109451503D01*
X35915002Y-109451503D02*
X35902002Y-109428503D01*
X35902002Y-109428503D02*
X35891002Y-109404503D01*
X35891002Y-109404503D02*
X35881002Y-109380503D01*
X35881002Y-109380503D02*
X35872002Y-109356503D01*
X35872002Y-109356503D02*
X35865002Y-109330503D01*
X35865002Y-109330503D02*
X35859002Y-109305503D01*
X35859002Y-109305503D02*
X35854002Y-109279503D01*
X35854002Y-109279503D02*
X35851002Y-109253503D01*
X35851002Y-109253503D02*
X35849002Y-109227503D01*
X35849002Y-109227503D02*
X35848002Y-109201503D01*
X35848002Y-109201503D02*
X35848002Y-108451503D01*
X35848002Y-108451503D02*
X35849002Y-108425503D01*
X35849002Y-108425503D02*
X35851002Y-108399503D01*
X35851002Y-108399503D02*
X35854002Y-108373503D01*
X35854002Y-108373503D02*
X35859002Y-108347503D01*
X35859002Y-108347503D02*
X35865002Y-108322503D01*
X35865002Y-108322503D02*
X35872002Y-108296503D01*
X35872002Y-108296503D02*
X35881002Y-108272503D01*
X35881002Y-108272503D02*
X35891002Y-108248503D01*
X35891002Y-108248503D02*
X35902002Y-108224503D01*
X35902002Y-108224503D02*
X35915002Y-108201503D01*
X35915002Y-108201503D02*
X35929002Y-108179503D01*
X35929002Y-108179503D02*
X35943002Y-108157503D01*
X35943002Y-108157503D02*
X35959002Y-108136503D01*
X35959002Y-108136503D02*
X35976002Y-108116503D01*
X35976002Y-108116503D02*
X35994002Y-108097503D01*
X35994002Y-108097503D02*
X36013002Y-108079503D01*
X36013002Y-108079503D02*
X36033002Y-108062503D01*
X36033002Y-108062503D02*
X36054002Y-108046503D01*
X36054002Y-108046503D02*
X36076002Y-108032503D01*
X36076002Y-108032503D02*
X36098002Y-108018503D01*
X36098002Y-108018503D02*
X36121002Y-108005503D01*
X36121002Y-108005503D02*
X36145002Y-107994503D01*
X36145002Y-107994503D02*
X36169002Y-107984503D01*
X36169002Y-107984503D02*
X36193002Y-107975503D01*
X36193002Y-107975503D02*
X36219002Y-107968503D01*
X36219002Y-107968503D02*
X36244002Y-107962503D01*
X36244002Y-107962503D02*
X36270002Y-107957503D01*
X36270002Y-107957503D02*
X36296002Y-107954503D01*
X36296002Y-107954503D02*
X36322002Y-107952503D01*
X36322002Y-107952503D02*
X36348002Y-107951503D01*
X36348002Y-107951503D02*
X36348002Y-107951503D01*
G36*
X37748002Y-109701503D02*
G01*
X36348002Y-109701503D01*
X36322002Y-109700503D01*
X36296002Y-109698503D01*
X36270002Y-109695503D01*
X36244002Y-109690503D01*
X36219002Y-109684503D01*
X36193002Y-109677503D01*
X36169002Y-109668503D01*
X36145002Y-109658503D01*
X36121002Y-109647503D01*
X36098002Y-109634503D01*
X36054002Y-109606503D01*
X36033002Y-109590503D01*
X36013002Y-109573503D01*
X35994002Y-109555503D01*
X35976002Y-109536503D01*
X35959002Y-109516503D01*
X35943002Y-109495503D01*
X35915002Y-109451503D01*
X35902002Y-109428503D01*
X35891002Y-109404503D01*
X35881002Y-109380503D01*
X35872002Y-109356503D01*
X35865002Y-109330503D01*
X35859002Y-109305503D01*
X35854002Y-109279503D01*
X35851002Y-109253503D01*
X35849002Y-109227503D01*
X35848002Y-109201503D01*
X35848002Y-108451503D01*
X35849002Y-108425503D01*
X35851002Y-108399503D01*
X35854002Y-108373503D01*
X35859002Y-108347503D01*
X35865002Y-108322503D01*
X35872002Y-108296503D01*
X35881002Y-108272503D01*
X35891002Y-108248503D01*
X35902002Y-108224503D01*
X35915002Y-108201503D01*
X35943002Y-108157503D01*
X35959002Y-108136503D01*
X35976002Y-108116503D01*
X35994002Y-108097503D01*
X36013002Y-108079503D01*
X36033002Y-108062503D01*
X36054002Y-108046503D01*
X36098002Y-108018503D01*
X36121002Y-108005503D01*
X36145002Y-107994503D01*
X36169002Y-107984503D01*
X36193002Y-107975503D01*
X36219002Y-107968503D01*
X36244002Y-107962503D01*
X36270002Y-107957503D01*
X36296002Y-107954503D01*
X36322002Y-107952503D01*
X36348002Y-107951503D01*
X37748002Y-107951503D01*
X37748002Y-109701503D01*
G37*
X37748002Y-109701503D02*
X36348002Y-109701503D01*
X36322002Y-109700503D01*
X36296002Y-109698503D01*
X36270002Y-109695503D01*
X36244002Y-109690503D01*
X36219002Y-109684503D01*
X36193002Y-109677503D01*
X36169002Y-109668503D01*
X36145002Y-109658503D01*
X36121002Y-109647503D01*
X36098002Y-109634503D01*
X36054002Y-109606503D01*
X36033002Y-109590503D01*
X36013002Y-109573503D01*
X35994002Y-109555503D01*
X35976002Y-109536503D01*
X35959002Y-109516503D01*
X35943002Y-109495503D01*
X35915002Y-109451503D01*
X35902002Y-109428503D01*
X35891002Y-109404503D01*
X35881002Y-109380503D01*
X35872002Y-109356503D01*
X35865002Y-109330503D01*
X35859002Y-109305503D01*
X35854002Y-109279503D01*
X35851002Y-109253503D01*
X35849002Y-109227503D01*
X35848002Y-109201503D01*
X35848002Y-108451503D01*
X35849002Y-108425503D01*
X35851002Y-108399503D01*
X35854002Y-108373503D01*
X35859002Y-108347503D01*
X35865002Y-108322503D01*
X35872002Y-108296503D01*
X35881002Y-108272503D01*
X35891002Y-108248503D01*
X35902002Y-108224503D01*
X35915002Y-108201503D01*
X35943002Y-108157503D01*
X35959002Y-108136503D01*
X35976002Y-108116503D01*
X35994002Y-108097503D01*
X36013002Y-108079503D01*
X36033002Y-108062503D01*
X36054002Y-108046503D01*
X36098002Y-108018503D01*
X36121002Y-108005503D01*
X36145002Y-107994503D01*
X36169002Y-107984503D01*
X36193002Y-107975503D01*
X36219002Y-107968503D01*
X36244002Y-107962503D01*
X36270002Y-107957503D01*
X36296002Y-107954503D01*
X36322002Y-107952503D01*
X36348002Y-107951503D01*
X37748002Y-107951503D01*
X37748002Y-109701503D01*
D12*
X51891000Y-14937000D03*
D13*
X51491000Y-62987000D03*
D12*
X76091000Y-14937000D03*
D14*
X76491000Y-62987000D03*
D15*
X52191000Y-67087000D03*
X52591000Y-58887000D03*
X52991000Y-67087000D03*
X53391000Y-58887000D03*
X53791000Y-67087000D03*
X54191000Y-58887000D03*
X54591000Y-67087000D03*
X54991000Y-58887000D03*
X55391000Y-67087000D03*
X55791000Y-58887000D03*
X56191000Y-67087000D03*
X56591000Y-58887000D03*
X56991000Y-67087000D03*
X57391000Y-58887000D03*
X57791000Y-67087000D03*
X58191000Y-58887000D03*
X61791000Y-67087000D03*
X62191000Y-58887000D03*
X62591000Y-67087000D03*
X62991000Y-58887000D03*
X63391000Y-67087000D03*
X63791000Y-58887000D03*
X64191000Y-67087000D03*
X64591000Y-58887000D03*
X64991000Y-67087000D03*
X65391000Y-58887000D03*
X65791000Y-67087000D03*
X66191000Y-58887000D03*
X66591000Y-67087000D03*
X66991000Y-58887000D03*
X67391000Y-67087000D03*
X67791000Y-58887000D03*
X68191000Y-67087000D03*
X68591000Y-58887000D03*
X68991000Y-67087000D03*
X69391000Y-58887000D03*
X69791000Y-67087000D03*
X70191000Y-58887000D03*
X70591000Y-67087000D03*
X70991000Y-58887000D03*
X71391000Y-67087000D03*
X71791000Y-58887000D03*
X72191000Y-67087000D03*
X72591000Y-58887000D03*
X72991000Y-67087000D03*
X73391000Y-58887000D03*
X73791000Y-67087000D03*
X74191000Y-58887000D03*
X74591000Y-67087000D03*
X74991000Y-58887000D03*
X75391000Y-67087000D03*
X75791000Y-58887000D03*
D16*
X49341000Y-66487000D03*
X78641000Y-66487000D03*
D17*
X10138999Y-8151000D03*
X10138999Y-7501000D03*
X10138999Y-6851000D03*
X10138999Y-6201000D03*
X10138999Y-5551000D03*
D18*
X12838999Y-9821000D03*
D19*
X12838999Y-10351000D03*
X12838999Y-3351000D03*
D20*
X10138999Y-4351000D03*
D18*
X12838999Y-7851000D03*
D20*
X10138999Y-9351000D03*
D18*
X12833999Y-5841000D03*
X12828999Y-3901000D03*
D21*
X38648002Y-106126503D03*
X39298002Y-106126503D03*
X39948002Y-106126503D03*
X40598002Y-106126503D03*
X41248002Y-106126503D03*
D22*
X36978002Y-108826503D03*
D23*
X36448002Y-108826503D03*
X43448002Y-108826503D03*
D24*
X42448002Y-106126503D03*
D22*
X38948002Y-108826503D03*
D24*
X37448002Y-106126503D03*
D22*
X40958002Y-108821503D03*
X42898002Y-108816503D03*
D25*
X86000000Y-98135000D03*
D26*
X86000000Y-104135000D03*
D27*
X90700000Y-101135000D03*
D28*
X95743000Y-103485000D03*
X97393000Y-103485000D03*
D29*
X11639300Y-24926000D03*
X11639300Y-23276000D03*
D30*
X90310000Y-77716000D03*
X90310000Y-79266000D03*
D28*
X12532000Y-12091000D03*
X14182000Y-12091000D03*
D29*
X11639300Y-21878000D03*
X11639300Y-20228000D03*
D31*
X79371000Y-71107000D03*
X77721000Y-71107000D03*
D32*
X95705000Y-95089000D03*
X95705000Y-99089000D03*
D33*
X91365332Y-35813699D03*
X91365332Y-33913699D03*
D29*
X83334000Y-59286000D03*
X83334000Y-57636000D03*
D34*
X92556407Y-46415487D03*
X92556407Y-43465487D03*
D35*
X48043000Y-3082000D03*
X49313000Y-3082000D03*
X50583000Y-3082000D03*
X51853000Y-3082000D03*
X53123000Y-3082000D03*
X54393000Y-3082000D03*
X55663000Y-3082000D03*
X55663000Y-8032000D03*
X54393000Y-8032000D03*
X53123000Y-8032000D03*
X51853000Y-8032000D03*
X50583000Y-8032000D03*
X49313000Y-8032000D03*
X48043000Y-8032000D03*
D33*
X17717500Y-19407001D03*
X17717500Y-17507001D03*
D31*
X87117000Y-51399000D03*
X85467000Y-51399000D03*
D36*
X88458600Y-58371200D03*
X87188600Y-58371200D03*
X87188600Y-64746200D03*
X88458600Y-64746200D03*
D28*
X91738000Y-73888000D03*
X93388000Y-73888000D03*
X85471000Y-52942000D03*
X87121000Y-52942000D03*
D37*
X103000000Y-25000000D03*
D38*
X103000000Y-25000000D03*
D32*
X82200808Y-85497054D03*
X82200808Y-81497054D03*
D39*
X87996000Y-67487000D03*
X91296000Y-67487000D03*
D40*
X42427200Y-21247003D03*
X42427200Y-25447003D03*
D41*
X85886400Y-34698899D03*
X85886400Y-33148899D03*
D39*
X89992000Y-75784000D03*
X93292000Y-75784000D03*
D32*
X85911406Y-85509854D03*
X85911406Y-81509854D03*
D31*
X45534000Y-8951000D03*
X43884000Y-8951000D03*
D41*
X96290000Y-87875000D03*
X96290000Y-86325000D03*
D42*
X91479000Y-69666000D03*
X93304000Y-69666000D03*
D34*
X81069000Y-38059000D03*
X81069000Y-35109000D03*
D43*
X43482000Y-102783000D03*
X43482000Y-101513000D03*
X43482000Y-100243000D03*
X43482000Y-98973000D03*
X36282000Y-98973000D03*
X36282000Y-100243000D03*
X36282000Y-101513000D03*
X36282000Y-102783000D03*
D44*
X87000000Y-54489600D03*
X85100000Y-54489600D03*
X86050000Y-56489600D03*
D32*
X89619806Y-85529054D03*
X89619806Y-81529054D03*
D28*
X91756000Y-77740000D03*
X93406000Y-77740000D03*
X51382000Y-74353000D03*
X53032000Y-74353000D03*
D45*
X87722400Y-39969099D03*
X83522400Y-39969099D03*
D29*
X74816000Y-83044400D03*
X74816000Y-81394400D03*
D46*
X95819000Y-101669000D03*
X97719000Y-101669000D03*
D47*
X38256100Y-21352600D03*
X38256100Y-20402600D03*
X38256100Y-19452600D03*
X35981100Y-19452600D03*
X35981100Y-20402600D03*
X35981100Y-21352600D03*
D48*
X37322399Y-22942600D03*
X35772399Y-22942600D03*
D41*
X38518000Y-17837000D03*
X38518000Y-16287000D03*
D49*
X64980809Y-56776810D03*
X66530809Y-56776810D03*
D50*
X95221000Y-71689000D03*
X95221000Y-72959000D03*
X95221000Y-74229000D03*
X95221000Y-75499000D03*
X100371000Y-75499000D03*
X100371000Y-74229000D03*
X100371000Y-72959000D03*
X100371000Y-71689000D03*
D51*
X22055000Y-32002000D03*
X25005000Y-32002000D03*
D52*
X92443806Y-89961105D03*
X94568806Y-89961105D03*
D32*
X98884000Y-88255000D03*
X98884000Y-84255000D03*
D53*
X79338000Y-77496000D03*
X79338000Y-79146000D03*
D31*
X63494409Y-56785810D03*
X61844409Y-56785810D03*
D48*
X104408000Y-78258000D03*
X102858000Y-78258000D03*
D32*
X85911406Y-93149054D03*
X85911406Y-89149054D03*
D48*
X98759007Y-43298987D03*
X97209007Y-43298987D03*
D31*
X60448410Y-56795210D03*
X58798410Y-56795210D03*
D48*
X4583000Y-77166000D03*
X3033000Y-77166000D03*
D54*
X45195800Y-28272803D03*
X45195800Y-31222803D03*
D29*
X34197600Y-20211600D03*
X34197600Y-18561600D03*
D31*
X79415000Y-76006000D03*
X77765000Y-76006000D03*
D55*
X71697000Y-70802000D03*
X71697000Y-74052000D03*
D56*
X87476400Y-35620199D03*
X88426400Y-35620199D03*
X89376400Y-35620199D03*
X89376400Y-33345199D03*
X88426400Y-33345199D03*
X87476400Y-33345199D03*
D57*
X100184000Y-79680000D03*
D58*
X100184000Y-77305000D03*
D40*
X20046700Y-22983400D03*
X20046700Y-27183400D03*
D59*
X81509500Y-51041000D03*
X81509500Y-51991000D03*
X81509500Y-52941000D03*
X83784500Y-52941000D03*
X83784500Y-51041000D03*
D60*
X102285000Y-90658000D03*
X102285000Y-98058000D03*
D53*
X94253000Y-101933000D03*
X94253000Y-103583000D03*
X66800000Y-80654000D03*
X66800000Y-82304000D03*
D33*
X92474904Y-88270905D03*
X92474904Y-86370905D03*
D61*
X43273000Y-92522000D03*
D62*
X43273000Y-95062000D03*
D52*
X92387806Y-84681105D03*
X94512806Y-84681105D03*
D48*
X90317000Y-73902000D03*
X88767000Y-73902000D03*
D63*
X91102000Y-63633000D03*
X91102000Y-60683000D03*
D64*
X100384007Y-44936487D03*
X100384007Y-50861487D03*
D29*
X34197600Y-23259600D03*
X34197600Y-21609600D03*
D33*
X94511904Y-88264905D03*
X94511904Y-86364905D03*
D29*
X88254000Y-49958000D03*
X88254000Y-48308000D03*
D41*
X83404000Y-56104000D03*
X83404000Y-54554000D03*
D65*
X80124000Y-100225000D03*
X80124000Y-102125000D03*
D54*
X90219000Y-48166000D03*
X90219000Y-51116000D03*
D28*
X57350000Y-9372000D03*
X59000000Y-9372000D03*
X51382000Y-72839000D03*
X53032000Y-72839000D03*
D32*
X78514009Y-93138911D03*
X78514009Y-89138911D03*
D28*
X85569400Y-31561699D03*
X87219400Y-31561699D03*
X9451000Y-12090000D03*
X11101000Y-12090000D03*
D66*
X104071500Y-86552878D03*
X104071500Y-83052878D03*
D67*
X104543500Y-80018000D03*
X102718500Y-80018000D03*
D51*
X22046000Y-29648000D03*
X24996000Y-29648000D03*
D49*
X70981800Y-68976800D03*
X72531800Y-68976800D03*
D68*
X8971782Y-84965187D03*
X41971782Y-84965187D03*
X41971782Y-36965187D03*
X8971782Y-36965187D03*
D69*
X6971782Y-53665187D03*
X10051782Y-53665187D03*
X6971782Y-54065187D03*
X10051782Y-54065187D03*
X6971782Y-54465187D03*
X10051782Y-54465187D03*
X6971782Y-54865187D03*
X10051782Y-54865187D03*
X6971782Y-55265187D03*
X10051782Y-55265187D03*
X6971782Y-55665187D03*
X10051782Y-55665187D03*
X6971782Y-56065187D03*
X10051782Y-56065187D03*
X6971782Y-56465187D03*
X10051782Y-56465187D03*
X6971782Y-56865187D03*
X10051782Y-56865187D03*
X6971782Y-57265187D03*
X10051782Y-57265187D03*
X6971782Y-57665187D03*
X10051782Y-57665187D03*
X6971782Y-58065187D03*
X10051782Y-58065187D03*
X6971782Y-58465187D03*
X10051782Y-58465187D03*
X6971782Y-58865187D03*
X10051782Y-58865187D03*
X6971782Y-59265187D03*
X10051782Y-59265187D03*
X6971782Y-59665187D03*
X10051782Y-59665187D03*
X6971782Y-60065187D03*
X10051782Y-60065187D03*
X6971782Y-60465187D03*
X10051782Y-60465187D03*
X6971782Y-60865187D03*
X10051782Y-60865187D03*
X6971782Y-61265187D03*
X10051782Y-61265187D03*
X6971782Y-61665187D03*
X10051782Y-61665187D03*
X6971782Y-62065187D03*
X10051782Y-62065187D03*
X6971782Y-62465187D03*
X10051782Y-62465187D03*
X6971782Y-62865187D03*
X10051782Y-62865187D03*
X6971782Y-63265187D03*
X10051782Y-63265187D03*
X6971782Y-63665187D03*
X10051782Y-63665187D03*
X6971782Y-64065187D03*
X10051782Y-64065187D03*
X6971782Y-64465187D03*
X10051782Y-64465187D03*
X6971782Y-64865187D03*
X10051782Y-64865187D03*
X6971782Y-65265187D03*
X10051782Y-65265187D03*
X6971782Y-65665187D03*
X10051782Y-65665187D03*
X6971782Y-66065187D03*
X10051782Y-66065187D03*
X6971782Y-66465187D03*
X10051782Y-66465187D03*
X6971782Y-66865187D03*
X10051782Y-66865187D03*
X6971782Y-67265187D03*
X10051782Y-67265187D03*
X6971782Y-67665187D03*
X10051782Y-67665187D03*
X6971782Y-68065187D03*
X10051782Y-68065187D03*
X6971782Y-68465187D03*
X10051782Y-68465187D03*
X6971782Y-68865187D03*
X10051782Y-68865187D03*
X6971782Y-69265187D03*
X10051782Y-69265187D03*
X6971782Y-69665187D03*
X10051782Y-69665187D03*
X6971782Y-70065187D03*
X10051782Y-70065187D03*
X6971782Y-70465187D03*
X10051782Y-70465187D03*
X6971782Y-70865187D03*
X10051782Y-70865187D03*
X6971782Y-71265187D03*
X10051782Y-71265187D03*
X6971782Y-71665187D03*
X10051782Y-71665187D03*
X6971782Y-72065187D03*
X10051782Y-72065187D03*
X6971782Y-72465187D03*
X10051782Y-72465187D03*
X6971782Y-72865187D03*
X10051782Y-72865187D03*
X6971782Y-73265187D03*
X10051782Y-73265187D03*
X40891782Y-53665187D03*
X43971782Y-53665187D03*
X40891782Y-54065187D03*
X43971782Y-54065187D03*
X40891782Y-54465187D03*
X43971782Y-54465187D03*
X40891782Y-54865187D03*
X43971782Y-54865187D03*
X40891782Y-55265187D03*
X43971782Y-55265187D03*
X40891782Y-55665187D03*
X43971782Y-55665187D03*
X40891782Y-56065187D03*
X43971782Y-56065187D03*
X40891782Y-56465187D03*
X43971782Y-56465187D03*
X40891782Y-56865187D03*
X43971782Y-56865187D03*
X40891782Y-57265187D03*
X43971782Y-57265187D03*
X40891782Y-57665187D03*
X43971782Y-57665187D03*
X40891782Y-58065187D03*
X43971782Y-58065187D03*
X40891782Y-58465187D03*
X43971782Y-58465187D03*
X40891782Y-58865187D03*
X43971782Y-58865187D03*
X40891782Y-59265187D03*
X43971782Y-59265187D03*
X40891782Y-59665187D03*
X43971782Y-59665187D03*
X40891782Y-60065187D03*
X43971782Y-60065187D03*
X40891782Y-60465187D03*
X43971782Y-60465187D03*
X40891782Y-60865187D03*
X43971782Y-60865187D03*
X40891782Y-61265187D03*
X43971782Y-61265187D03*
X40891782Y-61665187D03*
X43971782Y-61665187D03*
X40891782Y-62065187D03*
X43971782Y-62065187D03*
X40891782Y-62465187D03*
X43971782Y-62465187D03*
X40891782Y-62865187D03*
X43971782Y-62865187D03*
X40891782Y-63265187D03*
X43971782Y-63265187D03*
X40891782Y-63665187D03*
X43971782Y-63665187D03*
X40891782Y-64065187D03*
X43971782Y-64065187D03*
X40891782Y-64465187D03*
X43971782Y-64465187D03*
X40891782Y-64865187D03*
X43971782Y-64865187D03*
X40891782Y-65265187D03*
X43971782Y-65265187D03*
X40891782Y-65665187D03*
X43971782Y-65665187D03*
X40891782Y-66065187D03*
X43971782Y-66065187D03*
X40891782Y-66465187D03*
X43971782Y-66465187D03*
X40891782Y-66865187D03*
X43971782Y-66865187D03*
X40891782Y-67265187D03*
X43971782Y-67265187D03*
X40891782Y-67665187D03*
X43971782Y-67665187D03*
X40891782Y-68065187D03*
X43971782Y-68065187D03*
X40891782Y-68465187D03*
X43971782Y-68465187D03*
X40891782Y-68865187D03*
X43971782Y-68865187D03*
X40891782Y-69265187D03*
X43971782Y-69265187D03*
X40891782Y-69665187D03*
X43971782Y-69665187D03*
X40891782Y-70065187D03*
X43971782Y-70065187D03*
X40891782Y-70465187D03*
X43971782Y-70465187D03*
X40891782Y-70865187D03*
X43971782Y-70865187D03*
X40891782Y-71265187D03*
X43971782Y-71265187D03*
X40891782Y-71665187D03*
X43971782Y-71665187D03*
X40891782Y-72065187D03*
X43971782Y-72065187D03*
X40891782Y-72465187D03*
X43971782Y-72465187D03*
X40891782Y-72865187D03*
X43971782Y-72865187D03*
X40891782Y-73265187D03*
X43971782Y-73265187D03*
D38*
X103000000Y-105000000D03*
D37*
X103000000Y-105000000D03*
D33*
X19843500Y-19404000D03*
X19843500Y-17504000D03*
D70*
X50565000Y-101160000D03*
X63265000Y-101160000D03*
D71*
X61995000Y-85920000D03*
D72*
X59963000Y-85920000D03*
X57931000Y-85920000D03*
X55899000Y-85920000D03*
X53867000Y-85920000D03*
X51835000Y-85920000D03*
X63011000Y-83380000D03*
X60979000Y-83380000D03*
X58947000Y-83380000D03*
X54883000Y-83380000D03*
X52851000Y-83380000D03*
X50819000Y-83380000D03*
D73*
X62503000Y-93030000D03*
X51327000Y-93030000D03*
X62503000Y-94520000D03*
X51327000Y-94520000D03*
D74*
X63011000Y-80840000D03*
X60471000Y-80840000D03*
X53359000Y-80840000D03*
X50819000Y-80840000D03*
D75*
X64980000Y-104335000D03*
X48850000Y-104335000D03*
D30*
X89561932Y-37466899D03*
X89561932Y-39016899D03*
D76*
X105351000Y-72491000D03*
X102401000Y-72491000D03*
D31*
X79424000Y-74222000D03*
X77774000Y-74222000D03*
D47*
X15647000Y-23275000D03*
X15647000Y-22325000D03*
X15647000Y-21375000D03*
X13372000Y-21375000D03*
X13372000Y-22325000D03*
X13372000Y-23275000D03*
D77*
X39205000Y-28274603D03*
X36255000Y-28274603D03*
D33*
X42413000Y-17868000D03*
X42413000Y-15968000D03*
D48*
X54148410Y-56809811D03*
X52598410Y-56809811D03*
D41*
X15779500Y-19430000D03*
X15779500Y-17880000D03*
D65*
X85188000Y-58061000D03*
X85188000Y-59961000D03*
D29*
X90154000Y-56540000D03*
X90154000Y-54890000D03*
D48*
X14709700Y-24863000D03*
X13159700Y-24863000D03*
D29*
X88604000Y-56540000D03*
X88604000Y-54890000D03*
D38*
X5000000Y-25000000D03*
D37*
X5000000Y-25000000D03*
D54*
X92586000Y-48163000D03*
X92586000Y-51113000D03*
D30*
X77799000Y-77556000D03*
X77799000Y-79106000D03*
D54*
X83618000Y-44144000D03*
X83618000Y-47094000D03*
D78*
X84311400Y-71009600D03*
X84311400Y-66609600D03*
D79*
X96109007Y-47003987D03*
D80*
X97029007Y-50985987D03*
X95189007Y-50985987D03*
D65*
X91365332Y-37510299D03*
X91365332Y-39410299D03*
D76*
X105351000Y-75841000D03*
X102401000Y-75841000D03*
D81*
X1770000Y-78513000D03*
X1770000Y-79013000D03*
X1770000Y-79513000D03*
X1770000Y-80013000D03*
X4670000Y-80013000D03*
X4670000Y-79513000D03*
X4670000Y-79013000D03*
X4670000Y-78513000D03*
D82*
X3220000Y-79263000D03*
D83*
X80314000Y-104754500D03*
X80314000Y-106879500D03*
D31*
X79412000Y-72684000D03*
X77762000Y-72684000D03*
D28*
X57335000Y-7782000D03*
X58985000Y-7782000D03*
D55*
X3514000Y-70299000D03*
X3514000Y-73549000D03*
D32*
X78514009Y-85499711D03*
X78514009Y-81499711D03*
D28*
X88617400Y-31561699D03*
X90267400Y-31561699D03*
D84*
X105047000Y-69287000D03*
X102547000Y-69287000D03*
X100047000Y-69287000D03*
X97547000Y-69287000D03*
X95047000Y-69287000D03*
X95047000Y-53667000D03*
X97547000Y-53667000D03*
X100047000Y-53667000D03*
X102547000Y-53667000D03*
X105047000Y-53667000D03*
D85*
X90259500Y-71981000D03*
X93184500Y-71981000D03*
D48*
X73509604Y-56859005D03*
X71959604Y-56859005D03*
D32*
X82200808Y-93136254D03*
X82200808Y-89136254D03*
D30*
X34429000Y-99018000D03*
X34429000Y-100568000D03*
D34*
X90205000Y-46414000D03*
X90205000Y-43464000D03*
D41*
X66909600Y-86943200D03*
X66909600Y-85393200D03*
D65*
X88330000Y-69476000D03*
X88330000Y-71376000D03*
D59*
X70014100Y-79478800D03*
X70014100Y-80428800D03*
X70014100Y-81378800D03*
X72289100Y-81378800D03*
X72289100Y-79478800D03*
D83*
X91674000Y-96194500D03*
X91674000Y-98319500D03*
D54*
X81164000Y-44137000D03*
X81164000Y-47087000D03*
X41766800Y-28272803D03*
X41766800Y-31222803D03*
D86*
X84064000Y-75721000D03*
D87*
X81201500Y-73446000D03*
X81201500Y-74096000D03*
X81201500Y-74746000D03*
X81201500Y-75396000D03*
X81201500Y-76046000D03*
X81201500Y-76696000D03*
X81201500Y-77346000D03*
X81201500Y-77996000D03*
X86926500Y-77996000D03*
X86926500Y-77346000D03*
X86926500Y-76696000D03*
X86926500Y-76046000D03*
X86926500Y-75396000D03*
X86926500Y-74746000D03*
X86926500Y-74096000D03*
X86926500Y-73446000D03*
D28*
X70816000Y-82969200D03*
X72466000Y-82969200D03*
D41*
X81849000Y-56108000D03*
X81849000Y-54558000D03*
D88*
X74840000Y-91928300D03*
X74840000Y-93503300D03*
D53*
X46957000Y-82690000D03*
X46957000Y-84340000D03*
D29*
X88790000Y-79309000D03*
X88790000Y-77659000D03*
D32*
X89619806Y-93168254D03*
X89619806Y-89168254D03*
D33*
X40346000Y-17875000D03*
X40346000Y-15975000D03*
D38*
X5000000Y-105000000D03*
D37*
X5000000Y-105000000D03*
D89*
X74840000Y-102012300D03*
X74840000Y-100437300D03*
D28*
X88536000Y-53441000D03*
X90186000Y-53441000D03*
M02*
