%TF.GenerationSoftware,KiCad,Pcbnew,5.99.0-unknown-b84d1456d5~131~ubuntu20.04.1*%
%TF.CreationDate,2021-09-23T18:16:05-05:00*%
%TF.ProjectId,AP2000,41503230-3030-42e6-9b69-6361645f7063,rev?*%
%TF.SameCoordinates,Original*%
%TF.FileFunction,Soldermask,Bot*%
%TF.FilePolarity,Negative*%
%FSLAX46Y46*%
G04 Gerber Fmt 4.6, Leading zero omitted, Abs format (unit mm)*
G04 Created by KiCad (PCBNEW 5.99.0-unknown-b84d1456d5~131~ubuntu20.04.1) date 2021-09-23 18:16:05*
%MOMM*%
%LPD*%
G01*
G04 APERTURE LIST*
G04 Aperture macros list*
%AMRoundRect*
0 Rectangle with rounded corners*
0 $1 Rounding radius*
0 $2 $3 $4 $5 $6 $7 $8 $9 X,Y pos of 4 corners*
0 Add a 4 corners polygon primitive as box body*
4,1,4,$2,$3,$4,$5,$6,$7,$8,$9,$2,$3,0*
0 Add four circle primitives for the rounded corners*
1,1,$1+$1,$2,$3*
1,1,$1+$1,$4,$5*
1,1,$1+$1,$6,$7*
1,1,$1+$1,$8,$9*
0 Add four rect primitives between the rounded corners*
20,1,$1+$1,$2,$3,$4,$5,0*
20,1,$1+$1,$4,$5,$6,$7,0*
20,1,$1+$1,$6,$7,$8,$9,0*
20,1,$1+$1,$8,$9,$2,$3,0*%
G04 Aperture macros list end*
%TA.AperFunction,Profile*%
%ADD10C,0.100000*%
%TD*%
%ADD11C,6.100000*%
%ADD12R,3.500000X3.500000*%
%ADD13RoundRect,0.750000X1.000000X-0.750000X1.000000X0.750000X-1.000000X0.750000X-1.000000X-0.750000X0*%
%ADD14RoundRect,0.875000X0.875000X-0.875000X0.875000X0.875000X-0.875000X0.875000X-0.875000X-0.875000X0*%
%ADD15C,1.600000*%
%ADD16C,1.100000*%
%ADD17C,5.300000*%
%ADD18C,1.524000*%
%ADD19C,1.700000*%
%ADD20C,1.574800*%
%ADD21C,8.000000*%
%ADD22C,7.400000*%
%ADD23R,1.700000X1.700000*%
%ADD24O,1.700000X1.700000*%
%ADD25O,1.550000X0.775000*%
%ADD26O,0.650000X1.300000*%
%ADD27O,1.300000X0.650000*%
%ADD28O,0.775000X1.550000*%
%ADD29C,3.250000*%
%ADD30R,1.398000X1.398000*%
%ADD31C,1.398000*%
%ADD32C,1.200000*%
%ADD33C,1.650000*%
%ADD34C,2.362500*%
%ADD35RoundRect,0.218750X-0.218750X-0.256250X0.218750X-0.256250X0.218750X0.256250X-0.218750X0.256250X0*%
G04 APERTURE END LIST*
D10*
X108000000Y0D02*
X108000000Y-110000000D01*
X0Y0D02*
X108000000Y0D01*
X0Y-110000000D02*
X108000000Y-110000000D01*
X0Y-110000000D02*
X0Y0D01*
D11*
X103000000Y-16000000D03*
D12*
X82000000Y-98130000D03*
D13*
X82000000Y-104130000D03*
D14*
X86700000Y-101130000D03*
D15*
X51491000Y-62987000D03*
D16*
X76491000Y-62987000D03*
D17*
X76091000Y-14937000D03*
X51891000Y-14937000D03*
D11*
X5000000Y-93000000D03*
D18*
X23750000Y-106550000D03*
X28250000Y-106550000D03*
D19*
X22500000Y-104050000D03*
X29500000Y-104050000D03*
D20*
X71000000Y-96932200D03*
X71000000Y-106000000D03*
D21*
X103000000Y-25000000D03*
D22*
X103000000Y-25000000D03*
D11*
X5000000Y-16000000D03*
D23*
X13740000Y-104710000D03*
D24*
X13740000Y-107250000D03*
D11*
X103000000Y-93000000D03*
D25*
X14109999Y-10351000D03*
D26*
X11409999Y-4351000D03*
X11409999Y-9351000D03*
D25*
X14109999Y-3351000D03*
D27*
X37448002Y-106126503D03*
D28*
X43448002Y-108826503D03*
X36448002Y-108826503D03*
D27*
X42448002Y-106126503D03*
D11*
X8971782Y-84965187D03*
X41971782Y-84965187D03*
X41971782Y-36965187D03*
X8971782Y-36965187D03*
D22*
X103000000Y-105000000D03*
D21*
X103000000Y-105000000D03*
D29*
X50565000Y-101160000D03*
X63265000Y-101160000D03*
D30*
X61995000Y-85920000D03*
D31*
X59963000Y-85920000D03*
X57931000Y-85920000D03*
X55899000Y-85920000D03*
X53867000Y-85920000D03*
X51835000Y-85920000D03*
X63011000Y-83380000D03*
X60979000Y-83380000D03*
X58947000Y-83380000D03*
X54883000Y-83380000D03*
X52851000Y-83380000D03*
X50819000Y-83380000D03*
D32*
X62503000Y-93030000D03*
X51327000Y-93030000D03*
X62503000Y-94520000D03*
X51327000Y-94520000D03*
D33*
X63011000Y-80840000D03*
X60471000Y-80840000D03*
X53359000Y-80840000D03*
X50819000Y-80840000D03*
D34*
X64980000Y-104335000D03*
X48850000Y-104335000D03*
D22*
X5000000Y-25000000D03*
D21*
X5000000Y-25000000D03*
X5000000Y-105000000D03*
D22*
X5000000Y-105000000D03*
D35*
X61712500Y-22000000D03*
X63287500Y-22000000D03*
X44712500Y-22000000D03*
X46287500Y-22000000D03*
X53212500Y-22000000D03*
X54787500Y-22000000D03*
M02*
