%TF.GenerationSoftware,KiCad,Pcbnew,5.99.0-unknown-b84d1456d5~131~ubuntu20.04.1*%
%TF.CreationDate,2021-09-23T18:16:05-05:00*%
%TF.ProjectId,AP2000,41503230-3030-42e6-9b69-6361645f7063,rev?*%
%TF.SameCoordinates,Original*%
%TF.FileFunction,Paste,Top*%
%TF.FilePolarity,Positive*%
%FSLAX46Y46*%
G04 Gerber Fmt 4.6, Leading zero omitted, Abs format (unit mm)*
G04 Created by KiCad (PCBNEW 5.99.0-unknown-b84d1456d5~131~ubuntu20.04.1) date 2021-09-23 18:16:05*
%MOMM*%
%LPD*%
G01*
G04 APERTURE LIST*
G04 Aperture macros list*
%AMRoundRect*
0 Rectangle with rounded corners*
0 $1 Rounding radius*
0 $2 $3 $4 $5 $6 $7 $8 $9 X,Y pos of 4 corners*
0 Add a 4 corners polygon primitive as box body*
4,1,4,$2,$3,$4,$5,$6,$7,$8,$9,$2,$3,0*
0 Add four circle primitives for the rounded corners*
1,1,$1+$1,$2,$3*
1,1,$1+$1,$4,$5*
1,1,$1+$1,$6,$7*
1,1,$1+$1,$8,$9*
0 Add four rect primitives between the rounded corners*
20,1,$1+$1,$2,$3,$4,$5,0*
20,1,$1+$1,$4,$5,$6,$7,0*
20,1,$1+$1,$6,$7,$8,$9,0*
20,1,$1+$1,$8,$9,$2,$3,0*%
G04 Aperture macros list end*
%TA.AperFunction,Profile*%
%ADD10C,0.100000*%
%TD*%
%ADD11C,0.000100*%
%ADD12RoundRect,0.100000X0.100000X-0.637500X0.100000X0.637500X-0.100000X0.637500X-0.100000X-0.637500X0*%
%ADD13RoundRect,0.150000X0.150000X-0.587500X0.150000X0.587500X-0.150000X0.587500X-0.150000X-0.587500X0*%
%ADD14R,0.600000X2.000000*%
%ADD15R,2.300000X3.200000*%
%ADD16RoundRect,0.200000X0.275000X-0.200000X0.275000X0.200000X-0.275000X0.200000X-0.275000X-0.200000X0*%
%ADD17RoundRect,0.225000X-0.250000X0.225000X-0.250000X-0.225000X0.250000X-0.225000X0.250000X0.225000X0*%
%ADD18RoundRect,0.200000X-0.200000X-0.275000X0.200000X-0.275000X0.200000X0.275000X-0.200000X0.275000X0*%
%ADD19RoundRect,0.200000X0.200000X0.275000X-0.200000X0.275000X-0.200000X-0.275000X0.200000X-0.275000X0*%
%ADD20R,1.800000X2.500000*%
%ADD21RoundRect,0.250000X0.475000X-0.250000X0.475000X0.250000X-0.475000X0.250000X-0.475000X-0.250000X0*%
%ADD22RoundRect,0.250000X0.650000X-0.325000X0.650000X0.325000X-0.650000X0.325000X-0.650000X-0.325000X0*%
%ADD23RoundRect,0.150000X-0.150000X0.662500X-0.150000X-0.662500X0.150000X-0.662500X0.150000X0.662500X0*%
%ADD24R,0.900000X1.200000*%
%ADD25R,5.100000X1.900000*%
%ADD26RoundRect,0.225000X0.250000X-0.225000X0.250000X0.225000X-0.250000X0.225000X-0.250000X-0.225000X0*%
%ADD27RoundRect,0.250000X-0.262500X-0.450000X0.262500X-0.450000X0.262500X0.450000X-0.262500X0.450000X0*%
%ADD28RoundRect,0.150000X0.650000X0.150000X-0.650000X0.150000X-0.650000X-0.150000X0.650000X-0.150000X0*%
%ADD29R,0.800000X0.900000*%
%ADD30R,1.900000X5.100000*%
%ADD31RoundRect,0.250000X-0.250000X-0.475000X0.250000X-0.475000X0.250000X0.475000X-0.250000X0.475000X0*%
%ADD32RoundRect,0.150000X0.512500X0.150000X-0.512500X0.150000X-0.512500X-0.150000X0.512500X-0.150000X0*%
%ADD33RoundRect,0.225000X0.225000X0.250000X-0.225000X0.250000X-0.225000X-0.250000X0.225000X-0.250000X0*%
%ADD34RoundRect,0.225000X-0.225000X-0.250000X0.225000X-0.250000X0.225000X0.250000X-0.225000X0.250000X0*%
%ADD35RoundRect,0.150000X-0.725000X-0.150000X0.725000X-0.150000X0.725000X0.150000X-0.725000X0.150000X0*%
%ADD36RoundRect,0.250000X-0.325000X-0.650000X0.325000X-0.650000X0.325000X0.650000X-0.325000X0.650000X0*%
%ADD37RoundRect,0.218750X-0.218750X-0.381250X0.218750X-0.381250X0.218750X0.381250X-0.218750X0.381250X0*%
%ADD38RoundRect,0.200000X-0.275000X0.200000X-0.275000X-0.200000X0.275000X-0.200000X0.275000X0.200000X0*%
%ADD39RoundRect,0.250000X-0.650000X0.325000X-0.650000X-0.325000X0.650000X-0.325000X0.650000X0.325000X0*%
%ADD40RoundRect,0.250001X-0.924999X0.499999X-0.924999X-0.499999X0.924999X-0.499999X0.924999X0.499999X0*%
%ADD41RoundRect,0.150000X0.150000X-0.512500X0.150000X0.512500X-0.150000X0.512500X-0.150000X-0.512500X0*%
%ADD42R,1.500000X2.400000*%
%ADD43R,1.500000X1.050000*%
%ADD44RoundRect,0.250000X-1.000000X1.950000X-1.000000X-1.950000X1.000000X-1.950000X1.000000X1.950000X0*%
%ADD45RoundRect,0.250000X1.100000X-0.325000X1.100000X0.325000X-1.100000X0.325000X-1.100000X-0.325000X0*%
%ADD46RoundRect,0.250000X-1.425000X0.362500X-1.425000X-0.362500X1.425000X-0.362500X1.425000X0.362500X0*%
%ADD47RoundRect,0.250000X-0.475000X0.250000X-0.475000X-0.250000X0.475000X-0.250000X0.475000X0.250000X0*%
%ADD48R,5.300000X2.000000*%
%ADD49RoundRect,0.250000X0.262500X0.450000X-0.262500X0.450000X-0.262500X-0.450000X0.262500X-0.450000X0*%
%ADD50R,1.350000X0.400000*%
%ADD51R,1.550000X1.500000*%
%ADD52R,0.400000X1.350000*%
%ADD53R,1.500000X1.550000*%
%ADD54R,1.000000X0.220000*%
%ADD55RoundRect,0.250000X0.325000X1.100000X-0.325000X1.100000X-0.325000X-1.100000X0.325000X-1.100000X0*%
%ADD56RoundRect,0.250000X0.325000X0.650000X-0.325000X0.650000X-0.325000X-0.650000X0.325000X-0.650000X0*%
%ADD57RoundRect,0.250000X0.550000X-1.250000X0.550000X1.250000X-0.550000X1.250000X-0.550000X-1.250000X0*%
%ADD58R,3.360000X4.860000*%
%ADD59R,1.390000X1.400000*%
%ADD60R,0.500000X0.600000*%
%ADD61R,0.750000X0.300000*%
%ADD62RoundRect,0.218750X-0.381250X0.218750X-0.381250X-0.218750X0.381250X-0.218750X0.381250X0.218750X0*%
%ADD63R,1.270000X2.540000*%
%ADD64RoundRect,0.250000X-0.312500X-0.625000X0.312500X-0.625000X0.312500X0.625000X-0.312500X0.625000X0*%
%ADD65RoundRect,0.150000X-0.512500X-0.150000X0.512500X-0.150000X0.512500X0.150000X-0.512500X0.150000X0*%
%ADD66RoundRect,0.218750X0.381250X-0.218750X0.381250X0.218750X-0.381250X0.218750X-0.381250X-0.218750X0*%
%ADD67RoundRect,0.232500X-0.757500X-0.232500X0.757500X-0.232500X0.757500X0.232500X-0.757500X0.232500X0*%
%ADD68RoundRect,0.100000X-0.687500X-0.100000X0.687500X-0.100000X0.687500X0.100000X-0.687500X0.100000X0*%
%ADD69RoundRect,0.218750X-0.256250X0.218750X-0.256250X-0.218750X0.256250X-0.218750X0.256250X0.218750X0*%
%ADD70RoundRect,0.218750X0.256250X-0.218750X0.256250X0.218750X-0.256250X0.218750X-0.256250X-0.218750X0*%
G04 APERTURE END LIST*
D10*
X108000000Y0D02*
X108000000Y-110000000D01*
X0Y0D02*
X108000000Y0D01*
X0Y-110000000D02*
X108000000Y-110000000D01*
X0Y-110000000D02*
X0Y0D01*
D11*
X14879999Y-3351000D02*
X14709999Y-3351000D01*
X13339999Y-10351000D02*
X13509999Y-10351000D01*
X13334999Y-10351000D02*
X13534999Y-10351000D01*
X13534999Y-10351000D02*
X13534999Y-10338000D01*
X13534999Y-10338000D02*
X13535999Y-10325000D01*
X13535999Y-10325000D02*
X13537999Y-10312000D01*
X13537999Y-10312000D02*
X13539999Y-10299000D01*
X13539999Y-10299000D02*
X13543999Y-10286000D01*
X13543999Y-10286000D02*
X13546999Y-10274000D01*
X13546999Y-10274000D02*
X13551999Y-10261000D01*
X13551999Y-10261000D02*
X13556999Y-10249000D01*
X13556999Y-10249000D02*
X13561999Y-10238000D01*
X13561999Y-10238000D02*
X13567999Y-10226000D01*
X13567999Y-10226000D02*
X13574999Y-10215000D01*
X13574999Y-10215000D02*
X13582999Y-10204000D01*
X13582999Y-10204000D02*
X13590999Y-10194000D01*
X13590999Y-10194000D02*
X13598999Y-10184000D01*
X13598999Y-10184000D02*
X13607999Y-10174000D01*
X13607999Y-10174000D02*
X13617999Y-10165000D01*
X13617999Y-10165000D02*
X13627999Y-10157000D01*
X13627999Y-10157000D02*
X13637999Y-10149000D01*
X13637999Y-10149000D02*
X13648999Y-10141000D01*
X13648999Y-10141000D02*
X13659999Y-10134000D01*
X13659999Y-10134000D02*
X13671999Y-10128000D01*
X13671999Y-10128000D02*
X13682999Y-10123000D01*
X13682999Y-10123000D02*
X13694999Y-10118000D01*
X13694999Y-10118000D02*
X13707999Y-10113000D01*
X13707999Y-10113000D02*
X13719999Y-10110000D01*
X13719999Y-10110000D02*
X13732999Y-10106000D01*
X13732999Y-10106000D02*
X13745999Y-10104000D01*
X13745999Y-10104000D02*
X13758999Y-10102000D01*
X13758999Y-10102000D02*
X13771999Y-10101000D01*
X13771999Y-10101000D02*
X13784999Y-10101000D01*
X13784999Y-10101000D02*
X14434999Y-10101000D01*
X14434999Y-10101000D02*
X14447999Y-10101000D01*
X14447999Y-10101000D02*
X14460999Y-10102000D01*
X14460999Y-10102000D02*
X14473999Y-10104000D01*
X14473999Y-10104000D02*
X14486999Y-10106000D01*
X14486999Y-10106000D02*
X14499999Y-10110000D01*
X14499999Y-10110000D02*
X14511999Y-10113000D01*
X14511999Y-10113000D02*
X14524999Y-10118000D01*
X14524999Y-10118000D02*
X14536999Y-10123000D01*
X14536999Y-10123000D02*
X14547999Y-10128000D01*
X14547999Y-10128000D02*
X14559999Y-10134000D01*
X14559999Y-10134000D02*
X14570999Y-10141000D01*
X14570999Y-10141000D02*
X14581999Y-10149000D01*
X14581999Y-10149000D02*
X14591999Y-10157000D01*
X14591999Y-10157000D02*
X14601999Y-10165000D01*
X14601999Y-10165000D02*
X14611999Y-10174000D01*
X14611999Y-10174000D02*
X14620999Y-10184000D01*
X14620999Y-10184000D02*
X14628999Y-10194000D01*
X14628999Y-10194000D02*
X14636999Y-10204000D01*
X14636999Y-10204000D02*
X14644999Y-10215000D01*
X14644999Y-10215000D02*
X14651999Y-10226000D01*
X14651999Y-10226000D02*
X14657999Y-10238000D01*
X14657999Y-10238000D02*
X14662999Y-10249000D01*
X14662999Y-10249000D02*
X14667999Y-10261000D01*
X14667999Y-10261000D02*
X14672999Y-10274000D01*
X14672999Y-10274000D02*
X14675999Y-10286000D01*
X14675999Y-10286000D02*
X14679999Y-10299000D01*
X14679999Y-10299000D02*
X14681999Y-10312000D01*
X14681999Y-10312000D02*
X14683999Y-10325000D01*
X14683999Y-10325000D02*
X14684999Y-10338000D01*
X14684999Y-10338000D02*
X14684999Y-10351000D01*
X14684999Y-10351000D02*
X14884999Y-10351000D01*
X14884999Y-10351000D02*
X14884999Y-9151000D01*
X14884999Y-9151000D02*
X13334999Y-9151000D01*
X13334999Y-9151000D02*
X13334999Y-10351000D01*
X13334999Y-10351000D02*
X13334999Y-10351000D01*
G36*
X14884999Y-10351000D02*
G01*
X14684999Y-10351000D01*
X14684999Y-10338000D01*
X14683999Y-10325000D01*
X14679999Y-10299000D01*
X14675999Y-10286000D01*
X14672999Y-10274000D01*
X14667999Y-10261000D01*
X14662999Y-10249000D01*
X14657999Y-10238000D01*
X14651999Y-10226000D01*
X14644999Y-10215000D01*
X14636999Y-10204000D01*
X14620999Y-10184000D01*
X14611999Y-10174000D01*
X14601999Y-10165000D01*
X14581999Y-10149000D01*
X14570999Y-10141000D01*
X14559999Y-10134000D01*
X14547999Y-10128000D01*
X14536999Y-10123000D01*
X14524999Y-10118000D01*
X14511999Y-10113000D01*
X14499999Y-10110000D01*
X14486999Y-10106000D01*
X14460999Y-10102000D01*
X14447999Y-10101000D01*
X13771999Y-10101000D01*
X13758999Y-10102000D01*
X13732999Y-10106000D01*
X13719999Y-10110000D01*
X13707999Y-10113000D01*
X13694999Y-10118000D01*
X13682999Y-10123000D01*
X13671999Y-10128000D01*
X13659999Y-10134000D01*
X13648999Y-10141000D01*
X13637999Y-10149000D01*
X13617999Y-10165000D01*
X13607999Y-10174000D01*
X13598999Y-10184000D01*
X13582999Y-10204000D01*
X13574999Y-10215000D01*
X13567999Y-10226000D01*
X13561999Y-10238000D01*
X13556999Y-10249000D01*
X13551999Y-10261000D01*
X13546999Y-10274000D01*
X13543999Y-10286000D01*
X13539999Y-10299000D01*
X13535999Y-10325000D01*
X13534999Y-10338000D01*
X13534999Y-10351000D01*
X13334999Y-10351000D01*
X13334999Y-9151000D01*
X14884999Y-9151000D01*
X14884999Y-10351000D01*
G37*
X14884999Y-10351000D02*
X14684999Y-10351000D01*
X14684999Y-10338000D01*
X14683999Y-10325000D01*
X14679999Y-10299000D01*
X14675999Y-10286000D01*
X14672999Y-10274000D01*
X14667999Y-10261000D01*
X14662999Y-10249000D01*
X14657999Y-10238000D01*
X14651999Y-10226000D01*
X14644999Y-10215000D01*
X14636999Y-10204000D01*
X14620999Y-10184000D01*
X14611999Y-10174000D01*
X14601999Y-10165000D01*
X14581999Y-10149000D01*
X14570999Y-10141000D01*
X14559999Y-10134000D01*
X14547999Y-10128000D01*
X14536999Y-10123000D01*
X14524999Y-10118000D01*
X14511999Y-10113000D01*
X14499999Y-10110000D01*
X14486999Y-10106000D01*
X14460999Y-10102000D01*
X14447999Y-10101000D01*
X13771999Y-10101000D01*
X13758999Y-10102000D01*
X13732999Y-10106000D01*
X13719999Y-10110000D01*
X13707999Y-10113000D01*
X13694999Y-10118000D01*
X13682999Y-10123000D01*
X13671999Y-10128000D01*
X13659999Y-10134000D01*
X13648999Y-10141000D01*
X13637999Y-10149000D01*
X13617999Y-10165000D01*
X13607999Y-10174000D01*
X13598999Y-10184000D01*
X13582999Y-10204000D01*
X13574999Y-10215000D01*
X13567999Y-10226000D01*
X13561999Y-10238000D01*
X13556999Y-10249000D01*
X13551999Y-10261000D01*
X13546999Y-10274000D01*
X13543999Y-10286000D01*
X13539999Y-10299000D01*
X13535999Y-10325000D01*
X13534999Y-10338000D01*
X13534999Y-10351000D01*
X13334999Y-10351000D01*
X13334999Y-9151000D01*
X14884999Y-9151000D01*
X14884999Y-10351000D01*
X13334999Y-10351000D02*
X13534999Y-10351000D01*
X13534999Y-10351000D02*
X13534999Y-10364000D01*
X13534999Y-10364000D02*
X13535999Y-10377000D01*
X13535999Y-10377000D02*
X13537999Y-10390000D01*
X13537999Y-10390000D02*
X13539999Y-10403000D01*
X13539999Y-10403000D02*
X13543999Y-10416000D01*
X13543999Y-10416000D02*
X13546999Y-10428000D01*
X13546999Y-10428000D02*
X13551999Y-10441000D01*
X13551999Y-10441000D02*
X13556999Y-10453000D01*
X13556999Y-10453000D02*
X13561999Y-10464000D01*
X13561999Y-10464000D02*
X13567999Y-10476000D01*
X13567999Y-10476000D02*
X13574999Y-10487000D01*
X13574999Y-10487000D02*
X13582999Y-10498000D01*
X13582999Y-10498000D02*
X13590999Y-10508000D01*
X13590999Y-10508000D02*
X13598999Y-10518000D01*
X13598999Y-10518000D02*
X13607999Y-10528000D01*
X13607999Y-10528000D02*
X13617999Y-10537000D01*
X13617999Y-10537000D02*
X13627999Y-10545000D01*
X13627999Y-10545000D02*
X13637999Y-10553000D01*
X13637999Y-10553000D02*
X13648999Y-10561000D01*
X13648999Y-10561000D02*
X13659999Y-10568000D01*
X13659999Y-10568000D02*
X13671999Y-10574000D01*
X13671999Y-10574000D02*
X13682999Y-10579000D01*
X13682999Y-10579000D02*
X13694999Y-10584000D01*
X13694999Y-10584000D02*
X13707999Y-10589000D01*
X13707999Y-10589000D02*
X13719999Y-10592000D01*
X13719999Y-10592000D02*
X13732999Y-10596000D01*
X13732999Y-10596000D02*
X13745999Y-10598000D01*
X13745999Y-10598000D02*
X13758999Y-10600000D01*
X13758999Y-10600000D02*
X13771999Y-10601000D01*
X13771999Y-10601000D02*
X13784999Y-10601000D01*
X13784999Y-10601000D02*
X14434999Y-10601000D01*
X14434999Y-10601000D02*
X14447999Y-10601000D01*
X14447999Y-10601000D02*
X14460999Y-10600000D01*
X14460999Y-10600000D02*
X14473999Y-10598000D01*
X14473999Y-10598000D02*
X14486999Y-10596000D01*
X14486999Y-10596000D02*
X14499999Y-10592000D01*
X14499999Y-10592000D02*
X14511999Y-10589000D01*
X14511999Y-10589000D02*
X14524999Y-10584000D01*
X14524999Y-10584000D02*
X14536999Y-10579000D01*
X14536999Y-10579000D02*
X14547999Y-10574000D01*
X14547999Y-10574000D02*
X14559999Y-10568000D01*
X14559999Y-10568000D02*
X14570999Y-10561000D01*
X14570999Y-10561000D02*
X14581999Y-10553000D01*
X14581999Y-10553000D02*
X14591999Y-10545000D01*
X14591999Y-10545000D02*
X14601999Y-10537000D01*
X14601999Y-10537000D02*
X14611999Y-10528000D01*
X14611999Y-10528000D02*
X14620999Y-10518000D01*
X14620999Y-10518000D02*
X14628999Y-10508000D01*
X14628999Y-10508000D02*
X14636999Y-10498000D01*
X14636999Y-10498000D02*
X14644999Y-10487000D01*
X14644999Y-10487000D02*
X14651999Y-10476000D01*
X14651999Y-10476000D02*
X14657999Y-10464000D01*
X14657999Y-10464000D02*
X14662999Y-10453000D01*
X14662999Y-10453000D02*
X14667999Y-10441000D01*
X14667999Y-10441000D02*
X14672999Y-10428000D01*
X14672999Y-10428000D02*
X14675999Y-10416000D01*
X14675999Y-10416000D02*
X14679999Y-10403000D01*
X14679999Y-10403000D02*
X14681999Y-10390000D01*
X14681999Y-10390000D02*
X14683999Y-10377000D01*
X14683999Y-10377000D02*
X14684999Y-10364000D01*
X14684999Y-10364000D02*
X14684999Y-10351000D01*
X14684999Y-10351000D02*
X14884999Y-10351000D01*
X14884999Y-10351000D02*
X14883999Y-10377000D01*
X14883999Y-10377000D02*
X14881999Y-10403000D01*
X14881999Y-10403000D02*
X14878999Y-10429000D01*
X14878999Y-10429000D02*
X14873999Y-10455000D01*
X14873999Y-10455000D02*
X14867999Y-10480000D01*
X14867999Y-10480000D02*
X14860999Y-10506000D01*
X14860999Y-10506000D02*
X14851999Y-10530000D01*
X14851999Y-10530000D02*
X14841999Y-10554000D01*
X14841999Y-10554000D02*
X14830999Y-10578000D01*
X14830999Y-10578000D02*
X14817999Y-10601000D01*
X14817999Y-10601000D02*
X14803999Y-10623000D01*
X14803999Y-10623000D02*
X14789999Y-10645000D01*
X14789999Y-10645000D02*
X14773999Y-10666000D01*
X14773999Y-10666000D02*
X14756999Y-10686000D01*
X14756999Y-10686000D02*
X14738999Y-10705000D01*
X14738999Y-10705000D02*
X14719999Y-10723000D01*
X14719999Y-10723000D02*
X14699999Y-10740000D01*
X14699999Y-10740000D02*
X14678999Y-10756000D01*
X14678999Y-10756000D02*
X14656999Y-10770000D01*
X14656999Y-10770000D02*
X14634999Y-10784000D01*
X14634999Y-10784000D02*
X14611999Y-10797000D01*
X14611999Y-10797000D02*
X14587999Y-10808000D01*
X14587999Y-10808000D02*
X14563999Y-10818000D01*
X14563999Y-10818000D02*
X14539999Y-10827000D01*
X14539999Y-10827000D02*
X14513999Y-10834000D01*
X14513999Y-10834000D02*
X14488999Y-10840000D01*
X14488999Y-10840000D02*
X14462999Y-10845000D01*
X14462999Y-10845000D02*
X14436999Y-10848000D01*
X14436999Y-10848000D02*
X14410999Y-10850000D01*
X14410999Y-10850000D02*
X14384999Y-10851000D01*
X14384999Y-10851000D02*
X13834999Y-10851000D01*
X13834999Y-10851000D02*
X13808999Y-10850000D01*
X13808999Y-10850000D02*
X13782999Y-10848000D01*
X13782999Y-10848000D02*
X13756999Y-10845000D01*
X13756999Y-10845000D02*
X13730999Y-10840000D01*
X13730999Y-10840000D02*
X13705999Y-10834000D01*
X13705999Y-10834000D02*
X13679999Y-10827000D01*
X13679999Y-10827000D02*
X13655999Y-10818000D01*
X13655999Y-10818000D02*
X13631999Y-10808000D01*
X13631999Y-10808000D02*
X13607999Y-10797000D01*
X13607999Y-10797000D02*
X13584999Y-10784000D01*
X13584999Y-10784000D02*
X13562999Y-10770000D01*
X13562999Y-10770000D02*
X13540999Y-10756000D01*
X13540999Y-10756000D02*
X13519999Y-10740000D01*
X13519999Y-10740000D02*
X13499999Y-10723000D01*
X13499999Y-10723000D02*
X13480999Y-10705000D01*
X13480999Y-10705000D02*
X13462999Y-10686000D01*
X13462999Y-10686000D02*
X13445999Y-10666000D01*
X13445999Y-10666000D02*
X13429999Y-10645000D01*
X13429999Y-10645000D02*
X13415999Y-10623000D01*
X13415999Y-10623000D02*
X13401999Y-10601000D01*
X13401999Y-10601000D02*
X13388999Y-10578000D01*
X13388999Y-10578000D02*
X13377999Y-10554000D01*
X13377999Y-10554000D02*
X13367999Y-10530000D01*
X13367999Y-10530000D02*
X13358999Y-10506000D01*
X13358999Y-10506000D02*
X13351999Y-10480000D01*
X13351999Y-10480000D02*
X13345999Y-10455000D01*
X13345999Y-10455000D02*
X13340999Y-10429000D01*
X13340999Y-10429000D02*
X13337999Y-10403000D01*
X13337999Y-10403000D02*
X13335999Y-10377000D01*
X13335999Y-10377000D02*
X13334999Y-10351000D01*
X13334999Y-10351000D02*
X13334999Y-10351000D01*
G36*
X13534999Y-10364000D02*
G01*
X13535999Y-10377000D01*
X13539999Y-10403000D01*
X13543999Y-10416000D01*
X13546999Y-10428000D01*
X13551999Y-10441000D01*
X13556999Y-10453000D01*
X13561999Y-10464000D01*
X13567999Y-10476000D01*
X13574999Y-10487000D01*
X13582999Y-10498000D01*
X13598999Y-10518000D01*
X13607999Y-10528000D01*
X13617999Y-10537000D01*
X13637999Y-10553000D01*
X13648999Y-10561000D01*
X13659999Y-10568000D01*
X13671999Y-10574000D01*
X13682999Y-10579000D01*
X13694999Y-10584000D01*
X13707999Y-10589000D01*
X13719999Y-10592000D01*
X13732999Y-10596000D01*
X13758999Y-10600000D01*
X13771999Y-10601000D01*
X14447999Y-10601000D01*
X14460999Y-10600000D01*
X14486999Y-10596000D01*
X14499999Y-10592000D01*
X14511999Y-10589000D01*
X14524999Y-10584000D01*
X14536999Y-10579000D01*
X14547999Y-10574000D01*
X14559999Y-10568000D01*
X14570999Y-10561000D01*
X14581999Y-10553000D01*
X14601999Y-10537000D01*
X14611999Y-10528000D01*
X14620999Y-10518000D01*
X14636999Y-10498000D01*
X14644999Y-10487000D01*
X14651999Y-10476000D01*
X14657999Y-10464000D01*
X14662999Y-10453000D01*
X14667999Y-10441000D01*
X14672999Y-10428000D01*
X14675999Y-10416000D01*
X14679999Y-10403000D01*
X14683999Y-10377000D01*
X14684999Y-10364000D01*
X14684999Y-10351000D01*
X14884999Y-10351000D01*
X14883999Y-10377000D01*
X14881999Y-10403000D01*
X14878999Y-10429000D01*
X14873999Y-10455000D01*
X14867999Y-10480000D01*
X14860999Y-10506000D01*
X14851999Y-10530000D01*
X14841999Y-10554000D01*
X14830999Y-10578000D01*
X14817999Y-10601000D01*
X14789999Y-10645000D01*
X14773999Y-10666000D01*
X14756999Y-10686000D01*
X14738999Y-10705000D01*
X14719999Y-10723000D01*
X14699999Y-10740000D01*
X14678999Y-10756000D01*
X14634999Y-10784000D01*
X14611999Y-10797000D01*
X14587999Y-10808000D01*
X14563999Y-10818000D01*
X14539999Y-10827000D01*
X14513999Y-10834000D01*
X14488999Y-10840000D01*
X14462999Y-10845000D01*
X14436999Y-10848000D01*
X14410999Y-10850000D01*
X14384999Y-10851000D01*
X13834999Y-10851000D01*
X13808999Y-10850000D01*
X13782999Y-10848000D01*
X13756999Y-10845000D01*
X13730999Y-10840000D01*
X13705999Y-10834000D01*
X13679999Y-10827000D01*
X13655999Y-10818000D01*
X13631999Y-10808000D01*
X13607999Y-10797000D01*
X13584999Y-10784000D01*
X13540999Y-10756000D01*
X13519999Y-10740000D01*
X13499999Y-10723000D01*
X13480999Y-10705000D01*
X13462999Y-10686000D01*
X13445999Y-10666000D01*
X13429999Y-10645000D01*
X13401999Y-10601000D01*
X13388999Y-10578000D01*
X13377999Y-10554000D01*
X13367999Y-10530000D01*
X13358999Y-10506000D01*
X13351999Y-10480000D01*
X13345999Y-10455000D01*
X13340999Y-10429000D01*
X13337999Y-10403000D01*
X13335999Y-10377000D01*
X13334999Y-10351000D01*
X13534999Y-10351000D01*
X13534999Y-10364000D01*
G37*
X13534999Y-10364000D02*
X13535999Y-10377000D01*
X13539999Y-10403000D01*
X13543999Y-10416000D01*
X13546999Y-10428000D01*
X13551999Y-10441000D01*
X13556999Y-10453000D01*
X13561999Y-10464000D01*
X13567999Y-10476000D01*
X13574999Y-10487000D01*
X13582999Y-10498000D01*
X13598999Y-10518000D01*
X13607999Y-10528000D01*
X13617999Y-10537000D01*
X13637999Y-10553000D01*
X13648999Y-10561000D01*
X13659999Y-10568000D01*
X13671999Y-10574000D01*
X13682999Y-10579000D01*
X13694999Y-10584000D01*
X13707999Y-10589000D01*
X13719999Y-10592000D01*
X13732999Y-10596000D01*
X13758999Y-10600000D01*
X13771999Y-10601000D01*
X14447999Y-10601000D01*
X14460999Y-10600000D01*
X14486999Y-10596000D01*
X14499999Y-10592000D01*
X14511999Y-10589000D01*
X14524999Y-10584000D01*
X14536999Y-10579000D01*
X14547999Y-10574000D01*
X14559999Y-10568000D01*
X14570999Y-10561000D01*
X14581999Y-10553000D01*
X14601999Y-10537000D01*
X14611999Y-10528000D01*
X14620999Y-10518000D01*
X14636999Y-10498000D01*
X14644999Y-10487000D01*
X14651999Y-10476000D01*
X14657999Y-10464000D01*
X14662999Y-10453000D01*
X14667999Y-10441000D01*
X14672999Y-10428000D01*
X14675999Y-10416000D01*
X14679999Y-10403000D01*
X14683999Y-10377000D01*
X14684999Y-10364000D01*
X14684999Y-10351000D01*
X14884999Y-10351000D01*
X14883999Y-10377000D01*
X14881999Y-10403000D01*
X14878999Y-10429000D01*
X14873999Y-10455000D01*
X14867999Y-10480000D01*
X14860999Y-10506000D01*
X14851999Y-10530000D01*
X14841999Y-10554000D01*
X14830999Y-10578000D01*
X14817999Y-10601000D01*
X14789999Y-10645000D01*
X14773999Y-10666000D01*
X14756999Y-10686000D01*
X14738999Y-10705000D01*
X14719999Y-10723000D01*
X14699999Y-10740000D01*
X14678999Y-10756000D01*
X14634999Y-10784000D01*
X14611999Y-10797000D01*
X14587999Y-10808000D01*
X14563999Y-10818000D01*
X14539999Y-10827000D01*
X14513999Y-10834000D01*
X14488999Y-10840000D01*
X14462999Y-10845000D01*
X14436999Y-10848000D01*
X14410999Y-10850000D01*
X14384999Y-10851000D01*
X13834999Y-10851000D01*
X13808999Y-10850000D01*
X13782999Y-10848000D01*
X13756999Y-10845000D01*
X13730999Y-10840000D01*
X13705999Y-10834000D01*
X13679999Y-10827000D01*
X13655999Y-10818000D01*
X13631999Y-10808000D01*
X13607999Y-10797000D01*
X13584999Y-10784000D01*
X13540999Y-10756000D01*
X13519999Y-10740000D01*
X13499999Y-10723000D01*
X13480999Y-10705000D01*
X13462999Y-10686000D01*
X13445999Y-10666000D01*
X13429999Y-10645000D01*
X13401999Y-10601000D01*
X13388999Y-10578000D01*
X13377999Y-10554000D01*
X13367999Y-10530000D01*
X13358999Y-10506000D01*
X13351999Y-10480000D01*
X13345999Y-10455000D01*
X13340999Y-10429000D01*
X13337999Y-10403000D01*
X13335999Y-10377000D01*
X13334999Y-10351000D01*
X13534999Y-10351000D01*
X13534999Y-10364000D01*
X14884999Y-3351000D02*
X14684999Y-3351000D01*
X14684999Y-3351000D02*
X14684999Y-3364000D01*
X14684999Y-3364000D02*
X14683999Y-3377000D01*
X14683999Y-3377000D02*
X14681999Y-3390000D01*
X14681999Y-3390000D02*
X14679999Y-3403000D01*
X14679999Y-3403000D02*
X14675999Y-3416000D01*
X14675999Y-3416000D02*
X14672999Y-3428000D01*
X14672999Y-3428000D02*
X14667999Y-3441000D01*
X14667999Y-3441000D02*
X14662999Y-3453000D01*
X14662999Y-3453000D02*
X14657999Y-3464000D01*
X14657999Y-3464000D02*
X14651999Y-3476000D01*
X14651999Y-3476000D02*
X14644999Y-3487000D01*
X14644999Y-3487000D02*
X14636999Y-3498000D01*
X14636999Y-3498000D02*
X14628999Y-3508000D01*
X14628999Y-3508000D02*
X14620999Y-3518000D01*
X14620999Y-3518000D02*
X14611999Y-3528000D01*
X14611999Y-3528000D02*
X14601999Y-3537000D01*
X14601999Y-3537000D02*
X14591999Y-3545000D01*
X14591999Y-3545000D02*
X14581999Y-3553000D01*
X14581999Y-3553000D02*
X14570999Y-3561000D01*
X14570999Y-3561000D02*
X14559999Y-3568000D01*
X14559999Y-3568000D02*
X14547999Y-3574000D01*
X14547999Y-3574000D02*
X14536999Y-3579000D01*
X14536999Y-3579000D02*
X14524999Y-3584000D01*
X14524999Y-3584000D02*
X14511999Y-3589000D01*
X14511999Y-3589000D02*
X14499999Y-3592000D01*
X14499999Y-3592000D02*
X14486999Y-3596000D01*
X14486999Y-3596000D02*
X14473999Y-3598000D01*
X14473999Y-3598000D02*
X14460999Y-3600000D01*
X14460999Y-3600000D02*
X14447999Y-3601000D01*
X14447999Y-3601000D02*
X14434999Y-3601000D01*
X14434999Y-3601000D02*
X13784999Y-3601000D01*
X13784999Y-3601000D02*
X13771999Y-3601000D01*
X13771999Y-3601000D02*
X13758999Y-3600000D01*
X13758999Y-3600000D02*
X13745999Y-3598000D01*
X13745999Y-3598000D02*
X13732999Y-3596000D01*
X13732999Y-3596000D02*
X13719999Y-3592000D01*
X13719999Y-3592000D02*
X13707999Y-3589000D01*
X13707999Y-3589000D02*
X13694999Y-3584000D01*
X13694999Y-3584000D02*
X13682999Y-3579000D01*
X13682999Y-3579000D02*
X13671999Y-3574000D01*
X13671999Y-3574000D02*
X13659999Y-3568000D01*
X13659999Y-3568000D02*
X13648999Y-3561000D01*
X13648999Y-3561000D02*
X13637999Y-3553000D01*
X13637999Y-3553000D02*
X13627999Y-3545000D01*
X13627999Y-3545000D02*
X13617999Y-3537000D01*
X13617999Y-3537000D02*
X13607999Y-3528000D01*
X13607999Y-3528000D02*
X13598999Y-3518000D01*
X13598999Y-3518000D02*
X13590999Y-3508000D01*
X13590999Y-3508000D02*
X13582999Y-3498000D01*
X13582999Y-3498000D02*
X13574999Y-3487000D01*
X13574999Y-3487000D02*
X13567999Y-3476000D01*
X13567999Y-3476000D02*
X13561999Y-3464000D01*
X13561999Y-3464000D02*
X13556999Y-3453000D01*
X13556999Y-3453000D02*
X13551999Y-3441000D01*
X13551999Y-3441000D02*
X13546999Y-3428000D01*
X13546999Y-3428000D02*
X13543999Y-3416000D01*
X13543999Y-3416000D02*
X13539999Y-3403000D01*
X13539999Y-3403000D02*
X13537999Y-3390000D01*
X13537999Y-3390000D02*
X13535999Y-3377000D01*
X13535999Y-3377000D02*
X13534999Y-3364000D01*
X13534999Y-3364000D02*
X13534999Y-3351000D01*
X13534999Y-3351000D02*
X13334999Y-3351000D01*
X13334999Y-3351000D02*
X13334999Y-4551000D01*
X13334999Y-4551000D02*
X14884999Y-4551000D01*
X14884999Y-4551000D02*
X14884999Y-3351000D01*
X14884999Y-3351000D02*
X14884999Y-3351000D01*
G36*
X13534999Y-3364000D02*
G01*
X13535999Y-3377000D01*
X13539999Y-3403000D01*
X13543999Y-3416000D01*
X13546999Y-3428000D01*
X13551999Y-3441000D01*
X13556999Y-3453000D01*
X13561999Y-3464000D01*
X13567999Y-3476000D01*
X13574999Y-3487000D01*
X13582999Y-3498000D01*
X13598999Y-3518000D01*
X13607999Y-3528000D01*
X13617999Y-3537000D01*
X13637999Y-3553000D01*
X13648999Y-3561000D01*
X13659999Y-3568000D01*
X13671999Y-3574000D01*
X13682999Y-3579000D01*
X13694999Y-3584000D01*
X13707999Y-3589000D01*
X13719999Y-3592000D01*
X13732999Y-3596000D01*
X13758999Y-3600000D01*
X13771999Y-3601000D01*
X14447999Y-3601000D01*
X14460999Y-3600000D01*
X14486999Y-3596000D01*
X14499999Y-3592000D01*
X14511999Y-3589000D01*
X14524999Y-3584000D01*
X14536999Y-3579000D01*
X14547999Y-3574000D01*
X14559999Y-3568000D01*
X14570999Y-3561000D01*
X14581999Y-3553000D01*
X14601999Y-3537000D01*
X14611999Y-3528000D01*
X14620999Y-3518000D01*
X14636999Y-3498000D01*
X14644999Y-3487000D01*
X14651999Y-3476000D01*
X14657999Y-3464000D01*
X14662999Y-3453000D01*
X14667999Y-3441000D01*
X14672999Y-3428000D01*
X14675999Y-3416000D01*
X14679999Y-3403000D01*
X14683999Y-3377000D01*
X14684999Y-3364000D01*
X14684999Y-3351000D01*
X14884999Y-3351000D01*
X14884999Y-4551000D01*
X13334999Y-4551000D01*
X13334999Y-3351000D01*
X13534999Y-3351000D01*
X13534999Y-3364000D01*
G37*
X13534999Y-3364000D02*
X13535999Y-3377000D01*
X13539999Y-3403000D01*
X13543999Y-3416000D01*
X13546999Y-3428000D01*
X13551999Y-3441000D01*
X13556999Y-3453000D01*
X13561999Y-3464000D01*
X13567999Y-3476000D01*
X13574999Y-3487000D01*
X13582999Y-3498000D01*
X13598999Y-3518000D01*
X13607999Y-3528000D01*
X13617999Y-3537000D01*
X13637999Y-3553000D01*
X13648999Y-3561000D01*
X13659999Y-3568000D01*
X13671999Y-3574000D01*
X13682999Y-3579000D01*
X13694999Y-3584000D01*
X13707999Y-3589000D01*
X13719999Y-3592000D01*
X13732999Y-3596000D01*
X13758999Y-3600000D01*
X13771999Y-3601000D01*
X14447999Y-3601000D01*
X14460999Y-3600000D01*
X14486999Y-3596000D01*
X14499999Y-3592000D01*
X14511999Y-3589000D01*
X14524999Y-3584000D01*
X14536999Y-3579000D01*
X14547999Y-3574000D01*
X14559999Y-3568000D01*
X14570999Y-3561000D01*
X14581999Y-3553000D01*
X14601999Y-3537000D01*
X14611999Y-3528000D01*
X14620999Y-3518000D01*
X14636999Y-3498000D01*
X14644999Y-3487000D01*
X14651999Y-3476000D01*
X14657999Y-3464000D01*
X14662999Y-3453000D01*
X14667999Y-3441000D01*
X14672999Y-3428000D01*
X14675999Y-3416000D01*
X14679999Y-3403000D01*
X14683999Y-3377000D01*
X14684999Y-3364000D01*
X14684999Y-3351000D01*
X14884999Y-3351000D01*
X14884999Y-4551000D01*
X13334999Y-4551000D01*
X13334999Y-3351000D01*
X13534999Y-3351000D01*
X13534999Y-3364000D01*
X14884999Y-3351000D02*
X14684999Y-3351000D01*
X14684999Y-3351000D02*
X14684999Y-3338000D01*
X14684999Y-3338000D02*
X14683999Y-3325000D01*
X14683999Y-3325000D02*
X14681999Y-3312000D01*
X14681999Y-3312000D02*
X14679999Y-3299000D01*
X14679999Y-3299000D02*
X14675999Y-3286000D01*
X14675999Y-3286000D02*
X14672999Y-3274000D01*
X14672999Y-3274000D02*
X14667999Y-3261000D01*
X14667999Y-3261000D02*
X14662999Y-3249000D01*
X14662999Y-3249000D02*
X14657999Y-3238000D01*
X14657999Y-3238000D02*
X14651999Y-3226000D01*
X14651999Y-3226000D02*
X14644999Y-3215000D01*
X14644999Y-3215000D02*
X14636999Y-3204000D01*
X14636999Y-3204000D02*
X14628999Y-3194000D01*
X14628999Y-3194000D02*
X14620999Y-3184000D01*
X14620999Y-3184000D02*
X14611999Y-3174000D01*
X14611999Y-3174000D02*
X14601999Y-3165000D01*
X14601999Y-3165000D02*
X14591999Y-3157000D01*
X14591999Y-3157000D02*
X14581999Y-3149000D01*
X14581999Y-3149000D02*
X14570999Y-3141000D01*
X14570999Y-3141000D02*
X14559999Y-3134000D01*
X14559999Y-3134000D02*
X14547999Y-3128000D01*
X14547999Y-3128000D02*
X14536999Y-3123000D01*
X14536999Y-3123000D02*
X14524999Y-3118000D01*
X14524999Y-3118000D02*
X14511999Y-3113000D01*
X14511999Y-3113000D02*
X14499999Y-3110000D01*
X14499999Y-3110000D02*
X14486999Y-3106000D01*
X14486999Y-3106000D02*
X14473999Y-3104000D01*
X14473999Y-3104000D02*
X14460999Y-3102000D01*
X14460999Y-3102000D02*
X14447999Y-3101000D01*
X14447999Y-3101000D02*
X14434999Y-3101000D01*
X14434999Y-3101000D02*
X13784999Y-3101000D01*
X13784999Y-3101000D02*
X13771999Y-3101000D01*
X13771999Y-3101000D02*
X13758999Y-3102000D01*
X13758999Y-3102000D02*
X13745999Y-3104000D01*
X13745999Y-3104000D02*
X13732999Y-3106000D01*
X13732999Y-3106000D02*
X13719999Y-3110000D01*
X13719999Y-3110000D02*
X13707999Y-3113000D01*
X13707999Y-3113000D02*
X13694999Y-3118000D01*
X13694999Y-3118000D02*
X13682999Y-3123000D01*
X13682999Y-3123000D02*
X13671999Y-3128000D01*
X13671999Y-3128000D02*
X13659999Y-3134000D01*
X13659999Y-3134000D02*
X13648999Y-3141000D01*
X13648999Y-3141000D02*
X13637999Y-3149000D01*
X13637999Y-3149000D02*
X13627999Y-3157000D01*
X13627999Y-3157000D02*
X13617999Y-3165000D01*
X13617999Y-3165000D02*
X13607999Y-3174000D01*
X13607999Y-3174000D02*
X13598999Y-3184000D01*
X13598999Y-3184000D02*
X13590999Y-3194000D01*
X13590999Y-3194000D02*
X13582999Y-3204000D01*
X13582999Y-3204000D02*
X13574999Y-3215000D01*
X13574999Y-3215000D02*
X13567999Y-3226000D01*
X13567999Y-3226000D02*
X13561999Y-3238000D01*
X13561999Y-3238000D02*
X13556999Y-3249000D01*
X13556999Y-3249000D02*
X13551999Y-3261000D01*
X13551999Y-3261000D02*
X13546999Y-3274000D01*
X13546999Y-3274000D02*
X13543999Y-3286000D01*
X13543999Y-3286000D02*
X13539999Y-3299000D01*
X13539999Y-3299000D02*
X13537999Y-3312000D01*
X13537999Y-3312000D02*
X13535999Y-3325000D01*
X13535999Y-3325000D02*
X13534999Y-3338000D01*
X13534999Y-3338000D02*
X13534999Y-3351000D01*
X13534999Y-3351000D02*
X13334999Y-3351000D01*
X13334999Y-3351000D02*
X13335999Y-3325000D01*
X13335999Y-3325000D02*
X13337999Y-3299000D01*
X13337999Y-3299000D02*
X13340999Y-3273000D01*
X13340999Y-3273000D02*
X13345999Y-3247000D01*
X13345999Y-3247000D02*
X13351999Y-3222000D01*
X13351999Y-3222000D02*
X13358999Y-3196000D01*
X13358999Y-3196000D02*
X13367999Y-3172000D01*
X13367999Y-3172000D02*
X13377999Y-3148000D01*
X13377999Y-3148000D02*
X13388999Y-3124000D01*
X13388999Y-3124000D02*
X13401999Y-3101000D01*
X13401999Y-3101000D02*
X13415999Y-3079000D01*
X13415999Y-3079000D02*
X13429999Y-3057000D01*
X13429999Y-3057000D02*
X13445999Y-3036000D01*
X13445999Y-3036000D02*
X13462999Y-3016000D01*
X13462999Y-3016000D02*
X13480999Y-2997000D01*
X13480999Y-2997000D02*
X13499999Y-2979000D01*
X13499999Y-2979000D02*
X13519999Y-2962000D01*
X13519999Y-2962000D02*
X13540999Y-2946000D01*
X13540999Y-2946000D02*
X13562999Y-2932000D01*
X13562999Y-2932000D02*
X13584999Y-2918000D01*
X13584999Y-2918000D02*
X13607999Y-2905000D01*
X13607999Y-2905000D02*
X13631999Y-2894000D01*
X13631999Y-2894000D02*
X13655999Y-2884000D01*
X13655999Y-2884000D02*
X13679999Y-2875000D01*
X13679999Y-2875000D02*
X13705999Y-2868000D01*
X13705999Y-2868000D02*
X13730999Y-2862000D01*
X13730999Y-2862000D02*
X13756999Y-2857000D01*
X13756999Y-2857000D02*
X13782999Y-2854000D01*
X13782999Y-2854000D02*
X13808999Y-2852000D01*
X13808999Y-2852000D02*
X13834999Y-2851000D01*
X13834999Y-2851000D02*
X14384999Y-2851000D01*
X14384999Y-2851000D02*
X14410999Y-2852000D01*
X14410999Y-2852000D02*
X14436999Y-2854000D01*
X14436999Y-2854000D02*
X14462999Y-2857000D01*
X14462999Y-2857000D02*
X14488999Y-2862000D01*
X14488999Y-2862000D02*
X14513999Y-2868000D01*
X14513999Y-2868000D02*
X14539999Y-2875000D01*
X14539999Y-2875000D02*
X14563999Y-2884000D01*
X14563999Y-2884000D02*
X14587999Y-2894000D01*
X14587999Y-2894000D02*
X14611999Y-2905000D01*
X14611999Y-2905000D02*
X14634999Y-2918000D01*
X14634999Y-2918000D02*
X14656999Y-2932000D01*
X14656999Y-2932000D02*
X14678999Y-2946000D01*
X14678999Y-2946000D02*
X14699999Y-2962000D01*
X14699999Y-2962000D02*
X14719999Y-2979000D01*
X14719999Y-2979000D02*
X14738999Y-2997000D01*
X14738999Y-2997000D02*
X14756999Y-3016000D01*
X14756999Y-3016000D02*
X14773999Y-3036000D01*
X14773999Y-3036000D02*
X14789999Y-3057000D01*
X14789999Y-3057000D02*
X14803999Y-3079000D01*
X14803999Y-3079000D02*
X14817999Y-3101000D01*
X14817999Y-3101000D02*
X14830999Y-3124000D01*
X14830999Y-3124000D02*
X14841999Y-3148000D01*
X14841999Y-3148000D02*
X14851999Y-3172000D01*
X14851999Y-3172000D02*
X14860999Y-3196000D01*
X14860999Y-3196000D02*
X14867999Y-3222000D01*
X14867999Y-3222000D02*
X14873999Y-3247000D01*
X14873999Y-3247000D02*
X14878999Y-3273000D01*
X14878999Y-3273000D02*
X14881999Y-3299000D01*
X14881999Y-3299000D02*
X14883999Y-3325000D01*
X14883999Y-3325000D02*
X14884999Y-3351000D01*
X14884999Y-3351000D02*
X14884999Y-3351000D01*
G36*
X14410999Y-2852000D02*
G01*
X14436999Y-2854000D01*
X14462999Y-2857000D01*
X14488999Y-2862000D01*
X14513999Y-2868000D01*
X14539999Y-2875000D01*
X14563999Y-2884000D01*
X14587999Y-2894000D01*
X14611999Y-2905000D01*
X14634999Y-2918000D01*
X14678999Y-2946000D01*
X14699999Y-2962000D01*
X14719999Y-2979000D01*
X14738999Y-2997000D01*
X14756999Y-3016000D01*
X14773999Y-3036000D01*
X14789999Y-3057000D01*
X14817999Y-3101000D01*
X14830999Y-3124000D01*
X14841999Y-3148000D01*
X14851999Y-3172000D01*
X14860999Y-3196000D01*
X14867999Y-3222000D01*
X14873999Y-3247000D01*
X14878999Y-3273000D01*
X14881999Y-3299000D01*
X14883999Y-3325000D01*
X14884999Y-3351000D01*
X14684999Y-3351000D01*
X14684999Y-3338000D01*
X14683999Y-3325000D01*
X14679999Y-3299000D01*
X14675999Y-3286000D01*
X14672999Y-3274000D01*
X14667999Y-3261000D01*
X14662999Y-3249000D01*
X14657999Y-3238000D01*
X14651999Y-3226000D01*
X14644999Y-3215000D01*
X14636999Y-3204000D01*
X14620999Y-3184000D01*
X14611999Y-3174000D01*
X14601999Y-3165000D01*
X14581999Y-3149000D01*
X14570999Y-3141000D01*
X14559999Y-3134000D01*
X14547999Y-3128000D01*
X14536999Y-3123000D01*
X14524999Y-3118000D01*
X14511999Y-3113000D01*
X14499999Y-3110000D01*
X14486999Y-3106000D01*
X14460999Y-3102000D01*
X14447999Y-3101000D01*
X13771999Y-3101000D01*
X13758999Y-3102000D01*
X13732999Y-3106000D01*
X13719999Y-3110000D01*
X13707999Y-3113000D01*
X13694999Y-3118000D01*
X13682999Y-3123000D01*
X13671999Y-3128000D01*
X13659999Y-3134000D01*
X13648999Y-3141000D01*
X13637999Y-3149000D01*
X13617999Y-3165000D01*
X13607999Y-3174000D01*
X13598999Y-3184000D01*
X13582999Y-3204000D01*
X13574999Y-3215000D01*
X13567999Y-3226000D01*
X13561999Y-3238000D01*
X13556999Y-3249000D01*
X13551999Y-3261000D01*
X13546999Y-3274000D01*
X13543999Y-3286000D01*
X13539999Y-3299000D01*
X13535999Y-3325000D01*
X13534999Y-3338000D01*
X13534999Y-3351000D01*
X13334999Y-3351000D01*
X13335999Y-3325000D01*
X13337999Y-3299000D01*
X13340999Y-3273000D01*
X13345999Y-3247000D01*
X13351999Y-3222000D01*
X13358999Y-3196000D01*
X13367999Y-3172000D01*
X13377999Y-3148000D01*
X13388999Y-3124000D01*
X13401999Y-3101000D01*
X13429999Y-3057000D01*
X13445999Y-3036000D01*
X13462999Y-3016000D01*
X13480999Y-2997000D01*
X13499999Y-2979000D01*
X13519999Y-2962000D01*
X13540999Y-2946000D01*
X13584999Y-2918000D01*
X13607999Y-2905000D01*
X13631999Y-2894000D01*
X13655999Y-2884000D01*
X13679999Y-2875000D01*
X13705999Y-2868000D01*
X13730999Y-2862000D01*
X13756999Y-2857000D01*
X13782999Y-2854000D01*
X13808999Y-2852000D01*
X13834999Y-2851000D01*
X14384999Y-2851000D01*
X14410999Y-2852000D01*
G37*
X14410999Y-2852000D02*
X14436999Y-2854000D01*
X14462999Y-2857000D01*
X14488999Y-2862000D01*
X14513999Y-2868000D01*
X14539999Y-2875000D01*
X14563999Y-2884000D01*
X14587999Y-2894000D01*
X14611999Y-2905000D01*
X14634999Y-2918000D01*
X14678999Y-2946000D01*
X14699999Y-2962000D01*
X14719999Y-2979000D01*
X14738999Y-2997000D01*
X14756999Y-3016000D01*
X14773999Y-3036000D01*
X14789999Y-3057000D01*
X14817999Y-3101000D01*
X14830999Y-3124000D01*
X14841999Y-3148000D01*
X14851999Y-3172000D01*
X14860999Y-3196000D01*
X14867999Y-3222000D01*
X14873999Y-3247000D01*
X14878999Y-3273000D01*
X14881999Y-3299000D01*
X14883999Y-3325000D01*
X14884999Y-3351000D01*
X14684999Y-3351000D01*
X14684999Y-3338000D01*
X14683999Y-3325000D01*
X14679999Y-3299000D01*
X14675999Y-3286000D01*
X14672999Y-3274000D01*
X14667999Y-3261000D01*
X14662999Y-3249000D01*
X14657999Y-3238000D01*
X14651999Y-3226000D01*
X14644999Y-3215000D01*
X14636999Y-3204000D01*
X14620999Y-3184000D01*
X14611999Y-3174000D01*
X14601999Y-3165000D01*
X14581999Y-3149000D01*
X14570999Y-3141000D01*
X14559999Y-3134000D01*
X14547999Y-3128000D01*
X14536999Y-3123000D01*
X14524999Y-3118000D01*
X14511999Y-3113000D01*
X14499999Y-3110000D01*
X14486999Y-3106000D01*
X14460999Y-3102000D01*
X14447999Y-3101000D01*
X13771999Y-3101000D01*
X13758999Y-3102000D01*
X13732999Y-3106000D01*
X13719999Y-3110000D01*
X13707999Y-3113000D01*
X13694999Y-3118000D01*
X13682999Y-3123000D01*
X13671999Y-3128000D01*
X13659999Y-3134000D01*
X13648999Y-3141000D01*
X13637999Y-3149000D01*
X13617999Y-3165000D01*
X13607999Y-3174000D01*
X13598999Y-3184000D01*
X13582999Y-3204000D01*
X13574999Y-3215000D01*
X13567999Y-3226000D01*
X13561999Y-3238000D01*
X13556999Y-3249000D01*
X13551999Y-3261000D01*
X13546999Y-3274000D01*
X13543999Y-3286000D01*
X13539999Y-3299000D01*
X13535999Y-3325000D01*
X13534999Y-3338000D01*
X13534999Y-3351000D01*
X13334999Y-3351000D01*
X13335999Y-3325000D01*
X13337999Y-3299000D01*
X13340999Y-3273000D01*
X13345999Y-3247000D01*
X13351999Y-3222000D01*
X13358999Y-3196000D01*
X13367999Y-3172000D01*
X13377999Y-3148000D01*
X13388999Y-3124000D01*
X13401999Y-3101000D01*
X13429999Y-3057000D01*
X13445999Y-3036000D01*
X13462999Y-3016000D01*
X13480999Y-2997000D01*
X13499999Y-2979000D01*
X13519999Y-2962000D01*
X13540999Y-2946000D01*
X13584999Y-2918000D01*
X13607999Y-2905000D01*
X13631999Y-2894000D01*
X13655999Y-2884000D01*
X13679999Y-2875000D01*
X13705999Y-2868000D01*
X13730999Y-2862000D01*
X13756999Y-2857000D01*
X13782999Y-2854000D01*
X13808999Y-2852000D01*
X13834999Y-2851000D01*
X14384999Y-2851000D01*
X14410999Y-2852000D01*
X43448002Y-109596503D02*
X43448002Y-109426503D01*
X36448002Y-108056503D02*
X36448002Y-108226503D01*
X43448002Y-109601503D02*
X43448002Y-109401503D01*
X43448002Y-109401503D02*
X43461002Y-109401503D01*
X43461002Y-109401503D02*
X43474002Y-109400503D01*
X43474002Y-109400503D02*
X43487002Y-109398503D01*
X43487002Y-109398503D02*
X43500002Y-109396503D01*
X43500002Y-109396503D02*
X43513002Y-109392503D01*
X43513002Y-109392503D02*
X43525002Y-109389503D01*
X43525002Y-109389503D02*
X43538002Y-109384503D01*
X43538002Y-109384503D02*
X43550002Y-109379503D01*
X43550002Y-109379503D02*
X43561002Y-109374503D01*
X43561002Y-109374503D02*
X43573002Y-109368503D01*
X43573002Y-109368503D02*
X43584002Y-109361503D01*
X43584002Y-109361503D02*
X43595002Y-109353503D01*
X43595002Y-109353503D02*
X43605002Y-109345503D01*
X43605002Y-109345503D02*
X43615002Y-109337503D01*
X43615002Y-109337503D02*
X43625002Y-109328503D01*
X43625002Y-109328503D02*
X43634002Y-109318503D01*
X43634002Y-109318503D02*
X43642002Y-109308503D01*
X43642002Y-109308503D02*
X43650002Y-109298503D01*
X43650002Y-109298503D02*
X43658002Y-109287503D01*
X43658002Y-109287503D02*
X43665002Y-109276503D01*
X43665002Y-109276503D02*
X43671002Y-109264503D01*
X43671002Y-109264503D02*
X43676002Y-109253503D01*
X43676002Y-109253503D02*
X43681002Y-109241503D01*
X43681002Y-109241503D02*
X43686002Y-109228503D01*
X43686002Y-109228503D02*
X43689002Y-109216503D01*
X43689002Y-109216503D02*
X43693002Y-109203503D01*
X43693002Y-109203503D02*
X43695002Y-109190503D01*
X43695002Y-109190503D02*
X43697002Y-109177503D01*
X43697002Y-109177503D02*
X43698002Y-109164503D01*
X43698002Y-109164503D02*
X43698002Y-109151503D01*
X43698002Y-109151503D02*
X43698002Y-108501503D01*
X43698002Y-108501503D02*
X43698002Y-108488503D01*
X43698002Y-108488503D02*
X43697002Y-108475503D01*
X43697002Y-108475503D02*
X43695002Y-108462503D01*
X43695002Y-108462503D02*
X43693002Y-108449503D01*
X43693002Y-108449503D02*
X43689002Y-108436503D01*
X43689002Y-108436503D02*
X43686002Y-108424503D01*
X43686002Y-108424503D02*
X43681002Y-108411503D01*
X43681002Y-108411503D02*
X43676002Y-108399503D01*
X43676002Y-108399503D02*
X43671002Y-108388503D01*
X43671002Y-108388503D02*
X43665002Y-108376503D01*
X43665002Y-108376503D02*
X43658002Y-108365503D01*
X43658002Y-108365503D02*
X43650002Y-108354503D01*
X43650002Y-108354503D02*
X43642002Y-108344503D01*
X43642002Y-108344503D02*
X43634002Y-108334503D01*
X43634002Y-108334503D02*
X43625002Y-108324503D01*
X43625002Y-108324503D02*
X43615002Y-108315503D01*
X43615002Y-108315503D02*
X43605002Y-108307503D01*
X43605002Y-108307503D02*
X43595002Y-108299503D01*
X43595002Y-108299503D02*
X43584002Y-108291503D01*
X43584002Y-108291503D02*
X43573002Y-108284503D01*
X43573002Y-108284503D02*
X43561002Y-108278503D01*
X43561002Y-108278503D02*
X43550002Y-108273503D01*
X43550002Y-108273503D02*
X43538002Y-108268503D01*
X43538002Y-108268503D02*
X43525002Y-108263503D01*
X43525002Y-108263503D02*
X43513002Y-108260503D01*
X43513002Y-108260503D02*
X43500002Y-108256503D01*
X43500002Y-108256503D02*
X43487002Y-108254503D01*
X43487002Y-108254503D02*
X43474002Y-108252503D01*
X43474002Y-108252503D02*
X43461002Y-108251503D01*
X43461002Y-108251503D02*
X43448002Y-108251503D01*
X43448002Y-108251503D02*
X43448002Y-108051503D01*
X43448002Y-108051503D02*
X43474002Y-108052503D01*
X43474002Y-108052503D02*
X43500002Y-108054503D01*
X43500002Y-108054503D02*
X43526002Y-108057503D01*
X43526002Y-108057503D02*
X43552002Y-108062503D01*
X43552002Y-108062503D02*
X43577002Y-108068503D01*
X43577002Y-108068503D02*
X43603002Y-108075503D01*
X43603002Y-108075503D02*
X43627002Y-108084503D01*
X43627002Y-108084503D02*
X43651002Y-108094503D01*
X43651002Y-108094503D02*
X43675002Y-108105503D01*
X43675002Y-108105503D02*
X43698002Y-108118503D01*
X43698002Y-108118503D02*
X43720002Y-108132503D01*
X43720002Y-108132503D02*
X43742002Y-108146503D01*
X43742002Y-108146503D02*
X43763002Y-108162503D01*
X43763002Y-108162503D02*
X43783002Y-108179503D01*
X43783002Y-108179503D02*
X43802002Y-108197503D01*
X43802002Y-108197503D02*
X43820002Y-108216503D01*
X43820002Y-108216503D02*
X43837002Y-108236503D01*
X43837002Y-108236503D02*
X43853002Y-108257503D01*
X43853002Y-108257503D02*
X43867002Y-108279503D01*
X43867002Y-108279503D02*
X43881002Y-108301503D01*
X43881002Y-108301503D02*
X43894002Y-108324503D01*
X43894002Y-108324503D02*
X43905002Y-108348503D01*
X43905002Y-108348503D02*
X43915002Y-108372503D01*
X43915002Y-108372503D02*
X43924002Y-108396503D01*
X43924002Y-108396503D02*
X43931002Y-108422503D01*
X43931002Y-108422503D02*
X43937002Y-108447503D01*
X43937002Y-108447503D02*
X43942002Y-108473503D01*
X43942002Y-108473503D02*
X43945002Y-108499503D01*
X43945002Y-108499503D02*
X43947002Y-108525503D01*
X43947002Y-108525503D02*
X43948002Y-108551503D01*
X43948002Y-108551503D02*
X43948002Y-109101503D01*
X43948002Y-109101503D02*
X43947002Y-109127503D01*
X43947002Y-109127503D02*
X43945002Y-109153503D01*
X43945002Y-109153503D02*
X43942002Y-109179503D01*
X43942002Y-109179503D02*
X43937002Y-109205503D01*
X43937002Y-109205503D02*
X43931002Y-109230503D01*
X43931002Y-109230503D02*
X43924002Y-109256503D01*
X43924002Y-109256503D02*
X43915002Y-109280503D01*
X43915002Y-109280503D02*
X43905002Y-109304503D01*
X43905002Y-109304503D02*
X43894002Y-109328503D01*
X43894002Y-109328503D02*
X43881002Y-109351503D01*
X43881002Y-109351503D02*
X43867002Y-109373503D01*
X43867002Y-109373503D02*
X43853002Y-109395503D01*
X43853002Y-109395503D02*
X43837002Y-109416503D01*
X43837002Y-109416503D02*
X43820002Y-109436503D01*
X43820002Y-109436503D02*
X43802002Y-109455503D01*
X43802002Y-109455503D02*
X43783002Y-109473503D01*
X43783002Y-109473503D02*
X43763002Y-109490503D01*
X43763002Y-109490503D02*
X43742002Y-109506503D01*
X43742002Y-109506503D02*
X43720002Y-109520503D01*
X43720002Y-109520503D02*
X43698002Y-109534503D01*
X43698002Y-109534503D02*
X43675002Y-109547503D01*
X43675002Y-109547503D02*
X43651002Y-109558503D01*
X43651002Y-109558503D02*
X43627002Y-109568503D01*
X43627002Y-109568503D02*
X43603002Y-109577503D01*
X43603002Y-109577503D02*
X43577002Y-109584503D01*
X43577002Y-109584503D02*
X43552002Y-109590503D01*
X43552002Y-109590503D02*
X43526002Y-109595503D01*
X43526002Y-109595503D02*
X43500002Y-109598503D01*
X43500002Y-109598503D02*
X43474002Y-109600503D01*
X43474002Y-109600503D02*
X43448002Y-109601503D01*
X43448002Y-109601503D02*
X43448002Y-109601503D01*
G36*
X43474002Y-108052503D02*
G01*
X43500002Y-108054503D01*
X43526002Y-108057503D01*
X43552002Y-108062503D01*
X43577002Y-108068503D01*
X43603002Y-108075503D01*
X43627002Y-108084503D01*
X43651002Y-108094503D01*
X43675002Y-108105503D01*
X43698002Y-108118503D01*
X43742002Y-108146503D01*
X43763002Y-108162503D01*
X43783002Y-108179503D01*
X43802002Y-108197503D01*
X43820002Y-108216503D01*
X43837002Y-108236503D01*
X43853002Y-108257503D01*
X43881002Y-108301503D01*
X43894002Y-108324503D01*
X43905002Y-108348503D01*
X43915002Y-108372503D01*
X43924002Y-108396503D01*
X43931002Y-108422503D01*
X43937002Y-108447503D01*
X43942002Y-108473503D01*
X43945002Y-108499503D01*
X43947002Y-108525503D01*
X43948002Y-108551503D01*
X43948002Y-109101503D01*
X43947002Y-109127503D01*
X43945002Y-109153503D01*
X43942002Y-109179503D01*
X43937002Y-109205503D01*
X43931002Y-109230503D01*
X43924002Y-109256503D01*
X43915002Y-109280503D01*
X43905002Y-109304503D01*
X43894002Y-109328503D01*
X43881002Y-109351503D01*
X43853002Y-109395503D01*
X43837002Y-109416503D01*
X43820002Y-109436503D01*
X43802002Y-109455503D01*
X43783002Y-109473503D01*
X43763002Y-109490503D01*
X43742002Y-109506503D01*
X43698002Y-109534503D01*
X43675002Y-109547503D01*
X43651002Y-109558503D01*
X43627002Y-109568503D01*
X43603002Y-109577503D01*
X43577002Y-109584503D01*
X43552002Y-109590503D01*
X43526002Y-109595503D01*
X43500002Y-109598503D01*
X43474002Y-109600503D01*
X43448002Y-109601503D01*
X43448002Y-109401503D01*
X43461002Y-109401503D01*
X43474002Y-109400503D01*
X43500002Y-109396503D01*
X43513002Y-109392503D01*
X43525002Y-109389503D01*
X43538002Y-109384503D01*
X43550002Y-109379503D01*
X43561002Y-109374503D01*
X43573002Y-109368503D01*
X43584002Y-109361503D01*
X43595002Y-109353503D01*
X43615002Y-109337503D01*
X43625002Y-109328503D01*
X43634002Y-109318503D01*
X43650002Y-109298503D01*
X43658002Y-109287503D01*
X43665002Y-109276503D01*
X43671002Y-109264503D01*
X43676002Y-109253503D01*
X43681002Y-109241503D01*
X43686002Y-109228503D01*
X43689002Y-109216503D01*
X43693002Y-109203503D01*
X43697002Y-109177503D01*
X43698002Y-109164503D01*
X43698002Y-108488503D01*
X43697002Y-108475503D01*
X43693002Y-108449503D01*
X43689002Y-108436503D01*
X43686002Y-108424503D01*
X43681002Y-108411503D01*
X43676002Y-108399503D01*
X43671002Y-108388503D01*
X43665002Y-108376503D01*
X43658002Y-108365503D01*
X43650002Y-108354503D01*
X43634002Y-108334503D01*
X43625002Y-108324503D01*
X43615002Y-108315503D01*
X43595002Y-108299503D01*
X43584002Y-108291503D01*
X43573002Y-108284503D01*
X43561002Y-108278503D01*
X43550002Y-108273503D01*
X43538002Y-108268503D01*
X43525002Y-108263503D01*
X43513002Y-108260503D01*
X43500002Y-108256503D01*
X43474002Y-108252503D01*
X43461002Y-108251503D01*
X43448002Y-108251503D01*
X43448002Y-108051503D01*
X43474002Y-108052503D01*
G37*
X43474002Y-108052503D02*
X43500002Y-108054503D01*
X43526002Y-108057503D01*
X43552002Y-108062503D01*
X43577002Y-108068503D01*
X43603002Y-108075503D01*
X43627002Y-108084503D01*
X43651002Y-108094503D01*
X43675002Y-108105503D01*
X43698002Y-108118503D01*
X43742002Y-108146503D01*
X43763002Y-108162503D01*
X43783002Y-108179503D01*
X43802002Y-108197503D01*
X43820002Y-108216503D01*
X43837002Y-108236503D01*
X43853002Y-108257503D01*
X43881002Y-108301503D01*
X43894002Y-108324503D01*
X43905002Y-108348503D01*
X43915002Y-108372503D01*
X43924002Y-108396503D01*
X43931002Y-108422503D01*
X43937002Y-108447503D01*
X43942002Y-108473503D01*
X43945002Y-108499503D01*
X43947002Y-108525503D01*
X43948002Y-108551503D01*
X43948002Y-109101503D01*
X43947002Y-109127503D01*
X43945002Y-109153503D01*
X43942002Y-109179503D01*
X43937002Y-109205503D01*
X43931002Y-109230503D01*
X43924002Y-109256503D01*
X43915002Y-109280503D01*
X43905002Y-109304503D01*
X43894002Y-109328503D01*
X43881002Y-109351503D01*
X43853002Y-109395503D01*
X43837002Y-109416503D01*
X43820002Y-109436503D01*
X43802002Y-109455503D01*
X43783002Y-109473503D01*
X43763002Y-109490503D01*
X43742002Y-109506503D01*
X43698002Y-109534503D01*
X43675002Y-109547503D01*
X43651002Y-109558503D01*
X43627002Y-109568503D01*
X43603002Y-109577503D01*
X43577002Y-109584503D01*
X43552002Y-109590503D01*
X43526002Y-109595503D01*
X43500002Y-109598503D01*
X43474002Y-109600503D01*
X43448002Y-109601503D01*
X43448002Y-109401503D01*
X43461002Y-109401503D01*
X43474002Y-109400503D01*
X43500002Y-109396503D01*
X43513002Y-109392503D01*
X43525002Y-109389503D01*
X43538002Y-109384503D01*
X43550002Y-109379503D01*
X43561002Y-109374503D01*
X43573002Y-109368503D01*
X43584002Y-109361503D01*
X43595002Y-109353503D01*
X43615002Y-109337503D01*
X43625002Y-109328503D01*
X43634002Y-109318503D01*
X43650002Y-109298503D01*
X43658002Y-109287503D01*
X43665002Y-109276503D01*
X43671002Y-109264503D01*
X43676002Y-109253503D01*
X43681002Y-109241503D01*
X43686002Y-109228503D01*
X43689002Y-109216503D01*
X43693002Y-109203503D01*
X43697002Y-109177503D01*
X43698002Y-109164503D01*
X43698002Y-108488503D01*
X43697002Y-108475503D01*
X43693002Y-108449503D01*
X43689002Y-108436503D01*
X43686002Y-108424503D01*
X43681002Y-108411503D01*
X43676002Y-108399503D01*
X43671002Y-108388503D01*
X43665002Y-108376503D01*
X43658002Y-108365503D01*
X43650002Y-108354503D01*
X43634002Y-108334503D01*
X43625002Y-108324503D01*
X43615002Y-108315503D01*
X43595002Y-108299503D01*
X43584002Y-108291503D01*
X43573002Y-108284503D01*
X43561002Y-108278503D01*
X43550002Y-108273503D01*
X43538002Y-108268503D01*
X43525002Y-108263503D01*
X43513002Y-108260503D01*
X43500002Y-108256503D01*
X43474002Y-108252503D01*
X43461002Y-108251503D01*
X43448002Y-108251503D01*
X43448002Y-108051503D01*
X43474002Y-108052503D01*
X36448002Y-108051503D02*
X36448002Y-108251503D01*
X36448002Y-108251503D02*
X36461002Y-108251503D01*
X36461002Y-108251503D02*
X36474002Y-108252503D01*
X36474002Y-108252503D02*
X36487002Y-108254503D01*
X36487002Y-108254503D02*
X36500002Y-108256503D01*
X36500002Y-108256503D02*
X36513002Y-108260503D01*
X36513002Y-108260503D02*
X36525002Y-108263503D01*
X36525002Y-108263503D02*
X36538002Y-108268503D01*
X36538002Y-108268503D02*
X36550002Y-108273503D01*
X36550002Y-108273503D02*
X36561002Y-108278503D01*
X36561002Y-108278503D02*
X36573002Y-108284503D01*
X36573002Y-108284503D02*
X36584002Y-108291503D01*
X36584002Y-108291503D02*
X36595002Y-108299503D01*
X36595002Y-108299503D02*
X36605002Y-108307503D01*
X36605002Y-108307503D02*
X36615002Y-108315503D01*
X36615002Y-108315503D02*
X36625002Y-108324503D01*
X36625002Y-108324503D02*
X36634002Y-108334503D01*
X36634002Y-108334503D02*
X36642002Y-108344503D01*
X36642002Y-108344503D02*
X36650002Y-108354503D01*
X36650002Y-108354503D02*
X36658002Y-108365503D01*
X36658002Y-108365503D02*
X36665002Y-108376503D01*
X36665002Y-108376503D02*
X36671002Y-108388503D01*
X36671002Y-108388503D02*
X36676002Y-108399503D01*
X36676002Y-108399503D02*
X36681002Y-108411503D01*
X36681002Y-108411503D02*
X36686002Y-108424503D01*
X36686002Y-108424503D02*
X36689002Y-108436503D01*
X36689002Y-108436503D02*
X36693002Y-108449503D01*
X36693002Y-108449503D02*
X36695002Y-108462503D01*
X36695002Y-108462503D02*
X36697002Y-108475503D01*
X36697002Y-108475503D02*
X36698002Y-108488503D01*
X36698002Y-108488503D02*
X36698002Y-108501503D01*
X36698002Y-108501503D02*
X36698002Y-109151503D01*
X36698002Y-109151503D02*
X36698002Y-109164503D01*
X36698002Y-109164503D02*
X36697002Y-109177503D01*
X36697002Y-109177503D02*
X36695002Y-109190503D01*
X36695002Y-109190503D02*
X36693002Y-109203503D01*
X36693002Y-109203503D02*
X36689002Y-109216503D01*
X36689002Y-109216503D02*
X36686002Y-109228503D01*
X36686002Y-109228503D02*
X36681002Y-109241503D01*
X36681002Y-109241503D02*
X36676002Y-109253503D01*
X36676002Y-109253503D02*
X36671002Y-109264503D01*
X36671002Y-109264503D02*
X36665002Y-109276503D01*
X36665002Y-109276503D02*
X36658002Y-109287503D01*
X36658002Y-109287503D02*
X36650002Y-109298503D01*
X36650002Y-109298503D02*
X36642002Y-109308503D01*
X36642002Y-109308503D02*
X36634002Y-109318503D01*
X36634002Y-109318503D02*
X36625002Y-109328503D01*
X36625002Y-109328503D02*
X36615002Y-109337503D01*
X36615002Y-109337503D02*
X36605002Y-109345503D01*
X36605002Y-109345503D02*
X36595002Y-109353503D01*
X36595002Y-109353503D02*
X36584002Y-109361503D01*
X36584002Y-109361503D02*
X36573002Y-109368503D01*
X36573002Y-109368503D02*
X36561002Y-109374503D01*
X36561002Y-109374503D02*
X36550002Y-109379503D01*
X36550002Y-109379503D02*
X36538002Y-109384503D01*
X36538002Y-109384503D02*
X36525002Y-109389503D01*
X36525002Y-109389503D02*
X36513002Y-109392503D01*
X36513002Y-109392503D02*
X36500002Y-109396503D01*
X36500002Y-109396503D02*
X36487002Y-109398503D01*
X36487002Y-109398503D02*
X36474002Y-109400503D01*
X36474002Y-109400503D02*
X36461002Y-109401503D01*
X36461002Y-109401503D02*
X36448002Y-109401503D01*
X36448002Y-109401503D02*
X36448002Y-109601503D01*
X36448002Y-109601503D02*
X37648002Y-109601503D01*
X37648002Y-109601503D02*
X37648002Y-108051503D01*
X37648002Y-108051503D02*
X36448002Y-108051503D01*
X36448002Y-108051503D02*
X36448002Y-108051503D01*
G36*
X37648002Y-109601503D02*
G01*
X36448002Y-109601503D01*
X36448002Y-109401503D01*
X36461002Y-109401503D01*
X36474002Y-109400503D01*
X36500002Y-109396503D01*
X36513002Y-109392503D01*
X36525002Y-109389503D01*
X36538002Y-109384503D01*
X36550002Y-109379503D01*
X36561002Y-109374503D01*
X36573002Y-109368503D01*
X36584002Y-109361503D01*
X36595002Y-109353503D01*
X36615002Y-109337503D01*
X36625002Y-109328503D01*
X36634002Y-109318503D01*
X36650002Y-109298503D01*
X36658002Y-109287503D01*
X36665002Y-109276503D01*
X36671002Y-109264503D01*
X36676002Y-109253503D01*
X36681002Y-109241503D01*
X36686002Y-109228503D01*
X36689002Y-109216503D01*
X36693002Y-109203503D01*
X36697002Y-109177503D01*
X36698002Y-109164503D01*
X36698002Y-108488503D01*
X36697002Y-108475503D01*
X36693002Y-108449503D01*
X36689002Y-108436503D01*
X36686002Y-108424503D01*
X36681002Y-108411503D01*
X36676002Y-108399503D01*
X36671002Y-108388503D01*
X36665002Y-108376503D01*
X36658002Y-108365503D01*
X36650002Y-108354503D01*
X36634002Y-108334503D01*
X36625002Y-108324503D01*
X36615002Y-108315503D01*
X36595002Y-108299503D01*
X36584002Y-108291503D01*
X36573002Y-108284503D01*
X36561002Y-108278503D01*
X36550002Y-108273503D01*
X36538002Y-108268503D01*
X36525002Y-108263503D01*
X36513002Y-108260503D01*
X36500002Y-108256503D01*
X36474002Y-108252503D01*
X36461002Y-108251503D01*
X36448002Y-108251503D01*
X36448002Y-108051503D01*
X37648002Y-108051503D01*
X37648002Y-109601503D01*
G37*
X37648002Y-109601503D02*
X36448002Y-109601503D01*
X36448002Y-109401503D01*
X36461002Y-109401503D01*
X36474002Y-109400503D01*
X36500002Y-109396503D01*
X36513002Y-109392503D01*
X36525002Y-109389503D01*
X36538002Y-109384503D01*
X36550002Y-109379503D01*
X36561002Y-109374503D01*
X36573002Y-109368503D01*
X36584002Y-109361503D01*
X36595002Y-109353503D01*
X36615002Y-109337503D01*
X36625002Y-109328503D01*
X36634002Y-109318503D01*
X36650002Y-109298503D01*
X36658002Y-109287503D01*
X36665002Y-109276503D01*
X36671002Y-109264503D01*
X36676002Y-109253503D01*
X36681002Y-109241503D01*
X36686002Y-109228503D01*
X36689002Y-109216503D01*
X36693002Y-109203503D01*
X36697002Y-109177503D01*
X36698002Y-109164503D01*
X36698002Y-108488503D01*
X36697002Y-108475503D01*
X36693002Y-108449503D01*
X36689002Y-108436503D01*
X36686002Y-108424503D01*
X36681002Y-108411503D01*
X36676002Y-108399503D01*
X36671002Y-108388503D01*
X36665002Y-108376503D01*
X36658002Y-108365503D01*
X36650002Y-108354503D01*
X36634002Y-108334503D01*
X36625002Y-108324503D01*
X36615002Y-108315503D01*
X36595002Y-108299503D01*
X36584002Y-108291503D01*
X36573002Y-108284503D01*
X36561002Y-108278503D01*
X36550002Y-108273503D01*
X36538002Y-108268503D01*
X36525002Y-108263503D01*
X36513002Y-108260503D01*
X36500002Y-108256503D01*
X36474002Y-108252503D01*
X36461002Y-108251503D01*
X36448002Y-108251503D01*
X36448002Y-108051503D01*
X37648002Y-108051503D01*
X37648002Y-109601503D01*
X43448002Y-109601503D02*
X43448002Y-109401503D01*
X43448002Y-109401503D02*
X43435002Y-109401503D01*
X43435002Y-109401503D02*
X43422002Y-109400503D01*
X43422002Y-109400503D02*
X43409002Y-109398503D01*
X43409002Y-109398503D02*
X43396002Y-109396503D01*
X43396002Y-109396503D02*
X43383002Y-109392503D01*
X43383002Y-109392503D02*
X43371002Y-109389503D01*
X43371002Y-109389503D02*
X43358002Y-109384503D01*
X43358002Y-109384503D02*
X43346002Y-109379503D01*
X43346002Y-109379503D02*
X43335002Y-109374503D01*
X43335002Y-109374503D02*
X43323002Y-109368503D01*
X43323002Y-109368503D02*
X43312002Y-109361503D01*
X43312002Y-109361503D02*
X43301002Y-109353503D01*
X43301002Y-109353503D02*
X43291002Y-109345503D01*
X43291002Y-109345503D02*
X43281002Y-109337503D01*
X43281002Y-109337503D02*
X43271002Y-109328503D01*
X43271002Y-109328503D02*
X43262002Y-109318503D01*
X43262002Y-109318503D02*
X43254002Y-109308503D01*
X43254002Y-109308503D02*
X43246002Y-109298503D01*
X43246002Y-109298503D02*
X43238002Y-109287503D01*
X43238002Y-109287503D02*
X43231002Y-109276503D01*
X43231002Y-109276503D02*
X43225002Y-109264503D01*
X43225002Y-109264503D02*
X43220002Y-109253503D01*
X43220002Y-109253503D02*
X43215002Y-109241503D01*
X43215002Y-109241503D02*
X43210002Y-109228503D01*
X43210002Y-109228503D02*
X43207002Y-109216503D01*
X43207002Y-109216503D02*
X43203002Y-109203503D01*
X43203002Y-109203503D02*
X43201002Y-109190503D01*
X43201002Y-109190503D02*
X43199002Y-109177503D01*
X43199002Y-109177503D02*
X43198002Y-109164503D01*
X43198002Y-109164503D02*
X43198002Y-109151503D01*
X43198002Y-109151503D02*
X43198002Y-108501503D01*
X43198002Y-108501503D02*
X43198002Y-108488503D01*
X43198002Y-108488503D02*
X43199002Y-108475503D01*
X43199002Y-108475503D02*
X43201002Y-108462503D01*
X43201002Y-108462503D02*
X43203002Y-108449503D01*
X43203002Y-108449503D02*
X43207002Y-108436503D01*
X43207002Y-108436503D02*
X43210002Y-108424503D01*
X43210002Y-108424503D02*
X43215002Y-108411503D01*
X43215002Y-108411503D02*
X43220002Y-108399503D01*
X43220002Y-108399503D02*
X43225002Y-108388503D01*
X43225002Y-108388503D02*
X43231002Y-108376503D01*
X43231002Y-108376503D02*
X43238002Y-108365503D01*
X43238002Y-108365503D02*
X43246002Y-108354503D01*
X43246002Y-108354503D02*
X43254002Y-108344503D01*
X43254002Y-108344503D02*
X43262002Y-108334503D01*
X43262002Y-108334503D02*
X43271002Y-108324503D01*
X43271002Y-108324503D02*
X43281002Y-108315503D01*
X43281002Y-108315503D02*
X43291002Y-108307503D01*
X43291002Y-108307503D02*
X43301002Y-108299503D01*
X43301002Y-108299503D02*
X43312002Y-108291503D01*
X43312002Y-108291503D02*
X43323002Y-108284503D01*
X43323002Y-108284503D02*
X43335002Y-108278503D01*
X43335002Y-108278503D02*
X43346002Y-108273503D01*
X43346002Y-108273503D02*
X43358002Y-108268503D01*
X43358002Y-108268503D02*
X43371002Y-108263503D01*
X43371002Y-108263503D02*
X43383002Y-108260503D01*
X43383002Y-108260503D02*
X43396002Y-108256503D01*
X43396002Y-108256503D02*
X43409002Y-108254503D01*
X43409002Y-108254503D02*
X43422002Y-108252503D01*
X43422002Y-108252503D02*
X43435002Y-108251503D01*
X43435002Y-108251503D02*
X43448002Y-108251503D01*
X43448002Y-108251503D02*
X43448002Y-108051503D01*
X43448002Y-108051503D02*
X42248002Y-108051503D01*
X42248002Y-108051503D02*
X42248002Y-109601503D01*
X42248002Y-109601503D02*
X43448002Y-109601503D01*
X43448002Y-109601503D02*
X43448002Y-109601503D01*
G36*
X43448002Y-108251503D02*
G01*
X43435002Y-108251503D01*
X43422002Y-108252503D01*
X43396002Y-108256503D01*
X43383002Y-108260503D01*
X43371002Y-108263503D01*
X43358002Y-108268503D01*
X43346002Y-108273503D01*
X43335002Y-108278503D01*
X43323002Y-108284503D01*
X43312002Y-108291503D01*
X43301002Y-108299503D01*
X43281002Y-108315503D01*
X43271002Y-108324503D01*
X43262002Y-108334503D01*
X43246002Y-108354503D01*
X43238002Y-108365503D01*
X43231002Y-108376503D01*
X43225002Y-108388503D01*
X43220002Y-108399503D01*
X43215002Y-108411503D01*
X43210002Y-108424503D01*
X43207002Y-108436503D01*
X43203002Y-108449503D01*
X43199002Y-108475503D01*
X43198002Y-108488503D01*
X43198002Y-109164503D01*
X43199002Y-109177503D01*
X43203002Y-109203503D01*
X43207002Y-109216503D01*
X43210002Y-109228503D01*
X43215002Y-109241503D01*
X43220002Y-109253503D01*
X43225002Y-109264503D01*
X43231002Y-109276503D01*
X43238002Y-109287503D01*
X43246002Y-109298503D01*
X43262002Y-109318503D01*
X43271002Y-109328503D01*
X43281002Y-109337503D01*
X43301002Y-109353503D01*
X43312002Y-109361503D01*
X43323002Y-109368503D01*
X43335002Y-109374503D01*
X43346002Y-109379503D01*
X43358002Y-109384503D01*
X43371002Y-109389503D01*
X43383002Y-109392503D01*
X43396002Y-109396503D01*
X43422002Y-109400503D01*
X43435002Y-109401503D01*
X43448002Y-109401503D01*
X43448002Y-109601503D01*
X42248002Y-109601503D01*
X42248002Y-108051503D01*
X43448002Y-108051503D01*
X43448002Y-108251503D01*
G37*
X43448002Y-108251503D02*
X43435002Y-108251503D01*
X43422002Y-108252503D01*
X43396002Y-108256503D01*
X43383002Y-108260503D01*
X43371002Y-108263503D01*
X43358002Y-108268503D01*
X43346002Y-108273503D01*
X43335002Y-108278503D01*
X43323002Y-108284503D01*
X43312002Y-108291503D01*
X43301002Y-108299503D01*
X43281002Y-108315503D01*
X43271002Y-108324503D01*
X43262002Y-108334503D01*
X43246002Y-108354503D01*
X43238002Y-108365503D01*
X43231002Y-108376503D01*
X43225002Y-108388503D01*
X43220002Y-108399503D01*
X43215002Y-108411503D01*
X43210002Y-108424503D01*
X43207002Y-108436503D01*
X43203002Y-108449503D01*
X43199002Y-108475503D01*
X43198002Y-108488503D01*
X43198002Y-109164503D01*
X43199002Y-109177503D01*
X43203002Y-109203503D01*
X43207002Y-109216503D01*
X43210002Y-109228503D01*
X43215002Y-109241503D01*
X43220002Y-109253503D01*
X43225002Y-109264503D01*
X43231002Y-109276503D01*
X43238002Y-109287503D01*
X43246002Y-109298503D01*
X43262002Y-109318503D01*
X43271002Y-109328503D01*
X43281002Y-109337503D01*
X43301002Y-109353503D01*
X43312002Y-109361503D01*
X43323002Y-109368503D01*
X43335002Y-109374503D01*
X43346002Y-109379503D01*
X43358002Y-109384503D01*
X43371002Y-109389503D01*
X43383002Y-109392503D01*
X43396002Y-109396503D01*
X43422002Y-109400503D01*
X43435002Y-109401503D01*
X43448002Y-109401503D01*
X43448002Y-109601503D01*
X42248002Y-109601503D01*
X42248002Y-108051503D01*
X43448002Y-108051503D01*
X43448002Y-108251503D01*
X36448002Y-108051503D02*
X36448002Y-108251503D01*
X36448002Y-108251503D02*
X36435002Y-108251503D01*
X36435002Y-108251503D02*
X36422002Y-108252503D01*
X36422002Y-108252503D02*
X36409002Y-108254503D01*
X36409002Y-108254503D02*
X36396002Y-108256503D01*
X36396002Y-108256503D02*
X36383002Y-108260503D01*
X36383002Y-108260503D02*
X36371002Y-108263503D01*
X36371002Y-108263503D02*
X36358002Y-108268503D01*
X36358002Y-108268503D02*
X36346002Y-108273503D01*
X36346002Y-108273503D02*
X36335002Y-108278503D01*
X36335002Y-108278503D02*
X36323002Y-108284503D01*
X36323002Y-108284503D02*
X36312002Y-108291503D01*
X36312002Y-108291503D02*
X36301002Y-108299503D01*
X36301002Y-108299503D02*
X36291002Y-108307503D01*
X36291002Y-108307503D02*
X36281002Y-108315503D01*
X36281002Y-108315503D02*
X36271002Y-108324503D01*
X36271002Y-108324503D02*
X36262002Y-108334503D01*
X36262002Y-108334503D02*
X36254002Y-108344503D01*
X36254002Y-108344503D02*
X36246002Y-108354503D01*
X36246002Y-108354503D02*
X36238002Y-108365503D01*
X36238002Y-108365503D02*
X36231002Y-108376503D01*
X36231002Y-108376503D02*
X36225002Y-108388503D01*
X36225002Y-108388503D02*
X36220002Y-108399503D01*
X36220002Y-108399503D02*
X36215002Y-108411503D01*
X36215002Y-108411503D02*
X36210002Y-108424503D01*
X36210002Y-108424503D02*
X36207002Y-108436503D01*
X36207002Y-108436503D02*
X36203002Y-108449503D01*
X36203002Y-108449503D02*
X36201002Y-108462503D01*
X36201002Y-108462503D02*
X36199002Y-108475503D01*
X36199002Y-108475503D02*
X36198002Y-108488503D01*
X36198002Y-108488503D02*
X36198002Y-108501503D01*
X36198002Y-108501503D02*
X36198002Y-109151503D01*
X36198002Y-109151503D02*
X36198002Y-109164503D01*
X36198002Y-109164503D02*
X36199002Y-109177503D01*
X36199002Y-109177503D02*
X36201002Y-109190503D01*
X36201002Y-109190503D02*
X36203002Y-109203503D01*
X36203002Y-109203503D02*
X36207002Y-109216503D01*
X36207002Y-109216503D02*
X36210002Y-109228503D01*
X36210002Y-109228503D02*
X36215002Y-109241503D01*
X36215002Y-109241503D02*
X36220002Y-109253503D01*
X36220002Y-109253503D02*
X36225002Y-109264503D01*
X36225002Y-109264503D02*
X36231002Y-109276503D01*
X36231002Y-109276503D02*
X36238002Y-109287503D01*
X36238002Y-109287503D02*
X36246002Y-109298503D01*
X36246002Y-109298503D02*
X36254002Y-109308503D01*
X36254002Y-109308503D02*
X36262002Y-109318503D01*
X36262002Y-109318503D02*
X36271002Y-109328503D01*
X36271002Y-109328503D02*
X36281002Y-109337503D01*
X36281002Y-109337503D02*
X36291002Y-109345503D01*
X36291002Y-109345503D02*
X36301002Y-109353503D01*
X36301002Y-109353503D02*
X36312002Y-109361503D01*
X36312002Y-109361503D02*
X36323002Y-109368503D01*
X36323002Y-109368503D02*
X36335002Y-109374503D01*
X36335002Y-109374503D02*
X36346002Y-109379503D01*
X36346002Y-109379503D02*
X36358002Y-109384503D01*
X36358002Y-109384503D02*
X36371002Y-109389503D01*
X36371002Y-109389503D02*
X36383002Y-109392503D01*
X36383002Y-109392503D02*
X36396002Y-109396503D01*
X36396002Y-109396503D02*
X36409002Y-109398503D01*
X36409002Y-109398503D02*
X36422002Y-109400503D01*
X36422002Y-109400503D02*
X36435002Y-109401503D01*
X36435002Y-109401503D02*
X36448002Y-109401503D01*
X36448002Y-109401503D02*
X36448002Y-109601503D01*
X36448002Y-109601503D02*
X36422002Y-109600503D01*
X36422002Y-109600503D02*
X36396002Y-109598503D01*
X36396002Y-109598503D02*
X36370002Y-109595503D01*
X36370002Y-109595503D02*
X36344002Y-109590503D01*
X36344002Y-109590503D02*
X36319002Y-109584503D01*
X36319002Y-109584503D02*
X36293002Y-109577503D01*
X36293002Y-109577503D02*
X36269002Y-109568503D01*
X36269002Y-109568503D02*
X36245002Y-109558503D01*
X36245002Y-109558503D02*
X36221002Y-109547503D01*
X36221002Y-109547503D02*
X36198002Y-109534503D01*
X36198002Y-109534503D02*
X36176002Y-109520503D01*
X36176002Y-109520503D02*
X36154002Y-109506503D01*
X36154002Y-109506503D02*
X36133002Y-109490503D01*
X36133002Y-109490503D02*
X36113002Y-109473503D01*
X36113002Y-109473503D02*
X36094002Y-109455503D01*
X36094002Y-109455503D02*
X36076002Y-109436503D01*
X36076002Y-109436503D02*
X36059002Y-109416503D01*
X36059002Y-109416503D02*
X36043002Y-109395503D01*
X36043002Y-109395503D02*
X36029002Y-109373503D01*
X36029002Y-109373503D02*
X36015002Y-109351503D01*
X36015002Y-109351503D02*
X36002002Y-109328503D01*
X36002002Y-109328503D02*
X35991002Y-109304503D01*
X35991002Y-109304503D02*
X35981002Y-109280503D01*
X35981002Y-109280503D02*
X35972002Y-109256503D01*
X35972002Y-109256503D02*
X35965002Y-109230503D01*
X35965002Y-109230503D02*
X35959002Y-109205503D01*
X35959002Y-109205503D02*
X35954002Y-109179503D01*
X35954002Y-109179503D02*
X35951002Y-109153503D01*
X35951002Y-109153503D02*
X35949002Y-109127503D01*
X35949002Y-109127503D02*
X35948002Y-109101503D01*
X35948002Y-109101503D02*
X35948002Y-108551503D01*
X35948002Y-108551503D02*
X35949002Y-108525503D01*
X35949002Y-108525503D02*
X35951002Y-108499503D01*
X35951002Y-108499503D02*
X35954002Y-108473503D01*
X35954002Y-108473503D02*
X35959002Y-108447503D01*
X35959002Y-108447503D02*
X35965002Y-108422503D01*
X35965002Y-108422503D02*
X35972002Y-108396503D01*
X35972002Y-108396503D02*
X35981002Y-108372503D01*
X35981002Y-108372503D02*
X35991002Y-108348503D01*
X35991002Y-108348503D02*
X36002002Y-108324503D01*
X36002002Y-108324503D02*
X36015002Y-108301503D01*
X36015002Y-108301503D02*
X36029002Y-108279503D01*
X36029002Y-108279503D02*
X36043002Y-108257503D01*
X36043002Y-108257503D02*
X36059002Y-108236503D01*
X36059002Y-108236503D02*
X36076002Y-108216503D01*
X36076002Y-108216503D02*
X36094002Y-108197503D01*
X36094002Y-108197503D02*
X36113002Y-108179503D01*
X36113002Y-108179503D02*
X36133002Y-108162503D01*
X36133002Y-108162503D02*
X36154002Y-108146503D01*
X36154002Y-108146503D02*
X36176002Y-108132503D01*
X36176002Y-108132503D02*
X36198002Y-108118503D01*
X36198002Y-108118503D02*
X36221002Y-108105503D01*
X36221002Y-108105503D02*
X36245002Y-108094503D01*
X36245002Y-108094503D02*
X36269002Y-108084503D01*
X36269002Y-108084503D02*
X36293002Y-108075503D01*
X36293002Y-108075503D02*
X36319002Y-108068503D01*
X36319002Y-108068503D02*
X36344002Y-108062503D01*
X36344002Y-108062503D02*
X36370002Y-108057503D01*
X36370002Y-108057503D02*
X36396002Y-108054503D01*
X36396002Y-108054503D02*
X36422002Y-108052503D01*
X36422002Y-108052503D02*
X36448002Y-108051503D01*
X36448002Y-108051503D02*
X36448002Y-108051503D01*
G36*
X36448002Y-108251503D02*
G01*
X36435002Y-108251503D01*
X36422002Y-108252503D01*
X36396002Y-108256503D01*
X36383002Y-108260503D01*
X36371002Y-108263503D01*
X36358002Y-108268503D01*
X36346002Y-108273503D01*
X36335002Y-108278503D01*
X36323002Y-108284503D01*
X36312002Y-108291503D01*
X36301002Y-108299503D01*
X36281002Y-108315503D01*
X36271002Y-108324503D01*
X36262002Y-108334503D01*
X36246002Y-108354503D01*
X36238002Y-108365503D01*
X36231002Y-108376503D01*
X36225002Y-108388503D01*
X36220002Y-108399503D01*
X36215002Y-108411503D01*
X36210002Y-108424503D01*
X36207002Y-108436503D01*
X36203002Y-108449503D01*
X36199002Y-108475503D01*
X36198002Y-108488503D01*
X36198002Y-109164503D01*
X36199002Y-109177503D01*
X36203002Y-109203503D01*
X36207002Y-109216503D01*
X36210002Y-109228503D01*
X36215002Y-109241503D01*
X36220002Y-109253503D01*
X36225002Y-109264503D01*
X36231002Y-109276503D01*
X36238002Y-109287503D01*
X36246002Y-109298503D01*
X36262002Y-109318503D01*
X36271002Y-109328503D01*
X36281002Y-109337503D01*
X36301002Y-109353503D01*
X36312002Y-109361503D01*
X36323002Y-109368503D01*
X36335002Y-109374503D01*
X36346002Y-109379503D01*
X36358002Y-109384503D01*
X36371002Y-109389503D01*
X36383002Y-109392503D01*
X36396002Y-109396503D01*
X36422002Y-109400503D01*
X36435002Y-109401503D01*
X36448002Y-109401503D01*
X36448002Y-109601503D01*
X36422002Y-109600503D01*
X36396002Y-109598503D01*
X36370002Y-109595503D01*
X36344002Y-109590503D01*
X36319002Y-109584503D01*
X36293002Y-109577503D01*
X36269002Y-109568503D01*
X36245002Y-109558503D01*
X36221002Y-109547503D01*
X36198002Y-109534503D01*
X36154002Y-109506503D01*
X36133002Y-109490503D01*
X36113002Y-109473503D01*
X36094002Y-109455503D01*
X36076002Y-109436503D01*
X36059002Y-109416503D01*
X36043002Y-109395503D01*
X36015002Y-109351503D01*
X36002002Y-109328503D01*
X35991002Y-109304503D01*
X35981002Y-109280503D01*
X35972002Y-109256503D01*
X35965002Y-109230503D01*
X35959002Y-109205503D01*
X35954002Y-109179503D01*
X35951002Y-109153503D01*
X35949002Y-109127503D01*
X35948002Y-109101503D01*
X35948002Y-108551503D01*
X35949002Y-108525503D01*
X35951002Y-108499503D01*
X35954002Y-108473503D01*
X35959002Y-108447503D01*
X35965002Y-108422503D01*
X35972002Y-108396503D01*
X35981002Y-108372503D01*
X35991002Y-108348503D01*
X36002002Y-108324503D01*
X36015002Y-108301503D01*
X36043002Y-108257503D01*
X36059002Y-108236503D01*
X36076002Y-108216503D01*
X36094002Y-108197503D01*
X36113002Y-108179503D01*
X36133002Y-108162503D01*
X36154002Y-108146503D01*
X36198002Y-108118503D01*
X36221002Y-108105503D01*
X36245002Y-108094503D01*
X36269002Y-108084503D01*
X36293002Y-108075503D01*
X36319002Y-108068503D01*
X36344002Y-108062503D01*
X36370002Y-108057503D01*
X36396002Y-108054503D01*
X36422002Y-108052503D01*
X36448002Y-108051503D01*
X36448002Y-108251503D01*
G37*
X36448002Y-108251503D02*
X36435002Y-108251503D01*
X36422002Y-108252503D01*
X36396002Y-108256503D01*
X36383002Y-108260503D01*
X36371002Y-108263503D01*
X36358002Y-108268503D01*
X36346002Y-108273503D01*
X36335002Y-108278503D01*
X36323002Y-108284503D01*
X36312002Y-108291503D01*
X36301002Y-108299503D01*
X36281002Y-108315503D01*
X36271002Y-108324503D01*
X36262002Y-108334503D01*
X36246002Y-108354503D01*
X36238002Y-108365503D01*
X36231002Y-108376503D01*
X36225002Y-108388503D01*
X36220002Y-108399503D01*
X36215002Y-108411503D01*
X36210002Y-108424503D01*
X36207002Y-108436503D01*
X36203002Y-108449503D01*
X36199002Y-108475503D01*
X36198002Y-108488503D01*
X36198002Y-109164503D01*
X36199002Y-109177503D01*
X36203002Y-109203503D01*
X36207002Y-109216503D01*
X36210002Y-109228503D01*
X36215002Y-109241503D01*
X36220002Y-109253503D01*
X36225002Y-109264503D01*
X36231002Y-109276503D01*
X36238002Y-109287503D01*
X36246002Y-109298503D01*
X36262002Y-109318503D01*
X36271002Y-109328503D01*
X36281002Y-109337503D01*
X36301002Y-109353503D01*
X36312002Y-109361503D01*
X36323002Y-109368503D01*
X36335002Y-109374503D01*
X36346002Y-109379503D01*
X36358002Y-109384503D01*
X36371002Y-109389503D01*
X36383002Y-109392503D01*
X36396002Y-109396503D01*
X36422002Y-109400503D01*
X36435002Y-109401503D01*
X36448002Y-109401503D01*
X36448002Y-109601503D01*
X36422002Y-109600503D01*
X36396002Y-109598503D01*
X36370002Y-109595503D01*
X36344002Y-109590503D01*
X36319002Y-109584503D01*
X36293002Y-109577503D01*
X36269002Y-109568503D01*
X36245002Y-109558503D01*
X36221002Y-109547503D01*
X36198002Y-109534503D01*
X36154002Y-109506503D01*
X36133002Y-109490503D01*
X36113002Y-109473503D01*
X36094002Y-109455503D01*
X36076002Y-109436503D01*
X36059002Y-109416503D01*
X36043002Y-109395503D01*
X36015002Y-109351503D01*
X36002002Y-109328503D01*
X35991002Y-109304503D01*
X35981002Y-109280503D01*
X35972002Y-109256503D01*
X35965002Y-109230503D01*
X35959002Y-109205503D01*
X35954002Y-109179503D01*
X35951002Y-109153503D01*
X35949002Y-109127503D01*
X35948002Y-109101503D01*
X35948002Y-108551503D01*
X35949002Y-108525503D01*
X35951002Y-108499503D01*
X35954002Y-108473503D01*
X35959002Y-108447503D01*
X35965002Y-108422503D01*
X35972002Y-108396503D01*
X35981002Y-108372503D01*
X35991002Y-108348503D01*
X36002002Y-108324503D01*
X36015002Y-108301503D01*
X36043002Y-108257503D01*
X36059002Y-108236503D01*
X36076002Y-108216503D01*
X36094002Y-108197503D01*
X36113002Y-108179503D01*
X36133002Y-108162503D01*
X36154002Y-108146503D01*
X36198002Y-108118503D01*
X36221002Y-108105503D01*
X36245002Y-108094503D01*
X36269002Y-108084503D01*
X36293002Y-108075503D01*
X36319002Y-108068503D01*
X36344002Y-108062503D01*
X36370002Y-108057503D01*
X36396002Y-108054503D01*
X36422002Y-108052503D01*
X36448002Y-108051503D01*
X36448002Y-108251503D01*
D12*
X49903000Y-8419500D03*
X50553000Y-8419500D03*
X51203000Y-8419500D03*
X51853000Y-8419500D03*
X52503000Y-8419500D03*
X53153000Y-8419500D03*
X53803000Y-8419500D03*
X53803000Y-2694500D03*
X53153000Y-2694500D03*
X52503000Y-2694500D03*
X51853000Y-2694500D03*
X51203000Y-2694500D03*
X50553000Y-2694500D03*
X49903000Y-2694500D03*
D13*
X82940000Y-50835000D03*
X83890000Y-52710000D03*
X81990000Y-52710000D03*
D14*
X52191000Y-67087000D03*
X52591000Y-58887000D03*
X52991000Y-67087000D03*
X53391000Y-58887000D03*
X53791000Y-67087000D03*
X54191000Y-58887000D03*
X54591000Y-67087000D03*
X54991000Y-58887000D03*
X55391000Y-67087000D03*
X55791000Y-58887000D03*
X56191000Y-67087000D03*
X56591000Y-58887000D03*
X56991000Y-67087000D03*
X57391000Y-58887000D03*
X57791000Y-67087000D03*
X58191000Y-58887000D03*
X61791000Y-67087000D03*
X62191000Y-58887000D03*
X62591000Y-67087000D03*
X62991000Y-58887000D03*
X63391000Y-67087000D03*
X63791000Y-58887000D03*
X64191000Y-67087000D03*
X64591000Y-58887000D03*
X64991000Y-67087000D03*
X65391000Y-58887000D03*
X65791000Y-67087000D03*
X66191000Y-58887000D03*
X66591000Y-67087000D03*
X66991000Y-58887000D03*
X67391000Y-67087000D03*
X67791000Y-58887000D03*
X68191000Y-67087000D03*
X68591000Y-58887000D03*
X68991000Y-67087000D03*
X69391000Y-58887000D03*
X69791000Y-67087000D03*
X70191000Y-58887000D03*
X70591000Y-67087000D03*
X70991000Y-58887000D03*
X71391000Y-67087000D03*
X71791000Y-58887000D03*
X72191000Y-67087000D03*
X72591000Y-58887000D03*
X72991000Y-67087000D03*
X73391000Y-58887000D03*
X73791000Y-67087000D03*
X74191000Y-58887000D03*
X74591000Y-67087000D03*
X74991000Y-58887000D03*
X75391000Y-67087000D03*
X75791000Y-58887000D03*
D15*
X78641000Y-66487000D03*
X49341000Y-66487000D03*
D16*
X104490000Y-99035000D03*
X104490000Y-97385000D03*
X11639300Y-24926000D03*
X11639300Y-23276000D03*
D17*
X90310000Y-77716000D03*
X90310000Y-79266000D03*
D18*
X13803000Y-12091000D03*
X15453000Y-12091000D03*
D16*
X11639300Y-21878000D03*
X11639300Y-20228000D03*
D19*
X79371000Y-71107000D03*
X77721000Y-71107000D03*
D20*
X97740000Y-91360000D03*
X97740000Y-95360000D03*
D21*
X91365332Y-35813699D03*
X91365332Y-33913699D03*
D16*
X83334000Y-59286000D03*
X83334000Y-57636000D03*
D22*
X92556407Y-46415487D03*
X92556407Y-43465487D03*
D21*
X17717500Y-19407001D03*
X17717500Y-17507001D03*
D19*
X87117000Y-51399000D03*
X85467000Y-51399000D03*
D23*
X88458600Y-58371200D03*
X87188600Y-58371200D03*
X87188600Y-64746200D03*
X88458600Y-64746200D03*
D18*
X91738000Y-73888000D03*
X93388000Y-73888000D03*
X85471000Y-52942000D03*
X87121000Y-52942000D03*
D20*
X81526799Y-85497054D03*
X81526799Y-81497054D03*
D24*
X87996000Y-67487000D03*
X91296000Y-67487000D03*
D25*
X41596199Y-21247003D03*
X41596199Y-25447003D03*
D26*
X85886400Y-34698899D03*
X85886400Y-33148899D03*
D24*
X89992000Y-75784000D03*
X93292000Y-75784000D03*
D20*
X85237397Y-85509854D03*
X85237397Y-81509854D03*
D19*
X45534000Y-8951000D03*
X43884000Y-8951000D03*
D26*
X95615991Y-87875000D03*
X95615991Y-86325000D03*
D27*
X91479000Y-69666000D03*
X93304000Y-69666000D03*
D22*
X81069000Y-38059000D03*
X81069000Y-35109000D03*
D28*
X43482000Y-102783000D03*
X43482000Y-101513000D03*
X43482000Y-100243000D03*
X43482000Y-98973000D03*
X36282000Y-98973000D03*
X36282000Y-100243000D03*
X36282000Y-101513000D03*
X36282000Y-102783000D03*
D29*
X87000000Y-54489600D03*
X85100000Y-54489600D03*
X86050000Y-56489600D03*
D20*
X88945797Y-85529054D03*
X88945797Y-81529054D03*
D18*
X91756000Y-77740000D03*
X93406000Y-77740000D03*
X51382000Y-74353000D03*
X53032000Y-74353000D03*
D30*
X87722400Y-39969099D03*
X83522400Y-39969099D03*
D19*
X71649000Y-87681800D03*
X69999000Y-87681800D03*
D31*
X100990000Y-97410000D03*
X102890000Y-97410000D03*
D32*
X37425099Y-21352600D03*
X37425099Y-20402600D03*
X37425099Y-19452600D03*
X35150099Y-19452600D03*
X35150099Y-20402600D03*
X35150099Y-21352600D03*
D33*
X36491398Y-22942600D03*
X34941398Y-22942600D03*
D26*
X37686999Y-17837000D03*
X37686999Y-16287000D03*
D34*
X64980809Y-56776810D03*
X66530809Y-56776810D03*
D35*
X95221000Y-71689000D03*
X95221000Y-72959000D03*
X95221000Y-74229000D03*
X95221000Y-75499000D03*
X100371000Y-75499000D03*
X100371000Y-74229000D03*
X100371000Y-72959000D03*
X100371000Y-71689000D03*
D36*
X22055000Y-32002000D03*
X25005000Y-32002000D03*
D37*
X91769797Y-89961105D03*
X93894797Y-89961105D03*
D20*
X98209991Y-88255000D03*
X98209991Y-84255000D03*
D38*
X79338000Y-77496000D03*
X79338000Y-79146000D03*
D19*
X63494409Y-56785810D03*
X61844409Y-56785810D03*
D33*
X104408000Y-78258000D03*
X102858000Y-78258000D03*
D20*
X85237397Y-93149054D03*
X85237397Y-89149054D03*
D33*
X98759007Y-43298987D03*
X97209007Y-43298987D03*
D19*
X60448410Y-56795210D03*
X58798410Y-56795210D03*
D33*
X4583000Y-77166000D03*
X3033000Y-77166000D03*
D39*
X44364799Y-28272803D03*
X44364799Y-31222803D03*
D16*
X33366599Y-20211600D03*
X33366599Y-18561600D03*
D19*
X79415000Y-76006000D03*
X77765000Y-76006000D03*
D40*
X71697000Y-70802000D03*
X71697000Y-74052000D03*
D41*
X87476400Y-35620199D03*
X88426400Y-35620199D03*
X89376400Y-35620199D03*
X89376400Y-33345199D03*
X88426400Y-33345199D03*
X87476400Y-33345199D03*
D42*
X100184000Y-79680000D03*
D43*
X100184000Y-77305000D03*
D25*
X20046700Y-22983400D03*
X20046700Y-27183400D03*
D44*
X93740000Y-97960000D03*
X93740000Y-105360000D03*
D18*
X100915000Y-99210000D03*
X102565000Y-99210000D03*
D38*
X66800000Y-80654000D03*
X66800000Y-82304000D03*
D21*
X91800895Y-88270905D03*
X91800895Y-86370905D03*
D37*
X91713797Y-84681105D03*
X93838797Y-84681105D03*
D33*
X90317000Y-73902000D03*
X88767000Y-73902000D03*
D45*
X91102000Y-63633000D03*
X91102000Y-60683000D03*
D46*
X100384007Y-44936487D03*
X100384007Y-50861487D03*
D16*
X33366599Y-23259600D03*
X33366599Y-21609600D03*
D21*
X93837895Y-88264905D03*
X93837895Y-86364905D03*
D16*
X88254000Y-49958000D03*
X88254000Y-48308000D03*
D26*
X83404000Y-56104000D03*
X83404000Y-54554000D03*
D47*
X76124000Y-100220000D03*
X76124000Y-102120000D03*
D39*
X90219000Y-48166000D03*
X90219000Y-51116000D03*
D18*
X57350000Y-9372000D03*
X59000000Y-9372000D03*
X51382000Y-72839000D03*
X53032000Y-72839000D03*
D20*
X77840000Y-93138911D03*
X77840000Y-89138911D03*
D18*
X85569400Y-31561699D03*
X87219400Y-31561699D03*
X10722000Y-12090000D03*
X12372000Y-12090000D03*
D48*
X104071500Y-86552878D03*
X104071500Y-83052878D03*
D49*
X104543500Y-80018000D03*
X102718500Y-80018000D03*
D50*
X11409999Y-8151000D03*
X11409999Y-7501000D03*
X11409999Y-6851000D03*
X11409999Y-6201000D03*
X11409999Y-5551000D03*
D51*
X14109999Y-7851000D03*
X14109999Y-9821000D03*
X14099999Y-3901000D03*
X14104999Y-5841000D03*
D52*
X38648002Y-106126503D03*
X39298002Y-106126503D03*
X39948002Y-106126503D03*
X40598002Y-106126503D03*
X41248002Y-106126503D03*
D53*
X36978002Y-108826503D03*
X40958002Y-108821503D03*
X38948002Y-108826503D03*
X42898002Y-108816503D03*
D36*
X22046000Y-29648000D03*
X24996000Y-29648000D03*
D34*
X70981800Y-68976800D03*
X72531800Y-68976800D03*
D54*
X6971782Y-53665187D03*
X10051782Y-53665187D03*
X6971782Y-54065187D03*
X10051782Y-54065187D03*
X6971782Y-54465187D03*
X10051782Y-54465187D03*
X6971782Y-54865187D03*
X10051782Y-54865187D03*
X6971782Y-55265187D03*
X10051782Y-55265187D03*
X6971782Y-55665187D03*
X10051782Y-55665187D03*
X6971782Y-56065187D03*
X10051782Y-56065187D03*
X6971782Y-56465187D03*
X10051782Y-56465187D03*
X6971782Y-56865187D03*
X10051782Y-56865187D03*
X6971782Y-57265187D03*
X10051782Y-57265187D03*
X6971782Y-57665187D03*
X10051782Y-57665187D03*
X6971782Y-58065187D03*
X10051782Y-58065187D03*
X6971782Y-58465187D03*
X10051782Y-58465187D03*
X6971782Y-58865187D03*
X10051782Y-58865187D03*
X6971782Y-59265187D03*
X10051782Y-59265187D03*
X6971782Y-59665187D03*
X10051782Y-59665187D03*
X6971782Y-60065187D03*
X10051782Y-60065187D03*
X6971782Y-60465187D03*
X10051782Y-60465187D03*
X6971782Y-60865187D03*
X10051782Y-60865187D03*
X6971782Y-61265187D03*
X10051782Y-61265187D03*
X6971782Y-61665187D03*
X10051782Y-61665187D03*
X6971782Y-62065187D03*
X10051782Y-62065187D03*
X6971782Y-62465187D03*
X10051782Y-62465187D03*
X6971782Y-62865187D03*
X10051782Y-62865187D03*
X6971782Y-63265187D03*
X10051782Y-63265187D03*
X6971782Y-63665187D03*
X10051782Y-63665187D03*
X6971782Y-64065187D03*
X10051782Y-64065187D03*
X6971782Y-64465187D03*
X10051782Y-64465187D03*
X6971782Y-64865187D03*
X10051782Y-64865187D03*
X6971782Y-65265187D03*
X10051782Y-65265187D03*
X6971782Y-65665187D03*
X10051782Y-65665187D03*
X6971782Y-66065187D03*
X10051782Y-66065187D03*
X6971782Y-66465187D03*
X10051782Y-66465187D03*
X6971782Y-66865187D03*
X10051782Y-66865187D03*
X6971782Y-67265187D03*
X10051782Y-67265187D03*
X6971782Y-67665187D03*
X10051782Y-67665187D03*
X6971782Y-68065187D03*
X10051782Y-68065187D03*
X6971782Y-68465187D03*
X10051782Y-68465187D03*
X6971782Y-68865187D03*
X10051782Y-68865187D03*
X6971782Y-69265187D03*
X10051782Y-69265187D03*
X6971782Y-69665187D03*
X10051782Y-69665187D03*
X6971782Y-70065187D03*
X10051782Y-70065187D03*
X6971782Y-70465187D03*
X10051782Y-70465187D03*
X6971782Y-70865187D03*
X10051782Y-70865187D03*
X6971782Y-71265187D03*
X10051782Y-71265187D03*
X6971782Y-71665187D03*
X10051782Y-71665187D03*
X6971782Y-72065187D03*
X10051782Y-72065187D03*
X6971782Y-72465187D03*
X10051782Y-72465187D03*
X6971782Y-72865187D03*
X10051782Y-72865187D03*
X6971782Y-73265187D03*
X10051782Y-73265187D03*
X40891782Y-53665187D03*
X43971782Y-53665187D03*
X40891782Y-54065187D03*
X43971782Y-54065187D03*
X40891782Y-54465187D03*
X43971782Y-54465187D03*
X40891782Y-54865187D03*
X43971782Y-54865187D03*
X40891782Y-55265187D03*
X43971782Y-55265187D03*
X40891782Y-55665187D03*
X43971782Y-55665187D03*
X40891782Y-56065187D03*
X43971782Y-56065187D03*
X40891782Y-56465187D03*
X43971782Y-56465187D03*
X40891782Y-56865187D03*
X43971782Y-56865187D03*
X40891782Y-57265187D03*
X43971782Y-57265187D03*
X40891782Y-57665187D03*
X43971782Y-57665187D03*
X40891782Y-58065187D03*
X43971782Y-58065187D03*
X40891782Y-58465187D03*
X43971782Y-58465187D03*
X40891782Y-58865187D03*
X43971782Y-58865187D03*
X40891782Y-59265187D03*
X43971782Y-59265187D03*
X40891782Y-59665187D03*
X43971782Y-59665187D03*
X40891782Y-60065187D03*
X43971782Y-60065187D03*
X40891782Y-60465187D03*
X43971782Y-60465187D03*
X40891782Y-60865187D03*
X43971782Y-60865187D03*
X40891782Y-61265187D03*
X43971782Y-61265187D03*
X40891782Y-61665187D03*
X43971782Y-61665187D03*
X40891782Y-62065187D03*
X43971782Y-62065187D03*
X40891782Y-62465187D03*
X43971782Y-62465187D03*
X40891782Y-62865187D03*
X43971782Y-62865187D03*
X40891782Y-63265187D03*
X43971782Y-63265187D03*
X40891782Y-63665187D03*
X43971782Y-63665187D03*
X40891782Y-64065187D03*
X43971782Y-64065187D03*
X40891782Y-64465187D03*
X43971782Y-64465187D03*
X40891782Y-64865187D03*
X43971782Y-64865187D03*
X40891782Y-65265187D03*
X43971782Y-65265187D03*
X40891782Y-65665187D03*
X43971782Y-65665187D03*
X40891782Y-66065187D03*
X43971782Y-66065187D03*
X40891782Y-66465187D03*
X43971782Y-66465187D03*
X40891782Y-66865187D03*
X43971782Y-66865187D03*
X40891782Y-67265187D03*
X43971782Y-67265187D03*
X40891782Y-67665187D03*
X43971782Y-67665187D03*
X40891782Y-68065187D03*
X43971782Y-68065187D03*
X40891782Y-68465187D03*
X43971782Y-68465187D03*
X40891782Y-68865187D03*
X43971782Y-68865187D03*
X40891782Y-69265187D03*
X43971782Y-69265187D03*
X40891782Y-69665187D03*
X43971782Y-69665187D03*
X40891782Y-70065187D03*
X43971782Y-70065187D03*
X40891782Y-70465187D03*
X43971782Y-70465187D03*
X40891782Y-70865187D03*
X43971782Y-70865187D03*
X40891782Y-71265187D03*
X43971782Y-71265187D03*
X40891782Y-71665187D03*
X43971782Y-71665187D03*
X40891782Y-72065187D03*
X43971782Y-72065187D03*
X40891782Y-72465187D03*
X43971782Y-72465187D03*
X40891782Y-72865187D03*
X43971782Y-72865187D03*
X40891782Y-73265187D03*
X43971782Y-73265187D03*
D21*
X19843500Y-19404000D03*
X19843500Y-17504000D03*
D17*
X89561932Y-37466899D03*
X89561932Y-39016899D03*
D55*
X105351000Y-72491000D03*
X102401000Y-72491000D03*
D19*
X79424000Y-74222000D03*
X77774000Y-74222000D03*
D32*
X15647000Y-23275000D03*
X15647000Y-22325000D03*
X15647000Y-21375000D03*
X13372000Y-21375000D03*
X13372000Y-22325000D03*
X13372000Y-23275000D03*
D56*
X38373999Y-28274603D03*
X35423999Y-28274603D03*
D21*
X41581999Y-17868000D03*
X41581999Y-15968000D03*
D33*
X54148410Y-56809811D03*
X52598410Y-56809811D03*
D26*
X15779500Y-19430000D03*
X15779500Y-17880000D03*
D47*
X85188000Y-58061000D03*
X85188000Y-59961000D03*
D16*
X90154000Y-56540000D03*
X90154000Y-54890000D03*
D33*
X14709700Y-24863000D03*
X13159700Y-24863000D03*
D16*
X88604000Y-56540000D03*
X88604000Y-54890000D03*
D39*
X92586000Y-48163000D03*
X92586000Y-51113000D03*
D17*
X77799000Y-77556000D03*
X77799000Y-79106000D03*
D39*
X83618000Y-44144000D03*
X83618000Y-47094000D03*
D57*
X84311400Y-71009600D03*
X84311400Y-66609600D03*
D58*
X96109007Y-47003987D03*
D59*
X97029007Y-50985987D03*
X95189007Y-50985987D03*
D47*
X91365332Y-37510299D03*
X91365332Y-39410299D03*
D55*
X105351000Y-75841000D03*
X102401000Y-75841000D03*
D60*
X2895000Y-79638000D03*
X3545000Y-78888000D03*
X2895000Y-78888000D03*
X3545000Y-79638000D03*
D61*
X1770000Y-78513000D03*
X1770000Y-79013000D03*
X1770000Y-79513000D03*
X1770000Y-80013000D03*
X4670000Y-80013000D03*
X4670000Y-79513000D03*
X4670000Y-79013000D03*
X4670000Y-78513000D03*
D18*
X10115000Y-94660000D03*
X11765000Y-94660000D03*
D62*
X76314000Y-104749500D03*
X76314000Y-106874500D03*
D19*
X79412000Y-72684000D03*
X77762000Y-72684000D03*
D18*
X57335000Y-7782000D03*
X58985000Y-7782000D03*
D40*
X3514000Y-70299000D03*
X3514000Y-73549000D03*
D20*
X77840000Y-85499711D03*
X77840000Y-81499711D03*
D18*
X88617400Y-31561699D03*
X90267400Y-31561699D03*
D63*
X105047000Y-69287000D03*
X102547000Y-69287000D03*
X100047000Y-69287000D03*
X97547000Y-69287000D03*
X95047000Y-69287000D03*
X95047000Y-53667000D03*
X97547000Y-53667000D03*
X100047000Y-53667000D03*
X102547000Y-53667000D03*
X105047000Y-53667000D03*
D64*
X90259500Y-71981000D03*
X93184500Y-71981000D03*
D33*
X73509604Y-56859005D03*
X71959604Y-56859005D03*
D20*
X81526799Y-93136254D03*
X81526799Y-89136254D03*
D17*
X34429000Y-99018000D03*
X34429000Y-100568000D03*
D22*
X90205000Y-46414000D03*
X90205000Y-43464000D03*
D26*
X66909600Y-86943200D03*
X66909600Y-85393200D03*
D47*
X88330000Y-69476000D03*
X88330000Y-71376000D03*
D65*
X70014100Y-79478800D03*
X70014100Y-80428800D03*
X70014100Y-81378800D03*
X72289100Y-81378800D03*
X72289100Y-79478800D03*
D66*
X99240000Y-99772500D03*
X99240000Y-97647500D03*
D39*
X81164000Y-44137000D03*
X81164000Y-47087000D03*
X40935799Y-28272803D03*
X40935799Y-31222803D03*
D67*
X84064000Y-76301000D03*
X84064000Y-75141000D03*
D68*
X81201500Y-73446000D03*
X81201500Y-74096000D03*
X81201500Y-74746000D03*
X81201500Y-75396000D03*
X81201500Y-76046000D03*
X81201500Y-76696000D03*
X81201500Y-77346000D03*
X81201500Y-77996000D03*
X86926500Y-77996000D03*
X86926500Y-77346000D03*
X86926500Y-76696000D03*
X86926500Y-76046000D03*
X86926500Y-75396000D03*
X86926500Y-74746000D03*
X86926500Y-74096000D03*
X86926500Y-73446000D03*
D18*
X70816000Y-82969200D03*
X72466000Y-82969200D03*
D26*
X81849000Y-56108000D03*
X81849000Y-54558000D03*
D69*
X71000000Y-91928300D03*
X71000000Y-93503300D03*
D38*
X46957000Y-82690000D03*
X46957000Y-84340000D03*
D16*
X88790000Y-79309000D03*
X88790000Y-77659000D03*
D20*
X88945797Y-93168254D03*
X88945797Y-89168254D03*
D21*
X39514999Y-17875000D03*
X39514999Y-15975000D03*
D70*
X71000000Y-102012300D03*
X71000000Y-100437300D03*
D18*
X88536000Y-53441000D03*
X90186000Y-53441000D03*
M02*
