  0
SECTION
  2
HEADER
  9
$ANGBASE
  50
0.0
  9
$ANGDIR
  70
1
  9
$MEASUREMENT
  70
0
  0
ENDSEC
  0
SECTION
  2
TABLES
  0
TABLE
  2
LTYPE
  70
4
  0
LTYPE
  5
40F
  2
CONTINUOUS
  70
0
  3
Solid line
  72
65
  73
0
  40
0.0
  0
LTYPE
  5
410
  2
DASHDOT
 70
0
  3
Dash Dot ____ _ ____ _
 72
65
 73
4
 40
2.0
 49
1.25
 49
-0.25
 49
0.25
 49
-0.25
  0
LTYPE
  5
411
  2
DASHED
 70
0
  3
Dashed __ __ __ __ __
 72
65
 73
2
 40
0.75
 49
0.5
 49
-0.25
  0
LTYPE
  5
43B
  2
DOTTED
 70
0
  3
Dotted .  .  .  .
 72
65
 73
2
 40
0.2
 49
0.0
 49
-0.2
  0
ENDTAB
  0
TABLE
  2
STYLE
  70
4
  0
STYLE
  2
KICAD
  70
0
  40
0
  41
1
  42
1
  50
0
  71
0
  3
isocp.shx
  0
STYLE
  2
KICADB
  70
0
  40
0
  41
1
  42
1
  50
0
  71
0
  3
isocp.shx
  0
STYLE
  2
KICADI
  70
0
  40
0
  41
1
  42
1
  50
15
  71
0
  3
isocp.shx
  0
STYLE
  2
KICADBI
  70
0
  40
0
  41
1
  42
1
  50
15
  71
0
  3
isocp.shx
  0
ENDTAB
  0
TABLE
  2
LAYER
  70
1
  0
LAYER
  2
BLACK
  70
0
  62
7
  6
CONTINUOUS
  0
ENDTAB
  0
ENDSEC
  0
SECTION
  2
ENTITIES
0
LINE
8
BLACK
6
CONTINUOUS
10
2.44153
20
-0.848096
11
2.44433
21
-0.849963
0
LINE
8
BLACK
6
CONTINUOUS
10
2.44433
20
-0.849963
11
2.44619
21
-0.852757
0
LINE
8
BLACK
6
CONTINUOUS
10
2.44619
20
-0.852757
11
2.44685
21
-0.856053
0
LINE
8
BLACK
6
CONTINUOUS
10
2.44685
20
-0.856053
11
2.44685
21
-0.87623
0
LINE
8
BLACK
6
CONTINUOUS
10
2.44685
20
-0.87623
11
2.44619
21
-0.879526
0
LINE
8
BLACK
6
CONTINUOUS
10
2.44619
20
-0.879526
11
2.44433
21
-0.88232
0
LINE
8
BLACK
6
CONTINUOUS
10
2.44433
20
-0.88232
11
2.44153
21
-0.884187
0
LINE
8
BLACK
6
CONTINUOUS
10
2.44153
20
-0.884187
11
2.43824
21
-0.884843
0
LINE
8
BLACK
6
CONTINUOUS
10
2.43824
20
-0.884843
11
2.42101
21
-0.884843
0
LINE
8
BLACK
6
CONTINUOUS
10
2.42101
20
-0.884843
11
2.41772
21
-0.884187
0
LINE
8
BLACK
6
CONTINUOUS
10
2.41772
20
-0.884187
11
2.41492
21
-0.88232
0
LINE
8
BLACK
6
CONTINUOUS
10
2.41492
20
-0.88232
11
2.41306
21
-0.879526
0
LINE
8
BLACK
6
CONTINUOUS
10
2.41306
20
-0.879526
11
2.4124
21
-0.87623
0
LINE
8
BLACK
6
CONTINUOUS
10
2.4124
20
-0.87623
11
2.4124
21
-0.856053
0
LINE
8
BLACK
6
CONTINUOUS
10
2.4124
20
-0.856053
11
2.41306
21
-0.852757
0
LINE
8
BLACK
6
CONTINUOUS
10
2.41306
20
-0.852757
11
2.41492
21
-0.849963
0
LINE
8
BLACK
6
CONTINUOUS
10
2.41492
20
-0.849963
11
2.41772
21
-0.848096
0
LINE
8
BLACK
6
CONTINUOUS
10
2.41772
20
-0.848096
11
2.42101
21
-0.847441
0
LINE
8
BLACK
6
CONTINUOUS
10
2.42101
20
-0.847441
11
2.43824
21
-0.847441
0
LINE
8
BLACK
6
CONTINUOUS
10
2.43824
20
-0.847441
11
2.44153
21
-0.848096
0
LINE
8
BLACK
6
CONTINUOUS
10
2.50354
20
-0.848096
11
2.50634
21
-0.849963
0
LINE
8
BLACK
6
CONTINUOUS
10
2.50634
20
-0.849963
11
2.5082
21
-0.852757
0
LINE
8
BLACK
6
CONTINUOUS
10
2.5082
20
-0.852757
11
2.50886
21
-0.856053
0
LINE
8
BLACK
6
CONTINUOUS
10
2.50886
20
-0.856053
11
2.50886
21
-0.87623
0
LINE
8
BLACK
6
CONTINUOUS
10
2.50886
20
-0.87623
11
2.5082
21
-0.879526
0
LINE
8
BLACK
6
CONTINUOUS
10
2.5082
20
-0.879526
11
2.50634
21
-0.88232
0
LINE
8
BLACK
6
CONTINUOUS
10
2.50634
20
-0.88232
11
2.50354
21
-0.884187
0
LINE
8
BLACK
6
CONTINUOUS
10
2.50354
20
-0.884187
11
2.50025
21
-0.884843
0
LINE
8
BLACK
6
CONTINUOUS
10
2.50025
20
-0.884843
11
2.48302
21
-0.884843
0
LINE
8
BLACK
6
CONTINUOUS
10
2.48302
20
-0.884843
11
2.47973
21
-0.884187
0
LINE
8
BLACK
6
CONTINUOUS
10
2.47973
20
-0.884187
11
2.47693
21
-0.88232
0
LINE
8
BLACK
6
CONTINUOUS
10
2.47693
20
-0.88232
11
2.47506
21
-0.879526
0
LINE
8
BLACK
6
CONTINUOUS
10
2.47506
20
-0.879526
11
2.47441
21
-0.87623
0
LINE
8
BLACK
6
CONTINUOUS
10
2.47441
20
-0.87623
11
2.47441
21
-0.856053
0
LINE
8
BLACK
6
CONTINUOUS
10
2.47441
20
-0.856053
11
2.47506
21
-0.852757
0
LINE
8
BLACK
6
CONTINUOUS
10
2.47506
20
-0.852757
11
2.47693
21
-0.849963
0
LINE
8
BLACK
6
CONTINUOUS
10
2.47693
20
-0.849963
11
2.47973
21
-0.848096
0
LINE
8
BLACK
6
CONTINUOUS
10
2.47973
20
-0.848096
11
2.48302
21
-0.847441
0
LINE
8
BLACK
6
CONTINUOUS
10
2.48302
20
-0.847441
11
2.50025
21
-0.847441
0
LINE
8
BLACK
6
CONTINUOUS
10
2.50025
20
-0.847441
11
2.50354
21
-0.848096
0
LINE
8
BLACK
6
CONTINUOUS
10
1.77224
20
-0.848096
11
1.77504
21
-0.849963
0
LINE
8
BLACK
6
CONTINUOUS
10
1.77504
20
-0.849963
11
1.7769
21
-0.852757
0
LINE
8
BLACK
6
CONTINUOUS
10
1.7769
20
-0.852757
11
1.77756
21
-0.856053
0
LINE
8
BLACK
6
CONTINUOUS
10
1.77756
20
-0.856053
11
1.77756
21
-0.87623
0
LINE
8
BLACK
6
CONTINUOUS
10
1.77756
20
-0.87623
11
1.7769
21
-0.879526
0
LINE
8
BLACK
6
CONTINUOUS
10
1.7769
20
-0.879526
11
1.77504
21
-0.88232
0
LINE
8
BLACK
6
CONTINUOUS
10
1.77504
20
-0.88232
11
1.77224
21
-0.884187
0
LINE
8
BLACK
6
CONTINUOUS
10
1.77224
20
-0.884187
11
1.76895
21
-0.884843
0
LINE
8
BLACK
6
CONTINUOUS
10
1.76895
20
-0.884843
11
1.75172
21
-0.884843
0
LINE
8
BLACK
6
CONTINUOUS
10
1.75172
20
-0.884843
11
1.74843
21
-0.884187
0
LINE
8
BLACK
6
CONTINUOUS
10
1.74843
20
-0.884187
11
1.74563
21
-0.88232
0
LINE
8
BLACK
6
CONTINUOUS
10
1.74563
20
-0.88232
11
1.74377
21
-0.879526
0
LINE
8
BLACK
6
CONTINUOUS
10
1.74377
20
-0.879526
11
1.74311
21
-0.87623
0
LINE
8
BLACK
6
CONTINUOUS
10
1.74311
20
-0.87623
11
1.74311
21
-0.856053
0
LINE
8
BLACK
6
CONTINUOUS
10
1.74311
20
-0.856053
11
1.74377
21
-0.852757
0
LINE
8
BLACK
6
CONTINUOUS
10
1.74377
20
-0.852757
11
1.74563
21
-0.849963
0
LINE
8
BLACK
6
CONTINUOUS
10
1.74563
20
-0.849963
11
1.74843
21
-0.848096
0
LINE
8
BLACK
6
CONTINUOUS
10
1.74843
20
-0.848096
11
1.75172
21
-0.847441
0
LINE
8
BLACK
6
CONTINUOUS
10
1.75172
20
-0.847441
11
1.76895
21
-0.847441
0
LINE
8
BLACK
6
CONTINUOUS
10
1.76895
20
-0.847441
11
1.77224
21
-0.848096
0
LINE
8
BLACK
6
CONTINUOUS
10
1.83425
20
-0.848096
11
1.83704
21
-0.849963
0
LINE
8
BLACK
6
CONTINUOUS
10
1.83704
20
-0.849963
11
1.83891
21
-0.852757
0
LINE
8
BLACK
6
CONTINUOUS
10
1.83891
20
-0.852757
11
1.83957
21
-0.856053
0
LINE
8
BLACK
6
CONTINUOUS
10
1.83957
20
-0.856053
11
1.83957
21
-0.87623
0
LINE
8
BLACK
6
CONTINUOUS
10
1.83957
20
-0.87623
11
1.83891
21
-0.879526
0
LINE
8
BLACK
6
CONTINUOUS
10
1.83891
20
-0.879526
11
1.83704
21
-0.88232
0
LINE
8
BLACK
6
CONTINUOUS
10
1.83704
20
-0.88232
11
1.83425
21
-0.884187
0
LINE
8
BLACK
6
CONTINUOUS
10
1.83425
20
-0.884187
11
1.83095
21
-0.884843
0
LINE
8
BLACK
6
CONTINUOUS
10
1.83095
20
-0.884843
11
1.81373
21
-0.884843
0
LINE
8
BLACK
6
CONTINUOUS
10
1.81373
20
-0.884843
11
1.81043
21
-0.884187
0
LINE
8
BLACK
6
CONTINUOUS
10
1.81043
20
-0.884187
11
1.80764
21
-0.88232
0
LINE
8
BLACK
6
CONTINUOUS
10
1.80764
20
-0.88232
11
1.80577
21
-0.879526
0
LINE
8
BLACK
6
CONTINUOUS
10
1.80577
20
-0.879526
11
1.80512
21
-0.87623
0
LINE
8
BLACK
6
CONTINUOUS
10
1.80512
20
-0.87623
11
1.80512
21
-0.856053
0
LINE
8
BLACK
6
CONTINUOUS
10
1.80512
20
-0.856053
11
1.80577
21
-0.852757
0
LINE
8
BLACK
6
CONTINUOUS
10
1.80577
20
-0.852757
11
1.80764
21
-0.849963
0
LINE
8
BLACK
6
CONTINUOUS
10
1.80764
20
-0.849963
11
1.81043
21
-0.848096
0
LINE
8
BLACK
6
CONTINUOUS
10
1.81043
20
-0.848096
11
1.81373
21
-0.847441
0
LINE
8
BLACK
6
CONTINUOUS
10
1.81373
20
-0.847441
11
1.83095
21
-0.847441
0
LINE
8
BLACK
6
CONTINUOUS
10
1.83095
20
-0.847441
11
1.83425
21
-0.848096
0
LINE
8
BLACK
6
CONTINUOUS
10
2.10689
20
-0.848096
11
2.10968
21
-0.849963
0
LINE
8
BLACK
6
CONTINUOUS
10
2.10968
20
-0.849963
11
2.11155
21
-0.852757
0
LINE
8
BLACK
6
CONTINUOUS
10
2.11155
20
-0.852757
11
2.1122
21
-0.856053
0
LINE
8
BLACK
6
CONTINUOUS
10
2.1122
20
-0.856053
11
2.1122
21
-0.87623
0
LINE
8
BLACK
6
CONTINUOUS
10
2.1122
20
-0.87623
11
2.11155
21
-0.879526
0
LINE
8
BLACK
6
CONTINUOUS
10
2.11155
20
-0.879526
11
2.10968
21
-0.88232
0
LINE
8
BLACK
6
CONTINUOUS
10
2.10968
20
-0.88232
11
2.10689
21
-0.884187
0
LINE
8
BLACK
6
CONTINUOUS
10
2.10689
20
-0.884187
11
2.10359
21
-0.884843
0
LINE
8
BLACK
6
CONTINUOUS
10
2.10359
20
-0.884843
11
2.08637
21
-0.884843
0
LINE
8
BLACK
6
CONTINUOUS
10
2.08637
20
-0.884843
11
2.08307
21
-0.884187
0
LINE
8
BLACK
6
CONTINUOUS
10
2.08307
20
-0.884187
11
2.08028
21
-0.88232
0
LINE
8
BLACK
6
CONTINUOUS
10
2.08028
20
-0.88232
11
2.07841
21
-0.879526
0
LINE
8
BLACK
6
CONTINUOUS
10
2.07841
20
-0.879526
11
2.07776
21
-0.87623
0
LINE
8
BLACK
6
CONTINUOUS
10
2.07776
20
-0.87623
11
2.07776
21
-0.856053
0
LINE
8
BLACK
6
CONTINUOUS
10
2.07776
20
-0.856053
11
2.07841
21
-0.852757
0
LINE
8
BLACK
6
CONTINUOUS
10
2.07841
20
-0.852757
11
2.08028
21
-0.849963
0
LINE
8
BLACK
6
CONTINUOUS
10
2.08028
20
-0.849963
11
2.08307
21
-0.848096
0
LINE
8
BLACK
6
CONTINUOUS
10
2.08307
20
-0.848096
11
2.08637
21
-0.847441
0
LINE
8
BLACK
6
CONTINUOUS
10
2.08637
20
-0.847441
11
2.10359
21
-0.847441
0
LINE
8
BLACK
6
CONTINUOUS
10
2.10359
20
-0.847441
11
2.10689
21
-0.848096
0
LINE
8
BLACK
6
CONTINUOUS
10
2.1689
20
-0.848096
11
2.17169
21
-0.849963
0
LINE
8
BLACK
6
CONTINUOUS
10
2.17169
20
-0.849963
11
2.17356
21
-0.852757
0
LINE
8
BLACK
6
CONTINUOUS
10
2.17356
20
-0.852757
11
2.17421
21
-0.856053
0
LINE
8
BLACK
6
CONTINUOUS
10
2.17421
20
-0.856053
11
2.17421
21
-0.87623
0
LINE
8
BLACK
6
CONTINUOUS
10
2.17421
20
-0.87623
11
2.17356
21
-0.879526
0
LINE
8
BLACK
6
CONTINUOUS
10
2.17356
20
-0.879526
11
2.17169
21
-0.88232
0
LINE
8
BLACK
6
CONTINUOUS
10
2.17169
20
-0.88232
11
2.1689
21
-0.884187
0
LINE
8
BLACK
6
CONTINUOUS
10
2.1689
20
-0.884187
11
2.1656
21
-0.884843
0
LINE
8
BLACK
6
CONTINUOUS
10
2.1656
20
-0.884843
11
2.14838
21
-0.884843
0
LINE
8
BLACK
6
CONTINUOUS
10
2.14838
20
-0.884843
11
2.14508
21
-0.884187
0
LINE
8
BLACK
6
CONTINUOUS
10
2.14508
20
-0.884187
11
2.14229
21
-0.88232
0
LINE
8
BLACK
6
CONTINUOUS
10
2.14229
20
-0.88232
11
2.14042
21
-0.879526
0
LINE
8
BLACK
6
CONTINUOUS
10
2.14042
20
-0.879526
11
2.13976
21
-0.87623
0
LINE
8
BLACK
6
CONTINUOUS
10
2.13976
20
-0.87623
11
2.13976
21
-0.856053
0
LINE
8
BLACK
6
CONTINUOUS
10
2.13976
20
-0.856053
11
2.14042
21
-0.852757
0
LINE
8
BLACK
6
CONTINUOUS
10
2.14042
20
-0.852757
11
2.14229
21
-0.849963
0
LINE
8
BLACK
6
CONTINUOUS
10
2.14229
20
-0.849963
11
2.14508
21
-0.848096
0
LINE
8
BLACK
6
CONTINUOUS
10
2.14508
20
-0.848096
11
2.14838
21
-0.847441
0
LINE
8
BLACK
6
CONTINUOUS
10
2.14838
20
-0.847441
11
2.1656
21
-0.847441
0
LINE
8
BLACK
6
CONTINUOUS
10
2.1656
20
-0.847441
11
2.1689
21
-0.848096
0
LINE
8
BLACK
6
CONTINUOUS
10
-0.00139193
20
-4.3321
11
-0.0019685
21
-4.33071
0
LINE
8
BLACK
6
CONTINUOUS
10
-0.0019685
20
-4.33071
11
-0.0019685
21
0
0
LINE
8
BLACK
6
CONTINUOUS
10
-0.0019685
20
0
11
-0.00139193
21
0.00139193
0
LINE
8
BLACK
6
CONTINUOUS
10
-0.00139193
20
0.00139193
11
0
21
0.0019685
0
LINE
8
BLACK
6
CONTINUOUS
10
0
20
0.0019685
11
4.25197
21
0.0019685
0
LINE
8
BLACK
6
CONTINUOUS
10
4.25197
20
0.0019685
11
4.25336
21
0.00139193
0
LINE
8
BLACK
6
CONTINUOUS
10
4.25336
20
0.00139193
11
4.25394
21
0
0
LINE
8
BLACK
6
CONTINUOUS
10
4.25394
20
0
11
4.25394
21
-4.33071
0
LINE
8
BLACK
6
CONTINUOUS
10
4.25394
20
-4.33071
11
4.25336
21
-4.3321
0
LINE
8
BLACK
6
CONTINUOUS
10
4.25336
20
-4.3321
11
4.25197
21
-4.33268
0
LINE
8
BLACK
6
CONTINUOUS
10
4.25197
20
-4.33268
11
0
21
-4.33268
0
LINE
8
BLACK
6
CONTINUOUS
10
0
20
-4.33268
11
-0.00139193
21
-4.3321
0
LINE
8
BLACK
6
CONTINUOUS
10
0.0019685
20
-0.0019685
11
0.0019685
21
-4.32874
0
LINE
8
BLACK
6
CONTINUOUS
10
0.0019685
20
-4.32874
11
4.25
21
-4.32874
0
LINE
8
BLACK
6
CONTINUOUS
10
4.25
20
-4.32874
11
4.25
21
-0.0019685
0
LINE
8
BLACK
6
CONTINUOUS
10
4.25
20
-0.0019685
11
0.0019685
21
-0.0019685
  0
ENDSEC
  0
EOF
