  0
SECTION
  2
HEADER
  9
$ANGBASE
  50
0.0
  9
$ANGDIR
  70
1
  9
$MEASUREMENT
  70
0
  0
ENDSEC
  0
SECTION
  2
TABLES
  0
TABLE
  2
LTYPE
  70
4
  0
LTYPE
  5
40F
  2
CONTINUOUS
  70
0
  3
Solid line
  72
65
  73
0
  40
0.0
  0
LTYPE
  5
410
  2
DASHDOT
 70
0
  3
Dash Dot ____ _ ____ _
 72
65
 73
4
 40
2.0
 49
1.25
 49
-0.25
 49
0.25
 49
-0.25
  0
LTYPE
  5
411
  2
DASHED
 70
0
  3
Dashed __ __ __ __ __
 72
65
 73
2
 40
0.75
 49
0.5
 49
-0.25
  0
LTYPE
  5
43B
  2
DOTTED
 70
0
  3
Dotted .  .  .  .
 72
65
 73
2
 40
0.2
 49
0.0
 49
-0.2
  0
ENDTAB
  0
TABLE
  2
STYLE
  70
4
  0
STYLE
  2
KICAD
  70
0
  40
0
  41
1
  42
1
  50
0
  71
0
  3
isocp.shx
  0
STYLE
  2
KICADB
  70
0
  40
0
  41
1
  42
1
  50
0
  71
0
  3
isocp.shx
  0
STYLE
  2
KICADI
  70
0
  40
0
  41
1
  42
1
  50
15
  71
0
  3
isocp.shx
  0
STYLE
  2
KICADBI
  70
0
  40
0
  41
1
  42
1
  50
15
  71
0
  3
isocp.shx
  0
ENDTAB
  0
TABLE
  2
LAYER
  70
1
  0
LAYER
  2
BLACK
  70
0
  62
7
  6
CONTINUOUS
  0
ENDTAB
  0
ENDSEC
  0
SECTION
  2
ENTITIES
0
LINE
8
BLACK
6
CONTINUOUS
10
1.8245
20
-0.835534
11
1.8252
21
-0.837205
0
LINE
8
BLACK
6
CONTINUOUS
10
1.8252
20
-0.837205
11
1.8245
21
-0.838875
0
LINE
8
BLACK
6
CONTINUOUS
10
1.8245
20
-0.838875
11
1.82283
21
-0.839567
0
LINE
8
BLACK
6
CONTINUOUS
10
1.82283
20
-0.839567
11
1.73524
21
-0.839567
0
LINE
8
BLACK
6
CONTINUOUS
10
1.73524
20
-0.839567
11
1.73524
21
-0.892717
0
LINE
8
BLACK
6
CONTINUOUS
10
1.73524
20
-0.892717
11
1.82283
21
-0.892717
0
LINE
8
BLACK
6
CONTINUOUS
10
1.82283
20
-0.892717
11
1.8245
21
-0.893408
0
LINE
8
BLACK
6
CONTINUOUS
10
1.8245
20
-0.893408
11
1.8252
21
-0.895079
0
LINE
8
BLACK
6
CONTINUOUS
10
1.8252
20
-0.895079
11
1.8245
21
-0.896749
0
LINE
8
BLACK
6
CONTINUOUS
10
1.8245
20
-0.896749
11
1.82283
21
-0.897441
0
LINE
8
BLACK
6
CONTINUOUS
10
1.82283
20
-0.897441
11
1.73287
21
-0.897441
0
LINE
8
BLACK
6
CONTINUOUS
10
1.73287
20
-0.897441
11
1.7312
21
-0.896749
0
LINE
8
BLACK
6
CONTINUOUS
10
1.7312
20
-0.896749
11
1.73051
21
-0.895079
0
LINE
8
BLACK
6
CONTINUOUS
10
1.73051
20
-0.895079
11
1.73051
21
-0.837205
0
LINE
8
BLACK
6
CONTINUOUS
10
1.73051
20
-0.837205
11
1.7312
21
-0.835534
0
LINE
8
BLACK
6
CONTINUOUS
10
1.7312
20
-0.835534
11
1.73287
21
-0.834843
0
LINE
8
BLACK
6
CONTINUOUS
10
1.73287
20
-0.834843
11
1.82283
21
-0.834843
0
LINE
8
BLACK
6
CONTINUOUS
10
1.82283
20
-0.834843
11
1.8245
21
-0.835534
0
LINE
8
BLACK
6
CONTINUOUS
10
2.4938
20
-0.835534
11
2.49449
21
-0.837205
0
LINE
8
BLACK
6
CONTINUOUS
10
2.49449
20
-0.837205
11
2.4938
21
-0.838875
0
LINE
8
BLACK
6
CONTINUOUS
10
2.4938
20
-0.838875
11
2.49213
21
-0.839567
0
LINE
8
BLACK
6
CONTINUOUS
10
2.49213
20
-0.839567
11
2.40453
21
-0.839567
0
LINE
8
BLACK
6
CONTINUOUS
10
2.40453
20
-0.839567
11
2.40453
21
-0.892717
0
LINE
8
BLACK
6
CONTINUOUS
10
2.40453
20
-0.892717
11
2.49213
21
-0.892717
0
LINE
8
BLACK
6
CONTINUOUS
10
2.49213
20
-0.892717
11
2.4938
21
-0.893408
0
LINE
8
BLACK
6
CONTINUOUS
10
2.4938
20
-0.893408
11
2.49449
21
-0.895079
0
LINE
8
BLACK
6
CONTINUOUS
10
2.49449
20
-0.895079
11
2.4938
21
-0.896749
0
LINE
8
BLACK
6
CONTINUOUS
10
2.4938
20
-0.896749
11
2.49213
21
-0.897441
0
LINE
8
BLACK
6
CONTINUOUS
10
2.49213
20
-0.897441
11
2.40217
21
-0.897441
0
LINE
8
BLACK
6
CONTINUOUS
10
2.40217
20
-0.897441
11
2.4005
21
-0.896749
0
LINE
8
BLACK
6
CONTINUOUS
10
2.4005
20
-0.896749
11
2.3998
21
-0.895079
0
LINE
8
BLACK
6
CONTINUOUS
10
2.3998
20
-0.895079
11
2.3998
21
-0.837205
0
LINE
8
BLACK
6
CONTINUOUS
10
2.3998
20
-0.837205
11
2.4005
21
-0.835534
0
LINE
8
BLACK
6
CONTINUOUS
10
2.4005
20
-0.835534
11
2.40217
21
-0.834843
0
LINE
8
BLACK
6
CONTINUOUS
10
2.40217
20
-0.834843
11
2.49213
21
-0.834843
0
LINE
8
BLACK
6
CONTINUOUS
10
2.49213
20
-0.834843
11
2.4938
21
-0.835534
0
LINE
8
BLACK
6
CONTINUOUS
10
2.15915
20
-0.835534
11
2.15984
21
-0.837205
0
LINE
8
BLACK
6
CONTINUOUS
10
2.15984
20
-0.837205
11
2.15915
21
-0.838875
0
LINE
8
BLACK
6
CONTINUOUS
10
2.15915
20
-0.838875
11
2.15748
21
-0.839567
0
LINE
8
BLACK
6
CONTINUOUS
10
2.15748
20
-0.839567
11
2.06988
21
-0.839567
0
LINE
8
BLACK
6
CONTINUOUS
10
2.06988
20
-0.839567
11
2.06988
21
-0.892717
0
LINE
8
BLACK
6
CONTINUOUS
10
2.06988
20
-0.892717
11
2.15748
21
-0.892717
0
LINE
8
BLACK
6
CONTINUOUS
10
2.15748
20
-0.892717
11
2.15915
21
-0.893408
0
LINE
8
BLACK
6
CONTINUOUS
10
2.15915
20
-0.893408
11
2.15984
21
-0.895079
0
LINE
8
BLACK
6
CONTINUOUS
10
2.15984
20
-0.895079
11
2.15915
21
-0.896749
0
LINE
8
BLACK
6
CONTINUOUS
10
2.15915
20
-0.896749
11
2.15748
21
-0.897441
0
LINE
8
BLACK
6
CONTINUOUS
10
2.15748
20
-0.897441
11
2.06752
21
-0.897441
0
LINE
8
BLACK
6
CONTINUOUS
10
2.06752
20
-0.897441
11
2.06585
21
-0.896749
0
LINE
8
BLACK
6
CONTINUOUS
10
2.06585
20
-0.896749
11
2.06516
21
-0.895079
0
LINE
8
BLACK
6
CONTINUOUS
10
2.06516
20
-0.895079
11
2.06516
21
-0.837205
0
LINE
8
BLACK
6
CONTINUOUS
10
2.06516
20
-0.837205
11
2.06585
21
-0.835534
0
LINE
8
BLACK
6
CONTINUOUS
10
2.06585
20
-0.835534
11
2.06752
21
-0.834843
0
LINE
8
BLACK
6
CONTINUOUS
10
2.06752
20
-0.834843
11
2.15748
21
-0.834843
0
LINE
8
BLACK
6
CONTINUOUS
10
2.15748
20
-0.834843
11
2.15915
21
-0.835534
0
LINE
8
BLACK
6
CONTINUOUS
10
2.15952
20
-0.785057
11
2.15965
21
-0.785034
0
LINE
8
BLACK
6
CONTINUOUS
10
2.15965
20
-0.785034
11
2.15977
21
-0.7851
0
LINE
8
BLACK
6
CONTINUOUS
10
2.15977
20
-0.7851
11
2.16016
21
-0.785169
0
LINE
8
BLACK
6
CONTINUOUS
10
2.16016
20
-0.785169
11
2.16076
21
-0.78567
0
LINE
8
BLACK
6
CONTINUOUS
10
2.16076
20
-0.78567
11
2.16143
21
-0.78606
0
LINE
8
BLACK
6
CONTINUOUS
10
2.16143
20
-0.78606
11
2.16152
21
-0.786314
0
LINE
8
BLACK
6
CONTINUOUS
10
2.16152
20
-0.786314
11
2.16173
21
-0.786488
0
LINE
8
BLACK
6
CONTINUOUS
10
2.16173
20
-0.786488
11
2.16187
21
-0.787256
0
LINE
8
BLACK
6
CONTINUOUS
10
2.16187
20
-0.787256
11
2.16213
21
-0.787988
0
LINE
8
BLACK
6
CONTINUOUS
10
2.16213
20
-0.787988
11
2.16213
21
-0.819988
0
LINE
8
BLACK
6
CONTINUOUS
10
2.16213
20
-0.819988
11
2.16206
21
-0.820378
0
LINE
8
BLACK
6
CONTINUOUS
10
2.16206
20
-0.820378
11
2.16209
21
-0.820509
0
LINE
8
BLACK
6
CONTINUOUS
10
2.16209
20
-0.820509
11
2.16202
21
-0.820624
0
LINE
8
BLACK
6
CONTINUOUS
10
2.16202
20
-0.820624
11
2.16195
21
-0.821014
0
LINE
8
BLACK
6
CONTINUOUS
10
2.16195
20
-0.821014
11
2.16145
21
-0.821611
0
LINE
8
BLACK
6
CONTINUOUS
10
2.16145
20
-0.821611
11
2.16106
21
-0.822286
0
LINE
8
BLACK
6
CONTINUOUS
10
2.16106
20
-0.822286
11
2.16081
21
-0.822379
0
LINE
8
BLACK
6
CONTINUOUS
10
2.16081
20
-0.822379
11
2.16063
21
-0.822586
0
LINE
8
BLACK
6
CONTINUOUS
10
2.16063
20
-0.822586
11
2.15987
21
-0.822721
0
LINE
8
BLACK
6
CONTINUOUS
10
2.15987
20
-0.822721
11
2.15913
21
-0.822988
0
LINE
8
BLACK
6
CONTINUOUS
10
2.15913
20
-0.822988
11
2.15151
21
-0.822988
0
LINE
8
BLACK
6
CONTINUOUS
10
2.15151
20
-0.822988
11
2.15063
21
-0.822832
0
LINE
8
BLACK
6
CONTINUOUS
10
2.15063
20
-0.822832
11
2.15056
21
-0.822834
0
LINE
8
BLACK
6
CONTINUOUS
10
2.15056
20
-0.822834
11
2.14599
21
-0.82131
0
LINE
8
BLACK
6
CONTINUOUS
10
2.14599
20
-0.82131
11
2.14508
21
-0.820814
0
LINE
8
BLACK
6
CONTINUOUS
10
2.14508
20
-0.820814
11
2.14498
21
-0.820661
0
LINE
8
BLACK
6
CONTINUOUS
10
2.14498
20
-0.820661
11
2.14482
21
-0.820585
0
LINE
8
BLACK
6
CONTINUOUS
10
2.14482
20
-0.820585
11
2.14177
21
-0.817538
0
LINE
8
BLACK
6
CONTINUOUS
10
2.14177
20
-0.817538
11
2.14126
21
-0.816803
0
LINE
8
BLACK
6
CONTINUOUS
10
2.14126
20
-0.816803
11
2.14121
21
-0.816758
0
LINE
8
BLACK
6
CONTINUOUS
10
2.14121
20
-0.816758
11
2.13969
21
-0.813711
0
LINE
8
BLACK
6
CONTINUOUS
10
2.13969
20
-0.813711
11
2.13954
21
-0.813214
0
LINE
8
BLACK
6
CONTINUOUS
10
2.13954
20
-0.813214
11
2.13946
21
-0.813097
0
LINE
8
BLACK
6
CONTINUOUS
10
2.13946
20
-0.813097
11
2.13794
21
-0.807001
0
LINE
8
BLACK
6
CONTINUOUS
10
2.13794
20
-0.807001
11
2.13789
21
-0.806404
0
LINE
8
BLACK
6
CONTINUOUS
10
2.13789
20
-0.806404
11
2.13785
21
-0.806274
0
LINE
8
BLACK
6
CONTINUOUS
10
2.13785
20
-0.806274
11
2.13785
21
-0.801702
0
LINE
8
BLACK
6
CONTINUOUS
10
2.13785
20
-0.801702
11
2.13795
21
-0.801113
0
LINE
8
BLACK
6
CONTINUOUS
10
2.13795
20
-0.801113
11
2.13794
21
-0.800975
0
LINE
8
BLACK
6
CONTINUOUS
10
2.13794
20
-0.800975
11
2.13946
21
-0.794879
0
LINE
8
BLACK
6
CONTINUOUS
10
2.13946
20
-0.794879
11
2.13967
21
-0.794407
0
LINE
8
BLACK
6
CONTINUOUS
10
2.13967
20
-0.794407
11
2.13969
21
-0.794265
0
LINE
8
BLACK
6
CONTINUOUS
10
2.13969
20
-0.794265
11
2.14121
21
-0.791218
0
LINE
8
BLACK
6
CONTINUOUS
10
2.14121
20
-0.791218
11
2.14175
21
-0.790497
0
LINE
8
BLACK
6
CONTINUOUS
10
2.14175
20
-0.790497
11
2.14177
21
-0.790438
0
LINE
8
BLACK
6
CONTINUOUS
10
2.14177
20
-0.790438
11
2.14482
21
-0.78739
0
LINE
8
BLACK
6
CONTINUOUS
10
2.14482
20
-0.78739
11
2.14567
21
-0.786793
0
LINE
8
BLACK
6
CONTINUOUS
10
2.14567
20
-0.786793
11
2.14585
21
-0.786777
0
LINE
8
BLACK
6
CONTINUOUS
10
2.14585
20
-0.786777
11
2.14599
21
-0.786666
0
LINE
8
BLACK
6
CONTINUOUS
10
2.14599
20
-0.786666
11
2.15056
21
-0.785142
0
LINE
8
BLACK
6
CONTINUOUS
10
2.15056
20
-0.785142
11
2.15145
21
-0.78501
0
LINE
8
BLACK
6
CONTINUOUS
10
2.15145
20
-0.78501
11
2.15151
21
-0.784988
0
LINE
8
BLACK
6
CONTINUOUS
10
2.15151
20
-0.784988
11
2.15913
21
-0.784988
0
LINE
8
BLACK
6
CONTINUOUS
10
2.15913
20
-0.784988
11
2.15952
21
-0.785057
0
LINE
8
BLACK
6
CONTINUOUS
10
2.152
20
-0.790988
11
2.14856
21
-0.792134
0
LINE
8
BLACK
6
CONTINUOUS
10
2.14856
20
-0.792134
11
2.14636
21
-0.794336
0
LINE
8
BLACK
6
CONTINUOUS
10
2.14636
20
-0.794336
11
2.1452
21
-0.796654
0
LINE
8
BLACK
6
CONTINUOUS
10
2.1452
20
-0.796654
11
2.14385
21
-0.802072
0
LINE
8
BLACK
6
CONTINUOUS
10
2.14385
20
-0.802072
11
2.14385
21
-0.805904
0
LINE
8
BLACK
6
CONTINUOUS
10
2.14385
20
-0.805904
11
2.1452
21
-0.811322
0
LINE
8
BLACK
6
CONTINUOUS
10
2.1452
20
-0.811322
11
2.14636
21
-0.813639
0
LINE
8
BLACK
6
CONTINUOUS
10
2.14636
20
-0.813639
11
2.14856
21
-0.815842
0
LINE
8
BLACK
6
CONTINUOUS
10
2.14856
20
-0.815842
11
2.152
21
-0.816988
0
LINE
8
BLACK
6
CONTINUOUS
10
2.152
20
-0.816988
11
2.15613
21
-0.816988
0
LINE
8
BLACK
6
CONTINUOUS
10
2.15613
20
-0.816988
11
2.15613
21
-0.790988
0
LINE
8
BLACK
6
CONTINUOUS
10
2.15613
20
-0.790988
11
2.152
21
-0.790988
0
LINE
8
BLACK
6
CONTINUOUS
10
2.45917
20
-0.785169
11
2.4593
21
-0.785284
0
LINE
8
BLACK
6
CONTINUOUS
10
2.4593
20
-0.785284
11
2.45948
21
-0.785305
0
LINE
8
BLACK
6
CONTINUOUS
10
2.45948
20
-0.785305
11
2.46253
21
-0.786829
0
LINE
8
BLACK
6
CONTINUOUS
10
2.46253
20
-0.786829
11
2.46325
21
-0.787363
0
LINE
8
BLACK
6
CONTINUOUS
10
2.46325
20
-0.787363
11
2.46331
21
-0.78739
0
LINE
8
BLACK
6
CONTINUOUS
10
2.46331
20
-0.78739
11
2.46483
21
-0.788914
0
LINE
8
BLACK
6
CONTINUOUS
10
2.46483
20
-0.788914
11
2.46543
21
-0.789768
0
LINE
8
BLACK
6
CONTINUOUS
10
2.46543
20
-0.789768
11
2.46561
21
-0.791812
0
LINE
8
BLACK
6
CONTINUOUS
10
2.46561
20
-0.791812
11
2.46443
21
-0.793493
0
LINE
8
BLACK
6
CONTINUOUS
10
2.46443
20
-0.793493
11
2.46245
21
-0.794024
0
LINE
8
BLACK
6
CONTINUOUS
10
2.46245
20
-0.794024
11
2.46059
21
-0.793157
0
LINE
8
BLACK
6
CONTINUOUS
10
2.46059
20
-0.793157
11
2.45941
21
-0.791977
0
LINE
8
BLACK
6
CONTINUOUS
10
2.45941
20
-0.791977
11
2.45743
21
-0.790988
0
LINE
8
BLACK
6
CONTINUOUS
10
2.45743
20
-0.790988
11
2.45123
21
-0.790988
0
LINE
8
BLACK
6
CONTINUOUS
10
2.45123
20
-0.790988
11
2.44925
21
-0.791977
0
LINE
8
BLACK
6
CONTINUOUS
10
2.44925
20
-0.791977
11
2.44842
21
-0.792813
0
LINE
8
BLACK
6
CONTINUOUS
10
2.44842
20
-0.792813
11
2.44743
21
-0.794791
0
LINE
8
BLACK
6
CONTINUOUS
10
2.44743
20
-0.794791
11
2.44743
21
-0.796644
0
LINE
8
BLACK
6
CONTINUOUS
10
2.44743
20
-0.796644
11
2.44857
21
-0.800082
0
LINE
8
BLACK
6
CONTINUOUS
10
2.44857
20
-0.800082
11
2.46636
21
-0.817867
0
LINE
8
BLACK
6
CONTINUOUS
10
2.46636
20
-0.817867
11
2.46673
21
-0.818403
0
LINE
8
BLACK
6
CONTINUOUS
10
2.46673
20
-0.818403
11
2.46683
21
-0.818488
0
LINE
8
BLACK
6
CONTINUOUS
10
2.46683
20
-0.818488
11
2.46685
21
-0.818568
0
LINE
8
BLACK
6
CONTINUOUS
10
2.46685
20
-0.818568
11
2.46695
21
-0.81872
0
LINE
8
BLACK
6
CONTINUOUS
10
2.46695
20
-0.81872
11
2.46703
21
-0.81962
0
LINE
8
BLACK
6
CONTINUOUS
10
2.46703
20
-0.81962
11
2.46719
21
-0.820509
0
LINE
8
BLACK
6
CONTINUOUS
10
2.46719
20
-0.820509
11
2.46712
21
-0.820628
0
LINE
8
BLACK
6
CONTINUOUS
10
2.46712
20
-0.820628
11
2.46713
21
-0.820764
0
LINE
8
BLACK
6
CONTINUOUS
10
2.46713
20
-0.820764
11
2.46662
21
-0.821504
0
LINE
8
BLACK
6
CONTINUOUS
10
2.46662
20
-0.821504
11
2.46616
21
-0.822286
0
LINE
8
BLACK
6
CONTINUOUS
10
2.46616
20
-0.822286
11
2.46603
21
-0.822333
0
LINE
8
BLACK
6
CONTINUOUS
10
2.46603
20
-0.822333
11
2.46596
21
-0.822445
0
LINE
8
BLACK
6
CONTINUOUS
10
2.46596
20
-0.822445
11
2.46508
21
-0.822679
0
LINE
8
BLACK
6
CONTINUOUS
10
2.46508
20
-0.822679
11
2.46424
21
-0.822988
0
LINE
8
BLACK
6
CONTINUOUS
10
2.46424
20
-0.822988
11
2.44443
21
-0.822988
0
LINE
8
BLACK
6
CONTINUOUS
10
2.44443
20
-0.822988
11
2.4434
21
-0.822807
0
LINE
8
BLACK
6
CONTINUOUS
10
2.4434
20
-0.822807
11
2.44183
21
-0.821488
0
LINE
8
BLACK
6
CONTINUOUS
10
2.44183
20
-0.821488
11
2.44147
21
-0.819467
0
LINE
8
BLACK
6
CONTINUOUS
10
2.44147
20
-0.819467
11
2.4425
21
-0.81769
0
LINE
8
BLACK
6
CONTINUOUS
10
2.4425
20
-0.81769
11
2.44443
21
-0.816988
0
LINE
8
BLACK
6
CONTINUOUS
10
2.44443
20
-0.816988
11
2.45699
21
-0.816988
0
LINE
8
BLACK
6
CONTINUOUS
10
2.45699
20
-0.816988
11
2.44383
21
-0.803824
0
LINE
8
BLACK
6
CONTINUOUS
10
2.44383
20
-0.803824
11
2.44323
21
-0.80297
0
LINE
8
BLACK
6
CONTINUOUS
10
2.44323
20
-0.80297
11
2.44322
21
-0.802791
0
LINE
8
BLACK
6
CONTINUOUS
10
2.44322
20
-0.802791
11
2.4431
21
-0.802651
0
LINE
8
BLACK
6
CONTINUOUS
10
2.4431
20
-0.802651
11
2.44158
21
-0.798079
0
LINE
8
BLACK
6
CONTINUOUS
10
2.44158
20
-0.798079
11
2.44145
21
-0.797192
0
LINE
8
BLACK
6
CONTINUOUS
10
2.44145
20
-0.797192
11
2.44143
21
-0.797131
0
LINE
8
BLACK
6
CONTINUOUS
10
2.44143
20
-0.797131
11
2.44143
21
-0.794083
0
LINE
8
BLACK
6
CONTINUOUS
10
2.44143
20
-0.794083
11
2.44161
21
-0.793057
0
LINE
8
BLACK
6
CONTINUOUS
10
2.44161
20
-0.793057
11
2.44172
21
-0.79292
0
LINE
8
BLACK
6
CONTINUOUS
10
2.44172
20
-0.79292
11
2.44174
21
-0.792742
0
LINE
8
BLACK
6
CONTINUOUS
10
2.44174
20
-0.792742
11
2.44327
21
-0.789694
0
LINE
8
BLACK
6
CONTINUOUS
10
2.44327
20
-0.789694
11
2.4438
21
-0.788973
0
LINE
8
BLACK
6
CONTINUOUS
10
2.4438
20
-0.788973
11
2.44383
21
-0.788914
0
LINE
8
BLACK
6
CONTINUOUS
10
2.44383
20
-0.788914
11
2.44535
21
-0.78739
0
LINE
8
BLACK
6
CONTINUOUS
10
2.44535
20
-0.78739
11
2.44609
21
-0.786876
0
LINE
8
BLACK
6
CONTINUOUS
10
2.44609
20
-0.786876
11
2.44613
21
-0.786829
0
LINE
8
BLACK
6
CONTINUOUS
10
2.44613
20
-0.786829
11
2.44918
21
-0.785305
0
LINE
8
BLACK
6
CONTINUOUS
10
2.44918
20
-0.785305
11
2.45018
21
-0.785008
0
LINE
8
BLACK
6
CONTINUOUS
10
2.45018
20
-0.785008
11
2.45035
21
-0.785049
0
LINE
8
BLACK
6
CONTINUOUS
10
2.45035
20
-0.785049
11
2.45052
21
-0.784988
0
LINE
8
BLACK
6
CONTINUOUS
10
2.45052
20
-0.784988
11
2.45814
21
-0.784988
0
LINE
8
BLACK
6
CONTINUOUS
10
2.45814
20
-0.784988
11
2.45917
21
-0.785169
0
LINE
8
BLACK
6
CONTINUOUS
10
2.42564
20
-0.785169
11
2.42578
21
-0.785284
0
LINE
8
BLACK
6
CONTINUOUS
10
2.42578
20
-0.785284
11
2.42596
21
-0.785305
0
LINE
8
BLACK
6
CONTINUOUS
10
2.42596
20
-0.785305
11
2.42901
21
-0.786829
0
LINE
8
BLACK
6
CONTINUOUS
10
2.42901
20
-0.786829
11
2.42973
21
-0.787363
0
LINE
8
BLACK
6
CONTINUOUS
10
2.42973
20
-0.787363
11
2.42979
21
-0.78739
0
LINE
8
BLACK
6
CONTINUOUS
10
2.42979
20
-0.78739
11
2.43131
21
-0.788914
0
LINE
8
BLACK
6
CONTINUOUS
10
2.43131
20
-0.788914
11
2.43182
21
-0.789649
0
LINE
8
BLACK
6
CONTINUOUS
10
2.43182
20
-0.789649
11
2.43187
21
-0.789694
0
LINE
8
BLACK
6
CONTINUOUS
10
2.43187
20
-0.789694
11
2.43339
21
-0.792742
0
LINE
8
BLACK
6
CONTINUOUS
10
2.43339
20
-0.792742
11
2.43354
21
-0.793238
0
LINE
8
BLACK
6
CONTINUOUS
10
2.43354
20
-0.793238
11
2.43362
21
-0.793356
0
LINE
8
BLACK
6
CONTINUOUS
10
2.43362
20
-0.793356
11
2.43515
21
-0.799451
0
LINE
8
BLACK
6
CONTINUOUS
10
2.43515
20
-0.799451
11
2.43519
21
-0.800048
0
LINE
8
BLACK
6
CONTINUOUS
10
2.43519
20
-0.800048
11
2.43524
21
-0.800178
0
LINE
8
BLACK
6
CONTINUOUS
10
2.43524
20
-0.800178
11
2.43524
21
-0.807798
0
LINE
8
BLACK
6
CONTINUOUS
10
2.43524
20
-0.807798
11
2.43513
21
-0.808387
0
LINE
8
BLACK
6
CONTINUOUS
10
2.43513
20
-0.808387
11
2.43515
21
-0.808525
0
LINE
8
BLACK
6
CONTINUOUS
10
2.43515
20
-0.808525
11
2.43362
21
-0.81462
0
LINE
8
BLACK
6
CONTINUOUS
10
2.43362
20
-0.81462
11
2.43341
21
-0.815093
0
LINE
8
BLACK
6
CONTINUOUS
10
2.43341
20
-0.815093
11
2.43339
21
-0.815234
0
LINE
8
BLACK
6
CONTINUOUS
10
2.43339
20
-0.815234
11
2.43187
21
-0.818282
0
LINE
8
BLACK
6
CONTINUOUS
10
2.43187
20
-0.818282
11
2.43134
21
-0.819002
0
LINE
8
BLACK
6
CONTINUOUS
10
2.43134
20
-0.819002
11
2.43131
21
-0.819062
0
LINE
8
BLACK
6
CONTINUOUS
10
2.43131
20
-0.819062
11
2.42979
21
-0.820586
0
LINE
8
BLACK
6
CONTINUOUS
10
2.42979
20
-0.820586
11
2.42905
21
-0.8211
0
LINE
8
BLACK
6
CONTINUOUS
10
2.42905
20
-0.8211
11
2.42901
21
-0.821147
0
LINE
8
BLACK
6
CONTINUOUS
10
2.42901
20
-0.821147
11
2.42596
21
-0.822671
0
LINE
8
BLACK
6
CONTINUOUS
10
2.42596
20
-0.822671
11
2.42496
21
-0.822968
0
LINE
8
BLACK
6
CONTINUOUS
10
2.42496
20
-0.822968
11
2.42478
21
-0.822927
0
LINE
8
BLACK
6
CONTINUOUS
10
2.42478
20
-0.822927
11
2.42462
21
-0.822988
0
LINE
8
BLACK
6
CONTINUOUS
10
2.42462
20
-0.822988
11
2.42157
21
-0.822988
0
LINE
8
BLACK
6
CONTINUOUS
10
2.42157
20
-0.822988
11
2.42054
21
-0.822807
0
LINE
8
BLACK
6
CONTINUOUS
10
2.42054
20
-0.822807
11
2.42041
21
-0.822692
0
LINE
8
BLACK
6
CONTINUOUS
10
2.42041
20
-0.822692
11
2.42023
21
-0.822671
0
LINE
8
BLACK
6
CONTINUOUS
10
2.42023
20
-0.822671
11
2.41718
21
-0.821147
0
LINE
8
BLACK
6
CONTINUOUS
10
2.41718
20
-0.821147
11
2.41646
21
-0.820613
0
LINE
8
BLACK
6
CONTINUOUS
10
2.41646
20
-0.820613
11
2.4164
21
-0.820585
0
LINE
8
BLACK
6
CONTINUOUS
10
2.4164
20
-0.820585
11
2.41488
21
-0.819062
0
LINE
8
BLACK
6
CONTINUOUS
10
2.41488
20
-0.819062
11
2.41436
21
-0.818327
0
LINE
8
BLACK
6
CONTINUOUS
10
2.41436
20
-0.818327
11
2.41431
21
-0.818282
0
LINE
8
BLACK
6
CONTINUOUS
10
2.41431
20
-0.818282
11
2.41279
21
-0.815234
0
LINE
8
BLACK
6
CONTINUOUS
10
2.41279
20
-0.815234
11
2.41264
21
-0.814738
0
LINE
8
BLACK
6
CONTINUOUS
10
2.41264
20
-0.814738
11
2.41256
21
-0.81462
0
LINE
8
BLACK
6
CONTINUOUS
10
2.41256
20
-0.81462
11
2.41104
21
-0.808525
0
LINE
8
BLACK
6
CONTINUOUS
10
2.41104
20
-0.808525
11
2.411
21
-0.807928
0
LINE
8
BLACK
6
CONTINUOUS
10
2.411
20
-0.807928
11
2.41095
21
-0.807798
0
LINE
8
BLACK
6
CONTINUOUS
10
2.41095
20
-0.807798
11
2.41095
21
-0.800178
0
LINE
8
BLACK
6
CONTINUOUS
10
2.41095
20
-0.800178
11
2.41105
21
-0.799589
0
LINE
8
BLACK
6
CONTINUOUS
10
2.41105
20
-0.799589
11
2.41104
21
-0.799451
0
LINE
8
BLACK
6
CONTINUOUS
10
2.41104
20
-0.799451
11
2.41256
21
-0.793356
0
LINE
8
BLACK
6
CONTINUOUS
10
2.41256
20
-0.793356
11
2.41277
21
-0.792883
0
LINE
8
BLACK
6
CONTINUOUS
10
2.41277
20
-0.792883
11
2.41279
21
-0.792742
0
LINE
8
BLACK
6
CONTINUOUS
10
2.41279
20
-0.792742
11
2.41431
21
-0.789694
0
LINE
8
BLACK
6
CONTINUOUS
10
2.41431
20
-0.789694
11
2.41485
21
-0.788974
0
LINE
8
BLACK
6
CONTINUOUS
10
2.41485
20
-0.788974
11
2.41488
21
-0.788914
0
LINE
8
BLACK
6
CONTINUOUS
10
2.41488
20
-0.788914
11
2.4164
21
-0.78739
0
LINE
8
BLACK
6
CONTINUOUS
10
2.4164
20
-0.78739
11
2.41713
21
-0.786876
0
LINE
8
BLACK
6
CONTINUOUS
10
2.41713
20
-0.786876
11
2.41718
21
-0.786829
0
LINE
8
BLACK
6
CONTINUOUS
10
2.41718
20
-0.786829
11
2.42023
21
-0.785305
0
LINE
8
BLACK
6
CONTINUOUS
10
2.42023
20
-0.785305
11
2.42123
21
-0.785008
0
LINE
8
BLACK
6
CONTINUOUS
10
2.42123
20
-0.785008
11
2.4214
21
-0.785049
0
LINE
8
BLACK
6
CONTINUOUS
10
2.4214
20
-0.785049
11
2.42157
21
-0.784988
0
LINE
8
BLACK
6
CONTINUOUS
10
2.42157
20
-0.784988
11
2.42462
21
-0.784988
0
LINE
8
BLACK
6
CONTINUOUS
10
2.42462
20
-0.784988
11
2.42564
21
-0.785169
0
LINE
8
BLACK
6
CONTINUOUS
10
2.42228
20
-0.790988
11
2.4203
21
-0.791977
0
LINE
8
BLACK
6
CONTINUOUS
10
2.4203
20
-0.791977
11
2.41946
21
-0.792813
0
LINE
8
BLACK
6
CONTINUOUS
10
2.41946
20
-0.792813
11
2.4183
21
-0.79513
0
LINE
8
BLACK
6
CONTINUOUS
10
2.4183
20
-0.79513
11
2.41695
21
-0.800548
0
LINE
8
BLACK
6
CONTINUOUS
10
2.41695
20
-0.800548
11
2.41695
21
-0.807428
0
LINE
8
BLACK
6
CONTINUOUS
10
2.41695
20
-0.807428
11
2.4183
21
-0.812846
0
LINE
8
BLACK
6
CONTINUOUS
10
2.4183
20
-0.812846
11
2.41946
21
-0.815163
0
LINE
8
BLACK
6
CONTINUOUS
10
2.41946
20
-0.815163
11
2.4203
21
-0.815999
0
LINE
8
BLACK
6
CONTINUOUS
10
2.4203
20
-0.815999
11
2.42228
21
-0.816988
0
LINE
8
BLACK
6
CONTINUOUS
10
2.42228
20
-0.816988
11
2.42391
21
-0.816988
0
LINE
8
BLACK
6
CONTINUOUS
10
2.42391
20
-0.816988
11
2.42589
21
-0.815999
0
LINE
8
BLACK
6
CONTINUOUS
10
2.42589
20
-0.815999
11
2.42672
21
-0.815163
0
LINE
8
BLACK
6
CONTINUOUS
10
2.42672
20
-0.815163
11
2.42788
21
-0.812846
0
LINE
8
BLACK
6
CONTINUOUS
10
2.42788
20
-0.812846
11
2.42924
21
-0.807428
0
LINE
8
BLACK
6
CONTINUOUS
10
2.42924
20
-0.807428
11
2.42924
21
-0.800548
0
LINE
8
BLACK
6
CONTINUOUS
10
2.42924
20
-0.800548
11
2.42788
21
-0.79513
0
LINE
8
BLACK
6
CONTINUOUS
10
2.42788
20
-0.79513
11
2.42672
21
-0.792813
0
LINE
8
BLACK
6
CONTINUOUS
10
2.42672
20
-0.792813
11
2.42589
21
-0.791977
0
LINE
8
BLACK
6
CONTINUOUS
10
2.42589
20
-0.791977
11
2.42391
21
-0.790988
0
LINE
8
BLACK
6
CONTINUOUS
10
2.42391
20
-0.790988
11
2.42228
21
-0.790988
0
LINE
8
BLACK
6
CONTINUOUS
10
2.49358
20
-0.785057
11
2.49371
21
-0.785034
0
LINE
8
BLACK
6
CONTINUOUS
10
2.49371
20
-0.785034
11
2.49382
21
-0.7851
0
LINE
8
BLACK
6
CONTINUOUS
10
2.49382
20
-0.7851
11
2.49421
21
-0.785169
0
LINE
8
BLACK
6
CONTINUOUS
10
2.49421
20
-0.785169
11
2.49481
21
-0.78567
0
LINE
8
BLACK
6
CONTINUOUS
10
2.49481
20
-0.78567
11
2.49549
21
-0.78606
0
LINE
8
BLACK
6
CONTINUOUS
10
2.49549
20
-0.78606
11
2.49558
21
-0.786314
0
LINE
8
BLACK
6
CONTINUOUS
10
2.49558
20
-0.786314
11
2.49579
21
-0.786488
0
LINE
8
BLACK
6
CONTINUOUS
10
2.49579
20
-0.786488
11
2.49592
21
-0.787256
0
LINE
8
BLACK
6
CONTINUOUS
10
2.49592
20
-0.787256
11
2.49619
21
-0.787988
0
LINE
8
BLACK
6
CONTINUOUS
10
2.49619
20
-0.787988
11
2.49619
21
-0.819988
0
LINE
8
BLACK
6
CONTINUOUS
10
2.49619
20
-0.819988
11
2.49612
21
-0.820378
0
LINE
8
BLACK
6
CONTINUOUS
10
2.49612
20
-0.820378
11
2.49614
21
-0.820509
0
LINE
8
BLACK
6
CONTINUOUS
10
2.49614
20
-0.820509
11
2.49608
21
-0.820624
0
LINE
8
BLACK
6
CONTINUOUS
10
2.49608
20
-0.820624
11
2.49601
21
-0.821014
0
LINE
8
BLACK
6
CONTINUOUS
10
2.49601
20
-0.821014
11
2.49551
21
-0.821611
0
LINE
8
BLACK
6
CONTINUOUS
10
2.49551
20
-0.821611
11
2.49512
21
-0.822286
0
LINE
8
BLACK
6
CONTINUOUS
10
2.49512
20
-0.822286
11
2.49486
21
-0.822379
0
LINE
8
BLACK
6
CONTINUOUS
10
2.49486
20
-0.822379
11
2.49469
21
-0.822586
0
LINE
8
BLACK
6
CONTINUOUS
10
2.49469
20
-0.822586
11
2.49392
21
-0.822721
0
LINE
8
BLACK
6
CONTINUOUS
10
2.49392
20
-0.822721
11
2.49319
21
-0.822988
0
LINE
8
BLACK
6
CONTINUOUS
10
2.49319
20
-0.822988
11
2.48557
21
-0.822988
0
LINE
8
BLACK
6
CONTINUOUS
10
2.48557
20
-0.822988
11
2.48469
21
-0.822832
0
LINE
8
BLACK
6
CONTINUOUS
10
2.48469
20
-0.822832
11
2.48462
21
-0.822834
0
LINE
8
BLACK
6
CONTINUOUS
10
2.48462
20
-0.822834
11
2.48005
21
-0.82131
0
LINE
8
BLACK
6
CONTINUOUS
10
2.48005
20
-0.82131
11
2.47913
21
-0.820814
0
LINE
8
BLACK
6
CONTINUOUS
10
2.47913
20
-0.820814
11
2.47904
21
-0.820661
0
LINE
8
BLACK
6
CONTINUOUS
10
2.47904
20
-0.820661
11
2.47888
21
-0.820585
0
LINE
8
BLACK
6
CONTINUOUS
10
2.47888
20
-0.820585
11
2.47583
21
-0.817538
0
LINE
8
BLACK
6
CONTINUOUS
10
2.47583
20
-0.817538
11
2.47531
21
-0.816803
0
LINE
8
BLACK
6
CONTINUOUS
10
2.47531
20
-0.816803
11
2.47527
21
-0.816758
0
LINE
8
BLACK
6
CONTINUOUS
10
2.47527
20
-0.816758
11
2.47374
21
-0.813711
0
LINE
8
BLACK
6
CONTINUOUS
10
2.47374
20
-0.813711
11
2.47359
21
-0.813214
0
LINE
8
BLACK
6
CONTINUOUS
10
2.47359
20
-0.813214
11
2.47352
21
-0.813097
0
LINE
8
BLACK
6
CONTINUOUS
10
2.47352
20
-0.813097
11
2.47199
21
-0.807001
0
LINE
8
BLACK
6
CONTINUOUS
10
2.47199
20
-0.807001
11
2.47195
21
-0.806404
0
LINE
8
BLACK
6
CONTINUOUS
10
2.47195
20
-0.806404
11
2.4719
21
-0.806274
0
LINE
8
BLACK
6
CONTINUOUS
10
2.4719
20
-0.806274
11
2.4719
21
-0.801702
0
LINE
8
BLACK
6
CONTINUOUS
10
2.4719
20
-0.801702
11
2.47201
21
-0.801113
0
LINE
8
BLACK
6
CONTINUOUS
10
2.47201
20
-0.801113
11
2.47199
21
-0.800975
0
LINE
8
BLACK
6
CONTINUOUS
10
2.47199
20
-0.800975
11
2.47352
21
-0.794879
0
LINE
8
BLACK
6
CONTINUOUS
10
2.47352
20
-0.794879
11
2.47373
21
-0.794407
0
LINE
8
BLACK
6
CONTINUOUS
10
2.47373
20
-0.794407
11
2.47374
21
-0.794265
0
LINE
8
BLACK
6
CONTINUOUS
10
2.47374
20
-0.794265
11
2.47527
21
-0.791218
0
LINE
8
BLACK
6
CONTINUOUS
10
2.47527
20
-0.791218
11
2.4758
21
-0.790497
0
LINE
8
BLACK
6
CONTINUOUS
10
2.4758
20
-0.790497
11
2.47583
21
-0.790438
0
LINE
8
BLACK
6
CONTINUOUS
10
2.47583
20
-0.790438
11
2.47888
21
-0.78739
0
LINE
8
BLACK
6
CONTINUOUS
10
2.47888
20
-0.78739
11
2.47973
21
-0.786793
0
LINE
8
BLACK
6
CONTINUOUS
10
2.47973
20
-0.786793
11
2.47991
21
-0.786777
0
LINE
8
BLACK
6
CONTINUOUS
10
2.47991
20
-0.786777
11
2.48005
21
-0.786666
0
LINE
8
BLACK
6
CONTINUOUS
10
2.48005
20
-0.786666
11
2.48462
21
-0.785142
0
LINE
8
BLACK
6
CONTINUOUS
10
2.48462
20
-0.785142
11
2.48551
21
-0.78501
0
LINE
8
BLACK
6
CONTINUOUS
10
2.48551
20
-0.78501
11
2.48557
21
-0.784988
0
LINE
8
BLACK
6
CONTINUOUS
10
2.48557
20
-0.784988
11
2.49319
21
-0.784988
0
LINE
8
BLACK
6
CONTINUOUS
10
2.49319
20
-0.784988
11
2.49358
21
-0.785057
0
LINE
8
BLACK
6
CONTINUOUS
10
2.48606
20
-0.790988
11
2.48262
21
-0.792134
0
LINE
8
BLACK
6
CONTINUOUS
10
2.48262
20
-0.792134
11
2.48042
21
-0.794336
0
LINE
8
BLACK
6
CONTINUOUS
10
2.48042
20
-0.794336
11
2.47926
21
-0.796654
0
LINE
8
BLACK
6
CONTINUOUS
10
2.47926
20
-0.796654
11
2.4779
21
-0.802072
0
LINE
8
BLACK
6
CONTINUOUS
10
2.4779
20
-0.802072
11
2.4779
21
-0.805904
0
LINE
8
BLACK
6
CONTINUOUS
10
2.4779
20
-0.805904
11
2.47926
21
-0.811322
0
LINE
8
BLACK
6
CONTINUOUS
10
2.47926
20
-0.811322
11
2.48042
21
-0.813639
0
LINE
8
BLACK
6
CONTINUOUS
10
2.48042
20
-0.813639
11
2.48262
21
-0.815842
0
LINE
8
BLACK
6
CONTINUOUS
10
2.48262
20
-0.815842
11
2.48606
21
-0.816988
0
LINE
8
BLACK
6
CONTINUOUS
10
2.48606
20
-0.816988
11
2.49019
21
-0.816988
0
LINE
8
BLACK
6
CONTINUOUS
10
2.49019
20
-0.816988
11
2.49019
21
-0.790988
0
LINE
8
BLACK
6
CONTINUOUS
10
2.49019
20
-0.790988
11
2.48606
21
-0.790988
0
LINE
8
BLACK
6
CONTINUOUS
10
2.12018
20
-0.78512
11
2.12036
21
-0.785109
0
LINE
8
BLACK
6
CONTINUOUS
10
2.12036
20
-0.785109
11
2.12106
21
-0.785624
0
LINE
8
BLACK
6
CONTINUOUS
10
2.12106
20
-0.785624
11
2.12181
21
-0.78606
0
LINE
8
BLACK
6
CONTINUOUS
10
2.12181
20
-0.78606
11
2.12187
21
-0.786222
0
LINE
8
BLACK
6
CONTINUOUS
10
2.12187
20
-0.786222
11
2.12201
21
-0.786324
0
LINE
8
BLACK
6
CONTINUOUS
10
2.12201
20
-0.786324
11
2.12489
21
-0.790648
0
LINE
8
BLACK
6
CONTINUOUS
10
2.12489
20
-0.790648
11
2.12739
21
-0.793141
0
LINE
8
BLACK
6
CONTINUOUS
10
2.12739
20
-0.793141
11
2.13
21
-0.794448
0
LINE
8
BLACK
6
CONTINUOUS
10
2.13
20
-0.794448
11
2.13083
21
-0.795068
0
LINE
8
BLACK
6
CONTINUOUS
10
2.13083
20
-0.795068
11
2.13165
21
-0.796951
0
LINE
8
BLACK
6
CONTINUOUS
10
2.13165
20
-0.796951
11
2.13107
21
-0.798918
0
LINE
8
BLACK
6
CONTINUOUS
10
2.13107
20
-0.798918
11
2.12935
21
-0.800049
0
LINE
8
BLACK
6
CONTINUOUS
10
2.12935
20
-0.800049
11
2.12731
21
-0.799814
0
LINE
8
BLACK
6
CONTINUOUS
10
2.12731
20
-0.799814
11
2.12427
21
-0.79829
0
LINE
8
BLACK
6
CONTINUOUS
10
2.12427
20
-0.79829
11
2.12355
21
-0.797756
0
LINE
8
BLACK
6
CONTINUOUS
10
2.12355
20
-0.797756
11
2.12349
21
-0.797728
0
LINE
8
BLACK
6
CONTINUOUS
10
2.12349
20
-0.797728
11
2.12251
21
-0.796754
0
LINE
8
BLACK
6
CONTINUOUS
10
2.12251
20
-0.796754
11
2.12251
21
-0.816988
0
LINE
8
BLACK
6
CONTINUOUS
10
2.12251
20
-0.816988
11
2.12866
21
-0.816988
0
LINE
8
BLACK
6
CONTINUOUS
10
2.12866
20
-0.816988
11
2.12968
21
-0.817169
0
LINE
8
BLACK
6
CONTINUOUS
10
2.12968
20
-0.817169
11
2.13125
21
-0.818488
0
LINE
8
BLACK
6
CONTINUOUS
10
2.13125
20
-0.818488
11
2.13161
21
-0.820509
0
LINE
8
BLACK
6
CONTINUOUS
10
2.13161
20
-0.820509
11
2.13058
21
-0.822286
0
LINE
8
BLACK
6
CONTINUOUS
10
2.13058
20
-0.822286
11
2.12866
21
-0.822988
0
LINE
8
BLACK
6
CONTINUOUS
10
2.12866
20
-0.822988
11
2.11037
21
-0.822988
0
LINE
8
BLACK
6
CONTINUOUS
10
2.11037
20
-0.822988
11
2.10934
21
-0.822807
0
LINE
8
BLACK
6
CONTINUOUS
10
2.10934
20
-0.822807
11
2.10777
21
-0.821488
0
LINE
8
BLACK
6
CONTINUOUS
10
2.10777
20
-0.821488
11
2.10742
21
-0.819467
0
LINE
8
BLACK
6
CONTINUOUS
10
2.10742
20
-0.819467
11
2.10844
21
-0.81769
0
LINE
8
BLACK
6
CONTINUOUS
10
2.10844
20
-0.81769
11
2.11037
21
-0.816988
0
LINE
8
BLACK
6
CONTINUOUS
10
2.11037
20
-0.816988
11
2.11651
21
-0.816988
0
LINE
8
BLACK
6
CONTINUOUS
10
2.11651
20
-0.816988
11
2.11651
21
-0.787988
0
LINE
8
BLACK
6
CONTINUOUS
10
2.11651
20
-0.787988
11
2.11669
21
-0.786962
0
LINE
8
BLACK
6
CONTINUOUS
10
2.11669
20
-0.786962
11
2.11681
21
-0.78683
0
LINE
8
BLACK
6
CONTINUOUS
10
2.11681
20
-0.78683
11
2.11682
21
-0.786658
0
LINE
8
BLACK
6
CONTINUOUS
10
2.11682
20
-0.786658
11
2.11745
21
-0.786057
0
LINE
8
BLACK
6
CONTINUOUS
10
2.11745
20
-0.786057
11
2.11801
21
-0.78539
0
LINE
8
BLACK
6
CONTINUOUS
10
2.11801
20
-0.78539
11
2.11818
21
-0.78536
0
LINE
8
BLACK
6
CONTINUOUS
10
2.11818
20
-0.78536
11
2.11831
21
-0.785241
0
LINE
8
BLACK
6
CONTINUOUS
10
2.11831
20
-0.785241
11
2.11918
21
-0.785185
0
LINE
8
BLACK
6
CONTINUOUS
10
2.11918
20
-0.785185
11
2.12003
21
-0.785034
0
LINE
8
BLACK
6
CONTINUOUS
10
2.12003
20
-0.785034
11
2.12018
21
-0.78512
0
LINE
8
BLACK
6
CONTINUOUS
10
1.80905
20
-0.785057
11
1.80918
21
-0.785034
0
LINE
8
BLACK
6
CONTINUOUS
10
1.80918
20
-0.785034
11
1.80929
21
-0.7851
0
LINE
8
BLACK
6
CONTINUOUS
10
1.80929
20
-0.7851
11
1.80968
21
-0.785169
0
LINE
8
BLACK
6
CONTINUOUS
10
1.80968
20
-0.785169
11
1.81028
21
-0.78567
0
LINE
8
BLACK
6
CONTINUOUS
10
1.81028
20
-0.78567
11
1.81096
21
-0.78606
0
LINE
8
BLACK
6
CONTINUOUS
10
1.81096
20
-0.78606
11
1.81105
21
-0.786314
0
LINE
8
BLACK
6
CONTINUOUS
10
1.81105
20
-0.786314
11
1.81126
21
-0.786488
0
LINE
8
BLACK
6
CONTINUOUS
10
1.81126
20
-0.786488
11
1.81139
21
-0.787256
0
LINE
8
BLACK
6
CONTINUOUS
10
1.81139
20
-0.787256
11
1.81166
21
-0.787988
0
LINE
8
BLACK
6
CONTINUOUS
10
1.81166
20
-0.787988
11
1.81166
21
-0.819988
0
LINE
8
BLACK
6
CONTINUOUS
10
1.81166
20
-0.819988
11
1.81159
21
-0.820378
0
LINE
8
BLACK
6
CONTINUOUS
10
1.81159
20
-0.820378
11
1.81161
21
-0.820509
0
LINE
8
BLACK
6
CONTINUOUS
10
1.81161
20
-0.820509
11
1.81155
21
-0.820624
0
LINE
8
BLACK
6
CONTINUOUS
10
1.81155
20
-0.820624
11
1.81148
21
-0.821014
0
LINE
8
BLACK
6
CONTINUOUS
10
1.81148
20
-0.821014
11
1.81098
21
-0.821611
0
LINE
8
BLACK
6
CONTINUOUS
10
1.81098
20
-0.821611
11
1.81059
21
-0.822286
0
LINE
8
BLACK
6
CONTINUOUS
10
1.81059
20
-0.822286
11
1.81033
21
-0.822379
0
LINE
8
BLACK
6
CONTINUOUS
10
1.81033
20
-0.822379
11
1.81016
21
-0.822586
0
LINE
8
BLACK
6
CONTINUOUS
10
1.81016
20
-0.822586
11
1.80939
21
-0.822721
0
LINE
8
BLACK
6
CONTINUOUS
10
1.80939
20
-0.822721
11
1.80866
21
-0.822988
0
LINE
8
BLACK
6
CONTINUOUS
10
1.80866
20
-0.822988
11
1.80104
21
-0.822988
0
LINE
8
BLACK
6
CONTINUOUS
10
1.80104
20
-0.822988
11
1.80016
21
-0.822832
0
LINE
8
BLACK
6
CONTINUOUS
10
1.80016
20
-0.822832
11
1.80009
21
-0.822834
0
LINE
8
BLACK
6
CONTINUOUS
10
1.80009
20
-0.822834
11
1.79552
21
-0.82131
0
LINE
8
BLACK
6
CONTINUOUS
10
1.79552
20
-0.82131
11
1.7946
21
-0.820814
0
LINE
8
BLACK
6
CONTINUOUS
10
1.7946
20
-0.820814
11
1.79451
21
-0.820661
0
LINE
8
BLACK
6
CONTINUOUS
10
1.79451
20
-0.820661
11
1.79435
21
-0.820585
0
LINE
8
BLACK
6
CONTINUOUS
10
1.79435
20
-0.820585
11
1.7913
21
-0.817538
0
LINE
8
BLACK
6
CONTINUOUS
10
1.7913
20
-0.817538
11
1.79078
21
-0.816803
0
LINE
8
BLACK
6
CONTINUOUS
10
1.79078
20
-0.816803
11
1.79074
21
-0.816758
0
LINE
8
BLACK
6
CONTINUOUS
10
1.79074
20
-0.816758
11
1.78921
21
-0.813711
0
LINE
8
BLACK
6
CONTINUOUS
10
1.78921
20
-0.813711
11
1.78907
21
-0.813214
0
LINE
8
BLACK
6
CONTINUOUS
10
1.78907
20
-0.813214
11
1.78899
21
-0.813097
0
LINE
8
BLACK
6
CONTINUOUS
10
1.78899
20
-0.813097
11
1.78746
21
-0.807001
0
LINE
8
BLACK
6
CONTINUOUS
10
1.78746
20
-0.807001
11
1.78742
21
-0.806404
0
LINE
8
BLACK
6
CONTINUOUS
10
1.78742
20
-0.806404
11
1.78737
21
-0.806274
0
LINE
8
BLACK
6
CONTINUOUS
10
1.78737
20
-0.806274
11
1.78737
21
-0.801702
0
LINE
8
BLACK
6
CONTINUOUS
10
1.78737
20
-0.801702
11
1.78748
21
-0.801113
0
LINE
8
BLACK
6
CONTINUOUS
10
1.78748
20
-0.801113
11
1.78746
21
-0.800975
0
LINE
8
BLACK
6
CONTINUOUS
10
1.78746
20
-0.800975
11
1.78899
21
-0.794879
0
LINE
8
BLACK
6
CONTINUOUS
10
1.78899
20
-0.794879
11
1.7892
21
-0.794406
0
LINE
8
BLACK
6
CONTINUOUS
10
1.7892
20
-0.794406
11
1.78921
21
-0.794265
0
LINE
8
BLACK
6
CONTINUOUS
10
1.78921
20
-0.794265
11
1.79074
21
-0.791218
0
LINE
8
BLACK
6
CONTINUOUS
10
1.79074
20
-0.791218
11
1.79127
21
-0.790498
0
LINE
8
BLACK
6
CONTINUOUS
10
1.79127
20
-0.790498
11
1.7913
21
-0.790438
0
LINE
8
BLACK
6
CONTINUOUS
10
1.7913
20
-0.790438
11
1.79435
21
-0.78739
0
LINE
8
BLACK
6
CONTINUOUS
10
1.79435
20
-0.78739
11
1.7952
21
-0.786793
0
LINE
8
BLACK
6
CONTINUOUS
10
1.7952
20
-0.786793
11
1.79538
21
-0.786777
0
LINE
8
BLACK
6
CONTINUOUS
10
1.79538
20
-0.786777
11
1.79552
21
-0.786666
0
LINE
8
BLACK
6
CONTINUOUS
10
1.79552
20
-0.786666
11
1.80009
21
-0.785142
0
LINE
8
BLACK
6
CONTINUOUS
10
1.80009
20
-0.785142
11
1.80098
21
-0.78501
0
LINE
8
BLACK
6
CONTINUOUS
10
1.80098
20
-0.78501
11
1.80104
21
-0.784988
0
LINE
8
BLACK
6
CONTINUOUS
10
1.80104
20
-0.784988
11
1.80866
21
-0.784988
0
LINE
8
BLACK
6
CONTINUOUS
10
1.80866
20
-0.784988
11
1.80905
21
-0.785057
0
LINE
8
BLACK
6
CONTINUOUS
10
1.80153
20
-0.790988
11
1.79809
21
-0.792134
0
LINE
8
BLACK
6
CONTINUOUS
10
1.79809
20
-0.792134
11
1.79589
21
-0.794337
0
LINE
8
BLACK
6
CONTINUOUS
10
1.79589
20
-0.794337
11
1.79473
21
-0.796654
0
LINE
8
BLACK
6
CONTINUOUS
10
1.79473
20
-0.796654
11
1.79337
21
-0.802072
0
LINE
8
BLACK
6
CONTINUOUS
10
1.79337
20
-0.802072
11
1.79337
21
-0.805904
0
LINE
8
BLACK
6
CONTINUOUS
10
1.79337
20
-0.805904
11
1.79473
21
-0.811322
0
LINE
8
BLACK
6
CONTINUOUS
10
1.79473
20
-0.811322
11
1.79589
21
-0.813639
0
LINE
8
BLACK
6
CONTINUOUS
10
1.79589
20
-0.813639
11
1.79809
21
-0.815842
0
LINE
8
BLACK
6
CONTINUOUS
10
1.79809
20
-0.815842
11
1.80153
21
-0.816988
0
LINE
8
BLACK
6
CONTINUOUS
10
1.80153
20
-0.816988
11
1.80566
21
-0.816988
0
LINE
8
BLACK
6
CONTINUOUS
10
1.80566
20
-0.816988
11
1.80566
21
-0.790988
0
LINE
8
BLACK
6
CONTINUOUS
10
1.80566
20
-0.790988
11
1.80153
21
-0.790988
0
LINE
8
BLACK
6
CONTINUOUS
10
2.09311
20
-0.785169
11
2.09325
21
-0.785284
0
LINE
8
BLACK
6
CONTINUOUS
10
2.09325
20
-0.785284
11
2.09343
21
-0.785305
0
LINE
8
BLACK
6
CONTINUOUS
10
2.09343
20
-0.785305
11
2.09647
21
-0.786829
0
LINE
8
BLACK
6
CONTINUOUS
10
2.09647
20
-0.786829
11
2.09719
21
-0.787363
0
LINE
8
BLACK
6
CONTINUOUS
10
2.09719
20
-0.787363
11
2.09725
21
-0.78739
0
LINE
8
BLACK
6
CONTINUOUS
10
2.09725
20
-0.78739
11
2.09878
21
-0.788914
0
LINE
8
BLACK
6
CONTINUOUS
10
2.09878
20
-0.788914
11
2.09929
21
-0.789649
0
LINE
8
BLACK
6
CONTINUOUS
10
2.09929
20
-0.789649
11
2.09934
21
-0.789694
0
LINE
8
BLACK
6
CONTINUOUS
10
2.09934
20
-0.789694
11
2.10086
21
-0.792742
0
LINE
8
BLACK
6
CONTINUOUS
10
2.10086
20
-0.792742
11
2.10116
21
-0.79374
0
LINE
8
BLACK
6
CONTINUOUS
10
2.10116
20
-0.79374
11
2.10112
21
-0.793915
0
LINE
8
BLACK
6
CONTINUOUS
10
2.10112
20
-0.793915
11
2.10118
21
-0.794083
0
LINE
8
BLACK
6
CONTINUOUS
10
2.10118
20
-0.794083
11
2.10118
21
-0.801702
0
LINE
8
BLACK
6
CONTINUOUS
10
2.10118
20
-0.801702
11
2.101
21
-0.802728
0
LINE
8
BLACK
6
CONTINUOUS
10
2.101
20
-0.802728
11
2.10088
21
-0.802866
0
LINE
8
BLACK
6
CONTINUOUS
10
2.10088
20
-0.802866
11
2.10086
21
-0.803044
0
LINE
8
BLACK
6
CONTINUOUS
10
2.10086
20
-0.803044
11
2.09934
21
-0.806091
0
LINE
8
BLACK
6
CONTINUOUS
10
2.09934
20
-0.806091
11
2.09881
21
-0.806812
0
LINE
8
BLACK
6
CONTINUOUS
10
2.09881
20
-0.806812
11
2.09878
21
-0.806871
0
LINE
8
BLACK
6
CONTINUOUS
10
2.09878
20
-0.806871
11
2.09725
21
-0.808395
0
LINE
8
BLACK
6
CONTINUOUS
10
2.09725
20
-0.808395
11
2.09652
21
-0.80891
0
LINE
8
BLACK
6
CONTINUOUS
10
2.09652
20
-0.80891
11
2.09647
21
-0.808957
0
LINE
8
BLACK
6
CONTINUOUS
10
2.09647
20
-0.808957
11
2.09343
21
-0.810481
0
LINE
8
BLACK
6
CONTINUOUS
10
2.09343
20
-0.810481
11
2.09243
21
-0.810778
0
LINE
8
BLACK
6
CONTINUOUS
10
2.09243
20
-0.810778
11
2.09225
21
-0.810736
0
LINE
8
BLACK
6
CONTINUOUS
10
2.09225
20
-0.810736
11
2.09209
21
-0.810798
0
LINE
8
BLACK
6
CONTINUOUS
10
2.09209
20
-0.810798
11
2.08599
21
-0.810798
0
LINE
8
BLACK
6
CONTINUOUS
10
2.08599
20
-0.810798
11
2.08496
21
-0.810617
0
LINE
8
BLACK
6
CONTINUOUS
10
2.08496
20
-0.810617
11
2.08483
21
-0.810501
0
LINE
8
BLACK
6
CONTINUOUS
10
2.08483
20
-0.810501
11
2.08465
21
-0.810481
0
LINE
8
BLACK
6
CONTINUOUS
10
2.08465
20
-0.810481
11
2.08395
21
-0.810133
0
LINE
8
BLACK
6
CONTINUOUS
10
2.08395
20
-0.810133
11
2.0842
21
-0.811137
0
LINE
8
BLACK
6
CONTINUOUS
10
2.0842
20
-0.811137
11
2.0868
21
-0.815029
0
LINE
8
BLACK
6
CONTINUOUS
10
2.0868
20
-0.815029
11
2.08777
21
-0.815999
0
LINE
8
BLACK
6
CONTINUOUS
10
2.08777
20
-0.815999
11
2.08975
21
-0.816988
0
LINE
8
BLACK
6
CONTINUOUS
10
2.08975
20
-0.816988
11
2.09513
21
-0.816988
0
LINE
8
BLACK
6
CONTINUOUS
10
2.09513
20
-0.816988
11
2.09616
21
-0.817169
0
LINE
8
BLACK
6
CONTINUOUS
10
2.09616
20
-0.817169
11
2.09773
21
-0.818488
0
LINE
8
BLACK
6
CONTINUOUS
10
2.09773
20
-0.818488
11
2.09809
21
-0.820509
0
LINE
8
BLACK
6
CONTINUOUS
10
2.09809
20
-0.820509
11
2.09706
21
-0.822286
0
LINE
8
BLACK
6
CONTINUOUS
10
2.09706
20
-0.822286
11
2.09513
21
-0.822988
0
LINE
8
BLACK
6
CONTINUOUS
10
2.09513
20
-0.822988
11
2.08904
21
-0.822988
0
LINE
8
BLACK
6
CONTINUOUS
10
2.08904
20
-0.822988
11
2.08801
21
-0.822807
0
LINE
8
BLACK
6
CONTINUOUS
10
2.08801
20
-0.822807
11
2.08787
21
-0.822692
0
LINE
8
BLACK
6
CONTINUOUS
10
2.08787
20
-0.822692
11
2.0877
21
-0.822671
0
LINE
8
BLACK
6
CONTINUOUS
10
2.0877
20
-0.822671
11
2.08465
21
-0.821147
0
LINE
8
BLACK
6
CONTINUOUS
10
2.08465
20
-0.821147
11
2.08393
21
-0.820613
0
LINE
8
BLACK
6
CONTINUOUS
10
2.08393
20
-0.820613
11
2.08387
21
-0.820585
0
LINE
8
BLACK
6
CONTINUOUS
10
2.08387
20
-0.820585
11
2.08234
21
-0.819062
0
LINE
8
BLACK
6
CONTINUOUS
10
2.08234
20
-0.819062
11
2.08208
21
-0.818687
0
LINE
8
BLACK
6
CONTINUOUS
10
2.08208
20
-0.818687
11
2.08197
21
-0.818604
0
LINE
8
BLACK
6
CONTINUOUS
10
2.08197
20
-0.818604
11
2.07892
21
-0.814033
0
LINE
8
BLACK
6
CONTINUOUS
10
2.07892
20
-0.814033
11
2.07852
21
-0.813111
0
LINE
8
BLACK
6
CONTINUOUS
10
2.07852
20
-0.813111
11
2.07851
21
-0.813097
0
LINE
8
BLACK
6
CONTINUOUS
10
2.07851
20
-0.813097
11
2.07698
21
-0.807001
0
LINE
8
BLACK
6
CONTINUOUS
10
2.07698
20
-0.807001
11
2.07694
21
-0.806404
0
LINE
8
BLACK
6
CONTINUOUS
10
2.07694
20
-0.806404
11
2.07689
21
-0.806274
0
LINE
8
BLACK
6
CONTINUOUS
10
2.07689
20
-0.806274
11
2.07689
21
-0.794083
0
LINE
8
BLACK
6
CONTINUOUS
10
2.07689
20
-0.794083
11
2.07708
21
-0.793057
0
LINE
8
BLACK
6
CONTINUOUS
10
2.07708
20
-0.793057
11
2.07719
21
-0.79292
0
LINE
8
BLACK
6
CONTINUOUS
10
2.07719
20
-0.79292
11
2.07721
21
-0.792742
0
LINE
8
BLACK
6
CONTINUOUS
10
2.07721
20
-0.792742
11
2.07874
21
-0.789694
0
LINE
8
BLACK
6
CONTINUOUS
10
2.07874
20
-0.789694
11
2.07927
21
-0.788974
0
LINE
8
BLACK
6
CONTINUOUS
10
2.07927
20
-0.788974
11
2.0793
21
-0.788914
0
LINE
8
BLACK
6
CONTINUOUS
10
2.0793
20
-0.788914
11
2.08082
21
-0.78739
0
LINE
8
BLACK
6
CONTINUOUS
10
2.08082
20
-0.78739
11
2.08156
21
-0.786876
0
LINE
8
BLACK
6
CONTINUOUS
10
2.08156
20
-0.786876
11
2.0816
21
-0.786829
0
LINE
8
BLACK
6
CONTINUOUS
10
2.0816
20
-0.786829
11
2.08465
21
-0.785305
0
LINE
8
BLACK
6
CONTINUOUS
10
2.08465
20
-0.785305
11
2.08565
21
-0.785008
0
LINE
8
BLACK
6
CONTINUOUS
10
2.08565
20
-0.785008
11
2.08582
21
-0.785049
0
LINE
8
BLACK
6
CONTINUOUS
10
2.08582
20
-0.785049
11
2.08599
21
-0.784988
0
LINE
8
BLACK
6
CONTINUOUS
10
2.08599
20
-0.784988
11
2.09209
21
-0.784988
0
LINE
8
BLACK
6
CONTINUOUS
10
2.09209
20
-0.784988
11
2.09311
21
-0.785169
0
LINE
8
BLACK
6
CONTINUOUS
10
2.0867
20
-0.790988
11
2.08472
21
-0.791977
0
LINE
8
BLACK
6
CONTINUOUS
10
2.08472
20
-0.791977
11
2.08388
21
-0.792813
0
LINE
8
BLACK
6
CONTINUOUS
10
2.08388
20
-0.792813
11
2.08289
21
-0.794791
0
LINE
8
BLACK
6
CONTINUOUS
10
2.08289
20
-0.794791
11
2.08289
21
-0.800994
0
LINE
8
BLACK
6
CONTINUOUS
10
2.08289
20
-0.800994
11
2.08388
21
-0.802973
0
LINE
8
BLACK
6
CONTINUOUS
10
2.08388
20
-0.802973
11
2.08472
21
-0.803808
0
LINE
8
BLACK
6
CONTINUOUS
10
2.08472
20
-0.803808
11
2.0867
21
-0.804798
0
LINE
8
BLACK
6
CONTINUOUS
10
2.0867
20
-0.804798
11
2.09138
21
-0.804798
0
LINE
8
BLACK
6
CONTINUOUS
10
2.09138
20
-0.804798
11
2.09336
21
-0.803808
0
LINE
8
BLACK
6
CONTINUOUS
10
2.09336
20
-0.803808
11
2.09419
21
-0.802973
0
LINE
8
BLACK
6
CONTINUOUS
10
2.09419
20
-0.802973
11
2.09518
21
-0.800994
0
LINE
8
BLACK
6
CONTINUOUS
10
2.09518
20
-0.800994
11
2.09518
21
-0.794791
0
LINE
8
BLACK
6
CONTINUOUS
10
2.09518
20
-0.794791
11
2.09419
21
-0.792813
0
LINE
8
BLACK
6
CONTINUOUS
10
2.09419
20
-0.792813
11
2.09336
21
-0.791977
0
LINE
8
BLACK
6
CONTINUOUS
10
2.09336
20
-0.791977
11
2.09138
21
-0.790988
0
LINE
8
BLACK
6
CONTINUOUS
10
2.09138
20
-0.790988
11
2.0867
21
-0.790988
0
LINE
8
BLACK
6
CONTINUOUS
10
1.78073
20
-0.785169
11
1.7823
21
-0.786488
0
LINE
8
BLACK
6
CONTINUOUS
10
1.7823
20
-0.786488
11
1.78266
21
-0.788509
0
LINE
8
BLACK
6
CONTINUOUS
10
1.78266
20
-0.788509
11
1.78163
21
-0.790286
0
LINE
8
BLACK
6
CONTINUOUS
10
1.78163
20
-0.790286
11
1.77971
21
-0.790988
0
LINE
8
BLACK
6
CONTINUOUS
10
1.77971
20
-0.790988
11
1.76651
21
-0.790988
0
LINE
8
BLACK
6
CONTINUOUS
10
1.76651
20
-0.790988
11
1.77282
21
-0.798203
0
LINE
8
BLACK
6
CONTINUOUS
10
1.77282
20
-0.798203
11
1.77305
21
-0.798589
0
LINE
8
BLACK
6
CONTINUOUS
10
1.77305
20
-0.798589
11
1.77316
21
-0.798678
0
LINE
8
BLACK
6
CONTINUOUS
10
1.77316
20
-0.798678
11
1.77318
21
-0.798801
0
LINE
8
BLACK
6
CONTINUOUS
10
1.77318
20
-0.798801
11
1.77336
21
-0.799094
0
LINE
8
BLACK
6
CONTINUOUS
10
1.77336
20
-0.799094
11
1.77338
21
-0.799903
0
LINE
8
BLACK
6
CONTINUOUS
10
1.77338
20
-0.799903
11
1.77352
21
-0.800699
0
LINE
8
BLACK
6
CONTINUOUS
10
1.77352
20
-0.800699
11
1.7734
21
-0.800907
0
LINE
8
BLACK
6
CONTINUOUS
10
1.7734
20
-0.800907
11
1.7734
21
-0.801146
0
LINE
8
BLACK
6
CONTINUOUS
10
1.7734
20
-0.801146
11
1.7729
21
-0.801776
0
LINE
8
BLACK
6
CONTINUOUS
10
1.7729
20
-0.801776
11
1.77249
21
-0.802477
0
LINE
8
BLACK
6
CONTINUOUS
10
1.77249
20
-0.802477
11
1.77227
21
-0.802559
0
LINE
8
BLACK
6
CONTINUOUS
10
1.77227
20
-0.802559
11
1.77212
21
-0.802745
0
LINE
8
BLACK
6
CONTINUOUS
10
1.77212
20
-0.802745
11
1.77132
21
-0.802902
0
LINE
8
BLACK
6
CONTINUOUS
10
1.77132
20
-0.802902
11
1.77056
21
-0.803178
0
LINE
8
BLACK
6
CONTINUOUS
10
1.77056
20
-0.803178
11
1.7667
21
-0.803178
0
LINE
8
BLACK
6
CONTINUOUS
10
1.7667
20
-0.803178
11
1.76472
21
-0.804168
0
LINE
8
BLACK
6
CONTINUOUS
10
1.76472
20
-0.804168
11
1.76389
21
-0.805003
0
LINE
8
BLACK
6
CONTINUOUS
10
1.76389
20
-0.805003
11
1.7629
21
-0.806982
0
LINE
8
BLACK
6
CONTINUOUS
10
1.7629
20
-0.806982
11
1.7629
21
-0.813185
0
LINE
8
BLACK
6
CONTINUOUS
10
1.7629
20
-0.813185
11
1.76389
21
-0.815163
0
LINE
8
BLACK
6
CONTINUOUS
10
1.76389
20
-0.815163
11
1.76472
21
-0.815999
0
LINE
8
BLACK
6
CONTINUOUS
10
1.76472
20
-0.815999
11
1.7667
21
-0.816988
0
LINE
8
BLACK
6
CONTINUOUS
10
1.7667
20
-0.816988
11
1.77443
21
-0.816988
0
LINE
8
BLACK
6
CONTINUOUS
10
1.77443
20
-0.816988
11
1.77641
21
-0.815999
0
LINE
8
BLACK
6
CONTINUOUS
10
1.77641
20
-0.815999
11
1.77758
21
-0.814819
0
LINE
8
BLACK
6
CONTINUOUS
10
1.77758
20
-0.814819
11
1.77844
21
-0.814221
0
LINE
8
BLACK
6
CONTINUOUS
10
1.77844
20
-0.814221
11
1.78048
21
-0.814043
0
LINE
8
BLACK
6
CONTINUOUS
10
1.78048
20
-0.814043
11
1.78216
21
-0.81522
0
LINE
8
BLACK
6
CONTINUOUS
10
1.78216
20
-0.81522
11
1.78269
21
-0.817202
0
LINE
8
BLACK
6
CONTINUOUS
10
1.78269
20
-0.817202
11
1.78183
21
-0.819062
0
LINE
8
BLACK
6
CONTINUOUS
10
1.78183
20
-0.819062
11
1.7803
21
-0.820586
0
LINE
8
BLACK
6
CONTINUOUS
10
1.7803
20
-0.820586
11
1.77957
21
-0.8211
0
LINE
8
BLACK
6
CONTINUOUS
10
1.77957
20
-0.8211
11
1.77952
21
-0.821147
0
LINE
8
BLACK
6
CONTINUOUS
10
1.77952
20
-0.821147
11
1.77648
21
-0.822671
0
LINE
8
BLACK
6
CONTINUOUS
10
1.77648
20
-0.822671
11
1.77548
21
-0.822968
0
LINE
8
BLACK
6
CONTINUOUS
10
1.77548
20
-0.822968
11
1.7753
21
-0.822927
0
LINE
8
BLACK
6
CONTINUOUS
10
1.7753
20
-0.822927
11
1.77513
21
-0.822988
0
LINE
8
BLACK
6
CONTINUOUS
10
1.77513
20
-0.822988
11
1.76599
21
-0.822988
0
LINE
8
BLACK
6
CONTINUOUS
10
1.76599
20
-0.822988
11
1.76497
21
-0.822807
0
LINE
8
BLACK
6
CONTINUOUS
10
1.76497
20
-0.822807
11
1.76483
21
-0.822692
0
LINE
8
BLACK
6
CONTINUOUS
10
1.76483
20
-0.822692
11
1.76465
21
-0.822671
0
LINE
8
BLACK
6
CONTINUOUS
10
1.76465
20
-0.822671
11
1.7616
21
-0.821147
0
LINE
8
BLACK
6
CONTINUOUS
10
1.7616
20
-0.821147
11
1.76088
21
-0.820613
0
LINE
8
BLACK
6
CONTINUOUS
10
1.76088
20
-0.820613
11
1.76082
21
-0.820585
0
LINE
8
BLACK
6
CONTINUOUS
10
1.76082
20
-0.820585
11
1.7593
21
-0.819062
0
LINE
8
BLACK
6
CONTINUOUS
10
1.7593
20
-0.819062
11
1.75878
21
-0.818327
0
LINE
8
BLACK
6
CONTINUOUS
10
1.75878
20
-0.818327
11
1.75874
21
-0.818282
0
LINE
8
BLACK
6
CONTINUOUS
10
1.75874
20
-0.818282
11
1.75721
21
-0.815234
0
LINE
8
BLACK
6
CONTINUOUS
10
1.75721
20
-0.815234
11
1.75692
21
-0.814236
0
LINE
8
BLACK
6
CONTINUOUS
10
1.75692
20
-0.814236
11
1.75696
21
-0.814061
0
LINE
8
BLACK
6
CONTINUOUS
10
1.75696
20
-0.814061
11
1.7569
21
-0.813893
0
LINE
8
BLACK
6
CONTINUOUS
10
1.7569
20
-0.813893
11
1.7569
21
-0.806274
0
LINE
8
BLACK
6
CONTINUOUS
10
1.7569
20
-0.806274
11
1.75708
21
-0.805248
0
LINE
8
BLACK
6
CONTINUOUS
10
1.75708
20
-0.805248
11
1.75719
21
-0.80511
0
LINE
8
BLACK
6
CONTINUOUS
10
1.75719
20
-0.80511
11
1.75721
21
-0.804932
0
LINE
8
BLACK
6
CONTINUOUS
10
1.75721
20
-0.804932
11
1.75874
21
-0.801884
0
LINE
8
BLACK
6
CONTINUOUS
10
1.75874
20
-0.801884
11
1.75927
21
-0.801164
0
LINE
8
BLACK
6
CONTINUOUS
10
1.75927
20
-0.801164
11
1.7593
21
-0.801105
0
LINE
8
BLACK
6
CONTINUOUS
10
1.7593
20
-0.801105
11
1.76082
21
-0.799581
0
LINE
8
BLACK
6
CONTINUOUS
10
1.76082
20
-0.799581
11
1.76156
21
-0.799066
0
LINE
8
BLACK
6
CONTINUOUS
10
1.76156
20
-0.799066
11
1.7616
21
-0.799019
0
LINE
8
BLACK
6
CONTINUOUS
10
1.7616
20
-0.799019
11
1.76436
21
-0.797642
0
LINE
8
BLACK
6
CONTINUOUS
10
1.76436
20
-0.797642
11
1.75764
21
-0.789964
0
LINE
8
BLACK
6
CONTINUOUS
10
1.75764
20
-0.789964
11
1.75741
21
-0.789578
0
LINE
8
BLACK
6
CONTINUOUS
10
1.75741
20
-0.789578
11
1.7573
21
-0.789488
0
LINE
8
BLACK
6
CONTINUOUS
10
1.7573
20
-0.789488
11
1.75728
21
-0.789366
0
LINE
8
BLACK
6
CONTINUOUS
10
1.75728
20
-0.789366
11
1.7571
21
-0.789072
0
LINE
8
BLACK
6
CONTINUOUS
10
1.7571
20
-0.789072
11
1.75708
21
-0.788263
0
LINE
8
BLACK
6
CONTINUOUS
10
1.75708
20
-0.788263
11
1.75694
21
-0.787467
0
LINE
8
BLACK
6
CONTINUOUS
10
1.75694
20
-0.787467
11
1.75706
21
-0.78726
0
LINE
8
BLACK
6
CONTINUOUS
10
1.75706
20
-0.78726
11
1.75706
21
-0.787021
0
LINE
8
BLACK
6
CONTINUOUS
10
1.75706
20
-0.787021
11
1.75756
21
-0.78639
0
LINE
8
BLACK
6
CONTINUOUS
10
1.75756
20
-0.78639
11
1.75797
21
-0.78569
0
LINE
8
BLACK
6
CONTINUOUS
10
1.75797
20
-0.78569
11
1.75819
21
-0.785608
0
LINE
8
BLACK
6
CONTINUOUS
10
1.75819
20
-0.785608
11
1.75834
21
-0.785422
0
LINE
8
BLACK
6
CONTINUOUS
10
1.75834
20
-0.785422
11
1.75914
21
-0.785265
0
LINE
8
BLACK
6
CONTINUOUS
10
1.75914
20
-0.785265
11
1.7599
21
-0.784988
0
LINE
8
BLACK
6
CONTINUOUS
10
1.7599
20
-0.784988
11
1.77971
21
-0.784988
0
LINE
8
BLACK
6
CONTINUOUS
10
1.77971
20
-0.784988
11
1.78073
21
-0.785169
0
LINE
8
BLACK
6
CONTINUOUS
10
-0.00139193
20
-4.3321
11
-0.0019685
21
-4.33071
0
LINE
8
BLACK
6
CONTINUOUS
10
-0.0019685
20
-4.33071
11
-0.0019685
21
0
0
LINE
8
BLACK
6
CONTINUOUS
10
-0.0019685
20
0
11
-0.00139193
21
0.00139193
0
LINE
8
BLACK
6
CONTINUOUS
10
-0.00139193
20
0.00139193
11
0
21
0.0019685
0
LINE
8
BLACK
6
CONTINUOUS
10
0
20
0.0019685
11
4.25197
21
0.0019685
0
LINE
8
BLACK
6
CONTINUOUS
10
4.25197
20
0.0019685
11
4.25336
21
0.00139193
0
LINE
8
BLACK
6
CONTINUOUS
10
4.25336
20
0.00139193
11
4.25394
21
0
0
LINE
8
BLACK
6
CONTINUOUS
10
4.25394
20
0
11
4.25394
21
-4.33071
0
LINE
8
BLACK
6
CONTINUOUS
10
4.25394
20
-4.33071
11
4.25336
21
-4.3321
0
LINE
8
BLACK
6
CONTINUOUS
10
4.25336
20
-4.3321
11
4.25197
21
-4.33268
0
LINE
8
BLACK
6
CONTINUOUS
10
4.25197
20
-4.33268
11
0
21
-4.33268
0
LINE
8
BLACK
6
CONTINUOUS
10
0
20
-4.33268
11
-0.00139193
21
-4.3321
0
LINE
8
BLACK
6
CONTINUOUS
10
0.0019685
20
-0.0019685
11
0.0019685
21
-4.32874
0
LINE
8
BLACK
6
CONTINUOUS
10
0.0019685
20
-4.32874
11
4.25
21
-4.32874
0
LINE
8
BLACK
6
CONTINUOUS
10
4.25
20
-4.32874
11
4.25
21
-0.0019685
0
LINE
8
BLACK
6
CONTINUOUS
10
4.25
20
-0.0019685
11
0.0019685
21
-0.0019685
  0
ENDSEC
  0
EOF
