M48
INCH,TZ
T1C0.0079
T2C0.0079
T3C0.0197
T4C0.0217
T5C0.0350
T6C0.0394
T7C0.0433
T8C0.0512
T9C0.0620
T10C0.0620
T11C0.1969
T12C0.0433
T13C0.0630
T14C0.1063
T15C0.1181
T16C0.1280
%
G90
G05
T1
X294Y-26999
X296Y-27881
X299Y-27418
X315Y-28327
X587Y-27882
X592Y-27416
X603Y-27000
X740Y-30429
X793Y-28889
X846Y-32654
X1006Y-26713
X1024Y-29390
X1177Y-35024
X1326Y-29838
X1543Y-26710
X1575Y-29378
X2026Y-32760
X2177Y-33267
X2211Y-22821
X2235Y-32957
X2375Y-22246
X2380Y-22009
X2389Y-28662
X2393Y-22482
X2393Y-25226
X2396Y-26179
X2397Y-26645
X2397Y-25705
X2403Y-23050
X2417Y-21598
X2417Y-23648
X2417Y-24438
X2451Y-29197
X2524Y-31614
X2737Y-20978
X3079Y-23645
X3079Y-24436
X3082Y-26176
X3091Y-22741
X3093Y-22262
X3116Y-26641
X3143Y-25790
X3168Y-25467
X3212Y-22502
X3216Y-24990
X3467Y-29882
X3488Y-22502
X3516Y-21357
X3590Y-26799
X3593Y-25709
X3593Y-26181
X3593Y-24280
X3607Y-28697
X3611Y-25113
X3613Y-22260
X3623Y-23495
X3647Y-22718
X3670Y-3244
X3746Y-16437
X3746Y-17437
X3746Y-18437
X3746Y-19437
X3850Y-30191
X3930Y-2390
X3953Y-37583
X4049Y-7730
X4283Y-23489
X4289Y-24268
X4293Y-22640
X4323Y-26170
X4323Y-25760
X4323Y-26800
X4323Y-28690
X4331Y-25005
X4343Y-22130
X4386Y-38961
X4528Y-27118
X4571Y-25283
X4602Y-24898
X4611Y-25540
X4632Y-31963
X4646Y-20205
X4746Y-16437
X4746Y-17437
X4746Y-18437
X4746Y-19437
X4819Y-35811
X4858Y-38961
X4969Y-7543
X5168Y-37965
X5278Y-21686
X5398Y-29630
X5555Y-27929
X5577Y-31993
X5693Y-30094
X5791Y-6815
X6182Y-9546
X6197Y-11244
X6201Y-7985
X6533Y-9137
X6534Y-7550
X6535Y-6799
X6544Y-4772
X6571Y-13874
X6582Y-7985
X6746Y-16437
X6746Y-17437
X6746Y-18437
X6746Y-19437
X6746Y-20437
X6962Y-7985
X6980Y-29870
X6993Y-11315
X7026Y-13032
X7029Y-11996
X7398Y-6787
X7402Y-7535
X7412Y-7985
X7449Y-29646
X7453Y-6177
X7679Y-12003
X7689Y-11333
X7746Y-15437
X7746Y-16437
X7746Y-17437
X7746Y-18437
X7746Y-19437
X7746Y-20437
X7783Y-21437
X7783Y-22437
X7783Y-23437
X7783Y-24437
X7783Y-25437
X7862Y-7985
X7909Y-11673
X8063Y-30209
X8119Y-12003
X8129Y-11333
X8156Y-13032
X8205Y-5409
X8283Y-6799
X8746Y-15437
X8746Y-16437
X8746Y-17437
X8746Y-18437
X8746Y-19437
X8746Y-20437
X8746Y-21437
X8746Y-22437
X8746Y-23437
X8746Y-24437
X8746Y-25437
X8746Y-26437
X9189Y-31521
X9504Y-11283
X9746Y-15437
X9746Y-16437
X9746Y-17437
X9746Y-18437
X9746Y-19437
X9746Y-20437
X9746Y-21437
X9746Y-22437
X9746Y-23437
X9746Y-24437
X9746Y-25437
X9746Y-26437
X9746Y-27437
X9854Y-13079
X10306Y-12054
X10600Y-37298
X10689Y-6748
X10746Y-15437
X10746Y-16437
X10746Y-17437
X10746Y-18437
X10746Y-19437
X10746Y-20437
X10746Y-21437
X10746Y-22437
X10746Y-23437
X10746Y-24437
X10746Y-25437
X10746Y-26437
X10746Y-27437
X10746Y-28437
X10955Y-32176
X10955Y-32976
X10955Y-33776
X10955Y-34576
X11746Y-15437
X11746Y-16437
X11746Y-17437
X11746Y-18437
X11746Y-19437
X11746Y-20437
X11746Y-21437
X11746Y-22437
X11746Y-23437
X11746Y-24437
X11746Y-25437
X11746Y-26437
X11746Y-27437
X11746Y-28437
X11746Y-29437
X11755Y-32176
X11755Y-32976
X11755Y-33776
X11755Y-34576
X12078Y-38001
X12555Y-32176
X12555Y-32976
X12555Y-33776
X12555Y-34576
X12746Y-16437
X12746Y-17437
X12746Y-18437
X12746Y-19437
X12746Y-20437
X12746Y-21437
X12746Y-22437
X12746Y-23437
X12746Y-24437
X12746Y-25437
X12746Y-26437
X12746Y-27437
X12746Y-28437
X12746Y-29437
X13059Y-6787
X13183Y-12350
X13192Y-39484
X13241Y-11941
X13283Y-11550
X13355Y-32176
X13355Y-32976
X13355Y-33776
X13355Y-34576
X13480Y-11244
X13746Y-17437
X13746Y-18437
X13746Y-19437
X13746Y-20437
X13746Y-21437
X13746Y-22437
X13746Y-23437
X13746Y-24437
X13746Y-25437
X13746Y-26437
X13746Y-27437
X13746Y-28437
X13746Y-29437
X13818Y-43107
X13889Y-11717
X14155Y-32176
X14155Y-32976
X14155Y-33776
X14155Y-34576
X14430Y-38478
X14540Y-6430
X14591Y-8657
X14739Y-40369
X14746Y-22437
X14746Y-23437
X14746Y-24437
X14746Y-25437
X14746Y-26437
X14746Y-27437
X14746Y-28437
X14746Y-29437
X14824Y-3259
X14880Y-8669
X14937Y-4591
X14955Y-32176
X14955Y-32976
X14955Y-33776
X14955Y-34576
X15125Y-6213
X15144Y-7359
X15217Y-36921
X15513Y-11952
X15513Y-12604
X15524Y-7359
X15568Y-32012
X15731Y-25381
X15734Y-23494
X15735Y-23022
X15740Y-27743
X15740Y-23964
X15741Y-22077
X15741Y-27275
X15741Y-21659
X15741Y-22550
X15744Y-28220
X15744Y-25859
X15755Y-28693
X15765Y-26802
X15767Y-26331
X15964Y-6213
X15974Y-7359
X16384Y-12892
X16424Y-7359
X16548Y-21812
X16626Y-39476
X16796Y-12005
X16845Y-12637
X16927Y-22074
X16945Y-21594
X16946Y-27742
X16949Y-28691
X16952Y-28225
X16952Y-22547
X16953Y-27275
X16955Y-24917
X16957Y-23020
X16958Y-23496
X16960Y-25394
X16963Y-23973
X16970Y-24445
X16970Y-26806
X16972Y-6787
X16985Y-26332
X16985Y-25862
X17277Y-3946
X17634Y-43094
X17637Y-23488
X17637Y-23968
X17637Y-24438
X17637Y-24908
X17639Y-39487
X17653Y-28215
X17656Y-28690
X17661Y-26323
X17661Y-27747
X17662Y-25852
X17665Y-35558
X17666Y-27269
X17677Y-25385
X17678Y-26795
X17694Y-23094
X17790Y-31988
X17850Y-5417
X17850Y-8331
X18206Y-11984
X18244Y-12642
X18433Y-4152
X18559Y-768
X18559Y-8685
X18665Y-21791
X18741Y-34018
X19055Y-5567
X19087Y-25449
X19220Y-28878
X19508Y-28280
X19664Y-11470
X19664Y-12470
X19664Y-13470
X19664Y-14470
X19664Y-15470
X19664Y-16470
X19664Y-17470
X19664Y-18470
X19664Y-19470
X19664Y-20470
X19664Y-21470
X19689Y-29445
X19752Y-37559
X19780Y-36189
X19885Y-28346
X20146Y-26728
X20267Y-28382
X20268Y-26287
X20358Y-22181
X20480Y-23195
X20535Y-36169
X20555Y-37807
X20642Y-23709
X20664Y-11470
X20664Y-12470
X20664Y-13470
X20664Y-14470
X20664Y-15470
X20664Y-16470
X20664Y-17470
X20664Y-18470
X20664Y-19470
X20664Y-20470
X20664Y-21470
X20961Y-8331
X21022Y-23824
X21141Y-28492
X21164Y-29074
X21256Y-3803
X21664Y-11470
X21664Y-12470
X21664Y-13470
X21664Y-14470
X21664Y-15470
X21664Y-16470
X21664Y-17470
X21664Y-18470
X21664Y-19470
X21664Y-20470
X21664Y-21470
X21810Y-25841
X21906Y-8685
X22152Y-3110
X22442Y-21983
X22664Y-11470
X22664Y-12470
X22664Y-13470
X22664Y-14470
X22664Y-15470
X22664Y-16470
X22664Y-17470
X22664Y-18470
X22664Y-19470
X22664Y-20470
X22664Y-21470
X23106Y-2445
X23245Y-23617
X23325Y-22633
X23664Y-11470
X23664Y-12470
X23664Y-13470
X23664Y-14470
X23664Y-15470
X23664Y-16470
X23664Y-17470
X23664Y-18470
X23664Y-19470
X23664Y-20470
X23664Y-21470
X23795Y-4787
X24075Y-37382
X24189Y-8331
X24193Y-36260
X24252Y-23610
X24664Y-11470
X24664Y-12470
X24664Y-13470
X24664Y-14470
X24664Y-15470
X24664Y-16470
X24664Y-17470
X24664Y-18470
X24664Y-19470
X24664Y-20470
X24664Y-21470
X24819Y-4748
X25154Y-36795
X25252Y-8685
X25420Y-22685
X25439Y-23685
X25664Y-11470
X25664Y-12470
X25664Y-13470
X25664Y-14470
X25664Y-15470
X25664Y-16470
X25664Y-17470
X25664Y-18470
X25664Y-19470
X25664Y-20470
X25664Y-21470
X26059Y-25872
X26309Y-32719
X26492Y-6850
X26563Y-22165
X26606Y-41106
X26664Y-11470
X26664Y-12470
X26664Y-13470
X26664Y-14470
X26664Y-15470
X26664Y-16470
X26664Y-17470
X26664Y-18470
X26664Y-19470
X26664Y-20470
X26664Y-21470
X26683Y-33498
X27055Y-34720
X27300Y-25865
X27664Y-11470
X27664Y-12470
X27664Y-13470
X27664Y-14470
X27664Y-15470
X27664Y-16470
X27664Y-17470
X27664Y-18470
X27664Y-19470
X27664Y-20470
X27664Y-21470
X27676Y-27570
X27690Y-28244
X27717Y-29561
X27720Y-26905
X27782Y-25881
X27933Y-32220
X28000Y-6811
X28020Y-22157
X28097Y-25881
X28160Y-26905
X28235Y-27458
X28239Y-28728
X28307Y-34098
X28324Y-39355
X28654Y-35319
X28664Y-11470
X28664Y-12470
X28664Y-13470
X28664Y-14470
X28664Y-15470
X28664Y-16470
X28664Y-17470
X28664Y-18470
X28664Y-19470
X28664Y-20470
X28664Y-21470
X28770Y-28235
X28780Y-27562
X28833Y-31289
X28866Y-29548
X29039Y-41102
X29130Y-33488
X29228Y-31087
X29528Y-22173
X29622Y-42189
X29664Y-11470
X29664Y-12470
X29664Y-13470
X29664Y-14470
X29664Y-15470
X29664Y-16470
X29664Y-17470
X29664Y-18470
X29664Y-19470
X29664Y-20470
X29664Y-21470
X29837Y-23688
X29840Y-22685
X29858Y-42504
X30173Y-42504
X30422Y-26885
X30459Y-28953
X30464Y-30200
X30477Y-29633
X30518Y-34485
X30646Y-42504
X30648Y-34305
X30664Y-11470
X30664Y-12470
X30664Y-13470
X30664Y-14470
X30664Y-15470
X30664Y-16470
X30664Y-17470
X30664Y-18470
X30664Y-19470
X30664Y-20470
X30664Y-21470
X30776Y-42022
X30776Y-42268
X30778Y-34485
X30866Y-21882
X30870Y-25381
X31011Y-30260
X31306Y-13761
X31483Y-29583
X31571Y-28540
X31652Y-15735
X31677Y-16803
X31689Y-14638
X31711Y-16343
X31956Y-28657
X31978Y-34484
X32030Y-15746
X32108Y-34304
X32153Y-28659
X32213Y-24012
X32238Y-34484
X32336Y-14638
X32358Y-16732
X32360Y-15746
X32378Y-11244
X32390Y-15142
X32455Y-13749
X32499Y-28000
X32744Y-25710
X32759Y-26850
X33130Y-23614
X33428Y-34485
X33567Y-34325
X33610Y-28167
X33637Y-26579
X33642Y-23952
X33652Y-25707
X33681Y-18709
X33708Y-34485
X33726Y-14161
X33886Y-14681
X33972Y-23543
X34097Y-25698
X34206Y-13861
X34209Y-19933
X34228Y-17276
X34402Y-31235
X34640Y-30771
X34648Y-30451
X34653Y-29943
X34755Y-30204
X34783Y-28821
X34878Y-34497
X34893Y-29385
X34898Y-41795
X35018Y-34327
X35046Y-19209
X35099Y-25613
X35158Y-34497
X35226Y-14431
X35307Y-28897
X35335Y-17896
X35543Y-13476
X35559Y-15465
X35576Y-14151
X35576Y-14441
X35576Y-14751
X35642Y-20555
X35668Y-17896
X35906Y-14431
X35939Y-28530
X35941Y-28146
X35976Y-16799
X35985Y-18620
X36008Y-19212
X36047Y-12496
X36232Y-42213
X36236Y-41795
X36300Y-17902
X36579Y-20571
X36632Y-17899
X36885Y-19226
X36945Y-37307
X37229Y-33597
X37260Y-37307
X37272Y-24984
X37272Y-23939
X37353Y-33073
X37432Y-17687
X37432Y-18487
X37432Y-19287
X37535Y-42213
X37575Y-41795
X37614Y-37307
X37732Y-30630
X37807Y-35037
X37832Y-18067
X37832Y-18937
X38027Y-27827
X38063Y-26632
X38107Y-34480
X38150Y-32991
X38167Y-33346
X38183Y-32626
X38232Y-17687
X38232Y-18487
X38232Y-19287
X38494Y-24984
X38494Y-23939
X38677Y-39177
X38677Y-39453
X38719Y-26672
X38744Y-27857
X38835Y-39650
X38846Y-14709
X38990Y-18779
X39000Y-16618
X39150Y-39650
X39538Y-34039
X39563Y-34804
X39715Y-24984
X39716Y-23939
X39954Y-21102
X40187Y-30497
X40214Y-29178
X40398Y-21747
X40469Y-17894
X40496Y-20457
X40516Y-19638
X40561Y-26519
X40589Y-29165
X40630Y-30432
X40657Y-28319
X40669Y-28073
X40744Y-39059
X40843Y-38075
X40937Y-24984
X40938Y-23939
X40939Y-21092
X41014Y-34833
X41382Y-20437
X41382Y-21755
X41992Y-26496
X42159Y-24984
X42168Y-23939
X42278Y-31909
X42306Y-33313
T2
X32565Y-29044
X32565Y-29556
X32565Y-30067
X32565Y-30579
X33096Y-29044
X33096Y-29556
X33096Y-30067
X33096Y-30579
X33628Y-29044
X33628Y-29556
X33628Y-30067
X33628Y-30579
T5
X20007Y-32827
X20207Y-36626
X20207Y-37213
X20407Y-33827
X20807Y-32827
X21207Y-33827
X21607Y-32827
X22007Y-33827
X22807Y-33827
X23207Y-32827
X23607Y-33827
X24007Y-32827
X24407Y-33827
X24607Y-36626
X24607Y-37213
X24807Y-32827
T6
X5409Y-41224
X5409Y-42224
X9350Y-41949
X11122Y-41949
T7
X20007Y-31827
X21007Y-31827
X23807Y-31827
X24807Y-31827
T8
X8858Y-40965
X11614Y-40965
T9
X27953Y-38162
X27953Y-41732
T10
X19232Y-41077
X25583Y-41077
T11
X1969Y-9843
X1969Y-41339
X40551Y-9843
X40551Y-41339
T12
X30115Y-24798
T13
X20272Y-24798
T14
X1969Y-6299
X1969Y-36614
X3532Y-14553
X3532Y-33451
X16524Y-14553
X16524Y-33451
X40551Y-6299
X40551Y-36614
T15
X20430Y-5881
X29957Y-5881
T16
X19907Y-39827
X24907Y-39827
T3
G00X5427Y-1319
M15
G01X5683Y-1319
M16
G05
G00X5427Y-4075
M15
G01X5683Y-4075
M16
G05
G00X14350Y-42717
M15
G01X14350Y-42973
M16
G05
G00X17106Y-42717
M15
G01X17106Y-42973
M16
G05
T4
G00X4492Y-1772
M15
G01X4492Y-1654
M16
G05
G00X4492Y-3741
M15
G01X4492Y-3622
M16
G05
G00X14684Y-41782
M15
G01X14802Y-41782
M16
G05
G00X16653Y-41782
M15
G01X16771Y-41782
M16
G05
T6
G00X31890Y-38634
M15
G01X32677Y-38634
M16
G05
G00X31890Y-40996
M15
G01X32677Y-40996
M16
G05
G00X34134Y-40209
M15
G01X34134Y-39421
M16
G05
T0
M30
