%TF.GenerationSoftware,KiCad,Pcbnew,5.99.0-unknown-b84d1456d5~131~ubuntu20.04.1*%
%TF.CreationDate,2021-09-23T18:16:05-05:00*%
%TF.ProjectId,AP2000,41503230-3030-42e6-9b69-6361645f7063,rev?*%
%TF.SameCoordinates,Original*%
%TF.FileFunction,Legend,Top*%
%TF.FilePolarity,Positive*%
%FSLAX46Y46*%
G04 Gerber Fmt 4.6, Leading zero omitted, Abs format (unit mm)*
G04 Created by KiCad (PCBNEW 5.99.0-unknown-b84d1456d5~131~ubuntu20.04.1) date 2021-09-23 18:16:05*
%MOMM*%
%LPD*%
G01*
G04 APERTURE LIST*
%ADD10C,0.120000*%
%TA.AperFunction,Profile*%
%ADD11C,0.100000*%
%TD*%
%ADD12C,0.076200*%
%ADD13C,0.300000*%
%ADD14C,0.279400*%
%ADD15C,0.177800*%
%ADD16C,0.250000*%
%ADD17C,0.150000*%
%ADD18C,0.152400*%
%ADD19C,0.015000*%
%ADD20C,0.127000*%
%ADD21C,0.200000*%
G04 APERTURE END LIST*
D10*
X91577991Y-90942000D02*
X94127991Y-90942000D01*
X94127991Y-90942000D02*
X94127991Y-92777000D01*
X94127991Y-92777000D02*
X91577991Y-92777000D01*
X91577991Y-92777000D02*
X91577991Y-90942000D01*
X93271000Y-79211000D02*
X97894000Y-79211000D01*
X97894000Y-79211000D02*
X97894000Y-82529000D01*
X97894000Y-82529000D02*
X93271000Y-82529000D01*
X93271000Y-82529000D02*
X93271000Y-79211000D01*
D11*
X108000000Y0D02*
X108000000Y-110000000D01*
X0Y0D02*
X108000000Y0D01*
X0Y-110000000D02*
X108000000Y-110000000D01*
X0Y-110000000D02*
X0Y0D01*
D12*
X94249114Y-71374847D02*
X94016885Y-71374847D01*
X94133000Y-71374847D02*
X94133000Y-70968447D01*
X94094295Y-71026504D01*
X94055590Y-71065209D01*
X94016885Y-71084561D01*
D13*
X68270000Y-94158571D02*
X68270000Y-93444285D01*
X68698571Y-94301428D02*
X67198571Y-93801428D01*
X68698571Y-93301428D01*
X68627142Y-92158571D02*
X68698571Y-92301428D01*
X68698571Y-92587142D01*
X68627142Y-92730000D01*
X68555714Y-92801428D01*
X68412857Y-92872857D01*
X67984285Y-92872857D01*
X67841428Y-92801428D01*
X67770000Y-92730000D01*
X67698571Y-92587142D01*
X67698571Y-92301428D01*
X67770000Y-92158571D01*
X67698571Y-91730000D02*
X67698571Y-91158571D01*
X67198571Y-91515714D02*
X68484285Y-91515714D01*
X68627142Y-91444285D01*
X68698571Y-91301428D01*
X68698571Y-91158571D01*
D12*
X16657014Y-23971848D02*
X16424785Y-23971848D01*
X16540900Y-23971848D02*
X16540900Y-23565448D01*
X16502195Y-23623505D01*
X16463490Y-23662210D01*
X16424785Y-23681562D01*
X49056114Y-9393847D02*
X48823885Y-9393847D01*
X48940000Y-9393847D02*
X48940000Y-8987447D01*
X48901295Y-9045504D01*
X48862590Y-9084209D01*
X48823885Y-9103561D01*
D13*
X21070714Y-2491000D02*
X21785000Y-2491000D01*
X20927857Y-2919571D02*
X21427857Y-1419571D01*
X21927857Y-2919571D01*
X22427857Y-2919571D02*
X22427857Y-1419571D01*
X22999285Y-1419571D01*
X23142142Y-1491000D01*
X23213571Y-1562428D01*
X23285000Y-1705285D01*
X23285000Y-1919571D01*
X23213571Y-2062428D01*
X23142142Y-2133857D01*
X22999285Y-2205285D01*
X22427857Y-2205285D01*
X23856428Y-1562428D02*
X23927857Y-1491000D01*
X24070714Y-1419571D01*
X24427857Y-1419571D01*
X24570714Y-1491000D01*
X24642142Y-1562428D01*
X24713571Y-1705285D01*
X24713571Y-1848142D01*
X24642142Y-2062428D01*
X23785000Y-2919571D01*
X24713571Y-2919571D01*
X25642142Y-1419571D02*
X25785000Y-1419571D01*
X25927857Y-1491000D01*
X25999285Y-1562428D01*
X26070714Y-1705285D01*
X26142142Y-1991000D01*
X26142142Y-2348142D01*
X26070714Y-2633857D01*
X25999285Y-2776714D01*
X25927857Y-2848142D01*
X25785000Y-2919571D01*
X25642142Y-2919571D01*
X25499285Y-2848142D01*
X25427857Y-2776714D01*
X25356428Y-2633857D01*
X25285000Y-2348142D01*
X25285000Y-1991000D01*
X25356428Y-1705285D01*
X25427857Y-1562428D01*
X25499285Y-1491000D01*
X25642142Y-1419571D01*
X27070714Y-1419571D02*
X27213571Y-1419571D01*
X27356428Y-1491000D01*
X27427857Y-1562428D01*
X27499285Y-1705285D01*
X27570714Y-1991000D01*
X27570714Y-2348142D01*
X27499285Y-2633857D01*
X27427857Y-2776714D01*
X27356428Y-2848142D01*
X27213571Y-2919571D01*
X27070714Y-2919571D01*
X26927857Y-2848142D01*
X26856428Y-2776714D01*
X26785000Y-2633857D01*
X26713571Y-2348142D01*
X26713571Y-1991000D01*
X26785000Y-1705285D01*
X26856428Y-1562428D01*
X26927857Y-1491000D01*
X27070714Y-1419571D01*
X28499285Y-1419571D02*
X28642142Y-1419571D01*
X28785000Y-1491000D01*
X28856428Y-1562428D01*
X28927857Y-1705285D01*
X28999285Y-1991000D01*
X28999285Y-2348142D01*
X28927857Y-2633857D01*
X28856428Y-2776714D01*
X28785000Y-2848142D01*
X28642142Y-2919571D01*
X28499285Y-2919571D01*
X28356428Y-2848142D01*
X28285000Y-2776714D01*
X28213571Y-2633857D01*
X28142142Y-2348142D01*
X28142142Y-1991000D01*
X28213571Y-1705285D01*
X28285000Y-1562428D01*
X28356428Y-1491000D01*
X28499285Y-1419571D01*
X29642142Y-2348142D02*
X30785000Y-2348142D01*
X31285000Y-1419571D02*
X31785000Y-2919571D01*
X32284999Y-1419571D01*
X32642142Y-1419571D02*
X33570714Y-1419571D01*
X33070714Y-1991000D01*
X33284999Y-1991000D01*
X33427857Y-2062428D01*
X33499285Y-2133857D01*
X33570714Y-2276714D01*
X33570714Y-2633857D01*
X33499285Y-2776714D01*
X33427857Y-2848142D01*
X33284999Y-2919571D01*
X32856428Y-2919571D01*
X32713571Y-2848142D01*
X32642142Y-2776714D01*
D14*
X86972380Y-107534523D02*
X86972380Y-106264523D01*
X87274761Y-106264523D01*
X87456190Y-106325000D01*
X87577142Y-106445952D01*
X87637619Y-106566904D01*
X87698095Y-106808809D01*
X87698095Y-106990238D01*
X87637619Y-107232142D01*
X87577142Y-107353095D01*
X87456190Y-107474047D01*
X87274761Y-107534523D01*
X86972380Y-107534523D01*
X88968095Y-107413571D02*
X88907619Y-107474047D01*
X88726190Y-107534523D01*
X88605238Y-107534523D01*
X88423809Y-107474047D01*
X88302857Y-107353095D01*
X88242380Y-107232142D01*
X88181904Y-106990238D01*
X88181904Y-106808809D01*
X88242380Y-106566904D01*
X88302857Y-106445952D01*
X88423809Y-106325000D01*
X88605238Y-106264523D01*
X88726190Y-106264523D01*
X88907619Y-106325000D01*
X88968095Y-106385476D01*
D15*
X18526428Y-4572732D02*
X18490142Y-4609018D01*
X18381285Y-4645304D01*
X18308713Y-4645304D01*
X18199856Y-4609018D01*
X18127285Y-4536447D01*
X18090999Y-4463875D01*
X18054713Y-4318732D01*
X18054713Y-4209875D01*
X18090999Y-4064732D01*
X18127285Y-3992161D01*
X18199856Y-3919590D01*
X18308713Y-3883304D01*
X18381285Y-3883304D01*
X18490142Y-3919590D01*
X18526428Y-3955875D01*
X18961856Y-4645304D02*
X18889285Y-4609018D01*
X18852999Y-4572732D01*
X18816713Y-4500161D01*
X18816713Y-4282447D01*
X18852999Y-4209875D01*
X18889285Y-4173590D01*
X18961856Y-4137304D01*
X19070713Y-4137304D01*
X19143285Y-4173590D01*
X19179571Y-4209875D01*
X19215856Y-4282447D01*
X19215856Y-4500161D01*
X19179571Y-4572732D01*
X19143285Y-4609018D01*
X19070713Y-4645304D01*
X18961856Y-4645304D01*
X19542428Y-4137304D02*
X19542428Y-4899304D01*
X19542428Y-4173590D02*
X19614999Y-4137304D01*
X19760142Y-4137304D01*
X19832713Y-4173590D01*
X19868999Y-4209875D01*
X19905285Y-4282447D01*
X19905285Y-4500161D01*
X19868999Y-4572732D01*
X19832713Y-4609018D01*
X19760142Y-4645304D01*
X19614999Y-4645304D01*
X19542428Y-4609018D01*
X20159285Y-4137304D02*
X20340713Y-4645304D01*
X20522142Y-4137304D02*
X20340713Y-4645304D01*
X20268142Y-4826732D01*
X20231856Y-4863018D01*
X20159285Y-4899304D01*
X20812428Y-4645304D02*
X20812428Y-4137304D01*
X20812428Y-4282447D02*
X20848713Y-4209875D01*
X20884999Y-4173590D01*
X20957571Y-4137304D01*
X21030142Y-4137304D01*
X21284142Y-4645304D02*
X21284142Y-4137304D01*
X21284142Y-3883304D02*
X21247856Y-3919590D01*
X21284142Y-3955875D01*
X21320428Y-3919590D01*
X21284142Y-3883304D01*
X21284142Y-3955875D01*
X21973571Y-4137304D02*
X21973571Y-4754161D01*
X21937285Y-4826732D01*
X21900999Y-4863018D01*
X21828428Y-4899304D01*
X21719571Y-4899304D01*
X21646999Y-4863018D01*
X21973571Y-4609018D02*
X21900999Y-4645304D01*
X21755856Y-4645304D01*
X21683285Y-4609018D01*
X21646999Y-4572732D01*
X21610713Y-4500161D01*
X21610713Y-4282447D01*
X21646999Y-4209875D01*
X21683285Y-4173590D01*
X21755856Y-4137304D01*
X21900999Y-4137304D01*
X21973571Y-4173590D01*
X22336428Y-4645304D02*
X22336428Y-3883304D01*
X22662999Y-4645304D02*
X22662999Y-4246161D01*
X22626713Y-4173590D01*
X22554142Y-4137304D01*
X22445285Y-4137304D01*
X22372713Y-4173590D01*
X22336428Y-4209875D01*
X22916999Y-4137304D02*
X23207285Y-4137304D01*
X23025856Y-3883304D02*
X23025856Y-4536447D01*
X23062142Y-4609018D01*
X23134713Y-4645304D01*
X23207285Y-4645304D01*
X24005571Y-3955875D02*
X24041856Y-3919590D01*
X24114428Y-3883304D01*
X24295856Y-3883304D01*
X24368428Y-3919590D01*
X24404713Y-3955875D01*
X24440999Y-4028447D01*
X24440999Y-4101018D01*
X24404713Y-4209875D01*
X23969285Y-4645304D01*
X24440999Y-4645304D01*
X24912713Y-3883304D02*
X24985285Y-3883304D01*
X25057856Y-3919590D01*
X25094142Y-3955875D01*
X25130428Y-4028447D01*
X25166713Y-4173590D01*
X25166713Y-4355018D01*
X25130428Y-4500161D01*
X25094142Y-4572732D01*
X25057856Y-4609018D01*
X24985285Y-4645304D01*
X24912713Y-4645304D01*
X24840142Y-4609018D01*
X24803856Y-4572732D01*
X24767571Y-4500161D01*
X24731285Y-4355018D01*
X24731285Y-4173590D01*
X24767571Y-4028447D01*
X24803856Y-3955875D01*
X24840142Y-3919590D01*
X24912713Y-3883304D01*
X25456999Y-3955875D02*
X25493285Y-3919590D01*
X25565856Y-3883304D01*
X25747285Y-3883304D01*
X25819856Y-3919590D01*
X25856142Y-3955875D01*
X25892428Y-4028447D01*
X25892428Y-4101018D01*
X25856142Y-4209875D01*
X25420713Y-4645304D01*
X25892428Y-4645304D01*
X26618142Y-4645304D02*
X26182713Y-4645304D01*
X26400428Y-4645304D02*
X26400428Y-3883304D01*
X26327856Y-3992161D01*
X26255285Y-4064732D01*
X26182713Y-4101018D01*
X18090999Y-5872124D02*
X18090999Y-5110124D01*
X18417571Y-5835838D02*
X18526428Y-5872124D01*
X18707856Y-5872124D01*
X18780428Y-5835838D01*
X18816713Y-5799552D01*
X18852999Y-5726981D01*
X18852999Y-5654410D01*
X18816713Y-5581838D01*
X18780428Y-5545552D01*
X18707856Y-5509267D01*
X18562713Y-5472981D01*
X18490142Y-5436695D01*
X18453856Y-5400410D01*
X18417571Y-5327838D01*
X18417571Y-5255267D01*
X18453856Y-5182695D01*
X18490142Y-5146410D01*
X18562713Y-5110124D01*
X18744142Y-5110124D01*
X18852999Y-5146410D01*
X19179571Y-5872124D02*
X19179571Y-5364124D01*
X19179571Y-5110124D02*
X19143285Y-5146410D01*
X19179571Y-5182695D01*
X19215856Y-5146410D01*
X19179571Y-5110124D01*
X19179571Y-5182695D01*
X19506142Y-5835838D02*
X19578713Y-5872124D01*
X19723856Y-5872124D01*
X19796428Y-5835838D01*
X19832713Y-5763267D01*
X19832713Y-5726981D01*
X19796428Y-5654410D01*
X19723856Y-5618124D01*
X19614999Y-5618124D01*
X19542428Y-5581838D01*
X19506142Y-5509267D01*
X19506142Y-5472981D01*
X19542428Y-5400410D01*
X19614999Y-5364124D01*
X19723856Y-5364124D01*
X19796428Y-5400410D01*
X20739856Y-5872124D02*
X20739856Y-5110124D01*
X21102713Y-5872124D02*
X21102713Y-5364124D01*
X21102713Y-5436695D02*
X21138999Y-5400410D01*
X21211571Y-5364124D01*
X21320428Y-5364124D01*
X21392999Y-5400410D01*
X21429285Y-5472981D01*
X21429285Y-5872124D01*
X21429285Y-5472981D02*
X21465571Y-5400410D01*
X21538142Y-5364124D01*
X21646999Y-5364124D01*
X21719571Y-5400410D01*
X21755856Y-5472981D01*
X21755856Y-5872124D01*
X22445285Y-5872124D02*
X22445285Y-5472981D01*
X22408999Y-5400410D01*
X22336428Y-5364124D01*
X22191285Y-5364124D01*
X22118713Y-5400410D01*
X22445285Y-5835838D02*
X22372713Y-5872124D01*
X22191285Y-5872124D01*
X22118713Y-5835838D01*
X22082428Y-5763267D01*
X22082428Y-5690695D01*
X22118713Y-5618124D01*
X22191285Y-5581838D01*
X22372713Y-5581838D01*
X22445285Y-5545552D01*
X23134713Y-5364124D02*
X23134713Y-5980981D01*
X23098428Y-6053552D01*
X23062142Y-6089838D01*
X22989571Y-6126124D01*
X22880713Y-6126124D01*
X22808142Y-6089838D01*
X23134713Y-5835838D02*
X23062142Y-5872124D01*
X22916999Y-5872124D01*
X22844428Y-5835838D01*
X22808142Y-5799552D01*
X22771856Y-5726981D01*
X22771856Y-5509267D01*
X22808142Y-5436695D01*
X22844428Y-5400410D01*
X22916999Y-5364124D01*
X23062142Y-5364124D01*
X23134713Y-5400410D01*
X23787856Y-5835838D02*
X23715285Y-5872124D01*
X23570142Y-5872124D01*
X23497571Y-5835838D01*
X23461285Y-5763267D01*
X23461285Y-5472981D01*
X23497571Y-5400410D01*
X23570142Y-5364124D01*
X23715285Y-5364124D01*
X23787856Y-5400410D01*
X23824142Y-5472981D01*
X23824142Y-5545552D01*
X23461285Y-5618124D01*
X24114428Y-5835838D02*
X24223285Y-5872124D01*
X24404713Y-5872124D01*
X24477285Y-5835838D01*
X24513571Y-5799552D01*
X24549856Y-5726981D01*
X24549856Y-5654410D01*
X24513571Y-5581838D01*
X24477285Y-5545552D01*
X24404713Y-5509267D01*
X24259571Y-5472981D01*
X24186999Y-5436695D01*
X24150713Y-5400410D01*
X24114428Y-5327838D01*
X24114428Y-5255267D01*
X24150713Y-5182695D01*
X24186999Y-5146410D01*
X24259571Y-5110124D01*
X24440999Y-5110124D01*
X24549856Y-5146410D01*
X24767571Y-5364124D02*
X25057856Y-5364124D01*
X24876428Y-5110124D02*
X24876428Y-5763267D01*
X24912713Y-5835838D01*
X24985285Y-5872124D01*
X25057856Y-5872124D01*
X25311856Y-5872124D02*
X25311856Y-5364124D01*
X25311856Y-5509267D02*
X25348142Y-5436695D01*
X25384428Y-5400410D01*
X25456999Y-5364124D01*
X25529571Y-5364124D01*
X26073856Y-5835838D02*
X26001285Y-5872124D01*
X25856142Y-5872124D01*
X25783571Y-5835838D01*
X25747285Y-5763267D01*
X25747285Y-5472981D01*
X25783571Y-5400410D01*
X25856142Y-5364124D01*
X26001285Y-5364124D01*
X26073856Y-5400410D01*
X26110142Y-5472981D01*
X26110142Y-5545552D01*
X25747285Y-5618124D01*
X26763285Y-5872124D02*
X26763285Y-5472981D01*
X26726999Y-5400410D01*
X26654428Y-5364124D01*
X26509285Y-5364124D01*
X26436713Y-5400410D01*
X26763285Y-5835838D02*
X26690713Y-5872124D01*
X26509285Y-5872124D01*
X26436713Y-5835838D01*
X26400428Y-5763267D01*
X26400428Y-5690695D01*
X26436713Y-5618124D01*
X26509285Y-5581838D01*
X26690713Y-5581838D01*
X26763285Y-5545552D01*
X27126142Y-5872124D02*
X27126142Y-5364124D01*
X27126142Y-5436695D02*
X27162428Y-5400410D01*
X27234999Y-5364124D01*
X27343856Y-5364124D01*
X27416428Y-5400410D01*
X27452713Y-5472981D01*
X27452713Y-5872124D01*
X27452713Y-5472981D02*
X27488999Y-5400410D01*
X27561571Y-5364124D01*
X27670428Y-5364124D01*
X27742999Y-5400410D01*
X27779285Y-5472981D01*
X27779285Y-5872124D01*
X28722713Y-5872124D02*
X28722713Y-5110124D01*
X29085571Y-5364124D02*
X29085571Y-5872124D01*
X29085571Y-5436695D02*
X29121856Y-5400410D01*
X29194428Y-5364124D01*
X29303285Y-5364124D01*
X29375856Y-5400410D01*
X29412142Y-5472981D01*
X29412142Y-5872124D01*
X29666142Y-5364124D02*
X29956428Y-5364124D01*
X29774999Y-5110124D02*
X29774999Y-5763267D01*
X29811285Y-5835838D01*
X29883856Y-5872124D01*
X29956428Y-5872124D01*
X30500713Y-5835838D02*
X30428142Y-5872124D01*
X30282999Y-5872124D01*
X30210428Y-5835838D01*
X30174142Y-5763267D01*
X30174142Y-5472981D01*
X30210428Y-5400410D01*
X30282999Y-5364124D01*
X30428142Y-5364124D01*
X30500713Y-5400410D01*
X30536999Y-5472981D01*
X30536999Y-5545552D01*
X30174142Y-5618124D01*
X30863571Y-5872124D02*
X30863571Y-5364124D01*
X30863571Y-5509267D02*
X30899856Y-5436695D01*
X30936142Y-5400410D01*
X31008713Y-5364124D01*
X31081285Y-5364124D01*
X31335285Y-5364124D02*
X31335285Y-5872124D01*
X31335285Y-5436695D02*
X31371571Y-5400410D01*
X31444142Y-5364124D01*
X31552999Y-5364124D01*
X31625571Y-5400410D01*
X31661856Y-5472981D01*
X31661856Y-5872124D01*
X32314999Y-5835838D02*
X32242428Y-5872124D01*
X32097285Y-5872124D01*
X32024713Y-5835838D01*
X31988428Y-5763267D01*
X31988428Y-5472981D01*
X32024713Y-5400410D01*
X32097285Y-5364124D01*
X32242428Y-5364124D01*
X32314999Y-5400410D01*
X32351285Y-5472981D01*
X32351285Y-5545552D01*
X31988428Y-5618124D01*
X32568999Y-5364124D02*
X32859285Y-5364124D01*
X32677856Y-5110124D02*
X32677856Y-5763267D01*
X32714142Y-5835838D01*
X32786713Y-5872124D01*
X32859285Y-5872124D01*
X33657571Y-5835838D02*
X33766428Y-5872124D01*
X33947856Y-5872124D01*
X34020428Y-5835838D01*
X34056713Y-5799552D01*
X34092999Y-5726981D01*
X34092999Y-5654410D01*
X34056713Y-5581838D01*
X34020428Y-5545552D01*
X33947856Y-5509267D01*
X33802713Y-5472981D01*
X33730142Y-5436695D01*
X33693856Y-5400410D01*
X33657571Y-5327838D01*
X33657571Y-5255267D01*
X33693856Y-5182695D01*
X33730142Y-5146410D01*
X33802713Y-5110124D01*
X33984142Y-5110124D01*
X34092999Y-5146410D01*
X34528428Y-5872124D02*
X34455856Y-5835838D01*
X34419571Y-5799552D01*
X34383285Y-5726981D01*
X34383285Y-5509267D01*
X34419571Y-5436695D01*
X34455856Y-5400410D01*
X34528428Y-5364124D01*
X34637285Y-5364124D01*
X34709856Y-5400410D01*
X34746142Y-5436695D01*
X34782428Y-5509267D01*
X34782428Y-5726981D01*
X34746142Y-5799552D01*
X34709856Y-5835838D01*
X34637285Y-5872124D01*
X34528428Y-5872124D01*
X35217856Y-5872124D02*
X35145285Y-5835838D01*
X35108999Y-5763267D01*
X35108999Y-5110124D01*
X35834713Y-5364124D02*
X35834713Y-5872124D01*
X35508142Y-5364124D02*
X35508142Y-5763267D01*
X35544428Y-5835838D01*
X35616999Y-5872124D01*
X35725856Y-5872124D01*
X35798428Y-5835838D01*
X35834713Y-5799552D01*
X36088713Y-5364124D02*
X36378999Y-5364124D01*
X36197571Y-5110124D02*
X36197571Y-5763267D01*
X36233856Y-5835838D01*
X36306428Y-5872124D01*
X36378999Y-5872124D01*
X36632999Y-5872124D02*
X36632999Y-5364124D01*
X36632999Y-5110124D02*
X36596713Y-5146410D01*
X36632999Y-5182695D01*
X36669285Y-5146410D01*
X36632999Y-5110124D01*
X36632999Y-5182695D01*
X37104713Y-5872124D02*
X37032142Y-5835838D01*
X36995856Y-5799552D01*
X36959571Y-5726981D01*
X36959571Y-5509267D01*
X36995856Y-5436695D01*
X37032142Y-5400410D01*
X37104713Y-5364124D01*
X37213571Y-5364124D01*
X37286142Y-5400410D01*
X37322428Y-5436695D01*
X37358713Y-5509267D01*
X37358713Y-5726981D01*
X37322428Y-5799552D01*
X37286142Y-5835838D01*
X37213571Y-5872124D01*
X37104713Y-5872124D01*
X37685285Y-5364124D02*
X37685285Y-5872124D01*
X37685285Y-5436695D02*
X37721571Y-5400410D01*
X37794142Y-5364124D01*
X37902999Y-5364124D01*
X37975571Y-5400410D01*
X38011856Y-5472981D01*
X38011856Y-5872124D01*
X38338428Y-5835838D02*
X38410999Y-5872124D01*
X38556142Y-5872124D01*
X38628713Y-5835838D01*
X38664999Y-5763267D01*
X38664999Y-5726981D01*
X38628713Y-5654410D01*
X38556142Y-5618124D01*
X38447285Y-5618124D01*
X38374713Y-5581838D01*
X38338428Y-5509267D01*
X38338428Y-5472981D01*
X38374713Y-5400410D01*
X38447285Y-5364124D01*
X38556142Y-5364124D01*
X38628713Y-5400410D01*
X39027856Y-5835838D02*
X39027856Y-5872124D01*
X38991570Y-5944695D01*
X38955285Y-5980981D01*
X39934999Y-5872124D02*
X39934999Y-5110124D01*
X40297856Y-5364124D02*
X40297856Y-5872124D01*
X40297856Y-5436695D02*
X40334142Y-5400410D01*
X40406713Y-5364124D01*
X40515570Y-5364124D01*
X40588142Y-5400410D01*
X40624428Y-5472981D01*
X40624428Y-5872124D01*
X41313856Y-5835838D02*
X41241285Y-5872124D01*
X41096142Y-5872124D01*
X41023570Y-5835838D01*
X40987285Y-5799552D01*
X40950999Y-5726981D01*
X40950999Y-5509267D01*
X40987285Y-5436695D01*
X41023570Y-5400410D01*
X41096142Y-5364124D01*
X41241285Y-5364124D01*
X41313856Y-5400410D01*
X41640428Y-5799552D02*
X41676713Y-5835838D01*
X41640428Y-5872124D01*
X41604142Y-5835838D01*
X41640428Y-5799552D01*
X41640428Y-5872124D01*
D16*
X67070000Y-108554285D02*
X67470000Y-108554285D01*
X67641428Y-109182857D02*
X67070000Y-109182857D01*
X67070000Y-107982857D01*
X67641428Y-107982857D01*
X67984285Y-108382857D02*
X68441428Y-108382857D01*
X68155714Y-107982857D02*
X68155714Y-109011428D01*
X68212857Y-109125714D01*
X68327142Y-109182857D01*
X68441428Y-109182857D01*
X68841428Y-109182857D02*
X68841428Y-107982857D01*
X69355714Y-109182857D02*
X69355714Y-108554285D01*
X69298571Y-108440000D01*
X69184285Y-108382857D01*
X69012857Y-108382857D01*
X68898571Y-108440000D01*
X68841428Y-108497142D01*
X70384285Y-109125714D02*
X70270000Y-109182857D01*
X70041428Y-109182857D01*
X69927142Y-109125714D01*
X69870000Y-109011428D01*
X69870000Y-108554285D01*
X69927142Y-108440000D01*
X70041428Y-108382857D01*
X70270000Y-108382857D01*
X70384285Y-108440000D01*
X70441428Y-108554285D01*
X70441428Y-108668571D01*
X69870000Y-108782857D01*
X70955714Y-109182857D02*
X70955714Y-108382857D01*
X70955714Y-108611428D02*
X71012857Y-108497142D01*
X71070000Y-108440000D01*
X71184285Y-108382857D01*
X71298571Y-108382857D01*
X71698571Y-108382857D02*
X71698571Y-109182857D01*
X71698571Y-108497142D02*
X71755714Y-108440000D01*
X71870000Y-108382857D01*
X72041428Y-108382857D01*
X72155714Y-108440000D01*
X72212857Y-108554285D01*
X72212857Y-109182857D01*
X73241428Y-109125714D02*
X73127142Y-109182857D01*
X72898571Y-109182857D01*
X72784285Y-109125714D01*
X72727142Y-109011428D01*
X72727142Y-108554285D01*
X72784285Y-108440000D01*
X72898571Y-108382857D01*
X73127142Y-108382857D01*
X73241428Y-108440000D01*
X73298571Y-108554285D01*
X73298571Y-108668571D01*
X72727142Y-108782857D01*
X73641428Y-108382857D02*
X74098571Y-108382857D01*
X73812857Y-107982857D02*
X73812857Y-109011428D01*
X73870000Y-109125714D01*
X73984285Y-109182857D01*
X74098571Y-109182857D01*
X74727142Y-107982857D02*
X74841428Y-107982857D01*
X74955714Y-108040000D01*
X75012857Y-108097142D01*
X75070000Y-108211428D01*
X75127142Y-108440000D01*
X75127142Y-108725714D01*
X75070000Y-108954285D01*
X75012857Y-109068571D01*
X74955714Y-109125714D01*
X74841428Y-109182857D01*
X74727142Y-109182857D01*
X74612857Y-109125714D01*
X74555714Y-109068571D01*
X74498571Y-108954285D01*
X74441428Y-108725714D01*
X74441428Y-108440000D01*
X74498571Y-108211428D01*
X74555714Y-108097142D01*
X74612857Y-108040000D01*
X74727142Y-107982857D01*
D14*
X87653809Y-109234523D02*
X86928095Y-109234523D01*
X87290952Y-109234523D02*
X87290952Y-107964523D01*
X87170000Y-108145952D01*
X87049047Y-108266904D01*
X86928095Y-108327380D01*
X88137619Y-108085476D02*
X88198095Y-108025000D01*
X88319047Y-107964523D01*
X88621428Y-107964523D01*
X88742380Y-108025000D01*
X88802857Y-108085476D01*
X88863333Y-108206428D01*
X88863333Y-108327380D01*
X88802857Y-108508809D01*
X88077142Y-109234523D01*
X88863333Y-109234523D01*
X89226190Y-107964523D02*
X89649523Y-109234523D01*
X90072857Y-107964523D01*
D13*
X24412857Y-109208571D02*
X23912857Y-108494285D01*
X23555714Y-109208571D02*
X23555714Y-107708571D01*
X24127142Y-107708571D01*
X24270000Y-107780000D01*
X24341428Y-107851428D01*
X24412857Y-107994285D01*
X24412857Y-108208571D01*
X24341428Y-108351428D01*
X24270000Y-108422857D01*
X24127142Y-108494285D01*
X23555714Y-108494285D01*
X25627142Y-109137142D02*
X25484285Y-109208571D01*
X25198571Y-109208571D01*
X25055714Y-109137142D01*
X24984285Y-108994285D01*
X24984285Y-108422857D01*
X25055714Y-108280000D01*
X25198571Y-108208571D01*
X25484285Y-108208571D01*
X25627142Y-108280000D01*
X25698571Y-108422857D01*
X25698571Y-108565714D01*
X24984285Y-108708571D01*
X26270000Y-109137142D02*
X26412857Y-109208571D01*
X26698571Y-109208571D01*
X26841428Y-109137142D01*
X26912857Y-108994285D01*
X26912857Y-108922857D01*
X26841428Y-108780000D01*
X26698571Y-108708571D01*
X26484285Y-108708571D01*
X26341428Y-108637142D01*
X26270000Y-108494285D01*
X26270000Y-108422857D01*
X26341428Y-108280000D01*
X26484285Y-108208571D01*
X26698571Y-108208571D01*
X26841428Y-108280000D01*
X28127142Y-109137142D02*
X27984285Y-109208571D01*
X27698571Y-109208571D01*
X27555714Y-109137142D01*
X27484285Y-108994285D01*
X27484285Y-108422857D01*
X27555714Y-108280000D01*
X27698571Y-108208571D01*
X27984285Y-108208571D01*
X28127142Y-108280000D01*
X28198571Y-108422857D01*
X28198571Y-108565714D01*
X27484285Y-108708571D01*
X28627142Y-108208571D02*
X29198571Y-108208571D01*
X28841428Y-107708571D02*
X28841428Y-108994285D01*
X28912857Y-109137142D01*
X29055714Y-109208571D01*
X29198571Y-109208571D01*
X69938571Y-103252857D02*
X68438571Y-103252857D01*
X68438571Y-102681428D01*
X68510000Y-102538571D01*
X68581428Y-102467142D01*
X68724285Y-102395714D01*
X68938571Y-102395714D01*
X69081428Y-102467142D01*
X69152857Y-102538571D01*
X69224285Y-102681428D01*
X69224285Y-103252857D01*
X68938571Y-101895714D02*
X69938571Y-101610000D01*
X69224285Y-101324285D01*
X69938571Y-101038571D01*
X68938571Y-100752857D01*
X69938571Y-100181428D02*
X68938571Y-100181428D01*
X69224285Y-100181428D02*
X69081428Y-100110000D01*
X69010000Y-100038571D01*
X68938571Y-99895714D01*
X68938571Y-99752857D01*
D12*
X1436114Y-77853847D02*
X1203885Y-77853847D01*
X1320000Y-77853847D02*
X1320000Y-77447447D01*
X1281295Y-77505504D01*
X1242590Y-77544209D01*
X1203885Y-77563561D01*
X38335113Y-22551847D02*
X38102884Y-22551847D01*
X38218999Y-22551847D02*
X38218999Y-22145447D01*
X38180294Y-22203504D01*
X38141589Y-22242209D01*
X38102884Y-22261561D01*
X87326147Y-36424084D02*
X87326147Y-36656313D01*
X87326147Y-36540199D02*
X86919747Y-36540199D01*
X86977804Y-36578903D01*
X87016509Y-36617608D01*
X87035861Y-36656313D01*
X80180114Y-73348847D02*
X79947885Y-73348847D01*
X80064000Y-73348847D02*
X80064000Y-72942447D01*
X80025295Y-73000504D01*
X79986590Y-73039209D01*
X79947885Y-73058561D01*
X89324285Y-58553085D02*
X89150114Y-58553085D01*
X89237200Y-58553085D02*
X89237200Y-58248285D01*
X89208171Y-58291828D01*
X89179142Y-58320857D01*
X89150114Y-58335371D01*
D13*
X32737142Y-109075714D02*
X32665714Y-109147142D01*
X32451428Y-109218571D01*
X32308571Y-109218571D01*
X32094285Y-109147142D01*
X31951428Y-109004285D01*
X31880000Y-108861428D01*
X31808571Y-108575714D01*
X31808571Y-108361428D01*
X31880000Y-108075714D01*
X31951428Y-107932857D01*
X32094285Y-107790000D01*
X32308571Y-107718571D01*
X32451428Y-107718571D01*
X32665714Y-107790000D01*
X32737142Y-107861428D01*
X33594285Y-109218571D02*
X33451428Y-109147142D01*
X33380000Y-109075714D01*
X33308571Y-108932857D01*
X33308571Y-108504285D01*
X33380000Y-108361428D01*
X33451428Y-108290000D01*
X33594285Y-108218571D01*
X33808571Y-108218571D01*
X33951428Y-108290000D01*
X34022857Y-108361428D01*
X34094285Y-108504285D01*
X34094285Y-108932857D01*
X34022857Y-109075714D01*
X33951428Y-109147142D01*
X33808571Y-109218571D01*
X33594285Y-109218571D01*
X34737142Y-108218571D02*
X34737142Y-109218571D01*
X34737142Y-108361428D02*
X34808571Y-108290000D01*
X34951428Y-108218571D01*
X35165714Y-108218571D01*
X35308571Y-108290000D01*
X35380000Y-108432857D01*
X35380000Y-109218571D01*
D12*
X69117714Y-79612647D02*
X68885485Y-79612647D01*
X69001600Y-79612647D02*
X69001600Y-79206247D01*
X68962895Y-79264304D01*
X68924190Y-79303009D01*
X68885485Y-79322361D01*
D17*
X47855380Y-6318904D02*
X48664904Y-6318904D01*
X48760142Y-6271285D01*
X48807761Y-6223666D01*
X48855380Y-6128428D01*
X48855380Y-5937952D01*
X48807761Y-5842714D01*
X48760142Y-5795095D01*
X48664904Y-5747476D01*
X47855380Y-5747476D01*
X47855380Y-5366523D02*
X47855380Y-4747476D01*
X48236333Y-5080809D01*
X48236333Y-4937952D01*
X48283952Y-4842714D01*
X48331571Y-4795095D01*
X48426809Y-4747476D01*
X48664904Y-4747476D01*
X48760142Y-4795095D01*
X48807761Y-4842714D01*
X48855380Y-4937952D01*
X48855380Y-5223666D01*
X48807761Y-5318904D01*
X48760142Y-5366523D01*
X80042380Y-53321904D02*
X80851904Y-53321904D01*
X80947142Y-53274285D01*
X80994761Y-53226666D01*
X81042380Y-53131428D01*
X81042380Y-52940952D01*
X80994761Y-52845714D01*
X80947142Y-52798095D01*
X80851904Y-52750476D01*
X80042380Y-52750476D01*
X80042380Y-51845714D02*
X80042380Y-52036190D01*
X80090000Y-52131428D01*
X80137619Y-52179047D01*
X80280476Y-52274285D01*
X80470952Y-52321904D01*
X80851904Y-52321904D01*
X80947142Y-52274285D01*
X80994761Y-52226666D01*
X81042380Y-52131428D01*
X81042380Y-51940952D01*
X80994761Y-51845714D01*
X80947142Y-51798095D01*
X80851904Y-51750476D01*
X80613809Y-51750476D01*
X80518571Y-51798095D01*
X80470952Y-51845714D01*
X80423333Y-51940952D01*
X80423333Y-52131428D01*
X80470952Y-52226666D01*
X80518571Y-52274285D01*
X80613809Y-52321904D01*
D18*
X75454019Y-97847895D02*
X75454019Y-98428466D01*
X75415314Y-98544580D01*
X75337904Y-98621990D01*
X75221790Y-98660695D01*
X75144380Y-98660695D01*
X76266819Y-98660695D02*
X75802361Y-98660695D01*
X76034590Y-98660695D02*
X76034590Y-97847895D01*
X75957180Y-97964009D01*
X75879771Y-98041419D01*
X75802361Y-98080123D01*
X77040914Y-98660695D02*
X76576457Y-98660695D01*
X76808685Y-98660695D02*
X76808685Y-97847895D01*
X76731276Y-97964009D01*
X76653866Y-98041419D01*
X76576457Y-98080123D01*
X78670019Y-68372895D02*
X78670019Y-68953466D01*
X78631314Y-69069580D01*
X78553904Y-69146990D01*
X78437790Y-69185695D01*
X78360380Y-69185695D01*
X79482819Y-69185695D02*
X79018361Y-69185695D01*
X79250590Y-69185695D02*
X79250590Y-68372895D01*
X79173180Y-68489009D01*
X79095771Y-68566419D01*
X79018361Y-68605123D01*
X79792457Y-68450304D02*
X79831161Y-68411600D01*
X79908571Y-68372895D01*
X80102095Y-68372895D01*
X80179504Y-68411600D01*
X80218209Y-68450304D01*
X80256914Y-68527714D01*
X80256914Y-68605123D01*
X80218209Y-68721238D01*
X79753752Y-69185695D01*
X80256914Y-69185695D01*
X104217485Y-100627695D02*
X103946552Y-100240647D01*
X103753028Y-100627695D02*
X103753028Y-99814895D01*
X104062666Y-99814895D01*
X104140076Y-99853600D01*
X104178780Y-99892304D01*
X104217485Y-99969714D01*
X104217485Y-100085828D01*
X104178780Y-100163238D01*
X104140076Y-100201942D01*
X104062666Y-100240647D01*
X103753028Y-100240647D01*
X104991580Y-100627695D02*
X104527123Y-100627695D01*
X104759352Y-100627695D02*
X104759352Y-99814895D01*
X104681942Y-99931009D01*
X104604533Y-100008419D01*
X104527123Y-100047123D01*
X105301219Y-99892304D02*
X105339923Y-99853600D01*
X105417333Y-99814895D01*
X105610857Y-99814895D01*
X105688266Y-99853600D01*
X105726971Y-99892304D01*
X105765676Y-99969714D01*
X105765676Y-100047123D01*
X105726971Y-100163238D01*
X105262514Y-100627695D01*
X105765676Y-100627695D01*
X10588995Y-24667515D02*
X10201947Y-24938448D01*
X10588995Y-25131972D02*
X9776195Y-25131972D01*
X9776195Y-24822334D01*
X9814900Y-24744924D01*
X9853604Y-24706220D01*
X9931014Y-24667515D01*
X10047128Y-24667515D01*
X10124538Y-24706220D01*
X10163242Y-24744924D01*
X10201947Y-24822334D01*
X10201947Y-25131972D01*
X9853604Y-24357877D02*
X9814900Y-24319172D01*
X9776195Y-24241762D01*
X9776195Y-24048239D01*
X9814900Y-23970829D01*
X9853604Y-23932124D01*
X9931014Y-23893420D01*
X10008423Y-23893420D01*
X10124538Y-23932124D01*
X10588995Y-24396581D01*
X10588995Y-23893420D01*
X10124538Y-23428962D02*
X10085833Y-23506372D01*
X10047128Y-23545077D01*
X9969719Y-23583781D01*
X9931014Y-23583781D01*
X9853604Y-23545077D01*
X9814900Y-23506372D01*
X9776195Y-23428962D01*
X9776195Y-23274143D01*
X9814900Y-23196734D01*
X9853604Y-23158029D01*
X9931014Y-23119324D01*
X9969719Y-23119324D01*
X10047128Y-23158029D01*
X10085833Y-23196734D01*
X10124538Y-23274143D01*
X10124538Y-23428962D01*
X10163242Y-23506372D01*
X10201947Y-23545077D01*
X10279357Y-23583781D01*
X10434176Y-23583781D01*
X10511585Y-23545077D01*
X10550290Y-23506372D01*
X10588995Y-23428962D01*
X10588995Y-23274143D01*
X10550290Y-23196734D01*
X10511585Y-23158029D01*
X10434176Y-23119324D01*
X10279357Y-23119324D01*
X10201947Y-23158029D01*
X10163242Y-23196734D01*
X10124538Y-23274143D01*
X91572485Y-79444285D02*
X91533780Y-79482990D01*
X91417666Y-79521695D01*
X91340257Y-79521695D01*
X91224142Y-79482990D01*
X91146733Y-79405580D01*
X91108028Y-79328171D01*
X91069323Y-79173352D01*
X91069323Y-79057238D01*
X91108028Y-78902419D01*
X91146733Y-78825009D01*
X91224142Y-78747600D01*
X91340257Y-78708895D01*
X91417666Y-78708895D01*
X91533780Y-78747600D01*
X91572485Y-78786304D01*
X91843419Y-78708895D02*
X92346580Y-78708895D01*
X92075647Y-79018533D01*
X92191761Y-79018533D01*
X92269171Y-79057238D01*
X92307876Y-79095942D01*
X92346580Y-79173352D01*
X92346580Y-79366876D01*
X92307876Y-79444285D01*
X92269171Y-79482990D01*
X92191761Y-79521695D01*
X91959533Y-79521695D01*
X91882123Y-79482990D01*
X91843419Y-79444285D01*
X92656219Y-78786304D02*
X92694923Y-78747600D01*
X92772333Y-78708895D01*
X92965857Y-78708895D01*
X93043266Y-78747600D01*
X93081971Y-78786304D01*
X93120676Y-78863714D01*
X93120676Y-78941123D01*
X93081971Y-79057238D01*
X92617514Y-79521695D01*
X93120676Y-79521695D01*
X14237485Y-13798695D02*
X13966552Y-13411647D01*
X13773028Y-13798695D02*
X13773028Y-12985895D01*
X14082666Y-12985895D01*
X14160076Y-13024600D01*
X14198780Y-13063304D01*
X14237485Y-13140714D01*
X14237485Y-13256828D01*
X14198780Y-13334238D01*
X14160076Y-13372942D01*
X14082666Y-13411647D01*
X13773028Y-13411647D01*
X14934171Y-13256828D02*
X14934171Y-13798695D01*
X14740647Y-12947190D02*
X14547123Y-13527761D01*
X15050285Y-13527761D01*
X15785676Y-13798695D02*
X15321219Y-13798695D01*
X15553447Y-13798695D02*
X15553447Y-12985895D01*
X15476038Y-13102009D01*
X15398628Y-13179419D01*
X15321219Y-13218123D01*
D17*
X24676666Y-102764761D02*
X24819523Y-102812380D01*
X25057619Y-102812380D01*
X25152857Y-102764761D01*
X25200476Y-102717142D01*
X25248095Y-102621904D01*
X25248095Y-102526666D01*
X25200476Y-102431428D01*
X25152857Y-102383809D01*
X25057619Y-102336190D01*
X24867142Y-102288571D01*
X24771904Y-102240952D01*
X24724285Y-102193333D01*
X24676666Y-102098095D01*
X24676666Y-102002857D01*
X24724285Y-101907619D01*
X24771904Y-101860000D01*
X24867142Y-101812380D01*
X25105238Y-101812380D01*
X25248095Y-101860000D01*
X25581428Y-101812380D02*
X25819523Y-102812380D01*
X26010000Y-102098095D01*
X26200476Y-102812380D01*
X26438571Y-101812380D01*
X27343333Y-102812380D02*
X26771904Y-102812380D01*
X27057619Y-102812380D02*
X27057619Y-101812380D01*
X26962380Y-101955238D01*
X26867142Y-102050476D01*
X26771904Y-102098095D01*
D18*
X10604495Y-21565314D02*
X10217447Y-21836247D01*
X10604495Y-22029771D02*
X9791695Y-22029771D01*
X9791695Y-21720133D01*
X9830400Y-21642723D01*
X9869104Y-21604019D01*
X9946514Y-21565314D01*
X10062628Y-21565314D01*
X10140038Y-21604019D01*
X10178742Y-21642723D01*
X10217447Y-21720133D01*
X10217447Y-22029771D01*
X9791695Y-21294380D02*
X9791695Y-20791219D01*
X10101333Y-21062152D01*
X10101333Y-20946038D01*
X10140038Y-20868628D01*
X10178742Y-20829923D01*
X10256152Y-20791219D01*
X10449676Y-20791219D01*
X10527085Y-20829923D01*
X10565790Y-20868628D01*
X10604495Y-20946038D01*
X10604495Y-21178266D01*
X10565790Y-21255676D01*
X10527085Y-21294380D01*
X9791695Y-20288057D02*
X9791695Y-20210647D01*
X9830400Y-20133238D01*
X9869104Y-20094533D01*
X9946514Y-20055828D01*
X10101333Y-20017123D01*
X10294857Y-20017123D01*
X10449676Y-20055828D01*
X10527085Y-20094533D01*
X10565790Y-20133238D01*
X10604495Y-20210647D01*
X10604495Y-20288057D01*
X10565790Y-20365466D01*
X10527085Y-20404171D01*
X10449676Y-20442876D01*
X10294857Y-20481580D01*
X10101333Y-20481580D01*
X9946514Y-20442876D01*
X9869104Y-20404171D01*
X9830400Y-20365466D01*
X9791695Y-20288057D01*
X75012485Y-71481695D02*
X74741552Y-71094647D01*
X74548028Y-71481695D02*
X74548028Y-70668895D01*
X74857666Y-70668895D01*
X74935076Y-70707600D01*
X74973780Y-70746304D01*
X75012485Y-70823714D01*
X75012485Y-70939828D01*
X74973780Y-71017238D01*
X74935076Y-71055942D01*
X74857666Y-71094647D01*
X74548028Y-71094647D01*
X75786580Y-71481695D02*
X75322123Y-71481695D01*
X75554352Y-71481695D02*
X75554352Y-70668895D01*
X75476942Y-70785009D01*
X75399533Y-70862419D01*
X75322123Y-70901123D01*
X76521971Y-70668895D02*
X76134923Y-70668895D01*
X76096219Y-71055942D01*
X76134923Y-71017238D01*
X76212333Y-70978533D01*
X76405857Y-70978533D01*
X76483266Y-71017238D01*
X76521971Y-71055942D01*
X76560676Y-71133352D01*
X76560676Y-71326876D01*
X76521971Y-71404285D01*
X76483266Y-71442990D01*
X76405857Y-71481695D01*
X76212333Y-71481695D01*
X76134923Y-71442990D01*
X76096219Y-71404285D01*
X95807695Y-93759923D02*
X94994895Y-93759923D01*
X94994895Y-93566400D01*
X95033600Y-93450285D01*
X95111009Y-93372876D01*
X95188419Y-93334171D01*
X95343238Y-93295466D01*
X95459352Y-93295466D01*
X95614171Y-93334171D01*
X95691580Y-93372876D01*
X95768990Y-93450285D01*
X95807695Y-93566400D01*
X95807695Y-93759923D01*
X95265828Y-92598780D02*
X95807695Y-92598780D01*
X94956190Y-92792304D02*
X95536761Y-92985828D01*
X95536761Y-92482666D01*
X93431585Y-35221713D02*
X93470290Y-35260418D01*
X93508995Y-35376532D01*
X93508995Y-35453941D01*
X93470290Y-35570056D01*
X93392880Y-35647465D01*
X93315471Y-35686170D01*
X93160652Y-35724875D01*
X93044538Y-35724875D01*
X92889719Y-35686170D01*
X92812309Y-35647465D01*
X92734900Y-35570056D01*
X92696195Y-35453941D01*
X92696195Y-35376532D01*
X92734900Y-35260418D01*
X92773604Y-35221713D01*
X92696195Y-34486322D02*
X92696195Y-34873370D01*
X93083242Y-34912075D01*
X93044538Y-34873370D01*
X93005833Y-34795960D01*
X93005833Y-34602437D01*
X93044538Y-34525027D01*
X93083242Y-34486322D01*
X93160652Y-34447618D01*
X93354176Y-34447618D01*
X93431585Y-34486322D01*
X93470290Y-34525027D01*
X93508995Y-34602437D01*
X93508995Y-34795960D01*
X93470290Y-34873370D01*
X93431585Y-34912075D01*
X92967128Y-33750932D02*
X93508995Y-33750932D01*
X92657490Y-33944456D02*
X93238061Y-34137979D01*
X93238061Y-33634818D01*
X82347485Y-60917695D02*
X82076552Y-60530647D01*
X81883028Y-60917695D02*
X81883028Y-60104895D01*
X82192666Y-60104895D01*
X82270076Y-60143600D01*
X82308780Y-60182304D01*
X82347485Y-60259714D01*
X82347485Y-60375828D01*
X82308780Y-60453238D01*
X82270076Y-60491942D01*
X82192666Y-60530647D01*
X81883028Y-60530647D01*
X82657123Y-60182304D02*
X82695828Y-60143600D01*
X82773238Y-60104895D01*
X82966761Y-60104895D01*
X83044171Y-60143600D01*
X83082876Y-60182304D01*
X83121580Y-60259714D01*
X83121580Y-60337123D01*
X83082876Y-60453238D01*
X82618419Y-60917695D01*
X83121580Y-60917695D01*
X83431219Y-60182304D02*
X83469923Y-60143600D01*
X83547333Y-60104895D01*
X83740857Y-60104895D01*
X83818266Y-60143600D01*
X83856971Y-60182304D01*
X83895676Y-60259714D01*
X83895676Y-60337123D01*
X83856971Y-60453238D01*
X83392514Y-60917695D01*
X83895676Y-60917695D01*
X92019485Y-41097285D02*
X91980780Y-41135990D01*
X91864666Y-41174695D01*
X91787257Y-41174695D01*
X91671142Y-41135990D01*
X91593733Y-41058580D01*
X91555028Y-40981171D01*
X91516323Y-40826352D01*
X91516323Y-40710238D01*
X91555028Y-40555419D01*
X91593733Y-40478009D01*
X91671142Y-40400600D01*
X91787257Y-40361895D01*
X91864666Y-40361895D01*
X91980780Y-40400600D01*
X92019485Y-40439304D01*
X92793580Y-41174695D02*
X92329123Y-41174695D01*
X92561352Y-41174695D02*
X92561352Y-40361895D01*
X92483942Y-40478009D01*
X92406533Y-40555419D01*
X92329123Y-40594123D01*
X93490266Y-40632828D02*
X93490266Y-41174695D01*
X93296742Y-40323190D02*
X93103219Y-40903761D01*
X93606380Y-40903761D01*
X16917485Y-16550285D02*
X16878780Y-16588990D01*
X16762666Y-16627695D01*
X16685257Y-16627695D01*
X16569142Y-16588990D01*
X16491733Y-16511580D01*
X16453028Y-16434171D01*
X16414323Y-16279352D01*
X16414323Y-16163238D01*
X16453028Y-16008419D01*
X16491733Y-15931009D01*
X16569142Y-15853600D01*
X16685257Y-15814895D01*
X16762666Y-15814895D01*
X16878780Y-15853600D01*
X16917485Y-15892304D01*
X17188419Y-15814895D02*
X17691580Y-15814895D01*
X17420647Y-16124533D01*
X17536761Y-16124533D01*
X17614171Y-16163238D01*
X17652876Y-16201942D01*
X17691580Y-16279352D01*
X17691580Y-16472876D01*
X17652876Y-16550285D01*
X17614171Y-16588990D01*
X17536761Y-16627695D01*
X17304533Y-16627695D01*
X17227123Y-16588990D01*
X17188419Y-16550285D01*
X17962514Y-15814895D02*
X18504380Y-15814895D01*
X18156038Y-16627695D01*
X85721485Y-48982095D02*
X85450552Y-48595047D01*
X85257028Y-48982095D02*
X85257028Y-48169295D01*
X85566666Y-48169295D01*
X85644076Y-48208000D01*
X85682780Y-48246704D01*
X85721485Y-48324114D01*
X85721485Y-48440228D01*
X85682780Y-48517638D01*
X85644076Y-48556342D01*
X85566666Y-48595047D01*
X85257028Y-48595047D01*
X85992419Y-48169295D02*
X86495580Y-48169295D01*
X86224647Y-48478933D01*
X86340761Y-48478933D01*
X86418171Y-48517638D01*
X86456876Y-48556342D01*
X86495580Y-48633752D01*
X86495580Y-48827276D01*
X86456876Y-48904685D01*
X86418171Y-48943390D01*
X86340761Y-48982095D01*
X86108533Y-48982095D01*
X86031123Y-48943390D01*
X85992419Y-48904685D01*
X87230971Y-48169295D02*
X86843923Y-48169295D01*
X86805219Y-48556342D01*
X86843923Y-48517638D01*
X86921333Y-48478933D01*
X87114857Y-48478933D01*
X87192266Y-48517638D01*
X87230971Y-48556342D01*
X87269676Y-48633752D01*
X87269676Y-48827276D01*
X87230971Y-48904685D01*
X87192266Y-48943390D01*
X87114857Y-48982095D01*
X86921333Y-48982095D01*
X86843923Y-48943390D01*
X86805219Y-48904685D01*
X85256895Y-63581323D02*
X85914876Y-63581323D01*
X85992285Y-63542619D01*
X86030990Y-63503914D01*
X86069695Y-63426504D01*
X86069695Y-63271685D01*
X86030990Y-63194276D01*
X85992285Y-63155571D01*
X85914876Y-63116866D01*
X85256895Y-63116866D01*
X86069695Y-62304066D02*
X86069695Y-62768523D01*
X86069695Y-62536295D02*
X85256895Y-62536295D01*
X85373009Y-62613704D01*
X85450419Y-62691114D01*
X85489123Y-62768523D01*
X85334304Y-61994428D02*
X85295600Y-61955723D01*
X85256895Y-61878314D01*
X85256895Y-61684790D01*
X85295600Y-61607380D01*
X85334304Y-61568676D01*
X85411714Y-61529971D01*
X85489123Y-61529971D01*
X85605238Y-61568676D01*
X86069695Y-62033133D01*
X86069695Y-61529971D01*
X96148485Y-81308695D02*
X95877552Y-80921647D01*
X95684028Y-81308695D02*
X95684028Y-80495895D01*
X95993666Y-80495895D01*
X96071076Y-80534600D01*
X96109780Y-80573304D01*
X96148485Y-80650714D01*
X96148485Y-80766828D01*
X96109780Y-80844238D01*
X96071076Y-80882942D01*
X95993666Y-80921647D01*
X95684028Y-80921647D01*
X96458123Y-80573304D02*
X96496828Y-80534600D01*
X96574238Y-80495895D01*
X96767761Y-80495895D01*
X96845171Y-80534600D01*
X96883876Y-80573304D01*
X96922580Y-80650714D01*
X96922580Y-80728123D01*
X96883876Y-80844238D01*
X96419419Y-81308695D01*
X96922580Y-81308695D01*
X97193514Y-80495895D02*
X97735380Y-80495895D01*
X97387038Y-81308695D01*
X85773485Y-50245695D02*
X85502552Y-49858647D01*
X85309028Y-50245695D02*
X85309028Y-49432895D01*
X85618666Y-49432895D01*
X85696076Y-49471600D01*
X85734780Y-49510304D01*
X85773485Y-49587714D01*
X85773485Y-49703828D01*
X85734780Y-49781238D01*
X85696076Y-49819942D01*
X85618666Y-49858647D01*
X85309028Y-49858647D01*
X86083123Y-49510304D02*
X86121828Y-49471600D01*
X86199238Y-49432895D01*
X86392761Y-49432895D01*
X86470171Y-49471600D01*
X86508876Y-49510304D01*
X86547580Y-49587714D01*
X86547580Y-49665123D01*
X86508876Y-49781238D01*
X86044419Y-50245695D01*
X86547580Y-50245695D01*
X87321676Y-50245695D02*
X86857219Y-50245695D01*
X87089447Y-50245695D02*
X87089447Y-49432895D01*
X87012038Y-49549009D01*
X86934628Y-49626419D01*
X86857219Y-49665123D01*
X80415025Y-79550692D02*
X80415025Y-78737892D01*
X80608549Y-78737892D01*
X80724663Y-78776597D01*
X80802073Y-78854006D01*
X80840777Y-78931416D01*
X80879482Y-79086235D01*
X80879482Y-79202349D01*
X80840777Y-79357168D01*
X80802073Y-79434577D01*
X80724663Y-79511987D01*
X80608549Y-79550692D01*
X80415025Y-79550692D01*
X81653577Y-79550692D02*
X81189120Y-79550692D01*
X81421349Y-79550692D02*
X81421349Y-78737892D01*
X81343939Y-78854006D01*
X81266530Y-78931416D01*
X81189120Y-78970120D01*
X81963216Y-78815301D02*
X82001920Y-78776597D01*
X82079330Y-78737892D01*
X82272854Y-78737892D01*
X82350263Y-78776597D01*
X82388968Y-78815301D01*
X82427673Y-78892711D01*
X82427673Y-78970120D01*
X82388968Y-79086235D01*
X81924511Y-79550692D01*
X82427673Y-79550692D01*
X7763076Y-51071285D02*
X7724371Y-51109990D01*
X7608257Y-51148695D01*
X7530847Y-51148695D01*
X7414733Y-51109990D01*
X7337323Y-51032580D01*
X7298619Y-50955171D01*
X7259914Y-50800352D01*
X7259914Y-50684238D01*
X7298619Y-50529419D01*
X7337323Y-50452009D01*
X7414733Y-50374600D01*
X7530847Y-50335895D01*
X7608257Y-50335895D01*
X7724371Y-50374600D01*
X7763076Y-50413304D01*
X8111419Y-51148695D02*
X8111419Y-50335895D01*
X8382352Y-50916466D01*
X8653285Y-50335895D01*
X8653285Y-51148695D01*
X9001628Y-50413304D02*
X9040333Y-50374600D01*
X9117742Y-50335895D01*
X9311266Y-50335895D01*
X9388676Y-50374600D01*
X9427380Y-50413304D01*
X9466085Y-50490714D01*
X9466085Y-50568123D01*
X9427380Y-50684238D01*
X8962923Y-51148695D01*
X9466085Y-51148695D01*
X92727695Y-68517971D02*
X91914895Y-68517971D01*
X91914895Y-68324447D01*
X91953600Y-68208333D01*
X92031009Y-68130923D01*
X92108419Y-68092219D01*
X92263238Y-68053514D01*
X92379352Y-68053514D01*
X92534171Y-68092219D01*
X92611580Y-68130923D01*
X92688990Y-68208333D01*
X92727695Y-68324447D01*
X92727695Y-68517971D01*
X92727695Y-67279419D02*
X92727695Y-67743876D01*
X92727695Y-67511647D02*
X91914895Y-67511647D01*
X92031009Y-67589057D01*
X92108419Y-67666466D01*
X92147123Y-67743876D01*
X91914895Y-66582733D02*
X91914895Y-66737552D01*
X91953600Y-66814961D01*
X91992304Y-66853666D01*
X92108419Y-66931076D01*
X92263238Y-66969780D01*
X92572876Y-66969780D01*
X92650285Y-66931076D01*
X92688990Y-66892371D01*
X92727695Y-66814961D01*
X92727695Y-66660142D01*
X92688990Y-66582733D01*
X92650285Y-66544028D01*
X92572876Y-66505323D01*
X92379352Y-66505323D01*
X92301942Y-66544028D01*
X92263238Y-66582733D01*
X92224533Y-66660142D01*
X92224533Y-66814961D01*
X92263238Y-66892371D01*
X92301942Y-66931076D01*
X92379352Y-66969780D01*
X45626332Y-23161295D02*
X45239284Y-23161295D01*
X45239284Y-22348495D01*
X46245608Y-22619428D02*
X46245608Y-23161295D01*
X46052084Y-22309790D02*
X45858560Y-22890361D01*
X46361722Y-22890361D01*
X84746685Y-34446413D02*
X84785390Y-34485118D01*
X84824095Y-34601232D01*
X84824095Y-34678641D01*
X84785390Y-34794756D01*
X84707980Y-34872165D01*
X84630571Y-34910870D01*
X84475752Y-34949575D01*
X84359638Y-34949575D01*
X84204819Y-34910870D01*
X84127409Y-34872165D01*
X84050000Y-34794756D01*
X84011295Y-34678641D01*
X84011295Y-34601232D01*
X84050000Y-34485118D01*
X84088704Y-34446413D01*
X84282228Y-33749727D02*
X84824095Y-33749727D01*
X83972590Y-33943251D02*
X84553161Y-34136775D01*
X84553161Y-33633613D01*
X84824095Y-33285270D02*
X84824095Y-33130451D01*
X84785390Y-33053041D01*
X84746685Y-33014337D01*
X84630571Y-32936927D01*
X84475752Y-32898222D01*
X84166114Y-32898222D01*
X84088704Y-32936927D01*
X84050000Y-32975632D01*
X84011295Y-33053041D01*
X84011295Y-33207860D01*
X84050000Y-33285270D01*
X84088704Y-33323975D01*
X84166114Y-33362679D01*
X84359638Y-33362679D01*
X84437047Y-33323975D01*
X84475752Y-33285270D01*
X84514457Y-33207860D01*
X84514457Y-33053041D01*
X84475752Y-32975632D01*
X84437047Y-32936927D01*
X84359638Y-32898222D01*
X94443028Y-77317695D02*
X94443028Y-76504895D01*
X94636552Y-76504895D01*
X94752666Y-76543600D01*
X94830076Y-76621009D01*
X94868780Y-76698419D01*
X94907485Y-76853238D01*
X94907485Y-76969352D01*
X94868780Y-77124171D01*
X94830076Y-77201580D01*
X94752666Y-77278990D01*
X94636552Y-77317695D01*
X94443028Y-77317695D01*
X95681580Y-77317695D02*
X95217123Y-77317695D01*
X95449352Y-77317695D02*
X95449352Y-76504895D01*
X95371942Y-76621009D01*
X95294533Y-76698419D01*
X95217123Y-76737123D01*
X96146038Y-76853238D02*
X96068628Y-76814533D01*
X96029923Y-76775828D01*
X95991219Y-76698419D01*
X95991219Y-76659714D01*
X96029923Y-76582304D01*
X96068628Y-76543600D01*
X96146038Y-76504895D01*
X96300857Y-76504895D01*
X96378266Y-76543600D01*
X96416971Y-76582304D01*
X96455676Y-76659714D01*
X96455676Y-76698419D01*
X96416971Y-76775828D01*
X96378266Y-76814533D01*
X96300857Y-76853238D01*
X96146038Y-76853238D01*
X96068628Y-76891942D01*
X96029923Y-76930647D01*
X95991219Y-77008057D01*
X95991219Y-77162876D01*
X96029923Y-77240285D01*
X96068628Y-77278990D01*
X96146038Y-77317695D01*
X96300857Y-77317695D01*
X96378266Y-77278990D01*
X96416971Y-77240285D01*
X96455676Y-77162876D01*
X96455676Y-77008057D01*
X96416971Y-76930647D01*
X96378266Y-76891942D01*
X96300857Y-76853238D01*
X84285623Y-79563492D02*
X84285623Y-78750692D01*
X84479147Y-78750692D01*
X84595261Y-78789397D01*
X84672671Y-78866806D01*
X84711375Y-78944216D01*
X84750080Y-79099035D01*
X84750080Y-79215149D01*
X84711375Y-79369968D01*
X84672671Y-79447377D01*
X84595261Y-79524787D01*
X84479147Y-79563492D01*
X84285623Y-79563492D01*
X85524175Y-79563492D02*
X85059718Y-79563492D01*
X85291947Y-79563492D02*
X85291947Y-78750692D01*
X85214537Y-78866806D01*
X85137128Y-78944216D01*
X85059718Y-78982920D01*
X86298271Y-79563492D02*
X85833814Y-79563492D01*
X86066042Y-79563492D02*
X86066042Y-78750692D01*
X85988633Y-78866806D01*
X85911223Y-78944216D01*
X85833814Y-78982920D01*
X42148333Y-9394895D02*
X41877400Y-9007847D01*
X41683876Y-9394895D02*
X41683876Y-8582095D01*
X41993514Y-8582095D01*
X42070923Y-8620800D01*
X42109628Y-8659504D01*
X42148333Y-8736914D01*
X42148333Y-8853028D01*
X42109628Y-8930438D01*
X42070923Y-8969142D01*
X41993514Y-9007847D01*
X41683876Y-9007847D01*
X42845019Y-8582095D02*
X42690200Y-8582095D01*
X42612790Y-8620800D01*
X42574085Y-8659504D01*
X42496676Y-8775619D01*
X42457971Y-8930438D01*
X42457971Y-9240076D01*
X42496676Y-9317485D01*
X42535380Y-9356190D01*
X42612790Y-9394895D01*
X42767609Y-9394895D01*
X42845019Y-9356190D01*
X42883723Y-9317485D01*
X42922428Y-9240076D01*
X42922428Y-9046552D01*
X42883723Y-8969142D01*
X42845019Y-8930438D01*
X42767609Y-8891733D01*
X42612790Y-8891733D01*
X42535380Y-8930438D01*
X42496676Y-8969142D01*
X42457971Y-9046552D01*
X95400524Y-85397285D02*
X95361819Y-85435990D01*
X95245705Y-85474695D01*
X95168295Y-85474695D01*
X95052181Y-85435990D01*
X94974771Y-85358580D01*
X94936067Y-85281171D01*
X94897362Y-85126352D01*
X94897362Y-85010238D01*
X94936067Y-84855419D01*
X94974771Y-84778009D01*
X95052181Y-84700600D01*
X95168295Y-84661895D01*
X95245705Y-84661895D01*
X95361819Y-84700600D01*
X95400524Y-84739304D01*
X95864981Y-85010238D02*
X95787571Y-84971533D01*
X95748867Y-84932828D01*
X95710162Y-84855419D01*
X95710162Y-84816714D01*
X95748867Y-84739304D01*
X95787571Y-84700600D01*
X95864981Y-84661895D01*
X96019800Y-84661895D01*
X96097210Y-84700600D01*
X96135914Y-84739304D01*
X96174619Y-84816714D01*
X96174619Y-84855419D01*
X96135914Y-84932828D01*
X96097210Y-84971533D01*
X96019800Y-85010238D01*
X95864981Y-85010238D01*
X95787571Y-85048942D01*
X95748867Y-85087647D01*
X95710162Y-85165057D01*
X95710162Y-85319876D01*
X95748867Y-85397285D01*
X95787571Y-85435990D01*
X95864981Y-85474695D01*
X96019800Y-85474695D01*
X96097210Y-85435990D01*
X96135914Y-85397285D01*
X96174619Y-85319876D01*
X96174619Y-85165057D01*
X96135914Y-85087647D01*
X96097210Y-85048942D01*
X96019800Y-85010238D01*
X90515695Y-70215514D02*
X90128647Y-70486447D01*
X90515695Y-70679971D02*
X89702895Y-70679971D01*
X89702895Y-70370333D01*
X89741600Y-70292923D01*
X89780304Y-70254219D01*
X89857714Y-70215514D01*
X89973828Y-70215514D01*
X90051238Y-70254219D01*
X90089942Y-70292923D01*
X90128647Y-70370333D01*
X90128647Y-70679971D01*
X90515695Y-69441419D02*
X90515695Y-69905876D01*
X90515695Y-69673647D02*
X89702895Y-69673647D01*
X89819009Y-69751057D01*
X89896419Y-69828466D01*
X89935123Y-69905876D01*
X89702895Y-68744733D02*
X89702895Y-68899552D01*
X89741600Y-68976961D01*
X89780304Y-69015666D01*
X89896419Y-69093076D01*
X90051238Y-69131780D01*
X90360876Y-69131780D01*
X90438285Y-69093076D01*
X90476990Y-69054371D01*
X90515695Y-68976961D01*
X90515695Y-68822142D01*
X90476990Y-68744733D01*
X90438285Y-68706028D01*
X90360876Y-68667323D01*
X90167352Y-68667323D01*
X90089942Y-68706028D01*
X90051238Y-68744733D01*
X90012533Y-68822142D01*
X90012533Y-68976961D01*
X90051238Y-69054371D01*
X90089942Y-69093076D01*
X90167352Y-69131780D01*
X80463485Y-34002285D02*
X80424780Y-34040990D01*
X80308666Y-34079695D01*
X80231257Y-34079695D01*
X80115142Y-34040990D01*
X80037733Y-33963580D01*
X79999028Y-33886171D01*
X79960323Y-33731352D01*
X79960323Y-33615238D01*
X79999028Y-33460419D01*
X80037733Y-33383009D01*
X80115142Y-33305600D01*
X80231257Y-33266895D01*
X80308666Y-33266895D01*
X80424780Y-33305600D01*
X80463485Y-33344304D01*
X81198876Y-33266895D02*
X80811828Y-33266895D01*
X80773123Y-33653942D01*
X80811828Y-33615238D01*
X80889238Y-33576533D01*
X81082761Y-33576533D01*
X81160171Y-33615238D01*
X81198876Y-33653942D01*
X81237580Y-33731352D01*
X81237580Y-33924876D01*
X81198876Y-34002285D01*
X81160171Y-34040990D01*
X81082761Y-34079695D01*
X80889238Y-34079695D01*
X80811828Y-34040990D01*
X80773123Y-34002285D01*
X81547219Y-33344304D02*
X81585923Y-33305600D01*
X81663333Y-33266895D01*
X81856857Y-33266895D01*
X81934266Y-33305600D01*
X81972971Y-33344304D01*
X82011676Y-33421714D01*
X82011676Y-33499123D01*
X81972971Y-33615238D01*
X81508514Y-34079695D01*
X82011676Y-34079695D01*
X35625723Y-96940895D02*
X35625723Y-97598876D01*
X35664428Y-97676285D01*
X35703133Y-97714990D01*
X35780542Y-97753695D01*
X35935361Y-97753695D01*
X36012771Y-97714990D01*
X36051476Y-97676285D01*
X36090180Y-97598876D01*
X36090180Y-96940895D01*
X36902980Y-97753695D02*
X36438523Y-97753695D01*
X36670752Y-97753695D02*
X36670752Y-96940895D01*
X36593342Y-97057009D01*
X36515933Y-97134419D01*
X36438523Y-97173123D01*
X91702686Y-83648971D02*
X90889886Y-83648971D01*
X90889886Y-83455447D01*
X90928591Y-83339333D01*
X91006000Y-83261923D01*
X91083410Y-83223219D01*
X91238229Y-83184514D01*
X91354343Y-83184514D01*
X91509162Y-83223219D01*
X91586571Y-83261923D01*
X91663981Y-83339333D01*
X91702686Y-83455447D01*
X91702686Y-83648971D01*
X91702686Y-82410419D02*
X91702686Y-82874876D01*
X91702686Y-82642647D02*
X90889886Y-82642647D01*
X91006000Y-82720057D01*
X91083410Y-82797466D01*
X91122114Y-82874876D01*
X90889886Y-82139485D02*
X90889886Y-81636323D01*
X91199524Y-81907257D01*
X91199524Y-81791142D01*
X91238229Y-81713733D01*
X91276933Y-81675028D01*
X91354343Y-81636323D01*
X91547867Y-81636323D01*
X91625276Y-81675028D01*
X91663981Y-81713733D01*
X91702686Y-81791142D01*
X91702686Y-82023371D01*
X91663981Y-82100780D01*
X91625276Y-82139485D01*
X96128485Y-82349695D02*
X95857552Y-81962647D01*
X95664028Y-82349695D02*
X95664028Y-81536895D01*
X95973666Y-81536895D01*
X96051076Y-81575600D01*
X96089780Y-81614304D01*
X96128485Y-81691714D01*
X96128485Y-81807828D01*
X96089780Y-81885238D01*
X96051076Y-81923942D01*
X95973666Y-81962647D01*
X95664028Y-81962647D01*
X96438123Y-81614304D02*
X96476828Y-81575600D01*
X96554238Y-81536895D01*
X96747761Y-81536895D01*
X96825171Y-81575600D01*
X96863876Y-81614304D01*
X96902580Y-81691714D01*
X96902580Y-81769123D01*
X96863876Y-81885238D01*
X96399419Y-82349695D01*
X96902580Y-82349695D01*
X97289628Y-82349695D02*
X97444447Y-82349695D01*
X97521857Y-82310990D01*
X97560561Y-82272285D01*
X97637971Y-82156171D01*
X97676676Y-82001352D01*
X97676676Y-81691714D01*
X97637971Y-81614304D01*
X97599266Y-81575600D01*
X97521857Y-81536895D01*
X97367038Y-81536895D01*
X97289628Y-81575600D01*
X97250923Y-81614304D01*
X97212219Y-81691714D01*
X97212219Y-81885238D01*
X97250923Y-81962647D01*
X97289628Y-82001352D01*
X97367038Y-82040057D01*
X97521857Y-82040057D01*
X97599266Y-82001352D01*
X97637971Y-81962647D01*
X97676676Y-81885238D01*
X54424533Y-75006695D02*
X54153600Y-74619647D01*
X53960076Y-75006695D02*
X53960076Y-74193895D01*
X54269714Y-74193895D01*
X54347123Y-74232600D01*
X54385828Y-74271304D01*
X54424533Y-74348714D01*
X54424533Y-74464828D01*
X54385828Y-74542238D01*
X54347123Y-74580942D01*
X54269714Y-74619647D01*
X53960076Y-74619647D01*
X54888990Y-74542238D02*
X54811580Y-74503533D01*
X54772876Y-74464828D01*
X54734171Y-74387419D01*
X54734171Y-74348714D01*
X54772876Y-74271304D01*
X54811580Y-74232600D01*
X54888990Y-74193895D01*
X55043809Y-74193895D01*
X55121219Y-74232600D01*
X55159923Y-74271304D01*
X55198628Y-74348714D01*
X55198628Y-74387419D01*
X55159923Y-74464828D01*
X55121219Y-74503533D01*
X55043809Y-74542238D01*
X54888990Y-74542238D01*
X54811580Y-74580942D01*
X54772876Y-74619647D01*
X54734171Y-74697057D01*
X54734171Y-74851876D01*
X54772876Y-74929285D01*
X54811580Y-74967990D01*
X54888990Y-75006695D01*
X55043809Y-75006695D01*
X55121219Y-74967990D01*
X55159923Y-74929285D01*
X55198628Y-74851876D01*
X55198628Y-74697057D01*
X55159923Y-74619647D01*
X55121219Y-74580942D01*
X55043809Y-74542238D01*
X82163695Y-41444466D02*
X82163695Y-41831514D01*
X81350895Y-41831514D01*
X81350895Y-41250942D02*
X81350895Y-40747780D01*
X81660533Y-41018714D01*
X81660533Y-40902600D01*
X81699238Y-40825190D01*
X81737942Y-40786485D01*
X81815352Y-40747780D01*
X82008876Y-40747780D01*
X82086285Y-40786485D01*
X82124990Y-40825190D01*
X82163695Y-40902600D01*
X82163695Y-41134828D01*
X82124990Y-41212238D01*
X82086285Y-41250942D01*
X70004533Y-86757695D02*
X69733600Y-86370647D01*
X69540076Y-86757695D02*
X69540076Y-85944895D01*
X69849714Y-85944895D01*
X69927123Y-85983600D01*
X69965828Y-86022304D01*
X70004533Y-86099714D01*
X70004533Y-86215828D01*
X69965828Y-86293238D01*
X69927123Y-86331942D01*
X69849714Y-86370647D01*
X69540076Y-86370647D01*
X70778628Y-86757695D02*
X70314171Y-86757695D01*
X70546400Y-86757695D02*
X70546400Y-85944895D01*
X70468990Y-86061009D01*
X70391580Y-86138419D01*
X70314171Y-86177123D01*
X100404533Y-96250285D02*
X100365828Y-96288990D01*
X100249714Y-96327695D01*
X100172304Y-96327695D01*
X100056190Y-96288990D01*
X99978780Y-96211580D01*
X99940076Y-96134171D01*
X99901371Y-95979352D01*
X99901371Y-95863238D01*
X99940076Y-95708419D01*
X99978780Y-95631009D01*
X100056190Y-95553600D01*
X100172304Y-95514895D01*
X100249714Y-95514895D01*
X100365828Y-95553600D01*
X100404533Y-95592304D01*
X101101219Y-95785828D02*
X101101219Y-96327695D01*
X100907695Y-95476190D02*
X100714171Y-96056761D01*
X101217333Y-96056761D01*
X34446675Y-17675895D02*
X34446675Y-18333876D01*
X34485379Y-18411285D01*
X34524084Y-18449990D01*
X34601494Y-18488695D01*
X34756313Y-18488695D01*
X34833722Y-18449990D01*
X34872427Y-18411285D01*
X34911132Y-18333876D01*
X34911132Y-17675895D01*
X35723932Y-18488695D02*
X35259475Y-18488695D01*
X35491703Y-18488695D02*
X35491703Y-17675895D01*
X35414294Y-17792009D01*
X35336884Y-17869419D01*
X35259475Y-17908123D01*
X35994865Y-17675895D02*
X36498027Y-17675895D01*
X36227094Y-17985533D01*
X36343208Y-17985533D01*
X36420618Y-18024238D01*
X36459322Y-18062942D01*
X36498027Y-18140352D01*
X36498027Y-18333876D01*
X36459322Y-18411285D01*
X36420618Y-18449990D01*
X36343208Y-18488695D01*
X36110979Y-18488695D01*
X36033570Y-18449990D01*
X35994865Y-18411285D01*
X35193883Y-24662885D02*
X35155178Y-24701590D01*
X35039064Y-24740295D01*
X34961655Y-24740295D01*
X34845540Y-24701590D01*
X34768131Y-24624180D01*
X34729426Y-24546771D01*
X34690721Y-24391952D01*
X34690721Y-24275838D01*
X34729426Y-24121019D01*
X34768131Y-24043609D01*
X34845540Y-23966200D01*
X34961655Y-23927495D01*
X35039064Y-23927495D01*
X35155178Y-23966200D01*
X35193883Y-24004904D01*
X35929274Y-23927495D02*
X35542226Y-23927495D01*
X35503521Y-24314542D01*
X35542226Y-24275838D01*
X35619636Y-24237133D01*
X35813159Y-24237133D01*
X35890569Y-24275838D01*
X35929274Y-24314542D01*
X35967978Y-24391952D01*
X35967978Y-24585476D01*
X35929274Y-24662885D01*
X35890569Y-24701590D01*
X35813159Y-24740295D01*
X35619636Y-24740295D01*
X35542226Y-24701590D01*
X35503521Y-24662885D01*
X36664664Y-23927495D02*
X36509845Y-23927495D01*
X36432436Y-23966200D01*
X36393731Y-24004904D01*
X36316321Y-24121019D01*
X36277617Y-24275838D01*
X36277617Y-24585476D01*
X36316321Y-24662885D01*
X36355026Y-24701590D01*
X36432436Y-24740295D01*
X36587255Y-24740295D01*
X36664664Y-24701590D01*
X36703369Y-24662885D01*
X36742074Y-24585476D01*
X36742074Y-24391952D01*
X36703369Y-24314542D01*
X36664664Y-24275838D01*
X36587255Y-24237133D01*
X36432436Y-24237133D01*
X36355026Y-24275838D01*
X36316321Y-24314542D01*
X36277617Y-24391952D01*
X37850284Y-14519714D02*
X37888989Y-14558419D01*
X37927694Y-14674533D01*
X37927694Y-14751942D01*
X37888989Y-14868057D01*
X37811579Y-14945466D01*
X37734170Y-14984171D01*
X37579351Y-15022876D01*
X37463237Y-15022876D01*
X37308418Y-14984171D01*
X37231008Y-14945466D01*
X37153599Y-14868057D01*
X37114894Y-14751942D01*
X37114894Y-14674533D01*
X37153599Y-14558419D01*
X37192303Y-14519714D01*
X37114894Y-13823028D02*
X37114894Y-13977847D01*
X37153599Y-14055257D01*
X37192303Y-14093961D01*
X37308418Y-14171371D01*
X37463237Y-14210076D01*
X37772875Y-14210076D01*
X37850284Y-14171371D01*
X37888989Y-14132666D01*
X37927694Y-14055257D01*
X37927694Y-13900438D01*
X37888989Y-13823028D01*
X37850284Y-13784323D01*
X37772875Y-13745619D01*
X37579351Y-13745619D01*
X37501941Y-13784323D01*
X37463237Y-13823028D01*
X37424532Y-13900438D01*
X37424532Y-14055257D01*
X37463237Y-14132666D01*
X37501941Y-14171371D01*
X37579351Y-14210076D01*
X37192303Y-13435980D02*
X37153599Y-13397276D01*
X37114894Y-13319866D01*
X37114894Y-13126342D01*
X37153599Y-13048933D01*
X37192303Y-13010228D01*
X37269713Y-12971523D01*
X37347122Y-12971523D01*
X37463237Y-13010228D01*
X37927694Y-13474685D01*
X37927694Y-12971523D01*
X65225485Y-55862285D02*
X65186780Y-55900990D01*
X65070666Y-55939695D01*
X64993257Y-55939695D01*
X64877142Y-55900990D01*
X64799733Y-55823580D01*
X64761028Y-55746171D01*
X64722323Y-55591352D01*
X64722323Y-55475238D01*
X64761028Y-55320419D01*
X64799733Y-55243009D01*
X64877142Y-55165600D01*
X64993257Y-55126895D01*
X65070666Y-55126895D01*
X65186780Y-55165600D01*
X65225485Y-55204304D01*
X65535123Y-55204304D02*
X65573828Y-55165600D01*
X65651238Y-55126895D01*
X65844761Y-55126895D01*
X65922171Y-55165600D01*
X65960876Y-55204304D01*
X65999580Y-55281714D01*
X65999580Y-55359123D01*
X65960876Y-55475238D01*
X65496419Y-55939695D01*
X65999580Y-55939695D01*
X66270514Y-55126895D02*
X66773676Y-55126895D01*
X66502742Y-55436533D01*
X66618857Y-55436533D01*
X66696266Y-55475238D01*
X66734971Y-55513942D01*
X66773676Y-55591352D01*
X66773676Y-55784876D01*
X66734971Y-55862285D01*
X66696266Y-55900990D01*
X66618857Y-55939695D01*
X66386628Y-55939695D01*
X66309219Y-55900990D01*
X66270514Y-55862285D01*
X98027590Y-77418104D02*
X97950180Y-77379400D01*
X97872771Y-77301990D01*
X97756657Y-77185876D01*
X97679247Y-77147171D01*
X97601838Y-77147171D01*
X97640542Y-77340695D02*
X97563133Y-77301990D01*
X97485723Y-77224580D01*
X97447019Y-77069761D01*
X97447019Y-76798828D01*
X97485723Y-76644009D01*
X97563133Y-76566600D01*
X97640542Y-76527895D01*
X97795361Y-76527895D01*
X97872771Y-76566600D01*
X97950180Y-76644009D01*
X97988885Y-76798828D01*
X97988885Y-77069761D01*
X97950180Y-77224580D01*
X97872771Y-77301990D01*
X97795361Y-77340695D01*
X97640542Y-77340695D01*
X98762980Y-77340695D02*
X98298523Y-77340695D01*
X98530752Y-77340695D02*
X98530752Y-76527895D01*
X98453342Y-76644009D01*
X98375933Y-76721419D01*
X98298523Y-76760123D01*
X26561485Y-32291487D02*
X26522780Y-32330192D01*
X26406666Y-32368897D01*
X26329257Y-32368897D01*
X26213142Y-32330192D01*
X26135733Y-32252782D01*
X26097028Y-32175373D01*
X26058323Y-32020554D01*
X26058323Y-31904440D01*
X26097028Y-31749621D01*
X26135733Y-31672211D01*
X26213142Y-31594802D01*
X26329257Y-31556097D01*
X26406666Y-31556097D01*
X26522780Y-31594802D01*
X26561485Y-31633506D01*
X26832419Y-31556097D02*
X27335580Y-31556097D01*
X27064647Y-31865735D01*
X27180761Y-31865735D01*
X27258171Y-31904440D01*
X27296876Y-31943144D01*
X27335580Y-32020554D01*
X27335580Y-32214078D01*
X27296876Y-32291487D01*
X27258171Y-32330192D01*
X27180761Y-32368897D01*
X26948533Y-32368897D01*
X26871123Y-32330192D01*
X26832419Y-32291487D01*
X28109676Y-32368897D02*
X27645219Y-32368897D01*
X27877447Y-32368897D02*
X27877447Y-31556097D01*
X27800038Y-31672211D01*
X27722628Y-31749621D01*
X27645219Y-31788325D01*
X95107933Y-90737333D02*
X95107933Y-91008266D01*
X95533686Y-91008266D02*
X94720886Y-91008266D01*
X94720886Y-90621219D01*
X95107933Y-90040647D02*
X95146638Y-89924533D01*
X95185343Y-89885828D01*
X95262752Y-89847123D01*
X95378867Y-89847123D01*
X95456276Y-89885828D01*
X95494981Y-89924533D01*
X95533686Y-90001942D01*
X95533686Y-90311580D01*
X94720886Y-90311580D01*
X94720886Y-90040647D01*
X94759591Y-89963238D01*
X94798295Y-89924533D01*
X94875705Y-89885828D01*
X94953114Y-89885828D01*
X95030524Y-89924533D01*
X95069229Y-89963238D01*
X95107933Y-90040647D01*
X95107933Y-90311580D01*
X95533686Y-89073028D02*
X95533686Y-89537485D01*
X95533686Y-89305257D02*
X94720886Y-89305257D01*
X94837000Y-89382666D01*
X94914410Y-89460076D01*
X94953114Y-89537485D01*
X98583067Y-82541695D02*
X98583067Y-81728895D01*
X98776591Y-81728895D01*
X98892705Y-81767600D01*
X98970114Y-81845009D01*
X99008819Y-81922419D01*
X99047524Y-82077238D01*
X99047524Y-82193352D01*
X99008819Y-82348171D01*
X98970114Y-82425580D01*
X98892705Y-82502990D01*
X98776591Y-82541695D01*
X98583067Y-82541695D01*
X99434571Y-82541695D02*
X99589391Y-82541695D01*
X99666800Y-82502990D01*
X99705505Y-82464285D01*
X99782914Y-82348171D01*
X99821619Y-82193352D01*
X99821619Y-81883714D01*
X99782914Y-81806304D01*
X99744210Y-81767600D01*
X99666800Y-81728895D01*
X99511981Y-81728895D01*
X99434571Y-81767600D01*
X99395867Y-81806304D01*
X99357162Y-81883714D01*
X99357162Y-82077238D01*
X99395867Y-82154647D01*
X99434571Y-82193352D01*
X99511981Y-82232057D01*
X99666800Y-82232057D01*
X99744210Y-82193352D01*
X99782914Y-82154647D01*
X99821619Y-82077238D01*
X76876695Y-78847514D02*
X76489647Y-79118447D01*
X76876695Y-79311971D02*
X76063895Y-79311971D01*
X76063895Y-79002333D01*
X76102600Y-78924923D01*
X76141304Y-78886219D01*
X76218714Y-78847514D01*
X76334828Y-78847514D01*
X76412238Y-78886219D01*
X76450942Y-78924923D01*
X76489647Y-79002333D01*
X76489647Y-79311971D01*
X76063895Y-78576580D02*
X76063895Y-78073419D01*
X76373533Y-78344352D01*
X76373533Y-78228238D01*
X76412238Y-78150828D01*
X76450942Y-78112123D01*
X76528352Y-78073419D01*
X76721876Y-78073419D01*
X76799285Y-78112123D01*
X76837990Y-78150828D01*
X76876695Y-78228238D01*
X76876695Y-78460466D01*
X76837990Y-78537876D01*
X76799285Y-78576580D01*
X76334828Y-77376733D02*
X76876695Y-77376733D01*
X76025190Y-77570257D02*
X76605761Y-77763780D01*
X76605761Y-77260619D01*
X62190485Y-55960695D02*
X61919552Y-55573647D01*
X61726028Y-55960695D02*
X61726028Y-55147895D01*
X62035666Y-55147895D01*
X62113076Y-55186600D01*
X62151780Y-55225304D01*
X62190485Y-55302714D01*
X62190485Y-55418828D01*
X62151780Y-55496238D01*
X62113076Y-55534942D01*
X62035666Y-55573647D01*
X61726028Y-55573647D01*
X62887171Y-55147895D02*
X62732352Y-55147895D01*
X62654942Y-55186600D01*
X62616238Y-55225304D01*
X62538828Y-55341419D01*
X62500123Y-55496238D01*
X62500123Y-55805876D01*
X62538828Y-55883285D01*
X62577533Y-55921990D01*
X62654942Y-55960695D01*
X62809761Y-55960695D01*
X62887171Y-55921990D01*
X62925876Y-55883285D01*
X62964580Y-55805876D01*
X62964580Y-55612352D01*
X62925876Y-55534942D01*
X62887171Y-55496238D01*
X62809761Y-55457533D01*
X62654942Y-55457533D01*
X62577533Y-55496238D01*
X62538828Y-55534942D01*
X62500123Y-55612352D01*
X63738676Y-55960695D02*
X63274219Y-55960695D01*
X63506447Y-55960695D02*
X63506447Y-55147895D01*
X63429038Y-55264009D01*
X63351628Y-55341419D01*
X63274219Y-55380123D01*
X105964485Y-78637285D02*
X105925780Y-78675990D01*
X105809666Y-78714695D01*
X105732257Y-78714695D01*
X105616142Y-78675990D01*
X105538733Y-78598580D01*
X105500028Y-78521171D01*
X105461323Y-78366352D01*
X105461323Y-78250238D01*
X105500028Y-78095419D01*
X105538733Y-78018009D01*
X105616142Y-77940600D01*
X105732257Y-77901895D01*
X105809666Y-77901895D01*
X105925780Y-77940600D01*
X105964485Y-77979304D01*
X106274123Y-77979304D02*
X106312828Y-77940600D01*
X106390238Y-77901895D01*
X106583761Y-77901895D01*
X106661171Y-77940600D01*
X106699876Y-77979304D01*
X106738580Y-78056714D01*
X106738580Y-78134123D01*
X106699876Y-78250238D01*
X106235419Y-78714695D01*
X106738580Y-78714695D01*
X107009514Y-77901895D02*
X107551380Y-77901895D01*
X107203038Y-78714695D01*
X84716067Y-95877695D02*
X84716067Y-95064895D01*
X84909591Y-95064895D01*
X85025705Y-95103600D01*
X85103114Y-95181009D01*
X85141819Y-95258419D01*
X85180524Y-95413238D01*
X85180524Y-95529352D01*
X85141819Y-95684171D01*
X85103114Y-95761580D01*
X85025705Y-95838990D01*
X84909591Y-95877695D01*
X84716067Y-95877695D01*
X85877210Y-95064895D02*
X85722391Y-95064895D01*
X85644981Y-95103600D01*
X85606276Y-95142304D01*
X85528867Y-95258419D01*
X85490162Y-95413238D01*
X85490162Y-95722876D01*
X85528867Y-95800285D01*
X85567571Y-95838990D01*
X85644981Y-95877695D01*
X85799800Y-95877695D01*
X85877210Y-95838990D01*
X85915914Y-95800285D01*
X85954619Y-95722876D01*
X85954619Y-95529352D01*
X85915914Y-95451942D01*
X85877210Y-95413238D01*
X85799800Y-95374533D01*
X85644981Y-95374533D01*
X85567571Y-95413238D01*
X85528867Y-95451942D01*
X85490162Y-95529352D01*
X97816533Y-42320285D02*
X97777828Y-42358990D01*
X97661714Y-42397695D01*
X97584304Y-42397695D01*
X97468190Y-42358990D01*
X97390780Y-42281580D01*
X97352076Y-42204171D01*
X97313371Y-42049352D01*
X97313371Y-41933238D01*
X97352076Y-41778419D01*
X97390780Y-41701009D01*
X97468190Y-41623600D01*
X97584304Y-41584895D01*
X97661714Y-41584895D01*
X97777828Y-41623600D01*
X97816533Y-41662304D01*
X98203580Y-42397695D02*
X98358400Y-42397695D01*
X98435809Y-42358990D01*
X98474514Y-42320285D01*
X98551923Y-42204171D01*
X98590628Y-42049352D01*
X98590628Y-41739714D01*
X98551923Y-41662304D01*
X98513219Y-41623600D01*
X98435809Y-41584895D01*
X98280990Y-41584895D01*
X98203580Y-41623600D01*
X98164876Y-41662304D01*
X98126171Y-41739714D01*
X98126171Y-41933238D01*
X98164876Y-42010647D01*
X98203580Y-42049352D01*
X98280990Y-42088057D01*
X98435809Y-42088057D01*
X98513219Y-42049352D01*
X98551923Y-42010647D01*
X98590628Y-41933238D01*
X59611533Y-55947695D02*
X59340600Y-55560647D01*
X59147076Y-55947695D02*
X59147076Y-55134895D01*
X59456714Y-55134895D01*
X59534123Y-55173600D01*
X59572828Y-55212304D01*
X59611533Y-55289714D01*
X59611533Y-55405828D01*
X59572828Y-55483238D01*
X59534123Y-55521942D01*
X59456714Y-55560647D01*
X59147076Y-55560647D01*
X59998580Y-55947695D02*
X60153400Y-55947695D01*
X60230809Y-55908990D01*
X60269514Y-55870285D01*
X60346923Y-55754171D01*
X60385628Y-55599352D01*
X60385628Y-55289714D01*
X60346923Y-55212304D01*
X60308219Y-55173600D01*
X60230809Y-55134895D01*
X60075990Y-55134895D01*
X59998580Y-55173600D01*
X59959876Y-55212304D01*
X59921171Y-55289714D01*
X59921171Y-55483238D01*
X59959876Y-55560647D01*
X59998580Y-55599352D01*
X60075990Y-55638057D01*
X60230809Y-55638057D01*
X60308219Y-55599352D01*
X60346923Y-55560647D01*
X60385628Y-55483238D01*
D17*
X3175142Y-76179142D02*
X3127523Y-76226761D01*
X2984666Y-76274380D01*
X2889428Y-76274380D01*
X2746571Y-76226761D01*
X2651333Y-76131523D01*
X2603714Y-76036285D01*
X2556095Y-75845809D01*
X2556095Y-75702952D01*
X2603714Y-75512476D01*
X2651333Y-75417238D01*
X2746571Y-75322000D01*
X2889428Y-75274380D01*
X2984666Y-75274380D01*
X3127523Y-75322000D01*
X3175142Y-75369619D01*
X4127523Y-76274380D02*
X3556095Y-76274380D01*
X3841809Y-76274380D02*
X3841809Y-75274380D01*
X3746571Y-75417238D01*
X3651333Y-75512476D01*
X3556095Y-75560095D01*
X4603714Y-76274380D02*
X4794190Y-76274380D01*
X4889428Y-76226761D01*
X4937047Y-76179142D01*
X5032285Y-76036285D01*
X5079904Y-75845809D01*
X5079904Y-75464857D01*
X5032285Y-75369619D01*
X4984666Y-75322000D01*
X4889428Y-75274380D01*
X4698952Y-75274380D01*
X4603714Y-75322000D01*
X4556095Y-75369619D01*
X4508476Y-75464857D01*
X4508476Y-75702952D01*
X4556095Y-75798190D01*
X4603714Y-75845809D01*
X4698952Y-75893428D01*
X4889428Y-75893428D01*
X4984666Y-75845809D01*
X5032285Y-75798190D01*
X5079904Y-75702952D01*
D18*
X43779483Y-32940687D02*
X43740778Y-32979392D01*
X43624664Y-33018097D01*
X43547255Y-33018097D01*
X43431140Y-32979392D01*
X43353731Y-32901982D01*
X43315026Y-32824573D01*
X43276321Y-32669754D01*
X43276321Y-32553640D01*
X43315026Y-32398821D01*
X43353731Y-32321411D01*
X43431140Y-32244002D01*
X43547255Y-32205297D01*
X43624664Y-32205297D01*
X43740778Y-32244002D01*
X43779483Y-32282706D01*
X44514874Y-32205297D02*
X44127826Y-32205297D01*
X44089121Y-32592344D01*
X44127826Y-32553640D01*
X44205236Y-32514935D01*
X44398759Y-32514935D01*
X44476169Y-32553640D01*
X44514874Y-32592344D01*
X44553578Y-32669754D01*
X44553578Y-32863278D01*
X44514874Y-32940687D01*
X44476169Y-32979392D01*
X44398759Y-33018097D01*
X44205236Y-33018097D01*
X44127826Y-32979392D01*
X44089121Y-32940687D01*
X44824512Y-32205297D02*
X45366378Y-32205297D01*
X45018036Y-33018097D01*
X32423694Y-20051514D02*
X32036646Y-20322447D01*
X32423694Y-20515971D02*
X31610894Y-20515971D01*
X31610894Y-20206333D01*
X31649599Y-20128923D01*
X31688303Y-20090219D01*
X31765713Y-20051514D01*
X31881827Y-20051514D01*
X31959237Y-20090219D01*
X31997941Y-20128923D01*
X32036646Y-20206333D01*
X32036646Y-20515971D01*
X31610894Y-19780580D02*
X31610894Y-19277419D01*
X31920532Y-19548352D01*
X31920532Y-19432238D01*
X31959237Y-19354828D01*
X31997941Y-19316123D01*
X32075351Y-19277419D01*
X32268875Y-19277419D01*
X32346284Y-19316123D01*
X32384989Y-19354828D01*
X32423694Y-19432238D01*
X32423694Y-19664466D01*
X32384989Y-19741876D01*
X32346284Y-19780580D01*
X31959237Y-18812961D02*
X31920532Y-18890371D01*
X31881827Y-18929076D01*
X31804418Y-18967780D01*
X31765713Y-18967780D01*
X31688303Y-18929076D01*
X31649599Y-18890371D01*
X31610894Y-18812961D01*
X31610894Y-18658142D01*
X31649599Y-18580733D01*
X31688303Y-18542028D01*
X31765713Y-18503323D01*
X31804418Y-18503323D01*
X31881827Y-18542028D01*
X31920532Y-18580733D01*
X31959237Y-18658142D01*
X31959237Y-18812961D01*
X31997941Y-18890371D01*
X32036646Y-18929076D01*
X32114056Y-18967780D01*
X32268875Y-18967780D01*
X32346284Y-18929076D01*
X32384989Y-18890371D01*
X32423694Y-18812961D01*
X32423694Y-18658142D01*
X32384989Y-18580733D01*
X32346284Y-18542028D01*
X32268875Y-18503323D01*
X32114056Y-18503323D01*
X32036646Y-18542028D01*
X31997941Y-18580733D01*
X31959237Y-18658142D01*
X75155485Y-76352695D02*
X74884552Y-75965647D01*
X74691028Y-76352695D02*
X74691028Y-75539895D01*
X75000666Y-75539895D01*
X75078076Y-75578600D01*
X75116780Y-75617304D01*
X75155485Y-75694714D01*
X75155485Y-75810828D01*
X75116780Y-75888238D01*
X75078076Y-75926942D01*
X75000666Y-75965647D01*
X74691028Y-75965647D01*
X75465123Y-75617304D02*
X75503828Y-75578600D01*
X75581238Y-75539895D01*
X75774761Y-75539895D01*
X75852171Y-75578600D01*
X75890876Y-75617304D01*
X75929580Y-75694714D01*
X75929580Y-75772123D01*
X75890876Y-75888238D01*
X75426419Y-76352695D01*
X75929580Y-76352695D01*
X76200514Y-75539895D02*
X76703676Y-75539895D01*
X76432742Y-75849533D01*
X76548857Y-75849533D01*
X76626266Y-75888238D01*
X76664971Y-75926942D01*
X76703676Y-76004352D01*
X76703676Y-76197876D01*
X76664971Y-76275285D01*
X76626266Y-76313990D01*
X76548857Y-76352695D01*
X76316628Y-76352695D01*
X76239219Y-76313990D01*
X76200514Y-76275285D01*
X71299485Y-75976285D02*
X71260780Y-76014990D01*
X71144666Y-76053695D01*
X71067257Y-76053695D01*
X70951142Y-76014990D01*
X70873733Y-75937580D01*
X70835028Y-75860171D01*
X70796323Y-75705352D01*
X70796323Y-75589238D01*
X70835028Y-75434419D01*
X70873733Y-75357009D01*
X70951142Y-75279600D01*
X71067257Y-75240895D01*
X71144666Y-75240895D01*
X71260780Y-75279600D01*
X71299485Y-75318304D01*
X72073580Y-76053695D02*
X71609123Y-76053695D01*
X71841352Y-76053695D02*
X71841352Y-75240895D01*
X71763942Y-75357009D01*
X71686533Y-75434419D01*
X71609123Y-75473123D01*
X72344514Y-75240895D02*
X72886380Y-75240895D01*
X72538038Y-76053695D01*
X84339208Y-35586994D02*
X84339208Y-36244975D01*
X84377912Y-36322384D01*
X84416617Y-36361089D01*
X84494027Y-36399794D01*
X84648846Y-36399794D01*
X84726255Y-36361089D01*
X84764960Y-36322384D01*
X84803665Y-36244975D01*
X84803665Y-35586994D01*
X85616465Y-36399794D02*
X85152008Y-36399794D01*
X85384236Y-36399794D02*
X85384236Y-35586994D01*
X85306827Y-35703108D01*
X85229417Y-35780518D01*
X85152008Y-35819222D01*
X86390560Y-36399794D02*
X85926103Y-36399794D01*
X86158332Y-36399794D02*
X86158332Y-35586994D01*
X86080922Y-35703108D01*
X86003512Y-35780518D01*
X85926103Y-35819222D01*
X98864695Y-79739971D02*
X98051895Y-79739971D01*
X98051895Y-79546447D01*
X98090600Y-79430333D01*
X98168009Y-79352923D01*
X98245419Y-79314219D01*
X98400238Y-79275514D01*
X98516352Y-79275514D01*
X98671171Y-79314219D01*
X98748580Y-79352923D01*
X98825990Y-79430333D01*
X98864695Y-79546447D01*
X98864695Y-79739971D01*
X98864695Y-78501419D02*
X98864695Y-78965876D01*
X98864695Y-78733647D02*
X98051895Y-78733647D01*
X98168009Y-78811057D01*
X98245419Y-78888466D01*
X98284123Y-78965876D01*
X98322828Y-77804733D02*
X98864695Y-77804733D01*
X98013190Y-77998257D02*
X98593761Y-78191780D01*
X98593761Y-77688619D01*
X16484995Y-27606465D02*
X16484995Y-27993513D01*
X15672195Y-27993513D01*
X15749604Y-27374237D02*
X15710900Y-27335532D01*
X15672195Y-27258122D01*
X15672195Y-27064599D01*
X15710900Y-26987189D01*
X15749604Y-26948484D01*
X15827014Y-26909779D01*
X15904423Y-26909779D01*
X16020538Y-26948484D01*
X16484995Y-27412941D01*
X16484995Y-26909779D01*
X96615485Y-107204285D02*
X96576780Y-107242990D01*
X96460666Y-107281695D01*
X96383257Y-107281695D01*
X96267142Y-107242990D01*
X96189733Y-107165580D01*
X96151028Y-107088171D01*
X96112323Y-106933352D01*
X96112323Y-106817238D01*
X96151028Y-106662419D01*
X96189733Y-106585009D01*
X96267142Y-106507600D01*
X96383257Y-106468895D01*
X96460666Y-106468895D01*
X96576780Y-106507600D01*
X96615485Y-106546304D01*
X97389580Y-107281695D02*
X96925123Y-107281695D01*
X97157352Y-107281695D02*
X97157352Y-106468895D01*
X97079942Y-106585009D01*
X97002533Y-106662419D01*
X96925123Y-106701123D01*
X98163676Y-107281695D02*
X97699219Y-107281695D01*
X97931447Y-107281695D02*
X97931447Y-106468895D01*
X97854038Y-106585009D01*
X97776628Y-106662419D01*
X97699219Y-106701123D01*
X100967485Y-100827695D02*
X100696552Y-100440647D01*
X100503028Y-100827695D02*
X100503028Y-100014895D01*
X100812666Y-100014895D01*
X100890076Y-100053600D01*
X100928780Y-100092304D01*
X100967485Y-100169714D01*
X100967485Y-100285828D01*
X100928780Y-100363238D01*
X100890076Y-100401942D01*
X100812666Y-100440647D01*
X100503028Y-100440647D01*
X101741580Y-100827695D02*
X101277123Y-100827695D01*
X101509352Y-100827695D02*
X101509352Y-100014895D01*
X101431942Y-100131009D01*
X101354533Y-100208419D01*
X101277123Y-100247123D01*
X102515676Y-100827695D02*
X102051219Y-100827695D01*
X102283447Y-100827695D02*
X102283447Y-100014895D01*
X102206038Y-100131009D01*
X102128628Y-100208419D01*
X102051219Y-100247123D01*
X66631533Y-79758695D02*
X66360600Y-79371647D01*
X66167076Y-79758695D02*
X66167076Y-78945895D01*
X66476714Y-78945895D01*
X66554123Y-78984600D01*
X66592828Y-79023304D01*
X66631533Y-79100714D01*
X66631533Y-79216828D01*
X66592828Y-79294238D01*
X66554123Y-79332942D01*
X66476714Y-79371647D01*
X66167076Y-79371647D01*
X66941171Y-79023304D02*
X66979876Y-78984600D01*
X67057285Y-78945895D01*
X67250809Y-78945895D01*
X67328219Y-78984600D01*
X67366923Y-79023304D01*
X67405628Y-79100714D01*
X67405628Y-79178123D01*
X67366923Y-79294238D01*
X66902466Y-79758695D01*
X67405628Y-79758695D01*
X92556276Y-91995466D02*
X92594981Y-92034171D01*
X92633686Y-92150285D01*
X92633686Y-92227695D01*
X92594981Y-92343809D01*
X92517571Y-92421219D01*
X92440162Y-92459923D01*
X92285343Y-92498628D01*
X92169229Y-92498628D01*
X92014410Y-92459923D01*
X91937000Y-92421219D01*
X91859591Y-92343809D01*
X91820886Y-92227695D01*
X91820886Y-92150285D01*
X91859591Y-92034171D01*
X91898295Y-91995466D01*
X91820886Y-91298780D02*
X91820886Y-91453600D01*
X91859591Y-91531009D01*
X91898295Y-91569714D01*
X92014410Y-91647123D01*
X92169229Y-91685828D01*
X92478867Y-91685828D01*
X92556276Y-91647123D01*
X92594981Y-91608419D01*
X92633686Y-91531009D01*
X92633686Y-91376190D01*
X92594981Y-91298780D01*
X92556276Y-91260076D01*
X92478867Y-91221371D01*
X92285343Y-91221371D01*
X92207933Y-91260076D01*
X92169229Y-91298780D01*
X92130524Y-91376190D01*
X92130524Y-91531009D01*
X92169229Y-91608419D01*
X92207933Y-91647123D01*
X92285343Y-91685828D01*
X13269066Y-101939895D02*
X13269066Y-102520466D01*
X13230361Y-102636580D01*
X13152952Y-102713990D01*
X13036838Y-102752695D01*
X12959428Y-102752695D01*
X13578704Y-101939895D02*
X14081866Y-101939895D01*
X13810933Y-102249533D01*
X13927047Y-102249533D01*
X14004457Y-102288238D01*
X14043161Y-102326942D01*
X14081866Y-102404352D01*
X14081866Y-102597876D01*
X14043161Y-102675285D01*
X14004457Y-102713990D01*
X13927047Y-102752695D01*
X13694819Y-102752695D01*
X13617409Y-102713990D01*
X13578704Y-102675285D01*
X92455657Y-83251942D02*
X92184724Y-83251942D01*
X92184724Y-83677695D02*
X92184724Y-82864895D01*
X92571771Y-82864895D01*
X93152343Y-83251942D02*
X93268457Y-83290647D01*
X93307162Y-83329352D01*
X93345867Y-83406761D01*
X93345867Y-83522876D01*
X93307162Y-83600285D01*
X93268457Y-83638990D01*
X93191048Y-83677695D01*
X92881410Y-83677695D01*
X92881410Y-82864895D01*
X93152343Y-82864895D01*
X93229752Y-82903600D01*
X93268457Y-82942304D01*
X93307162Y-83019714D01*
X93307162Y-83097123D01*
X93268457Y-83174533D01*
X93229752Y-83213238D01*
X93152343Y-83251942D01*
X92881410Y-83251942D01*
X94042552Y-83135828D02*
X94042552Y-83677695D01*
X93849029Y-82826190D02*
X93655505Y-83406761D01*
X94158667Y-83406761D01*
X93947485Y-80126285D02*
X93908780Y-80164990D01*
X93792666Y-80203695D01*
X93715257Y-80203695D01*
X93599142Y-80164990D01*
X93521733Y-80087580D01*
X93483028Y-80010171D01*
X93444323Y-79855352D01*
X93444323Y-79739238D01*
X93483028Y-79584419D01*
X93521733Y-79507009D01*
X93599142Y-79429600D01*
X93715257Y-79390895D01*
X93792666Y-79390895D01*
X93908780Y-79429600D01*
X93947485Y-79468304D01*
X94218419Y-79390895D02*
X94721580Y-79390895D01*
X94450647Y-79700533D01*
X94566761Y-79700533D01*
X94644171Y-79739238D01*
X94682876Y-79777942D01*
X94721580Y-79855352D01*
X94721580Y-80048876D01*
X94682876Y-80126285D01*
X94644171Y-80164990D01*
X94566761Y-80203695D01*
X94334533Y-80203695D01*
X94257123Y-80164990D01*
X94218419Y-80126285D01*
X94992514Y-79390895D02*
X95495676Y-79390895D01*
X95224742Y-79700533D01*
X95340857Y-79700533D01*
X95418266Y-79739238D01*
X95456971Y-79777942D01*
X95495676Y-79855352D01*
X95495676Y-80048876D01*
X95456971Y-80126285D01*
X95418266Y-80164990D01*
X95340857Y-80203695D01*
X95108628Y-80203695D01*
X95031219Y-80164990D01*
X94992514Y-80126285D01*
X90547485Y-59647285D02*
X90508780Y-59685990D01*
X90392666Y-59724695D01*
X90315257Y-59724695D01*
X90199142Y-59685990D01*
X90121733Y-59608580D01*
X90083028Y-59531171D01*
X90044323Y-59376352D01*
X90044323Y-59260238D01*
X90083028Y-59105419D01*
X90121733Y-59028009D01*
X90199142Y-58950600D01*
X90315257Y-58911895D01*
X90392666Y-58911895D01*
X90508780Y-58950600D01*
X90547485Y-58989304D01*
X90857123Y-58989304D02*
X90895828Y-58950600D01*
X90973238Y-58911895D01*
X91166761Y-58911895D01*
X91244171Y-58950600D01*
X91282876Y-58989304D01*
X91321580Y-59066714D01*
X91321580Y-59144123D01*
X91282876Y-59260238D01*
X90818419Y-59724695D01*
X91321580Y-59724695D01*
X91786038Y-59260238D02*
X91708628Y-59221533D01*
X91669923Y-59182828D01*
X91631219Y-59105419D01*
X91631219Y-59066714D01*
X91669923Y-58989304D01*
X91708628Y-58950600D01*
X91786038Y-58911895D01*
X91940857Y-58911895D01*
X92018266Y-58950600D01*
X92056971Y-58989304D01*
X92095676Y-59066714D01*
X92095676Y-59105419D01*
X92056971Y-59182828D01*
X92018266Y-59221533D01*
X91940857Y-59260238D01*
X91786038Y-59260238D01*
X91708628Y-59298942D01*
X91669923Y-59337647D01*
X91631219Y-59415057D01*
X91631219Y-59569876D01*
X91669923Y-59647285D01*
X91708628Y-59685990D01*
X91786038Y-59724695D01*
X91940857Y-59724695D01*
X92018266Y-59685990D01*
X92056971Y-59647285D01*
X92095676Y-59569876D01*
X92095676Y-59415057D01*
X92056971Y-59337647D01*
X92018266Y-59298942D01*
X91940857Y-59260238D01*
X103376702Y-48309453D02*
X102989654Y-48580387D01*
X103376702Y-48773910D02*
X102563902Y-48773910D01*
X102563902Y-48464272D01*
X102602607Y-48386863D01*
X102641311Y-48348158D01*
X102718721Y-48309453D01*
X102834835Y-48309453D01*
X102912245Y-48348158D01*
X102950949Y-48386863D01*
X102989654Y-48464272D01*
X102989654Y-48773910D01*
X102834835Y-47612767D02*
X103376702Y-47612767D01*
X102525197Y-47806291D02*
X103105768Y-47999815D01*
X103105768Y-47496653D01*
X32404694Y-23046514D02*
X32017646Y-23317447D01*
X32404694Y-23510971D02*
X31591894Y-23510971D01*
X31591894Y-23201333D01*
X31630599Y-23123923D01*
X31669303Y-23085219D01*
X31746713Y-23046514D01*
X31862827Y-23046514D01*
X31940237Y-23085219D01*
X31978941Y-23123923D01*
X32017646Y-23201333D01*
X32017646Y-23510971D01*
X31591894Y-22775580D02*
X31591894Y-22272419D01*
X31901532Y-22543352D01*
X31901532Y-22427238D01*
X31940237Y-22349828D01*
X31978941Y-22311123D01*
X32056351Y-22272419D01*
X32249875Y-22272419D01*
X32327284Y-22311123D01*
X32365989Y-22349828D01*
X32404694Y-22427238D01*
X32404694Y-22659466D01*
X32365989Y-22736876D01*
X32327284Y-22775580D01*
X31591894Y-22001485D02*
X31591894Y-21459619D01*
X32404694Y-21807961D01*
X93794276Y-92004466D02*
X93832981Y-92043171D01*
X93871686Y-92159285D01*
X93871686Y-92236695D01*
X93832981Y-92352809D01*
X93755571Y-92430219D01*
X93678162Y-92468923D01*
X93523343Y-92507628D01*
X93407229Y-92507628D01*
X93252410Y-92468923D01*
X93175000Y-92430219D01*
X93097591Y-92352809D01*
X93058886Y-92236695D01*
X93058886Y-92159285D01*
X93097591Y-92043171D01*
X93136295Y-92004466D01*
X93058886Y-91733533D02*
X93058886Y-91191666D01*
X93871686Y-91540009D01*
X88701895Y-46683114D02*
X88314847Y-46954047D01*
X88701895Y-47147571D02*
X87889095Y-47147571D01*
X87889095Y-46837933D01*
X87927800Y-46760523D01*
X87966504Y-46721819D01*
X88043914Y-46683114D01*
X88160028Y-46683114D01*
X88237438Y-46721819D01*
X88276142Y-46760523D01*
X88314847Y-46837933D01*
X88314847Y-47147571D01*
X88701895Y-45909019D02*
X88701895Y-46373476D01*
X88701895Y-46141247D02*
X87889095Y-46141247D01*
X88005209Y-46218657D01*
X88082619Y-46296066D01*
X88121323Y-46373476D01*
X87889095Y-45638085D02*
X87889095Y-45096219D01*
X88701895Y-45444561D01*
X80763285Y-55947514D02*
X80801990Y-55986219D01*
X80840695Y-56102333D01*
X80840695Y-56179742D01*
X80801990Y-56295857D01*
X80724580Y-56373266D01*
X80647171Y-56411971D01*
X80492352Y-56450676D01*
X80376238Y-56450676D01*
X80221419Y-56411971D01*
X80144009Y-56373266D01*
X80066600Y-56295857D01*
X80027895Y-56179742D01*
X80027895Y-56102333D01*
X80066600Y-55986219D01*
X80105304Y-55947514D01*
X80027895Y-55676580D02*
X80027895Y-55173419D01*
X80337533Y-55444352D01*
X80337533Y-55328238D01*
X80376238Y-55250828D01*
X80414942Y-55212123D01*
X80492352Y-55173419D01*
X80685876Y-55173419D01*
X80763285Y-55212123D01*
X80801990Y-55250828D01*
X80840695Y-55328238D01*
X80840695Y-55560466D01*
X80801990Y-55637876D01*
X80763285Y-55676580D01*
X80298828Y-54476733D02*
X80840695Y-54476733D01*
X79989190Y-54670257D02*
X80569761Y-54863780D01*
X80569761Y-54360619D01*
X74980285Y-101675466D02*
X75018990Y-101714171D01*
X75057695Y-101830285D01*
X75057695Y-101907695D01*
X75018990Y-102023809D01*
X74941580Y-102101219D01*
X74864171Y-102139923D01*
X74709352Y-102178628D01*
X74593238Y-102178628D01*
X74438419Y-102139923D01*
X74361009Y-102101219D01*
X74283600Y-102023809D01*
X74244895Y-101907695D01*
X74244895Y-101830285D01*
X74283600Y-101714171D01*
X74322304Y-101675466D01*
X74244895Y-100940076D02*
X74244895Y-101327123D01*
X74631942Y-101365828D01*
X74593238Y-101327123D01*
X74554533Y-101249714D01*
X74554533Y-101056190D01*
X74593238Y-100978780D01*
X74631942Y-100940076D01*
X74709352Y-100901371D01*
X74902876Y-100901371D01*
X74980285Y-100940076D01*
X75018990Y-100978780D01*
X75057695Y-101056190D01*
X75057695Y-101249714D01*
X75018990Y-101327123D01*
X74980285Y-101365828D01*
X89598485Y-42148285D02*
X89559780Y-42186990D01*
X89443666Y-42225695D01*
X89366257Y-42225695D01*
X89250142Y-42186990D01*
X89172733Y-42109580D01*
X89134028Y-42032171D01*
X89095323Y-41877352D01*
X89095323Y-41761238D01*
X89134028Y-41606419D01*
X89172733Y-41529009D01*
X89250142Y-41451600D01*
X89366257Y-41412895D01*
X89443666Y-41412895D01*
X89559780Y-41451600D01*
X89598485Y-41490304D01*
X90372580Y-42225695D02*
X89908123Y-42225695D01*
X90140352Y-42225695D02*
X90140352Y-41412895D01*
X90062942Y-41529009D01*
X89985533Y-41606419D01*
X89908123Y-41645123D01*
X90682219Y-41490304D02*
X90720923Y-41451600D01*
X90798333Y-41412895D01*
X90991857Y-41412895D01*
X91069266Y-41451600D01*
X91107971Y-41490304D01*
X91146676Y-41567714D01*
X91146676Y-41645123D01*
X91107971Y-41761238D01*
X90643514Y-42225695D01*
X91146676Y-42225695D01*
X60477933Y-9638095D02*
X60207000Y-9251047D01*
X60013476Y-9638095D02*
X60013476Y-8825295D01*
X60323114Y-8825295D01*
X60400523Y-8864000D01*
X60439228Y-8902704D01*
X60477933Y-8980114D01*
X60477933Y-9096228D01*
X60439228Y-9173638D01*
X60400523Y-9212342D01*
X60323114Y-9251047D01*
X60013476Y-9251047D01*
X60748866Y-8825295D02*
X61290733Y-8825295D01*
X60942390Y-9638095D01*
X54480485Y-73408695D02*
X54209552Y-73021647D01*
X54016028Y-73408695D02*
X54016028Y-72595895D01*
X54325666Y-72595895D01*
X54403076Y-72634600D01*
X54441780Y-72673304D01*
X54480485Y-72750714D01*
X54480485Y-72866828D01*
X54441780Y-72944238D01*
X54403076Y-72982942D01*
X54325666Y-73021647D01*
X54016028Y-73021647D01*
X55215876Y-72595895D02*
X54828828Y-72595895D01*
X54790123Y-72982942D01*
X54828828Y-72944238D01*
X54906238Y-72905533D01*
X55099761Y-72905533D01*
X55177171Y-72944238D01*
X55215876Y-72982942D01*
X55254580Y-73060352D01*
X55254580Y-73253876D01*
X55215876Y-73331285D01*
X55177171Y-73369990D01*
X55099761Y-73408695D01*
X54906238Y-73408695D01*
X54828828Y-73369990D01*
X54790123Y-73331285D01*
X55525514Y-72595895D02*
X56067380Y-72595895D01*
X55719038Y-73408695D01*
X77386067Y-95777695D02*
X77386067Y-94964895D01*
X77579591Y-94964895D01*
X77695705Y-95003600D01*
X77773114Y-95081009D01*
X77811819Y-95158419D01*
X77850524Y-95313238D01*
X77850524Y-95429352D01*
X77811819Y-95584171D01*
X77773114Y-95661580D01*
X77695705Y-95738990D01*
X77579591Y-95777695D01*
X77386067Y-95777695D01*
X78585914Y-94964895D02*
X78198867Y-94964895D01*
X78160162Y-95351942D01*
X78198867Y-95313238D01*
X78276276Y-95274533D01*
X78469800Y-95274533D01*
X78547210Y-95313238D01*
X78585914Y-95351942D01*
X78624619Y-95429352D01*
X78624619Y-95622876D01*
X78585914Y-95700285D01*
X78547210Y-95738990D01*
X78469800Y-95777695D01*
X78276276Y-95777695D01*
X78198867Y-95738990D01*
X78160162Y-95700285D01*
X85902485Y-30640695D02*
X85631552Y-30253647D01*
X85438028Y-30640695D02*
X85438028Y-29827895D01*
X85747666Y-29827895D01*
X85825076Y-29866600D01*
X85863780Y-29905304D01*
X85902485Y-29982714D01*
X85902485Y-30098828D01*
X85863780Y-30176238D01*
X85825076Y-30214942D01*
X85747666Y-30253647D01*
X85438028Y-30253647D01*
X86173419Y-29827895D02*
X86676580Y-29827895D01*
X86405647Y-30137533D01*
X86521761Y-30137533D01*
X86599171Y-30176238D01*
X86637876Y-30214942D01*
X86676580Y-30292352D01*
X86676580Y-30485876D01*
X86637876Y-30563285D01*
X86599171Y-30601990D01*
X86521761Y-30640695D01*
X86289533Y-30640695D01*
X86212123Y-30601990D01*
X86173419Y-30563285D01*
X86986219Y-29905304D02*
X87024923Y-29866600D01*
X87102333Y-29827895D01*
X87295857Y-29827895D01*
X87373266Y-29866600D01*
X87411971Y-29905304D01*
X87450676Y-29982714D01*
X87450676Y-30060123D01*
X87411971Y-30176238D01*
X86947514Y-30640695D01*
X87450676Y-30640695D01*
X10985485Y-13822695D02*
X10714552Y-13435647D01*
X10521028Y-13822695D02*
X10521028Y-13009895D01*
X10830666Y-13009895D01*
X10908076Y-13048600D01*
X10946780Y-13087304D01*
X10985485Y-13164714D01*
X10985485Y-13280828D01*
X10946780Y-13358238D01*
X10908076Y-13396942D01*
X10830666Y-13435647D01*
X10521028Y-13435647D01*
X11682171Y-13280828D02*
X11682171Y-13822695D01*
X11488647Y-12971190D02*
X11295123Y-13551761D01*
X11798285Y-13551761D01*
X12262742Y-13009895D02*
X12340152Y-13009895D01*
X12417561Y-13048600D01*
X12456266Y-13087304D01*
X12494971Y-13164714D01*
X12533676Y-13319533D01*
X12533676Y-13513057D01*
X12494971Y-13667876D01*
X12456266Y-13745285D01*
X12417561Y-13783990D01*
X12340152Y-13822695D01*
X12262742Y-13822695D01*
X12185333Y-13783990D01*
X12146628Y-13745285D01*
X12107923Y-13667876D01*
X12069219Y-13513057D01*
X12069219Y-13319533D01*
X12107923Y-13164714D01*
X12146628Y-13087304D01*
X12185333Y-13048600D01*
X12262742Y-13009895D01*
X106294533Y-89340695D02*
X105907485Y-89340695D01*
X105907485Y-88527895D01*
X106991219Y-89340695D02*
X106526761Y-89340695D01*
X106758990Y-89340695D02*
X106758990Y-88527895D01*
X106681580Y-88644009D01*
X106604171Y-88721419D01*
X106526761Y-88760123D01*
X106029485Y-80474695D02*
X105758552Y-80087647D01*
X105565028Y-80474695D02*
X105565028Y-79661895D01*
X105874666Y-79661895D01*
X105952076Y-79700600D01*
X105990780Y-79739304D01*
X106029485Y-79816714D01*
X106029485Y-79932828D01*
X105990780Y-80010238D01*
X105952076Y-80048942D01*
X105874666Y-80087647D01*
X105565028Y-80087647D01*
X106803580Y-80474695D02*
X106339123Y-80474695D01*
X106571352Y-80474695D02*
X106571352Y-79661895D01*
X106493942Y-79778009D01*
X106416533Y-79855419D01*
X106339123Y-79894123D01*
X107074514Y-79661895D02*
X107577676Y-79661895D01*
X107306742Y-79971533D01*
X107422857Y-79971533D01*
X107500266Y-80010238D01*
X107538971Y-80048942D01*
X107577676Y-80126352D01*
X107577676Y-80319876D01*
X107538971Y-80397285D01*
X107500266Y-80435990D01*
X107422857Y-80474695D01*
X107190628Y-80474695D01*
X107113219Y-80435990D01*
X107074514Y-80397285D01*
D17*
X9217349Y-3265859D02*
X9217349Y-3980825D01*
X9169684Y-4123818D01*
X9074355Y-4219147D01*
X8931362Y-4266812D01*
X8836033Y-4266812D01*
X10218302Y-4266812D02*
X9646328Y-4266812D01*
X9932315Y-4266812D02*
X9932315Y-3265859D01*
X9836986Y-3408852D01*
X9741657Y-3504181D01*
X9646328Y-3551845D01*
X35927349Y-103979859D02*
X35927349Y-104694825D01*
X35879684Y-104837818D01*
X35784355Y-104933147D01*
X35641362Y-104980812D01*
X35546033Y-104980812D01*
X36356328Y-104075187D02*
X36403993Y-104027523D01*
X36499322Y-103979859D01*
X36737644Y-103979859D01*
X36832973Y-104027523D01*
X36880637Y-104075187D01*
X36928302Y-104170516D01*
X36928302Y-104265845D01*
X36880637Y-104408838D01*
X36308664Y-104980812D01*
X36928302Y-104980812D01*
D18*
X26593485Y-29983083D02*
X26554780Y-30021788D01*
X26438666Y-30060493D01*
X26361257Y-30060493D01*
X26245142Y-30021788D01*
X26167733Y-29944378D01*
X26129028Y-29866969D01*
X26090323Y-29712150D01*
X26090323Y-29596036D01*
X26129028Y-29441217D01*
X26167733Y-29363807D01*
X26245142Y-29286398D01*
X26361257Y-29247693D01*
X26438666Y-29247693D01*
X26554780Y-29286398D01*
X26593485Y-29325102D01*
X26864419Y-29247693D02*
X27367580Y-29247693D01*
X27096647Y-29557331D01*
X27212761Y-29557331D01*
X27290171Y-29596036D01*
X27328876Y-29634740D01*
X27367580Y-29712150D01*
X27367580Y-29905674D01*
X27328876Y-29983083D01*
X27290171Y-30021788D01*
X27212761Y-30060493D01*
X26980533Y-30060493D01*
X26903123Y-30021788D01*
X26864419Y-29983083D01*
X28102971Y-29247693D02*
X27715923Y-29247693D01*
X27677219Y-29634740D01*
X27715923Y-29596036D01*
X27793333Y-29557331D01*
X27986857Y-29557331D01*
X28064266Y-29596036D01*
X28102971Y-29634740D01*
X28141676Y-29712150D01*
X28141676Y-29905674D01*
X28102971Y-29983083D01*
X28064266Y-30021788D01*
X27986857Y-30060493D01*
X27793333Y-30060493D01*
X27715923Y-30021788D01*
X27677219Y-29983083D01*
X74050129Y-69188880D02*
X74011424Y-69227585D01*
X73895310Y-69266290D01*
X73817900Y-69266290D01*
X73701786Y-69227585D01*
X73624376Y-69150175D01*
X73585672Y-69072766D01*
X73546967Y-68917947D01*
X73546967Y-68801833D01*
X73585672Y-68647014D01*
X73624376Y-68569604D01*
X73701786Y-68492195D01*
X73817900Y-68453490D01*
X73895310Y-68453490D01*
X74011424Y-68492195D01*
X74050129Y-68530899D01*
X74321062Y-68453490D02*
X74824224Y-68453490D01*
X74553291Y-68763128D01*
X74669405Y-68763128D01*
X74746815Y-68801833D01*
X74785519Y-68840537D01*
X74824224Y-68917947D01*
X74824224Y-69111471D01*
X74785519Y-69188880D01*
X74746815Y-69227585D01*
X74669405Y-69266290D01*
X74437176Y-69266290D01*
X74359767Y-69227585D01*
X74321062Y-69188880D01*
X9673714Y-32836695D02*
X9673714Y-32023895D01*
X9944647Y-32604466D01*
X10215580Y-32023895D01*
X10215580Y-32836695D01*
X10718742Y-32836695D02*
X10641333Y-32797990D01*
X10602628Y-32759285D01*
X10563923Y-32681876D01*
X10563923Y-32449647D01*
X10602628Y-32372238D01*
X10641333Y-32333533D01*
X10718742Y-32294828D01*
X10834857Y-32294828D01*
X10912266Y-32333533D01*
X10950971Y-32372238D01*
X10989676Y-32449647D01*
X10989676Y-32681876D01*
X10950971Y-32759285D01*
X10912266Y-32797990D01*
X10834857Y-32836695D01*
X10718742Y-32836695D01*
X11686361Y-32836695D02*
X11686361Y-32023895D01*
X11686361Y-32797990D02*
X11608952Y-32836695D01*
X11454133Y-32836695D01*
X11376723Y-32797990D01*
X11338019Y-32759285D01*
X11299314Y-32681876D01*
X11299314Y-32449647D01*
X11338019Y-32372238D01*
X11376723Y-32333533D01*
X11454133Y-32294828D01*
X11608952Y-32294828D01*
X11686361Y-32333533D01*
X12421752Y-32294828D02*
X12421752Y-32836695D01*
X12073409Y-32294828D02*
X12073409Y-32720580D01*
X12112114Y-32797990D01*
X12189523Y-32836695D01*
X12305638Y-32836695D01*
X12383047Y-32797990D01*
X12421752Y-32759285D01*
X12924914Y-32836695D02*
X12847504Y-32797990D01*
X12808800Y-32720580D01*
X12808800Y-32023895D01*
X13544190Y-32797990D02*
X13466780Y-32836695D01*
X13311961Y-32836695D01*
X13234552Y-32797990D01*
X13195847Y-32720580D01*
X13195847Y-32410942D01*
X13234552Y-32333533D01*
X13311961Y-32294828D01*
X13466780Y-32294828D01*
X13544190Y-32333533D01*
X13582895Y-32410942D01*
X13582895Y-32488352D01*
X13195847Y-32565761D01*
X14356990Y-32836695D02*
X13892533Y-32836695D01*
X14124761Y-32836695D02*
X14124761Y-32023895D01*
X14047352Y-32140009D01*
X13969942Y-32217419D01*
X13892533Y-32256123D01*
X19117485Y-16550285D02*
X19078780Y-16588990D01*
X18962666Y-16627695D01*
X18885257Y-16627695D01*
X18769142Y-16588990D01*
X18691733Y-16511580D01*
X18653028Y-16434171D01*
X18614323Y-16279352D01*
X18614323Y-16163238D01*
X18653028Y-16008419D01*
X18691733Y-15931009D01*
X18769142Y-15853600D01*
X18885257Y-15814895D01*
X18962666Y-15814895D01*
X19078780Y-15853600D01*
X19117485Y-15892304D01*
X19814171Y-16085828D02*
X19814171Y-16627695D01*
X19620647Y-15776190D02*
X19427123Y-16356761D01*
X19930285Y-16356761D01*
X20162514Y-15814895D02*
X20704380Y-15814895D01*
X20356038Y-16627695D01*
D19*
X65916354Y-89751867D02*
X65916354Y-90466822D01*
X65868690Y-90609813D01*
X65773363Y-90705141D01*
X65630372Y-90752804D01*
X65535045Y-90752804D01*
X66440654Y-90752804D02*
X66631309Y-90752804D01*
X66726636Y-90705141D01*
X66774300Y-90657477D01*
X66869627Y-90514486D01*
X66917291Y-90323831D01*
X66917291Y-89942522D01*
X66869627Y-89847195D01*
X66821964Y-89799531D01*
X66726636Y-89751867D01*
X66535982Y-89751867D01*
X66440654Y-89799531D01*
X66392991Y-89847195D01*
X66345327Y-89942522D01*
X66345327Y-90180840D01*
X66392991Y-90276168D01*
X66440654Y-90323831D01*
X66535982Y-90371495D01*
X66726636Y-90371495D01*
X66821964Y-90323831D01*
X66869627Y-90276168D01*
X66917291Y-90180840D01*
D18*
X93411285Y-39102514D02*
X93449990Y-39141219D01*
X93488695Y-39257333D01*
X93488695Y-39334742D01*
X93449990Y-39450857D01*
X93372580Y-39528266D01*
X93295171Y-39566971D01*
X93140352Y-39605676D01*
X93024238Y-39605676D01*
X92869419Y-39566971D01*
X92792009Y-39528266D01*
X92714600Y-39450857D01*
X92675895Y-39334742D01*
X92675895Y-39257333D01*
X92714600Y-39141219D01*
X92753304Y-39102514D01*
X92675895Y-38367123D02*
X92675895Y-38754171D01*
X93062942Y-38792876D01*
X93024238Y-38754171D01*
X92985533Y-38676761D01*
X92985533Y-38483238D01*
X93024238Y-38405828D01*
X93062942Y-38367123D01*
X93140352Y-38328419D01*
X93333876Y-38328419D01*
X93411285Y-38367123D01*
X93449990Y-38405828D01*
X93488695Y-38483238D01*
X93488695Y-38676761D01*
X93449990Y-38754171D01*
X93411285Y-38792876D01*
X92675895Y-37593028D02*
X92675895Y-37980076D01*
X93062942Y-38018780D01*
X93024238Y-37980076D01*
X92985533Y-37902666D01*
X92985533Y-37709142D01*
X93024238Y-37631733D01*
X93062942Y-37593028D01*
X93140352Y-37554323D01*
X93333876Y-37554323D01*
X93411285Y-37593028D01*
X93449990Y-37631733D01*
X93488695Y-37709142D01*
X93488695Y-37902666D01*
X93449990Y-37980076D01*
X93411285Y-38018780D01*
X107091285Y-73013514D02*
X107129990Y-73052219D01*
X107168695Y-73168333D01*
X107168695Y-73245742D01*
X107129990Y-73361857D01*
X107052580Y-73439266D01*
X106975171Y-73477971D01*
X106820352Y-73516676D01*
X106704238Y-73516676D01*
X106549419Y-73477971D01*
X106472009Y-73439266D01*
X106394600Y-73361857D01*
X106355895Y-73245742D01*
X106355895Y-73168333D01*
X106394600Y-73052219D01*
X106433304Y-73013514D01*
X106433304Y-72703876D02*
X106394600Y-72665171D01*
X106355895Y-72587761D01*
X106355895Y-72394238D01*
X106394600Y-72316828D01*
X106433304Y-72278123D01*
X106510714Y-72239419D01*
X106588123Y-72239419D01*
X106704238Y-72278123D01*
X107168695Y-72742580D01*
X107168695Y-72239419D01*
X106355895Y-71504028D02*
X106355895Y-71891076D01*
X106742942Y-71929780D01*
X106704238Y-71891076D01*
X106665533Y-71813666D01*
X106665533Y-71620142D01*
X106704238Y-71542733D01*
X106742942Y-71504028D01*
X106820352Y-71465323D01*
X107013876Y-71465323D01*
X107091285Y-71504028D01*
X107129990Y-71542733D01*
X107168695Y-71620142D01*
X107168695Y-71813666D01*
X107129990Y-71891076D01*
X107091285Y-71929780D01*
X75206285Y-74488095D02*
X74935352Y-74101047D01*
X74741828Y-74488095D02*
X74741828Y-73675295D01*
X75051466Y-73675295D01*
X75128876Y-73714000D01*
X75167580Y-73752704D01*
X75206285Y-73830114D01*
X75206285Y-73946228D01*
X75167580Y-74023638D01*
X75128876Y-74062342D01*
X75051466Y-74101047D01*
X74741828Y-74101047D01*
X75980380Y-74488095D02*
X75515923Y-74488095D01*
X75748152Y-74488095D02*
X75748152Y-73675295D01*
X75670742Y-73791409D01*
X75593333Y-73868819D01*
X75515923Y-73907523D01*
X76444838Y-74023638D02*
X76367428Y-73984933D01*
X76328723Y-73946228D01*
X76290019Y-73868819D01*
X76290019Y-73830114D01*
X76328723Y-73752704D01*
X76367428Y-73714000D01*
X76444838Y-73675295D01*
X76599657Y-73675295D01*
X76677066Y-73714000D01*
X76715771Y-73752704D01*
X76754476Y-73830114D01*
X76754476Y-73868819D01*
X76715771Y-73946228D01*
X76677066Y-73984933D01*
X76599657Y-74023638D01*
X76444838Y-74023638D01*
X76367428Y-74062342D01*
X76328723Y-74101047D01*
X76290019Y-74178457D01*
X76290019Y-74333276D01*
X76328723Y-74410685D01*
X76367428Y-74449390D01*
X76444838Y-74488095D01*
X76599657Y-74488095D01*
X76677066Y-74449390D01*
X76715771Y-74410685D01*
X76754476Y-74333276D01*
X76754476Y-74178457D01*
X76715771Y-74101047D01*
X76677066Y-74062342D01*
X76599657Y-74023638D01*
X12548676Y-19633895D02*
X12548676Y-20291876D01*
X12587380Y-20369285D01*
X12626085Y-20407990D01*
X12703495Y-20446695D01*
X12858314Y-20446695D01*
X12935723Y-20407990D01*
X12974428Y-20369285D01*
X13013133Y-20291876D01*
X13013133Y-19633895D01*
X13825933Y-20446695D02*
X13361476Y-20446695D01*
X13593704Y-20446695D02*
X13593704Y-19633895D01*
X13516295Y-19750009D01*
X13438885Y-19827419D01*
X13361476Y-19866123D01*
X14329095Y-19633895D02*
X14406504Y-19633895D01*
X14483914Y-19672600D01*
X14522619Y-19711304D01*
X14561323Y-19788714D01*
X14600028Y-19943533D01*
X14600028Y-20137057D01*
X14561323Y-20291876D01*
X14522619Y-20369285D01*
X14483914Y-20407990D01*
X14406504Y-20446695D01*
X14329095Y-20446695D01*
X14251685Y-20407990D01*
X14212980Y-20369285D01*
X14174276Y-20291876D01*
X14135571Y-20137057D01*
X14135571Y-19943533D01*
X14174276Y-19788714D01*
X14212980Y-19711304D01*
X14251685Y-19672600D01*
X14329095Y-19633895D01*
X36376484Y-30414888D02*
X36337779Y-30453593D01*
X36221665Y-30492298D01*
X36144256Y-30492298D01*
X36028141Y-30453593D01*
X35950732Y-30376183D01*
X35912027Y-30298774D01*
X35873322Y-30143955D01*
X35873322Y-30027841D01*
X35912027Y-29873022D01*
X35950732Y-29795612D01*
X36028141Y-29718203D01*
X36144256Y-29679498D01*
X36221665Y-29679498D01*
X36337779Y-29718203D01*
X36376484Y-29756907D01*
X37111875Y-29679498D02*
X36724827Y-29679498D01*
X36686122Y-30066545D01*
X36724827Y-30027841D01*
X36802237Y-29989136D01*
X36995760Y-29989136D01*
X37073170Y-30027841D01*
X37111875Y-30066545D01*
X37150579Y-30143955D01*
X37150579Y-30337479D01*
X37111875Y-30414888D01*
X37073170Y-30453593D01*
X36995760Y-30492298D01*
X36802237Y-30492298D01*
X36724827Y-30453593D01*
X36686122Y-30414888D01*
X37537627Y-30492298D02*
X37692446Y-30492298D01*
X37769856Y-30453593D01*
X37808560Y-30414888D01*
X37885970Y-30298774D01*
X37924675Y-30143955D01*
X37924675Y-29834317D01*
X37885970Y-29756907D01*
X37847265Y-29718203D01*
X37769856Y-29679498D01*
X37615037Y-29679498D01*
X37537627Y-29718203D01*
X37498922Y-29756907D01*
X37460218Y-29834317D01*
X37460218Y-30027841D01*
X37498922Y-30105250D01*
X37537627Y-30143955D01*
X37615037Y-30182660D01*
X37769856Y-30182660D01*
X37847265Y-30143955D01*
X37885970Y-30105250D01*
X37924675Y-30027841D01*
X42283284Y-14326114D02*
X42321989Y-14364819D01*
X42360694Y-14480933D01*
X42360694Y-14558342D01*
X42321989Y-14674457D01*
X42244579Y-14751866D01*
X42167170Y-14790571D01*
X42012351Y-14829276D01*
X41896237Y-14829276D01*
X41741418Y-14790571D01*
X41664008Y-14751866D01*
X41586599Y-14674457D01*
X41547894Y-14558342D01*
X41547894Y-14480933D01*
X41586599Y-14364819D01*
X41625303Y-14326114D01*
X41547894Y-13629428D02*
X41547894Y-13784247D01*
X41586599Y-13861657D01*
X41625303Y-13900361D01*
X41741418Y-13977771D01*
X41896237Y-14016476D01*
X42205875Y-14016476D01*
X42283284Y-13977771D01*
X42321989Y-13939066D01*
X42360694Y-13861657D01*
X42360694Y-13706838D01*
X42321989Y-13629428D01*
X42283284Y-13590723D01*
X42205875Y-13552019D01*
X42012351Y-13552019D01*
X41934941Y-13590723D01*
X41896237Y-13629428D01*
X41857532Y-13706838D01*
X41857532Y-13861657D01*
X41896237Y-13939066D01*
X41934941Y-13977771D01*
X42012351Y-14016476D01*
X42360694Y-12777923D02*
X42360694Y-13242380D01*
X42360694Y-13010152D02*
X41547894Y-13010152D01*
X41664008Y-13087561D01*
X41741418Y-13164971D01*
X41780122Y-13242380D01*
X52809485Y-55881285D02*
X52770780Y-55919990D01*
X52654666Y-55958695D01*
X52577257Y-55958695D01*
X52461142Y-55919990D01*
X52383733Y-55842580D01*
X52345028Y-55765171D01*
X52306323Y-55610352D01*
X52306323Y-55494238D01*
X52345028Y-55339419D01*
X52383733Y-55262009D01*
X52461142Y-55184600D01*
X52577257Y-55145895D01*
X52654666Y-55145895D01*
X52770780Y-55184600D01*
X52809485Y-55223304D01*
X53080419Y-55145895D02*
X53583580Y-55145895D01*
X53312647Y-55455533D01*
X53428761Y-55455533D01*
X53506171Y-55494238D01*
X53544876Y-55532942D01*
X53583580Y-55610352D01*
X53583580Y-55803876D01*
X53544876Y-55881285D01*
X53506171Y-55919990D01*
X53428761Y-55958695D01*
X53196533Y-55958695D01*
X53119123Y-55919990D01*
X53080419Y-55881285D01*
X53970628Y-55958695D02*
X54125447Y-55958695D01*
X54202857Y-55919990D01*
X54241561Y-55881285D01*
X54318971Y-55765171D01*
X54357676Y-55610352D01*
X54357676Y-55300714D01*
X54318971Y-55223304D01*
X54280266Y-55184600D01*
X54202857Y-55145895D01*
X54048038Y-55145895D01*
X53970628Y-55184600D01*
X53931923Y-55223304D01*
X53893219Y-55300714D01*
X53893219Y-55494238D01*
X53931923Y-55571647D01*
X53970628Y-55610352D01*
X54048038Y-55649057D01*
X54202857Y-55649057D01*
X54280266Y-55610352D01*
X54318971Y-55571647D01*
X54357676Y-55494238D01*
X14667485Y-16950285D02*
X14628780Y-16988990D01*
X14512666Y-17027695D01*
X14435257Y-17027695D01*
X14319142Y-16988990D01*
X14241733Y-16911580D01*
X14203028Y-16834171D01*
X14164323Y-16679352D01*
X14164323Y-16563238D01*
X14203028Y-16408419D01*
X14241733Y-16331009D01*
X14319142Y-16253600D01*
X14435257Y-16214895D01*
X14512666Y-16214895D01*
X14628780Y-16253600D01*
X14667485Y-16292304D01*
X15364171Y-16485828D02*
X15364171Y-17027695D01*
X15170647Y-16176190D02*
X14977123Y-16756761D01*
X15480285Y-16756761D01*
X15906038Y-16563238D02*
X15828628Y-16524533D01*
X15789923Y-16485828D01*
X15751219Y-16408419D01*
X15751219Y-16369714D01*
X15789923Y-16292304D01*
X15828628Y-16253600D01*
X15906038Y-16214895D01*
X16060857Y-16214895D01*
X16138266Y-16253600D01*
X16176971Y-16292304D01*
X16215676Y-16369714D01*
X16215676Y-16408419D01*
X16176971Y-16485828D01*
X16138266Y-16524533D01*
X16060857Y-16563238D01*
X15906038Y-16563238D01*
X15828628Y-16601942D01*
X15789923Y-16640647D01*
X15751219Y-16718057D01*
X15751219Y-16872876D01*
X15789923Y-16950285D01*
X15828628Y-16988990D01*
X15906038Y-17027695D01*
X16060857Y-17027695D01*
X16138266Y-16988990D01*
X16176971Y-16950285D01*
X16215676Y-16872876D01*
X16215676Y-16718057D01*
X16176971Y-16640647D01*
X16138266Y-16601942D01*
X16060857Y-16563238D01*
X91746396Y-56156514D02*
X91359348Y-56427447D01*
X91746396Y-56620971D02*
X90933596Y-56620971D01*
X90933596Y-56311333D01*
X90972301Y-56233923D01*
X91011005Y-56195219D01*
X91088415Y-56156514D01*
X91204529Y-56156514D01*
X91281939Y-56195219D01*
X91320643Y-56233923D01*
X91359348Y-56311333D01*
X91359348Y-56620971D01*
X91011005Y-55846876D02*
X90972301Y-55808171D01*
X90933596Y-55730761D01*
X90933596Y-55537238D01*
X90972301Y-55459828D01*
X91011005Y-55421123D01*
X91088415Y-55382419D01*
X91165824Y-55382419D01*
X91281939Y-55421123D01*
X91746396Y-55885580D01*
X91746396Y-55382419D01*
X90933596Y-54647028D02*
X90933596Y-55034076D01*
X91320643Y-55072780D01*
X91281939Y-55034076D01*
X91243234Y-54956666D01*
X91243234Y-54763142D01*
X91281939Y-54685733D01*
X91320643Y-54647028D01*
X91398053Y-54608323D01*
X91591577Y-54608323D01*
X91668986Y-54647028D01*
X91707691Y-54685733D01*
X91746396Y-54763142D01*
X91746396Y-54956666D01*
X91707691Y-55034076D01*
X91668986Y-55072780D01*
X13428185Y-26694485D02*
X13389480Y-26733190D01*
X13273366Y-26771895D01*
X13195957Y-26771895D01*
X13079842Y-26733190D01*
X13002433Y-26655780D01*
X12963728Y-26578371D01*
X12925023Y-26423552D01*
X12925023Y-26307438D01*
X12963728Y-26152619D01*
X13002433Y-26075209D01*
X13079842Y-25997800D01*
X13195957Y-25959095D01*
X13273366Y-25959095D01*
X13389480Y-25997800D01*
X13428185Y-26036504D01*
X13699119Y-25959095D02*
X14202280Y-25959095D01*
X13931347Y-26268733D01*
X14047461Y-26268733D01*
X14124871Y-26307438D01*
X14163576Y-26346142D01*
X14202280Y-26423552D01*
X14202280Y-26617076D01*
X14163576Y-26694485D01*
X14124871Y-26733190D01*
X14047461Y-26771895D01*
X13815233Y-26771895D01*
X13737823Y-26733190D01*
X13699119Y-26694485D01*
X14705442Y-25959095D02*
X14782852Y-25959095D01*
X14860261Y-25997800D01*
X14898966Y-26036504D01*
X14937671Y-26113914D01*
X14976376Y-26268733D01*
X14976376Y-26462257D01*
X14937671Y-26617076D01*
X14898966Y-26694485D01*
X14860261Y-26733190D01*
X14782852Y-26771895D01*
X14705442Y-26771895D01*
X14628033Y-26733190D01*
X14589328Y-26694485D01*
X14550623Y-26617076D01*
X14511919Y-26462257D01*
X14511919Y-26268733D01*
X14550623Y-26113914D01*
X14589328Y-26036504D01*
X14628033Y-25997800D01*
X14705442Y-25959095D01*
X92761695Y-56156514D02*
X92374647Y-56427447D01*
X92761695Y-56620971D02*
X91948895Y-56620971D01*
X91948895Y-56311333D01*
X91987600Y-56233923D01*
X92026304Y-56195219D01*
X92103714Y-56156514D01*
X92219828Y-56156514D01*
X92297238Y-56195219D01*
X92335942Y-56233923D01*
X92374647Y-56311333D01*
X92374647Y-56620971D01*
X92026304Y-55846876D02*
X91987600Y-55808171D01*
X91948895Y-55730761D01*
X91948895Y-55537238D01*
X91987600Y-55459828D01*
X92026304Y-55421123D01*
X92103714Y-55382419D01*
X92181123Y-55382419D01*
X92297238Y-55421123D01*
X92761695Y-55885580D01*
X92761695Y-55382419D01*
X91948895Y-54685733D02*
X91948895Y-54840552D01*
X91987600Y-54917961D01*
X92026304Y-54956666D01*
X92142419Y-55034076D01*
X92297238Y-55072780D01*
X92606876Y-55072780D01*
X92684285Y-55034076D01*
X92722990Y-54995371D01*
X92761695Y-54917961D01*
X92761695Y-54763142D01*
X92722990Y-54685733D01*
X92684285Y-54647028D01*
X92606876Y-54608323D01*
X92413352Y-54608323D01*
X92335942Y-54647028D01*
X92297238Y-54685733D01*
X92258533Y-54763142D01*
X92258533Y-54917961D01*
X92297238Y-54995371D01*
X92335942Y-55034076D01*
X92413352Y-55072780D01*
X92039485Y-42134285D02*
X92000780Y-42172990D01*
X91884666Y-42211695D01*
X91807257Y-42211695D01*
X91691142Y-42172990D01*
X91613733Y-42095580D01*
X91575028Y-42018171D01*
X91536323Y-41863352D01*
X91536323Y-41747238D01*
X91575028Y-41592419D01*
X91613733Y-41515009D01*
X91691142Y-41437600D01*
X91807257Y-41398895D01*
X91884666Y-41398895D01*
X92000780Y-41437600D01*
X92039485Y-41476304D01*
X92813580Y-42211695D02*
X92349123Y-42211695D01*
X92581352Y-42211695D02*
X92581352Y-41398895D01*
X92503942Y-41515009D01*
X92426533Y-41592419D01*
X92349123Y-41631123D01*
X93548971Y-41398895D02*
X93161923Y-41398895D01*
X93123219Y-41785942D01*
X93161923Y-41747238D01*
X93239333Y-41708533D01*
X93432857Y-41708533D01*
X93510266Y-41747238D01*
X93548971Y-41785942D01*
X93587676Y-41863352D01*
X93587676Y-42056876D01*
X93548971Y-42134285D01*
X93510266Y-42172990D01*
X93432857Y-42211695D01*
X93239333Y-42211695D01*
X93161923Y-42172990D01*
X93123219Y-42134285D01*
X75714285Y-78904514D02*
X75752990Y-78943219D01*
X75791695Y-79059333D01*
X75791695Y-79136742D01*
X75752990Y-79252857D01*
X75675580Y-79330266D01*
X75598171Y-79368971D01*
X75443352Y-79407676D01*
X75327238Y-79407676D01*
X75172419Y-79368971D01*
X75095009Y-79330266D01*
X75017600Y-79252857D01*
X74978895Y-79136742D01*
X74978895Y-79059333D01*
X75017600Y-78943219D01*
X75056304Y-78904514D01*
X74978895Y-78633580D02*
X74978895Y-78130419D01*
X75288533Y-78401352D01*
X75288533Y-78285238D01*
X75327238Y-78207828D01*
X75365942Y-78169123D01*
X75443352Y-78130419D01*
X75636876Y-78130419D01*
X75714285Y-78169123D01*
X75752990Y-78207828D01*
X75791695Y-78285238D01*
X75791695Y-78517466D01*
X75752990Y-78594876D01*
X75714285Y-78633580D01*
X75327238Y-77665961D02*
X75288533Y-77743371D01*
X75249828Y-77782076D01*
X75172419Y-77820780D01*
X75133714Y-77820780D01*
X75056304Y-77782076D01*
X75017600Y-77743371D01*
X74978895Y-77665961D01*
X74978895Y-77511142D01*
X75017600Y-77433733D01*
X75056304Y-77395028D01*
X75133714Y-77356323D01*
X75172419Y-77356323D01*
X75249828Y-77395028D01*
X75288533Y-77433733D01*
X75327238Y-77511142D01*
X75327238Y-77665961D01*
X75365942Y-77743371D01*
X75404647Y-77782076D01*
X75482057Y-77820780D01*
X75636876Y-77820780D01*
X75714285Y-77782076D01*
X75752990Y-77743371D01*
X75791695Y-77665961D01*
X75791695Y-77511142D01*
X75752990Y-77433733D01*
X75714285Y-77395028D01*
X75636876Y-77356323D01*
X75482057Y-77356323D01*
X75404647Y-77395028D01*
X75365942Y-77433733D01*
X75327238Y-77511142D01*
X83078485Y-48830285D02*
X83039780Y-48868990D01*
X82923666Y-48907695D01*
X82846257Y-48907695D01*
X82730142Y-48868990D01*
X82652733Y-48791580D01*
X82614028Y-48714171D01*
X82575323Y-48559352D01*
X82575323Y-48443238D01*
X82614028Y-48288419D01*
X82652733Y-48211009D01*
X82730142Y-48133600D01*
X82846257Y-48094895D01*
X82923666Y-48094895D01*
X83039780Y-48133600D01*
X83078485Y-48172304D01*
X83813876Y-48094895D02*
X83426828Y-48094895D01*
X83388123Y-48481942D01*
X83426828Y-48443238D01*
X83504238Y-48404533D01*
X83697761Y-48404533D01*
X83775171Y-48443238D01*
X83813876Y-48481942D01*
X83852580Y-48559352D01*
X83852580Y-48752876D01*
X83813876Y-48830285D01*
X83775171Y-48868990D01*
X83697761Y-48907695D01*
X83504238Y-48907695D01*
X83426828Y-48868990D01*
X83388123Y-48830285D01*
X84355742Y-48094895D02*
X84433152Y-48094895D01*
X84510561Y-48133600D01*
X84549266Y-48172304D01*
X84587971Y-48249714D01*
X84626676Y-48404533D01*
X84626676Y-48598057D01*
X84587971Y-48752876D01*
X84549266Y-48830285D01*
X84510561Y-48868990D01*
X84433152Y-48907695D01*
X84355742Y-48907695D01*
X84278333Y-48868990D01*
X84239628Y-48830285D01*
X84200923Y-48752876D01*
X84162219Y-48598057D01*
X84162219Y-48404533D01*
X84200923Y-48249714D01*
X84239628Y-48172304D01*
X84278333Y-48133600D01*
X84355742Y-48094895D01*
X81315885Y-65581885D02*
X81277180Y-65620590D01*
X81161066Y-65659295D01*
X81083657Y-65659295D01*
X80967542Y-65620590D01*
X80890133Y-65543180D01*
X80851428Y-65465771D01*
X80812723Y-65310952D01*
X80812723Y-65194838D01*
X80851428Y-65040019D01*
X80890133Y-64962609D01*
X80967542Y-64885200D01*
X81083657Y-64846495D01*
X81161066Y-64846495D01*
X81277180Y-64885200D01*
X81315885Y-64923904D01*
X81625523Y-64923904D02*
X81664228Y-64885200D01*
X81741638Y-64846495D01*
X81935161Y-64846495D01*
X82012571Y-64885200D01*
X82051276Y-64923904D01*
X82089980Y-65001314D01*
X82089980Y-65078723D01*
X82051276Y-65194838D01*
X81586819Y-65659295D01*
X82089980Y-65659295D01*
X82477028Y-65659295D02*
X82631847Y-65659295D01*
X82709257Y-65620590D01*
X82747961Y-65581885D01*
X82825371Y-65465771D01*
X82864076Y-65310952D01*
X82864076Y-65001314D01*
X82825371Y-64923904D01*
X82786666Y-64885200D01*
X82709257Y-64846495D01*
X82554438Y-64846495D01*
X82477028Y-64885200D01*
X82438323Y-64923904D01*
X82399619Y-65001314D01*
X82399619Y-65194838D01*
X82438323Y-65272247D01*
X82477028Y-65310952D01*
X82554438Y-65349657D01*
X82709257Y-65349657D01*
X82786666Y-65310952D01*
X82825371Y-65272247D01*
X82864076Y-65194838D01*
X94207028Y-44110695D02*
X94207028Y-43297895D01*
X94400552Y-43297895D01*
X94516666Y-43336600D01*
X94594076Y-43414009D01*
X94632780Y-43491419D01*
X94671485Y-43646238D01*
X94671485Y-43762352D01*
X94632780Y-43917171D01*
X94594076Y-43994580D01*
X94516666Y-44071990D01*
X94400552Y-44110695D01*
X94207028Y-44110695D01*
X95445580Y-44110695D02*
X94981123Y-44110695D01*
X95213352Y-44110695D02*
X95213352Y-43297895D01*
X95135942Y-43414009D01*
X95058533Y-43491419D01*
X94981123Y-43530123D01*
X96180971Y-43297895D02*
X95793923Y-43297895D01*
X95755219Y-43684942D01*
X95793923Y-43646238D01*
X95871333Y-43607533D01*
X96064857Y-43607533D01*
X96142266Y-43646238D01*
X96180971Y-43684942D01*
X96219676Y-43762352D01*
X96219676Y-43955876D01*
X96180971Y-44033285D01*
X96142266Y-44071990D01*
X96064857Y-44110695D01*
X95871333Y-44110695D01*
X95793923Y-44071990D01*
X95755219Y-44033285D01*
X94550285Y-39092514D02*
X94588990Y-39131219D01*
X94627695Y-39247333D01*
X94627695Y-39324742D01*
X94588990Y-39440857D01*
X94511580Y-39518266D01*
X94434171Y-39556971D01*
X94279352Y-39595676D01*
X94163238Y-39595676D01*
X94008419Y-39556971D01*
X93931009Y-39518266D01*
X93853600Y-39440857D01*
X93814895Y-39324742D01*
X93814895Y-39247333D01*
X93853600Y-39131219D01*
X93892304Y-39092514D01*
X93814895Y-38357123D02*
X93814895Y-38744171D01*
X94201942Y-38782876D01*
X94163238Y-38744171D01*
X94124533Y-38666761D01*
X94124533Y-38473238D01*
X94163238Y-38395828D01*
X94201942Y-38357123D01*
X94279352Y-38318419D01*
X94472876Y-38318419D01*
X94550285Y-38357123D01*
X94588990Y-38395828D01*
X94627695Y-38473238D01*
X94627695Y-38666761D01*
X94588990Y-38744171D01*
X94550285Y-38782876D01*
X93814895Y-38047485D02*
X93814895Y-37544323D01*
X94124533Y-37815257D01*
X94124533Y-37699142D01*
X94163238Y-37621733D01*
X94201942Y-37583028D01*
X94279352Y-37544323D01*
X94472876Y-37544323D01*
X94550285Y-37583028D01*
X94588990Y-37621733D01*
X94627695Y-37699142D01*
X94627695Y-37931371D01*
X94588990Y-38008780D01*
X94550285Y-38047485D01*
X107091285Y-76313514D02*
X107129990Y-76352219D01*
X107168695Y-76468333D01*
X107168695Y-76545742D01*
X107129990Y-76661857D01*
X107052580Y-76739266D01*
X106975171Y-76777971D01*
X106820352Y-76816676D01*
X106704238Y-76816676D01*
X106549419Y-76777971D01*
X106472009Y-76739266D01*
X106394600Y-76661857D01*
X106355895Y-76545742D01*
X106355895Y-76468333D01*
X106394600Y-76352219D01*
X106433304Y-76313514D01*
X107168695Y-75539419D02*
X107168695Y-76003876D01*
X107168695Y-75771647D02*
X106355895Y-75771647D01*
X106472009Y-75849057D01*
X106549419Y-75926466D01*
X106588123Y-76003876D01*
X106355895Y-75036257D02*
X106355895Y-74958847D01*
X106394600Y-74881438D01*
X106433304Y-74842733D01*
X106510714Y-74804028D01*
X106665533Y-74765323D01*
X106859057Y-74765323D01*
X107013876Y-74804028D01*
X107091285Y-74842733D01*
X107129990Y-74881438D01*
X107168695Y-74958847D01*
X107168695Y-75036257D01*
X107129990Y-75113666D01*
X107091285Y-75152371D01*
X107013876Y-75191076D01*
X106859057Y-75229780D01*
X106665533Y-75229780D01*
X106510714Y-75191076D01*
X106433304Y-75152371D01*
X106394600Y-75113666D01*
X106355895Y-75036257D01*
D17*
X2556095Y-80768380D02*
X2556095Y-81577904D01*
X2603714Y-81673142D01*
X2651333Y-81720761D01*
X2746571Y-81768380D01*
X2937047Y-81768380D01*
X3032285Y-81720761D01*
X3079904Y-81673142D01*
X3127523Y-81577904D01*
X3127523Y-80768380D01*
X3556095Y-80863619D02*
X3603714Y-80816000D01*
X3698952Y-80768380D01*
X3937047Y-80768380D01*
X4032285Y-80816000D01*
X4079904Y-80863619D01*
X4127523Y-80958857D01*
X4127523Y-81054095D01*
X4079904Y-81196952D01*
X3508476Y-81768380D01*
X4127523Y-81768380D01*
X10297142Y-93682380D02*
X9963809Y-93206190D01*
X9725714Y-93682380D02*
X9725714Y-92682380D01*
X10106666Y-92682380D01*
X10201904Y-92730000D01*
X10249523Y-92777619D01*
X10297142Y-92872857D01*
X10297142Y-93015714D01*
X10249523Y-93110952D01*
X10201904Y-93158571D01*
X10106666Y-93206190D01*
X9725714Y-93206190D01*
X10678095Y-92777619D02*
X10725714Y-92730000D01*
X10820952Y-92682380D01*
X11059047Y-92682380D01*
X11154285Y-92730000D01*
X11201904Y-92777619D01*
X11249523Y-92872857D01*
X11249523Y-92968095D01*
X11201904Y-93110952D01*
X10630476Y-93682380D01*
X11249523Y-93682380D01*
X11868571Y-92682380D02*
X11963809Y-92682380D01*
X12059047Y-92730000D01*
X12106666Y-92777619D01*
X12154285Y-92872857D01*
X12201904Y-93063333D01*
X12201904Y-93301428D01*
X12154285Y-93491904D01*
X12106666Y-93587142D01*
X12059047Y-93634761D01*
X11963809Y-93682380D01*
X11868571Y-93682380D01*
X11773333Y-93634761D01*
X11725714Y-93587142D01*
X11678095Y-93491904D01*
X11630476Y-93301428D01*
X11630476Y-93063333D01*
X11678095Y-92872857D01*
X11725714Y-92777619D01*
X11773333Y-92730000D01*
X11868571Y-92682380D01*
D18*
X74759942Y-106374333D02*
X74759942Y-106645266D01*
X75185695Y-106645266D02*
X74372895Y-106645266D01*
X74372895Y-106258219D01*
X74759942Y-105677647D02*
X74798647Y-105561533D01*
X74837352Y-105522828D01*
X74914761Y-105484123D01*
X75030876Y-105484123D01*
X75108285Y-105522828D01*
X75146990Y-105561533D01*
X75185695Y-105638942D01*
X75185695Y-105948580D01*
X74372895Y-105948580D01*
X74372895Y-105677647D01*
X74411600Y-105600238D01*
X74450304Y-105561533D01*
X74527714Y-105522828D01*
X74605123Y-105522828D01*
X74682533Y-105561533D01*
X74721238Y-105600238D01*
X74759942Y-105677647D01*
X74759942Y-105948580D01*
X74372895Y-105213190D02*
X74372895Y-104710028D01*
X74682533Y-104980961D01*
X74682533Y-104864847D01*
X74721238Y-104787438D01*
X74759942Y-104748733D01*
X74837352Y-104710028D01*
X75030876Y-104710028D01*
X75108285Y-104748733D01*
X75146990Y-104787438D01*
X75185695Y-104864847D01*
X75185695Y-105097076D01*
X75146990Y-105174485D01*
X75108285Y-105213190D01*
X75078485Y-73009695D02*
X74807552Y-72622647D01*
X74614028Y-73009695D02*
X74614028Y-72196895D01*
X74923666Y-72196895D01*
X75001076Y-72235600D01*
X75039780Y-72274304D01*
X75078485Y-72351714D01*
X75078485Y-72467828D01*
X75039780Y-72545238D01*
X75001076Y-72583942D01*
X74923666Y-72622647D01*
X74614028Y-72622647D01*
X75852580Y-73009695D02*
X75388123Y-73009695D01*
X75620352Y-73009695D02*
X75620352Y-72196895D01*
X75542942Y-72313009D01*
X75465533Y-72390419D01*
X75388123Y-72429123D01*
X76549266Y-72467828D02*
X76549266Y-73009695D01*
X76355742Y-72158190D02*
X76162219Y-72738761D01*
X76665380Y-72738761D01*
X60583885Y-8048095D02*
X60312952Y-7661047D01*
X60119428Y-8048095D02*
X60119428Y-7235295D01*
X60429066Y-7235295D01*
X60506476Y-7274000D01*
X60545180Y-7312704D01*
X60583885Y-7390114D01*
X60583885Y-7506228D01*
X60545180Y-7583638D01*
X60506476Y-7622342D01*
X60429066Y-7661047D01*
X60119428Y-7661047D01*
X61357980Y-8048095D02*
X60893523Y-8048095D01*
X61125752Y-8048095D02*
X61125752Y-7235295D01*
X61048342Y-7351409D01*
X60970933Y-7428819D01*
X60893523Y-7467523D01*
X61745028Y-8048095D02*
X61899847Y-8048095D01*
X61977257Y-8009390D01*
X62015961Y-7970685D01*
X62093371Y-7854571D01*
X62132076Y-7699752D01*
X62132076Y-7390114D01*
X62093371Y-7312704D01*
X62054666Y-7274000D01*
X61977257Y-7235295D01*
X61822438Y-7235295D01*
X61745028Y-7274000D01*
X61706323Y-7312704D01*
X61667619Y-7390114D01*
X61667619Y-7583638D01*
X61706323Y-7661047D01*
X61745028Y-7699752D01*
X61822438Y-7738457D01*
X61977257Y-7738457D01*
X62054666Y-7699752D01*
X62093371Y-7661047D01*
X62132076Y-7583638D01*
X2925485Y-68949285D02*
X2886780Y-68987990D01*
X2770666Y-69026695D01*
X2693257Y-69026695D01*
X2577142Y-68987990D01*
X2499733Y-68910580D01*
X2461028Y-68833171D01*
X2422323Y-68678352D01*
X2422323Y-68562238D01*
X2461028Y-68407419D01*
X2499733Y-68330009D01*
X2577142Y-68252600D01*
X2693257Y-68213895D01*
X2770666Y-68213895D01*
X2886780Y-68252600D01*
X2925485Y-68291304D01*
X3699580Y-69026695D02*
X3235123Y-69026695D01*
X3467352Y-69026695D02*
X3467352Y-68213895D01*
X3389942Y-68330009D01*
X3312533Y-68407419D01*
X3235123Y-68446123D01*
X4396266Y-68213895D02*
X4241447Y-68213895D01*
X4164038Y-68252600D01*
X4125333Y-68291304D01*
X4047923Y-68407419D01*
X4009219Y-68562238D01*
X4009219Y-68871876D01*
X4047923Y-68949285D01*
X4086628Y-68987990D01*
X4164038Y-69026695D01*
X4318857Y-69026695D01*
X4396266Y-68987990D01*
X4434971Y-68949285D01*
X4473676Y-68871876D01*
X4473676Y-68678352D01*
X4434971Y-68600942D01*
X4396266Y-68562238D01*
X4318857Y-68523533D01*
X4164038Y-68523533D01*
X4086628Y-68562238D01*
X4047923Y-68600942D01*
X4009219Y-68678352D01*
X75963686Y-82131971D02*
X75150886Y-82131971D01*
X75150886Y-81938447D01*
X75189591Y-81822333D01*
X75267000Y-81744923D01*
X75344410Y-81706219D01*
X75499229Y-81667514D01*
X75615343Y-81667514D01*
X75770162Y-81706219D01*
X75847571Y-81744923D01*
X75924981Y-81822333D01*
X75963686Y-81938447D01*
X75963686Y-82131971D01*
X75963686Y-80893419D02*
X75963686Y-81357876D01*
X75963686Y-81125647D02*
X75150886Y-81125647D01*
X75267000Y-81203057D01*
X75344410Y-81280466D01*
X75383114Y-81357876D01*
X75150886Y-80390257D02*
X75150886Y-80312847D01*
X75189591Y-80235438D01*
X75228295Y-80196733D01*
X75305705Y-80158028D01*
X75460524Y-80119323D01*
X75654048Y-80119323D01*
X75808867Y-80158028D01*
X75886276Y-80196733D01*
X75924981Y-80235438D01*
X75963686Y-80312847D01*
X75963686Y-80390257D01*
X75924981Y-80467666D01*
X75886276Y-80506371D01*
X75808867Y-80545076D01*
X75654048Y-80583780D01*
X75460524Y-80583780D01*
X75305705Y-80545076D01*
X75228295Y-80506371D01*
X75189591Y-80467666D01*
X75150886Y-80390257D01*
X89012485Y-30649695D02*
X88741552Y-30262647D01*
X88548028Y-30649695D02*
X88548028Y-29836895D01*
X88857666Y-29836895D01*
X88935076Y-29875600D01*
X88973780Y-29914304D01*
X89012485Y-29991714D01*
X89012485Y-30107828D01*
X88973780Y-30185238D01*
X88935076Y-30223942D01*
X88857666Y-30262647D01*
X88548028Y-30262647D01*
X89283419Y-29836895D02*
X89786580Y-29836895D01*
X89515647Y-30146533D01*
X89631761Y-30146533D01*
X89709171Y-30185238D01*
X89747876Y-30223942D01*
X89786580Y-30301352D01*
X89786580Y-30494876D01*
X89747876Y-30572285D01*
X89709171Y-30610990D01*
X89631761Y-30649695D01*
X89399533Y-30649695D01*
X89322123Y-30610990D01*
X89283419Y-30572285D01*
X90057514Y-29836895D02*
X90560676Y-29836895D01*
X90289742Y-30146533D01*
X90405857Y-30146533D01*
X90483266Y-30185238D01*
X90521971Y-30223942D01*
X90560676Y-30301352D01*
X90560676Y-30494876D01*
X90521971Y-30572285D01*
X90483266Y-30610990D01*
X90405857Y-30649695D01*
X90173628Y-30649695D01*
X90096219Y-30610990D01*
X90057514Y-30572285D01*
X93512895Y-60357676D02*
X93512895Y-59893219D01*
X94325695Y-60125447D02*
X93512895Y-60125447D01*
X94325695Y-59157828D02*
X93938647Y-59428761D01*
X94325695Y-59622285D02*
X93512895Y-59622285D01*
X93512895Y-59312647D01*
X93551600Y-59235238D01*
X93590304Y-59196533D01*
X93667714Y-59157828D01*
X93783828Y-59157828D01*
X93861238Y-59196533D01*
X93899942Y-59235238D01*
X93938647Y-59312647D01*
X93938647Y-59622285D01*
X94325695Y-58383733D02*
X94325695Y-58848190D01*
X94325695Y-58615961D02*
X93512895Y-58615961D01*
X93629009Y-58693371D01*
X93706419Y-58770780D01*
X93745123Y-58848190D01*
X96166485Y-80215695D02*
X95895552Y-79828647D01*
X95702028Y-80215695D02*
X95702028Y-79402895D01*
X96011666Y-79402895D01*
X96089076Y-79441600D01*
X96127780Y-79480304D01*
X96166485Y-79557714D01*
X96166485Y-79673828D01*
X96127780Y-79751238D01*
X96089076Y-79789942D01*
X96011666Y-79828647D01*
X95702028Y-79828647D01*
X96437419Y-79402895D02*
X96940580Y-79402895D01*
X96669647Y-79712533D01*
X96785761Y-79712533D01*
X96863171Y-79751238D01*
X96901876Y-79789942D01*
X96940580Y-79867352D01*
X96940580Y-80060876D01*
X96901876Y-80138285D01*
X96863171Y-80176990D01*
X96785761Y-80215695D01*
X96553533Y-80215695D01*
X96476123Y-80176990D01*
X96437419Y-80138285D01*
X97714676Y-80215695D02*
X97250219Y-80215695D01*
X97482447Y-80215695D02*
X97482447Y-79402895D01*
X97405038Y-79519009D01*
X97327628Y-79596419D01*
X97250219Y-79635123D01*
X72270485Y-55913285D02*
X72231780Y-55951990D01*
X72115666Y-55990695D01*
X72038257Y-55990695D01*
X71922142Y-55951990D01*
X71844733Y-55874580D01*
X71806028Y-55797171D01*
X71767323Y-55642352D01*
X71767323Y-55526238D01*
X71806028Y-55371419D01*
X71844733Y-55294009D01*
X71922142Y-55216600D01*
X72038257Y-55177895D01*
X72115666Y-55177895D01*
X72231780Y-55216600D01*
X72270485Y-55255304D01*
X72967171Y-55448828D02*
X72967171Y-55990695D01*
X72773647Y-55139190D02*
X72580123Y-55719761D01*
X73083285Y-55719761D01*
X73547742Y-55177895D02*
X73625152Y-55177895D01*
X73702561Y-55216600D01*
X73741266Y-55255304D01*
X73779971Y-55332714D01*
X73818676Y-55487533D01*
X73818676Y-55681057D01*
X73779971Y-55835876D01*
X73741266Y-55913285D01*
X73702561Y-55951990D01*
X73625152Y-55990695D01*
X73547742Y-55990695D01*
X73470333Y-55951990D01*
X73431628Y-55913285D01*
X73392923Y-55835876D01*
X73354219Y-55681057D01*
X73354219Y-55487533D01*
X73392923Y-55332714D01*
X73431628Y-55255304D01*
X73470333Y-55216600D01*
X73547742Y-55177895D01*
X81036067Y-95837695D02*
X81036067Y-95024895D01*
X81229591Y-95024895D01*
X81345705Y-95063600D01*
X81423114Y-95141009D01*
X81461819Y-95218419D01*
X81500524Y-95373238D01*
X81500524Y-95489352D01*
X81461819Y-95644171D01*
X81423114Y-95721580D01*
X81345705Y-95798990D01*
X81229591Y-95837695D01*
X81036067Y-95837695D01*
X81771457Y-95024895D02*
X82313324Y-95024895D01*
X81964981Y-95837695D01*
X34249533Y-98074285D02*
X34210828Y-98112990D01*
X34094714Y-98151695D01*
X34017304Y-98151695D01*
X33901190Y-98112990D01*
X33823780Y-98035580D01*
X33785076Y-97958171D01*
X33746371Y-97803352D01*
X33746371Y-97687238D01*
X33785076Y-97532419D01*
X33823780Y-97455009D01*
X33901190Y-97377600D01*
X34017304Y-97338895D01*
X34094714Y-97338895D01*
X34210828Y-97377600D01*
X34249533Y-97416304D01*
X34559171Y-97416304D02*
X34597876Y-97377600D01*
X34675285Y-97338895D01*
X34868809Y-97338895D01*
X34946219Y-97377600D01*
X34984923Y-97416304D01*
X35023628Y-97493714D01*
X35023628Y-97571123D01*
X34984923Y-97687238D01*
X34520466Y-98151695D01*
X35023628Y-98151695D01*
X89617485Y-41106285D02*
X89578780Y-41144990D01*
X89462666Y-41183695D01*
X89385257Y-41183695D01*
X89269142Y-41144990D01*
X89191733Y-41067580D01*
X89153028Y-40990171D01*
X89114323Y-40835352D01*
X89114323Y-40719238D01*
X89153028Y-40564419D01*
X89191733Y-40487009D01*
X89269142Y-40409600D01*
X89385257Y-40370895D01*
X89462666Y-40370895D01*
X89578780Y-40409600D01*
X89617485Y-40448304D01*
X90391580Y-41183695D02*
X89927123Y-41183695D01*
X90159352Y-41183695D02*
X90159352Y-40370895D01*
X90081942Y-40487009D01*
X90004533Y-40564419D01*
X89927123Y-40603123D01*
X90662514Y-40370895D02*
X91165676Y-40370895D01*
X90894742Y-40680533D01*
X91010857Y-40680533D01*
X91088266Y-40719238D01*
X91126971Y-40757942D01*
X91165676Y-40835352D01*
X91165676Y-41028876D01*
X91126971Y-41106285D01*
X91088266Y-41144990D01*
X91010857Y-41183695D01*
X90778628Y-41183695D01*
X90701219Y-41144990D01*
X90662514Y-41106285D01*
X66697933Y-84223285D02*
X66659228Y-84261990D01*
X66543114Y-84300695D01*
X66465704Y-84300695D01*
X66349590Y-84261990D01*
X66272180Y-84184580D01*
X66233476Y-84107171D01*
X66194771Y-83952352D01*
X66194771Y-83836238D01*
X66233476Y-83681419D01*
X66272180Y-83604009D01*
X66349590Y-83526600D01*
X66465704Y-83487895D01*
X66543114Y-83487895D01*
X66659228Y-83526600D01*
X66697933Y-83565304D01*
X67472028Y-84300695D02*
X67007571Y-84300695D01*
X67239800Y-84300695D02*
X67239800Y-83487895D01*
X67162390Y-83604009D01*
X67084980Y-83681419D01*
X67007571Y-83720123D01*
X85979485Y-72707285D02*
X85940780Y-72745990D01*
X85824666Y-72784695D01*
X85747257Y-72784695D01*
X85631142Y-72745990D01*
X85553733Y-72668580D01*
X85515028Y-72591171D01*
X85476323Y-72436352D01*
X85476323Y-72320238D01*
X85515028Y-72165419D01*
X85553733Y-72088009D01*
X85631142Y-72010600D01*
X85747257Y-71971895D01*
X85824666Y-71971895D01*
X85940780Y-72010600D01*
X85979485Y-72049304D01*
X86753580Y-72784695D02*
X86289123Y-72784695D01*
X86521352Y-72784695D02*
X86521352Y-71971895D01*
X86443942Y-72088009D01*
X86366533Y-72165419D01*
X86289123Y-72204123D01*
X87218038Y-72320238D02*
X87140628Y-72281533D01*
X87101923Y-72242828D01*
X87063219Y-72165419D01*
X87063219Y-72126714D01*
X87101923Y-72049304D01*
X87140628Y-72010600D01*
X87218038Y-71971895D01*
X87372857Y-71971895D01*
X87450266Y-72010600D01*
X87488971Y-72049304D01*
X87527676Y-72126714D01*
X87527676Y-72165419D01*
X87488971Y-72242828D01*
X87450266Y-72281533D01*
X87372857Y-72320238D01*
X87218038Y-72320238D01*
X87140628Y-72358942D01*
X87101923Y-72397647D01*
X87063219Y-72475057D01*
X87063219Y-72629876D01*
X87101923Y-72707285D01*
X87140628Y-72745990D01*
X87218038Y-72784695D01*
X87372857Y-72784695D01*
X87450266Y-72745990D01*
X87488971Y-72707285D01*
X87527676Y-72629876D01*
X87527676Y-72475057D01*
X87488971Y-72397647D01*
X87450266Y-72358942D01*
X87372857Y-72320238D01*
X70532323Y-77583695D02*
X70532323Y-78241676D01*
X70571028Y-78319085D01*
X70609733Y-78357790D01*
X70687142Y-78396495D01*
X70841961Y-78396495D01*
X70919371Y-78357790D01*
X70958076Y-78319085D01*
X70996780Y-78241676D01*
X70996780Y-77583695D01*
X71770876Y-77583695D02*
X71383828Y-77583695D01*
X71345123Y-77970742D01*
X71383828Y-77932038D01*
X71461238Y-77893333D01*
X71654761Y-77893333D01*
X71732171Y-77932038D01*
X71770876Y-77970742D01*
X71809580Y-78048152D01*
X71809580Y-78241676D01*
X71770876Y-78319085D01*
X71732171Y-78357790D01*
X71654761Y-78396495D01*
X71461238Y-78396495D01*
X71383828Y-78357790D01*
X71345123Y-78319085D01*
X98562666Y-101301942D02*
X98291733Y-101301942D01*
X98291733Y-101727695D02*
X98291733Y-100914895D01*
X98678780Y-100914895D01*
X99259352Y-101301942D02*
X99375466Y-101340647D01*
X99414171Y-101379352D01*
X99452876Y-101456761D01*
X99452876Y-101572876D01*
X99414171Y-101650285D01*
X99375466Y-101688990D01*
X99298057Y-101727695D01*
X98988419Y-101727695D01*
X98988419Y-100914895D01*
X99259352Y-100914895D01*
X99336761Y-100953600D01*
X99375466Y-100992304D01*
X99414171Y-101069714D01*
X99414171Y-101147123D01*
X99375466Y-101224533D01*
X99336761Y-101263238D01*
X99259352Y-101301942D01*
X98988419Y-101301942D01*
X99762514Y-100992304D02*
X99801219Y-100953600D01*
X99878628Y-100914895D01*
X100072152Y-100914895D01*
X100149561Y-100953600D01*
X100188266Y-100992304D01*
X100226971Y-101069714D01*
X100226971Y-101147123D01*
X100188266Y-101263238D01*
X99723809Y-101727695D01*
X100226971Y-101727695D01*
X80675585Y-48830385D02*
X80636880Y-48869090D01*
X80520766Y-48907795D01*
X80443357Y-48907795D01*
X80327242Y-48869090D01*
X80249833Y-48791680D01*
X80211128Y-48714271D01*
X80172423Y-48559452D01*
X80172423Y-48443338D01*
X80211128Y-48288519D01*
X80249833Y-48211109D01*
X80327242Y-48133700D01*
X80443357Y-48094995D01*
X80520766Y-48094995D01*
X80636880Y-48133700D01*
X80675585Y-48172404D01*
X81410976Y-48094995D02*
X81023928Y-48094995D01*
X80985223Y-48482042D01*
X81023928Y-48443338D01*
X81101338Y-48404633D01*
X81294861Y-48404633D01*
X81372271Y-48443338D01*
X81410976Y-48482042D01*
X81449680Y-48559452D01*
X81449680Y-48752976D01*
X81410976Y-48830385D01*
X81372271Y-48869090D01*
X81294861Y-48907795D01*
X81101338Y-48907795D01*
X81023928Y-48869090D01*
X80985223Y-48830385D01*
X82223776Y-48907795D02*
X81759319Y-48907795D01*
X81991547Y-48907795D02*
X81991547Y-48094995D01*
X81914138Y-48211109D01*
X81836728Y-48288519D01*
X81759319Y-48327223D01*
X40306483Y-32968687D02*
X40267778Y-33007392D01*
X40151664Y-33046097D01*
X40074255Y-33046097D01*
X39958140Y-33007392D01*
X39880731Y-32929982D01*
X39842026Y-32852573D01*
X39803321Y-32697754D01*
X39803321Y-32581640D01*
X39842026Y-32426821D01*
X39880731Y-32349411D01*
X39958140Y-32272002D01*
X40074255Y-32233297D01*
X40151664Y-32233297D01*
X40267778Y-32272002D01*
X40306483Y-32310706D01*
X41041874Y-32233297D02*
X40654826Y-32233297D01*
X40616121Y-32620344D01*
X40654826Y-32581640D01*
X40732236Y-32542935D01*
X40925759Y-32542935D01*
X41003169Y-32581640D01*
X41041874Y-32620344D01*
X41080578Y-32697754D01*
X41080578Y-32891278D01*
X41041874Y-32968687D01*
X41003169Y-33007392D01*
X40925759Y-33046097D01*
X40732236Y-33046097D01*
X40654826Y-33007392D01*
X40616121Y-32968687D01*
X41545036Y-32581640D02*
X41467626Y-32542935D01*
X41428921Y-32504230D01*
X41390217Y-32426821D01*
X41390217Y-32388116D01*
X41428921Y-32310706D01*
X41467626Y-32272002D01*
X41545036Y-32233297D01*
X41699855Y-32233297D01*
X41777264Y-32272002D01*
X41815969Y-32310706D01*
X41854674Y-32388116D01*
X41854674Y-32426821D01*
X41815969Y-32504230D01*
X41777264Y-32542935D01*
X41699855Y-32581640D01*
X41545036Y-32581640D01*
X41467626Y-32620344D01*
X41428921Y-32659049D01*
X41390217Y-32736459D01*
X41390217Y-32891278D01*
X41428921Y-32968687D01*
X41467626Y-33007392D01*
X41545036Y-33046097D01*
X41699855Y-33046097D01*
X41777264Y-33007392D01*
X41815969Y-32968687D01*
X41854674Y-32891278D01*
X41854674Y-32736459D01*
X41815969Y-32659049D01*
X41777264Y-32620344D01*
X41699855Y-32581640D01*
X80461552Y-72456695D02*
X80461552Y-71643895D01*
X81313057Y-72379285D02*
X81274352Y-72417990D01*
X81158238Y-72456695D01*
X81080828Y-72456695D01*
X80964714Y-72417990D01*
X80887304Y-72340580D01*
X80848600Y-72263171D01*
X80809895Y-72108352D01*
X80809895Y-71992238D01*
X80848600Y-71837419D01*
X80887304Y-71760009D01*
X80964714Y-71682600D01*
X81080828Y-71643895D01*
X81158238Y-71643895D01*
X81274352Y-71682600D01*
X81313057Y-71721304D01*
X81622695Y-71721304D02*
X81661400Y-71682600D01*
X81738809Y-71643895D01*
X81932333Y-71643895D01*
X82009742Y-71682600D01*
X82048447Y-71721304D01*
X82087152Y-71798714D01*
X82087152Y-71876123D01*
X82048447Y-71992238D01*
X81583990Y-72456695D01*
X82087152Y-72456695D01*
X68112485Y-83396495D02*
X67841552Y-83009447D01*
X67648028Y-83396495D02*
X67648028Y-82583695D01*
X67957666Y-82583695D01*
X68035076Y-82622400D01*
X68073780Y-82661104D01*
X68112485Y-82738514D01*
X68112485Y-82854628D01*
X68073780Y-82932038D01*
X68035076Y-82970742D01*
X67957666Y-83009447D01*
X67648028Y-83009447D01*
X68886580Y-83396495D02*
X68422123Y-83396495D01*
X68654352Y-83396495D02*
X68654352Y-82583695D01*
X68576942Y-82699809D01*
X68499533Y-82777219D01*
X68422123Y-82815923D01*
X69389742Y-82583695D02*
X69467152Y-82583695D01*
X69544561Y-82622400D01*
X69583266Y-82661104D01*
X69621971Y-82738514D01*
X69660676Y-82893333D01*
X69660676Y-83086857D01*
X69621971Y-83241676D01*
X69583266Y-83319085D01*
X69544561Y-83357790D01*
X69467152Y-83396495D01*
X69389742Y-83396495D01*
X69312333Y-83357790D01*
X69273628Y-83319085D01*
X69234923Y-83241676D01*
X69196219Y-83086857D01*
X69196219Y-82893333D01*
X69234923Y-82738514D01*
X69273628Y-82661104D01*
X69312333Y-82622400D01*
X69389742Y-82583695D01*
X79688285Y-55991514D02*
X79726990Y-56030219D01*
X79765695Y-56146333D01*
X79765695Y-56223742D01*
X79726990Y-56339857D01*
X79649580Y-56417266D01*
X79572171Y-56455971D01*
X79417352Y-56494676D01*
X79301238Y-56494676D01*
X79146419Y-56455971D01*
X79069009Y-56417266D01*
X78991600Y-56339857D01*
X78952895Y-56223742D01*
X78952895Y-56146333D01*
X78991600Y-56030219D01*
X79030304Y-55991514D01*
X79030304Y-55681876D02*
X78991600Y-55643171D01*
X78952895Y-55565761D01*
X78952895Y-55372238D01*
X78991600Y-55294828D01*
X79030304Y-55256123D01*
X79107714Y-55217419D01*
X79185123Y-55217419D01*
X79301238Y-55256123D01*
X79765695Y-55720580D01*
X79765695Y-55217419D01*
X78952895Y-54520733D02*
X78952895Y-54675552D01*
X78991600Y-54752961D01*
X79030304Y-54791666D01*
X79146419Y-54869076D01*
X79301238Y-54907780D01*
X79610876Y-54907780D01*
X79688285Y-54869076D01*
X79726990Y-54830371D01*
X79765695Y-54752961D01*
X79765695Y-54598142D01*
X79726990Y-54520733D01*
X79688285Y-54482028D01*
X79610876Y-54443323D01*
X79417352Y-54443323D01*
X79339942Y-54482028D01*
X79301238Y-54520733D01*
X79262533Y-54598142D01*
X79262533Y-54752961D01*
X79301238Y-54830371D01*
X79339942Y-54869076D01*
X79417352Y-54907780D01*
X70449076Y-95181695D02*
X70449076Y-94368895D01*
X70642600Y-94368895D01*
X70758714Y-94407600D01*
X70836123Y-94485009D01*
X70874828Y-94562419D01*
X70913533Y-94717238D01*
X70913533Y-94833352D01*
X70874828Y-94988171D01*
X70836123Y-95065580D01*
X70758714Y-95142990D01*
X70642600Y-95181695D01*
X70449076Y-95181695D01*
X71223171Y-94446304D02*
X71261876Y-94407600D01*
X71339285Y-94368895D01*
X71532809Y-94368895D01*
X71610219Y-94407600D01*
X71648923Y-94446304D01*
X71687628Y-94523714D01*
X71687628Y-94601123D01*
X71648923Y-94717238D01*
X71184466Y-95181695D01*
X71687628Y-95181695D01*
X46746533Y-81709695D02*
X46475600Y-81322647D01*
X46282076Y-81709695D02*
X46282076Y-80896895D01*
X46591714Y-80896895D01*
X46669123Y-80935600D01*
X46707828Y-80974304D01*
X46746533Y-81051714D01*
X46746533Y-81167828D01*
X46707828Y-81245238D01*
X46669123Y-81283942D01*
X46591714Y-81322647D01*
X46282076Y-81322647D01*
X47017466Y-80896895D02*
X47520628Y-80896895D01*
X47249695Y-81206533D01*
X47365809Y-81206533D01*
X47443219Y-81245238D01*
X47481923Y-81283942D01*
X47520628Y-81361352D01*
X47520628Y-81554876D01*
X47481923Y-81632285D01*
X47443219Y-81670990D01*
X47365809Y-81709695D01*
X47133580Y-81709695D01*
X47056171Y-81670990D01*
X47017466Y-81632285D01*
X88992695Y-76397514D02*
X88605647Y-76668447D01*
X88992695Y-76861971D02*
X88179895Y-76861971D01*
X88179895Y-76552333D01*
X88218600Y-76474923D01*
X88257304Y-76436219D01*
X88334714Y-76397514D01*
X88450828Y-76397514D01*
X88528238Y-76436219D01*
X88566942Y-76474923D01*
X88605647Y-76552333D01*
X88605647Y-76861971D01*
X88257304Y-76087876D02*
X88218600Y-76049171D01*
X88179895Y-75971761D01*
X88179895Y-75778238D01*
X88218600Y-75700828D01*
X88257304Y-75662123D01*
X88334714Y-75623419D01*
X88412123Y-75623419D01*
X88528238Y-75662123D01*
X88992695Y-76126580D01*
X88992695Y-75623419D01*
X88450828Y-74926733D02*
X88992695Y-74926733D01*
X88141190Y-75120257D02*
X88721761Y-75313780D01*
X88721761Y-74810619D01*
X90906067Y-94117695D02*
X90906067Y-93304895D01*
X91099591Y-93304895D01*
X91215705Y-93343600D01*
X91293114Y-93421009D01*
X91331819Y-93498419D01*
X91370524Y-93653238D01*
X91370524Y-93769352D01*
X91331819Y-93924171D01*
X91293114Y-94001580D01*
X91215705Y-94078990D01*
X91099591Y-94117695D01*
X90906067Y-94117695D01*
X91834981Y-93653238D02*
X91757571Y-93614533D01*
X91718867Y-93575828D01*
X91680162Y-93498419D01*
X91680162Y-93459714D01*
X91718867Y-93382304D01*
X91757571Y-93343600D01*
X91834981Y-93304895D01*
X91989800Y-93304895D01*
X92067210Y-93343600D01*
X92105914Y-93382304D01*
X92144619Y-93459714D01*
X92144619Y-93498419D01*
X92105914Y-93575828D01*
X92067210Y-93614533D01*
X91989800Y-93653238D01*
X91834981Y-93653238D01*
X91757571Y-93691942D01*
X91718867Y-93730647D01*
X91680162Y-93808057D01*
X91680162Y-93962876D01*
X91718867Y-94040285D01*
X91757571Y-94078990D01*
X91834981Y-94117695D01*
X91989800Y-94117695D01*
X92067210Y-94078990D01*
X92105914Y-94040285D01*
X92144619Y-93962876D01*
X92144619Y-93808057D01*
X92105914Y-93730647D01*
X92067210Y-93691942D01*
X91989800Y-93653238D01*
X41805076Y-51181285D02*
X41766371Y-51219990D01*
X41650257Y-51258695D01*
X41572847Y-51258695D01*
X41456733Y-51219990D01*
X41379323Y-51142580D01*
X41340619Y-51065171D01*
X41301914Y-50910352D01*
X41301914Y-50794238D01*
X41340619Y-50639419D01*
X41379323Y-50562009D01*
X41456733Y-50484600D01*
X41572847Y-50445895D01*
X41650257Y-50445895D01*
X41766371Y-50484600D01*
X41805076Y-50523304D01*
X42153419Y-51258695D02*
X42153419Y-50445895D01*
X42424352Y-51026466D01*
X42695285Y-50445895D01*
X42695285Y-51258695D01*
X43508085Y-51258695D02*
X43043628Y-51258695D01*
X43275857Y-51258695D02*
X43275857Y-50445895D01*
X43198447Y-50562009D01*
X43121038Y-50639419D01*
X43043628Y-50678123D01*
X39443884Y-14342912D02*
X39482589Y-14381617D01*
X39521294Y-14497731D01*
X39521294Y-14575140D01*
X39482589Y-14691255D01*
X39405179Y-14768664D01*
X39327770Y-14807369D01*
X39172951Y-14846074D01*
X39056837Y-14846074D01*
X38902018Y-14807369D01*
X38824608Y-14768664D01*
X38747199Y-14691255D01*
X38708494Y-14575140D01*
X38708494Y-14497731D01*
X38747199Y-14381617D01*
X38785903Y-14342912D01*
X38708494Y-13646226D02*
X38708494Y-13801045D01*
X38747199Y-13878455D01*
X38785903Y-13917159D01*
X38902018Y-13994569D01*
X39056837Y-14033274D01*
X39366475Y-14033274D01*
X39443884Y-13994569D01*
X39482589Y-13955864D01*
X39521294Y-13878455D01*
X39521294Y-13723636D01*
X39482589Y-13646226D01*
X39443884Y-13607521D01*
X39366475Y-13568817D01*
X39172951Y-13568817D01*
X39095541Y-13607521D01*
X39056837Y-13646226D01*
X39018132Y-13723636D01*
X39018132Y-13878455D01*
X39056837Y-13955864D01*
X39095541Y-13994569D01*
X39172951Y-14033274D01*
X38708494Y-13065655D02*
X38708494Y-12988245D01*
X38747199Y-12910836D01*
X38785903Y-12872131D01*
X38863313Y-12833426D01*
X39018132Y-12794721D01*
X39211656Y-12794721D01*
X39366475Y-12833426D01*
X39443884Y-12872131D01*
X39482589Y-12910836D01*
X39521294Y-12988245D01*
X39521294Y-13065655D01*
X39482589Y-13143064D01*
X39443884Y-13181769D01*
X39366475Y-13220474D01*
X39211656Y-13259178D01*
X39018132Y-13259178D01*
X38863313Y-13220474D01*
X38785903Y-13181769D01*
X38747199Y-13143064D01*
X38708494Y-13065655D01*
X70517076Y-103695695D02*
X70517076Y-102882895D01*
X70710600Y-102882895D01*
X70826714Y-102921600D01*
X70904123Y-102999009D01*
X70942828Y-103076419D01*
X70981533Y-103231238D01*
X70981533Y-103347352D01*
X70942828Y-103502171D01*
X70904123Y-103579580D01*
X70826714Y-103656990D01*
X70710600Y-103695695D01*
X70517076Y-103695695D01*
X71755628Y-103695695D02*
X71291171Y-103695695D01*
X71523400Y-103695695D02*
X71523400Y-102882895D01*
X71445990Y-102999009D01*
X71368580Y-103076419D01*
X71291171Y-103115123D01*
X91692133Y-53811495D02*
X91421200Y-53424447D01*
X91227676Y-53811495D02*
X91227676Y-52998695D01*
X91537314Y-52998695D01*
X91614723Y-53037400D01*
X91653428Y-53076104D01*
X91692133Y-53153514D01*
X91692133Y-53269628D01*
X91653428Y-53347038D01*
X91614723Y-53385742D01*
X91537314Y-53424447D01*
X91227676Y-53424447D01*
X92427523Y-52998695D02*
X92040476Y-52998695D01*
X92001771Y-53385742D01*
X92040476Y-53347038D01*
X92117885Y-53308333D01*
X92311409Y-53308333D01*
X92388819Y-53347038D01*
X92427523Y-53385742D01*
X92466228Y-53463152D01*
X92466228Y-53656676D01*
X92427523Y-53734085D01*
X92388819Y-53772790D01*
X92311409Y-53811495D01*
X92117885Y-53811495D01*
X92040476Y-53772790D01*
X92001771Y-53734085D01*
D10*
X54463000Y-5557000D02*
X54463000Y-3357000D01*
X54463000Y-5557000D02*
X54463000Y-7757000D01*
X49243000Y-5557000D02*
X49243000Y-3357000D01*
X49243000Y-5557000D02*
X49243000Y-9157000D01*
X81380000Y-51772500D02*
X81380000Y-53447500D01*
X81380000Y-51772500D02*
X81380000Y-51122500D01*
X84500000Y-51772500D02*
X84500000Y-52422500D01*
X84500000Y-51772500D02*
X84500000Y-51122500D01*
X86600000Y-103130000D02*
X86600000Y-111930000D01*
X77400000Y-111930000D02*
X77400000Y-97230000D01*
X78250000Y-97030000D02*
X77200000Y-97030000D01*
X77400000Y-97230000D02*
X80000000Y-97230000D01*
X86600000Y-97230000D02*
X86600000Y-99130000D01*
X86600000Y-111930000D02*
X77400000Y-111930000D01*
X77200000Y-98080000D02*
X77200000Y-97030000D01*
X83900000Y-97230000D02*
X86600000Y-97230000D01*
X75991000Y-67687000D02*
X77191000Y-67687000D01*
X58391000Y-67687000D02*
X61191000Y-67687000D01*
X48791000Y-58287000D02*
X48791000Y-64587000D01*
X79191000Y-58287000D02*
X76391000Y-58287000D01*
X61591000Y-58287000D02*
X58791000Y-58287000D01*
X51991000Y-58287000D02*
X48791000Y-58287000D01*
X79191000Y-64587000D02*
X79191000Y-58287000D01*
X50791000Y-67687000D02*
X51591000Y-67687000D01*
X105012500Y-98447258D02*
X105012500Y-97972742D01*
X103967500Y-98447258D02*
X103967500Y-97972742D01*
X12161800Y-24338258D02*
X12161800Y-23863742D01*
X11116800Y-24338258D02*
X11116800Y-23863742D01*
X90820000Y-78350420D02*
X90820000Y-78631580D01*
X89800000Y-78350420D02*
X89800000Y-78631580D01*
X14390742Y-11568500D02*
X14865258Y-11568500D01*
X14390742Y-12613500D02*
X14865258Y-12613500D01*
X12161800Y-21290258D02*
X12161800Y-20815742D01*
X11116800Y-21290258D02*
X11116800Y-20815742D01*
X78783258Y-70584500D02*
X78308742Y-70584500D01*
X78783258Y-71629500D02*
X78308742Y-71629500D01*
X99390000Y-89960000D02*
X99390000Y-95360000D01*
X96090000Y-89960000D02*
X96090000Y-95360000D01*
X99390000Y-89960000D02*
X96090000Y-89960000D01*
X92100332Y-35124951D02*
X92100332Y-34602447D01*
X90630332Y-35124951D02*
X90630332Y-34602447D01*
X83856500Y-58698258D02*
X83856500Y-58223742D01*
X82811500Y-58698258D02*
X82811500Y-58223742D01*
X91646407Y-45651739D02*
X91646407Y-44229235D01*
X93466407Y-45651739D02*
X93466407Y-44229235D01*
X16982500Y-18718253D02*
X16982500Y-18195749D01*
X18452500Y-18718253D02*
X18452500Y-18195749D01*
X86529258Y-51921500D02*
X86054742Y-51921500D01*
X86529258Y-50876500D02*
X86054742Y-50876500D01*
X86413600Y-61558700D02*
X86413600Y-59248700D01*
X89018600Y-59248700D02*
X89018600Y-57558700D01*
X86413600Y-63868700D02*
X86628600Y-63868700D01*
X89233600Y-59248700D02*
X89018600Y-59248700D01*
X89233600Y-61558700D02*
X89233600Y-63868700D01*
X86413600Y-61558700D02*
X86413600Y-63868700D01*
X89233600Y-61558700D02*
X89233600Y-59248700D01*
X86413600Y-59248700D02*
X86628600Y-59248700D01*
X89233600Y-63868700D02*
X89018600Y-63868700D01*
X92325742Y-74410500D02*
X92800258Y-74410500D01*
X92325742Y-73365500D02*
X92800258Y-73365500D01*
X86058742Y-52419500D02*
X86533258Y-52419500D01*
X86058742Y-53464500D02*
X86533258Y-53464500D01*
X79876799Y-86897054D02*
X83176799Y-86897054D01*
X83176799Y-86897054D02*
X83176799Y-81497054D01*
X79876799Y-86897054D02*
X79876799Y-81497054D01*
X87396000Y-66487000D02*
X87396000Y-68487000D01*
X87396000Y-68487000D02*
X91296000Y-68487000D01*
X87396000Y-66487000D02*
X91296000Y-66487000D01*
X38446199Y-20197003D02*
X38446199Y-26497003D01*
X44746199Y-20197003D02*
X44746199Y-26497003D01*
X85376400Y-34064479D02*
X85376400Y-33783319D01*
X86396400Y-34064479D02*
X86396400Y-33783319D01*
X89392000Y-74784000D02*
X93292000Y-74784000D01*
X89392000Y-74784000D02*
X89392000Y-76784000D01*
X89392000Y-76784000D02*
X93292000Y-76784000D01*
X83587397Y-86909854D02*
X86887397Y-86909854D01*
X83587397Y-86909854D02*
X83587397Y-81509854D01*
X86887397Y-86909854D02*
X86887397Y-81509854D01*
X44946258Y-8428500D02*
X44471742Y-8428500D01*
X44946258Y-9473500D02*
X44471742Y-9473500D01*
X96125991Y-87240580D02*
X96125991Y-86959420D01*
X95105991Y-87240580D02*
X95105991Y-86959420D01*
X92164436Y-68931000D02*
X92618564Y-68931000D01*
X92164436Y-70401000D02*
X92618564Y-70401000D01*
X80159000Y-37295252D02*
X80159000Y-35872748D01*
X81979000Y-37295252D02*
X81979000Y-35872748D01*
X39882000Y-103603000D02*
X42632000Y-103603000D01*
X37132000Y-98153000D02*
X37132000Y-98413000D01*
X37132000Y-103603000D02*
X37132000Y-103343000D01*
X42632000Y-103603000D02*
X42632000Y-103343000D01*
X39882000Y-98153000D02*
X42632000Y-98153000D01*
X39882000Y-103603000D02*
X37132000Y-103603000D01*
X42632000Y-98153000D02*
X42632000Y-98413000D01*
X39882000Y-98153000D02*
X37132000Y-98153000D01*
X42632000Y-103343000D02*
X44282000Y-103343000D01*
X87630000Y-56249600D02*
X86700000Y-56249600D01*
X87630000Y-56249600D02*
X87630000Y-54089600D01*
X84470000Y-56249600D02*
X84470000Y-54789600D01*
X84470000Y-56249600D02*
X85400000Y-56249600D01*
X87295797Y-86929054D02*
X87295797Y-81529054D01*
X90595797Y-86929054D02*
X90595797Y-81529054D01*
X87295797Y-86929054D02*
X90595797Y-86929054D01*
X92343742Y-78262500D02*
X92818258Y-78262500D01*
X92343742Y-77217500D02*
X92818258Y-77217500D01*
X51969742Y-74875500D02*
X52444258Y-74875500D01*
X51969742Y-73830500D02*
X52444258Y-73830500D01*
X88772400Y-36819099D02*
X82472400Y-36819099D01*
X88772400Y-43119099D02*
X82472400Y-43119099D01*
X71061258Y-87159300D02*
X70586742Y-87159300D01*
X71061258Y-88204300D02*
X70586742Y-88204300D01*
X101678748Y-96675000D02*
X102201252Y-96675000D01*
X101678748Y-98145000D02*
X102201252Y-98145000D01*
X36287599Y-18842600D02*
X37087599Y-18842600D01*
X36287599Y-18842600D02*
X35487599Y-18842600D01*
X36287599Y-21962600D02*
X35487599Y-21962600D01*
X36287599Y-21962600D02*
X38087599Y-21962600D01*
X35856978Y-22432600D02*
X35575818Y-22432600D01*
X35856978Y-23452600D02*
X35575818Y-23452600D01*
X38196999Y-17202580D02*
X38196999Y-16921420D01*
X37176999Y-17202580D02*
X37176999Y-16921420D01*
X65615229Y-56266810D02*
X65896389Y-56266810D01*
X65615229Y-57286810D02*
X65896389Y-57286810D01*
X97796000Y-76154000D02*
X99746000Y-76154000D01*
X97796000Y-71034000D02*
X94346000Y-71034000D01*
X97796000Y-71034000D02*
X99746000Y-71034000D01*
X97796000Y-76154000D02*
X95846000Y-76154000D01*
X22818748Y-32912000D02*
X24241252Y-32912000D01*
X22818748Y-31092000D02*
X24241252Y-31092000D01*
X92432675Y-90521105D02*
X93231919Y-90521105D01*
X92432675Y-89401105D02*
X93231919Y-89401105D01*
X99859991Y-89655000D02*
X99859991Y-84255000D01*
X96559991Y-89655000D02*
X99859991Y-89655000D01*
X96559991Y-89655000D02*
X96559991Y-84255000D01*
X78815500Y-78083742D02*
X78815500Y-78558258D01*
X79860500Y-78083742D02*
X79860500Y-78558258D01*
X62906667Y-56263310D02*
X62432151Y-56263310D01*
X62906667Y-57308310D02*
X62432151Y-57308310D01*
X103773580Y-77748000D02*
X103492420Y-77748000D01*
X103773580Y-78768000D02*
X103492420Y-78768000D01*
X83587397Y-94549054D02*
X83587397Y-89149054D01*
X86887397Y-94549054D02*
X86887397Y-89149054D01*
X83587397Y-94549054D02*
X86887397Y-94549054D01*
X98124587Y-43808987D02*
X97843427Y-43808987D01*
X98124587Y-42788987D02*
X97843427Y-42788987D01*
X59860668Y-57317710D02*
X59386152Y-57317710D01*
X59860668Y-56272710D02*
X59386152Y-56272710D01*
X3948580Y-76656000D02*
X3667420Y-76656000D01*
X3948580Y-77676000D02*
X3667420Y-77676000D01*
X43454799Y-29036551D02*
X43454799Y-30459055D01*
X45274799Y-29036551D02*
X45274799Y-30459055D01*
X33889099Y-19623858D02*
X33889099Y-19149342D01*
X32844099Y-19623858D02*
X32844099Y-19149342D01*
X78827258Y-76528500D02*
X78352742Y-76528500D01*
X78827258Y-75483500D02*
X78352742Y-75483500D01*
X70187000Y-69792000D02*
X70187000Y-74177000D01*
X73207000Y-74177000D02*
X73207000Y-69792000D01*
X73207000Y-69792000D02*
X70187000Y-69792000D01*
X89986400Y-34482699D02*
X89986400Y-35282699D01*
X86866400Y-34482699D02*
X86866400Y-36282699D01*
X89986400Y-34482699D02*
X89986400Y-33682699D01*
X86866400Y-34482699D02*
X86866400Y-33682699D01*
X101184000Y-81030000D02*
X99184000Y-81030000D01*
X99184000Y-77830000D02*
X99184000Y-81030000D01*
X101184000Y-81030000D02*
X101184000Y-77830000D01*
X16896700Y-21933400D02*
X16896700Y-28233400D01*
X23196700Y-21933400D02*
X23196700Y-28233400D01*
X89380000Y-98364437D02*
X89380000Y-106020000D01*
X97035563Y-97300000D02*
X98100000Y-98364437D01*
X98100000Y-98364437D02*
X98100000Y-106020000D01*
X96750000Y-96560000D02*
X95750000Y-96560000D01*
X98100000Y-106020000D02*
X95250000Y-106020000D01*
X90444437Y-97300000D02*
X92230000Y-97300000D01*
X97035563Y-97300000D02*
X95250000Y-97300000D01*
X90444437Y-97300000D02*
X89380000Y-98364437D01*
X96250000Y-96060000D02*
X96250000Y-97060000D01*
X89380000Y-106020000D02*
X92230000Y-106020000D01*
X101502742Y-98687500D02*
X101977258Y-98687500D01*
X101502742Y-99732500D02*
X101977258Y-99732500D01*
X67322500Y-81241742D02*
X67322500Y-81716258D01*
X66277500Y-81241742D02*
X66277500Y-81716258D01*
X91065895Y-87582157D02*
X91065895Y-87059653D01*
X92535895Y-87582157D02*
X92535895Y-87059653D01*
X15070000Y-105980000D02*
X15070000Y-108580000D01*
X12410000Y-105980000D02*
X15070000Y-105980000D01*
X12410000Y-103380000D02*
X13740000Y-103380000D01*
X12410000Y-105980000D02*
X12410000Y-108580000D01*
X12410000Y-104710000D02*
X12410000Y-103380000D01*
X12410000Y-108580000D02*
X15070000Y-108580000D01*
X92376675Y-84121105D02*
X93175919Y-84121105D01*
X92376675Y-85241105D02*
X93175919Y-85241105D01*
X89682580Y-74412000D02*
X89401420Y-74412000D01*
X89682580Y-73392000D02*
X89401420Y-73392000D01*
X92462000Y-62869252D02*
X92462000Y-61446748D01*
X89742000Y-62869252D02*
X89742000Y-61446748D01*
X98674007Y-45721923D02*
X98674007Y-50076051D01*
X102094007Y-45721923D02*
X102094007Y-50076051D01*
X32844099Y-22671858D02*
X32844099Y-22197342D01*
X33889099Y-22671858D02*
X33889099Y-22197342D01*
X93102895Y-87576157D02*
X93102895Y-87053653D01*
X94572895Y-87576157D02*
X94572895Y-87053653D01*
X88776500Y-49370258D02*
X88776500Y-48895742D01*
X87731500Y-49370258D02*
X87731500Y-48895742D01*
X82894000Y-55469580D02*
X82894000Y-55188420D01*
X83914000Y-55469580D02*
X83914000Y-55188420D01*
X75389000Y-100908748D02*
X75389000Y-101431252D01*
X76859000Y-100908748D02*
X76859000Y-101431252D01*
X89309000Y-48929748D02*
X89309000Y-50352252D01*
X91129000Y-48929748D02*
X91129000Y-50352252D01*
X57937742Y-8849500D02*
X58412258Y-8849500D01*
X57937742Y-9894500D02*
X58412258Y-9894500D01*
X51969742Y-72316500D02*
X52444258Y-72316500D01*
X51969742Y-73361500D02*
X52444258Y-73361500D01*
X76190000Y-94538911D02*
X76190000Y-89138911D01*
X79490000Y-94538911D02*
X79490000Y-89138911D01*
X76190000Y-94538911D02*
X79490000Y-94538911D01*
X86157142Y-31039199D02*
X86631658Y-31039199D01*
X86157142Y-32084199D02*
X86631658Y-32084199D01*
X11309742Y-11567500D02*
X11784258Y-11567500D01*
X11309742Y-12612500D02*
X11784258Y-12612500D01*
D20*
X106871900Y-82313678D02*
X106871900Y-87292078D01*
X101271100Y-87292078D02*
X101271100Y-82313678D01*
D10*
X103858064Y-80753000D02*
X103403936Y-80753000D01*
X103858064Y-79283000D02*
X103403936Y-79283000D01*
D20*
X15559999Y-10551000D02*
X15289999Y-10551000D01*
X11259999Y-10551000D02*
X13014999Y-10551000D01*
X11259999Y-10551000D02*
X11259999Y-10371000D01*
X11259999Y-3151000D02*
X11259999Y-3331000D01*
X15559999Y-10551000D02*
X15559999Y-3151000D01*
X11259999Y-3151000D02*
X13014999Y-3151000D01*
X15289999Y-3151000D02*
X15559999Y-3151000D01*
D21*
X10109999Y-8201000D02*
G75*
G03*
X10109999Y-8201000I-100000J0D01*
G01*
D20*
X36248002Y-110276503D02*
X43648002Y-110276503D01*
X36248002Y-105976503D02*
X36428002Y-105976503D01*
X36248002Y-110276503D02*
X36248002Y-110006503D01*
X36248002Y-105976503D02*
X36248002Y-107731503D01*
X43648002Y-105976503D02*
X43468002Y-105976503D01*
X43648002Y-110006503D02*
X43648002Y-110276503D01*
X43648002Y-105976503D02*
X43648002Y-107731503D01*
D21*
X38698002Y-104726503D02*
G75*
G03*
X38698002Y-104726503I-100000J0D01*
G01*
D10*
X22809748Y-30558000D02*
X24232252Y-30558000D01*
X22809748Y-28738000D02*
X24232252Y-28738000D01*
X71616220Y-68466800D02*
X71897380Y-68466800D01*
X71616220Y-69486800D02*
X71897380Y-69486800D01*
X9941782Y-74865187D02*
X9941782Y-73865187D01*
X41001782Y-74865187D02*
X43861782Y-74865187D01*
X41001782Y-74865187D02*
X41001782Y-73865187D01*
X9941782Y-53065187D02*
X9941782Y-52065187D01*
X8971782Y-88465187D02*
X41971782Y-88465187D01*
X5471782Y-36965187D02*
X5471782Y-84965187D01*
X7081782Y-74865187D02*
X7081782Y-73865187D01*
X41001782Y-52065187D02*
X41001782Y-53065187D01*
X7081782Y-53065187D02*
X7081782Y-52065187D01*
X43861782Y-52065187D02*
X43861782Y-53065187D01*
X41001782Y-52065187D02*
X43861782Y-52065187D01*
X7081782Y-52065187D02*
X9941782Y-52065187D01*
X7081782Y-74865187D02*
X9941782Y-74865187D01*
X41971782Y-33465187D02*
X8971782Y-33465187D01*
X45471782Y-84965187D02*
X45471782Y-36965187D01*
X43861782Y-74865187D02*
X43861782Y-73865187D01*
X5471782Y-36965187D02*
G75*
G02*
X8971782Y-33465187I3500000J0D01*
G01*
X8971782Y-88465187D02*
G75*
G02*
X5471782Y-84965187I0J3500000D01*
G01*
X41971782Y-33465187D02*
G75*
G02*
X45471782Y-36965187I0J-3500000D01*
G01*
X45471782Y-84965187D02*
G75*
G02*
X41971782Y-88465187I-3500000J0D01*
G01*
X20578500Y-18715252D02*
X20578500Y-18192748D01*
X19108500Y-18715252D02*
X19108500Y-18192748D01*
D21*
X48760000Y-112080000D02*
X48760000Y-105860000D01*
X65070000Y-112080000D02*
X48760000Y-112080000D01*
X48745000Y-111820000D02*
X48435000Y-111060000D01*
X66245000Y-108000000D02*
X66145000Y-108420000D01*
X47885000Y-108840000D02*
X47695000Y-108020000D01*
X47695000Y-108020000D02*
X47635000Y-107610000D01*
X48760000Y-79310000D02*
X65070000Y-79310000D01*
X65365000Y-111200000D02*
X65225000Y-111610000D01*
X66445000Y-105320000D02*
X66475000Y-105720000D01*
X65965000Y-109180000D02*
X65695000Y-110180000D01*
X65115000Y-111900000D02*
X65055000Y-111990000D01*
X47475000Y-105540000D02*
X47465000Y-105860000D01*
X48435000Y-111060000D02*
X48165000Y-110160000D01*
X48760000Y-102760000D02*
X48760000Y-79310000D01*
X65515000Y-110770000D02*
X65365000Y-111200000D01*
X47515000Y-105310000D02*
X47475000Y-105540000D01*
X66495000Y-105990000D02*
X66485000Y-106190000D01*
X47495000Y-106300000D02*
X47455000Y-105640000D01*
X65225000Y-111610000D02*
X65115000Y-111900000D01*
X65695000Y-110210000D02*
X65515000Y-110770000D01*
X47555000Y-106910000D02*
X47495000Y-106300000D01*
X48165000Y-110160000D02*
X47885000Y-108840000D01*
X47635000Y-107610000D02*
X47555000Y-106910000D01*
X65070000Y-79310000D02*
X65070000Y-102760000D01*
X66315000Y-107560000D02*
X66245000Y-108000000D01*
X65070000Y-105860000D02*
X65070000Y-112080000D01*
X66475000Y-105720000D02*
X66495000Y-105990000D01*
X66425000Y-106880000D02*
X66315000Y-107560000D01*
X66145000Y-108420000D02*
X65965000Y-109180000D01*
D10*
X90071932Y-38101319D02*
X90071932Y-38382479D01*
X89051932Y-38101319D02*
X89051932Y-38382479D01*
X104587252Y-71131000D02*
X103164748Y-71131000D01*
X104587252Y-73851000D02*
X103164748Y-73851000D01*
X78836258Y-74744500D02*
X78361742Y-74744500D01*
X78836258Y-73699500D02*
X78361742Y-73699500D01*
X14509500Y-20765000D02*
X15309500Y-20765000D01*
X14509500Y-23885000D02*
X16309500Y-23885000D01*
X14509500Y-20765000D02*
X13709500Y-20765000D01*
X14509500Y-23885000D02*
X13709500Y-23885000D01*
X37610251Y-29184603D02*
X36187747Y-29184603D01*
X37610251Y-27364603D02*
X36187747Y-27364603D01*
X42316999Y-17179252D02*
X42316999Y-16656748D01*
X40846999Y-17179252D02*
X40846999Y-16656748D01*
X53513990Y-56299811D02*
X53232830Y-56299811D01*
X53513990Y-57319811D02*
X53232830Y-57319811D01*
X16289500Y-18795580D02*
X16289500Y-18514420D01*
X15269500Y-18795580D02*
X15269500Y-18514420D01*
X85923000Y-58749748D02*
X85923000Y-59272252D01*
X84453000Y-58749748D02*
X84453000Y-59272252D01*
X89631500Y-55952258D02*
X89631500Y-55477742D01*
X90676500Y-55952258D02*
X90676500Y-55477742D01*
X14075280Y-25373000D02*
X13794120Y-25373000D01*
X14075280Y-24353000D02*
X13794120Y-24353000D01*
X89126500Y-55952258D02*
X89126500Y-55477742D01*
X88081500Y-55952258D02*
X88081500Y-55477742D01*
X91676000Y-48926748D02*
X91676000Y-50349252D01*
X93496000Y-48926748D02*
X93496000Y-50349252D01*
X78309000Y-78190420D02*
X78309000Y-78471580D01*
X77289000Y-78190420D02*
X77289000Y-78471580D01*
X84528000Y-44907748D02*
X84528000Y-46330252D01*
X82708000Y-44907748D02*
X82708000Y-46330252D01*
X81551400Y-70505163D02*
X81551400Y-66049600D01*
X86006963Y-71569600D02*
X87071400Y-70505163D01*
X87071400Y-70505163D02*
X87071400Y-66049600D01*
X86006963Y-71569600D02*
X85371400Y-71569600D01*
X82615837Y-71569600D02*
X81551400Y-70505163D01*
X81551400Y-66049600D02*
X83251400Y-66049600D01*
X82615837Y-71569600D02*
X83251400Y-71569600D01*
X87071400Y-66049600D02*
X85371400Y-66049600D01*
X82313900Y-72122100D02*
X82938900Y-72122100D01*
X82626400Y-72434600D02*
X82626400Y-71809600D01*
X98234007Y-49123987D02*
X98234007Y-44313987D01*
X93984007Y-44313987D02*
X98234007Y-44313987D01*
X93984007Y-44313987D02*
X93984007Y-49123987D01*
X90630332Y-38199047D02*
X90630332Y-38721551D01*
X92100332Y-38199047D02*
X92100332Y-38721551D01*
X104587252Y-77201000D02*
X103164748Y-77201000D01*
X104587252Y-74481000D02*
X103164748Y-74481000D01*
D17*
X3220000Y-78138000D02*
X4720000Y-78138000D01*
X1720000Y-80388000D02*
X4720000Y-80388000D01*
D10*
X10702742Y-95182500D02*
X11177258Y-95182500D01*
X10702742Y-94137500D02*
X11177258Y-94137500D01*
X76874000Y-105412378D02*
X76874000Y-106211622D01*
X75754000Y-105412378D02*
X75754000Y-106211622D01*
X78824258Y-73206500D02*
X78349742Y-73206500D01*
X78824258Y-72161500D02*
X78349742Y-72161500D01*
X57922742Y-7259500D02*
X58397258Y-7259500D01*
X57922742Y-8304500D02*
X58397258Y-8304500D01*
X2004000Y-69289000D02*
X2004000Y-73674000D01*
X5024000Y-73674000D02*
X5024000Y-69289000D01*
X5024000Y-69289000D02*
X2004000Y-69289000D01*
X79490000Y-86899711D02*
X79490000Y-81499711D01*
X76190000Y-86899711D02*
X79490000Y-86899711D01*
X76190000Y-86899711D02*
X76190000Y-81499711D01*
X89205142Y-32084199D02*
X89679658Y-32084199D01*
X89205142Y-31039199D02*
X89679658Y-31039199D01*
X92922300Y-54796800D02*
X92922300Y-68157200D01*
X107171700Y-54796800D02*
X106014740Y-54796800D01*
X107171700Y-68157200D02*
X107171700Y-54796800D01*
X99079260Y-54796800D02*
X98514740Y-54796800D01*
X103514740Y-68157200D02*
X104079260Y-68157200D01*
X106014740Y-68157200D02*
X107171700Y-68157200D01*
X96014740Y-68157200D02*
X96579260Y-68157200D01*
X96579260Y-54796800D02*
X96014740Y-54796800D01*
X92922300Y-68157200D02*
X94079260Y-68157200D01*
X101579260Y-54796800D02*
X101014740Y-54796800D01*
X98514740Y-68157200D02*
X99079260Y-68157200D01*
X94079260Y-54796800D02*
X92922300Y-54796800D01*
X101014740Y-68157200D02*
X101579260Y-68157200D01*
X104079260Y-54796800D02*
X103514740Y-54796800D01*
X90994936Y-72891000D02*
X92449064Y-72891000D01*
X90994936Y-71071000D02*
X92449064Y-71071000D01*
X72875184Y-56349005D02*
X72594024Y-56349005D01*
X72875184Y-57369005D02*
X72594024Y-57369005D01*
X79876799Y-94536254D02*
X79876799Y-89136254D01*
X83176799Y-94536254D02*
X83176799Y-89136254D01*
X79876799Y-94536254D02*
X83176799Y-94536254D01*
X34939000Y-99652420D02*
X34939000Y-99933580D01*
X33919000Y-99652420D02*
X33919000Y-99933580D01*
X89295000Y-45650252D02*
X89295000Y-44227748D01*
X91115000Y-45650252D02*
X91115000Y-44227748D01*
X66399600Y-86308780D02*
X66399600Y-86027620D01*
X67419600Y-86308780D02*
X67419600Y-86027620D01*
X89065000Y-70164748D02*
X89065000Y-70687252D01*
X87595000Y-70164748D02*
X87595000Y-70687252D01*
X71151600Y-81988800D02*
X70351600Y-81988800D01*
X71151600Y-81988800D02*
X71951600Y-81988800D01*
X71151600Y-78868800D02*
X71951600Y-78868800D01*
X71151600Y-78868800D02*
X69351600Y-78868800D01*
X98680000Y-99109622D02*
X98680000Y-98310378D01*
X99800000Y-99109622D02*
X99800000Y-98310378D01*
X82074000Y-44900748D02*
X82074000Y-46323252D01*
X80254000Y-44900748D02*
X80254000Y-46323252D01*
X41845799Y-29036551D02*
X41845799Y-30459055D01*
X40025799Y-29036551D02*
X40025799Y-30459055D01*
X84064000Y-72961000D02*
X86264000Y-72961000D01*
X84064000Y-72961000D02*
X80414000Y-72961000D01*
X84064000Y-78481000D02*
X86264000Y-78481000D01*
X84064000Y-78481000D02*
X81864000Y-78481000D01*
X71403742Y-83491700D02*
X71878258Y-83491700D01*
X71403742Y-82446700D02*
X71878258Y-82446700D01*
X81339000Y-55473580D02*
X81339000Y-55192420D01*
X82359000Y-55473580D02*
X82359000Y-55192420D01*
X71735000Y-91230800D02*
X70265000Y-91230800D01*
X70265000Y-91230800D02*
X70265000Y-93515800D01*
X71735000Y-93515800D02*
X71735000Y-91230800D01*
X47479500Y-83277742D02*
X47479500Y-83752258D01*
X46434500Y-83277742D02*
X46434500Y-83752258D01*
X89312500Y-78721258D02*
X89312500Y-78246742D01*
X88267500Y-78721258D02*
X88267500Y-78246742D01*
X87295797Y-94568254D02*
X90595797Y-94568254D01*
X90595797Y-94568254D02*
X90595797Y-89168254D01*
X87295797Y-94568254D02*
X87295797Y-89168254D01*
X38779999Y-17186252D02*
X38779999Y-16663748D01*
X40249999Y-17186252D02*
X40249999Y-16663748D01*
X70265000Y-100424800D02*
X70265000Y-102709800D01*
X70265000Y-102709800D02*
X71735000Y-102709800D01*
X71735000Y-102709800D02*
X71735000Y-100424800D01*
X89123742Y-52918500D02*
X89598258Y-52918500D01*
X89123742Y-53963500D02*
X89598258Y-53963500D01*
M02*
