<?xml version="1.0" ?><!DOCTYPE svg  PUBLIC '-//W3C//DTD SVG 1.1//EN'  'http://www.w3.org/Graphics/SVG/1.1/DTD/svg11.dtd'><svg enable-background="new 0 0 512 512" height="512px" id="Layer_1" version="1.1" viewBox="0 0 512 512" width="512px" xml:space="preserve" xmlns="http://www.w3.org/2000/svg" xmlns:xlink="http://www.w3.org/1999/xlink"><g><path d="M443.328,112H84.672C64.422,112,48,128.422,48,148.672v294.656C48,463.578,64.422,480,84.672,480h358.656   c20.25,0,36.672-16.422,36.672-36.672V148.672C480,128.422,463.578,112,443.328,112z M432,423.5c0,4.688-3.813,8.5-8.5,8.5h-319   c-4.695,0-8.5-3.813-8.5-8.5v-255c0-4.695,3.805-8.5,8.5-8.5h319c4.688,0,8.5,3.805,8.5,8.5V423.5z M254.398,400   c-6.664,0-12.641-4.133-14.984-10.383l-37.031-100.352l-14.672,23.608c-2.969,4.453-7.961,7.125-13.313,7.125H128   c-8.836,0-16-7.164-16-16s7.164-16,16-16h37.836l27.25-40.875c3.32-4.992,9.156-7.742,15.141-7.023   c5.969,0.688,11.047,4.656,13.156,10.281l32.781,89.031l49.18-136.883c2.328-6.398,9.063-10.219,15.25-10.531   c6.797,0.094,12.813,4.484,14.953,10.938L361.906,288H400c8.844,0,16,7.164,16,16s-7.156,16-16,16h-49.625   c-6.891,0-13-4.406-15.172-10.938l-17.484-55.633l-48.281,136.039c-2.289,6.298-8.258,10.5-14.96,10.531   C254.453,400,254.422,400,254.398,400z" fill="#4D4D4D"/></g></svg>