%TF.GenerationSoftware,KiCad,Pcbnew,5.99.0-unknown-6296b4e~102~ubuntu18.04.1*%
%TF.CreationDate,2020-07-17T11:30:15-05:00*%
%TF.ProjectId,FlatAnt4x4,466c6174-416e-4743-9478-342e6b696361,rev?*%
%TF.SameCoordinates,Original*%
%TF.FileFunction,Soldermask,Top*%
%TF.FilePolarity,Negative*%
%FSLAX46Y46*%
G04 Gerber Fmt 4.6, Leading zero omitted, Abs format (unit mm)*
G04 Created by KiCad (PCBNEW 5.99.0-unknown-6296b4e~102~ubuntu18.04.1) date 2020-07-17 11:30:15*
%MOMM*%
%LPD*%
G01*
G04 APERTURE LIST*
%ADD10C,0.000100*%
%ADD11C,4.000000*%
%ADD12C,1.524000*%
%ADD13C,5.500000*%
%ADD14C,58.000000*%
G04 APERTURE END LIST*
%TO.C,REF\u002A\u002A*%
G36*
X47591705Y-123236723D02*
G01*
X44409724Y-124297383D01*
X43702617Y-123590276D01*
X44763277Y-120408295D01*
X47591705Y-123236723D01*
G37*
D10*
X47591705Y-123236723D02*
X44409724Y-124297383D01*
X43702617Y-123590276D01*
X44763277Y-120408295D01*
X47591705Y-123236723D01*
G36*
X47591705Y-44763277D02*
G01*
X44763277Y-47591705D01*
X43702617Y-44409724D01*
X44409724Y-43702617D01*
X47591705Y-44763277D01*
G37*
X47591705Y-44763277D02*
X44763277Y-47591705D01*
X43702617Y-44409724D01*
X44409724Y-43702617D01*
X47591705Y-44763277D01*
G36*
X124297383Y-44409724D02*
G01*
X123236723Y-47591705D01*
X120408295Y-44763277D01*
X123590276Y-43702617D01*
X124297383Y-44409724D01*
G37*
X124297383Y-44409724D02*
X123236723Y-47591705D01*
X120408295Y-44763277D01*
X123590276Y-43702617D01*
X124297383Y-44409724D01*
G36*
X121600000Y-83200000D02*
G01*
X121600000Y-84800000D01*
X118600000Y-86000000D01*
X118600000Y-82000000D01*
X121600000Y-83200000D01*
G37*
X121600000Y-83200000D02*
X121600000Y-84800000D01*
X118600000Y-86000000D01*
X118600000Y-82000000D01*
X121600000Y-83200000D01*
G36*
X86000000Y-49450000D02*
G01*
X82000000Y-49450000D01*
X83200000Y-46450000D01*
X84800000Y-46450000D01*
X86000000Y-49450000D01*
G37*
X86000000Y-49450000D02*
X82000000Y-49450000D01*
X83200000Y-46450000D01*
X84800000Y-46450000D01*
X86000000Y-49450000D01*
G36*
X124297383Y-123590276D02*
G01*
X123590276Y-124297383D01*
X120408295Y-123236723D01*
X123236723Y-120408295D01*
X124297383Y-123590276D01*
G37*
X124297383Y-123590276D02*
X123590276Y-124297383D01*
X120408295Y-123236723D01*
X123236723Y-120408295D01*
X124297383Y-123590276D01*
G36*
X49400000Y-86000000D02*
G01*
X46400000Y-84800000D01*
X46400000Y-83200000D01*
X49400000Y-82000000D01*
X49400000Y-86000000D01*
G37*
X49400000Y-86000000D02*
X46400000Y-84800000D01*
X46400000Y-83200000D01*
X49400000Y-82000000D01*
X49400000Y-86000000D01*
G36*
X84800000Y-121600000D02*
G01*
X83200000Y-121600000D01*
X82000000Y-118600000D01*
X86000000Y-118600000D01*
X84800000Y-121600000D01*
G37*
X84800000Y-121600000D02*
X83200000Y-121600000D01*
X82000000Y-118600000D01*
X86000000Y-118600000D01*
X84800000Y-121600000D01*
%TD*%
D11*
%TO.C,REF\u002A\u002A*%
X158500000Y-4500000D03*
%TD*%
D12*
%TO.C,REF\u002A\u002A*%
X45435029Y-122564971D03*
%TD*%
%TO.C,REF\u002A\u002A*%
X45435029Y-45435029D03*
%TD*%
%TO.C,REF\u002A\u002A*%
X122564971Y-45435029D03*
%TD*%
%TO.C,REF\u002A\u002A*%
X119650000Y-84000000D03*
%TD*%
%TO.C,REF\u002A\u002A*%
X84000000Y-48400000D03*
%TD*%
%TO.C,REF\u002A\u002A*%
X122564971Y-122564971D03*
%TD*%
%TO.C,REF\u002A\u002A*%
X48350000Y-84000000D03*
%TD*%
D11*
%TO.C,REF\u002A\u002A*%
X158500000Y-163500000D03*
%TD*%
%TO.C,eREF\u002A\u002A*%
X9500000Y-163500000D03*
%TD*%
%TO.C,REF\u002A\u002A*%
X9500000Y-4500000D03*
%TD*%
D13*
%TO.C,REF\u002A\u002A*%
X59000000Y-109000000D03*
X109000000Y-109000000D03*
X109000000Y-59000000D03*
X59000000Y-59000000D03*
D14*
X84000000Y-84000000D03*
%TD*%
D12*
%TO.C,REF\u002A\u002A*%
X84000000Y-119650000D03*
%TD*%
M02*
