%TF.GenerationSoftware,KiCad,Pcbnew,5.99.0-unknown-6296b4e~102~ubuntu18.04.1*%
%TF.CreationDate,2020-07-17T11:30:15-05:00*%
%TF.ProjectId,FlatAnt4x4,466c6174-416e-4743-9478-342e6b696361,rev?*%
%TF.SameCoordinates,Original*%
%TF.FileFunction,Legend,Top*%
%TF.FilePolarity,Positive*%
%FSLAX46Y46*%
G04 Gerber Fmt 4.6, Leading zero omitted, Abs format (unit mm)*
G04 Created by KiCad (PCBNEW 5.99.0-unknown-6296b4e~102~ubuntu18.04.1) date 2020-07-17 11:30:15*
%MOMM*%
%LPD*%
G01*
G04 APERTURE LIST*
%ADD10C,0.150000*%
G04 APERTURE END LIST*
D10*
X117007142Y-165472619D02*
X117054761Y-165425000D01*
X117149999Y-165377380D01*
X117388095Y-165377380D01*
X117483333Y-165425000D01*
X117530952Y-165472619D01*
X117578571Y-165567857D01*
X117578571Y-165663095D01*
X117530952Y-165805952D01*
X116959523Y-166377380D01*
X117578571Y-166377380D01*
X118197619Y-165377380D02*
X118292857Y-165377380D01*
X118388095Y-165425000D01*
X118435714Y-165472619D01*
X118483333Y-165567857D01*
X118530952Y-165758333D01*
X118530952Y-165996428D01*
X118483333Y-166186904D01*
X118435714Y-166282142D01*
X118388095Y-166329761D01*
X118292857Y-166377380D01*
X118197619Y-166377380D01*
X118102380Y-166329761D01*
X118054761Y-166282142D01*
X118007142Y-166186904D01*
X117959523Y-165996428D01*
X117959523Y-165758333D01*
X118007142Y-165567857D01*
X118054761Y-165472619D01*
X118102380Y-165425000D01*
X118197619Y-165377380D01*
X118911904Y-165472619D02*
X118959523Y-165425000D01*
X119054761Y-165377380D01*
X119292857Y-165377380D01*
X119388095Y-165425000D01*
X119435714Y-165472619D01*
X119483333Y-165567857D01*
X119483333Y-165663095D01*
X119435714Y-165805952D01*
X118864285Y-166377380D01*
X119483333Y-166377380D01*
X120102380Y-165377380D02*
X120197619Y-165377380D01*
X120292857Y-165425000D01*
X120340476Y-165472619D01*
X120388095Y-165567857D01*
X120435714Y-165758333D01*
X120435714Y-165996428D01*
X120388095Y-166186904D01*
X120340476Y-166282142D01*
X120292857Y-166329761D01*
X120197619Y-166377380D01*
X120102380Y-166377380D01*
X120007142Y-166329761D01*
X119959523Y-166282142D01*
X119911904Y-166186904D01*
X119864285Y-165996428D01*
X119864285Y-165758333D01*
X119911904Y-165567857D01*
X119959523Y-165472619D01*
X120007142Y-165425000D01*
X120102380Y-165377380D01*
X121626190Y-166377380D02*
X121626190Y-165377380D01*
X122054761Y-166329761D02*
X122197619Y-166377380D01*
X122435714Y-166377380D01*
X122530952Y-166329761D01*
X122578571Y-166282142D01*
X122626190Y-166186904D01*
X122626190Y-166091666D01*
X122578571Y-165996428D01*
X122530952Y-165948809D01*
X122435714Y-165901190D01*
X122245238Y-165853571D01*
X122149999Y-165805952D01*
X122102380Y-165758333D01*
X122054761Y-165663095D01*
X122054761Y-165567857D01*
X122102380Y-165472619D01*
X122149999Y-165425000D01*
X122245238Y-165377380D01*
X122483333Y-165377380D01*
X122626190Y-165425000D01*
X123816666Y-166377380D02*
X123816666Y-165377380D01*
X124292857Y-166377380D02*
X124292857Y-165710714D01*
X124292857Y-165805952D02*
X124340476Y-165758333D01*
X124435714Y-165710714D01*
X124578571Y-165710714D01*
X124673809Y-165758333D01*
X124721428Y-165853571D01*
X124721428Y-166377380D01*
X124721428Y-165853571D02*
X124769047Y-165758333D01*
X124864285Y-165710714D01*
X125007142Y-165710714D01*
X125102380Y-165758333D01*
X125149999Y-165853571D01*
X125149999Y-166377380D01*
X126054761Y-166377380D02*
X126054761Y-165853571D01*
X126007142Y-165758333D01*
X125911904Y-165710714D01*
X125721428Y-165710714D01*
X125626190Y-165758333D01*
X126054761Y-166329761D02*
X125959523Y-166377380D01*
X125721428Y-166377380D01*
X125626190Y-166329761D01*
X125578571Y-166234523D01*
X125578571Y-166139285D01*
X125626190Y-166044047D01*
X125721428Y-165996428D01*
X125959523Y-165996428D01*
X126054761Y-165948809D01*
X126959523Y-165710714D02*
X126959523Y-166520238D01*
X126911904Y-166615476D01*
X126864285Y-166663095D01*
X126769047Y-166710714D01*
X126626190Y-166710714D01*
X126530952Y-166663095D01*
X126959523Y-166329761D02*
X126864285Y-166377380D01*
X126673809Y-166377380D01*
X126578571Y-166329761D01*
X126530952Y-166282142D01*
X126483333Y-166186904D01*
X126483333Y-165901190D01*
X126530952Y-165805952D01*
X126578571Y-165758333D01*
X126673809Y-165710714D01*
X126864285Y-165710714D01*
X126959523Y-165758333D01*
X127816666Y-166329761D02*
X127721428Y-166377380D01*
X127530952Y-166377380D01*
X127435714Y-166329761D01*
X127388095Y-166234523D01*
X127388095Y-165853571D01*
X127435714Y-165758333D01*
X127530952Y-165710714D01*
X127721428Y-165710714D01*
X127816666Y-165758333D01*
X127864285Y-165853571D01*
X127864285Y-165948809D01*
X127388095Y-166044047D01*
X128245238Y-166329761D02*
X128388095Y-166377380D01*
X128626190Y-166377380D01*
X128721428Y-166329761D01*
X128769047Y-166282142D01*
X128816666Y-166186904D01*
X128816666Y-166091666D01*
X128769047Y-165996428D01*
X128721428Y-165948809D01*
X128626190Y-165901190D01*
X128435714Y-165853571D01*
X128340476Y-165805952D01*
X128292857Y-165758333D01*
X128245238Y-165663095D01*
X128245238Y-165567857D01*
X128292857Y-165472619D01*
X128340476Y-165425000D01*
X128435714Y-165377380D01*
X128673809Y-165377380D01*
X128816666Y-165425000D01*
X129102380Y-165710714D02*
X129483333Y-165710714D01*
X129245238Y-165377380D02*
X129245238Y-166234523D01*
X129292857Y-166329761D01*
X129388095Y-166377380D01*
X129483333Y-166377380D01*
X129816666Y-166377380D02*
X129816666Y-165710714D01*
X129816666Y-165901190D02*
X129864285Y-165805952D01*
X129911904Y-165758333D01*
X130007142Y-165710714D01*
X130102380Y-165710714D01*
X130816666Y-166329761D02*
X130721428Y-166377380D01*
X130530952Y-166377380D01*
X130435714Y-166329761D01*
X130388095Y-166234523D01*
X130388095Y-165853571D01*
X130435714Y-165758333D01*
X130530952Y-165710714D01*
X130721428Y-165710714D01*
X130816666Y-165758333D01*
X130864285Y-165853571D01*
X130864285Y-165948809D01*
X130388095Y-166044047D01*
X131721428Y-166377380D02*
X131721428Y-165853571D01*
X131673809Y-165758333D01*
X131578571Y-165710714D01*
X131388095Y-165710714D01*
X131292857Y-165758333D01*
X131721428Y-166329761D02*
X131626190Y-166377380D01*
X131388095Y-166377380D01*
X131292857Y-166329761D01*
X131245238Y-166234523D01*
X131245238Y-166139285D01*
X131292857Y-166044047D01*
X131388095Y-165996428D01*
X131626190Y-165996428D01*
X131721428Y-165948809D01*
X132197619Y-166377380D02*
X132197619Y-165710714D01*
X132197619Y-165805952D02*
X132245238Y-165758333D01*
X132340476Y-165710714D01*
X132483333Y-165710714D01*
X132578571Y-165758333D01*
X132626190Y-165853571D01*
X132626190Y-166377380D01*
X132626190Y-165853571D02*
X132673809Y-165758333D01*
X132769047Y-165710714D01*
X132911904Y-165710714D01*
X133007142Y-165758333D01*
X133054761Y-165853571D01*
X133054761Y-166377380D01*
X134292857Y-166377380D02*
X134292857Y-165377380D01*
X134769047Y-165710714D02*
X134769047Y-166377380D01*
X134769047Y-165805952D02*
X134816666Y-165758333D01*
X134911904Y-165710714D01*
X135054761Y-165710714D01*
X135150000Y-165758333D01*
X135197619Y-165853571D01*
X135197619Y-166377380D01*
X135530952Y-165710714D02*
X135911904Y-165710714D01*
X135673809Y-165377380D02*
X135673809Y-166234523D01*
X135721428Y-166329761D01*
X135816666Y-166377380D01*
X135911904Y-166377380D01*
X136626190Y-166329761D02*
X136530952Y-166377380D01*
X136340476Y-166377380D01*
X136245238Y-166329761D01*
X136197619Y-166234523D01*
X136197619Y-165853571D01*
X136245238Y-165758333D01*
X136340476Y-165710714D01*
X136530952Y-165710714D01*
X136626190Y-165758333D01*
X136673809Y-165853571D01*
X136673809Y-165948809D01*
X136197619Y-166044047D01*
X137102380Y-166377380D02*
X137102380Y-165710714D01*
X137102380Y-165901190D02*
X137150000Y-165805952D01*
X137197619Y-165758333D01*
X137292857Y-165710714D01*
X137388095Y-165710714D01*
X137721428Y-165710714D02*
X137721428Y-166377380D01*
X137721428Y-165805952D02*
X137769047Y-165758333D01*
X137864285Y-165710714D01*
X138007142Y-165710714D01*
X138102380Y-165758333D01*
X138150000Y-165853571D01*
X138150000Y-166377380D01*
X139007142Y-166329761D02*
X138911904Y-166377380D01*
X138721428Y-166377380D01*
X138626190Y-166329761D01*
X138578571Y-166234523D01*
X138578571Y-165853571D01*
X138626190Y-165758333D01*
X138721428Y-165710714D01*
X138911904Y-165710714D01*
X139007142Y-165758333D01*
X139054761Y-165853571D01*
X139054761Y-165948809D01*
X138578571Y-166044047D01*
X139340476Y-165710714D02*
X139721428Y-165710714D01*
X139483333Y-165377380D02*
X139483333Y-166234523D01*
X139530952Y-166329761D01*
X139626190Y-166377380D01*
X139721428Y-166377380D01*
X140769047Y-166329761D02*
X140911904Y-166377380D01*
X141150000Y-166377380D01*
X141245238Y-166329761D01*
X141292857Y-166282142D01*
X141340476Y-166186904D01*
X141340476Y-166091666D01*
X141292857Y-165996428D01*
X141245238Y-165948809D01*
X141150000Y-165901190D01*
X140959523Y-165853571D01*
X140864285Y-165805952D01*
X140816666Y-165758333D01*
X140769047Y-165663095D01*
X140769047Y-165567857D01*
X140816666Y-165472619D01*
X140864285Y-165425000D01*
X140959523Y-165377380D01*
X141197619Y-165377380D01*
X141340476Y-165425000D01*
X141911904Y-166377380D02*
X141816666Y-166329761D01*
X141769047Y-166282142D01*
X141721428Y-166186904D01*
X141721428Y-165901190D01*
X141769047Y-165805952D01*
X141816666Y-165758333D01*
X141911904Y-165710714D01*
X142054761Y-165710714D01*
X142150000Y-165758333D01*
X142197619Y-165805952D01*
X142245238Y-165901190D01*
X142245238Y-166186904D01*
X142197619Y-166282142D01*
X142150000Y-166329761D01*
X142054761Y-166377380D01*
X141911904Y-166377380D01*
X142816666Y-166377380D02*
X142721428Y-166329761D01*
X142673809Y-166234523D01*
X142673809Y-165377380D01*
X143626190Y-165710714D02*
X143626190Y-166377380D01*
X143197619Y-165710714D02*
X143197619Y-166234523D01*
X143245238Y-166329761D01*
X143340476Y-166377380D01*
X143483333Y-166377380D01*
X143578571Y-166329761D01*
X143626190Y-166282142D01*
X143959523Y-165710714D02*
X144340476Y-165710714D01*
X144102380Y-165377380D02*
X144102380Y-166234523D01*
X144149999Y-166329761D01*
X144245238Y-166377380D01*
X144340476Y-166377380D01*
X144673809Y-166377380D02*
X144673809Y-165710714D01*
X144673809Y-165377380D02*
X144626190Y-165425000D01*
X144673809Y-165472619D01*
X144721428Y-165425000D01*
X144673809Y-165377380D01*
X144673809Y-165472619D01*
X145292857Y-166377380D02*
X145197619Y-166329761D01*
X145149999Y-166282142D01*
X145102380Y-166186904D01*
X145102380Y-165901190D01*
X145149999Y-165805952D01*
X145197619Y-165758333D01*
X145292857Y-165710714D01*
X145435714Y-165710714D01*
X145530952Y-165758333D01*
X145578571Y-165805952D01*
X145626190Y-165901190D01*
X145626190Y-166186904D01*
X145578571Y-166282142D01*
X145530952Y-166329761D01*
X145435714Y-166377380D01*
X145292857Y-166377380D01*
X146054761Y-165710714D02*
X146054761Y-166377380D01*
X146054761Y-165805952D02*
X146102380Y-165758333D01*
X146197619Y-165710714D01*
X146340476Y-165710714D01*
X146435714Y-165758333D01*
X146483333Y-165853571D01*
X146483333Y-166377380D01*
X146911904Y-166329761D02*
X147007142Y-166377380D01*
X147197619Y-166377380D01*
X147292857Y-166329761D01*
X147340476Y-166234523D01*
X147340476Y-166186904D01*
X147292857Y-166091666D01*
X147197619Y-166044047D01*
X147054761Y-166044047D01*
X146959523Y-165996428D01*
X146911904Y-165901190D01*
X146911904Y-165853571D01*
X146959523Y-165758333D01*
X147054761Y-165710714D01*
X147197619Y-165710714D01*
X147292857Y-165758333D01*
X147816666Y-166329761D02*
X147816666Y-166377380D01*
X147769047Y-166472619D01*
X147721428Y-166520238D01*
X149007142Y-166377380D02*
X149007142Y-165377380D01*
X149483333Y-165710714D02*
X149483333Y-166377380D01*
X149483333Y-165805952D02*
X149530952Y-165758333D01*
X149626190Y-165710714D01*
X149769047Y-165710714D01*
X149864285Y-165758333D01*
X149911904Y-165853571D01*
X149911904Y-166377380D01*
X150816666Y-166329761D02*
X150721428Y-166377380D01*
X150530952Y-166377380D01*
X150435714Y-166329761D01*
X150388095Y-166282142D01*
X150340476Y-166186904D01*
X150340476Y-165901190D01*
X150388095Y-165805952D01*
X150435714Y-165758333D01*
X150530952Y-165710714D01*
X150721428Y-165710714D01*
X150816666Y-165758333D01*
X151245238Y-166282142D02*
X151292857Y-166329761D01*
X151245238Y-166377380D01*
X151197619Y-166329761D01*
X151245238Y-166282142D01*
X151245238Y-166377380D01*
X116886904Y-163777380D02*
X117125000Y-164777380D01*
X117315476Y-164063095D01*
X117505952Y-164777380D01*
X117744047Y-163777380D01*
X118125000Y-164777380D02*
X118125000Y-164110714D01*
X118125000Y-163777380D02*
X118077380Y-163825000D01*
X118125000Y-163872619D01*
X118172619Y-163825000D01*
X118125000Y-163777380D01*
X118125000Y-163872619D01*
X118934523Y-164253571D02*
X118601190Y-164253571D01*
X118601190Y-164777380D02*
X118601190Y-163777380D01*
X119077380Y-163777380D01*
X119458333Y-164777380D02*
X119458333Y-164110714D01*
X119458333Y-163777380D02*
X119410714Y-163825000D01*
X119458333Y-163872619D01*
X119505952Y-163825000D01*
X119458333Y-163777380D01*
X119458333Y-163872619D01*
X120696428Y-164777380D02*
X120696428Y-163777380D01*
X121077380Y-163777380D01*
X121172619Y-163825000D01*
X121220238Y-163872619D01*
X121267857Y-163967857D01*
X121267857Y-164110714D01*
X121220238Y-164205952D01*
X121172619Y-164253571D01*
X121077380Y-164301190D01*
X120696428Y-164301190D01*
X122267857Y-164682142D02*
X122220238Y-164729761D01*
X122077380Y-164777380D01*
X121982142Y-164777380D01*
X121839285Y-164729761D01*
X121744047Y-164634523D01*
X121696428Y-164539285D01*
X121648809Y-164348809D01*
X121648809Y-164205952D01*
X121696428Y-164015476D01*
X121744047Y-163920238D01*
X121839285Y-163825000D01*
X121982142Y-163777380D01*
X122077380Y-163777380D01*
X122220238Y-163825000D01*
X122267857Y-163872619D01*
X123029761Y-164253571D02*
X123172619Y-164301190D01*
X123220238Y-164348809D01*
X123267857Y-164444047D01*
X123267857Y-164586904D01*
X123220238Y-164682142D01*
X123172619Y-164729761D01*
X123077380Y-164777380D01*
X122696428Y-164777380D01*
X122696428Y-163777380D01*
X123029761Y-163777380D01*
X123125000Y-163825000D01*
X123172619Y-163872619D01*
X123220238Y-163967857D01*
X123220238Y-164063095D01*
X123172619Y-164158333D01*
X123125000Y-164205952D01*
X123029761Y-164253571D01*
X122696428Y-164253571D01*
X124410714Y-164491666D02*
X124886904Y-164491666D01*
X124315476Y-164777380D02*
X124648809Y-163777380D01*
X124982142Y-164777380D01*
X125315476Y-164110714D02*
X125315476Y-164777380D01*
X125315476Y-164205952D02*
X125363095Y-164158333D01*
X125458333Y-164110714D01*
X125601190Y-164110714D01*
X125696428Y-164158333D01*
X125744047Y-164253571D01*
X125744047Y-164777380D01*
X126077380Y-164110714D02*
X126458333Y-164110714D01*
X126220238Y-163777380D02*
X126220238Y-164634523D01*
X126267857Y-164729761D01*
X126363095Y-164777380D01*
X126458333Y-164777380D01*
X127172619Y-164729761D02*
X127077380Y-164777380D01*
X126886904Y-164777380D01*
X126791666Y-164729761D01*
X126744047Y-164634523D01*
X126744047Y-164253571D01*
X126791666Y-164158333D01*
X126886904Y-164110714D01*
X127077380Y-164110714D01*
X127172619Y-164158333D01*
X127220238Y-164253571D01*
X127220238Y-164348809D01*
X126744047Y-164444047D01*
X127648809Y-164110714D02*
X127648809Y-164777380D01*
X127648809Y-164205952D02*
X127696428Y-164158333D01*
X127791666Y-164110714D01*
X127934523Y-164110714D01*
X128029761Y-164158333D01*
X128077380Y-164253571D01*
X128077380Y-164777380D01*
X128553571Y-164110714D02*
X128553571Y-164777380D01*
X128553571Y-164205952D02*
X128601190Y-164158333D01*
X128696428Y-164110714D01*
X128839285Y-164110714D01*
X128934523Y-164158333D01*
X128982142Y-164253571D01*
X128982142Y-164777380D01*
X129886904Y-164777380D02*
X129886904Y-164253571D01*
X129839285Y-164158333D01*
X129744047Y-164110714D01*
X129553571Y-164110714D01*
X129458333Y-164158333D01*
X129886904Y-164729761D02*
X129791666Y-164777380D01*
X129553571Y-164777380D01*
X129458333Y-164729761D01*
X129410714Y-164634523D01*
X129410714Y-164539285D01*
X129458333Y-164444047D01*
X129553571Y-164396428D01*
X129791666Y-164396428D01*
X129886904Y-164348809D01*
X131553571Y-164110714D02*
X131553571Y-164777380D01*
X131315476Y-163729761D02*
X131077380Y-164444047D01*
X131696428Y-164444047D01*
X131982142Y-164777380D02*
X132505952Y-164110714D01*
X131982142Y-164110714D02*
X132505952Y-164777380D01*
X133315476Y-164110714D02*
X133315476Y-164777380D01*
X133077380Y-163729761D02*
X132839285Y-164444047D01*
X133458333Y-164444047D01*
X134505952Y-164110714D02*
X134744047Y-164777380D01*
X134982142Y-164110714D01*
X135886904Y-164777380D02*
X135315476Y-164777380D01*
X135601190Y-164777380D02*
X135601190Y-163777380D01*
X135505952Y-163920238D01*
X135410714Y-164015476D01*
X135315476Y-164063095D01*
X136315476Y-164682142D02*
X136363095Y-164729761D01*
X136315476Y-164777380D01*
X136267857Y-164729761D01*
X136315476Y-164682142D01*
X136315476Y-164777380D01*
X136982142Y-163777380D02*
X137077380Y-163777380D01*
X137172619Y-163825000D01*
X137220238Y-163872619D01*
X137267857Y-163967857D01*
X137315476Y-164158333D01*
X137315476Y-164396428D01*
X137267857Y-164586904D01*
X137220238Y-164682142D01*
X137172619Y-164729761D01*
X137077380Y-164777380D01*
X136982142Y-164777380D01*
X136886904Y-164729761D01*
X136839285Y-164682142D01*
X136791666Y-164586904D01*
X136744047Y-164396428D01*
X136744047Y-164158333D01*
X136791666Y-163967857D01*
X136839285Y-163872619D01*
X136886904Y-163825000D01*
X136982142Y-163777380D01*
%TO.C,REF\u002A\u002A*%
X82666666Y-83952380D02*
X82333333Y-83476190D01*
X82095238Y-83952380D02*
X82095238Y-82952380D01*
X82476190Y-82952380D01*
X82571428Y-83000000D01*
X82619047Y-83047619D01*
X82666666Y-83142857D01*
X82666666Y-83285714D01*
X82619047Y-83380952D01*
X82571428Y-83428571D01*
X82476190Y-83476190D01*
X82095238Y-83476190D01*
X83095238Y-83428571D02*
X83428571Y-83428571D01*
X83571428Y-83952380D02*
X83095238Y-83952380D01*
X83095238Y-82952380D01*
X83571428Y-82952380D01*
X84333333Y-83428571D02*
X84000000Y-83428571D01*
X84000000Y-83952380D02*
X84000000Y-82952380D01*
X84476190Y-82952380D01*
X85000000Y-82952380D02*
X85000000Y-83190476D01*
X84761904Y-83095238D02*
X85000000Y-83190476D01*
X85238095Y-83095238D01*
X84857142Y-83380952D02*
X85000000Y-83190476D01*
X85142857Y-83380952D01*
X85761904Y-82952380D02*
X85761904Y-83190476D01*
X85523809Y-83095238D02*
X85761904Y-83190476D01*
X86000000Y-83095238D01*
X85619047Y-83380952D02*
X85761904Y-83190476D01*
X85904761Y-83380952D01*
%TD*%
M02*
