M48
; DRILL file {KiCad 5.99.0-unknown-50e22de3ba~107~ubuntu20.04.1} date Mon Jan 25 09:23:50 2021
; FORMAT={-:-/ absolute / inch / decimal}
; #@! TF.CreationDate,2021-01-25T09:23:50-06:00
; #@! TF.GenerationSoftware,Kicad,Pcbnew,5.99.0-unknown-50e22de3ba~107~ubuntu20.04.1
FMAT,2
INCH
T1C0.0079
T2C0.0299
T3C0.0350
T4C0.0394
T5C0.0433
T6C0.0511
T7C0.0620
T8C0.0984
T9C0.1732
T10C0.0433
T11C0.0512
T12C0.0630
T13C0.1024
T14C0.1063
T15C0.1260
T16C0.1280
%
G90
G05
T1
X0.0222Y-6.6648
X0.0222Y-6.9105
X0.0222Y-7.1562
X0.0222Y-7.402
X0.0222Y-7.6477
X0.0222Y-7.8934
X0.0222Y-8.1392
X0.0222Y-8.3849
X0.0222Y-8.6306
X0.0222Y-8.8764
X0.0244Y-4.8551
X0.0244Y-5.0973
X0.0244Y-5.3395
X0.0244Y-5.5817
X0.0244Y-5.8239
X0.0244Y-6.0661
X0.0244Y-6.3083
X0.0259Y-6.5816
X0.2648Y-6.6648
X0.2681Y-6.5816
X0.2821Y-8.8764
X0.3543Y-5.298
X0.4733Y-5.805
X0.4733Y-5.9
X0.5084Y-8.8764
X0.5833Y-5.326
X0.5833Y-5.695
X0.5863Y-5.261
X0.6283Y-5.695
X0.6293Y-5.74
X0.6733Y-5.695
X0.6983Y-5.414
X0.7013Y-5.261
X0.7013Y-5.33
X0.7113Y-5.695
X0.7283Y-8.268
X0.7348Y-8.8764
X0.7823Y-8.186
X0.7823Y-8.337
X0.8183Y-5.295
X0.8763Y-5.296
X0.9073Y-5.4857
X0.9383Y-8.337
X0.9393Y-8.186
X0.9612Y-8.8764
X0.9925Y-6.6648
X0.9947Y-6.5816
X1.0083Y-7.171
X1.0113Y-7.033
X1.0183Y-7.309
X1.0683Y-6.203
X1.1113Y-6.251
X1.1143Y-5.255
X1.1143Y-5.339
X1.1426Y-5.6973
X1.1593Y-6.205
X1.1843Y-5.255
X1.1843Y-5.339
X1.1876Y-5.6973
X1.1876Y-8.8764
X1.1923Y-5.744
X1.2133Y-6.25
X1.2313Y-5.164
X1.2326Y-5.6973
X1.235Y-6.6648
X1.2369Y-6.5816
X1.2463Y-5.428
X1.2573Y-6.204
X1.2583Y-4.975
X1.2673Y-5.6973
X1.3253Y-8.493
X1.3783Y-6.901
X1.3813Y-5.399
X1.4139Y-8.8764
X1.4203Y-7.243
X1.4283Y-5.0157
X1.4403Y-6.901
X1.4733Y-5.465
X1.4776Y-6.6648
X1.4791Y-6.5816
X1.5053Y-4.758
X1.5083Y-7.34
X1.5083Y-7.4
X1.5403Y-4.715
X1.5473Y-4.758
X1.6013Y-4.758
X1.6313Y-7.836
X1.6403Y-8.8764
X1.6443Y-7.818
X1.6533Y-5.97
X1.6533Y-6.05
X1.6573Y-7.836
X1.6593Y-6.098
X1.6913Y-6.01
X1.6963Y-6.74
X1.6963Y-6.847
X1.7083Y-7.255
X1.7293Y-6.098
X1.7333Y-5.97
X1.7333Y-6.05
X1.7423Y-5.767
X1.7763Y-6.728
X1.7773Y-7.836
X1.7783Y-6.01
X1.7783Y-7.075
X1.7903Y-7.818
X1.7933Y-6.847
X1.7983Y-7.215
X1.8033Y-7.836
X1.8083Y-7.055
X1.8133Y-5.97
X1.8133Y-6.05
X1.8203Y-5.843
X1.8333Y-7.4
X1.8388Y-6.662
X1.8418Y-6.5789
X1.8433Y-7.025
X1.8667Y-8.8764
X1.8733Y-6.91
X1.8733Y-6.97
X1.8903Y-5.843
X1.8933Y-7.025
X1.8933Y-7.305
X1.8933Y-7.36
X1.9033Y-5.478
X1.9253Y-7.836
X1.9302Y-7.0583
X1.9302Y-7.1094
X1.9302Y-7.1606
X1.9302Y-7.2118
X1.9383Y-6.97
X1.9393Y-7.819
X1.9433Y-5.734
X1.9523Y-4.996
X1.9533Y-7.836
X1.9603Y-5.843
X1.9613Y-5.096
X1.9813Y-6.876
X1.9833Y-7.0583
X1.9833Y-7.1094
X1.9833Y-7.1606
X1.9833Y-7.2118
X1.9853Y-5.045
X1.9983Y-5.58
X2.0303Y-5.843
X2.0365Y-7.0583
X2.0365Y-7.1094
X2.0365Y-7.1606
X2.0365Y-7.2118
X2.0626Y-5.58
X2.0653Y-7.826
X2.0683Y-7.01
X2.0813Y-6.662
X2.084Y-6.5789
X2.0878Y-7.826
X2.0931Y-8.8764
X2.0945Y-5.3563
X2.1003Y-5.843
X2.1103Y-7.826
X2.1473Y-6.774
X2.1863Y-5.781
X2.215Y-5.4189
X2.2243Y-5.845
X2.2243Y-6.125
X2.2733Y-7.255
X2.3083Y-7.32
X2.3093Y-7.11
X2.3193Y-4.996
X2.3195Y-8.8764
X2.3293Y-7.014
X2.3383Y-7.195
X2.4091Y-5.468
X2.4093Y-5.367
X2.4533Y-4.94
X2.4553Y-5.045
X2.4573Y-5.145
X2.5183Y-5.366
X2.5193Y-5.471
X2.5458Y-8.8764
X2.5842Y-6.6648
X2.5855Y-6.5816
X2.5933Y-4.995
X2.6223Y-5.212
X2.6433Y-5.363
X2.6453Y-5.4713
X2.6853Y-5.467
X2.6915Y-5.3646
X2.7183Y-4.995
X2.723Y-5.3646
X2.7293Y-5.467
X2.7673Y-5.361
X2.7722Y-8.8764
X2.8193Y-5.5
X2.8268Y-6.6648
X2.8277Y-6.5816
X2.8633Y-4.996
X2.8663Y-5.194
X2.8972Y-5.145
X2.8973Y-5.045
X2.9986Y-8.8764
X3.0583Y-4.741
X3.0693Y-6.6648
X3.0699Y-6.5816
X3.2283Y-4.749
X3.3119Y-6.6648
X3.3121Y-6.5816
X3.3673Y-4.749
X3.5393Y-4.74
X3.5835Y-3.1614
X3.6646Y-3.5016
X3.7898Y-3.5012
X4.1491Y-6.582
X4.1491Y-6.664
X4.2311Y-4.5913
X4.2425Y-5.0531
X4.2433Y-6.216
X4.3366Y-2.9646
X4.3543Y-6.1791
X4.3575Y-2.9646
X4.3795Y-2.8134
X4.3795Y-2.9118
X4.3863Y-4.925
X4.3893Y-4.827
X4.3893Y-4.874
X4.3913Y-6.582
X4.3913Y-6.664
X4.4976Y-2.8134
X4.5331Y-5.4354
X4.5366Y-5.2016
X4.537Y-2.8134
X4.5488Y-5.3528
X4.5661Y-4.9047
X4.5713Y-4.8764
X4.5744Y-2.6654
X4.5764Y-2.8626
X4.6331Y-2.6417
X4.6336Y-6.582
X4.6336Y-6.664
X4.6748Y-2.9709
X4.7476Y-6.1677
X4.7591Y-5.0661
X4.7626Y-5.9126
X4.7657Y-5.9902
X4.7661Y-6.0669
X4.7923Y-5.353
X4.7963Y-5.435
X4.8063Y-5.311
X4.8614Y-2.9871
X4.8811Y-3.6831
X4.9028Y-3.611
X4.9205Y-2.6264
X4.9393Y-5.386
X4.9453Y-6.0988
X4.9683Y-2.8913
X4.974Y-6.0071
X4.9853Y-2.8603
X5.0013Y-6.158
X5.0144Y-6.0071
X5.0273Y-2.8913
X5.0518Y-6.0071
X5.0603Y-2.8313
X5.0733Y-6.289
X5.0774Y-5.9628
X5.1083Y-6.393
X5.1153Y-5.835
X5.1158Y-6.6648
X5.1181Y-5.7102
X5.1181Y-5.9297
X5.1181Y-6.0395
X5.1323Y-6.165
X5.1909Y-3.0453
X5.2053Y-6.158
X5.2063Y-5.796
X5.2063Y-6.08
X5.2493Y-2.923
X5.2683Y-6.403
X5.2713Y-6.166
X5.2723Y-5.796
X5.2878Y-3.022
X5.289Y-2.9866
X5.3353Y-6.08
X5.3353Y-6.158
X5.3363Y-5.796
X5.3433Y-6.208
X5.3443Y-2.892
X5.3443Y-2.958
X5.3584Y-6.6648
X5.3953Y-5.796
X5.3988Y-3.0441
X5.4153Y-6.163
X5.4579Y-4.8894
X5.522Y-4.8803
X5.5567Y-3.0228
X5.572Y-3.0028
X5.5803Y-2.552
X5.5823Y-3.079
X5.5878Y-3.4941
X5.5993Y-2.754
X5.6126Y-4.8232
X5.6203Y-3.096
X5.6423Y-4.343
X5.6773Y-4.338
X5.7053Y-6.665
X5.7066Y-6.5819
X5.7138Y-5.9831
X5.7154Y-4.8587
X5.7177Y-4.7315
X5.7253Y-4.921
X5.7264Y-4.6528
X5.7268Y-4.5744
X5.7276Y-4.2126
X5.7476Y-4.9854
X5.7803Y-4.2606
X5.7843Y-4.7929
X5.789Y-4.611
X5.789Y-4.6346
X5.7933Y-4.861
X5.7943Y-4.901
X5.7978Y-4.6685
X5.798Y-4.5449
X5.7988Y-4.6921
X5.7993Y-4.5894
X5.8094Y-4.7925
X5.8098Y-4.8437
X5.813Y-4.7248
X5.813Y-4.7689
X5.8146Y-4.6512
X5.8166Y-4.5732
X5.8268Y-4.8269
X5.8323Y-4.522
X5.8378Y-4.3075
X5.8378Y-4.339
X5.8378Y-4.3705
X5.8382Y-4.7437
X5.8386Y-4.7677
X5.8451Y-4.8063
X5.8476Y-4.9213
X5.85Y-4.2917
X5.85Y-4.3232
X5.85Y-4.3547
X5.8693Y-4.9843
X5.9016Y-4.3374
X5.902Y-4.3067
X5.902Y-4.3701
X5.9043Y-4.6362
X5.9047Y-4.718
X5.9055Y-4.4886
X5.9059Y-4.5299
X5.9079Y-4.7894
X5.9083Y-4.444
X5.9134Y-4.3535
X5.9142Y-4.2909
X5.9143Y-4.111
X5.9146Y-4.3224
X5.9157Y-4.9047
X5.9217Y-4.6799
X5.9469Y-4.161
X5.9555Y-4.0752
X5.9667Y-6.665
X5.9678Y-6.5819
X5.9691Y-4.5093
X5.9709Y-4.4713
X5.9717Y-4.5378
X5.976Y-4.7614
X5.9831Y-4.0126
X5.9858Y-4.2986
X5.9861Y-4.2612
X5.9941Y-4.815
X5.9957Y-4.7437
X6.0193Y-4.1343
X6.0283Y-4.7075
X6.0346Y-4.815
X6.0547Y-4.276
X6.0557Y-4.4512
X6.0577Y-2.6411
X6.0577Y-2.6618
X6.0616Y-4.7189
X6.0882Y-4.1949
X6.122Y-5.1874
X6.1246Y-4.7199
X6.1276Y-3.9886
X6.1285Y-2.8331
X6.1853Y-2.952
X6.2123Y-4.56
X6.228Y-6.665
X6.2289Y-6.5819
X6.3353Y-4.098
X6.4894Y-6.665
X6.4901Y-6.5819
X6.7507Y-6.665
X6.7513Y-6.5819
X7.0121Y-6.665
X7.0125Y-6.5819
X7.2735Y-6.665
X7.2736Y-6.5819
T2
X3.4911Y-3.3472
X3.5039Y-5.8457
X3.5411Y-3.2472
X3.5539Y-5.7457
X3.5911Y-3.3472
X3.6039Y-5.8457
X3.6411Y-3.2472
X3.6539Y-5.7457
X3.6911Y-3.3472
X3.7039Y-5.8457
X3.7411Y-3.2472
X3.7539Y-5.7457
X3.7911Y-3.3472
X3.8039Y-5.8457
X3.8411Y-3.2472
X3.8539Y-5.7457
T3
X5.0297Y-6.337
X5.0497Y-6.7169
X5.0497Y-6.7756
X5.0697Y-6.437
X5.1097Y-6.337
X5.1497Y-6.437
X5.1897Y-6.337
X5.2297Y-6.437
X5.3097Y-6.437
X5.3497Y-6.337
X5.3897Y-6.437
X5.4297Y-6.337
X5.4697Y-6.437
X5.4897Y-6.7169
X5.4897Y-6.7756
X5.5097Y-6.337
T4
X0.5363Y-5.16
X0.8323Y-5.162
X1.0133Y-5.155
X1.8277Y-4.84
X1.8283Y-4.985
X2.3033Y-5.94
X2.4533Y-5.94
X3.2978Y-4.8717
X3.2978Y-4.9717
X4.098Y-3.2358
X4.098Y-3.3358
X4.198Y-3.2358
X4.198Y-3.3358
X4.298Y-3.2358
X4.298Y-3.3358
X4.3764Y-2.4394
X4.3764Y-2.5394
X4.398Y-3.2358
X4.398Y-3.3358
X4.4764Y-2.4394
X4.4764Y-2.5394
X4.498Y-3.2358
X4.498Y-3.3358
X4.5764Y-2.4394
X4.5764Y-2.5394
X4.598Y-3.2358
X4.598Y-3.3358
X4.6764Y-2.4394
X4.6764Y-2.5394
X4.698Y-3.2358
X4.698Y-3.3358
X4.7764Y-2.4394
X4.7764Y-2.5394
X4.798Y-3.2358
X4.798Y-3.3358
X4.8764Y-2.4394
X4.8764Y-2.5394
X4.898Y-3.2358
X4.898Y-3.3358
X4.9764Y-2.4394
X4.9764Y-2.5394
X4.998Y-3.2358
X4.998Y-3.3358
X5.098Y-3.2358
X5.098Y-3.3358
X5.198Y-3.2358
X5.198Y-3.3358
X5.298Y-3.2358
X5.298Y-3.3358
X5.398Y-3.2358
X5.398Y-3.3358
X5.498Y-3.2358
X5.498Y-3.3358
X5.598Y-3.2358
X5.598Y-3.3358
X5.698Y-3.2358
X5.698Y-3.3358
X5.798Y-3.2358
X5.798Y-3.3358
X5.898Y-3.2358
X5.898Y-3.3358
X5.998Y-3.2358
X5.998Y-3.3358
X6.0252Y-3.8587
X6.0252Y-3.9587
X6.0252Y-4.0587
X6.0606Y-3.6161
X6.1606Y-3.6161
X6.1846Y-3.8587
X6.1846Y-3.9587
X6.1846Y-4.0587
X6.1846Y-4.1587
X6.1846Y-4.2587
X6.1846Y-4.3587
X6.1846Y-4.4587
X6.2606Y-3.6161
X6.2846Y-3.8587
X6.2846Y-3.9587
X6.2846Y-4.0587
X6.2846Y-4.1587
X6.2846Y-4.2587
X6.2846Y-4.3587
X6.2846Y-4.4587
T5
X5.0297Y-6.237
X5.1297Y-6.237
X5.4097Y-6.237
X5.5097Y-6.237
T6
X2.9662Y-6.2366
X2.976Y-2.8626
X3.163Y-6.2366
X3.1728Y-2.8626
T7
X4.9522Y-7.162
X5.5872Y-7.162
T8
X0.4724Y-0.7087
X0.4724Y-8.189
X0.6299Y-4.4488
X0.6496Y-0.1969
X0.6496Y-8.7008
X3.6614Y-0.1969
X3.6614Y-8.7008
X6.6732Y-0.1969
X6.6732Y-8.7008
X6.6929Y-4.4488
X6.8504Y-0.7087
X6.8504Y-8.189
T9
X0.7283Y-1.3189
X0.7283Y-7.5787
X6.5945Y-1.3189
X6.5945Y-7.5787
T10
X2.9248Y-5.2563
T11
X4.3937Y-6.4332
X4.5905Y-6.4332
T12
X1.9406Y-5.2563
T13
X1.9563Y-3.3646
X2.9091Y-3.3646
T14
X4.4976Y-3.7356
X4.4976Y-5.6254
X5.7969Y-3.7356
X5.7969Y-5.6254
T15
X3.4411Y-2.9972
X3.4539Y-6.0957
X3.8911Y-2.9972
X3.9039Y-6.0957
T16
X5.0197Y-7.037
X5.5197Y-7.037
T4
G00X1.6617Y-8.5838
M15
G01X1.6617Y-8.505
M16
G05
G00X1.8191Y-8.3594
M15
G01X1.7404Y-8.3594
M16
G05
G00X1.8979Y-8.5838
M15
G01X1.8979Y-8.505
M16
G05
T0
M30
