G04 #@! TF.GenerationSoftware,KiCad,Pcbnew,5.99.0-unknown-912657dd23~106~ubuntu20.04.1*
G04 #@! TF.CreationDate,2020-12-24T12:12:35-06:00*
G04 #@! TF.ProjectId,AP3000,41503330-3030-42e6-9b69-6361645f7063,rev?*
G04 #@! TF.SameCoordinates,Original*
G04 #@! TF.FileFunction,Soldermask,Bot*
G04 #@! TF.FilePolarity,Negative*
%FSLAX46Y46*%
G04 Gerber Fmt 4.6, Leading zero omitted, Abs format (unit mm)*
G04 Created by KiCad (PCBNEW 5.99.0-unknown-912657dd23~106~ubuntu20.04.1) date 2020-12-24 12:12:35*
%MOMM*%
%LPD*%
G01*
G04 APERTURE LIST*
G04 Aperture macros list*
%AMRoundRect*
0 Rectangle with rounded corners*
0 $1 Rounding radius*
0 $2 $3 $4 $5 $6 $7 $8 $9 X,Y pos of 4 corners*
0 Add a 4 corners polygon primitive as box body*
4,1,4,$2,$3,$4,$5,$6,$7,$8,$9,$2,$3,0*
0 Add four circle primitives for the rounded corners*
1,1,$1+$1,$2,$3,0*
1,1,$1+$1,$4,$5,0*
1,1,$1+$1,$6,$7,0*
1,1,$1+$1,$8,$9,0*
0 Add four rect primitives between the rounded corners*
20,1,$1+$1,$2,$3,$4,$5,0*
20,1,$1+$1,$4,$5,$6,$7,0*
20,1,$1+$1,$6,$7,$8,$9,0*
20,1,$1+$1,$8,$9,$2,$3,0*%
G04 Aperture macros list end*
G04 #@! TA.AperFunction,Profile*
%ADD10C,0.100000*%
G04 #@! TD*
%ADD11RoundRect,0.010000X1.750000X1.750000X-1.750000X1.750000X-1.750000X-1.750000X1.750000X-1.750000X0*%
%ADD12RoundRect,0.755000X0.755000X1.005000X-0.755000X1.005000X-0.755000X-1.005000X0.755000X-1.005000X0*%
%ADD13RoundRect,0.880000X0.880000X0.880000X-0.880000X0.880000X-0.880000X-0.880000X0.880000X-0.880000X0*%
%ADD14RoundRect,0.010000X-0.850000X0.850000X-0.850000X-0.850000X0.850000X-0.850000X0.850000X0.850000X0*%
%ADD15O,1.720000X1.720000*%
%ADD16C,1.320000*%
%ADD17C,1.120000*%
%ADD18C,5.020000*%
%ADD19C,1.620000*%
%ADD20RoundRect,0.101600X-1.016000X-1.016000X1.016000X-1.016000X1.016000X1.016000X-1.016000X1.016000X0*%
%ADD21C,2.235200*%
%ADD22C,4.820000*%
%ADD23C,2.920000*%
%ADD24C,2.020000*%
%ADD25RoundRect,0.010000X0.850000X0.850000X-0.850000X0.850000X-0.850000X-0.850000X0.850000X-0.850000X0*%
%ADD26C,3.220000*%
%ADD27RoundRect,0.010000X-0.750000X-0.750000X0.750000X-0.750000X0.750000X0.750000X-0.750000X0.750000X0*%
%ADD28C,1.520000*%
%ADD29C,6.100000*%
%ADD30RoundRect,0.010000X0.699000X0.699000X-0.699000X0.699000X-0.699000X-0.699000X0.699000X-0.699000X0*%
%ADD31C,1.418000*%
%ADD32C,1.220000*%
%ADD33C,1.670000*%
%ADD34C,2.382500*%
%ADD35C,3.270000*%
%ADD36RoundRect,0.010000X-0.850000X-0.850000X0.850000X-0.850000X0.850000X0.850000X-0.850000X0.850000X0*%
%ADD37RoundRect,0.101600X1.016000X1.016000X-1.016000X1.016000X-1.016000X-1.016000X1.016000X-1.016000X0*%
%ADD38RoundRect,0.010000X0.750000X0.750000X-0.750000X0.750000X-0.750000X-0.750000X0.750000X-0.750000X0*%
G04 APERTURE END LIST*
D10*
X186000000Y0D02*
X186000000Y-108000000D01*
X6000000Y-118000000D02*
X0Y-118000000D01*
X180000000Y-108000000D02*
X186000000Y-108000000D01*
X186000000Y-118000000D02*
X186000000Y-226000000D01*
X0Y-226000000D02*
X0Y-118000000D01*
X102000000Y-45000000D02*
G75*
G03*
X102000000Y-45000000I-12000000J0D01*
G01*
X102000000Y-181992000D02*
G75*
G03*
X102000000Y-181992000I-12000000J0D01*
G01*
X6000000Y-108000000D02*
X0Y-108000000D01*
X0Y0D02*
X186000000Y0D01*
X180000000Y-118000000D02*
X186000000Y-118000000D01*
X0Y-108000000D02*
X0Y0D01*
X0Y-226000000D02*
X186000000Y-226000000D01*
X6000000Y-108000000D02*
G75*
G02*
X6000000Y-118000000I0J-5000000D01*
G01*
X180000000Y-118000000D02*
G75*
G02*
X180000000Y-108000000I0J5000000D01*
G01*
X186000000Y0D02*
X186000000Y-108000000D01*
X6000000Y-118000000D02*
X0Y-118000000D01*
X180000000Y-108000000D02*
X186000000Y-108000000D01*
X186000000Y-118000000D02*
X186000000Y-226000000D01*
X0Y-226000000D02*
X0Y-118000000D01*
X102000000Y-45000000D02*
G75*
G03*
X102000000Y-45000000I-12000000J0D01*
G01*
X102000000Y-181992000D02*
G75*
G03*
X102000000Y-181992000I-12000000J0D01*
G01*
X6000000Y-108000000D02*
X0Y-108000000D01*
X0Y0D02*
X186000000Y0D01*
X180000000Y-118000000D02*
X186000000Y-118000000D01*
X0Y-108000000D02*
X0Y0D01*
X0Y-226000000D02*
X186000000Y-226000000D01*
X6000000Y-108000000D02*
G75*
G02*
X6000000Y-118000000I0J-5000000D01*
G01*
X180000000Y-118000000D02*
G75*
G02*
X180000000Y-108000000I0J5000000D01*
G01*
D11*
X42205999Y-217028000D03*
D12*
X48205999Y-217028000D03*
D13*
X45205999Y-212328000D03*
D14*
X159020000Y-91850000D03*
D15*
X156480000Y-91850000D03*
X153940000Y-91850000D03*
D16*
X116599799Y-163403800D03*
X111599799Y-163403800D03*
D17*
X74289996Y-133509995D03*
D18*
X73889996Y-85459995D03*
X49689996Y-85459995D03*
D19*
X49289996Y-133509995D03*
D20*
X75590000Y-72710000D03*
D21*
X80588720Y-72710000D03*
D22*
X18500000Y-192500000D03*
D23*
X170000000Y-113000000D03*
D18*
X170000000Y-113000000D03*
D23*
X174000000Y-18000000D03*
D18*
X174000000Y-18000000D03*
D24*
X25739000Y-130938000D03*
D25*
X83765000Y-126280000D03*
D15*
X83765000Y-123740000D03*
D23*
X169500000Y-221000000D03*
D18*
X169500000Y-221000000D03*
X93000000Y-221000000D03*
D23*
X93000000Y-221000000D03*
D26*
X99160000Y-154830000D03*
X87730000Y-154830000D03*
D27*
X89000000Y-148480000D03*
D28*
X90270000Y-145940000D03*
X91540000Y-148480000D03*
X92810000Y-145940000D03*
X94080000Y-148480000D03*
X95350000Y-145940000D03*
X96620000Y-148480000D03*
X97890000Y-145940000D03*
D23*
X16000000Y-113000000D03*
D18*
X16000000Y-113000000D03*
D24*
X58505000Y-150877000D03*
X20786000Y-130938000D03*
D23*
X16500000Y-221000000D03*
D18*
X16500000Y-221000000D03*
D14*
X152350000Y-82190000D03*
D15*
X152350000Y-84730000D03*
X149810000Y-82190000D03*
X149810000Y-84730000D03*
X147270000Y-82190000D03*
X147270000Y-84730000D03*
X144730000Y-82190000D03*
X144730000Y-84730000D03*
X142190000Y-82190000D03*
X142190000Y-84730000D03*
X139650000Y-82190000D03*
X139650000Y-84730000D03*
X137110000Y-82190000D03*
X137110000Y-84730000D03*
X134570000Y-82190000D03*
X134570000Y-84730000D03*
X132030000Y-82190000D03*
X132030000Y-84730000D03*
X129490000Y-82190000D03*
X129490000Y-84730000D03*
X126950000Y-82190000D03*
X126950000Y-84730000D03*
X124410000Y-82190000D03*
X124410000Y-84730000D03*
X121870000Y-82190000D03*
X121870000Y-84730000D03*
X119330000Y-82190000D03*
X119330000Y-84730000D03*
X116790000Y-82190000D03*
X116790000Y-84730000D03*
X114250000Y-82190000D03*
X114250000Y-84730000D03*
X111710000Y-82190000D03*
X111710000Y-84730000D03*
X109170000Y-82190000D03*
X109170000Y-84730000D03*
X106630000Y-82190000D03*
X106630000Y-84730000D03*
X104090000Y-82190000D03*
X104090000Y-84730000D03*
D24*
X46424000Y-122937000D03*
D22*
X18500000Y-33500000D03*
D23*
X93000000Y-5000000D03*
D18*
X93000000Y-5000000D03*
D29*
X147239990Y-94885002D03*
X114239990Y-142885002D03*
X114239990Y-94885002D03*
X147239990Y-142885002D03*
D23*
X174000000Y-208000000D03*
D18*
X174000000Y-208000000D03*
D30*
X138930000Y-163500000D03*
D31*
X136898000Y-163500000D03*
X134866000Y-163500000D03*
X132834000Y-163500000D03*
X130802000Y-163500000D03*
X128770000Y-163500000D03*
X139946000Y-160960000D03*
X137914000Y-160960000D03*
X135882000Y-160960000D03*
X131818000Y-160960000D03*
X129786000Y-160960000D03*
X127754000Y-160960000D03*
D32*
X139438000Y-170610000D03*
X128262000Y-170610000D03*
X139438000Y-172100000D03*
X128262000Y-172100000D03*
D33*
X139946000Y-158420000D03*
X137406000Y-158420000D03*
X130294000Y-158420000D03*
X127754000Y-158420000D03*
D34*
X141915000Y-181915000D03*
X125785000Y-181915000D03*
D35*
X127500000Y-178740000D03*
X140200000Y-178740000D03*
D36*
X153040000Y-98010000D03*
D15*
X153040000Y-100550000D03*
X153040000Y-103090000D03*
D37*
X80340000Y-158410000D03*
D21*
X75341280Y-158410000D03*
D23*
X169500000Y-5000000D03*
D18*
X169500000Y-5000000D03*
D36*
X157090000Y-98010000D03*
D15*
X159630000Y-98010000D03*
X157090000Y-100550000D03*
X159630000Y-100550000D03*
X157090000Y-103090000D03*
X159630000Y-103090000D03*
X157090000Y-105630000D03*
X159630000Y-105630000D03*
X157090000Y-108170000D03*
X159630000Y-108170000D03*
X157090000Y-110710000D03*
X159630000Y-110710000D03*
X157090000Y-113250000D03*
X159630000Y-113250000D03*
D18*
X12000000Y-18000000D03*
D23*
X12000000Y-18000000D03*
D26*
X87405000Y-76130000D03*
X98835000Y-76130000D03*
D38*
X97565000Y-82480000D03*
D28*
X96295000Y-85020000D03*
X95025000Y-82480000D03*
X93755000Y-85020000D03*
X92485000Y-82480000D03*
X91215000Y-85020000D03*
X89945000Y-82480000D03*
X88675000Y-85020000D03*
D24*
X46440000Y-126620000D03*
X15071000Y-130938000D03*
D22*
X167500000Y-192500000D03*
X167500000Y-33500000D03*
D24*
X62315000Y-150877000D03*
D23*
X12000000Y-208000000D03*
D18*
X12000000Y-208000000D03*
X16500000Y-5000000D03*
D23*
X16500000Y-5000000D03*
M02*
