G04 #@! TF.GenerationSoftware,KiCad,Pcbnew,5.99.0-unknown-04347bb33~104~ubuntu20.04.1*
G04 #@! TF.CreationDate,2020-11-13T18:14:38-06:00*
G04 #@! TF.ProjectId,AP3000,41503330-3030-42e6-9b69-6361645f7063,rev?*
G04 #@! TF.SameCoordinates,Original*
G04 #@! TF.FileFunction,Paste,Top*
G04 #@! TF.FilePolarity,Positive*
%FSLAX46Y46*%
G04 Gerber Fmt 4.6, Leading zero omitted, Abs format (unit mm)*
G04 Created by KiCad (PCBNEW 5.99.0-unknown-04347bb33~104~ubuntu20.04.1) date 2020-11-13 18:14:38*
%MOMM*%
%LPD*%
G01*
G04 APERTURE LIST*
G04 Aperture macros list*
%AMRoundRect*
0 Rectangle with rounded corners*
0 $1 Rounding radius*
0 $2 $3 $4 $5 $6 $7 $8 $9 X,Y pos of 4 corners*
0 Add a 4 corners polygon primitive as box body*
4,1,4,$2,$3,$4,$5,$6,$7,$8,$9,$2,$3,0*
0 Add four circle primitives for the rounded corners*
1,1,$1+$1,$2,$3,0*
1,1,$1+$1,$4,$5,0*
1,1,$1+$1,$6,$7,0*
1,1,$1+$1,$8,$9,0*
0 Add four rect primitives between the rounded corners*
20,1,$1+$1,$2,$3,$4,$5,0*
20,1,$1+$1,$4,$5,$6,$7,0*
20,1,$1+$1,$6,$7,$8,$9,0*
20,1,$1+$1,$8,$9,$2,$3,0*%
G04 Aperture macros list end*
G04 #@! TA.AperFunction,Profile*
%ADD10C,0.100000*%
G04 #@! TD*
%ADD11C,0.010000*%
%ADD12C,0.204000*%
%ADD13R,3.550000X2.460000*%
%ADD14R,0.450000X1.475000*%
%ADD15R,1.100000X3.000000*%
%ADD16R,3.000000X7.000000*%
%ADD17R,0.600000X2.000000*%
%ADD18R,2.300000X3.200000*%
%ADD19RoundRect,0.135000X0.185000X-0.135000X0.185000X0.135000X-0.185000X0.135000X-0.185000X-0.135000X0*%
%ADD20RoundRect,0.225000X-0.225000X-0.250000X0.225000X-0.250000X0.225000X0.250000X-0.225000X0.250000X0*%
%ADD21RoundRect,0.135000X-0.135000X-0.185000X0.135000X-0.185000X0.135000X0.185000X-0.135000X0.185000X0*%
%ADD22RoundRect,0.135000X0.135000X0.185000X-0.135000X0.185000X-0.135000X-0.185000X0.135000X-0.185000X0*%
%ADD23RoundRect,0.250000X-1.025000X0.787500X-1.025000X-0.787500X1.025000X-0.787500X1.025000X0.787500X0*%
%ADD24RoundRect,0.140000X0.140000X0.170000X-0.140000X0.170000X-0.140000X-0.170000X0.140000X-0.170000X0*%
%ADD25R,2.500000X1.800000*%
%ADD26RoundRect,0.250000X-1.425000X0.362500X-1.425000X-0.362500X1.425000X-0.362500X1.425000X0.362500X0*%
%ADD27RoundRect,0.250000X0.650000X-0.325000X0.650000X0.325000X-0.650000X0.325000X-0.650000X-0.325000X0*%
%ADD28RoundRect,0.225000X0.250000X-0.225000X0.250000X0.225000X-0.250000X0.225000X-0.250000X-0.225000X0*%
%ADD29RoundRect,0.135000X-0.185000X0.135000X-0.185000X-0.135000X0.185000X-0.135000X0.185000X0.135000X0*%
%ADD30R,3.400000X0.980000*%
%ADD31RoundRect,0.150000X-0.150000X0.662500X-0.150000X-0.662500X0.150000X-0.662500X0.150000X0.662500X0*%
%ADD32R,0.900000X0.800000*%
%ADD33R,0.270000X0.860000*%
%ADD34R,0.860000X0.270000*%
%ADD35RoundRect,0.250000X-0.250000X-0.475000X0.250000X-0.475000X0.250000X0.475000X-0.250000X0.475000X0*%
%ADD36R,0.900000X1.200000*%
%ADD37RoundRect,0.250000X0.450000X-0.262500X0.450000X0.262500X-0.450000X0.262500X-0.450000X-0.262500X0*%
%ADD38RoundRect,0.250000X-0.475000X0.250000X-0.475000X-0.250000X0.475000X-0.250000X0.475000X0.250000X0*%
%ADD39R,0.800000X0.900000*%
%ADD40RoundRect,0.250000X-0.650000X0.325000X-0.650000X-0.325000X0.650000X-0.325000X0.650000X0.325000X0*%
%ADD41RoundRect,0.225000X0.225000X0.250000X-0.225000X0.250000X-0.225000X-0.250000X0.225000X-0.250000X0*%
%ADD42R,0.610000X0.917200*%
%ADD43RoundRect,0.250000X0.700000X-0.275000X0.700000X0.275000X-0.700000X0.275000X-0.700000X-0.275000X0*%
%ADD44R,0.300000X0.550000*%
%ADD45R,0.400000X0.550000*%
%ADD46R,1.800000X2.500000*%
%ADD47R,1.800000X1.000000*%
%ADD48RoundRect,0.225000X-0.250000X0.225000X-0.250000X-0.225000X0.250000X-0.225000X0.250000X0.225000X0*%
%ADD49RoundRect,0.250000X-0.262500X-0.450000X0.262500X-0.450000X0.262500X0.450000X-0.262500X0.450000X0*%
%ADD50RoundRect,0.250000X-1.500000X-0.550000X1.500000X-0.550000X1.500000X0.550000X-1.500000X0.550000X0*%
%ADD51RoundRect,0.140000X-0.170000X0.140000X-0.170000X-0.140000X0.170000X-0.140000X0.170000X0.140000X0*%
%ADD52R,2.500000X2.300000*%
%ADD53RoundRect,0.140000X0.170000X-0.140000X0.170000X0.140000X-0.170000X0.140000X-0.170000X-0.140000X0*%
%ADD54R,4.700000X1.200000*%
%ADD55RoundRect,0.250000X1.000000X-1.950000X1.000000X1.950000X-1.000000X1.950000X-1.000000X-1.950000X0*%
%ADD56RoundRect,0.140000X-0.140000X-0.170000X0.140000X-0.170000X0.140000X0.170000X-0.140000X0.170000X0*%
%ADD57RoundRect,0.250000X0.250000X0.475000X-0.250000X0.475000X-0.250000X-0.475000X0.250000X-0.475000X0*%
%ADD58RoundRect,0.249999X1.450001X-0.450001X1.450001X0.450001X-1.450001X0.450001X-1.450001X-0.450001X0*%
%ADD59R,0.500000X0.600000*%
%ADD60R,0.750000X0.300000*%
%ADD61RoundRect,0.150000X0.150000X-0.512500X0.150000X0.512500X-0.150000X0.512500X-0.150000X-0.512500X0*%
%ADD62RoundRect,0.250000X-0.450000X0.262500X-0.450000X-0.262500X0.450000X-0.262500X0.450000X0.262500X0*%
%ADD63R,0.700000X0.200000*%
%ADD64R,0.980000X3.400000*%
%ADD65R,0.620000X0.940000*%
%ADD66RoundRect,0.250000X0.475000X-0.250000X0.475000X0.250000X-0.475000X0.250000X-0.475000X-0.250000X0*%
%ADD67R,1.800000X2.800000*%
%ADD68RoundRect,0.250000X-0.550000X1.250000X-0.550000X-1.250000X0.550000X-1.250000X0.550000X1.250000X0*%
%ADD69R,1.200000X0.900000*%
%ADD70RoundRect,0.200000X0.200000X0.275000X-0.200000X0.275000X-0.200000X-0.275000X0.200000X-0.275000X0*%
%ADD71R,0.650000X0.400000*%
%ADD72R,1.000000X2.950000*%
%ADD73R,5.080000X1.270000*%
%ADD74RoundRect,0.150000X-0.825000X-0.150000X0.825000X-0.150000X0.825000X0.150000X-0.825000X0.150000X0*%
%ADD75RoundRect,0.218750X0.218750X0.256250X-0.218750X0.256250X-0.218750X-0.256250X0.218750X-0.256250X0*%
G04 APERTURE END LIST*
D10*
X186000000Y0D02*
X186000000Y-108000000D01*
X6000000Y-118000000D02*
X0Y-118000000D01*
X180000000Y-108000000D02*
X186000000Y-108000000D01*
X186000000Y-118000000D02*
X186000000Y-226000000D01*
X0Y-226000000D02*
X0Y-118000000D01*
X102000000Y-45000000D02*
G75*
G03*
X102000000Y-45000000I-12000000J0D01*
G01*
X102000000Y-181992000D02*
G75*
G03*
X102000000Y-181992000I-12000000J0D01*
G01*
X6000000Y-108000000D02*
X0Y-108000000D01*
X0Y0D02*
X186000000Y0D01*
X180000000Y-118000000D02*
X186000000Y-118000000D01*
X0Y-108000000D02*
X0Y0D01*
X0Y-226000000D02*
X186000000Y-226000000D01*
X6000000Y-108000000D02*
G75*
G02*
X6000000Y-118000000I0J-5000000D01*
G01*
X180000000Y-118000000D02*
G75*
G02*
X180000000Y-108000000I0J5000000D01*
G01*
G36*
X32725000Y-117690000D02*
G01*
X31085000Y-117690000D01*
X31085000Y-116050000D01*
X32725000Y-116050000D01*
X32725000Y-117690000D01*
G37*
D11*
X32725000Y-117690000D02*
X31085000Y-117690000D01*
X31085000Y-116050000D01*
X32725000Y-116050000D01*
X32725000Y-117690000D01*
G36*
X32785001Y-190737500D02*
G01*
X32385001Y-190737500D01*
X32385001Y-189912500D01*
X32785001Y-189912500D01*
X32785001Y-190737500D01*
G37*
X32785001Y-190737500D02*
X32385001Y-190737500D01*
X32385001Y-189912500D01*
X32785001Y-189912500D01*
X32785001Y-190737500D01*
G36*
X31515001Y-190737500D02*
G01*
X31115001Y-190737500D01*
X31115001Y-189912500D01*
X31515001Y-189912500D01*
X31515001Y-190737500D01*
G37*
X31515001Y-190737500D02*
X31115001Y-190737500D01*
X31115001Y-189912500D01*
X31515001Y-189912500D01*
X31515001Y-190737500D01*
G36*
X33120001Y-186635000D02*
G01*
X31620001Y-186635000D01*
X31620001Y-185135000D01*
X33120001Y-185135000D01*
X33120001Y-186635000D01*
G37*
X33120001Y-186635000D02*
X31620001Y-186635000D01*
X31620001Y-185135000D01*
X33120001Y-185135000D01*
X33120001Y-186635000D01*
G36*
X34820001Y-186635000D02*
G01*
X33320001Y-186635000D01*
X33320001Y-185135000D01*
X34820001Y-185135000D01*
X34820001Y-186635000D01*
G37*
X34820001Y-186635000D02*
X33320001Y-186635000D01*
X33320001Y-185135000D01*
X34820001Y-185135000D01*
X34820001Y-186635000D01*
G36*
X31565001Y-184935000D02*
G01*
X31065001Y-184935000D01*
X31065001Y-184185000D01*
X31565001Y-184185000D01*
X31565001Y-184935000D01*
G37*
X31565001Y-184935000D02*
X31065001Y-184935000D01*
X31065001Y-184185000D01*
X31565001Y-184185000D01*
X31565001Y-184935000D01*
G36*
X33120001Y-188335000D02*
G01*
X31620001Y-188335000D01*
X31620001Y-186835000D01*
X33120001Y-186835000D01*
X33120001Y-188335000D01*
G37*
X33120001Y-188335000D02*
X31620001Y-188335000D01*
X31620001Y-186835000D01*
X33120001Y-186835000D01*
X33120001Y-188335000D01*
G36*
X34820001Y-188335000D02*
G01*
X33320001Y-188335000D01*
X33320001Y-186835000D01*
X34820001Y-186835000D01*
X34820001Y-188335000D01*
G37*
X34820001Y-188335000D02*
X33320001Y-188335000D01*
X33320001Y-186835000D01*
X34820001Y-186835000D01*
X34820001Y-188335000D01*
G36*
X35375001Y-184935000D02*
G01*
X34875001Y-184935000D01*
X34875001Y-184185000D01*
X35375001Y-184185000D01*
X35375001Y-184935000D01*
G37*
X35375001Y-184935000D02*
X34875001Y-184935000D01*
X34875001Y-184185000D01*
X35375001Y-184185000D01*
X35375001Y-184935000D01*
G36*
X32835001Y-184935000D02*
G01*
X32335001Y-184935000D01*
X32335001Y-184185000D01*
X32835001Y-184185000D01*
X32835001Y-184935000D01*
G37*
X32835001Y-184935000D02*
X32335001Y-184935000D01*
X32335001Y-184185000D01*
X32835001Y-184185000D01*
X32835001Y-184935000D01*
G36*
X34105001Y-184935000D02*
G01*
X33605001Y-184935000D01*
X33605001Y-184185000D01*
X34105001Y-184185000D01*
X34105001Y-184935000D01*
G37*
X34105001Y-184935000D02*
X33605001Y-184935000D01*
X33605001Y-184185000D01*
X34105001Y-184185000D01*
X34105001Y-184935000D01*
G36*
X35325001Y-190737500D02*
G01*
X34925001Y-190737500D01*
X34925001Y-189912500D01*
X35325001Y-189912500D01*
X35325001Y-190737500D01*
G37*
X35325001Y-190737500D02*
X34925001Y-190737500D01*
X34925001Y-189912500D01*
X35325001Y-189912500D01*
X35325001Y-190737500D01*
G36*
X34055001Y-190737500D02*
G01*
X33655001Y-190737500D01*
X33655001Y-189912500D01*
X34055001Y-189912500D01*
X34055001Y-190737500D01*
G37*
X34055001Y-190737500D02*
X33655001Y-190737500D01*
X33655001Y-189912500D01*
X34055001Y-189912500D01*
X34055001Y-190737500D01*
G36*
X39410000Y-149955500D02*
G01*
X36307890Y-149955500D01*
X36307890Y-147554548D01*
X39410000Y-147554548D01*
X39410000Y-149955500D01*
G37*
X39410000Y-149955500D02*
X36307890Y-149955500D01*
X36307890Y-147554548D01*
X39410000Y-147554548D01*
X39410000Y-149955500D01*
D12*
X35405000Y-128460000D03*
X35055000Y-128460000D03*
X34705000Y-128460000D03*
X35405000Y-128110000D03*
X35055000Y-128110000D03*
X34705000Y-128110000D03*
X35405000Y-127760000D03*
X35055000Y-127760000D03*
X34705000Y-127760000D03*
X35405000Y-127410000D03*
X35055000Y-127410000D03*
X34705000Y-127410000D03*
X35405000Y-127060000D03*
X35055000Y-127060000D03*
X34705000Y-127060000D03*
D13*
X35540000Y-204410000D03*
D14*
X37815000Y-207348000D03*
X37165000Y-207348000D03*
X36515000Y-207348000D03*
X35865000Y-207348000D03*
X35215000Y-207348000D03*
X34565000Y-207348000D03*
X33915000Y-207348000D03*
X33265000Y-207348000D03*
X33265000Y-201472000D03*
X33915000Y-201472000D03*
X34565000Y-201472000D03*
X35215000Y-201472000D03*
X35865000Y-201472000D03*
X36515000Y-201472000D03*
X37165000Y-201472000D03*
X37815000Y-201472000D03*
D15*
X117599799Y-159003800D03*
X115099799Y-159003800D03*
X113099799Y-159003800D03*
X110599799Y-159003800D03*
D16*
X121599799Y-161703800D03*
X106599799Y-161703800D03*
D17*
X49990000Y-137610000D03*
X50390000Y-129410000D03*
X50790000Y-137610000D03*
X51190000Y-129410000D03*
X51590000Y-137610000D03*
X51990000Y-129410000D03*
X52390000Y-137610000D03*
X52790000Y-129410000D03*
X53190000Y-137610000D03*
X53590000Y-129410000D03*
X53990000Y-137610000D03*
X54390000Y-129410000D03*
X54790000Y-137610000D03*
X55190000Y-129410000D03*
X55590000Y-137610000D03*
X55990000Y-129410000D03*
X59590000Y-137610000D03*
X59990000Y-129410000D03*
X60390000Y-137610000D03*
X60790000Y-129410000D03*
X61190000Y-137610000D03*
X61590000Y-129410000D03*
X61990000Y-137610000D03*
X62390000Y-129410000D03*
X62790000Y-137610000D03*
X63190000Y-129410000D03*
X63590000Y-137610000D03*
X63990000Y-129410000D03*
X64390000Y-137610000D03*
X64790000Y-129410000D03*
X65190000Y-137610000D03*
X65590000Y-129410000D03*
X65990000Y-137610000D03*
X66390000Y-129410000D03*
X66790000Y-137610000D03*
X67190000Y-129410000D03*
X67590000Y-137610000D03*
X67990000Y-129410000D03*
X68390000Y-137610000D03*
X68790000Y-129410000D03*
X69190000Y-137610000D03*
X69590000Y-129410000D03*
X69990000Y-137610000D03*
X70390000Y-129410000D03*
X70790000Y-137610000D03*
X71190000Y-129410000D03*
X71590000Y-137610000D03*
X71990000Y-129410000D03*
X72390000Y-137610000D03*
X72790000Y-129410000D03*
X73190000Y-137610000D03*
X73590000Y-129410000D03*
D18*
X76440000Y-137010000D03*
X47140000Y-137010000D03*
D19*
X36540001Y-198335000D03*
X36540001Y-197315000D03*
D20*
X32085000Y-120290001D03*
X33635000Y-120290001D03*
D21*
X15270000Y-157630000D03*
X16290000Y-157630000D03*
D19*
X29765000Y-113735000D03*
X29765000Y-112715000D03*
D20*
X30315000Y-207610000D03*
X31865000Y-207610000D03*
D22*
X128730000Y-73670000D03*
X127710000Y-73670000D03*
D23*
X122870000Y-148717500D03*
X122870000Y-154942500D03*
D19*
X36582000Y-193240000D03*
X36582000Y-192220000D03*
X33365000Y-211230000D03*
X33365000Y-210210000D03*
D24*
X41180000Y-130560000D03*
X40220000Y-130560000D03*
D25*
X55120000Y-188240000D03*
X51120000Y-188240000D03*
D26*
X33534000Y-137810001D03*
X33534000Y-143735001D03*
D27*
X25660000Y-148555000D03*
X25660000Y-145605000D03*
D28*
X50789999Y-159510001D03*
X50789999Y-157960001D03*
D29*
X27605000Y-119715000D03*
X27605000Y-120735000D03*
D21*
X13242000Y-157630000D03*
X14262000Y-157630000D03*
D30*
X37105000Y-117215000D03*
X37105000Y-119585000D03*
D31*
X20453000Y-164772500D03*
X19183000Y-164772500D03*
X19183000Y-171147500D03*
X20453000Y-171147500D03*
D32*
X142380000Y-67800000D03*
X142380000Y-65900000D03*
X140380000Y-66850000D03*
D19*
X30840000Y-193320000D03*
X30840000Y-192300000D03*
D33*
X30655000Y-118805000D03*
X31155000Y-118805000D03*
X31655000Y-118805000D03*
X32155000Y-118805000D03*
X32655000Y-118805000D03*
X33155000Y-118805000D03*
D34*
X33840000Y-118120000D03*
X33840000Y-117620000D03*
X33840000Y-117120000D03*
X33840000Y-116620000D03*
X33840000Y-116120000D03*
X33840000Y-115620000D03*
D33*
X33155000Y-114935000D03*
X32655000Y-114935000D03*
X32155000Y-114935000D03*
X31655000Y-114935000D03*
X31155000Y-114935000D03*
X30655000Y-114935000D03*
D34*
X29970000Y-115620000D03*
X29970000Y-116120000D03*
X29970000Y-116620000D03*
X29970000Y-117120000D03*
X29970000Y-117620000D03*
X29970000Y-118120000D03*
D25*
X59350000Y-210010000D03*
X55350000Y-210010000D03*
D22*
X28727500Y-115700000D03*
X27707500Y-115700000D03*
D35*
X117540000Y-154091112D03*
X119440000Y-154091112D03*
D36*
X37190000Y-189960000D03*
X40490000Y-189960000D03*
D32*
X36415000Y-138410000D03*
X36415000Y-140310000D03*
X38415000Y-139360000D03*
D25*
X59350000Y-198740000D03*
X55350000Y-198740000D03*
D28*
X35240001Y-198585000D03*
X35240001Y-197035000D03*
D37*
X44640000Y-197547500D03*
X44640000Y-195722500D03*
D24*
X28717500Y-116745000D03*
X27757500Y-116745000D03*
D38*
X127069799Y-153643799D03*
X127069799Y-155543799D03*
D39*
X18228000Y-158948000D03*
X16328000Y-158948000D03*
X17278000Y-160948000D03*
D25*
X59350000Y-202490000D03*
X55350000Y-202490000D03*
D19*
X41240000Y-192780000D03*
X41240000Y-191760000D03*
D29*
X52390000Y-139735000D03*
X52390000Y-140755000D03*
D40*
X40630000Y-119660000D03*
X40630000Y-122610000D03*
D22*
X158670000Y-72610000D03*
X157650000Y-72610000D03*
D41*
X49065000Y-192785000D03*
X47515000Y-192785000D03*
D39*
X12706000Y-160964000D03*
X14606000Y-160964000D03*
X13656000Y-158964000D03*
G36*
X31031465Y-184121464D02*
G01*
X31035001Y-184120000D01*
X31635001Y-184120000D01*
X31638537Y-184121464D01*
X31640001Y-184125000D01*
X31640001Y-184920000D01*
X32300001Y-184920000D01*
X32300001Y-184125000D01*
X32301465Y-184121464D01*
X32305001Y-184120000D01*
X32905001Y-184120000D01*
X32908537Y-184121464D01*
X32910001Y-184125000D01*
X32910001Y-184920000D01*
X33570001Y-184920000D01*
X33570002Y-184125000D01*
X33571466Y-184121464D01*
X33575002Y-184120000D01*
X34175002Y-184120000D01*
X34178538Y-184121464D01*
X34180002Y-184125000D01*
X34180002Y-184920000D01*
X34840002Y-184920000D01*
X34840002Y-184110000D01*
X35449801Y-184110000D01*
X35449801Y-184124517D01*
X35450001Y-184125000D01*
X35450000Y-188580000D01*
X35449800Y-188580483D01*
X35449800Y-188590000D01*
X34840001Y-188590000D01*
X34840001Y-188585000D01*
X31035003Y-188584998D01*
X31035001Y-188584999D01*
X31031465Y-188583535D01*
X31030001Y-188579999D01*
X31030001Y-184125000D01*
X31031465Y-184121464D01*
G37*
D42*
X33875201Y-184577200D03*
X32605201Y-184577200D03*
X31335201Y-184577200D03*
D38*
X34940000Y-210510000D03*
X34940000Y-212410000D03*
D43*
X66950000Y-193720000D03*
X66950000Y-190570000D03*
D44*
X139310000Y-154955000D03*
X138810000Y-154955000D03*
D45*
X138310000Y-154955000D03*
D44*
X137810000Y-154955000D03*
X137310000Y-154955000D03*
X137310000Y-155725000D03*
X137810000Y-155725000D03*
D45*
X138310000Y-155725000D03*
D44*
X138810000Y-155725000D03*
X139310000Y-155725000D03*
D19*
X126722499Y-74674998D03*
X126722499Y-73654998D03*
D46*
X58590000Y-187980000D03*
X58590000Y-191980000D03*
D35*
X117540000Y-149953334D03*
X119440000Y-149953334D03*
D19*
X30540000Y-203515000D03*
X30540000Y-202495000D03*
D47*
X130790001Y-71134999D03*
X130790001Y-68634999D03*
D22*
X61555000Y-127010000D03*
X60535000Y-127010000D03*
D48*
X45540000Y-181185000D03*
X45540000Y-182735000D03*
D25*
X66989200Y-198740000D03*
X62989200Y-198740000D03*
D49*
X26555000Y-118245000D03*
X28380000Y-118245000D03*
D50*
X20928000Y-140914000D03*
X26328000Y-140914000D03*
D21*
X60540000Y-125960000D03*
X61560000Y-125960000D03*
D51*
X35305000Y-114685000D03*
X35305000Y-115645000D03*
D19*
X33940000Y-198880000D03*
X33940000Y-197860000D03*
D52*
X46740000Y-186160000D03*
X42440000Y-186160000D03*
D53*
X41830000Y-125770000D03*
X41830000Y-124810000D03*
D54*
X15754000Y-138973999D03*
X15754000Y-135663999D03*
D22*
X124166000Y-136780000D03*
X123146000Y-136780000D03*
D20*
X34180000Y-130085000D03*
X35730000Y-130085000D03*
D35*
X117540000Y-156168334D03*
X119440000Y-156160000D03*
D55*
X58240000Y-180460000D03*
X58240000Y-173060000D03*
D56*
X127740000Y-74750000D03*
X128700000Y-74750000D03*
D29*
X37590001Y-197325000D03*
X37590001Y-198345000D03*
D53*
X42930000Y-114070000D03*
X42930000Y-113110000D03*
D19*
X153240000Y-125130000D03*
X153240000Y-124110000D03*
D57*
X65609999Y-195750000D03*
X63709999Y-195750000D03*
D43*
X61640000Y-195860000D03*
X61640000Y-192710000D03*
D48*
X32090000Y-210460000D03*
X32090000Y-212010000D03*
D58*
X16008000Y-170010000D03*
X16008000Y-165910000D03*
D59*
X133985000Y-76775000D03*
X134635000Y-76775000D03*
X133985000Y-76025000D03*
X134635000Y-76025000D03*
D60*
X132860000Y-75650000D03*
X132860000Y-76150000D03*
X132860000Y-76650000D03*
X132860000Y-77150000D03*
X135760000Y-77150000D03*
X135760000Y-76650000D03*
X135760000Y-76150000D03*
X135760000Y-75650000D03*
D21*
X122120000Y-134248000D03*
X123140000Y-134248000D03*
D28*
X26475000Y-115469999D03*
X26475000Y-113919999D03*
D27*
X87940000Y-123765000D03*
X87940000Y-120815000D03*
D29*
X30540000Y-200525000D03*
X30540000Y-201545000D03*
D48*
X61220000Y-189230000D03*
X61220000Y-190780000D03*
D56*
X140080000Y-69240000D03*
X141040000Y-69240000D03*
D19*
X9990000Y-137210000D03*
X9990000Y-136190000D03*
D41*
X16275000Y-162758000D03*
X14725000Y-162758000D03*
D53*
X43905000Y-114070000D03*
X43905000Y-113110000D03*
D57*
X49250000Y-200850000D03*
X47350000Y-200850000D03*
D27*
X30740000Y-148555000D03*
X30740000Y-145605000D03*
D29*
X51340000Y-139730000D03*
X51340000Y-140750000D03*
D25*
X66989200Y-206279999D03*
X62989200Y-206279999D03*
D29*
X48490000Y-157710000D03*
X48490000Y-158730000D03*
G36*
X54005001Y-185234999D02*
G01*
X54585001Y-184640000D01*
X54585002Y-183490000D01*
X54005002Y-182895000D01*
X54005002Y-182120000D01*
X54895002Y-182120000D01*
X55455001Y-182670000D01*
X55455000Y-185460000D01*
X54895001Y-186010000D01*
X54005001Y-186009999D01*
X54005001Y-185234999D01*
G37*
G36*
X51055001Y-185460000D02*
G01*
X51055002Y-182670000D01*
X51615001Y-182120000D01*
X52505001Y-182120001D01*
X52505001Y-182895001D01*
X51925001Y-183490000D01*
X51925000Y-184640000D01*
X52505000Y-185235000D01*
X52505000Y-186010000D01*
X51615000Y-186010000D01*
X51055001Y-185460000D01*
G37*
D61*
X126374799Y-151391300D03*
X127324799Y-151391300D03*
X128274799Y-151391300D03*
X128274799Y-149116300D03*
X127324799Y-149116300D03*
X126374799Y-149116300D03*
D62*
X47340000Y-181047500D03*
X47340000Y-182872500D03*
D53*
X86140000Y-123540000D03*
X86140000Y-122580000D03*
D41*
X47115000Y-175460000D03*
X45565000Y-175460000D03*
D63*
X149240000Y-126185000D03*
X146160000Y-126185000D03*
X149240000Y-125785000D03*
X146160000Y-125785000D03*
X149240000Y-125385000D03*
X146160000Y-125385000D03*
X149240000Y-124985000D03*
X146160000Y-124985000D03*
X149240000Y-124585000D03*
X146160000Y-124585000D03*
X149240000Y-124185000D03*
X146160000Y-124185000D03*
X149240000Y-123785000D03*
X146160000Y-123785000D03*
X149240000Y-123385000D03*
X146160000Y-123385000D03*
X149240000Y-122985000D03*
X146160000Y-122985000D03*
X149240000Y-122585000D03*
X146160000Y-122585000D03*
X149240000Y-122185000D03*
X146160000Y-122185000D03*
X149240000Y-121785000D03*
X146160000Y-121785000D03*
X149240000Y-121385000D03*
X146160000Y-121385000D03*
X149240000Y-120985000D03*
X146160000Y-120985000D03*
X149240000Y-120585000D03*
X146160000Y-120585000D03*
X149240000Y-120185000D03*
X146160000Y-120185000D03*
X149240000Y-119785000D03*
X146160000Y-119785000D03*
X149240000Y-119385000D03*
X146160000Y-119385000D03*
X149240000Y-118985000D03*
X146160000Y-118985000D03*
X149240000Y-118585000D03*
X146160000Y-118585000D03*
X149240000Y-118185000D03*
X146160000Y-118185000D03*
X149240000Y-117785000D03*
X146160000Y-117785000D03*
X149240000Y-117385000D03*
X146160000Y-117385000D03*
X149240000Y-116985000D03*
X146160000Y-116985000D03*
X149240000Y-116585000D03*
X146160000Y-116585000D03*
X149240000Y-116185000D03*
X146160000Y-116185000D03*
X149240000Y-115785000D03*
X146160000Y-115785000D03*
X149240000Y-115385000D03*
X146160000Y-115385000D03*
X149240000Y-114985000D03*
X146160000Y-114985000D03*
X149240000Y-114585000D03*
X146160000Y-114585000D03*
X149240000Y-114185000D03*
X146160000Y-114185000D03*
X149240000Y-113785000D03*
X146160000Y-113785000D03*
X149240000Y-113385000D03*
X146160000Y-113385000D03*
X149240000Y-112985000D03*
X146160000Y-112985000D03*
X149240000Y-112585000D03*
X146160000Y-112585000D03*
X149240000Y-112185000D03*
X146160000Y-112185000D03*
X149240000Y-111785000D03*
X146160000Y-111785000D03*
X149240000Y-111385000D03*
X146160000Y-111385000D03*
X149240000Y-110985000D03*
X146160000Y-110985000D03*
X149240000Y-110585000D03*
X146160000Y-110585000D03*
X149240000Y-110185000D03*
X146160000Y-110185000D03*
X149240000Y-109785000D03*
X146160000Y-109785000D03*
X149240000Y-109385000D03*
X146160000Y-109385000D03*
X149240000Y-108985000D03*
X146160000Y-108985000D03*
X149240000Y-108585000D03*
X146160000Y-108585000D03*
X149240000Y-108185000D03*
X146160000Y-108185000D03*
X149240000Y-107785000D03*
X146160000Y-107785000D03*
X149240000Y-107385000D03*
X146160000Y-107385000D03*
X149240000Y-106985000D03*
X146160000Y-106985000D03*
X149240000Y-106585000D03*
X146160000Y-106585000D03*
X115320000Y-126185000D03*
X112240000Y-126185000D03*
X115320000Y-125785000D03*
X112240000Y-125785000D03*
X115320000Y-125385000D03*
X112240000Y-125385000D03*
X115320000Y-124985000D03*
X112240000Y-124985000D03*
X115320000Y-124585000D03*
X112240000Y-124585000D03*
X115320000Y-124185000D03*
X112240000Y-124185000D03*
X115320000Y-123785000D03*
X112240000Y-123785000D03*
X115320000Y-123385000D03*
X112240000Y-123385000D03*
X115320000Y-122985000D03*
X112240000Y-122985000D03*
X115320000Y-122585000D03*
X112240000Y-122585000D03*
X115320000Y-122185000D03*
X112240000Y-122185000D03*
X115320000Y-121785000D03*
X112240000Y-121785000D03*
X115320000Y-121385000D03*
X112240000Y-121385000D03*
X115320000Y-120985000D03*
X112240000Y-120985000D03*
X115320000Y-120585000D03*
X112240000Y-120585000D03*
X115320000Y-120185000D03*
X112240000Y-120185000D03*
X115320000Y-119785000D03*
X112240000Y-119785000D03*
X115320000Y-119385000D03*
X112240000Y-119385000D03*
X115320000Y-118985000D03*
X112240000Y-118985000D03*
X115320000Y-118585000D03*
X112240000Y-118585000D03*
X115320000Y-118185000D03*
X112240000Y-118185000D03*
X115320000Y-117785000D03*
X112240000Y-117785000D03*
X115320000Y-117385000D03*
X112240000Y-117385000D03*
X115320000Y-116985000D03*
X112240000Y-116985000D03*
X115320000Y-116585000D03*
X112240000Y-116585000D03*
X115320000Y-116185000D03*
X112240000Y-116185000D03*
X115320000Y-115785000D03*
X112240000Y-115785000D03*
X115320000Y-115385000D03*
X112240000Y-115385000D03*
X115320000Y-114985000D03*
X112240000Y-114985000D03*
X115320000Y-114585000D03*
X112240000Y-114585000D03*
X115320000Y-114185000D03*
X112240000Y-114185000D03*
X115320000Y-113785000D03*
X112240000Y-113785000D03*
X115320000Y-113385000D03*
X112240000Y-113385000D03*
X115320000Y-112985000D03*
X112240000Y-112985000D03*
X115320000Y-112585000D03*
X112240000Y-112585000D03*
X115320000Y-112185000D03*
X112240000Y-112185000D03*
X115320000Y-111785000D03*
X112240000Y-111785000D03*
X115320000Y-111385000D03*
X112240000Y-111385000D03*
X115320000Y-110985000D03*
X112240000Y-110985000D03*
X115320000Y-110585000D03*
X112240000Y-110585000D03*
X115320000Y-110185000D03*
X112240000Y-110185000D03*
X115320000Y-109785000D03*
X112240000Y-109785000D03*
X115320000Y-109385000D03*
X112240000Y-109385000D03*
X115320000Y-108985000D03*
X112240000Y-108985000D03*
X115320000Y-108585000D03*
X112240000Y-108585000D03*
X115320000Y-108185000D03*
X112240000Y-108185000D03*
X115320000Y-107785000D03*
X112240000Y-107785000D03*
X115320000Y-107385000D03*
X112240000Y-107385000D03*
X115320000Y-106985000D03*
X112240000Y-106985000D03*
X115320000Y-106585000D03*
X112240000Y-106585000D03*
D24*
X135980000Y-74480000D03*
X135020000Y-74480000D03*
D64*
X37795000Y-127660000D03*
X40165000Y-127660000D03*
D39*
X38415000Y-141985000D03*
X36515000Y-141985000D03*
X37465000Y-143985000D03*
D56*
X126690000Y-72660000D03*
X127650000Y-72660000D03*
D44*
X134050000Y-154950000D03*
X133550000Y-154950000D03*
D45*
X133050000Y-154950000D03*
D44*
X132550000Y-154950000D03*
X132050000Y-154950000D03*
X132050000Y-155720000D03*
X132550000Y-155720000D03*
D45*
X133050000Y-155720000D03*
D44*
X133550000Y-155720000D03*
X134050000Y-155720000D03*
D35*
X117540000Y-151988891D03*
X119440000Y-152022224D03*
X31355000Y-111460000D03*
X33255000Y-111460000D03*
D27*
X79565000Y-123715000D03*
X79565000Y-120765000D03*
D40*
X28540000Y-184685000D03*
X28540000Y-187635000D03*
D29*
X39040000Y-202810000D03*
X39040000Y-203830000D03*
D65*
X39765000Y-145600500D03*
X38495000Y-145600500D03*
X37225000Y-145600500D03*
X35955000Y-145600500D03*
G36*
X40535354Y-148000855D02*
G01*
X40535000Y-148001001D01*
X40065500Y-148001001D01*
X40065500Y-149650001D01*
X40534998Y-149650002D01*
X40535000Y-149650001D01*
X40535354Y-149650147D01*
X40535500Y-149650501D01*
X40535500Y-150450501D01*
X40535354Y-150450855D01*
X40535000Y-150451001D01*
X40065500Y-150451001D01*
X40065500Y-151375500D01*
X40065354Y-151375854D01*
X40065000Y-151376000D01*
X39460000Y-151376000D01*
X39459646Y-151375854D01*
X39459500Y-151375500D01*
X39459500Y-150911000D01*
X38800500Y-150911000D01*
X38800500Y-151375500D01*
X38800354Y-151375854D01*
X38800000Y-151376000D01*
X38190000Y-151376000D01*
X38189646Y-151375854D01*
X38189500Y-151375500D01*
X38189500Y-150911000D01*
X37530500Y-150911000D01*
X37530500Y-151375500D01*
X37530354Y-151375854D01*
X37530000Y-151376000D01*
X36919999Y-151376000D01*
X36919645Y-151375854D01*
X36919499Y-151375500D01*
X36919500Y-150911000D01*
X36265000Y-150911000D01*
X36264999Y-151380500D01*
X35645000Y-151380499D01*
X35645001Y-150451000D01*
X35185001Y-150451000D01*
X35184647Y-150450854D01*
X35184501Y-150450500D01*
X35184501Y-149650500D01*
X35184647Y-149650146D01*
X35185001Y-149650000D01*
X35654501Y-149650001D01*
X35654501Y-148001000D01*
X35185001Y-148001000D01*
X35184647Y-148000854D01*
X35184501Y-148000500D01*
X35184501Y-147200500D01*
X35184647Y-147200146D01*
X35185001Y-147200000D01*
X35654501Y-147200001D01*
X35654501Y-147050500D01*
X35654647Y-147050146D01*
X35655001Y-147050000D01*
X40064998Y-147050002D01*
X40065000Y-147050001D01*
X40065354Y-147050147D01*
X40065500Y-147050501D01*
X40065500Y-147200001D01*
X40534998Y-147200002D01*
X40535000Y-147200001D01*
X40535354Y-147200147D01*
X40535500Y-147200501D01*
X40535500Y-148000501D01*
X40535354Y-148000855D01*
G37*
X37225000Y-150910500D03*
X38495000Y-150910500D03*
X39765000Y-150910500D03*
D53*
X81340000Y-123500000D03*
X81340000Y-122540000D03*
D38*
X12960000Y-162886000D03*
X12960000Y-164786000D03*
D19*
X21230000Y-161230000D03*
X21230000Y-160210000D03*
D66*
X33615000Y-147430000D03*
X33615000Y-145530000D03*
D19*
X20214000Y-161230000D03*
X20214000Y-160210000D03*
D35*
X22165000Y-128835000D03*
X24065000Y-128835000D03*
D28*
X31840000Y-202760000D03*
X31840000Y-201210000D03*
D67*
X50780000Y-163622500D03*
X48240000Y-163622500D03*
X45700000Y-163622500D03*
X45700000Y-172822500D03*
X48240000Y-172822500D03*
X50780000Y-172822500D03*
D68*
X39340000Y-211510000D03*
X39340000Y-215910000D03*
D44*
X112310000Y-156365000D03*
X112810000Y-156365000D03*
D45*
X113310000Y-156365000D03*
D44*
X113810000Y-156365000D03*
X114310000Y-156365000D03*
X114310000Y-155595000D03*
X113810000Y-155595000D03*
D45*
X113310000Y-155595000D03*
D44*
X112810000Y-155595000D03*
X112310000Y-155595000D03*
D21*
X127570000Y-147560000D03*
X128590000Y-147560000D03*
D69*
X45240000Y-203860000D03*
X45240000Y-200560000D03*
D20*
X31380000Y-113410000D03*
X32930000Y-113410000D03*
D50*
X20928000Y-133548000D03*
X26328000Y-133548000D03*
D43*
X46940000Y-197535000D03*
X46940000Y-194385000D03*
D70*
X38390000Y-199610000D03*
X36740000Y-199610000D03*
D66*
X43330000Y-126435000D03*
X43330000Y-124535000D03*
D21*
X33870000Y-125810000D03*
X34890000Y-125810000D03*
D25*
X59350000Y-206279999D03*
X55350000Y-206279999D03*
D19*
X49490000Y-158710000D03*
X49490000Y-157690000D03*
D71*
X152590000Y-113030000D03*
X152590000Y-113680000D03*
X152590000Y-114330000D03*
X154490000Y-114330000D03*
X154490000Y-113030000D03*
D72*
X25740000Y-181935000D03*
X28740000Y-181935000D03*
X31740000Y-181935000D03*
X34740000Y-181935000D03*
X37740000Y-181935000D03*
X40740000Y-181935000D03*
X40740000Y-153985000D03*
X37740000Y-153985000D03*
X34740000Y-153985000D03*
X31740000Y-153985000D03*
X28740000Y-153985000D03*
X25740000Y-153985000D03*
D73*
X146790000Y-61345000D03*
X146790000Y-39375000D03*
D37*
X32490000Y-193760000D03*
X32490000Y-191935000D03*
D25*
X66989200Y-210010000D03*
X62989200Y-210010000D03*
D27*
X28200000Y-148555000D03*
X28200000Y-145605000D03*
D56*
X142943450Y-165840000D03*
X143903450Y-165840000D03*
X27750000Y-114660000D03*
X28710000Y-114660000D03*
D74*
X133335000Y-69265000D03*
X133335000Y-70535000D03*
X133335000Y-71805000D03*
X133335000Y-73075000D03*
X138285000Y-73075000D03*
X138285000Y-71805000D03*
X138285000Y-70535000D03*
X138285000Y-69265000D03*
D28*
X52740000Y-177710000D03*
X52740000Y-176160000D03*
D71*
X153765000Y-72460000D03*
X153765000Y-73110000D03*
X153765000Y-73760000D03*
X155665000Y-73760000D03*
X155665000Y-72460000D03*
D43*
X49640000Y-197535000D03*
X49640000Y-194385000D03*
D22*
X158625000Y-73860000D03*
X157605000Y-73860000D03*
D39*
X39840000Y-192035000D03*
X37940000Y-192035000D03*
X38890000Y-194035000D03*
D40*
X26040000Y-184710000D03*
X26040000Y-187660000D03*
D71*
X123600000Y-73640000D03*
X123600000Y-74290000D03*
X123600000Y-74940000D03*
X125500000Y-74940000D03*
X125500000Y-73640000D03*
D75*
X156410000Y-68330000D03*
X154835000Y-68330000D03*
D19*
X151560000Y-125140000D03*
X151560000Y-124120000D03*
D29*
X28677500Y-119715000D03*
X28677500Y-120735000D03*
D21*
X36324000Y-136850000D03*
X37344000Y-136850000D03*
D25*
X66989200Y-202490000D03*
X62989200Y-202490000D03*
D75*
X156397500Y-66570000D03*
X154822500Y-66570000D03*
D40*
X43180000Y-119635000D03*
X43180000Y-122585000D03*
M02*
