G04 #@! TF.GenerationSoftware,KiCad,Pcbnew,5.99.0-unknown-04347bb33~104~ubuntu20.04.1*
G04 #@! TF.CreationDate,2020-11-12T20:03:56-06:00*
G04 #@! TF.ProjectId,AP3000,41503330-3030-42e6-9b69-6361645f7063,rev?*
G04 #@! TF.SameCoordinates,PX5cbc3c0PY3281b00*
G04 #@! TF.FileFunction,Soldermask,Bot*
G04 #@! TF.FilePolarity,Negative*
%FSLAX46Y46*%
G04 Gerber Fmt 4.6, Leading zero omitted, Abs format (unit mm)*
G04 Created by KiCad (PCBNEW 5.99.0-unknown-04347bb33~104~ubuntu20.04.1) date 2020-11-12 20:03:56*
%MOMM*%
%LPD*%
G01*
G04 APERTURE LIST*
G04 Aperture macros list*
%AMRoundRect*
0 Rectangle with rounded corners*
0 $1 Rounding radius*
0 $2 $3 $4 $5 $6 $7 $8 $9 X,Y pos of 4 corners*
0 Add a 4 corners polygon primitive as box body*
4,1,4,$2,$3,$4,$5,$6,$7,$8,$9,$2,$3,0*
0 Add four circle primitives for the rounded corners*
1,1,$1+$1,$2,$3,0*
1,1,$1+$1,$4,$5,0*
1,1,$1+$1,$6,$7,0*
1,1,$1+$1,$8,$9,0*
0 Add four rect primitives between the rounded corners*
20,1,$1+$1,$2,$3,$4,$5,0*
20,1,$1+$1,$4,$5,$6,$7,0*
20,1,$1+$1,$6,$7,$8,$9,0*
20,1,$1+$1,$8,$9,$2,$3,0*%
G04 Aperture macros list end*
%ADD10C,3.352000*%
%ADD11C,2.464500*%
%ADD12C,1.752000*%
%ADD13C,1.302000*%
%ADD14C,1.500000*%
%ADD15RoundRect,0.051000X0.699000X0.699000X-0.699000X0.699000X-0.699000X-0.699000X0.699000X-0.699000X0*%
%ADD16RoundRect,0.051000X1.750000X1.750000X-1.750000X1.750000X-1.750000X-1.750000X1.750000X-1.750000X0*%
%ADD17RoundRect,0.775500X0.775500X1.025500X-0.775500X1.025500X-0.775500X-1.025500X0.775500X-1.025500X0*%
%ADD18RoundRect,0.900500X0.900500X0.900500X-0.900500X0.900500X-0.900500X-0.900500X0.900500X-0.900500X0*%
%ADD19RoundRect,0.051000X-0.850000X0.850000X-0.850000X-0.850000X0.850000X-0.850000X0.850000X0.850000X0*%
%ADD20O,1.802000X1.802000*%
%ADD21C,1.402000*%
%ADD22C,1.202000*%
%ADD23C,5.102000*%
%ADD24C,1.702000*%
%ADD25RoundRect,0.101600X-1.016000X-1.016000X1.016000X-1.016000X1.016000X1.016000X-1.016000X1.016000X0*%
%ADD26C,2.235200*%
%ADD27C,4.902000*%
%ADD28C,3.002000*%
%ADD29RoundRect,0.051000X0.850000X0.850000X-0.850000X0.850000X-0.850000X-0.850000X0.850000X-0.850000X0*%
%ADD30C,3.302000*%
%ADD31RoundRect,0.051000X-0.750000X-0.750000X0.750000X-0.750000X0.750000X0.750000X-0.750000X0.750000X0*%
%ADD32C,1.602000*%
%ADD33C,6.100000*%
%ADD34RoundRect,0.051000X-0.850000X-0.850000X0.850000X-0.850000X0.850000X0.850000X-0.850000X0.850000X0*%
%ADD35RoundRect,0.101600X1.016000X1.016000X-1.016000X1.016000X-1.016000X-1.016000X1.016000X-1.016000X0*%
%ADD36RoundRect,0.051000X0.750000X0.750000X-0.750000X0.750000X-0.750000X-0.750000X0.750000X-0.750000X0*%
G04 APERTURE END LIST*
D10*
X42960000Y-125780000D03*
X30260000Y-125780000D03*
D11*
X28545000Y-128955000D03*
X44675000Y-128955000D03*
D12*
X30514000Y-105460000D03*
X33054000Y-105460000D03*
X40166000Y-105460000D03*
X42706000Y-105460000D03*
D13*
X31022000Y-119140000D03*
X42198000Y-119140000D03*
X31022000Y-117650000D03*
X42198000Y-117650000D03*
D14*
X30514000Y-108000000D03*
X32546000Y-108000000D03*
X34578000Y-108000000D03*
X38642000Y-108000000D03*
X40674000Y-108000000D03*
X42706000Y-108000000D03*
X31530000Y-110540000D03*
X33562000Y-110540000D03*
X35594000Y-110540000D03*
X37626000Y-110540000D03*
X39658000Y-110540000D03*
D15*
X41690000Y-110540000D03*
D16*
X-49190000Y-164665000D03*
D17*
X-43190000Y-164665000D03*
D18*
X-46190000Y-159965000D03*
D19*
X61780000Y-38890000D03*
D20*
X59240000Y-38890000D03*
X56700000Y-38890000D03*
D21*
X19359799Y-110443800D03*
X14359799Y-110443800D03*
D22*
X-22950000Y-80550000D03*
D23*
X-23350000Y-32500000D03*
X-47550000Y-32500000D03*
D24*
X-47950000Y-80550000D03*
D25*
X-21650000Y-19750000D03*
D26*
X-16651280Y-19750000D03*
D27*
X-78740000Y-139540000D03*
D28*
X76760000Y34960000D03*
D23*
X76760000Y34960000D03*
D29*
X-13475000Y-73320000D03*
D20*
X-13475000Y-70780000D03*
D23*
X-4240000Y-168040000D03*
D28*
X-4240000Y-168040000D03*
D30*
X1920000Y-101870000D03*
X-9510000Y-101870000D03*
D31*
X-8240000Y-95520000D03*
D32*
X-6970000Y-92980000D03*
X-5700000Y-95520000D03*
X-4430000Y-92980000D03*
X-3160000Y-95520000D03*
X-1890000Y-92980000D03*
X-620000Y-95520000D03*
X650000Y-92980000D03*
D19*
X57960000Y-29330000D03*
D20*
X57960000Y-31870000D03*
X55420000Y-29330000D03*
X55420000Y-31870000D03*
X52880000Y-29330000D03*
X52880000Y-31870000D03*
X50340000Y-29330000D03*
X50340000Y-31870000D03*
X47800000Y-29330000D03*
X47800000Y-31870000D03*
X45260000Y-29330000D03*
X45260000Y-31870000D03*
X42720000Y-29330000D03*
X42720000Y-31870000D03*
X40180000Y-29330000D03*
X40180000Y-31870000D03*
X37640000Y-29330000D03*
X37640000Y-31870000D03*
X35100000Y-29330000D03*
X35100000Y-31870000D03*
X32560000Y-29330000D03*
X32560000Y-31870000D03*
X30020000Y-29330000D03*
X30020000Y-31870000D03*
X27480000Y-29330000D03*
X27480000Y-31870000D03*
X24940000Y-29330000D03*
X24940000Y-31870000D03*
X22400000Y-29330000D03*
X22400000Y-31870000D03*
X19860000Y-29330000D03*
X19860000Y-31870000D03*
X17320000Y-29330000D03*
X17320000Y-31870000D03*
X14780000Y-29330000D03*
X14780000Y-31870000D03*
X12240000Y-29330000D03*
X12240000Y-31870000D03*
X9700000Y-29330000D03*
X9700000Y-31870000D03*
D27*
X-78740000Y19460000D03*
D28*
X-4240000Y47960000D03*
D23*
X-4240000Y47960000D03*
D33*
X50000000Y-41925000D03*
X17000000Y-89925000D03*
X17000000Y-41925000D03*
X50000000Y-89925000D03*
D28*
X76760000Y-155040000D03*
D23*
X76760000Y-155040000D03*
D34*
X55800000Y-45050000D03*
D20*
X55800000Y-47590000D03*
X55800000Y-50130000D03*
D35*
X-16900000Y-105450000D03*
D26*
X-21898720Y-105450000D03*
D34*
X59850000Y-45050000D03*
D20*
X62390000Y-45050000D03*
X59850000Y-47590000D03*
X62390000Y-47590000D03*
X59850000Y-50130000D03*
X62390000Y-50130000D03*
X59850000Y-52670000D03*
X62390000Y-52670000D03*
X59850000Y-55210000D03*
X62390000Y-55210000D03*
X59850000Y-57750000D03*
X62390000Y-57750000D03*
X59850000Y-60290000D03*
X62390000Y-60290000D03*
D23*
X-85240000Y34960000D03*
D28*
X-85240000Y34960000D03*
D30*
X-9835000Y-23170000D03*
X1595000Y-23170000D03*
D36*
X325000Y-29520000D03*
D32*
X-945000Y-32060000D03*
X-2215000Y-29520000D03*
X-3485000Y-32060000D03*
X-4755000Y-29520000D03*
X-6025000Y-32060000D03*
X-7295000Y-29520000D03*
X-8565000Y-32060000D03*
D27*
X70260000Y-139540000D03*
X70260000Y19460000D03*
D28*
X-85240000Y-155040000D03*
D23*
X-85240000Y-155040000D03*
G36*
X42076392Y-118287489D02*
G01*
X42238748Y-118297703D01*
X42362979Y-118274005D01*
X42364868Y-118274663D01*
X42365243Y-118276628D01*
X42364483Y-118277621D01*
X42307606Y-118316512D01*
X42280647Y-118380306D01*
X42292457Y-118448552D01*
X42339419Y-118499720D01*
X42361590Y-118510222D01*
X42370417Y-118513365D01*
X42371713Y-118514888D01*
X42371042Y-118516772D01*
X42369371Y-118517214D01*
X42238748Y-118492297D01*
X42076392Y-118502511D01*
X41974462Y-118535631D01*
X41972506Y-118535215D01*
X41971888Y-118533313D01*
X41973199Y-118531836D01*
X42030453Y-118512345D01*
X42087317Y-118472285D01*
X42113384Y-118408120D01*
X42100622Y-118340047D01*
X42052940Y-118289528D01*
X42033879Y-118280501D01*
X41978082Y-118259750D01*
X41976807Y-118258209D01*
X41977504Y-118256334D01*
X41979397Y-118255973D01*
X42076392Y-118287489D01*
G37*
G36*
X30900392Y-118287489D02*
G01*
X31062748Y-118297703D01*
X31186979Y-118274005D01*
X31188868Y-118274663D01*
X31189243Y-118276628D01*
X31188483Y-118277621D01*
X31131606Y-118316512D01*
X31104647Y-118380306D01*
X31116457Y-118448552D01*
X31163419Y-118499720D01*
X31185590Y-118510222D01*
X31194417Y-118513365D01*
X31195713Y-118514888D01*
X31195042Y-118516772D01*
X31193371Y-118517214D01*
X31062748Y-118492297D01*
X30900392Y-118502511D01*
X30798462Y-118535631D01*
X30796506Y-118535215D01*
X30795888Y-118533313D01*
X30797199Y-118531836D01*
X30854453Y-118512345D01*
X30911317Y-118472285D01*
X30937384Y-118408120D01*
X30924622Y-118340047D01*
X30876940Y-118289528D01*
X30857879Y-118280501D01*
X30802082Y-118259750D01*
X30800807Y-118258209D01*
X30801504Y-118256334D01*
X30803397Y-118255973D01*
X30900392Y-118287489D01*
G37*
M02*
