G04 #@! TF.GenerationSoftware,KiCad,Pcbnew,5.99.0-unknown-04347bb33~104~ubuntu20.04.1*
G04 #@! TF.CreationDate,2020-11-13T18:14:39-06:00*
G04 #@! TF.ProjectId,AP3000,41503330-3030-42e6-9b69-6361645f7063,rev?*
G04 #@! TF.SameCoordinates,Original*
G04 #@! TF.FileFunction,Soldermask,Bot*
G04 #@! TF.FilePolarity,Negative*
%FSLAX46Y46*%
G04 Gerber Fmt 4.6, Leading zero omitted, Abs format (unit mm)*
G04 Created by KiCad (PCBNEW 5.99.0-unknown-04347bb33~104~ubuntu20.04.1) date 2020-11-13 18:14:39*
%MOMM*%
%LPD*%
G01*
G04 APERTURE LIST*
G04 Aperture macros list*
%AMRoundRect*
0 Rectangle with rounded corners*
0 $1 Rounding radius*
0 $2 $3 $4 $5 $6 $7 $8 $9 X,Y pos of 4 corners*
0 Add a 4 corners polygon primitive as box body*
4,1,4,$2,$3,$4,$5,$6,$7,$8,$9,$2,$3,0*
0 Add four circle primitives for the rounded corners*
1,1,$1+$1,$2,$3,0*
1,1,$1+$1,$4,$5,0*
1,1,$1+$1,$6,$7,0*
1,1,$1+$1,$8,$9,0*
0 Add four rect primitives between the rounded corners*
20,1,$1+$1,$2,$3,$4,$5,0*
20,1,$1+$1,$4,$5,$6,$7,0*
20,1,$1+$1,$6,$7,$8,$9,0*
20,1,$1+$1,$8,$9,$2,$3,0*%
G04 Aperture macros list end*
G04 #@! TA.AperFunction,Profile*
%ADD10C,0.100000*%
G04 #@! TD*
%ADD11C,3.352000*%
%ADD12C,2.464500*%
%ADD13C,1.752000*%
%ADD14C,1.302000*%
%ADD15C,1.500000*%
%ADD16RoundRect,0.051000X0.699000X0.699000X-0.699000X0.699000X-0.699000X-0.699000X0.699000X-0.699000X0*%
%ADD17C,3.002000*%
%ADD18C,5.102000*%
%ADD19RoundRect,0.051000X1.750000X1.750000X-1.750000X1.750000X-1.750000X-1.750000X1.750000X-1.750000X0*%
%ADD20RoundRect,0.775500X0.775500X1.025500X-0.775500X1.025500X-0.775500X-1.025500X0.775500X-1.025500X0*%
%ADD21RoundRect,0.900500X0.900500X0.900500X-0.900500X0.900500X-0.900500X-0.900500X0.900500X-0.900500X0*%
%ADD22RoundRect,0.051000X-0.850000X0.850000X-0.850000X-0.850000X0.850000X-0.850000X0.850000X0.850000X0*%
%ADD23O,1.802000X1.802000*%
%ADD24C,1.402000*%
%ADD25C,1.202000*%
%ADD26C,1.702000*%
%ADD27RoundRect,0.101600X-1.016000X-1.016000X1.016000X-1.016000X1.016000X1.016000X-1.016000X1.016000X0*%
%ADD28C,2.235200*%
%ADD29C,4.902000*%
%ADD30RoundRect,0.051000X0.850000X0.850000X-0.850000X0.850000X-0.850000X-0.850000X0.850000X-0.850000X0*%
%ADD31C,3.302000*%
%ADD32RoundRect,0.051000X-0.750000X-0.750000X0.750000X-0.750000X0.750000X0.750000X-0.750000X0.750000X0*%
%ADD33C,1.602000*%
%ADD34C,6.100000*%
%ADD35RoundRect,0.051000X-0.850000X-0.850000X0.850000X-0.850000X0.850000X0.850000X-0.850000X0.850000X0*%
%ADD36RoundRect,0.101600X1.016000X1.016000X-1.016000X1.016000X-1.016000X-1.016000X1.016000X-1.016000X0*%
%ADD37RoundRect,0.051000X0.750000X0.750000X-0.750000X0.750000X-0.750000X-0.750000X0.750000X-0.750000X0*%
G04 APERTURE END LIST*
D10*
X186000000Y0D02*
X186000000Y-108000000D01*
X6000000Y-118000000D02*
X0Y-118000000D01*
X180000000Y-108000000D02*
X186000000Y-108000000D01*
X186000000Y-118000000D02*
X186000000Y-226000000D01*
X0Y-226000000D02*
X0Y-118000000D01*
X102000000Y-45000000D02*
G75*
G03*
X102000000Y-45000000I-12000000J0D01*
G01*
X102000000Y-181992000D02*
G75*
G03*
X102000000Y-181992000I-12000000J0D01*
G01*
X6000000Y-108000000D02*
X0Y-108000000D01*
X0Y0D02*
X186000000Y0D01*
X180000000Y-118000000D02*
X186000000Y-118000000D01*
X0Y-108000000D02*
X0Y0D01*
X0Y-226000000D02*
X186000000Y-226000000D01*
X6000000Y-108000000D02*
G75*
G02*
X6000000Y-118000000I0J-5000000D01*
G01*
X180000000Y-118000000D02*
G75*
G02*
X180000000Y-108000000I0J5000000D01*
G01*
X186000000Y0D02*
X186000000Y-108000000D01*
X6000000Y-118000000D02*
X0Y-118000000D01*
X180000000Y-108000000D02*
X186000000Y-108000000D01*
X186000000Y-118000000D02*
X186000000Y-226000000D01*
X0Y-226000000D02*
X0Y-118000000D01*
X102000000Y-45000000D02*
G75*
G03*
X102000000Y-45000000I-12000000J0D01*
G01*
X102000000Y-181992000D02*
G75*
G03*
X102000000Y-181992000I-12000000J0D01*
G01*
X6000000Y-108000000D02*
X0Y-108000000D01*
X0Y0D02*
X186000000Y0D01*
X180000000Y-118000000D02*
X186000000Y-118000000D01*
X0Y-108000000D02*
X0Y0D01*
X0Y-226000000D02*
X186000000Y-226000000D01*
X6000000Y-108000000D02*
G75*
G02*
X6000000Y-118000000I0J-5000000D01*
G01*
X180000000Y-118000000D02*
G75*
G02*
X180000000Y-108000000I0J5000000D01*
G01*
D11*
X140200000Y-178740000D03*
X127500000Y-178740000D03*
D12*
X125785000Y-181915000D03*
X141915000Y-181915000D03*
D13*
X127754000Y-158420000D03*
X130294000Y-158420000D03*
X137406000Y-158420000D03*
X139946000Y-158420000D03*
D14*
X128262000Y-172100000D03*
X139438000Y-172100000D03*
X128262000Y-170610000D03*
X139438000Y-170610000D03*
D15*
X127754000Y-160960000D03*
X129786000Y-160960000D03*
X131818000Y-160960000D03*
X135882000Y-160960000D03*
X137914000Y-160960000D03*
X139946000Y-160960000D03*
X128770000Y-163500000D03*
X130802000Y-163500000D03*
X132834000Y-163500000D03*
X134866000Y-163500000D03*
X136898000Y-163500000D03*
D16*
X138930000Y-163500000D03*
D17*
X174000000Y-18000000D03*
D18*
X174000000Y-18000000D03*
D19*
X48050000Y-217625000D03*
D20*
X54050000Y-217625000D03*
D21*
X51050000Y-212925000D03*
D22*
X159020000Y-91850000D03*
D23*
X156480000Y-91850000D03*
X153940000Y-91850000D03*
D24*
X116599799Y-163403800D03*
X111599799Y-163403800D03*
D25*
X74290000Y-133510000D03*
D18*
X73890000Y-85460000D03*
X49690000Y-85460000D03*
D26*
X49290000Y-133510000D03*
D27*
X75590000Y-72710000D03*
D28*
X80588720Y-72710000D03*
D29*
X18500000Y-192500000D03*
D17*
X170000000Y-113000000D03*
D18*
X170000000Y-113000000D03*
D30*
X83765000Y-126280000D03*
D23*
X83765000Y-123740000D03*
D18*
X93000000Y-221000000D03*
D17*
X93000000Y-221000000D03*
D31*
X99160000Y-154830000D03*
X87730000Y-154830000D03*
D32*
X89000000Y-148480000D03*
D33*
X90270000Y-145940000D03*
X91540000Y-148480000D03*
X92810000Y-145940000D03*
X94080000Y-148480000D03*
X95350000Y-145940000D03*
X96620000Y-148480000D03*
X97890000Y-145940000D03*
D17*
X16000000Y-113000000D03*
D18*
X16000000Y-113000000D03*
D22*
X152350000Y-82190000D03*
D23*
X152350000Y-84730000D03*
X149810000Y-82190000D03*
X149810000Y-84730000D03*
X147270000Y-82190000D03*
X147270000Y-84730000D03*
X144730000Y-82190000D03*
X144730000Y-84730000D03*
X142190000Y-82190000D03*
X142190000Y-84730000D03*
X139650000Y-82190000D03*
X139650000Y-84730000D03*
X137110000Y-82190000D03*
X137110000Y-84730000D03*
X134570000Y-82190000D03*
X134570000Y-84730000D03*
X132030000Y-82190000D03*
X132030000Y-84730000D03*
X129490000Y-82190000D03*
X129490000Y-84730000D03*
X126950000Y-82190000D03*
X126950000Y-84730000D03*
X124410000Y-82190000D03*
X124410000Y-84730000D03*
X121870000Y-82190000D03*
X121870000Y-84730000D03*
X119330000Y-82190000D03*
X119330000Y-84730000D03*
X116790000Y-82190000D03*
X116790000Y-84730000D03*
X114250000Y-82190000D03*
X114250000Y-84730000D03*
X111710000Y-82190000D03*
X111710000Y-84730000D03*
X109170000Y-82190000D03*
X109170000Y-84730000D03*
X106630000Y-82190000D03*
X106630000Y-84730000D03*
X104090000Y-82190000D03*
X104090000Y-84730000D03*
D29*
X18500000Y-33500000D03*
D17*
X93000000Y-5000000D03*
D18*
X93000000Y-5000000D03*
D34*
X147240000Y-94885000D03*
X114240000Y-142885000D03*
X114240000Y-94885000D03*
X147240000Y-142885000D03*
D17*
X174000000Y-208000000D03*
D18*
X174000000Y-208000000D03*
D35*
X153040000Y-98010000D03*
D23*
X153040000Y-100550000D03*
X153040000Y-103090000D03*
D36*
X80340000Y-158410000D03*
D28*
X75341280Y-158410000D03*
D35*
X157090000Y-98010000D03*
D23*
X159630000Y-98010000D03*
X157090000Y-100550000D03*
X159630000Y-100550000D03*
X157090000Y-103090000D03*
X159630000Y-103090000D03*
X157090000Y-105630000D03*
X159630000Y-105630000D03*
X157090000Y-108170000D03*
X159630000Y-108170000D03*
X157090000Y-110710000D03*
X159630000Y-110710000D03*
X157090000Y-113250000D03*
X159630000Y-113250000D03*
D18*
X12000000Y-18000000D03*
D17*
X12000000Y-18000000D03*
D31*
X87405000Y-76130000D03*
X98835000Y-76130000D03*
D37*
X97565000Y-82480000D03*
D33*
X96295000Y-85020000D03*
X95025000Y-82480000D03*
X93755000Y-85020000D03*
X92485000Y-82480000D03*
X91215000Y-85020000D03*
X89945000Y-82480000D03*
X88675000Y-85020000D03*
D29*
X167500000Y-192500000D03*
X167500000Y-33500000D03*
D17*
X12000000Y-208000000D03*
D18*
X12000000Y-208000000D03*
G36*
X128140392Y-171247489D02*
G01*
X128302748Y-171257703D01*
X128426979Y-171234005D01*
X128428868Y-171234663D01*
X128429243Y-171236628D01*
X128428483Y-171237621D01*
X128371606Y-171276512D01*
X128344647Y-171340306D01*
X128356457Y-171408552D01*
X128403419Y-171459720D01*
X128425590Y-171470222D01*
X128434417Y-171473365D01*
X128435713Y-171474888D01*
X128435042Y-171476772D01*
X128433371Y-171477214D01*
X128302748Y-171452297D01*
X128140392Y-171462511D01*
X128038462Y-171495631D01*
X128036506Y-171495215D01*
X128035888Y-171493313D01*
X128037199Y-171491836D01*
X128094453Y-171472345D01*
X128151317Y-171432285D01*
X128177384Y-171368120D01*
X128164622Y-171300047D01*
X128116940Y-171249528D01*
X128097879Y-171240501D01*
X128042082Y-171219750D01*
X128040807Y-171218209D01*
X128041504Y-171216334D01*
X128043397Y-171215973D01*
X128140392Y-171247489D01*
G37*
G36*
X139316392Y-171247489D02*
G01*
X139478748Y-171257703D01*
X139602979Y-171234005D01*
X139604868Y-171234663D01*
X139605243Y-171236628D01*
X139604483Y-171237621D01*
X139547606Y-171276512D01*
X139520647Y-171340306D01*
X139532457Y-171408552D01*
X139579419Y-171459720D01*
X139601590Y-171470222D01*
X139610417Y-171473365D01*
X139611713Y-171474888D01*
X139611042Y-171476772D01*
X139609371Y-171477214D01*
X139478748Y-171452297D01*
X139316392Y-171462511D01*
X139214462Y-171495631D01*
X139212506Y-171495215D01*
X139211888Y-171493313D01*
X139213199Y-171491836D01*
X139270453Y-171472345D01*
X139327317Y-171432285D01*
X139353384Y-171368120D01*
X139340622Y-171300047D01*
X139292940Y-171249528D01*
X139273879Y-171240501D01*
X139218082Y-171219750D01*
X139216807Y-171218209D01*
X139217504Y-171216334D01*
X139219397Y-171215973D01*
X139316392Y-171247489D01*
G37*
M02*
