M48
; DRILL file {KiCad 5.99.0-unknown-04347bb33~104~ubuntu20.04.1} date Thu Nov 12 20:03:51 2020
; FORMAT={-:-/ absolute / inch / decimal}
; #@! TF.CreationDate,2020-11-12T20:03:51-06:00
; #@! TF.GenerationSoftware,Kicad,Pcbnew,5.99.0-unknown-04347bb33~104~ubuntu20.04.1
; #@! TF.FileFunction,Plated,1,4,PTH
FMAT,2
INCH
T1C0.0079
T2C0.0299
T3C0.0350
T4C0.0394
T5C0.0433
T6C0.0511
T7C0.0620
T8C0.0984
T9C0.1732
%
G90
G05
T1
X-3.8061Y-4.5797
X-3.8061Y-4.8255
X-3.8061Y-5.0712
X-3.8061Y-5.3169
X-3.8061Y-5.5627
X-3.8061Y-5.8084
X-3.8061Y-6.0541
X-3.8061Y-6.2999
X-3.8061Y-6.5456
X-3.8061Y-6.7913
X-3.8039Y-2.7701
X-3.8039Y-3.0123
X-3.8039Y-3.2545
X-3.8039Y-3.4967
X-3.8039Y-3.7389
X-3.8039Y-3.9811
X-3.8039Y-4.2233
X-3.8024Y-4.4681
X-3.5635Y-4.5797
X-3.5602Y-4.4681
X-3.5463Y-6.7913
X-3.4439Y-2.8681
X-3.4439Y-2.9515
X-3.4439Y-3.0349
X-3.4439Y-3.1184
X-3.4439Y-3.2018
X-3.373Y-3.2766
X-3.3607Y-2.8681
X-3.321Y-4.5797
X-3.3199Y-6.7913
X-3.318Y-4.4681
X-3.2776Y-2.8681
X-3.1944Y-2.8681
X-3.1211Y-4.6654
X-3.1112Y-2.8681
X-3.0935Y-6.7913
X-3.0866Y-3.2766
X-3.0784Y-4.5797
X-3.0757Y-4.4681
X-3.0281Y-2.8681
X-3.0153Y-3.2766
X-3.0039Y-2.9429
X-3.0039Y-3.0207
X-2.9449Y-2.8681
X-2.9449Y-3.0492
X-2.9449Y-3.1073
X-2.9449Y-3.2766
X-2.8929Y-3.7039
X-2.8672Y-6.7913
X-2.8622Y-5.3061
X-2.8535Y-3.2272
X-2.8508Y-3.5193
X-2.8359Y-4.5797
X-2.8335Y-4.4681
X-2.8303Y-3.0161
X-2.8177Y-2.6764
X-2.7665Y-2.5083
X-2.7598Y-5.75
X-2.7445Y-3.2276
X-2.7437Y-2.398
X-2.7437Y-3.5205
X-2.7421Y-3.0488
X-2.7244Y-5.6604
X-2.7205Y-5.7451
X-2.7165Y-3.7039
X-2.7096Y-5.7854
X-2.6689Y-2.6591
X-2.6555Y-5.81
X-2.6535Y-5.7539
X-2.6467Y-5.3041
X-2.6441Y-2.6071
X-2.6421Y-2.4307
X-2.6408Y-6.7913
X-2.628Y-5.9636
X-2.6274Y-2.3022
X-2.6264Y-2.2618
X-2.6264Y-2.2825
X-2.6114Y-3.7039
X-2.6083Y-6.2234
X-2.6047Y-2.2618
X-2.5998Y-2.6821
X-2.5996Y-2.6614
X-2.5986Y-2.6407
X-2.5984Y-5.5581
X-2.5933Y-4.5797
X-2.5913Y-4.4681
X-2.5841Y-2.2618
X-2.5781Y-2.6821
X-2.5581Y-6.0453
X-2.5565Y-2.6821
X-2.5535Y-2.1799
X-2.5492Y-2.2413
X-2.5423Y-6.0817
X-2.5423Y-6.1142
X-2.5268Y-2.9831
X-2.5246Y-5.752
X-2.5148Y-5.9203
X-2.5148Y-5.9656
X-2.5148Y-6.0059
X-2.5148Y-6.2618
X-2.5055Y-2.4492
X-2.5Y-5.5276
X-2.4961Y-2.8378
X-2.4955Y-2.9642
X-2.4955Y-2.9846
X-2.4955Y-3.0049
X-2.4795Y-2.5846
X-2.4793Y-5.6683
X-2.4752Y-2.3386
X-2.4657Y-2.6697
X-2.4642Y-2.4134
X-2.4516Y-3.6665
X-2.4437Y-2.1823
X-2.4256Y-3.3488
X-2.4252Y-5.5207
X-2.4244Y-3.3035
X-2.4193Y-5.6339
X-2.4144Y-6.7913
X-2.411Y-2.6992
X-2.4055Y-6.1417
X-2.4006Y-6.253
X-2.3996Y-5.4478
X-2.3854Y-2.2374
X-2.3819Y-6.1191
X-2.3811Y-3.0461
X-2.3799Y-5.0207
X-2.3799Y-5.0876
X-2.3799Y-5.1545
X-2.3622Y-6.1339
X-2.3508Y-4.5797
X-2.3491Y-4.4681
X-2.3386Y-5.6476
X-2.3356Y-5.9311
X-2.3356Y-5.9764
X-2.3356Y-6.0236
X-2.3307Y-6.3622
X-2.3297Y-5.562
X-2.3169Y-3.5909
X-2.314Y-6.1024
X-2.3022Y-5.0207
X-2.3022Y-5.0871
X-2.3022Y-5.1535
X-2.2992Y-5.3858
X-2.2657Y-5.56
X-2.2549Y-5.9734
X-2.2461Y-2.4429
X-2.2461Y-2.4869
X-2.2461Y-2.5308
X-2.2461Y-2.5748
X-2.2411Y-6.1024
X-2.2402Y-5.5197
X-2.2362Y-6.1388
X-2.2272Y-2.702
X-2.2248Y-3.5886
X-2.2185Y-5.7726
X-2.2173Y-2.8283
X-2.2098Y-3.665
X-2.2037Y-6.065
X-2.1949Y-5.1565
X-2.19Y-5.6555
X-2.188Y-6.7913
X-2.1713Y-5.9774
X-2.1713Y-6.0157
X-2.1654Y-2.4429
X-2.1654Y-2.5748
X-2.1555Y-5.6831
X-2.1555Y-5.7121
X-2.1555Y-5.7411
X-2.1506Y-5.1142
X-2.1506Y-5.1388
X-2.1506Y-5.1634
X-2.1506Y-5.5699
X-2.1506Y-5.5999
X-2.1506Y-5.6299
X-2.1461Y-2.3307
X-2.1358Y-6.188
X-2.1287Y-2.7016
X-2.1082Y-4.5797
X-2.1069Y-4.4681
X-2.0846Y-2.4429
X-2.0846Y-2.4869
X-2.0846Y-2.5308
X-2.0846Y-2.5748
X-2.0681Y-2.824
X-2.0654Y-2.3728
X-1.997Y-5.5089
X-1.997Y-5.5315
X-1.9646Y-5.6447
X-1.9616Y-6.7913
X-1.9543Y-4.1248
X-1.9193Y-4.8219
X-1.877Y-5.6309
X-1.8701Y-3.0118
X-1.8657Y-4.5797
X-1.8647Y-4.4681
X-1.8435Y-2.9577
X-1.8287Y-4.8051
X-1.8287Y-4.8258
X-1.8287Y-4.8465
X-1.8287Y-5.8435
X-1.8287Y-5.9298
X-1.8287Y-6.0161
X-1.8287Y-6.1024
X-1.8079Y-2.9547
X-1.8061Y-3.4843
X-1.7746Y-4.8071
X-1.7677Y-5.8435
X-1.7677Y-5.9298
X-1.7677Y-6.0161
X-1.7677Y-6.1024
X-1.7657Y-3.4843
X-1.7353Y-6.7913
X-1.7339Y-3.2713
X-1.686Y-4.8474
X-1.6231Y-4.5797
X-1.6225Y-4.4681
X-1.6134Y-3.3339
X-1.6132Y-4.6693
X-1.5846Y-5.375
X-1.5315Y-4.8474
X-1.5089Y-6.7913
X-1.4972Y-3.0551
X-1.4203Y-5.8772
X-1.4203Y-5.8972
X-1.4201Y-6.0264
X-1.4201Y-6.0461
X-1.4201Y-6.173
X-1.4201Y-6.1929
X-1.4193Y-5.7295
X-1.4193Y-5.7492
X-1.4193Y-3.385
X-1.4169Y-3.2752
X-1.3809Y-4.8474
X-1.3806Y-4.5797
X-1.3803Y-4.4681
X-1.376Y-2.873
X-1.372Y-2.9547
X-1.3711Y-3.063
X-1.339Y-2.9535
X-1.3083Y-3.387
X-1.3079Y-3.2768
X-1.2825Y-6.7913
X-1.215Y-3.0602
X-1.1831Y-3.3862
X-1.1827Y-3.2776
X-1.1368Y-3.2795
X-1.1358Y-3.3858
X-1.1181Y-3.0606
X-1.1053Y-3.2795
X-1.1043Y-3.3858
X-1.0724Y-3.2787
X-1.0561Y-6.7913
X-0.9634Y-3.0669
X-0.9622Y-2.9531
X-0.9311Y-2.9547
X-0.9311Y-3.0659
X-0.8297Y-6.7913
X-0.7697Y-2.5307
X-0.6034Y-6.7913
X-0.377Y-6.7913
X-0.2449Y-1.0764
X-0.1638Y-1.4165
X-0.1506Y-6.7913
X-0.0386Y-1.4161
X0.0758Y-6.7913
X0.3022Y-6.7913
X0.3209Y-4.4685
X0.4028Y-2.5063
X0.4142Y-2.9681
X0.5228Y-4.2555
X0.526Y-4.0941
X0.5285Y-6.7913
X0.5631Y-4.4685
X0.6122Y-1.315
X0.6827Y-1.3508
X0.7047Y-3.3504
X0.7083Y-3.1165
X0.7205Y-3.2677
X0.7378Y-2.8197
X0.7429Y-2.7913
X0.7549Y-6.7913
X0.7579Y-1.372
X0.8053Y-4.4685
X0.9047Y-1.7413
X0.9193Y-4.0827
X0.9307Y-2.9811
X0.9343Y-3.8276
X0.9374Y-3.9051
X0.9378Y-3.9819
X0.9539Y-3.2
X0.9764Y-3.3425
X0.9783Y-3.2461
X0.9813Y-6.7913
X1.0331Y-0.8898
X1.0358Y-1.6972
X1.0413Y-1.3701
X1.0475Y-4.4685
X1.0866Y-3.2996
X1.1142Y-0.7943
X1.1169Y-4.0138
X1.1378Y-0.7963
X1.1457Y-3.922
X1.1535Y-1.3701
X1.1594Y-0.747
X1.1819Y-4.0819
X1.186Y-3.922
X1.1945Y-2.0331
X1.1996Y-1.8283
X1.2012Y-0.7429
X1.2077Y-6.7913
X1.2234Y-3.922
X1.2366Y-0.7744
X1.249Y-3.8778
X1.2559Y-1.372
X1.2875Y-4.5797
X1.2897Y-4.4685
X1.2898Y-3.6252
X1.2898Y-3.7349
X1.2898Y-3.8447
X1.2898Y-3.9544
X1.2898Y-4.0642
X1.311Y-1.9409
X1.3626Y-0.9602
X1.4091Y-4.0752
X1.4102Y-3.9827
X1.4114Y-1.9555
X1.434Y-6.7913
X1.4575Y-0.8358
X1.4575Y-2.2898
X1.5094Y-2.1346
X1.5106Y-4.1937
X1.5301Y-4.5797
X1.5303Y-0.8732
X1.5319Y-4.4685
X1.5551Y-1.372
X1.5563Y-2.0654
X1.5705Y-0.9591
X1.6161Y-4.0752
X1.6169Y-3.9827
X1.6604Y-6.7913
X1.678Y-2.1563
X1.7118Y-2.5445
X1.7248Y-0.6705
X1.7283Y-0.9378
X1.7331Y-2.7563
X1.7437Y-0.9177
X1.753Y-1.001
X1.7531Y-1.526
X1.7741Y-4.4685
X1.7766Y-0.4793
X1.7785Y-0.5394
X1.7963Y-1.0207
X1.86Y-2.74
X1.8677Y-2.2677
X1.8854Y-3.898
X1.8868Y-6.7913
X1.8941Y-2.7205
X1.8972Y-2.7878
X1.8976Y-2.8366
X1.8986Y-2.2851
X1.8992Y-2.1276
X1.8996Y-1.8091
X1.9232Y-2.9028
X1.952Y-2.1756
X1.9559Y-2.7079
X1.9591Y-2.8264
X1.965Y-2.776
X1.9744Y-1.3386
X1.9789Y-2.6072
X1.979Y-2.5835
X1.9794Y-2.5497
X1.9795Y-2.5261
X1.9811Y-2.7075
X1.9815Y-2.7587
X1.9841Y-2.6303
X1.9842Y-2.6657
X1.985Y-2.4398
X1.9862Y-2.472
X1.9874Y-2.5028
X1.9955Y-2.6865
X1.9984Y-2.7419
X1.9999Y-2.6479
X2.0004Y-2.5733
X2.0059Y-1.9587
X2.0094Y-2.2224
X2.0094Y-2.2539
X2.0094Y-2.2854
X2.0126Y-2.4425
X2.0165Y-2.3323
X2.0165Y-2.7205
X2.0193Y-2.8362
X2.0217Y-2.2067
X2.0217Y-2.2382
X2.0217Y-2.2697
X2.0425Y-2.9004
X2.0732Y-2.2524
X2.0736Y-2.2217
X2.0736Y-2.285
X2.076Y-2.5512
X2.076Y-2.6315
X2.0772Y-2.0273
X2.0772Y-2.3315
X2.0772Y-2.4035
X2.0776Y-2.4449
X2.085Y-2.2685
X2.0858Y-2.2059
X2.0862Y-2.2374
X2.0955Y-2.6821
X2.1132Y-6.7913
X2.1185Y-2.076
X2.1209Y-2.6531
X2.126Y-1.3445
X2.1272Y-1.9902
X2.1394Y-2.6976
X2.1407Y-2.4242
X2.1425Y-2.3862
X2.1433Y-2.4528
X2.1547Y-1.9276
X2.1575Y-2.2136
X2.1577Y-2.1762
X2.1657Y-2.7299
X2.1909Y-2.0492
X2.2146Y-1.3622
X2.2228Y-1.0445
X2.2264Y-2.1909
X2.2274Y-2.3661
X2.2293Y-0.5561
X2.2293Y-0.5768
X2.2333Y-2.6339
X2.2598Y-2.1098
X2.2864Y-1.8199
X2.2963Y-2.6348
X2.2992Y-1.9035
X2.3002Y-0.748
X2.3396Y-6.7913
X2.3602Y-1.1744
X2.5659Y-6.7913
X2.7923Y-6.7913
X3.0187Y-6.7913
X3.2451Y-6.7913
X3.4705Y-4.5797
X3.4705Y-4.8405
X3.4705Y-5.0831
X3.4705Y-5.3256
X3.4705Y-5.5682
X3.4705Y-5.8107
X3.4705Y-6.0533
X3.4705Y-6.2958
X3.4705Y-6.5384
X3.4715Y-6.7913
T2
X-0.3372Y-1.2622
X-0.2872Y-1.1622
X-0.2372Y-1.2622
X-0.1872Y-1.1622
X-0.1372Y-1.2622
X-0.0872Y-1.1622
X-0.0372Y-1.2622
X0.0128Y-1.1622
X-0.3244Y-3.7606
X-0.2744Y-3.6606
X-0.2244Y-3.7606
X-0.1744Y-3.6606
X-0.1244Y-3.7606
X-0.0744Y-3.6606
X-0.0244Y-3.7606
X0.0256Y-3.6606
T3
X1.2013Y-4.252
X1.2213Y-4.6319
X1.2213Y-4.6906
X1.2413Y-4.352
X1.2813Y-4.252
X1.3213Y-4.352
X1.3613Y-4.252
X1.4013Y-4.352
X1.4813Y-4.352
X1.5213Y-4.252
X1.5613Y-4.352
X1.6013Y-4.252
X1.6413Y-4.352
X1.6613Y-4.6319
X1.6613Y-4.6906
X1.6813Y-4.252
T4
X2.1969Y-1.7736
X2.1969Y-1.8736
X2.1969Y-1.9736
X2.2323Y-1.5311
X2.3323Y-1.5311
X2.4323Y-1.5311
X-0.5305Y-2.7866
X-0.5305Y-2.8866
X0.3819Y-1.1547
X0.3819Y-1.2547
X0.4819Y-1.1547
X0.4819Y-1.2547
X0.5819Y-1.1547
X0.5819Y-1.2547
X0.6819Y-1.1547
X0.6819Y-1.2547
X0.7819Y-1.1547
X0.7819Y-1.2547
X0.8819Y-1.1547
X0.8819Y-1.2547
X0.9819Y-1.1547
X0.9819Y-1.2547
X1.0819Y-1.1547
X1.0819Y-1.2547
X1.1819Y-1.1547
X1.1819Y-1.2547
X1.2819Y-1.1547
X1.2819Y-1.2547
X1.3819Y-1.1547
X1.3819Y-1.2547
X1.4819Y-1.1547
X1.4819Y-1.2547
X1.5819Y-1.1547
X1.5819Y-1.2547
X1.6819Y-1.1547
X1.6819Y-1.2547
X1.7819Y-1.1547
X1.7819Y-1.2547
X1.8819Y-1.1547
X1.8819Y-1.2547
X1.9819Y-1.1547
X1.9819Y-1.2547
X2.0819Y-1.1547
X2.0819Y-1.2547
X2.1819Y-1.1547
X2.1819Y-1.2547
X2.2819Y-1.1547
X2.2819Y-1.2547
X2.3563Y-1.7736
X2.3563Y-1.8736
X2.3563Y-1.9736
X2.3563Y-2.0736
X2.3563Y-2.1736
X2.3563Y-2.2736
X2.3563Y-2.3736
X2.4563Y-1.7736
X2.4563Y-1.8736
X2.4563Y-1.9736
X2.4563Y-2.0736
X2.4563Y-2.1736
X2.4563Y-2.2736
X2.4563Y-2.3736
T5
X1.2013Y-4.152
X1.3013Y-4.152
X1.5813Y-4.152
X1.6813Y-4.152
T6
X-0.8524Y-0.7776
X-0.6556Y-0.7776
X-0.8622Y-4.1516
X-0.6654Y-4.1516
T7
X1.1238Y-5.077
X1.7589Y-5.077
T8
X-3.3559Y1.3764
X-0.1669Y-6.6157
X-0.1669Y1.8882
X3.022Y-6.1039
X3.022Y1.3764
X-3.3559Y-6.1039
T9
X2.7661Y0.7661
X-3.1Y0.7661
X-3.1Y-5.4937
X2.7661Y-5.4937
T4
G00X-1.9366Y-6.5222
M15
G01X-1.9366Y-6.4435
M16
G05
G00X-1.7791Y-6.2978
M15
G01X-1.8579Y-6.2978
M16
G05
G00X-1.7004Y-6.5222
M15
G01X-1.7004Y-6.4435
M16
G05
T0
M30
