M48
; DRILL file {KiCad 5.99.0-unknown-04347bb33~104~ubuntu20.04.1} date Fri Nov 13 18:14:26 2020
; FORMAT={-:-/ absolute / inch / decimal}
; #@! TF.CreationDate,2020-11-13T18:14:26-06:00
; #@! TF.GenerationSoftware,Kicad,Pcbnew,5.99.0-unknown-04347bb33~104~ubuntu20.04.1
; #@! TF.FileFunction,Plated,1,4,PTH
FMAT,2
INCH
T1C0.0079
T2C0.0299
T3C0.0350
T4C0.0394
T5C0.0433
T6C0.0511
T7C0.0620
T8C0.0984
T9C0.1732
%
G90
G05
T1
X0.0222Y-6.6648
X0.0222Y-6.9105
X0.0222Y-7.1562
X0.0222Y-7.402
X0.0222Y-7.6477
X0.0222Y-7.8934
X0.0222Y-8.1392
X0.0222Y-8.3849
X0.0222Y-8.6306
X0.0222Y-8.8764
X0.0244Y-4.8551
X0.0244Y-5.0973
X0.0244Y-5.3395
X0.0244Y-5.5817
X0.0244Y-5.8239
X0.0244Y-6.0661
X0.0244Y-6.3083
X0.026Y-6.5531
X0.2648Y-6.6648
X0.2682Y-6.5531
X0.2821Y-8.8764
X0.3844Y-4.9531
X0.3844Y-5.0366
X0.3844Y-5.12
X0.3844Y-5.2034
X0.3844Y-5.2868
X0.4553Y-5.3616
X0.4676Y-4.9531
X0.5073Y-6.6648
X0.5084Y-8.8764
X0.5104Y-6.5531
X0.5508Y-4.9531
X0.634Y-4.9531
X0.7073Y-6.7504
X0.7171Y-4.9531
X0.7348Y-8.8764
X0.7417Y-5.3616
X0.7499Y-6.6648
X0.7526Y-6.5531
X0.8003Y-4.9531
X0.8131Y-5.3616
X0.8244Y-5.028
X0.8244Y-5.1057
X0.8835Y-4.9531
X0.8835Y-5.1343
X0.8835Y-5.1923
X0.8835Y-5.3616
X0.9354Y-5.789
X0.9612Y-8.8764
X0.9661Y-7.3911
X0.9748Y-5.3122
X0.9776Y-5.6043
X0.9925Y-6.6648
X0.9948Y-6.5531
X0.998Y-5.1012
X1.0106Y-4.7614
X1.0618Y-4.5933
X1.0685Y-7.835
X1.0839Y-5.3126
X1.0846Y-4.4831
X1.0846Y-5.6055
X1.0862Y-5.1339
X1.1039Y-7.7455
X1.1079Y-7.8301
X1.1118Y-5.789
X1.1187Y-7.8705
X1.1594Y-4.7441
X1.1728Y-7.8951
X1.1748Y-7.839
X1.1817Y-7.3892
X1.1843Y-4.6921
X1.1862Y-4.5157
X1.1876Y-8.8764
X1.2004Y-8.0486
X1.201Y-4.3872
X1.202Y-4.3469
X1.202Y-4.3675
X1.2169Y-5.789
X1.2201Y-8.3085
X1.2236Y-4.3469
X1.2285Y-4.7671
X1.2287Y-4.7465
X1.2297Y-4.7258
X1.2299Y-7.6431
X1.235Y-6.6648
X1.237Y-6.5531
X1.2443Y-4.3469
X1.2502Y-4.7671
X1.2703Y-8.1303
X1.2719Y-4.7671
X1.2748Y-4.265
X1.2791Y-4.3264
X1.286Y-8.1667
X1.286Y-8.1992
X1.3016Y-5.0681
X1.3037Y-7.837
X1.3136Y-8.0053
X1.3136Y-8.0506
X1.3136Y-8.0909
X1.3136Y-8.3469
X1.3228Y-4.5343
X1.3283Y-7.6126
X1.3323Y-4.9228
X1.3329Y-5.0492
X1.3329Y-5.0697
X1.3329Y-5.09
X1.3488Y-4.6697
X1.349Y-7.7533
X1.3531Y-4.4236
X1.3626Y-4.7547
X1.3642Y-4.4984
X1.3768Y-5.7516
X1.3846Y-4.2673
X1.4028Y-5.4339
X1.4031Y-7.6057
X1.4039Y-5.3886
X1.4091Y-7.7189
X1.4139Y-8.8764
X1.4173Y-4.7843
X1.4228Y-8.2268
X1.4278Y-8.338
X1.4287Y-7.5329
X1.4429Y-4.3224
X1.4465Y-8.2041
X1.4472Y-5.1311
X1.4484Y-7.1057
X1.4484Y-7.1726
X1.4484Y-7.2396
X1.4661Y-8.2189
X1.4776Y-6.6648
X1.4792Y-6.5531
X1.4898Y-7.7327
X1.4927Y-8.0161
X1.4927Y-8.0614
X1.4927Y-8.1087
X1.4976Y-8.4472
X1.4986Y-7.647
X1.5114Y-5.676
X1.5144Y-8.1874
X1.5262Y-7.1057
X1.5262Y-7.1721
X1.5262Y-7.2386
X1.5291Y-7.4709
X1.5626Y-7.6451
X1.5734Y-8.0585
X1.5823Y-4.528
X1.5823Y-4.5719
X1.5823Y-4.6159
X1.5823Y-4.6598
X1.5872Y-8.1874
X1.5882Y-7.6047
X1.5921Y-8.2238
X1.6012Y-4.787
X1.6035Y-5.6736
X1.6098Y-7.8577
X1.611Y-4.9134
X1.6185Y-5.75
X1.6246Y-8.15
X1.6335Y-7.2415
X1.6384Y-7.7406
X1.6403Y-8.8764
X1.6571Y-8.0624
X1.6571Y-8.1008
X1.663Y-4.528
X1.663Y-4.6598
X1.6728Y-7.7681
X1.6728Y-7.7971
X1.6728Y-7.8262
X1.6778Y-7.1992
X1.6778Y-7.2238
X1.6778Y-7.2484
X1.6778Y-7.6549
X1.6778Y-7.6849
X1.6778Y-7.715
X1.6823Y-4.4157
X1.6925Y-8.273
X1.6996Y-4.7866
X1.7201Y-6.6648
X1.7214Y-6.5531
X1.7437Y-4.528
X1.7437Y-4.5719
X1.7437Y-4.6159
X1.7437Y-4.6598
X1.7602Y-4.9091
X1.763Y-4.4579
X1.8313Y-7.5939
X1.8313Y-7.6165
X1.8638Y-7.7297
X1.8667Y-8.8764
X1.874Y-6.2098
X1.9091Y-6.9069
X1.9514Y-7.7159
X1.9583Y-5.0969
X1.9627Y-6.6648
X1.9636Y-6.5531
X1.9848Y-5.0427
X1.9996Y-6.8902
X1.9996Y-6.9108
X1.9996Y-6.9315
X1.9996Y-7.9285
X1.9996Y-8.0148
X1.9996Y-8.1011
X1.9996Y-8.1874
X2.0205Y-5.0398
X2.0222Y-5.5693
X2.0537Y-6.8921
X2.0606Y-7.9285
X2.0606Y-8.0148
X2.0606Y-8.1011
X2.0606Y-8.1874
X2.0626Y-5.5693
X2.0931Y-8.8764
X2.0945Y-5.3563
X2.1423Y-6.9325
X2.2052Y-6.6648
X2.2058Y-6.5531
X2.215Y-5.4189
X2.2152Y-6.7543
X2.2437Y-7.46
X2.2969Y-6.9325
X2.3195Y-8.8764
X2.3311Y-5.1402
X2.408Y-7.9622
X2.408Y-7.9823
X2.4082Y-8.1114
X2.4082Y-8.1311
X2.4082Y-8.2581
X2.4082Y-8.278
X2.409Y-7.8146
X2.409Y-7.8343
X2.4091Y-5.4701
X2.4114Y-5.3602
X2.4474Y-6.9325
X2.4478Y-6.6648
X2.448Y-6.5531
X2.4524Y-4.9581
X2.4563Y-5.0398
X2.4573Y-5.148
X2.4894Y-5.0386
X2.5201Y-5.472
X2.5205Y-5.3618
X2.5458Y-8.8764
X2.6134Y-5.1453
X2.6453Y-5.4713
X2.6457Y-5.3626
X2.6915Y-5.3646
X2.6925Y-5.4709
X2.7102Y-5.1457
X2.723Y-5.3646
X2.724Y-5.4709
X2.7559Y-5.3638
X2.7722Y-8.8764
X2.865Y-5.152
X2.8661Y-5.0382
X2.8972Y-5.0398
X2.8972Y-5.151
X2.9986Y-8.8764
X3.0587Y-4.6157
X3.5835Y-3.1614
X3.6646Y-3.5016
X3.7898Y-3.5012
X4.1492Y-6.5535
X4.2311Y-4.5913
X4.2425Y-5.0531
X4.3512Y-6.3406
X4.3543Y-6.1791
X4.3914Y-6.5535
X4.5331Y-5.4354
X4.5366Y-5.2016
X4.5488Y-5.3528
X4.5661Y-4.9047
X4.5713Y-4.8764
X4.6336Y-6.5535
X4.7476Y-6.1677
X4.7591Y-5.0661
X4.7626Y-5.9126
X4.7657Y-5.9902
X4.7661Y-6.0669
X4.7822Y-5.285
X4.8047Y-5.4276
X4.8067Y-5.3311
X4.8614Y-2.9748
X4.8758Y-6.5535
X4.8811Y-3.6831
X4.9028Y-3.611
X4.915Y-5.3847
X4.9425Y-2.8793
X4.9453Y-6.0988
X4.9661Y-2.8813
X4.974Y-6.0071
X4.9878Y-2.8321
X5.0102Y-6.1669
X5.0144Y-6.0071
X5.0295Y-2.828
X5.0518Y-6.0071
X5.065Y-2.8594
X5.0774Y-5.9628
X5.1158Y-6.6648
X5.118Y-6.5535
X5.1181Y-5.7102
X5.1181Y-5.82
X5.1181Y-5.9297
X5.1181Y-6.0395
X5.1181Y-6.1492
X5.1909Y-3.0453
X5.2374Y-6.1602
X5.2386Y-6.0677
X5.2858Y-2.9209
X5.339Y-6.2787
X5.3584Y-6.6648
X5.3587Y-2.9583
X5.3602Y-6.5535
X5.3988Y-3.0441
X5.4445Y-6.1602
X5.4453Y-6.0677
X5.4571Y-4.5035
X5.4579Y-4.8894
X5.4583Y-4.4118
X5.522Y-4.8803
X5.5484Y-4.4114
X5.5531Y-2.7555
X5.5567Y-3.0228
X5.572Y-3.0028
X5.5813Y-3.0854
X5.5878Y-3.4941
X5.6024Y-6.5535
X5.6049Y-2.5644
X5.6069Y-2.6244
X5.6126Y-4.8232
X5.6246Y-3.1064
X5.6453Y-4.9024
X5.6961Y-4.3528
X5.7138Y-5.9831
X5.7154Y-4.8587
X5.7177Y-4.7315
X5.7264Y-4.6528
X5.7268Y-4.5744
X5.727Y-4.3701
X5.7276Y-4.2126
X5.7476Y-4.9854
X5.7803Y-4.2606
X5.7843Y-4.7929
X5.789Y-4.611
X5.789Y-4.6346
X5.7933Y-4.861
X5.7978Y-4.6685
X5.798Y-4.5449
X5.7988Y-4.6921
X5.7993Y-4.5894
X5.8094Y-4.7925
X5.8098Y-4.8437
X5.813Y-4.7248
X5.813Y-4.7689
X5.8146Y-4.6512
X5.8166Y-4.5732
X5.8268Y-4.8269
X5.8378Y-4.3075
X5.8378Y-4.339
X5.8378Y-4.3705
X5.8382Y-4.7437
X5.8386Y-4.7677
X5.8449Y-4.4173
X5.8451Y-4.8063
X5.8476Y-4.9213
X5.85Y-4.2917
X5.85Y-4.3232
X5.85Y-4.3547
X5.8984Y-4.9843
X5.9016Y-4.3374
X5.902Y-4.3067
X5.902Y-4.3701
X5.9043Y-4.6362
X5.9047Y-4.718
X5.9055Y-4.1123
X5.9055Y-4.4165
X5.9055Y-4.4886
X5.9059Y-4.5299
X5.9079Y-4.7894
X5.9134Y-4.3535
X5.9142Y-4.2909
X5.9146Y-4.3224
X5.9157Y-4.9047
X5.9217Y-4.6799
X5.9469Y-4.161
X5.9555Y-4.0752
X5.9691Y-4.5093
X5.9709Y-4.4713
X5.9717Y-4.5378
X5.976Y-4.7614
X5.9831Y-4.0126
X5.9858Y-4.2986
X5.9861Y-4.2612
X5.9941Y-4.815
X5.9957Y-4.7437
X5.9996Y-4.885
X6.0193Y-4.1343
X6.0283Y-4.7075
X6.0346Y-4.815
X6.0547Y-4.276
X6.0557Y-4.4512
X6.0577Y-2.6411
X6.0577Y-2.6618
X6.0616Y-4.7189
X6.0882Y-4.1949
X6.122Y-5.1874
X6.1246Y-4.7199
X6.1276Y-3.9886
X6.1285Y-2.8331
X6.174Y-2.9358
X6.3531Y-4.0799
X6.4929Y-5.189
X6.4957Y-4.635
T2
X3.4911Y-3.3472
X3.5411Y-3.2472
X3.5911Y-3.3472
X3.6411Y-3.2472
X3.6911Y-3.3472
X3.7411Y-3.2472
X3.7911Y-3.3472
X3.8411Y-3.2472
X3.5039Y-5.8457
X3.5539Y-5.7457
X3.6039Y-5.8457
X3.6539Y-5.7457
X3.7039Y-5.8457
X3.7539Y-5.7457
X3.8039Y-5.8457
X3.8539Y-5.7457
T3
X5.0297Y-6.337
X5.0497Y-6.7169
X5.0497Y-6.7756
X5.0697Y-6.437
X5.1097Y-6.337
X5.1497Y-6.437
X5.1897Y-6.337
X5.2297Y-6.437
X5.3097Y-6.437
X5.3497Y-6.337
X5.3897Y-6.437
X5.4297Y-6.337
X5.4697Y-6.437
X5.4897Y-6.7169
X5.4897Y-6.7756
X5.5097Y-6.337
T4
X6.0252Y-3.9587
X3.2978Y-4.8717
X3.2978Y-4.9717
X6.0252Y-3.8587
X6.0252Y-4.0587
X4.298Y-3.3358
X6.2606Y-3.6161
X4.098Y-3.2358
X4.098Y-3.3358
X4.198Y-3.2358
X4.198Y-3.3358
X4.298Y-3.2358
X4.398Y-3.2358
X4.398Y-3.3358
X4.498Y-3.2358
X4.498Y-3.3358
X4.598Y-3.2358
X4.598Y-3.3358
X4.698Y-3.2358
X6.1846Y-4.2587
X4.798Y-3.2358
X6.1846Y-3.9587
X4.698Y-3.3358
X6.1846Y-3.8587
X6.1846Y-4.0587
X6.1846Y-4.1587
X6.1846Y-4.3587
X6.1846Y-4.4587
X6.2846Y-3.8587
X6.2846Y-3.9587
X6.2846Y-4.0587
X6.2846Y-4.1587
X6.2846Y-4.2587
X6.2846Y-4.3587
X6.2846Y-4.4587
X6.1606Y-3.6161
X4.798Y-3.3358
X4.898Y-3.2358
X4.898Y-3.3358
X4.998Y-3.2358
X4.998Y-3.3358
X5.098Y-3.2358
X5.098Y-3.3358
X5.198Y-3.2358
X5.198Y-3.3358
X5.298Y-3.2358
X5.298Y-3.3358
X5.398Y-3.2358
X5.398Y-3.3358
X5.498Y-3.3358
X6.0606Y-3.6161
X5.498Y-3.2358
X5.598Y-3.2358
X5.598Y-3.3358
X5.698Y-3.2358
X5.698Y-3.3358
X5.798Y-3.2358
X5.798Y-3.3358
X5.898Y-3.2358
X5.898Y-3.3358
X5.998Y-3.2358
X5.998Y-3.3358
T5
X5.0297Y-6.237
X5.1297Y-6.237
X5.4097Y-6.237
X5.5097Y-6.237
T6
X2.9662Y-6.2366
X3.163Y-6.2366
X2.976Y-2.8626
X3.1728Y-2.8626
T7
X4.9522Y-7.162
X5.5872Y-7.162
T8
X6.6929Y-4.4488
X6.8504Y-8.189
X0.4724Y-0.7087
X3.6614Y-8.7008
X3.6614Y-0.1969
X6.8504Y-0.7087
X0.6299Y-4.4488
X0.4724Y-8.189
T9
X6.5945Y-1.3189
X0.7283Y-7.5787
X0.7283Y-1.3189
X6.5945Y-7.5787
T4
G00X1.8917Y-8.6073
M15
G01X1.8917Y-8.5285
M16
G05
G00X2.0492Y-8.3829
M15
G01X1.9705Y-8.3829
M16
G05
G00X2.128Y-8.6073
M15
G01X2.128Y-8.5285
M16
G05
T0
M30
