G04 #@! TF.GenerationSoftware,KiCad,Pcbnew,5.99.0-unknown-912657dd23~106~ubuntu20.04.1*
G04 #@! TF.CreationDate,2020-12-23T22:24:20-06:00*
G04 #@! TF.ProjectId,AP3000,41503330-3030-42e6-9b69-6361645f7063,rev?*
G04 #@! TF.SameCoordinates,Original*
G04 #@! TF.FileFunction,Paste,Top*
G04 #@! TF.FilePolarity,Positive*
%FSLAX46Y46*%
G04 Gerber Fmt 4.6, Leading zero omitted, Abs format (unit mm)*
G04 Created by KiCad (PCBNEW 5.99.0-unknown-912657dd23~106~ubuntu20.04.1) date 2020-12-23 22:24:20*
%MOMM*%
%LPD*%
G01*
G04 APERTURE LIST*
G04 Aperture macros list*
%AMRoundRect*
0 Rectangle with rounded corners*
0 $1 Rounding radius*
0 $2 $3 $4 $5 $6 $7 $8 $9 X,Y pos of 4 corners*
0 Add a 4 corners polygon primitive as box body*
4,1,4,$2,$3,$4,$5,$6,$7,$8,$9,$2,$3,0*
0 Add four circle primitives for the rounded corners*
1,1,$1+$1,$2,$3,0*
1,1,$1+$1,$4,$5,0*
1,1,$1+$1,$6,$7,0*
1,1,$1+$1,$8,$9,0*
0 Add four rect primitives between the rounded corners*
20,1,$1+$1,$2,$3,$4,$5,0*
20,1,$1+$1,$4,$5,$6,$7,0*
20,1,$1+$1,$6,$7,$8,$9,0*
20,1,$1+$1,$8,$9,$2,$3,0*%
G04 Aperture macros list end*
G04 #@! TA.AperFunction,Profile*
%ADD10C,0.100000*%
G04 #@! TD*
%ADD11RoundRect,0.120000X-0.660000X-0.120000X0.660000X-0.120000X0.660000X0.120000X-0.660000X0.120000X0*%
%ADD12RoundRect,0.160000X0.160000X0.220000X-0.160000X0.220000X-0.160000X-0.220000X0.160000X-0.220000X0*%
%ADD13R,1.120000X1.112000*%
%ADD14R,3.888000X2.688000*%
%ADD15RoundRect,0.232500X0.757500X0.232500X-0.757500X0.232500X-0.757500X-0.232500X0.757500X-0.232500X0*%
%ADD16RoundRect,0.070000X0.481250X0.070000X-0.481250X0.070000X-0.481250X-0.070000X0.481250X-0.070000X0*%
%ADD17RoundRect,0.160000X-0.220000X0.160000X-0.220000X-0.160000X0.220000X-0.160000X0.220000X0.160000X0*%
%ADD18RoundRect,0.160000X-0.160000X-0.220000X0.160000X-0.220000X0.160000X0.220000X-0.160000X0.220000X0*%
%ADD19RoundRect,0.160000X0.220000X-0.160000X0.220000X0.160000X-0.220000X0.160000X-0.220000X-0.160000X0*%
%ADD20RoundRect,0.180000X-0.180000X-0.200000X0.180000X-0.200000X0.180000X0.200000X-0.180000X0.200000X0*%
%ADD21RoundRect,0.180000X0.180000X0.200000X-0.180000X0.200000X-0.180000X-0.200000X0.180000X-0.200000X0*%
%ADD22RoundRect,0.180000X0.200000X-0.180000X0.200000X0.180000X-0.200000X0.180000X-0.200000X-0.180000X0*%
%ADD23R,2.400000X5.600000*%
%ADD24R,0.880000X2.400000*%
%ADD25R,0.420000X1.400000*%
%ADD26R,1.610000X2.240000*%
%ADD27RoundRect,0.200000X-0.820000X0.630000X-0.820000X-0.630000X0.820000X-0.630000X0.820000X0.630000X0*%
%ADD28R,1.440000X2.000000*%
%ADD29RoundRect,0.200000X-0.380000X0.200000X-0.380000X-0.200000X0.380000X-0.200000X0.380000X0.200000X0*%
%ADD30RoundRect,0.200000X0.880000X-0.260000X0.880000X0.260000X-0.880000X0.260000X-0.880000X-0.260000X0*%
%ADD31RoundRect,0.120000X-0.120000X0.530000X-0.120000X-0.530000X0.120000X-0.530000X0.120000X0.530000X0*%
%ADD32R,0.720000X0.640000*%
%ADD33RoundRect,0.200000X-0.200000X-0.380000X0.200000X-0.380000X0.200000X0.380000X-0.200000X0.380000X0*%
%ADD34R,0.720000X0.960000*%
%ADD35R,4.080000X1.520000*%
%ADD36RoundRect,0.200000X-0.210000X-0.360000X0.210000X-0.360000X0.210000X0.360000X-0.210000X0.360000X0*%
%ADD37RoundRect,0.200000X-0.260000X-0.880000X0.260000X-0.880000X0.260000X0.880000X-0.260000X0.880000X0*%
%ADD38R,0.640000X0.720000*%
%ADD39RoundRect,0.120000X0.410000X0.120000X-0.410000X0.120000X-0.410000X-0.120000X0.410000X-0.120000X0*%
%ADD40RoundRect,0.120000X0.120000X-0.580000X0.120000X0.580000X-0.120000X0.580000X-0.120000X-0.580000X0*%
%ADD41RoundRect,0.175000X0.175000X0.205000X-0.175000X0.205000X-0.175000X-0.205000X0.175000X-0.205000X0*%
%ADD42RoundRect,0.030000X-0.030000X0.139500X-0.030000X-0.139500X0.030000X-0.139500X0.030000X0.139500X0*%
%ADD43RoundRect,0.020040X-0.039960X0.149460X-0.039960X-0.149460X0.039960X-0.149460X0.039960X0.149460X0*%
%ADD44RoundRect,0.030030X-0.074970X0.139470X-0.074970X-0.139470X0.074970X-0.139470X0.074970X0.139470X0*%
%ADD45R,2.000000X1.440000*%
%ADD46R,1.440000X0.800000*%
%ADD47RoundRect,0.200000X-0.880000X0.260000X-0.880000X-0.260000X0.880000X-0.260000X0.880000X0.260000X0*%
%ADD48RoundRect,0.120000X-0.410000X-0.120000X0.410000X-0.120000X0.410000X0.120000X-0.410000X0.120000X0*%
%ADD49R,1.200000X1.920000*%
%ADD50R,1.200000X0.840000*%
%ADD51RoundRect,0.200000X1.560000X0.800000X-1.560000X0.800000X-1.560000X-0.800000X1.560000X-0.800000X0*%
%ADD52RoundRect,0.200000X0.380000X-0.200000X0.380000X0.200000X-0.380000X0.200000X-0.380000X-0.200000X0*%
%ADD53RoundRect,0.199999X1.160001X-0.360001X1.160001X0.360001X-1.160001X0.360001X-1.160001X-0.360001X0*%
%ADD54R,0.600000X0.240000*%
%ADD55R,0.500000X0.600000*%
%ADD56RoundRect,0.200000X-1.140000X0.290000X-1.140000X-0.290000X1.140000X-0.290000X1.140000X0.290000X0*%
%ADD57RoundRect,0.200000X0.520000X-0.260000X0.520000X0.260000X-0.520000X0.260000X-0.520000X-0.260000X0*%
%ADD58R,1.600000X4.240000*%
%ADD59RoundRect,0.120000X0.120000X-0.410000X0.120000X0.410000X-0.120000X0.410000X-0.120000X-0.410000X0*%
%ADD60RoundRect,0.200000X0.260000X0.880000X-0.260000X0.880000X-0.260000X-0.880000X0.260000X-0.880000X0*%
%ADD61R,0.420000X0.120000*%
%ADD62RoundRect,0.180000X-0.200000X0.180000X-0.200000X-0.180000X0.200000X-0.180000X0.200000X0.180000X0*%
%ADD63RoundRect,0.200000X0.200000X0.380000X-0.200000X0.380000X-0.200000X-0.380000X0.200000X-0.380000X0*%
%ADD64RoundRect,0.200000X0.440000X-1.000000X0.440000X1.000000X-0.440000X1.000000X-0.440000X-1.000000X0*%
%ADD65RoundRect,0.030000X0.030000X-0.139500X0.030000X0.139500X-0.030000X0.139500X-0.030000X-0.139500X0*%
%ADD66RoundRect,0.020040X0.039960X-0.149460X0.039960X0.149460X-0.039960X0.149460X-0.039960X-0.149460X0*%
%ADD67RoundRect,0.030030X0.074970X-0.139470X0.074970X0.139470X-0.074970X0.139470X-0.074970X-0.139470X0*%
%ADD68R,0.520000X0.320000*%
%ADD69R,1.040000X2.000000*%
%ADD70R,4.064000X1.016000*%
%ADD71RoundRect,0.200000X0.250000X0.500000X-0.250000X0.500000X-0.250000X-0.500000X0.250000X-0.500000X0*%
G04 APERTURE END LIST*
D10*
X186000000Y0D02*
X186000000Y-108000000D01*
X6000000Y-118000000D02*
X0Y-118000000D01*
X180000000Y-108000000D02*
X186000000Y-108000000D01*
X186000000Y-118000000D02*
X186000000Y-226000000D01*
X0Y-226000000D02*
X0Y-118000000D01*
X102000000Y-45000000D02*
G75*
G03*
X102000000Y-45000000I-12000000J0D01*
G01*
X102000000Y-181992000D02*
G75*
G03*
X102000000Y-181992000I-12000000J0D01*
G01*
X6000000Y-108000000D02*
X0Y-108000000D01*
X0Y0D02*
X186000000Y0D01*
X180000000Y-118000000D02*
X186000000Y-118000000D01*
X0Y-108000000D02*
X0Y0D01*
X0Y-226000000D02*
X186000000Y-226000000D01*
X6000000Y-108000000D02*
G75*
G02*
X6000000Y-118000000I0J-5000000D01*
G01*
X180000000Y-118000000D02*
G75*
G02*
X180000000Y-108000000I0J5000000D01*
G01*
D11*
X133322200Y-68784200D03*
X133322200Y-70054200D03*
X133322200Y-71324200D03*
X133322200Y-72594200D03*
X138272200Y-72594200D03*
X138272200Y-71324200D03*
X138272200Y-70054200D03*
X138272200Y-68784200D03*
D12*
X123161200Y-136780000D03*
X124811200Y-136780000D03*
D13*
X40098200Y-153575000D03*
X40098200Y-151735000D03*
D14*
X44080200Y-152655000D03*
D15*
X50376988Y-181809991D03*
X50376988Y-180649991D03*
D16*
X53239488Y-183504991D03*
X53239488Y-182854991D03*
X53239488Y-182204991D03*
X53239488Y-181554991D03*
X53239488Y-180904991D03*
X53239488Y-180254991D03*
X53239488Y-179604991D03*
X53239488Y-178954991D03*
X47514488Y-178954991D03*
X47514488Y-179604991D03*
X47514488Y-180254991D03*
X47514488Y-180904991D03*
X47514488Y-181554991D03*
X47514488Y-182204991D03*
X47514488Y-182854991D03*
X47514488Y-183504991D03*
D12*
X59844000Y-127010000D03*
X61494000Y-127010000D03*
D17*
X50758000Y-141065000D03*
X50758000Y-139415000D03*
D18*
X128316400Y-147397200D03*
X126666400Y-147397200D03*
D12*
X51505000Y-157725600D03*
X53155000Y-157725600D03*
D17*
X48345000Y-177038000D03*
X48345000Y-175388000D03*
D19*
X54982901Y-161213400D03*
X54982901Y-162863400D03*
D18*
X59339000Y-178923000D03*
X57689000Y-178923000D03*
D19*
X49764600Y-161193200D03*
X49764600Y-162843200D03*
D18*
X53155000Y-159275000D03*
X51505000Y-159275000D03*
D19*
X126932600Y-73415600D03*
X126932600Y-75065600D03*
D12*
X128393600Y-73490800D03*
X130043600Y-73490800D03*
D17*
X47583000Y-189294000D03*
X47583000Y-187644000D03*
D18*
X58314000Y-184913000D03*
X56664000Y-184913000D03*
X59330000Y-180468000D03*
X57680000Y-180468000D03*
D12*
X57680000Y-181992000D03*
X59330000Y-181992000D03*
X157290000Y-73860000D03*
X158940000Y-73860000D03*
D18*
X61499000Y-125477000D03*
X59849000Y-125477000D03*
D17*
X52390000Y-141070000D03*
X52390000Y-139420000D03*
D18*
X123388800Y-134189200D03*
X121738800Y-134189200D03*
D19*
X151596000Y-124067800D03*
X151596000Y-125717800D03*
X153424800Y-124067800D03*
X153424800Y-125717800D03*
D12*
X157298800Y-72289400D03*
X158948800Y-72289400D03*
D20*
X141944000Y-68936600D03*
X140394000Y-68936600D03*
D21*
X134123800Y-74218000D03*
X135673800Y-74218000D03*
D22*
X81136400Y-122187400D03*
X81136400Y-123737400D03*
X86394200Y-122212800D03*
X86394200Y-123762800D03*
D21*
X70074400Y-127585200D03*
X71624400Y-127585200D03*
X50380001Y-127034001D03*
X51930001Y-127034001D03*
D20*
X129984800Y-75032600D03*
X128434800Y-75032600D03*
X64855000Y-127001000D03*
X63305000Y-127001000D03*
X127774400Y-71886600D03*
X126224400Y-71886600D03*
X68779000Y-139447000D03*
X70329000Y-139447000D03*
X145182800Y-164415200D03*
X143632800Y-164415200D03*
D23*
X106599799Y-161703800D03*
X121599799Y-161703800D03*
D24*
X110599799Y-159003800D03*
X113099799Y-159003800D03*
X115099799Y-159003800D03*
X117599799Y-159003800D03*
D25*
X49989996Y-137609995D03*
X50389996Y-129409995D03*
X50789996Y-137609995D03*
X51189996Y-129409995D03*
X51589996Y-137609995D03*
X51989996Y-129409995D03*
X52389996Y-137609995D03*
X52789996Y-129409995D03*
X53189996Y-137609995D03*
X53589996Y-129409995D03*
X53989996Y-137609995D03*
X54389996Y-129409995D03*
X54789996Y-137609995D03*
X55189996Y-129409995D03*
X55589996Y-137609995D03*
X55989996Y-129409995D03*
X59589996Y-137609995D03*
X59989996Y-129409995D03*
X60389996Y-137609995D03*
X60789996Y-129409995D03*
X61189996Y-137609995D03*
X61589996Y-129409995D03*
X61989996Y-137609995D03*
X62389996Y-129409995D03*
X62789996Y-137609995D03*
X63189996Y-129409995D03*
X63589996Y-137609995D03*
X63989996Y-129409995D03*
X64389996Y-137609995D03*
X64789996Y-129409995D03*
X65189996Y-137609995D03*
X65589996Y-129409995D03*
X65989996Y-137609995D03*
X66389996Y-129409995D03*
X66789996Y-137609995D03*
X67189996Y-129409995D03*
X67589996Y-137609995D03*
X67989996Y-129409995D03*
X68389996Y-137609995D03*
X68789996Y-129409995D03*
X69189996Y-137609995D03*
X69589996Y-129409995D03*
X69989996Y-137609995D03*
X70389996Y-129409995D03*
X70789996Y-137609995D03*
X71189996Y-129409995D03*
X71589996Y-137609995D03*
X71989996Y-129409995D03*
X72389996Y-137609995D03*
X72789996Y-129409995D03*
X73189996Y-137609995D03*
X73589996Y-129409995D03*
D26*
X76439996Y-137009995D03*
X47139996Y-137009995D03*
D17*
X23148200Y-140010800D03*
X23148200Y-141660800D03*
D22*
X49996000Y-176988000D03*
X49996000Y-175438000D03*
D27*
X122870000Y-148717500D03*
X122870000Y-154942500D03*
D17*
X23148200Y-143058800D03*
X23148200Y-144708800D03*
D28*
X33221001Y-210122999D03*
X33221001Y-214122999D03*
D29*
X29266000Y-145482000D03*
X29266000Y-147382000D03*
D30*
X53221800Y-149431000D03*
X53221800Y-146481000D03*
D29*
X17070000Y-145529799D03*
X17070000Y-147429799D03*
D31*
X56405301Y-164693600D03*
X55135301Y-164693600D03*
X55135301Y-171068600D03*
X56405301Y-171068600D03*
D32*
X142376500Y-67332100D03*
X142376500Y-65432100D03*
X140376500Y-66382100D03*
D28*
X41738802Y-196942057D03*
X41738802Y-192942057D03*
D33*
X117540000Y-154091112D03*
X119440000Y-154091112D03*
D34*
X42350600Y-181951400D03*
X39050600Y-181951400D03*
D35*
X40470999Y-123902203D03*
X40470999Y-128102203D03*
D20*
X34285800Y-140139000D03*
X35835800Y-140139000D03*
D34*
X42349600Y-184355400D03*
X39049600Y-184355400D03*
D28*
X53008802Y-196942057D03*
X53008802Y-192942057D03*
D21*
X53145600Y-184913000D03*
X51595600Y-184913000D03*
D36*
X39137300Y-179749600D03*
X40962300Y-179749600D03*
D37*
X31877000Y-134494000D03*
X34827000Y-134494000D03*
D29*
X127069799Y-153643799D03*
X127069799Y-155543799D03*
D38*
X53305400Y-160815000D03*
X51405400Y-160815000D03*
X52355400Y-162815000D03*
D28*
X49258802Y-196942057D03*
X49258802Y-192942057D03*
D12*
X41524600Y-186310000D03*
X39874600Y-186310000D03*
D35*
X28787000Y-141597800D03*
X28787000Y-137397800D03*
D29*
X33388000Y-218380000D03*
X33388000Y-220280000D03*
D39*
X35995099Y-123804600D03*
X35995099Y-122854600D03*
X35995099Y-121904600D03*
X33720099Y-121904600D03*
X33720099Y-122854600D03*
X33720099Y-123804600D03*
D21*
X35645599Y-125394600D03*
X34095599Y-125394600D03*
D22*
X36127599Y-120096600D03*
X36127599Y-118546600D03*
D40*
X33536800Y-185125800D03*
X34806800Y-185125800D03*
X36076800Y-185125800D03*
X37346800Y-185125800D03*
X37346800Y-179975800D03*
X36076800Y-179975800D03*
X34806800Y-179975800D03*
X33536800Y-179975800D03*
D37*
X16644000Y-134494000D03*
X19594000Y-134494000D03*
D41*
X38083500Y-201423000D03*
X36508500Y-201423000D03*
D42*
X139310010Y-154922499D03*
D43*
X138810010Y-154922499D03*
D44*
X138310010Y-154922499D03*
D42*
X137810010Y-154922499D03*
D43*
X137310010Y-154922499D03*
X137310010Y-155757499D03*
D42*
X137810010Y-155757499D03*
D44*
X138310010Y-155757499D03*
D42*
X138810010Y-155757499D03*
X139310010Y-155757499D03*
D45*
X54441000Y-187503800D03*
X50441000Y-187503800D03*
D33*
X117540000Y-149953334D03*
X119440000Y-149953334D03*
D19*
X53331001Y-177038000D03*
X53331001Y-175388000D03*
D46*
X130777201Y-70654199D03*
X130777201Y-68154199D03*
D20*
X28901000Y-189099999D03*
X30451000Y-189099999D03*
D28*
X53008802Y-204581257D03*
X53008802Y-200581257D03*
D20*
X40534200Y-148718000D03*
X42084200Y-148718000D03*
D47*
X43112599Y-131411800D03*
X43112599Y-134361800D03*
D19*
X31936599Y-122663600D03*
X31936599Y-121013600D03*
D48*
X33364500Y-141729000D03*
X33364500Y-142679000D03*
X33364500Y-143629000D03*
X35639500Y-143629000D03*
X35639500Y-142679000D03*
X35639500Y-141729000D03*
D49*
X31327000Y-184602000D03*
D50*
X31327000Y-182227000D03*
D35*
X14690000Y-141597800D03*
X14690000Y-137397800D03*
D33*
X117540000Y-156168334D03*
X119440000Y-156160000D03*
D48*
X48031900Y-157791600D03*
X48031900Y-159691600D03*
X45756900Y-159691600D03*
X45756900Y-158741600D03*
X45756900Y-157791600D03*
D51*
X28804000Y-209932000D03*
X21404000Y-209932000D03*
D52*
X38439000Y-199746600D03*
X38439000Y-197846600D03*
D41*
X37956500Y-196216000D03*
X36381500Y-196216000D03*
D20*
X48345000Y-173864000D03*
X49895000Y-173864000D03*
D53*
X43334998Y-169926999D03*
X43334998Y-165826999D03*
D54*
X135760000Y-75572000D03*
X135760000Y-76072000D03*
X135760000Y-76572000D03*
X135760000Y-77072000D03*
X132860000Y-77072000D03*
X132860000Y-76572000D03*
X132860000Y-76072000D03*
X132860000Y-75572000D03*
D55*
X134635000Y-75947000D03*
X133985000Y-75947000D03*
X134635000Y-76697000D03*
X133985000Y-76697000D03*
D56*
X37118200Y-148168500D03*
X37118200Y-154093500D03*
D57*
X88400800Y-123650000D03*
X88400800Y-120700000D03*
D19*
X31936599Y-125711600D03*
X31936599Y-124061600D03*
D52*
X36280000Y-199746600D03*
X36280000Y-197846600D03*
D19*
X56519800Y-159754400D03*
X56519800Y-158104400D03*
D22*
X49764600Y-159732200D03*
X49764600Y-158182200D03*
D29*
X35645000Y-218380000D03*
X35645000Y-220280000D03*
D47*
X43112600Y-155879000D03*
X43112600Y-158829000D03*
D28*
X45468803Y-204581257D03*
X45468803Y-200581257D03*
D17*
X37423000Y-139822000D03*
X37423000Y-141472000D03*
D58*
X31708000Y-201931000D03*
X28208000Y-201931000D03*
D59*
X126374799Y-151391300D03*
X127324799Y-151391300D03*
X128274799Y-151391300D03*
X128274799Y-149116300D03*
X127324799Y-149116300D03*
X126374799Y-149116300D03*
D36*
X28740000Y-187326000D03*
X30565000Y-187326000D03*
D60*
X12228000Y-134494000D03*
X9278000Y-134494000D03*
D61*
X112239990Y-106585002D03*
X115319990Y-106585002D03*
X112239990Y-106985002D03*
X115319990Y-106985002D03*
X112239990Y-107385002D03*
X115319990Y-107385002D03*
X112239990Y-107785002D03*
X115319990Y-107785002D03*
X112239990Y-108185002D03*
X115319990Y-108185002D03*
X112239990Y-108585002D03*
X115319990Y-108585002D03*
X112239990Y-108985002D03*
X115319990Y-108985002D03*
X112239990Y-109385002D03*
X115319990Y-109385002D03*
X112239990Y-109785002D03*
X115319990Y-109785002D03*
X112239990Y-110185002D03*
X115319990Y-110185002D03*
X112239990Y-110585002D03*
X115319990Y-110585002D03*
X112239990Y-110985002D03*
X115319990Y-110985002D03*
X112239990Y-111385002D03*
X115319990Y-111385002D03*
X112239990Y-111785002D03*
X115319990Y-111785002D03*
X112239990Y-112185002D03*
X115319990Y-112185002D03*
X112239990Y-112585002D03*
X115319990Y-112585002D03*
X112239990Y-112985002D03*
X115319990Y-112985002D03*
X112239990Y-113385002D03*
X115319990Y-113385002D03*
X112239990Y-113785002D03*
X115319990Y-113785002D03*
X112239990Y-114185002D03*
X115319990Y-114185002D03*
X112239990Y-114585002D03*
X115319990Y-114585002D03*
X112239990Y-114985002D03*
X115319990Y-114985002D03*
X112239990Y-115385002D03*
X115319990Y-115385002D03*
X112239990Y-115785002D03*
X115319990Y-115785002D03*
X112239990Y-116185002D03*
X115319990Y-116185002D03*
X112239990Y-116585002D03*
X115319990Y-116585002D03*
X112239990Y-116985002D03*
X115319990Y-116985002D03*
X112239990Y-117385002D03*
X115319990Y-117385002D03*
X112239990Y-117785002D03*
X115319990Y-117785002D03*
X112239990Y-118185002D03*
X115319990Y-118185002D03*
X112239990Y-118585002D03*
X115319990Y-118585002D03*
X112239990Y-118985002D03*
X115319990Y-118985002D03*
X112239990Y-119385002D03*
X115319990Y-119385002D03*
X112239990Y-119785002D03*
X115319990Y-119785002D03*
X112239990Y-120185002D03*
X115319990Y-120185002D03*
X112239990Y-120585002D03*
X115319990Y-120585002D03*
X112239990Y-120985002D03*
X115319990Y-120985002D03*
X112239990Y-121385002D03*
X115319990Y-121385002D03*
X112239990Y-121785002D03*
X115319990Y-121785002D03*
X112239990Y-122185002D03*
X115319990Y-122185002D03*
X112239990Y-122585002D03*
X115319990Y-122585002D03*
X112239990Y-122985002D03*
X115319990Y-122985002D03*
X112239990Y-123385002D03*
X115319990Y-123385002D03*
X112239990Y-123785002D03*
X115319990Y-123785002D03*
X112239990Y-124185002D03*
X115319990Y-124185002D03*
X112239990Y-124585002D03*
X115319990Y-124585002D03*
X112239990Y-124985002D03*
X115319990Y-124985002D03*
X112239990Y-125385002D03*
X115319990Y-125385002D03*
X112239990Y-125785002D03*
X115319990Y-125785002D03*
X112239990Y-126185002D03*
X115319990Y-126185002D03*
X146159990Y-106585002D03*
X149239990Y-106585002D03*
X146159990Y-106985002D03*
X149239990Y-106985002D03*
X146159990Y-107385002D03*
X149239990Y-107385002D03*
X146159990Y-107785002D03*
X149239990Y-107785002D03*
X146159990Y-108185002D03*
X149239990Y-108185002D03*
X146159990Y-108585002D03*
X149239990Y-108585002D03*
X146159990Y-108985002D03*
X149239990Y-108985002D03*
X146159990Y-109385002D03*
X149239990Y-109385002D03*
X146159990Y-109785002D03*
X149239990Y-109785002D03*
X146159990Y-110185002D03*
X149239990Y-110185002D03*
X146159990Y-110585002D03*
X149239990Y-110585002D03*
X146159990Y-110985002D03*
X149239990Y-110985002D03*
X146159990Y-111385002D03*
X149239990Y-111385002D03*
X146159990Y-111785002D03*
X149239990Y-111785002D03*
X146159990Y-112185002D03*
X149239990Y-112185002D03*
X146159990Y-112585002D03*
X149239990Y-112585002D03*
X146159990Y-112985002D03*
X149239990Y-112985002D03*
X146159990Y-113385002D03*
X149239990Y-113385002D03*
X146159990Y-113785002D03*
X149239990Y-113785002D03*
X146159990Y-114185002D03*
X149239990Y-114185002D03*
X146159990Y-114585002D03*
X149239990Y-114585002D03*
X146159990Y-114985002D03*
X149239990Y-114985002D03*
X146159990Y-115385002D03*
X149239990Y-115385002D03*
X146159990Y-115785002D03*
X149239990Y-115785002D03*
X146159990Y-116185002D03*
X149239990Y-116185002D03*
X146159990Y-116585002D03*
X149239990Y-116585002D03*
X146159990Y-116985002D03*
X149239990Y-116985002D03*
X146159990Y-117385002D03*
X149239990Y-117385002D03*
X146159990Y-117785002D03*
X149239990Y-117785002D03*
X146159990Y-118185002D03*
X149239990Y-118185002D03*
X146159990Y-118585002D03*
X149239990Y-118585002D03*
X146159990Y-118985002D03*
X149239990Y-118985002D03*
X146159990Y-119385002D03*
X149239990Y-119385002D03*
X146159990Y-119785002D03*
X149239990Y-119785002D03*
X146159990Y-120185002D03*
X149239990Y-120185002D03*
X146159990Y-120585002D03*
X149239990Y-120585002D03*
X146159990Y-120985002D03*
X149239990Y-120985002D03*
X146159990Y-121385002D03*
X149239990Y-121385002D03*
X146159990Y-121785002D03*
X149239990Y-121785002D03*
X146159990Y-122185002D03*
X149239990Y-122185002D03*
X146159990Y-122585002D03*
X149239990Y-122585002D03*
X146159990Y-122985002D03*
X149239990Y-122985002D03*
X146159990Y-123385002D03*
X149239990Y-123385002D03*
X146159990Y-123785002D03*
X149239990Y-123785002D03*
X146159990Y-124185002D03*
X149239990Y-124185002D03*
X146159990Y-124585002D03*
X149239990Y-124585002D03*
X146159990Y-124985002D03*
X149239990Y-124985002D03*
X146159990Y-125385002D03*
X149239990Y-125385002D03*
X146159990Y-125785002D03*
X149239990Y-125785002D03*
X146159990Y-126185002D03*
X149239990Y-126185002D03*
D29*
X14944000Y-145532800D03*
X14944000Y-147432800D03*
D42*
X134050001Y-154917495D03*
D43*
X133550001Y-154917495D03*
D44*
X133050001Y-154917495D03*
D42*
X132550001Y-154917495D03*
D43*
X132050001Y-154917495D03*
X132050001Y-155752495D03*
D42*
X132550001Y-155752495D03*
D44*
X133050001Y-155752495D03*
D42*
X133550001Y-155752495D03*
X134050001Y-155752495D03*
D33*
X117540000Y-151988891D03*
X119440000Y-152022224D03*
D62*
X33232000Y-145437000D03*
X33232000Y-146987000D03*
D57*
X79129800Y-123624600D03*
X79129800Y-120674600D03*
D60*
X28103000Y-183770000D03*
X25153000Y-183770000D03*
D48*
X19140500Y-141661800D03*
X19140500Y-142611800D03*
X19140500Y-143561800D03*
X21415500Y-143561800D03*
X21415500Y-142611800D03*
X21415500Y-141661800D03*
D60*
X36943999Y-130955203D03*
X33993999Y-130955203D03*
D52*
X38032599Y-120051600D03*
X38032599Y-118151600D03*
D62*
X19008000Y-145506800D03*
X19008000Y-147056800D03*
D63*
X53315399Y-164608700D03*
X51415399Y-164608700D03*
D19*
X56534200Y-162863400D03*
X56534200Y-161213400D03*
D20*
X20077800Y-140073800D03*
X21627800Y-140073800D03*
D30*
X49843600Y-149429200D03*
X49843600Y-146479200D03*
D22*
X51647000Y-176988000D03*
X51647000Y-175438000D03*
D60*
X26452000Y-134494000D03*
X23502000Y-134494000D03*
D64*
X44315201Y-177111600D03*
X44315201Y-172711600D03*
D65*
X112310010Y-156397503D03*
D66*
X112810010Y-156397503D03*
D67*
X113310010Y-156397503D03*
D65*
X113810010Y-156397503D03*
D66*
X114310010Y-156397503D03*
X114310010Y-155562503D03*
D65*
X113810010Y-155562503D03*
D67*
X113310010Y-155562503D03*
D65*
X112810010Y-155562503D03*
X112310010Y-155562503D03*
D29*
X31327000Y-145482000D03*
X31327000Y-147382000D03*
D60*
X28103000Y-180468000D03*
X25153000Y-180468000D03*
D41*
X35264000Y-222124000D03*
X33689000Y-222124000D03*
D19*
X55203000Y-184913000D03*
X55203000Y-183263000D03*
D28*
X45468803Y-196942057D03*
X45468803Y-192942057D03*
D17*
X37423000Y-142870000D03*
X37423000Y-144520000D03*
D68*
X154490000Y-113030000D03*
X154490000Y-114330000D03*
X152590000Y-114330000D03*
X152590000Y-113680000D03*
X152590000Y-113030000D03*
D69*
X28240000Y-157160000D03*
X30740000Y-157160000D03*
X33240000Y-157160000D03*
X35740000Y-157160000D03*
X38240000Y-157160000D03*
X38240000Y-176960000D03*
X35740000Y-176960000D03*
X33240000Y-176960000D03*
X30740000Y-176960000D03*
X28240000Y-176960000D03*
D70*
X146790000Y-61345000D03*
X146790000Y-39375000D03*
D71*
X37346800Y-187453000D03*
X34421800Y-187453000D03*
D28*
X41738802Y-204581257D03*
X41738802Y-200581257D03*
D30*
X46516200Y-149431000D03*
X46516200Y-146481000D03*
D29*
X44128600Y-181550000D03*
X44128600Y-183450000D03*
D68*
X155665000Y-72460000D03*
X155665000Y-73760000D03*
X153765000Y-73760000D03*
X153765000Y-73110000D03*
X153765000Y-72460000D03*
D41*
X35315000Y-216536000D03*
X33740000Y-216536000D03*
D30*
X29168000Y-134445000D03*
X29168000Y-131495000D03*
D47*
X39683599Y-131411800D03*
X39683599Y-134361800D03*
D22*
X48215200Y-162793200D03*
X48215200Y-161243200D03*
D68*
X125500000Y-73952400D03*
X125500000Y-75252400D03*
X123600000Y-75252400D03*
X123600000Y-74602400D03*
X123600000Y-73952400D03*
D41*
X156410000Y-68330000D03*
X154835000Y-68330000D03*
D19*
X54974400Y-177025800D03*
X54974400Y-175375800D03*
D28*
X49258802Y-204581257D03*
X49258802Y-200581257D03*
D52*
X40216999Y-120051600D03*
X40216999Y-118151600D03*
D41*
X156397500Y-66570000D03*
X154822500Y-66570000D03*
D19*
X54946200Y-159756600D03*
X54946200Y-158106600D03*
M02*
