G04 #@! TF.GenerationSoftware,KiCad,Pcbnew,5.99.0-unknown-50e22de3ba~107~ubuntu20.04.1*
G04 #@! TF.CreationDate,2021-01-25T09:24:04-06:00*
G04 #@! TF.ProjectId,AP3000,41503330-3030-42e6-9b69-6361645f7063,rev?*
G04 #@! TF.SameCoordinates,Original*
G04 #@! TF.FileFunction,Soldermask,Top*
G04 #@! TF.FilePolarity,Negative*
%FSLAX46Y46*%
G04 Gerber Fmt 4.6, Leading zero omitted, Abs format (unit mm)*
G04 Created by KiCad (PCBNEW 5.99.0-unknown-50e22de3ba~107~ubuntu20.04.1) date 2021-01-25 09:24:04*
%MOMM*%
%LPD*%
G01*
G04 APERTURE LIST*
G04 Aperture macros list*
%AMRoundRect*
0 Rectangle with rounded corners*
0 $1 Rounding radius*
0 $2 $3 $4 $5 $6 $7 $8 $9 X,Y pos of 4 corners*
0 Add a 4 corners polygon primitive as box body*
4,1,4,$2,$3,$4,$5,$6,$7,$8,$9,$2,$3,0*
0 Add four circle primitives for the rounded corners*
1,1,$1+$1,$2,$3*
1,1,$1+$1,$4,$5*
1,1,$1+$1,$6,$7*
1,1,$1+$1,$8,$9*
0 Add four rect primitives between the rounded corners*
20,1,$1+$1,$2,$3,$4,$5,0*
20,1,$1+$1,$4,$5,$6,$7,0*
20,1,$1+$1,$6,$7,$8,$9,0*
20,1,$1+$1,$8,$9,$2,$3,0*%
G04 Aperture macros list end*
G04 #@! TA.AperFunction,Profile*
%ADD10C,0.100000*%
G04 #@! TD*
G04 #@! TA.AperFunction,Profile*
%ADD11C,0.001000*%
G04 #@! TD*
%ADD12R,3.500000X3.500000*%
%ADD13RoundRect,0.750000X0.750000X1.000000X-0.750000X1.000000X-0.750000X-1.000000X0.750000X-1.000000X0*%
%ADD14RoundRect,0.875000X0.875000X0.875000X-0.875000X0.875000X-0.875000X-0.875000X0.875000X-0.875000X0*%
%ADD15R,1.700000X1.700000*%
%ADD16O,1.700000X1.700000*%
%ADD17C,1.300000*%
%ADD18R,1.100000X3.000000*%
%ADD19R,3.000000X7.000000*%
%ADD20C,5.000000*%
%ADD21C,1.600000*%
%ADD22C,1.100000*%
%ADD23R,0.600000X2.000000*%
%ADD24R,2.300000X3.200000*%
%ADD25RoundRect,0.200000X-0.200000X-0.275000X0.200000X-0.275000X0.200000X0.275000X-0.200000X0.275000X0*%
%ADD26RoundRect,0.200000X-0.275000X0.200000X-0.275000X-0.200000X0.275000X-0.200000X0.275000X0.200000X0*%
%ADD27RoundRect,0.225000X0.250000X-0.225000X0.250000X0.225000X-0.250000X0.225000X-0.250000X-0.225000X0*%
%ADD28RoundRect,0.200000X0.200000X0.275000X-0.200000X0.275000X-0.200000X-0.275000X0.200000X-0.275000X0*%
%ADD29RoundRect,0.101600X-1.016000X-1.016000X1.016000X-1.016000X1.016000X1.016000X-1.016000X1.016000X0*%
%ADD30C,2.235200*%
%ADD31C,4.800000*%
%ADD32C,7.400000*%
%ADD33RoundRect,0.250000X-1.025000X0.787500X-1.025000X-0.787500X1.025000X-0.787500X1.025000X0.787500X0*%
%ADD34R,1.800000X2.500000*%
%ADD35RoundRect,0.250000X-0.475000X0.250000X-0.475000X-0.250000X0.475000X-0.250000X0.475000X0.250000X0*%
%ADD36C,2.900000*%
%ADD37RoundRect,0.200000X0.275000X-0.200000X0.275000X0.200000X-0.275000X0.200000X-0.275000X-0.200000X0*%
%ADD38RoundRect,0.250000X1.100000X-0.325000X1.100000X0.325000X-1.100000X0.325000X-1.100000X-0.325000X0*%
%ADD39RoundRect,0.150000X0.825000X0.150000X-0.825000X0.150000X-0.825000X-0.150000X0.825000X-0.150000X0*%
%ADD40RoundRect,0.150000X-0.150000X0.662500X-0.150000X-0.662500X0.150000X-0.662500X0.150000X0.662500X0*%
%ADD41R,0.900000X0.800000*%
%ADD42RoundRect,0.250000X-0.250000X-0.475000X0.250000X-0.475000X0.250000X0.475000X-0.250000X0.475000X0*%
%ADD43R,0.900000X1.200000*%
%ADD44C,2.000000*%
%ADD45R,5.100000X1.900000*%
%ADD46RoundRect,0.225000X-0.225000X-0.250000X0.225000X-0.250000X0.225000X0.250000X-0.225000X0.250000X0*%
%ADD47RoundRect,0.225000X0.225000X0.250000X-0.225000X0.250000X-0.225000X-0.250000X0.225000X-0.250000X0*%
%ADD48RoundRect,0.250000X-0.262500X-0.450000X0.262500X-0.450000X0.262500X0.450000X-0.262500X0.450000X0*%
%ADD49RoundRect,0.250000X-0.325000X-1.100000X0.325000X-1.100000X0.325000X1.100000X-0.325000X1.100000X0*%
%ADD50R,0.800000X0.900000*%
%ADD51RoundRect,0.150000X0.512500X0.150000X-0.512500X0.150000X-0.512500X-0.150000X0.512500X-0.150000X0*%
%ADD52RoundRect,0.150000X0.150000X-0.725000X0.150000X0.725000X-0.150000X0.725000X-0.150000X-0.725000X0*%
%ADD53RoundRect,0.218750X0.218750X0.256250X-0.218750X0.256250X-0.218750X-0.256250X0.218750X-0.256250X0*%
%ADD54C,3.200000*%
%ADD55R,1.500000X1.500000*%
%ADD56C,1.500000*%
%ADD57RoundRect,0.050000X-0.050000X0.232500X-0.050000X-0.232500X0.050000X-0.232500X0.050000X0.232500X0*%
%ADD58RoundRect,0.033400X-0.066600X0.249100X-0.066600X-0.249100X0.066600X-0.249100X0.066600X0.249100X0*%
%ADD59RoundRect,0.050050X-0.124950X0.232450X-0.124950X-0.232450X0.124950X-0.232450X0.124950X0.232450X0*%
%ADD60R,2.500000X1.800000*%
%ADD61R,1.800000X1.000000*%
%ADD62RoundRect,0.250000X-1.100000X0.325000X-1.100000X-0.325000X1.100000X-0.325000X1.100000X0.325000X0*%
%ADD63RoundRect,0.150000X-0.512500X-0.150000X0.512500X-0.150000X0.512500X0.150000X-0.512500X0.150000X0*%
%ADD64R,1.500000X2.400000*%
%ADD65R,1.500000X1.050000*%
%ADD66RoundRect,0.250000X1.950000X1.000000X-1.950000X1.000000X-1.950000X-1.000000X1.950000X-1.000000X0*%
%ADD67RoundRect,0.250000X0.475000X-0.250000X0.475000X0.250000X-0.475000X0.250000X-0.475000X-0.250000X0*%
%ADD68R,0.750000X0.300000*%
%ADD69R,1.300000X1.500000*%
%ADD70RoundRect,0.250000X-1.425000X0.362500X-1.425000X-0.362500X1.425000X-0.362500X1.425000X0.362500X0*%
%ADD71RoundRect,0.250000X0.650000X-0.325000X0.650000X0.325000X-0.650000X0.325000X-0.650000X-0.325000X0*%
%ADD72R,2.000000X5.300000*%
%ADD73RoundRect,0.150000X0.150000X-0.512500X0.150000X0.512500X-0.150000X0.512500X-0.150000X-0.512500X0*%
%ADD74RoundRect,0.250000X0.325000X1.100000X-0.325000X1.100000X-0.325000X-1.100000X0.325000X-1.100000X0*%
%ADD75C,6.100000*%
%ADD76R,0.700000X0.200000*%
%ADD77R,1.398000X1.398000*%
%ADD78C,1.398000*%
%ADD79C,1.200000*%
%ADD80C,1.650000*%
%ADD81C,2.362500*%
%ADD82C,3.250000*%
%ADD83RoundRect,0.225000X-0.250000X0.225000X-0.250000X-0.225000X0.250000X-0.225000X0.250000X0.225000X0*%
%ADD84RoundRect,0.101600X1.016000X1.016000X-1.016000X1.016000X-1.016000X-1.016000X1.016000X-1.016000X0*%
%ADD85RoundRect,0.250000X0.250000X0.475000X-0.250000X0.475000X-0.250000X-0.475000X0.250000X-0.475000X0*%
%ADD86RoundRect,0.250000X0.550000X-1.250000X0.550000X1.250000X-0.550000X1.250000X-0.550000X-1.250000X0*%
%ADD87RoundRect,0.050000X0.050000X-0.232500X0.050000X0.232500X-0.050000X0.232500X-0.050000X-0.232500X0*%
%ADD88RoundRect,0.033400X0.066600X-0.249100X0.066600X0.249100X-0.066600X0.249100X-0.066600X-0.249100X0*%
%ADD89RoundRect,0.050050X0.124950X-0.232450X0.124950X0.232450X-0.124950X0.232450X-0.124950X-0.232450X0*%
%ADD90R,4.860000X3.360000*%
%ADD91R,1.400000X1.390000*%
%ADD92R,0.650000X0.400000*%
%ADD93R,1.300000X2.500000*%
%ADD94R,5.080000X1.270000*%
%ADD95C,17.800000*%
%ADD96RoundRect,0.250000X0.312500X0.625000X-0.312500X0.625000X-0.312500X-0.625000X0.312500X-0.625000X0*%
%ADD97RoundRect,0.150000X-0.825000X-0.150000X0.825000X-0.150000X0.825000X0.150000X-0.825000X0.150000X0*%
%ADD98R,2.460000X3.550000*%
%ADD99RoundRect,0.100000X0.687500X0.100000X-0.687500X0.100000X-0.687500X-0.100000X0.687500X-0.100000X0*%
G04 APERTURE END LIST*
D10*
X186000000Y0D02*
X186000000Y-108000000D01*
X6000000Y-118000000D02*
X0Y-118000000D01*
X180000000Y-108000000D02*
X186000000Y-108000000D01*
X186000000Y-118000000D02*
X186000000Y-226000000D01*
X0Y-226000000D02*
X0Y-118000000D01*
D11*
X96000000Y-45000000D02*
G75*
G03*
X96000000Y-45000000I-3000000J0D01*
G01*
X96000000Y-181992000D02*
G75*
G03*
X96000000Y-181992000I-3000000J0D01*
G01*
D10*
X6000000Y-108000000D02*
X0Y-108000000D01*
X0Y0D02*
X186000000Y0D01*
X180000000Y-118000000D02*
X186000000Y-118000000D01*
X0Y-108000000D02*
X0Y0D01*
X0Y-226000000D02*
X186000000Y-226000000D01*
X6000000Y-108000000D02*
G75*
G02*
X6000000Y-118000000I0J-5000000D01*
G01*
X180000000Y-118000000D02*
G75*
G02*
X180000000Y-108000000I0J5000000D01*
G01*
D12*
X42205999Y-217028000D03*
D13*
X48205999Y-217028000D03*
D14*
X45205999Y-212328000D03*
D15*
X159020000Y-91850000D03*
D16*
X156480000Y-91850000D03*
X153940000Y-91850000D03*
D17*
X111599799Y-163403800D03*
X116599799Y-163403800D03*
D18*
X117599799Y-159003800D03*
X115099799Y-159003800D03*
X113099799Y-159003800D03*
X110599799Y-159003800D03*
D19*
X121599799Y-161703800D03*
X106599799Y-161703800D03*
D20*
X49689996Y-85459995D03*
D21*
X49289996Y-133509995D03*
D20*
X73889996Y-85459995D03*
D22*
X74289996Y-133509995D03*
D23*
X49989996Y-137609995D03*
X50389996Y-129409995D03*
X50789996Y-137609995D03*
X51189996Y-129409995D03*
X51589996Y-137609995D03*
X51989996Y-129409995D03*
X52389996Y-137609995D03*
X52789996Y-129409995D03*
X53189996Y-137609995D03*
X53589996Y-129409995D03*
X53989996Y-137609995D03*
X54389996Y-129409995D03*
X54789996Y-137609995D03*
X55189996Y-129409995D03*
X55589996Y-137609995D03*
X55989996Y-129409995D03*
X59589996Y-137609995D03*
X59989996Y-129409995D03*
X60389996Y-137609995D03*
X60789996Y-129409995D03*
X61189996Y-137609995D03*
X61589996Y-129409995D03*
X61989996Y-137609995D03*
X62389996Y-129409995D03*
X62789996Y-137609995D03*
X63189996Y-129409995D03*
X63589996Y-137609995D03*
X63989996Y-129409995D03*
X64389996Y-137609995D03*
X64789996Y-129409995D03*
X65189996Y-137609995D03*
X65589996Y-129409995D03*
X65989996Y-137609995D03*
X66389996Y-129409995D03*
X66789996Y-137609995D03*
X67189996Y-129409995D03*
X67589996Y-137609995D03*
X67989996Y-129409995D03*
X68389996Y-137609995D03*
X68789996Y-129409995D03*
X69189996Y-137609995D03*
X69589996Y-129409995D03*
X69989996Y-137609995D03*
X70389996Y-129409995D03*
X70789996Y-137609995D03*
X71189996Y-129409995D03*
X71589996Y-137609995D03*
X71989996Y-129409995D03*
X72389996Y-137609995D03*
X72789996Y-129409995D03*
X73189996Y-137609995D03*
X73589996Y-129409995D03*
D24*
X47139996Y-137009995D03*
X76439996Y-137009995D03*
D25*
X57680000Y-180468000D03*
X59330000Y-180468000D03*
D26*
X23148200Y-140010800D03*
X23148200Y-141660800D03*
D27*
X49996000Y-176988000D03*
X49996000Y-175438000D03*
D28*
X130043600Y-73490800D03*
X128393600Y-73490800D03*
D29*
X75590000Y-72710000D03*
D30*
X80588720Y-72710000D03*
D31*
X18500000Y-192500000D03*
D32*
X18500000Y-192500000D03*
D33*
X122870000Y-148717500D03*
X122870000Y-154942500D03*
D26*
X23148200Y-143058800D03*
X23148200Y-144708800D03*
D25*
X56664000Y-184913000D03*
X58314000Y-184913000D03*
D34*
X33221001Y-210122999D03*
X33221001Y-214122999D03*
D35*
X29266000Y-145482000D03*
X29266000Y-147382000D03*
D36*
X170000000Y-113000000D03*
D20*
X170000000Y-113000000D03*
D37*
X49764600Y-162843200D03*
X49764600Y-161193200D03*
D38*
X53221800Y-149431000D03*
X53221800Y-146481000D03*
D39*
X117445000Y-75295000D03*
X117445000Y-74025000D03*
X117445000Y-72755000D03*
X117445000Y-71485000D03*
X117445000Y-70215000D03*
X117445000Y-68945000D03*
X117445000Y-67675000D03*
X112495000Y-67675000D03*
X112495000Y-68945000D03*
X112495000Y-70215000D03*
X112495000Y-71485000D03*
X112495000Y-72755000D03*
X112495000Y-74025000D03*
X112495000Y-75295000D03*
D35*
X17070000Y-145529799D03*
X17070000Y-147429799D03*
D28*
X53155000Y-157725600D03*
X51505000Y-157725600D03*
D40*
X56405301Y-164693600D03*
X55135301Y-164693600D03*
X55135301Y-171068600D03*
X56405301Y-171068600D03*
D15*
X126400000Y-61960000D03*
D16*
X126400000Y-64500000D03*
X123860000Y-61960000D03*
X123860000Y-64500000D03*
X121320000Y-61960000D03*
X121320000Y-64500000D03*
X118780000Y-61960000D03*
X118780000Y-64500000D03*
X116240000Y-61960000D03*
X116240000Y-64500000D03*
X113700000Y-61960000D03*
X113700000Y-64500000D03*
X111160000Y-61960000D03*
X111160000Y-64500000D03*
D41*
X142376500Y-67332100D03*
X142376500Y-65432100D03*
X140376500Y-66382100D03*
D26*
X48345000Y-175388000D03*
X48345000Y-177038000D03*
D25*
X51505000Y-159275000D03*
X53155000Y-159275000D03*
D20*
X174000000Y-18000000D03*
D36*
X174000000Y-18000000D03*
D34*
X41738802Y-196942057D03*
X41738802Y-192942057D03*
D42*
X117540000Y-154091112D03*
X119440000Y-154091112D03*
D43*
X42350600Y-181951400D03*
X39050600Y-181951400D03*
D44*
X25739000Y-130938000D03*
D45*
X40470999Y-123902203D03*
X40470999Y-128102203D03*
D46*
X34285800Y-140139000D03*
X35835800Y-140139000D03*
D43*
X42349600Y-184355400D03*
X39049600Y-184355400D03*
D34*
X53008802Y-196942057D03*
X53008802Y-192942057D03*
D15*
X83765000Y-126280000D03*
D16*
X83765000Y-123740000D03*
D47*
X53145600Y-184913000D03*
X51595600Y-184913000D03*
D48*
X39137300Y-179782200D03*
X40962300Y-179782200D03*
D49*
X31706200Y-134494000D03*
X34656200Y-134494000D03*
D35*
X127069799Y-153643799D03*
X127069799Y-155543799D03*
D50*
X53305400Y-160815000D03*
X51405400Y-160815000D03*
X52355400Y-162815000D03*
D34*
X49258802Y-196942057D03*
X49258802Y-192942057D03*
D28*
X41524600Y-186310000D03*
X39874600Y-186310000D03*
D20*
X169500000Y-221000000D03*
D36*
X169500000Y-221000000D03*
D26*
X52390000Y-139420000D03*
X52390000Y-141070000D03*
D20*
X93000000Y-221000000D03*
D36*
X93000000Y-221000000D03*
D45*
X28787000Y-141978800D03*
X28787000Y-137778800D03*
D28*
X158948800Y-72289400D03*
X157298800Y-72289400D03*
D35*
X33388000Y-218380000D03*
X33388000Y-220280000D03*
D51*
X35995099Y-123804600D03*
X35995099Y-122854600D03*
X35995099Y-121904600D03*
X33720099Y-121904600D03*
X33720099Y-122854600D03*
X33720099Y-123804600D03*
D47*
X35645599Y-125394600D03*
X34095599Y-125394600D03*
D27*
X36127599Y-120096600D03*
X36127599Y-118546600D03*
D46*
X63305000Y-127001000D03*
X64855000Y-127001000D03*
D52*
X33536800Y-185125800D03*
X34806800Y-185125800D03*
X36076800Y-185125800D03*
X37346800Y-185125800D03*
X37346800Y-179975800D03*
X36076800Y-179975800D03*
X34806800Y-179975800D03*
X33536800Y-179975800D03*
D49*
X16415400Y-134494000D03*
X19365400Y-134494000D03*
D53*
X38083500Y-201423000D03*
X36508500Y-201423000D03*
D54*
X99160000Y-154830000D03*
X87730000Y-154830000D03*
D55*
X89000000Y-148480000D03*
D56*
X90270000Y-145940000D03*
X91540000Y-148480000D03*
X92810000Y-145940000D03*
X94080000Y-148480000D03*
X95350000Y-145940000D03*
X96620000Y-148480000D03*
X97890000Y-145940000D03*
D57*
X136517800Y-155006100D03*
D58*
X136017800Y-155006100D03*
D59*
X135517800Y-155006100D03*
D57*
X135017800Y-155006100D03*
D58*
X134517800Y-155006100D03*
X134517800Y-155841100D03*
D57*
X135017800Y-155841100D03*
D59*
X135517800Y-155841100D03*
D57*
X136017800Y-155841100D03*
X136517800Y-155841100D03*
D37*
X126932600Y-75065600D03*
X126932600Y-73415600D03*
D36*
X16000000Y-113000000D03*
D20*
X16000000Y-113000000D03*
D60*
X54441000Y-187503800D03*
X50441000Y-187503800D03*
D42*
X117540000Y-149953334D03*
X119440000Y-149953334D03*
D37*
X53331001Y-177038000D03*
X53331001Y-175388000D03*
D61*
X130777201Y-70654199D03*
X130777201Y-68154199D03*
D28*
X61494000Y-127010000D03*
X59844000Y-127010000D03*
D46*
X28901000Y-189099999D03*
X30451000Y-189099999D03*
D34*
X53008802Y-204581257D03*
X53008802Y-200581257D03*
D46*
X40534200Y-148718000D03*
X42084200Y-148718000D03*
D44*
X58505000Y-150877000D03*
D25*
X59849000Y-125477000D03*
X61499000Y-125477000D03*
D44*
X21141600Y-131115800D03*
D62*
X43112599Y-131411800D03*
X43112599Y-134361800D03*
D37*
X31936599Y-122663600D03*
X31936599Y-121013600D03*
D25*
X57689000Y-178923000D03*
X59339000Y-178923000D03*
D63*
X33364500Y-141729000D03*
X33364500Y-142679000D03*
X33364500Y-143629000D03*
X35639500Y-143629000D03*
X35639500Y-142679000D03*
X35639500Y-141729000D03*
D28*
X109565000Y-67460000D03*
X107915000Y-67460000D03*
D64*
X31327000Y-184602000D03*
D65*
X31327000Y-182227000D03*
D45*
X14740800Y-141953400D03*
X14740800Y-137753400D03*
D28*
X124811200Y-136780000D03*
X123161200Y-136780000D03*
D42*
X117540000Y-156168334D03*
X119440000Y-156160000D03*
D63*
X45756900Y-157791600D03*
X45756900Y-158741600D03*
X45756900Y-159691600D03*
X48031900Y-159691600D03*
X48031900Y-157791600D03*
D20*
X16500000Y-221000000D03*
D36*
X16500000Y-221000000D03*
D66*
X28804000Y-209932000D03*
X21404000Y-209932000D03*
D46*
X128434800Y-75032600D03*
X129984800Y-75032600D03*
D28*
X59330000Y-181992000D03*
X57680000Y-181992000D03*
D37*
X153424800Y-125717800D03*
X153424800Y-124067800D03*
D28*
X109565000Y-69460000D03*
X107915000Y-69460000D03*
D67*
X38439000Y-199746600D03*
X38439000Y-197846600D03*
D53*
X37956500Y-196216000D03*
X36381500Y-196216000D03*
D46*
X48345000Y-173864000D03*
X49895000Y-173864000D03*
D38*
X43334998Y-169725600D03*
X43334998Y-166775600D03*
D68*
X132860000Y-75572000D03*
X132860000Y-76072000D03*
X132860000Y-76572000D03*
X132860000Y-77072000D03*
X135760000Y-77072000D03*
X135760000Y-76572000D03*
X135760000Y-76072000D03*
X135760000Y-75572000D03*
D69*
X134310000Y-76322000D03*
D25*
X121738800Y-134189200D03*
X123388800Y-134189200D03*
D70*
X37118200Y-148168500D03*
X37118200Y-154093500D03*
D25*
X120415000Y-71460000D03*
X122065000Y-71460000D03*
D71*
X88400800Y-123650000D03*
X88400800Y-120700000D03*
D37*
X31936599Y-125711600D03*
X31936599Y-124061600D03*
D67*
X36280000Y-199746600D03*
X36280000Y-197846600D03*
D46*
X140394000Y-68936600D03*
X141944000Y-68936600D03*
D37*
X56519800Y-159754400D03*
X56519800Y-158104400D03*
D15*
X152350000Y-82190000D03*
D16*
X152350000Y-84730000D03*
X149810000Y-82190000D03*
X149810000Y-84730000D03*
X147270000Y-82190000D03*
X147270000Y-84730000D03*
X144730000Y-82190000D03*
X144730000Y-84730000D03*
X142190000Y-82190000D03*
X142190000Y-84730000D03*
X139650000Y-82190000D03*
X139650000Y-84730000D03*
X137110000Y-82190000D03*
X137110000Y-84730000D03*
X134570000Y-82190000D03*
X134570000Y-84730000D03*
X132030000Y-82190000D03*
X132030000Y-84730000D03*
X129490000Y-82190000D03*
X129490000Y-84730000D03*
X126950000Y-82190000D03*
X126950000Y-84730000D03*
X124410000Y-82190000D03*
X124410000Y-84730000D03*
X121870000Y-82190000D03*
X121870000Y-84730000D03*
X119330000Y-82190000D03*
X119330000Y-84730000D03*
X116790000Y-82190000D03*
X116790000Y-84730000D03*
X114250000Y-82190000D03*
X114250000Y-84730000D03*
X111710000Y-82190000D03*
X111710000Y-84730000D03*
X109170000Y-82190000D03*
X109170000Y-84730000D03*
X106630000Y-82190000D03*
X106630000Y-84730000D03*
X104090000Y-82190000D03*
X104090000Y-84730000D03*
D27*
X49764600Y-159732200D03*
X49764600Y-158182200D03*
D44*
X46424000Y-122937000D03*
D35*
X35645000Y-218380000D03*
X35645000Y-220280000D03*
D62*
X43112600Y-155879000D03*
X43112600Y-158829000D03*
D26*
X50758000Y-139415000D03*
X50758000Y-141065000D03*
D34*
X45468803Y-204581257D03*
X45468803Y-200581257D03*
D26*
X37423000Y-139822000D03*
X37423000Y-141472000D03*
D72*
X31708000Y-201931000D03*
X28208000Y-201931000D03*
D73*
X126374799Y-151391300D03*
X127324799Y-151391300D03*
X128274799Y-151391300D03*
X128274799Y-149116300D03*
X127324799Y-149116300D03*
X126374799Y-149116300D03*
D25*
X120415000Y-69460000D03*
X122065000Y-69460000D03*
D31*
X18500000Y-33500000D03*
D32*
X18500000Y-33500000D03*
D48*
X28740000Y-187326000D03*
X30565000Y-187326000D03*
D27*
X86394200Y-123762800D03*
X86394200Y-122212800D03*
D36*
X93000000Y-5000000D03*
D20*
X93000000Y-5000000D03*
D74*
X13091600Y-134494000D03*
X10141600Y-134494000D03*
D46*
X68779000Y-139447000D03*
X70329000Y-139447000D03*
D75*
X147239990Y-94885002D03*
X114239990Y-142885002D03*
X114239990Y-94885002D03*
X147239990Y-142885002D03*
D76*
X149239990Y-126185002D03*
X146159990Y-126185002D03*
X149239990Y-125785002D03*
X146159990Y-125785002D03*
X149239990Y-125385002D03*
X146159990Y-125385002D03*
X149239990Y-124985002D03*
X146159990Y-124985002D03*
X149239990Y-124585002D03*
X146159990Y-124585002D03*
X149239990Y-124185002D03*
X146159990Y-124185002D03*
X149239990Y-123785002D03*
X146159990Y-123785002D03*
X149239990Y-123385002D03*
X146159990Y-123385002D03*
X149239990Y-122985002D03*
X146159990Y-122985002D03*
X149239990Y-122585002D03*
X146159990Y-122585002D03*
X149239990Y-122185002D03*
X146159990Y-122185002D03*
X149239990Y-121785002D03*
X146159990Y-121785002D03*
X149239990Y-121385002D03*
X146159990Y-121385002D03*
X149239990Y-120985002D03*
X146159990Y-120985002D03*
X149239990Y-120585002D03*
X146159990Y-120585002D03*
X149239990Y-120185002D03*
X146159990Y-120185002D03*
X149239990Y-119785002D03*
X146159990Y-119785002D03*
X149239990Y-119385002D03*
X146159990Y-119385002D03*
X149239990Y-118985002D03*
X146159990Y-118985002D03*
X149239990Y-118585002D03*
X146159990Y-118585002D03*
X149239990Y-118185002D03*
X146159990Y-118185002D03*
X149239990Y-117785002D03*
X146159990Y-117785002D03*
X149239990Y-117385002D03*
X146159990Y-117385002D03*
X149239990Y-116985002D03*
X146159990Y-116985002D03*
X149239990Y-116585002D03*
X146159990Y-116585002D03*
X149239990Y-116185002D03*
X146159990Y-116185002D03*
X149239990Y-115785002D03*
X146159990Y-115785002D03*
X149239990Y-115385002D03*
X146159990Y-115385002D03*
X149239990Y-114985002D03*
X146159990Y-114985002D03*
X149239990Y-114585002D03*
X146159990Y-114585002D03*
X149239990Y-114185002D03*
X146159990Y-114185002D03*
X149239990Y-113785002D03*
X146159990Y-113785002D03*
X149239990Y-113385002D03*
X146159990Y-113385002D03*
X149239990Y-112985002D03*
X146159990Y-112985002D03*
X149239990Y-112585002D03*
X146159990Y-112585002D03*
X149239990Y-112185002D03*
X146159990Y-112185002D03*
X149239990Y-111785002D03*
X146159990Y-111785002D03*
X149239990Y-111385002D03*
X146159990Y-111385002D03*
X149239990Y-110985002D03*
X146159990Y-110985002D03*
X149239990Y-110585002D03*
X146159990Y-110585002D03*
X149239990Y-110185002D03*
X146159990Y-110185002D03*
X149239990Y-109785002D03*
X146159990Y-109785002D03*
X149239990Y-109385002D03*
X146159990Y-109385002D03*
X149239990Y-108985002D03*
X146159990Y-108985002D03*
X149239990Y-108585002D03*
X146159990Y-108585002D03*
X149239990Y-108185002D03*
X146159990Y-108185002D03*
X149239990Y-107785002D03*
X146159990Y-107785002D03*
X149239990Y-107385002D03*
X146159990Y-107385002D03*
X149239990Y-106985002D03*
X146159990Y-106985002D03*
X149239990Y-106585002D03*
X146159990Y-106585002D03*
X115319990Y-126185002D03*
X112239990Y-126185002D03*
X115319990Y-125785002D03*
X112239990Y-125785002D03*
X115319990Y-125385002D03*
X112239990Y-125385002D03*
X115319990Y-124985002D03*
X112239990Y-124985002D03*
X115319990Y-124585002D03*
X112239990Y-124585002D03*
X115319990Y-124185002D03*
X112239990Y-124185002D03*
X115319990Y-123785002D03*
X112239990Y-123785002D03*
X115319990Y-123385002D03*
X112239990Y-123385002D03*
X115319990Y-122985002D03*
X112239990Y-122985002D03*
X115319990Y-122585002D03*
X112239990Y-122585002D03*
X115319990Y-122185002D03*
X112239990Y-122185002D03*
X115319990Y-121785002D03*
X112239990Y-121785002D03*
X115319990Y-121385002D03*
X112239990Y-121385002D03*
X115319990Y-120985002D03*
X112239990Y-120985002D03*
X115319990Y-120585002D03*
X112239990Y-120585002D03*
X115319990Y-120185002D03*
X112239990Y-120185002D03*
X115319990Y-119785002D03*
X112239990Y-119785002D03*
X115319990Y-119385002D03*
X112239990Y-119385002D03*
X115319990Y-118985002D03*
X112239990Y-118985002D03*
X115319990Y-118585002D03*
X112239990Y-118585002D03*
X115319990Y-118185002D03*
X112239990Y-118185002D03*
X115319990Y-117785002D03*
X112239990Y-117785002D03*
X115319990Y-117385002D03*
X112239990Y-117385002D03*
X115319990Y-116985002D03*
X112239990Y-116985002D03*
X115319990Y-116585002D03*
X112239990Y-116585002D03*
X115319990Y-116185002D03*
X112239990Y-116185002D03*
X115319990Y-115785002D03*
X112239990Y-115785002D03*
X115319990Y-115385002D03*
X112239990Y-115385002D03*
X115319990Y-114985002D03*
X112239990Y-114985002D03*
X115319990Y-114585002D03*
X112239990Y-114585002D03*
X115319990Y-114185002D03*
X112239990Y-114185002D03*
X115319990Y-113785002D03*
X112239990Y-113785002D03*
X115319990Y-113385002D03*
X112239990Y-113385002D03*
X115319990Y-112985002D03*
X112239990Y-112985002D03*
X115319990Y-112585002D03*
X112239990Y-112585002D03*
X115319990Y-112185002D03*
X112239990Y-112185002D03*
X115319990Y-111785002D03*
X112239990Y-111785002D03*
X115319990Y-111385002D03*
X112239990Y-111385002D03*
X115319990Y-110985002D03*
X112239990Y-110985002D03*
X115319990Y-110585002D03*
X112239990Y-110585002D03*
X115319990Y-110185002D03*
X112239990Y-110185002D03*
X115319990Y-109785002D03*
X112239990Y-109785002D03*
X115319990Y-109385002D03*
X112239990Y-109385002D03*
X115319990Y-108985002D03*
X112239990Y-108985002D03*
X115319990Y-108585002D03*
X112239990Y-108585002D03*
X115319990Y-108185002D03*
X112239990Y-108185002D03*
X115319990Y-107785002D03*
X112239990Y-107785002D03*
X115319990Y-107385002D03*
X112239990Y-107385002D03*
X115319990Y-106985002D03*
X112239990Y-106985002D03*
X115319990Y-106585002D03*
X112239990Y-106585002D03*
D47*
X135673800Y-74218000D03*
X134123800Y-74218000D03*
D36*
X174000000Y-208000000D03*
D20*
X174000000Y-208000000D03*
D46*
X126224400Y-71886600D03*
X127774400Y-71886600D03*
D35*
X14944000Y-145532800D03*
X14944000Y-147432800D03*
D57*
X133241200Y-155006100D03*
D58*
X132741200Y-155006100D03*
D59*
X132241200Y-155006100D03*
D57*
X131741200Y-155006100D03*
D58*
X131241200Y-155006100D03*
X131241200Y-155841100D03*
D57*
X131741200Y-155841100D03*
D59*
X132241200Y-155841100D03*
D57*
X132741200Y-155841100D03*
X133241200Y-155841100D03*
D77*
X138930000Y-163500000D03*
D78*
X136898000Y-163500000D03*
X134866000Y-163500000D03*
X132834000Y-163500000D03*
X130802000Y-163500000D03*
X128770000Y-163500000D03*
X139946000Y-160960000D03*
X137914000Y-160960000D03*
X135882000Y-160960000D03*
X131818000Y-160960000D03*
X129786000Y-160960000D03*
X127754000Y-160960000D03*
D79*
X139438000Y-170610000D03*
X128262000Y-170610000D03*
X139438000Y-172100000D03*
X128262000Y-172100000D03*
D80*
X139946000Y-158420000D03*
X137406000Y-158420000D03*
X130294000Y-158420000D03*
X127754000Y-158420000D03*
D81*
X141915000Y-181915000D03*
X125785000Y-181915000D03*
D82*
X127500000Y-178740000D03*
X140200000Y-178740000D03*
D42*
X117540000Y-151988891D03*
X119440000Y-152022224D03*
D83*
X33232000Y-145437000D03*
X33232000Y-146987000D03*
D71*
X79129800Y-123624600D03*
X79129800Y-120674600D03*
D74*
X28103000Y-183770000D03*
X25153000Y-183770000D03*
D15*
X153040000Y-98010000D03*
D16*
X153040000Y-100550000D03*
X153040000Y-103090000D03*
D26*
X47583000Y-187644000D03*
X47583000Y-189294000D03*
D63*
X19140500Y-141661800D03*
X19140500Y-142611800D03*
X19140500Y-143561800D03*
X21415500Y-143561800D03*
X21415500Y-142611800D03*
X21415500Y-141661800D03*
D74*
X36943999Y-130955203D03*
X33993999Y-130955203D03*
D67*
X38032599Y-120051600D03*
X38032599Y-118151600D03*
D27*
X81136400Y-123737400D03*
X81136400Y-122187400D03*
D47*
X51930001Y-127034001D03*
X50380001Y-127034001D03*
D84*
X80340000Y-158410000D03*
D30*
X75341280Y-158410000D03*
D83*
X19008000Y-145506800D03*
X19008000Y-147056800D03*
D36*
X169500000Y-5000000D03*
D20*
X169500000Y-5000000D03*
D85*
X53315399Y-164608700D03*
X51415399Y-164608700D03*
D37*
X56534200Y-162863400D03*
X56534200Y-161213400D03*
D46*
X20077800Y-140073800D03*
X21627800Y-140073800D03*
D15*
X157090000Y-98010000D03*
D16*
X159630000Y-98010000D03*
X157090000Y-100550000D03*
X159630000Y-100550000D03*
X157090000Y-103090000D03*
X159630000Y-103090000D03*
X157090000Y-105630000D03*
X159630000Y-105630000D03*
X157090000Y-108170000D03*
X159630000Y-108170000D03*
X157090000Y-110710000D03*
X159630000Y-110710000D03*
X157090000Y-113250000D03*
X159630000Y-113250000D03*
D37*
X54982901Y-162863400D03*
X54982901Y-161213400D03*
D36*
X12000000Y-18000000D03*
D20*
X12000000Y-18000000D03*
D38*
X49843600Y-149429200D03*
X49843600Y-146479200D03*
D27*
X51647000Y-176988000D03*
X51647000Y-175438000D03*
D74*
X26629800Y-134494000D03*
X23679800Y-134494000D03*
D54*
X87405000Y-76130000D03*
X98835000Y-76130000D03*
D55*
X97565000Y-82480000D03*
D56*
X96295000Y-85020000D03*
X95025000Y-82480000D03*
X93755000Y-85020000D03*
X92485000Y-82480000D03*
X91215000Y-85020000D03*
X89945000Y-82480000D03*
X88675000Y-85020000D03*
D86*
X44315201Y-177111600D03*
X44315201Y-172711600D03*
D87*
X112310010Y-156397503D03*
D88*
X112810010Y-156397503D03*
D89*
X113310010Y-156397503D03*
D87*
X113810010Y-156397503D03*
D88*
X114310010Y-156397503D03*
X114310010Y-155562503D03*
D87*
X113810010Y-155562503D03*
D89*
X113310010Y-155562503D03*
D87*
X112810010Y-155562503D03*
X112310010Y-155562503D03*
D25*
X126666400Y-147397200D03*
X128316400Y-147397200D03*
D90*
X44080200Y-152655000D03*
D91*
X40098200Y-153575000D03*
X40098200Y-151735000D03*
D35*
X31327000Y-145482000D03*
X31327000Y-147382000D03*
D74*
X28103000Y-180468000D03*
X25153000Y-180468000D03*
D44*
X46440000Y-126620000D03*
X13623200Y-131065000D03*
D53*
X35264000Y-222124000D03*
X33689000Y-222124000D03*
D37*
X55203000Y-184913000D03*
X55203000Y-183263000D03*
D34*
X45468803Y-196942057D03*
X45468803Y-192942057D03*
D26*
X37423000Y-142870000D03*
X37423000Y-144520000D03*
D92*
X152590000Y-113030000D03*
X152590000Y-113680000D03*
X152590000Y-114330000D03*
X154490000Y-114330000D03*
X154490000Y-113030000D03*
D93*
X28232000Y-177047400D03*
X30732000Y-177047400D03*
X33232000Y-177047400D03*
X35732000Y-177047400D03*
X38232000Y-177047400D03*
X38232000Y-157247400D03*
X35732000Y-157247400D03*
X33232000Y-157247400D03*
X30732000Y-157247400D03*
X28232000Y-157247400D03*
D94*
X146790000Y-61345000D03*
X146790000Y-39375000D03*
D95*
X146790000Y-50360000D03*
D96*
X37346800Y-187453000D03*
X34421800Y-187453000D03*
D47*
X71624400Y-127432800D03*
X70074400Y-127432800D03*
D34*
X41738802Y-204581257D03*
X41738802Y-200581257D03*
D25*
X120415000Y-67460000D03*
X122065000Y-67460000D03*
D32*
X167500000Y-192500000D03*
D31*
X167500000Y-192500000D03*
D38*
X46516200Y-149431000D03*
X46516200Y-146481000D03*
D46*
X143632800Y-164415200D03*
X145182800Y-164415200D03*
D97*
X133322200Y-68784200D03*
X133322200Y-70054200D03*
X133322200Y-71324200D03*
X133322200Y-72594200D03*
X138272200Y-72594200D03*
X138272200Y-71324200D03*
X138272200Y-70054200D03*
X138272200Y-68784200D03*
D35*
X44128600Y-181550000D03*
X44128600Y-183450000D03*
D92*
X153765000Y-72460000D03*
X153765000Y-73110000D03*
X153765000Y-73760000D03*
X155665000Y-73760000D03*
X155665000Y-72460000D03*
D53*
X35315000Y-216536000D03*
X33740000Y-216536000D03*
D38*
X29168000Y-134445000D03*
X29168000Y-131495000D03*
D62*
X39683599Y-131411800D03*
X39683599Y-134361800D03*
D98*
X50376988Y-181229991D03*
D99*
X53239488Y-183504991D03*
X53239488Y-182854991D03*
X53239488Y-182204991D03*
X53239488Y-181554991D03*
X53239488Y-180904991D03*
X53239488Y-180254991D03*
X53239488Y-179604991D03*
X53239488Y-178954991D03*
X47514488Y-178954991D03*
X47514488Y-179604991D03*
X47514488Y-180254991D03*
X47514488Y-180904991D03*
X47514488Y-181554991D03*
X47514488Y-182204991D03*
X47514488Y-182854991D03*
X47514488Y-183504991D03*
D28*
X158940000Y-73860000D03*
X157290000Y-73860000D03*
D27*
X48215200Y-162793200D03*
X48215200Y-161243200D03*
D92*
X123600000Y-73952400D03*
X123600000Y-74602400D03*
X123600000Y-75252400D03*
X125500000Y-75252400D03*
X125500000Y-73952400D03*
D32*
X167500000Y-33500000D03*
D31*
X167500000Y-33500000D03*
D53*
X156410000Y-68330000D03*
X154835000Y-68330000D03*
D37*
X151596000Y-125717800D03*
X151596000Y-124067800D03*
X54974400Y-177025800D03*
X54974400Y-175375800D03*
D34*
X49258802Y-204581257D03*
X49258802Y-200581257D03*
D44*
X62315000Y-150877000D03*
D67*
X40216999Y-120051600D03*
X40216999Y-118151600D03*
D36*
X12000000Y-208000000D03*
D20*
X12000000Y-208000000D03*
D53*
X156397500Y-66570000D03*
X154822500Y-66570000D03*
D37*
X54946200Y-159756600D03*
X54946200Y-158106600D03*
D36*
X16500000Y-5000000D03*
D20*
X16500000Y-5000000D03*
D28*
X109565000Y-71460000D03*
X107915000Y-71460000D03*
M02*
